  0
SECTION
  2
HEADER
  9
$ACADVER
  1
AC1014
  9
$ACADMAINTVER
 70
     0
  9
$DWGCODEPAGE
  3
ANSI_1252
  9
$INSBASE
 10
0.0
 20
0.0
 30
0.0
  9
$EXTMIN
 10
0.0
 20
0.0
 30
0.0
  9
$EXTMAX
 10
290.075
 20
199.975
 30
0.0
  9
$LIMMIN
 10
-10.0
 20
-10.0
  9
$LIMMAX
 10
300.075
 20
209.975
  9
$ORTHOMODE
 70
     0
  9
$REGENMODE
 70
     1
  9
$FILLMODE
 70
     1
  9
$QTEXTMODE
 70
     0
  9
$MIRRTEXT
 70
     1
  9
$DRAGMODE
 70
     2
  9
$LTSCALE
 40
1.0
  9
$OSMODE
 70
     0
  9
$ATTMODE
 70
     1
  9
$TEXTSIZE
 40
0.2
  9
$TRACEWID
 40
0.05
  9
$TEXTSTYLE
  7
STANDARD
  9
$CLAYER
  8
0
  9
$CELTYPE
  6
CONTINUOUS
  9
$CECOLOR
 62
   256
  9
$CELTSCALE
 40
1.0
  9
$DELOBJ
 70
     1
  9
$DISPSILH
 70
     0
  9
$DIMSCALE
 40
1.0
  9
$DIMASZ
 40
0.18
  9
$DIMEXO
 40
0.0625
  9
$DIMDLI
 40
0.38
  9
$DIMRND
 40
0.0
  9
$DIMDLE
 40
0.0
  9
$DIMEXE
 40
0.18
  9
$DIMTP
 40
0.0
  9
$DIMTM
 40
0.0
  9
$DIMTXT
 40
0.18
  9
$DIMCEN
 40
0.09
  9
$DIMTSZ
 40
0.0
  9
$DIMTOL
 70
     0
  9
$DIMLIM
 70
     0
  9
$DIMTIH
 70
     1
  9
$DIMTOH
 70
     1
  9
$DIMSE1
 70
     0
  9
$DIMSE2
 70
     0
  9
$DIMTAD
 70
     0
  9
$DIMZIN
 70
     0
  9
$DIMBLK
  1

  9
$DIMASO
 70
     1
  9
$DIMSHO
 70
     1
  9
$DIMPOST
  1

  9
$DIMAPOST
  1

  9
$DIMALT
 70
     0
  9
$DIMALTD
 70
     2
  9
$DIMALTF
 40
25.4
  9
$DIMLFAC
 40
1.0
  9
$DIMTOFL
 70
     0
  9
$DIMTVP
 40
0.0
  9
$DIMTIX
 70
     0
  9
$DIMSOXD
 70
     0
  9
$DIMSAH
 70
     0
  9
$DIMBLK1
  1

  9
$DIMBLK2
  1

  9
$DIMSTYLE
  2
STANDARD
  9
$DIMCLRD
 70
     0
  9
$DIMCLRE
 70
     0
  9
$DIMCLRT
 70
     0
  9
$DIMTFAC
 40
1.0
  9
$DIMGAP
 40
0.09
  9
$DIMJUST
 70
     0
  9
$DIMSD1
 70
     0
  9
$DIMSD2
 70
     0
  9
$DIMTOLJ
 70
     1
  9
$DIMTZIN
 70
     0
  9
$DIMALTZ
 70
     0
  9
$DIMALTTZ
 70
     0
  9
$DIMFIT
 70
     3
  9
$DIMUPT
 70
     0
  9
$DIMUNIT
 70
     2
  9
$DIMDEC
 70
     4
  9
$DIMTDEC
 70
     4
  9
$DIMALTU
 70
     2
  9
$DIMALTTD
 70
     2
  9
$DIMTXSTY
  7
STANDARD
  9
$DIMAUNIT
 70
     0
  9
$LUNITS
 70
     2
  9
$LUPREC
 70
     4
  9
$SKETCHINC
 40
0.1
  9
$FILLETRAD
 40
0.0
  9
$AUNITS
 70
     0
  9
$AUPREC
 70
     0
  9
$MENU
  1
acad
  9
$ELEVATION
 40
0.0
  9
$PELEVATION
 40
0.0
  9
$THICKNESS
 40
0.0
  9
$LIMCHECK
 70
     0
  9
$BLIPMODE
 70
     1
  9
$CHAMFERA
 40
0.0
  9
$CHAMFERB
 40
0.0
  9
$CHAMFERC
 40
0.0
  9
$CHAMFERD
 40
0.0
  9
$SKPOLY
 70
     0
  9
$TDCREATE
 40
2456448.905057870
  9
$TDUPDATE
 40
2456448.905057870
  9
$TDINDWG
 40
0.0000000000
  9
$TDUSRTIMER
 40
0.0000000000
  9
$USRTIMER
 70
     1
  9
$ANGBASE
 50
0.0
  9
$ANGDIR
 70
     0
  9
$PDMODE
 70
     0
  9
$PDSIZE
 40
0.0
  9
$PLINEWID
 40
0.0
  9
$COORDS
 70
     1
  9
$SPLFRAME
 70
     0
  9
$SPLINETYPE
 70
     6
  9
$SPLINESEGS
 70
     8
  9
$ATTDIA
 70
     0
  9
$ATTREQ
 70
     1
  9
$HANDLING
 70
     1
  9
$HANDSEED
  5
51
  9
$SURFTAB1
 70
     6
  9
$SURFTAB2
 70
     6
  9
$SURFTYPE
 70
     6
  9
$SURFU
 70
     6
  9
$SURFV
 70
     6
  9
$UCSNAME
  2

  9
$UCSORG
 10
0.0
 20
0.0
 30
0.0
  9
$UCSXDIR
 10
1.0
 20
0.0
 30
0.0
  9
$UCSYDIR
 10
0.0
 20
1.0
 30
0.0
  9
$PUCSNAME
  2

  9
$PUCSORG
 10
0.0
 20
0.0
 30
0.0
  9
$PUCSXDIR
 10
1.0
 20
0.0
 30
0.0
  9
$PUCSYDIR
 10
0.0
 20
1.0
 30
0.0
  9
$USERI1
 70
     0
  9
$USERI2
 70
     0
  9
$USERI3
 70
     0
  9
$USERI4
 70
     0
  9
$USERI5
 70
     0
  9
$USERR1
 40
0.0
  9
$USERR2
 40
0.0
  9
$USERR3
 40
0.0
  9
$USERR4
 40
0.0
  9
$USERR5
 40
0.0
  9
$WORLDVIEW
 70
     1
  9
$SHADEDGE
 70
     3
  9
$SHADEDIF
 70
    70
  9
$TILEMODE
 70
     1
  9
$MAXACTVP
 70
    16
  9
$PINSBASE
 10
0.0
 20
0.0
 30
0.0
  9
$PLIMCHECK
 70
     0
  9
$PEXTMIN
 10
1.000000E+20
 20
1.000000E+20
 30
1.000000E+20
  9
$PEXTMAX
 10
-1.000000E+20
 20
-1.000000E+20
 30
-1.000000E+20
  9
$PLIMMIN
 10
0.0
 20
0.0
  9
$PLIMMAX
 10
12.0
 20
9.0
  9
$UNITMODE
 70
     0
  9
$VISRETAIN
 70
     0
  9
$PLINEGEN
 70
     0
  9
$PSLTSCALE
 70
     0
  9
$TREEDEPTH
 70
  3020
  9
$PICKSTYLE
 70
     1
  9
$CMLSTYLE
  2
STANDARD
  9
$CMLJUST
 70
     0
  9
$CMLSCALE
 40
1.0
  9
$PROXYGRAPHICS
 70
     0
  9
$MEASUREMENT
 70
     0
  0
ENDSEC
  0
SECTION
  2
CLASSES
  0
CLASS
  1
LWPOLYLINE
  2
AcDbPolyline
  3
"AutoCAD"
 90
        0
280
     0
281
     1
  0
CLASS
  1
IMAGE
  2
AcDbRasterImage
  3
ISM
 90
      127
280
     0
281
     1
  0
CLASS
  1
OLE2FRAME
  2
AcDbOle2Frame
  3
""
 90
        0
280
     0
281
     1
  0
CLASS
  1
HATCH
  2
AcDbHatch
  3
"ACAD_SEDONA"
 90
        0
280
     0
281
     1
  0
CLASS
  1
DICTIONARYVAR
  2
AcDbDictionaryVar
  3
"AutoCAD"
 90
        0
280
     0
281
     0
  0
CLASS
  1
RASTERVARIABLES
  2
AcDbRasterVariables
  3
ISM
 90
        0
280
     0
281
     0
  0
CLASS
  1
IMAGEDEF
  2
AcDbRasterImageDef
  3
ISM
 90
        0
280
     0
281
     0
  0
CLASS
  1
IMAGEDEF_REACTOR
  2
AcDbRasterImageDefReactor
  3
ISM
 90
        1
280
     0
281
     0
  0
CLASS
  1
IDBUFFER
  2
AcDbIdBuffer
  3
"Acad"
 90
        0
280
     0
281
     0
  0
CLASS
  1
SPATIAL_FILTER
  2
AcDbSpatialFilter
  3
"Acad"
 90
        0
280
     0
281
     0
  0
CLASS
  1
XRECORD
  2
AcDbXrecord
  3
"<Built In>"
 90
        0
280
     0
281
     0
  0
CLASS
  1
SORTENTSTABLE
  2
AcDbSortentsTable
  3
"AutoCAD"
 90
        0
280
     0
281
     0
  0
CLASS
  1
LAYER_INDEX
  2
AcDbLayerIndex
  3
"Acad"
 90
        0
280
     0
281
     0
  0
CLASS
  1
SPATIAL_INDEX
  2
AcDbSpatialIndex
  3
"Acad"
 90
        0
280
     0
281
     0
  0
CLASS
  1
OBJECT_PTR
  2
CAseDLPNTableRecord
  3
"ASE-LPNTableRecord"
 90
        1
280
     0
281
     0
  0
CLASS
  1
LAYOUT
  2
AcDbLayout
  3
"AutoCAD 2000"
 90
        1
280
     0
281
     0
  0
CLASS
  1
PLOTSETTINGS
  2
AcDbPlotSettings
  3
"AutoCAD 2000"
 90
        1
280
     0
281
     0
  0
CLASS
  1
ACDBDICTIONARYWDFLT
  2
AcDbDictionaryWithDefault
  3
"AutoCAD 2000"
 90
        1
280
     0
281
     0
  0
CLASS
  1
ACDBPLACEHOLDER
  2
AcDbPlaceHolder
  3
"AutoCAD 2000"
 90
        1
280
     0
281
     0
  0
ENDSEC
  0
SECTION
  2
TABLES
  0
TABLE
  2
VPORT
  5
7
100
AcDbSymbolTable
 70
     1
  0
VPORT
  5
15
100
AcDbSymbolTableRecord
100
AcDbViewportTableRecord
  2
*ACTIVE
 70
     0
 10
0.0
 20
0.0
 11
1.0
 21
1.0
 12
145.0375
 22
99.9875
 13
0.0
 23
0.0
 14
1.0
 24
1.0
 15
0.0
 25
0.0
 16
0.0
 26
0.0
 36
1.0
 17
0.0
 27
0.0
 37
0.0
 40
199.975
 41
1.450556
 42
50.0
 43
0.0
 44
0.0
 50
0.0
 51
0.0
 71
     0
 72
   100
 73
     1
 74
     1
 75
     0
 76
     0
 77
     0
 78
     0
  0
ENDTAB
  0
TABLE
  2
LTYPE
  5
4
100
AcDbSymbolTable
 70
     3
  0
LTYPE
  5
11
100
AcDbSymbolTableRecord
100
AcDbLinetypeTableRecord
  2
BYBLOCK
 70
    64
  3

 72
    65
 73
     0
 40
0.0
  0
LTYPE
  5
12
100
AcDbSymbolTableRecord
100
AcDbLinetypeTableRecord
  2
BYLAYER
 70
    64
  3

 72
    65
 73
     0
 40
0.0
  0
LTYPE
  5
13
100
AcDbSymbolTableRecord
100
AcDbLinetypeTableRecord
  2
CONTINUOUS
 70
    64
  3
Solid line
 72
    65
 73
     0
 40
0.0
  0
ENDTAB
  0
TABLE
  2
LAYER
  5
2
100
AcDbSymbolTable
 70
     4
  0
LAYER
  5
14
100
AcDbSymbolTableRecord
100
AcDbLayerTableRecord
  2
0
 70
     0
 62
     7
  6
CONTINUOUS
  0
LAYER
  5
4F
100
AcDbSymbolTableRecord
100
AcDbLayerTableRecord
  2
LAY252
 70
     0
 62
   254
  6
CONTINUOUS
  0
LAYER
  5
1D
100
AcDbSymbolTableRecord
100
AcDbLayerTableRecord
  2
LAY001
 70
     0
 62
     7
  6
CONTINUOUS
  0
LAYER
  5
37
100
AcDbSymbolTableRecord
100
AcDbLayerTableRecord
  2
LAY002
 70
     0
 62
     1
  6
CONTINUOUS
  0
ENDTAB
  0
TABLE
  2
STYLE
  5
3
100
AcDbSymbolTable
 70
     1
  0
STYLE
  5
17
100
AcDbSymbolTableRecord
100
AcDbTextStyleTableRecord
  2
STANDARD
 70
     0
 40
0.0
 41
1.0
 50
0.0
 71
     0
 42
0.0
  3
txt
  4

  0
ENDTAB
  0
TABLE
  2
VIEW
  5
5
100
AcDbSymbolTable
 70
     0
  0
ENDTAB
  0
TABLE
  2
UCS
  5
6
100
AcDbSymbolTable
 70
     0
  0
ENDTAB
  0
TABLE
  2
APPID
  5
8
100
AcDbSymbolTable
 70
     2
  0
APPID
  5
16
100
AcDbSymbolTableRecord
100
AcDbRegAppTableRecord
  2
ACAD
 70
     0
  0
APPID
  5
50
100
AcDbSymbolTableRecord
100
AcDbRegAppTableRecord
  2
HPGL2CAD
 70
     0
  0
ENDTAB
  0
TABLE
  2
DIMSTYLE
  5
9
100
AcDbSymbolTable
 70
     1
  0
DIMSTYLE
105
18
100
AcDbSymbolTableRecord
100
AcDbDimStyleTableRecord
  2
STANDARD
 70
     0
  3

  4

  5

  6

  7

 40
1.0
 41
0.18
 42
0.0625
 43
0.38
 44
0.18
 45
0.0
 46
0.0
 47
0.0
 48
0.0
 71
     0
 72
     0
 73
     1
 74
     1
 75
     0
 76
     0
 77
     0
 78
     0
140
0.18
141
0.09
142
0.0
143
25.4
144
1.0
145
0.0
146
1.0
147
0.09
170
     0
171
     2
172
     0
173
     0
174
     0
175
     0
176
     0
177
     0
178
     0
270
     2
271
     4
272
     4
273
     2
274
     2
275
     0
280
     0
281
     0
282
     0
283
     1
284
     0
285
     0
286
     0
287
     0
288
     0
340
17
  0
ENDTAB
  0
TABLE
  2
BLOCK_RECORD
  5
1
100
AcDbSymbolTable
 70
     0
  0
BLOCK_RECORD
  5
A
100
AcDbSymbolTableRecord
100
AcDbBlockTableRecord
  2
*MODEL_SPACE
  0
BLOCK_RECORD
  5
B
100
AcDbSymbolTableRecord
100
AcDbBlockTableRecord
  2
*PAPER_SPACE
  0
ENDTAB
  0
ENDSEC
  0
SECTION
  2
BLOCKS
  0
BLOCK
  5
D
100
AcDbEntity
  8
0
100
AcDbBlockBegin
  2
*MODEL_SPACE
 70
     0
 10
0.0
 20
0.0
 30
0.0
  3
*MODEL_SPACE
  1

  0
ENDBLK
  5
E
100
AcDbEntity
  8
0
100
AcDbBlockEnd
  0
BLOCK
  5
F
100
AcDbEntity
 67
     1
  8
0
100
AcDbBlockBegin
  2
*PAPER_SPACE
 70
     0
 10
0.0
 20
0.0
 30
0.0
  3
*PAPER_SPACE
  1

  0
ENDBLK
  5
10
100
AcDbEntity
 67
     1
  8
0
100
AcDbBlockEnd
  0
ENDSEC
  0
SECTION
  2
ENTITIES
  0
LWPOLYLINE
  5
1E
100
AcDbEntity
  8
LAY001
 62
     7
100
AcDbPolyline
 90
       56
 70
     1
 10
10.35
 20
158.575
 10
10.55
 20
158.55
 10
10.75
 20
158.525
 10
10.95
 20
158.475
 10
11.125
 20
158.4
 10
11.3
 20
158.325
 10
11.475
 20
158.225
 10
11.775
 20
157.975
 10
12.025
 20
157.675
 10
12.125
 20
157.525
 10
12.2
 20
157.35
 10
12.275
 20
157.175
 10
12.325
 20
156.975
 10
12.35
 20
156.775
 10
12.35
 20
156.575
 10
12.35
 20
156.375
 10
12.325
 20
156.175
 10
12.275
 20
155.975
 10
12.2
 20
155.8
 10
12.125
 20
155.625
 10
12.025
 20
155.45
 10
11.775
 20
155.15
 10
11.475
 20
154.9
 10
11.3
 20
154.8
 10
11.125
 20
154.725
 10
10.95
 20
154.65
 10
10.75
 20
154.6
 10
10.55
 20
154.575
 10
10.35
 20
154.575
 10
10.15
 20
154.575
 10
9.95
 20
154.6
 10
9.75
 20
154.65
 10
9.575
 20
154.725
 10
9.4
 20
154.8
 10
9.25
 20
154.9
 10
8.95
 20
155.15
 10
8.7
 20
155.45
 10
8.6
 20
155.625
 10
8.525
 20
155.8
 10
8.45
 20
155.975
 10
8.4
 20
156.175
 10
8.375
 20
156.375
 10
8.35
 20
156.575
 10
8.375
 20
156.775
 10
8.4
 20
156.975
 10
8.45
 20
157.175
 10
8.525
 20
157.35
 10
8.6
 20
157.525
 10
8.7
 20
157.675
 10
8.95
 20
157.975
 10
9.25
 20
158.225
 10
9.4
 20
158.325
 10
9.575
 20
158.4
 10
9.75
 20
158.475
 10
9.95
 20
158.525
 10
10.15
 20
158.55
  0
LWPOLYLINE
  5
1F
100
AcDbEntity
  8
LAY001
 62
     7
100
AcDbPolyline
 90
       40
 70
     1
 10
27.2
 20
145.075
 10
27.2
 20
145.25
 10
27.225
 20
145.4
 10
27.325
 20
145.675
 10
27.45
 20
145.95
 10
27.65
 20
146.175
 10
27.875
 20
146.375
 10
28.15
 20
146.5
 10
28.425
 20
146.6
 10
28.6
 20
146.625
 10
28.75
 20
146.625
 10
28.9
 20
146.625
 10
29.05
 20
146.6
 10
29.35
 20
146.5
 10
29.625
 20
146.375
 10
29.85
 20
146.175
 10
30.025
 20
145.95
 10
30.175
 20
145.675
 10
30.275
 20
145.4
 10
30.3
 20
145.25
 10
30.3
 20
145.075
 10
30.3
 20
144.925
 10
30.275
 20
144.775
 10
30.175
 20
144.475
 10
30.025
 20
144.225
 10
29.85
 20
143.975
 10
29.625
 20
143.8
 10
29.35
 20
143.65
 10
29.05
 20
143.575
 10
28.9
 20
143.55
 10
28.75
 20
143.525
 10
28.6
 20
143.55
 10
28.425
 20
143.575
 10
28.15
 20
143.65
 10
27.875
 20
143.8
 10
27.65
 20
143.975
 10
27.45
 20
144.225
 10
27.325
 20
144.475
 10
27.225
 20
144.775
 10
27.2
 20
144.925
  0
LWPOLYLINE
  5
20
100
AcDbEntity
  8
LAY001
 62
     7
100
AcDbPolyline
 90
      128
 70
     1
 10
32.6
 20
129.7
 10
32.625
 20
130.275
 10
32.65
 20
130.875
 10
32.725
 20
131.45
 10
32.825
 20
132.0
 10
32.95
 20
132.575
 10
33.125
 20
133.1
 10
33.3
 20
133.65
 10
33.5
 20
134.175
 10
33.725
 20
134.675
 10
33.975
 20
135.175
 10
34.275
 20
135.65
 10
34.575
 20
136.125
 10
34.875
 20
136.575
 10
35.225
 20
137.0
 10
35.575
 20
137.425
 10
35.975
 20
137.825
 10
36.375
 20
138.2
 10
36.775
 20
138.575
 10
37.225
 20
138.9
 10
37.675
 20
139.225
 10
38.125
 20
139.525
 10
38.625
 20
139.8
 10
39.125
 20
140.05
 10
39.625
 20
140.3
 10
40.15
 20
140.5
 10
40.675
 20
140.675
 10
41.225
 20
140.825
 10
41.775
 20
140.95
 10
42.35
 20
141.05
 10
42.925
 20
141.125
 10
43.5
 20
141.175
 10
44.1
 20
141.2
 10
44.7
 20
141.175
 10
45.275
 20
141.125
 10
45.85
 20
141.05
 10
46.425
 20
140.95
 10
46.975
 20
140.825
 10
47.525
 20
140.675
 10
48.05
 20
140.5
 10
48.575
 20
140.3
 10
49.075
 20
140.05
 10
49.575
 20
139.8
 10
50.075
 20
139.525
 10
50.525
 20
139.225
 10
50.975
 20
138.9
 10
51.425
 20
138.575
 10
51.825
 20
138.2
 10
52.225
 20
137.825
 10
52.625
 20
137.425
 10
52.975
 20
137.0
 10
53.325
 20
136.575
 10
53.625
 20
136.125
 10
53.925
 20
135.65
 10
54.225
 20
135.175
 10
54.475
 20
134.675
 10
54.7
 20
134.175
 10
54.9
 20
133.65
 10
55.075
 20
133.1
 10
55.25
 20
132.575
 10
55.375
 20
132.0
 10
55.475
 20
131.45
 10
55.55
 20
130.875
 10
55.575
 20
130.275
 10
55.6
 20
129.7
 10
55.575
 20
129.1
 10
55.55
 20
128.525
 10
55.475
 20
127.95
 10
55.375
 20
127.375
 10
55.25
 20
126.825
 10
55.075
 20
126.275
 10
54.9
 20
125.75
 10
54.7
 20
125.225
 10
54.475
 20
124.7
 10
54.225
 20
124.2
 10
53.925
 20
123.725
 10
53.625
 20
123.25
 10
53.325
 20
122.8
 10
52.975
 20
122.375
 10
52.625
 20
121.95
 10
52.225
 20
121.55
 10
51.825
 20
121.175
 10
51.425
 20
120.825
 10
50.975
 20
120.475
 10
50.525
 20
120.15
 10
50.075
 20
119.85
 10
49.575
 20
119.575
 10
49.075
 20
119.325
 10
48.575
 20
119.1
 10
48.05
 20
118.9
 10
47.525
 20
118.7
 10
46.975
 20
118.55
 10
46.425
 20
118.425
 10
45.85
 20
118.325
 10
45.275
 20
118.25
 10
44.7
 20
118.2
 10
44.1
 20
118.2
 10
43.5
 20
118.2
 10
42.925
 20
118.25
 10
42.35
 20
118.325
 10
41.775
 20
118.425
 10
41.225
 20
118.55
 10
40.675
 20
118.7
 10
40.15
 20
118.9
 10
39.625
 20
119.1
 10
39.125
 20
119.325
 10
38.625
 20
119.575
 10
38.125
 20
119.85
 10
37.675
 20
120.15
 10
37.225
 20
120.475
 10
36.775
 20
120.825
 10
36.375
 20
121.175
 10
35.975
 20
121.55
 10
35.575
 20
121.95
 10
35.225
 20
122.375
 10
34.875
 20
122.8
 10
34.575
 20
123.25
 10
34.275
 20
123.725
 10
33.975
 20
124.2
 10
33.725
 20
124.7
 10
33.5
 20
125.225
 10
33.3
 20
125.75
 10
33.125
 20
126.275
 10
32.95
 20
126.825
 10
32.825
 20
127.375
 10
32.725
 20
127.95
 10
32.65
 20
128.525
 10
32.625
 20
129.1
  0
LWPOLYLINE
  5
21
100
AcDbEntity
  8
LAY001
 62
     7
100
AcDbPolyline
 90
       40
 70
     1
 10
57.725
 20
145.075
 10
57.725
 20
145.25
 10
57.75
 20
145.4
 10
57.85
 20
145.675
 10
58.0
 20
145.95
 10
58.175
 20
146.175
 10
58.4
 20
146.375
 10
58.675
 20
146.5
 10
58.95
 20
146.6
 10
59.125
 20
146.625
 10
59.275
 20
146.625
 10
59.425
 20
146.625
 10
59.575
 20
146.6
 10
59.875
 20
146.5
 10
60.15
 20
146.375
 10
60.375
 20
146.175
 10
60.55
 20
145.95
 10
60.7
 20
145.675
 10
60.8
 20
145.4
 10
60.825
 20
145.25
 10
60.825
 20
145.075
 10
60.825
 20
144.925
 10
60.8
 20
144.775
 10
60.7
 20
144.475
 10
60.55
 20
144.225
 10
60.375
 20
143.975
 10
60.15
 20
143.8
 10
59.875
 20
143.65
 10
59.575
 20
143.575
 10
59.425
 20
143.55
 10
59.275
 20
143.525
 10
59.125
 20
143.55
 10
58.95
 20
143.575
 10
58.675
 20
143.65
 10
58.4
 20
143.8
 10
58.175
 20
143.975
 10
58.0
 20
144.225
 10
57.85
 20
144.475
 10
57.75
 20
144.775
 10
57.725
 20
144.925
  0
LWPOLYLINE
  5
22
100
AcDbEntity
  8
LAY001
 62
     7
100
AcDbPolyline
 90
       40
 70
     1
 10
59.675
 20
115.7
 10
59.825
 20
115.7
 10
59.975
 20
115.675
 10
60.275
 20
115.6
 10
60.525
 20
115.45
 10
60.775
 20
115.25
 10
60.95
 20
115.025
 10
61.1
 20
114.775
 10
61.175
 20
114.475
 10
61.2
 20
114.325
 10
61.225
 20
114.15
 10
61.2
 20
114.0
 10
61.175
 20
113.85
 10
61.1
 20
113.55
 10
60.95
 20
113.3
 10
60.775
 20
113.075
 10
60.525
 20
112.875
 10
60.275
 20
112.725
 10
59.975
 20
112.65
 10
59.825
 20
112.625
 10
59.675
 20
112.6
 10
59.5
 20
112.625
 10
59.35
 20
112.65
 10
59.075
 20
112.725
 10
58.8
 20
112.875
 10
58.575
 20
113.075
 10
58.375
 20
113.3
 10
58.25
 20
113.55
 10
58.15
 20
113.85
 10
58.125
 20
114.0
 10
58.125
 20
114.15
 10
58.125
 20
114.325
 10
58.15
 20
114.475
 10
58.25
 20
114.775
 10
58.375
 20
115.025
 10
58.575
 20
115.25
 10
58.8
 20
115.45
 10
59.075
 20
115.6
 10
59.35
 20
115.675
 10
59.5
 20
115.7
  0
LWPOLYLINE
  5
23
100
AcDbEntity
  8
LAY001
 62
     7
100
AcDbPolyline
 90
       40
 70
     1
 10
30.075
 20
114.225
 10
30.075
 20
114.05
 10
30.05
 20
113.9
 10
29.975
 20
113.6
 10
29.825
 20
113.35
 10
29.625
 20
113.125
 10
29.4
 20
112.925
 10
29.15
 20
112.775
 10
28.85
 20
112.7
 10
28.7
 20
112.675
 10
28.525
 20
112.675
 10
28.375
 20
112.675
 10
28.225
 20
112.7
 10
27.925
 20
112.775
 10
27.675
 20
112.925
 10
27.45
 20
113.125
 10
27.25
 20
113.35
 10
27.1
 20
113.6
 10
27.025
 20
113.9
 10
27.0
 20
114.05
 10
26.975
 20
114.225
 10
27.0
 20
114.375
 10
27.025
 20
114.525
 10
27.1
 20
114.825
 10
27.25
 20
115.075
 10
27.45
 20
115.3
 10
27.675
 20
115.5
 10
27.925
 20
115.65
 10
28.225
 20
115.725
 10
28.375
 20
115.75
 10
28.525
 20
115.775
 10
28.7
 20
115.75
 10
28.85
 20
115.725
 10
29.15
 20
115.65
 10
29.4
 20
115.5
 10
29.625
 20
115.3
 10
29.825
 20
115.075
 10
29.975
 20
114.825
 10
30.05
 20
114.525
 10
30.075
 20
114.375
  0
LWPOLYLINE
  5
24
100
AcDbEntity
  8
LAY001
 62
     7
100
AcDbPolyline
 90
       56
 70
     1
 10
10.175
 20
45.3
 10
10.375
 20
45.3
 10
10.575
 20
45.275
 10
10.775
 20
45.225
 10
10.95
 20
45.15
 10
11.125
 20
45.075
 10
11.3
 20
44.975
 10
11.6
 20
44.725
 10
11.825
 20
44.425
 10
11.925
 20
44.25
 10
12.025
 20
44.075
 10
12.1
 20
43.9
 10
12.15
 20
43.7
 10
12.175
 20
43.525
 10
12.175
 20
43.3
 10
12.175
 20
43.1
 10
12.15
 20
42.9
 10
12.1
 20
42.725
 10
12.025
 20
42.525
 10
11.925
 20
42.35
 10
11.825
 20
42.2
 10
11.6
 20
41.9
 10
11.3
 20
41.65
 10
11.125
 20
41.55
 10
10.95
 20
41.475
 10
10.775
 20
41.4
 10
10.575
 20
41.35
 10
10.375
 20
41.325
 10
10.175
 20
41.3
 10
9.975
 20
41.325
 10
9.775
 20
41.35
 10
9.575
 20
41.4
 10
9.4
 20
41.475
 10
9.225
 20
41.55
 10
9.05
 20
41.65
 10
8.775
 20
41.9
 10
8.525
 20
42.2
 10
8.425
 20
42.35
 10
8.325
 20
42.525
 10
8.275
 20
42.725
 10
8.225
 20
42.9
 10
8.2
 20
43.1
 10
8.175
 20
43.3
 10
8.2
 20
43.525
 10
8.225
 20
43.7
 10
8.275
 20
43.9
 10
8.325
 20
44.075
 10
8.425
 20
44.25
 10
8.525
 20
44.425
 10
8.775
 20
44.725
 10
9.05
 20
44.975
 10
9.225
 20
45.075
 10
9.4
 20
45.15
 10
9.575
 20
45.225
 10
9.775
 20
45.275
 10
9.975
 20
45.3
  0
LWPOLYLINE
  5
25
100
AcDbEntity
  8
LAY001
 62
     7
100
AcDbPolyline
 90
        4
 70
     1
 10
95.1
 20
50.525
 10
95.1
 20
150.525
 10
195.1
 20
150.525
 10
195.1
 20
50.525
  0
LWPOLYLINE
  5
26
100
AcDbEntity
  8
LAY001
 62
     7
100
AcDbPolyline
 90
       56
 70
     1
 10
280.125
 20
40.825
 10
280.325
 20
40.85
 10
280.525
 20
40.875
 10
280.7
 20
40.925
 10
280.9
 20
41.0
 10
281.075
 20
41.075
 10
281.225
 20
41.175
 10
281.525
 20
41.425
 10
281.775
 20
41.725
 10
281.875
 20
41.875
 10
281.95
 20
42.05
 10
282.025
 20
42.25
 10
282.075
 20
42.425
 10
282.1
 20
42.625
 10
282.125
 20
42.825
 10
282.1
 20
43.05
 10
282.075
 20
43.25
 10
282.025
 20
43.425
 10
281.95
 20
43.625
 10
281.875
 20
43.8
 10
281.775
 20
43.95
 10
281.525
 20
44.25
 10
281.225
 20
44.5
 10
281.075
 20
44.6
 10
280.9
 20
44.675
 10
280.7
 20
44.75
 10
280.525
 20
44.8
 10
280.325
 20
44.825
 10
280.125
 20
44.825
 10
279.9
 20
44.825
 10
279.725
 20
44.8
 10
279.525
 20
44.75
 10
279.35
 20
44.675
 10
279.175
 20
44.6
 10
279.0
 20
44.5
 10
278.7
 20
44.25
 10
278.45
 20
43.95
 10
278.35
 20
43.8
 10
278.275
 20
43.625
 10
278.2
 20
43.425
 10
278.15
 20
43.25
 10
278.125
 20
43.05
 10
278.125
 20
42.825
 10
278.125
 20
42.625
 10
278.15
 20
42.425
 10
278.2
 20
42.25
 10
278.275
 20
42.05
 10
278.35
 20
41.875
 10
278.45
 20
41.725
 10
278.7
 20
41.425
 10
279.0
 20
41.175
 10
279.175
 20
41.075
 10
279.35
 20
41.0
 10
279.525
 20
40.925
 10
279.725
 20
40.875
 10
279.9
 20
40.85
  0
LWPOLYLINE
  5
27
100
AcDbEntity
  8
LAY001
 62
     7
100
AcDbPolyline
 90
       40
 70
     1
 10
261.75
 20
112.2
 10
261.925
 20
112.2
 10
262.075
 20
112.225
 10
262.375
 20
112.325
 10
262.625
 20
112.45
 10
262.85
 20
112.65
 10
263.05
 20
112.875
 10
263.175
 20
113.125
 10
263.275
 20
113.425
 10
263.3
 20
113.575
 10
263.3
 20
113.75
 10
263.3
 20
113.9
 10
263.275
 20
114.05
 10
263.175
 20
114.35
 10
263.05
 20
114.6
 10
262.85
 20
114.825
 10
262.625
 20
115.025
 10
262.375
 20
115.175
 10
262.075
 20
115.25
 10
261.925
 20
115.275
 10
261.75
 20
115.3
 10
261.6
 20
115.275
 10
261.45
 20
115.25
 10
261.15
 20
115.175
 10
260.9
 20
115.025
 10
260.675
 20
114.825
 10
260.475
 20
114.6
 10
260.325
 20
114.35
 10
260.25
 20
114.05
 10
260.225
 20
113.9
 10
260.2
 20
113.75
 10
260.225
 20
113.575
 10
260.25
 20
113.425
 10
260.325
 20
113.125
 10
260.475
 20
112.875
 10
260.675
 20
112.65
 10
260.9
 20
112.45
 10
261.15
 20
112.325
 10
261.45
 20
112.225
 10
261.6
 20
112.2
  0
LWPOLYLINE
  5
28
100
AcDbEntity
  8
LAY001
 62
     7
100
AcDbPolyline
 90
      128
 70
     1
 10
246.2
 20
117.725
 10
246.8
 20
117.725
 10
247.375
 20
117.775
 10
247.95
 20
117.85
 10
248.525
 20
117.95
 10
249.075
 20
118.075
 10
249.625
 20
118.225
 10
250.15
 20
118.425
 10
250.675
 20
118.625
 10
251.175
 20
118.85
 10
251.675
 20
119.1
 10
252.15
 20
119.375
 10
252.625
 20
119.675
 10
253.075
 20
120.0
 10
253.5
 20
120.35
 10
253.925
 20
120.7
 10
254.325
 20
121.075
 10
254.7
 20
121.475
 10
255.075
 20
121.9
 10
255.4
 20
122.35
 10
255.725
 20
122.8
 10
256.025
 20
123.25
 10
256.3
 20
123.725
 10
256.55
 20
124.225
 10
256.8
 20
124.75
 10
257.0
 20
125.275
 10
257.175
 20
125.8
 10
257.325
 20
126.35
 10
257.475
 20
126.9
 10
257.575
 20
127.475
 10
257.625
 20
128.05
 10
257.675
 20
128.625
 10
257.7
 20
129.225
 10
257.675
 20
129.8
 10
257.625
 20
130.4
 10
257.575
 20
130.975
 10
257.475
 20
131.525
 10
257.325
 20
132.1
 10
257.175
 20
132.65
 10
257.0
 20
133.175
 10
256.8
 20
133.7
 10
256.55
 20
134.2
 10
256.3
 20
134.7
 10
256.025
 20
135.175
 10
255.725
 20
135.65
 10
255.4
 20
136.1
 10
255.075
 20
136.525
 10
254.7
 20
136.95
 10
254.325
 20
137.35
 10
253.925
 20
137.725
 10
253.5
 20
138.1
 10
253.075
 20
138.425
 10
252.625
 20
138.75
 10
252.15
 20
139.05
 10
251.675
 20
139.325
 10
251.175
 20
139.575
 10
250.675
 20
139.825
 10
250.15
 20
140.025
 10
249.625
 20
140.2
 10
249.075
 20
140.35
 10
248.525
 20
140.475
 10
247.95
 20
140.575
 10
247.375
 20
140.65
 10
246.8
 20
140.7
 10
246.2
 20
140.725
 10
245.6
 20
140.7
 10
245.025
 20
140.65
 10
244.45
 20
140.575
 10
243.875
 20
140.475
 10
243.325
 20
140.35
 10
242.775
 20
140.2
 10
242.25
 20
140.025
 10
241.725
 20
139.825
 10
241.2
 20
139.575
 10
240.725
 20
139.325
 10
240.225
 20
139.05
 10
239.775
 20
138.75
 10
239.325
 20
138.425
 10
238.875
 20
138.1
 10
238.45
 20
137.725
 10
238.075
 20
137.35
 10
237.675
 20
136.95
 10
237.325
 20
136.525
 10
236.975
 20
136.1
 10
236.65
 20
135.65
 10
236.35
 20
135.175
 10
236.075
 20
134.7
 10
235.825
 20
134.2
 10
235.6
 20
133.7
 10
235.4
 20
133.175
 10
235.2
 20
132.65
 10
235.05
 20
132.1
 10
234.925
 20
131.525
 10
234.825
 20
130.975
 10
234.75
 20
130.4
 10
234.7
 20
129.8
 10
234.7
 20
129.225
 10
234.7
 20
128.625
 10
234.75
 20
128.05
 10
234.825
 20
127.475
 10
234.925
 20
126.9
 10
235.05
 20
126.35
 10
235.2
 20
125.8
 10
235.4
 20
125.275
 10
235.6
 20
124.75
 10
235.825
 20
124.225
 10
236.075
 20
123.725
 10
236.35
 20
123.25
 10
236.65
 20
122.8
 10
236.975
 20
122.35
 10
237.325
 20
121.9
 10
237.675
 20
121.475
 10
238.075
 20
121.075
 10
238.45
 20
120.7
 10
238.875
 20
120.35
 10
239.325
 20
120.0
 10
239.775
 20
119.675
 10
240.225
 20
119.375
 10
240.725
 20
119.1
 10
241.2
 20
118.85
 10
241.725
 20
118.625
 10
242.25
 20
118.425
 10
242.775
 20
118.225
 10
243.325
 20
118.075
 10
243.875
 20
117.95
 10
244.45
 20
117.85
 10
245.025
 20
117.775
 10
245.6
 20
117.725
  0
LWPOLYLINE
  5
29
100
AcDbEntity
  8
LAY001
 62
     7
100
AcDbPolyline
 90
       40
 70
     1
 10
261.55
 20
143.05
 10
261.7
 20
143.075
 10
261.85
 20
143.1
 10
262.15
 20
143.175
 10
262.425
 20
143.325
 10
262.65
 20
143.525
 10
262.825
 20
143.75
 10
262.975
 20
144.0
 10
263.075
 20
144.3
 10
263.1
 20
144.45
 10
263.1
 20
144.6
 10
263.1
 20
144.775
 10
263.075
 20
144.925
 10
262.975
 20
145.2
 10
262.825
 20
145.475
 10
262.65
 20
145.7
 10
262.425
 20
145.9
 10
262.15
 20
146.025
 10
261.85
 20
146.125
 10
261.7
 20
146.15
 10
261.55
 20
146.15
 10
261.4
 20
146.15
 10
261.225
 20
146.125
 10
260.95
 20
146.025
 10
260.675
 20
145.9
 10
260.45
 20
145.7
 10
260.275
 20
145.475
 10
260.125
 20
145.2
 10
260.025
 20
144.925
 10
260.0
 20
144.775
 10
260.0
 20
144.6
 10
260.0
 20
144.45
 10
260.025
 20
144.3
 10
260.125
 20
144.0
 10
260.275
 20
143.75
 10
260.45
 20
143.525
 10
260.675
 20
143.325
 10
260.95
 20
143.175
 10
261.225
 20
143.1
 10
261.4
 20
143.075
  0
LWPOLYLINE
  5
2A
100
AcDbEntity
  8
LAY001
 62
     7
100
AcDbPolyline
 90
       56
 70
     1
 10
277.95
 20
156.1
 10
277.95
 20
155.9
 10
277.975
 20
155.7
 10
278.025
 20
155.5
 10
278.1
 20
155.325
 10
278.175
 20
155.15
 10
278.275
 20
154.975
 10
278.525
 20
154.675
 10
278.825
 20
154.45
 10
278.975
 20
154.35
 10
279.15
 20
154.25
 10
279.35
 20
154.175
 10
279.525
 20
154.125
 10
279.725
 20
154.1
 10
279.95
 20
154.1
 10
280.15
 20
154.1
 10
280.35
 20
154.125
 10
280.525
 20
154.175
 10
280.725
 20
154.25
 10
280.9
 20
154.35
 10
281.05
 20
154.45
 10
281.35
 20
154.675
 10
281.6
 20
154.975
 10
281.7
 20
155.15
 10
281.775
 20
155.325
 10
281.85
 20
155.5
 10
281.9
 20
155.7
 10
281.925
 20
155.9
 10
281.95
 20
156.1
 10
281.925
 20
156.3
 10
281.9
 20
156.5
 10
281.85
 20
156.7
 10
281.775
 20
156.875
 10
281.7
 20
157.05
 10
281.6
 20
157.225
 10
281.35
 20
157.5
 10
281.05
 20
157.75
 10
280.9
 20
157.85
 10
280.725
 20
157.95
 10
280.525
 20
158.0
 10
280.35
 20
158.05
 10
280.15
 20
158.075
 10
279.95
 20
158.1
 10
279.725
 20
158.075
 10
279.525
 20
158.05
 10
279.35
 20
158.0
 10
279.15
 20
157.95
 10
278.975
 20
157.85
 10
278.825
 20
157.75
 10
278.525
 20
157.5
 10
278.275
 20
157.225
 10
278.175
 20
157.05
 10
278.1
 20
156.875
 10
278.025
 20
156.7
 10
277.975
 20
156.5
 10
277.95
 20
156.3
  0
LWPOLYLINE
  5
2B
100
AcDbEntity
  8
LAY001
 62
     7
100
AcDbPolyline
 90
       40
 70
     1
 10
232.575
 20
144.6
 10
232.575
 20
144.775
 10
232.55
 20
144.925
 10
232.45
 20
145.2
 10
232.3
 20
145.475
 10
232.125
 20
145.7
 10
231.9
 20
145.9
 10
231.625
 20
146.025
 10
231.325
 20
146.125
 10
231.175
 20
146.15
 10
231.025
 20
146.15
 10
230.875
 20
146.15
 10
230.7
 20
146.125
 10
230.425
 20
146.025
 10
230.15
 20
145.9
 10
229.925
 20
145.7
 10
229.75
 20
145.475
 10
229.6
 20
145.2
 10
229.5
 20
144.925
 10
229.475
 20
144.775
 10
229.475
 20
144.6
 10
229.475
 20
144.45
 10
229.5
 20
144.3
 10
229.6
 20
144.0
 10
229.75
 20
143.75
 10
229.925
 20
143.525
 10
230.15
 20
143.325
 10
230.425
 20
143.175
 10
230.7
 20
143.1
 10
230.875
 20
143.075
 10
231.025
 20
143.05
 10
231.175
 20
143.075
 10
231.325
 20
143.1
 10
231.625
 20
143.175
 10
231.9
 20
143.325
 10
232.125
 20
143.525
 10
232.3
 20
143.75
 10
232.45
 20
144.0
 10
232.55
 20
144.3
 10
232.575
 20
144.45
  0
LWPOLYLINE
  5
2C
100
AcDbEntity
  8
LAY001
 62
     7
100
AcDbPolyline
 90
       40
 70
     1
 10
230.625
 20
115.25
 10
230.475
 20
115.225
 10
230.325
 20
115.2
 10
230.025
 20
115.125
 10
229.75
 20
114.975
 10
229.525
 20
114.775
 10
229.35
 20
114.55
 10
229.2
 20
114.3
 10
229.1
 20
114.0
 10
229.075
 20
113.85
 10
229.075
 20
113.7
 10
229.075
 20
113.525
 10
229.1
 20
113.375
 10
229.2
 20
113.075
 10
229.35
 20
112.825
 10
229.525
 20
112.6
 10
229.75
 20
112.4
 10
230.025
 20
112.25
 10
230.325
 20
112.175
 10
230.475
 20
112.15
 10
230.625
 20
112.15
 10
230.775
 20
112.15
 10
230.95
 20
112.175
 10
231.225
 20
112.25
 10
231.5
 20
112.4
 10
231.725
 20
112.6
 10
231.925
 20
112.825
 10
232.05
 20
113.075
 10
232.15
 20
113.375
 10
232.175
 20
113.525
 10
232.175
 20
113.7
 10
232.175
 20
113.85
 10
232.15
 20
114.0
 10
232.05
 20
114.3
 10
231.925
 20
114.55
 10
231.725
 20
114.775
 10
231.5
 20
114.975
 10
231.225
 20
115.125
 10
230.95
 20
115.2
 10
230.775
 20
115.225
  0
LWPOLYLINE
  5
2D
100
AcDbEntity
  8
LAY001
 62
     7
100
AcDbPolyline
 90
       56
 70
     1
 10
236.25
 20
188.525
 10
236.45
 20
188.55
 10
236.65
 20
188.575
 10
236.85
 20
188.625
 10
237.025
 20
188.7
 10
237.2
 20
188.775
 10
237.375
 20
188.875
 10
237.65
 20
189.125
 10
237.9
 20
189.425
 10
238.0
 20
189.575
 10
238.1
 20
189.75
 10
238.15
 20
189.925
 10
238.2
 20
190.125
 10
238.225
 20
190.325
 10
238.25
 20
190.525
 10
238.225
 20
190.725
 10
238.2
 20
190.925
 10
238.15
 20
191.125
 10
238.1
 20
191.3
 10
238.0
 20
191.475
 10
237.9
 20
191.65
 10
237.65
 20
191.95
 10
237.375
 20
192.2
 10
237.2
 20
192.3
 10
237.025
 20
192.375
 10
236.85
 20
192.45
 10
236.65
 20
192.5
 10
236.45
 20
192.525
 10
236.25
 20
192.525
 10
236.05
 20
192.525
 10
235.85
 20
192.5
 10
235.65
 20
192.45
 10
235.475
 20
192.375
 10
235.3
 20
192.3
 10
235.125
 20
192.2
 10
234.825
 20
191.95
 10
234.6
 20
191.65
 10
234.5
 20
191.475
 10
234.4
 20
191.3
 10
234.325
 20
191.125
 10
234.275
 20
190.925
 10
234.25
 20
190.725
 10
234.25
 20
190.525
 10
234.25
 20
190.325
 10
234.275
 20
190.125
 10
234.325
 20
189.925
 10
234.4
 20
189.75
 10
234.5
 20
189.575
 10
234.6
 20
189.425
 10
234.825
 20
189.125
 10
235.125
 20
188.875
 10
235.3
 20
188.775
 10
235.475
 20
188.7
 10
235.65
 20
188.625
 10
235.85
 20
188.575
 10
236.05
 20
188.55
  0
LWPOLYLINE
  5
2E
100
AcDbEntity
  8
LAY001
 62
     7
100
AcDbPolyline
 90
       56
 70
     1
 10
56.05
 20
191.0
 10
56.05
 20
190.8
 10
56.0
 20
190.6
 10
55.95
 20
190.4
 10
55.9
 20
190.225
 10
55.8
 20
190.05
 10
55.7
 20
189.9
 10
55.475
 20
189.6
 10
55.175
 20
189.35
 10
55.0
 20
189.25
 10
54.825
 20
189.175
 10
54.65
 20
189.1
 10
54.45
 20
189.05
 10
54.25
 20
189.025
 10
54.05
 20
189.0
 10
53.85
 20
189.025
 10
53.65
 20
189.05
 10
53.45
 20
189.1
 10
53.275
 20
189.175
 10
53.1
 20
189.25
 10
52.925
 20
189.35
 10
52.625
 20
189.6
 10
52.4
 20
189.9
 10
52.3
 20
190.05
 10
52.2
 20
190.225
 10
52.15
 20
190.4
 10
52.1
 20
190.6
 10
52.05
 20
190.8
 10
52.05
 20
191.0
 10
52.05
 20
191.2
 10
52.1
 20
191.4
 10
52.15
 20
191.6
 10
52.2
 20
191.775
 10
52.3
 20
191.95
 10
52.4
 20
192.125
 10
52.625
 20
192.425
 10
52.925
 20
192.675
 10
53.1
 20
192.775
 10
53.275
 20
192.85
 10
53.45
 20
192.925
 10
53.65
 20
192.975
 10
53.85
 20
193.0
 10
54.05
 20
193.0
 10
54.25
 20
193.0
 10
54.45
 20
192.975
 10
54.65
 20
192.925
 10
54.825
 20
192.85
 10
55.0
 20
192.775
 10
55.175
 20
192.675
 10
55.475
 20
192.425
 10
55.7
 20
192.125
 10
55.8
 20
191.95
 10
55.9
 20
191.775
 10
55.95
 20
191.6
 10
56.0
 20
191.4
 10
56.05
 20
191.2
  0
LWPOLYLINE
  5
2F
100
AcDbEntity
  8
LAY001
 62
     7
100
AcDbPolyline
 90
       12
 70
     1
 10
0.075
 20
199.975
 10
290.075
 20
199.975
 10
290.075
 20
129.425
 10
269.925
 20
129.425
 10
269.925
 20
69.225
 10
290.075
 20
69.225
 10
290.075
 20
0.0
 10
0.075
 20
0.0
 10
0.075
 20
69.75
 10
20.55
 20
69.75
 10
20.55
 20
130.175
 10
0.0
 20
130.175
  0
LWPOLYLINE
  5
30
100
AcDbEntity
  8
LAY001
 62
     7
100
AcDbPolyline
 90
        4
 70
     1
 10
231.25
 20
76.525
 10
251.25
 20
76.525
 10
251.25
 20
70.525
 10
231.25
 20
70.525
  0
LWPOLYLINE
  5
31
100
AcDbEntity
  8
LAY001
 62
     7
100
AcDbPolyline
 90
       24
 70
     1
 10
65.475
 20
91.55
 10
65.8
 20
91.8
 10
66.2
 20
91.975
 10
66.6
 20
92.025
 10
67.025
 20
91.975
 10
67.4
 20
91.8
 10
67.725
 20
91.55
 10
67.975
 20
91.225
 10
68.125
 20
90.85
 10
68.2
 20
90.425
 10
68.125
 20
90.025
 10
67.975
 20
89.65
 10
67.725
 20
89.3
 10
67.4
 20
89.05
 10
67.025
 20
88.9
 10
66.6
 20
88.85
 10
66.2
 20
88.9
 10
65.8
 20
89.05
 10
65.475
 20
89.3
 10
65.225
 20
89.65
 10
65.075
 20
90.025
 10
65.025
 20
90.425
 10
65.075
 20
90.85
 10
65.225
 20
91.225
  0
LWPOLYLINE
  5
32
100
AcDbEntity
  8
LAY001
 62
     7
100
AcDbPolyline
 90
       24
 70
     1
 10
66.6
 20
53.925
 10
67.025
 20
53.875
 10
67.4
 20
53.7
 10
67.725
 20
53.45
 10
67.975
 20
53.125
 10
68.125
 20
52.75
 10
68.2
 20
52.325
 10
68.125
 20
51.925
 10
67.975
 20
51.55
 10
67.725
 20
51.2
 10
67.4
 20
50.95
 10
67.025
 20
50.8
 10
66.6
 20
50.75
 10
66.2
 20
50.8
 10
65.8
 20
50.95
 10
65.475
 20
51.2
 10
65.225
 20
51.55
 10
65.075
 20
51.925
 10
65.025
 20
52.325
 10
65.075
 20
52.75
 10
65.225
 20
53.125
 10
65.475
 20
53.45
 10
65.8
 20
53.7
 10
66.2
 20
53.875
  0
LWPOLYLINE
  5
33
100
AcDbEntity
  8
LAY001
 62
     7
100
AcDbPolyline
 90
       24
 70
     1
 10
220.9
 20
91.55
 10
221.25
 20
91.825
 10
221.625
 20
91.975
 10
222.025
 20
92.025
 10
222.45
 20
91.975
 10
222.825
 20
91.825
 10
223.15
 20
91.55
 10
223.4
 20
91.225
 10
223.575
 20
90.85
 10
223.625
 20
90.45
 10
223.575
 20
90.025
 10
223.4
 20
89.65
 10
223.15
 20
89.325
 10
222.825
 20
89.075
 10
222.45
 20
88.9
 10
222.025
 20
88.85
 10
221.625
 20
88.9
 10
221.25
 20
89.075
 10
220.9
 20
89.325
 10
220.65
 20
89.65
 10
220.5
 20
90.025
 10
220.45
 20
90.45
 10
220.5
 20
90.85
 10
220.65
 20
91.225
  0
LWPOLYLINE
  5
34
100
AcDbEntity
  8
LAY001
 62
     7
100
AcDbPolyline
 90
       24
 70
     1
 10
222.025
 20
53.925
 10
222.45
 20
53.875
 10
222.825
 20
53.725
 10
223.15
 20
53.45
 10
223.4
 20
53.125
 10
223.575
 20
52.75
 10
223.625
 20
52.35
 10
223.575
 20
51.925
 10
223.4
 20
51.55
 10
223.15
 20
51.225
 10
222.825
 20
50.975
 10
222.45
 20
50.8
 10
222.025
 20
50.75
 10
221.625
 20
50.8
 10
221.25
 20
50.975
 10
220.9
 20
51.225
 10
220.65
 20
51.55
 10
220.5
 20
51.925
 10
220.45
 20
52.35
 10
220.5
 20
52.75
 10
220.65
 20
53.125
 10
220.9
 20
53.45
 10
221.25
 20
53.725
 10
221.625
 20
53.875
  0
LWPOLYLINE
  5
35
100
AcDbEntity
  8
LAY001
 62
     7
100
AcDbPolyline
 90
       24
 70
     1
 10
166.55
 20
179.05
 10
166.8
 20
178.7
 10
166.95
 20
178.325
 10
167.025
 20
177.925
 10
166.95
 20
177.5
 10
166.8
 20
177.125
 10
166.55
 20
176.8
 10
166.225
 20
176.55
 10
165.825
 20
176.375
 10
165.425
 20
176.325
 10
165.025
 20
176.375
 10
164.625
 20
176.55
 10
164.3
 20
176.8
 10
164.05
 20
177.125
 10
163.9
 20
177.5
 10
163.85
 20
177.925
 10
163.9
 20
178.325
 10
164.05
 20
178.7
 10
164.3
 20
179.05
 10
164.625
 20
179.3
 10
165.025
 20
179.45
 10
165.425
 20
179.5
 10
165.825
 20
179.45
 10
166.225
 20
179.3
  0
LWPOLYLINE
  5
36
100
AcDbEntity
  8
LAY001
 62
     7
100
AcDbPolyline
 90
       24
 70
     1
 10
128.925
 20
177.925
 10
128.85
 20
177.5
 10
128.7
 20
177.125
 10
128.45
 20
176.8
 10
128.125
 20
176.55
 10
127.725
 20
176.375
 10
127.325
 20
176.325
 10
126.925
 20
176.375
 10
126.525
 20
176.55
 10
126.2
 20
176.8
 10
125.95
 20
177.125
 10
125.8
 20
177.5
 10
125.75
 20
177.925
 10
125.8
 20
178.325
 10
125.95
 20
178.7
 10
126.2
 20
179.05
 10
126.525
 20
179.3
 10
126.925
 20
179.45
 10
127.325
 20
179.5
 10
127.725
 20
179.45
 10
128.125
 20
179.3
 10
128.45
 20
179.05
 10
128.7
 20
178.7
 10
128.85
 20
178.325
  0
LWPOLYLINE
  5
38
100
AcDbEntity
  8
LAY002
 62
     1
100
AcDbPolyline
 90
       39
 70
     1
 10
215.925
 20
25.425
 10
215.925
 20
22.725
 10
216.225
 20
22.475
 10
216.55
 20
22.3
 10
216.75
 20
22.225
 10
216.925
 20
22.175
 10
217.125
 20
22.15
 10
217.325
 20
22.125
 10
217.575
 20
22.15
 10
217.825
 20
22.225
 10
217.975
 20
22.275
 10
218.1
 20
22.35
 10
218.225
 20
22.425
 10
218.35
 20
22.55
 10
218.45
 20
22.675
 10
218.55
 20
22.825
 10
218.65
 20
22.975
 10
218.725
 20
23.175
 10
218.8
 20
23.375
 10
218.825
 20
23.625
 10
218.875
 20
23.875
 10
218.875
 20
24.175
 10
218.85
 20
24.6
 10
218.775
 20
25.0
 10
218.65
 20
25.325
 10
218.475
 20
25.6
 10
218.275
 20
25.825
 10
218.0
 20
26.0
 10
217.85
 20
26.05
 10
217.7
 20
26.1
 10
217.525
 20
26.125
 10
217.35
 20
26.125
 10
217.075
 20
26.1
 10
216.85
 20
26.05
 10
216.65
 20
25.975
 10
216.45
 20
25.875
 10
216.275
 20
25.75
 10
216.15
 20
25.65
 10
216.025
 20
25.525
  0
LWPOLYLINE
  5
39
100
AcDbEntity
  8
LAY002
 62
     1
100
AcDbPolyline
 90
       53
 70
     1
 10
215.9
 20
26.125
 10
215.925
 20
26.125
 10
216.0
 20
26.225
 10
216.1
 20
26.325
 10
216.25
 20
26.45
 10
216.425
 20
26.55
 10
216.625
 20
26.675
 10
216.875
 20
26.75
 10
217.175
 20
26.825
 10
217.475
 20
26.85
 10
217.7
 20
26.825
 10
217.925
 20
26.8
 10
218.125
 20
26.775
 10
218.35
 20
26.7
 10
218.55
 20
26.625
 10
218.725
 20
26.5
 10
218.9
 20
26.375
 10
219.075
 20
26.225
 10
219.225
 20
26.05
 10
219.375
 20
25.875
 10
219.475
 20
25.65
 10
219.6
 20
25.4
 10
219.675
 20
25.15
 10
219.725
 20
24.85
 10
219.775
 20
24.525
 10
219.775
 20
24.2
 10
219.775
 20
23.925
 10
219.75
 20
23.675
 10
219.725
 20
23.45
 10
219.675
 20
23.225
 10
219.55
 20
22.85
 10
219.375
 20
22.5
 10
219.2
 20
22.225
 10
218.975
 20
22.0
 10
218.725
 20
21.8
 10
218.475
 20
21.65
 10
218.2
 20
21.55
 10
217.95
 20
21.475
 10
217.675
 20
21.425
 10
217.45
 20
21.425
 10
217.2
 20
21.425
 10
216.975
 20
21.45
 10
216.775
 20
21.5
 10
216.6
 20
21.575
 10
216.425
 20
21.65
 10
216.25
 20
21.75
 10
216.1
 20
21.875
 10
215.95
 20
22.025
 10
215.925
 20
22.025
 10
215.925
 20
19.025
 10
215.075
 20
19.025
 10
215.075
 20
26.7
 10
215.725
 20
26.7
  0
LWPOLYLINE
  5
3A
100
AcDbEntity
  8
LAY002
 62
     1
100
AcDbPolyline
 90
       26
 70
     1
 10
221.15
 20
26.7
 10
221.825
 20
26.7
 10
222.0
 20
25.9
 10
222.0
 20
25.9
 10
222.15
 20
26.075
 10
222.325
 20
26.275
 10
222.525
 20
26.425
 10
222.75
 20
26.575
 10
223.0
 20
26.675
 10
223.275
 20
26.775
 10
223.55
 20
26.825
 10
223.85
 20
26.85
 10
223.975
 20
26.85
 10
224.075
 20
26.825
 10
224.075
 20
26.025
 10
224.0
 20
26.025
 10
223.7
 20
26.025
 10
223.4
 20
25.975
 10
223.1
 20
25.9
 10
222.85
 20
25.8
 10
222.6
 20
25.675
 10
222.375
 20
25.525
 10
222.175
 20
25.35
 10
222.025
 20
25.15
 10
222.025
 20
21.55
 10
221.15
 20
21.55
  0
LWPOLYLINE
  5
3B
100
AcDbEntity
  8
LAY002
 62
     1
100
AcDbPolyline
 90
        9
 70
     1
 10
224.325
 20
26.725
 10
225.2
 20
26.725
 10
226.875
 20
22.675
 10
226.9
 20
22.675
 10
228.575
 20
26.725
 10
229.475
 20
26.725
 10
226.175
 20
19.025
 10
225.3
 20
19.025
 10
226.45
 20
21.65
  0
LWPOLYLINE
  5
3C
100
AcDbEntity
  8
LAY002
 62
     1
100
AcDbPolyline
 90
       44
 70
     1
 10
230.5
 20
26.7
 10
231.15
 20
26.7
 10
231.325
 20
26.0
 10
231.35
 20
26.0
 10
231.675
 20
26.325
 10
231.85
 20
26.475
 10
232.05
 20
26.6
 10
232.3
 20
26.7
 10
232.55
 20
26.775
 10
232.8
 20
26.825
 10
233.1
 20
26.85
 10
233.45
 20
26.825
 10
233.8
 20
26.75
 10
234.075
 20
26.625
 10
234.35
 20
26.425
 10
234.45
 20
26.325
 10
234.55
 20
26.175
 10
234.65
 20
26.025
 10
234.725
 20
25.875
 10
234.775
 20
25.675
 10
234.825
 20
25.475
 10
234.85
 20
25.25
 10
234.85
 20
25.0
 10
234.85
 20
21.55
 10
233.975
 20
21.55
 10
233.975
 20
24.875
 10
233.975
 20
25.175
 10
233.925
 20
25.45
 10
233.825
 20
25.65
 10
233.725
 20
25.825
 10
233.575
 20
25.95
 10
233.4
 20
26.05
 10
233.175
 20
26.1
 10
232.95
 20
26.125
 10
232.725
 20
26.1
 10
232.5
 20
26.075
 10
232.3
 20
26.0
 10
232.075
 20
25.875
 10
231.875
 20
25.75
 10
231.675
 20
25.6
 10
231.525
 20
25.425
 10
231.35
 20
25.225
 10
231.35
 20
21.55
 10
230.5
 20
21.55
  0
LWPOLYLINE
  5
3D
100
AcDbEntity
  8
LAY002
 62
     1
100
AcDbPolyline
 90
       35
 70
     1
 10
235.775
 20
26.7
 10
236.8
 20
26.7
 10
236.8
 20
28.125
 10
237.675
 20
28.125
 10
237.675
 20
26.7
 10
239.25
 20
26.7
 10
239.25
 20
26.0
 10
237.675
 20
26.0
 10
237.675
 20
22.975
 10
237.675
 20
22.8
 10
237.725
 20
22.65
 10
237.775
 20
22.5
 10
237.875
 20
22.375
 10
238.025
 20
22.275
 10
238.175
 20
22.2
 10
238.375
 20
22.175
 10
238.6
 20
22.15
 10
238.8
 20
22.15
 10
238.975
 20
22.175
 10
239.325
 20
22.25
 10
239.325
 20
21.55
 10
239.2
 20
21.5
 10
239.0
 20
21.45
 10
238.75
 20
21.425
 10
238.45
 20
21.425
 10
238.05
 20
21.45
 10
237.725
 20
21.525
 10
237.425
 20
21.625
 10
237.2
 20
21.8
 10
237.025
 20
22.0
 10
236.9
 20
22.25
 10
236.825
 20
22.525
 10
236.8
 20
22.85
 10
236.8
 20
26.0
 10
235.775
 20
26.0
  0
LWPOLYLINE
  5
3E
100
AcDbEntity
  8
LAY002
 62
     1
100
AcDbPolyline
 90
       17
 70
     1
 10
241.275
 20
25.25
 10
241.2
 20
24.975
 10
241.15
 20
24.675
 10
243.825
 20
24.675
 10
243.8
 20
24.975
 10
243.75
 20
25.25
 10
243.65
 20
25.5
 10
243.5
 20
25.7
 10
243.325
 20
25.875
 10
243.125
 20
26.025
 10
242.875
 20
26.1
 10
242.6
 20
26.125
 10
242.3
 20
26.1
 10
242.025
 20
26.0
 10
241.8
 20
25.875
 10
241.6
 20
25.7
 10
241.425
 20
25.5
  0
LWPOLYLINE
  5
3F
100
AcDbEntity
  8
LAY002
 62
     1
100
AcDbPolyline
 90
       77
 70
     1
 10
240.4
 20
25.275
 10
240.5
 20
25.525
 10
240.625
 20
25.75
 10
240.775
 20
25.975
 10
240.925
 20
26.15
 10
241.1
 20
26.325
 10
241.3
 20
26.45
 10
241.5
 20
26.575
 10
241.7
 20
26.675
 10
241.925
 20
26.75
 10
242.15
 20
26.8
 10
242.375
 20
26.825
 10
242.625
 20
26.85
 10
242.85
 20
26.825
 10
243.05
 20
26.8
 10
243.25
 20
26.775
 10
243.45
 20
26.7
 10
243.65
 20
26.625
 10
243.825
 20
26.525
 10
243.975
 20
26.4
 10
244.125
 20
26.25
 10
244.275
 20
26.075
 10
244.4
 20
25.9
 10
244.5
 20
25.675
 10
244.575
 20
25.45
 10
244.65
 20
25.2
 10
244.7
 20
24.9
 10
244.75
 20
24.6
 10
244.75
 20
24.275
 10
244.75
 20
24.175
 10
244.75
 20
24.1
 10
244.75
 20
24.025
 10
244.75
 20
23.95
 10
241.1
 20
23.95
 10
241.1
 20
23.725
 10
241.125
 20
23.5
 10
241.175
 20
23.3
 10
241.25
 20
23.125
 10
241.325
 20
22.95
 10
241.425
 20
22.8
 10
241.55
 20
22.675
 10
241.675
 20
22.55
 10
241.8
 20
22.45
 10
241.95
 20
22.375
 10
242.3
 20
22.25
 10
242.675
 20
22.175
 10
243.075
 20
22.15
 10
243.475
 20
22.175
 10
243.85
 20
22.225
 10
244.2
 20
22.3
 10
244.55
 20
22.4
 10
244.55
 20
21.7
 10
244.4
 20
21.65
 10
244.25
 20
21.575
 10
244.05
 20
21.525
 10
243.85
 20
21.5
 10
243.425
 20
21.425
 10
242.95
 20
21.425
 10
242.675
 20
21.425
 10
242.4
 20
21.45
 10
242.125
 20
21.5
 10
241.875
 20
21.55
 10
241.625
 20
21.625
 10
241.4
 20
21.75
 10
241.2
 20
21.875
 10
241.0
 20
22.0
 10
240.825
 20
22.175
 10
240.675
 20
22.375
 10
240.525
 20
22.6
 10
240.425
 20
22.825
 10
240.325
 20
23.1
 10
240.25
 20
23.4
 10
240.2
 20
23.725
 10
240.2
 20
24.05
 10
240.2
 20
24.4
 10
240.25
 20
24.725
 10
240.325
 20
25.025
  0
LWPOLYLINE
  5
40
100
AcDbEntity
  8
LAY002
 62
     1
100
AcDbPolyline
 90
       46
 70
     1
 10
244.775
 20
26.35
 10
245.475
 20
25.75
 10
245.225
 20
25.075
 10
245.175
 20
24.3
 10
244.8
 20
24.1
 10
244.975
 20
23.275
 10
245.3
 20
23.425
 10
245.525
 20
22.65
 10
245.875
 20
22.3
 10
245.3
 20
21.525
 10
246.0
 20
21.0
 10
246.55
 20
21.675
 10
247.125
 20
21.375
 10
247.6
 20
21.25
 10
247.7
 20
20.375
 10
248.575
 20
20.35
 10
248.675
 20
21.3
 10
249.125
 20
21.375
 10
249.675
 20
21.625
 10
250.375
 20
21.0
 10
250.95
 20
21.625
 10
250.375
 20
22.3
 10
250.7
 20
22.725
 10
250.875
 20
23.275
 10
249.15
 20
23.925
 10
248.725
 20
23.275
 10
248.1
 20
23.075
 10
247.225
 20
23.425
 10
247.025
 20
24.175
 10
247.225
 20
25.0
 10
247.9
 20
25.55
 10
248.725
 20
25.4
 10
249.15
 20
24.9
 10
250.275
 20
26.475
 10
250.175
 20
26.45
 10
250.85
 20
27.525
 10
250.15
 20
28.0
 10
249.35
 20
27.1
 10
248.7
 20
27.325
 10
248.125
 20
27.375
 10
247.925
 20
28.425
 10
247.05
 20
28.25
 10
247.1
 20
27.15
 10
246.525
 20
26.9
 10
246.1
 20
26.575
 10
245.325
 20
27.15
  0
LWPOLYLINE
  5
41
100
AcDbEntity
  8
LAY002
 62
     1
100
AcDbPolyline
 90
       25
 70
     1
 10
243.75
 20
17.875
 10
243.575
 20
17.85
 10
243.45
 20
17.825
 10
243.3
 20
17.75
 10
243.2
 20
17.65
 10
243.2
 20
16.425
 10
243.3
 20
16.325
 10
243.45
 20
16.25
 10
243.575
 20
16.225
 10
243.75
 20
16.2
 10
243.9
 20
16.225
 10
244.05
 20
16.25
 10
244.2
 20
16.325
 10
244.3
 20
16.425
 10
244.4
 20
16.55
 10
244.475
 20
16.7
 10
244.5
 20
16.85
 10
244.525
 20
17.05
 10
244.5
 20
17.225
 10
244.475
 20
17.375
 10
244.4
 20
17.525
 10
244.3
 20
17.65
 10
244.2
 20
17.75
 10
244.05
 20
17.825
 10
243.9
 20
17.85
  0
LWPOLYLINE
  5
42
100
AcDbEntity
  8
LAY002
 62
     1
100
AcDbPolyline
 90
       29
 70
     1
 10
243.45
 20
18.025
 10
243.6
 20
18.075
 10
243.775
 20
18.075
 10
243.975
 20
18.05
 10
244.175
 20
18.0
 10
244.35
 20
17.925
 10
244.5
 20
17.8
 10
244.625
 20
17.65
 10
244.7
 20
17.45
 10
244.75
 20
17.275
 10
244.775
 20
17.05
 10
244.75
 20
16.825
 10
244.7
 20
16.625
 10
244.625
 20
16.45
 10
244.5
 20
16.3
 10
244.35
 20
16.175
 10
244.175
 20
16.075
 10
243.975
 20
16.025
 10
243.775
 20
16.0
 10
243.6
 20
16.025
 10
243.45
 20
16.05
 10
243.325
 20
16.1
 10
243.2
 20
16.2
 10
243.2
 20
15.05
 10
242.975
 20
15.05
 10
242.975
 20
18.05
 10
243.2
 20
18.05
 10
243.2
 20
17.9
 10
243.325
 20
17.975
  0
LWPOLYLINE
  5
43
100
AcDbEntity
  8
LAY002
 62
     1
100
AcDbPolyline
 90
       41
 70
     1
 10
242.5
 20
17.55
 10
242.475
 20
17.325
 10
242.425
 20
17.1
 10
242.35
 20
16.875
 10
242.225
 20
16.675
 10
242.1
 20
16.525
 10
241.975
 20
16.4
 10
241.8
 20
16.275
 10
241.65
 20
16.175
 10
241.45
 20
16.1
 10
241.275
 20
16.025
 10
241.075
 20
16.0
 10
240.875
 20
16.0
 10
240.55
 20
16.025
 10
240.25
 20
16.1
 10
239.95
 20
16.25
 10
239.725
 20
16.45
 10
239.5
 20
16.675
 10
239.35
 20
16.95
 10
239.3
 20
17.1
 10
239.275
 20
17.25
 10
239.25
 20
17.4
 10
239.25
 20
17.575
 10
239.25
 20
17.725
 10
239.275
 20
17.875
 10
239.3
 20
18.0
 10
239.375
 20
18.15
 10
239.525
 20
18.425
 10
239.725
 20
18.65
 10
239.975
 20
18.85
 10
240.25
 20
19.0
 10
240.55
 20
19.075
 10
240.875
 20
19.1
 10
241.2
 20
19.075
 10
241.5
 20
19.0
 10
241.775
 20
18.85
 10
242.025
 20
18.65
 10
242.225
 20
18.425
 10
242.375
 20
18.15
 10
242.475
 20
17.85
 10
242.5
 20
17.7
  0
LWPOLYLINE
  5
44
100
AcDbEntity
  8
LAY002
 62
     1
100
AcDbPolyline
 90
       32
 70
     1
 10
242.225
 20
17.55
 10
242.2
 20
17.825
 10
242.125
 20
18.075
 10
242.0
 20
18.3
 10
241.825
 20
18.5
 10
241.625
 20
18.675
 10
241.4
 20
18.8
 10
241.125
 20
18.875
 10
240.875
 20
18.9
 10
240.6
 20
18.875
 10
240.35
 20
18.8
 10
240.125
 20
18.675
 10
239.9
 20
18.5
 10
239.75
 20
18.3
 10
239.625
 20
18.075
 10
239.525
 20
17.825
 10
239.5
 20
17.55
 10
239.525
 20
17.3
 10
239.625
 20
17.05
 10
239.75
 20
16.8
 10
239.9
 20
16.6
 10
240.1
 20
16.425
 10
240.35
 20
16.325
 10
240.6
 20
16.225
 10
240.875
 20
16.2
 10
241.15
 20
16.225
 10
241.4
 20
16.3
 10
241.625
 20
16.425
 10
241.825
 20
16.6
 10
242.0
 20
16.8
 10
242.125
 20
17.025
 10
242.2
 20
17.3
  0
LWPOLYLINE
  5
45
100
AcDbEntity
  8
LAY002
 62
     1
100
AcDbPolyline
 90
       17
 70
     1
 10
245.35
 20
17.3
 10
246.65
 20
17.3
 10
246.625
 20
17.425
 10
246.575
 20
17.55
 10
246.525
 20
17.65
 10
246.425
 20
17.725
 10
246.35
 20
17.8
 10
246.25
 20
17.85
 10
246.125
 20
17.875
 10
246.0
 20
17.875
 10
245.9
 20
17.875
 10
245.775
 20
17.85
 10
245.675
 20
17.8
 10
245.575
 20
17.725
 10
245.475
 20
17.625
 10
245.425
 20
17.55
 10
245.375
 20
17.425
  0
LWPOLYLINE
  5
46
100
AcDbEntity
  8
LAY002
 62
     1
100
AcDbPolyline
 90
       44
 70
     1
 10
246.025
 20
18.075
 10
246.225
 20
18.05
 10
246.4
 20
18.0
 10
246.55
 20
17.925
 10
246.675
 20
17.825
 10
246.775
 20
17.675
 10
246.85
 20
17.5
 10
246.9
 20
17.325
 10
246.925
 20
17.125
 10
246.925
 20
17.125
 10
245.325
 20
17.125
 10
245.325
 20
17.1
 10
245.325
 20
16.9
 10
245.375
 20
16.75
 10
245.425
 20
16.6
 10
245.525
 20
16.45
 10
245.65
 20
16.35
 10
245.775
 20
16.275
 10
245.925
 20
16.225
 10
246.075
 20
16.225
 10
246.275
 20
16.225
 10
246.475
 20
16.3
 10
246.675
 20
16.375
 10
246.875
 20
16.5
 10
246.875
 20
16.275
 10
246.675
 20
16.15
 10
246.475
 20
16.075
 10
246.3
 20
16.025
 10
246.1
 20
16.0
 10
245.875
 20
16.025
 10
245.675
 20
16.075
 10
245.5
 20
16.175
 10
245.35
 20
16.3
 10
245.225
 20
16.45
 10
245.15
 20
16.625
 10
245.1
 20
16.85
 10
245.075
 20
17.075
 10
245.1
 20
17.3
 10
245.15
 20
17.475
 10
245.225
 20
17.65
 10
245.325
 20
17.8
 10
245.475
 20
17.925
 10
245.65
 20
18.0
 10
245.825
 20
18.05
  0
LWPOLYLINE
  5
47
100
AcDbEntity
  8
LAY002
 62
     1
100
AcDbPolyline
 90
       32
 70
     1
 10
247.35
 20
18.05
 10
247.575
 20
18.05
 10
247.575
 20
17.725
 10
247.75
 20
17.875
 10
247.925
 20
17.975
 10
248.1
 20
18.05
 10
248.3
 20
18.075
 10
248.475
 20
18.05
 10
248.6
 20
18.025
 10
248.725
 20
17.95
 10
248.825
 20
17.85
 10
248.925
 20
17.75
 10
248.975
 20
17.6
 10
249.0
 20
17.45
 10
249.025
 20
17.25
 10
249.025
 20
16.05
 10
248.8
 20
16.05
 10
248.8
 20
17.15
 10
248.8
 20
17.325
 10
248.775
 20
17.475
 10
248.725
 20
17.6
 10
248.675
 20
17.7
 10
248.6
 20
17.775
 10
248.5
 20
17.825
 10
248.4
 20
17.85
 10
248.275
 20
17.875
 10
248.075
 20
17.85
 10
247.9
 20
17.775
 10
247.725
 20
17.625
 10
247.575
 20
17.45
 10
247.575
 20
16.05
 10
247.35
 20
16.05
  0
LWPOLYLINE
  5
48
100
AcDbEntity
  8
LAY002
 62
     1
100
AcDbPolyline
 90
       79
 70
     1
 10
249.5
 20
18.3
 10
249.525
 20
18.475
 10
249.575
 20
18.625
 10
249.65
 20
18.75
 10
249.75
 20
18.875
 10
249.9
 20
18.975
 10
250.05
 20
19.05
 10
250.225
 20
19.075
 10
250.425
 20
19.1
 10
250.6
 20
19.1
 10
250.775
 20
19.05
 10
250.95
 20
19.0
 10
251.125
 20
18.9
 10
251.125
 20
18.625
 10
250.925
 20
18.75
 10
250.75
 20
18.825
 10
250.575
 20
18.875
 10
250.4
 20
18.875
 10
250.275
 20
18.875
 10
250.15
 20
18.85
 10
250.05
 20
18.8
 10
249.95
 20
18.725
 10
249.875
 20
18.625
 10
249.8
 20
18.55
 10
249.775
 20
18.425
 10
249.75
 20
18.325
 10
249.8
 20
18.125
 10
249.875
 20
18.0
 10
249.95
 20
17.925
 10
250.05
 20
17.85
 10
250.2
 20
17.775
 10
250.375
 20
17.7
 10
250.45
 20
17.675
 10
250.65
 20
17.6
 10
250.8
 20
17.525
 10
250.925
 20
17.425
 10
251.025
 20
17.35
 10
251.1
 20
17.25
 10
251.175
 20
17.125
 10
251.2
 20
16.975
 10
251.225
 20
16.825
 10
251.2
 20
16.65
 10
251.15
 20
16.5
 10
251.075
 20
16.35
 10
250.975
 20
16.225
 10
250.825
 20
16.125
 10
250.675
 20
16.05
 10
250.5
 20
16.025
 10
250.3
 20
16.0
 10
250.1
 20
16.025
 10
249.9
 20
16.075
 10
249.7
 20
16.15
 10
249.5
 20
16.275
 10
249.5
 20
16.575
 10
249.725
 20
16.425
 10
249.925
 20
16.325
 10
250.1
 20
16.25
 10
250.3
 20
16.225
 10
250.45
 20
16.25
 10
250.575
 20
16.275
 10
250.675
 20
16.325
 10
250.775
 20
16.4
 10
250.85
 20
16.475
 10
250.925
 20
16.575
 10
250.95
 20
16.7
 10
250.95
 20
16.825
 10
250.925
 20
17.025
 10
250.85
 20
17.175
 10
250.75
 20
17.25
 10
250.65
 20
17.325
 10
250.475
 20
17.4
 10
250.275
 20
17.475
 10
250.075
 20
17.575
 10
249.9
 20
17.65
 10
249.775
 20
17.75
 10
249.675
 20
17.85
 10
249.6
 20
17.925
 10
249.55
 20
18.05
 10
249.525
 20
18.175
  0
LWPOLYLINE
  5
49
100
AcDbEntity
  8
LAY002
 62
     1
100
AcDbPolyline
 90
        6
 70
     1
 10
251.75
 20
19.075
 10
252.0
 20
19.075
 10
252.0
 20
16.25
 10
253.475
 20
16.25
 10
253.475
 20
16.05
 10
251.75
 20
16.05
  0
LWPOLYLINE
  5
4A
100
AcDbEntity
  8
LAY002
 62
     1
100
AcDbPolyline
 90
       46
 70
     1
 10
252.15
 20
21.55
 10
251.3
 20
21.55
 10
251.3
 20
29.425
 10
252.15
 20
29.425
 10
252.15
 20
26.0
 10
252.175
 20
26.0
 10
252.325
 20
26.175
 10
252.5
 20
26.35
 10
252.7
 20
26.475
 10
252.9
 20
26.6
 10
253.125
 20
26.7
 10
253.375
 20
26.775
 10
253.625
 20
26.825
 10
253.9
 20
26.85
 10
254.225
 20
26.825
 10
254.525
 20
26.775
 10
254.675
 20
26.725
 10
254.8
 20
26.65
 10
255.075
 20
26.5
 10
255.2
 20
26.375
 10
255.3
 20
26.25
 10
255.4
 20
26.1
 10
255.5
 20
25.925
 10
255.575
 20
25.725
 10
255.625
 20
25.525
 10
255.65
 20
25.275
 10
255.65
 20
25.0
 10
255.65
 20
21.55
 10
254.8
 20
21.55
 10
254.8
 20
24.875
 10
254.775
 20
25.15
 10
254.725
 20
25.425
 10
254.65
 20
25.625
 10
254.55
 20
25.8
 10
254.4
 20
25.95
 10
254.225
 20
26.05
 10
254.0
 20
26.1
 10
253.75
 20
26.125
 10
253.525
 20
26.1
 10
253.3
 20
26.075
 10
253.075
 20
26.0
 10
252.875
 20
25.875
 10
252.675
 20
25.75
 10
252.5
 20
25.6
 10
252.325
 20
25.425
 10
252.15
 20
25.225
  0
LWPOLYLINE
  5
4B
100
AcDbEntity
  8
LAY002
 62
     1
100
AcDbPolyline
 90
        4
 70
     1
 10
255.7
 20
19.075
 10
255.925
 20
19.075
 10
255.925
 20
16.05
 10
255.7
 20
16.05
  0
LWPOLYLINE
  5
4C
100
AcDbEntity
  8
LAY002
 62
     1
100
AcDbPolyline
 90
       32
 70
     1
 10
258.525
 20
18.7
 10
258.675
 20
18.875
 10
258.85
 20
19.0
 10
259.05
 20
19.075
 10
259.25
 20
19.1
 10
259.475
 20
19.075
 10
259.65
 20
19.0
 10
259.825
 20
18.875
 10
259.975
 20
18.7
 10
260.1
 20
18.45
 10
260.175
 20
18.2
 10
260.225
 20
17.9
 10
260.25
 20
17.55
 10
260.225
 20
17.2
 10
260.175
 20
16.9
 10
260.1
 20
16.65
 10
259.975
 20
16.4
 10
259.825
 20
16.225
 10
259.65
 20
16.1
 10
259.475
 20
16.025
 10
259.25
 20
16.0
 10
259.05
 20
16.025
 10
258.85
 20
16.1
 10
258.675
 20
16.225
 10
258.525
 20
16.4
 10
258.425
 20
16.65
 10
258.325
 20
16.9
 10
258.275
 20
17.2
 10
258.275
 20
17.55
 10
258.275
 20
17.9
 10
258.325
 20
18.2
 10
258.425
 20
18.45
  0
LWPOLYLINE
  5
4D
100
AcDbEntity
  8
LAY002
 62
     1
100
AcDbPolyline
 90
       32
 70
     1
 10
259.25
 20
18.9
 10
259.1
 20
18.875
 10
258.95
 20
18.8
 10
258.825
 20
18.675
 10
258.7
 20
18.525
 10
258.625
 20
18.325
 10
258.55
 20
18.1
 10
258.525
 20
17.85
 10
258.5
 20
17.55
 10
258.525
 20
17.25
 10
258.55
 20
17.0
 10
258.625
 20
16.775
 10
258.7
 20
16.575
 10
258.825
 20
16.425
 10
258.95
 20
16.3
 10
259.1
 20
16.225
 10
259.25
 20
16.225
 10
259.425
 20
16.225
 10
259.55
 20
16.3
 10
259.7
 20
16.425
 10
259.8
 20
16.575
 10
259.875
 20
16.775
 10
259.95
 20
17.0
 10
260.0
 20
17.25
 10
260.0
 20
17.55
 10
260.0
 20
17.85
 10
259.95
 20
18.1
 10
259.875
 20
18.325
 10
259.8
 20
18.525
 10
259.7
 20
18.675
 10
259.55
 20
18.8
 10
259.425
 20
18.875
  0
LWPOLYLINE
  5
4E
100
AcDbEntity
  8
LAY002
 62
     1
100
AcDbPolyline
 90
        4
 70
     1
 10
257.7
 20
16.5
 10
257.7
 20
16.05
 10
257.4
 20
16.05
 10
257.4
 20
16.5
  0
ENDSEC
  0
SECTION
  2
OBJECTS
  0
DICTIONARY
  5
19
100
AcDbDictionary
  3
ACAD_GROUP
350
1A
  3
ACAD_MLINESTYLE
350
1B
  0
DICTIONARY
  5
1A
102
{ACAD_REACTORS
330
19
102
}
100
AcDbDictionary
  0
DICTIONARY
  5
1B
102
{ACAD_REACTORS
330
19
102
}
100
AcDbDictionary
  3
STANDARD
350
1C
  0
MLINESTYLE
  5
1C
102
{ACAD_REACTORS
330
1B
102
}
100
AcDbMlineStyle
  2
STANDARD
 70
     0
  3

 62
     0
 51
90.0
 52
90.0
 71
     2
 49
0.5
 62
   256
  6
BYLAYER
 49
-0.5
 62
   256
  6
BYLAYER
  0
ENDSEC
  0
EOF
