G75*
G70*
%OFA0B0*%
%FSLAX24Y24*%
%IPPOS*%
%LPD*%
%AMOC8*
5,1,8,0,0,1.08239X$1,22.5*
%
%ADD10C,0.0000*%
D10*
X006928Y006900D02*
X006928Y030646D01*
X006933Y030650D02*
X046928Y030650D01*
X046928Y030646D02*
X046928Y006900D01*
X006933Y006900D01*
X011803Y010650D02*
X011805Y010700D01*
X011811Y010750D01*
X011821Y010799D01*
X011835Y010847D01*
X011852Y010894D01*
X011873Y010939D01*
X011898Y010983D01*
X011926Y011024D01*
X011958Y011063D01*
X011992Y011100D01*
X012029Y011134D01*
X012069Y011164D01*
X012111Y011191D01*
X012155Y011215D01*
X012201Y011236D01*
X012248Y011252D01*
X012296Y011265D01*
X012346Y011274D01*
X012395Y011279D01*
X012446Y011280D01*
X012496Y011277D01*
X012545Y011270D01*
X012594Y011259D01*
X012642Y011244D01*
X012688Y011226D01*
X012733Y011204D01*
X012776Y011178D01*
X012817Y011149D01*
X012856Y011117D01*
X012892Y011082D01*
X012924Y011044D01*
X012954Y011004D01*
X012981Y010961D01*
X013004Y010917D01*
X013023Y010871D01*
X013039Y010823D01*
X013051Y010774D01*
X013059Y010725D01*
X013063Y010675D01*
X013063Y010625D01*
X013059Y010575D01*
X013051Y010526D01*
X013039Y010477D01*
X013023Y010429D01*
X013004Y010383D01*
X012981Y010339D01*
X012954Y010296D01*
X012924Y010256D01*
X012892Y010218D01*
X012856Y010183D01*
X012817Y010151D01*
X012776Y010122D01*
X012733Y010096D01*
X012688Y010074D01*
X012642Y010056D01*
X012594Y010041D01*
X012545Y010030D01*
X012496Y010023D01*
X012446Y010020D01*
X012395Y010021D01*
X012346Y010026D01*
X012296Y010035D01*
X012248Y010048D01*
X012201Y010064D01*
X012155Y010085D01*
X012111Y010109D01*
X012069Y010136D01*
X012029Y010166D01*
X011992Y010200D01*
X011958Y010237D01*
X011926Y010276D01*
X011898Y010317D01*
X011873Y010361D01*
X011852Y010406D01*
X011835Y010453D01*
X011821Y010501D01*
X011811Y010550D01*
X011805Y010600D01*
X011803Y010650D01*
X012303Y029650D02*
X012305Y029700D01*
X012311Y029750D01*
X012321Y029799D01*
X012335Y029847D01*
X012352Y029894D01*
X012373Y029939D01*
X012398Y029983D01*
X012426Y030024D01*
X012458Y030063D01*
X012492Y030100D01*
X012529Y030134D01*
X012569Y030164D01*
X012611Y030191D01*
X012655Y030215D01*
X012701Y030236D01*
X012748Y030252D01*
X012796Y030265D01*
X012846Y030274D01*
X012895Y030279D01*
X012946Y030280D01*
X012996Y030277D01*
X013045Y030270D01*
X013094Y030259D01*
X013142Y030244D01*
X013188Y030226D01*
X013233Y030204D01*
X013276Y030178D01*
X013317Y030149D01*
X013356Y030117D01*
X013392Y030082D01*
X013424Y030044D01*
X013454Y030004D01*
X013481Y029961D01*
X013504Y029917D01*
X013523Y029871D01*
X013539Y029823D01*
X013551Y029774D01*
X013559Y029725D01*
X013563Y029675D01*
X013563Y029625D01*
X013559Y029575D01*
X013551Y029526D01*
X013539Y029477D01*
X013523Y029429D01*
X013504Y029383D01*
X013481Y029339D01*
X013454Y029296D01*
X013424Y029256D01*
X013392Y029218D01*
X013356Y029183D01*
X013317Y029151D01*
X013276Y029122D01*
X013233Y029096D01*
X013188Y029074D01*
X013142Y029056D01*
X013094Y029041D01*
X013045Y029030D01*
X012996Y029023D01*
X012946Y029020D01*
X012895Y029021D01*
X012846Y029026D01*
X012796Y029035D01*
X012748Y029048D01*
X012701Y029064D01*
X012655Y029085D01*
X012611Y029109D01*
X012569Y029136D01*
X012529Y029166D01*
X012492Y029200D01*
X012458Y029237D01*
X012426Y029276D01*
X012398Y029317D01*
X012373Y029361D01*
X012352Y029406D01*
X012335Y029453D01*
X012321Y029501D01*
X012311Y029550D01*
X012305Y029600D01*
X012303Y029650D01*
X044303Y010650D02*
X044305Y010700D01*
X044311Y010750D01*
X044321Y010799D01*
X044335Y010847D01*
X044352Y010894D01*
X044373Y010939D01*
X044398Y010983D01*
X044426Y011024D01*
X044458Y011063D01*
X044492Y011100D01*
X044529Y011134D01*
X044569Y011164D01*
X044611Y011191D01*
X044655Y011215D01*
X044701Y011236D01*
X044748Y011252D01*
X044796Y011265D01*
X044846Y011274D01*
X044895Y011279D01*
X044946Y011280D01*
X044996Y011277D01*
X045045Y011270D01*
X045094Y011259D01*
X045142Y011244D01*
X045188Y011226D01*
X045233Y011204D01*
X045276Y011178D01*
X045317Y011149D01*
X045356Y011117D01*
X045392Y011082D01*
X045424Y011044D01*
X045454Y011004D01*
X045481Y010961D01*
X045504Y010917D01*
X045523Y010871D01*
X045539Y010823D01*
X045551Y010774D01*
X045559Y010725D01*
X045563Y010675D01*
X045563Y010625D01*
X045559Y010575D01*
X045551Y010526D01*
X045539Y010477D01*
X045523Y010429D01*
X045504Y010383D01*
X045481Y010339D01*
X045454Y010296D01*
X045424Y010256D01*
X045392Y010218D01*
X045356Y010183D01*
X045317Y010151D01*
X045276Y010122D01*
X045233Y010096D01*
X045188Y010074D01*
X045142Y010056D01*
X045094Y010041D01*
X045045Y010030D01*
X044996Y010023D01*
X044946Y010020D01*
X044895Y010021D01*
X044846Y010026D01*
X044796Y010035D01*
X044748Y010048D01*
X044701Y010064D01*
X044655Y010085D01*
X044611Y010109D01*
X044569Y010136D01*
X044529Y010166D01*
X044492Y010200D01*
X044458Y010237D01*
X044426Y010276D01*
X044398Y010317D01*
X044373Y010361D01*
X044352Y010406D01*
X044335Y010453D01*
X044321Y010501D01*
X044311Y010550D01*
X044305Y010600D01*
X044303Y010650D01*
M02*
