G75*
G70*
%OFA0B0*%
%FSLAX24Y24*%
%IPPOS*%
%LPD*%
%AMOC8*
5,1,8,0,0,1.08239X$1,22.5*
%
%ADD10C,0.0160*%
D10*
X000740Y001977D02*
X000740Y002448D01*
X001006Y002338D01*
X001322Y002338D01*
X001615Y002459D01*
X001838Y002682D01*
X001959Y002975D01*
X001959Y003291D01*
X001838Y003583D01*
X001615Y003807D01*
X001322Y003928D01*
X001006Y003928D01*
X000740Y003817D01*
X000740Y004417D01*
X001006Y004306D01*
X001322Y004306D01*
X001615Y004427D01*
X001838Y004651D01*
X001959Y004943D01*
X001959Y005259D01*
X001838Y005552D01*
X001615Y005775D01*
X001322Y005896D01*
X001006Y005896D01*
X000740Y005786D01*
X000740Y006385D01*
X001006Y006275D01*
X001322Y006275D01*
X001615Y006396D01*
X001838Y006619D01*
X001959Y006912D01*
X001959Y007228D01*
X001838Y007520D01*
X001615Y007744D01*
X001322Y007865D01*
X001006Y007865D01*
X000740Y007754D01*
X000740Y008226D01*
X000983Y008125D01*
X001346Y008125D01*
X001681Y008264D01*
X001938Y008521D01*
X002077Y008857D01*
X002077Y009220D01*
X001938Y009555D01*
X001681Y009812D01*
X001346Y009951D01*
X000983Y009951D01*
X000740Y009851D01*
X000740Y011306D01*
X001006Y011196D01*
X001322Y011196D01*
X001615Y011317D01*
X001838Y011541D01*
X001959Y011833D01*
X001959Y012149D01*
X001838Y012441D01*
X001615Y012665D01*
X001322Y012786D01*
X001006Y012786D01*
X000740Y012676D01*
X000740Y013275D01*
X001006Y013165D01*
X001322Y013165D01*
X001615Y013286D01*
X001838Y013509D01*
X001959Y013801D01*
X001959Y014118D01*
X001838Y014410D01*
X001615Y014633D01*
X001322Y014754D01*
X001006Y014754D01*
X000740Y014644D01*
X000740Y015243D01*
X001006Y015133D01*
X001322Y015133D01*
X001615Y015254D01*
X001838Y015478D01*
X001959Y015770D01*
X001959Y016086D01*
X001838Y016378D01*
X001615Y016602D01*
X001322Y016723D01*
X001006Y016723D01*
X000740Y016613D01*
X000740Y017084D01*
X000983Y016983D01*
X001346Y016983D01*
X001681Y017122D01*
X001938Y017379D01*
X002077Y017715D01*
X002077Y018078D01*
X001938Y018414D01*
X001681Y018671D01*
X001346Y018810D01*
X000983Y018810D01*
X000740Y018709D01*
X000740Y019180D01*
X001006Y019070D01*
X001322Y019070D01*
X001615Y019191D01*
X001838Y019415D01*
X001959Y019707D01*
X001959Y020023D01*
X001838Y020315D01*
X001615Y020539D01*
X001322Y020660D01*
X001006Y020660D01*
X000740Y020550D01*
X000740Y021149D01*
X001006Y021039D01*
X001322Y021039D01*
X001615Y021160D01*
X001838Y021383D01*
X001959Y021675D01*
X001959Y021992D01*
X001838Y022284D01*
X001615Y022507D01*
X001322Y022629D01*
X001006Y022629D01*
X000740Y022518D01*
X000740Y023117D01*
X001006Y023007D01*
X001322Y023007D01*
X001615Y023128D01*
X001838Y023352D01*
X001959Y023644D01*
X001959Y023960D01*
X001838Y024252D01*
X001615Y024476D01*
X001322Y024597D01*
X001006Y024597D01*
X000740Y024487D01*
X000740Y025942D01*
X000983Y025842D01*
X001346Y025842D01*
X001681Y025981D01*
X001938Y026238D01*
X002077Y026573D01*
X002077Y026936D01*
X001938Y027272D01*
X001681Y027529D01*
X001346Y027668D01*
X000983Y027668D01*
X000740Y027567D01*
X000740Y028039D01*
X001006Y027928D01*
X001322Y027928D01*
X001615Y028049D01*
X001838Y028273D01*
X001959Y028565D01*
X001959Y028881D01*
X001838Y029174D01*
X001615Y029397D01*
X001322Y029518D01*
X001006Y029518D01*
X000740Y029408D01*
X000740Y030007D01*
X001006Y029897D01*
X001322Y029897D01*
X001615Y030018D01*
X001838Y030242D01*
X001959Y030534D01*
X001959Y030850D01*
X001838Y031142D01*
X001615Y031366D01*
X001322Y031487D01*
X001006Y031487D01*
X000740Y031377D01*
X000740Y031976D01*
X001006Y031865D01*
X001322Y031865D01*
X001615Y031986D01*
X001838Y032210D01*
X001959Y032502D01*
X001959Y032818D01*
X001838Y033111D01*
X001615Y033334D01*
X001322Y033455D01*
X001006Y033455D01*
X000740Y033345D01*
X000740Y033816D01*
X000983Y033716D01*
X001346Y033716D01*
X001681Y033855D01*
X001938Y034112D01*
X002077Y034447D01*
X002077Y034810D01*
X001977Y035053D01*
X002448Y035053D01*
X002338Y034787D01*
X002338Y034471D01*
X002459Y034179D01*
X002682Y033955D01*
X002975Y033834D01*
X003291Y033834D01*
X003583Y033955D01*
X003807Y034179D01*
X003928Y034471D01*
X003928Y034787D01*
X003817Y035053D01*
X004417Y035053D01*
X004306Y034787D01*
X004306Y034471D01*
X004427Y034179D01*
X004651Y033955D01*
X004943Y033834D01*
X005259Y033834D01*
X005552Y033955D01*
X005775Y034179D01*
X005896Y034471D01*
X005896Y034787D01*
X005786Y035053D01*
X006385Y035053D01*
X006275Y034787D01*
X006275Y034471D01*
X006396Y034179D01*
X006619Y033955D01*
X006912Y033834D01*
X007228Y033834D01*
X007520Y033955D01*
X007744Y034179D01*
X007865Y034471D01*
X007865Y034787D01*
X007754Y035053D01*
X008226Y035053D01*
X008125Y034810D01*
X008125Y034447D01*
X008264Y034112D01*
X008521Y033855D01*
X008857Y033716D01*
X009220Y033716D01*
X009555Y033855D01*
X009812Y034112D01*
X009951Y034447D01*
X009951Y034810D01*
X009851Y035053D01*
X011306Y035053D01*
X011196Y034787D01*
X011196Y034471D01*
X011317Y034179D01*
X011541Y033955D01*
X011833Y033834D01*
X012149Y033834D01*
X012441Y033955D01*
X012665Y034179D01*
X012786Y034471D01*
X012786Y034787D01*
X012676Y035053D01*
X013275Y035053D01*
X013165Y034787D01*
X013165Y034471D01*
X013286Y034179D01*
X013509Y033955D01*
X013801Y033834D01*
X014118Y033834D01*
X014410Y033955D01*
X014633Y034179D01*
X014754Y034471D01*
X014754Y034787D01*
X014644Y035053D01*
X015243Y035053D01*
X015133Y034787D01*
X015133Y034471D01*
X015254Y034179D01*
X015478Y033955D01*
X015770Y033834D01*
X016086Y033834D01*
X016378Y033955D01*
X016602Y034179D01*
X016723Y034471D01*
X016723Y034787D01*
X016613Y035053D01*
X017084Y035053D01*
X016983Y034810D01*
X016983Y034447D01*
X017122Y034112D01*
X017379Y033855D01*
X017715Y033716D01*
X018078Y033716D01*
X018414Y033855D01*
X018671Y034112D01*
X018810Y034447D01*
X018810Y034810D01*
X018709Y035053D01*
X019180Y035053D01*
X019070Y034787D01*
X019070Y034471D01*
X019191Y034179D01*
X019415Y033955D01*
X019707Y033834D01*
X020023Y033834D01*
X020315Y033955D01*
X020539Y034179D01*
X020660Y034471D01*
X020660Y034787D01*
X020550Y035053D01*
X021149Y035053D01*
X021039Y034787D01*
X021039Y034471D01*
X021160Y034179D01*
X021383Y033955D01*
X021675Y033834D01*
X021992Y033834D01*
X022284Y033955D01*
X022507Y034179D01*
X022629Y034471D01*
X022629Y034787D01*
X022518Y035053D01*
X023117Y035053D01*
X023007Y034787D01*
X023007Y034471D01*
X023128Y034179D01*
X023352Y033955D01*
X023644Y033834D01*
X023960Y033834D01*
X024252Y033955D01*
X024476Y034179D01*
X024597Y034471D01*
X024597Y034787D01*
X024487Y035053D01*
X025942Y035053D01*
X025842Y034810D01*
X025842Y034447D01*
X025981Y034112D01*
X026238Y033855D01*
X026573Y033716D01*
X026936Y033716D01*
X027272Y033855D01*
X027529Y034112D01*
X027668Y034447D01*
X027668Y034810D01*
X027567Y035053D01*
X028039Y035053D01*
X027928Y034787D01*
X027928Y034471D01*
X028049Y034179D01*
X028273Y033955D01*
X028565Y033834D01*
X028881Y033834D01*
X029174Y033955D01*
X029397Y034179D01*
X029518Y034471D01*
X029518Y034787D01*
X029408Y035053D01*
X030007Y035053D01*
X029897Y034787D01*
X029897Y034471D01*
X030018Y034179D01*
X030242Y033955D01*
X030534Y033834D01*
X030850Y033834D01*
X031142Y033955D01*
X031366Y034179D01*
X031487Y034471D01*
X031487Y034787D01*
X031377Y035053D01*
X031976Y035053D01*
X031865Y034787D01*
X031865Y034471D01*
X031986Y034179D01*
X032210Y033955D01*
X032502Y033834D01*
X032818Y033834D01*
X033111Y033955D01*
X033334Y034179D01*
X033455Y034471D01*
X033455Y034787D01*
X033345Y035053D01*
X033816Y035053D01*
X033716Y034810D01*
X033716Y034447D01*
X033855Y034112D01*
X034112Y033855D01*
X034447Y033716D01*
X034810Y033716D01*
X035053Y033816D01*
X035053Y033345D01*
X034787Y033455D01*
X034471Y033455D01*
X034179Y033334D01*
X033955Y033111D01*
X033834Y032818D01*
X033834Y032502D01*
X033955Y032210D01*
X034179Y031986D01*
X034471Y031865D01*
X034787Y031865D01*
X035053Y031976D01*
X035053Y031377D01*
X034787Y031487D01*
X034471Y031487D01*
X034179Y031366D01*
X033955Y031142D01*
X033834Y030850D01*
X033834Y030534D01*
X033955Y030242D01*
X034179Y030018D01*
X034471Y029897D01*
X034787Y029897D01*
X035053Y030007D01*
X035053Y029408D01*
X034787Y029518D01*
X034471Y029518D01*
X034179Y029397D01*
X033955Y029174D01*
X033834Y028881D01*
X033834Y028565D01*
X033955Y028273D01*
X034179Y028049D01*
X034471Y027928D01*
X034787Y027928D01*
X035053Y028039D01*
X035053Y027567D01*
X034810Y027668D01*
X034447Y027668D01*
X034112Y027529D01*
X033855Y027272D01*
X033716Y026936D01*
X033716Y026573D01*
X033855Y026238D01*
X034112Y025981D01*
X034447Y025842D01*
X034810Y025842D01*
X035053Y025942D01*
X035053Y024487D01*
X034787Y024597D01*
X034471Y024597D01*
X034179Y024476D01*
X033955Y024252D01*
X033834Y023960D01*
X033834Y023644D01*
X033955Y023352D01*
X034179Y023128D01*
X034471Y023007D01*
X034787Y023007D01*
X035053Y023117D01*
X035053Y022518D01*
X034787Y022629D01*
X034471Y022629D01*
X034179Y022507D01*
X033955Y022284D01*
X033834Y021992D01*
X033834Y021675D01*
X033955Y021383D01*
X034179Y021160D01*
X034471Y021039D01*
X034787Y021039D01*
X035053Y021149D01*
X035053Y020550D01*
X034787Y020660D01*
X034471Y020660D01*
X034179Y020539D01*
X033955Y020315D01*
X033834Y020023D01*
X033834Y019707D01*
X033955Y019415D01*
X034179Y019191D01*
X034471Y019070D01*
X034787Y019070D01*
X035053Y019180D01*
X035053Y018709D01*
X034810Y018810D01*
X034447Y018810D01*
X034112Y018671D01*
X033855Y018414D01*
X033716Y018078D01*
X033716Y017715D01*
X033855Y017379D01*
X034112Y017122D01*
X034447Y016983D01*
X034810Y016983D01*
X035053Y017084D01*
X035053Y016613D01*
X034787Y016723D01*
X034471Y016723D01*
X034179Y016602D01*
X033955Y016378D01*
X033834Y016086D01*
X033834Y015770D01*
X033955Y015478D01*
X034179Y015254D01*
X034471Y015133D01*
X034787Y015133D01*
X035053Y015243D01*
X035053Y014644D01*
X034787Y014754D01*
X034471Y014754D01*
X034179Y014633D01*
X033955Y014410D01*
X033834Y014118D01*
X033834Y013801D01*
X033955Y013509D01*
X034179Y013286D01*
X034471Y013165D01*
X034787Y013165D01*
X035053Y013275D01*
X035053Y012676D01*
X034787Y012786D01*
X034471Y012786D01*
X034179Y012665D01*
X033955Y012441D01*
X033834Y012149D01*
X033834Y011833D01*
X033955Y011541D01*
X034179Y011317D01*
X034471Y011196D01*
X034787Y011196D01*
X035053Y011306D01*
X035053Y009851D01*
X034810Y009951D01*
X034447Y009951D01*
X034112Y009812D01*
X033855Y009555D01*
X033716Y009220D01*
X033716Y008857D01*
X033855Y008521D01*
X034112Y008264D01*
X034447Y008125D01*
X034810Y008125D01*
X035053Y008226D01*
X035053Y007754D01*
X034787Y007865D01*
X034471Y007865D01*
X034179Y007744D01*
X033955Y007520D01*
X033834Y007228D01*
X033834Y006912D01*
X033955Y006619D01*
X034179Y006396D01*
X034471Y006275D01*
X034787Y006275D01*
X035053Y006385D01*
X035053Y005786D01*
X034787Y005896D01*
X034471Y005896D01*
X034179Y005775D01*
X033955Y005552D01*
X033834Y005259D01*
X033834Y004943D01*
X033955Y004651D01*
X034179Y004427D01*
X034471Y004306D01*
X034787Y004306D01*
X035053Y004417D01*
X035053Y003817D01*
X034787Y003928D01*
X034471Y003928D01*
X034179Y003807D01*
X033955Y003583D01*
X033834Y003291D01*
X033834Y002975D01*
X033955Y002682D01*
X034179Y002459D01*
X034471Y002338D01*
X034787Y002338D01*
X035053Y002448D01*
X035053Y001977D01*
X034810Y002077D01*
X034447Y002077D01*
X034112Y001938D01*
X033855Y001681D01*
X033716Y001346D01*
X033716Y000983D01*
X033816Y000740D01*
X033345Y000740D01*
X033455Y001006D01*
X033455Y001322D01*
X033334Y001615D01*
X033111Y001838D01*
X032818Y001959D01*
X032502Y001959D01*
X032210Y001838D01*
X031986Y001615D01*
X031865Y001322D01*
X031865Y001006D01*
X031976Y000740D01*
X031377Y000740D01*
X031487Y001006D01*
X031487Y001322D01*
X031366Y001615D01*
X031142Y001838D01*
X030850Y001959D01*
X030534Y001959D01*
X030242Y001838D01*
X030018Y001615D01*
X029897Y001322D01*
X029897Y001006D01*
X030007Y000740D01*
X029408Y000740D01*
X029518Y001006D01*
X029518Y001322D01*
X029397Y001615D01*
X029174Y001838D01*
X028881Y001959D01*
X028565Y001959D01*
X028273Y001838D01*
X028049Y001615D01*
X027928Y001322D01*
X027928Y001006D01*
X028039Y000740D01*
X027567Y000740D01*
X027668Y000983D01*
X027668Y001346D01*
X027529Y001681D01*
X027272Y001938D01*
X026936Y002077D01*
X026573Y002077D01*
X026238Y001938D01*
X025981Y001681D01*
X025842Y001346D01*
X025842Y000983D01*
X025942Y000740D01*
X024487Y000740D01*
X024597Y001006D01*
X024597Y001322D01*
X024476Y001615D01*
X024252Y001838D01*
X023960Y001959D01*
X023644Y001959D01*
X023352Y001838D01*
X023128Y001615D01*
X023007Y001322D01*
X023007Y001006D01*
X023117Y000740D01*
X022518Y000740D01*
X022629Y001006D01*
X022629Y001322D01*
X022507Y001615D01*
X022284Y001838D01*
X021992Y001959D01*
X021675Y001959D01*
X021383Y001838D01*
X021160Y001615D01*
X021039Y001322D01*
X021039Y001006D01*
X021149Y000740D01*
X020550Y000740D01*
X020660Y001006D01*
X020660Y001322D01*
X020539Y001615D01*
X020315Y001838D01*
X020023Y001959D01*
X019707Y001959D01*
X019415Y001838D01*
X019191Y001615D01*
X019070Y001322D01*
X019070Y001006D01*
X019180Y000740D01*
X018709Y000740D01*
X018810Y000983D01*
X018810Y001346D01*
X018671Y001681D01*
X018414Y001938D01*
X018078Y002077D01*
X017715Y002077D01*
X017379Y001938D01*
X017122Y001681D01*
X016983Y001346D01*
X016983Y000983D01*
X017084Y000740D01*
X016613Y000740D01*
X016723Y001006D01*
X016723Y001322D01*
X016602Y001615D01*
X016378Y001838D01*
X016086Y001959D01*
X015770Y001959D01*
X015478Y001838D01*
X015254Y001615D01*
X015133Y001322D01*
X015133Y001006D01*
X015243Y000740D01*
X014644Y000740D01*
X014754Y001006D01*
X014754Y001322D01*
X014633Y001615D01*
X014410Y001838D01*
X014118Y001959D01*
X013801Y001959D01*
X013509Y001838D01*
X013286Y001615D01*
X013165Y001322D01*
X013165Y001006D01*
X013275Y000740D01*
X012676Y000740D01*
X012786Y001006D01*
X012786Y001322D01*
X012665Y001615D01*
X012441Y001838D01*
X012149Y001959D01*
X011833Y001959D01*
X011541Y001838D01*
X011317Y001615D01*
X011196Y001322D01*
X011196Y001006D01*
X011306Y000740D01*
X009851Y000740D01*
X009951Y000983D01*
X009951Y001346D01*
X009812Y001681D01*
X009555Y001938D01*
X009220Y002077D01*
X008857Y002077D01*
X008521Y001938D01*
X008264Y001681D01*
X008125Y001346D01*
X008125Y000983D01*
X008226Y000740D01*
X007754Y000740D01*
X007865Y001006D01*
X007865Y001322D01*
X007744Y001615D01*
X007520Y001838D01*
X007228Y001959D01*
X006912Y001959D01*
X006619Y001838D01*
X006396Y001615D01*
X006275Y001322D01*
X006275Y001006D01*
X006385Y000740D01*
X005786Y000740D01*
X005896Y001006D01*
X005896Y001322D01*
X005775Y001615D01*
X005552Y001838D01*
X005259Y001959D01*
X004943Y001959D01*
X004651Y001838D01*
X004427Y001615D01*
X004306Y001322D01*
X004306Y001006D01*
X004417Y000740D01*
X003817Y000740D01*
X003928Y001006D01*
X003928Y001322D01*
X003807Y001615D01*
X003583Y001838D01*
X003291Y001959D01*
X002975Y001959D01*
X002682Y001838D01*
X002459Y001615D01*
X002338Y001322D01*
X002338Y001006D01*
X002448Y000740D01*
X001977Y000740D01*
X002077Y000983D01*
X002077Y001346D01*
X001938Y001681D01*
X001681Y001938D01*
X001346Y002077D01*
X000983Y002077D01*
X000740Y001977D01*
X000740Y002082D02*
X035053Y002082D01*
X035053Y002241D02*
X000740Y002241D01*
X000740Y002399D02*
X000858Y002399D01*
X001470Y002399D02*
X034323Y002399D01*
X034080Y002558D02*
X001713Y002558D01*
X001852Y002716D02*
X033941Y002716D01*
X033875Y002875D02*
X001918Y002875D01*
X001959Y003033D02*
X033834Y003033D01*
X033834Y003192D02*
X001959Y003192D01*
X001935Y003350D02*
X033858Y003350D01*
X033924Y003509D02*
X001869Y003509D01*
X001754Y003667D02*
X034039Y003667D01*
X034224Y003826D02*
X001569Y003826D01*
X001647Y004460D02*
X034146Y004460D01*
X033988Y004618D02*
X001805Y004618D01*
X001890Y004777D02*
X033903Y004777D01*
X033837Y004935D02*
X001956Y004935D01*
X001959Y005094D02*
X033834Y005094D01*
X033834Y005252D02*
X001959Y005252D01*
X001897Y005411D02*
X033896Y005411D01*
X033972Y005569D02*
X001821Y005569D01*
X001662Y005728D02*
X034131Y005728D01*
X034446Y005886D02*
X001347Y005886D01*
X000981Y005886D02*
X000740Y005886D01*
X000740Y006045D02*
X035053Y006045D01*
X035053Y006203D02*
X000740Y006203D01*
X000740Y006362D02*
X000797Y006362D01*
X001532Y006362D02*
X034261Y006362D01*
X034054Y006520D02*
X001739Y006520D01*
X001863Y006679D02*
X033930Y006679D01*
X033865Y006837D02*
X001928Y006837D01*
X001959Y006996D02*
X033834Y006996D01*
X033834Y007154D02*
X001959Y007154D01*
X001924Y007313D02*
X033869Y007313D01*
X033935Y007471D02*
X001859Y007471D01*
X001729Y007630D02*
X034064Y007630D01*
X034285Y007788D02*
X001508Y007788D01*
X001680Y008264D02*
X034113Y008264D01*
X033954Y008422D02*
X001839Y008422D01*
X001963Y008581D02*
X033830Y008581D01*
X033764Y008739D02*
X002029Y008739D01*
X002077Y008898D02*
X033716Y008898D01*
X033716Y009056D02*
X002077Y009056D01*
X002077Y009215D02*
X033716Y009215D01*
X033779Y009373D02*
X002014Y009373D01*
X001948Y009532D02*
X033845Y009532D01*
X033989Y009690D02*
X001804Y009690D01*
X001594Y009849D02*
X034199Y009849D01*
X035053Y010007D02*
X000740Y010007D01*
X000740Y010166D02*
X035053Y010166D01*
X035053Y010324D02*
X000740Y010324D01*
X000740Y010483D02*
X035053Y010483D01*
X035053Y010641D02*
X000740Y010641D01*
X000740Y010800D02*
X035053Y010800D01*
X035053Y010958D02*
X000740Y010958D01*
X000740Y011117D02*
X035053Y011117D01*
X035053Y011275D02*
X034978Y011275D01*
X034280Y011275D02*
X001513Y011275D01*
X001731Y011434D02*
X034062Y011434D01*
X033934Y011592D02*
X001859Y011592D01*
X001925Y011751D02*
X033868Y011751D01*
X033834Y011909D02*
X001959Y011909D01*
X001959Y012068D02*
X033834Y012068D01*
X033866Y012226D02*
X001927Y012226D01*
X001862Y012385D02*
X033931Y012385D01*
X034057Y012543D02*
X001736Y012543D01*
X001526Y012702D02*
X034267Y012702D01*
X034441Y013177D02*
X001352Y013177D01*
X001664Y013336D02*
X034129Y013336D01*
X033970Y013494D02*
X001823Y013494D01*
X001898Y013653D02*
X033896Y013653D01*
X033834Y013811D02*
X001959Y013811D01*
X001959Y013970D02*
X033834Y013970D01*
X033838Y014128D02*
X001955Y014128D01*
X001889Y014287D02*
X033904Y014287D01*
X033990Y014445D02*
X001803Y014445D01*
X001645Y014604D02*
X034149Y014604D01*
X034219Y015238D02*
X001575Y015238D01*
X001756Y015396D02*
X034037Y015396D01*
X033923Y015555D02*
X001870Y015555D01*
X001936Y015713D02*
X033857Y015713D01*
X033834Y015872D02*
X001959Y015872D01*
X001959Y016030D02*
X033834Y016030D01*
X033876Y016189D02*
X001917Y016189D01*
X001851Y016347D02*
X033942Y016347D01*
X034082Y016506D02*
X001711Y016506D01*
X001465Y016664D02*
X034328Y016664D01*
X034095Y017140D02*
X001699Y017140D01*
X001857Y017298D02*
X033936Y017298D01*
X033823Y017457D02*
X001970Y017457D01*
X002036Y017615D02*
X033757Y017615D01*
X033716Y017774D02*
X002077Y017774D01*
X002077Y017932D02*
X033716Y017932D01*
X033721Y018091D02*
X002072Y018091D01*
X002007Y018249D02*
X033787Y018249D01*
X033852Y018408D02*
X001941Y018408D01*
X001786Y018566D02*
X034007Y018566D01*
X034242Y018725D02*
X001551Y018725D01*
X001623Y019200D02*
X034170Y019200D01*
X034011Y019359D02*
X001782Y019359D01*
X001881Y019517D02*
X033913Y019517D01*
X033847Y019676D02*
X001946Y019676D01*
X001959Y019834D02*
X033834Y019834D01*
X033834Y019993D02*
X001959Y019993D01*
X001906Y020151D02*
X033887Y020151D01*
X033952Y020310D02*
X001841Y020310D01*
X001686Y020468D02*
X034108Y020468D01*
X034390Y020627D02*
X001403Y020627D01*
X000925Y020627D02*
X000740Y020627D01*
X000740Y020785D02*
X035053Y020785D01*
X035053Y020627D02*
X034868Y020627D01*
X035053Y020944D02*
X000740Y020944D01*
X000740Y021102D02*
X000853Y021102D01*
X001476Y021102D02*
X034318Y021102D01*
X034078Y021261D02*
X001715Y021261D01*
X001853Y021419D02*
X033940Y021419D01*
X033874Y021578D02*
X001919Y021578D01*
X001959Y021736D02*
X033834Y021736D01*
X033834Y021895D02*
X001959Y021895D01*
X001934Y022053D02*
X033859Y022053D01*
X033925Y022212D02*
X001868Y022212D01*
X001752Y022370D02*
X034041Y022370D01*
X034229Y022529D02*
X001564Y022529D01*
X001649Y023163D02*
X034144Y023163D01*
X033986Y023321D02*
X001807Y023321D01*
X001891Y023480D02*
X033902Y023480D01*
X033836Y023638D02*
X001957Y023638D01*
X001959Y023797D02*
X033834Y023797D01*
X033834Y023955D02*
X001959Y023955D01*
X001896Y024114D02*
X033897Y024114D01*
X033975Y024272D02*
X001819Y024272D01*
X001660Y024431D02*
X034133Y024431D01*
X034451Y024589D02*
X001342Y024589D01*
X000987Y024589D02*
X000740Y024589D01*
X000740Y024748D02*
X035053Y024748D01*
X035053Y024906D02*
X000740Y024906D01*
X000740Y025065D02*
X035053Y025065D01*
X035053Y025223D02*
X000740Y025223D01*
X000740Y025382D02*
X035053Y025382D01*
X035053Y025540D02*
X000740Y025540D01*
X000740Y025699D02*
X035053Y025699D01*
X035053Y025857D02*
X034847Y025857D01*
X034410Y025857D02*
X001383Y025857D01*
X001716Y026016D02*
X034077Y026016D01*
X033918Y026174D02*
X001875Y026174D01*
X001978Y026333D02*
X033815Y026333D01*
X033750Y026491D02*
X002043Y026491D01*
X002077Y026650D02*
X033716Y026650D01*
X033716Y026808D02*
X002077Y026808D01*
X002065Y026967D02*
X033728Y026967D01*
X033794Y027125D02*
X001999Y027125D01*
X001927Y027284D02*
X033866Y027284D01*
X034025Y027442D02*
X001768Y027442D01*
X001508Y027601D02*
X034285Y027601D01*
X034152Y028076D02*
X001641Y028076D01*
X001800Y028235D02*
X033993Y028235D01*
X033905Y028393D02*
X001888Y028393D01*
X001954Y028552D02*
X033840Y028552D01*
X033834Y028710D02*
X001959Y028710D01*
X001959Y028869D02*
X033834Y028869D01*
X033894Y029027D02*
X001899Y029027D01*
X001826Y029186D02*
X033967Y029186D01*
X034125Y029344D02*
X001668Y029344D01*
X001360Y029503D02*
X034433Y029503D01*
X034825Y029503D02*
X035053Y029503D01*
X035053Y029661D02*
X000740Y029661D01*
X000740Y029503D02*
X000968Y029503D01*
X000740Y029820D02*
X035053Y029820D01*
X035053Y029978D02*
X034983Y029978D01*
X034275Y029978D02*
X001518Y029978D01*
X001733Y030137D02*
X034060Y030137D01*
X033933Y030295D02*
X001860Y030295D01*
X001926Y030454D02*
X033867Y030454D01*
X033834Y030612D02*
X001959Y030612D01*
X001959Y030771D02*
X033834Y030771D01*
X033867Y030929D02*
X001926Y030929D01*
X001861Y031088D02*
X033932Y031088D01*
X034059Y031246D02*
X001734Y031246D01*
X001521Y031405D02*
X034272Y031405D01*
X034435Y031880D02*
X001358Y031880D01*
X001667Y032039D02*
X034126Y032039D01*
X033968Y032197D02*
X001825Y032197D01*
X001898Y032356D02*
X033895Y032356D01*
X033834Y032514D02*
X001959Y032514D01*
X001959Y032673D02*
X033834Y032673D01*
X033839Y032831D02*
X001954Y032831D01*
X001888Y032990D02*
X033905Y032990D01*
X033992Y033148D02*
X001801Y033148D01*
X001642Y033307D02*
X034151Y033307D01*
X034287Y033782D02*
X027096Y033782D01*
X027358Y033941D02*
X028308Y033941D01*
X028129Y034099D02*
X027516Y034099D01*
X027589Y034258D02*
X028017Y034258D01*
X027951Y034416D02*
X027655Y034416D01*
X027668Y034575D02*
X027928Y034575D01*
X027928Y034733D02*
X027668Y034733D01*
X027634Y034892D02*
X027972Y034892D01*
X028037Y035050D02*
X027569Y035050D01*
X026413Y033782D02*
X018238Y033782D01*
X018500Y033941D02*
X019449Y033941D01*
X019271Y034099D02*
X018658Y034099D01*
X018731Y034258D02*
X019158Y034258D01*
X019093Y034416D02*
X018797Y034416D01*
X018810Y034575D02*
X019070Y034575D01*
X019070Y034733D02*
X018810Y034733D01*
X018776Y034892D02*
X019113Y034892D01*
X019179Y035050D02*
X018710Y035050D01*
X017555Y033782D02*
X009380Y033782D01*
X009641Y033941D02*
X011575Y033941D01*
X011397Y034099D02*
X009800Y034099D01*
X009873Y034258D02*
X011284Y034258D01*
X011219Y034416D02*
X009938Y034416D01*
X009951Y034575D02*
X011196Y034575D01*
X011196Y034733D02*
X009951Y034733D01*
X009918Y034892D02*
X011239Y034892D01*
X011305Y035050D02*
X009852Y035050D01*
X008697Y033782D02*
X001506Y033782D01*
X001767Y033941D02*
X002717Y033941D01*
X002538Y034099D02*
X001926Y034099D01*
X001999Y034258D02*
X002426Y034258D01*
X002360Y034416D02*
X002064Y034416D01*
X002077Y034575D02*
X002338Y034575D01*
X002338Y034733D02*
X002077Y034733D01*
X002044Y034892D02*
X002381Y034892D01*
X002447Y035050D02*
X001978Y035050D01*
X000823Y033782D02*
X000740Y033782D01*
X000740Y033624D02*
X035053Y033624D01*
X035053Y033782D02*
X034971Y033782D01*
X035053Y033465D02*
X000740Y033465D01*
X000740Y031880D02*
X000971Y031880D01*
X000740Y031722D02*
X035053Y031722D01*
X035053Y031880D02*
X034822Y031880D01*
X035053Y031563D02*
X000740Y031563D01*
X000740Y031405D02*
X000808Y031405D01*
X000810Y029978D02*
X000740Y029978D01*
X000740Y027918D02*
X035053Y027918D01*
X035053Y027759D02*
X000740Y027759D01*
X000740Y027601D02*
X000820Y027601D01*
X000740Y025857D02*
X000946Y025857D01*
X000740Y023004D02*
X035053Y023004D01*
X035053Y022846D02*
X000740Y022846D01*
X000740Y022687D02*
X035053Y022687D01*
X035053Y022529D02*
X035028Y022529D01*
X035053Y021102D02*
X034940Y021102D01*
X035053Y019042D02*
X000740Y019042D01*
X000740Y018883D02*
X035053Y018883D01*
X035053Y018725D02*
X035016Y018725D01*
X035053Y016981D02*
X000740Y016981D01*
X000740Y016823D02*
X035053Y016823D01*
X035053Y016664D02*
X034929Y016664D01*
X035039Y015238D02*
X035053Y015238D01*
X035053Y015079D02*
X000740Y015079D01*
X000740Y014921D02*
X035053Y014921D01*
X035053Y014762D02*
X000740Y014762D01*
X000740Y015238D02*
X000754Y015238D01*
X000740Y016664D02*
X000864Y016664D01*
X000777Y018725D02*
X000740Y018725D01*
X000740Y022529D02*
X000765Y022529D01*
X000740Y013177D02*
X000976Y013177D01*
X000740Y013019D02*
X035053Y013019D01*
X035053Y013177D02*
X034817Y013177D01*
X035053Y012860D02*
X000740Y012860D01*
X000740Y012702D02*
X000802Y012702D01*
X000816Y011275D02*
X000740Y011275D01*
X000740Y008105D02*
X035053Y008105D01*
X035053Y007947D02*
X000740Y007947D01*
X000740Y007788D02*
X000821Y007788D01*
X000740Y004301D02*
X035053Y004301D01*
X035053Y004143D02*
X000740Y004143D01*
X000740Y003984D02*
X035053Y003984D01*
X035053Y003826D02*
X035034Y003826D01*
X035053Y002399D02*
X034935Y002399D01*
X034097Y001924D02*
X032905Y001924D01*
X033184Y001765D02*
X033938Y001765D01*
X033824Y001607D02*
X033338Y001607D01*
X033403Y001448D02*
X033758Y001448D01*
X033716Y001290D02*
X033455Y001290D01*
X033455Y001131D02*
X033716Y001131D01*
X033720Y000973D02*
X033441Y000973D01*
X033376Y000814D02*
X033786Y000814D01*
X032416Y001924D02*
X030936Y001924D01*
X031215Y001765D02*
X032137Y001765D01*
X031983Y001607D02*
X031369Y001607D01*
X031435Y001448D02*
X031917Y001448D01*
X031865Y001290D02*
X031487Y001290D01*
X031487Y001131D02*
X031865Y001131D01*
X031879Y000973D02*
X031473Y000973D01*
X031407Y000814D02*
X031945Y000814D01*
X030447Y001924D02*
X028968Y001924D01*
X029247Y001765D02*
X030168Y001765D01*
X030015Y001607D02*
X029401Y001607D01*
X029466Y001448D02*
X029949Y001448D01*
X029897Y001290D02*
X029518Y001290D01*
X029518Y001131D02*
X029897Y001131D01*
X029911Y000973D02*
X029504Y000973D01*
X029439Y000814D02*
X029976Y000814D01*
X028479Y001924D02*
X027287Y001924D01*
X027445Y001765D02*
X028200Y001765D01*
X028046Y001607D02*
X027560Y001607D01*
X027626Y001448D02*
X027980Y001448D01*
X027928Y001290D02*
X027668Y001290D01*
X027668Y001131D02*
X027928Y001131D01*
X027942Y000973D02*
X027664Y000973D01*
X027598Y000814D02*
X028008Y000814D01*
X026223Y001924D02*
X024046Y001924D01*
X024326Y001765D02*
X026064Y001765D01*
X025950Y001607D02*
X024479Y001607D01*
X024545Y001448D02*
X025884Y001448D01*
X025842Y001290D02*
X024597Y001290D01*
X024597Y001131D02*
X025842Y001131D01*
X025846Y000973D02*
X024583Y000973D01*
X024517Y000814D02*
X025912Y000814D01*
X023558Y001924D02*
X022078Y001924D01*
X022357Y001765D02*
X023279Y001765D01*
X023125Y001607D02*
X022511Y001607D01*
X022576Y001448D02*
X023059Y001448D01*
X023007Y001290D02*
X022629Y001290D01*
X022629Y001131D02*
X023007Y001131D01*
X023021Y000973D02*
X022615Y000973D01*
X022549Y000814D02*
X023087Y000814D01*
X021589Y001924D02*
X020109Y001924D01*
X020389Y001765D02*
X021310Y001765D01*
X021156Y001607D02*
X020542Y001607D01*
X020608Y001448D02*
X021091Y001448D01*
X021039Y001290D02*
X020660Y001290D01*
X020660Y001131D02*
X021039Y001131D01*
X021053Y000973D02*
X020646Y000973D01*
X020580Y000814D02*
X021118Y000814D01*
X019621Y001924D02*
X018429Y001924D01*
X018587Y001765D02*
X019342Y001765D01*
X019188Y001607D02*
X018702Y001607D01*
X018767Y001448D02*
X019122Y001448D01*
X019070Y001290D02*
X018810Y001290D01*
X018810Y001131D02*
X019070Y001131D01*
X019084Y000973D02*
X018805Y000973D01*
X018740Y000814D02*
X019150Y000814D01*
X017365Y001924D02*
X016172Y001924D01*
X016452Y001765D02*
X017206Y001765D01*
X017091Y001607D02*
X016605Y001607D01*
X016671Y001448D02*
X017026Y001448D01*
X016983Y001290D02*
X016723Y001290D01*
X016723Y001131D02*
X016983Y001131D01*
X016988Y000973D02*
X016709Y000973D01*
X016643Y000814D02*
X017053Y000814D01*
X015684Y001924D02*
X014204Y001924D01*
X014483Y001765D02*
X015405Y001765D01*
X015251Y001607D02*
X014637Y001607D01*
X014702Y001448D02*
X015185Y001448D01*
X015133Y001290D02*
X014754Y001290D01*
X014754Y001131D02*
X015133Y001131D01*
X015147Y000973D02*
X014741Y000973D01*
X014675Y000814D02*
X015213Y000814D01*
X013715Y001924D02*
X012235Y001924D01*
X012515Y001765D02*
X013436Y001765D01*
X013282Y001607D02*
X012668Y001607D01*
X012734Y001448D02*
X013217Y001448D01*
X013165Y001290D02*
X012786Y001290D01*
X012786Y001131D02*
X013165Y001131D01*
X013178Y000973D02*
X012772Y000973D01*
X012706Y000814D02*
X013244Y000814D01*
X011747Y001924D02*
X009570Y001924D01*
X009729Y001765D02*
X011468Y001765D01*
X011314Y001607D02*
X009843Y001607D01*
X009909Y001448D02*
X011248Y001448D01*
X011196Y001290D02*
X009951Y001290D01*
X009951Y001131D02*
X011196Y001131D01*
X011210Y000973D02*
X009947Y000973D01*
X009881Y000814D02*
X011276Y000814D01*
X008506Y001924D02*
X007314Y001924D01*
X007593Y001765D02*
X008348Y001765D01*
X008233Y001607D02*
X007747Y001607D01*
X007813Y001448D02*
X008168Y001448D01*
X008125Y001290D02*
X007865Y001290D01*
X007865Y001131D02*
X008125Y001131D01*
X008129Y000973D02*
X007851Y000973D01*
X007785Y000814D02*
X008195Y000814D01*
X006825Y001924D02*
X005346Y001924D01*
X005625Y001765D02*
X006546Y001765D01*
X006392Y001607D02*
X005779Y001607D01*
X005844Y001448D02*
X006327Y001448D01*
X006275Y001290D02*
X005896Y001290D01*
X005896Y001131D02*
X006275Y001131D01*
X006289Y000973D02*
X005882Y000973D01*
X005817Y000814D02*
X006354Y000814D01*
X004857Y001924D02*
X003377Y001924D01*
X003656Y001765D02*
X004578Y001765D01*
X004424Y001607D02*
X003810Y001607D01*
X003876Y001448D02*
X004358Y001448D01*
X004306Y001290D02*
X003928Y001290D01*
X003928Y001131D02*
X004306Y001131D01*
X004320Y000973D02*
X003914Y000973D01*
X003848Y000814D02*
X004386Y000814D01*
X002888Y001924D02*
X001696Y001924D01*
X001855Y001765D02*
X002609Y001765D01*
X002455Y001607D02*
X001969Y001607D01*
X002035Y001448D02*
X002390Y001448D01*
X002338Y001290D02*
X002077Y001290D01*
X002077Y001131D02*
X002338Y001131D01*
X002352Y000973D02*
X002073Y000973D01*
X002007Y000814D02*
X002417Y000814D01*
X000759Y003826D02*
X000740Y003826D01*
X003548Y033941D02*
X004686Y033941D01*
X004507Y034099D02*
X003727Y034099D01*
X003839Y034258D02*
X004395Y034258D01*
X004329Y034416D02*
X003905Y034416D01*
X003928Y034575D02*
X004306Y034575D01*
X004306Y034733D02*
X003928Y034733D01*
X003884Y034892D02*
X004350Y034892D01*
X004415Y035050D02*
X003819Y035050D01*
X005517Y033941D02*
X006654Y033941D01*
X006475Y034099D02*
X005696Y034099D01*
X005808Y034258D02*
X006363Y034258D01*
X006297Y034416D02*
X005874Y034416D01*
X005896Y034575D02*
X006275Y034575D01*
X006275Y034733D02*
X005896Y034733D01*
X005853Y034892D02*
X006318Y034892D01*
X006384Y035050D02*
X005787Y035050D01*
X007485Y033941D02*
X008435Y033941D01*
X008277Y034099D02*
X007664Y034099D01*
X007776Y034258D02*
X008204Y034258D01*
X008138Y034416D02*
X007842Y034416D01*
X007865Y034575D02*
X008125Y034575D01*
X008125Y034733D02*
X007865Y034733D01*
X007821Y034892D02*
X008159Y034892D01*
X008224Y035050D02*
X007756Y035050D01*
X012407Y033941D02*
X013544Y033941D01*
X013365Y034099D02*
X012586Y034099D01*
X012698Y034258D02*
X013253Y034258D01*
X013187Y034416D02*
X012763Y034416D01*
X012786Y034575D02*
X013165Y034575D01*
X013165Y034733D02*
X012786Y034733D01*
X012743Y034892D02*
X013208Y034892D01*
X013274Y035050D02*
X012677Y035050D01*
X014646Y035050D02*
X015242Y035050D01*
X015176Y034892D02*
X014711Y034892D01*
X014754Y034733D02*
X015133Y034733D01*
X015133Y034575D02*
X014754Y034575D01*
X014732Y034416D02*
X015156Y034416D01*
X015221Y034258D02*
X014666Y034258D01*
X014554Y034099D02*
X015334Y034099D01*
X015512Y033941D02*
X014375Y033941D01*
X016344Y033941D02*
X017294Y033941D01*
X017135Y034099D02*
X016523Y034099D01*
X016635Y034258D02*
X017062Y034258D01*
X016996Y034416D02*
X016700Y034416D01*
X016723Y034575D02*
X016983Y034575D01*
X016983Y034733D02*
X016723Y034733D01*
X016680Y034892D02*
X017017Y034892D01*
X017083Y035050D02*
X016614Y035050D01*
X020281Y033941D02*
X021418Y033941D01*
X021239Y034099D02*
X020460Y034099D01*
X020572Y034258D02*
X021127Y034258D01*
X021061Y034416D02*
X020637Y034416D01*
X020660Y034575D02*
X021039Y034575D01*
X021039Y034733D02*
X020660Y034733D01*
X020617Y034892D02*
X021082Y034892D01*
X021148Y035050D02*
X020551Y035050D01*
X022520Y035050D02*
X023116Y035050D01*
X023050Y034892D02*
X022585Y034892D01*
X022629Y034733D02*
X023007Y034733D01*
X023007Y034575D02*
X022629Y034575D01*
X022606Y034416D02*
X023030Y034416D01*
X023095Y034258D02*
X022540Y034258D01*
X022428Y034099D02*
X023208Y034099D01*
X023386Y033941D02*
X022249Y033941D01*
X024218Y033941D02*
X026152Y033941D01*
X025993Y034099D02*
X024397Y034099D01*
X024509Y034258D02*
X025920Y034258D01*
X025855Y034416D02*
X024574Y034416D01*
X024597Y034575D02*
X025842Y034575D01*
X025842Y034733D02*
X024597Y034733D01*
X024554Y034892D02*
X025875Y034892D01*
X025941Y035050D02*
X024488Y035050D01*
X029139Y033941D02*
X030276Y033941D01*
X030097Y034099D02*
X029318Y034099D01*
X029430Y034258D02*
X029985Y034258D01*
X029919Y034416D02*
X029496Y034416D01*
X029518Y034575D02*
X029897Y034575D01*
X029897Y034733D02*
X029518Y034733D01*
X029475Y034892D02*
X029940Y034892D01*
X030006Y035050D02*
X029409Y035050D01*
X031108Y033941D02*
X032245Y033941D01*
X032066Y034099D02*
X031286Y034099D01*
X031398Y034258D02*
X031954Y034258D01*
X031888Y034416D02*
X031464Y034416D01*
X031487Y034575D02*
X031865Y034575D01*
X031865Y034733D02*
X031487Y034733D01*
X031443Y034892D02*
X031909Y034892D01*
X031974Y035050D02*
X031378Y035050D01*
X033076Y033941D02*
X034026Y033941D01*
X033867Y034099D02*
X033255Y034099D01*
X033367Y034258D02*
X033794Y034258D01*
X033729Y034416D02*
X033433Y034416D01*
X033455Y034575D02*
X033716Y034575D01*
X033716Y034733D02*
X033455Y034733D01*
X033412Y034892D02*
X033749Y034892D01*
X033815Y035050D02*
X033346Y035050D01*
X034985Y031405D02*
X035053Y031405D01*
X034973Y027601D02*
X035053Y027601D01*
X035053Y024589D02*
X034806Y024589D01*
X034991Y012702D02*
X035053Y012702D01*
X034972Y007788D02*
X035053Y007788D01*
X035053Y006362D02*
X034996Y006362D01*
X035053Y005886D02*
X034812Y005886D01*
M02*
