G75*
G70*
%OFA0B0*%
%FSLAX24Y24*%
%IPPOS*%
%LPD*%
%AMOC8*
5,1,8,0,0,1.08239X$1,22.5*
%
%ADD10C,0.0946*%
%ADD11C,0.0710*%
D10*
X001164Y001164D03*
X001164Y009038D03*
X009038Y001164D03*
X017897Y001164D03*
X026755Y001164D03*
X034629Y001164D03*
X034629Y009038D03*
X034629Y017897D03*
X034629Y026755D03*
X034629Y034629D03*
X026755Y034629D03*
X017897Y034629D03*
X009038Y034629D03*
X001164Y034629D03*
X001164Y026755D03*
X001164Y017897D03*
D11*
X001164Y019865D03*
X001164Y021834D03*
X001164Y023802D03*
X001164Y028723D03*
X001164Y030692D03*
X001164Y032660D03*
X003133Y034629D03*
X005101Y034629D03*
X007070Y034629D03*
X011991Y034629D03*
X013960Y034629D03*
X015928Y034629D03*
X019865Y034629D03*
X021834Y034629D03*
X023802Y034629D03*
X028723Y034629D03*
X030692Y034629D03*
X032660Y034629D03*
X034629Y032660D03*
X034629Y030692D03*
X034629Y028723D03*
X034629Y023802D03*
X034629Y021834D03*
X034629Y019865D03*
X034629Y015928D03*
X034629Y013960D03*
X034629Y011991D03*
X034629Y007070D03*
X034629Y005101D03*
X034629Y003133D03*
X032660Y001164D03*
X030692Y001164D03*
X028723Y001164D03*
X023802Y001164D03*
X021834Y001164D03*
X019865Y001164D03*
X015928Y001164D03*
X013960Y001164D03*
X011991Y001164D03*
X007070Y001164D03*
X005101Y001164D03*
X003133Y001164D03*
X001164Y003133D03*
X001164Y005101D03*
X001164Y007070D03*
X001164Y011991D03*
X001164Y013960D03*
X001164Y015928D03*
M02*
