999
Inkscape export via Big Blue Saws DXF Export" (http://www.bigbluesaw.com/saw/big-blue-saw-blog/general-updates/big-blue-saws-dxf-export-for-inkscape.html)
  0
SECTION
  2
HEADER
  9
$ACADVER
  1
AC1014
  9
$HANDSEED
  5
FFFF
  0
$INSUNITS
 70
 1
 9
ENDSEC
  0
SECTION
  2
TABLES
  0
TABLE
  2
VPORT
  5
8
330
0
100
AcDbSymbolTable
 70
     4
  0
VPORT
  5
2E
330
8
100
AcDbSymbolTableRecord
100
AcDbViewportTableRecord
  2
*ACTIVE
 70
     0
 10
0.0
 20
0.0
 11
1.0
 21
1.0
 12
4.25
 22
5.5
 13
0.0
 23
0.0
 14
10.0
 24
10.0
 15
10.0
 25
10.0
 16
0.0
 26
0.0
 36
1.0
 17
0.0
 27
0.0
 37
0.0
 40
11
 41
1.24
 42
50.0
 43
0.0
 44
0.0
 50
0.0
 51
0.0
 71
     0
 72
   100
 73
     1
 74
     3
 75
     0
 76
     0
 77
     0
 78
     0
  0
ENDTAB
  0
TABLE
  2
LTYPE
  5
5
330
0
100
AcDbSymbolTable
 70
     1
  0
LTYPE
  5
14
330
5
100
AcDbSymbolTableRecord
100
AcDbLinetypeTableRecord
  2
BYBLOCK
 70
     0
  3

 72
    65
 73
     0
 40
0.0
  0
LTYPE
  5
15
330
5
100
AcDbSymbolTableRecord
100
AcDbLinetypeTableRecord
  2
BYLAYER
 70
     0
  3

 72
    65
 73
     0
 40
0.0
  0
LTYPE
  5
16
330
5
100
AcDbSymbolTableRecord
100
AcDbLinetypeTableRecord
  2
CONTINUOUS
 70
     0
  3
Solid line
 72
    65
 73
     0
 40
0.0
  0
ENDTAB
  0
TABLE
  2
STYLE
  5
3
330
0
100
AcDbSymbolTable
 70
     1
  0
STYLE
  5
11
330
3
100
AcDbSymbolTableRecord
100
AcDbTextStyleTableRecord
  2
STANDARD
 70
     0
 40
0.0
 41
1.0
 50
0.0
 71
     0
 42
2.5
  3
txt
  4

  0
ENDTAB
  0
TABLE
  2
VIEW
  5
6
330
0
100
AcDbSymbolTable
 70
     0
  0
ENDTAB
  0
TABLE
  2
UCS
  5
7
330
0
100
AcDbSymbolTable
 70
     0
  0
ENDTAB
  0
TABLE
  2
APPID
  5
9
330
0
100
AcDbSymbolTable
 70
     2
  0
APPID
  5
12
330
9
100
AcDbSymbolTableRecord
100
AcDbRegAppTableRecord
  2
ACAD
 70
     0
  0
ENDTAB
  0
TABLE
  2
DIMSTYLE
  5
A
330
0
100
AcDbSymbolTable
 70
     1
  0
DIMSTYLE
105
27
330
A
100
AcDbSymbolTableRecord
100
AcDbDimStyleTableRecord
  2
ISO-25
 70
     0
  3

  4

  5

  6

  7

 40
1.0
 41
2.5
 42
0.625
 43
3.75
 44
1.25
 45
0.0
 46
0.0
 47
0.0
 48
0.0
140
2.5
141
2.5
142
0.0
143
0.03937007874016
144
1.0
145
0.0
146
1.0
147
0.625
 71
     0
 72
     0
 73
     0
 74
     0
 75
     0
 76
     0
 77
     1
 78
     8
170
     0
171
     3
172
     1
173
     0
174
     0
175
     0
176
     0
177
     0
178
     0
270
     2
271
     2
272
     2
273
     2
274
     3
340
11
275
     0
280
     0
281
     0
282
     0
283
     0
284
     8
285
     0
286
     0
287
     3
288
     0
  0
ENDTAB
  0
TABLE
  2
BLOCK_RECORD
  5
1
330
0
100
AcDbSymbolTable
 70
     1
  0
BLOCK_RECORD
  5
1F
330
1
100
AcDbSymbolTableRecord
100
AcDbBlockTableRecord
  2
*MODEL_SPACE
  0
BLOCK_RECORD
  5
1B
330
1
100
AcDbSymbolTableRecord
100
AcDbBlockTableRecord
  2
*PAPER_SPACE
  0
ENDTAB
0
TABLE
2
LAYER
5
2
330
0
100
AcDbSymbolTable
70
1
0
LAYER
5
10
330
2
100
AcDbSymbolTableRecord
100
AcDbLayerTableRecord
2
Default
70
0
62
7
6
CONTINUOUS
0
ENDTAB
0
ENDSEC
  0
SECTION
  2
BLOCKS
  0
BLOCK
  5
20
330
1F
100
AcDbEntity
  8
0
100
AcDbBlockBegin
  2
*MODEL_SPACE
 70
     0
 10
0.0
 20
0.0
 30
0.0
  3
*MODEL_SPACE
  1

  0
ENDBLK
  5
21
330
1F
100
AcDbEntity
  8
0
100
AcDbBlockEnd
  0
BLOCK
  5
1C
330
1B
100
AcDbEntity
 67
     1
  8
0
100
AcDbBlockBegin
  2
*PAPER_SPACE
  1

  0
ENDBLK
  5
1D
330
1B
100
AcDbEntity
 67
     1
  8
0
100
AcDbBlockEnd
  0
ENDSEC
  0
SECTION
  2
ENTITIES
0
LINE
8
Default
62
5
5
100
100
AcDbEntity
100
AcDbLine
10
4.000000
20
6.610674
30
0.0
11
4.000000
21
8.944007
31
0.0
0
LINE
8
Default
62
5
5
101
100
AcDbEntity
100
AcDbLine
10
4.000000
20
8.944007
30
0.0
11
0.111111
21
8.944007
31
0.0
0
LINE
8
Default
62
5
5
102
100
AcDbEntity
100
AcDbLine
10
0.111111
20
8.944007
30
0.0
11
0.111111
21
6.610674
31
0.0
0
LINE
8
Default
62
5
5
103
100
AcDbEntity
100
AcDbLine
10
0.111111
20
6.610674
30
0.0
11
4.000000
21
6.610674
31
0.0
0
LINE
8
Default
62
5
5
104
100
AcDbEntity
100
AcDbLine
10
0.888889
20
8.499563
30
0.0
11
0.888889
21
8.199562
31
0.0
0
LINE
8
Default
62
5
5
105
100
AcDbEntity
100
AcDbLine
10
0.888889
20
8.199562
30
0.0
11
0.721698
21
8.199562
31
0.0
0
LINE
8
Default
62
5
5
106
100
AcDbEntity
100
AcDbLine
10
0.721698
20
8.199562
30
0.0
11
0.666666
21
8.266558
31
0.0
0
LINE
8
Default
62
5
5
107
100
AcDbEntity
100
AcDbLine
10
0.666666
20
8.266558
30
0.0
11
0.666666
21
8.432762
31
0.0
0
LINE
8
Default
62
5
5
108
100
AcDbEntity
100
AcDbLine
10
0.666666
20
8.432762
30
0.0
11
0.721698
21
8.499563
31
0.0
0
LINE
8
Default
62
5
5
109
100
AcDbEntity
100
AcDbLine
10
0.721698
20
8.499563
30
0.0
11
0.888889
21
8.499563
31
0.0
0
LINE
8
Default
62
5
5
10a
100
AcDbEntity
100
AcDbLine
10
0.326410
20
6.746157
30
0.0
11
0.319847
21
6.748875
31
0.0
0
LINE
8
Default
62
5
5
10b
100
AcDbEntity
100
AcDbLine
10
0.319847
20
6.748875
30
0.0
11
0.314212
21
6.753200
31
0.0
0
LINE
8
Default
62
5
5
10c
100
AcDbEntity
100
AcDbLine
10
0.314212
20
6.753200
30
0.0
11
0.309888
21
6.758835
31
0.0
0
LINE
8
Default
62
5
5
10d
100
AcDbEntity
100
AcDbLine
10
0.309888
20
6.758835
30
0.0
11
0.307169
21
6.765398
31
0.0
0
LINE
8
Default
62
5
5
10e
100
AcDbEntity
100
AcDbLine
10
0.307169
20
6.765398
30
0.0
11
0.306242
21
6.772440
31
0.0
0
LINE
8
Default
62
5
5
10f
100
AcDbEntity
100
AcDbLine
10
0.306242
20
6.772440
30
0.0
11
0.307169
21
6.779483
31
0.0
0
LINE
8
Default
62
5
5
110
100
AcDbEntity
100
AcDbLine
10
0.307169
20
6.779483
30
0.0
11
0.309888
21
6.786046
31
0.0
0
LINE
8
Default
62
5
5
111
100
AcDbEntity
100
AcDbLine
10
0.309888
20
6.786046
30
0.0
11
0.314212
21
6.791681
31
0.0
0
LINE
8
Default
62
5
5
112
100
AcDbEntity
100
AcDbLine
10
0.314212
20
6.791681
30
0.0
11
0.319847
21
6.796006
31
0.0
0
LINE
8
Default
62
5
5
113
100
AcDbEntity
100
AcDbLine
10
0.319847
20
6.796006
30
0.0
11
0.326410
21
6.798724
31
0.0
0
LINE
8
Default
62
5
5
114
100
AcDbEntity
100
AcDbLine
10
0.326410
20
6.798724
30
0.0
11
0.333453
21
6.799651
31
0.0
0
LINE
8
Default
62
5
5
115
100
AcDbEntity
100
AcDbLine
10
0.333453
20
6.799651
30
0.0
11
0.340495
21
6.798724
31
0.0
0
LINE
8
Default
62
5
5
116
100
AcDbEntity
100
AcDbLine
10
0.340495
20
6.798724
30
0.0
11
0.347058
21
6.796006
31
0.0
0
LINE
8
Default
62
5
5
117
100
AcDbEntity
100
AcDbLine
10
0.347058
20
6.796006
30
0.0
11
0.352693
21
6.791681
31
0.0
0
LINE
8
Default
62
5
5
118
100
AcDbEntity
100
AcDbLine
10
0.352693
20
6.791681
30
0.0
11
0.357018
21
6.786046
31
0.0
0
LINE
8
Default
62
5
5
119
100
AcDbEntity
100
AcDbLine
10
0.357018
20
6.786046
30
0.0
11
0.359736
21
6.779483
31
0.0
0
LINE
8
Default
62
5
5
11a
100
AcDbEntity
100
AcDbLine
10
0.359736
20
6.779483
30
0.0
11
0.360663
21
6.772440
31
0.0
0
LINE
8
Default
62
5
5
11b
100
AcDbEntity
100
AcDbLine
10
0.360663
20
6.772440
30
0.0
11
0.359736
21
6.765398
31
0.0
0
LINE
8
Default
62
5
5
11c
100
AcDbEntity
100
AcDbLine
10
0.359736
20
6.765398
30
0.0
11
0.357018
21
6.758835
31
0.0
0
LINE
8
Default
62
5
5
11d
100
AcDbEntity
100
AcDbLine
10
0.357018
20
6.758835
30
0.0
11
0.352693
21
6.753200
31
0.0
0
LINE
8
Default
62
5
5
11e
100
AcDbEntity
100
AcDbLine
10
0.352693
20
6.753200
30
0.0
11
0.347058
21
6.748875
31
0.0
0
LINE
8
Default
62
5
5
11f
100
AcDbEntity
100
AcDbLine
10
0.347058
20
6.748875
30
0.0
11
0.340495
21
6.746157
31
0.0
0
LINE
8
Default
62
5
5
120
100
AcDbEntity
100
AcDbLine
10
0.340495
20
6.746157
30
0.0
11
0.333453
21
6.745230
31
0.0
0
LINE
8
Default
62
5
5
121
100
AcDbEntity
100
AcDbLine
10
0.333453
20
6.745230
30
0.0
11
0.326410
21
6.746157
31
0.0
0
LINE
8
Default
62
5
5
122
100
AcDbEntity
100
AcDbLine
10
3.889690
20
6.745465
30
0.0
11
3.882708
21
6.746384
31
0.0
0
LINE
8
Default
62
5
5
123
100
AcDbEntity
100
AcDbLine
10
3.882708
20
6.746384
30
0.0
11
3.876202
21
6.749079
31
0.0
0
LINE
8
Default
62
5
5
124
100
AcDbEntity
100
AcDbLine
10
3.876202
20
6.749079
30
0.0
11
3.870616
21
6.753366
31
0.0
0
LINE
8
Default
62
5
5
125
100
AcDbEntity
100
AcDbLine
10
3.870616
20
6.753366
30
0.0
11
3.866329
21
6.758953
31
0.0
0
LINE
8
Default
62
5
5
126
100
AcDbEntity
100
AcDbLine
10
3.866329
20
6.758953
30
0.0
11
3.863634
21
6.765459
31
0.0
0
LINE
8
Default
62
5
5
127
100
AcDbEntity
100
AcDbLine
10
3.863634
20
6.765459
30
0.0
11
3.862715
21
6.772440
31
0.0
0
LINE
8
Default
62
5
5
128
100
AcDbEntity
100
AcDbLine
10
3.862715
20
6.772440
30
0.0
11
3.863634
21
6.779422
31
0.0
0
LINE
8
Default
62
5
5
129
100
AcDbEntity
100
AcDbLine
10
3.863634
20
6.779422
30
0.0
11
3.866329
21
6.785928
31
0.0
0
LINE
8
Default
62
5
5
12a
100
AcDbEntity
100
AcDbLine
10
3.866329
20
6.785928
30
0.0
11
3.870616
21
6.791515
31
0.0
0
LINE
8
Default
62
5
5
12b
100
AcDbEntity
100
AcDbLine
10
3.870616
20
6.791515
30
0.0
11
3.876202
21
6.795802
31
0.0
0
LINE
8
Default
62
5
5
12c
100
AcDbEntity
100
AcDbLine
10
3.876202
20
6.795802
30
0.0
11
3.882708
21
6.798497
31
0.0
0
LINE
8
Default
62
5
5
12d
100
AcDbEntity
100
AcDbLine
10
3.882708
20
6.798497
30
0.0
11
3.889690
21
6.799416
31
0.0
0
LINE
8
Default
62
5
5
12e
100
AcDbEntity
100
AcDbLine
10
3.889690
20
6.799416
30
0.0
11
3.896672
21
6.798497
31
0.0
0
LINE
8
Default
62
5
5
12f
100
AcDbEntity
100
AcDbLine
10
3.896672
20
6.798497
30
0.0
11
3.903178
21
6.795802
31
0.0
0
LINE
8
Default
62
5
5
130
100
AcDbEntity
100
AcDbLine
10
3.903178
20
6.795802
30
0.0
11
3.908764
21
6.791515
31
0.0
0
LINE
8
Default
62
5
5
131
100
AcDbEntity
100
AcDbLine
10
3.908764
20
6.791515
30
0.0
11
3.913051
21
6.785928
31
0.0
0
LINE
8
Default
62
5
5
132
100
AcDbEntity
100
AcDbLine
10
3.913051
20
6.785928
30
0.0
11
3.915746
21
6.779422
31
0.0
0
LINE
8
Default
62
5
5
133
100
AcDbEntity
100
AcDbLine
10
3.915746
20
6.779422
30
0.0
11
3.916665
21
6.772440
31
0.0
0
LINE
8
Default
62
5
5
134
100
AcDbEntity
100
AcDbLine
10
3.916665
20
6.772440
30
0.0
11
3.915746
21
6.765459
31
0.0
0
LINE
8
Default
62
5
5
135
100
AcDbEntity
100
AcDbLine
10
3.915746
20
6.765459
30
0.0
11
3.913051
21
6.758953
31
0.0
0
LINE
8
Default
62
5
5
136
100
AcDbEntity
100
AcDbLine
10
3.913051
20
6.758953
30
0.0
11
3.908764
21
6.753366
31
0.0
0
LINE
8
Default
62
5
5
137
100
AcDbEntity
100
AcDbLine
10
3.908764
20
6.753366
30
0.0
11
3.903178
21
6.749079
31
0.0
0
LINE
8
Default
62
5
5
138
100
AcDbEntity
100
AcDbLine
10
3.903178
20
6.749079
30
0.0
11
3.896672
21
6.746384
31
0.0
0
LINE
8
Default
62
5
5
139
100
AcDbEntity
100
AcDbLine
10
3.896672
20
6.746384
30
0.0
11
3.889690
21
6.745465
31
0.0
0
LINE
8
Default
62
5
5
13a
100
AcDbEntity
100
AcDbLine
10
3.916217
20
8.771593
30
0.0
11
3.915314
21
8.764727
31
0.0
0
LINE
8
Default
62
5
5
13b
100
AcDbEntity
100
AcDbLine
10
3.915314
20
8.764727
30
0.0
11
3.912663
21
8.758329
31
0.0
0
LINE
8
Default
62
5
5
13c
100
AcDbEntity
100
AcDbLine
10
3.912663
20
8.758329
30
0.0
11
3.908448
21
8.752835
31
0.0
0
LINE
8
Default
62
5
5
13d
100
AcDbEntity
100
AcDbLine
10
3.908448
20
8.752835
30
0.0
11
3.902954
21
8.748619
31
0.0
0
LINE
8
Default
62
5
5
13e
100
AcDbEntity
100
AcDbLine
10
3.902954
20
8.748619
30
0.0
11
3.896556
21
8.745969
31
0.0
0
LINE
8
Default
62
5
5
13f
100
AcDbEntity
100
AcDbLine
10
3.896556
20
8.745969
30
0.0
11
3.889690
21
8.745065
31
0.0
0
LINE
8
Default
62
5
5
140
100
AcDbEntity
100
AcDbLine
10
3.889690
20
8.745065
30
0.0
11
3.882824
21
8.745969
31
0.0
0
LINE
8
Default
62
5
5
141
100
AcDbEntity
100
AcDbLine
10
3.882824
20
8.745969
30
0.0
11
3.876426
21
8.748619
31
0.0
0
LINE
8
Default
62
5
5
142
100
AcDbEntity
100
AcDbLine
10
3.876426
20
8.748619
30
0.0
11
3.870932
21
8.752835
31
0.0
0
LINE
8
Default
62
5
5
143
100
AcDbEntity
100
AcDbLine
10
3.870932
20
8.752835
30
0.0
11
3.866717
21
8.758329
31
0.0
0
LINE
8
Default
62
5
5
144
100
AcDbEntity
100
AcDbLine
10
3.866717
20
8.758329
30
0.0
11
3.864067
21
8.764727
31
0.0
0
LINE
8
Default
62
5
5
145
100
AcDbEntity
100
AcDbLine
10
3.864067
20
8.764727
30
0.0
11
3.863163
21
8.771593
31
0.0
0
LINE
8
Default
62
5
5
146
100
AcDbEntity
100
AcDbLine
10
3.863163
20
8.771593
30
0.0
11
3.864067
21
8.778458
31
0.0
0
LINE
8
Default
62
5
5
147
100
AcDbEntity
100
AcDbLine
10
3.864067
20
8.778458
30
0.0
11
3.866717
21
8.784856
31
0.0
0
LINE
8
Default
62
5
5
148
100
AcDbEntity
100
AcDbLine
10
3.866717
20
8.784856
30
0.0
11
3.870932
21
8.790350
31
0.0
0
LINE
8
Default
62
5
5
149
100
AcDbEntity
100
AcDbLine
10
3.870932
20
8.790350
30
0.0
11
3.876426
21
8.794566
31
0.0
0
LINE
8
Default
62
5
5
14a
100
AcDbEntity
100
AcDbLine
10
3.876426
20
8.794566
30
0.0
11
3.882824
21
8.797216
31
0.0
0
LINE
8
Default
62
5
5
14b
100
AcDbEntity
100
AcDbLine
10
3.882824
20
8.797216
30
0.0
11
3.889690
21
8.798120
31
0.0
0
LINE
8
Default
62
5
5
14c
100
AcDbEntity
100
AcDbLine
10
3.889690
20
8.798120
30
0.0
11
3.896556
21
8.797216
31
0.0
0
LINE
8
Default
62
5
5
14d
100
AcDbEntity
100
AcDbLine
10
3.896556
20
8.797216
30
0.0
11
3.902954
21
8.794566
31
0.0
0
LINE
8
Default
62
5
5
14e
100
AcDbEntity
100
AcDbLine
10
3.902954
20
8.794566
30
0.0
11
3.908448
21
8.790350
31
0.0
0
LINE
8
Default
62
5
5
14f
100
AcDbEntity
100
AcDbLine
10
3.908448
20
8.790350
30
0.0
11
3.912663
21
8.784856
31
0.0
0
LINE
8
Default
62
5
5
150
100
AcDbEntity
100
AcDbLine
10
3.912663
20
8.784856
30
0.0
11
3.915314
21
8.778458
31
0.0
0
LINE
8
Default
62
5
5
151
100
AcDbEntity
100
AcDbLine
10
3.915314
20
8.778458
30
0.0
11
3.916217
21
8.771593
31
0.0
0
LINE
8
Default
62
5
5
152
100
AcDbEntity
100
AcDbLine
10
0.360663
20
8.771593
30
0.0
11
0.359736
21
8.764550
31
0.0
0
LINE
8
Default
62
5
5
153
100
AcDbEntity
100
AcDbLine
10
0.359736
20
8.764550
30
0.0
11
0.357018
21
8.757987
31
0.0
0
LINE
8
Default
62
5
5
154
100
AcDbEntity
100
AcDbLine
10
0.357018
20
8.757987
30
0.0
11
0.352693
21
8.752352
31
0.0
0
LINE
8
Default
62
5
5
155
100
AcDbEntity
100
AcDbLine
10
0.352693
20
8.752352
30
0.0
11
0.347058
21
8.748028
31
0.0
0
LINE
8
Default
62
5
5
156
100
AcDbEntity
100
AcDbLine
10
0.347058
20
8.748028
30
0.0
11
0.340495
21
8.745309
31
0.0
0
LINE
8
Default
62
5
5
157
100
AcDbEntity
100
AcDbLine
10
0.340495
20
8.745309
30
0.0
11
0.333453
21
8.744382
31
0.0
0
LINE
8
Default
62
5
5
158
100
AcDbEntity
100
AcDbLine
10
0.333453
20
8.744382
30
0.0
11
0.326410
21
8.745309
31
0.0
0
LINE
8
Default
62
5
5
159
100
AcDbEntity
100
AcDbLine
10
0.326410
20
8.745309
30
0.0
11
0.319847
21
8.748028
31
0.0
0
LINE
8
Default
62
5
5
15a
100
AcDbEntity
100
AcDbLine
10
0.319847
20
8.748028
30
0.0
11
0.314212
21
8.752352
31
0.0
0
LINE
8
Default
62
5
5
15b
100
AcDbEntity
100
AcDbLine
10
0.314212
20
8.752352
30
0.0
11
0.309888
21
8.757987
31
0.0
0
LINE
8
Default
62
5
5
15c
100
AcDbEntity
100
AcDbLine
10
0.309888
20
8.757987
30
0.0
11
0.307169
21
8.764550
31
0.0
0
LINE
8
Default
62
5
5
15d
100
AcDbEntity
100
AcDbLine
10
0.307169
20
8.764550
30
0.0
11
0.306242
21
8.771593
31
0.0
0
LINE
8
Default
62
5
5
15e
100
AcDbEntity
100
AcDbLine
10
0.306242
20
8.771593
30
0.0
11
0.307169
21
8.778635
31
0.0
0
LINE
8
Default
62
5
5
15f
100
AcDbEntity
100
AcDbLine
10
0.307169
20
8.778635
30
0.0
11
0.309888
21
8.785198
31
0.0
0
LINE
8
Default
62
5
5
160
100
AcDbEntity
100
AcDbLine
10
0.309888
20
8.785198
30
0.0
11
0.314212
21
8.790833
31
0.0
0
LINE
8
Default
62
5
5
161
100
AcDbEntity
100
AcDbLine
10
0.314212
20
8.790833
30
0.0
11
0.319847
21
8.795158
31
0.0
0
LINE
8
Default
62
5
5
162
100
AcDbEntity
100
AcDbLine
10
0.319847
20
8.795158
30
0.0
11
0.326410
21
8.797876
31
0.0
0
LINE
8
Default
62
5
5
163
100
AcDbEntity
100
AcDbLine
10
0.326410
20
8.797876
30
0.0
11
0.333453
21
8.798803
31
0.0
0
LINE
8
Default
62
5
5
164
100
AcDbEntity
100
AcDbLine
10
0.333453
20
8.798803
30
0.0
11
0.340495
21
8.797876
31
0.0
0
LINE
8
Default
62
5
5
165
100
AcDbEntity
100
AcDbLine
10
0.340495
20
8.797876
30
0.0
11
0.347058
21
8.795158
31
0.0
0
LINE
8
Default
62
5
5
166
100
AcDbEntity
100
AcDbLine
10
0.347058
20
8.795158
30
0.0
11
0.352693
21
8.790833
31
0.0
0
LINE
8
Default
62
5
5
167
100
AcDbEntity
100
AcDbLine
10
0.352693
20
8.790833
30
0.0
11
0.357018
21
8.785198
31
0.0
0
LINE
8
Default
62
5
5
168
100
AcDbEntity
100
AcDbLine
10
0.357018
20
8.785198
30
0.0
11
0.359736
21
8.778635
31
0.0
0
LINE
8
Default
62
5
5
169
100
AcDbEntity
100
AcDbLine
10
0.359736
20
8.778635
30
0.0
11
0.360663
21
8.771593
31
0.0
0
LINE
8
Default
62
5
5
16a
100
AcDbEntity
100
AcDbLine
10
0.810363
20
8.571724
30
0.0
11
0.808168
21
8.566426
31
0.0
0
LINE
8
Default
62
5
5
16b
100
AcDbEntity
100
AcDbLine
10
0.808168
20
8.566426
30
0.0
11
0.804678
21
8.561877
31
0.0
0
LINE
8
Default
62
5
5
16c
100
AcDbEntity
100
AcDbLine
10
0.804678
20
8.561877
30
0.0
11
0.800129
21
8.558387
31
0.0
0
LINE
8
Default
62
5
5
16d
100
AcDbEntity
100
AcDbLine
10
0.800129
20
8.558387
30
0.0
11
0.794832
21
8.556193
31
0.0
0
LINE
8
Default
62
5
5
16e
100
AcDbEntity
100
AcDbLine
10
0.794832
20
8.556193
30
0.0
11
0.789147
21
8.555444
31
0.0
0
LINE
8
Default
62
5
5
16f
100
AcDbEntity
100
AcDbLine
10
0.789147
20
8.555444
30
0.0
11
0.783463
21
8.556193
31
0.0
0
LINE
8
Default
62
5
5
170
100
AcDbEntity
100
AcDbLine
10
0.783463
20
8.556193
30
0.0
11
0.778165
21
8.558387
31
0.0
0
LINE
8
Default
62
5
5
171
100
AcDbEntity
100
AcDbLine
10
0.778165
20
8.558387
30
0.0
11
0.773616
21
8.561877
31
0.0
0
LINE
8
Default
62
5
5
172
100
AcDbEntity
100
AcDbLine
10
0.773616
20
8.561877
30
0.0
11
0.770126
21
8.566426
31
0.0
0
LINE
8
Default
62
5
5
173
100
AcDbEntity
100
AcDbLine
10
0.770126
20
8.566426
30
0.0
11
0.767932
21
8.571724
31
0.0
0
LINE
8
Default
62
5
5
174
100
AcDbEntity
100
AcDbLine
10
0.767932
20
8.571724
30
0.0
11
0.767183
21
8.577408
31
0.0
0
LINE
8
Default
62
5
5
175
100
AcDbEntity
100
AcDbLine
10
0.767183
20
8.577408
30
0.0
11
0.767932
21
8.583093
31
0.0
0
LINE
8
Default
62
5
5
176
100
AcDbEntity
100
AcDbLine
10
0.767932
20
8.583093
30
0.0
11
0.770126
21
8.588390
31
0.0
0
LINE
8
Default
62
5
5
177
100
AcDbEntity
100
AcDbLine
10
0.770126
20
8.588390
30
0.0
11
0.773616
21
8.592939
31
0.0
0
LINE
8
Default
62
5
5
178
100
AcDbEntity
100
AcDbLine
10
0.773616
20
8.592939
30
0.0
11
0.778165
21
8.596429
31
0.0
0
LINE
8
Default
62
5
5
179
100
AcDbEntity
100
AcDbLine
10
0.778165
20
8.596429
30
0.0
11
0.783463
21
8.598624
31
0.0
0
LINE
8
Default
62
5
5
17a
100
AcDbEntity
100
AcDbLine
10
0.783463
20
8.598624
30
0.0
11
0.789147
21
8.599372
31
0.0
0
LINE
8
Default
62
5
5
17b
100
AcDbEntity
100
AcDbLine
10
0.789147
20
8.599372
30
0.0
11
0.794832
21
8.598624
31
0.0
0
LINE
8
Default
62
5
5
17c
100
AcDbEntity
100
AcDbLine
10
0.794832
20
8.598624
30
0.0
11
0.800129
21
8.596429
31
0.0
0
LINE
8
Default
62
5
5
17d
100
AcDbEntity
100
AcDbLine
10
0.800129
20
8.596429
30
0.0
11
0.804678
21
8.592939
31
0.0
0
LINE
8
Default
62
5
5
17e
100
AcDbEntity
100
AcDbLine
10
0.804678
20
8.592939
30
0.0
11
0.808168
21
8.588390
31
0.0
0
LINE
8
Default
62
5
5
17f
100
AcDbEntity
100
AcDbLine
10
0.808168
20
8.588390
30
0.0
11
0.810363
21
8.583093
31
0.0
0
LINE
8
Default
62
5
5
180
100
AcDbEntity
100
AcDbLine
10
0.810363
20
8.583093
30
0.0
11
0.811111
21
8.577408
31
0.0
0
LINE
8
Default
62
5
5
181
100
AcDbEntity
100
AcDbLine
10
0.811111
20
8.577408
30
0.0
11
0.810363
21
8.571724
31
0.0
0
LINE
8
Default
62
5
5
182
100
AcDbEntity
100
AcDbLine
10
0.789147
20
8.099748
30
0.0
11
0.783555
21
8.100484
31
0.0
0
LINE
8
Default
62
5
5
183
100
AcDbEntity
100
AcDbLine
10
0.783555
20
8.100484
30
0.0
11
0.778345
21
8.102643
31
0.0
0
LINE
8
Default
62
5
5
184
100
AcDbEntity
100
AcDbLine
10
0.778345
20
8.102643
30
0.0
11
0.773870
21
8.106076
31
0.0
0
LINE
8
Default
62
5
5
185
100
AcDbEntity
100
AcDbLine
10
0.773870
20
8.106076
30
0.0
11
0.770436
21
8.110551
31
0.0
0
LINE
8
Default
62
5
5
186
100
AcDbEntity
100
AcDbLine
10
0.770436
20
8.110551
30
0.0
11
0.768278
21
8.115762
31
0.0
0
LINE
8
Default
62
5
5
187
100
AcDbEntity
100
AcDbLine
10
0.768278
20
8.115762
30
0.0
11
0.767542
21
8.121353
31
0.0
0
LINE
8
Default
62
5
5
188
100
AcDbEntity
100
AcDbLine
10
0.767542
20
8.121353
30
0.0
11
0.768278
21
8.126945
31
0.0
0
LINE
8
Default
62
5
5
189
100
AcDbEntity
100
AcDbLine
10
0.768278
20
8.126945
30
0.0
11
0.770436
21
8.132156
31
0.0
0
LINE
8
Default
62
5
5
18a
100
AcDbEntity
100
AcDbLine
10
0.770436
20
8.132156
30
0.0
11
0.773870
21
8.136631
31
0.0
0
LINE
8
Default
62
5
5
18b
100
AcDbEntity
100
AcDbLine
10
0.773870
20
8.136631
30
0.0
11
0.778345
21
8.140064
31
0.0
0
LINE
8
Default
62
5
5
18c
100
AcDbEntity
100
AcDbLine
10
0.778345
20
8.140064
30
0.0
11
0.783555
21
8.142223
31
0.0
0
LINE
8
Default
62
5
5
18d
100
AcDbEntity
100
AcDbLine
10
0.783555
20
8.142223
30
0.0
11
0.789147
21
8.142959
31
0.0
0
LINE
8
Default
62
5
5
18e
100
AcDbEntity
100
AcDbLine
10
0.789147
20
8.142959
30
0.0
11
0.794739
21
8.142223
31
0.0
0
LINE
8
Default
62
5
5
18f
100
AcDbEntity
100
AcDbLine
10
0.794739
20
8.142223
30
0.0
11
0.799950
21
8.140064
31
0.0
0
LINE
8
Default
62
5
5
190
100
AcDbEntity
100
AcDbLine
10
0.799950
20
8.140064
30
0.0
11
0.804424
21
8.136631
31
0.0
0
LINE
8
Default
62
5
5
191
100
AcDbEntity
100
AcDbLine
10
0.804424
20
8.136631
30
0.0
11
0.807858
21
8.132156
31
0.0
0
LINE
8
Default
62
5
5
192
100
AcDbEntity
100
AcDbLine
10
0.807858
20
8.132156
30
0.0
11
0.810016
21
8.126945
31
0.0
0
LINE
8
Default
62
5
5
193
100
AcDbEntity
100
AcDbLine
10
0.810016
20
8.126945
30
0.0
11
0.810753
21
8.121353
31
0.0
0
LINE
8
Default
62
5
5
194
100
AcDbEntity
100
AcDbLine
10
0.810753
20
8.121353
30
0.0
11
0.810016
21
8.115762
31
0.0
0
LINE
8
Default
62
5
5
195
100
AcDbEntity
100
AcDbLine
10
0.810016
20
8.115762
30
0.0
11
0.807858
21
8.110551
31
0.0
0
LINE
8
Default
62
5
5
196
100
AcDbEntity
100
AcDbLine
10
0.807858
20
8.110551
30
0.0
11
0.804424
21
8.106076
31
0.0
0
LINE
8
Default
62
5
5
197
100
AcDbEntity
100
AcDbLine
10
0.804424
20
8.106076
30
0.0
11
0.799950
21
8.102643
31
0.0
0
LINE
8
Default
62
5
5
198
100
AcDbEntity
100
AcDbLine
10
0.799950
20
8.102643
30
0.0
11
0.794739
21
8.100484
31
0.0
0
LINE
8
Default
62
5
5
199
100
AcDbEntity
100
AcDbLine
10
0.794739
20
8.100484
30
0.0
11
0.789147
21
8.099748
31
0.0
  0
ENDSEC
  0
SECTION
  2
OBJECTS
  0
DICTIONARY
  5
C
330
0
100
AcDbDictionary
  3
ACAD_GROUP
350
D
  3
ACAD_MLINESTYLE
350
17
  0
DICTIONARY
  5
D
330
C
100
AcDbDictionary
  0
DICTIONARY
  5
1A
330
C
100
AcDbDictionary
  0
DICTIONARY
  5
17
330
C
100
AcDbDictionary
  3
STANDARD
350
18
  0
DICTIONARY
  5
19
330
C
100
AcDbDictionary
  0
ENDSEC
  0
EOF
