  0
SECTION
  2
HEADER
  9
$ACADVER
  1
AC1014
  9
$ACADMAINTVER
 70
     9
  9
$DWGCODEPAGE
  3
ANSI_1252
  9
$INSBASE
 10
0.0
 20
0.0
 30
0.0
  9
$EXTMIN
 10
1.000000000000000E+20
 20
1.000000000000000E+20
 30
1.000000000000000E+20
  9
$EXTMAX
 10
-1.000000000000000E+20
 20
-1.000000000000000E+20
 30
-1.000000000000000E+20
  9
$LIMMIN
 10
0.0
 20
0.0
  9
$LIMMAX
 10
12.0
 20
9.0
  9
$ORTHOMODE
 70
     0
  9
$REGENMODE
 70
     1
  9
$FILLMODE
 70
     1
  9
$QTEXTMODE
 70
     0
  9
$MIRRTEXT
 70
     1
  9
$DRAGMODE
 70
     2
  9
$LTSCALE
 40
1.0
  9
$OSMODE
 70
    37
  9
$ATTMODE
 70
     1
  9
$TEXTSIZE
 40
0.2
  9
$TRACEWID
 40
0.05
  9
$TEXTSTYLE
  7
STANDARD
  9
$CLAYER
  8
0
  9
$CELTYPE
  6
BYLAYER
  9
$CECOLOR
 62
   256
  9
$CELTSCALE
 40
1.0
  9
$DELOBJ
 70
     1
  9
$DISPSILH
 70
     0
  9
$DIMSCALE
 40
1.0
  9
$DIMASZ
 40
0.18
  9
$DIMEXO
 40
0.0625
  9
$DIMDLI
 40
0.38
  9
$DIMRND
 40
0.0
  9
$DIMDLE
 40
0.0
  9
$DIMEXE
 40
0.18
  9
$DIMTP
 40
0.0
  9
$DIMTM
 40
0.0
  9
$DIMTXT
 40
0.18
  9
$DIMCEN
 40
0.09
  9
$DIMTSZ
 40
0.0
  9
$DIMTOL
 70
     0
  9
$DIMLIM
 70
     0
  9
$DIMTIH
 70
     1
  9
$DIMTOH
 70
     1
  9
$DIMSE1
 70
     0
  9
$DIMSE2
 70
     0
  9
$DIMTAD
 70
     0
  9
$DIMZIN
 70
     0
  9
$DIMBLK
  1

  9
$DIMASO
 70
     1
  9
$DIMSHO
 70
     1
  9
$DIMPOST
  1

  9
$DIMAPOST
  1

  9
$DIMALT
 70
     0
  9
$DIMALTD
 70
     2
  9
$DIMALTF
 40
25.4
  9
$DIMLFAC
 40
1.0
  9
$DIMTOFL
 70
     0
  9
$DIMTVP
 40
0.0
  9
$DIMTIX
 70
     0
  9
$DIMSOXD
 70
     0
  9
$DIMSAH
 70
     0
  9
$DIMBLK1
  1

  9
$DIMBLK2
  1

  9
$DIMSTYLE
  2
STANDARD
  9
$DIMCLRD
 70
     0
  9
$DIMCLRE
 70
     0
  9
$DIMCLRT
 70
     0
  9
$DIMTFAC
 40
1.0
  9
$DIMGAP
 40
0.09
  9
$DIMJUST
 70
     0
  9
$DIMSD1
 70
     0
  9
$DIMSD2
 70
     0
  9
$DIMTOLJ
 70
     1
  9
$DIMTZIN
 70
     0
  9
$DIMALTZ
 70
     0
  9
$DIMALTTZ
 70
     0
  9
$DIMFIT
 70
     3
  9
$DIMUPT
 70
     0
  9
$DIMUNIT
 70
     2
  9
$DIMDEC
 70
     4
  9
$DIMTDEC
 70
     4
  9
$DIMALTU
 70
     2
  9
$DIMALTTD
 70
     2
  9
$DIMTXSTY
  7
STANDARD
  9
$DIMAUNIT
 70
     0
  9
$LUNITS
 70
     2
  9
$LUPREC
 70
     4
  9
$SKETCHINC
 40
0.1
  9
$FILLETRAD
 40
0.5
  9
$AUNITS
 70
     0
  9
$AUPREC
 70
     0
  9
$MENU
  1
.
  9
$ELEVATION
 40
0.0
  9
$PELEVATION
 40
0.0
  9
$THICKNESS
 40
0.0
  9
$LIMCHECK
 70
     0
  9
$CHAMFERA
 40
0.5
  9
$CHAMFERB
 40
0.5
  9
$CHAMFERC
 40
1.0
  9
$CHAMFERD
 40
0.0
  9
$SKPOLY
 70
     0
  9
$TDCREATE
 40
2456306.944677095
  9
$TDUPDATE
 40
2456306.944677107
  9
$TDINDWG
 40
0.0000000116
  9
$TDUSRTIMER
 40
0.0000000116
  9
$USRTIMER
 70
     1
  9
$ANGBASE
 50
0.0
  9
$ANGDIR
 70
     0
  9
$PDMODE
 70
     0
  9
$PDSIZE
 40
0.0
  9
$PLINEWID
 40
0.0
  9
$COORDS
 70
     1
  9
$SPLFRAME
 70
     0
  9
$SPLINETYPE
 70
     6
  9
$SPLINESEGS
 70
     8
  9
$ATTDIA
 70
     0
  9
$ATTREQ
 70
     1
  9
$HANDLING
 70
     1
  9
$HANDSEED
  5
116
  9
$SURFTAB1
 70
     6
  9
$SURFTAB2
 70
     6
  9
$SURFTYPE
 70
     6
  9
$SURFU
 70
     6
  9
$SURFV
 70
     6
  9
$UCSNAME
  2

  9
$UCSORG
 10
0.0
 20
0.0
 30
0.0
  9
$UCSXDIR
 10
1.0
 20
0.0
 30
0.0
  9
$UCSYDIR
 10
0.0
 20
1.0
 30
0.0
  9
$PUCSNAME
  2

  9
$PUCSORG
 10
0.0
 20
0.0
 30
0.0
  9
$PUCSXDIR
 10
1.0
 20
0.0
 30
0.0
  9
$PUCSYDIR
 10
0.0
 20
1.0
 30
0.0
  9
$USERI1
 70
     0
  9
$USERI2
 70
     0
  9
$USERI3
 70
     0
  9
$USERI4
 70
     0
  9
$USERI5
 70
     0
  9
$USERR1
 40
0.0
  9
$USERR2
 40
0.0
  9
$USERR3
 40
0.0
  9
$USERR4
 40
0.0
  9
$USERR5
 40
0.0
  9
$WORLDVIEW
 70
     1
  9
$SHADEDGE
 70
     3
  9
$SHADEDIF
 70
    70
  9
$TILEMODE
 70
     1
  9
$MAXACTVP
 70
    64
  9
$PINSBASE
 10
0.0
 20
0.0
 30
0.0
  9
$PLIMCHECK
 70
     0
  9
$PEXTMIN
 10
1.000000000000000E+20
 20
1.000000000000000E+20
 30
1.000000000000000E+20
  9
$PEXTMAX
 10
-1.000000000000000E+20
 20
-1.000000000000000E+20
 30
-1.000000000000000E+20
  9
$PLIMMIN
 10
0.0
 20
0.0
  9
$PLIMMAX
 10
12.0
 20
9.0
  9
$UNITMODE
 70
     0
  9
$VISRETAIN
 70
     1
  9
$PLINEGEN
 70
     0
  9
$PSLTSCALE
 70
     1
  9
$TREEDEPTH
 70
  3020
  9
$PICKSTYLE
 70
     1
  9
$CMLSTYLE
  2
STANDARD
  9
$CMLJUST
 70
     0
  9
$CMLSCALE
 40
1.0
  9
$PROXYGRAPHICS
 70
     1
  9
$MEASUREMENT
 70
     0
  0
ENDSEC
  0
SECTION
  2
CLASSES
  0
CLASS
  1
ACDBDICTIONARYWDFLT
  2
AcDbDictionaryWithDefault
  3
ObjectDBX Classes
 90
        0
280
     0
281
     0
  0
CLASS
  1
VISUALSTYLE
  2
AcDbVisualStyle
  3
ObjectDBX Classes
 90
     4095
280
     0
281
     0
  0
CLASS
  1
MATERIAL
  2
AcDbMaterial
  3
ObjectDBX Classes
 90
     1153
280
     0
281
     0
  0
CLASS
  1
DICTIONARYVAR
  2
AcDbDictionaryVar
  3
ObjectDBX Classes
 90
        0
280
     0
281
     0
  0
CLASS
  1
XRECORD
  2
AcDbXrecord
  3
AutoCAD 2000
 90
        0
280
     0
281
     0
  0
CLASS
  1
LWPOLYLINE
  2
AcDbPolyline
  3
AutoCAD 2000
 90
        0
280
     0
281
     1
  0
CLASS
  1
HATCH
  2
AcDbHatch
  3
AutoCAD 2000
 90
        0
280
     0
281
     1
  0
CLASS
  1
ACDBPLACEHOLDER
  2
AcDbPlaceHolder
  3
ObjectDBX Classes
 90
        0
280
     0
281
     0
  0
CLASS
  1
LAYOUT
  2
AcDbLayout
  3
ObjectDBX Classes
 90
        0
280
     0
281
     0
  0
ENDSEC
  0
SECTION
  2
TABLES
  0
TABLE
  2
VPORT
  5
8
330
0
100
AcDbSymbolTable
 70
     1
  0
VPORT
  5
29
330
8
100
AcDbSymbolTableRecord
100
AcDbViewportTableRecord
  2
*ACTIVE
 70
     0
 10
0.0
 20
0.0
 11
1.0
 21
1.0
 12
0.0
 22
0.0
 13
0.0
 23
0.0
 14
0.5
 24
0.5
 15
0.5
 25
0.5
 16
0.0
 26
0.0
 36
1.0
 17
0.0
 27
0.0
 37
-1000.0
 40
304.5061372095344
 41
2.050884955752213
 42
50.0
 43
482.8850410307292
 44
626.4389370716415
 50
0.0
 51
0.0
 71
     0
 72
   100
 73
     1
 74
     3
 75
     0
 76
     0
 77
     0
 78
     0
  0
ENDTAB
  0
TABLE
  2
LTYPE
  5
5
330
0
100
AcDbSymbolTable
 70
     1
  0
LTYPE
  5
14
330
5
100
AcDbSymbolTableRecord
100
AcDbLinetypeTableRecord
  2
BYBLOCK
 70
     0
  3

 72
    65
 73
     0
 40
0.0
  0
LTYPE
  5
15
330
5
100
AcDbSymbolTableRecord
100
AcDbLinetypeTableRecord
  2
BYLAYER
 70
     0
  3

 72
    65
 73
     0
 40
0.0
  0
LTYPE
  5
16
330
5
100
AcDbSymbolTableRecord
100
AcDbLinetypeTableRecord
  2
CONTINUOUS
 70
     0
  3
Solid line
 72
    65
 73
     0
 40
0.0
  0
ENDTAB
  0
TABLE
  2
LAYER
  5
2
330
0
100
AcDbSymbolTable
 70
     3
  0
LAYER
  5
10
330
2
100
AcDbSymbolTableRecord
100
AcDbLayerTableRecord
  2
0
 70
     0
 62
     7
  6
CONTINUOUS
  0
LAYER
  5
3F
330
2
100
AcDbSymbolTableRecord
100
AcDbLayerTableRecord
  2
PROFILEEDGES
 70
     0
 62
     7
  6
CONTINUOUS
  0
LAYER
  5
40
330
2
100
AcDbSymbolTableRecord
100
AcDbLayerTableRecord
  2
SECTIONCUTEDGES
 70
     0
 62
     7
  6
CONTINUOUS
  0
ENDTAB
  0
TABLE
  2
STYLE
  5
3
330
0
100
AcDbSymbolTable
 70
     1
  0
STYLE
  5
11
330
3
100
AcDbSymbolTableRecord
100
AcDbTextStyleTableRecord
  2
STANDARD
 70
     0
 40
0.0
 41
1.0
 50
0.0
 71
     0
 42
0.2
  3
txt
  4

  0
ENDTAB
  0
TABLE
  2
VIEW
  5
6
330
0
100
AcDbSymbolTable
 70
     0
  0
ENDTAB
  0
TABLE
  2
UCS
  5
7
330
0
100
AcDbSymbolTable
 70
     0
  0
ENDTAB
  0
TABLE
  2
APPID
  5
9
330
0
100
AcDbSymbolTable
 70
     1
  0
APPID
  5
12
330
9
100
AcDbSymbolTableRecord
100
AcDbRegAppTableRecord
  2
ACAD
 70
     0
  0
ENDTAB
  0
TABLE
  2
DIMSTYLE
  5
A
330
0
100
AcDbSymbolTable
 70
     1
  0
DIMSTYLE
105
27
330
A
100
AcDbSymbolTableRecord
100
AcDbDimStyleTableRecord
  2
STANDARD
 70
     0
  3

  4

  5

  6

  7

 40
1.0
 41
0.18
 42
0.0625
 43
0.38
 44
0.18
 45
0.0
 46
0.0
 47
0.0
 48
0.0
140
0.18
141
0.09
142
0.0
143
25.4
144
1.0
145
0.0
146
1.0
147
0.09
 71
     0
 72
     0
 73
     1
 74
     1
 75
     0
 76
     0
 77
     0
 78
     0
170
     0
171
     2
172
     0
173
     0
174
     0
175
     0
176
     0
177
     0
178
     0
270
     2
271
     4
272
     4
273
     2
274
     2
340
11
275
     0
280
     0
281
     0
282
     0
283
     1
284
     0
285
     0
286
     0
287
     3
288
     0
  0
ENDTAB
  0
TABLE
  2
BLOCK_RECORD
  5
1
330
0
100
AcDbSymbolTable
 70
     1
  0
BLOCK_RECORD
  5
1F
330
1
100
AcDbSymbolTableRecord
100
AcDbBlockTableRecord
  2
*MODEL_SPACE
  0
BLOCK_RECORD
  5
1B
330
1
100
AcDbSymbolTableRecord
100
AcDbBlockTableRecord
  2
*PAPER_SPACE
  0
ENDTAB
  0
ENDSEC
  0
SECTION
  2
BLOCKS
  0
BLOCK
  5
20
330
1F
100
AcDbEntity
  8
0
100
AcDbBlockBegin
  2
*MODEL_SPACE
 70
     0
 10
0.0
 20
0.0
 30
0.0
  3
*MODEL_SPACE
  1

  0
ENDBLK
  5
21
330
1F
100
AcDbEntity
  8
0
100
AcDbBlockEnd
  0
BLOCK
  5
1C
330
1B
100
AcDbEntity
 67
     1
  8
0
100
AcDbBlockBegin
  2
*PAPER_SPACE
 70
     0
 10
0.0
 20
0.0
 30
0.0
  3
*PAPER_SPACE
  1

  0
ENDBLK
  5
1D
330
1B
100
AcDbEntity
 67
     1
  8
0
100
AcDbBlockEnd
  0
ENDSEC
  0
SECTION
  2
ENTITIES
  0
LINE
  5
41
330
1F
100
AcDbEntity
  8
0
100
AcDbLine
 10
-218.0387057868571
 20
-119.9009128846272
 30
0.0
 11
-217.3650196425882
 21
-119.9009128846272
 31
0.0
  0
LINE
  5
42
330
1F
100
AcDbEntity
  8
0
100
AcDbLine
 10
179.7786547284977
 20
-119.9009128846272
 30
0.0
 11
179.1049685842288
 21
-119.9009128846272
 31
0.0
  0
LINE
  5
43
330
1F
100
AcDbEntity
  8
0
100
AcDbLine
 10
-217.3650196425882
 20
-119.9009128846272
 30
0.0
 11
179.1049685842288
 21
-119.9009128846272
 31
0.0
  0
LINE
  5
44
330
1F
100
AcDbEntity
  8
0
100
AcDbLine
 10
179.1049685842288
 20
-120.5745990288961
 30
0.0
 11
179.1049685842288
 21
-119.9009128846272
 31
0.0
  0
LINE
  5
45
330
1F
100
AcDbEntity
  8
0
100
AcDbLine
 10
179.1049685842288
 20
118.6547661957319
 30
0.0
 11
179.1049685842288
 21
117.981080051463
 31
0.0
  0
LINE
  5
46
330
1F
100
AcDbEntity
  8
0
100
AcDbLine
 10
179.1049685842288
 20
-119.9009128846272
 30
0.0
 11
179.1049685842288
 21
117.981080051463
 31
0.0
  0
LINE
  5
47
330
1F
100
AcDbEntity
  8
0
100
AcDbLine
 10
179.7786547284977
 20
117.981080051463
 30
0.0
 11
179.1049685842288
 21
117.981080051463
 31
0.0
  0
LINE
  5
48
330
1F
100
AcDbEntity
  8
0
100
AcDbLine
 10
-218.0387057868571
 20
117.981080051463
 30
0.0
 11
-217.3650196425882
 21
117.981080051463
 31
0.0
  0
LINE
  5
49
330
1F
100
AcDbEntity
  8
0
100
AcDbLine
 10
179.1049685842288
 20
117.981080051463
 30
0.0
 11
-217.3650196425882
 21
117.981080051463
 31
0.0
  0
LINE
  5
4A
330
1F
100
AcDbEntity
  8
0
100
AcDbLine
 10
-217.3650196425882
 20
118.6547661957319
 30
0.0
 11
-217.3650196425882
 21
117.981080051463
 31
0.0
  0
LINE
  5
4B
330
1F
100
AcDbEntity
  8
0
100
AcDbLine
 10
-217.3650196425882
 20
-120.5745990288961
 30
0.0
 11
-217.3650196425882
 21
-119.9009128846272
 31
0.0
  0
LINE
  5
4C
330
1F
100
AcDbEntity
  8
0
100
AcDbLine
 10
-217.3650196425882
 20
117.981080051463
 30
0.0
 11
-217.3650196425882
 21
-119.9009128846272
 31
0.0
  0
LINE
  5
4D
330
1F
100
AcDbEntity
  8
0
100
AcDbLine
 10
-137.3973728760932
 20
72.67022474410393
 30
0.0
 11
-138.0710590203621
 21
72.67022474410393
 31
0.0
  0
LINE
  5
4E
330
1F
100
AcDbEntity
  8
0
100
AcDbLine
 10
-155.7897386017286
 20
72.67022474410393
 30
0.0
 11
-155.1160524574598
 21
72.67022474410393
 31
0.0
  0
LINE
  5
4F
330
1F
100
AcDbEntity
  8
0
100
AcDbLine
 10
-138.0710590203621
 20
72.67022474410393
 30
0.0
 11
-155.1160524574598
 21
72.67022474410393
 31
0.0
  0
LINE
  5
50
330
1F
100
AcDbEntity
  8
0
100
AcDbLine
 10
-154.6876977265139
 20
73.19019132519946
 30
0.0
 11
-155.1160524574598
 21
72.67022474410393
 31
0.0
  0
LINE
  5
51
330
1F
100
AcDbEntity
  8
0
100
AcDbLine
 10
-155.1160524574598
 20
72.67022474410393
 30
0.0
 11
-160.7264680111522
 21
65.85991454270416
 31
0.0
  0
LINE
  5
52
330
1F
100
AcDbEntity
  8
0
100
AcDbLine
 10
-160.7264680111522
 20
65.85991454270416
 30
0.0
 11
-160.7264680111522
 21
48.91553485970353
 31
0.0
  0
LINE
  5
53
330
1F
100
AcDbEntity
  8
0
100
AcDbLine
 10
-154.6884407256941
 20
41.5647944037758
 30
0.0
 11
-155.1160524574598
 21
42.08537218647137
 31
0.0
  0
LINE
  5
54
330
1F
100
AcDbEntity
  8
0
100
AcDbLine
 10
-160.7264680111522
 20
48.91553485970353
 30
0.0
 11
-155.1160524574598
 21
42.08537218647137
 31
0.0
  0
LINE
  5
55
330
1F
100
AcDbEntity
  8
0
100
AcDbLine
 10
-155.7897386017286
 20
42.08537218647137
 30
0.0
 11
-155.1160524574598
 21
42.08537218647137
 31
0.0
  0
LINE
  5
56
330
1F
100
AcDbEntity
  8
0
100
AcDbLine
 10
-137.3973728760932
 20
42.08537218647137
 30
0.0
 11
-138.0710590203621
 21
42.08537218647137
 31
0.0
  0
LINE
  5
57
330
1F
100
AcDbEntity
  8
0
100
AcDbLine
 10
-155.1160524574598
 20
42.08537218647137
 30
0.0
 11
-138.0710590203621
 21
42.08537218647137
 31
0.0
  0
LINE
  5
58
330
1F
100
AcDbEntity
  8
0
100
AcDbLine
 10
-138.0710590203621
 20
41.4116860422025
 30
0.0
 11
-138.0710590203621
 21
42.08537218647137
 31
0.0
  0
LINE
  5
59
330
1F
100
AcDbEntity
  8
0
100
AcDbLine
 10
-138.0710590203621
 20
73.3439108883728
 30
0.0
 11
-138.0710590203621
 21
72.67022474410393
 31
0.0
  0
LINE
  5
5A
330
1F
100
AcDbEntity
  8
0
100
AcDbLine
 10
-138.0710590203621
 20
42.08537218647137
 30
0.0
 11
-138.0710590203621
 21
72.67022474410393
 31
0.0
  0
LINE
  5
5B
330
1F
100
AcDbEntity
  8
0
100
AcDbLine
 10
-191.9233207879223
 20
-103.408885752917
 30
0.0
 11
-192.0178462690468
 21
-102.6908934409076
 31
0.0
  0
LINE
  5
5C
330
1F
100
AcDbEntity
  8
0
100
AcDbLine
 10
-192.0178462690468
 20
-102.6908934409076
 30
0.0
 11
-192.2949809570927
 21
-102.0218311184232
 31
0.0
  0
LINE
  5
5D
330
1F
100
AcDbEntity
  8
0
100
AcDbLine
 10
-192.2949809570927
 20
-102.0218311184232
 30
0.0
 11
-192.7358385810562
 21
-101.4472942770634
 31
0.0
  0
LINE
  5
5E
330
1F
100
AcDbEntity
  8
0
100
AcDbLine
 10
-192.7358385810562
 20
-101.4472942770634
 30
0.0
 11
-193.310375422416
 21
-101.0064366530999
 31
0.0
  0
LINE
  5
5F
330
1F
100
AcDbEntity
  8
0
100
AcDbLine
 10
-193.310375422416
 20
-101.0064366530999
 30
0.0
 11
-193.9794377449003
 21
-100.729301965054
 31
0.0
  0
LINE
  5
60
330
1F
100
AcDbEntity
  8
0
100
AcDbLine
 10
-193.9794377449003
 20
-100.729301965054
 30
0.0
 11
-194.6974300569098
 21
-100.6347764839295
 31
0.0
  0
LINE
  5
61
330
1F
100
AcDbEntity
  8
0
100
AcDbLine
 10
-194.6974300569098
 20
-100.6347764839295
 30
0.0
 11
-195.4154223689191
 21
-100.729301965054
 31
0.0
  0
LINE
  5
62
330
1F
100
AcDbEntity
  8
0
100
AcDbLine
 10
-195.4154223689191
 20
-100.729301965054
 30
0.0
 11
-196.0844846914035
 21
-101.0064366530999
 31
0.0
  0
LINE
  5
63
330
1F
100
AcDbEntity
  8
0
100
AcDbLine
 10
-196.0844846914035
 20
-101.0064366530999
 30
0.0
 11
-196.6590215327633
 21
-101.4472942770634
 31
0.0
  0
LINE
  5
64
330
1F
100
AcDbEntity
  8
0
100
AcDbLine
 10
-196.6590215327633
 20
-101.4472942770634
 30
0.0
 11
-197.0998791567268
 21
-102.0218311184232
 31
0.0
  0
LINE
  5
65
330
1F
100
AcDbEntity
  8
0
100
AcDbLine
 10
-197.0998791567268
 20
-102.0218311184232
 30
0.0
 11
-197.3770138447727
 21
-102.6908934409076
 31
0.0
  0
LINE
  5
66
330
1F
100
AcDbEntity
  8
0
100
AcDbLine
 10
-197.3770138447727
 20
-102.6908934409076
 30
0.0
 11
-197.4715393258973
 21
-103.408885752917
 31
0.0
  0
LINE
  5
67
330
1F
100
AcDbEntity
  8
0
100
AcDbLine
 10
-197.4715393258973
 20
-103.408885752917
 30
0.0
 11
-197.3770138447727
 21
-104.1268780649264
 31
0.0
  0
LINE
  5
68
330
1F
100
AcDbEntity
  8
0
100
AcDbLine
 10
-197.3770138447727
 20
-104.1268780649264
 30
0.0
 11
-197.0998791567268
 21
-104.7959403874107
 31
0.0
  0
LINE
  5
69
330
1F
100
AcDbEntity
  8
0
100
AcDbLine
 10
-197.0998791567268
 20
-104.7959403874107
 30
0.0
 11
-196.6590215327633
 21
-105.3704772287705
 31
0.0
  0
LINE
  5
6A
330
1F
100
AcDbEntity
  8
0
100
AcDbLine
 10
-196.6590215327633
 20
-105.3704772287705
 30
0.0
 11
-196.0844846914035
 21
-105.811334852734
 31
0.0
  0
LINE
  5
6B
330
1F
100
AcDbEntity
  8
0
100
AcDbLine
 10
-196.0844846914035
 20
-105.811334852734
 30
0.0
 11
-195.4154223689191
 21
-106.0884695407799
 31
0.0
  0
LINE
  5
6C
330
1F
100
AcDbEntity
  8
0
100
AcDbLine
 10
-195.4154223689191
 20
-106.0884695407799
 30
0.0
 11
-194.6974300569098
 21
-106.1829950219045
 31
0.0
  0
LINE
  5
6D
330
1F
100
AcDbEntity
  8
0
100
AcDbLine
 10
-194.6974300569098
 20
-106.1829950219045
 30
0.0
 11
-193.9794377449003
 21
-106.0884695407799
 31
0.0
  0
LINE
  5
6E
330
1F
100
AcDbEntity
  8
0
100
AcDbLine
 10
-193.9794377449003
 20
-106.0884695407799
 30
0.0
 11
-193.310375422416
 21
-105.811334852734
 31
0.0
  0
LINE
  5
6F
330
1F
100
AcDbEntity
  8
0
100
AcDbLine
 10
-193.310375422416
 20
-105.811334852734
 30
0.0
 11
-192.7358385810562
 21
-105.3704772287705
 31
0.0
  0
LINE
  5
70
330
1F
100
AcDbEntity
  8
0
100
AcDbLine
 10
-192.7358385810562
 20
-105.3704772287705
 30
0.0
 11
-192.2949809570927
 21
-104.7959403874107
 31
0.0
  0
LINE
  5
71
330
1F
100
AcDbEntity
  8
0
100
AcDbLine
 10
-192.2949809570927
 20
-104.7959403874107
 30
0.0
 11
-192.0178462690468
 21
-104.1268780649264
 31
0.0
  0
LINE
  5
72
330
1F
100
AcDbEntity
  8
0
100
AcDbLine
 10
-192.0178462690468
 20
-104.1268780649264
 30
0.0
 11
-191.9233207879223
 21
-103.408885752917
 31
0.0
  0
LINE
  5
73
330
1F
100
AcDbEntity
  8
0
100
AcDbLine
 10
170.6090505436553
 20
-103.408885752917
 30
0.0
 11
170.5153425505779
 21
-102.6971028791042
 31
0.0
  0
LINE
  5
74
330
1F
100
AcDbEntity
  8
0
100
AcDbLine
 10
170.5153425505779
 20
-102.6971028791042
 30
0.0
 11
170.2406046162142
 21
-102.033826831865
 31
0.0
  0
LINE
  5
75
330
1F
100
AcDbEntity
  8
0
100
AcDbLine
 10
170.2406046162142
 20
-102.033826831865
 30
0.0
 11
169.8035596767651
 21
-101.4642587777031
 31
0.0
  0
LINE
  5
76
330
1F
100
AcDbEntity
  8
0
100
AcDbLine
 10
169.8035596767651
 20
-101.4642587777031
 30
0.0
 11
169.2339916226033
 21
-101.0272138382541
 31
0.0
  0
LINE
  5
77
330
1F
100
AcDbEntity
  8
0
100
AcDbLine
 10
169.2339916226033
 20
-101.0272138382541
 30
0.0
 11
168.5707155753641
 21
-100.7524759038904
 31
0.0
  0
LINE
  5
78
330
1F
100
AcDbEntity
  8
0
100
AcDbLine
 10
168.5707155753641
 20
-100.7524759038904
 30
0.0
 11
167.8589327015513
 21
-100.658767910813
 31
0.0
  0
LINE
  5
79
330
1F
100
AcDbEntity
  8
0
100
AcDbLine
 10
167.8589327015513
 20
-100.658767910813
 30
0.0
 11
167.1471498277386
 21
-100.7524759038904
 31
0.0
  0
LINE
  5
7A
330
1F
100
AcDbEntity
  8
0
100
AcDbLine
 10
167.1471498277386
 20
-100.7524759038904
 30
0.0
 11
166.4838737804994
 21
-101.0272138382541
 31
0.0
  0
LINE
  5
7B
330
1F
100
AcDbEntity
  8
0
100
AcDbLine
 10
166.4838737804994
 20
-101.0272138382541
 30
0.0
 11
165.9143057263375
 21
-101.4642587777031
 31
0.0
  0
LINE
  5
7C
330
1F
100
AcDbEntity
  8
0
100
AcDbLine
 10
165.9143057263375
 20
-101.4642587777031
 30
0.0
 11
165.4772607868884
 21
-102.033826831865
 31
0.0
  0
LINE
  5
7D
330
1F
100
AcDbEntity
  8
0
100
AcDbLine
 10
165.4772607868884
 20
-102.033826831865
 30
0.0
 11
165.2025228525247
 21
-102.6971028791042
 31
0.0
  0
LINE
  5
7E
330
1F
100
AcDbEntity
  8
0
100
AcDbLine
 10
165.2025228525247
 20
-102.6971028791042
 30
0.0
 11
165.1088148594474
 21
-103.408885752917
 31
0.0
  0
LINE
  5
7F
330
1F
100
AcDbEntity
  8
0
100
AcDbLine
 10
165.1088148594474
 20
-103.408885752917
 30
0.0
 11
165.2025228525247
 21
-104.1206686267297
 31
0.0
  0
LINE
  5
80
330
1F
100
AcDbEntity
  8
0
100
AcDbLine
 10
165.2025228525247
 20
-104.1206686267297
 30
0.0
 11
165.4772607868884
 21
-104.783944673969
 31
0.0
  0
LINE
  5
81
330
1F
100
AcDbEntity
  8
0
100
AcDbLine
 10
165.4772607868884
 20
-104.783944673969
 30
0.0
 11
165.9143057263375
 21
-105.3535127281308
 31
0.0
  0
LINE
  5
82
330
1F
100
AcDbEntity
  8
0
100
AcDbLine
 10
165.9143057263375
 20
-105.3535127281308
 30
0.0
 11
166.4838737804993
 21
-105.7905576675798
 31
0.0
  0
LINE
  5
83
330
1F
100
AcDbEntity
  8
0
100
AcDbLine
 10
166.4838737804993
 20
-105.7905576675798
 30
0.0
 11
167.1471498277386
 21
-106.0652956019435
 31
0.0
  0
LINE
  5
84
330
1F
100
AcDbEntity
  8
0
100
AcDbLine
 10
167.1471498277386
 20
-106.0652956019435
 30
0.0
 11
167.8589327015513
 21
-106.1590035950209
 31
0.0
  0
LINE
  5
85
330
1F
100
AcDbEntity
  8
0
100
AcDbLine
 10
167.8589327015513
 20
-106.1590035950209
 30
0.0
 11
168.5707155753641
 21
-106.0652956019435
 31
0.0
  0
LINE
  5
86
330
1F
100
AcDbEntity
  8
0
100
AcDbLine
 10
168.5707155753641
 20
-106.0652956019435
 30
0.0
 11
169.2339916226033
 21
-105.7905576675798
 31
0.0
  0
LINE
  5
87
330
1F
100
AcDbEntity
  8
0
100
AcDbLine
 10
169.2339916226033
 20
-105.7905576675798
 30
0.0
 11
169.8035596767651
 21
-105.3535127281308
 31
0.0
  0
LINE
  5
88
330
1F
100
AcDbEntity
  8
0
100
AcDbLine
 10
169.8035596767651
 20
-105.3535127281308
 30
0.0
 11
170.2406046162142
 21
-104.783944673969
 31
0.0
  0
LINE
  5
89
330
1F
100
AcDbEntity
  8
0
100
AcDbLine
 10
170.2406046162142
 20
-104.783944673969
 30
0.0
 11
170.5153425505779
 21
-104.1206686267297
 31
0.0
  0
LINE
  5
8A
330
1F
100
AcDbEntity
  8
0
100
AcDbLine
 10
170.5153425505779
 20
-104.1206686267297
 30
0.0
 11
170.6090505436553
 21
-103.408885752917
 31
0.0
  0
LINE
  5
8B
330
1F
100
AcDbEntity
  8
0
100
AcDbLine
 10
170.5633839659149
 20
100.4035371091413
 30
0.0
 11
170.4712320237402
 21
101.1035006029102
 31
0.0
  0
LINE
  5
8C
330
1F
100
AcDbEntity
  8
0
100
AcDbLine
 10
170.4712320237402
 20
101.1035006029102
 30
0.0
 11
170.2010561997871
 21
101.7557627413231
 31
0.0
  0
LINE
  5
8D
330
1F
100
AcDbEntity
  8
0
100
AcDbLine
 10
170.2010561997871
 20
101.7557627413231
 30
0.0
 11
169.7712685299713
 21
102.3158729375614
 31
0.0
  0
LINE
  5
8E
330
1F
100
AcDbEntity
  8
0
100
AcDbLine
 10
169.7712685299713
 20
102.3158729375614
 30
0.0
 11
169.2111583337331
 21
102.7456606073771
 31
0.0
  0
LINE
  5
8F
330
1F
100
AcDbEntity
  8
0
100
AcDbLine
 10
169.2111583337331
 20
102.7456606073771
 30
0.0
 11
168.5588961953202
 21
103.0158364313302
 31
0.0
  0
LINE
  5
90
330
1F
100
AcDbEntity
  8
0
100
AcDbLine
 10
168.5588961953202
 20
103.0158364313302
 30
0.0
 11
167.8589327015513
 21
103.1079883735049
 31
0.0
  0
LINE
  5
91
330
1F
100
AcDbEntity
  8
0
100
AcDbLine
 10
167.8589327015513
 20
103.1079883735049
 30
0.0
 11
167.1589692077824
 21
103.0158364313302
 31
0.0
  0
LINE
  5
92
330
1F
100
AcDbEntity
  8
0
100
AcDbLine
 10
167.1589692077824
 20
103.0158364313302
 30
0.0
 11
166.5067070693696
 21
102.7456606073771
 31
0.0
  0
LINE
  5
93
330
1F
100
AcDbEntity
  8
0
100
AcDbLine
 10
166.5067070693696
 20
102.7456606073771
 30
0.0
 11
165.9465968731313
 21
102.3158729375614
 31
0.0
  0
LINE
  5
94
330
1F
100
AcDbEntity
  8
0
100
AcDbLine
 10
165.9465968731313
 20
102.3158729375614
 30
0.0
 11
165.5168092033155
 21
101.7557627413231
 31
0.0
  0
LINE
  5
95
330
1F
100
AcDbEntity
  8
0
100
AcDbLine
 10
165.5168092033155
 20
101.7557627413231
 30
0.0
 11
165.2466333793624
 21
101.1035006029102
 31
0.0
  0
LINE
  5
96
330
1F
100
AcDbEntity
  8
0
100
AcDbLine
 10
165.2466333793624
 20
101.1035006029102
 30
0.0
 11
165.1544814371877
 21
100.4035371091413
 31
0.0
  0
LINE
  5
97
330
1F
100
AcDbEntity
  8
0
100
AcDbLine
 10
165.1544814371877
 20
100.4035371091413
 30
0.0
 11
165.2466333793624
 21
99.7035736153724
 31
0.0
  0
LINE
  5
98
330
1F
100
AcDbEntity
  8
0
100
AcDbLine
 10
165.2466333793624
 20
99.7035736153724
 30
0.0
 11
165.5168092033155
 21
99.05131147695951
 31
0.0
  0
LINE
  5
99
330
1F
100
AcDbEntity
  8
0
100
AcDbLine
 10
165.5168092033155
 20
99.05131147695951
 30
0.0
 11
165.9465968731313
 21
98.49120128072127
 31
0.0
  0
LINE
  5
9A
330
1F
100
AcDbEntity
  8
0
100
AcDbLine
 10
165.9465968731313
 20
98.49120128072127
 30
0.0
 11
166.5067070693695
 21
98.06141361090549
 31
0.0
  0
LINE
  5
9B
330
1F
100
AcDbEntity
  8
0
100
AcDbLine
 10
166.5067070693695
 20
98.06141361090549
 30
0.0
 11
167.1589692077824
 21
97.7912377869524
 31
0.0
  0
LINE
  5
9C
330
1F
100
AcDbEntity
  8
0
100
AcDbLine
 10
167.1589692077824
 20
97.7912377869524
 30
0.0
 11
167.8589327015513
 21
97.69908584477771
 31
0.0
  0
LINE
  5
9D
330
1F
100
AcDbEntity
  8
0
100
AcDbLine
 10
167.8589327015513
 20
97.69908584477771
 30
0.0
 11
168.5588961953202
 21
97.7912377869524
 31
0.0
  0
LINE
  5
9E
330
1F
100
AcDbEntity
  8
0
100
AcDbLine
 10
168.5588961953202
 20
97.7912377869524
 30
0.0
 11
169.2111583337331
 21
98.06141361090549
 31
0.0
  0
LINE
  5
9F
330
1F
100
AcDbEntity
  8
0
100
AcDbLine
 10
169.2111583337331
 20
98.06141361090549
 30
0.0
 11
169.7712685299713
 21
98.49120128072127
 31
0.0
  0
LINE
  5
A0
330
1F
100
AcDbEntity
  8
0
100
AcDbLine
 10
169.7712685299713
 20
98.49120128072127
 30
0.0
 11
170.2010561997871
 21
99.05131147695951
 31
0.0
  0
LINE
  5
A1
330
1F
100
AcDbEntity
  8
0
100
AcDbLine
 10
170.2010561997871
 20
99.05131147695951
 30
0.0
 11
170.4712320237402
 21
99.7035736153724
 31
0.0
  0
LINE
  5
A2
330
1F
100
AcDbEntity
  8
0
100
AcDbLine
 10
170.4712320237402
 20
99.7035736153724
 30
0.0
 11
170.5633839659149
 21
100.4035371091413
 31
0.0
  0
LINE
  5
A3
330
1F
100
AcDbEntity
  8
0
100
AcDbLine
 10
-191.9233207879223
 20
100.4035371091413
 30
0.0
 11
-192.0178462690468
 21
101.1215294211507
 31
0.0
  0
LINE
  5
A4
330
1F
100
AcDbEntity
  8
0
100
AcDbLine
 10
-192.0178462690468
 20
101.1215294211507
 30
0.0
 11
-192.2949809570927
 21
101.7905917436351
 31
0.0
  0
LINE
  5
A5
330
1F
100
AcDbEntity
  8
0
100
AcDbLine
 10
-192.2949809570927
 20
101.7905917436351
 30
0.0
 11
-192.7358385810562
 21
102.3651285849948
 31
0.0
  0
LINE
  5
A6
330
1F
100
AcDbEntity
  8
0
100
AcDbLine
 10
-192.7358385810562
 20
102.3651285849948
 30
0.0
 11
-193.310375422416
 21
102.8059862089584
 31
0.0
  0
LINE
  5
A7
330
1F
100
AcDbEntity
  8
0
100
AcDbLine
 10
-193.310375422416
 20
102.8059862089584
 30
0.0
 11
-193.9794377449003
 21
103.0831208970042
 31
0.0
  0
LINE
  5
A8
330
1F
100
AcDbEntity
  8
0
100
AcDbLine
 10
-193.9794377449003
 20
103.0831208970042
 30
0.0
 11
-194.6974300569098
 21
103.1776463781288
 31
0.0
  0
LINE
  5
A9
330
1F
100
AcDbEntity
  8
0
100
AcDbLine
 10
-194.6974300569098
 20
103.1776463781288
 30
0.0
 11
-195.4154223689191
 21
103.0831208970042
 31
0.0
  0
LINE
  5
AA
330
1F
100
AcDbEntity
  8
0
100
AcDbLine
 10
-195.4154223689191
 20
103.0831208970042
 30
0.0
 11
-196.0844846914035
 21
102.8059862089584
 31
0.0
  0
LINE
  5
AB
330
1F
100
AcDbEntity
  8
0
100
AcDbLine
 10
-196.0844846914035
 20
102.8059862089584
 30
0.0
 11
-196.6590215327633
 21
102.3651285849948
 31
0.0
  0
LINE
  5
AC
330
1F
100
AcDbEntity
  8
0
100
AcDbLine
 10
-196.6590215327633
 20
102.3651285849948
 30
0.0
 11
-197.0998791567268
 21
101.7905917436351
 31
0.0
  0
LINE
  5
AD
330
1F
100
AcDbEntity
  8
0
100
AcDbLine
 10
-197.0998791567268
 20
101.7905917436351
 30
0.0
 11
-197.3770138447727
 21
101.1215294211507
 31
0.0
  0
LINE
  5
AE
330
1F
100
AcDbEntity
  8
0
100
AcDbLine
 10
-197.3770138447727
 20
101.1215294211507
 30
0.0
 11
-197.4715393258973
 21
100.4035371091413
 31
0.0
  0
LINE
  5
AF
330
1F
100
AcDbEntity
  8
0
100
AcDbLine
 10
-197.4715393258973
 20
100.4035371091413
 30
0.0
 11
-197.3770138447727
 21
99.68554479713193
 31
0.0
  0
LINE
  5
B0
330
1F
100
AcDbEntity
  8
0
100
AcDbLine
 10
-197.3770138447727
 20
99.68554479713193
 30
0.0
 11
-197.0998791567268
 21
99.01648247464756
 31
0.0
  0
LINE
  5
B1
330
1F
100
AcDbEntity
  8
0
100
AcDbLine
 10
-197.0998791567268
 20
99.01648247464756
 30
0.0
 11
-196.6590215327633
 21
98.4419456332878
 31
0.0
  0
LINE
  5
B2
330
1F
100
AcDbEntity
  8
0
100
AcDbLine
 10
-196.6590215327633
 20
98.4419456332878
 30
0.0
 11
-196.0844846914035
 21
98.00108800932426
 31
0.0
  0
LINE
  5
B3
330
1F
100
AcDbEntity
  8
0
100
AcDbLine
 10
-196.0844846914035
 20
98.00108800932426
 30
0.0
 11
-195.4154223689191
 21
97.72395332127839
 31
0.0
  0
LINE
  5
B4
330
1F
100
AcDbEntity
  8
0
100
AcDbLine
 10
-195.4154223689191
 20
97.72395332127839
 30
0.0
 11
-194.6974300569098
 21
97.6294278401538
 31
0.0
  0
LINE
  5
B5
330
1F
100
AcDbEntity
  8
0
100
AcDbLine
 10
-194.6974300569098
 20
97.6294278401538
 30
0.0
 11
-193.9794377449003
 21
97.72395332127839
 31
0.0
  0
LINE
  5
B6
330
1F
100
AcDbEntity
  8
0
100
AcDbLine
 10
-193.9794377449003
 20
97.72395332127839
 30
0.0
 11
-193.310375422416
 21
98.00108800932426
 31
0.0
  0
LINE
  5
B7
330
1F
100
AcDbEntity
  8
0
100
AcDbLine
 10
-193.310375422416
 20
98.00108800932426
 30
0.0
 11
-192.7358385810562
 21
98.4419456332878
 31
0.0
  0
LINE
  5
B8
330
1F
100
AcDbEntity
  8
0
100
AcDbLine
 10
-192.7358385810562
 20
98.4419456332878
 30
0.0
 11
-192.2949809570927
 21
99.01648247464756
 31
0.0
  0
LINE
  5
B9
330
1F
100
AcDbEntity
  8
0
100
AcDbLine
 10
-192.2949809570927
 20
99.01648247464756
 30
0.0
 11
-192.0178462690468
 21
99.68554479713191
 31
0.0
  0
LINE
  5
BA
330
1F
100
AcDbEntity
  8
0
100
AcDbLine
 10
-192.0178462690468
 20
99.68554479713191
 30
0.0
 11
-191.9233207879223
 21
100.4035371091413
 31
0.0
  0
LINE
  5
BB
330
1F
100
AcDbEntity
  8
0
100
AcDbLine
 10
-146.0004408483486
 20
80.60654140870047
 30
0.0
 11
-146.0767393913769
 21
81.18608638070299
 31
0.0
  0
LINE
  5
BC
330
1F
100
AcDbEntity
  8
0
100
AcDbLine
 10
-146.0767393913769
 20
81.18608638070299
 30
0.0
 11
-146.3004354008439
 21
81.72613632060687
 31
0.0
  0
LINE
  5
BD
330
1F
100
AcDbEntity
  8
0
100
AcDbLine
 10
-146.3004354008439
 20
81.72613632060687
 30
0.0
 11
-146.6562843633794
 21
82.18988771748242
 31
0.0
  0
LINE
  5
BE
330
1F
100
AcDbEntity
  8
0
100
AcDbLine
 10
-146.6562843633794
 20
82.18988771748242
 30
0.0
 11
-147.120035760255
 21
82.54573668001795
 31
0.0
  0
LINE
  5
BF
330
1F
100
AcDbEntity
  8
0
100
AcDbLine
 10
-147.120035760255
 20
82.54573668001795
 30
0.0
 11
-147.6600857001589
 21
82.76943268948494
 31
0.0
  0
LINE
  5
C0
330
1F
100
AcDbEntity
  8
0
100
AcDbLine
 10
-147.6600857001589
 20
82.76943268948494
 30
0.0
 11
-148.2396306721614
 21
82.84573123251329
 31
0.0
  0
LINE
  5
C1
330
1F
100
AcDbEntity
  8
0
100
AcDbLine
 10
-148.2396306721614
 20
82.84573123251329
 30
0.0
 11
-148.8191756441639
 21
82.76943268948494
 31
0.0
  0
LINE
  5
C2
330
1F
100
AcDbEntity
  8
0
100
AcDbLine
 10
-148.8191756441639
 20
82.76943268948494
 30
0.0
 11
-149.3592255840678
 21
82.54573668001795
 31
0.0
  0
LINE
  5
C3
330
1F
100
AcDbEntity
  8
0
100
AcDbLine
 10
-149.3592255840678
 20
82.54573668001795
 30
0.0
 11
-149.8229769809433
 21
82.18988771748242
 31
0.0
  0
LINE
  5
C4
330
1F
100
AcDbEntity
  8
0
100
AcDbLine
 10
-149.8229769809433
 20
82.18988771748242
 30
0.0
 11
-150.1788259434789
 21
81.72613632060687
 31
0.0
  0
LINE
  5
C5
330
1F
100
AcDbEntity
  8
0
100
AcDbLine
 10
-150.1788259434789
 20
81.72613632060687
 30
0.0
 11
-150.4025219529459
 21
81.18608638070299
 31
0.0
  0
LINE
  5
C6
330
1F
100
AcDbEntity
  8
0
100
AcDbLine
 10
-150.4025219529459
 20
81.18608638070299
 30
0.0
 11
-150.4788204959742
 21
80.60654140870047
 31
0.0
  0
LINE
  5
C7
330
1F
100
AcDbEntity
  8
0
100
AcDbLine
 10
-150.4788204959742
 20
80.60654140870047
 30
0.0
 11
-150.4025219529459
 21
80.02699643669796
 31
0.0
  0
LINE
  5
C8
330
1F
100
AcDbEntity
  8
0
100
AcDbLine
 10
-150.4025219529459
 20
80.02699643669796
 30
0.0
 11
-150.1788259434789
 21
79.48694649679403
 31
0.0
  0
LINE
  5
C9
330
1F
100
AcDbEntity
  8
0
100
AcDbLine
 10
-150.1788259434789
 20
79.48694649679403
 30
0.0
 11
-149.8229769809433
 21
79.0231950999185
 31
0.0
  0
LINE
  5
CA
330
1F
100
AcDbEntity
  8
0
100
AcDbLine
 10
-149.8229769809433
 20
79.0231950999185
 30
0.0
 11
-149.3592255840678
 21
78.66734613738295
 31
0.0
  0
LINE
  5
CB
330
1F
100
AcDbEntity
  8
0
100
AcDbLine
 10
-149.3592255840678
 20
78.66734613738295
 30
0.0
 11
-148.8191756441639
 21
78.44365012791596
 31
0.0
  0
LINE
  5
CC
330
1F
100
AcDbEntity
  8
0
100
AcDbLine
 10
-148.8191756441639
 20
78.44365012791596
 30
0.0
 11
-148.2396306721614
 21
78.36735158488761
 31
0.0
  0
LINE
  5
CD
330
1F
100
AcDbEntity
  8
0
100
AcDbLine
 10
-148.2396306721614
 20
78.36735158488761
 30
0.0
 11
-147.6600857001589
 21
78.44365012791596
 31
0.0
  0
LINE
  5
CE
330
1F
100
AcDbEntity
  8
0
100
AcDbLine
 10
-147.6600857001589
 20
78.44365012791596
 30
0.0
 11
-147.120035760255
 21
78.66734613738295
 31
0.0
  0
LINE
  5
CF
330
1F
100
AcDbEntity
  8
0
100
AcDbLine
 10
-147.120035760255
 20
78.66734613738295
 30
0.0
 11
-146.6562843633794
 21
79.0231950999185
 31
0.0
  0
LINE
  5
D0
330
1F
100
AcDbEntity
  8
0
100
AcDbLine
 10
-146.6562843633794
 20
79.0231950999185
 30
0.0
 11
-146.3004354008439
 21
79.48694649679403
 31
0.0
  0
LINE
  5
D1
330
1F
100
AcDbEntity
  8
0
100
AcDbLine
 10
-146.3004354008439
 20
79.48694649679403
 30
0.0
 11
-146.0767393913769
 21
80.02699643669793
 31
0.0
  0
LINE
  5
D2
330
1F
100
AcDbEntity
  8
0
100
AcDbLine
 10
-146.0767393913769
 20
80.02699643669793
 30
0.0
 11
-146.0004408483486
 21
80.60654140870047
 31
0.0
  0
LINE
  5
D3
330
1F
100
AcDbEntity
  8
0
100
AcDbLine
 10
-146.03697963608
 20
34.11202195134578
 30
0.0
 11
-146.112033150108
 21
34.68210998919846
 31
0.0
  0
LINE
  5
D4
330
1F
100
AcDbEntity
  8
0
100
AcDbLine
 10
-146.112033150108
 20
34.68210998919846
 30
0.0
 11
-146.3320789192428
 21
35.21334746938648
 31
0.0
  0
LINE
  5
D5
330
1F
100
AcDbEntity
  8
0
100
AcDbLine
 10
-146.3320789192428
 20
35.21334746938648
 30
0.0
 11
-146.6821211879607
 21
35.66953143554652
 31
0.0
  0
LINE
  5
D6
330
1F
100
AcDbEntity
  8
0
100
AcDbLine
 10
-146.6821211879607
 20
35.66953143554652
 30
0.0
 11
-147.1383051541207
 21
36.01957370426438
 31
0.0
  0
LINE
  5
D7
330
1F
100
AcDbEntity
  8
0
100
AcDbLine
 10
-147.1383051541207
 20
36.01957370426438
 30
0.0
 11
-147.6695426343088
 21
36.23961947339919
 31
0.0
  0
LINE
  5
D8
330
1F
100
AcDbEntity
  8
0
100
AcDbLine
 10
-147.6695426343088
 20
36.23961947339919
 30
0.0
 11
-148.2396306721614
 21
36.31467298742719
 31
0.0
  0
LINE
  5
D9
330
1F
100
AcDbEntity
  8
0
100
AcDbLine
 10
-148.2396306721614
 20
36.31467298742719
 30
0.0
 11
-148.809718710014
 21
36.23961947339919
 31
0.0
  0
LINE
  5
DA
330
1F
100
AcDbEntity
  8
0
100
AcDbLine
 10
-148.809718710014
 20
36.23961947339919
 30
0.0
 11
-149.3409561902021
 21
36.01957370426438
 31
0.0
  0
LINE
  5
DB
330
1F
100
AcDbEntity
  8
0
100
AcDbLine
 10
-149.3409561902021
 20
36.01957370426438
 30
0.0
 11
-149.7971401563621
 21
35.66953143554652
 31
0.0
  0
LINE
  5
DC
330
1F
100
AcDbEntity
  8
0
100
AcDbLine
 10
-149.7971401563621
 20
35.66953143554652
 30
0.0
 11
-150.14718242508
 21
35.21334746938648
 31
0.0
  0
LINE
  5
DD
330
1F
100
AcDbEntity
  8
0
100
AcDbLine
 10
-150.14718242508
 20
35.21334746938648
 30
0.0
 11
-150.3672281942148
 21
34.68210998919846
 31
0.0
  0
LINE
  5
DE
330
1F
100
AcDbEntity
  8
0
100
AcDbLine
 10
-150.3672281942148
 20
34.68210998919846
 30
0.0
 11
-150.4422817082428
 21
34.11202195134578
 31
0.0
  0
LINE
  5
DF
330
1F
100
AcDbEntity
  8
0
100
AcDbLine
 10
-150.4422817082428
 20
34.11202195134578
 30
0.0
 11
-150.3672281942148
 21
33.5419339134931
 31
0.0
  0
LINE
  5
E0
330
1F
100
AcDbEntity
  8
0
100
AcDbLine
 10
-150.3672281942148
 20
33.5419339134931
 30
0.0
 11
-150.14718242508
 21
33.01069643330506
 31
0.0
  0
LINE
  5
E1
330
1F
100
AcDbEntity
  8
0
100
AcDbLine
 10
-150.14718242508
 20
33.01069643330506
 30
0.0
 11
-149.7971401563621
 21
32.55451246714504
 31
0.0
  0
LINE
  5
E2
330
1F
100
AcDbEntity
  8
0
100
AcDbLine
 10
-149.7971401563621
 20
32.55451246714504
 30
0.0
 11
-149.3409561902021
 21
32.20447019842717
 31
0.0
  0
LINE
  5
E3
330
1F
100
AcDbEntity
  8
0
100
AcDbLine
 10
-149.3409561902021
 20
32.20447019842717
 30
0.0
 11
-148.809718710014
 21
31.98442442929236
 31
0.0
  0
LINE
  5
E4
330
1F
100
AcDbEntity
  8
0
100
AcDbLine
 10
-148.809718710014
 20
31.98442442929236
 30
0.0
 11
-148.2396306721614
 21
31.90937091526435
 31
0.0
  0
LINE
  5
E5
330
1F
100
AcDbEntity
  8
0
100
AcDbLine
 10
-148.2396306721614
 20
31.90937091526435
 30
0.0
 11
-147.6695426343088
 21
31.98442442929236
 31
0.0
  0
LINE
  5
E6
330
1F
100
AcDbEntity
  8
0
100
AcDbLine
 10
-147.6695426343088
 20
31.98442442929236
 30
0.0
 11
-147.1383051541207
 21
32.20447019842717
 31
0.0
  0
LINE
  5
E7
330
1F
100
AcDbEntity
  8
0
100
AcDbLine
 10
-147.1383051541207
 20
32.20447019842717
 30
0.0
 11
-146.6821211879607
 21
32.55451246714504
 31
0.0
  0
LINE
  5
E8
330
1F
100
AcDbEntity
  8
0
100
AcDbLine
 10
-146.6821211879607
 20
32.55451246714504
 30
0.0
 11
-146.3320789192428
 21
33.01069643330506
 31
0.0
  0
LINE
  5
E9
330
1F
100
AcDbEntity
  8
0
100
AcDbLine
 10
-146.3320789192428
 20
33.01069643330506
 30
0.0
 11
-146.112033150108
 21
33.5419339134931
 31
0.0
  0
LINE
  5
EA
330
1F
100
AcDbEntity
  8
0
100
AcDbLine
 10
-146.112033150108
 20
33.5419339134931
 30
0.0
 11
-146.03697963608
 21
34.11202195134578
 31
0.0
  0
ENDSEC
  0
SECTION
  2
OBJECTS
  0
DICTIONARY
  5
C
330
0
100
AcDbDictionary
  3
ACAD_GROUP
350
D
  3
ACAD_LAYOUT
350
1A
  3
ACAD_MATERIAL
350
3B
  3
ACAD_MLEADERSTYLE
350
10D
  3
ACAD_MLINESTYLE
350
17
  3
ACAD_PLOTSETTINGS
350
19
  3
ACAD_VISUALSTYLE
350
2A
  3
ACDBHEADERROUNDTRIPXREC
350
EB
  3
ACDBVARIABLEDICTIONARY
350
10B
  0
DICTIONARY
  5
D
102
{ACAD_REACTORS
330
C
102
}
330
C
100
AcDbDictionary
  0
DICTIONARY
  5
1A
102
{ACAD_REACTORS
330
C
102
}
330
C
100
AcDbDictionary
  0
DICTIONARY
  5
3B
102
{ACAD_REACTORS
330
C
102
}
330
C
100
AcDbDictionary
  3
BYBLOCK
350
3D
  3
BYLAYER
350
3C
  3
GLOBAL
350
3E
  0
DICTIONARY
  5
10D
102
{ACAD_REACTORS
330
C
102
}
330
C
100
AcDbDictionary
  0
DICTIONARY
  5
17
102
{ACAD_REACTORS
330
C
102
}
330
C
100
AcDbDictionary
  3
STANDARD
350
18
  0
DICTIONARY
  5
19
102
{ACAD_REACTORS
330
C
102
}
330
C
100
AcDbDictionary
  0
DICTIONARY
  5
2A
102
{ACAD_REACTORS
330
C
102
}
330
C
100
AcDbDictionary
  3
2DWIREFRAME
350
2F
  3
3D_HIDDEN
350
31
  3
3DWIREFRAME
350
30
  3
BASIC
350
32
  3
BRIGHTEN
350
36
  3
COLORCHANGE
350
3A
  3
CONCEPTUAL
350
34
  3
DIM
350
35
  3
FACEPATTERN
350
39
  3
FLAT
350
2B
  3
FLATWITHEDGES
350
2C
  3
GOURAUD
350
2D
  3
GOURAUDWITHEDGES
350
2E
  3
LINEPATTERN
350
38
  3
REALISTIC
350
33
  3
THICKEN
350
37
  0
DICTIONARY
  5
EB
102
{ACAD_REACTORS
330
C
102
}
330
C
100
AcDbDictionary
  3
CEPSNTYPE
350
F4
  3
DIMSTYLEDATA
350
10A
  3
FINGERPRINTGUID
350
F5
  3
HYPERLINKBASE
350
EE
  3
INSUNITS
350
F3
  3
LAYOUTDICT
350
F0
  3
LWETCUNION
350
F2
  3
PLOTSETDICT
350
F1
  3
PSVPSCALE
350
F7
  3
PUCSBASE
350
FA
  3
PUCSORGBACK
350
100
  3
PUCSORGBOTTOM
350
FC
  3
PUCSORGFRONT
350
FF
  3
PUCSORGLEFT
350
FD
  3
PUCSORGRIGHT
350
FE
  3
PUCSORGTOP
350
FB
  3
PUCSORTHOREF
350
F8
  3
PUCSORTHOVIEW
350
F9
  3
STYLESHEET
350
EF
  3
TSTACKALIGN
350
EC
  3
TSTACKSIZE
350
ED
  3
UCSBASE
350
103
  3
UCSORGBACK
350
109
  3
UCSORGBOTTOM
350
105
  3
UCSORGFRONT
350
108
  3
UCSORGLEFT
350
106
  3
UCSORGRIGHT
350
107
  3
UCSORGTOP
350
104
  3
UCSORTHOREF
350
101
  3
UCSORTHOVIEW
350
102
  3
VERSIONGUID
350
F6
  0
DICTIONARY
  5
10B
102
{ACAD_REACTORS
330
C
102
}
330
C
100
AcDbDictionary
  3
DIMASSOC
350
10E
  3
HIDETEXT
350
10F
  0
MATERIAL
  5
3D
102
{ACAD_REACTORS
330
3B
102
}
102
{ACAD_XDICTIONARY
360
112
102
}
330
3B
100
AcDbMaterial
  1
ByBlock
  0
MATERIAL
  5
3C
102
{ACAD_REACTORS
330
3B
102
}
102
{ACAD_XDICTIONARY
360
110
102
}
330
3B
100
AcDbMaterial
  1
ByLayer
  0
MATERIAL
  5
3E
102
{ACAD_REACTORS
330
3B
102
}
102
{ACAD_XDICTIONARY
360
114
102
}
330
3B
100
AcDbMaterial
  1
Global
  0
MLINESTYLE
  5
18
102
{ACAD_REACTORS
330
17
102
}
330
17
100
AcDbMlineStyle
  2
Standard
 70
     0
  3

 62
   256
 51
90.0
 52
90.0
 71
     2
 49
0.5
 62
   256
  6
BYLAYER
 49
-0.5
 62
   256
  6
BYLAYER
  0
ACAD_PROXY_OBJECT
  5
2F
102
{ACAD_REACTORS
330
2A
102
}
330
2A
100
AcDbProxyObject
 90
      499
 91
      501
 93
      436
310
42CC9915DA5C99599C985B595049028333333333333E3BF0000000000000FB0107901411070040501600405405064090741402480A0340
1001
ACAD
1000
AcDbSavedByObjectVersion
1070
     0
  0
ACAD_PROXY_OBJECT
  5
31
102
{ACAD_REACTORS
330
2A
102
}
330
2A
100
AcDbProxyObject
 90
      499
 91
      501
 93
      500
310
424CD108121A5919195B90640502408333333333333E3BF0000000000000FB01079024090700405020000000000001110200405405064090740C02480A0340
1001
ACAD
1000
AcDbSavedByObjectVersion
1070
     0
  0
ACAD_PROXY_OBJECT
  5
30
102
{ACAD_REACTORS
330
2A
102
}
330
2A
100
AcDbProxyObject
 90
      499
 91
      501
 93
      436
310
42CCD915DA5C99599C985B595059028333333333333E3BF0000000000000FB0107901411070040501600405405064090741402480A0340
1001
ACAD
1000
AcDbSavedByObjectVersion
1070
     0
  0
ACAD_PROXY_OBJECT
  5
32
102
{ACAD_REACTORS
330
2A
102
}
330
2A
100
AcDbProxyObject
 90
      499
 91
      501
 93
      388
310
4150985CDA58D07406404333333333333E3BF0000000000000FB0107A41107004050150841D405064090741402480A0350
1001
ACAD
1000
AcDbSavedByObjectVersion
1070
     0
  0
ACAD_PROXY_OBJECT
  5
36
102
{ACAD_REACTORS
330
2A
102
}
330
2A
100
AcDbProxyObject
 90
      499
 91
      501
 93
      428
310
42109C9A59DA1D195B90C409028333333333333E3BF0000000000000FB010790141107004050150841D405064090741402480A029950
1001
ACAD
1000
AcDbSavedByObjectVersion
1070
     0
  0
ACAD_PROXY_OBJECT
  5
3A
102
{ACAD_REACTORS
330
2A
102
}
330
2A
100
AcDbProxyObject
 90
      499
 91
      501
 93
      452
310
42D0DBDB1BDC90DA185B99D95104090240C333333333333E3BF0000000000000FB0108901411070040501508421405064090741402480A0350
1001
ACAD
1000
AcDbSavedByObjectVersion
1070
     0
  0
ACAD_PROXY_OBJECT
  5
34
102
{ACAD_REACTORS
330
2A
102
}
330
2A
100
AcDbProxyObject
 90
      499
 91
      501
 93
      500
310
4290DBDB98D95C1D1D585B10940D028333333333333E3BF0000000000000FB0107902409070040501000000000000111010841D405064090740C02480A0340
1001
ACAD
1000
AcDbSavedByObjectVersion
1070
     0
  0
ACAD_PROXY_OBJECT
  5
35
102
{ACAD_REACTORS
330
2A
102
}
330
2A
100
AcDbProxyObject
 90
      499
 91
      501
 93
      412
310
40D11A5B50B409028333333333333E3BF0000000000000FB010790141107004050150841D405064090741402480A02677FFFFFD0
1001
ACAD
1000
AcDbSavedByObjectVersion
1070
     0
  0
ACAD_PROXY_OBJECT
  5
39
102
{ACAD_REACTORS
330
2A
102
}
330
2A
100
AcDbProxyObject
 90
      499
 91
      501
 93
      444
310
42D19858D95C185D1D195C9B90F409028333333333333E3BF0000000000000FB010790141107004050150841D405064090741402480A0350
1001
ACAD
1000
AcDbSavedByObjectVersion
1070
     0
  0
ACAD_PROXY_OBJECT
  5
2B
102
{ACAD_REACTORS
330
2A
102
}
330
2A
100
AcDbProxyObject
 90
      499
 91
      501
 93
      388
310
41119B185D240901404333333333333E3BF0000000000000F9010740A41107004050150841D405064090741402480A1B50
1001
ACAD
1000
AcDbSavedByObjectVersion
1070
     0
  0
ACAD_PROXY_OBJECT
  5
2C
102
{ACAD_REACTORS
330
2A
102
}
330
2A
100
AcDbProxyObject
 90
      499
 91
      501
 93
      476
310
43519B185D15DA5D1A115919D95CD0140901404333333333333E3BF0000000000000F9010740901411070040501600405405064090741402480A1B50
1001
ACAD
1000
AcDbSavedByObjectVersion
1070
     0
  0
ACAD_PROXY_OBJECT
  5
2D
102
{ACAD_REACTORS
330
2A
102
}
330
2A
100
AcDbProxyObject
 90
      499
 91
      501
 93
      412
310
41D1DBDD5C985D5910240902404333333333333E3BF0000000000000F9010740A411070040501641D405064090741402480A1B50
1001
ACAD
1000
AcDbSavedByObjectVersion
1070
     0
  0
ACAD_PROXY_OBJECT
  5
2E
102
{ACAD_REACTORS
330
2A
102
}
330
2A
100
AcDbProxyObject
 90
      499
 91
      501
 93
      500
310
4411DBDD5C985D5915DA5D1A115919D95CD0340902404333333333333E3BF0000000000000F9010740901411070040501600405405064090741402480A1B50
1001
ACAD
1000
AcDbSavedByObjectVersion
1070
     0
  0
ACAD_PROXY_OBJECT
  5
38
102
{ACAD_REACTORS
330
2A
102
}
330
2A
100
AcDbProxyObject
 90
      499
 91
      501
 93
      444
310
42D31A5B995C185D1D195C9B90E409028333333333333E3BF0000000000000FB010790141107004050750841D405064090741402483A0350
1001
ACAD
1000
AcDbSavedByObjectVersion
1070
     0
  0
ACAD_PROXY_OBJECT
  5
33
102
{ACAD_REACTORS
330
2A
102
}
330
2A
100
AcDbProxyObject
 90
      499
 91
      501
 93
      420
310
425499585B1A5CDD1A58D08409028333333333333E3BF0000000000000FB01079019070040501508421405064090741402480A1B40
1001
ACAD
1000
AcDbSavedByObjectVersion
1070
     0
  0
ACAD_PROXY_OBJECT
  5
37
102
{ACAD_REACTORS
330
2A
102
}
330
2A
100
AcDbProxyObject
 90
      499
 91
      501
 93
      412
310
41D51A1A58DAD95B90D409028333333333333E3BF0000000000000FB010790141107004050150C41D405064090741402480A0350
1001
ACAD
1000
AcDbSavedByObjectVersion
1070
     0
  0
XRECORD
  5
F4
102
{ACAD_REACTORS
330
EB
102
}
330
EB
100
AcDbXrecord
 90
        0
  0
XRECORD
  5
10A
102
{ACAD_REACTORS
330
EB
102
}
330
EB
100
AcDbXrecord
1000
DSTYLE
1002
{
1070
   340
340
11
1002
}
  0
XRECORD
  5
F5
102
{ACAD_REACTORS
330
EB
102
}
330
EB
100
AcDbXrecord
  1
{1BCD2BE7-1A65-4E6B-A599-D95DE30B3D80}
  0
XRECORD
  5
EE
102
{ACAD_REACTORS
330
EB
102
}
330
EB
100
AcDbXrecord
  1

  0
XRECORD
  5
F3
102
{ACAD_REACTORS
330
EB
102
}
330
EB
100
AcDbXrecord
 90
        1
  0
XRECORD
  5
F0
102
{ACAD_REACTORS
330
EB
102
}
330
EB
100
AcDbXrecord
340
1A
  0
XRECORD
  5
F2
102
{ACAD_REACTORS
330
EB
102
}
330
EB
100
AcDbXrecord
 90
    10781
  0
XRECORD
  5
F1
102
{ACAD_REACTORS
330
EB
102
}
330
EB
100
AcDbXrecord
340
19
  0
XRECORD
  5
F7
102
{ACAD_REACTORS
330
EB
102
}
330
EB
100
AcDbXrecord
 40
0.0
  0
XRECORD
  5
FA
102
{ACAD_REACTORS
330
EB
102
}
330
EB
100
AcDbXrecord
340
0
  0
XRECORD
  5
100
102
{ACAD_REACTORS
330
EB
102
}
330
EB
100
AcDbXrecord
 10
0.0
 20
0.0
 30
0.0
  0
XRECORD
  5
FC
102
{ACAD_REACTORS
330
EB
102
}
330
EB
100
AcDbXrecord
 10
0.0
 20
0.0
 30
0.0
  0
XRECORD
  5
FF
102
{ACAD_REACTORS
330
EB
102
}
330
EB
100
AcDbXrecord
 10
0.0
 20
0.0
 30
0.0
  0
XRECORD
  5
FD
102
{ACAD_REACTORS
330
EB
102
}
330
EB
100
AcDbXrecord
 10
0.0
 20
0.0
 30
0.0
  0
XRECORD
  5
FE
102
{ACAD_REACTORS
330
EB
102
}
330
EB
100
AcDbXrecord
 10
0.0
 20
0.0
 30
0.0
  0
XRECORD
  5
FB
102
{ACAD_REACTORS
330
EB
102
}
330
EB
100
AcDbXrecord
 10
0.0
 20
0.0
 30
0.0
  0
XRECORD
  5
F8
102
{ACAD_REACTORS
330
EB
102
}
330
EB
100
AcDbXrecord
340
0
  0
XRECORD
  5
F9
102
{ACAD_REACTORS
330
EB
102
}
330
EB
100
AcDbXrecord
 70
     0
  0
XRECORD
  5
EF
102
{ACAD_REACTORS
330
EB
102
}
330
EB
100
AcDbXrecord
  1

  0
XRECORD
  5
EC
102
{ACAD_REACTORS
330
EB
102
}
330
EB
100
AcDbXrecord
 90
        1
  0
XRECORD
  5
ED
102
{ACAD_REACTORS
330
EB
102
}
330
EB
100
AcDbXrecord
 90
       70
  0
XRECORD
  5
103
102
{ACAD_REACTORS
330
EB
102
}
330
EB
100
AcDbXrecord
340
0
  0
XRECORD
  5
109
102
{ACAD_REACTORS
330
EB
102
}
330
EB
100
AcDbXrecord
 10
0.0
 20
0.0
 30
0.0
  0
XRECORD
  5
105
102
{ACAD_REACTORS
330
EB
102
}
330
EB
100
AcDbXrecord
 10
0.0
 20
0.0
 30
0.0
  0
XRECORD
  5
108
102
{ACAD_REACTORS
330
EB
102
}
330
EB
100
AcDbXrecord
 10
0.0
 20
0.0
 30
0.0
  0
XRECORD
  5
106
102
{ACAD_REACTORS
330
EB
102
}
330
EB
100
AcDbXrecord
 10
0.0
 20
0.0
 30
0.0
  0
XRECORD
  5
107
102
{ACAD_REACTORS
330
EB
102
}
330
EB
100
AcDbXrecord
 10
0.0
 20
0.0
 30
0.0
  0
XRECORD
  5
104
102
{ACAD_REACTORS
330
EB
102
}
330
EB
100
AcDbXrecord
 10
0.0
 20
0.0
 30
0.0
  0
XRECORD
  5
101
102
{ACAD_REACTORS
330
EB
102
}
330
EB
100
AcDbXrecord
340
0
  0
XRECORD
  5
102
102
{ACAD_REACTORS
330
EB
102
}
330
EB
100
AcDbXrecord
 70
     0
  0
XRECORD
  5
F6
102
{ACAD_REACTORS
330
EB
102
}
330
EB
100
AcDbXrecord
  1
{FAEB1C32-E019-11D5-929B-00C0DF256EC4}
  0
DICTIONARYVAR
  5
10E
102
{ACAD_REACTORS
330
10B
102
}
330
10B
100
DictionaryVariables
280
     0
  1
2
  0
DICTIONARYVAR
  5
10F
102
{ACAD_REACTORS
330
10B
102
}
330
10B
100
DictionaryVariables
280
     0
  1
1
  0
DICTIONARY
  5
112
330
3D
100
AcDbDictionary
280
     1
  3
ACAD_XREC_ROUNDTRIP
360
113
  0
DICTIONARY
  5
110
330
3C
100
AcDbDictionary
280
     1
  3
ACAD_XREC_ROUNDTRIP
360
111
  0
DICTIONARY
  5
114
330
3E
100
AcDbDictionary
280
     1
  3
ACAD_XREC_ROUNDTRIP
360
115
  0
XRECORD
  5
113
102
{ACAD_REACTORS
330
112
102
}
330
112
100
AcDbXrecord
102
MATERIAL
148
0.0
149
0.0
149
0.0
 93
        0
 94
      127
282
     0
 72
     1
 77
     1
171
     1
175
     1
179
     1
273
     0
  0
XRECORD
  5
111
102
{ACAD_REACTORS
330
110
102
}
330
110
100
AcDbXrecord
102
MATERIAL
148
0.0
149
0.0
149
0.0
 93
        0
 94
      127
282
     0
 72
     1
 77
     1
171
     1
175
     1
179
     1
273
     0
  0
XRECORD
  5
115
102
{ACAD_REACTORS
330
114
102
}
330
114
100
AcDbXrecord
102
MATERIAL
148
0.0
149
0.0
149
0.0
 93
        0
 94
      127
282
     0
 72
     1
 77
     1
171
     1
175
     1
179
     1
273
     0
  0
ENDSEC
  0
EOF
