  0
SECTION
  2
HEADER
  9
$ACADVER
  1
AC1014
  9
$ACADMAINTVER
 70
     9
  9
$DWGCODEPAGE
  3
ANSI_1252
  9
$INSBASE
 10
0.0
 20
0.0
 30
0.0
  9
$EXTMIN
 10
1.000000000000000E+20
 20
1.000000000000000E+20
 30
1.000000000000000E+20
  9
$EXTMAX
 10
-1.000000000000000E+20
 20
-1.000000000000000E+20
 30
-1.000000000000000E+20
  9
$LIMMIN
 10
0.0
 20
0.0
  9
$LIMMAX
 10
12.0
 20
9.0
  9
$ORTHOMODE
 70
     0
  9
$REGENMODE
 70
     1
  9
$FILLMODE
 70
     1
  9
$QTEXTMODE
 70
     0
  9
$MIRRTEXT
 70
     1
  9
$DRAGMODE
 70
     2
  9
$LTSCALE
 40
1.0
  9
$OSMODE
 70
    37
  9
$ATTMODE
 70
     1
  9
$TEXTSIZE
 40
0.2
  9
$TRACEWID
 40
0.05
  9
$TEXTSTYLE
  7
STANDARD
  9
$CLAYER
  8
0
  9
$CELTYPE
  6
BYLAYER
  9
$CECOLOR
 62
   256
  9
$CELTSCALE
 40
1.0
  9
$DELOBJ
 70
     1
  9
$DISPSILH
 70
     0
  9
$DIMSCALE
 40
1.0
  9
$DIMASZ
 40
0.18
  9
$DIMEXO
 40
0.0625
  9
$DIMDLI
 40
0.38
  9
$DIMRND
 40
0.0
  9
$DIMDLE
 40
0.0
  9
$DIMEXE
 40
0.18
  9
$DIMTP
 40
0.0
  9
$DIMTM
 40
0.0
  9
$DIMTXT
 40
0.18
  9
$DIMCEN
 40
0.09
  9
$DIMTSZ
 40
0.0
  9
$DIMTOL
 70
     0
  9
$DIMLIM
 70
     0
  9
$DIMTIH
 70
     1
  9
$DIMTOH
 70
     1
  9
$DIMSE1
 70
     0
  9
$DIMSE2
 70
     0
  9
$DIMTAD
 70
     0
  9
$DIMZIN
 70
     0
  9
$DIMBLK
  1

  9
$DIMASO
 70
     1
  9
$DIMSHO
 70
     1
  9
$DIMPOST
  1

  9
$DIMAPOST
  1

  9
$DIMALT
 70
     0
  9
$DIMALTD
 70
     2
  9
$DIMALTF
 40
25.4
  9
$DIMLFAC
 40
1.0
  9
$DIMTOFL
 70
     0
  9
$DIMTVP
 40
0.0
  9
$DIMTIX
 70
     0
  9
$DIMSOXD
 70
     0
  9
$DIMSAH
 70
     0
  9
$DIMBLK1
  1

  9
$DIMBLK2
  1

  9
$DIMSTYLE
  2
STANDARD
  9
$DIMCLRD
 70
     0
  9
$DIMCLRE
 70
     0
  9
$DIMCLRT
 70
     0
  9
$DIMTFAC
 40
1.0
  9
$DIMGAP
 40
0.09
  9
$DIMJUST
 70
     0
  9
$DIMSD1
 70
     0
  9
$DIMSD2
 70
     0
  9
$DIMTOLJ
 70
     1
  9
$DIMTZIN
 70
     0
  9
$DIMALTZ
 70
     0
  9
$DIMALTTZ
 70
     0
  9
$DIMFIT
 70
     3
  9
$DIMUPT
 70
     0
  9
$DIMUNIT
 70
     2
  9
$DIMDEC
 70
     4
  9
$DIMTDEC
 70
     4
  9
$DIMALTU
 70
     2
  9
$DIMALTTD
 70
     2
  9
$DIMTXSTY
  7
STANDARD
  9
$DIMAUNIT
 70
     0
  9
$LUNITS
 70
     2
  9
$LUPREC
 70
     4
  9
$SKETCHINC
 40
0.1
  9
$FILLETRAD
 40
0.5
  9
$AUNITS
 70
     0
  9
$AUPREC
 70
     0
  9
$MENU
  1
.
  9
$ELEVATION
 40
0.0
  9
$PELEVATION
 40
0.0
  9
$THICKNESS
 40
0.0
  9
$LIMCHECK
 70
     0
  9
$CHAMFERA
 40
0.5
  9
$CHAMFERB
 40
0.5
  9
$CHAMFERC
 40
1.0
  9
$CHAMFERD
 40
0.0
  9
$SKPOLY
 70
     0
  9
$TDCREATE
 40
2456306.996921887
  9
$TDUPDATE
 40
2456306.996921898
  9
$TDINDWG
 40
0.0000000116
  9
$TDUSRTIMER
 40
0.0000000116
  9
$USRTIMER
 70
     1
  9
$ANGBASE
 50
0.0
  9
$ANGDIR
 70
     0
  9
$PDMODE
 70
     0
  9
$PDSIZE
 40
0.0
  9
$PLINEWID
 40
0.0
  9
$COORDS
 70
     1
  9
$SPLFRAME
 70
     0
  9
$SPLINETYPE
 70
     6
  9
$SPLINESEGS
 70
     8
  9
$ATTDIA
 70
     0
  9
$ATTREQ
 70
     1
  9
$HANDLING
 70
     1
  9
$HANDSEED
  5
1C8
  9
$SURFTAB1
 70
     6
  9
$SURFTAB2
 70
     6
  9
$SURFTYPE
 70
     6
  9
$SURFU
 70
     6
  9
$SURFV
 70
     6
  9
$UCSNAME
  2

  9
$UCSORG
 10
0.0
 20
0.0
 30
0.0
  9
$UCSXDIR
 10
1.0
 20
0.0
 30
0.0
  9
$UCSYDIR
 10
0.0
 20
1.0
 30
0.0
  9
$PUCSNAME
  2

  9
$PUCSORG
 10
0.0
 20
0.0
 30
0.0
  9
$PUCSXDIR
 10
1.0
 20
0.0
 30
0.0
  9
$PUCSYDIR
 10
0.0
 20
1.0
 30
0.0
  9
$USERI1
 70
     0
  9
$USERI2
 70
     0
  9
$USERI3
 70
     0
  9
$USERI4
 70
     0
  9
$USERI5
 70
     0
  9
$USERR1
 40
0.0
  9
$USERR2
 40
0.0
  9
$USERR3
 40
0.0
  9
$USERR4
 40
0.0
  9
$USERR5
 40
0.0
  9
$WORLDVIEW
 70
     1
  9
$SHADEDGE
 70
     3
  9
$SHADEDIF
 70
    70
  9
$TILEMODE
 70
     1
  9
$MAXACTVP
 70
    64
  9
$PINSBASE
 10
0.0
 20
0.0
 30
0.0
  9
$PLIMCHECK
 70
     0
  9
$PEXTMIN
 10
1.000000000000000E+20
 20
1.000000000000000E+20
 30
1.000000000000000E+20
  9
$PEXTMAX
 10
-1.000000000000000E+20
 20
-1.000000000000000E+20
 30
-1.000000000000000E+20
  9
$PLIMMIN
 10
0.0
 20
0.0
  9
$PLIMMAX
 10
12.0
 20
9.0
  9
$UNITMODE
 70
     0
  9
$VISRETAIN
 70
     1
  9
$PLINEGEN
 70
     0
  9
$PSLTSCALE
 70
     1
  9
$TREEDEPTH
 70
  3020
  9
$PICKSTYLE
 70
     1
  9
$CMLSTYLE
  2
STANDARD
  9
$CMLJUST
 70
     0
  9
$CMLSCALE
 40
1.0
  9
$PROXYGRAPHICS
 70
     1
  9
$MEASUREMENT
 70
     0
  0
ENDSEC
  0
SECTION
  2
CLASSES
  0
CLASS
  1
ACDBDICTIONARYWDFLT
  2
AcDbDictionaryWithDefault
  3
ObjectDBX Classes
 90
        0
280
     0
281
     0
  0
CLASS
  1
VISUALSTYLE
  2
AcDbVisualStyle
  3
ObjectDBX Classes
 90
     4095
280
     0
281
     0
  0
CLASS
  1
MATERIAL
  2
AcDbMaterial
  3
ObjectDBX Classes
 90
     1153
280
     0
281
     0
  0
CLASS
  1
DICTIONARYVAR
  2
AcDbDictionaryVar
  3
ObjectDBX Classes
 90
        0
280
     0
281
     0
  0
CLASS
  1
XRECORD
  2
AcDbXrecord
  3
AutoCAD 2000
 90
        0
280
     0
281
     0
  0
CLASS
  1
LWPOLYLINE
  2
AcDbPolyline
  3
AutoCAD 2000
 90
        0
280
     0
281
     1
  0
CLASS
  1
HATCH
  2
AcDbHatch
  3
AutoCAD 2000
 90
        0
280
     0
281
     1
  0
CLASS
  1
ACDBPLACEHOLDER
  2
AcDbPlaceHolder
  3
ObjectDBX Classes
 90
        0
280
     0
281
     0
  0
CLASS
  1
LAYOUT
  2
AcDbLayout
  3
ObjectDBX Classes
 90
        0
280
     0
281
     0
  0
ENDSEC
  0
SECTION
  2
TABLES
  0
TABLE
  2
VPORT
  5
8
330
0
100
AcDbSymbolTable
 70
     1
  0
VPORT
  5
29
330
8
100
AcDbSymbolTableRecord
100
AcDbViewportTableRecord
  2
*ACTIVE
 70
     0
 10
0.0
 20
0.0
 11
1.0
 21
1.0
 12
0.0
 22
0.0
 13
0.0
 23
0.0
 14
0.5
 24
0.5
 15
0.5
 25
0.5
 16
0.0
 26
0.0
 36
1.0
 17
0.0
 27
0.0
 37
-1000.0
 40
328.3281124132146
 41
2.050884955752212
 42
50.0
 43
520.6618673997378
 44
672.4498205454613
 50
0.0
 51
0.0
 71
     0
 72
   100
 73
     1
 74
     3
 75
     0
 76
     0
 77
     0
 78
     0
  0
ENDTAB
  0
TABLE
  2
LTYPE
  5
5
330
0
100
AcDbSymbolTable
 70
     1
  0
LTYPE
  5
14
330
5
100
AcDbSymbolTableRecord
100
AcDbLinetypeTableRecord
  2
BYBLOCK
 70
     0
  3

 72
    65
 73
     0
 40
0.0
  0
LTYPE
  5
15
330
5
100
AcDbSymbolTableRecord
100
AcDbLinetypeTableRecord
  2
BYLAYER
 70
     0
  3

 72
    65
 73
     0
 40
0.0
  0
LTYPE
  5
16
330
5
100
AcDbSymbolTableRecord
100
AcDbLinetypeTableRecord
  2
CONTINUOUS
 70
     0
  3
Solid line
 72
    65
 73
     0
 40
0.0
  0
ENDTAB
  0
TABLE
  2
LAYER
  5
2
330
0
100
AcDbSymbolTable
 70
     3
  0
LAYER
  5
10
330
2
100
AcDbSymbolTableRecord
100
AcDbLayerTableRecord
  2
0
 70
     0
 62
     7
  6
CONTINUOUS
  0
LAYER
  5
3F
330
2
100
AcDbSymbolTableRecord
100
AcDbLayerTableRecord
  2
PROFILEEDGES
 70
     0
 62
     7
  6
CONTINUOUS
  0
LAYER
  5
40
330
2
100
AcDbSymbolTableRecord
100
AcDbLayerTableRecord
  2
SECTIONCUTEDGES
 70
     0
 62
     7
  6
CONTINUOUS
  0
ENDTAB
  0
TABLE
  2
STYLE
  5
3
330
0
100
AcDbSymbolTable
 70
     1
  0
STYLE
  5
11
330
3
100
AcDbSymbolTableRecord
100
AcDbTextStyleTableRecord
  2
STANDARD
 70
     0
 40
0.0
 41
1.0
 50
0.0
 71
     0
 42
0.2
  3
txt
  4

  0
ENDTAB
  0
TABLE
  2
VIEW
  5
6
330
0
100
AcDbSymbolTable
 70
     0
  0
ENDTAB
  0
TABLE
  2
UCS
  5
7
330
0
100
AcDbSymbolTable
 70
     0
  0
ENDTAB
  0
TABLE
  2
APPID
  5
9
330
0
100
AcDbSymbolTable
 70
     1
  0
APPID
  5
12
330
9
100
AcDbSymbolTableRecord
100
AcDbRegAppTableRecord
  2
ACAD
 70
     0
  0
ENDTAB
  0
TABLE
  2
DIMSTYLE
  5
A
330
0
100
AcDbSymbolTable
 70
     1
  0
DIMSTYLE
105
27
330
A
100
AcDbSymbolTableRecord
100
AcDbDimStyleTableRecord
  2
STANDARD
 70
     0
  3

  4

  5

  6

  7

 40
1.0
 41
0.18
 42
0.0625
 43
0.38
 44
0.18
 45
0.0
 46
0.0
 47
0.0
 48
0.0
140
0.18
141
0.09
142
0.0
143
25.4
144
1.0
145
0.0
146
1.0
147
0.09
 71
     0
 72
     0
 73
     1
 74
     1
 75
     0
 76
     0
 77
     0
 78
     0
170
     0
171
     2
172
     0
173
     0
174
     0
175
     0
176
     0
177
     0
178
     0
270
     2
271
     4
272
     4
273
     2
274
     2
340
11
275
     0
280
     0
281
     0
282
     0
283
     1
284
     0
285
     0
286
     0
287
     3
288
     0
  0
ENDTAB
  0
TABLE
  2
BLOCK_RECORD
  5
1
330
0
100
AcDbSymbolTable
 70
     1
  0
BLOCK_RECORD
  5
1F
330
1
100
AcDbSymbolTableRecord
100
AcDbBlockTableRecord
  2
*MODEL_SPACE
  0
BLOCK_RECORD
  5
1B
330
1
100
AcDbSymbolTableRecord
100
AcDbBlockTableRecord
  2
*PAPER_SPACE
  0
ENDTAB
  0
ENDSEC
  0
SECTION
  2
BLOCKS
  0
BLOCK
  5
20
330
1F
100
AcDbEntity
  8
0
100
AcDbBlockBegin
  2
*MODEL_SPACE
 70
     0
 10
0.0
 20
0.0
 30
0.0
  3
*MODEL_SPACE
  1

  0
ENDBLK
  5
21
330
1F
100
AcDbEntity
  8
0
100
AcDbBlockEnd
  0
BLOCK
  5
1C
330
1B
100
AcDbEntity
 67
     1
  8
0
100
AcDbBlockBegin
  2
*PAPER_SPACE
 70
     0
 10
0.0
 20
0.0
 30
0.0
  3
*PAPER_SPACE
  1

  0
ENDBLK
  5
1D
330
1B
100
AcDbEntity
 67
     1
  8
0
100
AcDbBlockEnd
  0
ENDSEC
  0
SECTION
  2
ENTITIES
  0
LINE
  5
41
330
1F
100
AcDbEntity
  8
0
100
AcDbLine
 10
-194.3129777014371
 20
-92.3955308799921
 30
0.0
 11
-194.3129777014371
 21
-91.66914125075932
 31
0.0
  0
LINE
  5
42
330
1F
100
AcDbEntity
  8
0
100
AcDbLine
 10
-194.3129777014371
 20
146.4260947753878
 30
0.0
 11
-194.3129777014371
 21
145.6997051461551
 31
0.0
  0
LINE
  5
43
330
1F
100
AcDbEntity
  8
0
100
AcDbLine
 10
-194.3129777014371
 20
-91.66914125075932
 30
0.0
 11
-194.3129777014371
 21
145.6997051461551
 31
0.0
  0
LINE
  5
44
330
1F
100
AcDbEntity
  8
0
100
AcDbLine
 10
-195.0393673306699
 20
145.6997051461551
 30
0.0
 11
-194.3129777014371
 21
145.6997051461551
 31
0.0
  0
LINE
  5
45
330
1F
100
AcDbEntity
  8
0
100
AcDbLine
 10
-77.54737921922639
 20
145.6997051461551
 30
0.0
 11
-78.27376884845916
 21
145.6997051461551
 31
0.0
  0
LINE
  5
46
330
1F
100
AcDbEntity
  8
0
100
AcDbLine
 10
-194.3129777014371
 20
145.6997051461551
 30
0.0
 11
-78.27376884845916
 21
145.6997051461551
 31
0.0
  0
LINE
  5
47
330
1F
100
AcDbEntity
  8
0
100
AcDbLine
 10
201.3018561769935
 20
146.4260947753878
 30
0.0
 11
201.3018561769935
 21
145.6997051461551
 31
0.0
  0
LINE
  5
48
330
1F
100
AcDbEntity
  8
0
100
AcDbLine
 10
201.3018561769935
 20
-92.3955308799921
 30
0.0
 11
201.3018561769935
 21
-91.66914125075932
 31
0.0
  0
LINE
  5
49
330
1F
100
AcDbEntity
  8
0
100
AcDbLine
 10
201.3018561769935
 20
145.6997051461551
 30
0.0
 11
201.3018561769935
 21
-91.66914125075932
 31
0.0
  0
LINE
  5
4A
330
1F
100
AcDbEntity
  8
0
100
AcDbLine
 10
202.0282458062262
 20
-91.66914125075932
 30
0.0
 11
201.3018561769935
 21
-91.66914125075932
 31
0.0
  0
LINE
  5
4B
330
1F
100
AcDbEntity
  8
0
100
AcDbLine
 10
-95.76276505975463
 20
-91.66914125075932
 30
0.0
 11
-95.03637543052184
 21
-91.66914125075932
 31
0.0
  0
LINE
  5
4C
330
1F
100
AcDbEntity
  8
0
100
AcDbLine
 10
201.3018561769935
 20
-91.66914125075932
 30
0.0
 11
-95.03637543052184
 21
-91.66914125075932
 31
0.0
  0
LINE
  5
4D
330
1F
100
AcDbEntity
  8
0
100
AcDbLine
 10
-78.27376884845916
 20
146.4260947753878
 30
0.0
 11
-78.27376884845916
 21
145.6997051461551
 31
0.0
  0
LINE
  5
4E
330
1F
100
AcDbEntity
  8
0
100
AcDbLine
 10
-78.27376884845916
 20
145.6997051461551
 30
0.0
 11
-78.27376884845916
 21
3.879734195541324
 31
0.0
  0
LINE
  5
4F
330
1F
100
AcDbEntity
  8
0
100
AcDbLine
 10
-78.27376884845916
 20
3.879734195541324
 30
0.0
 11
-98.23507966457966
 21
-18.72681535164328
 31
0.0
  0
LINE
  5
50
330
1F
100
AcDbEntity
  8
0
100
AcDbLine
 10
-97.50869003534687
 20
-91.66914125075932
 30
0.0
 11
-98.23507966457966
 21
-91.66914125075932
 31
0.0
  0
LINE
  5
51
330
1F
100
AcDbEntity
  8
0
100
AcDbLine
 10
-195.0393673306699
 20
-91.66914125075932
 30
0.0
 11
-194.3129777014371
 21
-91.66914125075932
 31
0.0
  0
LINE
  5
52
330
1F
100
AcDbEntity
  8
0
100
AcDbLine
 10
-98.23507966457966
 20
-91.66914125075932
 30
0.0
 11
-194.3129777014371
 21
-91.66914125075932
 31
0.0
  0
LINE
  5
53
330
1F
100
AcDbEntity
  8
0
100
AcDbLine
 10
-98.23507966457966
 20
-92.3955308799921
 30
0.0
 11
-98.23507966457966
 21
-91.66914125075932
 31
0.0
  0
LINE
  5
54
330
1F
100
AcDbEntity
  8
0
100
AcDbLine
 10
-98.23507966457966
 20
-18.72681535164328
 30
0.0
 11
-98.23507966457966
 21
-91.66914125075932
 31
0.0
  0
LINE
  5
55
330
1F
100
AcDbEntity
  8
0
100
AcDbLine
 10
-95.03637543052184
 20
-92.3955308799921
 30
0.0
 11
-95.03637543052184
 21
-91.66914125075932
 31
0.0
  0
LINE
  5
56
330
1F
100
AcDbEntity
  8
0
100
AcDbLine
 10
-95.03637543052184
 20
-91.66914125075932
 30
0.0
 11
-95.03637543052184
 21
-18.72681535164328
 31
0.0
  0
LINE
  5
57
330
1F
100
AcDbEntity
  8
0
100
AcDbLine
 10
-95.03637543052184
 20
-18.72681535164328
 30
0.0
 11
-75.62854380754794
 21
3.879734195541324
 31
0.0
  0
LINE
  5
58
330
1F
100
AcDbEntity
  8
0
100
AcDbLine
 10
-76.35493343678071
 20
145.6997197300962
 30
0.0
 11
-75.62854380754794
 21
145.6997196919426
 31
0.0
  0
LINE
  5
59
330
1F
100
AcDbEntity
  8
0
100
AcDbLine
 10
202.0282458062262
 20
145.6997051080014
 30
0.0
 11
201.3018561769935
 21
145.6997051461551
 31
0.0
  0
LINE
  5
5A
330
1F
100
AcDbEntity
  8
0
100
AcDbLine
 10
-75.62854380754794
 20
145.6997196919426
 30
0.0
 11
201.3018561769935
 21
145.6997051461551
 31
0.0
  0
LINE
  5
5B
330
1F
100
AcDbEntity
  8
0
100
AcDbLine
 10
-75.62854380754794
 20
146.4261093211753
 30
0.0
 11
-75.62854380754794
 21
145.6997196919426
 31
0.0
  0
LINE
  5
5C
330
1F
100
AcDbEntity
  8
0
100
AcDbLine
 10
-75.62854380754794
 20
3.879734195541324
 30
0.0
 11
-75.62854380754794
 21
145.6997196919426
 31
0.0
  0
LINE
  5
5D
330
1F
100
AcDbEntity
  8
0
100
AcDbLine
 10
-149.0998572162039
 20
-27.1560120995035
 30
0.0
 11
-149.0998572162039
 21
-27.88240172873628
 31
0.0
  0
LINE
  5
5E
330
1F
100
AcDbEntity
  8
0
100
AcDbLine
 10
-149.0998572162039
 20
-53.47600955002516
 30
0.0
 11
-149.0998572162039
 21
-52.74961992079238
 31
0.0
  0
LINE
  5
5F
330
1F
100
AcDbEntity
  8
0
100
AcDbLine
 10
-149.0998572162039
 20
-27.88240172873628
 30
0.0
 11
-149.0998572162039
 21
-52.74961992079238
 31
0.0
  0
LINE
  5
60
330
1F
100
AcDbEntity
  8
0
100
AcDbLine
 10
-149.8262468454367
 20
-52.74961992079238
 30
0.0
 11
-149.0998572162039
 21
-52.74961992079238
 31
0.0
  0
LINE
  5
61
330
1F
100
AcDbEntity
  8
0
100
AcDbLine
 10
-115.5939638984769
 20
-52.74961992079238
 30
0.0
 11
-116.3203535277097
 21
-52.74961992079238
 31
0.0
  0
LINE
  5
62
330
1F
100
AcDbEntity
  8
0
100
AcDbLine
 10
-149.0998572162039
 20
-52.74961992079238
 30
0.0
 11
-116.3203535277097
 21
-52.74961992079238
 31
0.0
  0
LINE
  5
63
330
1F
100
AcDbEntity
  8
0
100
AcDbLine
 10
-116.3203535277097
 20
-53.47600955002516
 30
0.0
 11
-116.3203535277097
 21
-52.74961992079238
 31
0.0
  0
LINE
  5
64
330
1F
100
AcDbEntity
  8
0
100
AcDbLine
 10
-116.3203535277097
 20
-27.1560120995035
 30
0.0
 11
-116.3203535277097
 21
-27.88240172873628
 31
0.0
  0
LINE
  5
65
330
1F
100
AcDbEntity
  8
0
100
AcDbLine
 10
-116.3203535277097
 20
-52.74961992079238
 30
0.0
 11
-116.3203535277097
 21
-27.88240172873628
 31
0.0
  0
LINE
  5
66
330
1F
100
AcDbEntity
  8
0
100
AcDbLine
 10
-115.5939638984769
 20
-27.88240172873628
 30
0.0
 11
-116.3203535277097
 21
-27.88240172873628
 31
0.0
  0
LINE
  5
67
330
1F
100
AcDbEntity
  8
0
100
AcDbLine
 10
-149.8262468454367
 20
-27.88240172873628
 30
0.0
 11
-149.0998572162039
 21
-27.88240172873628
 31
0.0
  0
LINE
  5
68
330
1F
100
AcDbEntity
  8
0
100
AcDbLine
 10
-116.3203535277097
 20
-27.88240172873628
 30
0.0
 11
-149.0998572162039
 21
-27.88240172873628
 31
0.0
  0
LINE
  5
69
330
1F
100
AcDbEntity
  8
0
100
AcDbLine
 10
-173.4019185146568
 20
0.4238916233156598
 30
0.0
 11
-173.4019185146568
 21
-0.3024980059171157
 31
0.0
  0
LINE
  5
6A
330
1F
100
AcDbEntity
  8
0
100
AcDbLine
 10
-173.4019185146568
 20
-8.149930207283639
 30
0.0
 11
-173.4019185146568
 21
-7.423540578050863
 31
0.0
  0
LINE
  5
6B
330
1F
100
AcDbEntity
  8
0
100
AcDbLine
 10
-173.4019185146568
 20
-0.3024980059171157
 30
0.0
 11
-173.4019185146568
 21
-7.423540578050863
 31
0.0
  0
LINE
  5
6C
330
1F
100
AcDbEntity
  8
0
100
AcDbLine
 10
-174.1283081438896
 20
-7.423540578050863
 30
0.0
 11
-173.4019185146568
 21
-7.423540578050863
 31
0.0
  0
LINE
  5
6D
330
1F
100
AcDbEntity
  8
0
100
AcDbLine
 10
-103.1603479573725
 20
-7.423540578050863
 30
0.0
 11
-103.8867375866052
 21
-7.423540578050863
 31
0.0
  0
LINE
  5
6E
330
1F
100
AcDbEntity
  8
0
100
AcDbLine
 10
-173.4019185146568
 20
-7.423540578050863
 30
0.0
 11
-103.8867375866052
 21
-7.423540578050863
 31
0.0
  0
LINE
  5
6F
330
1F
100
AcDbEntity
  8
0
100
AcDbLine
 10
-103.8867375866052
 20
-8.149930207283639
 30
0.0
 11
-103.8867375866052
 21
-7.423540578050863
 31
0.0
  0
LINE
  5
70
330
1F
100
AcDbEntity
  8
0
100
AcDbLine
 10
-103.8867375866052
 20
0.4238916233156598
 30
0.0
 11
-103.8867375866052
 21
-0.3024980059171157
 31
0.0
  0
LINE
  5
71
330
1F
100
AcDbEntity
  8
0
100
AcDbLine
 10
-103.8867375866052
 20
-7.423540578050863
 30
0.0
 11
-103.8867375866052
 21
-0.3024980059171157
 31
0.0
  0
LINE
  5
72
330
1F
100
AcDbEntity
  8
0
100
AcDbLine
 10
-103.1603479573725
 20
-0.3024980059171157
 30
0.0
 11
-103.8867375866052
 21
-0.3024980059171157
 31
0.0
  0
LINE
  5
73
330
1F
100
AcDbEntity
  8
0
100
AcDbLine
 10
-174.1283081438896
 20
-0.3024980059171157
 30
0.0
 11
-173.4019185146568
 21
-0.3024980059171157
 31
0.0
  0
LINE
  5
74
330
1F
100
AcDbEntity
  8
0
100
AcDbLine
 10
-103.8867375866052
 20
-0.3024980059171157
 30
0.0
 11
-173.4019185146568
 21
-0.3024980059171157
 31
0.0
  0
LINE
  5
75
330
1F
100
AcDbEntity
  8
0
100
AcDbLine
 10
-117.0621133942183
 20
-74.60822623616879
 30
0.0
 11
-117.1431519371069
 21
-73.8964795152772
 31
0.0
  0
LINE
  5
76
330
1F
100
AcDbEntity
  8
0
100
AcDbLine
 10
-117.1431519371069
 20
-73.8964795152772
 30
0.0
 11
-117.4056427652637
 21
-73.22995929407837
 31
0.0
  0
LINE
  5
77
330
1F
100
AcDbEntity
  8
0
100
AcDbLine
 10
-117.4056427652637
 20
-73.22995929407837
 30
0.0
 11
-117.8316975625367
 21
-72.65408782417026
 31
0.0
  0
LINE
  5
78
330
1F
100
AcDbEntity
  8
0
100
AcDbLine
 10
-117.8316975625367
 20
-72.65408782417026
 30
0.0
 11
-118.3922813985805
 21
-72.2081097945545
 31
0.0
  0
LINE
  5
79
330
1F
100
AcDbEntity
  8
0
100
AcDbLine
 10
-118.3922813985805
 20
-72.2081097945545
 30
0.0
 11
-119.0491914113771
 21
-71.92241787093589
 31
0.0
  0
LINE
  5
7A
330
1F
100
AcDbEntity
  8
0
100
AcDbLine
 10
-119.0491914113771
 20
-71.92241787093589
 30
0.0
 11
-119.7576602691498
 21
-71.81648148578078
 31
0.0
  0
LINE
  5
7B
330
1F
100
AcDbEntity
  8
0
100
AcDbLine
 10
-119.7576602691498
 20
-71.81648148578078
 30
0.0
 11
-120.4694069900414
 21
-71.89752002866935
 31
0.0
  0
LINE
  5
7C
330
1F
100
AcDbEntity
  8
0
100
AcDbLine
 10
-120.4694069900414
 20
-71.89752002866935
 30
0.0
 11
-121.1359272112402
 21
-72.16001085682628
 31
0.0
  0
LINE
  5
7D
330
1F
100
AcDbEntity
  8
0
100
AcDbLine
 10
-121.1359272112402
 20
-72.16001085682628
 30
0.0
 11
-121.7117986811483
 21
-72.58606565409923
 31
0.0
  0
LINE
  5
7E
330
1F
100
AcDbEntity
  8
0
100
AcDbLine
 10
-121.7117986811483
 20
-72.58606565409923
 30
0.0
 11
-122.157776710764
 21
-73.14664949014296
 31
0.0
  0
LINE
  5
7F
330
1F
100
AcDbEntity
  8
0
100
AcDbLine
 10
-122.157776710764
 20
-73.14664949014296
 30
0.0
 11
-122.4434686343827
 21
-73.80355950293962
 31
0.0
  0
LINE
  5
80
330
1F
100
AcDbEntity
  8
0
100
AcDbLine
 10
-122.4434686343827
 20
-73.80355950293962
 30
0.0
 11
-122.5494050195378
 21
-74.5120283607123
 31
0.0
  0
LINE
  5
81
330
1F
100
AcDbEntity
  8
0
100
AcDbLine
 10
-122.5494050195378
 20
-74.5120283607123
 30
0.0
 11
-122.4683664766492
 21
-75.22377508160389
 31
0.0
  0
LINE
  5
82
330
1F
100
AcDbEntity
  8
0
100
AcDbLine
 10
-122.4683664766492
 20
-75.22377508160389
 30
0.0
 11
-122.2058756484923
 21
-75.89029530280273
 31
0.0
  0
LINE
  5
83
330
1F
100
AcDbEntity
  8
0
100
AcDbLine
 10
-122.2058756484923
 20
-75.89029530280273
 30
0.0
 11
-121.7798208512193
 21
-76.46616677271084
 31
0.0
  0
LINE
  5
84
330
1F
100
AcDbEntity
  8
0
100
AcDbLine
 10
-121.7798208512193
 20
-76.46616677271084
 30
0.0
 11
-121.2192370151756
 21
-76.9121448023266
 31
0.0
  0
LINE
  5
85
330
1F
100
AcDbEntity
  8
0
100
AcDbLine
 10
-121.2192370151756
 20
-76.9121448023266
 30
0.0
 11
-120.5623270023789
 21
-77.19783672594521
 31
0.0
  0
LINE
  5
86
330
1F
100
AcDbEntity
  8
0
100
AcDbLine
 10
-120.5623270023789
 20
-77.19783672594521
 30
0.0
 11
-119.8538581446063
 21
-77.3037731111003
 31
0.0
  0
LINE
  5
87
330
1F
100
AcDbEntity
  8
0
100
AcDbLine
 10
-119.8538581446063
 20
-77.3037731111003
 30
0.0
 11
-119.1421114237147
 21
-77.22273456821175
 31
0.0
  0
LINE
  5
88
330
1F
100
AcDbEntity
  8
0
100
AcDbLine
 10
-119.1421114237147
 20
-77.22273456821175
 30
0.0
 11
-118.4755912025158
 21
-76.96024374005482
 31
0.0
  0
LINE
  5
89
330
1F
100
AcDbEntity
  8
0
100
AcDbLine
 10
-118.4755912025158
 20
-76.96024374005482
 30
0.0
 11
-117.8997197326077
 21
-76.53418894278185
 31
0.0
  0
LINE
  5
8A
330
1F
100
AcDbEntity
  8
0
100
AcDbLine
 10
-117.8997197326077
 20
-76.53418894278185
 30
0.0
 11
-117.453741702992
 21
-75.97360510673813
 31
0.0
  0
LINE
  5
8B
330
1F
100
AcDbEntity
  8
0
100
AcDbLine
 10
-117.453741702992
 20
-75.97360510673813
 30
0.0
 11
-117.1680497793734
 21
-75.31669509394146
 31
0.0
  0
LINE
  5
8C
330
1F
100
AcDbEntity
  8
0
100
AcDbLine
 10
-117.1680497793734
 20
-75.31669509394146
 30
0.0
 11
-117.0621133942183
 21
-74.60822623616879
 31
0.0
  0
LINE
  5
8D
330
1F
100
AcDbEntity
  8
0
100
AcDbLine
 10
-103.3671475313761
 20
3.647303536750743
 30
0.0
 11
-103.4596360175916
 21
4.349823336302233
 31
0.0
  0
LINE
  5
8E
330
1F
100
AcDbEntity
  8
0
100
AcDbLine
 10
-103.4596360175916
 20
4.349823336302233
 30
0.0
 11
-103.7307985387472
 21
5.00446757248315
 31
0.0
  0
LINE
  5
8F
330
1F
100
AcDbEntity
  8
0
100
AcDbLine
 10
-103.7307985387472
 20
5.00446757248315
 30
0.0
 11
-104.1621558171431
 21
5.566623322448526
 31
0.0
  0
LINE
  5
90
330
1F
100
AcDbEntity
  8
0
100
AcDbLine
 10
-104.1621558171431
 20
5.566623322448526
 30
0.0
 11
-104.7243115671085
 21
5.99798060084451
 31
0.0
  0
LINE
  5
91
330
1F
100
AcDbEntity
  8
0
100
AcDbLine
 10
-104.7243115671085
 20
5.99798060084451
 30
0.0
 11
-105.3789558032894
 21
6.269143122000016
 31
0.0
  0
LINE
  5
92
330
1F
100
AcDbEntity
  8
0
100
AcDbLine
 10
-105.3789558032894
 20
6.269143122000016
 30
0.0
 11
-106.0814756028409
 21
6.361631608215569
 31
0.0
  0
LINE
  5
93
330
1F
100
AcDbEntity
  8
0
100
AcDbLine
 10
-106.0814756028409
 20
6.361631608215569
 30
0.0
 11
-106.7839954023924
 21
6.269143122000016
 31
0.0
  0
LINE
  5
94
330
1F
100
AcDbEntity
  8
0
100
AcDbLine
 10
-106.7839954023924
 20
6.269143122000016
 30
0.0
 11
-107.4386396385733
 21
5.99798060084451
 31
0.0
  0
LINE
  5
95
330
1F
100
AcDbEntity
  8
0
100
AcDbLine
 10
-107.4386396385733
 20
5.99798060084451
 30
0.0
 11
-108.0007953885387
 21
5.566623322448526
 31
0.0
  0
LINE
  5
96
330
1F
100
AcDbEntity
  8
0
100
AcDbLine
 10
-108.0007953885387
 20
5.566623322448526
 30
0.0
 11
-108.4321526669347
 21
5.004467572483162
 31
0.0
  0
LINE
  5
97
330
1F
100
AcDbEntity
  8
0
100
AcDbLine
 10
-108.4321526669347
 20
5.004467572483162
 30
0.0
 11
-108.7033151880902
 21
4.349823336302233
 31
0.0
  0
LINE
  5
98
330
1F
100
AcDbEntity
  8
0
100
AcDbLine
 10
-108.7033151880902
 20
4.349823336302233
 30
0.0
 11
-108.7958036743057
 21
3.647303536750743
 31
0.0
  0
LINE
  5
99
330
1F
100
AcDbEntity
  8
0
100
AcDbLine
 10
-108.7958036743057
 20
3.647303536750743
 30
0.0
 11
-108.7033151880902
 21
2.944783737199254
 31
0.0
  0
LINE
  5
9A
330
1F
100
AcDbEntity
  8
0
100
AcDbLine
 10
-108.7033151880902
 20
2.944783737199254
 30
0.0
 11
-108.4321526669347
 21
2.290139501018337
 31
0.0
  0
LINE
  5
9B
330
1F
100
AcDbEntity
  8
0
100
AcDbLine
 10
-108.4321526669347
 20
2.290139501018337
 30
0.0
 11
-108.0007953885387
 21
1.727983751052961
 31
0.0
  0
LINE
  5
9C
330
1F
100
AcDbEntity
  8
0
100
AcDbLine
 10
-108.0007953885387
 20
1.727983751052961
 30
0.0
 11
-107.4386396385733
 21
1.296626472656977
 31
0.0
  0
LINE
  5
9D
330
1F
100
AcDbEntity
  8
0
100
AcDbLine
 10
-107.4386396385733
 20
1.296626472656977
 30
0.0
 11
-106.7839954023924
 21
1.025463951501472
 31
0.0
  0
LINE
  5
9E
330
1F
100
AcDbEntity
  8
0
100
AcDbLine
 10
-106.7839954023924
 20
1.025463951501472
 30
0.0
 11
-106.0814756028409
 21
0.9329754652859188
 31
0.0
  0
LINE
  5
9F
330
1F
100
AcDbEntity
  8
0
100
AcDbLine
 10
-106.0814756028409
 20
0.9329754652859188
 30
0.0
 11
-105.3789558032894
 21
1.025463951501472
 31
0.0
  0
LINE
  5
A0
330
1F
100
AcDbEntity
  8
0
100
AcDbLine
 10
-105.3789558032894
 20
1.025463951501472
 30
0.0
 11
-104.7243115671085
 21
1.296626472656977
 31
0.0
  0
LINE
  5
A1
330
1F
100
AcDbEntity
  8
0
100
AcDbLine
 10
-104.7243115671085
 20
1.296626472656977
 30
0.0
 11
-104.1621558171431
 21
1.727983751052961
 31
0.0
  0
LINE
  5
A2
330
1F
100
AcDbEntity
  8
0
100
AcDbLine
 10
-104.1621558171431
 20
1.727983751052961
 30
0.0
 11
-103.7307985387472
 21
2.290139501018325
 31
0.0
  0
LINE
  5
A3
330
1F
100
AcDbEntity
  8
0
100
AcDbLine
 10
-103.7307985387472
 20
2.290139501018325
 30
0.0
 11
-103.4596360175916
 21
2.944783737199254
 31
0.0
  0
LINE
  5
A4
330
1F
100
AcDbEntity
  8
0
100
AcDbLine
 10
-103.4596360175916
 20
2.944783737199254
 30
0.0
 11
-103.3671475313761
 21
3.647303536750743
 31
0.0
  0
LINE
  5
A5
330
1F
100
AcDbEntity
  8
0
100
AcDbLine
 10
-169.0575392826401
 20
3.647303536750743
 30
0.0
 11
-169.1458845703914
 21
4.318352619528215
 31
0.0
  0
LINE
  5
A6
330
1F
100
AcDbEntity
  8
0
100
AcDbLine
 10
-169.1458845703914
 20
4.318352619528215
 30
0.0
 11
-169.4048998482829
 21
4.943670816275448
 31
0.0
  0
LINE
  5
A7
330
1F
100
AcDbEntity
  8
0
100
AcDbLine
 10
-169.4048998482829
 20
4.943670816275448
 30
0.0
 11
-169.8169336531689
 21
5.480643725271299
 31
0.0
  0
LINE
  5
A8
330
1F
100
AcDbEntity
  8
0
100
AcDbLine
 10
-169.8169336531689
 20
5.480643725271299
 30
0.0
 11
-170.3539065621648
 21
5.892677530157391
 31
0.0
  0
LINE
  5
A9
330
1F
100
AcDbEntity
  8
0
100
AcDbLine
 10
-170.3539065621648
 20
5.892677530157391
 30
0.0
 11
-170.979224758912
 21
6.151692808048783
 31
0.0
  0
LINE
  5
AA
330
1F
100
AcDbEntity
  8
0
100
AcDbLine
 10
-170.979224758912
 20
6.151692808048783
 30
0.0
 11
-171.6502738416895
 21
6.240038095800166
 31
0.0
  0
LINE
  5
AB
330
1F
100
AcDbEntity
  8
0
100
AcDbLine
 10
-171.6502738416895
 20
6.240038095800166
 30
0.0
 11
-172.321322924467
 21
6.151692808048783
 31
0.0
  0
LINE
  5
AC
330
1F
100
AcDbEntity
  8
0
100
AcDbLine
 10
-172.321322924467
 20
6.151692808048783
 30
0.0
 11
-172.9466411212142
 21
5.892677530157391
 31
0.0
  0
LINE
  5
AD
330
1F
100
AcDbEntity
  8
0
100
AcDbLine
 10
-172.9466411212142
 20
5.892677530157391
 30
0.0
 11
-173.48361403021
 21
5.480643725271299
 31
0.0
  0
LINE
  5
AE
330
1F
100
AcDbEntity
  8
0
100
AcDbLine
 10
-173.48361403021
 20
5.480643725271299
 30
0.0
 11
-173.8956478350961
 21
4.943670816275461
 31
0.0
  0
LINE
  5
AF
330
1F
100
AcDbEntity
  8
0
100
AcDbLine
 10
-173.8956478350961
 20
4.943670816275461
 30
0.0
 11
-174.1546631129875
 21
4.318352619528215
 31
0.0
  0
LINE
  5
B0
330
1F
100
AcDbEntity
  8
0
100
AcDbLine
 10
-174.1546631129875
 20
4.318352619528215
 30
0.0
 11
-174.2430084007389
 21
3.647303536750743
 31
0.0
  0
LINE
  5
B1
330
1F
100
AcDbEntity
  8
0
100
AcDbLine
 10
-174.2430084007389
 20
3.647303536750743
 30
0.0
 11
-174.1546631129875
 21
2.976254453973272
 31
0.0
  0
LINE
  5
B2
330
1F
100
AcDbEntity
  8
0
100
AcDbLine
 10
-174.1546631129875
 20
2.976254453973272
 30
0.0
 11
-173.8956478350961
 21
2.350936257226039
 31
0.0
  0
LINE
  5
B3
330
1F
100
AcDbEntity
  8
0
100
AcDbLine
 10
-173.8956478350961
 20
2.350936257226039
 30
0.0
 11
-173.48361403021
 21
1.813963348230189
 31
0.0
  0
LINE
  5
B4
330
1F
100
AcDbEntity
  8
0
100
AcDbLine
 10
-173.48361403021
 20
1.813963348230189
 30
0.0
 11
-172.9466411212142
 21
1.401929543344096
 31
0.0
  0
LINE
  5
B5
330
1F
100
AcDbEntity
  8
0
100
AcDbLine
 10
-172.9466411212142
 20
1.401929543344096
 30
0.0
 11
-172.321322924467
 21
1.142914265452704
 31
0.0
  0
LINE
  5
B6
330
1F
100
AcDbEntity
  8
0
100
AcDbLine
 10
-172.321322924467
 20
1.142914265452704
 30
0.0
 11
-171.6502738416895
 21
1.054568977701321
 31
0.0
  0
LINE
  5
B7
330
1F
100
AcDbEntity
  8
0
100
AcDbLine
 10
-171.6502738416895
 20
1.054568977701321
 30
0.0
 11
-170.979224758912
 21
1.142914265452704
 31
0.0
  0
LINE
  5
B8
330
1F
100
AcDbEntity
  8
0
100
AcDbLine
 10
-170.979224758912
 20
1.142914265452704
 30
0.0
 11
-170.3539065621648
 21
1.401929543344096
 31
0.0
  0
LINE
  5
B9
330
1F
100
AcDbEntity
  8
0
100
AcDbLine
 10
-170.3539065621648
 20
1.401929543344096
 30
0.0
 11
-169.8169336531689
 21
1.813963348230189
 31
0.0
  0
LINE
  5
BA
330
1F
100
AcDbEntity
  8
0
100
AcDbLine
 10
-169.8169336531689
 20
1.813963348230189
 30
0.0
 11
-169.4048998482829
 21
2.350936257226026
 31
0.0
  0
LINE
  5
BB
330
1F
100
AcDbEntity
  8
0
100
AcDbLine
 10
-169.4048998482829
 20
2.350936257226026
 30
0.0
 11
-169.1458845703914
 21
2.976254453973259
 31
0.0
  0
LINE
  5
BC
330
1F
100
AcDbEntity
  8
0
100
AcDbLine
 10
-169.1458845703914
 20
2.976254453973259
 30
0.0
 11
-169.0575392826401
 21
3.647303536750743
 31
0.0
  0
LINE
  5
BD
330
1F
100
AcDbEntity
  8
0
100
AcDbLine
 10
-168.9261592651758
 20
97.73102287796094
 30
0.0
 11
-169.0189812184644
 21
98.43607561140408
 31
0.0
  0
LINE
  5
BE
330
1F
100
AcDbEntity
  8
0
100
AcDbLine
 10
-169.0189812184644
 20
98.43607561140408
 30
0.0
 11
-169.2911214156091
 21
99.0930801662178
 31
0.0
  0
LINE
  5
BF
330
1F
100
AcDbEntity
  8
0
100
AcDbLine
 10
-169.2911214156091
 20
99.0930801662178
 30
0.0
 11
-169.7240339519075
 21
99.6572627677429
 31
0.0
  0
LINE
  5
C0
330
1F
100
AcDbEntity
  8
0
100
AcDbLine
 10
-169.7240339519075
 20
99.6572627677429
 30
0.0
 11
-170.2882165534326
 21
100.0901753040413
 31
0.0
  0
LINE
  5
C1
330
1F
100
AcDbEntity
  8
0
100
AcDbLine
 10
-170.2882165534326
 20
100.0901753040413
 30
0.0
 11
-170.9452211082464
 21
100.362315501186
 31
0.0
  0
LINE
  5
C2
330
1F
100
AcDbEntity
  8
0
100
AcDbLine
 10
-170.9452211082464
 20
100.362315501186
 30
0.0
 11
-171.6502738416895
 21
100.4551374544747
 31
0.0
  0
LINE
  5
C3
330
1F
100
AcDbEntity
  8
0
100
AcDbLine
 10
-171.6502738416895
 20
100.4551374544747
 30
0.0
 11
-172.3553265751326
 21
100.362315501186
 31
0.0
  0
LINE
  5
C4
330
1F
100
AcDbEntity
  8
0
100
AcDbLine
 10
-172.3553265751326
 20
100.362315501186
 30
0.0
 11
-173.0123311299464
 21
100.0901753040413
 31
0.0
  0
LINE
  5
C5
330
1F
100
AcDbEntity
  8
0
100
AcDbLine
 10
-173.0123311299464
 20
100.0901753040413
 30
0.0
 11
-173.5765137314715
 21
99.6572627677429
 31
0.0
  0
LINE
  5
C6
330
1F
100
AcDbEntity
  8
0
100
AcDbLine
 10
-173.5765137314715
 20
99.6572627677429
 30
0.0
 11
-174.0094262677699
 21
99.0930801662178
 31
0.0
  0
LINE
  5
C7
330
1F
100
AcDbEntity
  8
0
100
AcDbLine
 10
-174.0094262677699
 20
99.0930801662178
 30
0.0
 11
-174.2815664649146
 21
98.43607561140408
 31
0.0
  0
LINE
  5
C8
330
1F
100
AcDbEntity
  8
0
100
AcDbLine
 10
-174.2815664649146
 20
98.43607561140408
 30
0.0
 11
-174.3743884182032
 21
97.73102287796094
 31
0.0
  0
LINE
  5
C9
330
1F
100
AcDbEntity
  8
0
100
AcDbLine
 10
-174.3743884182032
 20
97.73102287796094
 30
0.0
 11
-174.2815664649146
 21
97.0259701445178
 31
0.0
  0
LINE
  5
CA
330
1F
100
AcDbEntity
  8
0
100
AcDbLine
 10
-174.2815664649146
 20
97.0259701445178
 30
0.0
 11
-174.0094262677699
 21
96.36896558970408
 31
0.0
  0
LINE
  5
CB
330
1F
100
AcDbEntity
  8
0
100
AcDbLine
 10
-174.0094262677699
 20
96.36896558970408
 30
0.0
 11
-173.5765137314715
 21
95.80478298817897
 31
0.0
  0
LINE
  5
CC
330
1F
100
AcDbEntity
  8
0
100
AcDbLine
 10
-173.5765137314715
 20
95.80478298817897
 30
0.0
 11
-173.0123311299464
 21
95.37187045188057
 31
0.0
  0
LINE
  5
CD
330
1F
100
AcDbEntity
  8
0
100
AcDbLine
 10
-173.0123311299464
 20
95.37187045188057
 30
0.0
 11
-172.3553265751326
 21
95.09973025473583
 31
0.0
  0
LINE
  5
CE
330
1F
100
AcDbEntity
  8
0
100
AcDbLine
 10
-172.3553265751326
 20
95.09973025473583
 30
0.0
 11
-171.6502738416895
 21
95.00690830144723
 31
0.0
  0
LINE
  5
CF
330
1F
100
AcDbEntity
  8
0
100
AcDbLine
 10
-171.6502738416895
 20
95.00690830144723
 30
0.0
 11
-170.9452211082464
 21
95.09973025473583
 31
0.0
  0
LINE
  5
D0
330
1F
100
AcDbEntity
  8
0
100
AcDbLine
 10
-170.9452211082464
 20
95.09973025473583
 30
0.0
 11
-170.2882165534326
 21
95.37187045188057
 31
0.0
  0
LINE
  5
D1
330
1F
100
AcDbEntity
  8
0
100
AcDbLine
 10
-170.2882165534326
 20
95.37187045188057
 30
0.0
 11
-169.7240339519075
 21
95.80478298817897
 31
0.0
  0
LINE
  5
D2
330
1F
100
AcDbEntity
  8
0
100
AcDbLine
 10
-169.7240339519075
 20
95.80478298817897
 30
0.0
 11
-169.2911214156091
 21
96.36896558970408
 31
0.0
  0
LINE
  5
D3
330
1F
100
AcDbEntity
  8
0
100
AcDbLine
 10
-169.2911214156091
 20
96.36896558970408
 30
0.0
 11
-169.0189812184644
 21
97.0259701445178
 31
0.0
  0
LINE
  5
D4
330
1F
100
AcDbEntity
  8
0
100
AcDbLine
 10
-169.0189812184644
 20
97.0259701445178
 30
0.0
 11
-168.9261592651758
 21
97.73102287796094
 31
0.0
  0
LINE
  5
D5
330
1F
100
AcDbEntity
  8
0
100
AcDbLine
 10
-103.3215738479256
 20
97.73102287796094
 30
0.0
 11
-103.4156152197477
 21
98.44533801474488
 31
0.0
  0
LINE
  5
D6
330
1F
100
AcDbEntity
  8
0
100
AcDbLine
 10
-103.4156152197477
 20
98.44533801474488
 30
0.0
 11
-103.691330571135
 21
99.11097375541858
 31
0.0
  0
LINE
  5
D7
330
1F
100
AcDbEntity
  8
0
100
AcDbLine
 10
-103.691330571135
 20
99.11097375541858
 30
0.0
 11
-104.1299303565316
 21
99.6825681242702
 31
0.0
  0
LINE
  5
D8
330
1F
100
AcDbEntity
  8
0
100
AcDbLine
 10
-104.1299303565316
 20
99.6825681242702
 30
0.0
 11
-104.7015247253833
 21
100.1211679096669
 31
0.0
  0
LINE
  5
D9
330
1F
100
AcDbEntity
  8
0
100
AcDbLine
 10
-104.7015247253833
 20
100.1211679096669
 30
0.0
 11
-105.367160466057
 21
100.3968832610541
 31
0.0
  0
LINE
  5
DA
330
1F
100
AcDbEntity
  8
0
100
AcDbLine
 10
-105.367160466057
 20
100.3968832610541
 30
0.0
 11
-106.0814756028409
 21
100.4909246328762
 31
0.0
  0
LINE
  5
DB
330
1F
100
AcDbEntity
  8
0
100
AcDbLine
 10
-106.0814756028409
 20
100.4909246328762
 30
0.0
 11
-106.7957907396249
 21
100.3968832610541
 31
0.0
  0
LINE
  5
DC
330
1F
100
AcDbEntity
  8
0
100
AcDbLine
 10
-106.7957907396249
 20
100.3968832610541
 30
0.0
 11
-107.4614264802986
 21
100.1211679096669
 31
0.0
  0
LINE
  5
DD
330
1F
100
AcDbEntity
  8
0
100
AcDbLine
 10
-107.4614264802986
 20
100.1211679096669
 30
0.0
 11
-108.0330208491502
 21
99.6825681242702
 31
0.0
  0
LINE
  5
DE
330
1F
100
AcDbEntity
  8
0
100
AcDbLine
 10
-108.0330208491502
 20
99.6825681242702
 30
0.0
 11
-108.4716206345468
 21
99.11097375541858
 31
0.0
  0
LINE
  5
DF
330
1F
100
AcDbEntity
  8
0
100
AcDbLine
 10
-108.4716206345468
 20
99.11097375541858
 30
0.0
 11
-108.7473359859341
 21
98.44533801474488
 31
0.0
  0
LINE
  5
E0
330
1F
100
AcDbEntity
  8
0
100
AcDbLine
 10
-108.7473359859341
 20
98.44533801474488
 30
0.0
 11
-108.8413773577562
 21
97.73102287796094
 31
0.0
  0
LINE
  5
E1
330
1F
100
AcDbEntity
  8
0
100
AcDbLine
 10
-108.8413773577562
 20
97.73102287796094
 30
0.0
 11
-108.7473359859341
 21
97.016707741177
 31
0.0
  0
LINE
  5
E2
330
1F
100
AcDbEntity
  8
0
100
AcDbLine
 10
-108.7473359859341
 20
97.016707741177
 30
0.0
 11
-108.4716206345468
 21
96.35107200050331
 31
0.0
  0
LINE
  5
E3
330
1F
100
AcDbEntity
  8
0
100
AcDbLine
 10
-108.4716206345468
 20
96.35107200050331
 30
0.0
 11
-108.0330208491502
 21
95.77947763165167
 31
0.0
  0
LINE
  5
E4
330
1F
100
AcDbEntity
  8
0
100
AcDbLine
 10
-108.0330208491502
 20
95.77947763165167
 30
0.0
 11
-107.4614264802986
 21
95.34087784625503
 31
0.0
  0
LINE
  5
E5
330
1F
100
AcDbEntity
  8
0
100
AcDbLine
 10
-107.4614264802986
 20
95.34087784625503
 30
0.0
 11
-106.7957907396249
 21
95.06516249486774
 31
0.0
  0
LINE
  5
E6
330
1F
100
AcDbEntity
  8
0
100
AcDbLine
 10
-106.7957907396249
 20
95.06516249486774
 30
0.0
 11
-106.0814756028409
 21
94.97112112304566
 31
0.0
  0
LINE
  5
E7
330
1F
100
AcDbEntity
  8
0
100
AcDbLine
 10
-106.0814756028409
 20
94.97112112304566
 30
0.0
 11
-105.367160466057
 21
95.06516249486774
 31
0.0
  0
LINE
  5
E8
330
1F
100
AcDbEntity
  8
0
100
AcDbLine
 10
-105.367160466057
 20
95.06516249486774
 30
0.0
 11
-104.7015247253833
 21
95.34087784625503
 31
0.0
  0
LINE
  5
E9
330
1F
100
AcDbEntity
  8
0
100
AcDbLine
 10
-104.7015247253833
 20
95.34087784625503
 30
0.0
 11
-104.1299303565316
 21
95.77947763165167
 31
0.0
  0
LINE
  5
EA
330
1F
100
AcDbEntity
  8
0
100
AcDbLine
 10
-104.1299303565316
 20
95.77947763165167
 30
0.0
 11
-103.691330571135
 21
96.35107200050331
 31
0.0
  0
LINE
  5
EB
330
1F
100
AcDbEntity
  8
0
100
AcDbLine
 10
-103.691330571135
 20
96.35107200050331
 30
0.0
 11
-103.4156152197477
 21
97.016707741177
 31
0.0
  0
LINE
  5
EC
330
1F
100
AcDbEntity
  8
0
100
AcDbLine
 10
-103.4156152197477
 20
97.016707741177
 30
0.0
 11
-103.3215738479256
 21
97.73102287796094
 31
0.0
  0
LINE
  5
ED
330
1F
100
AcDbEntity
  8
0
100
AcDbLine
 10
-84.15152658523569
 20
128.6323235135621
 30
0.0
 11
-84.2430402962772
 21
129.3274391605764
 31
0.0
  0
LINE
  5
EE
330
1F
100
AcDbEntity
  8
0
100
AcDbLine
 10
-84.2430402962772
 20
129.3274391605764
 30
0.0
 11
-84.5113449212278
 21
129.9751838249796
 31
0.0
  0
LINE
  5
EF
330
1F
100
AcDbEntity
  8
0
100
AcDbLine
 10
-84.5113449212278
 20
129.9751838249796
 30
0.0
 11
-84.9381559432915
 21
130.5314147783413
 31
0.0
  0
LINE
  5
F0
330
1F
100
AcDbEntity
  8
0
100
AcDbLine
 10
-84.9381559432915
 20
130.5314147783413
 30
0.0
 11
-85.4943868966532
 21
130.958225800405
 31
0.0
  0
LINE
  5
F1
330
1F
100
AcDbEntity
  8
0
100
AcDbLine
 10
-85.4943868966532
 20
130.958225800405
 30
0.0
 11
-86.14213156105639
 21
131.2265304253556
 31
0.0
  0
LINE
  5
F2
330
1F
100
AcDbEntity
  8
0
100
AcDbLine
 10
-86.14213156105639
 20
131.2265304253556
 30
0.0
 11
-86.83724720807069
 21
131.3180441363971
 31
0.0
  0
LINE
  5
F3
330
1F
100
AcDbEntity
  8
0
100
AcDbLine
 10
-86.83724720807069
 20
131.3180441363971
 30
0.0
 11
-87.532362855085
 21
131.2265304253556
 31
0.0
  0
LINE
  5
F4
330
1F
100
AcDbEntity
  8
0
100
AcDbLine
 10
-87.532362855085
 20
131.2265304253556
 30
0.0
 11
-88.1801075194882
 21
130.958225800405
 31
0.0
  0
LINE
  5
F5
330
1F
100
AcDbEntity
  8
0
100
AcDbLine
 10
-88.1801075194882
 20
130.958225800405
 30
0.0
 11
-88.73633847284988
 21
130.5314147783413
 31
0.0
  0
LINE
  5
F6
330
1F
100
AcDbEntity
  8
0
100
AcDbLine
 10
-88.73633847284988
 20
130.5314147783413
 30
0.0
 11
-89.16314949491358
 21
129.9751838249796
 31
0.0
  0
LINE
  5
F7
330
1F
100
AcDbEntity
  8
0
100
AcDbLine
 10
-89.16314949491358
 20
129.9751838249796
 30
0.0
 11
-89.43145411986418
 21
129.3274391605764
 31
0.0
  0
LINE
  5
F8
330
1F
100
AcDbEntity
  8
0
100
AcDbLine
 10
-89.43145411986418
 20
129.3274391605764
 30
0.0
 11
-89.5229678309057
 21
128.6323235135621
 31
0.0
  0
LINE
  5
F9
330
1F
100
AcDbEntity
  8
0
100
AcDbLine
 10
-89.5229678309057
 20
128.6323235135621
 30
0.0
 11
-89.43145411986418
 21
127.9372078665478
 31
0.0
  0
LINE
  5
FA
330
1F
100
AcDbEntity
  8
0
100
AcDbLine
 10
-89.43145411986418
 20
127.9372078665478
 30
0.0
 11
-89.16314949491358
 21
127.2894632021446
 31
0.0
  0
LINE
  5
FB
330
1F
100
AcDbEntity
  8
0
100
AcDbLine
 10
-89.16314949491358
 20
127.2894632021446
 30
0.0
 11
-88.73633847284988
 21
126.7332322487829
 31
0.0
  0
LINE
  5
FC
330
1F
100
AcDbEntity
  8
0
100
AcDbLine
 10
-88.73633847284988
 20
126.7332322487829
 30
0.0
 11
-88.1801075194882
 21
126.3064212267192
 31
0.0
  0
LINE
  5
FD
330
1F
100
AcDbEntity
  8
0
100
AcDbLine
 10
-88.1801075194882
 20
126.3064212267192
 30
0.0
 11
-87.53236285508501
 21
126.0381166017686
 31
0.0
  0
LINE
  5
FE
330
1F
100
AcDbEntity
  8
0
100
AcDbLine
 10
-87.53236285508501
 20
126.0381166017686
 30
0.0
 11
-86.83724720807069
 21
125.9466028907271
 31
0.0
  0
LINE
  5
FF
330
1F
100
AcDbEntity
  8
0
100
AcDbLine
 10
-86.83724720807069
 20
125.9466028907271
 30
0.0
 11
-86.1421315610564
 21
126.0381166017686
 31
0.0
  0
LINE
  5
100
330
1F
100
AcDbEntity
  8
0
100
AcDbLine
 10
-86.1421315610564
 20
126.0381166017686
 30
0.0
 11
-85.4943868966532
 21
126.3064212267192
 31
0.0
  0
LINE
  5
101
330
1F
100
AcDbEntity
  8
0
100
AcDbLine
 10
-85.4943868966532
 20
126.3064212267192
 30
0.0
 11
-84.9381559432915
 21
126.7332322487829
 31
0.0
  0
LINE
  5
102
330
1F
100
AcDbEntity
  8
0
100
AcDbLine
 10
-84.9381559432915
 20
126.7332322487829
 30
0.0
 11
-84.51134492122782
 21
127.2894632021446
 31
0.0
  0
LINE
  5
103
330
1F
100
AcDbEntity
  8
0
100
AcDbLine
 10
-84.51134492122782
 20
127.2894632021446
 30
0.0
 11
-84.2430402962772
 21
127.9372078665478
 31
0.0
  0
LINE
  5
104
330
1F
100
AcDbEntity
  8
0
100
AcDbLine
 10
-84.2430402962772
 20
127.9372078665478
 30
0.0
 11
-84.15152658523569
 21
128.6323235135621
 31
0.0
  0
LINE
  5
105
330
1F
100
AcDbEntity
  8
0
100
AcDbLine
 10
-168.8806154502963
 20
128.6323235135621
 30
0.0
 11
-168.9749892714446
 21
129.3491638536826
 31
0.0
  0
LINE
  5
106
330
1F
100
AcDbEntity
  8
0
100
AcDbLine
 10
-168.9749892714446
 20
129.3491638536826
 30
0.0
 11
-169.2516793149383
 21
130.0171527092587
 31
0.0
  0
LINE
  5
107
330
1F
100
AcDbEntity
  8
0
100
AcDbLine
 10
-169.2516793149383
 20
130.0171527092587
 30
0.0
 11
-169.6918296115651
 21
130.5907677436864
 31
0.0
  0
LINE
  5
108
330
1F
100
AcDbEntity
  8
0
100
AcDbLine
 10
-169.6918296115651
 20
130.5907677436864
 30
0.0
 11
-170.2654446459929
 21
131.0309180403133
 31
0.0
  0
LINE
  5
109
330
1F
100
AcDbEntity
  8
0
100
AcDbLine
 10
-170.2654446459929
 20
131.0309180403133
 30
0.0
 11
-170.9334335015689
 21
131.307608083807
 31
0.0
  0
LINE
  5
10A
330
1F
100
AcDbEntity
  8
0
100
AcDbLine
 10
-170.9334335015689
 20
131.307608083807
 30
0.0
 11
-171.6502738416895
 21
131.4019819049553
 31
0.0
  0
LINE
  5
10B
330
1F
100
AcDbEntity
  8
0
100
AcDbLine
 10
-171.6502738416895
 20
131.4019819049553
 30
0.0
 11
-172.3671141818101
 21
131.307608083807
 31
0.0
  0
LINE
  5
10C
330
1F
100
AcDbEntity
  8
0
100
AcDbLine
 10
-172.3671141818101
 20
131.307608083807
 30
0.0
 11
-173.0351030373861
 21
131.0309180403133
 31
0.0
  0
LINE
  5
10D
330
1F
100
AcDbEntity
  8
0
100
AcDbLine
 10
-173.0351030373861
 20
131.0309180403133
 30
0.0
 11
-173.6087180718139
 21
130.5907677436864
 31
0.0
  0
LINE
  5
10E
330
1F
100
AcDbEntity
  8
0
100
AcDbLine
 10
-173.6087180718139
 20
130.5907677436864
 30
0.0
 11
-174.0488683684407
 21
130.0171527092587
 31
0.0
  0
LINE
  5
10F
330
1F
100
AcDbEntity
  8
0
100
AcDbLine
 10
-174.0488683684407
 20
130.0171527092587
 30
0.0
 11
-174.3255584119344
 21
129.3491638536826
 31
0.0
  0
LINE
  5
110
330
1F
100
AcDbEntity
  8
0
100
AcDbLine
 10
-174.3255584119344
 20
129.3491638536826
 30
0.0
 11
-174.4199322330827
 21
128.6323235135621
 31
0.0
  0
LINE
  5
111
330
1F
100
AcDbEntity
  8
0
100
AcDbLine
 10
-174.4199322330827
 20
128.6323235135621
 30
0.0
 11
-174.3255584119344
 21
127.9154831734415
 31
0.0
  0
LINE
  5
112
330
1F
100
AcDbEntity
  8
0
100
AcDbLine
 10
-174.3255584119344
 20
127.9154831734415
 30
0.0
 11
-174.0488683684407
 21
127.2474943178655
 31
0.0
  0
LINE
  5
113
330
1F
100
AcDbEntity
  8
0
100
AcDbLine
 10
-174.0488683684407
 20
127.2474943178655
 30
0.0
 11
-173.6087180718139
 21
126.6738792834377
 31
0.0
  0
LINE
  5
114
330
1F
100
AcDbEntity
  8
0
100
AcDbLine
 10
-173.6087180718139
 20
126.6738792834377
 30
0.0
 11
-173.0351030373861
 21
126.2337289868108
 31
0.0
  0
LINE
  5
115
330
1F
100
AcDbEntity
  8
0
100
AcDbLine
 10
-173.0351030373861
 20
126.2337289868108
 30
0.0
 11
-172.3671141818101
 21
125.9570389433172
 31
0.0
  0
LINE
  5
116
330
1F
100
AcDbEntity
  8
0
100
AcDbLine
 10
-172.3671141818101
 20
125.9570389433172
 30
0.0
 11
-171.6502738416895
 21
125.8626651221689
 31
0.0
  0
LINE
  5
117
330
1F
100
AcDbEntity
  8
0
100
AcDbLine
 10
-171.6502738416895
 20
125.8626651221689
 30
0.0
 11
-170.9334335015689
 21
125.9570389433172
 31
0.0
  0
LINE
  5
118
330
1F
100
AcDbEntity
  8
0
100
AcDbLine
 10
-170.9334335015689
 20
125.9570389433172
 30
0.0
 11
-170.2654446459929
 21
126.2337289868108
 31
0.0
  0
LINE
  5
119
330
1F
100
AcDbEntity
  8
0
100
AcDbLine
 10
-170.2654446459929
 20
126.2337289868108
 30
0.0
 11
-169.6918296115651
 21
126.6738792834377
 31
0.0
  0
LINE
  5
11A
330
1F
100
AcDbEntity
  8
0
100
AcDbLine
 10
-169.6918296115651
 20
126.6738792834377
 30
0.0
 11
-169.2516793149383
 21
127.2474943178655
 31
0.0
  0
LINE
  5
11B
330
1F
100
AcDbEntity
  8
0
100
AcDbLine
 10
-169.2516793149383
 20
127.2474943178655
 30
0.0
 11
-168.9749892714446
 21
127.9154831734415
 31
0.0
  0
LINE
  5
11C
330
1F
100
AcDbEntity
  8
0
100
AcDbLine
 10
-168.9749892714446
 20
127.9154831734415
 30
0.0
 11
-168.8806154502963
 21
128.6323235135621
 31
0.0
  0
LINE
  5
11D
330
1F
100
AcDbEntity
  8
0
100
AcDbLine
 10
-37.94427587088862
 20
107.634810307637
 30
0.0
 11
156.0888354738474
 21
107.634810307637
 31
0.0
  0
LINE
  5
11E
330
1F
100
AcDbEntity
  8
0
100
AcDbLine
 10
173.0437339440829
 20
87.9196344678097
 30
0.0
 11
173.0437339440829
 21
-42.23201363736246
 31
0.0
  0
LINE
  5
11F
330
1F
100
AcDbEntity
  8
0
100
AcDbLine
 10
159.13648440076
 20
-58.15473966004353
 30
0.0
 11
127.8304158072664
 21
-58.15473966004353
 31
0.0
  0
LINE
  5
120
330
1F
100
AcDbEntity
  8
0
100
AcDbLine
 10
127.8304158072664
 20
-58.15473966004353
 30
0.0
 11
99.57226994374464
 21
-31.44302479871765
 31
0.0
  0
LINE
  5
121
330
1F
100
AcDbEntity
  8
0
100
AcDbLine
 10
31.75264868249662
 20
-31.44302479871765
 30
0.0
 11
99.57226994374464
 21
-31.44302479871765
 31
0.0
  0
LINE
  5
122
330
1F
100
AcDbEntity
  8
0
100
AcDbLine
 10
3.897472470716451
 20
-58.4154772944532
 30
0.0
 11
31.75264868249662
 21
-31.44302479871765
 31
0.0
  0
LINE
  5
123
330
1F
100
AcDbEntity
  8
0
100
AcDbLine
 10
3.897472470716451
 20
-58.4154772944532
 30
0.0
 11
-37.94427587088862
 21
-58.4154772944532
 31
0.0
  0
LINE
  5
124
330
1F
100
AcDbEntity
  8
0
100
AcDbLine
 10
-51.89150250116882
 20
-42.23201363736246
 30
0.0
 11
-51.89150250116882
 21
87.9196344678097
 31
0.0
  0
LINE
  5
125
330
1F
100
AcDbEntity
  8
0
100
AcDbLine
 10
-51.89150250116882
 20
87.9196344678097
 30
0.0
 11
-51.77790614207158
 21
90.21974810022587
 31
0.0
  0
LINE
  5
126
330
1F
100
AcDbEntity
  8
0
100
AcDbLine
 10
-51.77790614207158
 20
90.21974810022587
 30
0.0
 11
-51.43861066640311
 21
92.48961909562351
 31
0.0
  0
LINE
  5
127
330
1F
100
AcDbEntity
  8
0
100
AcDbLine
 10
-51.43861066640311
 20
92.48961909562351
 30
0.0
 11
-50.87807724067622
 21
94.69940245694447
 31
0.0
  0
LINE
  5
128
330
1F
100
AcDbEntity
  8
0
100
AcDbLine
 10
-50.87807724067622
 20
94.69940245694447
 30
0.0
 11
-50.10367593943509
 21
96.82004323875319
 31
0.0
  0
LINE
  5
129
330
1F
100
AcDbEntity
  8
0
100
AcDbLine
 10
-50.10367593943509
 20
96.82004323875319
 30
0.0
 11
-49.12558884113445
 21
98.82365857104372
 31
0.0
  0
LINE
  5
12A
330
1F
100
AcDbEntity
  8
0
100
AcDbLine
 10
-49.12558884113445
 20
98.82365857104372
 30
0.0
 11
-47.95667615088313
 21
100.6839042722223
 31
0.0
  0
LINE
  5
12B
330
1F
100
AcDbEntity
  8
0
100
AcDbLine
 10
-47.95667615088313
 20
100.6839042722223
 30
0.0
 11
-46.61230711031308
 21
102.3763212309158
 31
0.0
  0
LINE
  5
12C
330
1F
100
AcDbEntity
  8
0
100
AcDbLine
 10
-46.61230711031308
 20
102.3763212309158
 30
0.0
 11
-45.11015791782597
 21
103.8786570022689
 31
0.0
  0
LINE
  5
12D
330
1F
100
AcDbEntity
  8
0
100
AcDbLine
 10
-45.11015791782597
 20
103.8786570022689
 30
0.0
 11
-43.46997931622673
 21
105.1711583902779
 31
0.0
  0
LINE
  5
12E
330
1F
100
AcDbEntity
  8
0
100
AcDbLine
 10
-43.46997931622673
 20
105.1711583902779
 30
0.0
 11
-41.71333690357744
 21
106.2368311691907
 31
0.0
  0
LINE
  5
12F
330
1F
100
AcDbEntity
  8
0
100
AcDbLine
 10
-41.71333690357744
 20
106.2368311691907
 30
0.0
 11
-39.86332758174778
 21
107.0616635290784
 31
0.0
  0
LINE
  5
130
330
1F
100
AcDbEntity
  8
0
100
AcDbLine
 10
-39.86332758174778
 20
107.0616635290784
 30
0.0
 11
-37.94427587088862
 21
107.634810307637
 31
0.0
  0
LINE
  5
131
330
1F
100
AcDbEntity
  8
0
100
AcDbLine
 10
159.13648440076
 20
-58.15473966004353
 30
0.0
 11
161.043868043827
 21
-57.71148191987449
 31
0.0
  0
LINE
  5
132
330
1F
100
AcDbEntity
  8
0
100
AcDbLine
 10
161.043868043827
 20
-57.71148191987449
 30
0.0
 11
162.8848050804438
 21
-57.0607965226697
 31
0.0
  0
LINE
  5
133
330
1F
100
AcDbEntity
  8
0
100
AcDbLine
 10
162.8848050804438
 20
-57.0607965226697
 30
0.0
 11
164.6346266234569
 21
-56.21140276969628
 31
0.0
  0
LINE
  5
134
330
1F
100
AcDbEntity
  8
0
100
AcDbLine
 10
164.6346266234569
 20
-56.21140276969628
 30
0.0
 11
166.269884749703
 21
-55.17468268990157
 31
0.0
  0
LINE
  5
135
330
1F
100
AcDbEntity
  8
0
100
AcDbLine
 10
166.269884749703
 20
-55.17468268990157
 30
0.0
 11
167.7686667063933
 21
-53.96452851867944
 31
0.0
  0
LINE
  5
136
330
1F
100
AcDbEntity
  8
0
100
AcDbLine
 10
167.7686667063933
 20
-53.96452851867944
 30
0.0
 11
169.1108885459394
 21
-52.59715653941939
 31
0.0
  0
LINE
  5
137
330
1F
100
AcDbEntity
  8
0
100
AcDbLine
 10
169.1108885459394
 20
-52.59715653941939
 30
0.0
 11
170.2785642544603
 21
-51.09088978239474
 31
0.0
  0
LINE
  5
138
330
1F
100
AcDbEntity
  8
0
100
AcDbLine
 10
170.2785642544603
 20
-51.09088978239474
 30
0.0
 11
171.2560467676011
 21
-49.46591249286372
 31
0.0
  0
LINE
  5
139
330
1F
100
AcDbEntity
  8
0
100
AcDbLine
 10
171.2560467676011
 20
-49.46591249286372
 30
0.0
 11
172.0302376440075
 21
-47.74399965855518
 31
0.0
  0
LINE
  5
13A
330
1F
100
AcDbEntity
  8
0
100
AcDbLine
 10
172.0302376440075
 20
-47.74399965855518
 30
0.0
 11
172.5907625867941
 21
-45.94822522092005
 31
0.0
  0
LINE
  5
13B
330
1F
100
AcDbEntity
  8
0
100
AcDbLine
 10
172.5907625867941
 20
-45.94822522092005
 30
0.0
 11
172.930110460987
 21
-44.10265288016856
 31
0.0
  0
LINE
  5
13C
330
1F
100
AcDbEntity
  8
0
100
AcDbLine
 10
172.930110460987
 20
-44.10265288016856
 30
0.0
 11
173.0437339440829
 21
-42.23201363736246
 31
0.0
  0
LINE
  5
13D
330
1F
100
AcDbEntity
  8
0
100
AcDbLine
 10
173.0437339440829
 20
87.9196344678097
 30
0.0
 11
172.8986824770135
 21
90.49297965509811
 31
0.0
  0
LINE
  5
13E
330
1F
100
AcDbEntity
  8
0
100
AcDbLine
 10
172.8986824770135
 20
90.49297965509811
 30
0.0
 11
172.4660099434377
 21
93.02229424926821
 31
0.0
  0
LINE
  5
13F
330
1F
100
AcDbEntity
  8
0
100
AcDbLine
 10
172.4660099434377
 20
93.02229424926821
 30
0.0
 11
171.7531194808644
 21
95.46430103189138
 31
0.0
  0
LINE
  5
140
330
1F
100
AcDbEntity
  8
0
100
AcDbLine
 10
171.7531194808644
 20
95.46430103189138
 30
0.0
 11
170.772208827106
 21
97.7772166434831
 31
0.0
  0
LINE
  5
141
330
1F
100
AcDbEntity
  8
0
100
AcDbLine
 10
170.772208827106
 20
97.7772166434831
 30
0.0
 11
169.5400616138706
 21
99.92146650745173
 31
0.0
  0
LINE
  5
142
330
1F
100
AcDbEntity
  8
0
100
AcDbLine
 10
169.5400616138706
 20
99.92146650745173
 30
0.0
 11
168.0777601945381
 21
101.8603619612078
 31
0.0
  0
LINE
  5
143
330
1F
100
AcDbEntity
  8
0
100
AcDbLine
 10
168.0777601945381
 20
101.8603619612078
 30
0.0
 11
166.4103249197126
 21
103.5607280085457
 31
0.0
  0
LINE
  5
144
330
1F
100
AcDbEntity
  8
0
100
AcDbLine
 10
166.4103249197126
 20
103.5607280085457
 30
0.0
 11
164.5662860326352
 21
104.9934709522996
 31
0.0
  0
LINE
  5
145
330
1F
100
AcDbEntity
  8
0
100
AcDbLine
 10
164.5662860326352
 20
104.9934709522996
 30
0.0
 11
162.5771955094386
 21
106.1340761949291
 31
0.0
  0
LINE
  5
146
330
1F
100
AcDbEntity
  8
0
100
AcDbLine
 10
162.5771955094386
 20
106.1340761949291
 30
0.0
 11
160.4770871967808
 21
106.9630276895413
 31
0.0
  0
LINE
  5
147
330
1F
100
AcDbEntity
  8
0
100
AcDbLine
 10
160.4770871967808
 20
106.9630276895413
 30
0.0
 11
158.3018944840397
 21
107.4661418644356
 31
0.0
  0
LINE
  5
148
330
1F
100
AcDbEntity
  8
0
100
AcDbLine
 10
158.3018944840397
 20
107.4661418644356
 30
0.0
 11
156.0888354738474
 21
107.634810307637
 31
0.0
  0
LINE
  5
149
330
1F
100
AcDbEntity
  8
0
100
AcDbLine
 10
-51.89150250116882
 20
-42.23201363736246
 30
0.0
 11
-51.94799709716576
 21
-44.1673880027759
 31
0.0
  0
LINE
  5
14A
330
1F
100
AcDbEntity
  8
0
100
AcDbLine
 10
-51.94799709716576
 20
-44.1673880027759
 30
0.0
 11
-51.74071360849903
 21
-46.0933776944653
 31
0.0
  0
LINE
  5
14B
330
1F
100
AcDbEntity
  8
0
100
AcDbLine
 10
-51.74071360849903
 20
-46.0933776944653
 30
0.0
 11
-51.27316221991673
 21
-47.97736757417616
 31
0.0
  0
LINE
  5
14C
330
1F
100
AcDbEntity
  8
0
100
AcDbLine
 10
-51.27316221991673
 20
-47.97736757417616
 30
0.0
 11
-50.55326055073193
 21
-49.78745373782119
 31
0.0
  0
LINE
  5
14D
330
1F
100
AcDbEntity
  8
0
100
AcDbLine
 10
-50.55326055073193
 20
-49.78745373782119
 30
0.0
 11
-49.59319957609438
 21
-51.49298378329529
 31
0.0
  0
LINE
  5
14E
330
1F
100
AcDbEntity
  8
0
100
AcDbLine
 10
-49.59319957609438
 20
-51.49298378329529
 30
0.0
 11
-48.40923718230314
 21
-53.06507588507764
 31
0.0
  0
LINE
  5
14F
330
1F
100
AcDbEntity
  8
0
100
AcDbLine
 10
-48.40923718230314
 20
-53.06507588507764
 30
0.0
 11
-47.02142285214008
 21
-54.47710788549545
 31
0.0
  0
LINE
  5
150
330
1F
100
AcDbEntity
  8
0
100
AcDbLine
 10
-47.02142285214008
 20
-54.47710788549545
 30
0.0
 11
-45.45325814246456
 21
-55.70516812026911
 31
0.0
  0
LINE
  5
151
330
1F
100
AcDbEntity
  8
0
100
AcDbLine
 10
-45.45325814246456
 20
-55.70516812026911
 30
0.0
 11
-43.7312987036171
 21
-56.72846034395942
 31
0.0
  0
LINE
  5
152
330
1F
100
AcDbEntity
  8
0
100
AcDbLine
 10
-43.7312987036171
 20
-56.72846034395942
 30
0.0
 11
-41.88470458012387
 21
-57.5296558982176
 31
0.0
  0
LINE
  5
153
330
1F
100
AcDbEntity
  8
0
100
AcDbLine
 10
-41.88470458012387
 20
-57.5296558982176
 30
0.0
 11
-39.94474640801035
 21
-58.0951871591443
 31
0.0
  0
LINE
  5
154
330
1F
100
AcDbEntity
  8
0
100
AcDbLine
 10
-39.94474640801035
 20
-58.0951871591443
 30
0.0
 11
-37.94427587088862
 21
-58.4154772944532
 31
0.0
  0
LINE
  5
155
330
1F
100
AcDbEntity
  8
0
100
AcDbLine
 10
104.6132952794134
 20
-45.51437626422994
 30
0.0
 11
104.5197669740059
 21
-44.83628227325078
 31
0.0
  0
LINE
  5
156
330
1F
100
AcDbEntity
  8
0
100
AcDbLine
 10
104.5197669740059
 20
-44.83628227325078
 30
0.0
 11
104.2455558572343
 21
-44.20439926715358
 31
0.0
  0
LINE
  5
157
330
1F
100
AcDbEntity
  8
0
100
AcDbLine
 10
104.2455558572343
 20
-44.20439926715358
 30
0.0
 11
103.8093489635511
 21
-43.66178902856777
 31
0.0
  0
LINE
  5
158
330
1F
100
AcDbEntity
  8
0
100
AcDbLine
 10
103.8093489635511
 20
-43.66178902856777
 30
0.0
 11
103.240873071895
 21
-43.24542954854715
 31
0.0
  0
LINE
  5
159
330
1F
100
AcDbEntity
  8
0
100
AcDbLine
 10
103.240873071895
 20
-43.24542954854715
 30
0.0
 11
102.5788688748313
 21
-42.98369503758864
 31
0.0
  0
LINE
  5
15A
330
1F
100
AcDbEntity
  8
0
100
AcDbLine
 10
102.5788688748313
 20
-42.98369503758864
 30
0.0
 11
101.8684508643765
 21
-42.89442227007723
 31
0.0
  0
LINE
  5
15B
330
1F
100
AcDbEntity
  8
0
100
AcDbLine
 10
101.8684508643765
 20
-42.89442227007723
 30
0.0
 11
101.1580328539217
 21
-42.98369503758864
 31
0.0
  0
LINE
  5
15C
330
1F
100
AcDbEntity
  8
0
100
AcDbLine
 10
101.1580328539217
 20
-42.98369503758864
 30
0.0
 11
100.4960286568581
 21
-43.24542954854715
 31
0.0
  0
LINE
  5
15D
330
1F
100
AcDbEntity
  8
0
100
AcDbLine
 10
100.4960286568581
 20
-43.24542954854715
 30
0.0
 11
99.92755276520191
 21
-43.66178902856777
 31
0.0
  0
LINE
  5
15E
330
1F
100
AcDbEntity
  8
0
100
AcDbLine
 10
99.92755276520191
 20
-43.66178902856777
 30
0.0
 11
99.49134587151876
 21
-44.20439926715358
 31
0.0
  0
LINE
  5
15F
330
1F
100
AcDbEntity
  8
0
100
AcDbLine
 10
99.49134587151876
 20
-44.20439926715358
 30
0.0
 11
99.2171347547471
 21
-44.83628227325078
 31
0.0
  0
LINE
  5
160
330
1F
100
AcDbEntity
  8
0
100
AcDbLine
 10
99.2171347547471
 20
-44.83628227325078
 30
0.0
 11
99.12360644933963
 21
-45.51437626422994
 31
0.0
  0
LINE
  5
161
330
1F
100
AcDbEntity
  8
0
100
AcDbLine
 10
99.12360644933963
 20
-45.51437626422994
 30
0.0
 11
99.2171347547471
 21
-46.19247025520906
 31
0.0
  0
LINE
  5
162
330
1F
100
AcDbEntity
  8
0
100
AcDbLine
 10
99.2171347547471
 20
-46.19247025520906
 30
0.0
 11
99.49134587151876
 21
-46.82435326130628
 31
0.0
  0
LINE
  5
163
330
1F
100
AcDbEntity
  8
0
100
AcDbLine
 10
99.49134587151876
 20
-46.82435326130628
 30
0.0
 11
99.92755276520191
 21
-47.36696349989211
 31
0.0
  0
LINE
  5
164
330
1F
100
AcDbEntity
  8
0
100
AcDbLine
 10
99.92755276520191
 20
-47.36696349989211
 30
0.0
 11
100.4960286568581
 21
-47.78332297991265
 31
0.0
  0
LINE
  5
165
330
1F
100
AcDbEntity
  8
0
100
AcDbLine
 10
100.4960286568581
 20
-47.78332297991265
 30
0.0
 11
101.1580328539217
 21
-48.04505749087123
 31
0.0
  0
LINE
  5
166
330
1F
100
AcDbEntity
  8
0
100
AcDbLine
 10
101.1580328539217
 20
-48.04505749087123
 30
0.0
 11
101.8684508643765
 21
-48.13433025838263
 31
0.0
  0
LINE
  5
167
330
1F
100
AcDbEntity
  8
0
100
AcDbLine
 10
101.8684508643765
 20
-48.13433025838263
 30
0.0
 11
102.5788688748313
 21
-48.04505749087123
 31
0.0
  0
LINE
  5
168
330
1F
100
AcDbEntity
  8
0
100
AcDbLine
 10
102.5788688748313
 20
-48.04505749087123
 30
0.0
 11
103.240873071895
 21
-47.78332297991265
 31
0.0
  0
LINE
  5
169
330
1F
100
AcDbEntity
  8
0
100
AcDbLine
 10
103.240873071895
 20
-47.78332297991265
 30
0.0
 11
103.8093489635511
 21
-47.36696349989211
 31
0.0
  0
LINE
  5
16A
330
1F
100
AcDbEntity
  8
0
100
AcDbLine
 10
103.8093489635511
 20
-47.36696349989211
 30
0.0
 11
104.2455558572343
 21
-46.82435326130628
 31
0.0
  0
LINE
  5
16B
330
1F
100
AcDbEntity
  8
0
100
AcDbLine
 10
104.2455558572343
 20
-46.82435326130628
 30
0.0
 11
104.5197669740059
 21
-46.19247025520906
 31
0.0
  0
LINE
  5
16C
330
1F
100
AcDbEntity
  8
0
100
AcDbLine
 10
104.5197669740059
 20
-46.19247025520906
 30
0.0
 11
104.6132952794134
 21
-45.51437626422994
 31
0.0
  0
LINE
  5
16D
330
1F
100
AcDbEntity
  8
0
100
AcDbLine
 10
32.27217624001795
 20
-45.51437626422994
 30
0.0
 11
32.18161809572231
 21
-44.85781637881798
 31
0.0
  0
LINE
  5
16E
330
1F
100
AcDbEntity
  8
0
100
AcDbLine
 10
32.18161809572231
 20
-44.85781637881798
 30
0.0
 11
31.91611505071478
 21
-44.24599996458036
 31
0.0
  0
LINE
  5
16F
330
1F
100
AcDbEntity
  8
0
100
AcDbLine
 10
31.91611505071478
 20
-44.24599996458036
 30
0.0
 11
31.49376069874803
 21
-43.72062129907287
 31
0.0
  0
LINE
  5
170
330
1F
100
AcDbEntity
  8
0
100
AcDbLine
 10
31.49376069874803
 20
-43.72062129907287
 30
0.0
 11
30.94333779093509
 21
-43.31748407012063
 31
0.0
  0
LINE
  5
171
330
1F
100
AcDbEntity
  8
0
100
AcDbLine
 10
30.94333779093509
 20
-43.31748407012063
 30
0.0
 11
30.30235673882651
 21
-43.06406141366094
 31
0.0
  0
LINE
  5
172
330
1F
100
AcDbEntity
  8
0
100
AcDbLine
 10
30.30235673882651
 20
-43.06406141366094
 30
0.0
 11
29.61449934185223
 21
-42.97762366493073
 31
0.0
  0
LINE
  5
173
330
1F
100
AcDbEntity
  8
0
100
AcDbLine
 10
29.61449934185223
 20
-42.97762366493073
 30
0.0
 11
28.92664194487795
 21
-43.06406141366094
 31
0.0
  0
LINE
  5
174
330
1F
100
AcDbEntity
  8
0
100
AcDbLine
 10
28.92664194487795
 20
-43.06406141366094
 30
0.0
 11
28.28566089276937
 21
-43.31748407012063
 31
0.0
  0
LINE
  5
175
330
1F
100
AcDbEntity
  8
0
100
AcDbLine
 10
28.28566089276937
 20
-43.31748407012063
 30
0.0
 11
27.73523798495643
 21
-43.72062129907287
 31
0.0
  0
LINE
  5
176
330
1F
100
AcDbEntity
  8
0
100
AcDbLine
 10
27.73523798495643
 20
-43.72062129907287
 30
0.0
 11
27.31288363298971
 21
-44.24599996458036
 31
0.0
  0
LINE
  5
177
330
1F
100
AcDbEntity
  8
0
100
AcDbLine
 10
27.31288363298971
 20
-44.24599996458036
 30
0.0
 11
27.04738058798215
 21
-44.85781637881798
 31
0.0
  0
LINE
  5
178
330
1F
100
AcDbEntity
  8
0
100
AcDbLine
 10
27.04738058798215
 20
-44.85781637881798
 30
0.0
 11
26.95682244368652
 21
-45.51437626422994
 31
0.0
  0
LINE
  5
179
330
1F
100
AcDbEntity
  8
0
100
AcDbLine
 10
26.95682244368652
 20
-45.51437626422994
 30
0.0
 11
27.04738058798215
 21
-46.17093614964189
 31
0.0
  0
LINE
  5
17A
330
1F
100
AcDbEntity
  8
0
100
AcDbLine
 10
27.04738058798215
 20
-46.17093614964189
 30
0.0
 11
27.31288363298968
 21
-46.78275256387951
 31
0.0
  0
LINE
  5
17B
330
1F
100
AcDbEntity
  8
0
100
AcDbLine
 10
27.31288363298968
 20
-46.78275256387951
 30
0.0
 11
27.73523798495643
 21
-47.30813122938694
 31
0.0
  0
LINE
  5
17C
330
1F
100
AcDbEntity
  8
0
100
AcDbLine
 10
27.73523798495643
 20
-47.30813122938694
 30
0.0
 11
28.28566089276937
 21
-47.71126845833923
 31
0.0
  0
LINE
  5
17D
330
1F
100
AcDbEntity
  8
0
100
AcDbLine
 10
28.28566089276937
 20
-47.71126845833923
 30
0.0
 11
28.92664194487795
 21
-47.96469111479891
 31
0.0
  0
LINE
  5
17E
330
1F
100
AcDbEntity
  8
0
100
AcDbLine
 10
28.92664194487795
 20
-47.96469111479891
 30
0.0
 11
29.61449934185223
 21
-48.05112886352907
 31
0.0
  0
LINE
  5
17F
330
1F
100
AcDbEntity
  8
0
100
AcDbLine
 10
29.61449934185223
 20
-48.05112886352907
 30
0.0
 11
30.30235673882651
 21
-47.96469111479891
 31
0.0
  0
LINE
  5
180
330
1F
100
AcDbEntity
  8
0
100
AcDbLine
 10
30.30235673882651
 20
-47.96469111479891
 30
0.0
 11
30.94333779093509
 21
-47.71126845833923
 31
0.0
  0
LINE
  5
181
330
1F
100
AcDbEntity
  8
0
100
AcDbLine
 10
30.94333779093509
 20
-47.71126845833923
 30
0.0
 11
31.49376069874803
 21
-47.30813122938694
 31
0.0
  0
LINE
  5
182
330
1F
100
AcDbEntity
  8
0
100
AcDbLine
 10
31.49376069874803
 20
-47.30813122938694
 30
0.0
 11
31.91611505071476
 21
-46.78275256387951
 31
0.0
  0
LINE
  5
183
330
1F
100
AcDbEntity
  8
0
100
AcDbLine
 10
31.91611505071476
 20
-46.78275256387951
 30
0.0
 11
32.18161809572231
 21
-46.17093614964189
 31
0.0
  0
LINE
  5
184
330
1F
100
AcDbEntity
  8
0
100
AcDbLine
 10
32.18161809572231
 20
-46.17093614964189
 30
0.0
 11
32.27217624001795
 21
-45.51437626422994
 31
0.0
  0
LINE
  5
185
330
1F
100
AcDbEntity
  8
0
100
AcDbLine
 10
-169.1628288867585
 20
-75.80191190683753
 30
0.0
 11
-168.9261890116809
 21
-75.11580099439912
 31
0.0
  0
LINE
  5
186
330
1F
100
AcDbEntity
  8
0
100
AcDbLine
 10
-169.5689840248176
 20
-76.40339725035976
 30
0.0
 11
-169.1628288867585
 21
-75.80191190683753
 31
0.0
  0
LINE
  5
187
330
1F
100
AcDbEntity
  8
0
100
AcDbLine
 10
-170.1169756244024
 20
-76.87926679280632
 30
0.0
 11
-169.5689840248176
 21
-76.40339725035976
 31
0.0
  0
LINE
  5
188
330
1F
100
AcDbEntity
  8
0
100
AcDbLine
 10
-170.7694589636002
 20
-77.19709081127108
 30
0.0
 11
-170.1169756244024
 21
-76.87926679280632
 31
0.0
  0
LINE
  5
189
330
1F
100
AcDbEntity
  8
0
100
AcDbLine
 10
-171.4819683811243
 20
-77.33521012412467
 30
0.0
 11
-170.7694589636002
 21
-77.19709081127108
 31
0.0
  0
LINE
  5
18A
330
1F
100
AcDbEntity
  8
0
100
AcDbLine
 10
-172.2059475376481
 20
-77.28421212844913
 30
0.0
 11
-171.4819683811243
 21
-77.33521012412467
 31
0.0
  0
LINE
  5
18B
330
1F
100
AcDbEntity
  8
0
100
AcDbLine
 10
-172.8920584500865
 20
-77.04757225337151
 30
0.0
 11
-172.2059475376481
 21
-77.28421212844913
 31
0.0
  0
LINE
  5
18C
330
1F
100
AcDbEntity
  8
0
100
AcDbLine
 10
-173.4935437936087
 20
-76.6414171153125
 30
0.0
 11
-172.8920584500865
 21
-77.04757225337151
 31
0.0
  0
LINE
  5
18D
330
1F
100
AcDbEntity
  8
0
100
AcDbLine
 10
-173.9694133360553
 20
-76.0934255157277
 30
0.0
 11
-173.4935437936087
 21
-76.6414171153125
 31
0.0
  0
LINE
  5
18E
330
1F
100
AcDbEntity
  8
0
100
AcDbLine
 10
-174.28723735452
 20
-75.44094217652992
 30
0.0
 11
-173.9694133360553
 21
-76.0934255157277
 31
0.0
  0
LINE
  5
18F
330
1F
100
AcDbEntity
  8
0
100
AcDbLine
 10
-174.4253566673736
 20
-74.72843275900573
 30
0.0
 11
-174.28723735452
 21
-75.44094217652992
 31
0.0
  0
LINE
  5
190
330
1F
100
AcDbEntity
  8
0
100
AcDbLine
 10
-174.3743586716981
 20
-74.00445360248196
 30
0.0
 11
-174.4253566673736
 21
-74.72843275900573
 31
0.0
  0
LINE
  5
191
330
1F
100
AcDbEntity
  8
0
100
AcDbLine
 10
-174.1377187966205
 20
-73.31834269004356
 30
0.0
 11
-174.3743586716981
 21
-74.00445360248196
 31
0.0
  0
LINE
  5
192
330
1F
100
AcDbEntity
  8
0
100
AcDbLine
 10
-173.7315636585614
 20
-72.71685734652135
 30
0.0
 11
-174.1377187966205
 21
-73.31834269004356
 31
0.0
  0
LINE
  5
193
330
1F
100
AcDbEntity
  8
0
100
AcDbLine
 10
-173.1835720589767
 20
-72.24098780407478
 30
0.0
 11
-173.7315636585614
 21
-72.71685734652135
 31
0.0
  0
LINE
  5
194
330
1F
100
AcDbEntity
  8
0
100
AcDbLine
 10
-172.5310887197789
 20
-71.92316378561001
 30
0.0
 11
-173.1835720589767
 21
-72.24098780407478
 31
0.0
  0
LINE
  5
195
330
1F
100
AcDbEntity
  8
0
100
AcDbLine
 10
-171.8185793022547
 20
-71.78504447275641
 30
0.0
 11
-172.5310887197789
 21
-71.92316378561001
 31
0.0
  0
LINE
  5
196
330
1F
100
AcDbEntity
  8
0
100
AcDbLine
 10
-171.0946001457309
 20
-71.83604246843197
 30
0.0
 11
-171.8185793022547
 21
-71.78504447275641
 31
0.0
  0
LINE
  5
197
330
1F
100
AcDbEntity
  8
0
100
AcDbLine
 10
-170.4084892332925
 20
-72.0726823435096
 30
0.0
 11
-171.0946001457309
 21
-71.83604246843197
 31
0.0
  0
LINE
  5
198
330
1F
100
AcDbEntity
  8
0
100
AcDbLine
 10
-169.8070038897703
 20
-72.4788374815686
 30
0.0
 11
-170.4084892332925
 21
-72.0726823435096
 31
0.0
  0
LINE
  5
199
330
1F
100
AcDbEntity
  8
0
100
AcDbLine
 10
-169.3311343473237
 20
-73.02682908115338
 30
0.0
 11
-169.8070038897703
 21
-72.4788374815686
 31
0.0
  0
LINE
  5
19A
330
1F
100
AcDbEntity
  8
0
100
AcDbLine
 10
-169.013310328859
 20
-73.67931242035118
 30
0.0
 11
-169.3311343473237
 21
-73.02682908115338
 31
0.0
  0
LINE
  5
19B
330
1F
100
AcDbEntity
  8
0
100
AcDbLine
 10
-168.8751910160054
 20
-74.39182183787537
 30
0.0
 11
-169.013310328859
 21
-73.67931242035118
 31
0.0
  0
LINE
  5
19C
330
1F
100
AcDbEntity
  8
0
100
AcDbLine
 10
-168.9261890116809
 20
-75.11580099439912
 30
0.0
 11
-168.8751910160054
 21
-74.39182183787537
 31
0.0
  0
ENDSEC
  0
SECTION
  2
OBJECTS
  0
DICTIONARY
  5
C
330
0
100
AcDbDictionary
  3
ACAD_GROUP
350
D
  3
ACAD_LAYOUT
350
1A
  3
ACAD_MATERIAL
350
3B
  3
ACAD_MLEADERSTYLE
350
1BF
  3
ACAD_MLINESTYLE
350
17
  3
ACAD_PLOTSETTINGS
350
19
  3
ACAD_VISUALSTYLE
350
2A
  3
ACDBHEADERROUNDTRIPXREC
350
19D
  3
ACDBVARIABLEDICTIONARY
350
1BD
  0
DICTIONARY
  5
D
102
{ACAD_REACTORS
330
C
102
}
330
C
100
AcDbDictionary
  0
DICTIONARY
  5
1A
102
{ACAD_REACTORS
330
C
102
}
330
C
100
AcDbDictionary
  0
DICTIONARY
  5
3B
102
{ACAD_REACTORS
330
C
102
}
330
C
100
AcDbDictionary
  3
BYBLOCK
350
3D
  3
BYLAYER
350
3C
  3
GLOBAL
350
3E
  0
DICTIONARY
  5
1BF
102
{ACAD_REACTORS
330
C
102
}
330
C
100
AcDbDictionary
  0
DICTIONARY
  5
17
102
{ACAD_REACTORS
330
C
102
}
330
C
100
AcDbDictionary
  3
STANDARD
350
18
  0
DICTIONARY
  5
19
102
{ACAD_REACTORS
330
C
102
}
330
C
100
AcDbDictionary
  0
DICTIONARY
  5
2A
102
{ACAD_REACTORS
330
C
102
}
330
C
100
AcDbDictionary
  3
2DWIREFRAME
350
2F
  3
3D_HIDDEN
350
31
  3
3DWIREFRAME
350
30
  3
BASIC
350
32
  3
BRIGHTEN
350
36
  3
COLORCHANGE
350
3A
  3
CONCEPTUAL
350
34
  3
DIM
350
35
  3
FACEPATTERN
350
39
  3
FLAT
350
2B
  3
FLATWITHEDGES
350
2C
  3
GOURAUD
350
2D
  3
GOURAUDWITHEDGES
350
2E
  3
LINEPATTERN
350
38
  3
REALISTIC
350
33
  3
THICKEN
350
37
  0
DICTIONARY
  5
19D
102
{ACAD_REACTORS
330
C
102
}
330
C
100
AcDbDictionary
  3
CEPSNTYPE
350
1A6
  3
DIMSTYLEDATA
350
1BC
  3
FINGERPRINTGUID
350
1A7
  3
HYPERLINKBASE
350
1A0
  3
INSUNITS
350
1A5
  3
LAYOUTDICT
350
1A2
  3
LWETCUNION
350
1A4
  3
PLOTSETDICT
350
1A3
  3
PSVPSCALE
350
1A9
  3
PUCSBASE
350
1AC
  3
PUCSORGBACK
350
1B2
  3
PUCSORGBOTTOM
350
1AE
  3
PUCSORGFRONT
350
1B1
  3
PUCSORGLEFT
350
1AF
  3
PUCSORGRIGHT
350
1B0
  3
PUCSORGTOP
350
1AD
  3
PUCSORTHOREF
350
1AA
  3
PUCSORTHOVIEW
350
1AB
  3
STYLESHEET
350
1A1
  3
TSTACKALIGN
350
19E
  3
TSTACKSIZE
350
19F
  3
UCSBASE
350
1B5
  3
UCSORGBACK
350
1BB
  3
UCSORGBOTTOM
350
1B7
  3
UCSORGFRONT
350
1BA
  3
UCSORGLEFT
350
1B8
  3
UCSORGRIGHT
350
1B9
  3
UCSORGTOP
350
1B6
  3
UCSORTHOREF
350
1B3
  3
UCSORTHOVIEW
350
1B4
  3
VERSIONGUID
350
1A8
  0
DICTIONARY
  5
1BD
102
{ACAD_REACTORS
330
C
102
}
330
C
100
AcDbDictionary
  3
DIMASSOC
350
1C0
  3
HIDETEXT
350
1C1
  0
MATERIAL
  5
3D
102
{ACAD_REACTORS
330
3B
102
}
102
{ACAD_XDICTIONARY
360
1C4
102
}
330
3B
100
AcDbMaterial
  1
ByBlock
  0
MATERIAL
  5
3C
102
{ACAD_REACTORS
330
3B
102
}
102
{ACAD_XDICTIONARY
360
1C2
102
}
330
3B
100
AcDbMaterial
  1
ByLayer
  0
MATERIAL
  5
3E
102
{ACAD_REACTORS
330
3B
102
}
102
{ACAD_XDICTIONARY
360
1C6
102
}
330
3B
100
AcDbMaterial
  1
Global
  0
MLINESTYLE
  5
18
102
{ACAD_REACTORS
330
17
102
}
330
17
100
AcDbMlineStyle
  2
Standard
 70
     0
  3

 62
   256
 51
90.0
 52
90.0
 71
     2
 49
0.5
 62
   256
  6
BYLAYER
 49
-0.5
 62
   256
  6
BYLAYER
  0
ACAD_PROXY_OBJECT
  5
2F
102
{ACAD_REACTORS
330
2A
102
}
330
2A
100
AcDbProxyObject
 90
      499
 91
      501
 93
      436
310
42CC9915DA5C99599C985B595049028333333333333E3BF0000000000000FB0107901411070040501600405405064090741402480A0340
1001
ACAD
1000
AcDbSavedByObjectVersion
1070
     0
  0
ACAD_PROXY_OBJECT
  5
31
102
{ACAD_REACTORS
330
2A
102
}
330
2A
100
AcDbProxyObject
 90
      499
 91
      501
 93
      500
310
424CD108121A5919195B90640502408333333333333E3BF0000000000000FB01079024090700405020000000000001110200405405064090740C02480A0340
1001
ACAD
1000
AcDbSavedByObjectVersion
1070
     0
  0
ACAD_PROXY_OBJECT
  5
30
102
{ACAD_REACTORS
330
2A
102
}
330
2A
100
AcDbProxyObject
 90
      499
 91
      501
 93
      436
310
42CCD915DA5C99599C985B595059028333333333333E3BF0000000000000FB0107901411070040501600405405064090741402480A0340
1001
ACAD
1000
AcDbSavedByObjectVersion
1070
     0
  0
ACAD_PROXY_OBJECT
  5
32
102
{ACAD_REACTORS
330
2A
102
}
330
2A
100
AcDbProxyObject
 90
      499
 91
      501
 93
      388
310
4150985CDA58D07406404333333333333E3BF0000000000000FB0107A41107004050150841D405064090741402480A0350
1001
ACAD
1000
AcDbSavedByObjectVersion
1070
     0
  0
ACAD_PROXY_OBJECT
  5
36
102
{ACAD_REACTORS
330
2A
102
}
330
2A
100
AcDbProxyObject
 90
      499
 91
      501
 93
      428
310
42109C9A59DA1D195B90C409028333333333333E3BF0000000000000FB010790141107004050150841D405064090741402480A029950
1001
ACAD
1000
AcDbSavedByObjectVersion
1070
     0
  0
ACAD_PROXY_OBJECT
  5
3A
102
{ACAD_REACTORS
330
2A
102
}
330
2A
100
AcDbProxyObject
 90
      499
 91
      501
 93
      452
310
42D0DBDB1BDC90DA185B99D95104090240C333333333333E3BF0000000000000FB0108901411070040501508421405064090741402480A0350
1001
ACAD
1000
AcDbSavedByObjectVersion
1070
     0
  0
ACAD_PROXY_OBJECT
  5
34
102
{ACAD_REACTORS
330
2A
102
}
330
2A
100
AcDbProxyObject
 90
      499
 91
      501
 93
      500
310
4290DBDB98D95C1D1D585B10940D028333333333333E3BF0000000000000FB0107902409070040501000000000000111010841D405064090740C02480A0340
1001
ACAD
1000
AcDbSavedByObjectVersion
1070
     0
  0
ACAD_PROXY_OBJECT
  5
35
102
{ACAD_REACTORS
330
2A
102
}
330
2A
100
AcDbProxyObject
 90
      499
 91
      501
 93
      412
310
40D11A5B50B409028333333333333E3BF0000000000000FB010790141107004050150841D405064090741402480A02677FFFFFD0
1001
ACAD
1000
AcDbSavedByObjectVersion
1070
     0
  0
ACAD_PROXY_OBJECT
  5
39
102
{ACAD_REACTORS
330
2A
102
}
330
2A
100
AcDbProxyObject
 90
      499
 91
      501
 93
      444
310
42D19858D95C185D1D195C9B90F409028333333333333E3BF0000000000000FB010790141107004050150841D405064090741402480A0350
1001
ACAD
1000
AcDbSavedByObjectVersion
1070
     0
  0
ACAD_PROXY_OBJECT
  5
2B
102
{ACAD_REACTORS
330
2A
102
}
330
2A
100
AcDbProxyObject
 90
      499
 91
      501
 93
      388
310
41119B185D240901404333333333333E3BF0000000000000F9010740A41107004050150841D405064090741402480A1B50
1001
ACAD
1000
AcDbSavedByObjectVersion
1070
     0
  0
ACAD_PROXY_OBJECT
  5
2C
102
{ACAD_REACTORS
330
2A
102
}
330
2A
100
AcDbProxyObject
 90
      499
 91
      501
 93
      476
310
43519B185D15DA5D1A115919D95CD0140901404333333333333E3BF0000000000000F9010740901411070040501600405405064090741402480A1B50
1001
ACAD
1000
AcDbSavedByObjectVersion
1070
     0
  0
ACAD_PROXY_OBJECT
  5
2D
102
{ACAD_REACTORS
330
2A
102
}
330
2A
100
AcDbProxyObject
 90
      499
 91
      501
 93
      412
310
41D1DBDD5C985D5910240902404333333333333E3BF0000000000000F9010740A411070040501641D405064090741402480A1B50
1001
ACAD
1000
AcDbSavedByObjectVersion
1070
     0
  0
ACAD_PROXY_OBJECT
  5
2E
102
{ACAD_REACTORS
330
2A
102
}
330
2A
100
AcDbProxyObject
 90
      499
 91
      501
 93
      500
310
4411DBDD5C985D5915DA5D1A115919D95CD0340902404333333333333E3BF0000000000000F9010740901411070040501600405405064090741402480A1B50
1001
ACAD
1000
AcDbSavedByObjectVersion
1070
     0
  0
ACAD_PROXY_OBJECT
  5
38
102
{ACAD_REACTORS
330
2A
102
}
330
2A
100
AcDbProxyObject
 90
      499
 91
      501
 93
      444
310
42D31A5B995C185D1D195C9B90E409028333333333333E3BF0000000000000FB010790141107004050750841D405064090741402483A0350
1001
ACAD
1000
AcDbSavedByObjectVersion
1070
     0
  0
ACAD_PROXY_OBJECT
  5
33
102
{ACAD_REACTORS
330
2A
102
}
330
2A
100
AcDbProxyObject
 90
      499
 91
      501
 93
      420
310
425499585B1A5CDD1A58D08409028333333333333E3BF0000000000000FB01079019070040501508421405064090741402480A1B40
1001
ACAD
1000
AcDbSavedByObjectVersion
1070
     0
  0
ACAD_PROXY_OBJECT
  5
37
102
{ACAD_REACTORS
330
2A
102
}
330
2A
100
AcDbProxyObject
 90
      499
 91
      501
 93
      412
310
41D51A1A58DAD95B90D409028333333333333E3BF0000000000000FB010790141107004050150C41D405064090741402480A0350
1001
ACAD
1000
AcDbSavedByObjectVersion
1070
     0
  0
XRECORD
  5
1A6
102
{ACAD_REACTORS
330
19D
102
}
330
19D
100
AcDbXrecord
 90
        0
  0
XRECORD
  5
1BC
102
{ACAD_REACTORS
330
19D
102
}
330
19D
100
AcDbXrecord
1000
DSTYLE
1002
{
1070
   340
340
11
1002
}
  0
XRECORD
  5
1A7
102
{ACAD_REACTORS
330
19D
102
}
330
19D
100
AcDbXrecord
  1
{B8D08590-93BB-453C-B00C-81BBBABBEA27}
  0
XRECORD
  5
1A0
102
{ACAD_REACTORS
330
19D
102
}
330
19D
100
AcDbXrecord
  1

  0
XRECORD
  5
1A5
102
{ACAD_REACTORS
330
19D
102
}
330
19D
100
AcDbXrecord
 90
        1
  0
XRECORD
  5
1A2
102
{ACAD_REACTORS
330
19D
102
}
330
19D
100
AcDbXrecord
340
1A
  0
XRECORD
  5
1A4
102
{ACAD_REACTORS
330
19D
102
}
330
19D
100
AcDbXrecord
 90
    10781
  0
XRECORD
  5
1A3
102
{ACAD_REACTORS
330
19D
102
}
330
19D
100
AcDbXrecord
340
19
  0
XRECORD
  5
1A9
102
{ACAD_REACTORS
330
19D
102
}
330
19D
100
AcDbXrecord
 40
0.0
  0
XRECORD
  5
1AC
102
{ACAD_REACTORS
330
19D
102
}
330
19D
100
AcDbXrecord
340
0
  0
XRECORD
  5
1B2
102
{ACAD_REACTORS
330
19D
102
}
330
19D
100
AcDbXrecord
 10
0.0
 20
0.0
 30
0.0
  0
XRECORD
  5
1AE
102
{ACAD_REACTORS
330
19D
102
}
330
19D
100
AcDbXrecord
 10
0.0
 20
0.0
 30
0.0
  0
XRECORD
  5
1B1
102
{ACAD_REACTORS
330
19D
102
}
330
19D
100
AcDbXrecord
 10
0.0
 20
0.0
 30
0.0
  0
XRECORD
  5
1AF
102
{ACAD_REACTORS
330
19D
102
}
330
19D
100
AcDbXrecord
 10
0.0
 20
0.0
 30
0.0
  0
XRECORD
  5
1B0
102
{ACAD_REACTORS
330
19D
102
}
330
19D
100
AcDbXrecord
 10
0.0
 20
0.0
 30
0.0
  0
XRECORD
  5
1AD
102
{ACAD_REACTORS
330
19D
102
}
330
19D
100
AcDbXrecord
 10
0.0
 20
0.0
 30
0.0
  0
XRECORD
  5
1AA
102
{ACAD_REACTORS
330
19D
102
}
330
19D
100
AcDbXrecord
340
0
  0
XRECORD
  5
1AB
102
{ACAD_REACTORS
330
19D
102
}
330
19D
100
AcDbXrecord
 70
     0
  0
XRECORD
  5
1A1
102
{ACAD_REACTORS
330
19D
102
}
330
19D
100
AcDbXrecord
  1

  0
XRECORD
  5
19E
102
{ACAD_REACTORS
330
19D
102
}
330
19D
100
AcDbXrecord
 90
        1
  0
XRECORD
  5
19F
102
{ACAD_REACTORS
330
19D
102
}
330
19D
100
AcDbXrecord
 90
       70
  0
XRECORD
  5
1B5
102
{ACAD_REACTORS
330
19D
102
}
330
19D
100
AcDbXrecord
340
0
  0
XRECORD
  5
1BB
102
{ACAD_REACTORS
330
19D
102
}
330
19D
100
AcDbXrecord
 10
0.0
 20
0.0
 30
0.0
  0
XRECORD
  5
1B7
102
{ACAD_REACTORS
330
19D
102
}
330
19D
100
AcDbXrecord
 10
0.0
 20
0.0
 30
0.0
  0
XRECORD
  5
1BA
102
{ACAD_REACTORS
330
19D
102
}
330
19D
100
AcDbXrecord
 10
0.0
 20
0.0
 30
0.0
  0
XRECORD
  5
1B8
102
{ACAD_REACTORS
330
19D
102
}
330
19D
100
AcDbXrecord
 10
0.0
 20
0.0
 30
0.0
  0
XRECORD
  5
1B9
102
{ACAD_REACTORS
330
19D
102
}
330
19D
100
AcDbXrecord
 10
0.0
 20
0.0
 30
0.0
  0
XRECORD
  5
1B6
102
{ACAD_REACTORS
330
19D
102
}
330
19D
100
AcDbXrecord
 10
0.0
 20
0.0
 30
0.0
  0
XRECORD
  5
1B3
102
{ACAD_REACTORS
330
19D
102
}
330
19D
100
AcDbXrecord
340
0
  0
XRECORD
  5
1B4
102
{ACAD_REACTORS
330
19D
102
}
330
19D
100
AcDbXrecord
 70
     0
  0
XRECORD
  5
1A8
102
{ACAD_REACTORS
330
19D
102
}
330
19D
100
AcDbXrecord
  1
{FAEB1C32-E019-11D5-929B-00C0DF256EC4}
  0
DICTIONARYVAR
  5
1C0
102
{ACAD_REACTORS
330
1BD
102
}
330
1BD
100
DictionaryVariables
280
     0
  1
2
  0
DICTIONARYVAR
  5
1C1
102
{ACAD_REACTORS
330
1BD
102
}
330
1BD
100
DictionaryVariables
280
     0
  1
1
  0
DICTIONARY
  5
1C4
330
3D
100
AcDbDictionary
280
     1
  3
ACAD_XREC_ROUNDTRIP
360
1C5
  0
DICTIONARY
  5
1C2
330
3C
100
AcDbDictionary
280
     1
  3
ACAD_XREC_ROUNDTRIP
360
1C3
  0
DICTIONARY
  5
1C6
330
3E
100
AcDbDictionary
280
     1
  3
ACAD_XREC_ROUNDTRIP
360
1C7
  0
XRECORD
  5
1C5
102
{ACAD_REACTORS
330
1C4
102
}
330
1C4
100
AcDbXrecord
102
MATERIAL
148
0.0
149
0.0
149
0.0
 93
        0
 94
      127
282
     0
 72
     1
 77
     1
171
     1
175
     1
179
     1
273
     0
  0
XRECORD
  5
1C3
102
{ACAD_REACTORS
330
1C2
102
}
330
1C2
100
AcDbXrecord
102
MATERIAL
148
0.0
149
0.0
149
0.0
 93
        0
 94
      127
282
     0
 72
     1
 77
     1
171
     1
175
     1
179
     1
273
     0
  0
XRECORD
  5
1C7
102
{ACAD_REACTORS
330
1C6
102
}
330
1C6
100
AcDbXrecord
102
MATERIAL
148
0.0
149
0.0
149
0.0
 93
        0
 94
      127
282
     0
 72
     1
 77
     1
171
     1
175
     1
179
     1
273
     0
  0
ENDSEC
  0
EOF
