  0
SECTION
  2
HEADER
  9
$ACADVER
  1
AC1021
  9
$ACADMAINTVER
 70
    25
  9
$DWGCODEPAGE
  3
ANSI_1252
  9
$INSBASE
 10
0.0
 20
0.0
 30
0.0
  9
$EXTMIN
 10
1.000000000000000E+20
 20
1.000000000000000E+20
 30
1.000000000000000E+20
  9
$EXTMAX
 10
-1.000000000000000E+20
 20
-1.000000000000000E+20
 30
-1.000000000000000E+20
  9
$LIMMIN
 10
0.0
 20
0.0
  9
$LIMMAX
 10
420.0
 20
297.0
  9
$ORTHOMODE
 70
     0
  9
$REGENMODE
 70
     1
  9
$FILLMODE
 70
     1
  9
$QTEXTMODE
 70
     0
  9
$MIRRTEXT
 70
     1
  9
$LTSCALE
 40
1.0
  9
$ATTMODE
 70
     1
  9
$TEXTSIZE
 40
2.5
  9
$TRACEWID
 40
1.0
  9
$TEXTSTYLE
  7
Standard
  9
$CLAYER
  8
0
  9
$CELTYPE
  6
ByLayer
  9
$CECOLOR
 62
   256
  9
$CELTSCALE
 40
1.0
  9
$DISPSILH
 70
     0
  9
$DIMSCALE
 40
1.0
  9
$DIMASZ
 40
2.5
  9
$DIMEXO
 40
0.625
  9
$DIMDLI
 40
3.75
  9
$DIMRND
 40
0.0
  9
$DIMDLE
 40
0.0
  9
$DIMEXE
 40
1.25
  9
$DIMTP
 40
0.0
  9
$DIMTM
 40
0.0
  9
$DIMTXT
 40
2.5
  9
$DIMCEN
 40
2.5
  9
$DIMTSZ
 40
0.0
  9
$DIMTOL
 70
     0
  9
$DIMLIM
 70
     0
  9
$DIMTIH
 70
     0
  9
$DIMTOH
 70
     0
  9
$DIMSE1
 70
     0
  9
$DIMSE2
 70
     0
  9
$DIMTAD
 70
     1
  9
$DIMZIN
 70
     8
  9
$DIMBLK
  1

  9
$DIMASO
 70
     1
  9
$DIMSHO
 70
     1
  9
$DIMPOST
  1

  9
$DIMAPOST
  1

  9
$DIMALT
 70
     0
  9
$DIMALTD
 70
     3
  9
$DIMALTF
 40
0.03937007874016
  9
$DIMLFAC
 40
1.0
  9
$DIMTOFL
 70
     1
  9
$DIMTVP
 40
0.0
  9
$DIMTIX
 70
     0
  9
$DIMSOXD
 70
     0
  9
$DIMSAH
 70
     0
  9
$DIMBLK1
  1

  9
$DIMBLK2
  1

  9
$DIMSTYLE
  2
ISO-25
  9
$DIMCLRD
 70
     0
  9
$DIMCLRE
 70
     0
  9
$DIMCLRT
 70
     0
  9
$DIMTFAC
 40
1.0
  9
$DIMGAP
 40
0.625
  9
$DIMJUST
 70
     0
  9
$DIMSD1
 70
     0
  9
$DIMSD2
 70
     0
  9
$DIMTOLJ
 70
     0
  9
$DIMTZIN
 70
     8
  9
$DIMALTZ
 70
     0
  9
$DIMALTTZ
 70
     0
  9
$DIMUPT
 70
     0
  9
$DIMDEC
 70
     2
  9
$DIMTDEC
 70
     2
  9
$DIMALTU
 70
     2
  9
$DIMALTTD
 70
     3
  9
$DIMTXSTY
  7
Standard
  9
$DIMAUNIT
 70
     0
  9
$DIMADEC
 70
     0
  9
$DIMALTRND
 40
0.0
  9
$DIMAZIN
 70
     0
  9
$DIMDSEP
 70
    44
  9
$DIMATFIT
 70
     3
  9
$DIMFRAC
 70
     0
  9
$DIMLDRBLK
  1

  9
$DIMLUNIT
 70
     2
  9
$DIMLWD
 70
    -2
  9
$DIMLWE
 70
    -2
  9
$DIMTMOVE
 70
     0
  9
$DIMFXL
 40
1.0
  9
$DIMFXLON
 70
     0
  9
$DIMJOGANG
 40
0.7853981633974483
  9
$DIMTFILL
 70
     0
  9
$DIMTFILLCLR
 70
     0
  9
$DIMARCSYM
 70
     0
  9
$DIMLTYPE
  6

  9
$DIMLTEX1
  6

  9
$DIMLTEX2
  6

  9
$LUNITS
 70
     2
  9
$LUPREC
 70
     4
  9
$SKETCHINC
 40
1.0
  9
$FILLETRAD
 40
10.0
  9
$AUNITS
 70
     0
  9
$AUPREC
 70
     0
  9
$MENU
  1
.
  9
$ELEVATION
 40
0.0
  9
$PELEVATION
 40
0.0
  9
$THICKNESS
 40
0.0
  9
$LIMCHECK
 70
     0
  9
$CHAMFERA
 40
10.0
  9
$CHAMFERB
 40
10.0
  9
$CHAMFERC
 40
20.0
  9
$CHAMFERD
 40
0.0
  9
$SKPOLY
 70
     0
  9
$TDCREATE
 40
2456306.832272187
  9
$TDUCREATE
 40
2456307.082272187
  9
$TDUPDATE
 40
2456306.832272199
  9
$TDUUPDATE
 40
2456307.082272199
  9
$TDINDWG
 40
0.0000000116
  9
$TDUSRTIMER
 40
0.0000000116
  9
$USRTIMER
 70
     1
  9
$ANGBASE
 50
0.0
  9
$ANGDIR
 70
     0
  9
$PDMODE
 70
     0
  9
$PDSIZE
 40
0.0
  9
$PLINEWID
 40
0.0
  9
$SPLFRAME
 70
     0
  9
$SPLINETYPE
 70
     6
  9
$SPLINESEGS
 70
     8
  9
$HANDSEED
  5
105
  9
$SURFTAB1
 70
     6
  9
$SURFTAB2
 70
     6
  9
$SURFTYPE
 70
     6
  9
$SURFU
 70
     6
  9
$SURFV
 70
     6
  9
$UCSBASE
  2

  9
$UCSNAME
  2

  9
$UCSORG
 10
0.0
 20
0.0
 30
0.0
  9
$UCSXDIR
 10
1.0
 20
0.0
 30
0.0
  9
$UCSYDIR
 10
0.0
 20
1.0
 30
0.0
  9
$UCSORTHOREF
  2

  9
$UCSORTHOVIEW
 70
     0
  9
$UCSORGTOP
 10
0.0
 20
0.0
 30
0.0
  9
$UCSORGBOTTOM
 10
0.0
 20
0.0
 30
0.0
  9
$UCSORGLEFT
 10
0.0
 20
0.0
 30
0.0
  9
$UCSORGRIGHT
 10
0.0
 20
0.0
 30
0.0
  9
$UCSORGFRONT
 10
0.0
 20
0.0
 30
0.0
  9
$UCSORGBACK
 10
0.0
 20
0.0
 30
0.0
  9
$PUCSBASE
  2

  9
$PUCSNAME
  2

  9
$PUCSORG
 10
0.0
 20
0.0
 30
0.0
  9
$PUCSXDIR
 10
1.0
 20
0.0
 30
0.0
  9
$PUCSYDIR
 10
0.0
 20
1.0
 30
0.0
  9
$PUCSORTHOREF
  2

  9
$PUCSORTHOVIEW
 70
     0
  9
$PUCSORGTOP
 10
0.0
 20
0.0
 30
0.0
  9
$PUCSORGBOTTOM
 10
0.0
 20
0.0
 30
0.0
  9
$PUCSORGLEFT
 10
0.0
 20
0.0
 30
0.0
  9
$PUCSORGRIGHT
 10
0.0
 20
0.0
 30
0.0
  9
$PUCSORGFRONT
 10
0.0
 20
0.0
 30
0.0
  9
$PUCSORGBACK
 10
0.0
 20
0.0
 30
0.0
  9
$USERI1
 70
     0
  9
$USERI2
 70
     0
  9
$USERI3
 70
     0
  9
$USERI4
 70
     0
  9
$USERI5
 70
     0
  9
$USERR1
 40
0.0
  9
$USERR2
 40
0.0
  9
$USERR3
 40
0.0
  9
$USERR4
 40
0.0
  9
$USERR5
 40
0.0
  9
$WORLDVIEW
 70
     1
  9
$SHADEDGE
 70
     3
  9
$SHADEDIF
 70
    70
  9
$TILEMODE
 70
     1
  9
$MAXACTVP
 70
    64
  9
$PINSBASE
 10
0.0
 20
0.0
 30
0.0
  9
$PLIMCHECK
 70
     0
  9
$PEXTMIN
 10
1.000000000000000E+20
 20
1.000000000000000E+20
 30
1.000000000000000E+20
  9
$PEXTMAX
 10
-1.000000000000000E+20
 20
-1.000000000000000E+20
 30
-1.000000000000000E+20
  9
$PLIMMIN
 10
0.0
 20
0.0
  9
$PLIMMAX
 10
420.0
 20
297.0
  9
$UNITMODE
 70
     0
  9
$VISRETAIN
 70
     1
  9
$PLINEGEN
 70
     0
  9
$PSLTSCALE
 70
     1
  9
$TREEDEPTH
 70
  3020
  9
$CMLSTYLE
  2
Standard
  9
$CMLJUST
 70
     0
  9
$CMLSCALE
 40
20.0
  9
$PROXYGRAPHICS
 70
     1
  9
$MEASUREMENT
 70
     1
  9
$CELWEIGHT
370
    -1
  9
$ENDCAPS
280
     0
  9
$JOINSTYLE
280
     0
  9
$LWDISPLAY
290
     1
  9
$INSUNITS
 70
     4
  9
$HYPERLINKBASE
  1

  9
$STYLESHEET
  1

  9
$XEDIT
290
     1
  9
$CEPSNTYPE
380
     0
  9
$PSTYLEMODE
290
     1
  9
$FINGERPRINTGUID
  2
{A6E2F506-EDFB-4C86-81AA-B2DC719BAA06}
  9
$VERSIONGUID
  2
{FAEB1C32-E019-11D5-929B-00C0DF256EC4}
  9
$EXTNAMES
290
     1
  9
$PSVPSCALE
 40
0.0
  9
$OLESTARTUP
290
     0
  9
$SORTENTS
280
   127
  9
$INDEXCTL
280
     0
  9
$HIDETEXT
280
     1
  9
$XCLIPFRAME
290
     0
  9
$HALOGAP
280
     0
  9
$OBSCOLOR
 70
   257
  9
$OBSLTYPE
280
     0
  9
$INTERSECTIONDISPLAY
280
     0
  9
$INTERSECTIONCOLOR
 70
   257
  9
$DIMASSOC
280
     2
  9
$PROJECTNAME
  1

  9
$CAMERADISPLAY
290
     0
  9
$LENSLENGTH
 40
50.0
  9
$CAMERAHEIGHT
 40
0.0
  9
$STEPSPERSEC
 40
2.0
  9
$STEPSIZE
 40
6.0
  9
$3DDWFPREC
 40
2.0
  9
$PSOLWIDTH
 40
5.0
  9
$PSOLHEIGHT
 40
80.0
  9
$LOFTANG1
 40
1.570796326794897
  9
$LOFTANG2
 40
1.570796326794897
  9
$LOFTMAG1
 40
0.0
  9
$LOFTMAG2
 40
0.0
  9
$LOFTPARAM
 70
     7
  9
$LOFTNORMALS
280
     1
  9
$LATITUDE
 40
37.795
  9
$LONGITUDE
 40
-122.394
  9
$NORTHDIRECTION
 40
0.0
  9
$TIMEZONE
 70
 -8000
  9
$LIGHTGLYPHDISPLAY
280
     1
  9
$TILEMODELIGHTSYNCH
280
     1
  9
$SOLIDHIST
280
     1
  9
$SHOWHIST
280
     1
  9
$DWFFRAME
280
     2
  9
$DGNFRAME
280
     2
  9
$REALWORLDSCALE
290
     1
  9
$INTERFERECOLOR
 62
   256
  9
$CSHADOW
280
     0
  9
$SHADOWPLANELOCATION
 40
0.0
  0
ENDSEC
  0
SECTION
  2
CLASSES
  0
CLASS
  1
ACDBDICTIONARYWDFLT
  2
AcDbDictionaryWithDefault
  3
ObjectDBX Classes
 90
        0
 91
        4
280
     0
281
     0
  0
CLASS
  1
VISUALSTYLE
  2
AcDbVisualStyle
  3
ObjectDBX Classes
 90
     4095
 91
        4
280
     0
281
     0
  0
CLASS
  1
MATERIAL
  2
AcDbMaterial
  3
ObjectDBX Classes
 90
     1153
 91
        4
280
     0
281
     0
  0
ENDSEC
  0
SECTION
  2
TABLES
  0
TABLE
  2
VPORT
  5
8
330
0
100
AcDbSymbolTable
 70
     1
  0
VPORT
  5
29
330
8
100
AcDbSymbolTableRecord
100
AcDbViewportTableRecord
  2
*Active
 70
     0
 10
0.0
 20
0.0
 11
1.0
 21
1.0
 12
344.1869158878504
 22
148.5
 13
0.0
 23
0.0
 14
10.0
 24
10.0
 15
10.0
 25
10.0
 16
0.0
 26
0.0
 36
1.0
 17
0.0
 27
0.0
 37
0.0
 40
297.0
 41
1.972972972850329
 42
50.0
 43
0.0
 44
0.0
 50
0.0
 51
0.0
 71
     0
 72
   100
 73
     1
 74
     3
 75
     0
 76
     0
 77
     0
 78
     0
281
     0
 65
     1
110
0.0
120
0.0
130
0.0
111
1.0
121
0.0
131
0.0
112
0.0
122
1.0
132
0.0
 79
     0
146
0.0
 60
     3
 61
     5
292
     1
282
     1
141
0.0
142
0.0
 63
   250
  0
ENDTAB
  0
TABLE
  2
LTYPE
  5
5
330
0
100
AcDbSymbolTable
 70
    13
  0
LTYPE
  5
14
330
5
100
AcDbSymbolTableRecord
100
AcDbLinetypeTableRecord
  2
ByBlock
 70
     0
  3

 72
    65
 73
     0
 40
0.0
  0
LTYPE
  5
15
330
5
100
AcDbSymbolTableRecord
100
AcDbLinetypeTableRecord
  2
ByLayer
 70
     0
  3

 72
    65
 73
     0
 40
0.0
  0
LTYPE
  5
16
330
5
100
AcDbSymbolTableRecord
100
AcDbLinetypeTableRecord
  2
Continuous
 70
     0
  3
Solid line
 72
    65
 73
     0
 40
0.0
  0
LTYPE
  5
3F
330
5
100
AcDbSymbolTableRecord
100
AcDbLinetypeTableRecord
  2
LT_0
 70
     0
  3
Comments
 72
    65
 73
     0
 40
0.0
  0
LTYPE
  5
40
330
5
100
AcDbSymbolTableRecord
100
AcDbLinetypeTableRecord
  2
LT_1
 70
     0
  3
Comments
 72
    65
 73
     2
 40
0.25
 49
0.125
 74
     0
 49
-0.125
 74
     0
  0
LTYPE
  5
41
330
5
100
AcDbSymbolTableRecord
100
AcDbLinetypeTableRecord
  2
LT_2
 70
     0
  3
Comments
 72
    65
 73
     2
 40
0.0347222222222222
 49
0.0138888888888889
 74
     0
 49
-0.0208333333333333
 74
     0
  0
LTYPE
  5
42
330
5
100
AcDbSymbolTableRecord
100
AcDbLinetypeTableRecord
  2
LT_3
 70
     0
  3
Comments
 72
    65
 73
     4
 40
0.3472222222222222
 49
0.125
 74
     0
 49
-0.125
 74
     0
 49
0.0104166666666667
 74
     0
 49
-0.0868055555555556
 74
     0
  0
LTYPE
  5
43
330
5
100
AcDbSymbolTableRecord
100
AcDbLinetypeTableRecord
  2
LT_4
 70
     0
  3
Comments
 72
    65
 73
     6
 40
0.4444444444444444
 49
0.125
 74
     0
 49
-0.125
 74
     0
 49
0.0104166666666667
 74
     0
 49
-0.0868055555555556
 74
     0
 49
0.0104166666666667
 74
     0
 49
-0.0868055555555556
 74
     0
  0
LTYPE
  5
44
330
5
100
AcDbSymbolTableRecord
100
AcDbLinetypeTableRecord
  2
LT_5
 70
     0
  3
Comments
 72
    65
 73
     2
 40
0.25
 49
0.125
 74
     0
 49
-0.125
 74
     0
  0
LTYPE
  5
45
330
5
100
AcDbSymbolTableRecord
100
AcDbLinetypeTableRecord
  2
LT_6
 70
     0
  3
Comments
 72
    65
 73
     8
 40
0.5416666666666666
 49
0.125
 74
     0
 49
-0.125
 74
     0
 49
0.0104166666666667
 74
     0
 49
-0.0868055555555556
 74
     0
 49
0.0104166666666667
 74
     0
 49
-0.0868055555555556
 74
     0
 49
0.0104166666666667
 74
     0
 49
-0.0868055555555556
 74
     0
  0
LTYPE
  5
46
330
5
100
AcDbSymbolTableRecord
100
AcDbLinetypeTableRecord
  2
LT_7
 70
     0
  3
Comments
 72
    65
 73
     8
 40
0.6944444444444444
 49
0.125
 74
     0
 49
-0.125
 74
     0
 49
0.125
 74
     0
 49
-0.125
 74
     0
 49
0.0104166666666667
 74
     0
 49
-0.0868055555555556
 74
     0
 49
0.0104166666666667
 74
     0
 49
-0.0868055555555556
 74
     0
  0
LTYPE
  5
47
330
5
100
AcDbSymbolTableRecord
100
AcDbLinetypeTableRecord
  2
LT_8
 70
     0
  3
Comments
 72
    65
 73
     6
 40
0.5972222222222222
 49
0.125
 74
     0
 49
-0.125
 74
     0
 49
0.125
 74
     0
 49
-0.125
 74
     0
 49
0.0104166666666667
 74
     0
 49
-0.0868055555555556
 74
     0
  0
LTYPE
  5
48
330
5
100
AcDbSymbolTableRecord
100
AcDbLinetypeTableRecord
  2
LT_9
 70
     0
  3
Comments
 72
    65
 73
    10
 40
0.7916666666666666
 49
0.125
 74
     0
 49
-0.125
 74
     0
 49
0.125
 74
     0
 49
-0.125
 74
     0
 49
0.0104166666666667
 74
     0
 49
-0.0868055555555556
 74
     0
 49
0.0104166666666667
 74
     0
 49
-0.0868055555555556
 74
     0
 49
0.0104166666666667
 74
     0
 49
-0.0868055555555556
 74
     0
  0
LTYPE
  5
49
330
5
100
AcDbSymbolTableRecord
100
AcDbLinetypeTableRecord
  2
LT_10
 70
     0
  3
Comments
 72
    65
 73
     4
 40
0.9444444444444444
 49
0.125
 74
     0
 49
-0.1805555555555556
 74
     0
 49
0.375
 74
     0
 49
-0.2638888888888889
 74
     0
  0
LTYPE
  5
4A
330
5
100
AcDbSymbolTableRecord
100
AcDbLinetypeTableRecord
  2
LT_11
 70
     0
  3
Comments
 72
    65
 73
     6
 40
1.25
 49
0.125
 74
     0
 49
-0.1805555555555556
 74
     0
 49
0.125
 74
     0
 49
-0.1805555555555556
 74
     0
 49
0.375
 74
     0
 49
-0.2638888888888889
 74
     0
  0
ENDTAB
  0
TABLE
  2
LAYER
  5
2
330
0
100
AcDbSymbolTable
 70
     3
  0
LAYER
  5
10
330
2
100
AcDbSymbolTableRecord
100
AcDbLayerTableRecord
  2
0
 70
     0
 62
     7
  6
Continuous
370
    -3
390
F
347
3E
  0
LAYER
  5
52
330
2
100
AcDbSymbolTableRecord
100
AcDbLayerTableRecord
  2
On Every Page
 70
     0
 62
     7
  6
Continuous
370
    -3
390
F
347
3E
  0
LAYER
  5
53
330
2
100
AcDbSymbolTableRecord
100
AcDbLayerTableRecord
  2
Default
 70
     0
 62
     7
  6
Continuous
370
    -3
390
F
347
3E
  0
ENDTAB
  0
TABLE
  2
STYLE
  5
3
330
0
100
AcDbSymbolTable
 70
     1
  0
STYLE
  5
11
330
3
100
AcDbSymbolTableRecord
100
AcDbTextStyleTableRecord
  2
Standard
 70
     0
 40
0.0
 41
1.0
 50
0.0
 71
     0
 42
2.5
  3
txt
  4

  0
ENDTAB
  0
TABLE
  2
VIEW
  5
6
330
0
100
AcDbSymbolTable
 70
     0
  0
ENDTAB
  0
TABLE
  2
UCS
  5
7
330
0
100
AcDbSymbolTable
 70
     0
  0
ENDTAB
  0
TABLE
  2
APPID
  5
9
330
0
100
AcDbSymbolTable
 70
     1
  0
APPID
  5
12
330
9
100
AcDbSymbolTableRecord
100
AcDbRegAppTableRecord
  2
ACAD
 70
     0
  0
ENDTAB
  0
TABLE
  2
DIMSTYLE
  5
A
330
0
100
AcDbSymbolTable
 70
     1
100
AcDbDimStyleTable
  0
DIMSTYLE
105
27
330
A
100
AcDbSymbolTableRecord
100
AcDbDimStyleTableRecord
  2
ISO-25
 70
     0
 41
2.5
 42
0.625
 43
3.75
 44
1.25
 73
     0
 74
     0
 77
     1
 78
     8
140
2.5
141
2.5
143
0.03937007874016
147
0.625
171
     3
172
     1
271
     2
272
     2
274
     3
278
    44
283
     0
284
     8
340
11
  0
ENDTAB
  0
TABLE
  2
BLOCK_RECORD
  5
1
330
0
100
AcDbSymbolTable
 70
     1
  0
BLOCK_RECORD
  5
1F
330
1
100
AcDbSymbolTableRecord
100
AcDbBlockTableRecord
  2
*Model_Space
340
22
 70
     0
280
     1
281
     0
  0
BLOCK_RECORD
  5
1B
330
1
100
AcDbSymbolTableRecord
100
AcDbBlockTableRecord
  2
*Paper_Space
340
1E
 70
     0
280
     1
281
     0
  0
BLOCK_RECORD
  5
23
330
1
100
AcDbSymbolTableRecord
100
AcDbBlockTableRecord
  2
*Paper_Space0
340
26
 70
     0
280
     1
281
     0
  0
ENDTAB
  0
ENDSEC
  0
SECTION
  2
BLOCKS
  0
BLOCK
  5
20
330
1F
100
AcDbEntity
  8
0
100
AcDbBlockBegin
  2
*Model_Space
 70
     0
 10
0.0
 20
0.0
 30
0.0
  3
*Model_Space
  1

  0
ENDBLK
  5
21
330
1F
100
AcDbEntity
  8
0
100
AcDbBlockEnd
  0
BLOCK
  5
1C
330
1B
100
AcDbEntity
 67
     1
  8
0
100
AcDbBlockBegin
  2
*Paper_Space
 70
     0
 10
0.0
 20
0.0
 30
0.0
  3
*Paper_Space
  1

  0
ENDBLK
  5
1D
330
1B
100
AcDbEntity
 67
     1
  8
0
100
AcDbBlockEnd
  0
BLOCK
  5
24
330
23
100
AcDbEntity
  8
0
100
AcDbBlockBegin
  2
*Paper_Space0
 70
     0
 10
0.0
 20
0.0
 30
0.0
  3
*Paper_Space0
  1

  0
ENDBLK
  5
25
330
23
100
AcDbEntity
  8
0
100
AcDbBlockEnd
  0
ENDSEC
  0
SECTION
  2
ENTITIES
  0
POLYLINE
  5
4B
330
1F
100
AcDbEntity
  8
0
 62
    18
420
        0
100
AcDb2dPolyline
 66
     1
 10
0.0
 20
0.0
 30
0.0
  0
VERTEX
  5
4C
330
4B
100
AcDbEntity
  8
0
 62
    18
420
        0
100
AcDbVertex
100
AcDb2dVertex
 10
0.0
 20
296.9999144771919
 30
0.0
  0
VERTEX
  5
4D
330
4B
100
AcDbEntity
  8
0
 62
    18
420
        0
100
AcDbVertex
100
AcDb2dVertex
 10
0.0
 20
0.0
 30
0.0
  0
VERTEX
  5
4E
330
4B
100
AcDbEntity
  8
0
 62
    18
420
        0
100
AcDbVertex
100
AcDb2dVertex
 10
419.9999387605931
 20
0.0
 30
0.0
  0
VERTEX
  5
4F
330
4B
100
AcDbEntity
  8
0
 62
    18
420
        0
100
AcDbVertex
100
AcDb2dVertex
 10
419.9999387605931
 20
296.9999144771919
 30
0.0
  0
VERTEX
  5
50
330
4B
100
AcDbEntity
  8
0
 62
    18
420
        0
100
AcDbVertex
100
AcDb2dVertex
 10
0.0
 20
296.9999144771919
 30
0.0
  0
SEQEND
  5
51
330
4B
100
AcDbEntity
  8
0
 62
    18
420
        0
  0
SPLINE
  5
54
330
1F
100
AcDbEntity
  8
Default
  6
LT_0
 62
    18
420
        0
370
    15
100
AcDbSpline
210
0.0
220
0.0
230
1.0
 70
    28
 71
     3
 72
     8
 73
     4
 74
     0
 42
0.00001
 43
0.0001
 40
0.0
 40
0.0
 40
0.0
 40
0.0
 40
1.0
 40
1.0
 40
1.0
 40
1.0
 10
114.9999918832555
 20
161.5319377481364
 30
0.0
 41
0.25
 10
114.9999918832555
 20
161.5319377481364
 30
0.0
 41
0.25
 10
114.9999918832555
 20
286.9999421051176
 30
0.0
 41
0.25
 10
114.9999918832555
 20
286.9999269655381
 30
0.0
 41
0.25
  0
SPLINE
  5
55
330
1F
100
AcDbEntity
  8
Default
  6
LT_0
 62
    18
420
        0
370
    15
100
AcDbSpline
210
0.0
220
0.0
230
1.0
 70
    28
 71
     3
 72
     8
 73
     4
 74
     0
 42
0.00001
 43
0.0001
 40
0.0
 40
0.0
 40
0.0
 40
0.0
 40
1.0
 40
1.0
 40
1.0
 40
1.0
 10
114.9999918832555
 20
286.9999269655381
 30
0.0
 41
0.25
 10
114.9999918832555
 20
286.9999269655381
 30
0.0
 41
0.25
 10
360.0000409419135
 20
286.9999269655381
 30
0.0
 41
0.25
 10
360.0000409419135
 20
286.9999269655381
 30
0.0
 41
0.25
  0
LINE
  5
56
330
1F
100
AcDbEntity
  8
Default
  6
LT_0
 62
    18
420
        0
440
 33554687
 48
0.5
370
    15
100
AcDbLine
 10
360.0000409419135
 20
286.9999269655381
 30
0.0
 11
360.0000409419135
 21
81.53198920825162
 31
0.0
  0
LINE
  5
57
330
1F
100
AcDbEntity
  8
Default
  6
LT_0
 62
    18
420
        0
440
 33554687
 48
0.5
370
    15
100
AcDbLine
 10
10.0000003802964
 20
81.53198920825162
 30
0.0
 11
10.0000003802964
 21
281.5319544233569
 31
0.0
  0
SPLINE
  5
58
330
1F
100
AcDbEntity
  8
Default
  6
LT_0
 62
    18
420
        0
370
    15
100
AcDbSpline
210
0.0
220
0.0
230
1.0
 70
    12
 71
     3
 72
     8
 73
     4
 74
     0
 42
0.00001
 43
0.0001
 40
0.0
 40
0.0
 40
0.0
 40
0.0
 40
1.0
 40
1.0
 40
1.0
 40
1.0
 10
27.49999555771751
 20
271.8721729455456
 30
0.0
 41
0.25
 10
27.49999555771751
 20
273.2516187637566
 30
0.0
 41
0.25
 10
28.62054245403556
 20
274.3721641461167
 30
0.0
 41
0.25
 10
29.99999130016249
 20
274.3721641461167
 30
0.0
 41
0.25
  0
SPLINE
  5
59
330
1F
100
AcDbEntity
  8
Default
  6
LT_0
 62
    18
420
        0
370
    15
100
AcDbSpline
210
0.0
220
0.0
230
1.0
 70
    12
 71
     3
 72
     8
 73
     4
 74
     0
 42
0.00001
 43
0.0001
 40
0.0
 40
0.0
 40
0.0
 40
0.0
 40
1.0
 40
1.0
 40
1.0
 40
1.0
 10
29.99999130016249
 20
274.3721641461167
 30
0.0
 41
0.25
 10
31.3794643696167
 20
274.3721641461167
 30
0.0
 41
0.25
 10
32.49998401469156
 20
273.2516187637566
 30
0.0
 41
0.25
 10
32.49998401469156
 20
271.8721729455456
 30
0.0
 41
0.25
  0
SPLINE
  5
5A
330
1F
100
AcDbEntity
  8
Default
  6
LT_0
 62
    18
420
        0
370
    15
100
AcDbSpline
210
0.0
220
0.0
230
1.0
 70
    12
 71
     3
 72
     8
 73
     4
 74
     0
 42
0.00001
 43
0.0001
 40
0.0
 40
0.0
 40
0.0
 40
0.0
 40
1.0
 40
1.0
 40
1.0
 40
1.0
 10
32.49998401469156
 20
271.8721729455456
 30
0.0
 41
0.25
 10
32.49998401469156
 20
270.4927301552505
 30
0.0
 41
0.25
 10
31.3794643696167
 20
269.3721832589324
 30
0.0
 41
0.25
 10
29.99999130016249
 20
269.3721832589324
 30
0.0
 41
0.25
  0
SPLINE
  5
5B
330
1F
100
AcDbEntity
  8
Default
  6
LT_0
 62
    18
420
        0
370
    15
100
AcDbSpline
210
0.0
220
0.0
230
1.0
 70
    12
 71
     3
 72
     8
 73
     4
 74
     0
 42
0.00001
 43
0.0001
 40
0.0
 40
0.0
 40
0.0
 40
0.0
 40
1.0
 40
1.0
 40
1.0
 40
1.0
 10
29.99999130016249
 20
269.3721832589324
 30
0.0
 41
0.25
 10
28.62054245403556
 20
269.3721832589324
 30
0.0
 41
0.25
 10
27.49999555771751
 20
270.4927301552505
 30
0.0
 41
0.25
 10
27.49999555771751
 20
271.8721729455456
 30
0.0
 41
0.25
  0
SPLINE
  5
5C
330
1F
100
AcDbEntity
  8
Default
  6
LT_0
 62
    18
420
        0
370
    15
100
AcDbSpline
210
0.0
220
0.0
230
1.0
 70
    12
 71
     3
 72
     8
 73
     4
 74
     0
 42
0.00001
 43
0.0001
 40
0.0
 40
0.0
 40
0.0
 40
0.0
 40
1.0
 40
1.0
 40
1.0
 40
1.0
 10
27.49999555771751
 20
92.09372324915421
 30
0.0
 41
0.25
 10
27.49999555771751
 20
93.4731932906925
 30
0.0
 41
0.25
 10
28.62054245403556
 20
94.59371596368328
 30
0.0
 41
0.25
 10
29.99999130016249
 20
94.59371596368328
 30
0.0
 41
0.25
  0
SPLINE
  5
5D
330
1F
100
AcDbEntity
  8
Default
  6
LT_0
 62
    18
420
        0
370
    15
100
AcDbSpline
210
0.0
220
0.0
230
1.0
 70
    12
 71
     3
 72
     8
 73
     4
 74
     0
 42
0.00001
 43
0.0001
 40
0.0
 40
0.0
 40
0.0
 40
0.0
 40
1.0
 40
1.0
 40
1.0
 40
1.0
 10
29.99999130016249
 20
94.59371596368328
 30
0.0
 41
0.25
 10
31.3794643696167
 20
94.59371596368328
 30
0.0
 41
0.25
 10
32.49998401469156
 20
93.4731932906925
 30
0.0
 41
0.25
 10
32.49998401469156
 20
92.09372324915421
 30
0.0
 41
0.25
  0
SPLINE
  5
5E
330
1F
100
AcDbEntity
  8
Default
  6
LT_0
 62
    18
420
        0
370
    15
100
AcDbSpline
210
0.0
220
0.0
230
1.0
 70
    12
 71
     3
 72
     8
 73
     4
 74
     0
 42
0.00001
 43
0.0001
 40
0.0
 40
0.0
 40
0.0
 40
0.0
 40
1.0
 40
1.0
 40
1.0
 40
1.0
 10
32.49998401469156
 20
92.09372324915421
 30
0.0
 41
0.25
 10
32.49998401469156
 20
90.71425320761591
 30
0.0
 41
0.25
 10
31.3794643696167
 20
89.59373053462514
 30
0.0
 41
0.25
 10
29.99999130016249
 20
89.59373053462514
 30
0.0
 41
0.25
  0
SPLINE
  5
5F
330
1F
100
AcDbEntity
  8
Default
  6
LT_0
 62
    18
420
        0
370
    15
100
AcDbSpline
210
0.0
220
0.0
230
1.0
 70
    12
 71
     3
 72
     8
 73
     4
 74
     0
 42
0.00001
 43
0.0001
 40
0.0
 40
0.0
 40
0.0
 40
0.0
 40
1.0
 40
1.0
 40
1.0
 40
1.0
 10
29.99999130016249
 20
89.59373053462514
 30
0.0
 41
0.25
 10
28.62054245403556
 20
89.59373053462514
 30
0.0
 41
0.25
 10
27.49999555771751
 20
90.71425320761591
 30
0.0
 41
0.25
 10
27.49999555771751
 20
92.09372324915421
 30
0.0
 41
0.25
  0
LINE
  5
60
330
1F
100
AcDbEntity
  8
Default
  6
LT_0
 62
    18
420
        0
440
 33554687
 48
0.5
370
    15
100
AcDbLine
 10
185.1744017447163
 20
261.5319400371425
 30
0.0
 11
320.0001090627939
 21
261.5319400371425
 31
0.0
  0
SPLINE
  5
61
330
1F
100
AcDbEntity
  8
Default
  6
LT_0
 62
    18
420
        0
370
    15
100
AcDbSpline
210
0.0
220
0.0
230
1.0
 70
    12
 71
     3
 72
     8
 73
     4
 74
     0
 42
0.00001
 43
0.0001
 40
0.0
 40
0.0
 40
0.0
 40
0.0
 40
1.0
 40
1.0
 40
1.0
 40
1.0
 10
320.0001090627939
 20
261.5319400371425
 30
0.0
 41
0.25
 10
328.2843174268419
 20
261.5319400371425
 30
0.0
 41
0.25
 10
335.0000895732956
 20
254.8162314769229
 30
0.0
 41
0.25
 10
335.0000895732956
 20
246.5319443870612
 30
0.0
 41
0.25
  0
LINE
  5
62
330
1F
100
AcDbEntity
  8
Default
  6
LT_0
 62
    18
420
        0
440
 33554687
 48
0.5
370
    15
100
AcDbLine
 10
335.0000895732956
 20
246.5319443870612
 30
0.0
 11
335.0000895732956
 21
116.5319235466495
 31
0.0
  0
SPLINE
  5
63
330
1F
100
AcDbEntity
  8
Default
  6
LT_0
 62
    18
420
        0
370
    15
100
AcDbSpline
210
0.0
220
0.0
230
1.0
 70
    12
 71
     3
 72
     8
 73
     4
 74
     0
 42
0.00001
 43
0.0001
 40
0.0
 40
0.0
 40
0.0
 40
0.0
 40
1.0
 40
1.0
 40
1.0
 40
1.0
 10
335.0000895732956
 20
116.5319235466495
 30
0.0
 41
0.25
 10
335.0000895732956
 20
108.247666735947
 30
0.0
 41
0.25
 10
328.2843174268419
 20
101.5319309244842
 30
0.0
 41
0.25
 10
320.0001090627939
 20
101.5319309244842
 30
0.0
 41
0.25
  0
LINE
  5
64
330
1F
100
AcDbEntity
  8
Default
  6
LT_0
 62
    18
420
        0
440
 33554687
 48
0.5
370
    15
100
AcDbLine
 10
320.0001090627939
 20
101.5319309244842
 30
0.0
 11
294.9999154609031
 21
101.5319309244842
 31
0.0
  0
LINE
  5
65
330
1F
100
AcDbEntity
  8
Default
  6
LT_0
 62
    18
420
        0
440
 33554687
 48
0.5
370
    15
100
AcDbLine
 10
185.3565732774723
 20
101.5319309244842
 30
0.0
 11
148.3392233504765
 21
101.5319309244842
 31
0.0
  0
SPLINE
  5
66
330
1F
100
AcDbEntity
  8
Default
  6
LT_0
 62
    18
420
        0
370
    15
100
AcDbSpline
210
0.0
220
0.0
230
1.0
 70
    12
 71
     3
 72
     8
 73
     4
 74
     0
 42
0.00001
 43
0.0001
 40
0.0
 40
0.0
 40
0.0
 40
0.0
 40
1.0
 40
1.0
 40
1.0
 40
1.0
 10
148.3392233504765
 20
101.5319309244842
 30
0.0
 41
0.25
 10
141.5245594704311
 20
101.5319309244842
 30
0.0
 41
0.25
 10
136.0001268942506
 20
108.247666735947
 30
0.0
 41
0.25
 10
136.0001268942506
 20
116.5319235466495
 30
0.0
 41
0.25
  0
LINE
  5
67
330
1F
100
AcDbEntity
  8
Default
  6
LT_0
 62
    18
420
        0
440
 33554687
 48
0.5
370
    15
100
AcDbLine
 10
136.0001268942506
 20
116.5319235466495
 30
0.0
 11
136.0001268942506
 21
246.5319443870612
 31
0.0
  0
SPLINE
  5
68
330
1F
100
AcDbEntity
  8
Default
  6
LT_0
 62
    18
420
        0
370
    15
100
AcDbSpline
210
0.0
220
0.0
230
1.0
 70
    12
 71
     3
 72
     8
 73
     4
 74
     0
 42
0.00001
 43
0.0001
 40
0.0
 40
0.0
 40
0.0
 40
0.0
 40
1.0
 40
1.0
 40
1.0
 40
1.0
 10
136.0001268942506
 20
246.5319443870612
 30
0.0
 41
0.25
 10
136.0001268942506
 20
254.8162314769229
 30
0.0
 41
0.25
 10
141.5245594704311
 20
261.5319400371425
 30
0.0
 41
0.25
 10
148.3392233504765
 20
261.5319400371425
 30
0.0
 41
0.25
  0
LINE
  5
69
330
1F
100
AcDbEntity
  8
Default
  6
LT_0
 62
    18
420
        0
440
 33554687
 48
0.5
370
    15
100
AcDbLine
 10
148.3392233504765
 20
261.5319400371425
 30
0.0
 11
185.5000359332462
 21
261.5319400371425
 31
0.0
  0
SPLINE
  5
6A
330
1F
100
AcDbEntity
  8
Default
  6
LT_0
 62
    18
420
        0
370
    15
100
AcDbSpline
210
0.0
220
0.0
230
1.0
 70
    28
 71
     3
 72
     8
 73
     4
 74
     0
 42
0.00001
 43
0.0001
 40
0.0
 40
0.0
 40
0.0
 40
0.0
 40
1.0
 40
1.0
 40
1.0
 40
1.0
 10
185.0000059000149
 20
101.5319309244842
 30
0.0
 41
0.25
 10
185.0000059000149
 20
101.5319309244842
 30
0.0
 41
0.25
 10
210.0000178269511
 20
126.5319307397567
 30
0.0
 41
0.25
 10
210.0000178269511
 20
126.5319307397567
 30
0.0
 41
0.25
  0
SPLINE
  5
6B
330
1F
100
AcDbEntity
  8
Default
  6
LT_0
 62
    18
420
        0
370
    15
100
AcDbSpline
210
0.0
220
0.0
230
1.0
 70
    28
 71
     3
 72
     8
 73
     4
 74
     0
 42
0.00001
 43
0.0001
 40
0.0
 40
0.0
 40
0.0
 40
0.0
 40
1.0
 40
1.0
 40
1.0
 40
1.0
 10
210.0000178269511
 20
126.5319307397567
 30
0.0
 41
0.25
 10
210.0000178269511
 20
126.5319307397567
 30
0.0
 41
0.25
 10
269.9999640922852
 20
126.5319307397567
 30
0.0
 41
0.25
 10
269.9999640922852
 20
126.5319307397567
 30
0.0
 41
0.25
  0
LINE
  5
6C
330
1F
100
AcDbEntity
  8
Default
  6
LT_0
 62
    18
420
        0
440
 33554687
 48
0.5
370
    15
100
AcDbLine
 10
269.9999640922852
 20
126.5319307397567
 30
0.0
 11
294.9999154609031
 21
101.5319309244842
 31
0.0
  0
LINE
  5
6D
330
1F
100
AcDbEntity
  8
Default
  6
LT_0
 62
    18
420
        0
440
 33554687
 48
0.5
370
    15
100
AcDbLine
 10
97.82990404069096
 20
141.5319475852493
 30
0.0
 11
97.82990404069096
 21
81.53198920825162
 31
0.0
  0
LINE
  5
6E
330
1F
100
AcDbEntity
  8
Default
  6
LT_0
 62
    18
420
        0
440
 33554687
 48
0.5
370
    15
100
AcDbLine
 10
114.9999918832555
 20
161.5319377481364
 30
0.0
 11
97.82990404069096
 21
141.5319475852493
 31
0.0
  0
SPLINE
  5
6F
330
1F
100
AcDbEntity
  8
Default
  6
LT_0
 62
    18
420
        0
370
    15
100
AcDbSpline
210
0.0
220
0.0
230
1.0
 70
    12
 71
     3
 72
     8
 73
     4
 74
     0
 42
0.00001
 43
0.0001
 40
0.0
 40
0.0
 40
0.0
 40
0.0
 40
1.0
 40
1.0
 40
1.0
 40
1.0
 10
102.5000161989465
 20
271.8721729455456
 30
0.0
 41
0.25
 10
102.5000161989465
 20
273.2516369312521
 30
0.0
 41
0.25
 10
103.6205630952645
 20
274.3721777717383
 30
0.0
 41
0.25
 10
105.0000210251392
 20
274.3721777717383
 30
0.0
 41
0.25
  0
SPLINE
  5
70
330
1F
100
AcDbEntity
  8
Default
  6
LT_0
 62
    18
420
        0
370
    15
100
AcDbSpline
210
0.0
220
0.0
230
1.0
 70
    12
 71
     3
 72
     8
 73
     4
 74
     0
 42
0.00001
 43
0.0001
 40
0.0
 40
0.0
 40
0.0
 40
0.0
 40
1.0
 40
1.0
 40
1.0
 40
1.0
 10
105.0000210251392
 20
274.3721777717383
 30
0.0
 41
0.25
 10
106.3794910666775
 20
274.3721777717383
 30
0.0
 41
0.25
 10
107.5000379629955
 20
273.2516369312521
 30
0.0
 41
0.25
 10
107.5000379629955
 20
271.8721729455456
 30
0.0
 41
0.25
  0
SPLINE
  5
71
330
1F
100
AcDbEntity
  8
Default
  6
LT_0
 62
    18
420
        0
370
    15
100
AcDbSpline
210
0.0
220
0.0
230
1.0
 70
    12
 71
     3
 72
     8
 73
     4
 74
     0
 42
0.00001
 43
0.0001
 40
0.0
 40
0.0
 40
0.0
 40
0.0
 40
1.0
 40
1.0
 40
1.0
 40
1.0
 10
107.5000379629955
 20
271.8721729455456
 30
0.0
 41
0.25
 10
107.5000379629955
 20
270.4927029040073
 30
0.0
 41
0.25
 10
106.3794910666775
 20
269.3721560076892
 30
0.0
 41
0.25
 10
105.0000210251392
 20
269.3721560076892
 30
0.0
 41
0.25
  0
SPLINE
  5
72
330
1F
100
AcDbEntity
  8
Default
  6
LT_0
 62
    18
420
        0
370
    15
100
AcDbSpline
210
0.0
220
0.0
230
1.0
 70
    12
 71
     3
 72
     8
 73
     4
 74
     0
 42
0.00001
 43
0.0001
 40
0.0
 40
0.0
 40
0.0
 40
0.0
 40
1.0
 40
1.0
 40
1.0
 40
1.0
 10
105.0000210251392
 20
269.3721560076892
 30
0.0
 41
0.25
 10
103.6205630952645
 20
269.3721560076892
 30
0.0
 41
0.25
 10
102.5000161989465
 20
270.4927029040073
 30
0.0
 41
0.25
 10
102.5000161989465
 20
271.8721729455456
 30
0.0
 41
0.25
  0
SPLINE
  5
73
330
1F
100
AcDbEntity
  8
Default
  6
LT_0
 62
    18
420
        0
370
    15
100
AcDbSpline
210
0.0
220
0.0
230
1.0
 70
    12
 71
     3
 72
     8
 73
     4
 74
     0
 42
0.00001
 43
0.0001
 40
0.0
 40
0.0
 40
0.0
 40
0.0
 40
1.0
 40
1.0
 40
1.0
 40
1.0
 10
73.34377183435436
 20
92.09372324915421
 30
0.0
 41
0.25
 10
73.34377183435436
 20
93.4731932906925
 30
0.0
 41
0.25
 10
74.46431267484058
 20
94.59374018701055
 30
0.0
 41
0.25
 10
75.84376454888343
 20
94.59374018701055
 30
0.0
 41
0.25
  0
SPLINE
  5
74
330
1F
100
AcDbEntity
  8
Default
  6
LT_0
 62
    18
420
        0
370
    15
100
AcDbSpline
210
0.0
220
0.0
230
1.0
 70
    12
 71
     3
 72
     8
 73
     4
 74
     0
 42
0.00001
 43
0.0001
 40
0.0
 40
0.0
 40
0.0
 40
0.0
 40
1.0
 40
1.0
 40
1.0
 40
1.0
 10
75.84376454888343
 20
94.59374018701055
 30
0.0
 41
0.25
 10
77.22324064625354
 20
94.59374018701055
 30
0.0
 41
0.25
 10
78.3437572634125
 20
93.4731932906925
 30
0.0
 41
0.25
 10
78.3437572634125
 20
92.09372324915421
 30
0.0
 41
0.25
  0
SPLINE
  5
75
330
1F
100
AcDbEntity
  8
Default
  6
LT_0
 62
    18
420
        0
370
    15
100
AcDbSpline
210
0.0
220
0.0
230
1.0
 70
    12
 71
     3
 72
     8
 73
     4
 74
     0
 42
0.00001
 43
0.0001
 40
0.0
 40
0.0
 40
0.0
 40
0.0
 40
1.0
 40
1.0
 40
1.0
 40
1.0
 10
78.3437572634125
 20
92.09372324915421
 30
0.0
 41
0.25
 10
78.3437572634125
 20
90.71425320761591
 30
0.0
 41
0.25
 10
77.22324064625354
 20
89.59373053462514
 30
0.0
 41
0.25
 10
75.84376454888343
 20
89.59373053462514
 30
0.0
 41
0.25
  0
SPLINE
  5
76
330
1F
100
AcDbEntity
  8
Default
  6
LT_0
 62
    18
420
        0
370
    15
100
AcDbSpline
210
0.0
220
0.0
230
1.0
 70
    12
 71
     3
 72
     8
 73
     4
 74
     0
 42
0.00001
 43
0.0001
 40
0.0
 40
0.0
 40
0.0
 40
0.0
 40
1.0
 40
1.0
 40
1.0
 40
1.0
 10
75.84376454888343
 20
89.59373053462514
 30
0.0
 41
0.25
 10
74.46431267484058
 20
89.59373053462514
 30
0.0
 41
0.25
 10
73.34377183435436
 20
90.71425320761591
 30
0.0
 41
0.25
 10
73.34377183435436
 20
92.09372324915421
 30
0.0
 41
0.25
  0
SPLINE
  5
77
330
1F
100
AcDbEntity
  8
Default
  6
LT_0
 62
    18
420
        0
370
    15
100
AcDbSpline
210
0.0
220
0.0
230
1.0
 70
    12
 71
     3
 72
     8
 73
     4
 74
     0
 42
0.00001
 43
0.0001
 40
0.0
 40
0.0
 40
0.0
 40
0.0
 40
1.0
 40
1.0
 40
1.0
 40
1.0
 10
205.4999776494788
 20
113.5319855805346
 30
0.0
 41
0.25
 10
205.4999776494788
 20
114.9114313987457
 30
0.0
 41
0.25
 10
206.6205245457968
 20
116.0319782950637
 30
0.0
 41
0.25
 10
207.9999703640078
 20
116.0319782950637
 30
0.0
 41
0.25
  0
SPLINE
  5
78
330
1F
100
AcDbEntity
  8
Default
  6
LT_0
 62
    18
420
        0
370
    15
100
AcDbSpline
210
0.0
220
0.0
230
1.0
 70
    12
 71
     3
 72
     8
 73
     4
 74
     0
 42
0.00001
 43
0.0001
 40
0.0
 40
0.0
 40
0.0
 40
0.0
 40
1.0
 40
1.0
 40
1.0
 40
1.0
 10
207.9999703640078
 20
116.0319782950637
 30
0.0
 41
0.25
 10
209.3794161822188
 20
116.0319782950637
 30
0.0
 41
0.25
 10
210.4999630785369
 20
114.9114313987457
 30
0.0
 41
0.25
 10
210.4999630785369
 20
113.5319855805346
 30
0.0
 41
0.25
  0
SPLINE
  5
79
330
1F
100
AcDbEntity
  8
Default
  6
LT_0
 62
    18
420
        0
370
    15
100
AcDbSpline
210
0.0
220
0.0
230
1.0
 70
    12
 71
     3
 72
     8
 73
     4
 74
     0
 42
0.00001
 43
0.0001
 40
0.0
 40
0.0
 40
0.0
 40
0.0
 40
1.0
 40
1.0
 40
1.0
 40
1.0
 10
210.4999630785369
 20
113.5319855805346
 30
0.0
 41
0.25
 10
210.4999630785369
 20
112.1525034273327
 30
0.0
 41
0.25
 10
209.3794161822188
 20
111.0319928660056
 30
0.0
 41
0.25
 10
207.9999703640078
 20
111.0319928660056
 30
0.0
 41
0.25
  0
SPLINE
  5
7A
330
1F
100
AcDbEntity
  8
Default
  6
LT_0
 62
    18
420
        0
370
    15
100
AcDbSpline
210
0.0
220
0.0
230
1.0
 70
    12
 71
     3
 72
     8
 73
     4
 74
     0
 42
0.00001
 43
0.0001
 40
0.0
 40
0.0
 40
0.0
 40
0.0
 40
1.0
 40
1.0
 40
1.0
 40
1.0
 10
207.9999703640078
 20
111.0319928660056
 30
0.0
 41
0.25
 10
206.6205245457968
 20
111.0319928660056
 30
0.0
 41
0.25
 10
205.4999776494788
 20
112.1525034273327
 30
0.0
 41
0.25
 10
205.4999776494788
 20
113.5319855805346
 30
0.0
 41
0.25
  0
SPLINE
  5
7B
330
1F
100
AcDbEntity
  8
Default
  6
LT_0
 62
    18
420
        0
370
    15
100
AcDbSpline
210
0.0
220
0.0
230
1.0
 70
    12
 71
     3
 72
     8
 73
     4
 74
     0
 42
0.00001
 43
0.0001
 40
0.0
 40
0.0
 40
0.0
 40
0.0
 40
1.0
 40
1.0
 40
1.0
 40
1.0
 10
269.5000915106812
 20
113.5319855805346
 30
0.0
 41
0.25
 10
269.5000915106812
 20
114.9114313987457
 30
0.0
 41
0.25
 10
270.6204930670356
 20
116.0319782950637
 30
0.0
 41
0.25
 10
271.9999631085739
 20
116.0319782950637
 30
0.0
 41
0.25
  0
SPLINE
  5
7C
330
1F
100
AcDbEntity
  8
Default
  6
LT_0
 62
    18
420
        0
370
    15
100
AcDbSpline
210
0.0
220
0.0
230
1.0
 70
    12
 71
     3
 72
     8
 73
     4
 74
     0
 42
0.00001
 43
0.0001
 40
0.0
 40
0.0
 40
0.0
 40
0.0
 40
1.0
 40
1.0
 40
1.0
 40
1.0
 10
271.9999631085739
 20
116.0319782950637
 30
0.0
 41
0.25
 10
273.3794331501122
 20
116.0319782950637
 30
0.0
 41
0.25
 10
274.5000769397393
 20
114.9114313987457
 30
0.0
 41
0.25
 10
274.5000769397393
 20
113.5319855805346
 30
0.0
 41
0.25
  0
SPLINE
  5
7D
330
1F
100
AcDbEntity
  8
Default
  6
LT_0
 62
    18
420
        0
370
    15
100
AcDbSpline
210
0.0
220
0.0
230
1.0
 70
    12
 71
     3
 72
     8
 73
     4
 74
     0
 42
0.00001
 43
0.0001
 40
0.0
 40
0.0
 40
0.0
 40
0.0
 40
1.0
 40
1.0
 40
1.0
 40
1.0
 10
274.5000769397393
 20
113.5319855805346
 30
0.0
 41
0.25
 10
274.5000769397393
 20
112.1525034273327
 30
0.0
 41
0.25
 10
273.3794331501122
 20
111.0319928660056
 30
0.0
 41
0.25
 10
271.9999631085739
 20
111.0319928660056
 30
0.0
 41
0.25
  0
SPLINE
  5
7E
330
1F
100
AcDbEntity
  8
Default
  6
LT_0
 62
    18
420
        0
370
    15
100
AcDbSpline
210
0.0
220
0.0
230
1.0
 70
    12
 71
     3
 72
     8
 73
     4
 74
     0
 42
0.00001
 43
0.0001
 40
0.0
 40
0.0
 40
0.0
 40
0.0
 40
1.0
 40
1.0
 40
1.0
 40
1.0
 10
271.9999631085739
 20
111.0319928660056
 30
0.0
 41
0.25
 10
270.6204930670356
 20
111.0319928660056
 30
0.0
 41
0.25
 10
269.5000915106812
 20
112.1525034273327
 30
0.0
 41
0.25
 10
269.5000915106812
 20
113.5319855805346
 30
0.0
 41
0.25
  0
LINE
  5
7F
330
1F
100
AcDbEntity
  8
Default
  6
LT_0
 62
    18
420
        0
440
 33554687
 48
0.5
370
    15
100
AcDbLine
 10
95.00001383203198
 20
141.5319475852493
 30
0.0
 11
95.00001383203198
 21
81.53198920825162
 31
0.0
  0
LINE
  5
80
330
1F
100
AcDbEntity
  8
Default
  6
LT_0
 62
    18
420
        0
440
 33554687
 48
0.5
370
    15
100
AcDbLine
 10
112.6597641237549
 20
161.5319377481364
 30
0.0
 11
95.00001383203198
 21
141.5319475852493
 31
0.0
  0
LINE
  5
81
330
1F
100
AcDbEntity
  8
Default
  6
LT_0
 62
    18
420
        0
440
 33554687
 48
0.5
370
    15
100
AcDbLine
 10
112.6597641237549
 20
281.5319544233569
 30
0.0
 11
112.6597641237549
 21
161.5319377481364
 31
0.0
  0
LINE
  5
82
330
1F
100
AcDbEntity
  8
Default
  6
LT_0
 62
    18
420
        0
440
 33554687
 48
0.5
370
    15
100
AcDbLine
 10
49.99999963054506
 20
126.0320097114982
 30
0.0
 11
78.9999914225632
 21
126.0320097114982
 31
0.0
  0
LINE
  5
83
330
1F
100
AcDbEntity
  8
Default
  6
LT_0
 62
    18
420
        0
440
 33554687
 48
0.5
370
    15
100
AcDbLine
 10
78.9999914225632
 20
126.0320097114982
 30
0.0
 11
78.9999914225632
 21
104.0320084206587
 31
0.0
  0
LINE
  5
84
330
1F
100
AcDbEntity
  8
Default
  6
LT_0
 62
    18
420
        0
440
 33554687
 48
0.5
370
    15
100
AcDbLine
 10
78.9999914225632
 20
104.0320084206587
 30
0.0
 11
49.99999963054506
 21
104.0320084206587
 31
0.0
  0
LINE
  5
85
330
1F
100
AcDbEntity
  8
Default
  6
LT_0
 62
    18
420
        0
440
 33554687
 48
0.5
370
    15
100
AcDbLine
 10
49.99999963054506
 20
104.0320084206587
 30
0.0
 11
49.99999963054506
 21
126.0320097114982
 31
0.0
  0
SPLINE
  5
86
330
1F
100
AcDbEntity
  8
Default
  6
LT_0
 62
    18
420
        0
370
    15
100
AcDbSpline
210
0.0
220
0.0
230
1.0
 70
    12
 71
     3
 72
     8
 73
     4
 74
     0
 42
0.00001
 43
0.0001
 40
0.0
 40
0.0
 40
0.0
 40
0.0
 40
1.0
 40
1.0
 40
1.0
 40
1.0
 10
27.49999555771751
 20
244.5319453707725
 30
0.0
 41
0.25
 10
27.49999555771751
 20
245.9114214681426
 30
0.0
 41
0.25
 10
28.62054245403556
 20
247.0319441411334
 30
0.0
 41
0.25
 10
29.99999130016249
 20
247.0319441411334
 30
0.0
 41
0.25
  0
SPLINE
  5
87
330
1F
100
AcDbEntity
  8
Default
  6
LT_0
 62
    18
420
        0
370
    15
100
AcDbSpline
210
0.0
220
0.0
230
1.0
 70
    12
 71
     3
 72
     8
 73
     4
 74
     0
 42
0.00001
 43
0.0001
 40
0.0
 40
0.0
 40
0.0
 40
0.0
 40
1.0
 40
1.0
 40
1.0
 40
1.0
 10
29.99999130016249
 20
247.0319441411334
 30
0.0
 41
0.25
 10
31.3794643696167
 20
247.0319441411334
 30
0.0
 41
0.25
 10
32.50001126593475
 20
245.9114214681426
 30
0.0
 41
0.25
 10
32.50001126593475
 20
244.5319453707725
 30
0.0
 41
0.25
  0
SPLINE
  5
88
330
1F
100
AcDbEntity
  8
Default
  6
LT_0
 62
    18
420
        0
370
    15
100
AcDbSpline
210
0.0
220
0.0
230
1.0
 70
    12
 71
     3
 72
     8
 73
     4
 74
     0
 42
0.00001
 43
0.0001
 40
0.0
 40
0.0
 40
0.0
 40
0.0
 40
1.0
 40
1.0
 40
1.0
 40
1.0
 10
32.50001126593475
 20
244.5319453707725
 30
0.0
 41
0.25
 10
32.50001126593475
 20
243.1524995525615
 30
0.0
 41
0.25
 10
31.3794643696167
 20
242.0319526562434
 30
0.0
 41
0.25
 10
29.99999130016249
 20
242.0319526562434
 30
0.0
 41
0.25
  0
SPLINE
  5
89
330
1F
100
AcDbEntity
  8
Default
  6
LT_0
 62
    18
420
        0
370
    15
100
AcDbSpline
210
0.0
220
0.0
230
1.0
 70
    12
 71
     3
 72
     8
 73
     4
 74
     0
 42
0.00001
 43
0.0001
 40
0.0
 40
0.0
 40
0.0
 40
0.0
 40
1.0
 40
1.0
 40
1.0
 40
1.0
 10
29.99999130016249
 20
242.0319526562434
 30
0.0
 41
0.25
 10
28.62054245403556
 20
242.0319526562434
 30
0.0
 41
0.25
 10
27.49999555771751
 20
243.1524995525615
 30
0.0
 41
0.25
 10
27.49999555771751
 20
244.5319453707725
 30
0.0
 41
0.25
  0
SPLINE
  5
8A
330
1F
100
AcDbEntity
  8
Default
  6
LT_0
 62
    18
420
        0
370
    15
100
AcDbSpline
210
0.0
220
0.0
230
1.0
 70
    12
 71
     3
 72
     8
 73
     4
 74
     0
 42
0.00001
 43
0.0001
 40
0.0
 40
0.0
 40
0.0
 40
0.0
 40
1.0
 40
1.0
 40
1.0
 40
1.0
 10
85.50000639299697
 20
244.5319453707725
 30
0.0
 41
0.25
 10
85.50000639299697
 20
245.9114214681426
 30
0.0
 41
0.25
 10
86.62055328931501
 20
247.0319441411334
 30
0.0
 41
0.25
 10
87.99999910752604
 20
247.0319441411334
 30
0.0
 41
0.25
  0
SPLINE
  5
8B
330
1F
100
AcDbEntity
  8
Default
  6
LT_0
 62
    18
420
        0
370
    15
100
AcDbSpline
210
0.0
220
0.0
230
1.0
 70
    12
 71
     3
 72
     8
 73
     4
 74
     0
 42
0.00001
 43
0.0001
 40
0.0
 40
0.0
 40
0.0
 40
0.0
 40
1.0
 40
1.0
 40
1.0
 40
1.0
 10
87.99999910752604
 20
247.0319441411334
 30
0.0
 41
0.25
 10
89.37947520489615
 20
247.0319441411334
 30
0.0
 41
0.25
 10
90.49999787788693
 20
245.9114214681426
 30
0.0
 41
0.25
 10
90.49999787788693
 20
244.5319453707725
 30
0.0
 41
0.25
  0
SPLINE
  5
8C
330
1F
100
AcDbEntity
  8
Default
  6
LT_0
 62
    18
420
        0
370
    15
100
AcDbSpline
210
0.0
220
0.0
230
1.0
 70
    12
 71
     3
 72
     8
 73
     4
 74
     0
 42
0.00001
 43
0.0001
 40
0.0
 40
0.0
 40
0.0
 40
0.0
 40
1.0
 40
1.0
 40
1.0
 40
1.0
 10
90.49999787788693
 20
244.5319453707725
 30
0.0
 41
0.25
 10
90.49999787788693
 20
243.1524995525615
 30
0.0
 41
0.25
 10
89.37947520489615
 20
242.0319526562434
 30
0.0
 41
0.25
 10
87.99999910752604
 20
242.0319526562434
 30
0.0
 41
0.25
  0
SPLINE
  5
8D
330
1F
100
AcDbEntity
  8
Default
  6
LT_0
 62
    18
420
        0
370
    15
100
AcDbSpline
210
0.0
220
0.0
230
1.0
 70
    12
 71
     3
 72
     8
 73
     4
 74
     0
 42
0.00001
 43
0.0001
 40
0.0
 40
0.0
 40
0.0
 40
0.0
 40
1.0
 40
1.0
 40
1.0
 40
1.0
 10
87.99999910752604
 20
242.0319526562434
 30
0.0
 41
0.25
 10
86.62055328931501
 20
242.0319526562434
 30
0.0
 41
0.25
 10
85.50000639299697
 20
243.1524995525615
 30
0.0
 41
0.25
 10
85.50000639299697
 20
244.5319453707725
 30
0.0
 41
0.25
  0
SPLINE
  5
8E
330
1F
100
AcDbEntity
  8
Default
  6
LT_0
 62
    18
420
        0
370
    15
100
AcDbSpline
210
0.0
220
0.0
230
1.0
 70
    12
 71
     3
 72
     8
 73
     4
 74
     0
 42
0.00001
 43
0.0001
 40
0.0
 40
0.0
 40
0.0
 40
0.0
 40
1.0
 40
1.0
 40
1.0
 40
1.0
 10
27.49999555771751
 20
161.3319378465076
 30
0.0
 41
0.25
 10
27.49999555771751
 20
162.7113836647186
 30
0.0
 41
0.25
 10
28.62054245403556
 20
163.8319305610366
 30
0.0
 41
0.25
 10
29.99999130016249
 20
163.8319305610366
 30
0.0
 41
0.25
  0
SPLINE
  5
8F
330
1F
100
AcDbEntity
  8
Default
  6
LT_0
 62
    18
420
        0
370
    15
100
AcDbSpline
210
0.0
220
0.0
230
1.0
 70
    12
 71
     3
 72
     8
 73
     4
 74
     0
 42
0.00001
 43
0.0001
 40
0.0
 40
0.0
 40
0.0
 40
0.0
 40
1.0
 40
1.0
 40
1.0
 40
1.0
 10
29.99999130016249
 20
163.8319305610366
 30
0.0
 41
0.25
 10
31.3794643696167
 20
163.8319305610366
 30
0.0
 41
0.25
 10
32.50001126593475
 20
162.7113836647186
 30
0.0
 41
0.25
 10
32.50001126593475
 20
161.3319378465076
 30
0.0
 41
0.25
  0
SPLINE
  5
90
330
1F
100
AcDbEntity
  8
Default
  6
LT_0
 62
    18
420
        0
370
    15
100
AcDbSpline
210
0.0
220
0.0
230
1.0
 70
    12
 71
     3
 72
     8
 73
     4
 74
     0
 42
0.00001
 43
0.0001
 40
0.0
 40
0.0
 40
0.0
 40
0.0
 40
1.0
 40
1.0
 40
1.0
 40
1.0
 10
32.50001126593475
 20
161.3319378465076
 30
0.0
 41
0.25
 10
32.50001126593475
 20
159.9524920282965
 30
0.0
 41
0.25
 10
31.3794643696167
 20
158.8319451319785
 30
0.0
 41
0.25
 10
29.99999130016249
 20
158.8319451319785
 30
0.0
 41
0.25
  0
SPLINE
  5
91
330
1F
100
AcDbEntity
  8
Default
  6
LT_0
 62
    18
420
        0
370
    15
100
AcDbSpline
210
0.0
220
0.0
230
1.0
 70
    12
 71
     3
 72
     8
 73
     4
 74
     0
 42
0.00001
 43
0.0001
 40
0.0
 40
0.0
 40
0.0
 40
0.0
 40
1.0
 40
1.0
 40
1.0
 40
1.0
 10
29.99999130016249
 20
158.8319451319785
 30
0.0
 41
0.25
 10
28.62054245403556
 20
158.8319451319785
 30
0.0
 41
0.25
 10
27.49999555771751
 20
159.9524920282965
 30
0.0
 41
0.25
 10
27.49999555771751
 20
161.3319378465076
 30
0.0
 41
0.25
  0
SPLINE
  5
92
330
1F
100
AcDbEntity
  8
Default
  6
LT_0
 62
    18
420
        0
370
    15
100
AcDbSpline
210
0.0
220
0.0
230
1.0
 70
    12
 71
     3
 72
     8
 73
     4
 74
     0
 42
0.00001
 43
0.0001
 40
0.0
 40
0.0
 40
0.0
 40
0.0
 40
1.0
 40
1.0
 40
1.0
 40
1.0
 10
85.50000639299697
 20
161.3319378465076
 30
0.0
 41
0.25
 10
85.50000639299697
 20
162.7113836647186
 30
0.0
 41
0.25
 10
86.62055328931501
 20
163.8319305610366
 30
0.0
 41
0.25
 10
87.99999910752604
 20
163.8319305610366
 30
0.0
 41
0.25
  0
SPLINE
  5
93
330
1F
100
AcDbEntity
  8
Default
  6
LT_0
 62
    18
420
        0
370
    15
100
AcDbSpline
210
0.0
220
0.0
230
1.0
 70
    12
 71
     3
 72
     8
 73
     4
 74
     0
 42
0.00001
 43
0.0001
 40
0.0
 40
0.0
 40
0.0
 40
0.0
 40
1.0
 40
1.0
 40
1.0
 40
1.0
 10
87.99999910752604
 20
163.8319305610366
 30
0.0
 41
0.25
 10
89.37947520489615
 20
163.8319305610366
 30
0.0
 41
0.25
 10
90.49999787788693
 20
162.7113836647186
 30
0.0
 41
0.25
 10
90.49999787788693
 20
161.3319378465076
 30
0.0
 41
0.25
  0
SPLINE
  5
94
330
1F
100
AcDbEntity
  8
Default
  6
LT_0
 62
    18
420
        0
370
    15
100
AcDbSpline
210
0.0
220
0.0
230
1.0
 70
    12
 71
     3
 72
     8
 73
     4
 74
     0
 42
0.00001
 43
0.0001
 40
0.0
 40
0.0
 40
0.0
 40
0.0
 40
1.0
 40
1.0
 40
1.0
 40
1.0
 10
90.49999787788693
 20
161.3319378465076
 30
0.0
 41
0.25
 10
90.49999787788693
 20
159.9524920282965
 30
0.0
 41
0.25
 10
89.37947520489615
 20
158.8319451319785
 30
0.0
 41
0.25
 10
87.99999910752604
 20
158.8319451319785
 30
0.0
 41
0.25
  0
SPLINE
  5
95
330
1F
100
AcDbEntity
  8
Default
  6
LT_0
 62
    18
420
        0
370
    15
100
AcDbSpline
210
0.0
220
0.0
230
1.0
 70
    12
 71
     3
 72
     8
 73
     4
 74
     0
 42
0.00001
 43
0.0001
 40
0.0
 40
0.0
 40
0.0
 40
0.0
 40
1.0
 40
1.0
 40
1.0
 40
1.0
 10
87.99999910752604
 20
158.8319451319785
 30
0.0
 41
0.25
 10
86.62055328931501
 20
158.8319451319785
 30
0.0
 41
0.25
 10
85.50000639299697
 20
159.9524920282965
 30
0.0
 41
0.25
 10
85.50000639299697
 20
161.3319378465076
 30
0.0
 41
0.25
  0
LINE
  5
96
330
1F
100
AcDbEntity
  8
Default
  6
LT_0
 62
    18
420
        0
440
 33554687
 48
0.5
370
    15
100
AcDbLine
 10
28.49999203794596
 20
157.8319214005069
 30
0.0
 11
89.99999812381475
 21
157.8319214005069
 31
0.0
  0
LINE
  5
97
330
1F
100
AcDbEntity
  8
Default
  6
LT_0
 62
    18
420
        0
440
 33554687
 48
0.5
370
    15
100
AcDbLine
 10
89.99999812381475
 20
157.8319214005069
 30
0.0
 11
89.99999812381475
 21
151.5319426666929
 31
0.0
  0
LINE
  5
98
330
1F
100
AcDbEntity
  8
Default
  6
LT_0
 62
    18
420
        0
440
 33554687
 48
0.5
370
    15
100
AcDbLine
 10
89.99999812381475
 20
151.5319426666929
 30
0.0
 11
28.49999203794596
 21
151.5319426666929
 31
0.0
  0
LINE
  5
99
330
1F
100
AcDbEntity
  8
Default
  6
LT_0
 62
    18
420
        0
440
 33554687
 48
0.5
370
    15
100
AcDbLine
 10
28.49999203794596
 20
151.5319426666929
 30
0.0
 11
28.49999203794596
 21
157.8319214005069
 31
0.0
  0
LINE
  5
9A
330
1F
100
AcDbEntity
  8
Default
  6
LT_0
 62
    18
420
        0
440
 33554687
 48
0.5
370
    15
100
AcDbLine
 10
10.0000003802964
 20
281.5319544233569
 30
0.0
 11
10.0000003802964
 21
286.9999140968955
 31
0.0
  0
LINE
  5
9B
330
1F
100
AcDbEntity
  8
Default
  6
LT_0
 62
    18
420
        0
440
 33554687
 48
0.5
370
    15
100
AcDbLine
 10
10.0000003802964
 20
286.9999140968955
 30
0.0
 11
112.6597641237549
 21
286.9999140968955
 31
0.0
  0
LINE
  5
9C
330
1F
100
AcDbEntity
  8
Default
  6
LT_0
 62
    18
420
        0
440
 33554687
 48
0.5
370
    15
100
AcDbLine
 10
112.6597641237549
 20
286.9999140968955
 30
0.0
 11
112.6597641237549
 21
281.5319544233569
 31
0.0
  0
LINE
  5
9D
330
1F
100
AcDbEntity
  8
Default
  6
LT_0
 62
    18
420
        0
440
 33554687
 48
0.5
370
    15
100
AcDbLine
 10
95.00001383203198
 20
81.53198920825162
 30
0.0
 11
95.00001383203198
 21
76.99995001545176
 31
0.0
  0
LINE
  5
9E
330
1F
100
AcDbEntity
  8
Default
  6
LT_0
 62
    18
420
        0
440
 33554687
 48
0.5
370
    15
100
AcDbLine
 10
95.00001383203198
 20
76.99995001545176
 30
0.0
 11
10.0000003802964
 21
76.99995001545176
 31
0.0
  0
LINE
  5
9F
330
1F
100
AcDbEntity
  8
Default
  6
LT_0
 62
    18
420
        0
440
 33554687
 48
0.5
370
    15
100
AcDbLine
 10
10.0000003802964
 20
76.99995001545176
 30
0.0
 11
10.0000003802964
 21
81.53198920825162
 31
0.0
  0
LINE
  5
A0
330
1F
100
AcDbEntity
  8
Default
  6
LT_0
 62
    18
420
        0
440
 33554687
 48
0.5
370
    15
100
AcDbLine
 10
360.0000409419135
 20
81.53198920825162
 30
0.0
 11
360.0000409419135
 21
76.99995001545176
 31
0.0
  0
LINE
  5
A1
330
1F
100
AcDbEntity
  8
Default
  6
LT_0
 62
    18
420
        0
440
 33554687
 48
0.5
370
    15
100
AcDbLine
 10
360.0000409419135
 20
76.99995001545176
 30
0.0
 11
97.82990404069096
 21
76.99995001545176
 31
0.0
  0
LINE
  5
A2
330
1F
100
AcDbEntity
  8
Default
  6
LT_0
 62
    18
420
        0
440
 33554687
 48
0.5
370
    15
100
AcDbLine
 10
97.82990404069096
 20
76.99995001545176
 30
0.0
 11
97.82990404069096
 21
81.53198920825162
 31
0.0
  0
LINE
  5
A3
330
1F
100
AcDbEntity
  8
Default
  6
LT_0
 62
    18
420
        0
440
 33554687
 48
0.5
370
    15
100
AcDbLine
 10
283.9999329829789
 20
241.5460024319896
 30
0.0
 11
289.971976312172
 21
246.5319686103885
 31
0.0
  0
SPLINE
  5
A4
330
1F
100
AcDbEntity
  8
Default
  6
LT_0
 62
    18
420
        0
370
    15
100
AcDbSpline
210
0.0
220
0.0
230
1.0
 70
    12
 71
     3
 72
     8
 73
     4
 74
     0
 42
0.00001
 43
0.0001
 40
0.0
 40
0.0
 40
0.0
 40
0.0
 40
1.0
 40
1.0
 40
1.0
 40
1.0
 10
289.971976312172
 20
246.5319686103885
 30
0.0
 41
0.25
 10
289.971976312172
 20
246.5319686103885
 30
0.0
 41
0.25
 10
289.4439077776224
 20
261.5319400371425
 30
0.0
 41
0.25
 10
289.971976312172
 20
261.5319400371425
 30
0.0
 41
0.25
  0
SPLINE
  5
A5
330
1F
100
AcDbEntity
  8
Default
  6
LT_0
 62
    18
420
        0
370
    15
100
AcDbSpline
210
0.0
220
0.0
230
1.0
 70
    28
 71
     3
 72
     8
 73
     4
 74
     0
 42
0.00001
 43
0.0001
 40
0.0
 40
0.0
 40
0.0
 40
0.0
 40
1.0
 40
1.0
 40
1.0
 40
1.0
 10
289.971976312172
 20
261.5319400371425
 30
0.0
 41
0.25
 10
289.971976312172
 20
261.5319400371425
 30
0.0
 41
0.25
 10
283.9999329829789
 20
261.5319400371425
 30
0.0
 41
0.25
 10
283.9999329829789
 20
261.5319400371425
 30
0.0
 41
0.25
  0
SPLINE
  5
A6
330
1F
100
AcDbEntity
  8
Default
  6
LT_0
 62
    18
420
        0
370
    15
100
AcDbSpline
210
0.0
220
0.0
230
1.0
 70
    28
 71
     3
 72
     8
 73
     4
 74
     0
 42
0.00001
 43
0.0001
 40
0.0
 40
0.0
 40
0.0
 40
0.0
 40
1.0
 40
1.0
 40
1.0
 40
1.0
 10
283.9999329829789
 20
261.5319400371425
 30
0.0
 41
0.25
 10
283.9999329829789
 20
261.5319400371425
 30
0.0
 41
0.25
 10
185.5000601565735
 20
261.5319400371425
 30
0.0
 41
0.25
 10
185.5000601565735
 20
261.5319400371425
 30
0.0
 41
0.25
  0
LINE
  5
A7
330
1F
100
AcDbEntity
  8
Default
  6
LT_0
 62
    18
420
        0
440
 33554687
 48
0.5
370
    15
100
AcDbLine
 10
185.5000601565735
 20
261.5319400371425
 30
0.0
 11
185.5000359332462
 21
194.0321458286053
 31
0.0
  0
LINE
  5
A8
330
1F
100
AcDbEntity
  8
Default
  6
LT_0
 62
    18
420
        0
440
 33554687
 48
0.5
370
    15
100
AcDbLine
 10
185.5000359332462
 20
194.0321458286053
 30
0.0
 11
283.9999329829789
 21
194.0321458286053
 31
0.0
  0
LINE
  5
A9
330
1F
100
AcDbEntity
  8
Default
  6
LT_0
 62
    18
420
        0
440
 33554687
 48
0.5
370
    15
100
AcDbLine
 10
283.9999329829789
 20
241.5460024319896
 30
0.0
 11
283.9999329829789
 21
211.8167007582701
 31
0.0
  0
SPLINE
  5
AA
330
1F
100
AcDbEntity
  8
Default
  6
LT_0
 62
    18
420
        0
370
    15
100
AcDbSpline
210
0.0
220
0.0
230
1.0
 70
    12
 71
     3
 72
     8
 73
     4
 74
     0
 42
0.00001
 43
0.0001
 40
0.0
 40
0.0
 40
0.0
 40
0.0
 40
1.0
 40
1.0
 40
1.0
 40
1.0
 10
280.0002014070014
 20
259.5319440487697
 30
0.0
 41
0.25
 10
281.3796714485397
 20
259.5319440487697
 30
0.0
 41
0.25
 10
282.5000730048941
 20
258.4114213757789
 30
0.0
 41
0.25
 10
282.5000730048941
 20
257.0319997808951
 30
0.0
 41
0.25
  0
SPLINE
  5
AB
330
1F
100
AcDbEntity
  8
Default
  6
LT_0
 62
    18
420
        0
370
    15
100
AcDbSpline
210
0.0
220
0.0
230
1.0
 70
    12
 71
     3
 72
     8
 73
     4
 74
     0
 42
0.00001
 43
0.0001
 40
0.0
 40
0.0
 40
0.0
 40
0.0
 40
1.0
 40
1.0
 40
1.0
 40
1.0
 10
282.5000730048941
 20
257.0319997808951
 30
0.0
 41
0.25
 10
282.5000730048941
 20
255.652523683525
 30
0.0
 41
0.25
 10
281.3796714485397
 20
254.5319525638797
 30
0.0
 41
0.25
 10
280.0002014070014
 20
254.5319525638797
 30
0.0
 41
0.25
  0
SPLINE
  5
AC
330
1F
100
AcDbEntity
  8
Default
  6
LT_0
 62
    18
420
        0
370
    15
100
AcDbSpline
210
0.0
220
0.0
230
1.0
 70
    12
 71
     3
 72
     8
 73
     4
 74
     0
 42
0.00001
 43
0.0001
 40
0.0
 40
0.0
 40
0.0
 40
0.0
 40
1.0
 40
1.0
 40
1.0
 40
1.0
 10
280.0002014070014
 20
254.5319525638797
 30
0.0
 41
0.25
 10
278.6207313654631
 20
254.5319525638797
 30
0.0
 41
0.25
 10
277.500087575836
 20
255.6524752368705
 30
0.0
 41
0.25
 10
277.500087575836
 20
257.0319483063247
 30
0.0
 41
0.25
  0
SPLINE
  5
AD
330
1F
100
AcDbEntity
  8
Default
  6
LT_0
 62
    18
420
        0
370
    15
100
AcDbSpline
210
0.0
220
0.0
230
1.0
 70
    12
 71
     3
 72
     8
 73
     4
 74
     0
 42
0.00001
 43
0.0001
 40
0.0
 40
0.0
 40
0.0
 40
0.0
 40
1.0
 40
1.0
 40
1.0
 40
1.0
 10
277.500087575836
 20
257.0319483063247
 30
0.0
 41
0.25
 10
277.500087575836
 20
258.4114213757789
 30
0.0
 41
0.25
 10
278.6207313654631
 20
259.5319440487697
 30
0.0
 41
0.25
 10
280.0002014070014
 20
259.5319440487697
 30
0.0
 41
0.25
  0
SPLINE
  5
AE
330
1F
100
AcDbEntity
  8
Default
  6
LT_0
 62
    18
420
        0
370
    15
100
AcDbSpline
210
0.0
220
0.0
230
1.0
 70
    12
 71
     3
 72
     8
 73
     4
 74
     0
 42
0.00001
 43
0.0001
 40
0.0
 40
0.0
 40
0.0
 40
0.0
 40
1.0
 40
1.0
 40
1.0
 40
1.0
 10
280.0002014070014
 20
201.5320331347152
 30
0.0
 41
0.25
 10
281.3796714485397
 20
201.5320331347152
 30
0.0
 41
0.25
 10
282.5000730048941
 20
200.411359065929
 30
0.0
 41
0.25
 10
282.5000730048941
 20
199.0318890243907
 30
0.0
 41
0.25
  0
SPLINE
  5
AF
330
1F
100
AcDbEntity
  8
Default
  6
LT_0
 62
    18
420
        0
370
    15
100
AcDbSpline
210
0.0
220
0.0
230
1.0
 70
    12
 71
     3
 72
     8
 73
     4
 74
     0
 42
0.00001
 43
0.0001
 40
0.0
 40
0.0
 40
0.0
 40
0.0
 40
1.0
 40
1.0
 40
1.0
 40
1.0
 10
282.5000730048941
 20
199.0318890243907
 30
0.0
 41
0.25
 10
282.5000730048941
 20
197.6523887036933
 30
0.0
 41
0.25
 10
281.3796714485397
 20
196.5319689798434
 30
0.0
 41
0.25
 10
280.0002014070014
 20
196.5319689798434
 30
0.0
 41
0.25
  0
SPLINE
  5
B0
330
1F
100
AcDbEntity
  8
Default
  6
LT_0
 62
    18
420
        0
370
    15
100
AcDbSpline
210
0.0
220
0.0
230
1.0
 70
    12
 71
     3
 72
     8
 73
     4
 74
     0
 42
0.00001
 43
0.0001
 40
0.0
 40
0.0
 40
0.0
 40
0.0
 40
1.0
 40
1.0
 40
1.0
 40
1.0
 10
280.0002014070014
 20
196.5319689798434
 30
0.0
 41
0.25
 10
278.6207313654631
 20
196.5319689798434
 30
0.0
 41
0.25
 10
277.500087575836
 20
197.6526430486297
 30
0.0
 41
0.25
 10
277.500087575836
 20
199.0318890243907
 30
0.0
 41
0.25
  0
SPLINE
  5
B1
330
1F
100
AcDbEntity
  8
Default
  6
LT_0
 62
    18
420
        0
370
    15
100
AcDbSpline
210
0.0
220
0.0
230
1.0
 70
    12
 71
     3
 72
     8
 73
     4
 74
     0
 42
0.00001
 43
0.0001
 40
0.0
 40
0.0
 40
0.0
 40
0.0
 40
1.0
 40
1.0
 40
1.0
 40
1.0
 10
277.500087575836
 20
199.0318890243907
 30
0.0
 41
0.25
 10
277.500087575836
 20
200.411359065929
 30
0.0
 41
0.25
 10
278.6207313654631
 20
201.5320331347152
 30
0.0
 41
0.25
 10
280.0002014070014
 20
201.5320331347152
 30
0.0
 41
0.25
  0
SPLINE
  5
B2
330
1F
100
AcDbEntity
  8
Default
  6
LT_0
 62
    18
420
        0
370
    15
100
AcDbSpline
210
0.0
220
0.0
230
1.0
 70
    12
 71
     3
 72
     8
 73
     4
 74
     0
 42
0.00001
 43
0.0001
 40
0.0
 40
0.0
 40
0.0
 40
0.0
 40
1.0
 40
1.0
 40
1.0
 40
1.0
 10
196.8001333244183
 20
259.5319440487697
 30
0.0
 41
0.25
 10
198.1796154776202
 20
259.5319682720969
 30
0.0
 41
0.25
 10
199.3001018156201
 20
258.4114213757789
 30
0.0
 41
0.25
 10
199.3001260389474
 20
257.0319997808951
 30
0.0
 41
0.25
  0
SPLINE
  5
B3
330
1F
100
AcDbEntity
  8
Default
  6
LT_0
 62
    18
420
        0
370
    15
100
AcDbSpline
210
0.0
220
0.0
230
1.0
 70
    12
 71
     3
 72
     8
 73
     4
 74
     0
 42
0.00001
 43
0.0001
 40
0.0
 40
0.0
 40
0.0
 40
0.0
 40
1.0
 40
1.0
 40
1.0
 40
1.0
 10
199.3001260389474
 20
257.0319997808951
 30
0.0
 41
0.25
 10
199.3001260389474
 20
255.652523683525
 30
0.0
 41
0.25
 10
198.179591254293
 20
254.5320040384502
 30
0.0
 41
0.25
 10
196.8001575477456
 20
254.5319525638797
 30
0.0
 41
0.25
  0
SPLINE
  5
B4
330
1F
100
AcDbEntity
  8
Default
  6
LT_0
 62
    18
420
        0
370
    15
100
AcDbSpline
210
0.0
220
0.0
230
1.0
 70
    12
 71
     3
 72
     8
 73
     4
 74
     0
 42
0.00001
 43
0.0001
 40
0.0
 40
0.0
 40
0.0
 40
0.0
 40
1.0
 40
1.0
 40
1.0
 40
1.0
 10
196.8001575477456
 20
254.5319525638797
 30
0.0
 41
0.25
 10
195.4207359528618
 20
254.5320040384502
 30
0.0
 41
0.25
 10
194.3001648332165
 20
255.652523683525
 30
0.0
 41
0.25
 10
194.3001648332165
 20
257.0319997808951
 30
0.0
 41
0.25
  0
SPLINE
  5
B5
330
1F
100
AcDbEntity
  8
Default
  6
LT_0
 62
    18
420
        0
370
    15
100
AcDbSpline
210
0.0
220
0.0
230
1.0
 70
    12
 71
     3
 72
     8
 73
     4
 74
     0
 42
0.00001
 43
0.0001
 40
0.0
 40
0.0
 40
0.0
 40
0.0
 40
1.0
 40
1.0
 40
1.0
 40
1.0
 10
194.3001648332165
 20
257.0319997808951
 30
0.0
 41
0.25
 10
194.3001648332165
 20
258.4114486270221
 30
0.0
 41
0.25
 10
195.4207359528618
 20
259.5319682720969
 30
0.0
 41
0.25
 10
196.8001333244183
 20
259.5319440487697
 30
0.0
 41
0.25
  0
SPLINE
  5
B6
330
1F
100
AcDbEntity
  8
Default
  6
LT_0
 62
    18
420
        0
370
    15
100
AcDbSpline
210
0.0
220
0.0
230
1.0
 70
    12
 71
     3
 72
     8
 73
     4
 74
     0
 42
0.00001
 43
0.0001
 40
0.0
 40
0.0
 40
0.0
 40
0.0
 40
1.0
 40
1.0
 40
1.0
 40
1.0
 10
196.8001333244183
 20
201.5320331347152
 30
0.0
 41
0.25
 10
198.179591254293
 20
201.5320331347152
 30
0.0
 41
0.25
 10
199.3001018156201
 20
200.411359065929
 30
0.0
 41
0.25
 10
199.3001623739383
 20
199.0321433693271
 30
0.0
 41
0.25
  0
SPLINE
  5
B7
330
1F
100
AcDbEntity
  8
Default
  6
LT_0
 62
    18
420
        0
370
    15
100
AcDbSpline
210
0.0
220
0.0
230
1.0
 70
    12
 71
     3
 72
     8
 73
     4
 74
     0
 42
0.00001
 43
0.0001
 40
0.0
 40
0.0
 40
0.0
 40
0.0
 40
1.0
 40
1.0
 40
1.0
 40
1.0
 10
199.3001623739383
 20
199.0321433693271
 30
0.0
 41
0.25
 10
199.3001260389474
 20
197.6523887036933
 30
0.0
 41
0.25
 10
198.1796154776202
 20
196.5319689798434
 30
0.0
 41
0.25
 10
196.8001333244183
 20
196.5319689798434
 30
0.0
 41
0.25
  0
SPLINE
  5
B8
330
1F
100
AcDbEntity
  8
Default
  6
LT_0
 62
    18
420
        0
370
    15
100
AcDbSpline
210
0.0
220
0.0
230
1.0
 70
    12
 71
     3
 72
     8
 73
     4
 74
     0
 42
0.00001
 43
0.0001
 40
0.0
 40
0.0
 40
0.0
 40
0.0
 40
1.0
 40
1.0
 40
1.0
 40
1.0
 10
196.8001333244183
 20
196.5319689798434
 30
0.0
 41
0.25
 10
195.4207117295346
 20
196.5319689798434
 30
0.0
 41
0.25
 10
194.3001406098892
 20
197.6523887036933
 30
0.0
 41
0.25
 10
194.3001406098892
 20
199.0318890243907
 30
0.0
 41
0.25
  0
SPLINE
  5
B9
330
1F
100
AcDbEntity
  8
Default
  6
LT_0
 62
    18
420
        0
370
    15
100
AcDbSpline
210
0.0
220
0.0
230
1.0
 70
    12
 71
     3
 72
     8
 73
     4
 74
     0
 42
0.00001
 43
0.0001
 40
0.0
 40
0.0
 40
0.0
 40
0.0
 40
1.0
 40
1.0
 40
1.0
 40
1.0
 10
194.3001406098892
 20
199.0318890243907
 30
0.0
 41
0.25
 10
194.3001648332165
 20
200.411359065929
 30
0.0
 41
0.25
 10
195.4207359528618
 20
201.5320331347152
 30
0.0
 41
0.25
 10
196.8001333244183
 20
201.5320331347152
 30
0.0
 41
0.25
  0
LINE
  5
BA
330
1F
100
AcDbEntity
  8
Default
  6
LT_0
 62
    18
420
        0
440
 33554687
 48
0.5
370
    15
100
AcDbLine
 10
276.3050055014992
 20
207.2573982106246
 30
0.0
 11
276.3050055014992
 21
201.3481114665638
 31
0.0
  0
LINE
  5
BB
330
1F
100
AcDbEntity
  8
Default
  6
LT_0
 62
    18
420
        0
440
 33554687
 48
0.5
370
    15
100
AcDbLine
 10
276.3050055014992
 20
201.3481114665638
 30
0.0
 11
200.901069961742
 21
201.3481114665638
 31
0.0
  0
LINE
  5
BC
330
1F
100
AcDbEntity
  8
Default
  6
LT_0
 62
    18
420
        0
440
 33554687
 48
0.5
370
    15
100
AcDbLine
 10
200.901069961742
 20
201.3481114665638
 30
0.0
 11
200.9010457384147
 21
254.880262814653
 31
0.0
  0
LINE
  5
BD
330
1F
100
AcDbEntity
  8
Default
  6
LT_0
 62
    18
420
        0
440
 33554687
 48
0.5
370
    15
100
AcDbLine
 10
200.9010457384147
 20
254.880262814653
 30
0.0
 11
276.3050055014992
 21
254.8803142892234
 31
0.0
  0
LINE
  5
BE
330
1F
100
AcDbEntity
  8
Default
  6
LT_0
 62
    18
420
        0
440
 33554687
 48
0.5
370
    15
100
AcDbLine
 10
276.3050055014992
 20
254.8803142892234
 30
0.0
 11
276.3050055014992
 21
246.8385995986728
 31
0.0
  0
LINE
  5
BF
330
1F
100
AcDbEntity
  8
Default
  6
LT_0
 62
    18
420
        0
440
 33554687
 48
0.5
370
    15
100
AcDbLine
 10
276.3050055014992
 20
246.8385995986728
 30
0.0
 11
276.3050055014992
 21
207.2573982106246
 31
0.0
  0
LINE
  5
C0
330
1F
100
AcDbEntity
  8
Default
  6
LT_0
 62
    18
420
        0
440
 33554687
 48
0.5
370
    15
100
AcDbLine
 10
283.9999329829789
 20
194.0321458286053
 30
0.0
 11
290.5000448467217
 21
194.0321458286053
 31
0.0
  0
SPLINE
  5
C1
330
1F
100
AcDbEntity
  8
Default
  6
LT_0
 62
    18
420
        0
370
    15
100
AcDbSpline
210
0.0
220
0.0
230
1.0
 70
    28
 71
     3
 72
     8
 73
     4
 74
     0
 42
0.00001
 43
0.0001
 40
0.0
 40
0.0
 40
0.0
 40
0.0
 40
1.0
 40
1.0
 40
1.0
 40
1.0
 10
290.5000448467217
 20
194.0321458286053
 30
0.0
 41
0.25
 10
290.5000448467217
 20
194.0321458286053
 30
0.0
 41
0.25
 10
290.5000448467217
 20
206.5320003962779
 30
0.0
 41
0.25
 10
290.5000448467217
 20
206.5320003962779
 30
0.0
 41
0.25
  0
LINE
  5
C2
330
1F
100
AcDbEntity
  8
Default
  6
LT_0
 62
    18
420
        0
440
 33554687
 48
0.5
370
    15
100
AcDbLine
 10
290.5000448467217
 20
206.5320003962779
 30
0.0
 11
283.9999329829789
 21
211.8167007582701
 31
0.0
  0
LINE
  5
C3
330
1F
100
AcDbEntity
  8
Default
  6
LT_0
 62
    18
420
        0
440
 33554687
 48
0.5
370
    15
100
AcDbLine
 10
283.9999329829789
 20
174.0462415305274
 30
0.0
 11
289.971976312172
 21
179.0321774297672
 31
0.0
  0
SPLINE
  5
C4
330
1F
100
AcDbEntity
  8
Default
  6
LT_0
 62
    18
420
        0
370
    15
100
AcDbSpline
210
0.0
220
0.0
230
1.0
 70
    12
 71
     3
 72
     8
 73
     4
 74
     0
 42
0.00001
 43
0.0001
 40
0.0
 40
0.0
 40
0.0
 40
0.0
 40
1.0
 40
1.0
 40
1.0
 40
1.0
 10
289.971976312172
 20
179.0321774297672
 30
0.0
 41
0.25
 10
289.971976312172
 20
179.0321774297672
 30
0.0
 41
0.25
 10
289.4439077776224
 20
194.0321458286053
 30
0.0
 41
0.25
 10
289.971976312172
 20
194.0321458286053
 30
0.0
 41
0.25
  0
SPLINE
  5
C5
330
1F
100
AcDbEntity
  8
Default
  6
LT_0
 62
    18
420
        0
370
    15
100
AcDbSpline
210
0.0
220
0.0
230
1.0
 70
    28
 71
     3
 72
     8
 73
     4
 74
     0
 42
0.00001
 43
0.0001
 40
0.0
 40
0.0
 40
0.0
 40
0.0
 40
1.0
 40
1.0
 40
1.0
 40
1.0
 10
289.971976312172
 20
194.0321458286053
 30
0.0
 41
0.25
 10
289.971976312172
 20
194.0321458286053
 30
0.0
 41
0.25
 10
283.9999329829789
 20
194.0321458286053
 30
0.0
 41
0.25
 10
283.9999329829789
 20
194.0321458286053
 30
0.0
 41
0.25
  0
SPLINE
  5
C6
330
1F
100
AcDbEntity
  8
Default
  6
LT_0
 62
    18
420
        0
370
    15
100
AcDbSpline
210
0.0
220
0.0
230
1.0
 70
    28
 71
     3
 72
     8
 73
     4
 74
     0
 42
0.00001
 43
0.0001
 40
0.0
 40
0.0
 40
0.0
 40
0.0
 40
1.0
 40
1.0
 40
1.0
 40
1.0
 10
283.9999329829789
 20
194.0321458286053
 30
0.0
 41
0.25
 10
283.9999329829789
 20
194.0321458286053
 30
0.0
 41
0.25
 10
185.5000601565735
 20
194.0321458286053
 30
0.0
 41
0.25
 10
185.5000601565735
 20
194.0321458286053
 30
0.0
 41
0.25
  0
LINE
  5
C7
330
1F
100
AcDbEntity
  8
Default
  6
LT_0
 62
    18
420
        0
440
 33554687
 48
0.5
370
    15
100
AcDbLine
 10
185.5000601565735
 20
194.0321458286053
 30
0.0
 11
185.5000359332462
 21
126.5323909829749
 31
0.0
  0
LINE
  5
C8
330
1F
100
AcDbEntity
  8
Default
  6
LT_0
 62
    18
420
        0
440
 33554687
 48
0.5
370
    15
100
AcDbLine
 10
185.5000359332462
 20
126.5323909829749
 30
0.0
 11
283.9999329829789
 21
126.5323909829749
 31
0.0
  0
LINE
  5
C9
330
1F
100
AcDbEntity
  8
Default
  6
LT_0
 62
    18
420
        0
440
 33554687
 48
0.5
370
    15
100
AcDbLine
 10
283.9999329829789
 20
174.0462415305274
 30
0.0
 11
283.9999329829789
 21
144.3169398568079
 31
0.0
  0
SPLINE
  5
CA
330
1F
100
AcDbEntity
  8
Default
  6
LT_0
 62
    18
420
        0
370
    15
100
AcDbSpline
210
0.0
220
0.0
230
1.0
 70
    12
 71
     3
 72
     8
 73
     4
 74
     0
 42
0.00001
 43
0.0001
 40
0.0
 40
0.0
 40
0.0
 40
0.0
 40
1.0
 40
1.0
 40
1.0
 40
1.0
 10
280.0002014070014
 20
192.0321589239802
 30
0.0
 41
0.25
 10
281.3796714485397
 20
192.0321589239802
 30
0.0
 41
0.25
 10
282.5000730048941
 20
190.9116362509894
 30
0.0
 41
0.25
 10
282.5000730048941
 20
189.5322146561057
 30
0.0
 41
0.25
  0
SPLINE
  5
CB
330
1F
100
AcDbEntity
  8
Default
  6
LT_0
 62
    18
420
        0
370
    15
100
AcDbSpline
210
0.0
220
0.0
230
1.0
 70
    12
 71
     3
 72
     8
 73
     4
 74
     0
 42
0.00001
 43
0.0001
 40
0.0
 40
0.0
 40
0.0
 40
0.0
 40
1.0
 40
1.0
 40
1.0
 40
1.0
 10
282.5000730048941
 20
189.5322146561057
 30
0.0
 41
0.25
 10
282.5000730048941
 20
188.1527325029037
 30
0.0
 41
0.25
 10
281.3796714485397
 20
187.0321613832584
 30
0.0
 41
0.25
 10
280.0002014070014
 20
187.0321613832584
 30
0.0
 41
0.25
  0
SPLINE
  5
CC
330
1F
100
AcDbEntity
  8
Default
  6
LT_0
 62
    18
420
        0
370
    15
100
AcDbSpline
210
0.0
220
0.0
230
1.0
 70
    12
 71
     3
 72
     8
 73
     4
 74
     0
 42
0.00001
 43
0.0001
 40
0.0
 40
0.0
 40
0.0
 40
0.0
 40
1.0
 40
1.0
 40
1.0
 40
1.0
 10
280.0002014070014
 20
187.0321613832584
 30
0.0
 41
0.25
 10
278.6207313654631
 20
187.0321613832584
 30
0.0
 41
0.25
 10
277.500087575836
 20
188.1526840562492
 30
0.0
 41
0.25
 10
277.500087575836
 20
189.5321662094511
 30
0.0
 41
0.25
  0
SPLINE
  5
CD
330
1F
100
AcDbEntity
  8
Default
  6
LT_0
 62
    18
420
        0
370
    15
100
AcDbSpline
210
0.0
220
0.0
230
1.0
 70
    12
 71
     3
 72
     8
 73
     4
 74
     0
 42
0.00001
 43
0.0001
 40
0.0
 40
0.0
 40
0.0
 40
0.0
 40
1.0
 40
1.0
 40
1.0
 40
1.0
 10
277.500087575836
 20
189.5321662094511
 30
0.0
 41
0.25
 10
277.500087575836
 20
190.9116362509894
 30
0.0
 41
0.25
 10
278.6207313654631
 20
192.0321589239802
 30
0.0
 41
0.25
 10
280.0002014070014
 20
192.0321589239802
 30
0.0
 41
0.25
  0
SPLINE
  5
CE
330
1F
100
AcDbEntity
  8
Default
  6
LT_0
 62
    18
420
        0
370
    15
100
AcDbSpline
210
0.0
220
0.0
230
1.0
 70
    12
 71
     3
 72
     8
 73
     4
 74
     0
 42
0.00001
 43
0.0001
 40
0.0
 40
0.0
 40
0.0
 40
0.0
 40
1.0
 40
1.0
 40
1.0
 40
1.0
 10
280.0002014070014
 20
134.032272233253
 30
0.0
 41
0.25
 10
281.3796714485397
 20
134.032272233253
 30
0.0
 41
0.25
 10
282.5000730048941
 20
132.9116042202986
 30
0.0
 41
0.25
 10
282.5000730048941
 20
131.5321220670967
 30
0.0
 41
0.25
  0
SPLINE
  5
CF
330
1F
100
AcDbEntity
  8
Default
  6
LT_0
 62
    18
420
        0
370
    15
100
AcDbSpline
210
0.0
220
0.0
230
1.0
 70
    12
 71
     3
 72
     8
 73
     4
 74
     0
 42
0.00001
 43
0.0001
 40
0.0
 40
0.0
 40
0.0
 40
0.0
 40
1.0
 40
1.0
 40
1.0
 40
1.0
 10
282.5000730048941
 20
131.5321220670967
 30
0.0
 41
0.25
 10
282.5000730048941
 20
130.1526520255584
 30
0.0
 41
0.25
 10
281.3796714485397
 20
129.0322020225494
 30
0.0
 41
0.25
 10
280.0002014070014
 20
129.0322020225494
 30
0.0
 41
0.25
  0
SPLINE
  5
D0
330
1F
100
AcDbEntity
  8
Default
  6
LT_0
 62
    18
420
        0
370
    15
100
AcDbSpline
210
0.0
220
0.0
230
1.0
 70
    12
 71
     3
 72
     8
 73
     4
 74
     0
 42
0.00001
 43
0.0001
 40
0.0
 40
0.0
 40
0.0
 40
0.0
 40
1.0
 40
1.0
 40
1.0
 40
1.0
 10
280.0002014070014
 20
129.0322020225494
 30
0.0
 41
0.25
 10
278.6207313654631
 20
129.0322020225494
 30
0.0
 41
0.25
 10
277.500087575836
 20
130.1528821471675
 30
0.0
 41
0.25
 10
277.5003298091087
 20
131.5321220670967
 30
0.0
 41
0.25
  0
SPLINE
  5
D1
330
1F
100
AcDbEntity
  8
Default
  6
LT_0
 62
    18
420
        0
370
    15
100
AcDbSpline
210
0.0
220
0.0
230
1.0
 70
    12
 71
     3
 72
     8
 73
     4
 74
     0
 42
0.00001
 43
0.0001
 40
0.0
 40
0.0
 40
0.0
 40
0.0
 40
1.0
 40
1.0
 40
1.0
 40
1.0
 10
277.5003298091087
 20
131.5321220670967
 30
0.0
 41
0.25
 10
277.500087575836
 20
132.9116042202986
 30
0.0
 41
0.25
 10
278.6207313654631
 20
134.032272233253
 30
0.0
 41
0.25
 10
280.0002014070014
 20
134.032272233253
 30
0.0
 41
0.25
  0
SPLINE
  5
D2
330
1F
100
AcDbEntity
  8
Default
  6
LT_0
 62
    18
420
        0
370
    15
100
AcDbSpline
210
0.0
220
0.0
230
1.0
 70
    12
 71
     3
 72
     8
 73
     4
 74
     0
 42
0.00001
 43
0.0001
 40
0.0
 40
0.0
 40
0.0
 40
0.0
 40
1.0
 40
1.0
 40
1.0
 40
1.0
 10
196.8001333244183
 20
192.0321589239802
 30
0.0
 41
0.25
 10
198.1796154776202
 20
192.0321831473075
 30
0.0
 41
0.25
 10
199.3001260389474
 20
190.9116362509894
 30
0.0
 41
0.25
 10
199.3001260389474
 20
189.5322146561057
 30
0.0
 41
0.25
  0
SPLINE
  5
D3
330
1F
100
AcDbEntity
  8
Default
  6
LT_0
 62
    18
420
        0
370
    15
100
AcDbSpline
210
0.0
220
0.0
230
1.0
 70
    12
 71
     3
 72
     8
 73
     4
 74
     0
 42
0.00001
 43
0.0001
 40
0.0
 40
0.0
 40
0.0
 40
0.0
 40
1.0
 40
1.0
 40
1.0
 40
1.0
 10
199.3001260389474
 20
189.5322146561057
 30
0.0
 41
0.25
 10
199.3001260389474
 20
188.1527325029037
 30
0.0
 41
0.25
 10
198.179591254293
 20
187.0322219415766
 30
0.0
 41
0.25
 10
196.8001575477456
 20
187.0321613832584
 30
0.0
 41
0.25
  0
SPLINE
  5
D4
330
1F
100
AcDbEntity
  8
Default
  6
LT_0
 62
    18
420
        0
370
    15
100
AcDbSpline
210
0.0
220
0.0
230
1.0
 70
    12
 71
     3
 72
     8
 73
     4
 74
     0
 42
0.00001
 43
0.0001
 40
0.0
 40
0.0
 40
0.0
 40
0.0
 40
1.0
 40
1.0
 40
1.0
 40
1.0
 10
196.8001575477456
 20
187.0321613832584
 30
0.0
 41
0.25
 10
195.4207359528618
 20
187.0322219415766
 30
0.0
 41
0.25
 10
194.3001648332165
 20
188.1527325029037
 30
0.0
 41
0.25
 10
194.3001648332165
 20
189.5322146561057
 30
0.0
 41
0.25
  0
SPLINE
  5
D5
330
1F
100
AcDbEntity
  8
Default
  6
LT_0
 62
    18
420
        0
370
    15
100
AcDbSpline
210
0.0
220
0.0
230
1.0
 70
    12
 71
     3
 72
     8
 73
     4
 74
     0
 42
0.00001
 43
0.0001
 40
0.0
 40
0.0
 40
0.0
 40
0.0
 40
1.0
 40
1.0
 40
1.0
 40
1.0
 10
194.3001648332165
 20
189.5322146561057
 30
0.0
 41
0.25
 10
194.3001648332165
 20
190.9116604743167
 30
0.0
 41
0.25
 10
195.4207359528618
 20
192.0321831473075
 30
0.0
 41
0.25
 10
196.8001333244183
 20
192.0321589239802
 30
0.0
 41
0.25
  0
SPLINE
  5
D6
330
1F
100
AcDbEntity
  8
Default
  6
LT_0
 62
    18
420
        0
370
    15
100
AcDbSpline
210
0.0
220
0.0
230
1.0
 70
    12
 71
     3
 72
     8
 73
     4
 74
     0
 42
0.00001
 43
0.0001
 40
0.0
 40
0.0
 40
0.0
 40
0.0
 40
1.0
 40
1.0
 40
1.0
 40
1.0
 10
196.8001333244183
 20
134.032272233253
 30
0.0
 41
0.25
 10
198.179591254293
 20
134.032272233253
 30
0.0
 41
0.25
 10
199.3001260389474
 20
132.9116042202986
 30
0.0
 41
0.25
 10
199.3001865972656
 20
131.532376412033
 30
0.0
 41
0.25
  0
SPLINE
  5
D7
330
1F
100
AcDbEntity
  8
Default
  6
LT_0
 62
    18
420
        0
370
    15
100
AcDbSpline
210
0.0
220
0.0
230
1.0
 70
    12
 71
     3
 72
     8
 73
     4
 74
     0
 42
0.00001
 43
0.0001
 40
0.0
 40
0.0
 40
0.0
 40
0.0
 40
1.0
 40
1.0
 40
1.0
 40
1.0
 10
199.3001865972656
 20
131.532376412033
 30
0.0
 41
0.25
 10
199.3001260389474
 20
130.1526520255584
 30
0.0
 41
0.25
 10
198.1796154776202
 20
129.0322020225494
 30
0.0
 41
0.25
 10
196.8001333244183
 20
129.0322020225494
 30
0.0
 41
0.25
  0
SPLINE
  5
D8
330
1F
100
AcDbEntity
  8
Default
  6
LT_0
 62
    18
420
        0
370
    15
100
AcDbSpline
210
0.0
220
0.0
230
1.0
 70
    12
 71
     3
 72
     8
 73
     4
 74
     0
 42
0.00001
 43
0.0001
 40
0.0
 40
0.0
 40
0.0
 40
0.0
 40
1.0
 40
1.0
 40
1.0
 40
1.0
 10
196.8001333244183
 20
129.0322020225494
 30
0.0
 41
0.25
 10
195.4207117295346
 20
129.0322020225494
 30
0.0
 41
0.25
 10
194.3001406098892
 20
130.1526520255584
 30
0.0
 41
0.25
 10
194.3001406098892
 20
131.5321220670967
 30
0.0
 41
0.25
  0
SPLINE
  5
D9
330
1F
100
AcDbEntity
  8
Default
  6
LT_0
 62
    18
420
        0
370
    15
100
AcDbSpline
210
0.0
220
0.0
230
1.0
 70
    12
 71
     3
 72
     8
 73
     4
 74
     0
 42
0.00001
 43
0.0001
 40
0.0
 40
0.0
 40
0.0
 40
0.0
 40
1.0
 40
1.0
 40
1.0
 40
1.0
 10
194.3001406098892
 20
131.5321220670967
 30
0.0
 41
0.25
 10
194.3001648332165
 20
132.9116042202986
 30
0.0
 41
0.25
 10
195.4207359528618
 20
134.032272233253
 30
0.0
 41
0.25
 10
196.8001333244183
 20
134.032272233253
 30
0.0
 41
0.25
  0
LINE
  5
DA
330
1F
100
AcDbEntity
  8
Default
  6
LT_0
 62
    18
420
        0
440
 33554687
 48
0.5
370
    15
100
AcDbLine
 10
276.3050055014992
 20
139.7576373091624
 30
0.0
 11
276.3050055014992
 21
133.8483808442606
 31
0.0
  0
LINE
  5
DB
330
1F
100
AcDbEntity
  8
Default
  6
LT_0
 62
    18
420
        0
440
 33554687
 48
0.5
370
    15
100
AcDbLine
 10
276.3050055014992
 20
133.8483808442606
 30
0.0
 11
200.901069961742
 21
133.8483808442606
 31
0.0
  0
LINE
  5
DC
330
1F
100
AcDbEntity
  8
Default
  6
LT_0
 62
    18
420
        0
440
 33554687
 48
0.5
370
    15
100
AcDbLine
 10
200.901069961742
 20
133.8483808442606
 30
0.0
 11
200.901069961742
 21
187.3805049411067
 31
0.0
  0
LINE
  5
DD
330
1F
100
AcDbEntity
  8
Default
  6
LT_0
 62
    18
420
        0
440
 33554687
 48
0.5
370
    15
100
AcDbLine
 10
200.901069961742
 20
187.3805049411067
 30
0.0
 11
276.3050055014992
 21
187.3805533877612
 31
0.0
  0
LINE
  5
DE
330
1F
100
AcDbEntity
  8
Default
  6
LT_0
 62
    18
420
        0
440
 33554687
 48
0.5
370
    15
100
AcDbLine
 10
276.3050055014992
 20
187.3805533877612
 30
0.0
 11
276.3050055014992
 21
179.3388084180515
 31
0.0
  0
LINE
  5
DF
330
1F
100
AcDbEntity
  8
Default
  6
LT_0
 62
    18
420
        0
440
 33554687
 48
0.5
370
    15
100
AcDbLine
 10
276.3050055014992
 20
179.3388084180515
 30
0.0
 11
276.3050055014992
 21
139.7576373091624
 31
0.0
  0
LINE
  5
E0
330
1F
100
AcDbEntity
  8
Default
  6
LT_0
 62
    18
420
        0
440
 33554687
 48
0.5
370
    15
100
AcDbLine
 10
283.9999329829789
 20
126.5323909829749
 30
0.0
 11
290.5000448467217
 21
126.5323909829749
 31
0.0
  0
SPLINE
  5
E1
330
1F
100
AcDbEntity
  8
Default
  6
LT_0
 62
    18
420
        0
370
    15
100
AcDbSpline
210
0.0
220
0.0
230
1.0
 70
    28
 71
     3
 72
     8
 73
     4
 74
     0
 42
0.00001
 43
0.0001
 40
0.0
 40
0.0
 40
0.0
 40
0.0
 40
1.0
 40
1.0
 40
1.0
 40
1.0
 10
290.5000448467217
 20
126.5323909829749
 30
0.0
 41
0.25
 10
290.5000448467217
 20
126.5323909829749
 30
0.0
 41
0.25
 10
290.5000448467217
 20
139.0322334389839
 30
0.0
 41
0.25
 10
290.5000448467217
 20
139.0322334389839
 30
0.0
 41
0.25
  0
LINE
  5
E2
330
1F
100
AcDbEntity
  8
Default
  6
LT_0
 62
    18
420
        0
440
 33554687
 48
0.5
370
    15
100
AcDbLine
 10
290.5000448467217
 20
139.0322334389839
 30
0.0
 11
283.9999329829789
 21
144.3169398568079
 31
0.0
  0
ENDSEC
  0
SECTION
  2
OBJECTS
  0
DICTIONARY
  5
C
330
0
100
AcDbDictionary
281
     1
  3
ACAD_GROUP
350
D
  3
ACAD_LAYOUT
350
1A
  3
ACAD_MATERIAL
350
3B
  3
ACAD_MLEADERSTYLE
350
104
  3
ACAD_MLINESTYLE
350
17
  3
ACAD_PLOTSETTINGS
350
19
  3
ACAD_PLOTSTYLENAME
350
E
  3
ACAD_TABLESTYLE
350
103
  3
ACAD_VISUALSTYLE
350
2A
  0
DICTIONARY
  5
D
102
{ACAD_REACTORS
330
C
102
}
330
C
100
AcDbDictionary
281
     1
  0
DICTIONARY
  5
1A
102
{ACAD_REACTORS
330
C
102
}
330
C
100
AcDbDictionary
281
     1
  3
Layout1
350
1E
  3
Layout2
350
26
  3
Model
350
22
  0
DICTIONARY
  5
3B
102
{ACAD_REACTORS
330
C
102
}
330
C
100
AcDbDictionary
281
     1
  3
ByBlock
350
3D
  3
ByLayer
350
3C
  3
Global
350
3E
  0
DICTIONARY
  5
104
102
{ACAD_REACTORS
330
C
102
}
330
C
100
AcDbDictionary
281
     1
  0
DICTIONARY
  5
17
102
{ACAD_REACTORS
330
C
102
}
330
C
100
AcDbDictionary
281
     1
  3
Standard
350
18
  0
DICTIONARY
  5
19
102
{ACAD_REACTORS
330
C
102
}
330
C
100
AcDbDictionary
281
     1
  0
ACDBDICTIONARYWDFLT
  5
E
102
{ACAD_REACTORS
330
C
102
}
330
C
100
AcDbDictionary
281
     1
  3
Normal
350
F
100
AcDbDictionaryWithDefault
340
F
  0
DICTIONARY
  5
103
102
{ACAD_REACTORS
330
C
102
}
330
C
100
AcDbDictionary
281
     1
  0
DICTIONARY
  5
2A
102
{ACAD_REACTORS
330
C
102
}
330
C
100
AcDbDictionary
281
     1
  3
2dWireframe
350
2F
  3
3D Hidden
350
31
  3
3dWireframe
350
30
  3
Basic
350
32
  3
Brighten
350
36
  3
ColorChange
350
3A
  3
Conceptual
350
34
  3
Dim
350
35
  3
Facepattern
350
39
  3
Flat
350
2B
  3
FlatWithEdges
350
2C
  3
Gouraud
350
2D
  3
GouraudWithEdges
350
2E
  3
Linepattern
350
38
  3
Realistic
350
33
  3
Thicken
350
37
  0
LAYOUT
  5
1E
102
{ACAD_REACTORS
330
1A
102
}
330
1A
100
AcDbPlotSettings
  1

  2
none_device
  4

  6

 40
0.0
 41
0.0
 42
0.0
 43
0.0
 44
0.0
 45
0.0
 46
0.0
 47
0.0
 48
0.0
 49
0.0
140
0.0
141
0.0
142
1.0
143
1.0
 70
   688
 72
     0
 73
     0
 74
     5
  7

 75
    16
 76
     0
 77
     2
 78
   300
147
1.0
148
0.0
149
0.0
100
AcDbLayout
  1
Layout1
 70
     1
 71
     1
 10
0.0
 20
0.0
 11
420.0
 21
297.0
 12
0.0
 22
0.0
 32
0.0
 14
1.000000000000000E+20
 24
1.000000000000000E+20
 34
1.000000000000000E+20
 15
-1.000000000000000E+20
 25
-1.000000000000000E+20
 35
-1.000000000000000E+20
146
0.0
 13
0.0
 23
0.0
 33
0.0
 16
1.0
 26
0.0
 36
0.0
 17
0.0
 27
1.0
 37
0.0
 76
     0
330
1B
  0
LAYOUT
  5
26
102
{ACAD_REACTORS
330
1A
102
}
330
1A
100
AcDbPlotSettings
  1

  2
none_device
  4

  6

 40
0.0
 41
0.0
 42
0.0
 43
0.0
 44
0.0
 45
0.0
 46
0.0
 47
0.0
 48
0.0
 49
0.0
140
0.0
141
0.0
142
1.0
143
1.0
 70
   688
 72
     0
 73
     0
 74
     5
  7

 75
    16
 76
     0
 77
     2
 78
   300
147
1.0
148
0.0
149
0.0
100
AcDbLayout
  1
Layout2
 70
     1
 71
     2
 10
0.0
 20
0.0
 11
0.0
 21
0.0
 12
0.0
 22
0.0
 32
0.0
 14
0.0
 24
0.0
 34
0.0
 15
0.0
 25
0.0
 35
0.0
146
0.0
 13
0.0
 23
0.0
 33
0.0
 16
1.0
 26
0.0
 36
0.0
 17
0.0
 27
1.0
 37
0.0
 76
     0
330
23
  0
LAYOUT
  5
22
102
{ACAD_REACTORS
330
1A
102
}
330
1A
100
AcDbPlotSettings
  1

  2
none_device
  4

  6

 40
0.0
 41
0.0
 42
0.0
 43
0.0
 44
0.0
 45
0.0
 46
0.0
 47
0.0
 48
0.0
 49
0.0
140
0.0
141
0.0
142
1.0
143
1.0
 70
  1712
 72
     0
 73
     0
 74
     0
  7

 75
     0
 76
     0
 77
     2
 78
   300
147
1.0
148
0.0
149
0.0
100
AcDbLayout
  1
Model
 70
     1
 71
     0
 10
0.0
 20
0.0
 11
420.0
 21
297.0
 12
0.0
 22
0.0
 32
0.0
 14
1.000000000000000E+20
 24
1.000000000000000E+20
 34
1.000000000000000E+20
 15
-1.000000000000000E+20
 25
-1.000000000000000E+20
 35
-1.000000000000000E+20
146
0.0
 13
0.0
 23
0.0
 33
0.0
 16
1.0
 26
0.0
 36
0.0
 17
0.0
 27
1.0
 37
0.0
 76
     0
330
1F
331
29
  0
MATERIAL
  5
3D
102
{ACAD_REACTORS
330
3B
102
}
330
3B
100
AcDbMaterial
  1
ByBlock
 72
     1
 94
      127
  0
MATERIAL
  5
3C
102
{ACAD_REACTORS
330
3B
102
}
330
3B
100
AcDbMaterial
  1
ByLayer
 72
     1
 94
      127
  0
MATERIAL
  5
3E
102
{ACAD_REACTORS
330
3B
102
}
330
3B
100
AcDbMaterial
  1
Global
 72
     1
 94
      127
  0
MLINESTYLE
  5
18
102
{ACAD_REACTORS
330
17
102
}
330
17
100
AcDbMlineStyle
  2
Standard
 70
     0
  3

 62
   256
 51
90.0
 52
90.0
 71
     2
 49
0.5
 62
   256
  6
BYLAYER
 49
-0.5
 62
   256
  6
BYLAYER
  0
ACDBPLACEHOLDER
  5
F
102
{ACAD_REACTORS
330
E
102
}
330
E
  0
VISUALSTYLE
  5
2F
102
{ACAD_REACTORS
330
2A
102
}
102
{ACAD_XDICTIONARY
360
EB
102
}
330
2A
100
AcDbVisualStyle
  2
2dWireframe
 70
     4
 71
     0
 72
     2
 73
     0
 90
        0
 40
-0.6
 41
-30.0
 62
     5
 63
     7
421
 16777215
 74
     1
 91
        4
 64
     7
 65
   257
 75
     1
175
     1
 42
1.0
 92
        0
 66
   257
 43
1.0
 76
     1
 77
     6
 78
     2
 67
     7
 79
     5
170
     0
171
     0
290
     0
174
     0
 93
        1
 44
0.0
173
     0
291
     0
 45
0.0
  0
VISUALSTYLE
  5
31
102
{ACAD_REACTORS
330
2A
102
}
102
{ACAD_XDICTIONARY
360
EF
102
}
330
2A
100
AcDbVisualStyle
  2
3D Hidden
 70
     6
 71
     1
 72
     2
 73
     2
 90
        0
 40
-0.6
 41
-30.0
 62
     5
 63
     7
421
 16777215
 74
     2
 91
        2
 64
     7
 65
   257
 75
     2
175
     1
 42
40.0
 92
        0
 66
   257
 43
1.0
 76
     1
 77
     6
 78
     2
 67
     7
 79
     3
170
     0
171
     0
290
     0
174
     0
 93
        1
 44
0.0
173
     0
291
     0
 45
0.0
  0
VISUALSTYLE
  5
30
102
{ACAD_REACTORS
330
2A
102
}
102
{ACAD_XDICTIONARY
360
ED
102
}
330
2A
100
AcDbVisualStyle
  2
3dWireframe
 70
     5
 71
     0
 72
     2
 73
     0
 90
        0
 40
-0.6
 41
-30.0
 62
     5
 63
     7
421
 16777215
 74
     1
 91
        4
 64
     7
 65
   257
 75
     1
175
     1
 42
1.0
 92
        0
 66
   257
 43
1.0
 76
     1
 77
     6
 78
     2
 67
     7
 79
     5
170
     0
171
     0
290
     0
174
     0
 93
        1
 44
0.0
173
     0
291
     0
 45
0.0
  0
VISUALSTYLE
  5
32
102
{ACAD_REACTORS
330
2A
102
}
102
{ACAD_XDICTIONARY
360
F1
102
}
330
2A
100
AcDbVisualStyle
  2
Basic
 70
     7
 71
     1
 72
     0
 73
     1
 90
        0
 40
-0.6
 41
-30.0
 62
     5
 63
     7
421
 16777215
 74
     0
 91
        4
 64
     7
 65
   257
 75
     1
175
     1
 42
1.0
 92
        8
 66
     7
 43
1.0
 76
     1
 77
     6
 78
     2
 67
     7
 79
     5
170
     0
171
     0
290
     0
174
     0
 93
        1
 44
0.0
173
     0
291
     1
 45
0.0
  0
VISUALSTYLE
  5
36
102
{ACAD_REACTORS
330
2A
102
}
102
{ACAD_XDICTIONARY
360
F9
102
}
330
2A
100
AcDbVisualStyle
  2
Brighten
 70
    12
 71
     2
 72
     2
 73
     0
 90
        0
 40
-0.6
 41
-30.0
 62
     5
 63
     7
421
 16777215
 74
     1
 91
        4
 64
     7
 65
   257
 75
     1
175
     1
 42
1.0
 92
        8
 66
     7
 43
1.0
 76
     1
 77
     6
 78
     2
 67
     7
 79
     5
170
     0
171
     0
290
     0
174
     0
 93
        1
 44
50.0
173
     0
291
     1
 45
0.0
  0
VISUALSTYLE
  5
3A
102
{ACAD_REACTORS
330
2A
102
}
102
{ACAD_XDICTIONARY
360
101
102
}
330
2A
100
AcDbVisualStyle
  2
ColorChange
 70
    16
 71
     2
 72
     2
 73
     3
 90
        0
 40
-0.6
 41
-30.0
 62
     5
 63
     8
421
  8421504
 74
     1
 91
        4
 64
     7
 65
   257
 75
     1
175
     1
 42
1.0
 92
        8
 66
     8
424
  8421504
 43
1.0
 76
     1
 77
     6
 78
     2
 67
     7
 79
     5
170
     0
171
     0
290
     0
174
     0
 93
        1
 44
0.0
173
     0
291
     1
 45
0.0
  0
VISUALSTYLE
  5
34
102
{ACAD_REACTORS
330
2A
102
}
102
{ACAD_XDICTIONARY
360
F5
102
}
330
2A
100
AcDbVisualStyle
  2
Conceptual
 70
     9
 71
     3
 72
     2
 73
     0
 90
        0
 40
-0.6
 41
-30.0
 62
     5
 63
     7
421
 16777215
 74
     2
 91
        2
 64
     7
 65
   257
 75
     1
175
     1
 42
40.0
 92
        8
 66
     7
 43
1.0
 76
     1
 77
     6
 78
     2
 67
     7
 79
     3
170
     0
171
     0
290
     0
174
     0
 93
        1
 44
0.0
173
     0
291
     0
 45
0.0
  0
VISUALSTYLE
  5
35
102
{ACAD_REACTORS
330
2A
102
}
102
{ACAD_XDICTIONARY
360
F7
102
}
330
2A
100
AcDbVisualStyle
  2
Dim
 70
    11
 71
     2
 72
     2
 73
     0
 90
        0
 40
-0.6
 41
-30.0
 62
     5
 63
     7
421
 16777215
 74
     1
 91
        4
 64
     7
 65
   257
 75
     1
175
     1
 42
1.0
 92
        8
 66
     7
 43
1.0
 76
     1
 77
     6
 78
     2
 67
     7
 79
     5
170
     0
171
     0
290
     0
174
     0
 93
        1
 44
-50.0
173
     0
291
     1
 45
0.0
  0
VISUALSTYLE
  5
39
102
{ACAD_REACTORS
330
2A
102
}
102
{ACAD_XDICTIONARY
360
FF
102
}
330
2A
100
AcDbVisualStyle
  2
Facepattern
 70
    15
 71
     2
 72
     2
 73
     0
 90
        0
 40
-0.6
 41
-30.0
 62
     5
 63
     7
421
 16777215
 74
     1
 91
        4
 64
     7
 65
   257
 75
     1
175
     1
 42
1.0
 92
        8
 66
     7
 43
1.0
 76
     1
 77
     6
 78
     2
 67
     7
 79
     5
170
     0
171
     0
290
     0
174
     0
 93
        1
 44
0.0
173
     0
291
     1
 45
0.0
  0
VISUALSTYLE
  5
2B
102
{ACAD_REACTORS
330
2A
102
}
102
{ACAD_XDICTIONARY
360
E3
102
}
330
2A
100
AcDbVisualStyle
  2
Flat
 70
     0
 71
     2
 72
     1
 73
     1
 90
        2
 40
-0.6
 41
30.0
 62
     5
 63
     7
421
 16777215
 74
     0
 91
        4
 64
     7
 65
   257
 75
     1
175
     1
 42
1.0
 92
        8
 66
     7
 43
1.0
 76
     1
 77
     6
 78
     2
 67
     7
 79
     5
170
     0
171
     0
290
     0
174
     0
 93
       13
 44
0.0
173
     0
291
     1
 45
0.0
  0
VISUALSTYLE
  5
2C
102
{ACAD_REACTORS
330
2A
102
}
102
{ACAD_XDICTIONARY
360
E5
102
}
330
2A
100
AcDbVisualStyle
  2
FlatWithEdges
 70
     1
 71
     2
 72
     1
 73
     1
 90
        2
 40
-0.6
 41
30.0
 62
     5
 63
     7
421
 16777215
 74
     1
 91
        4
 64
     7
 65
   257
 75
     1
175
     1
 42
1.0
 92
        0
 66
   257
 43
1.0
 76
     1
 77
     6
 78
     2
 67
     7
 79
     5
170
     0
171
     0
290
     0
174
     0
 93
       13
 44
0.0
173
     0
291
     1
 45
0.0
  0
VISUALSTYLE
  5
2D
102
{ACAD_REACTORS
330
2A
102
}
102
{ACAD_XDICTIONARY
360
E7
102
}
330
2A
100
AcDbVisualStyle
  2
Gouraud
 70
     2
 71
     2
 72
     2
 73
     1
 90
        2
 40
-0.6
 41
30.0
 62
     5
 63
     7
421
 16777215
 74
     0
 91
        4
 64
     7
 65
   257
 75
     1
175
     1
 42
1.0
 92
        0
 66
     7
 43
1.0
 76
     1
 77
     6
 78
     2
 67
     7
 79
     5
170
     0
171
     0
290
     0
174
     0
 93
       13
 44
0.0
173
     0
291
     1
 45
0.0
  0
VISUALSTYLE
  5
2E
102
{ACAD_REACTORS
330
2A
102
}
102
{ACAD_XDICTIONARY
360
E9
102
}
330
2A
100
AcDbVisualStyle
  2
GouraudWithEdges
 70
     3
 71
     2
 72
     2
 73
     1
 90
        2
 40
-0.6
 41
30.0
 62
     5
 63
     7
421
 16777215
 74
     1
 91
        4
 64
     7
 65
   257
 75
     1
175
     1
 42
1.0
 92
        0
 66
   257
 43
1.0
 76
     1
 77
     6
 78
     2
 67
     7
 79
     5
170
     0
171
     0
290
     0
174
     0
 93
       13
 44
0.0
173
     0
291
     1
 45
0.0
  0
VISUALSTYLE
  5
38
102
{ACAD_REACTORS
330
2A
102
}
102
{ACAD_XDICTIONARY
360
FD
102
}
330
2A
100
AcDbVisualStyle
  2
Linepattern
 70
    14
 71
     2
 72
     2
 73
     0
 90
        0
 40
-0.6
 41
-30.0
 62
     5
 63
     7
421
 16777215
 74
     1
 91
        4
 64
     7
 65
   257
 75
     7
175
     7
 42
1.0
 92
        8
 66
     7
 43
1.0
 76
     1
 77
     6
 78
     2
 67
     7
 79
     5
170
     0
171
     0
290
     0
174
     0
 93
        1
 44
0.0
173
     0
291
     1
 45
0.0
  0
VISUALSTYLE
  5
33
102
{ACAD_REACTORS
330
2A
102
}
102
{ACAD_XDICTIONARY
360
F3
102
}
330
2A
100
AcDbVisualStyle
  2
Realistic
 70
     8
 71
     2
 72
     2
 73
     0
 90
        0
 40
-0.6
 41
-30.0
 62
     5
 63
     7
421
 16777215
 74
     1
 91
        0
 64
     7
 65
   257
 75
     1
175
     1
 42
1.0
 92
        8
 66
     8
424
  7895160
 43
1.0
 76
     1
 77
     6
 78
     2
 67
     7
 79
     5
170
     0
171
     0
290
     0
174
     0
 93
       13
 44
0.0
173
     0
291
     0
 45
0.0
  0
VISUALSTYLE
  5
37
102
{ACAD_REACTORS
330
2A
102
}
102
{ACAD_XDICTIONARY
360
FB
102
}
330
2A
100
AcDbVisualStyle
  2
Thicken
 70
    13
 71
     2
 72
     2
 73
     0
 90
        0
 40
-0.6
 41
-30.0
 62
     5
 63
     7
421
 16777215
 74
     1
 91
        4
 64
     7
 65
   257
 75
     1
175
     1
 42
1.0
 92
       12
 66
     7
 43
1.0
 76
     1
 77
     6
 78
     2
 67
     7
 79
     5
170
     0
171
     0
290
     0
174
     0
 93
        1
 44
0.0
173
     0
291
     1
 45
0.0
  0
DICTIONARY
  5
EB
330
2F
100
AcDbDictionary
280
     1
281
     1
  3
ACAD_XREC_ROUNDTRIP
360
EC
  0
DICTIONARY
  5
EF
330
31
100
AcDbDictionary
280
     1
281
     1
  3
ACAD_XREC_ROUNDTRIP
360
F0
  0
DICTIONARY
  5
ED
330
30
100
AcDbDictionary
280
     1
281
     1
  3
ACAD_XREC_ROUNDTRIP
360
EE
  0
DICTIONARY
  5
F1
330
32
100
AcDbDictionary
280
     1
281
     1
  3
ACAD_XREC_ROUNDTRIP
360
F2
  0
DICTIONARY
  5
F9
330
36
100
AcDbDictionary
280
     1
281
     1
  3
ACAD_XREC_ROUNDTRIP
360
FA
  0
DICTIONARY
  5
101
330
3A
100
AcDbDictionary
280
     1
281
     1
  3
ACAD_XREC_ROUNDTRIP
360
102
  0
DICTIONARY
  5
F5
330
34
100
AcDbDictionary
280
     1
281
     1
  3
ACAD_XREC_ROUNDTRIP
360
F6
  0
DICTIONARY
  5
F7
330
35
100
AcDbDictionary
280
     1
281
     1
  3
ACAD_XREC_ROUNDTRIP
360
F8
  0
DICTIONARY
  5
FF
330
39
100
AcDbDictionary
280
     1
281
     1
  3
ACAD_XREC_ROUNDTRIP
360
100
  0
DICTIONARY
  5
E3
330
2B
100
AcDbDictionary
280
     1
281
     1
  3
ACAD_XREC_ROUNDTRIP
360
E4
  0
DICTIONARY
  5
E5
330
2C
100
AcDbDictionary
280
     1
281
     1
  3
ACAD_XREC_ROUNDTRIP
360
E6
  0
DICTIONARY
  5
E7
330
2D
100
AcDbDictionary
280
     1
281
     1
  3
ACAD_XREC_ROUNDTRIP
360
E8
  0
DICTIONARY
  5
E9
330
2E
100
AcDbDictionary
280
     1
281
     1
  3
ACAD_XREC_ROUNDTRIP
360
EA
  0
DICTIONARY
  5
FD
330
38
100
AcDbDictionary
280
     1
281
     1
  3
ACAD_XREC_ROUNDTRIP
360
FE
  0
DICTIONARY
  5
F3
330
33
100
AcDbDictionary
280
     1
281
     1
  3
ACAD_XREC_ROUNDTRIP
360
F4
  0
DICTIONARY
  5
FB
330
37
100
AcDbDictionary
280
     1
281
     1
  3
ACAD_XREC_ROUNDTRIP
360
FC
  0
XRECORD
  5
EC
102
{ACAD_REACTORS
330
EB
102
}
330
EB
100
AcDbXrecord
280
     1
102
RTVSPropertyOp0
 70
     1
102
RTVSPropertyOp1
 70
     1
102
RTVSPropertyOp2
 70
     1
102
RTVSPropertyOp3
 70
     1
102
RTVSPropertyOp4
 70
     1
102
RTVSPropertyOp5
 70
     1
102
RTVSPropertyOp6
 70
     1
102
RTVSPropertyOp7
 70
     1
102
RTVSPropertyOp8
 70
     1
102
RTVSPropertyOp9
 70
     1
102
RTVSPropertyOp10
 70
     1
102
RTVSPropertyOp11
 70
     1
102
RTVSPropertyOp12
 70
     1
102
RTVSPropertyOp13
 70
     1
102
RTVSPropertyOp14
 70
     1
102
RTVSPropertyOp15
 70
     1
102
RTVSPropertyOp16
 70
     1
102
RTVSPropertyOp17
 70
     1
102
RTVSPropertyOp18
 70
     1
102
RTVSPropertyOp19
 70
     1
102
RTVSPropertyOp20
 70
     1
102
RTVSPropertyOp21
 70
     1
102
RTVSPropertyOp22
 70
     1
102
RTVSPropertyOp23
 70
     1
102
RTVSPropertyOp24
 70
     1
102
RTVSPropertyOp25
 70
     1
102
RTVSPropertyOp26
 70
     1
102
RTVSPropertyOp27
 70
     1
  0
XRECORD
  5
F0
102
{ACAD_REACTORS
330
EF
102
}
330
EF
100
AcDbXrecord
280
     1
102
RTVSPropertyOp0
 70
     1
102
RTVSPropertyOp1
 70
     1
102
RTVSPropertyOp2
 70
     1
102
RTVSPropertyOp3
 70
     1
102
RTVSPropertyOp4
 70
     1
102
RTVSPropertyOp5
 70
     1
102
RTVSPropertyOp6
 70
     1
102
RTVSPropertyOp7
 70
     1
102
RTVSPropertyOp8
 70
     1
102
RTVSPropertyOp9
 70
     1
102
RTVSPropertyOp10
 70
     1
102
RTVSPropertyOp11
 70
     1
102
RTVSPropertyOp12
 70
     1
102
RTVSPropertyOp13
 70
     1
102
RTVSPropertyOp14
 70
     1
102
RTVSPropertyOp15
 70
     1
102
RTVSPropertyOp16
 70
     1
102
RTVSPropertyOp17
 70
     1
102
RTVSPropertyOp18
 70
     1
102
RTVSPropertyOp19
 70
     1
102
RTVSPropertyOp20
 70
     1
102
RTVSPropertyOp21
 70
     1
102
RTVSPropertyOp22
 70
     1
102
RTVSPropertyOp23
 70
     1
102
RTVSPropertyOp24
 70
     1
102
RTVSPropertyOp25
 70
     1
102
RTVSPropertyOp26
 70
     1
102
RTVSPropertyOp27
 70
     1
  0
XRECORD
  5
EE
102
{ACAD_REACTORS
330
ED
102
}
330
ED
100
AcDbXrecord
280
     1
102
RTVSPropertyOp0
 70
     1
102
RTVSPropertyOp1
 70
     1
102
RTVSPropertyOp2
 70
     1
102
RTVSPropertyOp3
 70
     1
102
RTVSPropertyOp4
 70
     1
102
RTVSPropertyOp5
 70
     1
102
RTVSPropertyOp6
 70
     1
102
RTVSPropertyOp7
 70
     1
102
RTVSPropertyOp8
 70
     1
102
RTVSPropertyOp9
 70
     1
102
RTVSPropertyOp10
 70
     1
102
RTVSPropertyOp11
 70
     1
102
RTVSPropertyOp12
 70
     1
102
RTVSPropertyOp13
 70
     1
102
RTVSPropertyOp14
 70
     1
102
RTVSPropertyOp15
 70
     1
102
RTVSPropertyOp16
 70
     1
102
RTVSPropertyOp17
 70
     1
102
RTVSPropertyOp18
 70
     1
102
RTVSPropertyOp19
 70
     1
102
RTVSPropertyOp20
 70
     1
102
RTVSPropertyOp21
 70
     1
102
RTVSPropertyOp22
 70
     1
102
RTVSPropertyOp23
 70
     1
102
RTVSPropertyOp24
 70
     1
102
RTVSPropertyOp25
 70
     1
102
RTVSPropertyOp26
 70
     1
102
RTVSPropertyOp27
 70
     1
  0
XRECORD
  5
F2
102
{ACAD_REACTORS
330
F1
102
}
330
F1
100
AcDbXrecord
280
     1
102
RTVSPropertyOp0
 70
     1
102
RTVSPropertyOp1
 70
     1
102
RTVSPropertyOp2
 70
     1
102
RTVSPropertyOp3
 70
     1
102
RTVSPropertyOp4
 70
     1
102
RTVSPropertyOp5
 70
     1
102
RTVSPropertyOp6
 70
     1
102
RTVSPropertyOp7
 70
     1
102
RTVSPropertyOp8
 70
     1
102
RTVSPropertyOp9
 70
     1
102
RTVSPropertyOp10
 70
     1
102
RTVSPropertyOp11
 70
     1
102
RTVSPropertyOp12
 70
     1
102
RTVSPropertyOp13
 70
     1
102
RTVSPropertyOp14
 70
     1
102
RTVSPropertyOp15
 70
     1
102
RTVSPropertyOp16
 70
     1
102
RTVSPropertyOp17
 70
     1
102
RTVSPropertyOp18
 70
     1
102
RTVSPropertyOp19
 70
     1
102
RTVSPropertyOp20
 70
     1
102
RTVSPropertyOp21
 70
     1
102
RTVSPropertyOp22
 70
     1
102
RTVSPropertyOp23
 70
     1
102
RTVSPropertyOp24
 70
     1
102
RTVSPropertyOp25
 70
     1
102
RTVSPropertyOp26
 70
     1
102
RTVSPropertyOp27
 70
     1
  0
XRECORD
  5
FA
102
{ACAD_REACTORS
330
F9
102
}
330
F9
100
AcDbXrecord
280
     1
102
RTVSPropertyOp0
 70
     1
102
RTVSPropertyOp1
 70
     1
102
RTVSPropertyOp2
 70
     1
102
RTVSPropertyOp3
 70
     1
102
RTVSPropertyOp4
 70
     1
102
RTVSPropertyOp5
 70
     1
102
RTVSPropertyOp6
 70
     1
102
RTVSPropertyOp7
 70
     1
102
RTVSPropertyOp8
 70
     1
102
RTVSPropertyOp9
 70
     1
102
RTVSPropertyOp10
 70
     1
102
RTVSPropertyOp11
 70
     1
102
RTVSPropertyOp12
 70
     1
102
RTVSPropertyOp13
 70
     1
102
RTVSPropertyOp14
 70
     1
102
RTVSPropertyOp15
 70
     1
102
RTVSPropertyOp16
 70
     1
102
RTVSPropertyOp17
 70
     1
102
RTVSPropertyOp18
 70
     1
102
RTVSPropertyOp19
 70
     1
102
RTVSPropertyOp20
 70
     1
102
RTVSPropertyOp21
 70
     1
102
RTVSPropertyOp22
 70
     1
102
RTVSPropertyOp23
 70
     1
102
RTVSPropertyOp24
 70
     1
102
RTVSPropertyOp25
 70
     1
102
RTVSPropertyOp26
 70
     1
102
RTVSPropertyOp27
 70
     1
  0
XRECORD
  5
102
102
{ACAD_REACTORS
330
101
102
}
330
101
100
AcDbXrecord
280
     1
102
RTVSPropertyOp0
 70
     1
102
RTVSPropertyOp1
 70
     1
102
RTVSPropertyOp2
 70
     1
102
RTVSPropertyOp3
 70
     1
102
RTVSPropertyOp4
 70
     1
102
RTVSPropertyOp5
 70
     1
102
RTVSPropertyOp6
 70
     1
102
RTVSPropertyOp7
 70
     1
102
RTVSPropertyOp8
 70
     1
102
RTVSPropertyOp9
 70
     1
102
RTVSPropertyOp10
 70
     1
102
RTVSPropertyOp11
 70
     1
102
RTVSPropertyOp12
 70
     1
102
RTVSPropertyOp13
 70
     1
102
RTVSPropertyOp14
 70
     1
102
RTVSPropertyOp15
 70
     1
102
RTVSPropertyOp16
 70
     1
102
RTVSPropertyOp17
 70
     1
102
RTVSPropertyOp18
 70
     1
102
RTVSPropertyOp19
 70
     1
102
RTVSPropertyOp20
 70
     1
102
RTVSPropertyOp21
 70
     1
102
RTVSPropertyOp22
 70
     1
102
RTVSPropertyOp23
 70
     1
102
RTVSPropertyOp24
 70
     1
102
RTVSPropertyOp25
 70
     1
102
RTVSPropertyOp26
 70
     1
102
RTVSPropertyOp27
 70
     1
  0
XRECORD
  5
F6
102
{ACAD_REACTORS
330
F5
102
}
330
F5
100
AcDbXrecord
280
     1
102
RTVSPropertyOp0
 70
     1
102
RTVSPropertyOp1
 70
     1
102
RTVSPropertyOp2
 70
     1
102
RTVSPropertyOp3
 70
     1
102
RTVSPropertyOp4
 70
     1
102
RTVSPropertyOp5
 70
     1
102
RTVSPropertyOp6
 70
     1
102
RTVSPropertyOp7
 70
     1
102
RTVSPropertyOp8
 70
     1
102
RTVSPropertyOp9
 70
     1
102
RTVSPropertyOp10
 70
     1
102
RTVSPropertyOp11
 70
     1
102
RTVSPropertyOp12
 70
     1
102
RTVSPropertyOp13
 70
     1
102
RTVSPropertyOp14
 70
     1
102
RTVSPropertyOp15
 70
     1
102
RTVSPropertyOp16
 70
     1
102
RTVSPropertyOp17
 70
     1
102
RTVSPropertyOp18
 70
     1
102
RTVSPropertyOp19
 70
     1
102
RTVSPropertyOp20
 70
     1
102
RTVSPropertyOp21
 70
     1
102
RTVSPropertyOp22
 70
     1
102
RTVSPropertyOp23
 70
     1
102
RTVSPropertyOp24
 70
     1
102
RTVSPropertyOp25
 70
     1
102
RTVSPropertyOp26
 70
     1
102
RTVSPropertyOp27
 70
     1
  0
XRECORD
  5
F8
102
{ACAD_REACTORS
330
F7
102
}
330
F7
100
AcDbXrecord
280
     1
102
RTVSPropertyOp0
 70
     1
102
RTVSPropertyOp1
 70
     1
102
RTVSPropertyOp2
 70
     1
102
RTVSPropertyOp3
 70
     1
102
RTVSPropertyOp4
 70
     1
102
RTVSPropertyOp5
 70
     1
102
RTVSPropertyOp6
 70
     1
102
RTVSPropertyOp7
 70
     1
102
RTVSPropertyOp8
 70
     1
102
RTVSPropertyOp9
 70
     1
102
RTVSPropertyOp10
 70
     1
102
RTVSPropertyOp11
 70
     1
102
RTVSPropertyOp12
 70
     1
102
RTVSPropertyOp13
 70
     1
102
RTVSPropertyOp14
 70
     1
102
RTVSPropertyOp15
 70
     1
102
RTVSPropertyOp16
 70
     1
102
RTVSPropertyOp17
 70
     1
102
RTVSPropertyOp18
 70
     1
102
RTVSPropertyOp19
 70
     1
102
RTVSPropertyOp20
 70
     1
102
RTVSPropertyOp21
 70
     1
102
RTVSPropertyOp22
 70
     1
102
RTVSPropertyOp23
 70
     1
102
RTVSPropertyOp24
 70
     1
102
RTVSPropertyOp25
 70
     1
102
RTVSPropertyOp26
 70
     1
102
RTVSPropertyOp27
 70
     1
  0
XRECORD
  5
100
102
{ACAD_REACTORS
330
FF
102
}
330
FF
100
AcDbXrecord
280
     1
102
RTVSPropertyOp0
 70
     1
102
RTVSPropertyOp1
 70
     1
102
RTVSPropertyOp2
 70
     1
102
RTVSPropertyOp3
 70
     1
102
RTVSPropertyOp4
 70
     1
102
RTVSPropertyOp5
 70
     1
102
RTVSPropertyOp6
 70
     1
102
RTVSPropertyOp7
 70
     1
102
RTVSPropertyOp8
 70
     1
102
RTVSPropertyOp9
 70
     1
102
RTVSPropertyOp10
 70
     1
102
RTVSPropertyOp11
 70
     1
102
RTVSPropertyOp12
 70
     1
102
RTVSPropertyOp13
 70
     1
102
RTVSPropertyOp14
 70
     1
102
RTVSPropertyOp15
 70
     1
102
RTVSPropertyOp16
 70
     1
102
RTVSPropertyOp17
 70
     1
102
RTVSPropertyOp18
 70
     1
102
RTVSPropertyOp19
 70
     1
102
RTVSPropertyOp20
 70
     1
102
RTVSPropertyOp21
 70
     1
102
RTVSPropertyOp22
 70
     1
102
RTVSPropertyOp23
 70
     1
102
RTVSPropertyOp24
 70
     1
102
RTVSPropertyOp25
 70
     1
102
RTVSPropertyOp26
 70
     1
102
RTVSPropertyOp27
 70
     1
  0
XRECORD
  5
E4
102
{ACAD_REACTORS
330
E3
102
}
330
E3
100
AcDbXrecord
280
     1
102
RTVSPropertyOp0
 70
     1
102
RTVSPropertyOp1
 70
     1
102
RTVSPropertyOp2
 70
     1
102
RTVSPropertyOp3
 70
     1
102
RTVSPropertyOp4
 70
     1
102
RTVSPropertyOp5
 70
     1
102
RTVSPropertyOp6
 70
     1
102
RTVSPropertyOp7
 70
     1
102
RTVSPropertyOp8
 70
     1
102
RTVSPropertyOp9
 70
     1
102
RTVSPropertyOp10
 70
     1
102
RTVSPropertyOp11
 70
     1
102
RTVSPropertyOp12
 70
     1
102
RTVSPropertyOp13
 70
     1
102
RTVSPropertyOp14
 70
     1
102
RTVSPropertyOp15
 70
     1
102
RTVSPropertyOp16
 70
     1
102
RTVSPropertyOp17
 70
     1
102
RTVSPropertyOp18
 70
     1
102
RTVSPropertyOp19
 70
     1
102
RTVSPropertyOp20
 70
     1
102
RTVSPropertyOp21
 70
     1
102
RTVSPropertyOp22
 70
     1
102
RTVSPropertyOp23
 70
     1
102
RTVSPropertyOp24
 70
     1
102
RTVSPropertyOp25
 70
     1
102
RTVSPropertyOp26
 70
     1
102
RTVSPropertyOp27
 70
     1
  0
XRECORD
  5
E6
102
{ACAD_REACTORS
330
E5
102
}
330
E5
100
AcDbXrecord
280
     1
102
RTVSPropertyOp0
 70
     1
102
RTVSPropertyOp1
 70
     1
102
RTVSPropertyOp2
 70
     1
102
RTVSPropertyOp3
 70
     1
102
RTVSPropertyOp4
 70
     1
102
RTVSPropertyOp5
 70
     1
102
RTVSPropertyOp6
 70
     1
102
RTVSPropertyOp7
 70
     1
102
RTVSPropertyOp8
 70
     1
102
RTVSPropertyOp9
 70
     1
102
RTVSPropertyOp10
 70
     1
102
RTVSPropertyOp11
 70
     1
102
RTVSPropertyOp12
 70
     1
102
RTVSPropertyOp13
 70
     1
102
RTVSPropertyOp14
 70
     1
102
RTVSPropertyOp15
 70
     1
102
RTVSPropertyOp16
 70
     1
102
RTVSPropertyOp17
 70
     1
102
RTVSPropertyOp18
 70
     1
102
RTVSPropertyOp19
 70
     1
102
RTVSPropertyOp20
 70
     1
102
RTVSPropertyOp21
 70
     1
102
RTVSPropertyOp22
 70
     1
102
RTVSPropertyOp23
 70
     1
102
RTVSPropertyOp24
 70
     1
102
RTVSPropertyOp25
 70
     1
102
RTVSPropertyOp26
 70
     1
102
RTVSPropertyOp27
 70
     1
  0
XRECORD
  5
E8
102
{ACAD_REACTORS
330
E7
102
}
330
E7
100
AcDbXrecord
280
     1
102
RTVSPropertyOp0
 70
     1
102
RTVSPropertyOp1
 70
     1
102
RTVSPropertyOp2
 70
     1
102
RTVSPropertyOp3
 70
     1
102
RTVSPropertyOp4
 70
     1
102
RTVSPropertyOp5
 70
     1
102
RTVSPropertyOp6
 70
     1
102
RTVSPropertyOp7
 70
     1
102
RTVSPropertyOp8
 70
     1
102
RTVSPropertyOp9
 70
     1
102
RTVSPropertyOp10
 70
     1
102
RTVSPropertyOp11
 70
     1
102
RTVSPropertyOp12
 70
     1
102
RTVSPropertyOp13
 70
     1
102
RTVSPropertyOp14
 70
     1
102
RTVSPropertyOp15
 70
     1
102
RTVSPropertyOp16
 70
     1
102
RTVSPropertyOp17
 70
     1
102
RTVSPropertyOp18
 70
     1
102
RTVSPropertyOp19
 70
     1
102
RTVSPropertyOp20
 70
     1
102
RTVSPropertyOp21
 70
     1
102
RTVSPropertyOp22
 70
     1
102
RTVSPropertyOp23
 70
     1
102
RTVSPropertyOp24
 70
     1
102
RTVSPropertyOp25
 70
     1
102
RTVSPropertyOp26
 70
     1
102
RTVSPropertyOp27
 70
     1
  0
XRECORD
  5
EA
102
{ACAD_REACTORS
330
E9
102
}
330
E9
100
AcDbXrecord
280
     1
102
RTVSPropertyOp0
 70
     1
102
RTVSPropertyOp1
 70
     1
102
RTVSPropertyOp2
 70
     1
102
RTVSPropertyOp3
 70
     1
102
RTVSPropertyOp4
 70
     1
102
RTVSPropertyOp5
 70
     1
102
RTVSPropertyOp6
 70
     1
102
RTVSPropertyOp7
 70
     1
102
RTVSPropertyOp8
 70
     1
102
RTVSPropertyOp9
 70
     1
102
RTVSPropertyOp10
 70
     1
102
RTVSPropertyOp11
 70
     1
102
RTVSPropertyOp12
 70
     1
102
RTVSPropertyOp13
 70
     1
102
RTVSPropertyOp14
 70
     1
102
RTVSPropertyOp15
 70
     1
102
RTVSPropertyOp16
 70
     1
102
RTVSPropertyOp17
 70
     1
102
RTVSPropertyOp18
 70
     1
102
RTVSPropertyOp19
 70
     1
102
RTVSPropertyOp20
 70
     1
102
RTVSPropertyOp21
 70
     1
102
RTVSPropertyOp22
 70
     1
102
RTVSPropertyOp23
 70
     1
102
RTVSPropertyOp24
 70
     1
102
RTVSPropertyOp25
 70
     1
102
RTVSPropertyOp26
 70
     1
102
RTVSPropertyOp27
 70
     1
  0
XRECORD
  5
FE
102
{ACAD_REACTORS
330
FD
102
}
330
FD
100
AcDbXrecord
280
     1
102
RTVSPropertyOp0
 70
     1
102
RTVSPropertyOp1
 70
     1
102
RTVSPropertyOp2
 70
     1
102
RTVSPropertyOp3
 70
     1
102
RTVSPropertyOp4
 70
     1
102
RTVSPropertyOp5
 70
     1
102
RTVSPropertyOp6
 70
     1
102
RTVSPropertyOp7
 70
     1
102
RTVSPropertyOp8
 70
     1
102
RTVSPropertyOp9
 70
     1
102
RTVSPropertyOp10
 70
     1
102
RTVSPropertyOp11
 70
     1
102
RTVSPropertyOp12
 70
     1
102
RTVSPropertyOp13
 70
     1
102
RTVSPropertyOp14
 70
     1
102
RTVSPropertyOp15
 70
     1
102
RTVSPropertyOp16
 70
     1
102
RTVSPropertyOp17
 70
     1
102
RTVSPropertyOp18
 70
     1
102
RTVSPropertyOp19
 70
     1
102
RTVSPropertyOp20
 70
     1
102
RTVSPropertyOp21
 70
     1
102
RTVSPropertyOp22
 70
     1
102
RTVSPropertyOp23
 70
     1
102
RTVSPropertyOp24
 70
     1
102
RTVSPropertyOp25
 70
     1
102
RTVSPropertyOp26
 70
     1
102
RTVSPropertyOp27
 70
     1
  0
XRECORD
  5
F4
102
{ACAD_REACTORS
330
F3
102
}
330
F3
100
AcDbXrecord
280
     1
102
RTVSPropertyOp0
 70
     1
102
RTVSPropertyOp1
 70
     1
102
RTVSPropertyOp2
 70
     1
102
RTVSPropertyOp3
 70
     1
102
RTVSPropertyOp4
 70
     1
102
RTVSPropertyOp5
 70
     1
102
RTVSPropertyOp6
 70
     1
102
RTVSPropertyOp7
 70
     1
102
RTVSPropertyOp8
 70
     1
102
RTVSPropertyOp9
 70
     1
102
RTVSPropertyOp10
 70
     1
102
RTVSPropertyOp11
 70
     1
102
RTVSPropertyOp12
 70
     1
102
RTVSPropertyOp13
 70
     1
102
RTVSPropertyOp14
 70
     1
102
RTVSPropertyOp15
 70
     1
102
RTVSPropertyOp16
 70
     1
102
RTVSPropertyOp17
 70
     1
102
RTVSPropertyOp18
 70
     1
102
RTVSPropertyOp19
 70
     1
102
RTVSPropertyOp20
 70
     1
102
RTVSPropertyOp21
 70
     1
102
RTVSPropertyOp22
 70
     1
102
RTVSPropertyOp23
 70
     1
102
RTVSPropertyOp24
 70
     1
102
RTVSPropertyOp25
 70
     1
102
RTVSPropertyOp26
 70
     1
102
RTVSPropertyOp27
 70
     1
  0
XRECORD
  5
FC
102
{ACAD_REACTORS
330
FB
102
}
330
FB
100
AcDbXrecord
280
     1
102
RTVSPropertyOp0
 70
     1
102
RTVSPropertyOp1
 70
     1
102
RTVSPropertyOp2
 70
     1
102
RTVSPropertyOp3
 70
     1
102
RTVSPropertyOp4
 70
     1
102
RTVSPropertyOp5
 70
     1
102
RTVSPropertyOp6
 70
     1
102
RTVSPropertyOp7
 70
     1
102
RTVSPropertyOp8
 70
     1
102
RTVSPropertyOp9
 70
     1
102
RTVSPropertyOp10
 70
     1
102
RTVSPropertyOp11
 70
     1
102
RTVSPropertyOp12
 70
     1
102
RTVSPropertyOp13
 70
     1
102
RTVSPropertyOp14
 70
     1
102
RTVSPropertyOp15
 70
     1
102
RTVSPropertyOp16
 70
     1
102
RTVSPropertyOp17
 70
     1
102
RTVSPropertyOp18
 70
     1
102
RTVSPropertyOp19
 70
     1
102
RTVSPropertyOp20
 70
     1
102
RTVSPropertyOp21
 70
     1
102
RTVSPropertyOp22
 70
     1
102
RTVSPropertyOp23
 70
     1
102
RTVSPropertyOp24
 70
     1
102
RTVSPropertyOp25
 70
     1
102
RTVSPropertyOp26
 70
     1
102
RTVSPropertyOp27
 70
     1
  0
ENDSEC
  0
EOF
