  0
SECTION
  2
HEADER
  9
$ACADVER
  1
AC1014
  9
$ACADMAINTVER
 70
     9
  9
$DWGCODEPAGE
  3
ANSI_1252
  9
$INSBASE
 10
0.0
 20
0.0
 30
0.0
  9
$EXTMIN
 10
1.000000000000000E+20
 20
1.000000000000000E+20
 30
1.000000000000000E+20
  9
$EXTMAX
 10
-1.000000000000000E+20
 20
-1.000000000000000E+20
 30
-1.000000000000000E+20
  9
$LIMMIN
 10
0.0
 20
0.0
  9
$LIMMAX
 10
12.0
 20
9.0
  9
$ORTHOMODE
 70
     0
  9
$REGENMODE
 70
     1
  9
$FILLMODE
 70
     1
  9
$QTEXTMODE
 70
     0
  9
$MIRRTEXT
 70
     1
  9
$DRAGMODE
 70
     2
  9
$LTSCALE
 40
1.0
  9
$OSMODE
 70
    37
  9
$ATTMODE
 70
     1
  9
$TEXTSIZE
 40
0.2
  9
$TRACEWID
 40
0.05
  9
$TEXTSTYLE
  7
STANDARD
  9
$CLAYER
  8
0
  9
$CELTYPE
  6
BYLAYER
  9
$CECOLOR
 62
   256
  9
$CELTSCALE
 40
1.0
  9
$DELOBJ
 70
     1
  9
$DISPSILH
 70
     0
  9
$DIMSCALE
 40
1.0
  9
$DIMASZ
 40
0.18
  9
$DIMEXO
 40
0.0625
  9
$DIMDLI
 40
0.38
  9
$DIMRND
 40
0.0
  9
$DIMDLE
 40
0.0
  9
$DIMEXE
 40
0.18
  9
$DIMTP
 40
0.0
  9
$DIMTM
 40
0.0
  9
$DIMTXT
 40
0.18
  9
$DIMCEN
 40
0.09
  9
$DIMTSZ
 40
0.0
  9
$DIMTOL
 70
     0
  9
$DIMLIM
 70
     0
  9
$DIMTIH
 70
     1
  9
$DIMTOH
 70
     1
  9
$DIMSE1
 70
     0
  9
$DIMSE2
 70
     0
  9
$DIMTAD
 70
     0
  9
$DIMZIN
 70
     0
  9
$DIMBLK
  1

  9
$DIMASO
 70
     1
  9
$DIMSHO
 70
     1
  9
$DIMPOST
  1

  9
$DIMAPOST
  1

  9
$DIMALT
 70
     0
  9
$DIMALTD
 70
     2
  9
$DIMALTF
 40
25.4
  9
$DIMLFAC
 40
1.0
  9
$DIMTOFL
 70
     0
  9
$DIMTVP
 40
0.0
  9
$DIMTIX
 70
     0
  9
$DIMSOXD
 70
     0
  9
$DIMSAH
 70
     0
  9
$DIMBLK1
  1

  9
$DIMBLK2
  1

  9
$DIMSTYLE
  2
STANDARD
  9
$DIMCLRD
 70
     0
  9
$DIMCLRE
 70
     0
  9
$DIMCLRT
 70
     0
  9
$DIMTFAC
 40
1.0
  9
$DIMGAP
 40
0.09
  9
$DIMJUST
 70
     0
  9
$DIMSD1
 70
     0
  9
$DIMSD2
 70
     0
  9
$DIMTOLJ
 70
     1
  9
$DIMTZIN
 70
     0
  9
$DIMALTZ
 70
     0
  9
$DIMALTTZ
 70
     0
  9
$DIMFIT
 70
     3
  9
$DIMUPT
 70
     0
  9
$DIMUNIT
 70
     2
  9
$DIMDEC
 70
     4
  9
$DIMTDEC
 70
     4
  9
$DIMALTU
 70
     2
  9
$DIMALTTD
 70
     2
  9
$DIMTXSTY
  7
STANDARD
  9
$DIMAUNIT
 70
     0
  9
$LUNITS
 70
     2
  9
$LUPREC
 70
     4
  9
$SKETCHINC
 40
0.1
  9
$FILLETRAD
 40
0.5
  9
$AUNITS
 70
     0
  9
$AUPREC
 70
     0
  9
$MENU
  1
.
  9
$ELEVATION
 40
0.0
  9
$PELEVATION
 40
0.0
  9
$THICKNESS
 40
0.0
  9
$LIMCHECK
 70
     0
  9
$CHAMFERA
 40
0.5
  9
$CHAMFERB
 40
0.5
  9
$CHAMFERC
 40
1.0
  9
$CHAMFERD
 40
0.0
  9
$SKPOLY
 70
     0
  9
$TDCREATE
 40
2456306.997802211
  9
$TDUPDATE
 40
2456306.997802222
  9
$TDINDWG
 40
0.0000000116
  9
$TDUSRTIMER
 40
0.0000000116
  9
$USRTIMER
 70
     1
  9
$ANGBASE
 50
0.0
  9
$ANGDIR
 70
     0
  9
$PDMODE
 70
     0
  9
$PDSIZE
 40
0.0
  9
$PLINEWID
 40
0.0
  9
$COORDS
 70
     1
  9
$SPLFRAME
 70
     0
  9
$SPLINETYPE
 70
     6
  9
$SPLINESEGS
 70
     8
  9
$ATTDIA
 70
     0
  9
$ATTREQ
 70
     1
  9
$HANDLING
 70
     1
  9
$HANDSEED
  5
F0
  9
$SURFTAB1
 70
     6
  9
$SURFTAB2
 70
     6
  9
$SURFTYPE
 70
     6
  9
$SURFU
 70
     6
  9
$SURFV
 70
     6
  9
$UCSNAME
  2

  9
$UCSORG
 10
0.0
 20
0.0
 30
0.0
  9
$UCSXDIR
 10
1.0
 20
0.0
 30
0.0
  9
$UCSYDIR
 10
0.0
 20
1.0
 30
0.0
  9
$PUCSNAME
  2

  9
$PUCSORG
 10
0.0
 20
0.0
 30
0.0
  9
$PUCSXDIR
 10
1.0
 20
0.0
 30
0.0
  9
$PUCSYDIR
 10
0.0
 20
1.0
 30
0.0
  9
$USERI1
 70
     0
  9
$USERI2
 70
     0
  9
$USERI3
 70
     0
  9
$USERI4
 70
     0
  9
$USERI5
 70
     0
  9
$USERR1
 40
0.0
  9
$USERR2
 40
0.0
  9
$USERR3
 40
0.0
  9
$USERR4
 40
0.0
  9
$USERR5
 40
0.0
  9
$WORLDVIEW
 70
     1
  9
$SHADEDGE
 70
     3
  9
$SHADEDIF
 70
    70
  9
$TILEMODE
 70
     1
  9
$MAXACTVP
 70
    64
  9
$PINSBASE
 10
0.0
 20
0.0
 30
0.0
  9
$PLIMCHECK
 70
     0
  9
$PEXTMIN
 10
1.000000000000000E+20
 20
1.000000000000000E+20
 30
1.000000000000000E+20
  9
$PEXTMAX
 10
-1.000000000000000E+20
 20
-1.000000000000000E+20
 30
-1.000000000000000E+20
  9
$PLIMMIN
 10
0.0
 20
0.0
  9
$PLIMMAX
 10
12.0
 20
9.0
  9
$UNITMODE
 70
     0
  9
$VISRETAIN
 70
     1
  9
$PLINEGEN
 70
     0
  9
$PSLTSCALE
 70
     1
  9
$TREEDEPTH
 70
  3020
  9
$PICKSTYLE
 70
     1
  9
$CMLSTYLE
  2
STANDARD
  9
$CMLJUST
 70
     0
  9
$CMLSCALE
 40
1.0
  9
$PROXYGRAPHICS
 70
     1
  9
$MEASUREMENT
 70
     0
  0
ENDSEC
  0
SECTION
  2
CLASSES
  0
CLASS
  1
ACDBDICTIONARYWDFLT
  2
AcDbDictionaryWithDefault
  3
ObjectDBX Classes
 90
        0
280
     0
281
     0
  0
CLASS
  1
VISUALSTYLE
  2
AcDbVisualStyle
  3
ObjectDBX Classes
 90
     4095
280
     0
281
     0
  0
CLASS
  1
MATERIAL
  2
AcDbMaterial
  3
ObjectDBX Classes
 90
     1153
280
     0
281
     0
  0
CLASS
  1
DICTIONARYVAR
  2
AcDbDictionaryVar
  3
ObjectDBX Classes
 90
        0
280
     0
281
     0
  0
CLASS
  1
XRECORD
  2
AcDbXrecord
  3
AutoCAD 2000
 90
        0
280
     0
281
     0
  0
CLASS
  1
LWPOLYLINE
  2
AcDbPolyline
  3
AutoCAD 2000
 90
        0
280
     0
281
     1
  0
CLASS
  1
HATCH
  2
AcDbHatch
  3
AutoCAD 2000
 90
        0
280
     0
281
     1
  0
CLASS
  1
ACDBPLACEHOLDER
  2
AcDbPlaceHolder
  3
ObjectDBX Classes
 90
        0
280
     0
281
     0
  0
CLASS
  1
LAYOUT
  2
AcDbLayout
  3
ObjectDBX Classes
 90
        0
280
     0
281
     0
  0
ENDSEC
  0
SECTION
  2
TABLES
  0
TABLE
  2
VPORT
  5
8
330
0
100
AcDbSymbolTable
 70
     1
  0
VPORT
  5
29
330
8
100
AcDbSymbolTableRecord
100
AcDbViewportTableRecord
  2
*ACTIVE
 70
     0
 10
0.0
 20
0.0
 11
1.0
 21
1.0
 12
0.0
 22
0.0
 13
0.0
 23
0.0
 14
0.5
 24
0.5
 15
0.5
 25
0.5
 16
0.0
 26
0.0
 36
1.0
 17
0.0
 27
0.0
 37
-1000.0
 40
129.4060559411325
 41
1.042382588774341
 42
50.0
 43
205.2117872086095
 44
290.3455391527313
 50
0.0
 51
0.0
 71
     0
 72
   100
 73
     1
 74
     3
 75
     0
 76
     0
 77
     0
 78
     0
  0
ENDTAB
  0
TABLE
  2
LTYPE
  5
5
330
0
100
AcDbSymbolTable
 70
     1
  0
LTYPE
  5
14
330
5
100
AcDbSymbolTableRecord
100
AcDbLinetypeTableRecord
  2
BYBLOCK
 70
     0
  3

 72
    65
 73
     0
 40
0.0
  0
LTYPE
  5
15
330
5
100
AcDbSymbolTableRecord
100
AcDbLinetypeTableRecord
  2
BYLAYER
 70
     0
  3

 72
    65
 73
     0
 40
0.0
  0
LTYPE
  5
16
330
5
100
AcDbSymbolTableRecord
100
AcDbLinetypeTableRecord
  2
CONTINUOUS
 70
     0
  3
Solid line
 72
    65
 73
     0
 40
0.0
  0
ENDTAB
  0
TABLE
  2
LAYER
  5
2
330
0
100
AcDbSymbolTable
 70
     3
  0
LAYER
  5
10
330
2
100
AcDbSymbolTableRecord
100
AcDbLayerTableRecord
  2
0
 70
     0
 62
     7
  6
CONTINUOUS
  0
LAYER
  5
3F
330
2
100
AcDbSymbolTableRecord
100
AcDbLayerTableRecord
  2
PROFILEEDGES
 70
     0
 62
     7
  6
CONTINUOUS
  0
LAYER
  5
40
330
2
100
AcDbSymbolTableRecord
100
AcDbLayerTableRecord
  2
SECTIONCUTEDGES
 70
     0
 62
     7
  6
CONTINUOUS
  0
ENDTAB
  0
TABLE
  2
STYLE
  5
3
330
0
100
AcDbSymbolTable
 70
     1
  0
STYLE
  5
11
330
3
100
AcDbSymbolTableRecord
100
AcDbTextStyleTableRecord
  2
STANDARD
 70
     0
 40
0.0
 41
1.0
 50
0.0
 71
     0
 42
0.2
  3
txt
  4

  0
ENDTAB
  0
TABLE
  2
VIEW
  5
6
330
0
100
AcDbSymbolTable
 70
     0
  0
ENDTAB
  0
TABLE
  2
UCS
  5
7
330
0
100
AcDbSymbolTable
 70
     0
  0
ENDTAB
  0
TABLE
  2
APPID
  5
9
330
0
100
AcDbSymbolTable
 70
     1
  0
APPID
  5
12
330
9
100
AcDbSymbolTableRecord
100
AcDbRegAppTableRecord
  2
ACAD
 70
     0
  0
ENDTAB
  0
TABLE
  2
DIMSTYLE
  5
A
330
0
100
AcDbSymbolTable
 70
     1
  0
DIMSTYLE
105
27
330
A
100
AcDbSymbolTableRecord
100
AcDbDimStyleTableRecord
  2
STANDARD
 70
     0
  3

  4

  5

  6

  7

 40
1.0
 41
0.18
 42
0.0625
 43
0.38
 44
0.18
 45
0.0
 46
0.0
 47
0.0
 48
0.0
140
0.18
141
0.09
142
0.0
143
25.4
144
1.0
145
0.0
146
1.0
147
0.09
 71
     0
 72
     0
 73
     1
 74
     1
 75
     0
 76
     0
 77
     0
 78
     0
170
     0
171
     2
172
     0
173
     0
174
     0
175
     0
176
     0
177
     0
178
     0
270
     2
271
     4
272
     4
273
     2
274
     2
340
11
275
     0
280
     0
281
     0
282
     0
283
     1
284
     0
285
     0
286
     0
287
     3
288
     0
  0
ENDTAB
  0
TABLE
  2
BLOCK_RECORD
  5
1
330
0
100
AcDbSymbolTable
 70
     1
  0
BLOCK_RECORD
  5
1F
330
1
100
AcDbSymbolTableRecord
100
AcDbBlockTableRecord
  2
*MODEL_SPACE
  0
BLOCK_RECORD
  5
1B
330
1
100
AcDbSymbolTableRecord
100
AcDbBlockTableRecord
  2
*PAPER_SPACE
  0
ENDTAB
  0
ENDSEC
  0
SECTION
  2
BLOCKS
  0
BLOCK
  5
20
330
1F
100
AcDbEntity
  8
0
100
AcDbBlockBegin
  2
*MODEL_SPACE
 70
     0
 10
0.0
 20
0.0
 30
0.0
  3
*MODEL_SPACE
  1

  0
ENDBLK
  5
21
330
1F
100
AcDbEntity
  8
0
100
AcDbBlockEnd
  0
BLOCK
  5
1C
330
1B
100
AcDbEntity
 67
     1
  8
0
100
AcDbBlockBegin
  2
*PAPER_SPACE
 70
     0
 10
0.0
 20
0.0
 30
0.0
  3
*PAPER_SPACE
  1

  0
ENDBLK
  5
1D
330
1B
100
AcDbEntity
 67
     1
  8
0
100
AcDbBlockEnd
  0
ENDSEC
  0
SECTION
  2
ENTITIES
  0
LINE
  5
41
330
1F
100
AcDbEntity
  8
0
100
AcDbLine
 10
-47.14148666576563
 20
-41.45887951744892
 30
0.0
 11
-46.84866174005428
 21
-40.75193761039574
 31
0.0
  0
LINE
  5
42
330
1F
100
AcDbEntity
  8
0
100
AcDbLine
 10
-46.84866174005428
 20
-40.75193761039574
 30
0.0
 11
-46.74878461105499
 21
-39.99329549703217
 31
0.0
  0
LINE
  5
43
330
1F
100
AcDbEntity
  8
0
100
AcDbLine
 10
-46.74878461105499
 20
-39.99329549703217
 30
0.0
 11
-46.84866174005428
 21
-39.23465338366859
 31
0.0
  0
LINE
  5
44
330
1F
100
AcDbEntity
  8
0
100
AcDbLine
 10
47.19535771168116
 20
-42.45348946858631
 30
0.0
 11
47.88050150619296
 21
-42.73728532044888
 31
0.0
  0
LINE
  5
45
330
1F
100
AcDbEntity
  8
0
100
AcDbLine
 10
47.88050150619296
 20
-42.73728532044888
 30
0.0
 11
48.61575136341673
 21
-42.83408280050316
 31
0.0
  0
LINE
  5
46
330
1F
100
AcDbEntity
  8
0
100
AcDbLine
 10
48.61575136341673
 20
-42.83408280050316
 30
0.0
 11
49.35100122064041
 21
-42.73728532044888
 31
0.0
  0
LINE
  5
47
330
1F
100
AcDbEntity
  8
0
100
AcDbLine
 10
49.35100122064041
 20
-42.73728532044888
 30
0.0
 11
50.03614501515221
 21
-42.45348946858631
 31
0.0
  0
LINE
  5
48
330
1F
100
AcDbEntity
  8
0
100
AcDbLine
 10
50.03614501515221
 20
-42.45348946858631
 30
0.0
 11
50.62449132960967
 21
-42.00203546322516
 31
0.0
  0
LINE
  5
49
330
1F
100
AcDbEntity
  8
0
100
AcDbLine
 10
50.62449132960967
 20
-42.00203546322516
 30
0.0
 11
51.07594533497087
 21
-41.41368914876764
 31
0.0
  0
LINE
  5
4A
330
1F
100
AcDbEntity
  8
0
100
AcDbLine
 10
51.07594533497087
 20
-41.41368914876764
 30
0.0
 11
51.35974118683345
 21
-40.72854535425589
 31
0.0
  0
LINE
  5
4B
330
1F
100
AcDbEntity
  8
0
100
AcDbLine
 10
51.35974118683345
 20
-40.72854535425589
 30
0.0
 11
51.45653866688767
 21
-39.99329549703217
 31
0.0
  0
LINE
  5
4C
330
1F
100
AcDbEntity
  8
0
100
AcDbLine
 10
51.45653866688767
 20
-39.99329549703217
 30
0.0
 11
51.35974118683345
 21
-39.25804563980844
 31
0.0
  0
LINE
  5
4D
330
1F
100
AcDbEntity
  8
0
100
AcDbLine
 10
51.35974118683345
 20
-39.25804563980844
 30
0.0
 11
51.07594533497087
 21
-38.5729018452967
 31
0.0
  0
LINE
  5
4E
330
1F
100
AcDbEntity
  8
0
100
AcDbLine
 10
51.07594533497087
 20
-38.5729018452967
 30
0.0
 11
50.62449132960967
 21
-37.98455553083918
 31
0.0
  0
LINE
  5
4F
330
1F
100
AcDbEntity
  8
0
100
AcDbLine
 10
50.62449132960967
 20
-37.98455553083918
 30
0.0
 11
50.03614501515221
 21
-37.53310152547802
 31
0.0
  0
LINE
  5
50
330
1F
100
AcDbEntity
  8
0
100
AcDbLine
 10
50.03614501515221
 20
-37.53310152547802
 30
0.0
 11
49.35100122064041
 21
-37.24930567361546
 31
0.0
  0
LINE
  5
51
330
1F
100
AcDbEntity
  8
0
100
AcDbLine
 10
49.35100122064041
 20
-37.24930567361546
 30
0.0
 11
48.61575136341673
 21
-37.15250819356118
 31
0.0
  0
LINE
  5
52
330
1F
100
AcDbEntity
  8
0
100
AcDbLine
 10
48.61575136341673
 20
-37.15250819356118
 30
0.0
 11
47.88050150619296
 21
-37.24930567361546
 31
0.0
  0
LINE
  5
53
330
1F
100
AcDbEntity
  8
0
100
AcDbLine
 10
47.88050150619296
 20
-37.24930567361546
 30
0.0
 11
47.19535771168127
 21
-37.53310152547802
 31
0.0
  0
LINE
  5
54
330
1F
100
AcDbEntity
  8
0
100
AcDbLine
 10
47.19535771168127
 20
-37.53310152547802
 30
0.0
 11
46.60701139722369
 21
-37.98455553083918
 31
0.0
  0
LINE
  5
55
330
1F
100
AcDbEntity
  8
0
100
AcDbLine
 10
46.60701139722369
 20
-37.98455553083918
 30
0.0
 11
46.15555739186259
 21
-38.5729018452967
 31
0.0
  0
LINE
  5
56
330
1F
100
AcDbEntity
  8
0
100
AcDbLine
 10
46.15555739186259
 20
-38.5729018452967
 30
0.0
 11
45.87176154000002
 21
-39.25804563980844
 31
0.0
  0
LINE
  5
57
330
1F
100
AcDbEntity
  8
0
100
AcDbLine
 10
45.87176154000002
 20
-39.25804563980844
 30
0.0
 11
45.7749640599457
 21
-39.99329549703217
 31
0.0
  0
LINE
  5
58
330
1F
100
AcDbEntity
  8
0
100
AcDbLine
 10
45.7749640599457
 20
-39.99329549703217
 30
0.0
 11
45.87176154000002
 21
-40.72854535425589
 31
0.0
  0
LINE
  5
59
330
1F
100
AcDbEntity
  8
0
100
AcDbLine
 10
45.87176154000002
 20
-40.72854535425589
 30
0.0
 11
46.15555739186249
 21
-41.41368914876764
 31
0.0
  0
LINE
  5
5A
330
1F
100
AcDbEntity
  8
0
100
AcDbLine
 10
46.15555739186249
 20
-41.41368914876764
 30
0.0
 11
46.60701139722369
 21
-42.00203546322516
 31
0.0
  0
LINE
  5
5B
330
1F
100
AcDbEntity
  8
0
100
AcDbLine
 10
46.60701139722369
 20
-42.00203546322516
 30
0.0
 11
47.19535771168116
 21
-42.45348946858631
 31
0.0
  0
LINE
  5
5C
330
1F
100
AcDbEntity
  8
0
100
AcDbLine
 10
51.35554635949119
 20
27.81700123767599
 30
0.0
 11
51.45653866688767
 21
28.58411397193629
 31
0.0
  0
LINE
  5
5D
330
1F
100
AcDbEntity
  8
0
100
AcDbLine
 10
51.45653866688767
 20
28.58411397193629
 30
0.0
 11
51.35554635949119
 21
29.35122670619666
 31
0.0
  0
LINE
  5
5E
330
1F
100
AcDbEntity
  8
0
100
AcDbLine
 10
51.35554635949119
 20
29.35122670619666
 30
0.0
 11
51.05945189615322
 21
30.06606197533087
 31
0.0
  0
LINE
  5
5F
330
1F
100
AcDbEntity
  8
0
100
AcDbLine
 10
51.05945189615322
 20
30.06606197533087
 30
0.0
 11
50.58843362523088
 21
30.67990493706864
 31
0.0
  0
LINE
  5
60
330
1F
100
AcDbEntity
  8
0
100
AcDbLine
 10
50.58843362523088
 20
30.67990493706864
 30
0.0
 11
49.97459066349315
 21
31.15092320799092
 31
0.0
  0
LINE
  5
61
330
1F
100
AcDbEntity
  8
0
100
AcDbLine
 10
49.97459066349315
 20
31.15092320799092
 30
0.0
 11
49.25975539435895
 21
31.44701767132895
 31
0.0
  0
LINE
  5
62
330
1F
100
AcDbEntity
  8
0
100
AcDbLine
 10
49.25975539435895
 20
31.44701767132895
 30
0.0
 11
48.49264266009864
 21
31.54800997872543
 31
0.0
  0
LINE
  5
63
330
1F
100
AcDbEntity
  8
0
100
AcDbLine
 10
48.49264266009864
 20
31.54800997872543
 30
0.0
 11
47.72552992583833
 21
31.44701767132895
 31
0.0
  0
LINE
  5
64
330
1F
100
AcDbEntity
  8
0
100
AcDbLine
 10
47.72552992583833
 20
31.44701767132895
 30
0.0
 11
47.01069465670412
 21
31.15092320799092
 31
0.0
  0
LINE
  5
65
330
1F
100
AcDbEntity
  8
0
100
AcDbLine
 10
47.01069465670412
 20
31.15092320799092
 30
0.0
 11
46.39685169496629
 21
30.67990493706864
 31
0.0
  0
LINE
  5
66
330
1F
100
AcDbEntity
  8
0
100
AcDbLine
 10
46.39685169496629
 20
30.67990493706864
 30
0.0
 11
45.92583342404406
 21
30.06606197533087
 31
0.0
  0
LINE
  5
67
330
1F
100
AcDbEntity
  8
0
100
AcDbLine
 10
45.92583342404406
 20
30.06606197533087
 30
0.0
 11
45.62973896070599
 21
29.35122670619666
 31
0.0
  0
LINE
  5
68
330
1F
100
AcDbEntity
  8
0
100
AcDbLine
 10
45.62973896070599
 20
29.35122670619666
 30
0.0
 11
45.5287466533095
 21
28.58411397193629
 31
0.0
  0
LINE
  5
69
330
1F
100
AcDbEntity
  8
0
100
AcDbLine
 10
45.5287466533095
 20
28.58411397193629
 30
0.0
 11
45.62973896070599
 21
27.81700123767599
 31
0.0
  0
LINE
  5
6A
330
1F
100
AcDbEntity
  8
0
100
AcDbLine
 10
45.62973896070599
 20
27.81700123767599
 30
0.0
 11
45.92583342404406
 21
27.10216596854178
 31
0.0
  0
LINE
  5
6B
330
1F
100
AcDbEntity
  8
0
100
AcDbLine
 10
45.92583342404406
 20
27.10216596854178
 30
0.0
 11
46.39685169496629
 21
26.48832300680405
 31
0.0
  0
LINE
  5
6C
330
1F
100
AcDbEntity
  8
0
100
AcDbLine
 10
46.39685169496629
 20
26.48832300680405
 30
0.0
 11
47.01069465670402
 21
26.01730473588172
 31
0.0
  0
LINE
  5
6D
330
1F
100
AcDbEntity
  8
0
100
AcDbLine
 10
47.01069465670402
 20
26.01730473588172
 30
0.0
 11
47.72552992583833
 21
25.72121027254374
 31
0.0
  0
LINE
  5
6E
330
1F
100
AcDbEntity
  8
0
100
AcDbLine
 10
47.72552992583833
 20
25.72121027254374
 30
0.0
 11
48.49264266009864
 21
25.62021796514727
 31
0.0
  0
LINE
  5
6F
330
1F
100
AcDbEntity
  8
0
100
AcDbLine
 10
48.49264266009864
 20
25.62021796514727
 30
0.0
 11
49.25975539435895
 21
25.72121027254369
 31
0.0
  0
LINE
  5
70
330
1F
100
AcDbEntity
  8
0
100
AcDbLine
 10
49.25975539435895
 20
25.72121027254369
 30
0.0
 11
49.97459066349315
 21
26.01730473588172
 31
0.0
  0
LINE
  5
71
330
1F
100
AcDbEntity
  8
0
100
AcDbLine
 10
49.97459066349315
 20
26.01730473588172
 30
0.0
 11
50.58843362523088
 21
26.48832300680405
 31
0.0
  0
LINE
  5
72
330
1F
100
AcDbEntity
  8
0
100
AcDbLine
 10
50.58843362523088
 20
26.48832300680405
 30
0.0
 11
51.05945189615322
 21
27.10216596854178
 31
0.0
  0
LINE
  5
73
330
1F
100
AcDbEntity
  8
0
100
AcDbLine
 10
51.05945189615322
 20
27.10216596854178
 30
0.0
 11
51.35554635949119
 21
27.81700123767599
 31
0.0
  0
LINE
  5
74
330
1F
100
AcDbEntity
  8
0
100
AcDbLine
 10
-46.74882749919627
 20
28.58411397193629
 30
0.0
 11
-46.84870316681759
 21
29.34274498503209
 31
0.0
  0
LINE
  5
75
330
1F
100
AcDbEntity
  8
0
100
AcDbLine
 10
-46.84870316681759
 20
29.34274498503209
 30
0.0
 11
-47.14152380798547
 21
30.04967654828244
 31
0.0
  0
LINE
  5
76
330
1F
100
AcDbEntity
  8
0
100
AcDbLine
 10
-47.14152380798547
 20
30.04967654828244
 30
0.0
 11
-47.60733417991336
 21
30.65673244391147
 31
0.0
  0
LINE
  5
77
330
1F
100
AcDbEntity
  8
0
100
AcDbLine
 10
-47.60733417991336
 20
30.65673244391147
 30
0.0
 11
-48.21439007554238
 21
31.12254281583938
 31
0.0
  0
LINE
  5
78
330
1F
100
AcDbEntity
  8
0
100
AcDbLine
 10
-48.21439007554238
 20
31.12254281583938
 30
0.0
 11
-48.9213216387927
 21
31.41536345700726
 31
0.0
  0
LINE
  5
79
330
1F
100
AcDbEntity
  8
0
100
AcDbLine
 10
-48.9213216387927
 20
31.41536345700726
 30
0.0
 11
-49.6799526518885
 21
31.51523912462859
 31
0.0
  0
LINE
  5
7A
330
1F
100
AcDbEntity
  8
0
100
AcDbLine
 10
-49.6799526518885
 20
31.51523912462859
 30
0.0
 11
-50.4385836649843
 21
31.41536345700726
 31
0.0
  0
LINE
  5
7B
330
1F
100
AcDbEntity
  8
0
100
AcDbLine
 10
-50.4385836649843
 20
31.41536345700726
 30
0.0
 11
-51.14551522823462
 21
31.12254281583938
 31
0.0
  0
LINE
  5
7C
330
1F
100
AcDbEntity
  8
0
100
AcDbLine
 10
-51.14551522823462
 20
31.12254281583938
 30
0.0
 11
-51.75257112386365
 21
30.65673244391147
 31
0.0
  0
LINE
  5
7D
330
1F
100
AcDbEntity
  8
0
100
AcDbLine
 10
-51.75257112386365
 20
30.65673244391147
 30
0.0
 11
-52.21838149579153
 21
30.04967654828244
 31
0.0
  0
LINE
  5
7E
330
1F
100
AcDbEntity
  8
0
100
AcDbLine
 10
-52.21838149579153
 20
30.04967654828244
 30
0.0
 11
-52.5112021369594
 21
29.34274498503209
 31
0.0
  0
LINE
  5
7F
330
1F
100
AcDbEntity
  8
0
100
AcDbLine
 10
-52.5112021369594
 20
29.34274498503209
 30
0.0
 11
-52.61107780458074
 21
28.58411397193629
 31
0.0
  0
LINE
  5
80
330
1F
100
AcDbEntity
  8
0
100
AcDbLine
 10
-52.61107780458074
 20
28.58411397193629
 30
0.0
 11
-52.5112021369594
 21
27.8254829588405
 31
0.0
  0
LINE
  5
81
330
1F
100
AcDbEntity
  8
0
100
AcDbLine
 10
-52.5112021369594
 20
27.8254829588405
 30
0.0
 11
-52.21838149579153
 21
27.1185513955902
 31
0.0
  0
LINE
  5
82
330
1F
100
AcDbEntity
  8
0
100
AcDbLine
 10
-52.21838149579153
 20
27.1185513955902
 30
0.0
 11
-51.75257112386365
 21
26.51149549996118
 31
0.0
  0
LINE
  5
83
330
1F
100
AcDbEntity
  8
0
100
AcDbLine
 10
-51.75257112386365
 20
26.51149549996118
 30
0.0
 11
-51.14551522823462
 21
26.04568512803332
 31
0.0
  0
LINE
  5
84
330
1F
100
AcDbEntity
  8
0
100
AcDbLine
 10
-51.14551522823462
 20
26.04568512803332
 30
0.0
 11
-50.4385836649843
 21
25.75286448686543
 31
0.0
  0
LINE
  5
85
330
1F
100
AcDbEntity
  8
0
100
AcDbLine
 10
-50.4385836649843
 20
25.75286448686543
 30
0.0
 11
-49.6799526518885
 21
25.65298881924411
 31
0.0
  0
LINE
  5
86
330
1F
100
AcDbEntity
  8
0
100
AcDbLine
 10
-49.6799526518885
 20
25.65298881924411
 30
0.0
 11
-48.92132163879273
 21
25.75286448686543
 31
0.0
  0
LINE
  5
87
330
1F
100
AcDbEntity
  8
0
100
AcDbLine
 10
-48.92132163879273
 20
25.75286448686543
 30
0.0
 11
-48.21439007554238
 21
26.04568512803332
 31
0.0
  0
LINE
  5
88
330
1F
100
AcDbEntity
  8
0
100
AcDbLine
 10
-48.21439007554238
 20
26.04568512803332
 30
0.0
 11
-47.60733417991336
 21
26.51149549996118
 31
0.0
  0
LINE
  5
89
330
1F
100
AcDbEntity
  8
0
100
AcDbLine
 10
-47.60733417991336
 20
26.51149549996118
 30
0.0
 11
-47.14152380798547
 21
27.1185513955902
 31
0.0
  0
LINE
  5
8A
330
1F
100
AcDbEntity
  8
0
100
AcDbLine
 10
-47.14152380798547
 20
27.1185513955902
 30
0.0
 11
-46.84870316681759
 21
27.8254829588405
 31
0.0
  0
LINE
  5
8B
330
1F
100
AcDbEntity
  8
0
100
AcDbLine
 10
-46.84870316681759
 20
27.8254829588405
 30
0.0
 11
-46.74882749919627
 21
28.58411397193629
 31
0.0
  0
LINE
  5
8C
330
1F
100
AcDbEntity
  8
0
100
AcDbLine
 10
-48.92131053852495
 20
-42.82458640886638
 30
0.0
 11
-48.21436863147174
 21
-42.53176148315504
 31
0.0
  0
LINE
  5
8D
330
1F
100
AcDbEntity
  8
0
100
AcDbLine
 10
-47.60730385341783
 20
-42.06594429550286
 30
0.0
 11
-47.14148666576563
 21
-41.45887951744892
 31
0.0
  0
LINE
  5
8E
330
1F
100
AcDbEntity
  8
0
100
AcDbLine
 10
-48.21436863147174
 20
-42.53176148315504
 30
0.0
 11
-47.60730385341783
 21
-42.06594429550286
 31
0.0
  0
LINE
  5
8F
330
1F
100
AcDbEntity
  8
0
100
AcDbLine
 10
61.19579801943796
 20
-45.7579009192522
 30
0.0
 11
60.89933511922918
 21
-45.7579009192522
 31
0.0
  0
LINE
  5
90
330
1F
100
AcDbEntity
  8
0
100
AcDbLine
 10
-63.33427796943356
 20
-45.7579009192522
 30
0.0
 11
-63.03781506922478
 21
-45.7579009192522
 31
0.0
  0
LINE
  5
91
330
1F
100
AcDbEntity
  8
0
100
AcDbLine
 10
-63.03781506922478
 20
34.21219457471123
 30
0.0
 11
-63.03781506922478
 21
33.91573167450245
 31
0.0
  0
LINE
  5
92
330
1F
100
AcDbEntity
  8
0
100
AcDbLine
 10
-63.03781506922478
 20
-46.05436381946097
 30
0.0
 11
-63.03781506922478
 21
-45.7579009192522
 31
0.0
  0
LINE
  5
93
330
1F
100
AcDbEntity
  8
0
100
AcDbLine
 10
-63.03781506922478
 20
33.91573167450245
 30
0.0
 11
-63.03781506922478
 21
-45.7579009192522
 31
0.0
  0
LINE
  5
94
330
1F
100
AcDbEntity
  8
0
100
AcDbLine
 10
-63.33427796943356
 20
33.91573167450245
 30
0.0
 11
-63.03781506922478
 21
33.91573167450245
 31
0.0
  0
LINE
  5
95
330
1F
100
AcDbEntity
  8
0
100
AcDbLine
 10
60.57249036495746
 20
33.91573167450245
 30
0.0
 11
60.27602746474869
 21
33.91573167450245
 31
0.0
  0
LINE
  5
96
330
1F
100
AcDbEntity
  8
0
100
AcDbLine
 10
-63.03781506922478
 20
33.91573167450245
 30
0.0
 11
60.27602746474869
 21
33.91573167450245
 31
0.0
  0
LINE
  5
97
330
1F
100
AcDbEntity
  8
0
100
AcDbLine
 10
60.27602746474869
 20
34.21219457471123
 30
0.0
 11
60.27602746474869
 21
33.91573167450245
 31
0.0
  0
LINE
  5
98
330
1F
100
AcDbEntity
  8
0
100
AcDbLine
 10
60.27602746474869
 20
15.91399683405918
 30
0.0
 11
60.27602746474869
 21
16.21045973426795
 31
0.0
  0
LINE
  5
99
330
1F
100
AcDbEntity
  8
0
100
AcDbLine
 10
60.27602746474869
 20
33.91573167450245
 30
0.0
 11
60.27602746474869
 21
16.21045973426795
 31
0.0
  0
LINE
  5
9A
330
1F
100
AcDbEntity
  8
0
100
AcDbLine
 10
60.50360287214897
 20
16.40045890570509
 30
0.0
 11
60.27602746474869
 21
16.21045973426795
 31
0.0
  0
LINE
  5
9B
330
1F
100
AcDbEntity
  8
0
100
AcDbLine
 10
52.99932855077735
 20
10.13525688064829
 30
0.0
 11
53.22690395817764
 21
10.32525605208543
 31
0.0
  0
LINE
  5
9C
330
1F
100
AcDbEntity
  8
0
100
AcDbLine
 10
60.27602746474869
 20
16.21045973426795
 30
0.0
 11
53.22690395817764
 21
10.32525605208543
 31
0.0
  0
LINE
  5
9D
330
1F
100
AcDbEntity
  8
0
100
AcDbLine
 10
53.22690395817764
 20
10.6217189522942
 30
0.0
 11
53.22690395817764
 21
10.32525605208543
 31
0.0
  0
LINE
  5
9E
330
1F
100
AcDbEntity
  8
0
100
AcDbLine
 10
53.22690395817764
 20
-25.0622984076475
 30
0.0
 11
53.22690395817764
 21
-24.76583550743873
 31
0.0
  0
LINE
  5
9F
330
1F
100
AcDbEntity
  8
0
100
AcDbLine
 10
53.22690395817764
 20
10.32525605208543
 30
0.0
 11
53.22690395817764
 21
-24.76583550743873
 31
0.0
  0
LINE
  5
A0
330
1F
100
AcDbEntity
  8
0
100
AcDbLine
 10
61.12936593049722
 20
-31.19067011354651
 30
0.0
 11
60.89933511922918
 21
-31.00365119186328
 31
0.0
  0
LINE
  5
A1
330
1F
100
AcDbEntity
  8
0
100
AcDbLine
 10
52.99687314690961
 20
-24.5788165857555
 30
0.0
 11
53.22690395817764
 21
-24.76583550743873
 31
0.0
  0
LINE
  5
A2
330
1F
100
AcDbEntity
  8
0
100
AcDbLine
 10
60.89933511922918
 20
-31.00365119186328
 30
0.0
 11
53.22690395817764
 21
-24.76583550743873
 31
0.0
  0
LINE
  5
A3
330
1F
100
AcDbEntity
  8
0
100
AcDbLine
 10
60.89933511922918
 20
-46.05436381946097
 30
0.0
 11
60.89933511922918
 21
-45.7579009192522
 31
0.0
  0
LINE
  5
A4
330
1F
100
AcDbEntity
  8
0
100
AcDbLine
 10
60.89933511922918
 20
-30.70718829165451
 30
0.0
 11
60.89933511922918
 21
-31.00365119186328
 31
0.0
  0
LINE
  5
A5
330
1F
100
AcDbEntity
  8
0
100
AcDbLine
 10
60.89933511922918
 20
-45.7579009192522
 30
0.0
 11
60.89933511922918
 21
-31.00365119186328
 31
0.0
  0
LINE
  5
A6
330
1F
100
AcDbEntity
  8
0
100
AcDbLine
 10
44.14416774862839
 20
26.36086267998603
 30
0.0
 11
44.14416774862839
 21
26.06439977977726
 31
0.0
  0
LINE
  5
A7
330
1F
100
AcDbEntity
  8
0
100
AcDbLine
 10
44.14416774862839
 20
-37.41893662828409
 30
0.0
 11
44.14416774862839
 21
-37.12247372807531
 31
0.0
  0
LINE
  5
A8
330
1F
100
AcDbEntity
  8
0
100
AcDbLine
 10
44.14416774862839
 20
26.06439977977726
 30
0.0
 11
44.14416774862839
 21
-37.12247372807531
 31
0.0
  0
LINE
  5
A9
330
1F
100
AcDbEntity
  8
0
100
AcDbLine
 10
-45.15563889093677
 20
26.06439977977726
 30
0.0
 11
-44.859175990728
 21
26.06439977977726
 31
0.0
  0
LINE
  5
AA
330
1F
100
AcDbEntity
  8
0
100
AcDbLine
 10
44.44063064883716
 20
26.06439977977726
 30
0.0
 11
44.14416774862839
 21
26.06439977977726
 31
0.0
  0
LINE
  5
AB
330
1F
100
AcDbEntity
  8
0
100
AcDbLine
 10
-44.859175990728
 20
26.06439977977726
 30
0.0
 11
44.14416774862839
 21
26.06439977977726
 31
0.0
  0
LINE
  5
AC
330
1F
100
AcDbEntity
  8
0
100
AcDbLine
 10
-44.859175990728
 20
-37.41893662828409
 30
0.0
 11
-44.859175990728
 21
-37.12247372807531
 31
0.0
  0
LINE
  5
AD
330
1F
100
AcDbEntity
  8
0
100
AcDbLine
 10
-44.859175990728
 20
26.36086267998603
 30
0.0
 11
-44.859175990728
 21
26.06439977977726
 31
0.0
  0
LINE
  5
AE
330
1F
100
AcDbEntity
  8
0
100
AcDbLine
 10
-44.859175990728
 20
-37.12247372807531
 30
0.0
 11
-44.859175990728
 21
26.06439977977726
 31
0.0
  0
LINE
  5
AF
330
1F
100
AcDbEntity
  8
0
100
AcDbLine
 10
44.44063064883716
 20
-37.12247372807531
 30
0.0
 11
44.14416774862839
 21
-37.12247372807531
 31
0.0
  0
LINE
  5
B0
330
1F
100
AcDbEntity
  8
0
100
AcDbLine
 10
-45.15563889093677
 20
-37.12247372807531
 30
0.0
 11
-44.859175990728
 21
-37.12247372807531
 31
0.0
  0
LINE
  5
B1
330
1F
100
AcDbEntity
  8
0
100
AcDbLine
 10
44.14416774862839
 20
-37.12247372807531
 30
0.0
 11
-44.859175990728
 21
-37.12247372807531
 31
0.0
  0
LINE
  5
B2
330
1F
100
AcDbEntity
  8
0
100
AcDbLine
 10
-46.84866174005428
 20
-39.23465338366859
 30
0.0
 11
-47.14148666576563
 21
-38.52771147661541
 31
0.0
  0
LINE
  5
B3
330
1F
100
AcDbEntity
  8
0
100
AcDbLine
 10
-47.14148666576563
 20
-38.52771147661541
 30
0.0
 11
-47.60730385341783
 21
-37.92064669856148
 31
0.0
  0
LINE
  5
B4
330
1F
100
AcDbEntity
  8
0
100
AcDbLine
 10
-47.60730385341783
 20
-37.92064669856148
 30
0.0
 11
-48.21436863147174
 21
-37.4548295109093
 31
0.0
  0
LINE
  5
B5
330
1F
100
AcDbEntity
  8
0
100
AcDbLine
 10
-48.21436863147174
 20
-37.4548295109093
 30
0.0
 11
-48.92131053852495
 21
-37.16200458519796
 31
0.0
  0
LINE
  5
B6
330
1F
100
AcDbEntity
  8
0
100
AcDbLine
 10
-48.92131053852495
 20
-37.16200458519796
 30
0.0
 11
-49.6799526518885
 21
-37.06212745619865
 31
0.0
  0
LINE
  5
B7
330
1F
100
AcDbEntity
  8
0
100
AcDbLine
 10
-49.6799526518885
 20
-37.06212745619865
 30
0.0
 11
-50.43859476525205
 21
-37.16200458519796
 31
0.0
  0
LINE
  5
B8
330
1F
100
AcDbEntity
  8
0
100
AcDbLine
 10
-50.43859476525205
 20
-37.16200458519796
 30
0.0
 11
-51.14553667230525
 21
-37.4548295109093
 31
0.0
  0
LINE
  5
B9
330
1F
100
AcDbEntity
  8
0
100
AcDbLine
 10
-51.14553667230525
 20
-37.4548295109093
 30
0.0
 11
-51.75260145035917
 21
-37.92064669856148
 31
0.0
  0
LINE
  5
BA
330
1F
100
AcDbEntity
  8
0
100
AcDbLine
 10
-51.75260145035917
 20
-37.92064669856148
 30
0.0
 11
-52.21841863801137
 21
-38.52771147661541
 31
0.0
  0
LINE
  5
BB
330
1F
100
AcDbEntity
  8
0
100
AcDbLine
 10
-52.21841863801137
 20
-38.52771147661541
 30
0.0
 11
-52.51124356372272
 21
-39.23465338366859
 31
0.0
  0
LINE
  5
BC
330
1F
100
AcDbEntity
  8
0
100
AcDbLine
 10
-52.51124356372272
 20
-39.23465338366859
 30
0.0
 11
-52.611120692722
 21
-39.99329549703217
 31
0.0
  0
LINE
  5
BD
330
1F
100
AcDbEntity
  8
0
100
AcDbLine
 10
-52.611120692722
 20
-39.99329549703217
 30
0.0
 11
-52.51124356372272
 21
-40.75193761039574
 31
0.0
  0
LINE
  5
BE
330
1F
100
AcDbEntity
  8
0
100
AcDbLine
 10
-52.51124356372272
 20
-40.75193761039574
 30
0.0
 11
-52.21841863801137
 21
-41.45887951744892
 31
0.0
  0
LINE
  5
BF
330
1F
100
AcDbEntity
  8
0
100
AcDbLine
 10
-52.21841863801137
 20
-41.45887951744892
 30
0.0
 11
-51.75260145035917
 21
-42.06594429550286
 31
0.0
  0
LINE
  5
C0
330
1F
100
AcDbEntity
  8
0
100
AcDbLine
 10
-51.75260145035917
 20
-42.06594429550286
 30
0.0
 11
-51.14553667230525
 21
-42.53176148315504
 31
0.0
  0
LINE
  5
C1
330
1F
100
AcDbEntity
  8
0
100
AcDbLine
 10
-51.14553667230525
 20
-42.53176148315504
 30
0.0
 11
-50.43859476525205
 21
-42.82458640886638
 31
0.0
  0
LINE
  5
C2
330
1F
100
AcDbEntity
  8
0
100
AcDbLine
 10
-50.43859476525205
 20
-42.82458640886638
 30
0.0
 11
-49.6799526518885
 21
-42.92446353786568
 31
0.0
  0
LINE
  5
C3
330
1F
100
AcDbEntity
  8
0
100
AcDbLine
 10
-49.6799526518885
 20
-42.92446353786568
 30
0.0
 11
-48.92131053852495
 21
-42.82458640886638
 31
0.0
  0
LINE
  5
C4
330
1F
100
AcDbEntity
  8
0
100
AcDbLine
 10
60.89933511922918
 20
-45.7579009192522
 30
0.0
 11
-63.03781506922478
 21
-45.7579009192522
 31
0.0
  0
ENDSEC
  0
SECTION
  2
OBJECTS
  0
DICTIONARY
  5
C
330
0
100
AcDbDictionary
  3
ACAD_GROUP
350
D
  3
ACAD_LAYOUT
350
1A
  3
ACAD_MATERIAL
350
3B
  3
ACAD_MLEADERSTYLE
350
E7
  3
ACAD_MLINESTYLE
350
17
  3
ACAD_PLOTSETTINGS
350
19
  3
ACAD_VISUALSTYLE
350
2A
  3
ACDBHEADERROUNDTRIPXREC
350
C5
  3
ACDBVARIABLEDICTIONARY
350
E5
  0
DICTIONARY
  5
D
102
{ACAD_REACTORS
330
C
102
}
330
C
100
AcDbDictionary
  0
DICTIONARY
  5
1A
102
{ACAD_REACTORS
330
C
102
}
330
C
100
AcDbDictionary
  0
DICTIONARY
  5
3B
102
{ACAD_REACTORS
330
C
102
}
330
C
100
AcDbDictionary
  3
BYBLOCK
350
3D
  3
BYLAYER
350
3C
  3
GLOBAL
350
3E
  0
DICTIONARY
  5
E7
102
{ACAD_REACTORS
330
C
102
}
330
C
100
AcDbDictionary
  0
DICTIONARY
  5
17
102
{ACAD_REACTORS
330
C
102
}
330
C
100
AcDbDictionary
  3
STANDARD
350
18
  0
DICTIONARY
  5
19
102
{ACAD_REACTORS
330
C
102
}
330
C
100
AcDbDictionary
  0
DICTIONARY
  5
2A
102
{ACAD_REACTORS
330
C
102
}
330
C
100
AcDbDictionary
  3
2DWIREFRAME
350
2F
  3
3D_HIDDEN
350
31
  3
3DWIREFRAME
350
30
  3
BASIC
350
32
  3
BRIGHTEN
350
36
  3
COLORCHANGE
350
3A
  3
CONCEPTUAL
350
34
  3
DIM
350
35
  3
FACEPATTERN
350
39
  3
FLAT
350
2B
  3
FLATWITHEDGES
350
2C
  3
GOURAUD
350
2D
  3
GOURAUDWITHEDGES
350
2E
  3
LINEPATTERN
350
38
  3
REALISTIC
350
33
  3
THICKEN
350
37
  0
DICTIONARY
  5
C5
102
{ACAD_REACTORS
330
C
102
}
330
C
100
AcDbDictionary
  3
CEPSNTYPE
350
CE
  3
DIMSTYLEDATA
350
E4
  3
FINGERPRINTGUID
350
CF
  3
HYPERLINKBASE
350
C8
  3
INSUNITS
350
CD
  3
LAYOUTDICT
350
CA
  3
LWETCUNION
350
CC
  3
PLOTSETDICT
350
CB
  3
PSVPSCALE
350
D1
  3
PUCSBASE
350
D4
  3
PUCSORGBACK
350
DA
  3
PUCSORGBOTTOM
350
D6
  3
PUCSORGFRONT
350
D9
  3
PUCSORGLEFT
350
D7
  3
PUCSORGRIGHT
350
D8
  3
PUCSORGTOP
350
D5
  3
PUCSORTHOREF
350
D2
  3
PUCSORTHOVIEW
350
D3
  3
STYLESHEET
350
C9
  3
TSTACKALIGN
350
C6
  3
TSTACKSIZE
350
C7
  3
UCSBASE
350
DD
  3
UCSORGBACK
350
E3
  3
UCSORGBOTTOM
350
DF
  3
UCSORGFRONT
350
E2
  3
UCSORGLEFT
350
E0
  3
UCSORGRIGHT
350
E1
  3
UCSORGTOP
350
DE
  3
UCSORTHOREF
350
DB
  3
UCSORTHOVIEW
350
DC
  3
VERSIONGUID
350
D0
  0
DICTIONARY
  5
E5
102
{ACAD_REACTORS
330
C
102
}
330
C
100
AcDbDictionary
  3
DIMASSOC
350
E8
  3
HIDETEXT
350
E9
  0
MATERIAL
  5
3D
102
{ACAD_REACTORS
330
3B
102
}
102
{ACAD_XDICTIONARY
360
EC
102
}
330
3B
100
AcDbMaterial
  1
ByBlock
  0
MATERIAL
  5
3C
102
{ACAD_REACTORS
330
3B
102
}
102
{ACAD_XDICTIONARY
360
EA
102
}
330
3B
100
AcDbMaterial
  1
ByLayer
  0
MATERIAL
  5
3E
102
{ACAD_REACTORS
330
3B
102
}
102
{ACAD_XDICTIONARY
360
EE
102
}
330
3B
100
AcDbMaterial
  1
Global
  0
MLINESTYLE
  5
18
102
{ACAD_REACTORS
330
17
102
}
330
17
100
AcDbMlineStyle
  2
Standard
 70
     0
  3

 62
   256
 51
90.0
 52
90.0
 71
     2
 49
0.5
 62
   256
  6
BYLAYER
 49
-0.5
 62
   256
  6
BYLAYER
  0
ACAD_PROXY_OBJECT
  5
2F
102
{ACAD_REACTORS
330
2A
102
}
330
2A
100
AcDbProxyObject
 90
      499
 91
      501
 93
      436
310
42CC9915DA5C99599C985B595049028333333333333E3BF0000000000000FB0107901411070040501600405405064090741402480A0340
1001
ACAD
1000
AcDbSavedByObjectVersion
1070
     0
  0
ACAD_PROXY_OBJECT
  5
31
102
{ACAD_REACTORS
330
2A
102
}
330
2A
100
AcDbProxyObject
 90
      499
 91
      501
 93
      500
310
424CD108121A5919195B90640502408333333333333E3BF0000000000000FB01079024090700405020000000000001110200405405064090740C02480A0340
1001
ACAD
1000
AcDbSavedByObjectVersion
1070
     0
  0
ACAD_PROXY_OBJECT
  5
30
102
{ACAD_REACTORS
330
2A
102
}
330
2A
100
AcDbProxyObject
 90
      499
 91
      501
 93
      436
310
42CCD915DA5C99599C985B595059028333333333333E3BF0000000000000FB0107901411070040501600405405064090741402480A0340
1001
ACAD
1000
AcDbSavedByObjectVersion
1070
     0
  0
ACAD_PROXY_OBJECT
  5
32
102
{ACAD_REACTORS
330
2A
102
}
330
2A
100
AcDbProxyObject
 90
      499
 91
      501
 93
      388
310
4150985CDA58D07406404333333333333E3BF0000000000000FB0107A41107004050150841D405064090741402480A0350
1001
ACAD
1000
AcDbSavedByObjectVersion
1070
     0
  0
ACAD_PROXY_OBJECT
  5
36
102
{ACAD_REACTORS
330
2A
102
}
330
2A
100
AcDbProxyObject
 90
      499
 91
      501
 93
      428
310
42109C9A59DA1D195B90C409028333333333333E3BF0000000000000FB010790141107004050150841D405064090741402480A029950
1001
ACAD
1000
AcDbSavedByObjectVersion
1070
     0
  0
ACAD_PROXY_OBJECT
  5
3A
102
{ACAD_REACTORS
330
2A
102
}
330
2A
100
AcDbProxyObject
 90
      499
 91
      501
 93
      452
310
42D0DBDB1BDC90DA185B99D95104090240C333333333333E3BF0000000000000FB0108901411070040501508421405064090741402480A0350
1001
ACAD
1000
AcDbSavedByObjectVersion
1070
     0
  0
ACAD_PROXY_OBJECT
  5
34
102
{ACAD_REACTORS
330
2A
102
}
330
2A
100
AcDbProxyObject
 90
      499
 91
      501
 93
      500
310
4290DBDB98D95C1D1D585B10940D028333333333333E3BF0000000000000FB0107902409070040501000000000000111010841D405064090740C02480A0340
1001
ACAD
1000
AcDbSavedByObjectVersion
1070
     0
  0
ACAD_PROXY_OBJECT
  5
35
102
{ACAD_REACTORS
330
2A
102
}
330
2A
100
AcDbProxyObject
 90
      499
 91
      501
 93
      412
310
40D11A5B50B409028333333333333E3BF0000000000000FB010790141107004050150841D405064090741402480A02677FFFFFD0
1001
ACAD
1000
AcDbSavedByObjectVersion
1070
     0
  0
ACAD_PROXY_OBJECT
  5
39
102
{ACAD_REACTORS
330
2A
102
}
330
2A
100
AcDbProxyObject
 90
      499
 91
      501
 93
      444
310
42D19858D95C185D1D195C9B90F409028333333333333E3BF0000000000000FB010790141107004050150841D405064090741402480A0350
1001
ACAD
1000
AcDbSavedByObjectVersion
1070
     0
  0
ACAD_PROXY_OBJECT
  5
2B
102
{ACAD_REACTORS
330
2A
102
}
330
2A
100
AcDbProxyObject
 90
      499
 91
      501
 93
      388
310
41119B185D240901404333333333333E3BF0000000000000F9010740A41107004050150841D405064090741402480A1B50
1001
ACAD
1000
AcDbSavedByObjectVersion
1070
     0
  0
ACAD_PROXY_OBJECT
  5
2C
102
{ACAD_REACTORS
330
2A
102
}
330
2A
100
AcDbProxyObject
 90
      499
 91
      501
 93
      476
310
43519B185D15DA5D1A115919D95CD0140901404333333333333E3BF0000000000000F9010740901411070040501600405405064090741402480A1B50
1001
ACAD
1000
AcDbSavedByObjectVersion
1070
     0
  0
ACAD_PROXY_OBJECT
  5
2D
102
{ACAD_REACTORS
330
2A
102
}
330
2A
100
AcDbProxyObject
 90
      499
 91
      501
 93
      412
310
41D1DBDD5C985D5910240902404333333333333E3BF0000000000000F9010740A411070040501641D405064090741402480A1B50
1001
ACAD
1000
AcDbSavedByObjectVersion
1070
     0
  0
ACAD_PROXY_OBJECT
  5
2E
102
{ACAD_REACTORS
330
2A
102
}
330
2A
100
AcDbProxyObject
 90
      499
 91
      501
 93
      500
310
4411DBDD5C985D5915DA5D1A115919D95CD0340902404333333333333E3BF0000000000000F9010740901411070040501600405405064090741402480A1B50
1001
ACAD
1000
AcDbSavedByObjectVersion
1070
     0
  0
ACAD_PROXY_OBJECT
  5
38
102
{ACAD_REACTORS
330
2A
102
}
330
2A
100
AcDbProxyObject
 90
      499
 91
      501
 93
      444
310
42D31A5B995C185D1D195C9B90E409028333333333333E3BF0000000000000FB010790141107004050750841D405064090741402483A0350
1001
ACAD
1000
AcDbSavedByObjectVersion
1070
     0
  0
ACAD_PROXY_OBJECT
  5
33
102
{ACAD_REACTORS
330
2A
102
}
330
2A
100
AcDbProxyObject
 90
      499
 91
      501
 93
      420
310
425499585B1A5CDD1A58D08409028333333333333E3BF0000000000000FB01079019070040501508421405064090741402480A1B40
1001
ACAD
1000
AcDbSavedByObjectVersion
1070
     0
  0
ACAD_PROXY_OBJECT
  5
37
102
{ACAD_REACTORS
330
2A
102
}
330
2A
100
AcDbProxyObject
 90
      499
 91
      501
 93
      412
310
41D51A1A58DAD95B90D409028333333333333E3BF0000000000000FB010790141107004050150C41D405064090741402480A0350
1001
ACAD
1000
AcDbSavedByObjectVersion
1070
     0
  0
XRECORD
  5
CE
102
{ACAD_REACTORS
330
C5
102
}
330
C5
100
AcDbXrecord
 90
        0
  0
XRECORD
  5
E4
102
{ACAD_REACTORS
330
C5
102
}
330
C5
100
AcDbXrecord
1000
DSTYLE
1002
{
1070
   340
340
11
1002
}
  0
XRECORD
  5
CF
102
{ACAD_REACTORS
330
C5
102
}
330
C5
100
AcDbXrecord
  1
{61F36864-2915-4CA8-9E71-164800173893}
  0
XRECORD
  5
C8
102
{ACAD_REACTORS
330
C5
102
}
330
C5
100
AcDbXrecord
  1

  0
XRECORD
  5
CD
102
{ACAD_REACTORS
330
C5
102
}
330
C5
100
AcDbXrecord
 90
        1
  0
XRECORD
  5
CA
102
{ACAD_REACTORS
330
C5
102
}
330
C5
100
AcDbXrecord
340
1A
  0
XRECORD
  5
CC
102
{ACAD_REACTORS
330
C5
102
}
330
C5
100
AcDbXrecord
 90
    10781
  0
XRECORD
  5
CB
102
{ACAD_REACTORS
330
C5
102
}
330
C5
100
AcDbXrecord
340
19
  0
XRECORD
  5
D1
102
{ACAD_REACTORS
330
C5
102
}
330
C5
100
AcDbXrecord
 40
0.0
  0
XRECORD
  5
D4
102
{ACAD_REACTORS
330
C5
102
}
330
C5
100
AcDbXrecord
340
0
  0
XRECORD
  5
DA
102
{ACAD_REACTORS
330
C5
102
}
330
C5
100
AcDbXrecord
 10
0.0
 20
0.0
 30
0.0
  0
XRECORD
  5
D6
102
{ACAD_REACTORS
330
C5
102
}
330
C5
100
AcDbXrecord
 10
0.0
 20
0.0
 30
0.0
  0
XRECORD
  5
D9
102
{ACAD_REACTORS
330
C5
102
}
330
C5
100
AcDbXrecord
 10
0.0
 20
0.0
 30
0.0
  0
XRECORD
  5
D7
102
{ACAD_REACTORS
330
C5
102
}
330
C5
100
AcDbXrecord
 10
0.0
 20
0.0
 30
0.0
  0
XRECORD
  5
D8
102
{ACAD_REACTORS
330
C5
102
}
330
C5
100
AcDbXrecord
 10
0.0
 20
0.0
 30
0.0
  0
XRECORD
  5
D5
102
{ACAD_REACTORS
330
C5
102
}
330
C5
100
AcDbXrecord
 10
0.0
 20
0.0
 30
0.0
  0
XRECORD
  5
D2
102
{ACAD_REACTORS
330
C5
102
}
330
C5
100
AcDbXrecord
340
0
  0
XRECORD
  5
D3
102
{ACAD_REACTORS
330
C5
102
}
330
C5
100
AcDbXrecord
 70
     0
  0
XRECORD
  5
C9
102
{ACAD_REACTORS
330
C5
102
}
330
C5
100
AcDbXrecord
  1

  0
XRECORD
  5
C6
102
{ACAD_REACTORS
330
C5
102
}
330
C5
100
AcDbXrecord
 90
        1
  0
XRECORD
  5
C7
102
{ACAD_REACTORS
330
C5
102
}
330
C5
100
AcDbXrecord
 90
       70
  0
XRECORD
  5
DD
102
{ACAD_REACTORS
330
C5
102
}
330
C5
100
AcDbXrecord
340
0
  0
XRECORD
  5
E3
102
{ACAD_REACTORS
330
C5
102
}
330
C5
100
AcDbXrecord
 10
0.0
 20
0.0
 30
0.0
  0
XRECORD
  5
DF
102
{ACAD_REACTORS
330
C5
102
}
330
C5
100
AcDbXrecord
 10
0.0
 20
0.0
 30
0.0
  0
XRECORD
  5
E2
102
{ACAD_REACTORS
330
C5
102
}
330
C5
100
AcDbXrecord
 10
0.0
 20
0.0
 30
0.0
  0
XRECORD
  5
E0
102
{ACAD_REACTORS
330
C5
102
}
330
C5
100
AcDbXrecord
 10
0.0
 20
0.0
 30
0.0
  0
XRECORD
  5
E1
102
{ACAD_REACTORS
330
C5
102
}
330
C5
100
AcDbXrecord
 10
0.0
 20
0.0
 30
0.0
  0
XRECORD
  5
DE
102
{ACAD_REACTORS
330
C5
102
}
330
C5
100
AcDbXrecord
 10
0.0
 20
0.0
 30
0.0
  0
XRECORD
  5
DB
102
{ACAD_REACTORS
330
C5
102
}
330
C5
100
AcDbXrecord
340
0
  0
XRECORD
  5
DC
102
{ACAD_REACTORS
330
C5
102
}
330
C5
100
AcDbXrecord
 70
     0
  0
XRECORD
  5
D0
102
{ACAD_REACTORS
330
C5
102
}
330
C5
100
AcDbXrecord
  1
{FAEB1C32-E019-11D5-929B-00C0DF256EC4}
  0
DICTIONARYVAR
  5
E8
102
{ACAD_REACTORS
330
E5
102
}
330
E5
100
DictionaryVariables
280
     0
  1
2
  0
DICTIONARYVAR
  5
E9
102
{ACAD_REACTORS
330
E5
102
}
330
E5
100
DictionaryVariables
280
     0
  1
1
  0
DICTIONARY
  5
EC
330
3D
100
AcDbDictionary
280
     1
  3
ACAD_XREC_ROUNDTRIP
360
ED
  0
DICTIONARY
  5
EA
330
3C
100
AcDbDictionary
280
     1
  3
ACAD_XREC_ROUNDTRIP
360
EB
  0
DICTIONARY
  5
EE
330
3E
100
AcDbDictionary
280
     1
  3
ACAD_XREC_ROUNDTRIP
360
EF
  0
XRECORD
  5
ED
102
{ACAD_REACTORS
330
EC
102
}
330
EC
100
AcDbXrecord
102
MATERIAL
148
0.0
149
0.0
149
0.0
 93
        0
 94
      127
282
     0
 72
     1
 77
     1
171
     1
175
     1
179
     1
273
     0
  0
XRECORD
  5
EB
102
{ACAD_REACTORS
330
EA
102
}
330
EA
100
AcDbXrecord
102
MATERIAL
148
0.0
149
0.0
149
0.0
 93
        0
 94
      127
282
     0
 72
     1
 77
     1
171
     1
175
     1
179
     1
273
     0
  0
XRECORD
  5
EF
102
{ACAD_REACTORS
330
EE
102
}
330
EE
100
AcDbXrecord
102
MATERIAL
148
0.0
149
0.0
149
0.0
 93
        0
 94
      127
282
     0
 72
     1
 77
     1
171
     1
175
     1
179
     1
273
     0
  0
ENDSEC
  0
EOF
