999
Inkscape export via Big Blue Saws DXF Export" (http://www.bigbluesaw.com/saw/big-blue-saw-blog/general-updates/big-blue-saws-dxf-export-for-inkscape.html)
  0
SECTION
  2
HEADER
  9
$ACADVER
  1
AC1014
  9
$HANDSEED
  5
FFFF
  0
$INSUNITS
 70
 1
 9
ENDSEC
  0
SECTION
  2
TABLES
  0
TABLE
  2
VPORT
  5
8
330
0
100
AcDbSymbolTable
 70
     4
  0
VPORT
  5
2E
330
8
100
AcDbSymbolTableRecord
100
AcDbViewportTableRecord
  2
*ACTIVE
 70
     0
 10
0.0
 20
0.0
 11
1.0
 21
1.0
 12
4.25
 22
5.5
 13
0.0
 23
0.0
 14
10.0
 24
10.0
 15
10.0
 25
10.0
 16
0.0
 26
0.0
 36
1.0
 17
0.0
 27
0.0
 37
0.0
 40
11
 41
1.24
 42
50.0
 43
0.0
 44
0.0
 50
0.0
 51
0.0
 71
     0
 72
   100
 73
     1
 74
     3
 75
     0
 76
     0
 77
     0
 78
     0
  0
ENDTAB
  0
TABLE
  2
LTYPE
  5
5
330
0
100
AcDbSymbolTable
 70
     1
  0
LTYPE
  5
14
330
5
100
AcDbSymbolTableRecord
100
AcDbLinetypeTableRecord
  2
BYBLOCK
 70
     0
  3

 72
    65
 73
     0
 40
0.0
  0
LTYPE
  5
15
330
5
100
AcDbSymbolTableRecord
100
AcDbLinetypeTableRecord
  2
BYLAYER
 70
     0
  3

 72
    65
 73
     0
 40
0.0
  0
LTYPE
  5
16
330
5
100
AcDbSymbolTableRecord
100
AcDbLinetypeTableRecord
  2
CONTINUOUS
 70
     0
  3
Solid line
 72
    65
 73
     0
 40
0.0
  0
ENDTAB
  0
TABLE
  2
STYLE
  5
3
330
0
100
AcDbSymbolTable
 70
     1
  0
STYLE
  5
11
330
3
100
AcDbSymbolTableRecord
100
AcDbTextStyleTableRecord
  2
STANDARD
 70
     0
 40
0.0
 41
1.0
 50
0.0
 71
     0
 42
2.5
  3
txt
  4

  0
ENDTAB
  0
TABLE
  2
VIEW
  5
6
330
0
100
AcDbSymbolTable
 70
     0
  0
ENDTAB
  0
TABLE
  2
UCS
  5
7
330
0
100
AcDbSymbolTable
 70
     0
  0
ENDTAB
  0
TABLE
  2
APPID
  5
9
330
0
100
AcDbSymbolTable
 70
     2
  0
APPID
  5
12
330
9
100
AcDbSymbolTableRecord
100
AcDbRegAppTableRecord
  2
ACAD
 70
     0
  0
ENDTAB
  0
TABLE
  2
DIMSTYLE
  5
A
330
0
100
AcDbSymbolTable
 70
     1
  0
DIMSTYLE
105
27
330
A
100
AcDbSymbolTableRecord
100
AcDbDimStyleTableRecord
  2
ISO-25
 70
     0
  3

  4

  5

  6

  7

 40
1.0
 41
2.5
 42
0.625
 43
3.75
 44
1.25
 45
0.0
 46
0.0
 47
0.0
 48
0.0
140
2.5
141
2.5
142
0.0
143
0.03937007874016
144
1.0
145
0.0
146
1.0
147
0.625
 71
     0
 72
     0
 73
     0
 74
     0
 75
     0
 76
     0
 77
     1
 78
     8
170
     0
171
     3
172
     1
173
     0
174
     0
175
     0
176
     0
177
     0
178
     0
270
     2
271
     2
272
     2
273
     2
274
     3
340
11
275
     0
280
     0
281
     0
282
     0
283
     0
284
     8
285
     0
286
     0
287
     3
288
     0
  0
ENDTAB
  0
TABLE
  2
BLOCK_RECORD
  5
1
330
0
100
AcDbSymbolTable
 70
     1
  0
BLOCK_RECORD
  5
1F
330
1
100
AcDbSymbolTableRecord
100
AcDbBlockTableRecord
  2
*MODEL_SPACE
  0
BLOCK_RECORD
  5
1B
330
1
100
AcDbSymbolTableRecord
100
AcDbBlockTableRecord
  2
*PAPER_SPACE
  0
ENDTAB
0
TABLE
2
LAYER
5
2
330
0
100
AcDbSymbolTable
70
1
0
LAYER
5
10
330
2
100
AcDbSymbolTableRecord
100
AcDbLayerTableRecord
2
Default
70
0
62
7
6
CONTINUOUS
0
ENDTAB
0
ENDSEC
  0
SECTION
  2
BLOCKS
  0
BLOCK
  5
20
330
1F
100
AcDbEntity
  8
0
100
AcDbBlockBegin
  2
*MODEL_SPACE
 70
     0
 10
0.0
 20
0.0
 30
0.0
  3
*MODEL_SPACE
  1

  0
ENDBLK
  5
21
330
1F
100
AcDbEntity
  8
0
100
AcDbBlockEnd
  0
BLOCK
  5
1C
330
1B
100
AcDbEntity
 67
     1
  8
0
100
AcDbBlockBegin
  2
*PAPER_SPACE
  1

  0
ENDBLK
  5
1D
330
1B
100
AcDbEntity
 67
     1
  8
0
100
AcDbBlockEnd
  0
ENDSEC
  0
SECTION
  2
ENTITIES
0
LINE
8
Default
62
5
5
100
100
AcDbEntity
100
AcDbLine
10
0.111111
20
6.328083
30
0.0
11
4.000000
21
6.328083
31
0.0
0
LINE
8
Default
62
5
5
101
100
AcDbEntity
100
AcDbLine
10
4.000000
20
6.328083
30
0.0
11
4.000000
21
8.550305
31
0.0
0
LINE
8
Default
62
5
5
102
100
AcDbEntity
100
AcDbLine
10
4.000000
20
8.550305
30
0.0
11
0.111111
21
8.550305
31
0.0
0
LINE
8
Default
62
5
5
103
100
AcDbEntity
100
AcDbLine
10
0.111111
20
8.550305
30
0.0
11
0.111111
21
6.328083
31
0.0
0
LINE
8
Default
62
5
5
104
100
AcDbEntity
100
AcDbLine
10
0.337201
20
8.460574
30
0.0
11
0.344340
21
8.458463
31
0.0
0
LINE
8
Default
62
5
5
105
100
AcDbEntity
100
AcDbLine
10
0.344340
20
8.458463
30
0.0
11
0.350689
21
8.454577
31
0.0
0
LINE
8
Default
62
5
5
106
100
AcDbEntity
100
AcDbLine
10
0.350689
20
8.454577
30
0.0
11
0.355816
21
8.449179
31
0.0
0
LINE
8
Default
62
5
5
107
100
AcDbEntity
100
AcDbLine
10
0.355816
20
8.449179
30
0.0
11
0.359372
21
8.442638
31
0.0
0
LINE
8
Default
62
5
5
108
100
AcDbEntity
100
AcDbLine
10
0.359372
20
8.442638
30
0.0
11
0.361113
21
8.435401
31
0.0
0
LINE
8
Default
62
5
5
109
100
AcDbEntity
100
AcDbLine
10
0.361113
20
8.435401
30
0.0
11
0.360922
21
8.427959
31
0.0
0
LINE
8
Default
62
5
5
10a
100
AcDbEntity
100
AcDbLine
10
0.360922
20
8.427959
30
0.0
11
0.358811
21
8.420820
31
0.0
0
LINE
8
Default
62
5
5
10b
100
AcDbEntity
100
AcDbLine
10
0.358811
20
8.420820
30
0.0
11
0.354925
21
8.414470
31
0.0
0
LINE
8
Default
62
5
5
10c
100
AcDbEntity
100
AcDbLine
10
0.354925
20
8.414470
30
0.0
11
0.349527
21
8.409343
31
0.0
0
LINE
8
Default
62
5
5
10d
100
AcDbEntity
100
AcDbLine
10
0.349527
20
8.409343
30
0.0
11
0.342986
21
8.405788
31
0.0
0
LINE
8
Default
62
5
5
10e
100
AcDbEntity
100
AcDbLine
10
0.342986
20
8.405788
30
0.0
11
0.335749
21
8.404046
31
0.0
0
LINE
8
Default
62
5
5
10f
100
AcDbEntity
100
AcDbLine
10
0.335749
20
8.404046
30
0.0
11
0.328307
21
8.404237
31
0.0
0
LINE
8
Default
62
5
5
110
100
AcDbEntity
100
AcDbLine
10
0.328307
20
8.404237
30
0.0
11
0.321168
21
8.406348
31
0.0
0
LINE
8
Default
62
5
5
111
100
AcDbEntity
100
AcDbLine
10
0.321168
20
8.406348
30
0.0
11
0.314818
21
8.410235
31
0.0
0
LINE
8
Default
62
5
5
112
100
AcDbEntity
100
AcDbLine
10
0.314818
20
8.410235
30
0.0
11
0.309691
21
8.415632
31
0.0
0
LINE
8
Default
62
5
5
113
100
AcDbEntity
100
AcDbLine
10
0.309691
20
8.415632
30
0.0
11
0.306136
21
8.422173
31
0.0
0
LINE
8
Default
62
5
5
114
100
AcDbEntity
100
AcDbLine
10
0.306136
20
8.422173
30
0.0
11
0.304394
21
8.429411
31
0.0
0
LINE
8
Default
62
5
5
115
100
AcDbEntity
100
AcDbLine
10
0.304394
20
8.429411
30
0.0
11
0.304586
21
8.436853
31
0.0
0
LINE
8
Default
62
5
5
116
100
AcDbEntity
100
AcDbLine
10
0.304586
20
8.436853
30
0.0
11
0.306696
21
8.443992
31
0.0
0
LINE
8
Default
62
5
5
117
100
AcDbEntity
100
AcDbLine
10
0.306696
20
8.443992
30
0.0
11
0.310583
21
8.450341
31
0.0
0
LINE
8
Default
62
5
5
118
100
AcDbEntity
100
AcDbLine
10
0.310583
20
8.450341
30
0.0
11
0.315980
21
8.455468
31
0.0
0
LINE
8
Default
62
5
5
119
100
AcDbEntity
100
AcDbLine
10
0.315980
20
8.455468
30
0.0
11
0.322521
21
8.459024
31
0.0
0
LINE
8
Default
62
5
5
11a
100
AcDbEntity
100
AcDbLine
10
0.322521
20
8.459024
30
0.0
11
0.329759
21
8.460765
31
0.0
0
LINE
8
Default
62
5
5
11b
100
AcDbEntity
100
AcDbLine
10
0.329759
20
8.460765
30
0.0
11
0.337201
21
8.460574
31
0.0
0
LINE
8
Default
62
5
5
11c
100
AcDbEntity
100
AcDbLine
10
0.307072
20
6.447361
30
0.0
11
0.311043
21
6.453600
31
0.0
0
LINE
8
Default
62
5
5
11d
100
AcDbEntity
100
AcDbLine
10
0.311043
20
6.453600
30
0.0
11
0.316494
21
6.458599
31
0.0
0
LINE
8
Default
62
5
5
11e
100
AcDbEntity
100
AcDbLine
10
0.316494
20
6.458599
30
0.0
11
0.323052
21
6.462017
31
0.0
0
LINE
8
Default
62
5
5
11f
100
AcDbEntity
100
AcDbLine
10
0.323052
20
6.462017
30
0.0
11
0.330272
21
6.463621
31
0.0
0
LINE
8
Default
62
5
5
120
100
AcDbEntity
100
AcDbLine
10
0.330272
20
6.463621
30
0.0
11
0.337661
21
6.463301
31
0.0
0
LINE
8
Default
62
5
5
121
100
AcDbEntity
100
AcDbLine
10
0.337661
20
6.463301
30
0.0
11
0.344716
21
6.461081
31
0.0
0
LINE
8
Default
62
5
5
122
100
AcDbEntity
100
AcDbLine
10
0.344716
20
6.461081
30
0.0
11
0.350955
21
6.457110
31
0.0
0
LINE
8
Default
62
5
5
123
100
AcDbEntity
100
AcDbLine
10
0.350955
20
6.457110
30
0.0
11
0.355954
21
6.451659
31
0.0
0
LINE
8
Default
62
5
5
124
100
AcDbEntity
100
AcDbLine
10
0.355954
20
6.451659
30
0.0
11
0.359372
21
6.445100
31
0.0
0
LINE
8
Default
62
5
5
125
100
AcDbEntity
100
AcDbLine
10
0.359372
20
6.445100
30
0.0
11
0.360976
21
6.437880
31
0.0
0
LINE
8
Default
62
5
5
126
100
AcDbEntity
100
AcDbLine
10
0.360976
20
6.437880
30
0.0
11
0.360656
21
6.430492
31
0.0
0
LINE
8
Default
62
5
5
127
100
AcDbEntity
100
AcDbLine
10
0.360656
20
6.430492
30
0.0
11
0.358435
21
6.423437
31
0.0
0
LINE
8
Default
62
5
5
128
100
AcDbEntity
100
AcDbLine
10
0.358435
20
6.423437
30
0.0
11
0.354464
21
6.417198
31
0.0
0
LINE
8
Default
62
5
5
129
100
AcDbEntity
100
AcDbLine
10
0.354464
20
6.417198
30
0.0
11
0.349014
21
6.412199
31
0.0
0
LINE
8
Default
62
5
5
12a
100
AcDbEntity
100
AcDbLine
10
0.349014
20
6.412199
30
0.0
11
0.342455
21
6.408781
31
0.0
0
LINE
8
Default
62
5
5
12b
100
AcDbEntity
100
AcDbLine
10
0.342455
20
6.408781
30
0.0
11
0.335235
21
6.407177
31
0.0
0
LINE
8
Default
62
5
5
12c
100
AcDbEntity
100
AcDbLine
10
0.335235
20
6.407177
30
0.0
11
0.327846
21
6.407496
31
0.0
0
LINE
8
Default
62
5
5
12d
100
AcDbEntity
100
AcDbLine
10
0.327846
20
6.407496
30
0.0
11
0.320792
21
6.409717
31
0.0
0
LINE
8
Default
62
5
5
12e
100
AcDbEntity
100
AcDbLine
10
0.320792
20
6.409717
30
0.0
11
0.314553
21
6.413688
31
0.0
0
LINE
8
Default
62
5
5
12f
100
AcDbEntity
100
AcDbLine
10
0.314553
20
6.413688
30
0.0
11
0.309554
21
6.419139
31
0.0
0
LINE
8
Default
62
5
5
130
100
AcDbEntity
100
AcDbLine
10
0.309554
20
6.419139
30
0.0
11
0.306136
21
6.425698
31
0.0
0
LINE
8
Default
62
5
5
131
100
AcDbEntity
100
AcDbLine
10
0.306136
20
6.425698
30
0.0
11
0.304532
21
6.432917
31
0.0
0
LINE
8
Default
62
5
5
132
100
AcDbEntity
100
AcDbLine
10
0.304532
20
6.432917
30
0.0
11
0.304851
21
6.440306
31
0.0
0
LINE
8
Default
62
5
5
133
100
AcDbEntity
100
AcDbLine
10
0.304851
20
6.440306
30
0.0
11
0.307072
21
6.447361
31
0.0
0
LINE
8
Default
62
5
5
134
100
AcDbEntity
100
AcDbLine
10
3.911538
20
6.451434
30
0.0
11
3.914926
21
6.445100
31
0.0
0
LINE
8
Default
62
5
5
135
100
AcDbEntity
100
AcDbLine
10
3.914926
20
6.445100
30
0.0
11
3.916559
21
6.438105
31
0.0
0
LINE
8
Default
62
5
5
136
100
AcDbEntity
100
AcDbLine
10
3.916559
20
6.438105
30
0.0
11
3.916327
21
6.430925
31
0.0
0
LINE
8
Default
62
5
5
137
100
AcDbEntity
100
AcDbLine
10
3.916327
20
6.430925
30
0.0
11
3.914244
21
6.424051
31
0.0
0
LINE
8
Default
62
5
5
138
100
AcDbEntity
100
AcDbLine
10
3.914244
20
6.424051
30
0.0
11
3.910452
21
6.417949
31
0.0
0
LINE
8
Default
62
5
5
139
100
AcDbEntity
100
AcDbLine
10
3.910452
20
6.417949
30
0.0
11
3.905211
21
6.413037
31
0.0
0
LINE
8
Default
62
5
5
13a
100
AcDbEntity
100
AcDbLine
10
3.905211
20
6.413037
30
0.0
11
3.898877
21
6.409649
31
0.0
0
LINE
8
Default
62
5
5
13b
100
AcDbEntity
100
AcDbLine
10
3.898877
20
6.409649
30
0.0
11
3.891882
21
6.408015
31
0.0
0
LINE
8
Default
62
5
5
13c
100
AcDbEntity
100
AcDbLine
10
3.891882
20
6.408015
30
0.0
11
3.884702
21
6.408248
31
0.0
0
LINE
8
Default
62
5
5
13d
100
AcDbEntity
100
AcDbLine
10
3.884702
20
6.408248
30
0.0
11
3.877827
21
6.410331
31
0.0
0
LINE
8
Default
62
5
5
13e
100
AcDbEntity
100
AcDbLine
10
3.877827
20
6.410331
30
0.0
11
3.871726
21
6.414122
31
0.0
0
LINE
8
Default
62
5
5
13f
100
AcDbEntity
100
AcDbLine
10
3.871726
20
6.414122
30
0.0
11
3.866814
21
6.419363
31
0.0
0
LINE
8
Default
62
5
5
140
100
AcDbEntity
100
AcDbLine
10
3.866814
20
6.419363
30
0.0
11
3.863425
21
6.425698
31
0.0
0
LINE
8
Default
62
5
5
141
100
AcDbEntity
100
AcDbLine
10
3.863425
20
6.425698
30
0.0
11
3.861792
21
6.432693
31
0.0
0
LINE
8
Default
62
5
5
142
100
AcDbEntity
100
AcDbLine
10
3.861792
20
6.432693
30
0.0
11
3.862025
21
6.439872
31
0.0
0
LINE
8
Default
62
5
5
143
100
AcDbEntity
100
AcDbLine
10
3.862025
20
6.439872
30
0.0
11
3.864108
21
6.446747
31
0.0
0
LINE
8
Default
62
5
5
144
100
AcDbEntity
100
AcDbLine
10
3.864108
20
6.446747
30
0.0
11
3.867899
21
6.452849
31
0.0
0
LINE
8
Default
62
5
5
145
100
AcDbEntity
100
AcDbLine
10
3.867899
20
6.452849
30
0.0
11
3.873140
21
6.457761
31
0.0
0
LINE
8
Default
62
5
5
146
100
AcDbEntity
100
AcDbLine
10
3.873140
20
6.457761
30
0.0
11
3.879474
21
6.461149
31
0.0
0
LINE
8
Default
62
5
5
147
100
AcDbEntity
100
AcDbLine
10
3.879474
20
6.461149
30
0.0
11
3.886470
21
6.462783
31
0.0
0
LINE
8
Default
62
5
5
148
100
AcDbEntity
100
AcDbLine
10
3.886470
20
6.462783
30
0.0
11
3.893649
21
6.462550
31
0.0
0
LINE
8
Default
62
5
5
149
100
AcDbEntity
100
AcDbLine
10
3.893649
20
6.462550
30
0.0
11
3.900524
21
6.460467
31
0.0
0
LINE
8
Default
62
5
5
14a
100
AcDbEntity
100
AcDbLine
10
3.900524
20
6.460467
30
0.0
11
3.906625
21
6.456676
31
0.0
0
LINE
8
Default
62
5
5
14b
100
AcDbEntity
100
AcDbLine
10
3.906625
20
6.456676
30
0.0
11
3.911538
21
6.451434
31
0.0
0
LINE
8
Default
62
5
5
14c
100
AcDbEntity
100
AcDbLine
10
3.863425
20
8.441547
30
0.0
11
3.866669
21
8.447900
31
0.0
0
LINE
8
Default
62
5
5
14d
100
AcDbEntity
100
AcDbLine
10
3.866669
20
8.447900
30
0.0
11
3.871446
21
8.453198
31
0.0
0
LINE
8
Default
62
5
5
14e
100
AcDbEntity
100
AcDbLine
10
3.871446
20
8.453198
30
0.0
11
3.877432
21
8.457078
31
0.0
0
LINE
8
Default
62
5
5
14f
100
AcDbEntity
100
AcDbLine
10
3.877432
20
8.457078
30
0.0
11
3.884217
21
8.459277
31
0.0
0
LINE
8
Default
62
5
5
150
100
AcDbEntity
100
AcDbLine
10
3.884217
20
8.459277
30
0.0
11
3.891341
21
8.459645
31
0.0
0
LINE
8
Default
62
5
5
151
100
AcDbEntity
100
AcDbLine
10
3.891341
20
8.459645
30
0.0
11
3.898317
21
8.458156
31
0.0
0
LINE
8
Default
62
5
5
152
100
AcDbEntity
100
AcDbLine
10
3.898317
20
8.458156
30
0.0
11
3.904670
21
8.454913
31
0.0
0
LINE
8
Default
62
5
5
153
100
AcDbEntity
100
AcDbLine
10
3.904670
20
8.454913
30
0.0
11
3.909968
21
8.450135
31
0.0
0
LINE
8
Default
62
5
5
154
100
AcDbEntity
100
AcDbLine
10
3.909968
20
8.450135
30
0.0
11
3.913848
21
8.444150
31
0.0
0
LINE
8
Default
62
5
5
155
100
AcDbEntity
100
AcDbLine
10
3.913848
20
8.444150
30
0.0
11
3.916047
21
8.437364
31
0.0
0
LINE
8
Default
62
5
5
156
100
AcDbEntity
100
AcDbLine
10
3.916047
20
8.437364
30
0.0
11
3.916414
21
8.430240
31
0.0
0
LINE
8
Default
62
5
5
157
100
AcDbEntity
100
AcDbLine
10
3.916414
20
8.430240
30
0.0
11
3.914926
21
8.423264
31
0.0
0
LINE
8
Default
62
5
5
158
100
AcDbEntity
100
AcDbLine
10
3.914926
20
8.423264
30
0.0
11
3.911683
21
8.416911
31
0.0
0
LINE
8
Default
62
5
5
159
100
AcDbEntity
100
AcDbLine
10
3.911683
20
8.416911
30
0.0
11
3.906905
21
8.411614
31
0.0
0
LINE
8
Default
62
5
5
15a
100
AcDbEntity
100
AcDbLine
10
3.906905
20
8.411614
30
0.0
11
3.900920
21
8.407734
31
0.0
0
LINE
8
Default
62
5
5
15b
100
AcDbEntity
100
AcDbLine
10
3.900920
20
8.407734
30
0.0
11
3.894134
21
8.405535
31
0.0
0
LINE
8
Default
62
5
5
15c
100
AcDbEntity
100
AcDbLine
10
3.894134
20
8.405535
30
0.0
11
3.887010
21
8.405167
31
0.0
0
LINE
8
Default
62
5
5
15d
100
AcDbEntity
100
AcDbLine
10
3.887010
20
8.405167
30
0.0
11
3.880034
21
8.406656
31
0.0
0
LINE
8
Default
62
5
5
15e
100
AcDbEntity
100
AcDbLine
10
3.880034
20
8.406656
30
0.0
11
3.873681
21
8.409899
31
0.0
0
LINE
8
Default
62
5
5
15f
100
AcDbEntity
100
AcDbLine
10
3.873681
20
8.409899
30
0.0
11
3.868384
21
8.414676
31
0.0
0
LINE
8
Default
62
5
5
160
100
AcDbEntity
100
AcDbLine
10
3.868384
20
8.414676
30
0.0
11
3.864504
21
8.420662
31
0.0
0
LINE
8
Default
62
5
5
161
100
AcDbEntity
100
AcDbLine
10
3.864504
20
8.420662
30
0.0
11
3.862305
21
8.427447
31
0.0
0
LINE
8
Default
62
5
5
162
100
AcDbEntity
100
AcDbLine
10
3.862305
20
8.427447
30
0.0
11
3.861937
21
8.434571
31
0.0
0
LINE
8
Default
62
5
5
163
100
AcDbEntity
100
AcDbLine
10
3.861937
20
8.434571
30
0.0
11
3.863425
21
8.441547
31
0.0
0
LINE
8
Default
62
5
5
164
100
AcDbEntity
100
AcDbLine
10
3.277776
20
8.067984
30
0.0
11
2.962122
21
8.067984
31
0.0
0
LINE
8
Default
62
5
5
165
100
AcDbEntity
100
AcDbLine
10
2.962122
20
8.067984
30
0.0
11
3.177490
21
8.272527
31
0.0
0
LINE
8
Default
62
5
5
166
100
AcDbEntity
100
AcDbLine
10
3.177490
20
8.272527
30
0.0
11
3.482320
21
8.272527
31
0.0
0
LINE
8
Default
62
5
5
167
100
AcDbEntity
100
AcDbLine
10
3.482320
20
8.272527
30
0.0
11
3.277776
21
8.067984
31
0.0
0
LINE
8
Default
62
5
5
168
100
AcDbEntity
100
AcDbLine
10
2.962122
20
8.032626
30
0.0
11
3.277776
21
8.032626
31
0.0
0
LINE
8
Default
62
5
5
169
100
AcDbEntity
100
AcDbLine
10
3.277776
20
8.032626
30
0.0
11
3.482320
21
7.828082
31
0.0
0
LINE
8
Default
62
5
5
16a
100
AcDbEntity
100
AcDbLine
10
3.482320
20
7.828082
30
0.0
11
3.177490
21
7.828082
31
0.0
0
LINE
8
Default
62
5
5
16b
100
AcDbEntity
100
AcDbLine
10
3.177490
20
7.828082
30
0.0
11
2.962122
21
8.032626
31
0.0
0
LINE
8
Default
62
5
5
16c
100
AcDbEntity
100
AcDbLine
10
3.319712
20
8.051270
30
0.0
11
3.514157
21
8.250104
31
0.0
0
LINE
8
Default
62
5
5
16d
100
AcDbEntity
100
AcDbLine
10
3.514157
20
8.250104
30
0.0
11
3.708603
21
8.051270
31
0.0
0
LINE
8
Default
62
5
5
16e
100
AcDbEntity
100
AcDbLine
10
3.708603
20
8.051270
30
0.0
11
3.514157
21
7.852436
31
0.0
0
LINE
8
Default
62
5
5
16f
100
AcDbEntity
100
AcDbLine
10
3.514157
20
7.852436
30
0.0
11
3.319712
21
8.051270
31
0.0
0
LINE
8
Default
62
5
5
170
100
AcDbEntity
100
AcDbLine
10
1.932816
20
6.550305
30
0.0
11
1.911599
21
6.551760
31
0.0
0
LINE
8
Default
62
5
5
171
100
AcDbEntity
100
AcDbLine
10
1.911599
20
6.551760
30
0.0
11
1.890779
21
6.556097
31
0.0
0
LINE
8
Default
62
5
5
172
100
AcDbEntity
100
AcDbLine
10
1.890779
20
6.556097
30
0.0
11
1.870746
21
6.563235
31
0.0
0
LINE
8
Default
62
5
5
173
100
AcDbEntity
100
AcDbLine
10
1.870746
20
6.563235
30
0.0
11
1.851874
21
6.573041
31
0.0
0
LINE
8
Default
62
5
5
174
100
AcDbEntity
100
AcDbLine
10
1.851874
20
6.573041
30
0.0
11
1.834518
21
6.585331
31
0.0
0
LINE
8
Default
62
5
5
175
100
AcDbEntity
100
AcDbLine
10
1.834518
20
6.585331
30
0.0
11
1.819002
21
6.599875
31
0.0
0
LINE
8
Default
62
5
5
176
100
AcDbEntity
100
AcDbLine
10
1.819002
20
6.599875
30
0.0
11
1.805616
21
6.616401
31
0.0
0
LINE
8
Default
62
5
5
177
100
AcDbEntity
100
AcDbLine
10
1.805616
20
6.616401
30
0.0
11
1.794611
21
6.634600
31
0.0
0
LINE
8
Default
62
5
5
178
100
AcDbEntity
100
AcDbLine
10
1.794611
20
6.634600
30
0.0
11
1.786193
21
6.654130
31
0.0
0
LINE
8
Default
62
5
5
179
100
AcDbEntity
100
AcDbLine
10
1.786193
20
6.654130
30
0.0
11
1.780519
21
6.674626
31
0.0
0
LINE
8
Default
62
5
5
17a
100
AcDbEntity
100
AcDbLine
10
1.780519
20
6.674626
30
0.0
11
1.777697
21
6.695705
31
0.0
0
LINE
8
Default
62
5
5
17b
100
AcDbEntity
100
AcDbLine
10
1.777697
20
6.695705
30
0.0
11
1.777777
21
6.716972
31
0.0
0
LINE
8
Default
62
5
5
17c
100
AcDbEntity
100
AcDbLine
10
1.777777
20
6.716972
30
0.0
11
1.777777
21
8.161415
31
0.0
0
LINE
8
Default
62
5
5
17d
100
AcDbEntity
100
AcDbLine
10
1.777777
20
8.161415
30
0.0
11
1.779079
21
8.182229
31
0.0
0
LINE
8
Default
62
5
5
17e
100
AcDbEntity
100
AcDbLine
10
1.779079
20
8.182229
30
0.0
11
1.782962
21
8.202718
31
0.0
0
LINE
8
Default
62
5
5
17f
100
AcDbEntity
100
AcDbLine
10
1.782962
20
8.202718
30
0.0
11
1.789368
21
8.222564
31
0.0
0
LINE
8
Default
62
5
5
180
100
AcDbEntity
100
AcDbLine
10
1.789368
20
8.222564
30
0.0
11
1.798195
21
8.241457
31
0.0
0
LINE
8
Default
62
5
5
181
100
AcDbEntity
100
AcDbLine
10
1.798195
20
8.241457
30
0.0
11
1.809307
21
8.259104
31
0.0
0
LINE
8
Default
62
5
5
182
100
AcDbEntity
100
AcDbLine
10
1.809307
20
8.259104
30
0.0
11
1.822530
21
8.275230
31
0.0
0
LINE
8
Default
62
5
5
183
100
AcDbEntity
100
AcDbLine
10
1.822530
20
8.275230
30
0.0
11
1.837659
21
8.289583
31
0.0
0
LINE
8
Default
62
5
5
184
100
AcDbEntity
100
AcDbLine
10
1.837659
20
8.289583
30
0.0
11
1.854457
21
8.301939
31
0.0
0
LINE
8
Default
62
5
5
185
100
AcDbEntity
100
AcDbLine
10
1.854457
20
8.301939
30
0.0
11
1.872664
21
8.312108
31
0.0
0
LINE
8
Default
62
5
5
186
100
AcDbEntity
100
AcDbLine
10
1.872664
20
8.312108
30
0.0
11
1.891996
21
8.319929
31
0.0
0
LINE
8
Default
62
5
5
187
100
AcDbEntity
100
AcDbLine
10
1.891996
20
8.319929
30
0.0
11
1.912151
21
8.325282
31
0.0
0
LINE
8
Default
62
5
5
188
100
AcDbEntity
100
AcDbLine
10
1.912151
20
8.325282
30
0.0
11
1.932816
21
8.328082
31
0.0
0
LINE
8
Default
62
5
5
189
100
AcDbEntity
100
AcDbLine
10
1.932816
20
8.328082
30
0.0
11
2.522728
21
8.328082
31
0.0
0
LINE
8
Default
62
5
5
18a
100
AcDbEntity
100
AcDbLine
10
2.522728
20
8.328082
30
0.0
11
3.111429
21
7.745477
31
0.0
0
LINE
8
Default
62
5
5
18b
100
AcDbEntity
100
AcDbLine
10
3.111429
20
7.745477
30
0.0
11
3.722223
21
7.745477
31
0.0
0
LINE
8
Default
62
5
5
18c
100
AcDbEntity
100
AcDbLine
10
3.722223
20
7.745477
30
0.0
11
3.722223
21
6.716972
31
0.0
0
LINE
8
Default
62
5
5
18d
100
AcDbEntity
100
AcDbLine
10
3.722223
20
6.716972
30
0.0
11
3.721404
21
6.695993
31
0.0
0
LINE
8
Default
62
5
5
18e
100
AcDbEntity
100
AcDbLine
10
3.721404
20
6.695993
30
0.0
11
3.717890
21
6.675295
31
0.0
0
LINE
8
Default
62
5
5
18f
100
AcDbEntity
100
AcDbLine
10
3.717890
20
6.675295
30
0.0
11
3.711740
21
6.655222
31
0.0
0
LINE
8
Default
62
5
5
190
100
AcDbEntity
100
AcDbLine
10
3.711740
20
6.655222
30
0.0
11
3.703056
21
6.636107
31
0.0
0
LINE
8
Default
62
5
5
191
100
AcDbEntity
100
AcDbLine
10
3.703056
20
6.636107
30
0.0
11
3.691983
21
6.618271
31
0.0
0
LINE
8
Default
62
5
5
192
100
AcDbEntity
100
AcDbLine
10
3.691983
20
6.618271
30
0.0
11
3.678706
21
6.602008
31
0.0
0
LINE
8
Default
62
5
5
193
100
AcDbEntity
100
AcDbLine
10
3.678706
20
6.602008
30
0.0
11
3.663444
21
6.587591
31
0.0
0
LINE
8
Default
62
5
5
194
100
AcDbEntity
100
AcDbLine
10
3.663444
20
6.587591
30
0.0
11
3.646453
21
6.575259
31
0.0
0
LINE
8
Default
62
5
5
195
100
AcDbEntity
100
AcDbLine
10
3.646453
20
6.575259
30
0.0
11
3.628016
21
6.565218
31
0.0
0
LINE
8
Default
62
5
5
196
100
AcDbEntity
100
AcDbLine
10
3.628016
20
6.565218
30
0.0
11
3.608439
21
6.557635
31
0.0
0
LINE
8
Default
62
5
5
197
100
AcDbEntity
100
AcDbLine
10
3.608439
20
6.557635
30
0.0
11
3.588048
21
6.552636
31
0.0
0
LINE
8
Default
62
5
5
198
100
AcDbEntity
100
AcDbLine
10
3.588048
20
6.552636
30
0.0
11
3.567184
21
6.550305
31
0.0
0
LINE
8
Default
62
5
5
199
100
AcDbEntity
100
AcDbLine
10
3.567184
20
6.550305
30
0.0
11
1.932816
21
6.550305
31
0.0
0
LINE
8
Default
62
5
5
19a
100
AcDbEntity
100
AcDbLine
10
0.688889
20
8.061417
30
0.0
11
0.688889
21
8.200305
31
0.0
0
LINE
8
Default
62
5
5
19b
100
AcDbEntity
100
AcDbLine
10
0.688889
20
8.200305
30
0.0
11
0.811111
21
8.200305
31
0.0
0
LINE
8
Default
62
5
5
19c
100
AcDbEntity
100
AcDbLine
10
0.811111
20
8.200305
30
0.0
11
0.811111
21
8.061417
31
0.0
0
LINE
8
Default
62
5
5
19d
100
AcDbEntity
100
AcDbLine
10
0.811111
20
8.061417
30
0.0
11
0.688889
21
8.061417
31
0.0
  0
ENDSEC
  0
SECTION
  2
OBJECTS
  0
DICTIONARY
  5
C
330
0
100
AcDbDictionary
  3
ACAD_GROUP
350
D
  3
ACAD_MLINESTYLE
350
17
  0
DICTIONARY
  5
D
330
C
100
AcDbDictionary
  0
DICTIONARY
  5
1A
330
C
100
AcDbDictionary
  0
DICTIONARY
  5
17
330
C
100
AcDbDictionary
  3
STANDARD
350
18
  0
DICTIONARY
  5
19
330
C
100
AcDbDictionary
  0
ENDSEC
  0
EOF
