999
Inkscape export via Big Blue Saws DXF Export" (http://www.bigbluesaw.com/saw/big-blue-saw-blog/general-updates/big-blue-saws-dxf-export-for-inkscape.html)
  0
SECTION
  2
HEADER
  9
$ACADVER
  1
AC1014
  9
$HANDSEED
  5
FFFF
  0
$INSUNITS
 70
 1
 9
ENDSEC
  0
SECTION
  2
TABLES
  0
TABLE
  2
VPORT
  5
8
330
0
100
AcDbSymbolTable
 70
     4
  0
VPORT
  5
2E
330
8
100
AcDbSymbolTableRecord
100
AcDbViewportTableRecord
  2
*ACTIVE
 70
     0
 10
0.0
 20
0.0
 11
1.0
 21
1.0
 12
4.25
 22
5.5
 13
0.0
 23
0.0
 14
10.0
 24
10.0
 15
10.0
 25
10.0
 16
0.0
 26
0.0
 36
1.0
 17
0.0
 27
0.0
 37
0.0
 40
11
 41
1.24
 42
50.0
 43
0.0
 44
0.0
 50
0.0
 51
0.0
 71
     0
 72
   100
 73
     1
 74
     3
 75
     0
 76
     0
 77
     0
 78
     0
  0
ENDTAB
  0
TABLE
  2
LTYPE
  5
5
330
0
100
AcDbSymbolTable
 70
     1
  0
LTYPE
  5
14
330
5
100
AcDbSymbolTableRecord
100
AcDbLinetypeTableRecord
  2
BYBLOCK
 70
     0
  3

 72
    65
 73
     0
 40
0.0
  0
LTYPE
  5
15
330
5
100
AcDbSymbolTableRecord
100
AcDbLinetypeTableRecord
  2
BYLAYER
 70
     0
  3

 72
    65
 73
     0
 40
0.0
  0
LTYPE
  5
16
330
5
100
AcDbSymbolTableRecord
100
AcDbLinetypeTableRecord
  2
CONTINUOUS
 70
     0
  3
Solid line
 72
    65
 73
     0
 40
0.0
  0
ENDTAB
  0
TABLE
  2
STYLE
  5
3
330
0
100
AcDbSymbolTable
 70
     1
  0
STYLE
  5
11
330
3
100
AcDbSymbolTableRecord
100
AcDbTextStyleTableRecord
  2
STANDARD
 70
     0
 40
0.0
 41
1.0
 50
0.0
 71
     0
 42
2.5
  3
txt
  4

  0
ENDTAB
  0
TABLE
  2
VIEW
  5
6
330
0
100
AcDbSymbolTable
 70
     0
  0
ENDTAB
  0
TABLE
  2
UCS
  5
7
330
0
100
AcDbSymbolTable
 70
     0
  0
ENDTAB
  0
TABLE
  2
APPID
  5
9
330
0
100
AcDbSymbolTable
 70
     2
  0
APPID
  5
12
330
9
100
AcDbSymbolTableRecord
100
AcDbRegAppTableRecord
  2
ACAD
 70
     0
  0
ENDTAB
  0
TABLE
  2
DIMSTYLE
  5
A
330
0
100
AcDbSymbolTable
 70
     1
  0
DIMSTYLE
105
27
330
A
100
AcDbSymbolTableRecord
100
AcDbDimStyleTableRecord
  2
ISO-25
 70
     0
  3

  4

  5

  6

  7

 40
1.0
 41
2.5
 42
0.625
 43
3.75
 44
1.25
 45
0.0
 46
0.0
 47
0.0
 48
0.0
140
2.5
141
2.5
142
0.0
143
0.03937007874016
144
1.0
145
0.0
146
1.0
147
0.625
 71
     0
 72
     0
 73
     0
 74
     0
 75
     0
 76
     0
 77
     1
 78
     8
170
     0
171
     3
172
     1
173
     0
174
     0
175
     0
176
     0
177
     0
178
     0
270
     2
271
     2
272
     2
273
     2
274
     3
340
11
275
     0
280
     0
281
     0
282
     0
283
     0
284
     8
285
     0
286
     0
287
     3
288
     0
  0
ENDTAB
  0
TABLE
  2
BLOCK_RECORD
  5
1
330
0
100
AcDbSymbolTable
 70
     1
  0
BLOCK_RECORD
  5
1F
330
1
100
AcDbSymbolTableRecord
100
AcDbBlockTableRecord
  2
*MODEL_SPACE
  0
BLOCK_RECORD
  5
1B
330
1
100
AcDbSymbolTableRecord
100
AcDbBlockTableRecord
  2
*PAPER_SPACE
  0
ENDTAB
0
TABLE
2
LAYER
5
2
330
0
100
AcDbSymbolTable
70
1
0
LAYER
5
10
330
2
100
AcDbSymbolTableRecord
100
AcDbLayerTableRecord
2
Default
70
0
62
7
6
CONTINUOUS
0
ENDTAB
0
ENDSEC
  0
SECTION
  2
BLOCKS
  0
BLOCK
  5
20
330
1F
100
AcDbEntity
  8
0
100
AcDbBlockBegin
  2
*MODEL_SPACE
 70
     0
 10
0.0
 20
0.0
 30
0.0
  3
*MODEL_SPACE
  1

  0
ENDBLK
  5
21
330
1F
100
AcDbEntity
  8
0
100
AcDbBlockEnd
  0
BLOCK
  5
1C
330
1B
100
AcDbEntity
 67
     1
  8
0
100
AcDbBlockBegin
  2
*PAPER_SPACE
  1

  0
ENDBLK
  5
1D
330
1B
100
AcDbEntity
 67
     1
  8
0
100
AcDbBlockEnd
  0
ENDSEC
  0
SECTION
  2
ENTITIES
0
LINE
8
Default
62
5
5
100
100
AcDbEntity
100
AcDbLine
10
4.000000
20
8.550305
30
0.0
11
0.111111
21
8.550305
31
0.0
0
LINE
8
Default
62
5
5
101
100
AcDbEntity
100
AcDbLine
10
0.111111
20
8.550305
30
0.0
11
0.111111
21
6.328083
31
0.0
0
LINE
8
Default
62
5
5
102
100
AcDbEntity
100
AcDbLine
10
0.111111
20
6.328083
30
0.0
11
4.000000
21
6.328083
31
0.0
0
LINE
8
Default
62
5
5
103
100
AcDbEntity
100
AcDbLine
10
4.000000
20
6.328083
30
0.0
11
4.000000
21
8.550305
31
0.0
0
LINE
8
Default
62
5
5
104
100
AcDbEntity
100
AcDbLine
10
0.344340
20
6.419926
30
0.0
11
0.337201
21
6.417815
31
0.0
0
LINE
8
Default
62
5
5
105
100
AcDbEntity
100
AcDbLine
10
0.337201
20
6.417815
30
0.0
11
0.329759
21
6.417624
31
0.0
0
LINE
8
Default
62
5
5
106
100
AcDbEntity
100
AcDbLine
10
0.329759
20
6.417624
30
0.0
11
0.322521
21
6.419365
31
0.0
0
LINE
8
Default
62
5
5
107
100
AcDbEntity
100
AcDbLine
10
0.322521
20
6.419365
30
0.0
11
0.315980
21
6.422920
31
0.0
0
LINE
8
Default
62
5
5
108
100
AcDbEntity
100
AcDbLine
10
0.315980
20
6.422920
30
0.0
11
0.310583
21
6.428048
31
0.0
0
LINE
8
Default
62
5
5
109
100
AcDbEntity
100
AcDbLine
10
0.310583
20
6.428048
30
0.0
11
0.306696
21
6.434397
31
0.0
0
LINE
8
Default
62
5
5
10a
100
AcDbEntity
100
AcDbLine
10
0.306696
20
6.434397
30
0.0
11
0.304586
21
6.441536
31
0.0
0
LINE
8
Default
62
5
5
10b
100
AcDbEntity
100
AcDbLine
10
0.304586
20
6.441536
30
0.0
11
0.304394
21
6.448978
31
0.0
0
LINE
8
Default
62
5
5
10c
100
AcDbEntity
100
AcDbLine
10
0.304394
20
6.448978
30
0.0
11
0.306136
21
6.456216
31
0.0
0
LINE
8
Default
62
5
5
10d
100
AcDbEntity
100
AcDbLine
10
0.306136
20
6.456216
30
0.0
11
0.309691
21
6.462756
31
0.0
0
LINE
8
Default
62
5
5
10e
100
AcDbEntity
100
AcDbLine
10
0.309691
20
6.462756
30
0.0
11
0.314818
21
6.468154
31
0.0
0
LINE
8
Default
62
5
5
10f
100
AcDbEntity
100
AcDbLine
10
0.314818
20
6.468154
30
0.0
11
0.321168
21
6.472041
31
0.0
0
LINE
8
Default
62
5
5
110
100
AcDbEntity
100
AcDbLine
10
0.321168
20
6.472041
30
0.0
11
0.328307
21
6.474151
31
0.0
0
LINE
8
Default
62
5
5
111
100
AcDbEntity
100
AcDbLine
10
0.328307
20
6.474151
30
0.0
11
0.335749
21
6.474343
31
0.0
0
LINE
8
Default
62
5
5
112
100
AcDbEntity
100
AcDbLine
10
0.335749
20
6.474343
30
0.0
11
0.342986
21
6.472601
31
0.0
0
LINE
8
Default
62
5
5
113
100
AcDbEntity
100
AcDbLine
10
0.342986
20
6.472601
30
0.0
11
0.349527
21
6.469046
31
0.0
0
LINE
8
Default
62
5
5
114
100
AcDbEntity
100
AcDbLine
10
0.349527
20
6.469046
30
0.0
11
0.354925
21
6.463919
31
0.0
0
LINE
8
Default
62
5
5
115
100
AcDbEntity
100
AcDbLine
10
0.354925
20
6.463919
30
0.0
11
0.358811
21
6.457569
31
0.0
0
LINE
8
Default
62
5
5
116
100
AcDbEntity
100
AcDbLine
10
0.358811
20
6.457569
30
0.0
11
0.360922
21
6.450430
31
0.0
0
LINE
8
Default
62
5
5
117
100
AcDbEntity
100
AcDbLine
10
0.360922
20
6.450430
30
0.0
11
0.361113
21
6.442988
31
0.0
0
LINE
8
Default
62
5
5
118
100
AcDbEntity
100
AcDbLine
10
0.361113
20
6.442988
30
0.0
11
0.359372
21
6.435750
31
0.0
0
LINE
8
Default
62
5
5
119
100
AcDbEntity
100
AcDbLine
10
0.359372
20
6.435750
30
0.0
11
0.355816
21
6.429210
31
0.0
0
LINE
8
Default
62
5
5
11a
100
AcDbEntity
100
AcDbLine
10
0.355816
20
6.429210
30
0.0
11
0.350689
21
6.423812
31
0.0
0
LINE
8
Default
62
5
5
11b
100
AcDbEntity
100
AcDbLine
10
0.350689
20
6.423812
30
0.0
11
0.344340
21
6.419926
31
0.0
0
LINE
8
Default
62
5
5
11c
100
AcDbEntity
100
AcDbLine
10
0.311043
20
8.424789
30
0.0
11
0.307072
21
8.431028
31
0.0
0
LINE
8
Default
62
5
5
11d
100
AcDbEntity
100
AcDbLine
10
0.307072
20
8.431028
30
0.0
11
0.304851
21
8.438083
31
0.0
0
LINE
8
Default
62
5
5
11e
100
AcDbEntity
100
AcDbLine
10
0.304851
20
8.438083
30
0.0
11
0.304532
21
8.445472
31
0.0
0
LINE
8
Default
62
5
5
11f
100
AcDbEntity
100
AcDbLine
10
0.304532
20
8.445472
30
0.0
11
0.306136
21
8.452691
31
0.0
0
LINE
8
Default
62
5
5
120
100
AcDbEntity
100
AcDbLine
10
0.306136
20
8.452691
30
0.0
11
0.309554
21
8.459250
31
0.0
0
LINE
8
Default
62
5
5
121
100
AcDbEntity
100
AcDbLine
10
0.309554
20
8.459250
30
0.0
11
0.314553
21
8.464701
31
0.0
0
LINE
8
Default
62
5
5
122
100
AcDbEntity
100
AcDbLine
10
0.314553
20
8.464701
30
0.0
11
0.320792
21
8.468672
31
0.0
0
LINE
8
Default
62
5
5
123
100
AcDbEntity
100
AcDbLine
10
0.320792
20
8.468672
30
0.0
11
0.327846
21
8.470893
31
0.0
0
LINE
8
Default
62
5
5
124
100
AcDbEntity
100
AcDbLine
10
0.327846
20
8.470893
30
0.0
11
0.335235
21
8.471212
31
0.0
0
LINE
8
Default
62
5
5
125
100
AcDbEntity
100
AcDbLine
10
0.335235
20
8.471212
30
0.0
11
0.342455
21
8.469608
31
0.0
0
LINE
8
Default
62
5
5
126
100
AcDbEntity
100
AcDbLine
10
0.342455
20
8.469608
30
0.0
11
0.349014
21
8.466190
31
0.0
0
LINE
8
Default
62
5
5
127
100
AcDbEntity
100
AcDbLine
10
0.349014
20
8.466190
30
0.0
11
0.354464
21
8.461191
31
0.0
0
LINE
8
Default
62
5
5
128
100
AcDbEntity
100
AcDbLine
10
0.354464
20
8.461191
30
0.0
11
0.358435
21
8.454952
31
0.0
0
LINE
8
Default
62
5
5
129
100
AcDbEntity
100
AcDbLine
10
0.358435
20
8.454952
30
0.0
11
0.360656
21
8.447897
31
0.0
0
LINE
8
Default
62
5
5
12a
100
AcDbEntity
100
AcDbLine
10
0.360656
20
8.447897
30
0.0
11
0.360976
21
8.440508
31
0.0
0
LINE
8
Default
62
5
5
12b
100
AcDbEntity
100
AcDbLine
10
0.360976
20
8.440508
30
0.0
11
0.359372
21
8.433289
31
0.0
0
LINE
8
Default
62
5
5
12c
100
AcDbEntity
100
AcDbLine
10
0.359372
20
8.433289
30
0.0
11
0.355954
21
8.426730
31
0.0
0
LINE
8
Default
62
5
5
12d
100
AcDbEntity
100
AcDbLine
10
0.355954
20
8.426730
30
0.0
11
0.350955
21
8.421279
31
0.0
0
LINE
8
Default
62
5
5
12e
100
AcDbEntity
100
AcDbLine
10
0.350955
20
8.421279
30
0.0
11
0.344716
21
8.417308
31
0.0
0
LINE
8
Default
62
5
5
12f
100
AcDbEntity
100
AcDbLine
10
0.344716
20
8.417308
30
0.0
11
0.337661
21
8.415087
31
0.0
0
LINE
8
Default
62
5
5
130
100
AcDbEntity
100
AcDbLine
10
0.337661
20
8.415087
30
0.0
11
0.330272
21
8.414768
31
0.0
0
LINE
8
Default
62
5
5
131
100
AcDbEntity
100
AcDbLine
10
0.330272
20
8.414768
30
0.0
11
0.323052
21
8.416372
31
0.0
0
LINE
8
Default
62
5
5
132
100
AcDbEntity
100
AcDbLine
10
0.323052
20
8.416372
30
0.0
11
0.316494
21
8.419790
31
0.0
0
LINE
8
Default
62
5
5
133
100
AcDbEntity
100
AcDbLine
10
0.316494
20
8.419790
30
0.0
11
0.311043
21
8.424789
31
0.0
0
LINE
8
Default
62
5
5
134
100
AcDbEntity
100
AcDbLine
10
3.914926
20
8.433289
30
0.0
11
3.911538
21
8.426954
31
0.0
0
LINE
8
Default
62
5
5
135
100
AcDbEntity
100
AcDbLine
10
3.911538
20
8.426954
30
0.0
11
3.906625
21
8.421713
31
0.0
0
LINE
8
Default
62
5
5
136
100
AcDbEntity
100
AcDbLine
10
3.906625
20
8.421713
30
0.0
11
3.900524
21
8.417922
31
0.0
0
LINE
8
Default
62
5
5
137
100
AcDbEntity
100
AcDbLine
10
3.900524
20
8.417922
30
0.0
11
3.893649
21
8.415839
31
0.0
0
LINE
8
Default
62
5
5
138
100
AcDbEntity
100
AcDbLine
10
3.893649
20
8.415839
30
0.0
11
3.886470
21
8.415606
31
0.0
0
LINE
8
Default
62
5
5
139
100
AcDbEntity
100
AcDbLine
10
3.886470
20
8.415606
30
0.0
11
3.879474
21
8.417240
31
0.0
0
LINE
8
Default
62
5
5
13a
100
AcDbEntity
100
AcDbLine
10
3.879474
20
8.417240
30
0.0
11
3.873140
21
8.420628
31
0.0
0
LINE
8
Default
62
5
5
13b
100
AcDbEntity
100
AcDbLine
10
3.873140
20
8.420628
30
0.0
11
3.867899
21
8.425540
31
0.0
0
LINE
8
Default
62
5
5
13c
100
AcDbEntity
100
AcDbLine
10
3.867899
20
8.425540
30
0.0
11
3.864108
21
8.431642
31
0.0
0
LINE
8
Default
62
5
5
13d
100
AcDbEntity
100
AcDbLine
10
3.864108
20
8.431642
30
0.0
11
3.862025
21
8.438516
31
0.0
0
LINE
8
Default
62
5
5
13e
100
AcDbEntity
100
AcDbLine
10
3.862025
20
8.438516
30
0.0
11
3.861792
21
8.445696
31
0.0
0
LINE
8
Default
62
5
5
13f
100
AcDbEntity
100
AcDbLine
10
3.861792
20
8.445696
30
0.0
11
3.863425
21
8.452691
31
0.0
0
LINE
8
Default
62
5
5
140
100
AcDbEntity
100
AcDbLine
10
3.863425
20
8.452691
30
0.0
11
3.866814
21
8.459025
31
0.0
0
LINE
8
Default
62
5
5
141
100
AcDbEntity
100
AcDbLine
10
3.866814
20
8.459025
30
0.0
11
3.871726
21
8.464267
31
0.0
0
LINE
8
Default
62
5
5
142
100
AcDbEntity
100
AcDbLine
10
3.871726
20
8.464267
30
0.0
11
3.877827
21
8.468058
31
0.0
0
LINE
8
Default
62
5
5
143
100
AcDbEntity
100
AcDbLine
10
3.877827
20
8.468058
30
0.0
11
3.884702
21
8.470141
31
0.0
0
LINE
8
Default
62
5
5
144
100
AcDbEntity
100
AcDbLine
10
3.884702
20
8.470141
30
0.0
11
3.891882
21
8.470374
31
0.0
0
LINE
8
Default
62
5
5
145
100
AcDbEntity
100
AcDbLine
10
3.891882
20
8.470374
30
0.0
11
3.898877
21
8.468740
31
0.0
0
LINE
8
Default
62
5
5
146
100
AcDbEntity
100
AcDbLine
10
3.898877
20
8.468740
30
0.0
11
3.905211
21
8.465352
31
0.0
0
LINE
8
Default
62
5
5
147
100
AcDbEntity
100
AcDbLine
10
3.905211
20
8.465352
30
0.0
11
3.910452
21
8.460440
31
0.0
0
LINE
8
Default
62
5
5
148
100
AcDbEntity
100
AcDbLine
10
3.910452
20
8.460440
30
0.0
11
3.914244
21
8.454338
31
0.0
0
LINE
8
Default
62
5
5
149
100
AcDbEntity
100
AcDbLine
10
3.914244
20
8.454338
30
0.0
11
3.916327
21
8.447463
31
0.0
0
LINE
8
Default
62
5
5
14a
100
AcDbEntity
100
AcDbLine
10
3.916327
20
8.447463
30
0.0
11
3.916559
21
8.440284
31
0.0
0
LINE
8
Default
62
5
5
14b
100
AcDbEntity
100
AcDbLine
10
3.916559
20
8.440284
30
0.0
11
3.914926
21
8.433289
31
0.0
0
LINE
8
Default
62
5
5
14c
100
AcDbEntity
100
AcDbLine
10
3.866669
20
6.430489
30
0.0
11
3.863425
21
6.436842
31
0.0
0
LINE
8
Default
62
5
5
14d
100
AcDbEntity
100
AcDbLine
10
3.863425
20
6.436842
30
0.0
11
3.861937
21
6.443818
31
0.0
0
LINE
8
Default
62
5
5
14e
100
AcDbEntity
100
AcDbLine
10
3.861937
20
6.443818
30
0.0
11
3.862305
21
6.450942
31
0.0
0
LINE
8
Default
62
5
5
14f
100
AcDbEntity
100
AcDbLine
10
3.862305
20
6.450942
30
0.0
11
3.864504
21
6.457727
31
0.0
0
LINE
8
Default
62
5
5
150
100
AcDbEntity
100
AcDbLine
10
3.864504
20
6.457727
30
0.0
11
3.868384
21
6.463713
31
0.0
0
LINE
8
Default
62
5
5
151
100
AcDbEntity
100
AcDbLine
10
3.868384
20
6.463713
30
0.0
11
3.873681
21
6.468490
31
0.0
0
LINE
8
Default
62
5
5
152
100
AcDbEntity
100
AcDbLine
10
3.873681
20
6.468490
30
0.0
11
3.880034
21
6.471733
31
0.0
0
LINE
8
Default
62
5
5
153
100
AcDbEntity
100
AcDbLine
10
3.880034
20
6.471733
30
0.0
11
3.887010
21
6.473222
31
0.0
0
LINE
8
Default
62
5
5
154
100
AcDbEntity
100
AcDbLine
10
3.887010
20
6.473222
30
0.0
11
3.894134
21
6.472854
31
0.0
0
LINE
8
Default
62
5
5
155
100
AcDbEntity
100
AcDbLine
10
3.894134
20
6.472854
30
0.0
11
3.900920
21
6.470655
31
0.0
0
LINE
8
Default
62
5
5
156
100
AcDbEntity
100
AcDbLine
10
3.900920
20
6.470655
30
0.0
11
3.906905
21
6.466775
31
0.0
0
LINE
8
Default
62
5
5
157
100
AcDbEntity
100
AcDbLine
10
3.906905
20
6.466775
30
0.0
11
3.911683
21
6.461478
31
0.0
0
LINE
8
Default
62
5
5
158
100
AcDbEntity
100
AcDbLine
10
3.911683
20
6.461478
30
0.0
11
3.914926
21
6.455125
31
0.0
0
LINE
8
Default
62
5
5
159
100
AcDbEntity
100
AcDbLine
10
3.914926
20
6.455125
30
0.0
11
3.916414
21
6.448148
31
0.0
0
LINE
8
Default
62
5
5
15a
100
AcDbEntity
100
AcDbLine
10
3.916414
20
6.448148
30
0.0
11
3.916047
21
6.441025
31
0.0
0
LINE
8
Default
62
5
5
15b
100
AcDbEntity
100
AcDbLine
10
3.916047
20
6.441025
30
0.0
11
3.913848
21
6.434239
31
0.0
0
LINE
8
Default
62
5
5
15c
100
AcDbEntity
100
AcDbLine
10
3.913848
20
6.434239
30
0.0
11
3.909968
21
6.428253
31
0.0
0
LINE
8
Default
62
5
5
15d
100
AcDbEntity
100
AcDbLine
10
3.909968
20
6.428253
30
0.0
11
3.904670
21
6.423476
31
0.0
0
LINE
8
Default
62
5
5
15e
100
AcDbEntity
100
AcDbLine
10
3.904670
20
6.423476
30
0.0
11
3.898317
21
6.420233
31
0.0
0
LINE
8
Default
62
5
5
15f
100
AcDbEntity
100
AcDbLine
10
3.898317
20
6.420233
30
0.0
11
3.891341
21
6.418744
31
0.0
0
LINE
8
Default
62
5
5
160
100
AcDbEntity
100
AcDbLine
10
3.891341
20
6.418744
30
0.0
11
3.884217
21
6.419112
31
0.0
0
LINE
8
Default
62
5
5
161
100
AcDbEntity
100
AcDbLine
10
3.884217
20
6.419112
30
0.0
11
3.877432
21
6.421311
31
0.0
0
LINE
8
Default
62
5
5
162
100
AcDbEntity
100
AcDbLine
10
3.877432
20
6.421311
30
0.0
11
3.871446
21
6.425191
31
0.0
0
LINE
8
Default
62
5
5
163
100
AcDbEntity
100
AcDbLine
10
3.871446
20
6.425191
30
0.0
11
3.866669
21
6.430489
31
0.0
0
LINE
8
Default
62
5
5
164
100
AcDbEntity
100
AcDbLine
10
2.962122
20
6.810405
30
0.0
11
3.277776
21
6.810405
31
0.0
0
LINE
8
Default
62
5
5
165
100
AcDbEntity
100
AcDbLine
10
3.277776
20
6.810405
30
0.0
11
3.482320
21
6.605862
31
0.0
0
LINE
8
Default
62
5
5
166
100
AcDbEntity
100
AcDbLine
10
3.482320
20
6.605862
30
0.0
11
3.177490
21
6.605862
31
0.0
0
LINE
8
Default
62
5
5
167
100
AcDbEntity
100
AcDbLine
10
3.177490
20
6.605862
30
0.0
11
2.962122
21
6.810405
31
0.0
0
LINE
8
Default
62
5
5
168
100
AcDbEntity
100
AcDbLine
10
3.277776
20
6.845763
30
0.0
11
2.962122
21
6.845763
31
0.0
0
LINE
8
Default
62
5
5
169
100
AcDbEntity
100
AcDbLine
10
2.962122
20
6.845763
30
0.0
11
3.177490
21
7.050306
31
0.0
0
LINE
8
Default
62
5
5
16a
100
AcDbEntity
100
AcDbLine
10
3.177490
20
7.050306
30
0.0
11
3.482320
21
7.050306
31
0.0
0
LINE
8
Default
62
5
5
16b
100
AcDbEntity
100
AcDbLine
10
3.482320
20
7.050306
30
0.0
11
3.277776
21
6.845763
31
0.0
0
LINE
8
Default
62
5
5
16c
100
AcDbEntity
100
AcDbLine
10
3.514157
20
6.628285
30
0.0
11
3.319712
21
6.827119
31
0.0
0
LINE
8
Default
62
5
5
16d
100
AcDbEntity
100
AcDbLine
10
3.319712
20
6.827119
30
0.0
11
3.514157
21
7.025953
31
0.0
0
LINE
8
Default
62
5
5
16e
100
AcDbEntity
100
AcDbLine
10
3.514157
20
7.025953
30
0.0
11
3.708603
21
6.827119
31
0.0
0
LINE
8
Default
62
5
5
16f
100
AcDbEntity
100
AcDbLine
10
3.708603
20
6.827119
30
0.0
11
3.514157
21
6.628285
31
0.0
0
LINE
8
Default
62
5
5
170
100
AcDbEntity
100
AcDbLine
10
1.911599
20
8.326629
30
0.0
11
1.932816
21
8.328084
31
0.0
0
LINE
8
Default
62
5
5
171
100
AcDbEntity
100
AcDbLine
10
1.932816
20
8.328084
30
0.0
11
3.567184
21
8.328084
31
0.0
0
LINE
8
Default
62
5
5
172
100
AcDbEntity
100
AcDbLine
10
3.567184
20
8.328084
30
0.0
11
3.588048
21
8.325753
31
0.0
0
LINE
8
Default
62
5
5
173
100
AcDbEntity
100
AcDbLine
10
3.588048
20
8.325753
30
0.0
11
3.608439
21
8.320754
31
0.0
0
LINE
8
Default
62
5
5
174
100
AcDbEntity
100
AcDbLine
10
3.608439
20
8.320754
30
0.0
11
3.628016
21
8.313171
31
0.0
0
LINE
8
Default
62
5
5
175
100
AcDbEntity
100
AcDbLine
10
3.628016
20
8.313171
30
0.0
11
3.646453
21
8.303130
31
0.0
0
LINE
8
Default
62
5
5
176
100
AcDbEntity
100
AcDbLine
10
3.646453
20
8.303130
30
0.0
11
3.663444
21
8.290798
31
0.0
0
LINE
8
Default
62
5
5
177
100
AcDbEntity
100
AcDbLine
10
3.663444
20
8.290798
30
0.0
11
3.678706
21
8.276381
31
0.0
0
LINE
8
Default
62
5
5
178
100
AcDbEntity
100
AcDbLine
10
3.678706
20
8.276381
30
0.0
11
3.691983
21
8.260118
31
0.0
0
LINE
8
Default
62
5
5
179
100
AcDbEntity
100
AcDbLine
10
3.691983
20
8.260118
30
0.0
11
3.703056
21
8.242281
31
0.0
0
LINE
8
Default
62
5
5
17a
100
AcDbEntity
100
AcDbLine
10
3.703056
20
8.242281
30
0.0
11
3.711740
21
8.223167
31
0.0
0
LINE
8
Default
62
5
5
17b
100
AcDbEntity
100
AcDbLine
10
3.711740
20
8.223167
30
0.0
11
3.717890
21
8.203094
31
0.0
0
LINE
8
Default
62
5
5
17c
100
AcDbEntity
100
AcDbLine
10
3.717890
20
8.203094
30
0.0
11
3.721404
21
8.182396
31
0.0
0
LINE
8
Default
62
5
5
17d
100
AcDbEntity
100
AcDbLine
10
3.721404
20
8.182396
30
0.0
11
3.722223
21
8.161417
31
0.0
0
LINE
8
Default
62
5
5
17e
100
AcDbEntity
100
AcDbLine
10
3.722223
20
8.161417
30
0.0
11
3.722223
21
7.132912
31
0.0
0
LINE
8
Default
62
5
5
17f
100
AcDbEntity
100
AcDbLine
10
3.722223
20
7.132912
30
0.0
11
3.111429
21
7.132912
31
0.0
0
LINE
8
Default
62
5
5
180
100
AcDbEntity
100
AcDbLine
10
3.111429
20
7.132912
30
0.0
11
2.522728
21
6.550307
31
0.0
0
LINE
8
Default
62
5
5
181
100
AcDbEntity
100
AcDbLine
10
2.522728
20
6.550307
30
0.0
11
1.932816
21
6.550307
31
0.0
0
LINE
8
Default
62
5
5
182
100
AcDbEntity
100
AcDbLine
10
1.932816
20
6.550307
30
0.0
11
1.912151
21
6.553107
31
0.0
0
LINE
8
Default
62
5
5
183
100
AcDbEntity
100
AcDbLine
10
1.912151
20
6.553107
30
0.0
11
1.891996
21
6.558460
31
0.0
0
LINE
8
Default
62
5
5
184
100
AcDbEntity
100
AcDbLine
10
1.891996
20
6.558460
30
0.0
11
1.872664
21
6.566281
31
0.0
0
LINE
8
Default
62
5
5
185
100
AcDbEntity
100
AcDbLine
10
1.872664
20
6.566281
30
0.0
11
1.854457
21
6.576449
31
0.0
0
LINE
8
Default
62
5
5
186
100
AcDbEntity
100
AcDbLine
10
1.854457
20
6.576449
30
0.0
11
1.837659
21
6.588806
31
0.0
0
LINE
8
Default
62
5
5
187
100
AcDbEntity
100
AcDbLine
10
1.837659
20
6.588806
30
0.0
11
1.822530
21
6.603159
31
0.0
0
LINE
8
Default
62
5
5
188
100
AcDbEntity
100
AcDbLine
10
1.822530
20
6.603159
30
0.0
11
1.809307
21
6.619285
31
0.0
0
LINE
8
Default
62
5
5
189
100
AcDbEntity
100
AcDbLine
10
1.809307
20
6.619285
30
0.0
11
1.798195
21
6.636932
31
0.0
0
LINE
8
Default
62
5
5
18a
100
AcDbEntity
100
AcDbLine
10
1.798195
20
6.636932
30
0.0
11
1.789368
21
6.655825
31
0.0
0
LINE
8
Default
62
5
5
18b
100
AcDbEntity
100
AcDbLine
10
1.789368
20
6.655825
30
0.0
11
1.782962
21
6.675671
31
0.0
0
LINE
8
Default
62
5
5
18c
100
AcDbEntity
100
AcDbLine
10
1.782962
20
6.675671
30
0.0
11
1.779079
21
6.696160
31
0.0
0
LINE
8
Default
62
5
5
18d
100
AcDbEntity
100
AcDbLine
10
1.779079
20
6.696160
30
0.0
11
1.777777
21
6.716974
31
0.0
0
LINE
8
Default
62
5
5
18e
100
AcDbEntity
100
AcDbLine
10
1.777777
20
6.716974
30
0.0
11
1.777777
21
8.161417
31
0.0
0
LINE
8
Default
62
5
5
18f
100
AcDbEntity
100
AcDbLine
10
1.777777
20
8.161417
30
0.0
11
1.777697
21
8.182684
31
0.0
0
LINE
8
Default
62
5
5
190
100
AcDbEntity
100
AcDbLine
10
1.777697
20
8.182684
30
0.0
11
1.780519
21
8.203763
31
0.0
0
LINE
8
Default
62
5
5
191
100
AcDbEntity
100
AcDbLine
10
1.780519
20
8.203763
30
0.0
11
1.786193
21
8.224259
31
0.0
0
LINE
8
Default
62
5
5
192
100
AcDbEntity
100
AcDbLine
10
1.786193
20
8.224259
30
0.0
11
1.794611
21
8.243789
31
0.0
0
LINE
8
Default
62
5
5
193
100
AcDbEntity
100
AcDbLine
10
1.794611
20
8.243789
30
0.0
11
1.805616
21
8.261988
31
0.0
0
LINE
8
Default
62
5
5
194
100
AcDbEntity
100
AcDbLine
10
1.805616
20
8.261988
30
0.0
11
1.819002
21
8.278513
31
0.0
0
LINE
8
Default
62
5
5
195
100
AcDbEntity
100
AcDbLine
10
1.819002
20
8.278513
30
0.0
11
1.834518
21
8.293057
31
0.0
0
LINE
8
Default
62
5
5
196
100
AcDbEntity
100
AcDbLine
10
1.834518
20
8.293057
30
0.0
11
1.851874
21
8.305348
31
0.0
0
LINE
8
Default
62
5
5
197
100
AcDbEntity
100
AcDbLine
10
1.851874
20
8.305348
30
0.0
11
1.870746
21
8.315154
31
0.0
0
LINE
8
Default
62
5
5
198
100
AcDbEntity
100
AcDbLine
10
1.870746
20
8.315154
30
0.0
11
1.890779
21
8.322292
31
0.0
0
LINE
8
Default
62
5
5
199
100
AcDbEntity
100
AcDbLine
10
1.890779
20
8.322292
30
0.0
11
1.911599
21
8.326629
31
0.0
  0
ENDSEC
  0
SECTION
  2
OBJECTS
  0
DICTIONARY
  5
C
330
0
100
AcDbDictionary
  3
ACAD_GROUP
350
D
  3
ACAD_MLINESTYLE
350
17
  0
DICTIONARY
  5
D
330
C
100
AcDbDictionary
  0
DICTIONARY
  5
1A
330
C
100
AcDbDictionary
  0
DICTIONARY
  5
17
330
C
100
AcDbDictionary
  3
STANDARD
350
18
  0
DICTIONARY
  5
19
330
C
100
AcDbDictionary
  0
ENDSEC
  0
EOF
