  0
SECTION
  2
HEADER
  9
$ACADVER
  1
AC1014
  9
$ACADMAINTVER
 70
     9
  9
$DWGCODEPAGE
  3
ANSI_1252
  9
$INSBASE
 10
0.0
 20
0.0
 30
0.0
  9
$EXTMIN
 10
1.000000000000000E+20
 20
1.000000000000000E+20
 30
1.000000000000000E+20
  9
$EXTMAX
 10
-1.000000000000000E+20
 20
-1.000000000000000E+20
 30
-1.000000000000000E+20
  9
$LIMMIN
 10
0.0
 20
0.0
  9
$LIMMAX
 10
12.0
 20
9.0
  9
$ORTHOMODE
 70
     0
  9
$REGENMODE
 70
     1
  9
$FILLMODE
 70
     1
  9
$QTEXTMODE
 70
     0
  9
$MIRRTEXT
 70
     1
  9
$DRAGMODE
 70
     2
  9
$LTSCALE
 40
1.0
  9
$OSMODE
 70
    37
  9
$ATTMODE
 70
     1
  9
$TEXTSIZE
 40
0.2
  9
$TRACEWID
 40
0.05
  9
$TEXTSTYLE
  7
STANDARD
  9
$CLAYER
  8
0
  9
$CELTYPE
  6
BYLAYER
  9
$CECOLOR
 62
   256
  9
$CELTSCALE
 40
1.0
  9
$DELOBJ
 70
     1
  9
$DISPSILH
 70
     0
  9
$DIMSCALE
 40
1.0
  9
$DIMASZ
 40
0.18
  9
$DIMEXO
 40
0.0625
  9
$DIMDLI
 40
0.38
  9
$DIMRND
 40
0.0
  9
$DIMDLE
 40
0.0
  9
$DIMEXE
 40
0.18
  9
$DIMTP
 40
0.0
  9
$DIMTM
 40
0.0
  9
$DIMTXT
 40
0.18
  9
$DIMCEN
 40
0.09
  9
$DIMTSZ
 40
0.0
  9
$DIMTOL
 70
     0
  9
$DIMLIM
 70
     0
  9
$DIMTIH
 70
     1
  9
$DIMTOH
 70
     1
  9
$DIMSE1
 70
     0
  9
$DIMSE2
 70
     0
  9
$DIMTAD
 70
     0
  9
$DIMZIN
 70
     0
  9
$DIMBLK
  1

  9
$DIMASO
 70
     1
  9
$DIMSHO
 70
     1
  9
$DIMPOST
  1

  9
$DIMAPOST
  1

  9
$DIMALT
 70
     0
  9
$DIMALTD
 70
     2
  9
$DIMALTF
 40
25.4
  9
$DIMLFAC
 40
1.0
  9
$DIMTOFL
 70
     0
  9
$DIMTVP
 40
0.0
  9
$DIMTIX
 70
     0
  9
$DIMSOXD
 70
     0
  9
$DIMSAH
 70
     0
  9
$DIMBLK1
  1

  9
$DIMBLK2
  1

  9
$DIMSTYLE
  2
STANDARD
  9
$DIMCLRD
 70
     0
  9
$DIMCLRE
 70
     0
  9
$DIMCLRT
 70
     0
  9
$DIMTFAC
 40
1.0
  9
$DIMGAP
 40
0.09
  9
$DIMJUST
 70
     0
  9
$DIMSD1
 70
     0
  9
$DIMSD2
 70
     0
  9
$DIMTOLJ
 70
     1
  9
$DIMTZIN
 70
     0
  9
$DIMALTZ
 70
     0
  9
$DIMALTTZ
 70
     0
  9
$DIMFIT
 70
     3
  9
$DIMUPT
 70
     0
  9
$DIMUNIT
 70
     2
  9
$DIMDEC
 70
     4
  9
$DIMTDEC
 70
     4
  9
$DIMALTU
 70
     2
  9
$DIMALTTD
 70
     2
  9
$DIMTXSTY
  7
STANDARD
  9
$DIMAUNIT
 70
     0
  9
$LUNITS
 70
     2
  9
$LUPREC
 70
     4
  9
$SKETCHINC
 40
0.1
  9
$FILLETRAD
 40
0.5
  9
$AUNITS
 70
     0
  9
$AUPREC
 70
     0
  9
$MENU
  1
.
  9
$ELEVATION
 40
0.0
  9
$PELEVATION
 40
0.0
  9
$THICKNESS
 40
0.0
  9
$LIMCHECK
 70
     0
  9
$CHAMFERA
 40
0.5
  9
$CHAMFERB
 40
0.5
  9
$CHAMFERC
 40
1.0
  9
$CHAMFERD
 40
0.0
  9
$SKPOLY
 70
     0
  9
$TDCREATE
 40
2456306.993097986
  9
$TDUPDATE
 40
2456306.993097998
  9
$TDINDWG
 40
0.0000000116
  9
$TDUSRTIMER
 40
0.0000000116
  9
$USRTIMER
 70
     1
  9
$ANGBASE
 50
0.0
  9
$ANGDIR
 70
     0
  9
$PDMODE
 70
     0
  9
$PDSIZE
 40
0.0
  9
$PLINEWID
 40
0.0
  9
$COORDS
 70
     1
  9
$SPLFRAME
 70
     0
  9
$SPLINETYPE
 70
     6
  9
$SPLINESEGS
 70
     8
  9
$ATTDIA
 70
     0
  9
$ATTREQ
 70
     1
  9
$HANDLING
 70
     1
  9
$HANDSEED
  5
118
  9
$SURFTAB1
 70
     6
  9
$SURFTAB2
 70
     6
  9
$SURFTYPE
 70
     6
  9
$SURFU
 70
     6
  9
$SURFV
 70
     6
  9
$UCSNAME
  2

  9
$UCSORG
 10
0.0
 20
0.0
 30
0.0
  9
$UCSXDIR
 10
1.0
 20
0.0
 30
0.0
  9
$UCSYDIR
 10
0.0
 20
1.0
 30
0.0
  9
$PUCSNAME
  2

  9
$PUCSORG
 10
0.0
 20
0.0
 30
0.0
  9
$PUCSXDIR
 10
1.0
 20
0.0
 30
0.0
  9
$PUCSYDIR
 10
0.0
 20
1.0
 30
0.0
  9
$USERI1
 70
     0
  9
$USERI2
 70
     0
  9
$USERI3
 70
     0
  9
$USERI4
 70
     0
  9
$USERI5
 70
     0
  9
$USERR1
 40
0.0
  9
$USERR2
 40
0.0
  9
$USERR3
 40
0.0
  9
$USERR4
 40
0.0
  9
$USERR5
 40
0.0
  9
$WORLDVIEW
 70
     1
  9
$SHADEDGE
 70
     3
  9
$SHADEDIF
 70
    70
  9
$TILEMODE
 70
     1
  9
$MAXACTVP
 70
    64
  9
$PINSBASE
 10
0.0
 20
0.0
 30
0.0
  9
$PLIMCHECK
 70
     0
  9
$PEXTMIN
 10
1.000000000000000E+20
 20
1.000000000000000E+20
 30
1.000000000000000E+20
  9
$PEXTMAX
 10
-1.000000000000000E+20
 20
-1.000000000000000E+20
 30
-1.000000000000000E+20
  9
$PLIMMIN
 10
0.0
 20
0.0
  9
$PLIMMAX
 10
12.0
 20
9.0
  9
$UNITMODE
 70
     0
  9
$VISRETAIN
 70
     1
  9
$PLINEGEN
 70
     0
  9
$PSLTSCALE
 70
     1
  9
$TREEDEPTH
 70
  3020
  9
$PICKSTYLE
 70
     1
  9
$CMLSTYLE
  2
STANDARD
  9
$CMLJUST
 70
     0
  9
$CMLSCALE
 40
1.0
  9
$PROXYGRAPHICS
 70
     1
  9
$MEASUREMENT
 70
     0
  0
ENDSEC
  0
SECTION
  2
CLASSES
  0
CLASS
  1
ACDBDICTIONARYWDFLT
  2
AcDbDictionaryWithDefault
  3
ObjectDBX Classes
 90
        0
280
     0
281
     0
  0
CLASS
  1
VISUALSTYLE
  2
AcDbVisualStyle
  3
ObjectDBX Classes
 90
     4095
280
     0
281
     0
  0
CLASS
  1
MATERIAL
  2
AcDbMaterial
  3
ObjectDBX Classes
 90
     1153
280
     0
281
     0
  0
CLASS
  1
DICTIONARYVAR
  2
AcDbDictionaryVar
  3
ObjectDBX Classes
 90
        0
280
     0
281
     0
  0
CLASS
  1
XRECORD
  2
AcDbXrecord
  3
AutoCAD 2000
 90
        0
280
     0
281
     0
  0
CLASS
  1
LWPOLYLINE
  2
AcDbPolyline
  3
AutoCAD 2000
 90
        0
280
     0
281
     1
  0
CLASS
  1
HATCH
  2
AcDbHatch
  3
AutoCAD 2000
 90
        0
280
     0
281
     1
  0
CLASS
  1
ACDBPLACEHOLDER
  2
AcDbPlaceHolder
  3
ObjectDBX Classes
 90
        0
280
     0
281
     0
  0
CLASS
  1
LAYOUT
  2
AcDbLayout
  3
ObjectDBX Classes
 90
        0
280
     0
281
     0
  0
ENDSEC
  0
SECTION
  2
TABLES
  0
TABLE
  2
VPORT
  5
8
330
0
100
AcDbSymbolTable
 70
     1
  0
VPORT
  5
29
330
8
100
AcDbSymbolTableRecord
100
AcDbViewportTableRecord
  2
*ACTIVE
 70
     0
 10
0.0
 20
0.0
 11
1.0
 21
1.0
 12
0.0
 22
0.0
 13
0.0
 23
0.0
 14
0.5
 24
0.5
 15
0.5
 25
0.5
 16
0.0
 26
0.0
 36
1.0
 17
0.0
 27
0.0
 37
-1000.0
 40
370.998632404585
 41
2.050884955752212
 42
50.0
 43
588.3286671091209
 44
754.9198637453977
 50
0.0
 51
0.0
 71
     0
 72
   100
 73
     1
 74
     3
 75
     0
 76
     0
 77
     0
 78
     0
  0
ENDTAB
  0
TABLE
  2
LTYPE
  5
5
330
0
100
AcDbSymbolTable
 70
     1
  0
LTYPE
  5
14
330
5
100
AcDbSymbolTableRecord
100
AcDbLinetypeTableRecord
  2
BYBLOCK
 70
     0
  3

 72
    65
 73
     0
 40
0.0
  0
LTYPE
  5
15
330
5
100
AcDbSymbolTableRecord
100
AcDbLinetypeTableRecord
  2
BYLAYER
 70
     0
  3

 72
    65
 73
     0
 40
0.0
  0
LTYPE
  5
16
330
5
100
AcDbSymbolTableRecord
100
AcDbLinetypeTableRecord
  2
CONTINUOUS
 70
     0
  3
Solid line
 72
    65
 73
     0
 40
0.0
  0
ENDTAB
  0
TABLE
  2
LAYER
  5
2
330
0
100
AcDbSymbolTable
 70
     3
  0
LAYER
  5
10
330
2
100
AcDbSymbolTableRecord
100
AcDbLayerTableRecord
  2
0
 70
     0
 62
     7
  6
CONTINUOUS
  0
LAYER
  5
3F
330
2
100
AcDbSymbolTableRecord
100
AcDbLayerTableRecord
  2
PROFILEEDGES
 70
     0
 62
     7
  6
CONTINUOUS
  0
LAYER
  5
40
330
2
100
AcDbSymbolTableRecord
100
AcDbLayerTableRecord
  2
SECTIONCUTEDGES
 70
     0
 62
     7
  6
CONTINUOUS
  0
ENDTAB
  0
TABLE
  2
STYLE
  5
3
330
0
100
AcDbSymbolTable
 70
     1
  0
STYLE
  5
11
330
3
100
AcDbSymbolTableRecord
100
AcDbTextStyleTableRecord
  2
STANDARD
 70
     0
 40
0.0
 41
1.0
 50
0.0
 71
     0
 42
0.2
  3
txt
  4

  0
ENDTAB
  0
TABLE
  2
VIEW
  5
6
330
0
100
AcDbSymbolTable
 70
     0
  0
ENDTAB
  0
TABLE
  2
UCS
  5
7
330
0
100
AcDbSymbolTable
 70
     0
  0
ENDTAB
  0
TABLE
  2
APPID
  5
9
330
0
100
AcDbSymbolTable
 70
     1
  0
APPID
  5
12
330
9
100
AcDbSymbolTableRecord
100
AcDbRegAppTableRecord
  2
ACAD
 70
     0
  0
ENDTAB
  0
TABLE
  2
DIMSTYLE
  5
A
330
0
100
AcDbSymbolTable
 70
     1
  0
DIMSTYLE
105
27
330
A
100
AcDbSymbolTableRecord
100
AcDbDimStyleTableRecord
  2
STANDARD
 70
     0
  3

  4

  5

  6

  7

 40
1.0
 41
0.18
 42
0.0625
 43
0.38
 44
0.18
 45
0.0
 46
0.0
 47
0.0
 48
0.0
140
0.18
141
0.09
142
0.0
143
25.4
144
1.0
145
0.0
146
1.0
147
0.09
 71
     0
 72
     0
 73
     1
 74
     1
 75
     0
 76
     0
 77
     0
 78
     0
170
     0
171
     2
172
     0
173
     0
174
     0
175
     0
176
     0
177
     0
178
     0
270
     2
271
     4
272
     4
273
     2
274
     2
340
11
275
     0
280
     0
281
     0
282
     0
283
     1
284
     0
285
     0
286
     0
287
     3
288
     0
  0
ENDTAB
  0
TABLE
  2
BLOCK_RECORD
  5
1
330
0
100
AcDbSymbolTable
 70
     1
  0
BLOCK_RECORD
  5
1F
330
1
100
AcDbSymbolTableRecord
100
AcDbBlockTableRecord
  2
*MODEL_SPACE
  0
BLOCK_RECORD
  5
1B
330
1
100
AcDbSymbolTableRecord
100
AcDbBlockTableRecord
  2
*PAPER_SPACE
  0
ENDTAB
  0
ENDSEC
  0
SECTION
  2
BLOCKS
  0
BLOCK
  5
20
330
1F
100
AcDbEntity
  8
0
100
AcDbBlockBegin
  2
*MODEL_SPACE
 70
     0
 10
0.0
 20
0.0
 30
0.0
  3
*MODEL_SPACE
  1

  0
ENDBLK
  5
21
330
1F
100
AcDbEntity
  8
0
100
AcDbBlockEnd
  0
BLOCK
  5
1C
330
1B
100
AcDbEntity
 67
     1
  8
0
100
AcDbBlockBegin
  2
*PAPER_SPACE
 70
     0
 10
0.0
 20
0.0
 30
0.0
  3
*PAPER_SPACE
  1

  0
ENDBLK
  5
1D
330
1B
100
AcDbEntity
 67
     1
  8
0
100
AcDbBlockEnd
  0
ENDSEC
  0
SECTION
  2
ENTITIES
  0
LINE
  5
41
330
1F
100
AcDbEntity
  8
0
100
AcDbLine
 10
-198.0029352602158
 20
112.6754945056338
 30
0.0
 11
-197.1821418256924
 21
112.6754945056338
 31
0.0
  0
LINE
  5
42
330
1F
100
AcDbEntity
  8
0
100
AcDbLine
 10
198.0029352602158
 20
112.6754945056338
 30
0.0
 11
197.1821418256924
 21
112.6754945056338
 31
0.0
  0
LINE
  5
43
330
1F
100
AcDbEntity
  8
0
100
AcDbLine
 10
-197.1821418256924
 20
112.6754945056338
 30
0.0
 11
197.1821418256924
 21
112.6754945056338
 31
0.0
  0
LINE
  5
44
330
1F
100
AcDbEntity
  8
0
100
AcDbLine
 10
-197.1821418256924
 20
-113.4962879401572
 30
0.0
 11
-197.1821418256924
 21
-112.6754945056338
 31
0.0
  0
LINE
  5
45
330
1F
100
AcDbEntity
  8
0
100
AcDbLine
 10
-197.1821418256924
 20
113.4962879401572
 30
0.0
 11
-197.1821418256924
 21
112.6754945056338
 31
0.0
  0
LINE
  5
46
330
1F
100
AcDbEntity
  8
0
100
AcDbLine
 10
-197.1821418256924
 20
-112.6754945056338
 30
0.0
 11
-197.1821418256924
 21
112.6754945056338
 31
0.0
  0
LINE
  5
47
330
1F
100
AcDbEntity
  8
0
100
AcDbLine
 10
198.0029352602158
 20
-112.6754945056338
 30
0.0
 11
197.1821418256924
 21
-112.6754945056338
 31
0.0
  0
LINE
  5
48
330
1F
100
AcDbEntity
  8
0
100
AcDbLine
 10
-198.0029352602158
 20
-112.6754945056338
 30
0.0
 11
-197.1821418256924
 21
-112.6754945056338
 31
0.0
  0
LINE
  5
49
330
1F
100
AcDbEntity
  8
0
100
AcDbLine
 10
197.1821418256924
 20
-112.6754945056338
 30
0.0
 11
-197.1821418256924
 21
-112.6754945056338
 31
0.0
  0
LINE
  5
4A
330
1F
100
AcDbEntity
  8
0
100
AcDbLine
 10
197.1821418256924
 20
113.4962879401572
 30
0.0
 11
197.1821418256924
 21
112.6754945056338
 31
0.0
  0
LINE
  5
4B
330
1F
100
AcDbEntity
  8
0
100
AcDbLine
 10
197.1821418256924
 20
-113.4962879401572
 30
0.0
 11
197.1821418256924
 21
-112.6754945056338
 31
0.0
  0
LINE
  5
4C
330
1F
100
AcDbEntity
  8
0
100
AcDbLine
 10
197.1821418256924
 20
112.6754945056338
 30
0.0
 11
197.1821418256924
 21
-112.6754945056338
 31
0.0
  0
LINE
  5
4D
330
1F
100
AcDbEntity
  8
0
100
AcDbLine
 10
-173.5308853605193
 20
-103.3619592059155
 30
0.0
 11
-174.2548311313683
 21
-103.5760144135092
 31
0.0
  0
LINE
  5
4E
330
1F
100
AcDbEntity
  8
0
100
AcDbLine
 10
-174.2548311313683
 20
-103.5760144135092
 30
0.0
 11
-175.0095106126928
 21
-103.5954049136586
 31
0.0
  0
LINE
  5
4F
330
1F
100
AcDbEntity
  8
0
100
AcDbLine
 10
-175.0095106126928
 20
-103.5954049136586
 30
0.0
 11
-175.7434936450072
 21
-103.4188092758226
 31
0.0
  0
LINE
  5
50
330
1F
100
AcDbEntity
  8
0
100
AcDbLine
 10
-175.7434936450072
 20
-103.4188092758226
 30
0.0
 11
-176.4067604976237
 21
-103.0582622008818
 31
0.0
  0
LINE
  5
51
330
1F
100
AcDbEntity
  8
0
100
AcDbLine
 10
-176.4067604976237
 20
-103.0582622008818
 30
0.0
 11
-176.9541106306368
 21
-102.5383343761611
 31
0.0
  0
LINE
  5
52
330
1F
100
AcDbEntity
  8
0
100
AcDbLine
 10
-176.9541106306368
 20
-102.5383343761611
 30
0.0
 11
-177.3482430370204
 21
-101.8944580236939
 31
0.0
  0
LINE
  5
53
330
1F
100
AcDbEntity
  8
0
100
AcDbLine
 10
-177.3482430370204
 20
-101.8944580236939
 30
0.0
 11
-177.5622982446142
 21
-101.1705122528449
 31
0.0
  0
LINE
  5
54
330
1F
100
AcDbEntity
  8
0
100
AcDbLine
 10
-177.5622982446142
 20
-101.1705122528449
 30
0.0
 11
-177.5816887447635
 21
-100.4158327715204
 31
0.0
  0
LINE
  5
55
330
1F
100
AcDbEntity
  8
0
100
AcDbLine
 10
-177.5816887447635
 20
-100.4158327715204
 30
0.0
 11
-177.4050931069276
 21
-99.68184973920599
 31
0.0
  0
LINE
  5
56
330
1F
100
AcDbEntity
  8
0
100
AcDbLine
 10
-177.4050931069276
 20
-99.68184973920599
 30
0.0
 11
-177.0445460319867
 21
-99.01858288658947
 31
0.0
  0
LINE
  5
57
330
1F
100
AcDbEntity
  8
0
100
AcDbLine
 10
-177.0445460319867
 20
-99.01858288658947
 30
0.0
 11
-176.5246182072661
 21
-98.47123275357642
 31
0.0
  0
LINE
  5
58
330
1F
100
AcDbEntity
  8
0
100
AcDbLine
 10
-176.5246182072661
 20
-98.47123275357642
 30
0.0
 11
-175.8807418547989
 21
-98.0771003471928
 31
0.0
  0
LINE
  5
59
330
1F
100
AcDbEntity
  8
0
100
AcDbLine
 10
-175.8807418547989
 20
-98.0771003471928
 30
0.0
 11
-175.1567960839499
 21
-97.86304513959902
 31
0.0
  0
LINE
  5
5A
330
1F
100
AcDbEntity
  8
0
100
AcDbLine
 10
-175.1567960839499
 20
-97.86304513959902
 30
0.0
 11
-174.4021166026254
 21
-97.84365463944968
 31
0.0
  0
LINE
  5
5B
330
1F
100
AcDbEntity
  8
0
100
AcDbLine
 10
-174.4021166026254
 20
-97.84365463944968
 30
0.0
 11
-173.668133570311
 21
-98.02025027728565
 31
0.0
  0
LINE
  5
5C
330
1F
100
AcDbEntity
  8
0
100
AcDbLine
 10
-173.668133570311
 20
-98.02025027728565
 30
0.0
 11
-173.0048667176944
 21
-98.38079735222648
 31
0.0
  0
LINE
  5
5D
330
1F
100
AcDbEntity
  8
0
100
AcDbLine
 10
-173.0048667176944
 20
-98.38079735222648
 30
0.0
 11
-172.4575165846814
 21
-98.90072517694716
 31
0.0
  0
LINE
  5
5E
330
1F
100
AcDbEntity
  8
0
100
AcDbLine
 10
-172.4575165846814
 20
-98.90072517694716
 30
0.0
 11
-172.0633841782977
 21
-99.54460152941434
 31
0.0
  0
LINE
  5
5F
330
1F
100
AcDbEntity
  8
0
100
AcDbLine
 10
-172.0633841782977
 20
-99.54460152941434
 30
0.0
 11
-171.849328970704
 21
-100.2685473002634
 31
0.0
  0
LINE
  5
60
330
1F
100
AcDbEntity
  8
0
100
AcDbLine
 10
-171.849328970704
 20
-100.2685473002634
 30
0.0
 11
-171.8299384705546
 21
-101.0232267815878
 31
0.0
  0
LINE
  5
61
330
1F
100
AcDbEntity
  8
0
100
AcDbLine
 10
-171.8299384705546
 20
-101.0232267815878
 30
0.0
 11
-172.0065341083906
 21
-101.7572098139023
 31
0.0
  0
LINE
  5
62
330
1F
100
AcDbEntity
  8
0
100
AcDbLine
 10
-172.0065341083906
 20
-101.7572098139023
 30
0.0
 11
-172.3670811833314
 21
-102.4204766665188
 31
0.0
  0
LINE
  5
63
330
1F
100
AcDbEntity
  8
0
100
AcDbLine
 10
-172.3670811833314
 20
-102.4204766665188
 30
0.0
 11
-172.8870090080521
 21
-102.9678267995318
 31
0.0
  0
LINE
  5
64
330
1F
100
AcDbEntity
  8
0
100
AcDbLine
 10
-172.8870090080521
 20
-102.9678267995318
 30
0.0
 11
-173.5308853605193
 21
-103.3619592059155
 31
0.0
  0
LINE
  5
65
330
1F
100
AcDbEntity
  8
0
100
AcDbLine
 10
-176.9074484056914
 20
99.94710455867899
 30
0.0
 11
-177.310143489894
 21
100.579821812153
 31
0.0
  0
LINE
  5
66
330
1F
100
AcDbEntity
  8
0
100
AcDbLine
 10
-177.310143489894
 20
100.579821812153
 30
0.0
 11
-177.535357796481
 21
101.295204905183
 31
0.0
  0
LINE
  5
67
330
1F
100
AcDbEntity
  8
0
100
AcDbLine
 10
-177.535357796481
 20
101.295204905183
 30
0.0
 11
-177.5677433426426
 21
102.0445016622055
 31
0.0
  0
LINE
  5
68
330
1F
100
AcDbEntity
  8
0
100
AcDbLine
 10
-177.5677433426426
 20
102.0445016622055
 30
0.0
 11
-177.4050931069276
 21
102.7766487475009
 31
0.0
  0
LINE
  5
69
330
1F
100
AcDbEntity
  8
0
100
AcDbLine
 10
-177.4050931069276
 20
102.7766487475009
 30
0.0
 11
-177.0584914341077
 21
103.4417515471365
 31
0.0
  0
LINE
  5
6A
330
1F
100
AcDbEntity
  8
0
100
AcDbLine
 10
-177.0584914341077
 20
103.4417515471365
 30
0.0
 11
-176.5515586553993
 21
103.9944844044515
 31
0.0
  0
LINE
  5
6B
330
1F
100
AcDbEntity
  8
0
100
AcDbLine
 10
-176.5515586553993
 20
103.9944844044515
 30
0.0
 11
-175.9188414019253
 21
104.3971794886541
 31
0.0
  0
LINE
  5
6C
330
1F
100
AcDbEntity
  8
0
100
AcDbLine
 10
-175.9188414019253
 20
104.3971794886541
 30
0.0
 11
-175.2034583088952
 21
104.6223937952411
 31
0.0
  0
LINE
  5
6D
330
1F
100
AcDbEntity
  8
0
100
AcDbLine
 10
-175.2034583088952
 20
104.6223937952411
 30
0.0
 11
-174.4541615518727
 21
104.6547793414027
 31
0.0
  0
LINE
  5
6E
330
1F
100
AcDbEntity
  8
0
100
AcDbLine
 10
-174.4541615518727
 20
104.6547793414027
 30
0.0
 11
-173.7220144665774
 21
104.4921291056877
 31
0.0
  0
LINE
  5
6F
330
1F
100
AcDbEntity
  8
0
100
AcDbLine
 10
-173.7220144665774
 20
104.4921291056877
 30
0.0
 11
-173.0569116669418
 21
104.1455274328678
 31
0.0
  0
LINE
  5
70
330
1F
100
AcDbEntity
  8
0
100
AcDbLine
 10
-173.0569116669418
 20
104.1455274328678
 30
0.0
 11
-172.5041788096268
 21
103.6385946541593
 31
0.0
  0
LINE
  5
71
330
1F
100
AcDbEntity
  8
0
100
AcDbLine
 10
-172.5041788096268
 20
103.6385946541593
 30
0.0
 11
-172.1014837254241
 21
103.0058774006854
 31
0.0
  0
LINE
  5
72
330
1F
100
AcDbEntity
  8
0
100
AcDbLine
 10
-172.1014837254241
 20
103.0058774006854
 30
0.0
 11
-171.8762694188372
 21
102.2904943076553
 31
0.0
  0
LINE
  5
73
330
1F
100
AcDbEntity
  8
0
100
AcDbLine
 10
-171.8762694188372
 20
102.2904943076553
 30
0.0
 11
-171.8438838726756
 21
101.5411975506328
 31
0.0
  0
LINE
  5
74
330
1F
100
AcDbEntity
  8
0
100
AcDbLine
 10
-171.8438838726756
 20
101.5411975506328
 30
0.0
 11
-172.0065341083906
 21
100.8090504653375
 31
0.0
  0
LINE
  5
75
330
1F
100
AcDbEntity
  8
0
100
AcDbLine
 10
-172.0065341083906
 20
100.8090504653375
 30
0.0
 11
-172.3531357812105
 21
100.1439476657019
 31
0.0
  0
LINE
  5
76
330
1F
100
AcDbEntity
  8
0
100
AcDbLine
 10
-172.3531357812105
 20
100.1439476657019
 30
0.0
 11
-172.8600685599189
 21
99.59121480838685
 31
0.0
  0
LINE
  5
77
330
1F
100
AcDbEntity
  8
0
100
AcDbLine
 10
-172.8600685599189
 20
99.59121480838685
 30
0.0
 11
-173.4927858133929
 21
99.18851972418423
 31
0.0
  0
LINE
  5
78
330
1F
100
AcDbEntity
  8
0
100
AcDbLine
 10
-173.4927858133929
 20
99.18851972418423
 30
0.0
 11
-174.2081689064229
 21
98.96330541759728
 31
0.0
  0
LINE
  5
79
330
1F
100
AcDbEntity
  8
0
100
AcDbLine
 10
-174.2081689064229
 20
98.96330541759728
 30
0.0
 11
-174.9574656634454
 21
98.93091987143566
 31
0.0
  0
LINE
  5
7A
330
1F
100
AcDbEntity
  8
0
100
AcDbLine
 10
-174.9574656634454
 20
98.93091987143566
 30
0.0
 11
-175.6896127487408
 21
99.0935701071507
 31
0.0
  0
LINE
  5
7B
330
1F
100
AcDbEntity
  8
0
100
AcDbLine
 10
-175.6896127487408
 20
99.0935701071507
 30
0.0
 11
-176.3547155483764
 21
99.44017177997056
 31
0.0
  0
LINE
  5
7C
330
1F
100
AcDbEntity
  8
0
100
AcDbLine
 10
-176.3547155483764
 20
99.44017177997056
 30
0.0
 11
-176.9074484056914
 21
99.94710455867899
 31
0.0
  0
LINE
  5
7D
330
1F
100
AcDbEntity
  8
0
100
AcDbLine
 10
188.5549418312482
 20
100.8090543403678
 30
0.0
 11
188.2113397529615
 21
100.1667279731836
 31
0.0
  0
LINE
  5
7E
330
1F
100
AcDbEntity
  8
0
100
AcDbLine
 10
188.2113397529615
 20
100.1667279731836
 30
0.0
 11
187.7131993345791
 21
99.63521910801128
 31
0.0
  0
LINE
  5
7F
330
1F
100
AcDbEntity
  8
0
100
AcDbLine
 10
187.7131993345791
 20
99.63521910801128
 30
0.0
 11
187.0944680223976
 21
99.25074919565252
 31
0.0
  0
LINE
  5
80
330
1F
100
AcDbEntity
  8
0
100
AcDbLine
 10
187.0944680223976
 20
99.25074919565252
 30
0.0
 11
186.3973113328404
 21
99.03951922526792
 31
0.0
  0
LINE
  5
81
330
1F
100
AcDbEntity
  8
0
100
AcDbLine
 10
186.3973113328404
 20
99.03951922526792
 30
0.0
 11
185.6692393421949
 21
99.01592417026521
 31
0.0
  0
LINE
  5
82
330
1F
100
AcDbEntity
  8
0
100
AcDbLine
 10
185.6692393421949
 20
99.01592417026521
 30
0.0
 11
184.9598689534278
 21
99.18157199465011
 31
0.0
  0
LINE
  5
83
330
1F
100
AcDbEntity
  8
0
100
AcDbLine
 10
184.9598689534278
 20
99.18157199465011
 30
0.0
 11
184.3175425862436
 21
99.52517407293678
 31
0.0
  0
LINE
  5
84
330
1F
100
AcDbEntity
  8
0
100
AcDbLine
 10
184.3175425862436
 20
99.52517407293678
 30
0.0
 11
183.7860337210713
 21
100.0233144913193
 31
0.0
  0
LINE
  5
85
330
1F
100
AcDbEntity
  8
0
100
AcDbLine
 10
183.7860337210713
 20
100.0233144913193
 30
0.0
 11
183.4015638087126
 21
100.6420458035008
 31
0.0
  0
LINE
  5
86
330
1F
100
AcDbEntity
  8
0
100
AcDbLine
 10
183.4015638087126
 20
100.6420458035008
 30
0.0
 11
183.1903338383279
 21
101.339202493058
 31
0.0
  0
LINE
  5
87
330
1F
100
AcDbEntity
  8
0
100
AcDbLine
 10
183.1903338383279
 20
101.339202493058
 30
0.0
 11
183.1667387833252
 21
102.0672744837034
 31
0.0
  0
LINE
  5
88
330
1F
100
AcDbEntity
  8
0
100
AcDbLine
 10
183.1667387833252
 20
102.0672744837034
 30
0.0
 11
183.3323866077101
 21
102.7766448724705
 31
0.0
  0
LINE
  5
89
330
1F
100
AcDbEntity
  8
0
100
AcDbLine
 10
183.3323866077101
 20
102.7766448724705
 30
0.0
 11
183.6759886859968
 21
103.4189712396547
 31
0.0
  0
LINE
  5
8A
330
1F
100
AcDbEntity
  8
0
100
AcDbLine
 10
183.6759886859968
 20
103.4189712396547
 30
0.0
 11
184.1741291043793
 21
103.950480104827
 31
0.0
  0
LINE
  5
8B
330
1F
100
AcDbEntity
  8
0
100
AcDbLine
 10
184.1741291043793
 20
103.950480104827
 30
0.0
 11
184.7928604165608
 21
104.3349500171858
 31
0.0
  0
LINE
  5
8C
330
1F
100
AcDbEntity
  8
0
100
AcDbLine
 10
184.7928604165608
 20
104.3349500171858
 30
0.0
 11
185.490017106118
 21
104.5461799875704
 31
0.0
  0
LINE
  5
8D
330
1F
100
AcDbEntity
  8
0
100
AcDbLine
 10
185.490017106118
 20
104.5461799875704
 30
0.0
 11
186.2180890967634
 21
104.5697750425731
 31
0.0
  0
LINE
  5
8E
330
1F
100
AcDbEntity
  8
0
100
AcDbLine
 10
186.2180890967634
 20
104.5697750425731
 30
0.0
 11
186.9274594855305
 21
104.4041272181882
 31
0.0
  0
LINE
  5
8F
330
1F
100
AcDbEntity
  8
0
100
AcDbLine
 10
186.9274594855305
 20
104.4041272181882
 30
0.0
 11
187.5697858527148
 21
104.0605251399016
 31
0.0
  0
LINE
  5
90
330
1F
100
AcDbEntity
  8
0
100
AcDbLine
 10
187.5697858527148
 20
104.0605251399016
 30
0.0
 11
188.101294717887
 21
103.5623847215191
 31
0.0
  0
LINE
  5
91
330
1F
100
AcDbEntity
  8
0
100
AcDbLine
 10
188.101294717887
 20
103.5623847215191
 30
0.0
 11
188.4857646302458
 21
102.9436534093376
 31
0.0
  0
LINE
  5
92
330
1F
100
AcDbEntity
  8
0
100
AcDbLine
 10
188.4857646302458
 20
102.9436534093376
 30
0.0
 11
188.6969946006304
 21
102.2464967197804
 31
0.0
  0
LINE
  5
93
330
1F
100
AcDbEntity
  8
0
100
AcDbLine
 10
188.6969946006304
 20
102.2464967197804
 30
0.0
 11
188.7205896556331
 21
101.5184247291349
 31
0.0
  0
LINE
  5
94
330
1F
100
AcDbEntity
  8
0
100
AcDbLine
 10
188.7205896556331
 20
101.5184247291349
 30
0.0
 11
188.5549418312482
 21
100.8090543403678
 31
0.0
  0
LINE
  5
95
330
1F
100
AcDbEntity
  8
0
100
AcDbLine
 10
183.6612921203805
 20
-102.2908030802131
 30
0.0
 11
183.3323866077101
 21
-101.6465418734595
 31
0.0
  0
LINE
  5
96
330
1F
100
AcDbEntity
  8
0
100
AcDbLine
 10
183.3323866077101
 20
-101.6465418734595
 30
0.0
 11
183.1814353489414
 21
-100.9391063242618
 31
0.0
  0
LINE
  5
97
330
1F
100
AcDbEntity
  8
0
100
AcDbLine
 10
183.1814353489414
 20
-100.9391063242618
 30
0.0
 11
183.2187254229009
 21
-100.2167069962052
 31
0.0
  0
LINE
  5
98
330
1F
100
AcDbEntity
  8
0
100
AcDbLine
 10
183.2187254229009
 20
-100.2167069962052
 30
0.0
 11
183.4417155726729
 21
-99.52857420967537
 31
0.0
  0
LINE
  5
99
330
1F
100
AcDbEntity
  8
0
100
AcDbLine
 10
183.4417155726729
 20
-99.52857420967537
 30
0.0
 11
183.835209388059
 21
-98.92160307688127
 31
0.0
  0
LINE
  5
9A
330
1F
100
AcDbEntity
  8
0
100
AcDbLine
 10
183.835209388059
 20
-98.92160307688127
 30
0.0
 11
184.3723909158202
 21
-98.4371576774555
 31
0.0
  0
LINE
  5
9B
330
1F
100
AcDbEntity
  8
0
100
AcDbLine
 10
184.3723909158202
 20
-98.4371576774555
 30
0.0
 11
185.0166521225738
 21
-98.10825216478506
 31
0.0
  0
LINE
  5
9C
330
1F
100
AcDbEntity
  8
0
100
AcDbLine
 10
185.0166521225738
 20
-98.10825216478506
 30
0.0
 11
185.7240876717715
 21
-97.9573009060164
 31
0.0
  0
LINE
  5
9D
330
1F
100
AcDbEntity
  8
0
100
AcDbLine
 10
185.7240876717715
 20
-97.9573009060164
 30
0.0
 11
186.4464869998281
 21
-97.99459097997584
 31
0.0
  0
LINE
  5
9E
330
1F
100
AcDbEntity
  8
0
100
AcDbLine
 10
186.4464869998281
 20
-97.99459097997584
 30
0.0
 11
187.1346197863579
 21
-98.21758112974784
 31
0.0
  0
LINE
  5
9F
330
1F
100
AcDbEntity
  8
0
100
AcDbLine
 10
187.1346197863579
 20
-98.21758112974784
 30
0.0
 11
187.7415909191521
 21
-98.61107494513404
 31
0.0
  0
LINE
  5
A0
330
1F
100
AcDbEntity
  8
0
100
AcDbLine
 10
187.7415909191521
 20
-98.61107494513404
 30
0.0
 11
188.2260363185778
 21
-99.14825647289513
 31
0.0
  0
LINE
  5
A1
330
1F
100
AcDbEntity
  8
0
100
AcDbLine
 10
188.2260363185778
 20
-99.14825647289513
 30
0.0
 11
188.5549418312482
 21
-99.79251767964872
 31
0.0
  0
LINE
  5
A2
330
1F
100
AcDbEntity
  8
0
100
AcDbLine
 10
188.5549418312482
 20
-99.79251767964872
 30
0.0
 11
188.7058930900169
 21
-100.4999532288465
 31
0.0
  0
LINE
  5
A3
330
1F
100
AcDbEntity
  8
0
100
AcDbLine
 10
188.7058930900169
 20
-100.4999532288465
 30
0.0
 11
188.6686030160575
 21
-101.2223525569031
 31
0.0
  0
LINE
  5
A4
330
1F
100
AcDbEntity
  8
0
100
AcDbLine
 10
188.6686030160575
 20
-101.2223525569031
 30
0.0
 11
188.4456128662854
 21
-101.9104853434329
 31
0.0
  0
LINE
  5
A5
330
1F
100
AcDbEntity
  8
0
100
AcDbLine
 10
188.4456128662854
 20
-101.9104853434329
 30
0.0
 11
188.0521190508993
 21
-102.517456476227
 31
0.0
  0
LINE
  5
A6
330
1F
100
AcDbEntity
  8
0
100
AcDbLine
 10
188.0521190508993
 20
-102.517456476227
 30
0.0
 11
187.5149375231382
 21
-103.0019018756527
 31
0.0
  0
LINE
  5
A7
330
1F
100
AcDbEntity
  8
0
100
AcDbLine
 10
187.5149375231382
 20
-103.0019018756527
 30
0.0
 11
186.8706763163846
 21
-103.3308073883232
 31
0.0
  0
LINE
  5
A8
330
1F
100
AcDbEntity
  8
0
100
AcDbLine
 10
186.8706763163846
 20
-103.3308073883232
 30
0.0
 11
186.1632407671868
 21
-103.4817586470918
 31
0.0
  0
LINE
  5
A9
330
1F
100
AcDbEntity
  8
0
100
AcDbLine
 10
186.1632407671868
 20
-103.4817586470918
 30
0.0
 11
185.4408414391303
 21
-103.4444685731324
 31
0.0
  0
LINE
  5
AA
330
1F
100
AcDbEntity
  8
0
100
AcDbLine
 10
185.4408414391303
 20
-103.4444685731324
 30
0.0
 11
184.7527086526004
 21
-103.2214784233604
 31
0.0
  0
LINE
  5
AB
330
1F
100
AcDbEntity
  8
0
100
AcDbLine
 10
184.7527086526004
 20
-103.2214784233604
 30
0.0
 11
184.1457375198063
 21
-102.8279846079742
 31
0.0
  0
LINE
  5
AC
330
1F
100
AcDbEntity
  8
0
100
AcDbLine
 10
184.1457375198063
 20
-102.8279846079742
 30
0.0
 11
183.6612921203805
 21
-102.2908030802131
 31
0.0
  0
LINE
  5
AD
330
1F
100
AcDbEntity
  8
0
100
AcDbLine
 10
123.9429011757503
 20
-57.07134398256085
 30
0.0
 11
91.93305943128335
 21
-57.07134398256085
 31
0.0
  0
LINE
  5
AE
330
1F
100
AcDbEntity
  8
0
100
AcDbLine
 10
144.6852262221548
 20
-75.98825730322193
 30
0.0
 11
123.9429011757503
 21
-57.07134398256085
 31
0.0
  0
LINE
  5
AF
330
1F
100
AcDbEntity
  8
0
100
AcDbLine
 10
113.7731156760625
 20
-75.98825730322193
 30
0.0
 11
144.6852262221548
 21
-75.98825730322193
 31
0.0
  0
LINE
  5
B0
330
1F
100
AcDbEntity
  8
0
100
AcDbLine
 10
91.93305943128335
 20
-57.07134398256085
 30
0.0
 11
113.7731156760625
 21
-75.98825730322193
 31
0.0
  0
LINE
  5
B1
330
1F
100
AcDbEntity
  8
0
100
AcDbLine
 10
123.9429011757503
 20
-53.80124481746152
 30
0.0
 11
91.93305943128335
 21
-53.80124481746152
 31
0.0
  0
LINE
  5
B2
330
1F
100
AcDbEntity
  8
0
100
AcDbLine
 10
91.93305943128335
 20
-53.80124481746152
 30
0.0
 11
113.7731156760625
 21
-34.88424437513589
 31
0.0
  0
LINE
  5
B3
330
1F
100
AcDbEntity
  8
0
100
AcDbLine
 10
113.7731156760625
 20
-34.88424437513589
 30
0.0
 11
144.6852262221548
 21
-34.88424437513589
 31
0.0
  0
LINE
  5
B4
330
1F
100
AcDbEntity
  8
0
100
AcDbLine
 10
144.6852262221548
 20
-34.88424437513589
 30
0.0
 11
123.9429011757503
 21
-53.80124481746152
 31
0.0
  0
LINE
  5
B5
330
1F
100
AcDbEntity
  8
0
100
AcDbLine
 10
148.5140747370703
 20
-74.47427665457411
 30
0.0
 11
147.9138043818861
 21
-73.91447547304291
 31
0.0
  0
LINE
  5
B6
330
1F
100
AcDbEntity
  8
0
100
AcDbLine
 10
127.5952160425757
 20
-54.96573069303331
 30
0.0
 11
128.19548639776
 21
-55.52553187456451
 31
0.0
  0
LINE
  5
B7
330
1F
100
AcDbEntity
  8
0
100
AcDbLine
 10
147.9138043818861
 20
-73.91447547304291
 30
0.0
 11
128.19548639776
 21
-55.52553187456451
 31
0.0
  0
LINE
  5
B8
330
1F
100
AcDbEntity
  8
0
100
AcDbLine
 10
127.5952169874802
 20
-56.08533406930759
 30
0.0
 11
128.19548639776
 21
-55.52553187456451
 31
0.0
  0
LINE
  5
B9
330
1F
100
AcDbEntity
  8
0
100
AcDbLine
 10
148.5140737921658
 20
-36.57672385156929
 30
0.0
 11
147.9138043818861
 21
-37.13652604631237
 31
0.0
  0
LINE
  5
BA
330
1F
100
AcDbEntity
  8
0
100
AcDbLine
 10
128.19548639776
 20
-55.52553187456451
 30
0.0
 11
147.9138043818861
 21
-37.13652604631237
 31
0.0
  0
LINE
  5
BB
330
1F
100
AcDbEntity
  8
0
100
AcDbLine
 10
147.3135349716062
 20
-36.57672385156938
 30
0.0
 11
147.9138043818861
 21
-37.13652604631237
 31
0.0
  0
LINE
  5
BC
330
1F
100
AcDbEntity
  8
0
100
AcDbLine
 10
168.2323917762973
 20
-56.08533406930751
 30
0.0
 11
167.6321223660175
 21
-55.52553187456451
 31
0.0
  0
LINE
  5
BD
330
1F
100
AcDbEntity
  8
0
100
AcDbLine
 10
147.9138043818861
 20
-37.13652604631237
 30
0.0
 11
167.6321223660175
 21
-55.52553187456451
 31
0.0
  0
LINE
  5
BE
330
1F
100
AcDbEntity
  8
0
100
AcDbLine
 10
168.2323927212018
 20
-54.9657306930334
 30
0.0
 11
167.6321223660175
 21
-55.52553187456451
 31
0.0
  0
LINE
  5
BF
330
1F
100
AcDbEntity
  8
0
100
AcDbLine
 10
147.3135340267017
 20
-74.47427665457401
 30
0.0
 11
147.9138043818861
 21
-73.91447547304291
 31
0.0
  0
LINE
  5
C0
330
1F
100
AcDbEntity
  8
0
100
AcDbLine
 10
167.6321223660175
 20
-55.52553187456451
 30
0.0
 11
147.9138043818861
 21
-73.91447547304291
 31
0.0
  0
LINE
  5
C1
330
1F
100
AcDbEntity
  8
0
100
AcDbLine
 10
-40.61561781863264
 20
83.28981301778346
 30
0.0
 11
-42.76721178973715
 21
83.15526563792594
 31
0.0
  0
LINE
  5
C2
330
1F
100
AcDbEntity
  8
0
100
AcDbLine
 10
153.2911379121629
 20
83.28981301778346
 30
0.0
 11
-40.61561781863264
 21
83.28981301778346
 31
0.0
  0
LINE
  5
C3
330
1F
100
AcDbEntity
  8
0
100
AcDbLine
 10
155.4069628766643
 20
83.07419105565812
 30
0.0
 11
153.2911379121629
 21
83.28981301778346
 31
0.0
  0
LINE
  5
C4
330
1F
100
AcDbEntity
  8
0
100
AcDbLine
 10
157.4747240441291
 20
82.61187178154672
 30
0.0
 11
155.4069628766643
 21
83.07419105565812
 31
0.0
  0
LINE
  5
C5
330
1F
100
AcDbEntity
  8
0
100
AcDbLine
 10
159.4599871941218
 20
81.9105541521987
 30
0.0
 11
157.4747240441291
 21
82.61187178154672
 31
0.0
  0
LINE
  5
C6
330
1F
100
AcDbEntity
  8
0
100
AcDbLine
 10
161.3296919374614
 20
80.98191714012994
 30
0.0
 11
159.4599871941218
 21
81.9105541521987
 31
0.0
  0
LINE
  5
C7
330
1F
100
AcDbEntity
  8
0
100
AcDbLine
 10
163.0527022675846
 20
79.84142524485873
 30
0.0
 11
161.3296919374614
 21
80.98191714012994
 31
0.0
  0
LINE
  5
C8
330
1F
100
AcDbEntity
  8
0
100
AcDbLine
 10
164.6003250653566
 20
78.50807096413811
 30
0.0
 11
163.0527022675846
 21
79.84142524485873
 31
0.0
  0
LINE
  5
C9
330
1F
100
AcDbEntity
  8
0
100
AcDbLine
 10
165.9467879227219
 20
77.00405851378531
 30
0.0
 11
164.6003250653566
 21
78.50807096413811
 31
0.0
  0
LINE
  5
CA
330
1F
100
AcDbEntity
  8
0
100
AcDbLine
 10
167.0696683280439
 20
75.35443406309123
 30
0.0
 11
165.9467879227219
 21
77.00405851378531
 31
0.0
  0
LINE
  5
CB
330
1F
100
AcDbEntity
  8
0
100
AcDbLine
 10
167.9502670659547
 20
73.58666864346165
 30
0.0
 11
167.0696683280439
 21
75.35443406309123
 31
0.0
  0
LINE
  5
CC
330
1F
100
AcDbEntity
  8
0
100
AcDbLine
 10
168.5739196135233
 20
71.73020067607193
 30
0.0
 11
167.9502670659547
 21
73.58666864346165
 31
0.0
  0
LINE
  5
CD
330
1F
100
AcDbEntity
  8
0
100
AcDbLine
 10
168.9302403470925
 20
69.81594573677604
 30
0.0
 11
168.5739196135233
 21
71.73020067607193
 31
0.0
  0
LINE
  5
CE
330
1F
100
AcDbEntity
  8
0
100
AcDbLine
 10
169.0132954930337
 20
67.8757817221062
 30
0.0
 11
168.9302403470925
 21
69.81594573677604
 31
0.0
  0
LINE
  5
CF
330
1F
100
AcDbEntity
  8
0
100
AcDbLine
 10
169.0132954930337
 20
-28.06531431182065
 30
0.0
 11
169.0132954930337
 21
-27.24452087729723
 31
0.0
  0
LINE
  5
D0
330
1F
100
AcDbEntity
  8
0
100
AcDbLine
 10
169.0132954930337
 20
-27.24452087729723
 30
0.0
 11
169.0132954930337
 21
67.8757817221062
 31
0.0
  0
LINE
  5
D1
330
1F
100
AcDbEntity
  8
0
100
AcDbLine
 10
169.8340889275571
 20
-27.24452054744053
 30
0.0
 11
169.0132954930337
 21
-27.24452087729723
 31
0.0
  0
LINE
  5
D2
330
1F
100
AcDbEntity
  8
0
100
AcDbLine
 10
107.0739419333871
 20
-27.24454576920128
 30
0.0
 11
169.0132954930337
 21
-27.24452087729723
 31
0.0
  0
LINE
  5
D3
330
1F
100
AcDbEntity
  8
0
100
AcDbLine
 10
47.37499617018759
 20
-81.12623247158122
 30
0.0
 11
107.0739419333871
 21
-27.24454576920128
 31
0.0
  0
LINE
  5
D4
330
1F
100
AcDbEntity
  8
0
100
AcDbLine
 10
-40.61561781863264
 20
-81.12623247158122
 30
0.0
 11
47.37499617018759
 21
-81.12623247158122
 31
0.0
  0
LINE
  5
D5
330
1F
100
AcDbEntity
  8
0
100
AcDbLine
 10
-42.71121810040495
 20
-80.86723384708213
 30
0.0
 11
-40.61561781863264
 21
-81.12623247158122
 31
0.0
  0
LINE
  5
D6
330
1F
100
AcDbEntity
  8
0
100
AcDbLine
 10
-44.75512757416442
 20
-80.37220619072795
 30
0.0
 11
-42.71121810040495
 21
-80.86723384708213
 31
0.0
  0
LINE
  5
D7
330
1F
100
AcDbEntity
  8
0
100
AcDbLine
 10
-46.71551374050068
 20
-79.64885922145744
 30
0.0
 11
-44.75512757416442
 21
-80.37220619072795
 31
0.0
  0
LINE
  5
D8
330
1F
100
AcDbEntity
  8
0
100
AcDbLine
 10
-48.56184491868858
 20
-78.70845857616341
 30
0.0
 11
-46.71551374050068
 21
-79.64885922145744
 31
0.0
  0
LINE
  5
D9
330
1F
100
AcDbEntity
  8
0
100
AcDbLine
 10
-50.26536575684212
 20
-77.56565035506256
 30
0.0
 11
-48.56184491868858
 21
-78.70845857616341
 31
0.0
  0
LINE
  5
DA
330
1F
100
AcDbEntity
  8
0
100
AcDbLine
 10
-51.79954507695554
 20
-76.23823301865006
 30
0.0
 11
-50.26536575684212
 21
-77.56565035506256
 31
0.0
  0
LINE
  5
DB
330
1F
100
AcDbEntity
  8
0
100
AcDbLine
 10
-53.14048907994923
 20
-74.74688018878689
 30
0.0
 11
-51.79954507695554
 21
-76.23823301865006
 31
0.0
  0
LINE
  5
DC
330
1F
100
AcDbEntity
  8
0
100
AcDbLine
 10
-54.26731347533349
 20
-73.11481867110548
 30
0.0
 11
-53.14048907994923
 21
-74.74688018878689
 31
0.0
  0
LINE
  5
DD
330
1F
100
AcDbEntity
  8
0
100
AcDbLine
 10
-55.16246873982359
 20
-71.36746671331514
 30
0.0
 11
-54.26731347533349
 21
-73.11481867110548
 31
0.0
  0
LINE
  5
DE
330
1F
100
AcDbEntity
  8
0
100
AcDbLine
 10
-55.81201343922449
 20
-69.53203813328791
 30
0.0
 11
-55.16246873982359
 21
-71.36746671331514
 31
0.0
  0
LINE
  5
DF
330
1F
100
AcDbEntity
  8
0
100
AcDbLine
 10
-56.20583135678284
 20
-67.63711848236139
 30
0.0
 11
-55.81201343922449
 21
-69.53203813328791
 31
0.0
  0
LINE
  5
E0
330
1F
100
AcDbEntity
  8
0
100
AcDbLine
 10
-56.33778904638015
 20
-65.71221984482565
 30
0.0
 11
-56.20583135678284
 21
-67.63711848236139
 31
0.0
  0
LINE
  5
E1
330
1F
100
AcDbEntity
  8
0
100
AcDbLine
 10
-56.33778904638015
 20
67.8757817221062
 30
0.0
 11
-56.33778904638015
 21
-65.71221984482565
 31
0.0
  0
LINE
  5
E2
330
1F
100
AcDbEntity
  8
0
100
AcDbLine
 10
-56.34598001839191
 20
69.84262863624768
 30
0.0
 11
-56.33778904638015
 21
67.8757817221062
 31
0.0
  0
LINE
  5
E3
330
1F
100
AcDbEntity
  8
0
100
AcDbLine
 10
-56.05972759213432
 20
71.79208730678438
 30
0.0
 11
-56.34598001839191
 21
69.84262863624768
 31
0.0
  0
LINE
  5
E4
330
1F
100
AcDbEntity
  8
0
100
AcDbLine
 10
-55.48438988562646
 20
73.68766745914732
 30
0.0
 11
-56.05972759213432
 21
71.79208730678438
 31
0.0
  0
LINE
  5
E5
330
1F
100
AcDbEntity
  8
0
100
AcDbLine
 10
-54.6307361607141
 20
75.4938873253603
 30
0.0
 11
-55.48438988562646
 21
73.68766745914732
 31
0.0
  0
LINE
  5
E6
330
1F
100
AcDbEntity
  8
0
100
AcDbLine
 10
-53.51474524232931
 20
77.17693779736368
 30
0.0
 11
-54.6307361607141
 21
75.4938873253603
 31
0.0
  0
LINE
  5
E7
330
1F
100
AcDbEntity
  8
0
100
AcDbLine
 10
-52.15730642432776
 20
78.70531527122618
 30
0.0
 11
-53.51474524232931
 21
77.17693779736368
 31
0.0
  0
LINE
  5
E8
330
1F
100
AcDbEntity
  8
0
100
AcDbLine
 10
-50.5838284603948
 20
80.05041133656748
 30
0.0
 11
-52.15730642432776
 21
78.70531527122618
 31
0.0
  0
LINE
  5
E9
330
1F
100
AcDbEntity
  8
0
100
AcDbLine
 10
-48.82376395899036
 20
81.1870482732914
 30
0.0
 11
-50.5838284603948
 21
80.05041133656748
 31
0.0
  0
LINE
  5
EA
330
1F
100
AcDbEntity
  8
0
100
AcDbLine
 10
-46.910058084783
 20
82.09395033211777
 30
0.0
 11
-48.82376395899036
 21
81.1870482732914
 31
0.0
  0
LINE
  5
EB
330
1F
100
AcDbEntity
  8
0
100
AcDbLine
 10
-44.87853188586642
 20
82.75414197741
 30
0.0
 11
-46.910058084783
 21
82.09395033211777
 31
0.0
  0
LINE
  5
EC
330
1F
100
AcDbEntity
  8
0
100
AcDbLine
 10
-42.76721178973715
 20
83.15526563792594
 30
0.0
 11
-44.87853188586642
 21
82.75414197741
 31
0.0
  0
ENDSEC
  0
SECTION
  2
OBJECTS
  0
DICTIONARY
  5
C
330
0
100
AcDbDictionary
  3
ACAD_GROUP
350
D
  3
ACAD_LAYOUT
350
1A
  3
ACAD_MATERIAL
350
3B
  3
ACAD_MLEADERSTYLE
350
10F
  3
ACAD_MLINESTYLE
350
17
  3
ACAD_PLOTSETTINGS
350
19
  3
ACAD_VISUALSTYLE
350
2A
  3
ACDBHEADERROUNDTRIPXREC
350
ED
  3
ACDBVARIABLEDICTIONARY
350
10D
  0
DICTIONARY
  5
D
102
{ACAD_REACTORS
330
C
102
}
330
C
100
AcDbDictionary
  0
DICTIONARY
  5
1A
102
{ACAD_REACTORS
330
C
102
}
330
C
100
AcDbDictionary
  0
DICTIONARY
  5
3B
102
{ACAD_REACTORS
330
C
102
}
330
C
100
AcDbDictionary
  3
BYBLOCK
350
3D
  3
BYLAYER
350
3C
  3
GLOBAL
350
3E
  0
DICTIONARY
  5
10F
102
{ACAD_REACTORS
330
C
102
}
330
C
100
AcDbDictionary
  0
DICTIONARY
  5
17
102
{ACAD_REACTORS
330
C
102
}
330
C
100
AcDbDictionary
  3
STANDARD
350
18
  0
DICTIONARY
  5
19
102
{ACAD_REACTORS
330
C
102
}
330
C
100
AcDbDictionary
  0
DICTIONARY
  5
2A
102
{ACAD_REACTORS
330
C
102
}
330
C
100
AcDbDictionary
  3
2DWIREFRAME
350
2F
  3
3D_HIDDEN
350
31
  3
3DWIREFRAME
350
30
  3
BASIC
350
32
  3
BRIGHTEN
350
36
  3
COLORCHANGE
350
3A
  3
CONCEPTUAL
350
34
  3
DIM
350
35
  3
FACEPATTERN
350
39
  3
FLAT
350
2B
  3
FLATWITHEDGES
350
2C
  3
GOURAUD
350
2D
  3
GOURAUDWITHEDGES
350
2E
  3
LINEPATTERN
350
38
  3
REALISTIC
350
33
  3
THICKEN
350
37
  0
DICTIONARY
  5
ED
102
{ACAD_REACTORS
330
C
102
}
330
C
100
AcDbDictionary
  3
CEPSNTYPE
350
F6
  3
DIMSTYLEDATA
350
10C
  3
FINGERPRINTGUID
350
F7
  3
HYPERLINKBASE
350
F0
  3
INSUNITS
350
F5
  3
LAYOUTDICT
350
F2
  3
LWETCUNION
350
F4
  3
PLOTSETDICT
350
F3
  3
PSVPSCALE
350
F9
  3
PUCSBASE
350
FC
  3
PUCSORGBACK
350
102
  3
PUCSORGBOTTOM
350
FE
  3
PUCSORGFRONT
350
101
  3
PUCSORGLEFT
350
FF
  3
PUCSORGRIGHT
350
100
  3
PUCSORGTOP
350
FD
  3
PUCSORTHOREF
350
FA
  3
PUCSORTHOVIEW
350
FB
  3
STYLESHEET
350
F1
  3
TSTACKALIGN
350
EE
  3
TSTACKSIZE
350
EF
  3
UCSBASE
350
105
  3
UCSORGBACK
350
10B
  3
UCSORGBOTTOM
350
107
  3
UCSORGFRONT
350
10A
  3
UCSORGLEFT
350
108
  3
UCSORGRIGHT
350
109
  3
UCSORGTOP
350
106
  3
UCSORTHOREF
350
103
  3
UCSORTHOVIEW
350
104
  3
VERSIONGUID
350
F8
  0
DICTIONARY
  5
10D
102
{ACAD_REACTORS
330
C
102
}
330
C
100
AcDbDictionary
  3
DIMASSOC
350
110
  3
HIDETEXT
350
111
  0
MATERIAL
  5
3D
102
{ACAD_REACTORS
330
3B
102
}
102
{ACAD_XDICTIONARY
360
114
102
}
330
3B
100
AcDbMaterial
  1
ByBlock
  0
MATERIAL
  5
3C
102
{ACAD_REACTORS
330
3B
102
}
102
{ACAD_XDICTIONARY
360
112
102
}
330
3B
100
AcDbMaterial
  1
ByLayer
  0
MATERIAL
  5
3E
102
{ACAD_REACTORS
330
3B
102
}
102
{ACAD_XDICTIONARY
360
116
102
}
330
3B
100
AcDbMaterial
  1
Global
  0
MLINESTYLE
  5
18
102
{ACAD_REACTORS
330
17
102
}
330
17
100
AcDbMlineStyle
  2
Standard
 70
     0
  3

 62
   256
 51
90.0
 52
90.0
 71
     2
 49
0.5
 62
   256
  6
BYLAYER
 49
-0.5
 62
   256
  6
BYLAYER
  0
ACAD_PROXY_OBJECT
  5
2F
102
{ACAD_REACTORS
330
2A
102
}
330
2A
100
AcDbProxyObject
 90
      499
 91
      501
 93
      436
310
42CC9915DA5C99599C985B595049028333333333333E3BF0000000000000FB0107901411070040501600405405064090741402480A0340
1001
ACAD
1000
AcDbSavedByObjectVersion
1070
     0
  0
ACAD_PROXY_OBJECT
  5
31
102
{ACAD_REACTORS
330
2A
102
}
330
2A
100
AcDbProxyObject
 90
      499
 91
      501
 93
      500
310
424CD108121A5919195B90640502408333333333333E3BF0000000000000FB01079024090700405020000000000001110200405405064090740C02480A0340
1001
ACAD
1000
AcDbSavedByObjectVersion
1070
     0
  0
ACAD_PROXY_OBJECT
  5
30
102
{ACAD_REACTORS
330
2A
102
}
330
2A
100
AcDbProxyObject
 90
      499
 91
      501
 93
      436
310
42CCD915DA5C99599C985B595059028333333333333E3BF0000000000000FB0107901411070040501600405405064090741402480A0340
1001
ACAD
1000
AcDbSavedByObjectVersion
1070
     0
  0
ACAD_PROXY_OBJECT
  5
32
102
{ACAD_REACTORS
330
2A
102
}
330
2A
100
AcDbProxyObject
 90
      499
 91
      501
 93
      388
310
4150985CDA58D07406404333333333333E3BF0000000000000FB0107A41107004050150841D405064090741402480A0350
1001
ACAD
1000
AcDbSavedByObjectVersion
1070
     0
  0
ACAD_PROXY_OBJECT
  5
36
102
{ACAD_REACTORS
330
2A
102
}
330
2A
100
AcDbProxyObject
 90
      499
 91
      501
 93
      428
310
42109C9A59DA1D195B90C409028333333333333E3BF0000000000000FB010790141107004050150841D405064090741402480A029950
1001
ACAD
1000
AcDbSavedByObjectVersion
1070
     0
  0
ACAD_PROXY_OBJECT
  5
3A
102
{ACAD_REACTORS
330
2A
102
}
330
2A
100
AcDbProxyObject
 90
      499
 91
      501
 93
      452
310
42D0DBDB1BDC90DA185B99D95104090240C333333333333E3BF0000000000000FB0108901411070040501508421405064090741402480A0350
1001
ACAD
1000
AcDbSavedByObjectVersion
1070
     0
  0
ACAD_PROXY_OBJECT
  5
34
102
{ACAD_REACTORS
330
2A
102
}
330
2A
100
AcDbProxyObject
 90
      499
 91
      501
 93
      500
310
4290DBDB98D95C1D1D585B10940D028333333333333E3BF0000000000000FB0107902409070040501000000000000111010841D405064090740C02480A0340
1001
ACAD
1000
AcDbSavedByObjectVersion
1070
     0
  0
ACAD_PROXY_OBJECT
  5
35
102
{ACAD_REACTORS
330
2A
102
}
330
2A
100
AcDbProxyObject
 90
      499
 91
      501
 93
      412
310
40D11A5B50B409028333333333333E3BF0000000000000FB010790141107004050150841D405064090741402480A02677FFFFFD0
1001
ACAD
1000
AcDbSavedByObjectVersion
1070
     0
  0
ACAD_PROXY_OBJECT
  5
39
102
{ACAD_REACTORS
330
2A
102
}
330
2A
100
AcDbProxyObject
 90
      499
 91
      501
 93
      444
310
42D19858D95C185D1D195C9B90F409028333333333333E3BF0000000000000FB010790141107004050150841D405064090741402480A0350
1001
ACAD
1000
AcDbSavedByObjectVersion
1070
     0
  0
ACAD_PROXY_OBJECT
  5
2B
102
{ACAD_REACTORS
330
2A
102
}
330
2A
100
AcDbProxyObject
 90
      499
 91
      501
 93
      388
310
41119B185D240901404333333333333E3BF0000000000000F9010740A41107004050150841D405064090741402480A1B50
1001
ACAD
1000
AcDbSavedByObjectVersion
1070
     0
  0
ACAD_PROXY_OBJECT
  5
2C
102
{ACAD_REACTORS
330
2A
102
}
330
2A
100
AcDbProxyObject
 90
      499
 91
      501
 93
      476
310
43519B185D15DA5D1A115919D95CD0140901404333333333333E3BF0000000000000F9010740901411070040501600405405064090741402480A1B50
1001
ACAD
1000
AcDbSavedByObjectVersion
1070
     0
  0
ACAD_PROXY_OBJECT
  5
2D
102
{ACAD_REACTORS
330
2A
102
}
330
2A
100
AcDbProxyObject
 90
      499
 91
      501
 93
      412
310
41D1DBDD5C985D5910240902404333333333333E3BF0000000000000F9010740A411070040501641D405064090741402480A1B50
1001
ACAD
1000
AcDbSavedByObjectVersion
1070
     0
  0
ACAD_PROXY_OBJECT
  5
2E
102
{ACAD_REACTORS
330
2A
102
}
330
2A
100
AcDbProxyObject
 90
      499
 91
      501
 93
      500
310
4411DBDD5C985D5915DA5D1A115919D95CD0340902404333333333333E3BF0000000000000F9010740901411070040501600405405064090741402480A1B50
1001
ACAD
1000
AcDbSavedByObjectVersion
1070
     0
  0
ACAD_PROXY_OBJECT
  5
38
102
{ACAD_REACTORS
330
2A
102
}
330
2A
100
AcDbProxyObject
 90
      499
 91
      501
 93
      444
310
42D31A5B995C185D1D195C9B90E409028333333333333E3BF0000000000000FB010790141107004050750841D405064090741402483A0350
1001
ACAD
1000
AcDbSavedByObjectVersion
1070
     0
  0
ACAD_PROXY_OBJECT
  5
33
102
{ACAD_REACTORS
330
2A
102
}
330
2A
100
AcDbProxyObject
 90
      499
 91
      501
 93
      420
310
425499585B1A5CDD1A58D08409028333333333333E3BF0000000000000FB01079019070040501508421405064090741402480A1B40
1001
ACAD
1000
AcDbSavedByObjectVersion
1070
     0
  0
ACAD_PROXY_OBJECT
  5
37
102
{ACAD_REACTORS
330
2A
102
}
330
2A
100
AcDbProxyObject
 90
      499
 91
      501
 93
      412
310
41D51A1A58DAD95B90D409028333333333333E3BF0000000000000FB010790141107004050150C41D405064090741402480A0350
1001
ACAD
1000
AcDbSavedByObjectVersion
1070
     0
  0
XRECORD
  5
F6
102
{ACAD_REACTORS
330
ED
102
}
330
ED
100
AcDbXrecord
 90
        0
  0
XRECORD
  5
10C
102
{ACAD_REACTORS
330
ED
102
}
330
ED
100
AcDbXrecord
1000
DSTYLE
1002
{
1070
   340
340
11
1002
}
  0
XRECORD
  5
F7
102
{ACAD_REACTORS
330
ED
102
}
330
ED
100
AcDbXrecord
  1
{7A528283-7771-4933-A319-ECEFAECE809B}
  0
XRECORD
  5
F0
102
{ACAD_REACTORS
330
ED
102
}
330
ED
100
AcDbXrecord
  1

  0
XRECORD
  5
F5
102
{ACAD_REACTORS
330
ED
102
}
330
ED
100
AcDbXrecord
 90
        1
  0
XRECORD
  5
F2
102
{ACAD_REACTORS
330
ED
102
}
330
ED
100
AcDbXrecord
340
1A
  0
XRECORD
  5
F4
102
{ACAD_REACTORS
330
ED
102
}
330
ED
100
AcDbXrecord
 90
    10781
  0
XRECORD
  5
F3
102
{ACAD_REACTORS
330
ED
102
}
330
ED
100
AcDbXrecord
340
19
  0
XRECORD
  5
F9
102
{ACAD_REACTORS
330
ED
102
}
330
ED
100
AcDbXrecord
 40
0.0
  0
XRECORD
  5
FC
102
{ACAD_REACTORS
330
ED
102
}
330
ED
100
AcDbXrecord
340
0
  0
XRECORD
  5
102
102
{ACAD_REACTORS
330
ED
102
}
330
ED
100
AcDbXrecord
 10
0.0
 20
0.0
 30
0.0
  0
XRECORD
  5
FE
102
{ACAD_REACTORS
330
ED
102
}
330
ED
100
AcDbXrecord
 10
0.0
 20
0.0
 30
0.0
  0
XRECORD
  5
101
102
{ACAD_REACTORS
330
ED
102
}
330
ED
100
AcDbXrecord
 10
0.0
 20
0.0
 30
0.0
  0
XRECORD
  5
FF
102
{ACAD_REACTORS
330
ED
102
}
330
ED
100
AcDbXrecord
 10
0.0
 20
0.0
 30
0.0
  0
XRECORD
  5
100
102
{ACAD_REACTORS
330
ED
102
}
330
ED
100
AcDbXrecord
 10
0.0
 20
0.0
 30
0.0
  0
XRECORD
  5
FD
102
{ACAD_REACTORS
330
ED
102
}
330
ED
100
AcDbXrecord
 10
0.0
 20
0.0
 30
0.0
  0
XRECORD
  5
FA
102
{ACAD_REACTORS
330
ED
102
}
330
ED
100
AcDbXrecord
340
0
  0
XRECORD
  5
FB
102
{ACAD_REACTORS
330
ED
102
}
330
ED
100
AcDbXrecord
 70
     0
  0
XRECORD
  5
F1
102
{ACAD_REACTORS
330
ED
102
}
330
ED
100
AcDbXrecord
  1

  0
XRECORD
  5
EE
102
{ACAD_REACTORS
330
ED
102
}
330
ED
100
AcDbXrecord
 90
        1
  0
XRECORD
  5
EF
102
{ACAD_REACTORS
330
ED
102
}
330
ED
100
AcDbXrecord
 90
       70
  0
XRECORD
  5
105
102
{ACAD_REACTORS
330
ED
102
}
330
ED
100
AcDbXrecord
340
0
  0
XRECORD
  5
10B
102
{ACAD_REACTORS
330
ED
102
}
330
ED
100
AcDbXrecord
 10
0.0
 20
0.0
 30
0.0
  0
XRECORD
  5
107
102
{ACAD_REACTORS
330
ED
102
}
330
ED
100
AcDbXrecord
 10
0.0
 20
0.0
 30
0.0
  0
XRECORD
  5
10A
102
{ACAD_REACTORS
330
ED
102
}
330
ED
100
AcDbXrecord
 10
0.0
 20
0.0
 30
0.0
  0
XRECORD
  5
108
102
{ACAD_REACTORS
330
ED
102
}
330
ED
100
AcDbXrecord
 10
0.0
 20
0.0
 30
0.0
  0
XRECORD
  5
109
102
{ACAD_REACTORS
330
ED
102
}
330
ED
100
AcDbXrecord
 10
0.0
 20
0.0
 30
0.0
  0
XRECORD
  5
106
102
{ACAD_REACTORS
330
ED
102
}
330
ED
100
AcDbXrecord
 10
0.0
 20
0.0
 30
0.0
  0
XRECORD
  5
103
102
{ACAD_REACTORS
330
ED
102
}
330
ED
100
AcDbXrecord
340
0
  0
XRECORD
  5
104
102
{ACAD_REACTORS
330
ED
102
}
330
ED
100
AcDbXrecord
 70
     0
  0
XRECORD
  5
F8
102
{ACAD_REACTORS
330
ED
102
}
330
ED
100
AcDbXrecord
  1
{FAEB1C32-E019-11D5-929B-00C0DF256EC4}
  0
DICTIONARYVAR
  5
110
102
{ACAD_REACTORS
330
10D
102
}
330
10D
100
DictionaryVariables
280
     0
  1
2
  0
DICTIONARYVAR
  5
111
102
{ACAD_REACTORS
330
10D
102
}
330
10D
100
DictionaryVariables
280
     0
  1
1
  0
DICTIONARY
  5
114
330
3D
100
AcDbDictionary
280
     1
  3
ACAD_XREC_ROUNDTRIP
360
115
  0
DICTIONARY
  5
112
330
3C
100
AcDbDictionary
280
     1
  3
ACAD_XREC_ROUNDTRIP
360
113
  0
DICTIONARY
  5
116
330
3E
100
AcDbDictionary
280
     1
  3
ACAD_XREC_ROUNDTRIP
360
117
  0
XRECORD
  5
115
102
{ACAD_REACTORS
330
114
102
}
330
114
100
AcDbXrecord
102
MATERIAL
148
0.0
149
0.0
149
0.0
 93
        0
 94
      127
282
     0
 72
     1
 77
     1
171
     1
175
     1
179
     1
273
     0
  0
XRECORD
  5
113
102
{ACAD_REACTORS
330
112
102
}
330
112
100
AcDbXrecord
102
MATERIAL
148
0.0
149
0.0
149
0.0
 93
        0
 94
      127
282
     0
 72
     1
 77
     1
171
     1
175
     1
179
     1
273
     0
  0
XRECORD
  5
117
102
{ACAD_REACTORS
330
116
102
}
330
116
100
AcDbXrecord
102
MATERIAL
148
0.0
149
0.0
149
0.0
 93
        0
 94
      127
282
     0
 72
     1
 77
     1
171
     1
175
     1
179
     1
273
     0
  0
ENDSEC
  0
EOF
