  0
SECTION
  2
HEADER
  9
$ACADVER
  1
AC1014
  9
$ACADMAINTVER
 70
     9
  9
$DWGCODEPAGE
  3
ANSI_1252
  9
$INSBASE
 10
0.0
 20
0.0
 30
0.0
  9
$EXTMIN
 10
1.000000000000000E+20
 20
1.000000000000000E+20
 30
1.000000000000000E+20
  9
$EXTMAX
 10
-1.000000000000000E+20
 20
-1.000000000000000E+20
 30
-1.000000000000000E+20
  9
$LIMMIN
 10
0.0
 20
0.0
  9
$LIMMAX
 10
12.0
 20
9.0
  9
$ORTHOMODE
 70
     0
  9
$REGENMODE
 70
     1
  9
$FILLMODE
 70
     1
  9
$QTEXTMODE
 70
     0
  9
$MIRRTEXT
 70
     1
  9
$DRAGMODE
 70
     2
  9
$LTSCALE
 40
1.0
  9
$OSMODE
 70
    37
  9
$ATTMODE
 70
     1
  9
$TEXTSIZE
 40
0.2
  9
$TRACEWID
 40
0.05
  9
$TEXTSTYLE
  7
STANDARD
  9
$CLAYER
  8
0
  9
$CELTYPE
  6
BYLAYER
  9
$CECOLOR
 62
   256
  9
$CELTSCALE
 40
1.0
  9
$DELOBJ
 70
     1
  9
$DISPSILH
 70
     0
  9
$DIMSCALE
 40
1.0
  9
$DIMASZ
 40
0.18
  9
$DIMEXO
 40
0.0625
  9
$DIMDLI
 40
0.38
  9
$DIMRND
 40
0.0
  9
$DIMDLE
 40
0.0
  9
$DIMEXE
 40
0.18
  9
$DIMTP
 40
0.0
  9
$DIMTM
 40
0.0
  9
$DIMTXT
 40
0.18
  9
$DIMCEN
 40
0.09
  9
$DIMTSZ
 40
0.0
  9
$DIMTOL
 70
     0
  9
$DIMLIM
 70
     0
  9
$DIMTIH
 70
     1
  9
$DIMTOH
 70
     1
  9
$DIMSE1
 70
     0
  9
$DIMSE2
 70
     0
  9
$DIMTAD
 70
     0
  9
$DIMZIN
 70
     0
  9
$DIMBLK
  1

  9
$DIMASO
 70
     1
  9
$DIMSHO
 70
     1
  9
$DIMPOST
  1

  9
$DIMAPOST
  1

  9
$DIMALT
 70
     0
  9
$DIMALTD
 70
     2
  9
$DIMALTF
 40
25.4
  9
$DIMLFAC
 40
1.0
  9
$DIMTOFL
 70
     0
  9
$DIMTVP
 40
0.0
  9
$DIMTIX
 70
     0
  9
$DIMSOXD
 70
     0
  9
$DIMSAH
 70
     0
  9
$DIMBLK1
  1

  9
$DIMBLK2
  1

  9
$DIMSTYLE
  2
STANDARD
  9
$DIMCLRD
 70
     0
  9
$DIMCLRE
 70
     0
  9
$DIMCLRT
 70
     0
  9
$DIMTFAC
 40
1.0
  9
$DIMGAP
 40
0.09
  9
$DIMJUST
 70
     0
  9
$DIMSD1
 70
     0
  9
$DIMSD2
 70
     0
  9
$DIMTOLJ
 70
     1
  9
$DIMTZIN
 70
     0
  9
$DIMALTZ
 70
     0
  9
$DIMALTTZ
 70
     0
  9
$DIMFIT
 70
     3
  9
$DIMUPT
 70
     0
  9
$DIMUNIT
 70
     2
  9
$DIMDEC
 70
     4
  9
$DIMTDEC
 70
     4
  9
$DIMALTU
 70
     2
  9
$DIMALTTD
 70
     2
  9
$DIMTXSTY
  7
STANDARD
  9
$DIMAUNIT
 70
     0
  9
$LUNITS
 70
     2
  9
$LUPREC
 70
     4
  9
$SKETCHINC
 40
0.1
  9
$FILLETRAD
 40
0.5
  9
$AUNITS
 70
     0
  9
$AUPREC
 70
     0
  9
$MENU
  1
.
  9
$ELEVATION
 40
0.0
  9
$PELEVATION
 40
0.0
  9
$THICKNESS
 40
0.0
  9
$LIMCHECK
 70
     0
  9
$CHAMFERA
 40
0.5
  9
$CHAMFERB
 40
0.5
  9
$CHAMFERC
 40
1.0
  9
$CHAMFERD
 40
0.0
  9
$SKPOLY
 70
     0
  9
$TDCREATE
 40
2456306.947017107
  9
$TDUPDATE
 40
2456306.947017118
  9
$TDINDWG
 40
0.0000000116
  9
$TDUSRTIMER
 40
0.0000000116
  9
$USRTIMER
 70
     1
  9
$ANGBASE
 50
0.0
  9
$ANGDIR
 70
     0
  9
$PDMODE
 70
     0
  9
$PDSIZE
 40
0.0
  9
$PLINEWID
 40
0.0
  9
$COORDS
 70
     1
  9
$SPLFRAME
 70
     0
  9
$SPLINETYPE
 70
     6
  9
$SPLINESEGS
 70
     8
  9
$ATTDIA
 70
     0
  9
$ATTREQ
 70
     1
  9
$HANDLING
 70
     1
  9
$HANDSEED
  5
108
  9
$SURFTAB1
 70
     6
  9
$SURFTAB2
 70
     6
  9
$SURFTYPE
 70
     6
  9
$SURFU
 70
     6
  9
$SURFV
 70
     6
  9
$UCSNAME
  2

  9
$UCSORG
 10
0.0
 20
0.0
 30
0.0
  9
$UCSXDIR
 10
1.0
 20
0.0
 30
0.0
  9
$UCSYDIR
 10
0.0
 20
1.0
 30
0.0
  9
$PUCSNAME
  2

  9
$PUCSORG
 10
0.0
 20
0.0
 30
0.0
  9
$PUCSXDIR
 10
1.0
 20
0.0
 30
0.0
  9
$PUCSYDIR
 10
0.0
 20
1.0
 30
0.0
  9
$USERI1
 70
     0
  9
$USERI2
 70
     0
  9
$USERI3
 70
     0
  9
$USERI4
 70
     0
  9
$USERI5
 70
     0
  9
$USERR1
 40
0.0
  9
$USERR2
 40
0.0
  9
$USERR3
 40
0.0
  9
$USERR4
 40
0.0
  9
$USERR5
 40
0.0
  9
$WORLDVIEW
 70
     1
  9
$SHADEDGE
 70
     3
  9
$SHADEDIF
 70
    70
  9
$TILEMODE
 70
     1
  9
$MAXACTVP
 70
    64
  9
$PINSBASE
 10
0.0
 20
0.0
 30
0.0
  9
$PLIMCHECK
 70
     0
  9
$PEXTMIN
 10
1.000000000000000E+20
 20
1.000000000000000E+20
 30
1.000000000000000E+20
  9
$PEXTMAX
 10
-1.000000000000000E+20
 20
-1.000000000000000E+20
 30
-1.000000000000000E+20
  9
$PLIMMIN
 10
0.0
 20
0.0
  9
$PLIMMAX
 10
12.0
 20
9.0
  9
$UNITMODE
 70
     0
  9
$VISRETAIN
 70
     1
  9
$PLINEGEN
 70
     0
  9
$PSLTSCALE
 70
     1
  9
$TREEDEPTH
 70
  3020
  9
$PICKSTYLE
 70
     1
  9
$CMLSTYLE
  2
STANDARD
  9
$CMLJUST
 70
     0
  9
$CMLSCALE
 40
1.0
  9
$PROXYGRAPHICS
 70
     1
  9
$MEASUREMENT
 70
     0
  0
ENDSEC
  0
SECTION
  2
CLASSES
  0
CLASS
  1
ACDBDICTIONARYWDFLT
  2
AcDbDictionaryWithDefault
  3
ObjectDBX Classes
 90
        0
280
     0
281
     0
  0
CLASS
  1
VISUALSTYLE
  2
AcDbVisualStyle
  3
ObjectDBX Classes
 90
     4095
280
     0
281
     0
  0
CLASS
  1
MATERIAL
  2
AcDbMaterial
  3
ObjectDBX Classes
 90
     1153
280
     0
281
     0
  0
CLASS
  1
DICTIONARYVAR
  2
AcDbDictionaryVar
  3
ObjectDBX Classes
 90
        0
280
     0
281
     0
  0
CLASS
  1
XRECORD
  2
AcDbXrecord
  3
AutoCAD 2000
 90
        0
280
     0
281
     0
  0
CLASS
  1
LWPOLYLINE
  2
AcDbPolyline
  3
AutoCAD 2000
 90
        0
280
     0
281
     1
  0
CLASS
  1
HATCH
  2
AcDbHatch
  3
AutoCAD 2000
 90
        0
280
     0
281
     1
  0
CLASS
  1
ACDBPLACEHOLDER
  2
AcDbPlaceHolder
  3
ObjectDBX Classes
 90
        0
280
     0
281
     0
  0
CLASS
  1
LAYOUT
  2
AcDbLayout
  3
ObjectDBX Classes
 90
        0
280
     0
281
     0
  0
ENDSEC
  0
SECTION
  2
TABLES
  0
TABLE
  2
VPORT
  5
8
330
0
100
AcDbSymbolTable
 70
     1
  0
VPORT
  5
29
330
8
100
AcDbSymbolTableRecord
100
AcDbViewportTableRecord
  2
*ACTIVE
 70
     0
 10
0.0
 20
0.0
 11
1.0
 21
1.0
 12
0.0
 22
0.0
 13
0.0
 23
0.0
 14
0.5
 24
0.5
 15
0.5
 25
0.5
 16
0.0
 26
0.0
 36
1.0
 17
0.0
 27
0.0
 37
-1000.0
 40
360.8498410606838
 41
2.050884955752212
 42
50.0
 43
572.234740170828
 44
735.2998518804225
 50
0.0
 51
0.0
 71
     0
 72
   100
 73
     1
 74
     3
 75
     0
 76
     0
 77
     0
 78
     0
  0
ENDTAB
  0
TABLE
  2
LTYPE
  5
5
330
0
100
AcDbSymbolTable
 70
     1
  0
LTYPE
  5
14
330
5
100
AcDbSymbolTableRecord
100
AcDbLinetypeTableRecord
  2
BYBLOCK
 70
     0
  3

 72
    65
 73
     0
 40
0.0
  0
LTYPE
  5
15
330
5
100
AcDbSymbolTableRecord
100
AcDbLinetypeTableRecord
  2
BYLAYER
 70
     0
  3

 72
    65
 73
     0
 40
0.0
  0
LTYPE
  5
16
330
5
100
AcDbSymbolTableRecord
100
AcDbLinetypeTableRecord
  2
CONTINUOUS
 70
     0
  3
Solid line
 72
    65
 73
     0
 40
0.0
  0
ENDTAB
  0
TABLE
  2
LAYER
  5
2
330
0
100
AcDbSymbolTable
 70
     3
  0
LAYER
  5
10
330
2
100
AcDbSymbolTableRecord
100
AcDbLayerTableRecord
  2
0
 70
     0
 62
     7
  6
CONTINUOUS
  0
LAYER
  5
3F
330
2
100
AcDbSymbolTableRecord
100
AcDbLayerTableRecord
  2
PROFILEEDGES
 70
     0
 62
     7
  6
CONTINUOUS
  0
LAYER
  5
40
330
2
100
AcDbSymbolTableRecord
100
AcDbLayerTableRecord
  2
SECTIONCUTEDGES
 70
     0
 62
     7
  6
CONTINUOUS
  0
ENDTAB
  0
TABLE
  2
STYLE
  5
3
330
0
100
AcDbSymbolTable
 70
     1
  0
STYLE
  5
11
330
3
100
AcDbSymbolTableRecord
100
AcDbTextStyleTableRecord
  2
STANDARD
 70
     0
 40
0.0
 41
1.0
 50
0.0
 71
     0
 42
0.2
  3
txt
  4

  0
ENDTAB
  0
TABLE
  2
VIEW
  5
6
330
0
100
AcDbSymbolTable
 70
     0
  0
ENDTAB
  0
TABLE
  2
UCS
  5
7
330
0
100
AcDbSymbolTable
 70
     0
  0
ENDTAB
  0
TABLE
  2
APPID
  5
9
330
0
100
AcDbSymbolTable
 70
     1
  0
APPID
  5
12
330
9
100
AcDbSymbolTableRecord
100
AcDbRegAppTableRecord
  2
ACAD
 70
     0
  0
ENDTAB
  0
TABLE
  2
DIMSTYLE
  5
A
330
0
100
AcDbSymbolTable
 70
     1
  0
DIMSTYLE
105
27
330
A
100
AcDbSymbolTableRecord
100
AcDbDimStyleTableRecord
  2
STANDARD
 70
     0
  3

  4

  5

  6

  7

 40
1.0
 41
0.18
 42
0.0625
 43
0.38
 44
0.18
 45
0.0
 46
0.0
 47
0.0
 48
0.0
140
0.18
141
0.09
142
0.0
143
25.4
144
1.0
145
0.0
146
1.0
147
0.09
 71
     0
 72
     0
 73
     1
 74
     1
 75
     0
 76
     0
 77
     0
 78
     0
170
     0
171
     2
172
     0
173
     0
174
     0
175
     0
176
     0
177
     0
178
     0
270
     2
271
     4
272
     4
273
     2
274
     2
340
11
275
     0
280
     0
281
     0
282
     0
283
     1
284
     0
285
     0
286
     0
287
     3
288
     0
  0
ENDTAB
  0
TABLE
  2
BLOCK_RECORD
  5
1
330
0
100
AcDbSymbolTable
 70
     1
  0
BLOCK_RECORD
  5
1F
330
1
100
AcDbSymbolTableRecord
100
AcDbBlockTableRecord
  2
*MODEL_SPACE
  0
BLOCK_RECORD
  5
1B
330
1
100
AcDbSymbolTableRecord
100
AcDbBlockTableRecord
  2
*PAPER_SPACE
  0
ENDTAB
  0
ENDSEC
  0
SECTION
  2
BLOCKS
  0
BLOCK
  5
20
330
1F
100
AcDbEntity
  8
0
100
AcDbBlockBegin
  2
*MODEL_SPACE
 70
     0
 10
0.0
 20
0.0
 30
0.0
  3
*MODEL_SPACE
  1

  0
ENDBLK
  5
21
330
1F
100
AcDbEntity
  8
0
100
AcDbBlockEnd
  0
BLOCK
  5
1C
330
1B
100
AcDbEntity
 67
     1
  8
0
100
AcDbBlockBegin
  2
*PAPER_SPACE
 70
     0
 10
0.0
 20
0.0
 30
0.0
  3
*PAPER_SPACE
  1

  0
ENDBLK
  5
1D
330
1B
100
AcDbEntity
 67
     1
  8
0
100
AcDbBlockEnd
  0
ENDSEC
  0
SECTION
  2
ENTITIES
  0
LINE
  5
41
330
1F
100
AcDbEntity
  8
0
100
AcDbLine
 10
-137.4484541001816
 20
152.1320093258938
 30
0.0
 11
-137.4484541001816
 21
151.3336689695648
 31
0.0
  0
LINE
  5
42
330
1F
100
AcDbEntity
  8
0
100
AcDbLine
 10
-137.4484541001816
 20
-86.24520841120976
 30
0.0
 11
-137.4484541001816
 21
-85.44686805488081
 31
0.0
  0
LINE
  5
43
330
1F
100
AcDbEntity
  8
0
100
AcDbLine
 10
-137.4484541001816
 20
151.3336689695648
 30
0.0
 11
-137.4484541001816
 21
-85.44686805488081
 31
0.0
  0
LINE
  5
44
330
1F
100
AcDbEntity
  8
0
100
AcDbLine
 10
-138.2467944565106
 20
-85.44686805488081
 30
0.0
 11
-137.4484541001816
 21
-85.44686805488081
 31
0.0
  0
LINE
  5
45
330
1F
100
AcDbEntity
  8
0
100
AcDbLine
 10
100.130423280593
 20
-85.44686805488081
 30
0.0
 11
99.33208292426397
 21
-85.44686805488081
 31
0.0
  0
LINE
  5
46
330
1F
100
AcDbEntity
  8
0
100
AcDbLine
 10
-137.4484541001816
 20
-85.44686805488081
 30
0.0
 11
99.33208292426397
 21
-85.44686805488081
 31
0.0
  0
LINE
  5
47
330
1F
100
AcDbEntity
  8
0
100
AcDbLine
 10
99.33208292426397
 20
-86.24520841120976
 30
0.0
 11
99.33208292426397
 21
-85.44686805488081
 31
0.0
  0
LINE
  5
48
330
1F
100
AcDbEntity
  8
0
100
AcDbLine
 10
99.33208292426397
 20
152.1320093258938
 30
0.0
 11
99.33208292426397
 21
151.3336689695648
 31
0.0
  0
LINE
  5
49
330
1F
100
AcDbEntity
  8
0
100
AcDbLine
 10
99.33208292426397
 20
-85.44686805488081
 30
0.0
 11
99.33208292426397
 21
151.3336689695648
 31
0.0
  0
LINE
  5
4A
330
1F
100
AcDbEntity
  8
0
100
AcDbLine
 10
100.130423280593
 20
151.3336689695648
 30
0.0
 11
99.33208292426397
 21
151.3336689695648
 31
0.0
  0
LINE
  5
4B
330
1F
100
AcDbEntity
  8
0
100
AcDbLine
 10
-138.2467944565106
 20
151.3336689695648
 30
0.0
 11
-137.4484541001816
 21
151.3336689695648
 31
0.0
  0
LINE
  5
4C
330
1F
100
AcDbEntity
  8
0
100
AcDbLine
 10
99.33208292426397
 20
151.3336689695648
 30
0.0
 11
-137.4484541001816
 21
151.3336689695648
 31
0.0
  0
LINE
  5
4D
330
1F
100
AcDbEntity
  8
0
100
AcDbLine
 10
-92.39854788938015
 20
137.2512824481682
 30
0.0
 11
-93.14135651373027
 21
137.153489837543
 31
0.0
  0
LINE
  5
4E
330
1F
100
AcDbEntity
  8
0
100
AcDbLine
 10
-93.14135651373027
 20
137.153489837543
 30
0.0
 11
-93.83354395788021
 21
136.8667764104717
 31
0.0
  0
LINE
  5
4F
330
1F
100
AcDbEntity
  8
0
100
AcDbLine
 10
-93.83354395788021
 20
136.8667764104717
 30
0.0
 11
-94.42793879140501
 21
136.4106812131929
 31
0.0
  0
LINE
  5
50
330
1F
100
AcDbEntity
  8
0
100
AcDbLine
 10
-94.42793879140501
 20
136.4106812131929
 30
0.0
 11
-94.88403398868385
 21
135.8162863796681
 31
0.0
  0
LINE
  5
51
330
1F
100
AcDbEntity
  8
0
100
AcDbLine
 10
-94.88403398868385
 20
135.8162863796681
 30
0.0
 11
-95.17074741575513
 21
135.1240989355181
 31
0.0
  0
LINE
  5
52
330
1F
100
AcDbEntity
  8
0
100
AcDbLine
 10
-95.17074741575513
 20
135.1240989355181
 30
0.0
 11
-95.26854002638028
 21
134.381290311168
 31
0.0
  0
LINE
  5
53
330
1F
100
AcDbEntity
  8
0
100
AcDbLine
 10
-95.26854002638028
 20
134.381290311168
 30
0.0
 11
-95.17074741575513
 21
133.6384816868179
 31
0.0
  0
LINE
  5
54
330
1F
100
AcDbEntity
  8
0
100
AcDbLine
 10
-95.17074741575513
 20
133.6384816868179
 30
0.0
 11
-94.88403398868385
 21
132.946294242668
 31
0.0
  0
LINE
  5
55
330
1F
100
AcDbEntity
  8
0
100
AcDbLine
 10
-94.88403398868385
 20
132.946294242668
 30
0.0
 11
-94.42793879140503
 21
132.3518994091432
 31
0.0
  0
LINE
  5
56
330
1F
100
AcDbEntity
  8
0
100
AcDbLine
 10
-94.42793879140503
 20
132.3518994091432
 30
0.0
 11
-93.83354395788021
 21
131.8958042118643
 31
0.0
  0
LINE
  5
57
330
1F
100
AcDbEntity
  8
0
100
AcDbLine
 10
-93.83354395788021
 20
131.8958042118643
 30
0.0
 11
-93.14135651373027
 21
131.609090784793
 31
0.0
  0
LINE
  5
58
330
1F
100
AcDbEntity
  8
0
100
AcDbLine
 10
-93.14135651373027
 20
131.609090784793
 30
0.0
 11
-92.39854788938015
 21
131.5112981741679
 31
0.0
  0
LINE
  5
59
330
1F
100
AcDbEntity
  8
0
100
AcDbLine
 10
-92.39854788938015
 20
131.5112981741679
 30
0.0
 11
-91.65573926503004
 21
131.609090784793
 31
0.0
  0
LINE
  5
5A
330
1F
100
AcDbEntity
  8
0
100
AcDbLine
 10
-91.65573926503004
 20
131.609090784793
 30
0.0
 11
-90.9635518208801
 21
131.8958042118643
 31
0.0
  0
LINE
  5
5B
330
1F
100
AcDbEntity
  8
0
100
AcDbLine
 10
-90.9635518208801
 20
131.8958042118643
 30
0.0
 11
-90.3691569873553
 21
132.3518994091432
 31
0.0
  0
LINE
  5
5C
330
1F
100
AcDbEntity
  8
0
100
AcDbLine
 10
-90.3691569873553
 20
132.3518994091432
 30
0.0
 11
-89.91306179007645
 21
132.946294242668
 31
0.0
  0
LINE
  5
5D
330
1F
100
AcDbEntity
  8
0
100
AcDbLine
 10
-89.91306179007645
 20
132.946294242668
 30
0.0
 11
-89.62634836300518
 21
133.6384816868179
 31
0.0
  0
LINE
  5
5E
330
1F
100
AcDbEntity
  8
0
100
AcDbLine
 10
-89.62634836300518
 20
133.6384816868179
 30
0.0
 11
-89.52855575238003
 21
134.381290311168
 31
0.0
  0
LINE
  5
5F
330
1F
100
AcDbEntity
  8
0
100
AcDbLine
 10
-89.52855575238003
 20
134.381290311168
 30
0.0
 11
-89.62634836300518
 21
135.1240989355181
 31
0.0
  0
LINE
  5
60
330
1F
100
AcDbEntity
  8
0
100
AcDbLine
 10
-89.62634836300518
 20
135.1240989355181
 30
0.0
 11
-89.91306179007645
 21
135.8162863796681
 31
0.0
  0
LINE
  5
61
330
1F
100
AcDbEntity
  8
0
100
AcDbLine
 10
-89.91306179007645
 20
135.8162863796681
 30
0.0
 11
-90.3691569873553
 21
136.4106812131929
 31
0.0
  0
LINE
  5
62
330
1F
100
AcDbEntity
  8
0
100
AcDbLine
 10
-90.3691569873553
 20
136.4106812131929
 30
0.0
 11
-90.9635518208801
 21
136.8667764104717
 31
0.0
  0
LINE
  5
63
330
1F
100
AcDbEntity
  8
0
100
AcDbLine
 10
-90.9635518208801
 20
136.8667764104717
 30
0.0
 11
-91.65573926503004
 21
137.153489837543
 31
0.0
  0
LINE
  5
64
330
1F
100
AcDbEntity
  8
0
100
AcDbLine
 10
-91.65573926503004
 20
137.153489837543
 30
0.0
 11
-92.39854788938015
 21
137.2512824481682
 31
0.0
  0
LINE
  5
65
330
1F
100
AcDbEntity
  8
0
100
AcDbLine
 10
54.24483511984943
 20
137.2395645515885
 30
0.0
 11
53.50813100518847
 21
137.1425756149105
 31
0.0
  0
LINE
  5
66
330
1F
100
AcDbEntity
  8
0
100
AcDbLine
 10
53.50813100518847
 20
137.1425756149105
 30
0.0
 11
52.82163205848051
 21
136.8582184406292
 31
0.0
  0
LINE
  5
67
330
1F
100
AcDbEntity
  8
0
100
AcDbLine
 10
52.82163205848051
 20
136.8582184406292
 30
0.0
 11
52.23212204845061
 21
136.4058715002495
 31
0.0
  0
LINE
  5
68
330
1F
100
AcDbEntity
  8
0
100
AcDbLine
 10
52.23212204845061
 20
136.4058715002495
 30
0.0
 11
51.77977510807089
 21
135.8163614902196
 31
0.0
  0
LINE
  5
69
330
1F
100
AcDbEntity
  8
0
100
AcDbLine
 10
51.77977510807089
 20
135.8163614902196
 30
0.0
 11
51.49541793378962
 21
135.1298625435116
 31
0.0
  0
LINE
  5
6A
330
1F
100
AcDbEntity
  8
0
100
AcDbLine
 10
51.49541793378962
 20
135.1298625435116
 30
0.0
 11
51.39842899711159
 21
134.3931584288507
 31
0.0
  0
LINE
  5
6B
330
1F
100
AcDbEntity
  8
0
100
AcDbLine
 10
51.39842899711159
 20
134.3931584288507
 30
0.0
 11
51.49541793378962
 21
133.6564543141897
 31
0.0
  0
LINE
  5
6C
330
1F
100
AcDbEntity
  8
0
100
AcDbLine
 10
51.49541793378962
 20
133.6564543141897
 30
0.0
 11
51.77977510807089
 21
132.9699553674817
 31
0.0
  0
LINE
  5
6D
330
1F
100
AcDbEntity
  8
0
100
AcDbLine
 10
51.77977510807089
 20
132.9699553674817
 30
0.0
 11
52.23212204845061
 21
132.3804453574518
 31
0.0
  0
LINE
  5
6E
330
1F
100
AcDbEntity
  8
0
100
AcDbLine
 10
52.23212204845061
 20
132.3804453574518
 30
0.0
 11
52.82163205848051
 21
131.9280984170721
 31
0.0
  0
LINE
  5
6F
330
1F
100
AcDbEntity
  8
0
100
AcDbLine
 10
52.82163205848051
 20
131.9280984170721
 30
0.0
 11
53.50813100518847
 21
131.6437412427908
 31
0.0
  0
LINE
  5
70
330
1F
100
AcDbEntity
  8
0
100
AcDbLine
 10
53.50813100518847
 20
131.6437412427908
 30
0.0
 11
54.24483511984943
 21
131.5467523061128
 31
0.0
  0
LINE
  5
71
330
1F
100
AcDbEntity
  8
0
100
AcDbLine
 10
54.24483511984943
 20
131.5467523061128
 30
0.0
 11
54.98153923451039
 21
131.6437412427908
 31
0.0
  0
LINE
  5
72
330
1F
100
AcDbEntity
  8
0
100
AcDbLine
 10
54.98153923451039
 20
131.6437412427908
 30
0.0
 11
55.66803818121835
 21
131.9280984170721
 31
0.0
  0
LINE
  5
73
330
1F
100
AcDbEntity
  8
0
100
AcDbLine
 10
55.66803818121835
 20
131.9280984170721
 30
0.0
 11
56.25754819124825
 21
132.3804453574518
 31
0.0
  0
LINE
  5
74
330
1F
100
AcDbEntity
  8
0
100
AcDbLine
 10
56.25754819124825
 20
132.3804453574518
 30
0.0
 11
56.70989513162796
 21
132.9699553674817
 31
0.0
  0
LINE
  5
75
330
1F
100
AcDbEntity
  8
0
100
AcDbLine
 10
56.70989513162796
 20
132.9699553674817
 30
0.0
 11
56.99425230590924
 21
133.6564543141897
 31
0.0
  0
LINE
  5
76
330
1F
100
AcDbEntity
  8
0
100
AcDbLine
 10
56.99425230590924
 20
133.6564543141897
 30
0.0
 11
57.09124124258726
 21
134.3931584288507
 31
0.0
  0
LINE
  5
77
330
1F
100
AcDbEntity
  8
0
100
AcDbLine
 10
57.09124124258726
 20
134.3931584288507
 30
0.0
 11
56.99425230590924
 21
135.1298625435116
 31
0.0
  0
LINE
  5
78
330
1F
100
AcDbEntity
  8
0
100
AcDbLine
 10
56.99425230590924
 20
135.1298625435116
 30
0.0
 11
56.70989513162796
 21
135.8163614902196
 31
0.0
  0
LINE
  5
79
330
1F
100
AcDbEntity
  8
0
100
AcDbLine
 10
56.70989513162796
 20
135.8163614902196
 30
0.0
 11
56.25754819124825
 21
136.4058715002495
 31
0.0
  0
LINE
  5
7A
330
1F
100
AcDbEntity
  8
0
100
AcDbLine
 10
56.25754819124825
 20
136.4058715002495
 30
0.0
 11
55.66803818121835
 21
136.8582184406292
 31
0.0
  0
LINE
  5
7B
330
1F
100
AcDbEntity
  8
0
100
AcDbLine
 10
55.66803818121835
 20
136.8582184406292
 30
0.0
 11
54.98153923451039
 21
137.1425756149105
 31
0.0
  0
LINE
  5
7C
330
1F
100
AcDbEntity
  8
0
100
AcDbLine
 10
54.98153923451039
 20
137.1425756149105
 30
0.0
 11
54.24483511984943
 21
137.2395645515885
 31
0.0
  0
LINE
  5
7D
330
1F
100
AcDbEntity
  8
0
100
AcDbLine
 10
79.64586275126548
 20
106.3104581217366
 30
0.0
 11
79.74331792601318
 21
105.5702125773405
 31
0.0
  0
LINE
  5
7E
330
1F
100
AcDbEntity
  8
0
100
AcDbLine
 10
79.74331792601318
 20
105.5702125773405
 30
0.0
 11
80.02904204114947
 21
104.8804135434814
 31
0.0
  0
LINE
  5
7F
330
1F
100
AcDbEntity
  8
0
100
AcDbLine
 10
80.02904204114947
 20
104.8804135434814
 30
0.0
 11
80.48356347040927
 21
104.28806968437
 31
0.0
  0
LINE
  5
80
330
1F
100
AcDbEntity
  8
0
100
AcDbLine
 10
80.48356347040927
 20
104.28806968437
 30
0.0
 11
81.07590732952067
 21
103.8335482551102
 31
0.0
  0
LINE
  5
81
330
1F
100
AcDbEntity
  8
0
100
AcDbLine
 10
81.07590732952067
 20
103.8335482551102
 30
0.0
 11
81.76570636337978
 21
103.5478241399739
 31
0.0
  0
LINE
  5
82
330
1F
100
AcDbEntity
  8
0
100
AcDbLine
 10
81.76570636337978
 20
103.5478241399739
 30
0.0
 11
82.50595190777587
 21
103.4503689652263
 31
0.0
  0
LINE
  5
83
330
1F
100
AcDbEntity
  8
0
100
AcDbLine
 10
82.50595190777587
 20
103.4503689652263
 30
0.0
 11
83.24619745217196
 21
103.5478241399739
 31
0.0
  0
LINE
  5
84
330
1F
100
AcDbEntity
  8
0
100
AcDbLine
 10
83.24619745217196
 20
103.5478241399739
 30
0.0
 11
83.93599648603106
 21
103.8335482551102
 31
0.0
  0
LINE
  5
85
330
1F
100
AcDbEntity
  8
0
100
AcDbLine
 10
83.93599648603106
 20
103.8335482551102
 30
0.0
 11
84.52834034514248
 21
104.28806968437
 31
0.0
  0
LINE
  5
86
330
1F
100
AcDbEntity
  8
0
100
AcDbLine
 10
84.52834034514248
 20
104.28806968437
 30
0.0
 11
84.98286177440228
 21
104.8804135434814
 31
0.0
  0
LINE
  5
87
330
1F
100
AcDbEntity
  8
0
100
AcDbLine
 10
84.98286177440228
 20
104.8804135434814
 30
0.0
 11
85.26858588953857
 21
105.5702125773405
 31
0.0
  0
LINE
  5
88
330
1F
100
AcDbEntity
  8
0
100
AcDbLine
 10
85.26858588953857
 20
105.5702125773405
 30
0.0
 11
85.36604106428626
 21
106.3104581217366
 31
0.0
  0
LINE
  5
89
330
1F
100
AcDbEntity
  8
0
100
AcDbLine
 10
85.36604106428626
 20
106.3104581217366
 30
0.0
 11
85.26858588953857
 21
107.0507036661327
 31
0.0
  0
LINE
  5
8A
330
1F
100
AcDbEntity
  8
0
100
AcDbLine
 10
85.26858588953857
 20
107.0507036661327
 30
0.0
 11
84.98286177440228
 21
107.7405026999919
 31
0.0
  0
LINE
  5
8B
330
1F
100
AcDbEntity
  8
0
100
AcDbLine
 10
84.98286177440228
 20
107.7405026999919
 30
0.0
 11
84.52834034514248
 21
108.3328465591033
 31
0.0
  0
LINE
  5
8C
330
1F
100
AcDbEntity
  8
0
100
AcDbLine
 10
84.52834034514248
 20
108.3328465591033
 30
0.0
 11
83.93599648603106
 21
108.787367988363
 31
0.0
  0
LINE
  5
8D
330
1F
100
AcDbEntity
  8
0
100
AcDbLine
 10
83.93599648603106
 20
108.787367988363
 30
0.0
 11
83.24619745217196
 21
109.0730921034993
 31
0.0
  0
LINE
  5
8E
330
1F
100
AcDbEntity
  8
0
100
AcDbLine
 10
83.24619745217196
 20
109.0730921034993
 30
0.0
 11
82.50595190777587
 21
109.170547278247
 31
0.0
  0
LINE
  5
8F
330
1F
100
AcDbEntity
  8
0
100
AcDbLine
 10
82.50595190777587
 20
109.170547278247
 30
0.0
 11
81.76570636337978
 21
109.0730921034993
 31
0.0
  0
LINE
  5
90
330
1F
100
AcDbEntity
  8
0
100
AcDbLine
 10
81.76570636337978
 20
109.0730921034993
 30
0.0
 11
81.07590732952067
 21
108.787367988363
 31
0.0
  0
LINE
  5
91
330
1F
100
AcDbEntity
  8
0
100
AcDbLine
 10
81.07590732952067
 20
108.787367988363
 30
0.0
 11
80.48356347040927
 21
108.3328465591033
 31
0.0
  0
LINE
  5
92
330
1F
100
AcDbEntity
  8
0
100
AcDbLine
 10
80.48356347040927
 20
108.3328465591033
 30
0.0
 11
80.02904204114947
 21
107.7405026999919
 31
0.0
  0
LINE
  5
93
330
1F
100
AcDbEntity
  8
0
100
AcDbLine
 10
80.02904204114947
 20
107.7405026999919
 30
0.0
 11
79.74331792601318
 21
107.0507036661327
 31
0.0
  0
LINE
  5
94
330
1F
100
AcDbEntity
  8
0
100
AcDbLine
 10
79.74331792601318
 20
107.0507036661327
 30
0.0
 11
79.64586275126548
 21
106.3104581217366
 31
0.0
  0
LINE
  5
95
330
1F
100
AcDbEntity
  8
0
100
AcDbLine
 10
80.2638465446444
 20
-38.53029575577476
 30
0.0
 11
79.89584913920608
 21
-39.1691010751271
 31
0.0
  0
LINE
  5
96
330
1F
100
AcDbEntity
  8
0
100
AcDbLine
 10
79.89584913920608
 20
-39.1691010751271
 30
0.0
 11
79.70572592404699
 21
-39.88138436813612
 31
0.0
  0
LINE
  5
97
330
1F
100
AcDbEntity
  8
0
100
AcDbLine
 10
79.70572592404699
 20
-39.88138436813612
 30
0.0
 11
79.70643348208682
 21
-40.61860470548705
 31
0.0
  0
LINE
  5
98
330
1F
100
AcDbEntity
  8
0
100
AcDbLine
 10
79.70643348208682
 20
-40.61860470548705
 30
0.0
 11
79.89792359441438
 21
-41.33052173950364
 31
0.0
  0
LINE
  5
99
330
1F
100
AcDbEntity
  8
0
100
AcDbLine
 10
79.89792359441438
 20
-41.33052173950364
 30
0.0
 11
80.267146526327
 21
-41.96861950081617
 31
0.0
  0
LINE
  5
9A
330
1F
100
AcDbEntity
  8
0
100
AcDbLine
 10
80.267146526327
 20
-41.96861950081617
 30
0.0
 11
80.7889403451845
 21
-42.4894126814976
 31
0.0
  0
LINE
  5
9B
330
1F
100
AcDbEntity
  8
0
100
AcDbLine
 10
80.7889403451845
 20
-42.4894126814976
 30
0.0
 11
81.42774566453684
 21
-42.85741008693594
 31
0.0
  0
LINE
  5
9C
330
1F
100
AcDbEntity
  8
0
100
AcDbLine
 10
81.42774566453684
 20
-42.85741008693594
 30
0.0
 11
82.14002895754585
 21
-43.047533302095
 31
0.0
  0
LINE
  5
9D
330
1F
100
AcDbEntity
  8
0
100
AcDbLine
 10
82.14002895754585
 20
-43.047533302095
 30
0.0
 11
82.87724929489679
 21
-43.04682574405518
 31
0.0
  0
LINE
  5
9E
330
1F
100
AcDbEntity
  8
0
100
AcDbLine
 10
82.87724929489679
 20
-43.04682574405518
 30
0.0
 11
83.58916632891336
 21
-42.85533563172761
 31
0.0
  0
LINE
  5
9F
330
1F
100
AcDbEntity
  8
0
100
AcDbLine
 10
83.58916632891336
 20
-42.85533563172761
 30
0.0
 11
84.22726409022592
 21
-42.48611269981502
 31
0.0
  0
LINE
  5
A0
330
1F
100
AcDbEntity
  8
0
100
AcDbLine
 10
84.22726409022592
 20
-42.48611269981502
 30
0.0
 11
84.74805727090734
 21
-41.9643188809575
 31
0.0
  0
LINE
  5
A1
330
1F
100
AcDbEntity
  8
0
100
AcDbLine
 10
84.74805727090734
 20
-41.9643188809575
 30
0.0
 11
85.11605467634567
 21
-41.32551356160516
 31
0.0
  0
LINE
  5
A2
330
1F
100
AcDbEntity
  8
0
100
AcDbLine
 10
85.11605467634567
 20
-41.32551356160516
 30
0.0
 11
85.30617789150476
 21
-40.61323026859614
 31
0.0
  0
LINE
  5
A3
330
1F
100
AcDbEntity
  8
0
100
AcDbLine
 10
85.30617789150476
 20
-40.61323026859614
 30
0.0
 11
85.30547033346492
 21
-39.87600993124521
 31
0.0
  0
LINE
  5
A4
330
1F
100
AcDbEntity
  8
0
100
AcDbLine
 10
85.30547033346492
 20
-39.87600993124521
 30
0.0
 11
85.11398022113735
 21
-39.16409289722863
 31
0.0
  0
LINE
  5
A5
330
1F
100
AcDbEntity
  8
0
100
AcDbLine
 10
85.11398022113735
 20
-39.16409289722863
 30
0.0
 11
84.74475728922475
 21
-38.52599513591611
 31
0.0
  0
LINE
  5
A6
330
1F
100
AcDbEntity
  8
0
100
AcDbLine
 10
84.74475728922475
 20
-38.52599513591611
 30
0.0
 11
84.22296347036723
 21
-38.00520195523466
 31
0.0
  0
LINE
  5
A7
330
1F
100
AcDbEntity
  8
0
100
AcDbLine
 10
84.22296347036723
 20
-38.00520195523466
 30
0.0
 11
83.58415815101489
 21
-37.63720454979632
 31
0.0
  0
LINE
  5
A8
330
1F
100
AcDbEntity
  8
0
100
AcDbLine
 10
83.58415815101489
 20
-37.63720454979632
 30
0.0
 11
82.8718748580059
 21
-37.44708133463726
 31
0.0
  0
LINE
  5
A9
330
1F
100
AcDbEntity
  8
0
100
AcDbLine
 10
82.8718748580059
 20
-37.44708133463726
 30
0.0
 11
82.13465452065496
 21
-37.44778889267707
 31
0.0
  0
LINE
  5
AA
330
1F
100
AcDbEntity
  8
0
100
AcDbLine
 10
82.13465452065496
 20
-37.44778889267707
 30
0.0
 11
81.42273748663838
 21
-37.63927900500465
 31
0.0
  0
LINE
  5
AB
330
1F
100
AcDbEntity
  8
0
100
AcDbLine
 10
81.42273748663838
 20
-37.63927900500465
 30
0.0
 11
80.78463972532583
 21
-38.00850193691725
 31
0.0
  0
LINE
  5
AC
330
1F
100
AcDbEntity
  8
0
100
AcDbLine
 10
80.78463972532583
 20
-38.00850193691725
 30
0.0
 11
80.2638465446444
 21
-38.53029575577476
 31
0.0
  0
LINE
  5
AD
330
1F
100
AcDbEntity
  8
0
100
AcDbLine
 10
54.23096176015006
 20
-65.71518537114225
 30
0.0
 11
53.49988766568024
 21
-65.84008937185648
 31
0.0
  0
LINE
  5
AE
330
1F
100
AcDbEntity
  8
0
100
AcDbLine
 10
53.49988766568024
 20
-65.84008937185648
 30
0.0
 11
52.82605185109532
 21
-66.14995327098303
 31
0.0
  0
LINE
  5
AF
330
1F
100
AcDbEntity
  8
0
100
AcDbLine
 10
52.82605185109532
 20
-66.14995327098303
 30
0.0
 11
52.25537511359286
 21
-66.62366035587077
 31
0.0
  0
LINE
  5
B0
330
1F
100
AcDbEntity
  8
0
100
AcDbLine
 10
52.25537511359286
 20
-66.62366035587077
 30
0.0
 11
51.8267481297458
 21
-67.22892827152253
 31
0.0
  0
LINE
  5
B1
330
1F
100
AcDbEntity
  8
0
100
AcDbLine
 10
51.8267481297458
 20
-67.22892827152253
 30
0.0
 11
51.56938112016373
 21
-67.9245090097392
 31
0.0
  0
LINE
  5
B2
330
1F
100
AcDbEntity
  8
0
100
AcDbLine
 10
51.56938112016373
 20
-67.9245090097392
 30
0.0
 11
51.50081322123056
 21
-68.6629998927128
 31
0.0
  0
LINE
  5
B3
330
1F
100
AcDbEntity
  8
0
100
AcDbLine
 10
51.50081322123056
 20
-68.6629998927128
 30
0.0
 11
51.62571722194478
 21
-69.39407398718261
 31
0.0
  0
LINE
  5
B4
330
1F
100
AcDbEntity
  8
0
100
AcDbLine
 10
51.62571722194478
 20
-69.39407398718261
 30
0.0
 11
51.93558112107134
 21
-70.06790980176754
 31
0.0
  0
LINE
  5
B5
330
1F
100
AcDbEntity
  8
0
100
AcDbLine
 10
51.93558112107134
 20
-70.06790980176754
 30
0.0
 11
52.40928820595907
 21
-70.63858653927
 31
0.0
  0
LINE
  5
B6
330
1F
100
AcDbEntity
  8
0
100
AcDbLine
 10
52.40928820595907
 20
-70.63858653927
 30
0.0
 11
53.01455612161082
 21
-71.06721352311705
 31
0.0
  0
LINE
  5
B7
330
1F
100
AcDbEntity
  8
0
100
AcDbLine
 10
53.01455612161082
 20
-71.06721352311705
 30
0.0
 11
53.7101368598275
 21
-71.32458053269913
 31
0.0
  0
LINE
  5
B8
330
1F
100
AcDbEntity
  8
0
100
AcDbLine
 10
53.7101368598275
 20
-71.32458053269913
 30
0.0
 11
54.44862774280111
 21
-71.3931484316323
 31
0.0
  0
LINE
  5
B9
330
1F
100
AcDbEntity
  8
0
100
AcDbLine
 10
54.44862774280111
 20
-71.3931484316323
 30
0.0
 11
55.17970183727092
 21
-71.26824443091807
 31
0.0
  0
LINE
  5
BA
330
1F
100
AcDbEntity
  8
0
100
AcDbLine
 10
55.17970183727092
 20
-71.26824443091807
 30
0.0
 11
55.85353765185585
 21
-70.95838053179152
 31
0.0
  0
LINE
  5
BB
330
1F
100
AcDbEntity
  8
0
100
AcDbLine
 10
55.85353765185585
 20
-70.95838053179152
 30
0.0
 11
56.4242143893583
 21
-70.48467344690378
 31
0.0
  0
LINE
  5
BC
330
1F
100
AcDbEntity
  8
0
100
AcDbLine
 10
56.4242143893583
 20
-70.48467344690378
 30
0.0
 11
56.85284137320537
 21
-69.87940553125202
 31
0.0
  0
LINE
  5
BD
330
1F
100
AcDbEntity
  8
0
100
AcDbLine
 10
56.85284137320537
 20
-69.87940553125202
 30
0.0
 11
57.11020838278744
 21
-69.18382479303537
 31
0.0
  0
LINE
  5
BE
330
1F
100
AcDbEntity
  8
0
100
AcDbLine
 10
57.11020838278744
 20
-69.18382479303537
 30
0.0
 11
57.17877628172062
 21
-68.44533391006175
 31
0.0
  0
LINE
  5
BF
330
1F
100
AcDbEntity
  8
0
100
AcDbLine
 10
57.17877628172062
 20
-68.44533391006175
 30
0.0
 11
57.05387228100638
 21
-67.71425981559194
 31
0.0
  0
LINE
  5
C0
330
1F
100
AcDbEntity
  8
0
100
AcDbLine
 10
57.05387228100638
 20
-67.71425981559194
 30
0.0
 11
56.74400838187984
 21
-67.04042400100701
 31
0.0
  0
LINE
  5
C1
330
1F
100
AcDbEntity
  8
0
100
AcDbLine
 10
56.74400838187984
 20
-67.04042400100701
 30
0.0
 11
56.27030129699209
 21
-66.46974726350457
 31
0.0
  0
LINE
  5
C2
330
1F
100
AcDbEntity
  8
0
100
AcDbLine
 10
56.27030129699209
 20
-66.46974726350457
 30
0.0
 11
55.66503338134034
 21
-66.0411202796575
 31
0.0
  0
LINE
  5
C3
330
1F
100
AcDbEntity
  8
0
100
AcDbLine
 10
55.66503338134034
 20
-66.0411202796575
 30
0.0
 11
54.96945264312366
 21
-65.78375327007542
 31
0.0
  0
LINE
  5
C4
330
1F
100
AcDbEntity
  8
0
100
AcDbLine
 10
54.96945264312366
 20
-65.78375327007542
 30
0.0
 11
54.23096176015006
 21
-65.71518537114225
 31
0.0
  0
LINE
  5
C5
330
1F
100
AcDbEntity
  8
0
100
AcDbLine
 10
-92.32522781586782
 20
-65.71515805870006
 30
0.0
 11
-93.06001737356972
 21
-65.81189493917265
 31
0.0
  0
LINE
  5
C6
330
1F
100
AcDbEntity
  8
0
100
AcDbLine
 10
-93.06001737356972
 20
-65.81189493917265
 30
0.0
 11
-93.74473223721144
 21
-66.09551312205147
 31
0.0
  0
LINE
  5
C7
330
1F
100
AcDbEntity
  8
0
100
AcDbLine
 10
-93.74473223721144
 20
-66.09551312205147
 30
0.0
 11
-94.33271022038053
 21
-66.54668449687456
 31
0.0
  0
LINE
  5
C8
330
1F
100
AcDbEntity
  8
0
100
AcDbLine
 10
-94.33271022038053
 20
-66.54668449687456
 30
0.0
 11
-94.7838815952036
 21
-67.13466248004366
 31
0.0
  0
LINE
  5
C9
330
1F
100
AcDbEntity
  8
0
100
AcDbLine
 10
-94.7838815952036
 20
-67.13466248004366
 30
0.0
 11
-95.06749977808244
 21
-67.81937734368536
 31
0.0
  0
LINE
  5
CA
330
1F
100
AcDbEntity
  8
0
100
AcDbLine
 10
-95.06749977808244
 20
-67.81937734368536
 30
0.0
 11
-95.16423665855504
 21
-68.55416690138728
 31
0.0
  0
LINE
  5
CB
330
1F
100
AcDbEntity
  8
0
100
AcDbLine
 10
-95.16423665855504
 20
-68.55416690138728
 30
0.0
 11
-95.06749977808244
 21
-69.2889564590892
 31
0.0
  0
LINE
  5
CC
330
1F
100
AcDbEntity
  8
0
100
AcDbLine
 10
-95.06749977808244
 20
-69.2889564590892
 30
0.0
 11
-94.7838815952036
 21
-69.9736713227309
 31
0.0
  0
LINE
  5
CD
330
1F
100
AcDbEntity
  8
0
100
AcDbLine
 10
-94.7838815952036
 20
-69.9736713227309
 30
0.0
 11
-94.33271022038053
 21
-70.56164930589999
 31
0.0
  0
LINE
  5
CE
330
1F
100
AcDbEntity
  8
0
100
AcDbLine
 10
-94.33271022038053
 20
-70.56164930589999
 30
0.0
 11
-93.74473223721144
 21
-71.01282068072305
 31
0.0
  0
LINE
  5
CF
330
1F
100
AcDbEntity
  8
0
100
AcDbLine
 10
-93.74473223721144
 20
-71.01282068072305
 30
0.0
 11
-93.06001737356975
 21
-71.2964388636019
 31
0.0
  0
LINE
  5
D0
330
1F
100
AcDbEntity
  8
0
100
AcDbLine
 10
-93.06001737356975
 20
-71.2964388636019
 30
0.0
 11
-92.32522781586782
 21
-71.39317574407451
 31
0.0
  0
LINE
  5
D1
330
1F
100
AcDbEntity
  8
0
100
AcDbLine
 10
-92.32522781586782
 20
-71.39317574407451
 30
0.0
 11
-91.5904382581659
 21
-71.2964388636019
 31
0.0
  0
LINE
  5
D2
330
1F
100
AcDbEntity
  8
0
100
AcDbLine
 10
-91.5904382581659
 20
-71.2964388636019
 30
0.0
 11
-90.9057233945242
 21
-71.01282068072308
 31
0.0
  0
LINE
  5
D3
330
1F
100
AcDbEntity
  8
0
100
AcDbLine
 10
-90.9057233945242
 20
-71.01282068072308
 30
0.0
 11
-90.3177454113551
 21
-70.56164930589999
 31
0.0
  0
LINE
  5
D4
330
1F
100
AcDbEntity
  8
0
100
AcDbLine
 10
-90.3177454113551
 20
-70.56164930589999
 30
0.0
 11
-89.86657403653203
 21
-69.9736713227309
 31
0.0
  0
LINE
  5
D5
330
1F
100
AcDbEntity
  8
0
100
AcDbLine
 10
-89.86657403653203
 20
-69.9736713227309
 30
0.0
 11
-89.58295585365319
 21
-69.2889564590892
 31
0.0
  0
LINE
  5
D6
330
1F
100
AcDbEntity
  8
0
100
AcDbLine
 10
-89.58295585365319
 20
-69.2889564590892
 30
0.0
 11
-89.48621897318058
 21
-68.55416690138728
 31
0.0
  0
LINE
  5
D7
330
1F
100
AcDbEntity
  8
0
100
AcDbLine
 10
-89.48621897318058
 20
-68.55416690138728
 30
0.0
 11
-89.58295585365319
 21
-67.81937734368536
 31
0.0
  0
LINE
  5
D8
330
1F
100
AcDbEntity
  8
0
100
AcDbLine
 10
-89.58295585365319
 20
-67.81937734368536
 30
0.0
 11
-89.86657403653201
 21
-67.13466248004366
 31
0.0
  0
LINE
  5
D9
330
1F
100
AcDbEntity
  8
0
100
AcDbLine
 10
-89.86657403653201
 20
-67.13466248004366
 30
0.0
 11
-90.3177454113551
 21
-66.54668449687456
 31
0.0
  0
LINE
  5
DA
330
1F
100
AcDbEntity
  8
0
100
AcDbLine
 10
-90.3177454113551
 20
-66.54668449687456
 30
0.0
 11
-90.9057233945242
 21
-66.09551312205149
 31
0.0
  0
LINE
  5
DB
330
1F
100
AcDbEntity
  8
0
100
AcDbLine
 10
-90.9057233945242
 20
-66.09551312205149
 30
0.0
 11
-91.59043825816589
 21
-65.81189493917266
 31
0.0
  0
LINE
  5
DC
330
1F
100
AcDbEntity
  8
0
100
AcDbLine
 10
-91.59043825816589
 20
-65.81189493917266
 30
0.0
 11
-92.32522781586782
 21
-65.71515805870006
 31
0.0
  0
ENDSEC
  0
SECTION
  2
OBJECTS
  0
DICTIONARY
  5
C
330
0
100
AcDbDictionary
  3
ACAD_GROUP
350
D
  3
ACAD_LAYOUT
350
1A
  3
ACAD_MATERIAL
350
3B
  3
ACAD_MLEADERSTYLE
350
FF
  3
ACAD_MLINESTYLE
350
17
  3
ACAD_PLOTSETTINGS
350
19
  3
ACAD_VISUALSTYLE
350
2A
  3
ACDBHEADERROUNDTRIPXREC
350
DD
  3
ACDBVARIABLEDICTIONARY
350
FD
  0
DICTIONARY
  5
D
102
{ACAD_REACTORS
330
C
102
}
330
C
100
AcDbDictionary
  0
DICTIONARY
  5
1A
102
{ACAD_REACTORS
330
C
102
}
330
C
100
AcDbDictionary
  0
DICTIONARY
  5
3B
102
{ACAD_REACTORS
330
C
102
}
330
C
100
AcDbDictionary
  3
BYBLOCK
350
3D
  3
BYLAYER
350
3C
  3
GLOBAL
350
3E
  0
DICTIONARY
  5
FF
102
{ACAD_REACTORS
330
C
102
}
330
C
100
AcDbDictionary
  0
DICTIONARY
  5
17
102
{ACAD_REACTORS
330
C
102
}
330
C
100
AcDbDictionary
  3
STANDARD
350
18
  0
DICTIONARY
  5
19
102
{ACAD_REACTORS
330
C
102
}
330
C
100
AcDbDictionary
  0
DICTIONARY
  5
2A
102
{ACAD_REACTORS
330
C
102
}
330
C
100
AcDbDictionary
  3
2DWIREFRAME
350
2F
  3
3D_HIDDEN
350
31
  3
3DWIREFRAME
350
30
  3
BASIC
350
32
  3
BRIGHTEN
350
36
  3
COLORCHANGE
350
3A
  3
CONCEPTUAL
350
34
  3
DIM
350
35
  3
FACEPATTERN
350
39
  3
FLAT
350
2B
  3
FLATWITHEDGES
350
2C
  3
GOURAUD
350
2D
  3
GOURAUDWITHEDGES
350
2E
  3
LINEPATTERN
350
38
  3
REALISTIC
350
33
  3
THICKEN
350
37
  0
DICTIONARY
  5
DD
102
{ACAD_REACTORS
330
C
102
}
330
C
100
AcDbDictionary
  3
CEPSNTYPE
350
E6
  3
DIMSTYLEDATA
350
FC
  3
FINGERPRINTGUID
350
E7
  3
HYPERLINKBASE
350
E0
  3
INSUNITS
350
E5
  3
LAYOUTDICT
350
E2
  3
LWETCUNION
350
E4
  3
PLOTSETDICT
350
E3
  3
PSVPSCALE
350
E9
  3
PUCSBASE
350
EC
  3
PUCSORGBACK
350
F2
  3
PUCSORGBOTTOM
350
EE
  3
PUCSORGFRONT
350
F1
  3
PUCSORGLEFT
350
EF
  3
PUCSORGRIGHT
350
F0
  3
PUCSORGTOP
350
ED
  3
PUCSORTHOREF
350
EA
  3
PUCSORTHOVIEW
350
EB
  3
STYLESHEET
350
E1
  3
TSTACKALIGN
350
DE
  3
TSTACKSIZE
350
DF
  3
UCSBASE
350
F5
  3
UCSORGBACK
350
FB
  3
UCSORGBOTTOM
350
F7
  3
UCSORGFRONT
350
FA
  3
UCSORGLEFT
350
F8
  3
UCSORGRIGHT
350
F9
  3
UCSORGTOP
350
F6
  3
UCSORTHOREF
350
F3
  3
UCSORTHOVIEW
350
F4
  3
VERSIONGUID
350
E8
  0
DICTIONARY
  5
FD
102
{ACAD_REACTORS
330
C
102
}
330
C
100
AcDbDictionary
  3
DIMASSOC
350
100
  3
HIDETEXT
350
101
  0
MATERIAL
  5
3D
102
{ACAD_REACTORS
330
3B
102
}
102
{ACAD_XDICTIONARY
360
104
102
}
330
3B
100
AcDbMaterial
  1
ByBlock
  0
MATERIAL
  5
3C
102
{ACAD_REACTORS
330
3B
102
}
102
{ACAD_XDICTIONARY
360
102
102
}
330
3B
100
AcDbMaterial
  1
ByLayer
  0
MATERIAL
  5
3E
102
{ACAD_REACTORS
330
3B
102
}
102
{ACAD_XDICTIONARY
360
106
102
}
330
3B
100
AcDbMaterial
  1
Global
  0
MLINESTYLE
  5
18
102
{ACAD_REACTORS
330
17
102
}
330
17
100
AcDbMlineStyle
  2
Standard
 70
     0
  3

 62
   256
 51
90.0
 52
90.0
 71
     2
 49
0.5
 62
   256
  6
BYLAYER
 49
-0.5
 62
   256
  6
BYLAYER
  0
ACAD_PROXY_OBJECT
  5
2F
102
{ACAD_REACTORS
330
2A
102
}
330
2A
100
AcDbProxyObject
 90
      499
 91
      501
 93
      436
310
42CC9915DA5C99599C985B595049028333333333333E3BF0000000000000FB0107901411070040501600405405064090741402480A0340
1001
ACAD
1000
AcDbSavedByObjectVersion
1070
     0
  0
ACAD_PROXY_OBJECT
  5
31
102
{ACAD_REACTORS
330
2A
102
}
330
2A
100
AcDbProxyObject
 90
      499
 91
      501
 93
      500
310
424CD108121A5919195B90640502408333333333333E3BF0000000000000FB01079024090700405020000000000001110200405405064090740C02480A0340
1001
ACAD
1000
AcDbSavedByObjectVersion
1070
     0
  0
ACAD_PROXY_OBJECT
  5
30
102
{ACAD_REACTORS
330
2A
102
}
330
2A
100
AcDbProxyObject
 90
      499
 91
      501
 93
      436
310
42CCD915DA5C99599C985B595059028333333333333E3BF0000000000000FB0107901411070040501600405405064090741402480A0340
1001
ACAD
1000
AcDbSavedByObjectVersion
1070
     0
  0
ACAD_PROXY_OBJECT
  5
32
102
{ACAD_REACTORS
330
2A
102
}
330
2A
100
AcDbProxyObject
 90
      499
 91
      501
 93
      388
310
4150985CDA58D07406404333333333333E3BF0000000000000FB0107A41107004050150841D405064090741402480A0350
1001
ACAD
1000
AcDbSavedByObjectVersion
1070
     0
  0
ACAD_PROXY_OBJECT
  5
36
102
{ACAD_REACTORS
330
2A
102
}
330
2A
100
AcDbProxyObject
 90
      499
 91
      501
 93
      428
310
42109C9A59DA1D195B90C409028333333333333E3BF0000000000000FB010790141107004050150841D405064090741402480A029950
1001
ACAD
1000
AcDbSavedByObjectVersion
1070
     0
  0
ACAD_PROXY_OBJECT
  5
3A
102
{ACAD_REACTORS
330
2A
102
}
330
2A
100
AcDbProxyObject
 90
      499
 91
      501
 93
      452
310
42D0DBDB1BDC90DA185B99D95104090240C333333333333E3BF0000000000000FB0108901411070040501508421405064090741402480A0350
1001
ACAD
1000
AcDbSavedByObjectVersion
1070
     0
  0
ACAD_PROXY_OBJECT
  5
34
102
{ACAD_REACTORS
330
2A
102
}
330
2A
100
AcDbProxyObject
 90
      499
 91
      501
 93
      500
310
4290DBDB98D95C1D1D585B10940D028333333333333E3BF0000000000000FB0107902409070040501000000000000111010841D405064090740C02480A0340
1001
ACAD
1000
AcDbSavedByObjectVersion
1070
     0
  0
ACAD_PROXY_OBJECT
  5
35
102
{ACAD_REACTORS
330
2A
102
}
330
2A
100
AcDbProxyObject
 90
      499
 91
      501
 93
      412
310
40D11A5B50B409028333333333333E3BF0000000000000FB010790141107004050150841D405064090741402480A02677FFFFFD0
1001
ACAD
1000
AcDbSavedByObjectVersion
1070
     0
  0
ACAD_PROXY_OBJECT
  5
39
102
{ACAD_REACTORS
330
2A
102
}
330
2A
100
AcDbProxyObject
 90
      499
 91
      501
 93
      444
310
42D19858D95C185D1D195C9B90F409028333333333333E3BF0000000000000FB010790141107004050150841D405064090741402480A0350
1001
ACAD
1000
AcDbSavedByObjectVersion
1070
     0
  0
ACAD_PROXY_OBJECT
  5
2B
102
{ACAD_REACTORS
330
2A
102
}
330
2A
100
AcDbProxyObject
 90
      499
 91
      501
 93
      388
310
41119B185D240901404333333333333E3BF0000000000000F9010740A41107004050150841D405064090741402480A1B50
1001
ACAD
1000
AcDbSavedByObjectVersion
1070
     0
  0
ACAD_PROXY_OBJECT
  5
2C
102
{ACAD_REACTORS
330
2A
102
}
330
2A
100
AcDbProxyObject
 90
      499
 91
      501
 93
      476
310
43519B185D15DA5D1A115919D95CD0140901404333333333333E3BF0000000000000F9010740901411070040501600405405064090741402480A1B50
1001
ACAD
1000
AcDbSavedByObjectVersion
1070
     0
  0
ACAD_PROXY_OBJECT
  5
2D
102
{ACAD_REACTORS
330
2A
102
}
330
2A
100
AcDbProxyObject
 90
      499
 91
      501
 93
      412
310
41D1DBDD5C985D5910240902404333333333333E3BF0000000000000F9010740A411070040501641D405064090741402480A1B50
1001
ACAD
1000
AcDbSavedByObjectVersion
1070
     0
  0
ACAD_PROXY_OBJECT
  5
2E
102
{ACAD_REACTORS
330
2A
102
}
330
2A
100
AcDbProxyObject
 90
      499
 91
      501
 93
      500
310
4411DBDD5C985D5915DA5D1A115919D95CD0340902404333333333333E3BF0000000000000F9010740901411070040501600405405064090741402480A1B50
1001
ACAD
1000
AcDbSavedByObjectVersion
1070
     0
  0
ACAD_PROXY_OBJECT
  5
38
102
{ACAD_REACTORS
330
2A
102
}
330
2A
100
AcDbProxyObject
 90
      499
 91
      501
 93
      444
310
42D31A5B995C185D1D195C9B90E409028333333333333E3BF0000000000000FB010790141107004050750841D405064090741402483A0350
1001
ACAD
1000
AcDbSavedByObjectVersion
1070
     0
  0
ACAD_PROXY_OBJECT
  5
33
102
{ACAD_REACTORS
330
2A
102
}
330
2A
100
AcDbProxyObject
 90
      499
 91
      501
 93
      420
310
425499585B1A5CDD1A58D08409028333333333333E3BF0000000000000FB01079019070040501508421405064090741402480A1B40
1001
ACAD
1000
AcDbSavedByObjectVersion
1070
     0
  0
ACAD_PROXY_OBJECT
  5
37
102
{ACAD_REACTORS
330
2A
102
}
330
2A
100
AcDbProxyObject
 90
      499
 91
      501
 93
      412
310
41D51A1A58DAD95B90D409028333333333333E3BF0000000000000FB010790141107004050150C41D405064090741402480A0350
1001
ACAD
1000
AcDbSavedByObjectVersion
1070
     0
  0
XRECORD
  5
E6
102
{ACAD_REACTORS
330
DD
102
}
330
DD
100
AcDbXrecord
 90
        0
  0
XRECORD
  5
FC
102
{ACAD_REACTORS
330
DD
102
}
330
DD
100
AcDbXrecord
1000
DSTYLE
1002
{
1070
   340
340
11
1002
}
  0
XRECORD
  5
E7
102
{ACAD_REACTORS
330
DD
102
}
330
DD
100
AcDbXrecord
  1
{74B80433-7762-41C5-A093-FF543CBB3192}
  0
XRECORD
  5
E0
102
{ACAD_REACTORS
330
DD
102
}
330
DD
100
AcDbXrecord
  1

  0
XRECORD
  5
E5
102
{ACAD_REACTORS
330
DD
102
}
330
DD
100
AcDbXrecord
 90
        1
  0
XRECORD
  5
E2
102
{ACAD_REACTORS
330
DD
102
}
330
DD
100
AcDbXrecord
340
1A
  0
XRECORD
  5
E4
102
{ACAD_REACTORS
330
DD
102
}
330
DD
100
AcDbXrecord
 90
    10781
  0
XRECORD
  5
E3
102
{ACAD_REACTORS
330
DD
102
}
330
DD
100
AcDbXrecord
340
19
  0
XRECORD
  5
E9
102
{ACAD_REACTORS
330
DD
102
}
330
DD
100
AcDbXrecord
 40
0.0
  0
XRECORD
  5
EC
102
{ACAD_REACTORS
330
DD
102
}
330
DD
100
AcDbXrecord
340
0
  0
XRECORD
  5
F2
102
{ACAD_REACTORS
330
DD
102
}
330
DD
100
AcDbXrecord
 10
0.0
 20
0.0
 30
0.0
  0
XRECORD
  5
EE
102
{ACAD_REACTORS
330
DD
102
}
330
DD
100
AcDbXrecord
 10
0.0
 20
0.0
 30
0.0
  0
XRECORD
  5
F1
102
{ACAD_REACTORS
330
DD
102
}
330
DD
100
AcDbXrecord
 10
0.0
 20
0.0
 30
0.0
  0
XRECORD
  5
EF
102
{ACAD_REACTORS
330
DD
102
}
330
DD
100
AcDbXrecord
 10
0.0
 20
0.0
 30
0.0
  0
XRECORD
  5
F0
102
{ACAD_REACTORS
330
DD
102
}
330
DD
100
AcDbXrecord
 10
0.0
 20
0.0
 30
0.0
  0
XRECORD
  5
ED
102
{ACAD_REACTORS
330
DD
102
}
330
DD
100
AcDbXrecord
 10
0.0
 20
0.0
 30
0.0
  0
XRECORD
  5
EA
102
{ACAD_REACTORS
330
DD
102
}
330
DD
100
AcDbXrecord
340
0
  0
XRECORD
  5
EB
102
{ACAD_REACTORS
330
DD
102
}
330
DD
100
AcDbXrecord
 70
     0
  0
XRECORD
  5
E1
102
{ACAD_REACTORS
330
DD
102
}
330
DD
100
AcDbXrecord
  1

  0
XRECORD
  5
DE
102
{ACAD_REACTORS
330
DD
102
}
330
DD
100
AcDbXrecord
 90
        1
  0
XRECORD
  5
DF
102
{ACAD_REACTORS
330
DD
102
}
330
DD
100
AcDbXrecord
 90
       70
  0
XRECORD
  5
F5
102
{ACAD_REACTORS
330
DD
102
}
330
DD
100
AcDbXrecord
340
0
  0
XRECORD
  5
FB
102
{ACAD_REACTORS
330
DD
102
}
330
DD
100
AcDbXrecord
 10
0.0
 20
0.0
 30
0.0
  0
XRECORD
  5
F7
102
{ACAD_REACTORS
330
DD
102
}
330
DD
100
AcDbXrecord
 10
0.0
 20
0.0
 30
0.0
  0
XRECORD
  5
FA
102
{ACAD_REACTORS
330
DD
102
}
330
DD
100
AcDbXrecord
 10
0.0
 20
0.0
 30
0.0
  0
XRECORD
  5
F8
102
{ACAD_REACTORS
330
DD
102
}
330
DD
100
AcDbXrecord
 10
0.0
 20
0.0
 30
0.0
  0
XRECORD
  5
F9
102
{ACAD_REACTORS
330
DD
102
}
330
DD
100
AcDbXrecord
 10
0.0
 20
0.0
 30
0.0
  0
XRECORD
  5
F6
102
{ACAD_REACTORS
330
DD
102
}
330
DD
100
AcDbXrecord
 10
0.0
 20
0.0
 30
0.0
  0
XRECORD
  5
F3
102
{ACAD_REACTORS
330
DD
102
}
330
DD
100
AcDbXrecord
340
0
  0
XRECORD
  5
F4
102
{ACAD_REACTORS
330
DD
102
}
330
DD
100
AcDbXrecord
 70
     0
  0
XRECORD
  5
E8
102
{ACAD_REACTORS
330
DD
102
}
330
DD
100
AcDbXrecord
  1
{FAEB1C32-E019-11D5-929B-00C0DF256EC4}
  0
DICTIONARYVAR
  5
100
102
{ACAD_REACTORS
330
FD
102
}
330
FD
100
DictionaryVariables
280
     0
  1
2
  0
DICTIONARYVAR
  5
101
102
{ACAD_REACTORS
330
FD
102
}
330
FD
100
DictionaryVariables
280
     0
  1
1
  0
DICTIONARY
  5
104
330
3D
100
AcDbDictionary
280
     1
  3
ACAD_XREC_ROUNDTRIP
360
105
  0
DICTIONARY
  5
102
330
3C
100
AcDbDictionary
280
     1
  3
ACAD_XREC_ROUNDTRIP
360
103
  0
DICTIONARY
  5
106
330
3E
100
AcDbDictionary
280
     1
  3
ACAD_XREC_ROUNDTRIP
360
107
  0
XRECORD
  5
105
102
{ACAD_REACTORS
330
104
102
}
330
104
100
AcDbXrecord
102
MATERIAL
148
0.0
149
0.0
149
0.0
 93
        0
 94
      127
282
     0
 72
     1
 77
     1
171
     1
175
     1
179
     1
273
     0
  0
XRECORD
  5
103
102
{ACAD_REACTORS
330
102
102
}
330
102
100
AcDbXrecord
102
MATERIAL
148
0.0
149
0.0
149
0.0
 93
        0
 94
      127
282
     0
 72
     1
 77
     1
171
     1
175
     1
179
     1
273
     0
  0
XRECORD
  5
107
102
{ACAD_REACTORS
330
106
102
}
330
106
100
AcDbXrecord
102
MATERIAL
148
0.0
149
0.0
149
0.0
 93
        0
 94
      127
282
     0
 72
     1
 77
     1
171
     1
175
     1
179
     1
273
     0
  0
ENDSEC
  0
EOF
