999
Inkscape export via Big Blue Saws DXF Export" (http://www.bigbluesaw.com/saw/big-blue-saw-blog/general-updates/big-blue-saws-dxf-export-for-inkscape.html)
  0
SECTION
  2
HEADER
  9
$ACADVER
  1
AC1014
  9
$HANDSEED
  5
FFFF
  0
$INSUNITS
 70
 1
 9
ENDSEC
  0
SECTION
  2
TABLES
  0
TABLE
  2
VPORT
  5
8
330
0
100
AcDbSymbolTable
 70
     4
  0
VPORT
  5
2E
330
8
100
AcDbSymbolTableRecord
100
AcDbViewportTableRecord
  2
*ACTIVE
 70
     0
 10
0.0
 20
0.0
 11
1.0
 21
1.0
 12
4.25
 22
5.5
 13
0.0
 23
0.0
 14
10.0
 24
10.0
 15
10.0
 25
10.0
 16
0.0
 26
0.0
 36
1.0
 17
0.0
 27
0.0
 37
0.0
 40
11
 41
1.24
 42
50.0
 43
0.0
 44
0.0
 50
0.0
 51
0.0
 71
     0
 72
   100
 73
     1
 74
     3
 75
     0
 76
     0
 77
     0
 78
     0
  0
ENDTAB
  0
TABLE
  2
LTYPE
  5
5
330
0
100
AcDbSymbolTable
 70
     1
  0
LTYPE
  5
14
330
5
100
AcDbSymbolTableRecord
100
AcDbLinetypeTableRecord
  2
BYBLOCK
 70
     0
  3

 72
    65
 73
     0
 40
0.0
  0
LTYPE
  5
15
330
5
100
AcDbSymbolTableRecord
100
AcDbLinetypeTableRecord
  2
BYLAYER
 70
     0
  3

 72
    65
 73
     0
 40
0.0
  0
LTYPE
  5
16
330
5
100
AcDbSymbolTableRecord
100
AcDbLinetypeTableRecord
  2
CONTINUOUS
 70
     0
  3
Solid line
 72
    65
 73
     0
 40
0.0
  0
ENDTAB
  0
TABLE
  2
STYLE
  5
3
330
0
100
AcDbSymbolTable
 70
     1
  0
STYLE
  5
11
330
3
100
AcDbSymbolTableRecord
100
AcDbTextStyleTableRecord
  2
STANDARD
 70
     0
 40
0.0
 41
1.0
 50
0.0
 71
     0
 42
2.5
  3
txt
  4

  0
ENDTAB
  0
TABLE
  2
VIEW
  5
6
330
0
100
AcDbSymbolTable
 70
     0
  0
ENDTAB
  0
TABLE
  2
UCS
  5
7
330
0
100
AcDbSymbolTable
 70
     0
  0
ENDTAB
  0
TABLE
  2
APPID
  5
9
330
0
100
AcDbSymbolTable
 70
     2
  0
APPID
  5
12
330
9
100
AcDbSymbolTableRecord
100
AcDbRegAppTableRecord
  2
ACAD
 70
     0
  0
ENDTAB
  0
TABLE
  2
DIMSTYLE
  5
A
330
0
100
AcDbSymbolTable
 70
     1
  0
DIMSTYLE
105
27
330
A
100
AcDbSymbolTableRecord
100
AcDbDimStyleTableRecord
  2
ISO-25
 70
     0
  3

  4

  5

  6

  7

 40
1.0
 41
2.5
 42
0.625
 43
3.75
 44
1.25
 45
0.0
 46
0.0
 47
0.0
 48
0.0
140
2.5
141
2.5
142
0.0
143
0.03937007874016
144
1.0
145
0.0
146
1.0
147
0.625
 71
     0
 72
     0
 73
     0
 74
     0
 75
     0
 76
     0
 77
     1
 78
     8
170
     0
171
     3
172
     1
173
     0
174
     0
175
     0
176
     0
177
     0
178
     0
270
     2
271
     2
272
     2
273
     2
274
     3
340
11
275
     0
280
     0
281
     0
282
     0
283
     0
284
     8
285
     0
286
     0
287
     3
288
     0
  0
ENDTAB
  0
TABLE
  2
BLOCK_RECORD
  5
1
330
0
100
AcDbSymbolTable
 70
     1
  0
BLOCK_RECORD
  5
1F
330
1
100
AcDbSymbolTableRecord
100
AcDbBlockTableRecord
  2
*MODEL_SPACE
  0
BLOCK_RECORD
  5
1B
330
1
100
AcDbSymbolTableRecord
100
AcDbBlockTableRecord
  2
*PAPER_SPACE
  0
ENDTAB
0
TABLE
2
LAYER
5
2
330
0
100
AcDbSymbolTable
70
1
0
LAYER
5
10
330
2
100
AcDbSymbolTableRecord
100
AcDbLayerTableRecord
2
Default
70
0
62
7
6
CONTINUOUS
0
ENDTAB
0
ENDSEC
  0
SECTION
  2
BLOCKS
  0
BLOCK
  5
20
330
1F
100
AcDbEntity
  8
0
100
AcDbBlockBegin
  2
*MODEL_SPACE
 70
     0
 10
0.0
 20
0.0
 30
0.0
  3
*MODEL_SPACE
  1

  0
ENDBLK
  5
21
330
1F
100
AcDbEntity
  8
0
100
AcDbBlockEnd
  0
BLOCK
  5
1C
330
1B
100
AcDbEntity
 67
     1
  8
0
100
AcDbBlockBegin
  2
*PAPER_SPACE
  1

  0
ENDBLK
  5
1D
330
1B
100
AcDbEntity
 67
     1
  8
0
100
AcDbBlockEnd
  0
ENDSEC
  0
SECTION
  2
ENTITIES
0
LINE
8
Default
62
5
5
100
100
AcDbEntity
100
AcDbLine
10
2.444444
20
6.610674
30
0.0
11
2.444444
21
8.944007
31
0.0
0
LINE
8
Default
62
5
5
101
100
AcDbEntity
100
AcDbLine
10
2.444444
20
8.944007
30
0.0
11
0.111111
21
8.944007
31
0.0
0
LINE
8
Default
62
5
5
102
100
AcDbEntity
100
AcDbLine
10
0.111111
20
8.944007
30
0.0
11
0.111111
21
6.610674
31
0.0
0
LINE
8
Default
62
5
5
103
100
AcDbEntity
100
AcDbLine
10
0.111111
20
6.610674
30
0.0
11
2.444444
21
6.610674
31
0.0
0
LINE
8
Default
62
5
5
104
100
AcDbEntity
100
AcDbLine
10
0.583334
20
8.776951
30
0.0
11
0.582370
21
8.769631
31
0.0
0
LINE
8
Default
62
5
5
105
100
AcDbEntity
100
AcDbLine
10
0.582370
20
8.769631
30
0.0
11
0.579545
21
8.762810
31
0.0
0
LINE
8
Default
62
5
5
106
100
AcDbEntity
100
AcDbLine
10
0.579545
20
8.762810
30
0.0
11
0.575050
21
8.756953
31
0.0
0
LINE
8
Default
62
5
5
107
100
AcDbEntity
100
AcDbLine
10
0.575050
20
8.756953
30
0.0
11
0.569193
21
8.752458
31
0.0
0
LINE
8
Default
62
5
5
108
100
AcDbEntity
100
AcDbLine
10
0.569193
20
8.752458
30
0.0
11
0.562371
21
8.749633
31
0.0
0
LINE
8
Default
62
5
5
109
100
AcDbEntity
100
AcDbLine
10
0.562371
20
8.749633
30
0.0
11
0.555052
21
8.748669
31
0.0
0
LINE
8
Default
62
5
5
10a
100
AcDbEntity
100
AcDbLine
10
0.555052
20
8.748669
30
0.0
11
0.547732
21
8.749633
31
0.0
0
LINE
8
Default
62
5
5
10b
100
AcDbEntity
100
AcDbLine
10
0.547732
20
8.749633
30
0.0
11
0.540910
21
8.752458
31
0.0
0
LINE
8
Default
62
5
5
10c
100
AcDbEntity
100
AcDbLine
10
0.540910
20
8.752458
30
0.0
11
0.535053
21
8.756953
31
0.0
0
LINE
8
Default
62
5
5
10d
100
AcDbEntity
100
AcDbLine
10
0.535053
20
8.756953
30
0.0
11
0.530559
21
8.762810
31
0.0
0
LINE
8
Default
62
5
5
10e
100
AcDbEntity
100
AcDbLine
10
0.530559
20
8.762810
30
0.0
11
0.527733
21
8.769631
31
0.0
0
LINE
8
Default
62
5
5
10f
100
AcDbEntity
100
AcDbLine
10
0.527733
20
8.769631
30
0.0
11
0.526769
21
8.776951
31
0.0
0
LINE
8
Default
62
5
5
110
100
AcDbEntity
100
AcDbLine
10
0.526769
20
8.776951
30
0.0
11
0.527733
21
8.784271
31
0.0
0
LINE
8
Default
62
5
5
111
100
AcDbEntity
100
AcDbLine
10
0.527733
20
8.784271
30
0.0
11
0.530559
21
8.791092
31
0.0
0
LINE
8
Default
62
5
5
112
100
AcDbEntity
100
AcDbLine
10
0.530559
20
8.791092
30
0.0
11
0.535053
21
8.796950
31
0.0
0
LINE
8
Default
62
5
5
113
100
AcDbEntity
100
AcDbLine
10
0.535053
20
8.796950
30
0.0
11
0.540910
21
8.801444
31
0.0
0
LINE
8
Default
62
5
5
114
100
AcDbEntity
100
AcDbLine
10
0.540910
20
8.801444
30
0.0
11
0.547732
21
8.804270
31
0.0
0
LINE
8
Default
62
5
5
115
100
AcDbEntity
100
AcDbLine
10
0.547732
20
8.804270
30
0.0
11
0.555052
21
8.805233
31
0.0
0
LINE
8
Default
62
5
5
116
100
AcDbEntity
100
AcDbLine
10
0.555052
20
8.805233
30
0.0
11
0.562371
21
8.804270
31
0.0
0
LINE
8
Default
62
5
5
117
100
AcDbEntity
100
AcDbLine
10
0.562371
20
8.804270
30
0.0
11
0.569193
21
8.801444
31
0.0
0
LINE
8
Default
62
5
5
118
100
AcDbEntity
100
AcDbLine
10
0.569193
20
8.801444
30
0.0
11
0.575050
21
8.796950
31
0.0
0
LINE
8
Default
62
5
5
119
100
AcDbEntity
100
AcDbLine
10
0.575050
20
8.796950
30
0.0
11
0.579545
21
8.791092
31
0.0
0
LINE
8
Default
62
5
5
11a
100
AcDbEntity
100
AcDbLine
10
0.579545
20
8.791092
30
0.0
11
0.582370
21
8.784271
31
0.0
0
LINE
8
Default
62
5
5
11b
100
AcDbEntity
100
AcDbLine
10
0.582370
20
8.784271
30
0.0
11
0.583334
21
8.776951
31
0.0
0
LINE
8
Default
62
5
5
11c
100
AcDbEntity
100
AcDbLine
10
1.972086
20
8.777068
30
0.0
11
1.973042
21
8.784328
31
0.0
0
LINE
8
Default
62
5
5
11d
100
AcDbEntity
100
AcDbLine
10
1.973042
20
8.784328
30
0.0
11
1.975844
21
8.791093
31
0.0
0
LINE
8
Default
62
5
5
11e
100
AcDbEntity
100
AcDbLine
10
1.975844
20
8.791093
30
0.0
11
1.980302
21
8.796902
31
0.0
0
LINE
8
Default
62
5
5
11f
100
AcDbEntity
100
AcDbLine
10
1.980302
20
8.796902
30
0.0
11
1.986111
21
8.801360
31
0.0
0
LINE
8
Default
62
5
5
120
100
AcDbEntity
100
AcDbLine
10
1.986111
20
8.801360
30
0.0
11
1.992876
21
8.804162
31
0.0
0
LINE
8
Default
62
5
5
121
100
AcDbEntity
100
AcDbLine
10
1.992876
20
8.804162
30
0.0
11
2.000136
21
8.805118
31
0.0
0
LINE
8
Default
62
5
5
122
100
AcDbEntity
100
AcDbLine
10
2.000136
20
8.805118
30
0.0
11
2.007396
21
8.804162
31
0.0
0
LINE
8
Default
62
5
5
123
100
AcDbEntity
100
AcDbLine
10
2.007396
20
8.804162
30
0.0
11
2.014161
21
8.801360
31
0.0
0
LINE
8
Default
62
5
5
124
100
AcDbEntity
100
AcDbLine
10
2.014161
20
8.801360
30
0.0
11
2.019970
21
8.796902
31
0.0
0
LINE
8
Default
62
5
5
125
100
AcDbEntity
100
AcDbLine
10
2.019970
20
8.796902
30
0.0
11
2.024428
21
8.791093
31
0.0
0
LINE
8
Default
62
5
5
126
100
AcDbEntity
100
AcDbLine
10
2.024428
20
8.791093
30
0.0
11
2.027230
21
8.784328
31
0.0
0
LINE
8
Default
62
5
5
127
100
AcDbEntity
100
AcDbLine
10
2.027230
20
8.784328
30
0.0
11
2.028186
21
8.777068
31
0.0
0
LINE
8
Default
62
5
5
128
100
AcDbEntity
100
AcDbLine
10
2.028186
20
8.777068
30
0.0
11
2.027230
21
8.769808
31
0.0
0
LINE
8
Default
62
5
5
129
100
AcDbEntity
100
AcDbLine
10
2.027230
20
8.769808
30
0.0
11
2.024428
21
8.763043
31
0.0
0
LINE
8
Default
62
5
5
12a
100
AcDbEntity
100
AcDbLine
10
2.024428
20
8.763043
30
0.0
11
2.019970
21
8.757234
31
0.0
0
LINE
8
Default
62
5
5
12b
100
AcDbEntity
100
AcDbLine
10
2.019970
20
8.757234
30
0.0
11
2.014161
21
8.752776
31
0.0
0
LINE
8
Default
62
5
5
12c
100
AcDbEntity
100
AcDbLine
10
2.014161
20
8.752776
30
0.0
11
2.007396
21
8.749974
31
0.0
0
LINE
8
Default
62
5
5
12d
100
AcDbEntity
100
AcDbLine
10
2.007396
20
8.749974
30
0.0
11
2.000136
21
8.749019
31
0.0
0
LINE
8
Default
62
5
5
12e
100
AcDbEntity
100
AcDbLine
10
2.000136
20
8.749019
30
0.0
11
1.992876
21
8.749974
31
0.0
0
LINE
8
Default
62
5
5
12f
100
AcDbEntity
100
AcDbLine
10
1.992876
20
8.749974
30
0.0
11
1.986111
21
8.752776
31
0.0
0
LINE
8
Default
62
5
5
130
100
AcDbEntity
100
AcDbLine
10
1.986111
20
8.752776
30
0.0
11
1.980302
21
8.757234
31
0.0
0
LINE
8
Default
62
5
5
131
100
AcDbEntity
100
AcDbLine
10
1.980302
20
8.757234
30
0.0
11
1.975844
21
8.763043
31
0.0
0
LINE
8
Default
62
5
5
132
100
AcDbEntity
100
AcDbLine
10
1.975844
20
8.763043
30
0.0
11
1.973042
21
8.769808
31
0.0
0
LINE
8
Default
62
5
5
133
100
AcDbEntity
100
AcDbLine
10
1.973042
20
8.769808
30
0.0
11
1.972086
21
8.777068
31
0.0
0
LINE
8
Default
62
5
5
134
100
AcDbEntity
100
AcDbLine
10
2.251409
20
8.507624
30
0.0
11
2.254224
21
8.514422
31
0.0
0
LINE
8
Default
62
5
5
135
100
AcDbEntity
100
AcDbLine
10
2.254224
20
8.514422
30
0.0
11
2.258703
21
8.520259
31
0.0
0
LINE
8
Default
62
5
5
136
100
AcDbEntity
100
AcDbLine
10
2.258703
20
8.520259
30
0.0
11
2.264541
21
8.524738
31
0.0
0
LINE
8
Default
62
5
5
137
100
AcDbEntity
100
AcDbLine
10
2.264541
20
8.524738
30
0.0
11
2.271338
21
8.527554
31
0.0
0
LINE
8
Default
62
5
5
138
100
AcDbEntity
100
AcDbLine
10
2.271338
20
8.527554
30
0.0
11
2.278633
21
8.528514
31
0.0
0
LINE
8
Default
62
5
5
139
100
AcDbEntity
100
AcDbLine
10
2.278633
20
8.528514
30
0.0
11
2.285927
21
8.527554
31
0.0
0
LINE
8
Default
62
5
5
13a
100
AcDbEntity
100
AcDbLine
10
2.285927
20
8.527554
30
0.0
11
2.292725
21
8.524738
31
0.0
0
LINE
8
Default
62
5
5
13b
100
AcDbEntity
100
AcDbLine
10
2.292725
20
8.524738
30
0.0
11
2.298562
21
8.520259
31
0.0
0
LINE
8
Default
62
5
5
13c
100
AcDbEntity
100
AcDbLine
10
2.298562
20
8.520259
30
0.0
11
2.303041
21
8.514422
31
0.0
0
LINE
8
Default
62
5
5
13d
100
AcDbEntity
100
AcDbLine
10
2.303041
20
8.514422
30
0.0
11
2.305857
21
8.507624
31
0.0
0
LINE
8
Default
62
5
5
13e
100
AcDbEntity
100
AcDbLine
10
2.305857
20
8.507624
30
0.0
11
2.306817
21
8.500330
31
0.0
0
LINE
8
Default
62
5
5
13f
100
AcDbEntity
100
AcDbLine
10
2.306817
20
8.500330
30
0.0
11
2.305857
21
8.493035
31
0.0
0
LINE
8
Default
62
5
5
140
100
AcDbEntity
100
AcDbLine
10
2.305857
20
8.493035
30
0.0
11
2.303041
21
8.486237
31
0.0
0
LINE
8
Default
62
5
5
141
100
AcDbEntity
100
AcDbLine
10
2.303041
20
8.486237
30
0.0
11
2.298562
21
8.480400
31
0.0
0
LINE
8
Default
62
5
5
142
100
AcDbEntity
100
AcDbLine
10
2.298562
20
8.480400
30
0.0
11
2.292725
21
8.475921
31
0.0
0
LINE
8
Default
62
5
5
143
100
AcDbEntity
100
AcDbLine
10
2.292725
20
8.475921
30
0.0
11
2.285927
21
8.473106
31
0.0
0
LINE
8
Default
62
5
5
144
100
AcDbEntity
100
AcDbLine
10
2.285927
20
8.473106
30
0.0
11
2.278633
21
8.472145
31
0.0
0
LINE
8
Default
62
5
5
145
100
AcDbEntity
100
AcDbLine
10
2.278633
20
8.472145
30
0.0
11
2.271338
21
8.473106
31
0.0
0
LINE
8
Default
62
5
5
146
100
AcDbEntity
100
AcDbLine
10
2.271338
20
8.473106
30
0.0
11
2.264541
21
8.475921
31
0.0
0
LINE
8
Default
62
5
5
147
100
AcDbEntity
100
AcDbLine
10
2.264541
20
8.475921
30
0.0
11
2.258703
21
8.480400
31
0.0
0
LINE
8
Default
62
5
5
148
100
AcDbEntity
100
AcDbLine
10
2.258703
20
8.480400
30
0.0
11
2.254224
21
8.486237
31
0.0
0
LINE
8
Default
62
5
5
149
100
AcDbEntity
100
AcDbLine
10
2.254224
20
8.486237
30
0.0
11
2.251409
21
8.493035
31
0.0
0
LINE
8
Default
62
5
5
14a
100
AcDbEntity
100
AcDbLine
10
2.251409
20
8.493035
30
0.0
11
2.250448
21
8.500330
31
0.0
0
LINE
8
Default
62
5
5
14b
100
AcDbEntity
100
AcDbLine
10
2.250448
20
8.500330
30
0.0
11
2.251409
21
8.507624
31
0.0
0
LINE
8
Default
62
5
5
14c
100
AcDbEntity
100
AcDbLine
10
2.252912
20
7.066714
30
0.0
11
2.256538
21
7.073009
31
0.0
0
LINE
8
Default
62
5
5
14d
100
AcDbEntity
100
AcDbLine
10
2.256538
20
7.073009
30
0.0
11
2.261670
21
7.078151
31
0.0
0
LINE
8
Default
62
5
5
14e
100
AcDbEntity
100
AcDbLine
10
2.261670
20
7.078151
30
0.0
11
2.267958
21
7.081789
31
0.0
0
LINE
8
Default
62
5
5
14f
100
AcDbEntity
100
AcDbLine
10
2.267958
20
7.081789
30
0.0
11
2.274974
21
7.083676
31
0.0
0
LINE
8
Default
62
5
5
150
100
AcDbEntity
100
AcDbLine
10
2.274974
20
7.083676
30
0.0
11
2.282239
21
7.083683
31
0.0
0
LINE
8
Default
62
5
5
151
100
AcDbEntity
100
AcDbLine
10
2.282239
20
7.083683
30
0.0
11
2.289258
21
7.081810
31
0.0
0
LINE
8
Default
62
5
5
152
100
AcDbEntity
100
AcDbLine
10
2.289258
20
7.081810
30
0.0
11
2.295553
21
7.078183
31
0.0
0
LINE
8
Default
62
5
5
153
100
AcDbEntity
100
AcDbLine
10
2.295553
20
7.078183
30
0.0
11
2.300695
21
7.073051
31
0.0
0
LINE
8
Default
62
5
5
154
100
AcDbEntity
100
AcDbLine
10
2.300695
20
7.073051
30
0.0
11
2.304333
21
7.066763
31
0.0
0
LINE
8
Default
62
5
5
155
100
AcDbEntity
100
AcDbLine
10
2.304333
20
7.066763
30
0.0
11
2.306220
21
7.059748
31
0.0
0
LINE
8
Default
62
5
5
156
100
AcDbEntity
100
AcDbLine
10
2.306220
20
7.059748
30
0.0
11
2.306227
21
7.052483
31
0.0
0
LINE
8
Default
62
5
5
157
100
AcDbEntity
100
AcDbLine
10
2.306227
20
7.052483
30
0.0
11
2.304354
21
7.045464
31
0.0
0
LINE
8
Default
62
5
5
158
100
AcDbEntity
100
AcDbLine
10
2.304354
20
7.045464
30
0.0
11
2.300727
21
7.039169
31
0.0
0
LINE
8
Default
62
5
5
159
100
AcDbEntity
100
AcDbLine
10
2.300727
20
7.039169
30
0.0
11
2.295595
21
7.034027
31
0.0
0
LINE
8
Default
62
5
5
15a
100
AcDbEntity
100
AcDbLine
10
2.295595
20
7.034027
30
0.0
11
2.289307
21
7.030388
31
0.0
0
LINE
8
Default
62
5
5
15b
100
AcDbEntity
100
AcDbLine
10
2.289307
20
7.030388
30
0.0
11
2.282292
21
7.028501
31
0.0
0
LINE
8
Default
62
5
5
15c
100
AcDbEntity
100
AcDbLine
10
2.282292
20
7.028501
30
0.0
11
2.275027
21
7.028494
31
0.0
0
LINE
8
Default
62
5
5
15d
100
AcDbEntity
100
AcDbLine
10
2.275027
20
7.028494
30
0.0
11
2.268008
21
7.030368
31
0.0
0
LINE
8
Default
62
5
5
15e
100
AcDbEntity
100
AcDbLine
10
2.268008
20
7.030368
30
0.0
11
2.261713
21
7.033994
31
0.0
0
LINE
8
Default
62
5
5
15f
100
AcDbEntity
100
AcDbLine
10
2.261713
20
7.033994
30
0.0
11
2.256571
21
7.039126
31
0.0
0
LINE
8
Default
62
5
5
160
100
AcDbEntity
100
AcDbLine
10
2.256571
20
7.039126
30
0.0
11
2.252932
21
7.045414
31
0.0
0
LINE
8
Default
62
5
5
161
100
AcDbEntity
100
AcDbLine
10
2.252932
20
7.045414
30
0.0
11
2.251045
21
7.052430
31
0.0
0
LINE
8
Default
62
5
5
162
100
AcDbEntity
100
AcDbLine
10
2.251045
20
7.052430
30
0.0
11
2.251038
21
7.059695
31
0.0
0
LINE
8
Default
62
5
5
163
100
AcDbEntity
100
AcDbLine
10
2.251038
20
7.059695
30
0.0
11
2.252912
21
7.066714
31
0.0
0
LINE
8
Default
62
5
5
164
100
AcDbEntity
100
AcDbLine
10
2.025836
20
6.764082
30
0.0
11
2.021613
21
6.758117
31
0.0
0
LINE
8
Default
62
5
5
165
100
AcDbEntity
100
AcDbLine
10
2.021613
20
6.758117
30
0.0
11
2.015989
21
6.753449
31
0.0
0
LINE
8
Default
62
5
5
166
100
AcDbEntity
100
AcDbLine
10
2.015989
20
6.753449
30
0.0
11
2.009349
21
6.750396
31
0.0
0
LINE
8
Default
62
5
5
167
100
AcDbEntity
100
AcDbLine
10
2.009349
20
6.750396
30
0.0
11
2.002144
21
6.749165
31
0.0
0
LINE
8
Default
62
5
5
168
100
AcDbEntity
100
AcDbLine
10
2.002144
20
6.749165
30
0.0
11
1.994867
21
6.749841
31
0.0
0
LINE
8
Default
62
5
5
169
100
AcDbEntity
100
AcDbLine
10
1.994867
20
6.749841
30
0.0
11
1.988012
21
6.752377
31
0.0
0
LINE
8
Default
62
5
5
16a
100
AcDbEntity
100
AcDbLine
10
1.988012
20
6.752377
30
0.0
11
1.982048
21
6.756601
31
0.0
0
LINE
8
Default
62
5
5
16b
100
AcDbEntity
100
AcDbLine
10
1.982048
20
6.756601
30
0.0
11
1.977380
21
6.762224
31
0.0
0
LINE
8
Default
62
5
5
16c
100
AcDbEntity
100
AcDbLine
10
1.977380
20
6.762224
30
0.0
11
1.974326
21
6.768865
31
0.0
0
LINE
8
Default
62
5
5
16d
100
AcDbEntity
100
AcDbLine
10
1.974326
20
6.768865
30
0.0
11
1.973095
21
6.776069
31
0.0
0
LINE
8
Default
62
5
5
16e
100
AcDbEntity
100
AcDbLine
10
1.973095
20
6.776069
30
0.0
11
1.973771
21
6.783346
31
0.0
0
LINE
8
Default
62
5
5
16f
100
AcDbEntity
100
AcDbLine
10
1.973771
20
6.783346
30
0.0
11
1.976307
21
6.790201
31
0.0
0
LINE
8
Default
62
5
5
170
100
AcDbEntity
100
AcDbLine
10
1.976307
20
6.790201
30
0.0
11
1.980531
21
6.796165
31
0.0
0
LINE
8
Default
62
5
5
171
100
AcDbEntity
100
AcDbLine
10
1.980531
20
6.796165
30
0.0
11
1.986155
21
6.800833
31
0.0
0
LINE
8
Default
62
5
5
172
100
AcDbEntity
100
AcDbLine
10
1.986155
20
6.800833
30
0.0
11
1.992795
21
6.803887
31
0.0
0
LINE
8
Default
62
5
5
173
100
AcDbEntity
100
AcDbLine
10
1.992795
20
6.803887
30
0.0
11
1.999999
21
6.805118
31
0.0
0
LINE
8
Default
62
5
5
174
100
AcDbEntity
100
AcDbLine
10
1.999999
20
6.805118
30
0.0
11
2.007277
21
6.804442
31
0.0
0
LINE
8
Default
62
5
5
175
100
AcDbEntity
100
AcDbLine
10
2.007277
20
6.804442
30
0.0
11
2.014131
21
6.801906
31
0.0
0
LINE
8
Default
62
5
5
176
100
AcDbEntity
100
AcDbLine
10
2.014131
20
6.801906
30
0.0
11
2.020096
21
6.797682
31
0.0
0
LINE
8
Default
62
5
5
177
100
AcDbEntity
100
AcDbLine
10
2.020096
20
6.797682
30
0.0
11
2.024764
21
6.792058
31
0.0
0
LINE
8
Default
62
5
5
178
100
AcDbEntity
100
AcDbLine
10
2.024764
20
6.792058
30
0.0
11
2.027817
21
6.785418
31
0.0
0
LINE
8
Default
62
5
5
179
100
AcDbEntity
100
AcDbLine
10
2.027817
20
6.785418
30
0.0
11
2.029048
21
6.778214
31
0.0
0
LINE
8
Default
62
5
5
17a
100
AcDbEntity
100
AcDbLine
10
2.029048
20
6.778214
30
0.0
11
2.028373
21
6.770936
31
0.0
0
LINE
8
Default
62
5
5
17b
100
AcDbEntity
100
AcDbLine
10
2.028373
20
6.770936
30
0.0
11
2.025836
21
6.764082
31
0.0
0
LINE
8
Default
62
5
5
17c
100
AcDbEntity
100
AcDbLine
10
0.582798
20
6.769900
30
0.0
11
0.580003
21
6.763153
31
0.0
0
LINE
8
Default
62
5
5
17d
100
AcDbEntity
100
AcDbLine
10
0.580003
20
6.763153
30
0.0
11
0.575557
21
6.757359
31
0.0
0
LINE
8
Default
62
5
5
17e
100
AcDbEntity
100
AcDbLine
10
0.575557
20
6.757359
30
0.0
11
0.569762
21
6.752913
31
0.0
0
LINE
8
Default
62
5
5
17f
100
AcDbEntity
100
AcDbLine
10
0.569762
20
6.752913
30
0.0
11
0.563015
21
6.750118
31
0.0
0
LINE
8
Default
62
5
5
180
100
AcDbEntity
100
AcDbLine
10
0.563015
20
6.750118
30
0.0
11
0.555774
21
6.749165
31
0.0
0
LINE
8
Default
62
5
5
181
100
AcDbEntity
100
AcDbLine
10
0.555774
20
6.749165
30
0.0
11
0.548533
21
6.750118
31
0.0
0
LINE
8
Default
62
5
5
182
100
AcDbEntity
100
AcDbLine
10
0.548533
20
6.750118
30
0.0
11
0.541786
21
6.752913
31
0.0
0
LINE
8
Default
62
5
5
183
100
AcDbEntity
100
AcDbLine
10
0.541786
20
6.752913
30
0.0
11
0.535991
21
6.757359
31
0.0
0
LINE
8
Default
62
5
5
184
100
AcDbEntity
100
AcDbLine
10
0.535991
20
6.757359
30
0.0
11
0.531545
21
6.763153
31
0.0
0
LINE
8
Default
62
5
5
185
100
AcDbEntity
100
AcDbLine
10
0.531545
20
6.763153
30
0.0
11
0.528751
21
6.769900
31
0.0
0
LINE
8
Default
62
5
5
186
100
AcDbEntity
100
AcDbLine
10
0.528751
20
6.769900
30
0.0
11
0.527797
21
6.777141
31
0.0
0
LINE
8
Default
62
5
5
187
100
AcDbEntity
100
AcDbLine
10
0.527797
20
6.777141
30
0.0
11
0.528751
21
6.784382
31
0.0
0
LINE
8
Default
62
5
5
188
100
AcDbEntity
100
AcDbLine
10
0.528751
20
6.784382
30
0.0
11
0.531545
21
6.791130
31
0.0
0
LINE
8
Default
62
5
5
189
100
AcDbEntity
100
AcDbLine
10
0.531545
20
6.791130
30
0.0
11
0.535991
21
6.796924
31
0.0
0
LINE
8
Default
62
5
5
18a
100
AcDbEntity
100
AcDbLine
10
0.535991
20
6.796924
30
0.0
11
0.541786
21
6.801370
31
0.0
0
LINE
8
Default
62
5
5
18b
100
AcDbEntity
100
AcDbLine
10
0.541786
20
6.801370
30
0.0
11
0.548533
21
6.804165
31
0.0
0
LINE
8
Default
62
5
5
18c
100
AcDbEntity
100
AcDbLine
10
0.548533
20
6.804165
30
0.0
11
0.555774
21
6.805118
31
0.0
0
LINE
8
Default
62
5
5
18d
100
AcDbEntity
100
AcDbLine
10
0.555774
20
6.805118
30
0.0
11
0.563015
21
6.804165
31
0.0
0
LINE
8
Default
62
5
5
18e
100
AcDbEntity
100
AcDbLine
10
0.563015
20
6.804165
30
0.0
11
0.569762
21
6.801370
31
0.0
0
LINE
8
Default
62
5
5
18f
100
AcDbEntity
100
AcDbLine
10
0.569762
20
6.801370
30
0.0
11
0.575557
21
6.796924
31
0.0
0
LINE
8
Default
62
5
5
190
100
AcDbEntity
100
AcDbLine
10
0.575557
20
6.796924
30
0.0
11
0.580003
21
6.791130
31
0.0
0
LINE
8
Default
62
5
5
191
100
AcDbEntity
100
AcDbLine
10
0.580003
20
6.791130
30
0.0
11
0.582798
21
6.784382
31
0.0
0
LINE
8
Default
62
5
5
192
100
AcDbEntity
100
AcDbLine
10
0.582798
20
6.784382
30
0.0
11
0.583751
21
6.777141
31
0.0
0
LINE
8
Default
62
5
5
193
100
AcDbEntity
100
AcDbLine
10
0.583751
20
6.777141
30
0.0
11
0.582798
21
6.769900
31
0.0
  0
ENDSEC
  0
SECTION
  2
OBJECTS
  0
DICTIONARY
  5
C
330
0
100
AcDbDictionary
  3
ACAD_GROUP
350
D
  3
ACAD_MLINESTYLE
350
17
  0
DICTIONARY
  5
D
330
C
100
AcDbDictionary
  0
DICTIONARY
  5
1A
330
C
100
AcDbDictionary
  0
DICTIONARY
  5
17
330
C
100
AcDbDictionary
  3
STANDARD
350
18
  0
DICTIONARY
  5
19
330
C
100
AcDbDictionary
  0
ENDSEC
  0
EOF
