999
Inkscape export via Big Blue Saws DXF Export" (http://www.bigbluesaw.com/saw/big-blue-saw-blog/general-updates/big-blue-saws-dxf-export-for-inkscape.html)
  0
SECTION
  2
HEADER
  9
$ACADVER
  1
AC1014
  9
$HANDSEED
  5
FFFF
  0
$INSUNITS
 70
 1
 9
ENDSEC
  0
SECTION
  2
TABLES
  0
TABLE
  2
VPORT
  5
8
330
0
100
AcDbSymbolTable
 70
     4
  0
VPORT
  5
2E
330
8
100
AcDbSymbolTableRecord
100
AcDbViewportTableRecord
  2
*ACTIVE
 70
     0
 10
0.0
 20
0.0
 11
1.0
 21
1.0
 12
4.25
 22
5.5
 13
0.0
 23
0.0
 14
10.0
 24
10.0
 15
10.0
 25
10.0
 16
0.0
 26
0.0
 36
1.0
 17
0.0
 27
0.0
 37
0.0
 40
11
 41
1.24
 42
50.0
 43
0.0
 44
0.0
 50
0.0
 51
0.0
 71
     0
 72
   100
 73
     1
 74
     3
 75
     0
 76
     0
 77
     0
 78
     0
  0
ENDTAB
  0
TABLE
  2
LTYPE
  5
5
330
0
100
AcDbSymbolTable
 70
     1
  0
LTYPE
  5
14
330
5
100
AcDbSymbolTableRecord
100
AcDbLinetypeTableRecord
  2
BYBLOCK
 70
     0
  3

 72
    65
 73
     0
 40
0.0
  0
LTYPE
  5
15
330
5
100
AcDbSymbolTableRecord
100
AcDbLinetypeTableRecord
  2
BYLAYER
 70
     0
  3

 72
    65
 73
     0
 40
0.0
  0
LTYPE
  5
16
330
5
100
AcDbSymbolTableRecord
100
AcDbLinetypeTableRecord
  2
CONTINUOUS
 70
     0
  3
Solid line
 72
    65
 73
     0
 40
0.0
  0
ENDTAB
  0
TABLE
  2
STYLE
  5
3
330
0
100
AcDbSymbolTable
 70
     1
  0
STYLE
  5
11
330
3
100
AcDbSymbolTableRecord
100
AcDbTextStyleTableRecord
  2
STANDARD
 70
     0
 40
0.0
 41
1.0
 50
0.0
 71
     0
 42
2.5
  3
txt
  4

  0
ENDTAB
  0
TABLE
  2
VIEW
  5
6
330
0
100
AcDbSymbolTable
 70
     0
  0
ENDTAB
  0
TABLE
  2
UCS
  5
7
330
0
100
AcDbSymbolTable
 70
     0
  0
ENDTAB
  0
TABLE
  2
APPID
  5
9
330
0
100
AcDbSymbolTable
 70
     2
  0
APPID
  5
12
330
9
100
AcDbSymbolTableRecord
100
AcDbRegAppTableRecord
  2
ACAD
 70
     0
  0
ENDTAB
  0
TABLE
  2
DIMSTYLE
  5
A
330
0
100
AcDbSymbolTable
 70
     1
  0
DIMSTYLE
105
27
330
A
100
AcDbSymbolTableRecord
100
AcDbDimStyleTableRecord
  2
ISO-25
 70
     0
  3

  4

  5

  6

  7

 40
1.0
 41
2.5
 42
0.625
 43
3.75
 44
1.25
 45
0.0
 46
0.0
 47
0.0
 48
0.0
140
2.5
141
2.5
142
0.0
143
0.03937007874016
144
1.0
145
0.0
146
1.0
147
0.625
 71
     0
 72
     0
 73
     0
 74
     0
 75
     0
 76
     0
 77
     1
 78
     8
170
     0
171
     3
172
     1
173
     0
174
     0
175
     0
176
     0
177
     0
178
     0
270
     2
271
     2
272
     2
273
     2
274
     3
340
11
275
     0
280
     0
281
     0
282
     0
283
     0
284
     8
285
     0
286
     0
287
     3
288
     0
  0
ENDTAB
  0
TABLE
  2
BLOCK_RECORD
  5
1
330
0
100
AcDbSymbolTable
 70
     1
  0
BLOCK_RECORD
  5
1F
330
1
100
AcDbSymbolTableRecord
100
AcDbBlockTableRecord
  2
*MODEL_SPACE
  0
BLOCK_RECORD
  5
1B
330
1
100
AcDbSymbolTableRecord
100
AcDbBlockTableRecord
  2
*PAPER_SPACE
  0
ENDTAB
0
TABLE
2
LAYER
5
2
330
0
100
AcDbSymbolTable
70
1
0
LAYER
5
10
330
2
100
AcDbSymbolTableRecord
100
AcDbLayerTableRecord
2
Default
70
0
62
7
6
CONTINUOUS
0
ENDTAB
0
ENDSEC
  0
SECTION
  2
BLOCKS
  0
BLOCK
  5
20
330
1F
100
AcDbEntity
  8
0
100
AcDbBlockBegin
  2
*MODEL_SPACE
 70
     0
 10
0.0
 20
0.0
 30
0.0
  3
*MODEL_SPACE
  1

  0
ENDBLK
  5
21
330
1F
100
AcDbEntity
  8
0
100
AcDbBlockEnd
  0
BLOCK
  5
1C
330
1B
100
AcDbEntity
 67
     1
  8
0
100
AcDbBlockBegin
  2
*PAPER_SPACE
  1

  0
ENDBLK
  5
1D
330
1B
100
AcDbEntity
 67
     1
  8
0
100
AcDbBlockEnd
  0
ENDSEC
  0
SECTION
  2
ENTITIES
0
LINE
8
Default
62
5
5
100
100
AcDbEntity
100
AcDbLine
10
1.561479
20
7.121652
30
0.0
11
1.561479
21
7.742051
31
0.0
0
LINE
8
Default
62
5
5
101
100
AcDbEntity
100
AcDbLine
10
1.561479
20
7.742051
30
0.0
11
1.793465
21
7.742051
31
0.0
0
LINE
8
Default
62
5
5
102
100
AcDbEntity
100
AcDbLine
10
1.793465
20
7.742051
30
0.0
11
1.793465
21
7.854930
31
0.0
0
LINE
8
Default
62
5
5
103
100
AcDbEntity
100
AcDbLine
10
1.793465
20
7.854930
30
0.0
11
1.931039
21
7.994748
31
0.0
0
LINE
8
Default
62
5
5
104
100
AcDbEntity
100
AcDbLine
10
1.931039
20
7.994748
30
0.0
11
2.047173
21
7.994748
31
0.0
0
LINE
8
Default
62
5
5
105
100
AcDbEntity
100
AcDbLine
10
2.047173
20
7.994748
30
0.0
11
2.047173
21
8.105731
31
0.0
0
LINE
8
Default
62
5
5
106
100
AcDbEntity
100
AcDbLine
10
2.047173
20
8.105731
30
0.0
11
2.152419
21
8.105731
31
0.0
0
LINE
8
Default
62
5
5
107
100
AcDbEntity
100
AcDbLine
10
2.152419
20
8.105731
30
0.0
11
2.152419
21
7.994748
31
0.0
0
LINE
8
Default
62
5
5
108
100
AcDbEntity
100
AcDbLine
10
2.152419
20
7.994748
30
0.0
11
2.333341
21
7.994748
31
0.0
0
LINE
8
Default
62
5
5
109
100
AcDbEntity
100
AcDbLine
10
2.333341
20
7.994748
30
0.0
11
2.333333
21
8.328084
31
0.0
0
LINE
8
Default
62
5
5
10a
100
AcDbEntity
100
AcDbLine
10
2.333333
20
8.328084
30
0.0
11
2.111111
21
8.328084
31
0.0
0
LINE
8
Default
62
5
5
10b
100
AcDbEntity
100
AcDbLine
10
2.111111
20
8.328084
30
0.0
11
2.111111
21
8.550306
31
0.0
0
LINE
8
Default
62
5
5
10c
100
AcDbEntity
100
AcDbLine
10
2.111111
20
8.550306
30
0.0
11
0.333333
21
8.550306
31
0.0
0
LINE
8
Default
62
5
5
10d
100
AcDbEntity
100
AcDbLine
10
0.333333
20
8.550306
30
0.0
11
0.333333
21
8.328084
31
0.0
0
LINE
8
Default
62
5
5
10e
100
AcDbEntity
100
AcDbLine
10
0.333333
20
8.328084
30
0.0
11
0.111111
21
8.328084
31
0.0
0
LINE
8
Default
62
5
5
10f
100
AcDbEntity
100
AcDbLine
10
0.111111
20
8.328084
30
0.0
11
0.111111
21
6.550306
31
0.0
0
LINE
8
Default
62
5
5
110
100
AcDbEntity
100
AcDbLine
10
0.111111
20
6.550306
30
0.0
11
0.333333
21
6.550306
31
0.0
0
LINE
8
Default
62
5
5
111
100
AcDbEntity
100
AcDbLine
10
0.333333
20
6.550306
30
0.0
11
0.333333
21
6.328084
31
0.0
0
LINE
8
Default
62
5
5
112
100
AcDbEntity
100
AcDbLine
10
0.333333
20
6.328084
30
0.0
11
2.111111
21
6.328084
31
0.0
0
LINE
8
Default
62
5
5
113
100
AcDbEntity
100
AcDbLine
10
2.111111
20
6.328084
30
0.0
11
2.111111
21
6.550306
31
0.0
0
LINE
8
Default
62
5
5
114
100
AcDbEntity
100
AcDbLine
10
2.111111
20
6.550306
30
0.0
11
2.333333
21
6.550306
31
0.0
0
LINE
8
Default
62
5
5
115
100
AcDbEntity
100
AcDbLine
10
2.333333
20
6.550306
30
0.0
11
2.333333
21
6.872526
31
0.0
0
LINE
8
Default
62
5
5
116
100
AcDbEntity
100
AcDbLine
10
2.333333
20
6.872526
30
0.0
11
2.150464
21
6.872526
31
0.0
0
LINE
8
Default
62
5
5
117
100
AcDbEntity
100
AcDbLine
10
2.150464
20
6.872526
30
0.0
11
2.150464
21
6.761415
31
0.0
0
LINE
8
Default
62
5
5
118
100
AcDbEntity
100
AcDbLine
10
2.150464
20
6.761415
30
0.0
11
2.047168
21
6.761415
31
0.0
0
LINE
8
Default
62
5
5
119
100
AcDbEntity
100
AcDbLine
10
2.047168
20
6.761415
30
0.0
11
2.047168
21
6.872526
31
0.0
0
LINE
8
Default
62
5
5
11a
100
AcDbEntity
100
AcDbLine
10
2.047168
20
6.872526
30
0.0
11
1.931041
21
6.872526
31
0.0
0
LINE
8
Default
62
5
5
11b
100
AcDbEntity
100
AcDbLine
10
1.931041
20
6.872526
30
0.0
11
1.793465
21
7.011932
31
0.0
0
LINE
8
Default
62
5
5
11c
100
AcDbEntity
100
AcDbLine
10
1.793465
20
7.011932
30
0.0
11
1.793465
21
7.121652
31
0.0
0
LINE
8
Default
62
5
5
11d
100
AcDbEntity
100
AcDbLine
10
1.793465
20
7.121652
30
0.0
11
1.561479
21
7.121652
31
0.0
0
LINE
8
Default
62
5
5
11e
100
AcDbEntity
100
AcDbLine
10
1.556034
20
6.699669
30
0.0
11
1.498728
21
6.699669
31
0.0
0
LINE
8
Default
62
5
5
11f
100
AcDbEntity
100
AcDbLine
10
1.498728
20
6.699669
30
0.0
11
1.498728
21
6.744113
31
0.0
0
LINE
8
Default
62
5
5
120
100
AcDbEntity
100
AcDbLine
10
1.498728
20
6.744113
30
0.0
11
1.556034
21
6.744113
31
0.0
0
LINE
8
Default
62
5
5
121
100
AcDbEntity
100
AcDbLine
10
1.556034
20
6.744113
30
0.0
11
1.556034
21
6.699669
31
0.0
0
LINE
8
Default
62
5
5
122
100
AcDbEntity
100
AcDbLine
10
1.612019
20
6.672083
30
0.0
11
1.607605
21
6.677836
31
0.0
0
LINE
8
Default
62
5
5
123
100
AcDbEntity
100
AcDbLine
10
1.607605
20
6.677836
30
0.0
11
1.604830
21
6.684535
31
0.0
0
LINE
8
Default
62
5
5
124
100
AcDbEntity
100
AcDbLine
10
1.604830
20
6.684535
30
0.0
11
1.603883
21
6.691725
31
0.0
0
LINE
8
Default
62
5
5
125
100
AcDbEntity
100
AcDbLine
10
1.603883
20
6.691725
30
0.0
11
1.604830
21
6.698914
31
0.0
0
LINE
8
Default
62
5
5
126
100
AcDbEntity
100
AcDbLine
10
1.604830
20
6.698914
30
0.0
11
1.607605
21
6.705614
31
0.0
0
LINE
8
Default
62
5
5
127
100
AcDbEntity
100
AcDbLine
10
1.607605
20
6.705614
30
0.0
11
1.612019
21
6.711367
31
0.0
0
LINE
8
Default
62
5
5
128
100
AcDbEntity
100
AcDbLine
10
1.612019
20
6.711367
30
0.0
11
1.617772
21
6.715781
31
0.0
0
LINE
8
Default
62
5
5
129
100
AcDbEntity
100
AcDbLine
10
1.617772
20
6.715781
30
0.0
11
1.624471
21
6.718556
31
0.0
0
LINE
8
Default
62
5
5
12a
100
AcDbEntity
100
AcDbLine
10
1.624471
20
6.718556
30
0.0
11
1.631661
21
6.719502
31
0.0
0
LINE
8
Default
62
5
5
12b
100
AcDbEntity
100
AcDbLine
10
1.631661
20
6.719502
30
0.0
11
1.638850
21
6.718556
31
0.0
0
LINE
8
Default
62
5
5
12c
100
AcDbEntity
100
AcDbLine
10
1.638850
20
6.718556
30
0.0
11
1.645550
21
6.715781
31
0.0
0
LINE
8
Default
62
5
5
12d
100
AcDbEntity
100
AcDbLine
10
1.645550
20
6.715781
30
0.0
11
1.651303
21
6.711367
31
0.0
0
LINE
8
Default
62
5
5
12e
100
AcDbEntity
100
AcDbLine
10
1.651303
20
6.711367
30
0.0
11
1.655717
21
6.705614
31
0.0
0
LINE
8
Default
62
5
5
12f
100
AcDbEntity
100
AcDbLine
10
1.655717
20
6.705614
30
0.0
11
1.658492
21
6.698914
31
0.0
0
LINE
8
Default
62
5
5
130
100
AcDbEntity
100
AcDbLine
10
1.658492
20
6.698914
30
0.0
11
1.659439
21
6.691725
31
0.0
0
LINE
8
Default
62
5
5
131
100
AcDbEntity
100
AcDbLine
10
1.659439
20
6.691725
30
0.0
11
1.658492
21
6.684535
31
0.0
0
LINE
8
Default
62
5
5
132
100
AcDbEntity
100
AcDbLine
10
1.658492
20
6.684535
30
0.0
11
1.655717
21
6.677836
31
0.0
0
LINE
8
Default
62
5
5
133
100
AcDbEntity
100
AcDbLine
10
1.655717
20
6.677836
30
0.0
11
1.651303
21
6.672083
31
0.0
0
LINE
8
Default
62
5
5
134
100
AcDbEntity
100
AcDbLine
10
1.651303
20
6.672083
30
0.0
11
1.645550
21
6.667668
31
0.0
0
LINE
8
Default
62
5
5
135
100
AcDbEntity
100
AcDbLine
10
1.645550
20
6.667668
30
0.0
11
1.638850
21
6.664893
31
0.0
0
LINE
8
Default
62
5
5
136
100
AcDbEntity
100
AcDbLine
10
1.638850
20
6.664893
30
0.0
11
1.631661
21
6.663947
31
0.0
0
LINE
8
Default
62
5
5
137
100
AcDbEntity
100
AcDbLine
10
1.631661
20
6.663947
30
0.0
11
1.624471
21
6.664893
31
0.0
0
LINE
8
Default
62
5
5
138
100
AcDbEntity
100
AcDbLine
10
1.624471
20
6.664893
30
0.0
11
1.617772
21
6.667668
31
0.0
0
LINE
8
Default
62
5
5
139
100
AcDbEntity
100
AcDbLine
10
1.617772
20
6.667668
30
0.0
11
1.612019
21
6.672083
31
0.0
0
LINE
8
Default
62
5
5
13a
100
AcDbEntity
100
AcDbLine
10
1.399445
20
7.876781
30
0.0
11
1.399445
21
6.987892
31
0.0
0
LINE
8
Default
62
5
5
13b
100
AcDbEntity
100
AcDbLine
10
1.399445
20
6.987892
30
0.0
11
0.510556
21
6.987892
31
0.0
0
LINE
8
Default
62
5
5
13c
100
AcDbEntity
100
AcDbLine
10
0.510556
20
6.987892
30
0.0
11
0.510556
21
7.876781
31
0.0
0
LINE
8
Default
62
5
5
13d
100
AcDbEntity
100
AcDbLine
10
0.510556
20
7.876781
30
0.0
11
1.399445
21
7.876781
31
0.0
0
LINE
8
Default
62
5
5
13e
100
AcDbEntity
100
AcDbLine
10
0.422663
20
8.164472
30
0.0
11
0.479969
21
8.164472
31
0.0
0
LINE
8
Default
62
5
5
13f
100
AcDbEntity
100
AcDbLine
10
0.479969
20
8.164472
30
0.0
11
0.479969
21
8.120028
31
0.0
0
LINE
8
Default
62
5
5
140
100
AcDbEntity
100
AcDbLine
10
0.479969
20
8.120028
30
0.0
11
0.422663
21
8.120028
31
0.0
0
LINE
8
Default
62
5
5
141
100
AcDbEntity
100
AcDbLine
10
0.422663
20
8.120028
30
0.0
11
0.422663
21
8.164472
31
0.0
0
LINE
8
Default
62
5
5
142
100
AcDbEntity
100
AcDbLine
10
0.524199
20
6.744320
30
0.0
11
0.581505
21
6.744320
31
0.0
0
LINE
8
Default
62
5
5
143
100
AcDbEntity
100
AcDbLine
10
0.581505
20
6.744320
30
0.0
11
0.581505
21
6.699876
31
0.0
0
LINE
8
Default
62
5
5
144
100
AcDbEntity
100
AcDbLine
10
0.581505
20
6.699876
30
0.0
11
0.524199
21
6.699876
31
0.0
0
LINE
8
Default
62
5
5
145
100
AcDbEntity
100
AcDbLine
10
0.524199
20
6.699876
30
0.0
11
0.524199
21
6.744320
31
0.0
0
LINE
8
Default
62
5
5
146
100
AcDbEntity
100
AcDbLine
10
1.397192
20
8.164395
30
0.0
11
1.454498
21
8.164395
31
0.0
0
LINE
8
Default
62
5
5
147
100
AcDbEntity
100
AcDbLine
10
1.454498
20
8.164395
30
0.0
11
1.454498
21
8.119951
31
0.0
0
LINE
8
Default
62
5
5
148
100
AcDbEntity
100
AcDbLine
10
1.454498
20
8.119951
30
0.0
11
1.397192
21
8.119951
31
0.0
0
LINE
8
Default
62
5
5
149
100
AcDbEntity
100
AcDbLine
10
1.397192
20
8.119951
30
0.0
11
1.397192
21
8.164395
31
0.0
0
LINE
8
Default
62
5
5
14a
100
AcDbEntity
100
AcDbLine
10
0.371044
20
8.158443
30
0.0
11
0.366610
21
8.152706
31
0.0
0
LINE
8
Default
62
5
5
14b
100
AcDbEntity
100
AcDbLine
10
0.366610
20
8.152706
30
0.0
11
0.360841
21
8.148312
31
0.0
0
LINE
8
Default
62
5
5
14c
100
AcDbEntity
100
AcDbLine
10
0.360841
20
8.148312
30
0.0
11
0.354132
21
8.145560
31
0.0
0
LINE
8
Default
62
5
5
14d
100
AcDbEntity
100
AcDbLine
10
0.354132
20
8.145560
30
0.0
11
0.346940
21
8.144639
31
0.0
0
LINE
8
Default
62
5
5
14e
100
AcDbEntity
100
AcDbLine
10
0.346940
20
8.144639
30
0.0
11
0.339753
21
8.145610
31
0.0
0
LINE
8
Default
62
5
5
14f
100
AcDbEntity
100
AcDbLine
10
0.339753
20
8.145610
30
0.0
11
0.333064
21
8.148409
31
0.0
0
LINE
8
Default
62
5
5
150
100
AcDbEntity
100
AcDbLine
10
0.333064
20
8.148409
30
0.0
11
0.327326
21
8.152843
31
0.0
0
LINE
8
Default
62
5
5
151
100
AcDbEntity
100
AcDbLine
10
0.327326
20
8.152843
30
0.0
11
0.322932
21
8.158611
31
0.0
0
LINE
8
Default
62
5
5
152
100
AcDbEntity
100
AcDbLine
10
0.322932
20
8.158611
30
0.0
11
0.320155
21
8.165000
31
0.0
0
LINE
8
Default
62
5
5
153
100
AcDbEntity
100
AcDbLine
10
0.320155
20
8.165000
30
0.0
11
0.320180
21
8.165320
31
0.0
0
LINE
8
Default
62
5
5
154
100
AcDbEntity
100
AcDbLine
10
0.320180
20
8.165320
30
0.0
11
0.319208
21
8.172190
31
0.0
0
LINE
8
Default
62
5
5
155
100
AcDbEntity
100
AcDbLine
10
0.319208
20
8.172190
30
0.0
11
0.319259
21
8.172513
31
0.0
0
LINE
8
Default
62
5
5
156
100
AcDbEntity
100
AcDbLine
10
0.319259
20
8.172513
30
0.0
11
0.320155
21
8.179379
31
0.0
0
LINE
8
Default
62
5
5
157
100
AcDbEntity
100
AcDbLine
10
0.320155
20
8.179379
30
0.0
11
0.320231
21
8.179699
31
0.0
0
LINE
8
Default
62
5
5
158
100
AcDbEntity
100
AcDbLine
10
0.320231
20
8.179699
30
0.0
11
0.322930
21
8.186079
31
0.0
0
LINE
8
Default
62
5
5
159
100
AcDbEntity
100
AcDbLine
10
0.322930
20
8.186079
30
0.0
11
0.323029
21
8.186389
31
0.0
0
LINE
8
Default
62
5
5
15a
100
AcDbEntity
100
AcDbLine
10
0.323029
20
8.186389
30
0.0
11
0.327344
21
8.191832
31
0.0
0
LINE
8
Default
62
5
5
15b
100
AcDbEntity
100
AcDbLine
10
0.327344
20
8.191832
30
0.0
11
0.327463
21
8.192126
31
0.0
0
LINE
8
Default
62
5
5
15c
100
AcDbEntity
100
AcDbLine
10
0.327463
20
8.192126
30
0.0
11
0.333232
21
8.196521
31
0.0
0
LINE
8
Default
62
5
5
15d
100
AcDbEntity
100
AcDbLine
10
0.333232
20
8.196521
30
0.0
11
0.339941
21
8.199272
31
0.0
0
LINE
8
Default
62
5
5
15e
100
AcDbEntity
100
AcDbLine
10
0.339941
20
8.199272
30
0.0
11
0.347134
21
8.200194
31
0.0
0
LINE
8
Default
62
5
5
15f
100
AcDbEntity
100
AcDbLine
10
0.347134
20
8.200194
30
0.0
11
0.354320
21
8.199222
31
0.0
0
LINE
8
Default
62
5
5
160
100
AcDbEntity
100
AcDbLine
10
0.354320
20
8.199222
30
0.0
11
0.361009
21
8.196424
31
0.0
0
LINE
8
Default
62
5
5
161
100
AcDbEntity
100
AcDbLine
10
0.361009
20
8.196424
30
0.0
11
0.366747
21
8.191989
31
0.0
0
LINE
8
Default
62
5
5
162
100
AcDbEntity
100
AcDbLine
10
0.366747
20
8.191989
30
0.0
11
0.371141
21
8.186221
31
0.0
0
LINE
8
Default
62
5
5
163
100
AcDbEntity
100
AcDbLine
10
0.371141
20
8.186221
30
0.0
11
0.373893
21
8.179512
31
0.0
0
LINE
8
Default
62
5
5
164
100
AcDbEntity
100
AcDbLine
10
0.373893
20
8.179512
30
0.0
11
0.374814
21
8.172319
31
0.0
0
LINE
8
Default
62
5
5
165
100
AcDbEntity
100
AcDbLine
10
0.374814
20
8.172319
30
0.0
11
0.373843
21
8.165133
31
0.0
0
LINE
8
Default
62
5
5
166
100
AcDbEntity
100
AcDbLine
10
0.373843
20
8.165133
30
0.0
11
0.371044
21
8.158443
31
0.0
0
LINE
8
Default
62
5
5
167
100
AcDbEntity
100
AcDbLine
10
1.298198
20
6.670380
30
0.0
11
1.290989
21
6.669596
31
0.0
0
LINE
8
Default
62
5
5
168
100
AcDbEntity
100
AcDbLine
10
1.290989
20
6.669596
30
0.0
11
1.283823
21
6.670705
31
0.0
0
LINE
8
Default
62
5
5
169
100
AcDbEntity
100
AcDbLine
10
1.283823
20
6.670705
30
0.0
11
1.277188
21
6.673630
31
0.0
0
LINE
8
Default
62
5
5
16a
100
AcDbEntity
100
AcDbLine
10
1.277188
20
6.673630
30
0.0
11
1.271537
21
6.678173
31
0.0
0
LINE
8
Default
62
5
5
16b
100
AcDbEntity
100
AcDbLine
10
1.271537
20
6.678173
30
0.0
11
1.267253
21
6.684024
31
0.0
0
LINE
8
Default
62
5
5
16c
100
AcDbEntity
100
AcDbLine
10
1.267253
20
6.684024
30
0.0
11
1.264631
21
6.690785
31
0.0
0
LINE
8
Default
62
5
5
16d
100
AcDbEntity
100
AcDbLine
10
1.264631
20
6.690785
30
0.0
11
1.263847
21
6.697993
31
0.0
0
LINE
8
Default
62
5
5
16e
100
AcDbEntity
100
AcDbLine
10
1.263847
20
6.697993
30
0.0
11
1.264955
21
6.705159
31
0.0
0
LINE
8
Default
62
5
5
16f
100
AcDbEntity
100
AcDbLine
10
1.264955
20
6.705159
30
0.0
11
1.267881
21
6.711794
31
0.0
0
LINE
8
Default
62
5
5
170
100
AcDbEntity
100
AcDbLine
10
1.267881
20
6.711794
30
0.0
11
1.272424
21
6.717446
31
0.0
0
LINE
8
Default
62
5
5
171
100
AcDbEntity
100
AcDbLine
10
1.272424
20
6.717446
30
0.0
11
1.278275
21
6.721729
31
0.0
0
LINE
8
Default
62
5
5
172
100
AcDbEntity
100
AcDbLine
10
1.278275
20
6.721729
30
0.0
11
1.285035
21
6.724352
31
0.0
0
LINE
8
Default
62
5
5
173
100
AcDbEntity
100
AcDbLine
10
1.285035
20
6.724352
30
0.0
11
1.292244
21
6.725136
31
0.0
0
LINE
8
Default
62
5
5
174
100
AcDbEntity
100
AcDbLine
10
1.292244
20
6.725136
30
0.0
11
1.299410
21
6.724027
31
0.0
0
LINE
8
Default
62
5
5
175
100
AcDbEntity
100
AcDbLine
10
1.299410
20
6.724027
30
0.0
11
1.306045
21
6.721102
31
0.0
0
LINE
8
Default
62
5
5
176
100
AcDbEntity
100
AcDbLine
10
1.306045
20
6.721102
30
0.0
11
1.311697
21
6.716558
31
0.0
0
LINE
8
Default
62
5
5
177
100
AcDbEntity
100
AcDbLine
10
1.311697
20
6.716558
30
0.0
11
1.315980
21
6.710707
31
0.0
0
LINE
8
Default
62
5
5
178
100
AcDbEntity
100
AcDbLine
10
1.315980
20
6.710707
30
0.0
11
1.318603
21
6.703947
31
0.0
0
LINE
8
Default
62
5
5
179
100
AcDbEntity
100
AcDbLine
10
1.318603
20
6.703947
30
0.0
11
1.319386
21
6.696738
31
0.0
0
LINE
8
Default
62
5
5
17a
100
AcDbEntity
100
AcDbLine
10
1.319386
20
6.696738
30
0.0
11
1.318278
21
6.689573
31
0.0
0
LINE
8
Default
62
5
5
17b
100
AcDbEntity
100
AcDbLine
10
1.318278
20
6.689573
30
0.0
11
1.315352
21
6.682938
31
0.0
0
LINE
8
Default
62
5
5
17c
100
AcDbEntity
100
AcDbLine
10
1.315352
20
6.682938
30
0.0
11
1.310809
21
6.677286
31
0.0
0
LINE
8
Default
62
5
5
17d
100
AcDbEntity
100
AcDbLine
10
1.310809
20
6.677286
30
0.0
11
1.304958
21
6.673003
31
0.0
0
LINE
8
Default
62
5
5
17e
100
AcDbEntity
100
AcDbLine
10
1.304958
20
6.673003
30
0.0
11
1.298198
21
6.670380
31
0.0
0
LINE
8
Default
62
5
5
17f
100
AcDbEntity
100
AcDbLine
10
0.342220
20
6.685741
30
0.0
11
0.338301
21
6.679639
31
0.0
0
LINE
8
Default
62
5
5
180
100
AcDbEntity
100
AcDbLine
10
0.338301
20
6.679639
30
0.0
11
0.332937
21
6.674760
31
0.0
0
LINE
8
Default
62
5
5
181
100
AcDbEntity
100
AcDbLine
10
0.332937
20
6.674760
30
0.0
11
0.326492
21
6.671436
31
0.0
0
LINE
8
Default
62
5
5
182
100
AcDbEntity
100
AcDbLine
10
0.326492
20
6.671436
30
0.0
11
0.319407
21
6.669892
31
0.0
0
LINE
8
Default
62
5
5
183
100
AcDbEntity
100
AcDbLine
10
0.319407
20
6.669892
30
0.0
11
0.312164
21
6.670235
31
0.0
0
LINE
8
Default
62
5
5
184
100
AcDbEntity
100
AcDbLine
10
0.312164
20
6.670235
30
0.0
11
0.305256
21
6.672441
31
0.0
0
LINE
8
Default
62
5
5
185
100
AcDbEntity
100
AcDbLine
10
0.305256
20
6.672441
30
0.0
11
0.299154
21
6.676360
31
0.0
0
LINE
8
Default
62
5
5
186
100
AcDbEntity
100
AcDbLine
10
0.299154
20
6.676360
30
0.0
11
0.294275
21
6.681724
31
0.0
0
LINE
8
Default
62
5
5
187
100
AcDbEntity
100
AcDbLine
10
0.294275
20
6.681724
30
0.0
11
0.290950
21
6.688169
31
0.0
0
LINE
8
Default
62
5
5
188
100
AcDbEntity
100
AcDbLine
10
0.290950
20
6.688169
30
0.0
11
0.289407
21
6.695254
31
0.0
0
LINE
8
Default
62
5
5
189
100
AcDbEntity
100
AcDbLine
10
0.289407
20
6.695254
30
0.0
11
0.289750
21
6.702497
31
0.0
0
LINE
8
Default
62
5
5
18a
100
AcDbEntity
100
AcDbLine
10
0.289750
20
6.702497
30
0.0
11
0.291956
21
6.709405
31
0.0
0
LINE
8
Default
62
5
5
18b
100
AcDbEntity
100
AcDbLine
10
0.291956
20
6.709405
30
0.0
11
0.295875
21
6.715506
31
0.0
0
LINE
8
Default
62
5
5
18c
100
AcDbEntity
100
AcDbLine
10
0.295875
20
6.715506
30
0.0
11
0.301239
21
6.720386
31
0.0
0
LINE
8
Default
62
5
5
18d
100
AcDbEntity
100
AcDbLine
10
0.301239
20
6.720386
30
0.0
11
0.307683
21
6.723710
31
0.0
0
LINE
8
Default
62
5
5
18e
100
AcDbEntity
100
AcDbLine
10
0.307683
20
6.723710
30
0.0
11
0.314769
21
6.725254
31
0.0
0
LINE
8
Default
62
5
5
18f
100
AcDbEntity
100
AcDbLine
10
0.314769
20
6.725254
30
0.0
11
0.322012
21
6.724911
31
0.0
0
LINE
8
Default
62
5
5
190
100
AcDbEntity
100
AcDbLine
10
0.322012
20
6.724911
30
0.0
11
0.328920
21
6.722705
31
0.0
0
LINE
8
Default
62
5
5
191
100
AcDbEntity
100
AcDbLine
10
0.328920
20
6.722705
30
0.0
11
0.335021
21
6.718786
31
0.0
0
LINE
8
Default
62
5
5
192
100
AcDbEntity
100
AcDbLine
10
0.335021
20
6.718786
30
0.0
11
0.339900
21
6.713422
31
0.0
0
LINE
8
Default
62
5
5
193
100
AcDbEntity
100
AcDbLine
10
0.339900
20
6.713422
30
0.0
11
0.343225
21
6.706977
31
0.0
0
LINE
8
Default
62
5
5
194
100
AcDbEntity
100
AcDbLine
10
0.343225
20
6.706977
30
0.0
11
0.344769
21
6.699892
31
0.0
0
LINE
8
Default
62
5
5
195
100
AcDbEntity
100
AcDbLine
10
0.344769
20
6.699892
30
0.0
11
0.344426
21
6.692649
31
0.0
0
LINE
8
Default
62
5
5
196
100
AcDbEntity
100
AcDbLine
10
0.344426
20
6.692649
30
0.0
11
0.342220
21
6.685741
31
0.0
0
LINE
8
Default
62
5
5
197
100
AcDbEntity
100
AcDbLine
10
0.629354
20
6.691932
30
0.0
11
0.630301
21
6.699121
31
0.0
0
LINE
8
Default
62
5
5
198
100
AcDbEntity
100
AcDbLine
10
0.630301
20
6.699121
30
0.0
11
0.633076
21
6.705821
31
0.0
0
LINE
8
Default
62
5
5
199
100
AcDbEntity
100
AcDbLine
10
0.633076
20
6.705821
30
0.0
11
0.637490
21
6.711574
31
0.0
0
LINE
8
Default
62
5
5
19a
100
AcDbEntity
100
AcDbLine
10
0.637490
20
6.711574
30
0.0
11
0.643243
21
6.715988
31
0.0
0
LINE
8
Default
62
5
5
19b
100
AcDbEntity
100
AcDbLine
10
0.643243
20
6.715988
30
0.0
11
0.649943
21
6.718763
31
0.0
0
LINE
8
Default
62
5
5
19c
100
AcDbEntity
100
AcDbLine
10
0.649943
20
6.718763
30
0.0
11
0.657132
21
6.719709
31
0.0
0
LINE
8
Default
62
5
5
19d
100
AcDbEntity
100
AcDbLine
10
0.657132
20
6.719709
30
0.0
11
0.664321
21
6.718763
31
0.0
0
LINE
8
Default
62
5
5
19e
100
AcDbEntity
100
AcDbLine
10
0.664321
20
6.718763
30
0.0
11
0.671021
21
6.715988
31
0.0
0
LINE
8
Default
62
5
5
19f
100
AcDbEntity
100
AcDbLine
10
0.671021
20
6.715988
30
0.0
11
0.676774
21
6.711574
31
0.0
0
LINE
8
Default
62
5
5
1a0
100
AcDbEntity
100
AcDbLine
10
0.676774
20
6.711574
30
0.0
11
0.681188
21
6.705821
31
0.0
0
LINE
8
Default
62
5
5
1a1
100
AcDbEntity
100
AcDbLine
10
0.681188
20
6.705821
30
0.0
11
0.683963
21
6.699121
31
0.0
0
LINE
8
Default
62
5
5
1a2
100
AcDbEntity
100
AcDbLine
10
0.683963
20
6.699121
30
0.0
11
0.684910
21
6.691932
31
0.0
0
LINE
8
Default
62
5
5
1a3
100
AcDbEntity
100
AcDbLine
10
0.684910
20
6.691932
30
0.0
11
0.683963
21
6.684742
31
0.0
0
LINE
8
Default
62
5
5
1a4
100
AcDbEntity
100
AcDbLine
10
0.683963
20
6.684742
30
0.0
11
0.681188
21
6.678043
31
0.0
0
LINE
8
Default
62
5
5
1a5
100
AcDbEntity
100
AcDbLine
10
0.681188
20
6.678043
30
0.0
11
0.676774
21
6.672290
31
0.0
0
LINE
8
Default
62
5
5
1a6
100
AcDbEntity
100
AcDbLine
10
0.676774
20
6.672290
30
0.0
11
0.671021
21
6.667875
31
0.0
0
LINE
8
Default
62
5
5
1a7
100
AcDbEntity
100
AcDbLine
10
0.671021
20
6.667875
30
0.0
11
0.664321
21
6.665100
31
0.0
0
LINE
8
Default
62
5
5
1a8
100
AcDbEntity
100
AcDbLine
10
0.664321
20
6.665100
30
0.0
11
0.657132
21
6.664154
31
0.0
0
LINE
8
Default
62
5
5
1a9
100
AcDbEntity
100
AcDbLine
10
0.657132
20
6.664154
30
0.0
11
0.649943
21
6.665100
31
0.0
0
LINE
8
Default
62
5
5
1aa
100
AcDbEntity
100
AcDbLine
10
0.649943
20
6.665100
30
0.0
11
0.643243
21
6.667875
31
0.0
0
LINE
8
Default
62
5
5
1ab
100
AcDbEntity
100
AcDbLine
10
0.643243
20
6.667875
30
0.0
11
0.637490
21
6.672290
31
0.0
0
LINE
8
Default
62
5
5
1ac
100
AcDbEntity
100
AcDbLine
10
0.637490
20
6.672290
30
0.0
11
0.633076
21
6.678043
31
0.0
0
LINE
8
Default
62
5
5
1ad
100
AcDbEntity
100
AcDbLine
10
0.633076
20
6.678043
30
0.0
11
0.630301
21
6.684742
31
0.0
0
LINE
8
Default
62
5
5
1ae
100
AcDbEntity
100
AcDbLine
10
0.630301
20
6.684742
30
0.0
11
0.629354
21
6.691932
31
0.0
0
LINE
8
Default
62
5
5
1af
100
AcDbEntity
100
AcDbLine
10
1.314376
20
8.199170
30
0.0
11
1.321565
21
8.200117
31
0.0
0
LINE
8
Default
62
5
5
1b0
100
AcDbEntity
100
AcDbLine
10
1.321565
20
8.200117
30
0.0
11
1.328755
21
8.199170
31
0.0
0
LINE
8
Default
62
5
5
1b1
100
AcDbEntity
100
AcDbLine
10
1.328755
20
8.199170
30
0.0
11
1.335454
21
8.196395
31
0.0
0
LINE
8
Default
62
5
5
1b2
100
AcDbEntity
100
AcDbLine
10
1.335454
20
8.196395
30
0.0
11
1.341207
21
8.191981
31
0.0
0
LINE
8
Default
62
5
5
1b3
100
AcDbEntity
100
AcDbLine
10
1.341207
20
8.191981
30
0.0
11
1.345622
21
8.186228
31
0.0
0
LINE
8
Default
62
5
5
1b4
100
AcDbEntity
100
AcDbLine
10
1.345622
20
8.186228
30
0.0
11
1.348397
21
8.179528
31
0.0
0
LINE
8
Default
62
5
5
1b5
100
AcDbEntity
100
AcDbLine
10
1.348397
20
8.179528
30
0.0
11
1.349343
21
8.172339
31
0.0
0
LINE
8
Default
62
5
5
1b6
100
AcDbEntity
100
AcDbLine
10
1.349343
20
8.172339
30
0.0
11
1.348397
21
8.165150
31
0.0
0
LINE
8
Default
62
5
5
1b7
100
AcDbEntity
100
AcDbLine
10
1.348397
20
8.165150
30
0.0
11
1.345622
21
8.158450
31
0.0
0
LINE
8
Default
62
5
5
1b8
100
AcDbEntity
100
AcDbLine
10
1.345622
20
8.158450
30
0.0
11
1.341207
21
8.152697
31
0.0
0
LINE
8
Default
62
5
5
1b9
100
AcDbEntity
100
AcDbLine
10
1.341207
20
8.152697
30
0.0
11
1.335454
21
8.148283
31
0.0
0
LINE
8
Default
62
5
5
1ba
100
AcDbEntity
100
AcDbLine
10
1.335454
20
8.148283
30
0.0
11
1.328755
21
8.145508
31
0.0
0
LINE
8
Default
62
5
5
1bb
100
AcDbEntity
100
AcDbLine
10
1.328755
20
8.145508
30
0.0
11
1.321565
21
8.144561
31
0.0
0
LINE
8
Default
62
5
5
1bc
100
AcDbEntity
100
AcDbLine
10
1.321565
20
8.144561
30
0.0
11
1.314376
21
8.145508
31
0.0
0
LINE
8
Default
62
5
5
1bd
100
AcDbEntity
100
AcDbLine
10
1.314376
20
8.145508
30
0.0
11
1.307676
21
8.148283
31
0.0
0
LINE
8
Default
62
5
5
1be
100
AcDbEntity
100
AcDbLine
10
1.307676
20
8.148283
30
0.0
11
1.301923
21
8.152697
31
0.0
0
LINE
8
Default
62
5
5
1bf
100
AcDbEntity
100
AcDbLine
10
1.301923
20
8.152697
30
0.0
11
1.297509
21
8.158450
31
0.0
0
LINE
8
Default
62
5
5
1c0
100
AcDbEntity
100
AcDbLine
10
1.297509
20
8.158450
30
0.0
11
1.294734
21
8.165150
31
0.0
0
LINE
8
Default
62
5
5
1c1
100
AcDbEntity
100
AcDbLine
10
1.294734
20
8.165150
30
0.0
11
1.293788
21
8.172339
31
0.0
0
LINE
8
Default
62
5
5
1c2
100
AcDbEntity
100
AcDbLine
10
1.293788
20
8.172339
30
0.0
11
1.294734
21
8.179528
31
0.0
0
LINE
8
Default
62
5
5
1c3
100
AcDbEntity
100
AcDbLine
10
1.294734
20
8.179528
30
0.0
11
1.297509
21
8.186228
31
0.0
0
LINE
8
Default
62
5
5
1c4
100
AcDbEntity
100
AcDbLine
10
1.297509
20
8.186228
30
0.0
11
1.301923
21
8.191981
31
0.0
0
LINE
8
Default
62
5
5
1c5
100
AcDbEntity
100
AcDbLine
10
1.301923
20
8.191981
30
0.0
11
1.307676
21
8.196395
31
0.0
0
LINE
8
Default
62
5
5
1c6
100
AcDbEntity
100
AcDbLine
10
1.307676
20
8.196395
30
0.0
11
1.314376
21
8.199170
31
0.0
0
LINE
8
Default
62
5
5
1c7
100
AcDbEntity
100
AcDbLine
10
1.633832
20
8.166698
30
0.0
11
1.634778
21
8.173887
31
0.0
0
LINE
8
Default
62
5
5
1c8
100
AcDbEntity
100
AcDbLine
10
1.634778
20
8.173887
30
0.0
11
1.637553
21
8.180587
31
0.0
0
LINE
8
Default
62
5
5
1c9
100
AcDbEntity
100
AcDbLine
10
1.637553
20
8.180587
30
0.0
11
1.641968
21
8.186340
31
0.0
0
LINE
8
Default
62
5
5
1ca
100
AcDbEntity
100
AcDbLine
10
1.641968
20
8.186340
30
0.0
11
1.647721
21
8.190754
31
0.0
0
LINE
8
Default
62
5
5
1cb
100
AcDbEntity
100
AcDbLine
10
1.647721
20
8.190754
30
0.0
11
1.654420
21
8.193529
31
0.0
0
LINE
8
Default
62
5
5
1cc
100
AcDbEntity
100
AcDbLine
10
1.654420
20
8.193529
30
0.0
11
1.661610
21
8.194475
31
0.0
0
LINE
8
Default
62
5
5
1cd
100
AcDbEntity
100
AcDbLine
10
1.661610
20
8.194475
30
0.0
11
1.668799
21
8.193529
31
0.0
0
LINE
8
Default
62
5
5
1ce
100
AcDbEntity
100
AcDbLine
10
1.668799
20
8.193529
30
0.0
11
1.675498
21
8.190754
31
0.0
0
LINE
8
Default
62
5
5
1cf
100
AcDbEntity
100
AcDbLine
10
1.675498
20
8.190754
30
0.0
11
1.681251
21
8.186340
31
0.0
0
LINE
8
Default
62
5
5
1d0
100
AcDbEntity
100
AcDbLine
10
1.681251
20
8.186340
30
0.0
11
1.685666
21
8.180587
31
0.0
0
LINE
8
Default
62
5
5
1d1
100
AcDbEntity
100
AcDbLine
10
1.685666
20
8.180587
30
0.0
11
1.688441
21
8.173887
31
0.0
0
LINE
8
Default
62
5
5
1d2
100
AcDbEntity
100
AcDbLine
10
1.688441
20
8.173887
30
0.0
11
1.689387
21
8.166698
31
0.0
0
LINE
8
Default
62
5
5
1d3
100
AcDbEntity
100
AcDbLine
10
1.689387
20
8.166698
30
0.0
11
1.688441
21
8.159508
31
0.0
0
LINE
8
Default
62
5
5
1d4
100
AcDbEntity
100
AcDbLine
10
1.688441
20
8.159508
30
0.0
11
1.685666
21
8.152809
31
0.0
0
LINE
8
Default
62
5
5
1d5
100
AcDbEntity
100
AcDbLine
10
1.685666
20
8.152809
30
0.0
11
1.681251
21
8.147056
31
0.0
0
LINE
8
Default
62
5
5
1d6
100
AcDbEntity
100
AcDbLine
10
1.681251
20
8.147056
30
0.0
11
1.675498
21
8.142641
31
0.0
0
LINE
8
Default
62
5
5
1d7
100
AcDbEntity
100
AcDbLine
10
1.675498
20
8.142641
30
0.0
11
1.668799
21
8.139866
31
0.0
0
LINE
8
Default
62
5
5
1d8
100
AcDbEntity
100
AcDbLine
10
1.668799
20
8.139866
30
0.0
11
1.661610
21
8.138920
31
0.0
0
LINE
8
Default
62
5
5
1d9
100
AcDbEntity
100
AcDbLine
10
1.661610
20
8.138920
30
0.0
11
1.654420
21
8.139866
31
0.0
0
LINE
8
Default
62
5
5
1da
100
AcDbEntity
100
AcDbLine
10
1.654420
20
8.139866
30
0.0
11
1.647721
21
8.142641
31
0.0
0
LINE
8
Default
62
5
5
1db
100
AcDbEntity
100
AcDbLine
10
1.647721
20
8.142641
30
0.0
11
1.641968
21
8.147056
31
0.0
0
LINE
8
Default
62
5
5
1dc
100
AcDbEntity
100
AcDbLine
10
1.641968
20
8.147056
30
0.0
11
1.637553
21
8.152809
31
0.0
0
LINE
8
Default
62
5
5
1dd
100
AcDbEntity
100
AcDbLine
10
1.637553
20
8.152809
30
0.0
11
1.634778
21
8.159508
31
0.0
0
LINE
8
Default
62
5
5
1de
100
AcDbEntity
100
AcDbLine
10
1.634778
20
8.159508
30
0.0
11
1.633832
21
8.166698
31
0.0
0
LINE
8
Default
62
5
5
1df
100
AcDbEntity
100
AcDbLine
10
0.694220
20
8.139717
30
0.0
11
0.687030
21
8.138771
31
0.0
0
LINE
8
Default
62
5
5
1e0
100
AcDbEntity
100
AcDbLine
10
0.687030
20
8.138771
30
0.0
11
0.679841
21
8.139717
31
0.0
0
LINE
8
Default
62
5
5
1e1
100
AcDbEntity
100
AcDbLine
10
0.679841
20
8.139717
30
0.0
11
0.673141
21
8.142492
31
0.0
0
LINE
8
Default
62
5
5
1e2
100
AcDbEntity
100
AcDbLine
10
0.673141
20
8.142492
30
0.0
11
0.667388
21
8.146907
31
0.0
0
LINE
8
Default
62
5
5
1e3
100
AcDbEntity
100
AcDbLine
10
0.667388
20
8.146907
30
0.0
11
0.662974
21
8.152660
31
0.0
0
LINE
8
Default
62
5
5
1e4
100
AcDbEntity
100
AcDbLine
10
0.662974
20
8.152660
30
0.0
11
0.660199
21
8.159359
31
0.0
0
LINE
8
Default
62
5
5
1e5
100
AcDbEntity
100
AcDbLine
10
0.660199
20
8.159359
30
0.0
11
0.659253
21
8.166549
31
0.0
0
LINE
8
Default
62
5
5
1e6
100
AcDbEntity
100
AcDbLine
10
0.659253
20
8.166549
30
0.0
11
0.660199
21
8.173738
31
0.0
0
LINE
8
Default
62
5
5
1e7
100
AcDbEntity
100
AcDbLine
10
0.660199
20
8.173738
30
0.0
11
0.662974
21
8.180438
31
0.0
0
LINE
8
Default
62
5
5
1e8
100
AcDbEntity
100
AcDbLine
10
0.662974
20
8.180438
30
0.0
11
0.667388
21
8.186190
31
0.0
0
LINE
8
Default
62
5
5
1e9
100
AcDbEntity
100
AcDbLine
10
0.667388
20
8.186190
30
0.0
11
0.673141
21
8.190605
31
0.0
0
LINE
8
Default
62
5
5
1ea
100
AcDbEntity
100
AcDbLine
10
0.673141
20
8.190605
30
0.0
11
0.679841
21
8.193380
31
0.0
0
LINE
8
Default
62
5
5
1eb
100
AcDbEntity
100
AcDbLine
10
0.679841
20
8.193380
30
0.0
11
0.687030
21
8.194326
31
0.0
0
LINE
8
Default
62
5
5
1ec
100
AcDbEntity
100
AcDbLine
10
0.687030
20
8.194326
30
0.0
11
0.694220
21
8.193380
31
0.0
0
LINE
8
Default
62
5
5
1ed
100
AcDbEntity
100
AcDbLine
10
0.694220
20
8.193380
30
0.0
11
0.700919
21
8.190605
31
0.0
0
LINE
8
Default
62
5
5
1ee
100
AcDbEntity
100
AcDbLine
10
0.700919
20
8.190605
30
0.0
11
0.706672
21
8.186190
31
0.0
0
LINE
8
Default
62
5
5
1ef
100
AcDbEntity
100
AcDbLine
10
0.706672
20
8.186190
30
0.0
11
0.711087
21
8.180438
31
0.0
0
LINE
8
Default
62
5
5
1f0
100
AcDbEntity
100
AcDbLine
10
0.711087
20
8.180438
30
0.0
11
0.713862
21
8.173738
31
0.0
0
LINE
8
Default
62
5
5
1f1
100
AcDbEntity
100
AcDbLine
10
0.713862
20
8.173738
30
0.0
11
0.714808
21
8.166549
31
0.0
0
LINE
8
Default
62
5
5
1f2
100
AcDbEntity
100
AcDbLine
10
0.714808
20
8.166549
30
0.0
11
0.713862
21
8.159359
31
0.0
0
LINE
8
Default
62
5
5
1f3
100
AcDbEntity
100
AcDbLine
10
0.713862
20
8.159359
30
0.0
11
0.711087
21
8.152660
31
0.0
0
LINE
8
Default
62
5
5
1f4
100
AcDbEntity
100
AcDbLine
10
0.711087
20
8.152660
30
0.0
11
0.706672
21
8.146907
31
0.0
0
LINE
8
Default
62
5
5
1f5
100
AcDbEntity
100
AcDbLine
10
0.706672
20
8.146907
30
0.0
11
0.700919
21
8.142492
31
0.0
0
LINE
8
Default
62
5
5
1f6
100
AcDbEntity
100
AcDbLine
10
0.700919
20
8.142492
30
0.0
11
0.694220
21
8.139717
31
0.0
  0
ENDSEC
  0
SECTION
  2
OBJECTS
  0
DICTIONARY
  5
C
330
0
100
AcDbDictionary
  3
ACAD_GROUP
350
D
  3
ACAD_MLINESTYLE
350
17
  0
DICTIONARY
  5
D
330
C
100
AcDbDictionary
  0
DICTIONARY
  5
1A
330
C
100
AcDbDictionary
  0
DICTIONARY
  5
17
330
C
100
AcDbDictionary
  3
STANDARD
350
18
  0
DICTIONARY
  5
19
330
C
100
AcDbDictionary
  0
ENDSEC
  0
EOF
