solid LAMPS_full_model
facet normal -0.999999999999997 -3.94430400428527e-008 6.92251244613884e-008
outer loop
vertex -110.886269254485 -47.2356665091052 60.5751572921942
vertex -110.886273527094 -45.2255174555288 4.94592857964715e-006
vertex -110.886273447808 -47.2356632142488 4.83659098364786e-006
endloop
endfacet
facet normal -0.999999999999997 -3.94430400428527e-008 6.92251244613884e-008
outer loop
vertex -110.886273527094 -45.2255174555288 4.94592857964715e-006
vertex -110.886269254485 -47.2356665091052 60.5751572921942
vertex -110.886269333771 -45.2255207503852 60.5751574015319
endloop
endfacet
facet normal -3.94430353712124e-008 0.999999999999998 5.43928729479347e-008
outer loop
vertex -125.96236436191 -47.2356671037523 60.5751607385461
vertex -120.937002241408 -47.23566361068 4.57812643117617e-006
vertex -125.962366638208 -47.2356638088956 4.44889415494032e-006
endloop
endfacet
facet normal -3.94430353712124e-008 0.999999999999998 5.43928729479347e-008
outer loop
vertex -120.937002241408 -47.23566361068 4.57812643117617e-006
vertex -125.96236436191 -47.2356671037523 60.5751607385461
vertex -120.936999965109 -47.2356669055364 60.5751570337297
endloop
endfacet
facet normal -3.94430353712124e-008 0.999999999999998 5.43928729479347e-008
outer loop
vertex -110.886273527094 -45.2255174555288 4.94592857964715e-006
vertex -105.860904936971 -45.2255205521696 60.5751575307641
vertex -105.860909130294 -45.2255172573132 5.07516084883308e-006
endloop
endfacet
facet normal -3.94430353712124e-008 0.999999999999998 5.43928729479347e-008
outer loop
vertex -105.860904936971 -45.2255205521696 60.5751575307641
vertex -110.886273527094 -45.2255174555288 4.94592857964715e-006
vertex -110.886269333771 -45.2255207503852 60.5751574015319
endloop
endfacet
facet normal 0.999999999999997 3.94430400428527e-008 -6.92251244613884e-008
outer loop
vertex -105.860909130294 -45.2255172573132 5.07516084883308e-006
vertex -105.860904857685 -47.2356663108895 60.5751574214265
vertex -105.860909051008 -47.2356630160332 4.96582325001382e-006
endloop
endfacet
facet normal 0.999999999999997 3.94430400428527e-008 -6.92251244613884e-008
outer loop
vertex -105.860904857685 -47.2356663108895 60.5751574214265
vertex -105.860909130294 -45.2255172573132 5.07516084883308e-006
vertex -105.860904936971 -45.2255205521696 60.5751575307641
endloop
endfacet
facet normal -0.999999999999998 -3.94430383214792e-008 3.75780826527981e-008
outer loop
vertex -120.936999965109 -47.2356669055364 60.5751570337297
vertex -120.937002320694 -45.22551785196 4.68746404127529e-006
vertex -120.937002241408 -47.23566361068 4.57812643117617e-006
endloop
endfacet
facet normal -0.999999999999998 -3.94430383214792e-008 3.75780826527981e-008
outer loop
vertex -120.937002320694 -45.22551785196 4.68746404127529e-006
vertex -120.936999965109 -47.2356669055364 60.5751570337297
vertex -120.937000044396 -45.2255211468165 60.5751571430673
endloop
endfacet
facet normal -0.999999999999998 -3.94430383214792e-008 3.75780826527981e-008
outer loop
vertex -80.7340848699957 -45.2255195610913 60.5751543428767
vertex -80.7340870670076 -47.2356620249549 1.77793586033648e-006
vertex -80.7340847907095 -47.2356653198113 60.5751542335391
endloop
endfacet
facet normal -0.999999999999998 -3.94430383214792e-008 3.75780826527981e-008
outer loop
vertex -80.7340870670076 -47.2356620249549 1.77793586033648e-006
vertex -80.7340848699957 -45.2255195610913 60.5751543428767
vertex -80.7340871462939 -45.2255162662349 1.88727345069584e-006
endloop
endfacet
facet normal 0.999999999999998 3.94430383214792e-008 -3.75780826527981e-008
outer loop
vertex -75.7087227494939 -45.2255160680192 2.01650573962153e-006
vertex -75.7087203939094 -47.2356651215957 60.5751543627714
vertex -75.7087226702076 -47.2356618267392 1.90716811542258e-006
endloop
endfacet
facet normal 0.999999999999998 3.94430383214792e-008 -3.75780826527981e-008
outer loop
vertex -75.7087203939094 -47.2356651215957 60.5751543627714
vertex -75.7087227494939 -45.2255160680192 2.01650573962153e-006
vertex -75.7087204731957 -45.2255193628758 60.575154472109
endloop
endfacet
facet normal -3.94430353712124e-008 0.999999999999998 5.43928729479347e-008
outer loop
vertex -75.7087203939094 -47.2356651215957 60.5751543627714
vertex -70.6833582734076 -47.2356616285236 2.03640040857822e-006
vertex -75.7087226702076 -47.2356618267392 1.90716811542258e-006
endloop
endfacet
facet normal -3.94430353712124e-008 0.999999999999998 5.43928729479347e-008
outer loop
vertex -70.6833582734076 -47.2356616285236 2.03640040857822e-006
vertex -75.7087203939094 -47.2356651215957 60.5751543627714
vertex -70.6833559971094 -47.2356649233801 60.5751544920036
endloop
endfacet
facet normal 0.999999999999998 3.94430383214794e-008 -3.75780866589394e-008
outer loop
vertex -85.7594515430939 -45.2255164644507 5.59208995659644e-006
vertex -85.7594491875094 -47.2356655180269 60.5751541043068
vertex -85.7594514638077 -47.2356622231707 5.48275234649731e-006
endloop
endfacet
facet normal 0.999999999999998 3.94430383214794e-008 -3.75780866589394e-008
outer loop
vertex -85.7594491875094 -47.2356655180269 60.5751541043068
vertex -85.7594515430939 -45.2255164644507 5.59208995659644e-006
vertex -85.7594492667957 -45.225519759307 60.5751542136444
endloop
endfacet
facet normal -3.94430353712124e-008 0.999999999999998 5.43928729479347e-008
outer loop
vertex -115.91163556831 -47.2356667073209 60.5751571629619
vertex -110.886273447808 -47.2356632142488 4.83659098364786e-006
vertex -115.911637844608 -47.2356634124644 4.70735870318206e-006
endloop
endfacet
facet normal -3.94430353712124e-008 0.999999999999998 5.43928729479347e-008
outer loop
vertex -110.886273447808 -47.2356632142488 4.83659098364786e-006
vertex -115.91163556831 -47.2356667073209 60.5751571629619
vertex -110.886269254485 -47.2356665091052 60.5751572921942
endloop
endfacet
facet normal -0.999999999999997 -3.94430400428527e-008 6.92251244613884e-008
outer loop
vertex -90.7848117465714 -45.2255199575227 60.575157918461
vertex -90.7848158606077 -47.2356624213863 5.35352006885148e-006
vertex -90.7848116672851 -47.2356657162428 60.5751578091233
endloop
endfacet
facet normal -0.999999999999997 -3.94430400428527e-008 6.92251244613884e-008
outer loop
vertex -90.7848158606077 -47.2356624213863 5.35352006885148e-006
vertex -90.7848117465714 -45.2255199575227 60.575157918461
vertex -90.784815939894 -45.2255166626663 5.46285768318056e-006
endloop
endfacet
facet normal 0.999999999999998 3.94430383214792e-008 -3.75780826527981e-008
outer loop
vertex -115.911637844608 -47.2356634124644 4.70735870318206e-006
vertex -115.911635647596 -45.2255209486008 60.5751572722995
vertex -115.91163556831 -47.2356667073209 60.5751571629619
endloop
endfacet
facet normal 0.999999999999998 3.94430383214792e-008 -3.75780826527981e-008
outer loop
vertex -115.911635647596 -45.2255209486008 60.5751572722995
vertex -115.911637844608 -47.2356634124644 4.70735870318206e-006
vertex -115.911637923894 -45.2255176537444 4.81669632597104e-006
endloop
endfacet
facet normal 0.999999999999998 3.9443038321479e-008 -3.75780786466574e-008
outer loop
vertex -125.962366717494 -45.2255180501757 4.55823175657954e-006
vertex -125.96236436191 -47.2356671037523 60.5751607385461
vertex -125.962366638208 -47.2356638088956 4.44889415494032e-006
endloop
endfacet
facet normal 0.999999999999998 3.9443038321479e-008 -3.75780786466574e-008
outer loop
vertex -125.96236436191 -47.2356671037523 60.5751607385461
vertex -125.962366717494 -45.2255180501757 4.55823175657954e-006
vertex -125.962364441196 -45.2255213450323 60.5751608478837
endloop
endfacet
facet normal -0.999999999999997 -3.94430400428527e-008 6.92251244613884e-008
outer loop
vertex -100.835540540171 -45.2255203539539 60.5751576599964
vertex -100.835544654208 -47.2356628178175 5.09505550368994e-006
vertex -100.835540460885 -47.2356661126739 60.5751575506588
endloop
endfacet
facet normal -0.999999999999997 -3.94430400428527e-008 6.92251244613884e-008
outer loop
vertex -100.835544654208 -47.2356628178175 5.09505550368994e-006
vertex -100.835540540171 -45.2255203539539 60.5751576599964
vertex -100.835544733494 -45.2255170590976 5.20439313070886e-006
endloop
endfacet
facet normal -3.94430353712124e-008 0.999999999999998 5.43928729479347e-008
outer loop
vertex -105.860909051008 -47.2356630160332 4.96582325001382e-006
vertex -100.835540460885 -47.2356661126739 60.5751575506588
vertex -100.835544654208 -47.2356628178175 5.09505550368994e-006
endloop
endfacet
facet normal -3.94430353712124e-008 0.999999999999998 5.43928729479347e-008
outer loop
vertex -100.835540460885 -47.2356661126739 60.5751575506588
vertex -105.860909051008 -47.2356630160332 4.96582325001382e-006
vertex -105.860904857685 -47.2356663108895 60.5751574214265
endloop
endfacet
facet normal -0.999999999999998 -3.94430383214792e-008 3.75780826527981e-008
outer loop
vertex -60.6326272827956 -45.2255187682289 60.5751548598058
vertex -60.6326294798076 -47.2356612320924 2.29486495822995e-006
vertex -60.6326272035094 -47.2356645269489 60.5751547504681
endloop
endfacet
facet normal -0.999999999999998 -3.94430383214792e-008 3.75780826527981e-008
outer loop
vertex -60.6326294798076 -47.2356612320924 2.29486495822995e-006
vertex -60.6326272827956 -45.2255187682289 60.5751548598058
vertex -60.632629559094 -45.2255154733724 2.40420255845919e-006
endloop
endfacet
facet normal -3.94430353712124e-008 0.999999999999998 5.43928729479347e-008
outer loop
vertex -120.937000044396 -45.2255211468165 60.5751571430673
vertex -115.911637923894 -45.2255176537444 4.81669632597104e-006
vertex -120.937002320694 -45.22551785196 4.68746404127529e-006
endloop
endfacet
facet normal -3.94430353712124e-008 0.999999999999998 5.43928729479347e-008
outer loop
vertex -115.911637923894 -45.2255176537444 4.81669632597104e-006
vertex -120.937000044396 -45.2255211468165 60.5751571430673
vertex -115.911635647596 -45.2255209486008 60.5751572722995
endloop
endfacet
facet normal 0.999999999999998 3.94430383214792e-008 -3.75780826527981e-008
outer loop
vertex -65.6579939558939 -45.225515671588 2.27497029209323e-006
vertex -65.6579916003094 -47.2356647251645 60.5751546212359
vertex -65.6579938766076 -47.235661430308 2.16563267776415e-006
endloop
endfacet
facet normal 0.999999999999998 3.94430383214792e-008 -3.75780826527981e-008
outer loop
vertex -65.6579916003094 -47.2356647251645 60.5751546212359
vertex -65.6579939558939 -45.225515671588 2.27497029209323e-006
vertex -65.6579916795957 -45.2255189664445 60.5751547305735
endloop
endfacet
facet normal -3.94430353712124e-008 0.999999999999998 5.43928729479347e-008
outer loop
vertex -65.6579916003094 -47.2356647251645 60.5751546212359
vertex -60.6326294798076 -47.2356612320924 2.29486495822995e-006
vertex -65.6579938766076 -47.235661430308 2.16563267776415e-006
endloop
endfacet
facet normal -3.94430353712124e-008 0.999999999999998 5.43928729479347e-008
outer loop
vertex -60.6326294798076 -47.2356612320924 2.29486495822995e-006
vertex -65.6579916003094 -47.2356647251645 60.5751546212359
vertex -60.6326272035094 -47.2356645269489 60.5751547504681
endloop
endfacet
facet normal 0.999999999999997 3.94430400428527e-008 -6.92251244613884e-008
outer loop
vertex -95.810180336694 -45.2255168608819 5.33362540835469e-006
vertex -95.8101760640851 -47.2356659144583 60.575157679891
vertex -95.8101802574077 -47.235662619602 5.22428779825557e-006
endloop
endfacet
facet normal 0.999999999999997 3.94430400428527e-008 -6.92251244613884e-008
outer loop
vertex -95.8101760640851 -47.2356659144583 60.575157679891
vertex -95.810180336694 -45.2255168608819 5.33362540835469e-006
vertex -95.8101761433713 -45.2255201557383 60.5751577892287
endloop
endfacet
facet normal -0.999999999999998 -3.94430383214792e-008 3.75780826527981e-008
outer loop
vertex -70.6833559971094 -47.2356649233801 60.5751544920036
vertex -70.6833583526938 -45.2255158698036 2.14573801303741e-006
vertex -70.6833582734076 -47.2356616285236 2.03640040857822e-006
endloop
endfacet
facet normal -0.999999999999998 -3.94430383214792e-008 3.75780826527981e-008
outer loop
vertex -70.6833583526938 -45.2255158698036 2.14573801303741e-006
vertex -70.6833559971094 -47.2356649233801 60.5751544920036
vertex -70.6833560763956 -45.2255191646601 60.5751546013412
endloop
endfacet
facet normal -3.94430353712124e-008 0.999999999999998 5.43928729479347e-008
outer loop
vertex -95.8101802574077 -47.235662619602 5.22428779825557e-006
vertex -90.7848116672851 -47.2356657162428 60.5751578091233
vertex -90.7848158606077 -47.2356624213863 5.35352006885148e-006
endloop
endfacet
facet normal -3.94430353712124e-008 0.999999999999998 5.43928729479347e-008
outer loop
vertex -90.7848116672851 -47.2356657162428 60.5751578091233
vertex -95.8101802574077 -47.235662619602 5.22428779825557e-006
vertex -95.8101760640851 -47.2356659144583 60.575157679891
endloop
endfacet
facet normal 0.999999999999986 3.94430452533468e-008 -1.65018825937083e-007
outer loop
vertex -123.738928487779 -58.0077151131824 3.92014925930662e-006
vertex -123.738924119081 -84.6683954074411 20.1014638912471
vertex -123.738927436201 -84.668394314065 2.46999832662631e-006
endloop
endfacet
facet normal 0.999999999999986 3.94430452533468e-008 -1.65018825937083e-007
outer loop
vertex -123.738924119081 -84.6683954074411 20.1014638912471
vertex -123.738928487779 -58.0077151131824 3.92014925930662e-006
vertex -123.73892517066 -58.0077162065584 20.1014653413981
endloop
endfacet
facet normal 0.999999999999997 3.94430400382399e-008 -6.91403201660009e-008
outer loop
vertex -90.7063167436732 -67.5821463939412 4.2488350196157e-006
vertex -90.7063130174369 -73.4884245830751 50.524427589579
vertex -90.7063165107118 -73.4884218349068 3.92757574537717e-006
endloop
endfacet
facet normal 0.999999999999997 3.94430400382399e-008 -6.91403201660009e-008
outer loop
vertex -90.7063130174369 -73.4884245830751 50.524427589579
vertex -90.7063167436732 -67.5821463939412 4.2488350196157e-006
vertex -90.7063132503983 -67.5821491421096 50.5244279108383
endloop
endfacet
facet normal -0.999999999999997 -3.94430391271197e-008 6.91403201516809e-008
outer loop
vertex -96.4532465832173 -67.582149368786 50.5244277630501
vertex -96.4532498435307 -73.4884220615832 3.77978759055209e-006
vertex -96.4532463502559 -73.4884248097517 50.5244274417909
endloop
endfacet
facet normal -0.999999999999997 -3.94430391271197e-008 6.91403201516809e-008
outer loop
vertex -96.4532498435307 -73.4884220615832 3.77978759055209e-006
vertex -96.4532465832173 -67.582149368786 50.5244277630501
vertex -96.4532500764922 -67.5821466206177 4.10104686479062e-006
endloop
endfacet
facet normal 3.94430353712124e-008 -0.999999999999998 -5.43928729479347e-008
outer loop
vertex -90.7063165107118 -73.4884218349068 3.92757574537717e-006
vertex -96.4532463502559 -73.4884248097517 50.5244274417909
vertex -96.4532498435307 -73.4884220615832 3.77978759055209e-006
endloop
endfacet
facet normal 3.94430353712124e-008 -0.999999999999998 -5.43928729479347e-008
outer loop
vertex -96.4532463502559 -73.4884248097517 50.5244274417909
vertex -90.7063165107118 -73.4884218349068 3.92757574537717e-006
vertex -90.7063130174369 -73.4884245830751 50.524427589579
endloop
endfacet
facet normal 3.94430353712124e-008 -0.999999999999998 -5.43928729479347e-008
outer loop
vertex -83.5360084839473 -67.5821488592911 50.5244280952299
vertex -90.7063167436732 -67.5821463939412 4.2488350196157e-006
vertex -83.5360110187101 -67.5821461111226 4.43322660023115e-006
endloop
endfacet
facet normal 3.94430353712124e-008 -0.999999999999998 -5.43928729479347e-008
outer loop
vertex -90.7063167436732 -67.5821463939412 4.2488350196157e-006
vertex -83.5360084839473 -67.5821488592911 50.5244280952299
vertex -90.7063132503983 -67.5821491421096 50.5244279108383
endloop
endfacet
facet normal 3.94430366559548e-008 -0.999999999999998 -5.43928728045192e-008
outer loop
vertex -96.4532465832173 -67.582149368786 50.5244277630501
vertex -103.63746860591 -67.582146903985 3.9162975178475e-006
vertex -96.4532500764922 -67.5821466206177 4.10104686479062e-006
endloop
endfacet
facet normal 3.94430366559548e-008 -0.999999999999998 -5.43928728045192e-008
outer loop
vertex -103.63746860591 -67.582146903985 3.9162975178475e-006
vertex -96.4532465832173 -67.582149368786 50.5244277630501
vertex -103.637466071147 -67.5821496521535 50.5244275783008
endloop
endfacet
facet normal -3.94430353712124e-008 0.999999999999998 5.43928729479347e-008
outer loop
vertex -70.6833560763956 -45.2255191646601 60.5751546013412
vertex -65.6579939558939 -45.225515671588 2.27497029209323e-006
vertex -70.6833583526938 -45.2255158698036 2.14573801303741e-006
endloop
endfacet
facet normal -3.94430353712124e-008 0.999999999999998 5.43928729479347e-008
outer loop
vertex -65.6579939558939 -45.225515671588 2.27497029209323e-006
vertex -70.6833560763956 -45.2255191646601 60.5751546013412
vertex -65.6579916795957 -45.2255189664445 60.5751547305735
endloop
endfacet
facet normal -3.94430353712124e-008 0.999999999999998 5.43928729479347e-008
outer loop
vertex -90.7848117465714 -45.2255199575227 60.575157918461
vertex -85.7594515430939 -45.2255164644507 5.59208995659644e-006
vertex -90.784815939894 -45.2255166626663 5.46285768318056e-006
endloop
endfacet
facet normal -3.94430353712124e-008 0.999999999999998 5.43928729479347e-008
outer loop
vertex -85.7594515430939 -45.2255164644507 5.59208995659644e-006
vertex -90.7848117465714 -45.2255199575227 60.575157918461
vertex -85.7594492667957 -45.225519759307 60.5751542136444
endloop
endfacet
facet normal -3.94430353712124e-008 0.999999999999998 5.43928729479347e-008
outer loop
vertex -80.7340848699957 -45.2255195610913 60.5751543428767
vertex -75.7087227494939 -45.2255160680192 2.01650573962153e-006
vertex -80.7340871462939 -45.2255162662349 1.88727345069584e-006
endloop
endfacet
facet normal -3.94430353712124e-008 0.999999999999998 5.43928729479347e-008
outer loop
vertex -75.7087227494939 -45.2255160680192 2.01650573962153e-006
vertex -80.7340848699957 -45.2255195610913 60.5751543428767
vertex -75.7087204731957 -45.2255193628758 60.575154472109
endloop
endfacet
facet normal -0.999999999999994 -4.98148928553019e-008 9.96009633340013e-008
outer loop
vertex -130.7744339971 -91.7039058404629 20.1014633276403
vertex -130.774439147468 -45.2255182399786 8.26853326366672e-006
vertex -130.774437314219 -91.7039047470871 5.74044030839937e-006
endloop
endfacet
facet normal -0.999999999999994 -4.98148928553019e-008 9.96009633340013e-008
outer loop
vertex -130.774439147468 -45.2255182399786 8.26853326366672e-006
vertex -130.7744339971 -91.7039058404629 20.1014633276403
vertex -130.77443532618 -58.0077164840603 20.1014651604729
endloop
endfacet
facet normal -0.999999999999994 -4.98148928553019e-008 9.96009633340013e-008
outer loop
vertex -130.774439147468 -45.2255182399786 8.26853326366672e-006
vertex -130.77443532618 -58.0077164840603 20.1014651604729
vertex -130.774432532952 -58.0077186855407 60.5751600288762
endloop
endfacet
facet normal -0.999999999999994 -4.98148928553019e-008 9.96009633340013e-008
outer loop
vertex -130.774439147468 -45.2255182399786 8.26853326366672e-006
vertex -130.774432532952 -58.0077186855407 60.5751600288762
vertex -130.774433037121 -45.225521534835 60.5751607241366
endloop
endfacet
facet normal 3.94430353712124e-008 -0.999999999999998 -5.43928729479347e-008
outer loop
vertex -62.850504092643 -58.0077138049341 20.1014611561316
vertex -75.9164510073938 -58.0077132269185 1.31590336015508e-006
vertex -62.8505035757139 -58.007712711558 1.65190726483244e-006
endloop
endfacet
facet normal 3.94430353712124e-008 -0.999999999999998 -5.43928729479347e-008
outer loop
vertex -75.9164510073938 -58.0077132269185 1.31590336015508e-006
vertex -62.850504092643 -58.0077138049341 20.1014611561316
vertex -75.9164492357768 -58.0077151476908 35.3129438575293
endloop
endfacet
facet normal 3.94430353712124e-008 -0.999999999999998 -5.43928729479347e-008
outer loop
vertex -75.9164492357768 -58.0077151476908 35.3129438575293
vertex -62.850504092643 -58.0077138049341 20.1014611561316
vertex -55.8149939371231 -58.0077135274322 20.1014613370568
endloop
endfacet
facet normal 3.94430353712124e-008 -0.999999999999998 -5.43928729479347e-008
outer loop
vertex -75.9164492357768 -58.0077151476908 35.3129438575293
vertex -55.8149939371231 -58.0077135274322 20.1014613370568
vertex -55.8149911438957 -58.0077157289125 60.5751542884357
endloop
endfacet
facet normal 3.94430353712124e-008 -0.999999999999998 -5.43928729479347e-008
outer loop
vertex -75.9164492357768 -58.0077151476908 35.3129438575293
vertex -55.8149911438957 -58.0077157289125 60.5751542884357
vertex -110.672977222864 -58.007716518594 35.3129456012315
endloop
endfacet
facet normal 3.94430353712124e-008 -0.999999999999998 -5.43928729479347e-008
outer loop
vertex -110.672979139075 -58.0077145978216 4.25615322743322e-006
vertex -123.73892517066 -58.0077162065584 20.1014653413981
vertex -123.738928487779 -58.0077151131824 3.92014925930662e-006
endloop
endfacet
facet normal 3.94430353712124e-008 -0.999999999999998 -5.43928729479347e-008
outer loop
vertex -123.73892517066 -58.0077162065584 20.1014653413981
vertex -110.672979139075 -58.0077145978216 4.25615322743322e-006
vertex -110.672977222864 -58.007716518594 35.3129456012315
endloop
endfacet
facet normal 3.94430353712124e-008 -0.999999999999998 -5.43928729479347e-008
outer loop
vertex -123.73892517066 -58.0077162065584 20.1014653413981
vertex -110.672977222864 -58.007716518594 35.3129456012315
vertex -130.77443532618 -58.0077164840603 20.1014651604729
endloop
endfacet
facet normal 3.94430353712124e-008 -0.999999999999998 -5.43928729479347e-008
outer loop
vertex -130.77443532618 -58.0077164840603 20.1014651604729
vertex -110.672977222864 -58.007716518594 35.3129456012315
vertex -130.774432532952 -58.0077186855407 60.5751600288762
endloop
endfacet
facet normal 3.94430353712124e-008 -0.999999999999998 -5.43928729479347e-008
outer loop
vertex -130.774432532952 -58.0077186855407 60.5751600288762
vertex -110.672977222864 -58.007716518594 35.3129456012315
vertex -55.8149911438957 -58.0077157289125 60.5751542884357
endloop
endfacet
facet normal 0.999999999999999 2.92090442893576e-008 -3.88323884897162e-008
outer loop
vertex -55.8149920911137 -91.7039017904587 -9.02389274415327e-014
vertex -55.8149939371231 -58.0077135274322 20.1014613370568
vertex -55.8149926080429 -91.7039028838349 20.1014595042242
endloop
endfacet
facet normal 0.999999999999999 2.92090442893576e-008 -3.88323884897162e-008
outer loop
vertex -55.8149939371231 -58.0077135274322 20.1014613370568
vertex -55.8149920911137 -91.7039017904587 -9.02389274415327e-014
vertex -55.8149939243626 -45.2255152833502 2.52809287912825e-006
endloop
endfacet
facet normal 0.999999999999999 2.92090442893576e-008 -3.88323884897162e-008
outer loop
vertex -55.8149939371231 -58.0077135274322 20.1014613370568
vertex -55.8149939243626 -45.2255152833502 2.52809287912825e-006
vertex -55.8149911438957 -58.0077157289125 60.5751542884357
endloop
endfacet
facet normal 0.999999999999999 2.92090442893576e-008 -3.88323884897162e-008
outer loop
vertex -55.8149911438957 -58.0077157289125 60.5751542884357
vertex -55.8149939243626 -45.2255152833502 2.52809287912825e-006
vertex -55.8149916480643 -45.2255185782067 60.5751549836961
endloop
endfacet
facet normal 7.10335413533479e-008 -6.12632006073454e-008 0.999999999999996
outer loop
vertex -130.7744339971 -91.7039058404629 20.1014633276403
vertex -123.738924119081 -84.6683954074411 20.1014638912471
vertex -130.77443532618 -58.0077164840603 20.1014651604729
endloop
endfacet
facet normal 7.10335413533479e-008 -6.12632006073454e-008 0.999999999999996
outer loop
vertex -123.738924119081 -84.6683954074411 20.1014638912471
vertex -130.7744339971 -91.7039058404629 20.1014633276403
vertex -110.672976409899 -91.7039050476004 20.101461927545
endloop
endfacet
facet normal 7.10335413533479e-008 -6.12632006073454e-008 0.999999999999996
outer loop
vertex -130.77443532618 -58.0077164840603 20.1014651604729
vertex -123.738924119081 -84.6683954074411 20.1014638912471
vertex -123.73892517066 -58.0077162065584 20.1014653413981
endloop
endfacet
facet normal 7.10335413533479e-008 -6.12632006073454e-008 0.999999999999996
outer loop
vertex -123.738924119081 -84.6683954074411 20.1014638912471
vertex -110.672976409899 -91.7039050476004 20.101461927545
vertex -110.672976687401 -84.6683948920804 20.1014623102267
endloop
endfacet
facet normal -3.94430353712124e-008 0.999999999999998 5.43928729479347e-008
outer loop
vertex -130.774439147468 -45.2255182399786 8.26853326366672e-006
vertex -125.962364441196 -45.2255213450323 60.5751608478837
vertex -125.962366717494 -45.2255180501757 4.55823175657954e-006
endloop
endfacet
facet normal -3.94430353712124e-008 0.999999999999998 5.43928729479347e-008
outer loop
vertex -125.962364441196 -45.2255213450323 60.5751608478837
vertex -130.774439147468 -45.2255182399786 8.26853326366672e-006
vertex -130.774433037121 -45.225521534835 60.5751607241366
endloop
endfacet
facet normal -3.94430353712124e-008 0.999999999999998 5.43928729479347e-008
outer loop
vertex -60.6326272827956 -45.2255187682289 60.5751548598058
vertex -55.8149939243626 -45.2255152833502 2.52809287912825e-006
vertex -60.632629559094 -45.2255154733724 2.40420255845919e-006
endloop
endfacet
facet normal -3.94430353712124e-008 0.999999999999998 5.43928729479347e-008
outer loop
vertex -55.8149939243626 -45.2255152833502 2.52809287912825e-006
vertex -60.6326272827956 -45.2255187682289 60.5751548598058
vertex -55.8149916480643 -45.2255185782067 60.5751549836961
endloop
endfacet
facet normal -0.999999999999998 -3.94430390063384e-008 5.01690559399242e-008
outer loop
vertex -83.5360084839473 -67.5821488592911 50.5244280952299
vertex -83.5360102258473 -87.68361136642 3.33985016366389e-006
vertex -83.5360076910845 -87.6836141145885 50.5244270018534
endloop
endfacet
facet normal -0.999999999999998 -3.94430390063384e-008 5.01690559399242e-008
outer loop
vertex -83.5360102258473 -87.68361136642 3.33985016366389e-006
vertex -83.5360084839473 -67.5821488592911 50.5244280952299
vertex -83.5360110187101 -67.5821461111226 4.43322660023115e-006
endloop
endfacet
facet normal -3.94430353712124e-008 0.999999999999998 5.43928729479347e-008
outer loop
vertex -123.738924119081 -84.6683954074411 20.1014638912471
vertex -110.672978087497 -84.6683937987043 2.8060023046228e-006
vertex -123.738927436201 -84.668394314065 2.46999832662631e-006
endloop
endfacet
facet normal -3.94430353712124e-008 0.999999999999998 5.43928729479347e-008
outer loop
vertex -110.672978087497 -84.6683937987043 2.8060023046228e-006
vertex -123.738924119081 -84.6683954074411 20.1014638912471
vertex -110.672976687401 -84.6683948920804 20.1014623102267
endloop
endfacet
facet normal -3.94430353712124e-008 0.999999999999998 5.43928729479347e-008
outer loop
vertex -103.637465278284 -87.6836149074508 50.5244264849243
vertex -83.5360102258473 -87.68361136642 3.33985016366389e-006
vertex -103.637467813047 -87.6836121592825 2.82292104885062e-006
endloop
endfacet
facet normal -3.94430353712124e-008 0.999999999999998 5.43928729479347e-008
outer loop
vertex -83.5360102258473 -87.68361136642 3.33985016366389e-006
vertex -103.637465278284 -87.6836149074508 50.5244264849243
vertex -83.5360076910845 -87.6836141145885 50.5244270018534
endloop
endfacet
facet normal -0.999999999999997 -5.84680551777398e-008 5.43808943214741e-008
outer loop
vertex -110.672974160369 -95.6678624308622 50.524424225757
vertex -110.672977001683 -91.7039039542245 4.20105812241056e-006
vertex -110.672976845332 -95.6678596826947 3.98544719764082e-006
endloop
endfacet
facet normal -0.999999999999997 -5.84680551777398e-008 5.43808943214741e-008
outer loop
vertex -110.672977001683 -91.7039039542245 4.20105812241056e-006
vertex -110.672974160369 -95.6678624308622 50.524424225757
vertex -110.672976409899 -91.7039050476004 20.101461927545
endloop
endfacet
facet normal -0.999999999999997 -5.84680551777398e-008 5.43808943214741e-008
outer loop
vertex -110.672976409899 -91.7039050476004 20.101461927545
vertex -110.672974160369 -95.6678624308622 50.524424225757
vertex -110.672976235638 -63.6888387276918 50.5244257967986
endloop
endfacet
facet normal -0.999999999999997 -5.84680551777398e-008 5.43808943214741e-008
outer loop
vertex -110.672976409899 -91.7039050476004 20.101461927545
vertex -110.672976235638 -63.6888387276918 50.5244257967986
vertex -110.672976687401 -84.6683948920804 20.1014623102267
endloop
endfacet
facet normal -0.999999999999997 -5.84680551777398e-008 5.43808943214741e-008
outer loop
vertex -110.672976687401 -84.6683948920804 20.1014623102267
vertex -110.672976235638 -63.6888387276918 50.5244257967986
vertex -110.672978087497 -84.6683937987043 2.8060023046228e-006
endloop
endfacet
facet normal -0.999999999999997 -5.84680551777398e-008 5.43808943214741e-008
outer loop
vertex -110.672978087497 -84.6683937987043 2.8060023046228e-006
vertex -110.672976235638 -63.6888387276918 50.5244257967986
vertex -110.672979139075 -58.0077145978216 4.25615322743322e-006
endloop
endfacet
facet normal -0.999999999999997 -5.84680551777398e-008 5.43808943214741e-008
outer loop
vertex -110.672979139075 -58.0077145978216 4.25615322743322e-006
vertex -110.672976235638 -63.6888387276918 50.5244257967986
vertex -110.672977222864 -58.007716518594 35.3129456012315
endloop
endfacet
facet normal 0.999999999999998 5.1107210829906e-008 -4.34408334199044e-008
outer loop
vertex -75.9164510073938 -58.0077132269185 1.31590336015508e-006
vertex -75.9164485557205 -84.6683935211773 20.1014612870012
vertex -75.9164499558157 -84.6683924278012 -1.34247578165159e-007
endloop
endfacet
facet normal 0.999999999999998 5.1107210829906e-008 -4.34408334199044e-008
outer loop
vertex -75.9164485557205 -84.6683935211773 20.1014612870012
vertex -75.9164510073938 -58.0077132269185 1.31590336015508e-006
vertex -75.9164482485504 -63.6888373567889 50.5244240530965
endloop
endfacet
facet normal 0.999999999999998 5.1107210829906e-008 -4.34408334199044e-008
outer loop
vertex -75.9164482485504 -63.6888373567889 50.5244240530965
vertex -75.9164510073938 -58.0077132269185 1.31590336015508e-006
vertex -75.9164492357768 -58.0077151476908 35.3129438575293
endloop
endfacet
facet normal 0.999999999999998 5.1107210829906e-008 -4.34408334199044e-008
outer loop
vertex -75.9164488700017 -91.7039025833215 3.17783264408567e-006
vertex -75.9164469872007 -95.6678610599596 50.5244229294631
vertex -75.9164487136512 -95.6678583117917 2.96222173200578e-006
endloop
endfacet
facet normal 0.999999999999998 5.1107210829906e-008 -4.34408334199044e-008
outer loop
vertex -75.9164469872007 -95.6678610599596 50.5244229294631
vertex -75.9164488700017 -91.7039025833215 3.17783264408567e-006
vertex -75.9164482782186 -91.7039036766974 20.1014609043196
endloop
endfacet
facet normal 0.999999999999998 5.1107210829906e-008 -4.34408334199044e-008
outer loop
vertex -75.9164469872007 -95.6678610599596 50.5244229294631
vertex -75.9164482782186 -91.7039036766974 20.1014609043196
vertex -75.9164482485504 -63.6888373567889 50.5244240530965
endloop
endfacet
facet normal 0.999999999999998 5.1107210829906e-008 -4.34408334199044e-008
outer loop
vertex -75.9164482485504 -63.6888373567889 50.5244240530965
vertex -75.9164482782186 -91.7039036766974 20.1014609043196
vertex -75.9164485557205 -84.6683935211773 20.1014612870012
endloop
endfacet
facet normal 3.94430324999322e-008 -0.999999999999998 -5.43928700323711e-008
outer loop
vertex -110.672976409899 -91.7039050476004 20.101461927545
vertex -130.774437314219 -91.7039047470871 5.74044030839937e-006
vertex -110.672977001683 -91.7039039542245 4.20105812241056e-006
endloop
endfacet
facet normal 3.94430324999322e-008 -0.999999999999998 -5.43928700323711e-008
outer loop
vertex -130.774437314219 -91.7039047470871 5.74044030839937e-006
vertex -110.672976409899 -91.7039050476004 20.101461927545
vertex -130.7744339971 -91.7039058404629 20.1014633276403
endloop
endfacet
facet normal -3.94430353712124e-008 0.999999999999998 5.43928729479347e-008
outer loop
vertex -100.835540540171 -45.2255203539539 60.5751576599964
vertex -95.810180336694 -45.2255168608819 5.33362540835469e-006
vertex -100.835544733494 -45.2255170590976 5.20439313070886e-006
endloop
endfacet
facet normal -3.94430353712124e-008 0.999999999999998 5.43928729479347e-008
outer loop
vertex -95.810180336694 -45.2255168608819 5.33362540835469e-006
vertex -100.835540540171 -45.2255203539539 60.5751576599964
vertex -95.8101761433713 -45.2255201557383 60.5751577892287
endloop
endfacet
facet normal -3.94430353712124e-008 0.999999999999998 5.43928729479347e-008
outer loop
vertex -75.9164485557205 -84.6683935211773 20.1014612870012
vertex -62.8505025241358 -84.6683919124407 2.01756334972103e-007
vertex -75.9164499558157 -84.6683924278012 -1.34247578165159e-007
endloop
endfacet
facet normal -3.94430353712124e-008 0.999999999999998 5.43928729479347e-008
outer loop
vertex -62.8505025241358 -84.6683919124407 2.01756334972103e-007
vertex -75.9164485557205 -84.6683935211773 20.1014612870012
vertex -62.8505030410648 -84.6683930058168 20.1014597059807
endloop
endfacet
facet normal 0.999999999999998 3.94430390063384e-008 -5.01690559399242e-008
outer loop
vertex -103.63746860591 -67.582146903985 3.9162975178475e-006
vertex -103.637465278284 -87.6836149074508 50.5244264849243
vertex -103.637467813047 -87.6836121592825 2.82292104885062e-006
endloop
endfacet
facet normal 0.999999999999998 3.94430390063384e-008 -5.01690559399242e-008
outer loop
vertex -103.637465278284 -87.6836149074508 50.5244264849243
vertex -103.63746860591 -67.582146903985 3.9162975178475e-006
vertex -103.637466071147 -67.5821496521535 50.5244275783008
endloop
endfacet
facet normal -2.57159983736263e-008 -5.43928722612084e-008 0.999999999999998
outer loop
vertex -90.7063130174369 -73.4884245830751 50.524427589579
vertex -96.4532465832173 -67.582149368786 50.5244277630501
vertex -96.4532463502559 -73.4884248097517 50.5244274417909
endloop
endfacet
facet normal -2.57159983736263e-008 -5.43928722612084e-008 0.999999999999998
outer loop
vertex -96.4532465832173 -67.582149368786 50.5244277630501
vertex -90.7063130174369 -73.4884245830751 50.524427589579
vertex -90.7063132503983 -67.5821491421096 50.5244279108383
endloop
endfacet
facet normal -0.999999999999999 -3.94430348787322e-008 -2.57160009643828e-008
outer loop
vertex -62.8505030410648 -84.6683930058168 20.1014597059807
vertex -62.8505035757139 -58.007712711558 1.65190726483244e-006
vertex -62.8505025241358 -84.6683919124407 2.01756334972103e-007
endloop
endfacet
facet normal -0.999999999999999 -3.94430348787322e-008 -2.57160009643828e-008
outer loop
vertex -62.8505035757139 -58.007712711558 1.65190726483244e-006
vertex -62.8505030410648 -84.6683930058168 20.1014597059807
vertex -62.850504092643 -58.0077138049341 20.1014611561316
endloop
endfacet
facet normal 7.1033548224892e-008 -4.75225387484498e-008 0.999999999999996
outer loop
vertex -75.9164482782186 -91.7039036766974 20.1014609043196
vertex -62.8505030410648 -84.6683930058168 20.1014597059807
vertex -75.9164485557205 -84.6683935211773 20.1014612870012
endloop
endfacet
facet normal 7.1033548224892e-008 -4.75225387484498e-008 0.999999999999996
outer loop
vertex -62.8505030410648 -84.6683930058168 20.1014597059807
vertex -75.9164482782186 -91.7039036766974 20.1014609043196
vertex -55.8149926080429 -91.7039028838349 20.1014595042242
endloop
endfacet
facet normal 7.1033548224892e-008 -4.75225387484498e-008 0.999999999999996
outer loop
vertex -62.8505030410648 -84.6683930058168 20.1014597059807
vertex -55.8149926080429 -91.7039028838349 20.1014595042242
vertex -55.8149939371231 -58.0077135274322 20.1014613370568
endloop
endfacet
facet normal 7.1033548224892e-008 -4.75225387484498e-008 0.999999999999996
outer loop
vertex -55.8149939371231 -58.0077135274322 20.1014613370568
vertex -62.850504092643 -58.0077138049341 20.1014611561316
vertex -62.8505030410648 -84.6683930058168 20.1014597059807
endloop
endfacet
facet normal 8.45956171396345e-008 -5.43928696180378e-008 0.999999999999995
outer loop
vertex -110.672974160369 -95.6678624308622 50.524424225757
vertex -103.637465278284 -87.6836149074508 50.5244264849243
vertex -103.637466071147 -67.5821496521535 50.5244275783008
endloop
endfacet
facet normal 8.45956171396345e-008 -5.43928696180378e-008 0.999999999999995
outer loop
vertex -103.637465278284 -87.6836149074508 50.5244264849243
vertex -110.672974160369 -95.6678624308622 50.524424225757
vertex -75.9164469872007 -95.6678610599596 50.5244229294631
endloop
endfacet
facet normal 8.45956171396345e-008 -5.43928696180378e-008 0.999999999999995
outer loop
vertex -103.637465278284 -87.6836149074508 50.5244264849243
vertex -75.9164469872007 -95.6678610599596 50.5244229294631
vertex -83.5360076910845 -87.6836141145885 50.5244270018534
endloop
endfacet
facet normal 8.45956171396345e-008 -5.43928696180378e-008 0.999999999999995
outer loop
vertex -83.5360076910845 -87.6836141145885 50.5244270018534
vertex -75.9164469872007 -95.6678610599596 50.5244229294631
vertex -83.5360084839473 -67.5821488592911 50.5244280952299
endloop
endfacet
facet normal 8.45956171396345e-008 -5.43928696180378e-008 0.999999999999995
outer loop
vertex -110.672976235638 -63.6888387276918 50.5244257967986
vertex -103.637466071147 -67.5821496521535 50.5244275783008
vertex -75.9164482485504 -63.6888373567889 50.5244240530965
endloop
endfacet
facet normal 8.45956171396345e-008 -5.43928696180378e-008 0.999999999999995
outer loop
vertex -103.637466071147 -67.5821496521535 50.5244275783008
vertex -110.672976235638 -63.6888387276918 50.5244257967986
vertex -110.672974160369 -95.6678624308622 50.524424225757
endloop
endfacet
facet normal 8.45956171396345e-008 -5.43928696180378e-008 0.999999999999995
outer loop
vertex -75.9164482485504 -63.6888373567889 50.5244240530965
vertex -103.637466071147 -67.5821496521535 50.5244275783008
vertex -96.4532465832173 -67.582149368786 50.5244277630501
endloop
endfacet
facet normal 8.45956171396345e-008 -5.43928696180378e-008 0.999999999999995
outer loop
vertex -75.9164482485504 -63.6888373567889 50.5244240530965
vertex -96.4532465832173 -67.582149368786 50.5244277630501
vertex -90.7063132503983 -67.5821491421096 50.5244279108383
endloop
endfacet
facet normal 8.45956171396345e-008 -5.43928696180378e-008 0.999999999999995
outer loop
vertex -75.9164482485504 -63.6888373567889 50.5244240530965
vertex -90.7063132503983 -67.5821491421096 50.5244279108383
vertex -83.5360084839473 -67.5821488592911 50.5244280952299
endloop
endfacet
facet normal 8.45956171396345e-008 -5.43928696180378e-008 0.999999999999995
outer loop
vertex -75.9164482485504 -63.6888373567889 50.5244240530965
vertex -83.5360084839473 -67.5821488592911 50.5244280952299
vertex -75.9164469872007 -95.6678610599596 50.5244229294631
endloop
endfacet
facet normal -3.94430353712124e-008 0.999999999999998 5.43928729479347e-008
outer loop
vertex -85.7594514638077 -47.2356622231707 5.48275234649731e-006
vertex -80.7340847907095 -47.2356653198113 60.5751542335391
vertex -80.7340870670076 -47.2356620249549 1.77793586033648e-006
endloop
endfacet
facet normal -3.94430353712124e-008 0.999999999999998 5.43928729479347e-008
outer loop
vertex -80.7340847907095 -47.2356653198113 60.5751542335391
vertex -85.7594514638077 -47.2356622231707 5.48275234649731e-006
vertex -85.7594491875094 -47.2356655180269 60.5751541043068
endloop
endfacet
facet normal 7.65717611006499e-008 3.36632765313953e-008 0.999999999999996
outer loop
vertex -130.774432532952 -58.0077186855407 60.5751600288762
vertex -125.962364441196 -45.2255213450323 60.5751608478837
vertex -130.774433037121 -45.225521534835 60.5751607241366
endloop
endfacet
facet normal 7.65717611006499e-008 3.36632765313953e-008 0.999999999999996
outer loop
vertex -125.962364441196 -45.2255213450323 60.5751608478837
vertex -130.774432532952 -58.0077186855407 60.5751600288762
vertex -125.96236436191 -47.2356671037523 60.5751607385461
endloop
endfacet
facet normal 7.65717611006499e-008 3.36632765313953e-008 0.999999999999996
outer loop
vertex -125.96236436191 -47.2356671037523 60.5751607385461
vertex -130.774432532952 -58.0077186855407 60.5751600288762
vertex -55.8149911438957 -58.0077157289125 60.5751542884357
endloop
endfacet
facet normal 7.65717611006499e-008 3.36632765313953e-008 0.999999999999996
outer loop
vertex -125.96236436191 -47.2356671037523 60.5751607385461
vertex -55.8149911438957 -58.0077157289125 60.5751542884357
vertex -120.936999965109 -47.2356669055364 60.5751570337297
endloop
endfacet
facet normal 7.65717611006499e-008 3.36632765313953e-008 0.999999999999996
outer loop
vertex -120.936999965109 -47.2356669055364 60.5751570337297
vertex -55.8149911438957 -58.0077157289125 60.5751542884357
vertex -115.91163556831 -47.2356667073209 60.5751571629619
endloop
endfacet
facet normal 7.65717611006499e-008 3.36632765313953e-008 0.999999999999996
outer loop
vertex -115.91163556831 -47.2356667073209 60.5751571629619
vertex -55.8149911438957 -58.0077157289125 60.5751542884357
vertex -110.886269254485 -47.2356665091052 60.5751572921942
endloop
endfacet
facet normal 7.65717611006499e-008 3.36632765313953e-008 0.999999999999996
outer loop
vertex -110.886269254485 -47.2356665091052 60.5751572921942
vertex -55.8149911438957 -58.0077157289125 60.5751542884357
vertex -105.860904857685 -47.2356663108895 60.5751574214265
endloop
endfacet
facet normal 7.65717611006499e-008 3.36632765313953e-008 0.999999999999996
outer loop
vertex -110.886269254485 -47.2356665091052 60.5751572921942
vertex -105.860904857685 -47.2356663108895 60.5751574214265
vertex -110.886269333771 -45.2255207503852 60.5751574015319
endloop
endfacet
facet normal 7.65717611006499e-008 3.36632765313953e-008 0.999999999999996
outer loop
vertex -105.860904857685 -47.2356663108895 60.5751574214265
vertex -55.8149911438957 -58.0077157289125 60.5751542884357
vertex -100.835540460885 -47.2356661126739 60.5751575506588
endloop
endfacet
facet normal 7.65717611006499e-008 3.36632765313953e-008 0.999999999999996
outer loop
vertex -100.835540460885 -47.2356661126739 60.5751575506588
vertex -55.8149911438957 -58.0077157289125 60.5751542884357
vertex -95.8101760640851 -47.2356659144583 60.575157679891
endloop
endfacet
facet normal 7.65717611006499e-008 3.36632765313953e-008 0.999999999999996
outer loop
vertex -100.835540460885 -47.2356661126739 60.5751575506588
vertex -95.8101760640851 -47.2356659144583 60.575157679891
vertex -100.835540540171 -45.2255203539539 60.5751576599964
endloop
endfacet
facet normal 7.65717611006499e-008 3.36632765313953e-008 0.999999999999996
outer loop
vertex -95.8101760640851 -47.2356659144583 60.575157679891
vertex -55.8149911438957 -58.0077157289125 60.5751542884357
vertex -90.7848116672851 -47.2356657162428 60.5751578091233
endloop
endfacet
facet normal 7.65717611006499e-008 3.36632765313953e-008 0.999999999999996
outer loop
vertex -90.7848116672851 -47.2356657162428 60.5751578091233
vertex -55.8149911438957 -58.0077157289125 60.5751542884357
vertex -85.7594491875094 -47.2356655180269 60.5751541043068
endloop
endfacet
facet normal 7.65717611006499e-008 3.36632765313953e-008 0.999999999999996
outer loop
vertex -85.7594491875094 -47.2356655180269 60.5751541043068
vertex -55.8149911438957 -58.0077157289125 60.5751542884357
vertex -80.7340847907095 -47.2356653198113 60.5751542335391
endloop
endfacet
facet normal 7.65717611006499e-008 3.36632765313953e-008 0.999999999999996
outer loop
vertex -80.7340847907095 -47.2356653198113 60.5751542335391
vertex -55.8149911438957 -58.0077157289125 60.5751542884357
vertex -80.7340848699957 -45.2255195610913 60.5751543428767
endloop
endfacet
facet normal 7.65717611006499e-008 3.36632765313953e-008 0.999999999999996
outer loop
vertex -80.7340848699957 -45.2255195610913 60.5751543428767
vertex -55.8149911438957 -58.0077157289125 60.5751542884357
vertex -75.7087203939094 -47.2356651215957 60.5751543627714
endloop
endfacet
facet normal 7.65717611006499e-008 3.36632765313953e-008 0.999999999999996
outer loop
vertex -80.7340848699957 -45.2255195610913 60.5751543428767
vertex -75.7087203939094 -47.2356651215957 60.5751543627714
vertex -75.7087204731957 -45.2255193628758 60.575154472109
endloop
endfacet
facet normal 7.65717611006499e-008 3.36632765313953e-008 0.999999999999996
outer loop
vertex -75.7087203939094 -47.2356651215957 60.5751543627714
vertex -55.8149911438957 -58.0077157289125 60.5751542884357
vertex -70.6833559971094 -47.2356649233801 60.5751544920036
endloop
endfacet
facet normal 7.65717611006499e-008 3.36632765313953e-008 0.999999999999996
outer loop
vertex -70.6833559971094 -47.2356649233801 60.5751544920036
vertex -55.8149911438957 -58.0077157289125 60.5751542884357
vertex -70.6833560763956 -45.2255191646601 60.5751546013412
endloop
endfacet
facet normal 7.65717611006499e-008 3.36632765313953e-008 0.999999999999996
outer loop
vertex -70.6833560763956 -45.2255191646601 60.5751546013412
vertex -55.8149911438957 -58.0077157289125 60.5751542884357
vertex -65.6579916003094 -47.2356647251645 60.5751546212359
endloop
endfacet
facet normal 7.65717611006499e-008 3.36632765313953e-008 0.999999999999996
outer loop
vertex -65.6579916003094 -47.2356647251645 60.5751546212359
vertex -55.8149911438957 -58.0077157289125 60.5751542884357
vertex -60.6326272035094 -47.2356645269489 60.5751547504681
endloop
endfacet
facet normal 7.65717611006499e-008 3.36632765313953e-008 0.999999999999996
outer loop
vertex -60.6326272035094 -47.2356645269489 60.5751547504681
vertex -55.8149911438957 -58.0077157289125 60.5751542884357
vertex -60.6326272827956 -45.2255187682289 60.5751548598058
endloop
endfacet
facet normal 7.65717611006499e-008 3.36632765313953e-008 0.999999999999996
outer loop
vertex -60.6326272827956 -45.2255187682289 60.5751548598058
vertex -55.8149911438957 -58.0077157289125 60.5751542884357
vertex -55.8149916480643 -45.2255185782067 60.5751549836961
endloop
endfacet
facet normal 7.65717611006499e-008 3.36632765313953e-008 0.999999999999996
outer loop
vertex -65.6579916795957 -45.2255189664445 60.5751547305735
vertex -70.6833560763956 -45.2255191646601 60.5751546013412
vertex -65.6579916003094 -47.2356647251645 60.5751546212359
endloop
endfacet
facet normal 7.65717611006499e-008 3.36632765313953e-008 0.999999999999996
outer loop
vertex -90.7848116672851 -47.2356657162428 60.5751578091233
vertex -85.7594492667957 -45.225519759307 60.5751542136444
vertex -90.7848117465714 -45.2255199575227 60.575157918461
endloop
endfacet
facet normal 7.65717611006499e-008 3.36632765313953e-008 0.999999999999996
outer loop
vertex -85.7594492667957 -45.225519759307 60.5751542136444
vertex -90.7848116672851 -47.2356657162428 60.5751578091233
vertex -85.7594491875094 -47.2356655180269 60.5751541043068
endloop
endfacet
facet normal 7.65717611006499e-008 3.36632765313953e-008 0.999999999999996
outer loop
vertex -95.8101761433713 -45.2255201557383 60.5751577892287
vertex -100.835540540171 -45.2255203539539 60.5751576599964
vertex -95.8101760640851 -47.2356659144583 60.575157679891
endloop
endfacet
facet normal 7.65717611006499e-008 3.36632765313953e-008 0.999999999999996
outer loop
vertex -105.860904936971 -45.2255205521696 60.5751575307641
vertex -110.886269333771 -45.2255207503852 60.5751574015319
vertex -105.860904857685 -47.2356663108895 60.5751574214265
endloop
endfacet
facet normal 7.65717611006499e-008 3.36632765313953e-008 0.999999999999996
outer loop
vertex -120.936999965109 -47.2356669055364 60.5751570337297
vertex -115.911635647596 -45.2255209486008 60.5751572722995
vertex -120.937000044396 -45.2255211468165 60.5751571430673
endloop
endfacet
facet normal 7.65717611006499e-008 3.36632765313953e-008 0.999999999999996
outer loop
vertex -115.911635647596 -45.2255209486008 60.5751572722995
vertex -120.936999965109 -47.2356669055364 60.5751570337297
vertex -115.91163556831 -47.2356667073209 60.5751571629619
endloop
endfacet
facet normal -5.66338838755141e-008 1.56787451172469e-008 -0.999999999999998
outer loop
vertex -125.962366717494 -45.2255180501757 4.55823175657954e-006
vertex -125.962366638208 -47.2356638088956 4.44889415494032e-006
vertex -130.774439147468 -45.2255182399786 8.26853326366672e-006
endloop
endfacet
facet normal -5.66338838755141e-008 1.56787451172469e-008 -0.999999999999998
outer loop
vertex -115.911637923894 -45.2255176537444 4.81669632597104e-006
vertex -120.937002241408 -47.23566361068 4.57812643117617e-006
vertex -120.937002320694 -45.22551785196 4.68746404127529e-006
endloop
endfacet
facet normal -5.66338838755141e-008 1.56787451172469e-008 -0.999999999999998
outer loop
vertex -125.962366638208 -47.2356638088956 4.44889415494032e-006
vertex -123.738928487779 -58.0077151131824 3.92014925930662e-006
vertex -123.738927436201 -84.668394314065 2.46999832662631e-006
endloop
endfacet
facet normal -5.66338838755141e-008 1.56787451172469e-008 -0.999999999999998
outer loop
vertex -123.738928487779 -58.0077151131824 3.92014925930662e-006
vertex -125.962366638208 -47.2356638088956 4.44889415494032e-006
vertex -120.937002241408 -47.23566361068 4.57812643117617e-006
endloop
endfacet
facet normal -5.66338838755141e-008 1.56787451172469e-008 -0.999999999999998
outer loop
vertex -123.738928487779 -58.0077151131824 3.92014925930662e-006
vertex -120.937002241408 -47.23566361068 4.57812643117617e-006
vertex -110.672979139075 -58.0077145978216 4.25615322743322e-006
endloop
endfacet
facet normal -5.66338838755141e-008 1.56787451172469e-008 -0.999999999999998
outer loop
vertex -110.672979139075 -58.0077145978216 4.25615322743322e-006
vertex -120.937002241408 -47.23566361068 4.57812643117617e-006
vertex -115.911637844608 -47.2356634124644 4.70735870318206e-006
endloop
endfacet
facet normal -5.66338838755141e-008 1.56787451172469e-008 -0.999999999999998
outer loop
vertex -115.911637844608 -47.2356634124644 4.70735870318206e-006
vertex -120.937002241408 -47.23566361068 4.57812643117617e-006
vertex -115.911637923894 -45.2255176537444 4.81669632597104e-006
endloop
endfacet
facet normal -5.66338838755141e-008 1.56787451172469e-008 -0.999999999999998
outer loop
vertex -110.672979139075 -58.0077145978216 4.25615322743322e-006
vertex -115.911637844608 -47.2356634124644 4.70735870318206e-006
vertex -110.886273447808 -47.2356632142488 4.83659098364786e-006
endloop
endfacet
facet normal -5.66338838755141e-008 1.56787451172469e-008 -0.999999999999998
outer loop
vertex -110.672979139075 -58.0077145978216 4.25615322743322e-006
vertex -110.886273447808 -47.2356632142488 4.83659098364786e-006
vertex -110.886273527094 -45.2255174555288 4.94592857964715e-006
endloop
endfacet
facet normal -5.66338838755141e-008 1.56787451172469e-008 -0.999999999999998
outer loop
vertex -110.672979139075 -58.0077145978216 4.25615322743322e-006
vertex -110.886273527094 -45.2255174555288 4.94592857964715e-006
vertex -105.860909130294 -45.2255172573132 5.07516084883308e-006
endloop
endfacet
facet normal -5.66338838755141e-008 1.56787451172469e-008 -0.999999999999998
outer loop
vertex -110.672979139075 -58.0077145978216 4.25615322743322e-006
vertex -105.860909130294 -45.2255172573132 5.07516084883308e-006
vertex -110.672977001683 -91.7039039542245 4.20105812241056e-006
endloop
endfacet
facet normal -5.66338838755141e-008 1.56787451172469e-008 -0.999999999999998
outer loop
vertex -85.7594515430939 -45.2255164644507 5.59208995659644e-006
vertex -90.7848158606077 -47.2356624213863 5.35352006885148e-006
vertex -90.784815939894 -45.2255166626663 5.46285768318056e-006
endloop
endfacet
facet normal -5.66338838755141e-008 1.56787451172469e-008 -0.999999999999998
outer loop
vertex -90.7848158606077 -47.2356624213863 5.35352006885148e-006
vertex -85.7594515430939 -45.2255164644507 5.59208995659644e-006
vertex -90.7063167436732 -67.5821463939412 4.2488350196157e-006
endloop
endfacet
facet normal -5.66338838755141e-008 1.56787451172469e-008 -0.999999999999998
outer loop
vertex -90.7848158606077 -47.2356624213863 5.35352006885148e-006
vertex -90.7063167436732 -67.5821463939412 4.2488350196157e-006
vertex -90.7063165107118 -73.4884218349068 3.92757574537717e-006
endloop
endfacet
facet normal -5.66338838755141e-008 1.56787451172469e-008 -0.999999999999998
outer loop
vertex -90.7063167436732 -67.5821463939412 4.2488350196157e-006
vertex -85.7594515430939 -45.2255164644507 5.59208995659644e-006
vertex -85.7594514638077 -47.2356622231707 5.48275234649731e-006
endloop
endfacet
facet normal -5.66338838755141e-008 1.56787451172469e-008 -0.999999999999998
outer loop
vertex -90.7063167436732 -67.5821463939412 4.2488350196157e-006
vertex -85.7594514638077 -47.2356622231707 5.48275234649731e-006
vertex -83.5360110187101 -67.5821461111226 4.43322660023115e-006
endloop
endfacet
facet normal -5.66338838755141e-008 1.56787451172469e-008 -0.999999999999998
outer loop
vertex -83.5360110187101 -67.5821461111226 4.43322660023115e-006
vertex -85.7594514638077 -47.2356622231707 5.48275234649731e-006
vertex -80.7340870670076 -47.2356620249549 1.77793586033648e-006
endloop
endfacet
facet normal -5.66338838755141e-008 1.56787451172469e-008 -0.999999999999998
outer loop
vertex -83.5360110187101 -67.5821461111226 4.43322660023115e-006
vertex -80.7340870670076 -47.2356620249549 1.77793586033648e-006
vertex -83.5360102258473 -87.68361136642 3.33985016366389e-006
endloop
endfacet
facet normal -5.66338838755141e-008 1.56787451172469e-008 -0.999999999999998
outer loop
vertex -75.7087227494939 -45.2255160680192 2.01650573962153e-006
vertex -80.7340870670076 -47.2356620249549 1.77793586033648e-006
vertex -80.7340871462939 -45.2255162662349 1.88727345069584e-006
endloop
endfacet
facet normal -5.66338838755141e-008 1.56787451172469e-008 -0.999999999999998
outer loop
vertex -80.7340870670076 -47.2356620249549 1.77793586033648e-006
vertex -75.7087227494939 -45.2255160680192 2.01650573962153e-006
vertex -75.9164510073938 -58.0077132269185 1.31590336015508e-006
endloop
endfacet
facet normal -5.66338838755141e-008 1.56787451172469e-008 -0.999999999999998
outer loop
vertex -80.7340870670076 -47.2356620249549 1.77793586033648e-006
vertex -75.9164510073938 -58.0077132269185 1.31590336015508e-006
vertex -75.9164499558157 -84.6683924278012 -1.34247578165159e-007
endloop
endfacet
facet normal -5.66338838755141e-008 1.56787451172469e-008 -0.999999999999998
outer loop
vertex -75.9164510073938 -58.0077132269185 1.31590336015508e-006
vertex -75.7087227494939 -45.2255160680192 2.01650573962153e-006
vertex -75.7087226702076 -47.2356618267392 1.90716811542258e-006
endloop
endfacet
facet normal -5.66338838755141e-008 1.56787451172469e-008 -0.999999999999998
outer loop
vertex -75.9164510073938 -58.0077132269185 1.31590336015508e-006
vertex -75.7087226702076 -47.2356618267392 1.90716811542258e-006
vertex -62.8505035757139 -58.007712711558 1.65190726483244e-006
endloop
endfacet
facet normal -5.66338838755141e-008 1.56787451172469e-008 -0.999999999999998
outer loop
vertex -62.8505035757139 -58.007712711558 1.65190726483244e-006
vertex -75.7087226702076 -47.2356618267392 1.90716811542258e-006
vertex -70.6833582734076 -47.2356616285236 2.03640040857822e-006
endloop
endfacet
facet normal -5.66338838755141e-008 1.56787451172469e-008 -0.999999999999998
outer loop
vertex -62.8505035757139 -58.007712711558 1.65190726483244e-006
vertex -70.6833582734076 -47.2356616285236 2.03640040857822e-006
vertex -70.6833583526938 -45.2255158698036 2.14573801303741e-006
endloop
endfacet
facet normal -5.66338838755141e-008 1.56787451172469e-008 -0.999999999999998
outer loop
vertex -62.8505035757139 -58.007712711558 1.65190726483244e-006
vertex -70.6833583526938 -45.2255158698036 2.14573801303741e-006
vertex -65.6579938766076 -47.235661430308 2.16563267776415e-006
endloop
endfacet
facet normal -5.66338838755141e-008 1.56787451172469e-008 -0.999999999999998
outer loop
vertex -65.6579938766076 -47.235661430308 2.16563267776415e-006
vertex -70.6833583526938 -45.2255158698036 2.14573801303741e-006
vertex -65.6579939558939 -45.225515671588 2.27497029209323e-006
endloop
endfacet
facet normal -5.66338838755141e-008 1.56787451172469e-008 -0.999999999999998
outer loop
vertex -62.8505035757139 -58.007712711558 1.65190726483244e-006
vertex -65.6579938766076 -47.235661430308 2.16563267776415e-006
vertex -60.6326294798076 -47.2356612320924 2.29486495822995e-006
endloop
endfacet
facet normal -5.66338838755141e-008 1.56787451172469e-008 -0.999999999999998
outer loop
vertex -62.8505035757139 -58.007712711558 1.65190726483244e-006
vertex -60.6326294798076 -47.2356612320924 2.29486495822995e-006
vertex -62.8505025241358 -84.6683919124407 2.01756334972103e-007
endloop
endfacet
facet normal -5.66338838755141e-008 1.56787451172469e-008 -0.999999999999998
outer loop
vertex -55.8149939243626 -45.2255152833502 2.52809287912825e-006
vertex -60.6326294798076 -47.2356612320924 2.29486495822995e-006
vertex -60.632629559094 -45.2255154733724 2.40420255845919e-006
endloop
endfacet
facet normal -5.66338838755141e-008 1.56787451172469e-008 -0.999999999999998
outer loop
vertex -62.8505025241358 -84.6683919124407 2.01756334972103e-007
vertex -75.9164488700017 -91.7039025833215 3.17783264408567e-006
vertex -75.9164499558157 -84.6683924278012 -1.34247578165159e-007
endloop
endfacet
facet normal -5.66338838755141e-008 1.56787451172469e-008 -0.999999999999998
outer loop
vertex -75.9164488700017 -91.7039025833215 3.17783264408567e-006
vertex -62.8505025241358 -84.6683919124407 2.01756334972103e-007
vertex -55.8149920911137 -91.7039017904587 -9.02389274415327e-014
endloop
endfacet
facet normal -5.66338838755141e-008 1.56787451172469e-008 -0.999999999999998
outer loop
vertex -55.8149920911137 -91.7039017904587 -9.02389274415327e-014
vertex -62.8505025241358 -84.6683919124407 2.01756334972103e-007
vertex -60.6326294798076 -47.2356612320924 2.29486495822995e-006
endloop
endfacet
facet normal -5.66338838755141e-008 1.56787451172469e-008 -0.999999999999998
outer loop
vertex -55.8149920911137 -91.7039017904587 -9.02389274415327e-014
vertex -60.6326294798076 -47.2356612320924 2.29486495822995e-006
vertex -55.8149939243626 -45.2255152833502 2.52809287912825e-006
endloop
endfacet
facet normal -5.66338838755141e-008 1.56787451172469e-008 -0.999999999999998
outer loop
vertex -110.672977001683 -91.7039039542245 4.20105812241056e-006
vertex -75.9164487136512 -95.6678583117917 2.96222173200578e-006
vertex -110.672976845332 -95.6678596826947 3.98544719764082e-006
endloop
endfacet
facet normal -5.66338838755141e-008 1.56787451172469e-008 -0.999999999999998
outer loop
vertex -75.9164487136512 -95.6678583117917 2.96222173200578e-006
vertex -110.672977001683 -91.7039039542245 4.20105812241056e-006
vertex -103.637467813047 -87.6836121592825 2.82292104885062e-006
endloop
endfacet
facet normal -5.66338838755141e-008 1.56787451172469e-008 -0.999999999999998
outer loop
vertex -103.637467813047 -87.6836121592825 2.82292104885062e-006
vertex -110.672977001683 -91.7039039542245 4.20105812241056e-006
vertex -105.860909051008 -47.2356630160332 4.96582325001382e-006
endloop
endfacet
facet normal -5.66338838755141e-008 1.56787451172469e-008 -0.999999999999998
outer loop
vertex -105.860909051008 -47.2356630160332 4.96582325001382e-006
vertex -110.672977001683 -91.7039039542245 4.20105812241056e-006
vertex -105.860909130294 -45.2255172573132 5.07516084883308e-006
endloop
endfacet
facet normal -5.66338838755141e-008 1.56787451172469e-008 -0.999999999999998
outer loop
vertex -75.9164487136512 -95.6678583117917 2.96222173200578e-006
vertex -103.637467813047 -87.6836121592825 2.82292104885062e-006
vertex -83.5360102258473 -87.68361136642 3.33985016366389e-006
endloop
endfacet
facet normal -5.66338838755141e-008 1.56787451172469e-008 -0.999999999999998
outer loop
vertex -75.9164487136512 -95.6678583117917 2.96222173200578e-006
vertex -83.5360102258473 -87.68361136642 3.33985016366389e-006
vertex -80.7340870670076 -47.2356620249549 1.77793586033648e-006
endloop
endfacet
facet normal -5.66338838755141e-008 1.56787451172469e-008 -0.999999999999998
outer loop
vertex -75.9164487136512 -95.6678583117917 2.96222173200578e-006
vertex -80.7340870670076 -47.2356620249549 1.77793586033648e-006
vertex -75.9164499558157 -84.6683924278012 -1.34247578165159e-007
endloop
endfacet
facet normal -5.66338838755141e-008 1.56787451172469e-008 -0.999999999999998
outer loop
vertex -75.9164487136512 -95.6678583117917 2.96222173200578e-006
vertex -75.9164499558157 -84.6683924278012 -1.34247578165159e-007
vertex -75.9164488700017 -91.7039025833215 3.17783264408567e-006
endloop
endfacet
facet normal -5.66338838755141e-008 1.56787451172469e-008 -0.999999999999998
outer loop
vertex -95.810180336694 -45.2255168608819 5.33362540835469e-006
vertex -100.835544654208 -47.2356628178175 5.09505550368994e-006
vertex -100.835544733494 -45.2255170590976 5.20439313070886e-006
endloop
endfacet
facet normal -5.66338838755141e-008 1.56787451172469e-008 -0.999999999999998
outer loop
vertex -100.835544654208 -47.2356628178175 5.09505550368994e-006
vertex -95.810180336694 -45.2255168608819 5.33362540835469e-006
vertex -96.4532500764922 -67.5821466206177 4.10104686479062e-006
endloop
endfacet
facet normal -5.66338838755141e-008 1.56787451172469e-008 -0.999999999999998
outer loop
vertex -96.4532500764922 -67.5821466206177 4.10104686479062e-006
vertex -95.810180336694 -45.2255168608819 5.33362540835469e-006
vertex -96.4532498435307 -73.4884220615832 3.77978759055209e-006
endloop
endfacet
facet normal -5.66338838755141e-008 1.56787451172469e-008 -0.999999999999998
outer loop
vertex -96.4532498435307 -73.4884220615832 3.77978759055209e-006
vertex -95.810180336694 -45.2255168608819 5.33362540835469e-006
vertex -95.8101802574077 -47.235662619602 5.22428779825557e-006
endloop
endfacet
facet normal -5.66338838755141e-008 1.56787451172469e-008 -0.999999999999998
outer loop
vertex -96.4532498435307 -73.4884220615832 3.77978759055209e-006
vertex -95.8101802574077 -47.235662619602 5.22428779825557e-006
vertex -90.7063165107118 -73.4884218349068 3.92757574537717e-006
endloop
endfacet
facet normal -5.66338838755141e-008 1.56787451172469e-008 -0.999999999999998
outer loop
vertex -90.7063165107118 -73.4884218349068 3.92757574537717e-006
vertex -95.8101802574077 -47.235662619602 5.22428779825557e-006
vertex -90.7848158606077 -47.2356624213863 5.35352006885148e-006
endloop
endfacet
facet normal -5.66338838755141e-008 1.56787451172469e-008 -0.999999999999998
outer loop
vertex -105.860909051008 -47.2356630160332 4.96582325001382e-006
vertex -103.63746860591 -67.582146903985 3.9162975178475e-006
vertex -103.637467813047 -87.6836121592825 2.82292104885062e-006
endloop
endfacet
facet normal -5.66338838755141e-008 1.56787451172469e-008 -0.999999999999998
outer loop
vertex -103.63746860591 -67.582146903985 3.9162975178475e-006
vertex -105.860909051008 -47.2356630160332 4.96582325001382e-006
vertex -100.835544654208 -47.2356628178175 5.09505550368994e-006
endloop
endfacet
facet normal -5.66338838755141e-008 1.56787451172469e-008 -0.999999999999998
outer loop
vertex -103.63746860591 -67.582146903985 3.9162975178475e-006
vertex -100.835544654208 -47.2356628178175 5.09505550368994e-006
vertex -96.4532500764922 -67.5821466206177 4.10104686479062e-006
endloop
endfacet
facet normal -5.66338838755141e-008 1.56787451172469e-008 -0.999999999999998
outer loop
vertex -130.774437314219 -91.7039047470871 5.74044030839937e-006
vertex -123.738927436201 -84.668394314065 2.46999832662631e-006
vertex -110.672977001683 -91.7039039542245 4.20105812241056e-006
endloop
endfacet
facet normal -5.66338838755141e-008 1.56787451172469e-008 -0.999999999999998
outer loop
vertex -123.738927436201 -84.668394314065 2.46999832662631e-006
vertex -130.774437314219 -91.7039047470871 5.74044030839937e-006
vertex -130.774439147468 -45.2255182399786 8.26853326366672e-006
endloop
endfacet
facet normal -5.66338838755141e-008 1.56787451172469e-008 -0.999999999999998
outer loop
vertex -123.738927436201 -84.668394314065 2.46999832662631e-006
vertex -130.774439147468 -45.2255182399786 8.26853326366672e-006
vertex -125.962366638208 -47.2356638088956 4.44889415494032e-006
endloop
endfacet
facet normal -5.66338838755141e-008 1.56787451172469e-008 -0.999999999999998
outer loop
vertex -110.672977001683 -91.7039039542245 4.20105812241056e-006
vertex -123.738927436201 -84.668394314065 2.46999832662631e-006
vertex -110.672978087497 -84.6683937987043 2.8060023046228e-006
endloop
endfacet
facet normal -5.66338838755141e-008 1.56787451172469e-008 -0.999999999999998
outer loop
vertex -110.672977001683 -91.7039039542245 4.20105812241056e-006
vertex -110.672978087497 -84.6683937987043 2.8060023046228e-006
vertex -110.672979139075 -58.0077145978216 4.25615322743322e-006
endloop
endfacet
facet normal -1.93974279533868e-008 0.93679772659724 0.34987143273243
outer loop
vertex -110.672977222864 -58.007716518594 35.3129456012315
vertex -75.9164482485504 -63.6888373567889 50.5244240530965
vertex -75.9164492357768 -58.0077151476908 35.3129438575293
endloop
endfacet
facet normal -1.93974279533868e-008 0.93679772659724 0.34987143273243
outer loop
vertex -75.9164482485504 -63.6888373567889 50.5244240530965
vertex -110.672977222864 -58.007716518594 35.3129456012315
vertex -110.672976235638 -63.6888387276918 50.5244257967986
endloop
endfacet
facet normal 3.94430261491716e-008 -0.999999999999998 -5.43928612534511e-008
outer loop
vertex -75.9164469872007 -95.6678610599596 50.5244229294631
vertex -110.672976845332 -95.6678596826947 3.98544719764082e-006
vertex -75.9164487136512 -95.6678583117917 2.96222173200578e-006
endloop
endfacet
facet normal 3.94430261491716e-008 -0.999999999999998 -5.43928612534511e-008
outer loop
vertex -110.672976845332 -95.6678596826947 3.98544719764082e-006
vertex -75.9164469872007 -95.6678610599596 50.5244229294631
vertex -110.672974160369 -95.6678624308622 50.524424225757
endloop
endfacet
facet normal 3.94430391801371e-008 -0.999999999999998 -5.43928694931428e-008
outer loop
vertex -55.8149926080429 -91.7039028838349 20.1014595042242
vertex -75.9164488700017 -91.7039025833215 3.17783264408567e-006
vertex -55.8149920911137 -91.7039017904587 -9.02389274415327e-014
endloop
endfacet
facet normal 3.94430391801371e-008 -0.999999999999998 -5.43928694931428e-008
outer loop
vertex -75.9164488700017 -91.7039025833215 3.17783264408567e-006
vertex -55.8149926080429 -91.7039028838349 20.1014595042242
vertex -75.9164482782186 -91.7039036766974 20.1014609043196
endloop
endfacet
endsolid LAMPS_full_model
