solid fan_mount
facet normal -0.0 -1.0 -0.0
outer loop
vertex 60.0 0.0 6.0
vertex 0.0 0.0 0.0
vertex 60.0 0.0 0.0
endloop
endfacet
facet normal -0.0 -1.0 -0.0
outer loop
vertex 0.0 0.0 0.0
vertex 60.0 0.0 6.0
vertex 0.0 0.0 6.0
endloop
endfacet
facet normal -1.0 0.0 0.0
outer loop
vertex 0.0 10.0 16.0
vertex 1.12798659301916e-014 11.5851854342773 11.6470476127563
vertex 0.0 10.0 6.0
endloop
endfacet
facet normal -1.0 0.0 0.0
outer loop
vertex 1.12798659301916e-014 11.5851854342773 11.6470476127563
vertex 0.0 10.0 16.0
vertex 1.12798659301916e-014 11.8349364905389 12.25
endloop
endfacet
facet normal -1.0 0.0 0.0
outer loop
vertex 1.12798659301916e-014 11.8349364905389 12.25
vertex 0.0 10.0 16.0
vertex 1.12798659301916e-014 12.2322330470336 12.7677669529664
endloop
endfacet
facet normal -1.0 0.0 0.0
outer loop
vertex 1.12798659301916e-014 12.2322330470336 12.7677669529664
vertex 0.0 10.0 16.0
vertex 1.12798659301916e-014 12.75 13.1650635094611
endloop
endfacet
facet normal -1.0 0.0 0.0
outer loop
vertex 1.12798659301916e-014 12.75 13.1650635094611
vertex 0.0 10.0 16.0
vertex 1.12798659301916e-014 13.3529523872437 13.4148145657227
endloop
endfacet
facet normal -1.0 0.0 0.0
outer loop
vertex 1.12798659301916e-014 13.3529523872437 13.4148145657227
vertex 0.0 10.0 16.0
vertex 1.12798659301916e-014 14.0 13.5
endloop
endfacet
facet normal -1.0 0.0 0.0
outer loop
vertex 1.12798659301916e-014 14.0 13.5
vertex 0.0 10.0 16.0
vertex 0.0 33.9 16.0
endloop
endfacet
facet normal -1.0 0.0 0.0
outer loop
vertex 0.0 10.0 6.0
vertex 1.12798659301916e-014 11.5851854342773 11.6470476127563
vertex 1.12798659301916e-014 11.5 11.0
endloop
endfacet
facet normal -1.0 0.0 0.0
outer loop
vertex 1.12798659301916e-014 14.0 13.5
vertex 0.0 33.9 16.0
vertex 1.12798659301916e-014 14.6470476127563 13.4148145657227
endloop
endfacet
facet normal -1.0 0.0 0.0
outer loop
vertex 1.12798659301916e-014 14.6470476127563 13.4148145657227
vertex 0.0 33.9 16.0
vertex 1.12798659301916e-014 15.25 13.1650635094611
endloop
endfacet
facet normal -1.0 0.0 0.0
outer loop
vertex 1.12798659301916e-014 15.25 13.1650635094611
vertex 0.0 33.9 16.0
vertex 1.12798659301916e-014 15.7677669529664 12.7677669529664
endloop
endfacet
facet normal -1.0 0.0 0.0
outer loop
vertex 1.12798659301916e-014 15.7677669529664 12.7677669529664
vertex 0.0 33.9 16.0
vertex 1.12798659301916e-014 16.1650635094611 12.25
endloop
endfacet
facet normal -1.0 0.0 0.0
outer loop
vertex 1.12798659301916e-014 16.1650635094611 12.25
vertex 0.0 33.9 16.0
vertex 1.12798659301916e-014 16.4148145657227 11.6470476127563
endloop
endfacet
facet normal -1.0 0.0 0.0
outer loop
vertex 1.12798659301916e-014 16.4148145657227 11.6470476127563
vertex 0.0 33.9 16.0
vertex 1.12798659301916e-014 16.5 11.0
endloop
endfacet
facet normal -1.0 0.0 0.0
outer loop
vertex 1.12798659301916e-014 16.5 11.0
vertex 0.0 33.9 16.0
vertex 1.19848575508286e-014 28.65 13.1650635094611
endloop
endfacet
facet normal -1.0 0.0 0.0
outer loop
vertex 1.12798659301916e-014 16.5 11.0
vertex 1.19848575508286e-014 28.65 13.1650635094611
vertex 1.19848575508286e-014 28.1322330470336 12.7677669529664
endloop
endfacet
facet normal -1.0 0.0 0.0
outer loop
vertex 1.12798659301916e-014 16.5 11.0
vertex 1.19848575508286e-014 28.1322330470336 12.7677669529664
vertex 1.19848575508286e-014 27.7349364905389 12.25
endloop
endfacet
facet normal -1.0 0.0 0.0
outer loop
vertex 1.12798659301916e-014 16.5 11.0
vertex 1.19848575508286e-014 27.7349364905389 12.25
vertex 1.19848575508286e-014 27.4851854342773 11.6470476127563
endloop
endfacet
facet normal -1.0 0.0 0.0
outer loop
vertex 1.12798659301916e-014 16.5 11.0
vertex 1.19848575508286e-014 27.4851854342773 11.6470476127563
vertex 1.19848575508286e-014 27.4 11.0
endloop
endfacet
facet normal -1.0 0.0 0.0
outer loop
vertex 1.19848575508286e-014 28.65 13.1650635094611
vertex 0.0 33.9 16.0
vertex 1.19848575508286e-014 29.2529523872437 13.4148145657227
endloop
endfacet
facet normal -1.0 0.0 0.0
outer loop
vertex 1.19848575508286e-014 29.2529523872437 13.4148145657227
vertex 0.0 33.9 16.0
vertex 1.19848575508286e-014 29.9 13.5
endloop
endfacet
facet normal -1.0 0.0 0.0
outer loop
vertex 1.19848575508286e-014 29.9 13.5
vertex 0.0 33.9 16.0
vertex 1.19848575508286e-014 30.5470476127563 13.4148145657227
endloop
endfacet
facet normal -1.0 0.0 0.0
outer loop
vertex 1.19848575508286e-014 30.5470476127563 13.4148145657227
vertex 0.0 33.9 16.0
vertex 1.19848575508286e-014 31.15 13.1650635094611
endloop
endfacet
facet normal -1.0 0.0 0.0
outer loop
vertex 1.19848575508286e-014 31.15 13.1650635094611
vertex 0.0 33.9 16.0
vertex 1.19848575508286e-014 31.6677669529664 12.7677669529664
endloop
endfacet
facet normal -1.0 0.0 0.0
outer loop
vertex 1.19848575508286e-014 31.6677669529664 12.7677669529664
vertex 0.0 33.9 16.0
vertex 1.19848575508286e-014 32.0650635094611 12.25
endloop
endfacet
facet normal -1.0 0.0 0.0
outer loop
vertex 1.19848575508286e-014 32.0650635094611 12.25
vertex 0.0 33.9 16.0
vertex 1.19848575508286e-014 32.3148145657227 11.6470476127563
endloop
endfacet
facet normal -1.0 0.0 0.0
outer loop
vertex 1.19848575508286e-014 32.3148145657227 11.6470476127563
vertex 0.0 33.9 16.0
vertex 1.19848575508286e-014 32.4 11.0
endloop
endfacet
facet normal -1.0 0.0 0.0
outer loop
vertex 0.0 10.0 6.0
vertex 0.0 0.0 0.0
vertex 0.0 0.0 6.0
endloop
endfacet
facet normal -1.0 0.0 0.0
outer loop
vertex 0.0 0.0 0.0
vertex 0.0 10.0 6.0
vertex 0.0 33.9 0.0
endloop
endfacet
facet normal -1.0 0.0 0.0
outer loop
vertex 0.0 33.9 0.0
vertex 0.0 10.0 6.0
vertex 1.12798659301916e-014 12.75 8.8349364905389
endloop
endfacet
facet normal -1.0 0.0 0.0
outer loop
vertex 1.12798659301916e-014 12.75 8.8349364905389
vertex 0.0 10.0 6.0
vertex 1.12798659301916e-014 12.2322330470336 9.23223304703363
endloop
endfacet
facet normal -1.0 0.0 0.0
outer loop
vertex 1.12798659301916e-014 12.2322330470336 9.23223304703363
vertex 0.0 10.0 6.0
vertex 1.12798659301916e-014 11.8349364905389 9.75
endloop
endfacet
facet normal -1.0 0.0 0.0
outer loop
vertex 1.12798659301916e-014 11.8349364905389 9.75
vertex 0.0 10.0 6.0
vertex 1.12798659301916e-014 11.5851854342773 10.3529523872437
endloop
endfacet
facet normal -1.0 0.0 0.0
outer loop
vertex 1.12798659301916e-014 11.5851854342773 10.3529523872437
vertex 0.0 10.0 6.0
vertex 1.12798659301916e-014 11.5 11.0
endloop
endfacet
facet normal -1.0 0.0 0.0
outer loop
vertex 0.0 33.9 0.0
vertex 1.12798659301916e-014 12.75 8.8349364905389
vertex 1.12798659301916e-014 13.3529523872437 8.58518543427733
endloop
endfacet
facet normal -1.0 0.0 0.0
outer loop
vertex 0.0 33.9 0.0
vertex 1.12798659301916e-014 13.3529523872437 8.58518543427733
vertex 1.12798659301916e-014 14.0 8.5
endloop
endfacet
facet normal -1.0 0.0 0.0
outer loop
vertex 0.0 33.9 0.0
vertex 1.12798659301916e-014 14.0 8.5
vertex 1.12798659301916e-014 14.6470476127563 8.58518543427733
endloop
endfacet
facet normal -1.0 0.0 0.0
outer loop
vertex 0.0 33.9 0.0
vertex 1.12798659301916e-014 14.6470476127563 8.58518543427733
vertex 1.12798659301916e-014 15.25 8.8349364905389
endloop
endfacet
facet normal -1.0 0.0 0.0
outer loop
vertex 0.0 33.9 0.0
vertex 1.12798659301916e-014 15.25 8.8349364905389
vertex 1.12798659301916e-014 15.7677669529664 9.23223304703363
endloop
endfacet
facet normal -1.0 0.0 0.0
outer loop
vertex 0.0 33.9 0.0
vertex 1.12798659301916e-014 15.7677669529664 9.23223304703363
vertex 1.12798659301916e-014 16.1650635094611 9.75
endloop
endfacet
facet normal -1.0 0.0 0.0
outer loop
vertex 0.0 33.9 0.0
vertex 1.12798659301916e-014 16.1650635094611 9.75
vertex 1.12798659301916e-014 16.4148145657227 10.3529523872437
endloop
endfacet
facet normal -1.0 0.0 0.0
outer loop
vertex 0.0 33.9 0.0
vertex 1.12798659301916e-014 16.4148145657227 10.3529523872437
vertex 1.12798659301916e-014 16.5 11.0
endloop
endfacet
facet normal -1.0 0.0 0.0
outer loop
vertex 0.0 33.9 0.0
vertex 1.12798659301916e-014 16.5 11.0
vertex 1.19848575508286e-014 27.7349364905389 9.75
endloop
endfacet
facet normal -1.0 0.0 0.0
outer loop
vertex 1.19848575508286e-014 27.7349364905389 9.75
vertex 1.12798659301916e-014 16.5 11.0
vertex 1.19848575508286e-014 27.4851854342773 10.3529523872437
endloop
endfacet
facet normal -1.0 0.0 0.0
outer loop
vertex 1.19848575508286e-014 27.4851854342773 10.3529523872437
vertex 1.12798659301916e-014 16.5 11.0
vertex 1.19848575508286e-014 27.4 11.0
endloop
endfacet
facet normal -1.0 0.0 0.0
outer loop
vertex 0.0 33.9 0.0
vertex 1.19848575508286e-014 27.7349364905389 9.75
vertex 1.19848575508286e-014 28.1322330470336 9.23223304703363
endloop
endfacet
facet normal -1.0 0.0 0.0
outer loop
vertex 0.0 33.9 0.0
vertex 1.19848575508286e-014 28.1322330470336 9.23223304703363
vertex 1.19848575508286e-014 28.65 8.8349364905389
endloop
endfacet
facet normal -1.0 0.0 0.0
outer loop
vertex 0.0 33.9 0.0
vertex 1.19848575508286e-014 28.65 8.8349364905389
vertex 1.19848575508286e-014 29.2529523872437 8.58518543427733
endloop
endfacet
facet normal -1.0 0.0 0.0
outer loop
vertex 0.0 33.9 0.0
vertex 1.19848575508286e-014 29.2529523872437 8.58518543427733
vertex 1.19848575508286e-014 29.9 8.5
endloop
endfacet
facet normal -1.0 0.0 0.0
outer loop
vertex 0.0 33.9 0.0
vertex 1.19848575508286e-014 29.9 8.5
vertex 1.19848575508286e-014 30.5470476127563 8.58518543427733
endloop
endfacet
facet normal -1.0 0.0 0.0
outer loop
vertex 0.0 33.9 0.0
vertex 1.19848575508286e-014 30.5470476127563 8.58518543427733
vertex 1.19848575508286e-014 31.15 8.8349364905389
endloop
endfacet
facet normal -1.0 0.0 0.0
outer loop
vertex 0.0 33.9 0.0
vertex 1.19848575508286e-014 31.15 8.8349364905389
vertex 1.19848575508286e-014 31.6677669529664 9.23223304703363
endloop
endfacet
facet normal -1.0 0.0 0.0
outer loop
vertex 0.0 33.9 0.0
vertex 1.19848575508286e-014 31.6677669529664 9.23223304703363
vertex 1.19848575508286e-014 32.0650635094611 9.75
endloop
endfacet
facet normal -1.0 0.0 0.0
outer loop
vertex 0.0 33.9 0.0
vertex 1.19848575508286e-014 32.0650635094611 9.75
vertex 1.19848575508286e-014 32.3148145657227 10.3529523872437
endloop
endfacet
facet normal -1.0 0.0 0.0
outer loop
vertex 0.0 33.9 0.0
vertex 1.19848575508286e-014 32.3148145657227 10.3529523872437
vertex 1.19848575508286e-014 32.4 11.0
endloop
endfacet
facet normal -1.0 0.0 0.0
outer loop
vertex 0.0 33.9 0.0
vertex 1.19848575508286e-014 32.4 11.0
vertex 0.0 33.9 16.0
endloop
endfacet
facet normal 1.0 0.0 0.0
outer loop
vertex 60.0 10.0 0.0
vertex 60.0 0.0 6.0
vertex 60.0 0.0 0.0
endloop
endfacet
facet normal 1.0 0.0 0.0
outer loop
vertex 60.0 0.0 6.0
vertex 60.0 10.0 0.0
vertex 60.0 10.0 6.0
endloop
endfacet
facet normal 0.0 1.0 0.0
outer loop
vertex 9.70820393249936 10.0 6.0
vertex 60.0 10.0 0.0
vertex 9.70820393249936 10.0 0.0
endloop
endfacet
facet normal 0.0 1.0 0.0
outer loop
vertex 60.0 10.0 0.0
vertex 9.70820393249936 10.0 6.0
vertex 60.0 10.0 6.0
endloop
endfacet
facet normal 0.0 0.0 1.0
outer loop
vertex 0.0 0.0 6.0
vertex 1.54126603852989 4.54764250120783 6.0
vertex 0.0 10.0 6.0
endloop
endfacet
facet normal 0.0 0.0 1.0
outer loop
vertex 1.54126603852989 4.54764250120783 6.0
vertex 0.0 0.0 6.0
vertex 1.74212410252435 3.92668903313228 6.0
endloop
endfacet
facet normal 0.0 0.0 1.0
outer loop
vertex 1.74212410252435 3.92668903313228 6.0
vertex 0.0 0.0 6.0
vertex 2.09685267761542 3.37887993371853 6.0
endloop
endfacet
facet normal 0.0 0.0 1.0
outer loop
vertex 2.09685267761542 3.37887993371853 6.0
vertex 0.0 0.0 6.0
vertex 2.58127759762735 2.94154748779429 6.0
endloop
endfacet
facet normal 0.0 0.0 1.0
outer loop
vertex 2.58127759762735 2.94154748779429 6.0
vertex 0.0 0.0 6.0
vertex 3.16238610481136 2.64449517882325 6.0
endloop
endfacet
facet normal 0.0 0.0 1.0
outer loop
vertex 3.16238610481136 2.64449517882325 6.0
vertex 0.0 0.0 6.0
vertex 3.80057661473005 2.50796663075964 6.0
endloop
endfacet
facet normal 0.0 0.0 1.0
outer loop
vertex 3.80057661473005 2.50796663075964 6.0
vertex 0.0 0.0 6.0
vertex 60.0 0.0 6.0
endloop
endfacet
facet normal 0.0 0.0 1.0
outer loop
vertex 0.0 10.0 6.0
vertex 1.54126603852989 4.54764250120783 6.0
vertex 1.51815514777112 5.0 6.0
endloop
endfacet
facet normal 0.0 0.0 1.0
outer loop
vertex 0.0 10.0 6.0
vertex 1.51815514777112 5.0 6.0
vertex 1.50796663075964 5.19942338526994 6.0
endloop
endfacet
facet normal 0.0 0.0 1.0
outer loop
vertex 3.80057661473005 2.50796663075964 6.0
vertex 60.0 0.0 6.0
vertex 4.45235749879217 2.54126603852989 6.0
endloop
endfacet
facet normal 0.0 0.0 1.0
outer loop
vertex 4.45235749879217 2.54126603852989 6.0
vertex 60.0 0.0 6.0
vertex 5.07331096686772 2.74212410252435 6.0
endloop
endfacet
facet normal 0.0 0.0 1.0
outer loop
vertex 5.07331096686772 2.74212410252435 6.0
vertex 60.0 0.0 6.0
vertex 5.62112006628146 3.09685267761542 6.0
endloop
endfacet
facet normal 0.0 0.0 1.0
outer loop
vertex 5.62112006628146 3.09685267761542 6.0
vertex 60.0 0.0 6.0
vertex 6.05845251220571 3.58127759762735 6.0
endloop
endfacet
facet normal 0.0 0.0 1.0
outer loop
vertex 6.05845251220571 3.58127759762735 6.0
vertex 60.0 0.0 6.0
vertex 6.35550482117675 4.16238610481136 6.0
endloop
endfacet
facet normal 0.0 0.0 1.0
outer loop
vertex 6.35550482117675 4.16238610481136 6.0
vertex 60.0 0.0 6.0
vertex 6.49203336924036 4.80057661473006 6.0
endloop
endfacet
facet normal 0.0 0.0 1.0
outer loop
vertex 6.49203336924036 4.80057661473006 6.0
vertex 60.0 0.0 6.0
vertex 9.70820393249936 10.0 6.0
endloop
endfacet
facet normal 0.0 0.0 1.0
outer loop
vertex 9.70820393249936 10.0 6.0
vertex 60.0 0.0 6.0
vertex 54.75 2.8349364905389 6.0
endloop
endfacet
facet normal 0.0 0.0 1.0
outer loop
vertex 9.70820393249936 10.0 6.0
vertex 54.75 2.8349364905389 6.0
vertex 54.2322330470336 3.23223304703363 6.0
endloop
endfacet
facet normal 0.0 0.0 1.0
outer loop
vertex 9.70820393249936 10.0 6.0
vertex 54.2322330470336 3.23223304703363 6.0
vertex 53.8349364905389 3.75 6.0
endloop
endfacet
facet normal 0.0 0.0 1.0
outer loop
vertex 9.70820393249936 10.0 6.0
vertex 53.8349364905389 3.75 6.0
vertex 53.5851854342773 4.3529523872437 6.0
endloop
endfacet
facet normal 0.0 0.0 1.0
outer loop
vertex 9.70820393249936 10.0 6.0
vertex 53.5851854342773 4.3529523872437 6.0
vertex 53.5 5.0 6.0
endloop
endfacet
facet normal 0.0 0.0 1.0
outer loop
vertex 54.75 2.8349364905389 6.0
vertex 60.0 0.0 6.0
vertex 55.3529523872437 2.58518543427733 6.0
endloop
endfacet
facet normal 0.0 0.0 1.0
outer loop
vertex 55.3529523872437 2.58518543427733 6.0
vertex 60.0 0.0 6.0
vertex 56.0 2.5 6.0
endloop
endfacet
facet normal 0.0 0.0 1.0
outer loop
vertex 56.0 2.5 6.0
vertex 60.0 0.0 6.0
vertex 56.6470476127563 2.58518543427733 6.0
endloop
endfacet
facet normal 0.0 0.0 1.0
outer loop
vertex 56.6470476127563 2.58518543427733 6.0
vertex 60.0 0.0 6.0
vertex 57.25 2.8349364905389 6.0
endloop
endfacet
facet normal 0.0 0.0 1.0
outer loop
vertex 57.25 2.8349364905389 6.0
vertex 60.0 0.0 6.0
vertex 57.7677669529664 3.23223304703363 6.0
endloop
endfacet
facet normal 0.0 0.0 1.0
outer loop
vertex 57.7677669529664 3.23223304703363 6.0
vertex 60.0 0.0 6.0
vertex 58.1650635094611 3.75 6.0
endloop
endfacet
facet normal 0.0 0.0 1.0
outer loop
vertex 58.1650635094611 3.75 6.0
vertex 60.0 0.0 6.0
vertex 58.4148145657227 4.3529523872437 6.0
endloop
endfacet
facet normal 0.0 0.0 1.0
outer loop
vertex 58.4148145657227 4.3529523872437 6.0
vertex 60.0 0.0 6.0
vertex 58.5 5.0 6.0
endloop
endfacet
facet normal 0.0 0.0 1.0
outer loop
vertex 9.70820393249936 10.0 6.0
vertex 54.75 7.1650635094611 6.0
vertex 60.0 10.0 6.0
endloop
endfacet
facet normal 0.0 0.0 1.0
outer loop
vertex 54.75 7.1650635094611 6.0
vertex 9.70820393249936 10.0 6.0
vertex 54.2322330470336 6.76776695296637 6.0
endloop
endfacet
facet normal 0.0 0.0 1.0
outer loop
vertex 54.2322330470336 6.76776695296637 6.0
vertex 9.70820393249936 10.0 6.0
vertex 53.8349364905389 6.25 6.0
endloop
endfacet
facet normal 0.0 0.0 1.0
outer loop
vertex 53.8349364905389 6.25 6.0
vertex 9.70820393249936 10.0 6.0
vertex 53.5851854342773 5.6470476127563 6.0
endloop
endfacet
facet normal 0.0 0.0 1.0
outer loop
vertex 53.5851854342773 5.6470476127563 6.0
vertex 9.70820393249936 10.0 6.0
vertex 53.5 5.0 6.0
endloop
endfacet
facet normal 0.0 0.0 1.0
outer loop
vertex 60.0 10.0 6.0
vertex 54.75 7.1650635094611 6.0
vertex 55.3529523872437 7.41481456572267 6.0
endloop
endfacet
facet normal 0.0 0.0 1.0
outer loop
vertex 60.0 10.0 6.0
vertex 55.3529523872437 7.41481456572267 6.0
vertex 56.0 7.5 6.0
endloop
endfacet
facet normal 0.0 0.0 1.0
outer loop
vertex 60.0 10.0 6.0
vertex 56.0 7.5 6.0
vertex 56.6470476127563 7.41481456572267 6.0
endloop
endfacet
facet normal 0.0 0.0 1.0
outer loop
vertex 60.0 10.0 6.0
vertex 56.6470476127563 7.41481456572267 6.0
vertex 57.25 7.1650635094611 6.0
endloop
endfacet
facet normal 0.0 0.0 1.0
outer loop
vertex 60.0 10.0 6.0
vertex 57.25 7.1650635094611 6.0
vertex 57.7677669529664 6.76776695296637 6.0
endloop
endfacet
facet normal 0.0 0.0 1.0
outer loop
vertex 60.0 10.0 6.0
vertex 57.7677669529664 6.76776695296637 6.0
vertex 58.1650635094611 6.25 6.0
endloop
endfacet
facet normal 0.0 0.0 1.0
outer loop
vertex 60.0 10.0 6.0
vertex 58.1650635094611 6.25 6.0
vertex 58.4148145657227 5.6470476127563 6.0
endloop
endfacet
facet normal 0.0 0.0 1.0
outer loop
vertex 60.0 10.0 6.0
vertex 58.4148145657227 5.6470476127563 6.0
vertex 58.5 5.0 6.0
endloop
endfacet
facet normal 0.0 0.0 1.0
outer loop
vertex 60.0 10.0 6.0
vertex 58.5 5.0 6.0
vertex 60.0 0.0 6.0
endloop
endfacet
facet normal 0.0 0.0 1.0
outer loop
vertex 0.0 10.0 6.0
vertex 2.37887993371853 6.90314732238458 6.0
vertex 6.0 10.0 6.0
endloop
endfacet
facet normal 0.0 0.0 1.0
outer loop
vertex 2.37887993371853 6.90314732238458 6.0
vertex 0.0 10.0 6.0
vertex 1.94154748779429 6.41872240237265 6.0
endloop
endfacet
facet normal 0.0 0.0 1.0
outer loop
vertex 1.94154748779429 6.41872240237265 6.0
vertex 0.0 10.0 6.0
vertex 1.64449517882325 5.83761389518864 6.0
endloop
endfacet
facet normal 0.0 0.0 1.0
outer loop
vertex 1.64449517882325 5.83761389518864 6.0
vertex 0.0 10.0 6.0
vertex 1.50796663075964 5.19942338526994 6.0
endloop
endfacet
facet normal 0.0 0.0 1.0
outer loop
vertex 6.0 10.0 6.0
vertex 2.37887993371853 6.90314732238458 6.0
vertex 2.92668903313228 7.25787589747565 6.0
endloop
endfacet
facet normal 0.0 0.0 1.0
outer loop
vertex 6.0 10.0 6.0
vertex 2.92668903313228 7.25787589747565 6.0
vertex 3.54764250120783 7.45873396147011 6.0
endloop
endfacet
facet normal 0.0 0.0 1.0
outer loop
vertex 6.0 10.0 6.0
vertex 3.54764250120783 7.45873396147011 6.0
vertex 4.19942338526994 7.49203336924036 6.0
endloop
endfacet
facet normal 0.0 0.0 1.0
outer loop
vertex 6.0 10.0 6.0
vertex 4.19942338526994 7.49203336924036 6.0
vertex 4.83761389518864 7.35550482117675 6.0
endloop
endfacet
facet normal 0.0 0.0 1.0
outer loop
vertex 6.0 10.0 6.0
vertex 4.83761389518864 7.35550482117675 6.0
vertex 5.41872240237265 7.05845251220571 6.0
endloop
endfacet
facet normal 0.0 0.0 1.0
outer loop
vertex 6.0 10.0 6.0
vertex 5.41872240237265 7.05845251220571 6.0
vertex 5.90314732238457 6.62112006628147 6.0
endloop
endfacet
facet normal 0.0 0.0 1.0
outer loop
vertex 6.0 10.0 6.0
vertex 5.90314732238457 6.62112006628147 6.0
vertex 6.25787589747565 6.07331096686772 6.0
endloop
endfacet
facet normal 0.0 0.0 1.0
outer loop
vertex 6.0 10.0 6.0
vertex 6.25787589747565 6.07331096686772 6.0
vertex 6.0 33.9 6.0
endloop
endfacet
facet normal 0.0 0.0 1.0
outer loop
vertex 6.0 33.9 6.0
vertex 6.25787589747565 6.07331096686772 6.0
vertex 9.70820393249936 33.9 6.0
endloop
endfacet
facet normal 0.0 0.0 1.0
outer loop
vertex 9.70820393249936 33.9 6.0
vertex 6.25787589747565 6.07331096686772 6.0
vertex 6.45873396147011 5.45235749879217 6.0
endloop
endfacet
facet normal 0.0 0.0 1.0
outer loop
vertex 9.70820393249936 33.9 6.0
vertex 6.45873396147011 5.45235749879217 6.0
vertex 6.49203336924036 4.80057661473006 6.0
endloop
endfacet
facet normal 0.0 0.0 1.0
outer loop
vertex 9.70820393249936 33.9 6.0
vertex 6.49203336924036 4.80057661473006 6.0
vertex 9.70820393249936 10.0 6.0
endloop
endfacet
facet normal 0.0 0.0 -1.0
outer loop
vertex 0.0 33.9 0.0
vertex 1.64449517882325 5.83761389518864 1.12798659301916e-014
vertex 0.0 0.0 0.0
endloop
endfacet
facet normal 0.0 0.0 -1.0
outer loop
vertex 1.64449517882325 5.83761389518864 1.12798659301916e-014
vertex 0.0 33.9 0.0
vertex 9.70820393249936 33.9 0.0
endloop
endfacet
facet normal 0.0 0.0 -1.0
outer loop
vertex 0.0 0.0 0.0
vertex 1.64449517882325 5.83761389518864 1.12798659301916e-014
vertex 1.50796663075964 5.19942338526994 1.12798659301916e-014
endloop
endfacet
facet normal 0.0 0.0 -1.0
outer loop
vertex 1.64449517882325 5.83761389518864 1.12798659301916e-014
vertex 9.70820393249936 33.9 0.0
vertex 1.94154748779429 6.41872240237265 1.12798659301916e-014
endloop
endfacet
facet normal 0.0 0.0 -1.0
outer loop
vertex 1.94154748779429 6.41872240237265 1.12798659301916e-014
vertex 9.70820393249936 33.9 0.0
vertex 2.37887993371853 6.90314732238458 1.12798659301916e-014
endloop
endfacet
facet normal 0.0 0.0 -1.0
outer loop
vertex 2.37887993371853 6.90314732238458 1.12798659301916e-014
vertex 9.70820393249936 33.9 0.0
vertex 2.92668903313228 7.25787589747565 1.12798659301916e-014
endloop
endfacet
facet normal 0.0 0.0 -1.0
outer loop
vertex 2.92668903313228 7.25787589747565 1.12798659301916e-014
vertex 9.70820393249936 33.9 0.0
vertex 3.54764250120783 7.45873396147011 1.12798659301916e-014
endloop
endfacet
facet normal 0.0 0.0 -1.0
outer loop
vertex 3.54764250120783 7.45873396147011 1.12798659301916e-014
vertex 9.70820393249936 33.9 0.0
vertex 4.19942338526994 7.49203336924036 1.12798659301916e-014
endloop
endfacet
facet normal 0.0 0.0 -1.0
outer loop
vertex 4.19942338526994 7.49203336924036 1.12798659301916e-014
vertex 9.70820393249936 33.9 0.0
vertex 4.83761389518864 7.35550482117675 1.12798659301916e-014
endloop
endfacet
facet normal 0.0 0.0 -1.0
outer loop
vertex 4.83761389518864 7.35550482117675 1.12798659301916e-014
vertex 9.70820393249936 33.9 0.0
vertex 5.41872240237265 7.05845251220571 1.12798659301916e-014
endloop
endfacet
facet normal 0.0 0.0 -1.0
outer loop
vertex 5.41872240237265 7.05845251220571 1.12798659301916e-014
vertex 9.70820393249936 33.9 0.0
vertex 5.90314732238457 6.62112006628147 1.12798659301916e-014
endloop
endfacet
facet normal 0.0 0.0 -1.0
outer loop
vertex 5.90314732238457 6.62112006628147 1.12798659301916e-014
vertex 9.70820393249936 33.9 0.0
vertex 6.25787589747565 6.07331096686772 1.12798659301916e-014
endloop
endfacet
facet normal 0.0 0.0 -1.0
outer loop
vertex 6.25787589747565 6.07331096686772 1.12798659301916e-014
vertex 9.70820393249936 33.9 0.0
vertex 6.45873396147011 5.45235749879217 1.12798659301916e-014
endloop
endfacet
facet normal 0.0 0.0 -1.0
outer loop
vertex 6.45873396147011 5.45235749879217 1.12798659301916e-014
vertex 9.70820393249936 33.9 0.0
vertex 6.49203336924036 4.80057661473006 1.12798659301916e-014
endloop
endfacet
facet normal 0.0 0.0 -1.0
outer loop
vertex 9.70820393249936 10.0 0.0
vertex 53.5851854342773 5.6470476127563 1.12798659301916e-014
vertex 53.5 5.0 1.12798659301916e-014
endloop
endfacet
facet normal 0.0 0.0 -1.0
outer loop
vertex 53.5851854342773 5.6470476127563 1.12798659301916e-014
vertex 9.70820393249936 10.0 0.0
vertex 53.8349364905389 6.25 1.12798659301916e-014
endloop
endfacet
facet normal 0.0 0.0 -1.0
outer loop
vertex 53.8349364905389 6.25 1.12798659301916e-014
vertex 9.70820393249936 10.0 0.0
vertex 54.2322330470336 6.76776695296637 1.12798659301916e-014
endloop
endfacet
facet normal 0.0 0.0 -1.0
outer loop
vertex 54.2322330470336 6.76776695296637 1.12798659301916e-014
vertex 9.70820393249936 10.0 0.0
vertex 54.75 7.1650635094611 1.12798659301916e-014
endloop
endfacet
facet normal 0.0 0.0 -1.0
outer loop
vertex 54.75 7.1650635094611 1.12798659301916e-014
vertex 9.70820393249936 10.0 0.0
vertex 60.0 10.0 0.0
endloop
endfacet
facet normal 0.0 0.0 -1.0
outer loop
vertex 54.75 7.1650635094611 1.12798659301916e-014
vertex 60.0 10.0 0.0
vertex 55.3529523872437 7.41481456572267 1.12798659301916e-014
endloop
endfacet
facet normal 0.0 0.0 -1.0
outer loop
vertex 55.3529523872437 7.41481456572267 1.12798659301916e-014
vertex 60.0 10.0 0.0
vertex 56.0 7.5 1.12798659301916e-014
endloop
endfacet
facet normal 0.0 0.0 -1.0
outer loop
vertex 56.0 7.5 1.12798659301916e-014
vertex 60.0 10.0 0.0
vertex 56.6470476127563 7.41481456572267 1.12798659301916e-014
endloop
endfacet
facet normal 0.0 0.0 -1.0
outer loop
vertex 56.6470476127563 7.41481456572267 1.12798659301916e-014
vertex 60.0 10.0 0.0
vertex 57.25 7.1650635094611 1.12798659301916e-014
endloop
endfacet
facet normal 0.0 0.0 -1.0
outer loop
vertex 57.25 7.1650635094611 1.12798659301916e-014
vertex 60.0 10.0 0.0
vertex 57.7677669529664 6.76776695296637 1.12798659301916e-014
endloop
endfacet
facet normal 0.0 0.0 -1.0
outer loop
vertex 57.7677669529664 6.76776695296637 1.12798659301916e-014
vertex 60.0 10.0 0.0
vertex 58.1650635094611 6.25 1.12798659301916e-014
endloop
endfacet
facet normal 0.0 0.0 -1.0
outer loop
vertex 58.1650635094611 6.25 1.12798659301916e-014
vertex 60.0 10.0 0.0
vertex 58.4148145657227 5.6470476127563 1.12798659301916e-014
endloop
endfacet
facet normal 0.0 0.0 -1.0
outer loop
vertex 58.4148145657227 5.6470476127563 1.12798659301916e-014
vertex 60.0 10.0 0.0
vertex 58.5 5.0 1.12798659301916e-014
endloop
endfacet
facet normal 0.0 0.0 -1.0
outer loop
vertex 0.0 0.0 0.0
vertex 3.80057661473005 2.50796663075964 1.12798659301916e-014
vertex 60.0 0.0 0.0
endloop
endfacet
facet normal 0.0 0.0 -1.0
outer loop
vertex 3.80057661473005 2.50796663075964 1.12798659301916e-014
vertex 0.0 0.0 0.0
vertex 3.16238610481136 2.64449517882325 1.12798659301916e-014
endloop
endfacet
facet normal 0.0 0.0 -1.0
outer loop
vertex 3.16238610481136 2.64449517882325 1.12798659301916e-014
vertex 0.0 0.0 0.0
vertex 2.58127759762735 2.94154748779429 1.12798659301916e-014
endloop
endfacet
facet normal 0.0 0.0 -1.0
outer loop
vertex 2.58127759762735 2.94154748779429 1.12798659301916e-014
vertex 0.0 0.0 0.0
vertex 2.09685267761542 3.37887993371853 1.12798659301916e-014
endloop
endfacet
facet normal 0.0 0.0 -1.0
outer loop
vertex 2.09685267761542 3.37887993371853 1.12798659301916e-014
vertex 0.0 0.0 0.0
vertex 1.74212410252435 3.92668903313228 1.12798659301916e-014
endloop
endfacet
facet normal 0.0 0.0 -1.0
outer loop
vertex 1.74212410252435 3.92668903313228 1.12798659301916e-014
vertex 0.0 0.0 0.0
vertex 1.54126603852989 4.54764250120783 1.12798659301916e-014
endloop
endfacet
facet normal 0.0 0.0 -1.0
outer loop
vertex 1.54126603852989 4.54764250120783 1.12798659301916e-014
vertex 0.0 0.0 0.0
vertex 1.51815514777112 5.0 1.12798659301916e-014
endloop
endfacet
facet normal 0.0 0.0 -1.0
outer loop
vertex 1.51815514777112 5.0 1.12798659301916e-014
vertex 0.0 0.0 0.0
vertex 1.50796663075964 5.19942338526994 1.12798659301916e-014
endloop
endfacet
facet normal 0.0 0.0 -1.0
outer loop
vertex 60.0 0.0 0.0
vertex 3.80057661473005 2.50796663075964 1.12798659301916e-014
vertex 4.45235749879217 2.54126603852989 1.12798659301916e-014
endloop
endfacet
facet normal 0.0 0.0 -1.0
outer loop
vertex 60.0 0.0 0.0
vertex 4.45235749879217 2.54126603852989 1.12798659301916e-014
vertex 5.07331096686772 2.74212410252435 1.12798659301916e-014
endloop
endfacet
facet normal 0.0 0.0 -1.0
outer loop
vertex 60.0 0.0 0.0
vertex 5.07331096686772 2.74212410252435 1.12798659301916e-014
vertex 5.62112006628146 3.09685267761542 1.12798659301916e-014
endloop
endfacet
facet normal 0.0 0.0 -1.0
outer loop
vertex 60.0 0.0 0.0
vertex 5.62112006628146 3.09685267761542 1.12798659301916e-014
vertex 6.05845251220571 3.58127759762735 1.12798659301916e-014
endloop
endfacet
facet normal 0.0 0.0 -1.0
outer loop
vertex 60.0 0.0 0.0
vertex 6.05845251220571 3.58127759762735 1.12798659301916e-014
vertex 6.35550482117675 4.16238610481136 1.12798659301916e-014
endloop
endfacet
facet normal 0.0 0.0 -1.0
outer loop
vertex 60.0 0.0 0.0
vertex 6.35550482117675 4.16238610481136 1.12798659301916e-014
vertex 6.49203336924036 4.80057661473006 1.12798659301916e-014
endloop
endfacet
facet normal 0.0 0.0 -1.0
outer loop
vertex 60.0 0.0 0.0
vertex 6.49203336924036 4.80057661473006 1.12798659301916e-014
vertex 9.70820393249936 10.0 0.0
endloop
endfacet
facet normal 0.0 0.0 -1.0
outer loop
vertex 9.70820393249936 10.0 0.0
vertex 6.49203336924036 4.80057661473006 1.12798659301916e-014
vertex 9.70820393249936 33.9 0.0
endloop
endfacet
facet normal 0.0 0.0 -1.0
outer loop
vertex 60.0 0.0 0.0
vertex 9.70820393249936 10.0 0.0
vertex 54.75 2.8349364905389 1.12798659301916e-014
endloop
endfacet
facet normal 0.0 0.0 -1.0
outer loop
vertex 54.75 2.8349364905389 1.12798659301916e-014
vertex 9.70820393249936 10.0 0.0
vertex 54.2322330470336 3.23223304703363 1.12798659301916e-014
endloop
endfacet
facet normal 0.0 0.0 -1.0
outer loop
vertex 54.2322330470336 3.23223304703363 1.12798659301916e-014
vertex 9.70820393249936 10.0 0.0
vertex 53.8349364905389 3.75 1.12798659301916e-014
endloop
endfacet
facet normal 0.0 0.0 -1.0
outer loop
vertex 53.8349364905389 3.75 1.12798659301916e-014
vertex 9.70820393249936 10.0 0.0
vertex 53.5851854342773 4.3529523872437 1.12798659301916e-014
endloop
endfacet
facet normal 0.0 0.0 -1.0
outer loop
vertex 53.5851854342773 4.3529523872437 1.12798659301916e-014
vertex 9.70820393249936 10.0 0.0
vertex 53.5 5.0 1.12798659301916e-014
endloop
endfacet
facet normal 0.0 0.0 -1.0
outer loop
vertex 60.0 0.0 0.0
vertex 54.75 2.8349364905389 1.12798659301916e-014
vertex 55.3529523872437 2.58518543427733 1.12798659301916e-014
endloop
endfacet
facet normal 0.0 0.0 -1.0
outer loop
vertex 60.0 0.0 0.0
vertex 55.3529523872437 2.58518543427733 1.12798659301916e-014
vertex 56.0 2.5 1.12798659301916e-014
endloop
endfacet
facet normal 0.0 0.0 -1.0
outer loop
vertex 60.0 0.0 0.0
vertex 56.0 2.5 1.12798659301916e-014
vertex 56.6470476127563 2.58518543427733 1.12798659301916e-014
endloop
endfacet
facet normal 0.0 0.0 -1.0
outer loop
vertex 60.0 0.0 0.0
vertex 56.6470476127563 2.58518543427733 1.12798659301916e-014
vertex 57.25 2.8349364905389 1.12798659301916e-014
endloop
endfacet
facet normal 0.0 0.0 -1.0
outer loop
vertex 60.0 0.0 0.0
vertex 57.25 2.8349364905389 1.12798659301916e-014
vertex 57.7677669529664 3.23223304703363 1.12798659301916e-014
endloop
endfacet
facet normal 0.0 0.0 -1.0
outer loop
vertex 60.0 0.0 0.0
vertex 57.7677669529664 3.23223304703363 1.12798659301916e-014
vertex 58.1650635094611 3.75 1.12798659301916e-014
endloop
endfacet
facet normal 0.0 0.0 -1.0
outer loop
vertex 60.0 0.0 0.0
vertex 58.1650635094611 3.75 1.12798659301916e-014
vertex 58.4148145657227 4.3529523872437 1.12798659301916e-014
endloop
endfacet
facet normal 0.0 0.0 -1.0
outer loop
vertex 60.0 0.0 0.0
vertex 58.4148145657227 4.3529523872437 1.12798659301916e-014
vertex 58.5 5.0 1.12798659301916e-014
endloop
endfacet
facet normal 0.0 0.0 -1.0
outer loop
vertex 60.0 0.0 0.0
vertex 58.5 5.0 1.12798659301916e-014
vertex 60.0 10.0 0.0
endloop
endfacet
facet normal 1.0 0.0 0.0
outer loop
vertex 9.70820393249936 33.9 0.0
vertex 9.70820393249936 10.0 6.0
vertex 9.70820393249936 10.0 0.0
endloop
endfacet
facet normal 1.0 0.0 0.0
outer loop
vertex 9.70820393249936 10.0 6.0
vertex 9.70820393249936 33.9 0.0
vertex 9.70820393249936 33.9 6.0
endloop
endfacet
facet normal 0.0 1.0 0.0
outer loop
vertex 9.70820393249936 33.9 6.0
vertex 9.70820393249936 33.9 0.0
vertex 6.0 33.9 6.0
endloop
endfacet
facet normal 0.0 1.0 0.0
outer loop
vertex 0.0 33.9 0.0
vertex 6.0 33.9 6.0
vertex 9.70820393249936 33.9 0.0
endloop
endfacet
facet normal 0.0 1.0 0.0
outer loop
vertex 6.0 33.9 6.0
vertex 0.0 33.9 0.0
vertex 0.0 33.9 16.0
endloop
endfacet
facet normal 0.0 1.0 0.0
outer loop
vertex 6.0 33.9 6.0
vertex 0.0 33.9 16.0
vertex 6.0 33.9 16.0
endloop
endfacet
facet normal -0.9422019284707 0.335045558075457 -1.2543119415134e-031
outer loop
vertex 6.35550482117675 4.16238610481136 6.0
vertex 6.05845251220571 3.58127759762735 1.12798659301916e-014
vertex 6.05845251220571 3.58127759762735 6.0
endloop
endfacet
facet normal -0.823381004882283 0.567488960949059 -1.46020422293333e-031
outer loop
vertex 6.05845251220571 3.58127759762735 1.12798659301916e-014
vertex 6.35550482117675 4.16238610481136 6.0
vertex 6.35550482117675 4.16238610481136 1.12798659301916e-014
endloop
endfacet
facet normal -0.996813347696145 0.0797693541079762 -9.62940374127826e-032
outer loop
vertex 6.49203336924036 4.80057661473006 6.0
vertex 6.35550482117675 4.16238610481136 1.12798659301916e-014
vertex 6.35550482117675 4.16238610481136 6.0
endloop
endfacet
facet normal -0.9422019284707 0.335045558075457 -1.2543119415134e-031
outer loop
vertex 6.35550482117675 4.16238610481136 1.12798659301916e-014
vertex 6.49203336924036 4.80057661473006 6.0
vertex 6.49203336924036 4.80057661473006 1.12798659301916e-014
endloop
endfacet
facet normal -0.983493584588043 -0.180942999516869 -6.05946011579651e-032
outer loop
vertex 6.45873396147011 5.45235749879217 6.0
vertex 6.49203336924036 4.80057661473006 1.12798659301916e-014
vertex 6.49203336924036 4.80057661473006 6.0
endloop
endfacet
facet normal -0.996813347696145 0.0797693541079762 -9.62940374127826e-032
outer loop
vertex 6.49203336924036 4.80057661473006 1.12798659301916e-014
vertex 6.45873396147011 5.45235749879217 6.0
vertex 6.45873396147011 5.45235749879217 1.12798659301916e-014
endloop
endfacet
facet normal -0.903150358990261 -0.429324386747087 -2.07657429715449e-032
outer loop
vertex 6.25787589747565 6.07331096686772 6.0
vertex 6.45873396147011 5.45235749879217 1.12798659301916e-014
vertex 6.45873396147011 5.45235749879217 6.0
endloop
endfacet
facet normal -0.983493584588043 -0.180942999516869 -6.05946011579651e-032
outer loop
vertex 6.45873396147011 5.45235749879217 1.12798659301916e-014
vertex 6.25787589747565 6.07331096686772 6.0
vertex 6.25787589747565 6.07331096686772 1.12798659301916e-014
endloop
endfacet
facet normal -0.76125892895383 -0.648448026512586 2.04782662813731e-032
outer loop
vertex 5.90314732238457 6.62112006628147 6.0
vertex 6.25787589747565 6.07331096686772 1.12798659301916e-014
vertex 6.25787589747565 6.07331096686772 6.0
endloop
endfacet
facet normal -0.903150358990261 -0.429324386747087 -2.07657429715449e-032
outer loop
vertex 6.25787589747565 6.07331096686772 1.12798659301916e-014
vertex 5.90314732238457 6.62112006628147 6.0
vertex 5.90314732238457 6.62112006628147 1.12798659301916e-014
endloop
endfacet
facet normal -0.76125892895383 -0.648448026512586 2.04782662813731e-032
outer loop
vertex 5.90314732238457 6.62112006628147 6.0
vertex 5.41872240237265 7.05845251220571 1.12798659301916e-014
vertex 5.90314732238457 6.62112006628147 1.12798659301916e-014
endloop
endfacet
facet normal -0.567488960949058 -0.823381004882283 6.03267155291506e-032
outer loop
vertex 5.41872240237265 7.05845251220571 1.12798659301916e-014
vertex 5.90314732238457 6.62112006628147 6.0
vertex 5.41872240237265 7.05845251220571 6.0
endloop
endfacet
facet normal -0.567488960949058 -0.823381004882283 6.03267155291506e-032
outer loop
vertex 5.41872240237265 7.05845251220571 6.0
vertex 4.83761389518864 7.35550482117675 1.12798659301916e-014
vertex 5.41872240237265 7.05845251220571 1.12798659301916e-014
endloop
endfacet
facet normal -0.335045558075457 -0.9422019284707 9.60639988082278e-032
outer loop
vertex 4.83761389518864 7.35550482117675 1.12798659301916e-014
vertex 5.41872240237265 7.05845251220571 6.0
vertex 4.83761389518864 7.35550482117675 6.0
endloop
endfacet
facet normal 0.998697461369736 0.0510233344034386 7.91212122242242e-032
outer loop
vertex 1.51815514777112 5.0 1.12798659301916e-014
vertex 1.54126603852989 4.54764250120783 6.0
vertex 1.54126603852989 4.54764250120783 1.12798659301916e-014
endloop
endfacet
facet normal 0.983493584588043 0.18094299951687 6.0594601157965e-032
outer loop
vertex 1.54126603852989 4.54764250120783 6.0
vertex 1.51815514777112 5.0 1.12798659301916e-014
vertex 1.51815514777112 5.0 6.0
endloop
endfacet
facet normal 0.983493584588043 0.18094299951687 6.0594601157965e-032
outer loop
vertex 1.54126603852989 4.54764250120783 1.12798659301916e-014
vertex 1.74212410252435 3.92668903313228 6.0
vertex 1.74212410252435 3.92668903313228 1.12798659301916e-014
endloop
endfacet
facet normal 0.903150358990261 0.429324386747087 2.0765742971545e-032
outer loop
vertex 1.74212410252435 3.92668903313228 6.0
vertex 1.54126603852989 4.54764250120783 1.12798659301916e-014
vertex 1.54126603852989 4.54764250120783 6.0
endloop
endfacet
facet normal 0.903150358990261 0.429324386747087 2.0765742971545e-032
outer loop
vertex 1.74212410252435 3.92668903313228 1.12798659301916e-014
vertex 2.09685267761542 3.37887993371853 6.0
vertex 2.09685267761542 3.37887993371853 1.12798659301916e-014
endloop
endfacet
facet normal 0.76125892895383 0.648448026512586 -2.0478266281373e-032
outer loop
vertex 2.09685267761542 3.37887993371853 6.0
vertex 1.74212410252435 3.92668903313228 1.12798659301916e-014
vertex 1.74212410252435 3.92668903313228 6.0
endloop
endfacet
facet normal 0.76125892895383 0.648448026512586 -2.0478266281373e-032
outer loop
vertex 2.09685267761542 3.37887993371853 6.0
vertex 2.58127759762735 2.94154748779429 1.12798659301916e-014
vertex 2.09685267761542 3.37887993371853 1.12798659301916e-014
endloop
endfacet
facet normal 0.567488960949058 0.823381004882283 -6.03267155291506e-032
outer loop
vertex 2.58127759762735 2.94154748779429 1.12798659301916e-014
vertex 2.09685267761542 3.37887993371853 6.0
vertex 2.58127759762735 2.94154748779429 6.0
endloop
endfacet
facet normal 0.567488960949058 0.823381004882283 -6.03267155291506e-032
outer loop
vertex 2.58127759762735 2.94154748779429 6.0
vertex 3.16238610481136 2.64449517882325 1.12798659301916e-014
vertex 2.58127759762735 2.94154748779429 1.12798659301916e-014
endloop
endfacet
facet normal 0.335045558075457 0.9422019284707 -9.60639988082277e-032
outer loop
vertex 3.16238610481136 2.64449517882325 1.12798659301916e-014
vertex 2.58127759762735 2.94154748779429 6.0
vertex 3.16238610481136 2.64449517882325 6.0
endloop
endfacet
facet normal 0.335045558075457 0.9422019284707 -9.60639988082277e-032
outer loop
vertex 3.16238610481136 2.64449517882325 6.0
vertex 3.80057661473005 2.50796663075964 1.12798659301916e-014
vertex 3.16238610481136 2.64449517882325 1.12798659301916e-014
endloop
endfacet
facet normal 0.0797693541079778 0.996813347696145 -1.25254679321788e-031
outer loop
vertex 3.80057661473005 2.50796663075964 1.12798659301916e-014
vertex 3.16238610481136 2.64449517882325 6.0
vertex 3.80057661473005 2.50796663075964 6.0
endloop
endfacet
facet normal 0.0797693541079778 0.996813347696145 -1.25254679321788e-031
outer loop
vertex 3.80057661473005 2.50796663075964 6.0
vertex 4.45235749879217 2.54126603852989 1.12798659301916e-014
vertex 3.80057661473005 2.50796663075964 1.12798659301916e-014
endloop
endfacet
facet normal -0.180942999516869 0.983493584588043 -1.45909460432713e-031
outer loop
vertex 4.45235749879217 2.54126603852989 1.12798659301916e-014
vertex 3.80057661473005 2.50796663075964 6.0
vertex 4.45235749879217 2.54126603852989 6.0
endloop
endfacet
facet normal -0.180942999516869 0.983493584588043 -1.45909460432713e-031
outer loop
vertex 4.45235749879217 2.54126603852989 6.0
vertex 5.07331096686772 2.74212410252435 1.12798659301916e-014
vertex 4.45235749879217 2.54126603852989 1.12798659301916e-014
endloop
endfacet
facet normal -0.429324386747087 0.903150358990261 -1.56620752941933e-031
outer loop
vertex 5.07331096686772 2.74212410252435 1.12798659301916e-014
vertex 4.45235749879217 2.54126603852989 6.0
vertex 5.07331096686772 2.74212410252435 6.0
endloop
endfacet
facet normal -0.429324386747087 0.903150358990261 -1.56620752941933e-031
outer loop
vertex 5.07331096686772 2.74212410252435 6.0
vertex 5.62112006628146 3.09685267761542 1.12798659301916e-014
vertex 5.07331096686772 2.74212410252435 1.12798659301916e-014
endloop
endfacet
facet normal -0.648448026512586 0.76125892895383 -1.56658599966193e-031
outer loop
vertex 5.62112006628146 3.09685267761542 1.12798659301916e-014
vertex 5.07331096686772 2.74212410252435 6.0
vertex 5.62112006628146 3.09685267761542 6.0
endloop
endfacet
facet normal -0.823381004882283 0.567488960949059 -1.46020422293333e-031
outer loop
vertex 6.05845251220571 3.58127759762735 6.0
vertex 5.62112006628146 3.09685267761542 1.12798659301916e-014
vertex 5.62112006628146 3.09685267761542 6.0
endloop
endfacet
facet normal -0.648448026512586 0.76125892895383 -1.56658599966193e-031
outer loop
vertex 5.62112006628146 3.09685267761542 1.12798659301916e-014
vertex 6.05845251220571 3.58127759762735 6.0
vertex 6.05845251220571 3.58127759762735 1.12798659301916e-014
endloop
endfacet
facet normal -0.335045558075457 -0.9422019284707 9.60639988082278e-032
outer loop
vertex 4.83761389518864 7.35550482117675 6.0
vertex 4.19942338526994 7.49203336924036 1.12798659301916e-014
vertex 4.83761389518864 7.35550482117675 1.12798659301916e-014
endloop
endfacet
facet normal -0.0797693541079775 -0.996813347696145 1.25254679321788e-031
outer loop
vertex 4.19942338526994 7.49203336924036 1.12798659301916e-014
vertex 4.83761389518864 7.35550482117675 6.0
vertex 4.19942338526994 7.49203336924036 6.0
endloop
endfacet
facet normal -0.0797693541079775 -0.996813347696145 1.25254679321788e-031
outer loop
vertex 4.19942338526994 7.49203336924036 6.0
vertex 3.54764250120783 7.45873396147011 1.12798659301916e-014
vertex 4.19942338526994 7.49203336924036 1.12798659301916e-014
endloop
endfacet
facet normal 0.18094299951687 -0.983493584588043 1.45909460432713e-031
outer loop
vertex 3.54764250120783 7.45873396147011 1.12798659301916e-014
vertex 4.19942338526994 7.49203336924036 6.0
vertex 3.54764250120783 7.45873396147011 6.0
endloop
endfacet
facet normal 0.18094299951687 -0.983493584588043 1.45909460432713e-031
outer loop
vertex 3.54764250120783 7.45873396147011 6.0
vertex 2.92668903313228 7.25787589747565 1.12798659301916e-014
vertex 3.54764250120783 7.45873396147011 1.12798659301916e-014
endloop
endfacet
facet normal 0.429324386747088 -0.903150358990261 1.56620752941933e-031
outer loop
vertex 2.92668903313228 7.25787589747565 1.12798659301916e-014
vertex 3.54764250120783 7.45873396147011 6.0
vertex 2.92668903313228 7.25787589747565 6.0
endloop
endfacet
facet normal 0.429324386747088 -0.903150358990261 1.56620752941933e-031
outer loop
vertex 2.92668903313228 7.25787589747565 6.0
vertex 2.37887993371853 6.90314732238458 1.12798659301916e-014
vertex 2.92668903313228 7.25787589747565 1.12798659301916e-014
endloop
endfacet
facet normal 0.648448026512586 -0.76125892895383 1.56658599966193e-031
outer loop
vertex 2.37887993371853 6.90314732238458 1.12798659301916e-014
vertex 2.92668903313228 7.25787589747565 6.0
vertex 2.37887993371853 6.90314732238458 6.0
endloop
endfacet
facet normal 0.648448026512586 -0.76125892895383 1.56658599966193e-031
outer loop
vertex 2.37887993371853 6.90314732238458 1.12798659301916e-014
vertex 1.94154748779429 6.41872240237265 6.0
vertex 1.94154748779429 6.41872240237265 1.12798659301916e-014
endloop
endfacet
facet normal 0.823381004882283 -0.567488960949058 1.46020422293333e-031
outer loop
vertex 1.94154748779429 6.41872240237265 6.0
vertex 2.37887993371853 6.90314732238458 1.12798659301916e-014
vertex 2.37887993371853 6.90314732238458 6.0
endloop
endfacet
facet normal 0.823381004882283 -0.567488960949058 1.46020422293333e-031
outer loop
vertex 1.94154748779429 6.41872240237265 1.12798659301916e-014
vertex 1.64449517882325 5.83761389518864 6.0
vertex 1.64449517882325 5.83761389518864 1.12798659301916e-014
endloop
endfacet
facet normal 0.9422019284707 -0.335045558075457 1.2543119415134e-031
outer loop
vertex 1.64449517882325 5.83761389518864 6.0
vertex 1.94154748779429 6.41872240237265 1.12798659301916e-014
vertex 1.94154748779429 6.41872240237265 6.0
endloop
endfacet
facet normal 0.9422019284707 -0.335045558075457 1.2543119415134e-031
outer loop
vertex 1.64449517882325 5.83761389518864 1.12798659301916e-014
vertex 1.50796663075964 5.19942338526994 6.0
vertex 1.50796663075964 5.19942338526994 1.12798659301916e-014
endloop
endfacet
facet normal 0.996813347696145 -0.0797693541079782 9.62940374127829e-032
outer loop
vertex 1.50796663075964 5.19942338526994 6.0
vertex 1.64449517882325 5.83761389518864 1.12798659301916e-014
vertex 1.64449517882325 5.83761389518864 6.0
endloop
endfacet
facet normal 0.996813347696145 -0.0797693541079782 9.62940374127829e-032
outer loop
vertex 1.50796663075964 5.19942338526994 1.12798659301916e-014
vertex 1.51815514777112 5.0 6.0
vertex 1.51815514777112 5.0 1.12798659301916e-014
endloop
endfacet
facet normal 0.998697461369736 0.0510233344034371 7.91212122242244e-032
outer loop
vertex 1.51815514777112 5.0 6.0
vertex 1.50796663075964 5.19942338526994 1.12798659301916e-014
vertex 1.50796663075964 5.19942338526994 6.0
endloop
endfacet
facet normal 0.707106781186548 -0.707106781186547 -3.74870819809775e-032
outer loop
vertex 54.2322330470336 6.76776695296637 1.12798659301916e-014
vertex 53.8349364905389 6.25 6.0
vertex 53.8349364905389 6.25 1.12798659301916e-014
endloop
endfacet
facet normal 0.866025403784439 -0.5 -2.65073698756452e-032
outer loop
vertex 53.8349364905389 6.25 6.0
vertex 54.2322330470336 6.76776695296637 1.12798659301916e-014
vertex 54.2322330470336 6.76776695296637 6.0
endloop
endfacet
facet normal 0.866025403784439 -0.5 -2.65073698756452e-032
outer loop
vertex 53.8349364905389 6.25 1.12798659301916e-014
vertex 53.5851854342773 5.6470476127563 6.0
vertex 53.5851854342773 5.6470476127563 1.12798659301916e-014
endloop
endfacet
facet normal 0.965925826289069 -0.258819045102518 -1.37212243187875e-032
outer loop
vertex 53.5851854342773 5.6470476127563 6.0
vertex 53.8349364905389 6.25 1.12798659301916e-014
vertex 53.8349364905389 6.25 6.0
endloop
endfacet
facet normal -1.0 1.96044417704232e-016 3.07546147072672e-047
outer loop
vertex 58.5 5.0 6.0
vertex 58.4148145657227 4.3529523872437 1.12798659301916e-014
vertex 58.4148145657227 4.3529523872437 6.0
endloop
endfacet
facet normal -0.965925826289069 0.258819045102518 1.37212243187875e-032
outer loop
vertex 58.4148145657227 4.3529523872437 1.12798659301916e-014
vertex 58.5 5.0 6.0
vertex 58.5 5.0 1.12798659301916e-014
endloop
endfacet
facet normal -0.965925826289069 -0.258819045102518 -1.37212243187875e-032
outer loop
vertex 58.4148145657227 5.6470476127563 6.0
vertex 58.5 5.0 1.12798659301916e-014
vertex 58.5 5.0 6.0
endloop
endfacet
facet normal -1.0 1.96044417704232e-016 3.07546147072672e-047
outer loop
vertex 58.5 5.0 1.12798659301916e-014
vertex 58.4148145657227 5.6470476127563 6.0
vertex 58.4148145657227 5.6470476127563 1.12798659301916e-014
endloop
endfacet
facet normal -0.866025403784438 -0.500000000000001 -2.65073698756452e-032
outer loop
vertex 58.1650635094611 6.25 6.0
vertex 58.4148145657227 5.6470476127563 1.12798659301916e-014
vertex 58.4148145657227 5.6470476127563 6.0
endloop
endfacet
facet normal -0.965925826289069 -0.258819045102518 -1.37212243187875e-032
outer loop
vertex 58.4148145657227 5.6470476127563 1.12798659301916e-014
vertex 58.1650635094611 6.25 6.0
vertex 58.1650635094611 6.25 1.12798659301916e-014
endloop
endfacet
facet normal -0.707106781186548 -0.707106781186547 -3.74870819809774e-032
outer loop
vertex 57.7677669529664 6.76776695296637 6.0
vertex 58.1650635094611 6.25 1.12798659301916e-014
vertex 58.1650635094611 6.25 6.0
endloop
endfacet
facet normal -0.866025403784438 -0.500000000000001 -2.65073698756452e-032
outer loop
vertex 58.1650635094611 6.25 1.12798659301916e-014
vertex 57.7677669529664 6.76776695296637 6.0
vertex 57.7677669529664 6.76776695296637 1.12798659301916e-014
endloop
endfacet
facet normal -0.707106781186548 -0.707106781186547 -3.74870819809774e-032
outer loop
vertex 57.7677669529664 6.76776695296637 6.0
vertex 57.25 7.1650635094611 1.12798659301916e-014
vertex 57.7677669529664 6.76776695296637 1.12798659301916e-014
endloop
endfacet
facet normal -0.499999999999997 -0.86602540378444 -4.59121113996383e-032
outer loop
vertex 57.25 7.1650635094611 1.12798659301916e-014
vertex 57.7677669529664 6.76776695296637 6.0
vertex 57.25 7.1650635094611 6.0
endloop
endfacet
facet normal -0.499999999999997 -0.86602540378444 -4.59121113996383e-032
outer loop
vertex 57.25 7.1650635094611 6.0
vertex 56.6470476127563 7.41481456572267 1.12798659301916e-014
vertex 57.25 7.1650635094611 1.12798659301916e-014
endloop
endfacet
facet normal -0.258819045102521 -0.965925826289068 -5.12083062997651e-032
outer loop
vertex 56.6470476127563 7.41481456572267 1.12798659301916e-014
vertex 57.25 7.1650635094611 6.0
vertex 56.6470476127563 7.41481456572267 6.0
endloop
endfacet
facet normal -0.258819045102521 -0.965925826289068 -5.12083062997651e-032
outer loop
vertex 56.6470476127563 7.41481456572267 6.0
vertex 56.0 7.5 1.12798659301916e-014
vertex 56.6470476127563 7.41481456572267 1.12798659301916e-014
endloop
endfacet
facet normal 0.0 -1.0 -5.30147397512904e-032
outer loop
vertex 56.0 7.5 1.12798659301916e-014
vertex 56.6470476127563 7.41481456572267 6.0
vertex 56.0 7.5 6.0
endloop
endfacet
facet normal 0.0 -1.0 -5.30147397512904e-032
outer loop
vertex 56.0 7.5 6.0
vertex 55.3529523872437 7.41481456572267 1.12798659301916e-014
vertex 56.0 7.5 1.12798659301916e-014
endloop
endfacet
facet normal 0.258819045102522 -0.965925826289068 -5.12083062997651e-032
outer loop
vertex 55.3529523872437 7.41481456572267 1.12798659301916e-014
vertex 56.0 7.5 6.0
vertex 55.3529523872437 7.41481456572267 6.0
endloop
endfacet
facet normal 0.258819045102522 -0.965925826289068 -5.12083062997651e-032
outer loop
vertex 55.3529523872437 7.41481456572267 6.0
vertex 54.75 7.1650635094611 1.12798659301916e-014
vertex 55.3529523872437 7.41481456572267 1.12798659301916e-014
endloop
endfacet
facet normal 0.499999999999998 -0.86602540378444 -4.59121113996383e-032
outer loop
vertex 54.75 7.1650635094611 1.12798659301916e-014
vertex 55.3529523872437 7.41481456572267 6.0
vertex 54.75 7.1650635094611 6.0
endloop
endfacet
facet normal 0.499999999999998 -0.86602540378444 -4.59121113996383e-032
outer loop
vertex 54.75 7.1650635094611 6.0
vertex 54.2322330470336 6.76776695296637 1.12798659301916e-014
vertex 54.75 7.1650635094611 1.12798659301916e-014
endloop
endfacet
facet normal 0.707106781186548 -0.707106781186547 -3.74870819809775e-032
outer loop
vertex 54.2322330470336 6.76776695296637 1.12798659301916e-014
vertex 54.75 7.1650635094611 6.0
vertex 54.2322330470336 6.76776695296637 6.0
endloop
endfacet
facet normal 0.965925826289069 -0.258819045102518 -1.37212243187875e-032
outer loop
vertex 53.5851854342773 5.6470476127563 1.12798659301916e-014
vertex 53.5 5.0 6.0
vertex 53.5 5.0 1.12798659301916e-014
endloop
endfacet
facet normal 1.0 -1.33666648434703e-016 -2.76791532365405e-047
outer loop
vertex 53.5 5.0 6.0
vertex 53.5851854342773 5.6470476127563 1.12798659301916e-014
vertex 53.5851854342773 5.6470476127563 6.0
endloop
endfacet
facet normal 1.0 -1.33666648434703e-016 -2.76791532365405e-047
outer loop
vertex 53.5 5.0 1.12798659301916e-014
vertex 53.5851854342773 4.3529523872437 6.0
vertex 53.5851854342773 4.3529523872437 1.12798659301916e-014
endloop
endfacet
facet normal 0.965925826289069 0.258819045102518 1.37212243187875e-032
outer loop
vertex 53.5851854342773 4.3529523872437 6.0
vertex 53.5 5.0 1.12798659301916e-014
vertex 53.5 5.0 6.0
endloop
endfacet
facet normal 0.965925826289069 0.258819045102518 1.37212243187875e-032
outer loop
vertex 53.5851854342773 4.3529523872437 1.12798659301916e-014
vertex 53.8349364905389 3.75 6.0
vertex 53.8349364905389 3.75 1.12798659301916e-014
endloop
endfacet
facet normal 0.866025403784439 0.5 2.65073698756452e-032
outer loop
vertex 53.8349364905389 3.75 6.0
vertex 53.5851854342773 4.3529523872437 1.12798659301916e-014
vertex 53.5851854342773 4.3529523872437 6.0
endloop
endfacet
facet normal 0.866025403784439 0.5 2.65073698756452e-032
outer loop
vertex 53.8349364905389 3.75 1.12798659301916e-014
vertex 54.2322330470336 3.23223304703363 6.0
vertex 54.2322330470336 3.23223304703363 1.12798659301916e-014
endloop
endfacet
facet normal 0.707106781186548 0.707106781186547 3.74870819809775e-032
outer loop
vertex 54.2322330470336 3.23223304703363 6.0
vertex 53.8349364905389 3.75 1.12798659301916e-014
vertex 53.8349364905389 3.75 6.0
endloop
endfacet
facet normal 0.707106781186548 0.707106781186547 3.74870819809775e-032
outer loop
vertex 54.2322330470336 3.23223304703363 6.0
vertex 54.75 2.8349364905389 1.12798659301916e-014
vertex 54.2322330470336 3.23223304703363 1.12798659301916e-014
endloop
endfacet
facet normal 0.499999999999998 0.86602540378444 4.59121113996383e-032
outer loop
vertex 54.75 2.8349364905389 1.12798659301916e-014
vertex 54.2322330470336 3.23223304703363 6.0
vertex 54.75 2.8349364905389 6.0
endloop
endfacet
facet normal 0.499999999999998 0.86602540378444 4.59121113996383e-032
outer loop
vertex 54.75 2.8349364905389 6.0
vertex 55.3529523872437 2.58518543427733 1.12798659301916e-014
vertex 54.75 2.8349364905389 1.12798659301916e-014
endloop
endfacet
facet normal 0.258819045102521 0.965925826289068 5.12083062997651e-032
outer loop
vertex 55.3529523872437 2.58518543427733 1.12798659301916e-014
vertex 54.75 2.8349364905389 6.0
vertex 55.3529523872437 2.58518543427733 6.0
endloop
endfacet
facet normal 0.258819045102521 0.965925826289068 5.12083062997651e-032
outer loop
vertex 55.3529523872437 2.58518543427733 6.0
vertex 56.0 2.5 1.12798659301916e-014
vertex 55.3529523872437 2.58518543427733 1.12798659301916e-014
endloop
endfacet
facet normal -2.67333296869407e-016 1.0 5.30147397512904e-032
outer loop
vertex 56.0 2.5 1.12798659301916e-014
vertex 55.3529523872437 2.58518543427733 6.0
vertex 56.0 2.5 6.0
endloop
endfacet
facet normal -2.67333296869407e-016 1.0 5.30147397512904e-032
outer loop
vertex 56.0 2.5 6.0
vertex 56.6470476127563 2.58518543427733 1.12798659301916e-014
vertex 56.0 2.5 1.12798659301916e-014
endloop
endfacet
facet normal -0.258819045102522 0.965925826289068 5.12083062997651e-032
outer loop
vertex 56.6470476127563 2.58518543427733 1.12798659301916e-014
vertex 56.0 2.5 6.0
vertex 56.6470476127563 2.58518543427733 6.0
endloop
endfacet
facet normal -0.258819045102522 0.965925826289068 5.12083062997651e-032
outer loop
vertex 56.6470476127563 2.58518543427733 6.0
vertex 57.25 2.8349364905389 1.12798659301916e-014
vertex 56.6470476127563 2.58518543427733 1.12798659301916e-014
endloop
endfacet
facet normal -0.499999999999998 0.86602540378444 4.59121113996383e-032
outer loop
vertex 57.25 2.8349364905389 1.12798659301916e-014
vertex 56.6470476127563 2.58518543427733 6.0
vertex 57.25 2.8349364905389 6.0
endloop
endfacet
facet normal -0.499999999999998 0.86602540378444 4.59121113996383e-032
outer loop
vertex 57.25 2.8349364905389 6.0
vertex 57.7677669529664 3.23223304703363 1.12798659301916e-014
vertex 57.25 2.8349364905389 1.12798659301916e-014
endloop
endfacet
facet normal -0.707106781186548 0.707106781186547 3.74870819809775e-032
outer loop
vertex 57.7677669529664 3.23223304703363 1.12798659301916e-014
vertex 57.25 2.8349364905389 6.0
vertex 57.7677669529664 3.23223304703363 6.0
endloop
endfacet
facet normal -0.866025403784439 0.5 2.65073698756452e-032
outer loop
vertex 58.1650635094611 3.75 6.0
vertex 57.7677669529664 3.23223304703363 1.12798659301916e-014
vertex 57.7677669529664 3.23223304703363 6.0
endloop
endfacet
facet normal -0.707106781186548 0.707106781186547 3.74870819809775e-032
outer loop
vertex 57.7677669529664 3.23223304703363 1.12798659301916e-014
vertex 58.1650635094611 3.75 6.0
vertex 58.1650635094611 3.75 1.12798659301916e-014
endloop
endfacet
facet normal -0.965925826289069 0.258819045102518 1.37212243187875e-032
outer loop
vertex 58.4148145657227 4.3529523872437 6.0
vertex 58.1650635094611 3.75 1.12798659301916e-014
vertex 58.1650635094611 3.75 6.0
endloop
endfacet
facet normal -0.866025403784439 0.5 2.65073698756452e-032
outer loop
vertex 58.1650635094611 3.75 1.12798659301916e-014
vertex 58.4148145657227 4.3529523872437 6.0
vertex 58.4148145657227 4.3529523872437 1.12798659301916e-014
endloop
endfacet
facet normal 0.0 -1.0 0.0
outer loop
vertex 6.0 10.0 16.0
vertex 0.0 10.0 6.0
vertex 6.0 10.0 6.0
endloop
endfacet
facet normal 0.0 -1.0 0.0
outer loop
vertex 0.0 10.0 6.0
vertex 6.0 10.0 16.0
vertex 0.0 10.0 16.0
endloop
endfacet
facet normal 0.0 0.0 1.0
outer loop
vertex 6.0 10.0 16.0
vertex 0.0 33.9 16.0
vertex 0.0 10.0 16.0
endloop
endfacet
facet normal 0.0 0.0 1.0
outer loop
vertex 0.0 33.9 16.0
vertex 6.0 10.0 16.0
vertex 6.0 33.9 16.0
endloop
endfacet
facet normal 1.0 0.0 0.0
outer loop
vertex 6.0 10.0 6.0
vertex 6.0 11.5851854342773 10.3529523872437
vertex 6.0 10.0 16.0
endloop
endfacet
facet normal 1.0 0.0 0.0
outer loop
vertex 6.0 11.5851854342773 10.3529523872437
vertex 6.0 10.0 6.0
vertex 6.0 11.8349364905389 9.75
endloop
endfacet
facet normal 1.0 0.0 0.0
outer loop
vertex 6.0 11.8349364905389 9.75
vertex 6.0 10.0 6.0
vertex 6.0 12.2322330470336 9.23223304703363
endloop
endfacet
facet normal 1.0 0.0 0.0
outer loop
vertex 6.0 12.2322330470336 9.23223304703363
vertex 6.0 10.0 6.0
vertex 6.0 12.75 8.8349364905389
endloop
endfacet
facet normal 1.0 0.0 0.0
outer loop
vertex 6.0 12.75 8.8349364905389
vertex 6.0 10.0 6.0
vertex 6.0 13.3529523872437 8.58518543427733
endloop
endfacet
facet normal 1.0 0.0 0.0
outer loop
vertex 6.0 13.3529523872437 8.58518543427733
vertex 6.0 10.0 6.0
vertex 6.0 14.0 8.5
endloop
endfacet
facet normal 1.0 0.0 0.0
outer loop
vertex 6.0 14.0 8.5
vertex 6.0 10.0 6.0
vertex 6.0 33.9 6.0
endloop
endfacet
facet normal 1.0 0.0 0.0
outer loop
vertex 6.0 10.0 16.0
vertex 6.0 11.5851854342773 10.3529523872437
vertex 6.0 11.5 11.0
endloop
endfacet
facet normal 1.0 0.0 0.0
outer loop
vertex 6.0 14.0 8.5
vertex 6.0 33.9 6.0
vertex 6.0 14.6470476127563 8.58518543427733
endloop
endfacet
facet normal 1.0 0.0 0.0
outer loop
vertex 6.0 14.6470476127563 8.58518543427733
vertex 6.0 33.9 6.0
vertex 6.0 15.25 8.8349364905389
endloop
endfacet
facet normal 1.0 0.0 0.0
outer loop
vertex 6.0 15.25 8.8349364905389
vertex 6.0 33.9 6.0
vertex 6.0 15.7677669529664 9.23223304703363
endloop
endfacet
facet normal 1.0 0.0 0.0
outer loop
vertex 6.0 15.7677669529664 9.23223304703363
vertex 6.0 33.9 6.0
vertex 6.0 16.1650635094611 9.75
endloop
endfacet
facet normal 1.0 0.0 0.0
outer loop
vertex 6.0 16.1650635094611 9.75
vertex 6.0 33.9 6.0
vertex 6.0 16.4148145657227 10.3529523872437
endloop
endfacet
facet normal 1.0 0.0 0.0
outer loop
vertex 6.0 16.4148145657227 10.3529523872437
vertex 6.0 33.9 6.0
vertex 6.0 16.5 11.0
endloop
endfacet
facet normal 1.0 0.0 0.0
outer loop
vertex 6.0 16.5 11.0
vertex 6.0 33.9 6.0
vertex 6.0 28.65 8.8349364905389
endloop
endfacet
facet normal 1.0 0.0 0.0
outer loop
vertex 6.0 16.5 11.0
vertex 6.0 28.65 8.8349364905389
vertex 6.0 28.1322330470336 9.23223304703363
endloop
endfacet
facet normal 1.0 0.0 0.0
outer loop
vertex 6.0 16.5 11.0
vertex 6.0 28.1322330470336 9.23223304703363
vertex 6.0 27.7349364905389 9.75
endloop
endfacet
facet normal 1.0 0.0 0.0
outer loop
vertex 6.0 16.5 11.0
vertex 6.0 27.7349364905389 9.75
vertex 6.0 27.4851854342773 10.3529523872437
endloop
endfacet
facet normal 1.0 0.0 0.0
outer loop
vertex 6.0 16.5 11.0
vertex 6.0 27.4851854342773 10.3529523872437
vertex 6.0 27.4 11.0
endloop
endfacet
facet normal 1.0 0.0 0.0
outer loop
vertex 6.0 28.65 8.8349364905389
vertex 6.0 33.9 6.0
vertex 6.0 29.2529523872437 8.58518543427733
endloop
endfacet
facet normal 1.0 0.0 0.0
outer loop
vertex 6.0 29.2529523872437 8.58518543427733
vertex 6.0 33.9 6.0
vertex 6.0 29.9 8.5
endloop
endfacet
facet normal 1.0 0.0 0.0
outer loop
vertex 6.0 29.9 8.5
vertex 6.0 33.9 6.0
vertex 6.0 30.5470476127563 8.58518543427733
endloop
endfacet
facet normal 1.0 0.0 0.0
outer loop
vertex 6.0 30.5470476127563 8.58518543427733
vertex 6.0 33.9 6.0
vertex 6.0 31.15 8.8349364905389
endloop
endfacet
facet normal 1.0 0.0 0.0
outer loop
vertex 6.0 31.15 8.8349364905389
vertex 6.0 33.9 6.0
vertex 6.0 31.6677669529664 9.23223304703363
endloop
endfacet
facet normal 1.0 0.0 0.0
outer loop
vertex 6.0 31.6677669529664 9.23223304703363
vertex 6.0 33.9 6.0
vertex 6.0 32.0650635094611 9.75
endloop
endfacet
facet normal 1.0 0.0 0.0
outer loop
vertex 6.0 32.0650635094611 9.75
vertex 6.0 33.9 6.0
vertex 6.0 32.3148145657227 10.3529523872437
endloop
endfacet
facet normal 1.0 0.0 0.0
outer loop
vertex 6.0 32.3148145657227 10.3529523872437
vertex 6.0 33.9 6.0
vertex 6.0 32.4 11.0
endloop
endfacet
facet normal 1.0 0.0 0.0
outer loop
vertex 6.0 10.0 16.0
vertex 6.0 14.0 13.5
vertex 6.0 33.9 16.0
endloop
endfacet
facet normal 1.0 0.0 0.0
outer loop
vertex 6.0 14.0 13.5
vertex 6.0 10.0 16.0
vertex 6.0 13.3529523872437 13.4148145657227
endloop
endfacet
facet normal 1.0 0.0 0.0
outer loop
vertex 6.0 13.3529523872437 13.4148145657227
vertex 6.0 10.0 16.0
vertex 6.0 12.75 13.1650635094611
endloop
endfacet
facet normal 1.0 0.0 0.0
outer loop
vertex 6.0 12.75 13.1650635094611
vertex 6.0 10.0 16.0
vertex 6.0 12.2322330470336 12.7677669529664
endloop
endfacet
facet normal 1.0 0.0 0.0
outer loop
vertex 6.0 12.2322330470336 12.7677669529664
vertex 6.0 10.0 16.0
vertex 6.0 11.8349364905389 12.25
endloop
endfacet
facet normal 1.0 0.0 0.0
outer loop
vertex 6.0 11.8349364905389 12.25
vertex 6.0 10.0 16.0
vertex 6.0 11.5851854342773 11.6470476127563
endloop
endfacet
facet normal 1.0 0.0 0.0
outer loop
vertex 6.0 11.5851854342773 11.6470476127563
vertex 6.0 10.0 16.0
vertex 6.0 11.5 11.0
endloop
endfacet
facet normal 1.0 0.0 0.0
outer loop
vertex 6.0 33.9 16.0
vertex 6.0 14.0 13.5
vertex 6.0 14.6470476127563 13.4148145657227
endloop
endfacet
facet normal 1.0 0.0 0.0
outer loop
vertex 6.0 33.9 16.0
vertex 6.0 14.6470476127563 13.4148145657227
vertex 6.0 15.25 13.1650635094611
endloop
endfacet
facet normal 1.0 0.0 0.0
outer loop
vertex 6.0 33.9 16.0
vertex 6.0 15.25 13.1650635094611
vertex 6.0 15.7677669529664 12.7677669529664
endloop
endfacet
facet normal 1.0 0.0 0.0
outer loop
vertex 6.0 33.9 16.0
vertex 6.0 15.7677669529664 12.7677669529664
vertex 6.0 16.1650635094611 12.25
endloop
endfacet
facet normal 1.0 0.0 0.0
outer loop
vertex 6.0 33.9 16.0
vertex 6.0 16.1650635094611 12.25
vertex 6.0 16.4148145657227 11.6470476127563
endloop
endfacet
facet normal 1.0 0.0 0.0
outer loop
vertex 6.0 33.9 16.0
vertex 6.0 16.4148145657227 11.6470476127563
vertex 6.0 16.5 11.0
endloop
endfacet
facet normal 1.0 0.0 0.0
outer loop
vertex 6.0 33.9 16.0
vertex 6.0 16.5 11.0
vertex 6.0 28.65 13.1650635094611
endloop
endfacet
facet normal 1.0 0.0 0.0
outer loop
vertex 6.0 28.65 13.1650635094611
vertex 6.0 16.5 11.0
vertex 6.0 28.1322330470336 12.7677669529664
endloop
endfacet
facet normal 1.0 0.0 0.0
outer loop
vertex 6.0 28.1322330470336 12.7677669529664
vertex 6.0 16.5 11.0
vertex 6.0 27.7349364905389 12.25
endloop
endfacet
facet normal 1.0 0.0 0.0
outer loop
vertex 6.0 27.7349364905389 12.25
vertex 6.0 16.5 11.0
vertex 6.0 27.4851854342773 11.6470476127563
endloop
endfacet
facet normal 1.0 0.0 0.0
outer loop
vertex 6.0 27.4851854342773 11.6470476127563
vertex 6.0 16.5 11.0
vertex 6.0 27.4 11.0
endloop
endfacet
facet normal 1.0 0.0 0.0
outer loop
vertex 6.0 33.9 16.0
vertex 6.0 28.65 13.1650635094611
vertex 6.0 29.2529523872437 13.4148145657227
endloop
endfacet
facet normal 1.0 0.0 0.0
outer loop
vertex 6.0 33.9 16.0
vertex 6.0 29.2529523872437 13.4148145657227
vertex 6.0 29.9 13.5
endloop
endfacet
facet normal 1.0 0.0 0.0
outer loop
vertex 6.0 33.9 16.0
vertex 6.0 29.9 13.5
vertex 6.0 30.5470476127563 13.4148145657227
endloop
endfacet
facet normal 1.0 0.0 0.0
outer loop
vertex 6.0 33.9 16.0
vertex 6.0 30.5470476127563 13.4148145657227
vertex 6.0 31.15 13.1650635094611
endloop
endfacet
facet normal 1.0 0.0 0.0
outer loop
vertex 6.0 33.9 16.0
vertex 6.0 31.15 13.1650635094611
vertex 6.0 31.6677669529664 12.7677669529664
endloop
endfacet
facet normal 1.0 0.0 0.0
outer loop
vertex 6.0 33.9 16.0
vertex 6.0 31.6677669529664 12.7677669529664
vertex 6.0 32.0650635094611 12.25
endloop
endfacet
facet normal 1.0 0.0 0.0
outer loop
vertex 6.0 33.9 16.0
vertex 6.0 32.0650635094611 12.25
vertex 6.0 32.3148145657227 11.6470476127563
endloop
endfacet
facet normal 1.0 0.0 0.0
outer loop
vertex 6.0 33.9 16.0
vertex 6.0 32.3148145657227 11.6470476127563
vertex 6.0 32.4 11.0
endloop
endfacet
facet normal 1.0 0.0 0.0
outer loop
vertex 6.0 33.9 16.0
vertex 6.0 32.4 11.0
vertex 6.0 33.9 6.0
endloop
endfacet
facet normal 6.62684246891133e-032 0.866025403784437 -0.500000000000003
outer loop
vertex 1.19848575508286e-014 27.7349364905389 12.25
vertex 6.0 27.4851854342773 11.6470476127563
vertex 1.19848575508286e-014 27.4851854342773 11.6470476127563
endloop
endfacet
facet normal 3.43030607969692e-032 0.965925826289068 -0.258819045102522
outer loop
vertex 6.0 27.4851854342773 11.6470476127563
vertex 1.19848575508286e-014 27.7349364905389 12.25
vertex 6.0 27.7349364905389 12.25
endloop
endfacet
facet normal 3.43030607969692e-032 0.965925826289068 -0.258819045102522
outer loop
vertex 1.19848575508286e-014 27.4851854342773 11.6470476127563
vertex 6.0 27.4 11.0
vertex 1.19848575508286e-014 27.4 11.0
endloop
endfacet
facet normal -5.85216382715427e-046 1.0 4.1614883212671e-015
outer loop
vertex 6.0 27.4 11.0
vertex 1.19848575508286e-014 27.4851854342773 11.6470476127563
vertex 6.0 27.4851854342773 11.6470476127563
endloop
endfacet
facet normal 9.37177049524433e-032 0.707106781186549 -0.707106781186546
outer loop
vertex 1.19848575508286e-014 28.1322330470336 12.7677669529664
vertex 6.0 27.7349364905389 12.25
vertex 1.19848575508286e-014 27.7349364905389 12.25
endloop
endfacet
facet normal 6.62684246891133e-032 0.866025403784437 -0.500000000000003
outer loop
vertex 6.0 27.7349364905389 12.25
vertex 1.19848575508286e-014 28.1322330470336 12.7677669529664
vertex 6.0 28.1322330470336 12.7677669529664
endloop
endfacet
facet normal -5.85216382715427e-046 1.0 4.1614883212671e-015
outer loop
vertex 1.19848575508286e-014 27.4 11.0
vertex 6.0 27.4851854342773 10.3529523872437
vertex 1.19848575508286e-014 27.4851854342773 10.3529523872437
endloop
endfacet
facet normal -3.43030607969693e-032 0.965925826289068 0.258819045102523
outer loop
vertex 6.0 27.4851854342773 10.3529523872437
vertex 1.19848575508286e-014 27.4 11.0
vertex 6.0 27.4 11.0
endloop
endfacet
facet normal -3.43030607969693e-032 0.965925826289068 0.258819045102523
outer loop
vertex 1.19848575508286e-014 27.4851854342773 10.3529523872437
vertex 6.0 27.7349364905389 9.75
vertex 1.19848575508286e-014 27.7349364905389 9.75
endloop
endfacet
facet normal -6.6268424689113e-032 0.866025403784439 0.5
outer loop
vertex 6.0 27.7349364905389 9.75
vertex 1.19848575508286e-014 27.4851854342773 10.3529523872437
vertex 6.0 27.4851854342773 10.3529523872437
endloop
endfacet
facet normal -6.6268424689113e-032 0.866025403784439 0.5
outer loop
vertex 1.19848575508286e-014 27.7349364905389 9.75
vertex 6.0 28.1322330470336 9.23223304703363
vertex 1.19848575508286e-014 28.1322330470336 9.23223304703363
endloop
endfacet
facet normal -9.37177049524437e-032 0.707106781186547 0.707106781186548
outer loop
vertex 6.0 28.1322330470336 9.23223304703363
vertex 1.19848575508286e-014 27.7349364905389 9.75
vertex 6.0 27.7349364905389 9.75
endloop
endfacet
facet normal -9.37177049524437e-032 0.707106781186547 0.707106781186548
outer loop
vertex 6.0 28.1322330470336 9.23223304703363
vertex 1.19848575508286e-014 28.65 8.8349364905389
vertex 1.19848575508286e-014 28.1322330470336 9.23223304703363
endloop
endfacet
facet normal -1.14780278499095e-031 0.5 0.866025403784439
outer loop
vertex 1.19848575508286e-014 28.65 8.8349364905389
vertex 6.0 28.1322330470336 9.23223304703363
vertex 6.0 28.65 8.8349364905389
endloop
endfacet
facet normal -1.14780278499095e-031 0.5 0.866025403784439
outer loop
vertex 6.0 28.65 8.8349364905389
vertex 1.19848575508286e-014 29.2529523872437 8.58518543427733
vertex 1.19848575508286e-014 28.65 8.8349364905389
endloop
endfacet
facet normal -1.28020765749413e-031 0.258819045102521 0.965925826289068
outer loop
vertex 1.19848575508286e-014 29.2529523872437 8.58518543427733
vertex 6.0 28.65 8.8349364905389
vertex 6.0 29.2529523872437 8.58518543427733
endloop
endfacet
facet normal -1.28020765749413e-031 0.258819045102521 0.965925826289068
outer loop
vertex 6.0 29.2529523872437 8.58518543427733
vertex 1.19848575508286e-014 29.9 8.5
vertex 1.19848575508286e-014 29.2529523872437 8.58518543427733
endloop
endfacet
facet normal -1.32536849378226e-031 0.0 1.0
outer loop
vertex 1.19848575508286e-014 29.9 8.5
vertex 6.0 29.2529523872437 8.58518543427733
vertex 6.0 29.9 8.5
endloop
endfacet
facet normal -1.32536849378226e-031 0.0 1.0
outer loop
vertex 6.0 29.9 8.5
vertex 1.19848575508286e-014 30.5470476127563 8.58518543427733
vertex 1.19848575508286e-014 29.9 8.5
endloop
endfacet
facet normal -1.28020765749413e-031 -0.258819045102521 0.965925826289068
outer loop
vertex 1.19848575508286e-014 30.5470476127563 8.58518543427733
vertex 6.0 29.9 8.5
vertex 6.0 30.5470476127563 8.58518543427733
endloop
endfacet
facet normal -1.28020765749413e-031 -0.258819045102521 0.965925826289068
outer loop
vertex 6.0 30.5470476127563 8.58518543427733
vertex 1.19848575508286e-014 31.15 8.8349364905389
vertex 1.19848575508286e-014 30.5470476127563 8.58518543427733
endloop
endfacet
facet normal -1.14780278499095e-031 -0.499999999999999 0.866025403784439
outer loop
vertex 1.19848575508286e-014 31.15 8.8349364905389
vertex 6.0 30.5470476127563 8.58518543427733
vertex 6.0 31.15 8.8349364905389
endloop
endfacet
facet normal 1.75740655470098e-047 -1.0 1.60399978121644e-016
outer loop
vertex 6.0 32.4 11.0
vertex 1.19848575508286e-014 32.3148145657227 10.3529523872437
vertex 6.0 32.3148145657227 10.3529523872437
endloop
endfacet
facet normal -3.43030607969692e-032 -0.965925826289068 0.258819045102522
outer loop
vertex 1.19848575508286e-014 32.3148145657227 10.3529523872437
vertex 6.0 32.4 11.0
vertex 1.19848575508286e-014 32.4 11.0
endloop
endfacet
facet normal 3.43030607969692e-032 -0.965925826289068 -0.258819045102522
outer loop
vertex 6.0 32.3148145657227 11.6470476127563
vertex 1.19848575508286e-014 32.4 11.0
vertex 6.0 32.4 11.0
endloop
endfacet
facet normal 1.75740655470098e-047 -1.0 1.60399978121644e-016
outer loop
vertex 1.19848575508286e-014 32.4 11.0
vertex 6.0 32.3148145657227 11.6470476127563
vertex 1.19848575508286e-014 32.3148145657227 11.6470476127563
endloop
endfacet
facet normal 6.62684246891134e-032 -0.866025403784437 -0.500000000000003
outer loop
vertex 6.0 32.0650635094611 12.25
vertex 1.19848575508286e-014 32.3148145657227 11.6470476127563
vertex 6.0 32.3148145657227 11.6470476127563
endloop
endfacet
facet normal 3.43030607969692e-032 -0.965925826289068 -0.258819045102522
outer loop
vertex 1.19848575508286e-014 32.3148145657227 11.6470476127563
vertex 6.0 32.0650635094611 12.25
vertex 1.19848575508286e-014 32.0650635094611 12.25
endloop
endfacet
facet normal 9.37177049524437e-032 -0.707106781186547 -0.707106781186548
outer loop
vertex 6.0 31.6677669529664 12.7677669529664
vertex 1.19848575508286e-014 32.0650635094611 12.25
vertex 6.0 32.0650635094611 12.25
endloop
endfacet
facet normal 6.62684246891134e-032 -0.866025403784437 -0.500000000000003
outer loop
vertex 1.19848575508286e-014 32.0650635094611 12.25
vertex 6.0 31.6677669529664 12.7677669529664
vertex 1.19848575508286e-014 31.6677669529664 12.7677669529664
endloop
endfacet
facet normal 9.37177049524437e-032 -0.707106781186547 -0.707106781186548
outer loop
vertex 6.0 31.6677669529664 12.7677669529664
vertex 1.19848575508286e-014 31.15 13.1650635094611
vertex 1.19848575508286e-014 31.6677669529664 12.7677669529664
endloop
endfacet
facet normal 1.14780278499095e-031 -0.5 -0.866025403784439
outer loop
vertex 1.19848575508286e-014 31.15 13.1650635094611
vertex 6.0 31.6677669529664 12.7677669529664
vertex 6.0 31.15 13.1650635094611
endloop
endfacet
facet normal 1.14780278499095e-031 -0.5 -0.866025403784439
outer loop
vertex 6.0 31.15 13.1650635094611
vertex 1.19848575508286e-014 30.5470476127563 13.4148145657227
vertex 1.19848575508286e-014 31.15 13.1650635094611
endloop
endfacet
facet normal 1.28020765749413e-031 -0.258819045102521 -0.965925826289068
outer loop
vertex 1.19848575508286e-014 30.5470476127563 13.4148145657227
vertex 6.0 31.15 13.1650635094611
vertex 6.0 30.5470476127563 13.4148145657227
endloop
endfacet
facet normal 1.28020765749413e-031 -0.258819045102521 -0.965925826289068
outer loop
vertex 6.0 30.5470476127563 13.4148145657227
vertex 1.19848575508286e-014 29.9 13.5
vertex 1.19848575508286e-014 30.5470476127563 13.4148145657227
endloop
endfacet
facet normal 1.32536849378226e-031 0.0 -1.0
outer loop
vertex 1.19848575508286e-014 29.9 13.5
vertex 6.0 30.5470476127563 13.4148145657227
vertex 6.0 29.9 13.5
endloop
endfacet
facet normal 1.32536849378226e-031 0.0 -1.0
outer loop
vertex 6.0 29.9 13.5
vertex 1.19848575508286e-014 29.2529523872437 13.4148145657227
vertex 1.19848575508286e-014 29.9 13.5
endloop
endfacet
facet normal 1.28020765749413e-031 0.25881904510252 -0.965925826289069
outer loop
vertex 1.19848575508286e-014 29.2529523872437 13.4148145657227
vertex 6.0 29.9 13.5
vertex 6.0 29.2529523872437 13.4148145657227
endloop
endfacet
facet normal 1.28020765749413e-031 0.25881904510252 -0.965925826289069
outer loop
vertex 6.0 29.2529523872437 13.4148145657227
vertex 1.19848575508286e-014 28.65 13.1650635094611
vertex 1.19848575508286e-014 29.2529523872437 13.4148145657227
endloop
endfacet
facet normal 1.14780278499095e-031 0.5 -0.866025403784438
outer loop
vertex 1.19848575508286e-014 28.65 13.1650635094611
vertex 6.0 29.2529523872437 13.4148145657227
vertex 6.0 28.65 13.1650635094611
endloop
endfacet
facet normal 1.14780278499095e-031 0.5 -0.866025403784438
outer loop
vertex 6.0 28.65 13.1650635094611
vertex 1.19848575508286e-014 28.1322330470336 12.7677669529664
vertex 1.19848575508286e-014 28.65 13.1650635094611
endloop
endfacet
facet normal 9.37177049524433e-032 0.707106781186549 -0.707106781186546
outer loop
vertex 1.19848575508286e-014 28.1322330470336 12.7677669529664
vertex 6.0 28.65 13.1650635094611
vertex 6.0 28.1322330470336 12.7677669529664
endloop
endfacet
facet normal -1.14780278499095e-031 -0.499999999999999 0.866025403784439
outer loop
vertex 6.0 31.15 8.8349364905389
vertex 1.19848575508286e-014 31.6677669529664 9.23223304703363
vertex 1.19848575508286e-014 31.15 8.8349364905389
endloop
endfacet
facet normal -9.37177049524433e-032 -0.707106781186549 0.707106781186546
outer loop
vertex 1.19848575508286e-014 31.6677669529664 9.23223304703363
vertex 6.0 31.15 8.8349364905389
vertex 6.0 31.6677669529664 9.23223304703363
endloop
endfacet
facet normal -6.62684246891129e-032 -0.866025403784439 0.5
outer loop
vertex 6.0 32.0650635094611 9.75
vertex 1.19848575508286e-014 31.6677669529664 9.23223304703363
vertex 6.0 31.6677669529664 9.23223304703363
endloop
endfacet
facet normal -9.37177049524433e-032 -0.707106781186549 0.707106781186546
outer loop
vertex 1.19848575508286e-014 31.6677669529664 9.23223304703363
vertex 6.0 32.0650635094611 9.75
vertex 1.19848575508286e-014 32.0650635094611 9.75
endloop
endfacet
facet normal -3.43030607969692e-032 -0.965925826289068 0.258819045102522
outer loop
vertex 6.0 32.3148145657227 10.3529523872437
vertex 1.19848575508286e-014 32.0650635094611 9.75
vertex 6.0 32.0650635094611 9.75
endloop
endfacet
facet normal -6.62684246891129e-032 -0.866025403784439 0.5
outer loop
vertex 1.19848575508286e-014 32.0650635094611 9.75
vertex 6.0 32.3148145657227 10.3529523872437
vertex 1.19848575508286e-014 32.3148145657227 10.3529523872437
endloop
endfacet
facet normal -3.9817947260047e-032 -0.965925826289068 0.25881904510252
outer loop
vertex 6.0 16.4148145657227 10.3529523872437
vertex 1.12798659301916e-014 16.1650635094611 9.75
vertex 6.0 16.1650635094611 9.75
endloop
endfacet
facet normal -1.56444476843527e-031 -0.866025403784439 0.5
outer loop
vertex 1.12798659301916e-014 16.1650635094611 9.75
vertex 6.0 16.4148145657227 10.3529523872437
vertex 1.12798659301916e-014 16.4148145657227 10.3529523872437
endloop
endfacet
facet normal -1.56444476843527e-031 -0.866025403784439 0.5
outer loop
vertex 6.0 16.1650635094611 9.75
vertex 1.12798659301916e-014 15.7677669529664 9.23223304703363
vertex 6.0 15.7677669529664 9.23223304703363
endloop
endfacet
facet normal -2.62409573866842e-031 -0.707106781186548 0.707106781186547
outer loop
vertex 1.12798659301916e-014 15.7677669529664 9.23223304703363
vertex 6.0 16.1650635094611 9.75
vertex 1.12798659301916e-014 16.1650635094611 9.75
endloop
endfacet
facet normal 7.95221096269355e-032 -1.0 1.51488868225997e-016
outer loop
vertex 6.0 16.5 11.0
vertex 1.12798659301916e-014 16.4148145657227 10.3529523872437
vertex 6.0 16.4148145657227 10.3529523872437
endloop
endfacet
facet normal -3.9817947260047e-032 -0.965925826289068 0.25881904510252
outer loop
vertex 1.12798659301916e-014 16.4148145657227 10.3529523872437
vertex 6.0 16.5 11.0
vertex 1.12798659301916e-014 16.5 11.0
endloop
endfacet
facet normal 1.93442866159342e-031 -0.965925826289068 -0.258819045102521
outer loop
vertex 6.0 16.4148145657227 11.6470476127563
vertex 1.12798659301916e-014 16.5 11.0
vertex 6.0 16.5 11.0
endloop
endfacet
facet normal 7.95221096269355e-032 -1.0 1.51488868225997e-016
outer loop
vertex 1.12798659301916e-014 16.5 11.0
vertex 6.0 16.4148145657227 11.6470476127563
vertex 1.12798659301916e-014 16.4148145657227 11.6470476127563
endloop
endfacet
facet normal 2.94180811042441e-031 -0.866025403784439 -0.499999999999999
outer loop
vertex 6.0 16.1650635094611 12.25
vertex 1.12798659301916e-014 16.4148145657227 11.6470476127563
vertex 6.0 16.4148145657227 11.6470476127563
endloop
endfacet
facet normal 1.93442866159342e-031 -0.965925826289068 -0.258819045102521
outer loop
vertex 1.12798659301916e-014 16.4148145657227 11.6470476127563
vertex 6.0 16.1650635094611 12.25
vertex 1.12798659301916e-014 16.1650635094611 12.25
endloop
endfacet
facet normal 3.74870819809774e-031 -0.707106781186548 -0.707106781186548
outer loop
vertex 6.0 15.7677669529664 12.7677669529664
vertex 1.12798659301916e-014 16.1650635094611 12.25
vertex 6.0 16.1650635094611 12.25
endloop
endfacet
facet normal 2.94180811042441e-031 -0.866025403784439 -0.499999999999999
outer loop
vertex 1.12798659301916e-014 16.1650635094611 12.25
vertex 6.0 15.7677669529664 12.7677669529664
vertex 1.12798659301916e-014 15.7677669529664 12.7677669529664
endloop
endfacet
facet normal 3.74870819809774e-031 -0.707106781186548 -0.707106781186548
outer loop
vertex 6.0 15.7677669529664 12.7677669529664
vertex 1.12798659301916e-014 15.25 13.1650635094611
vertex 1.12798659301916e-014 15.7677669529664 12.7677669529664
endloop
endfacet
facet normal 4.30014001710392e-031 -0.499999999999999 -0.866025403784439
outer loop
vertex 1.12798659301916e-014 15.25 13.1650635094611
vertex 6.0 15.7677669529664 12.7677669529664
vertex 6.0 15.25 13.1650635094611
endloop
endfacet
facet normal 4.30014001710392e-031 -0.499999999999999 -0.866025403784439
outer loop
vertex 6.0 15.25 13.1650635094611
vertex 1.12798659301916e-014 14.6470476127563 13.4148145657227
vertex 1.12798659301916e-014 15.25 13.1650635094611
endloop
endfacet
facet normal 4.55852440026184e-031 -0.25881904510252 -0.965925826289068
outer loop
vertex 1.12798659301916e-014 14.6470476127563 13.4148145657227
vertex 6.0 15.25 13.1650635094611
vertex 6.0 14.6470476127563 13.4148145657227
endloop
endfacet
facet normal 4.55852440026184e-031 -0.25881904510252 -0.965925826289068
outer loop
vertex 6.0 14.6470476127563 13.4148145657227
vertex 1.12798659301916e-014 14.0 13.5
vertex 1.12798659301916e-014 14.6470476127563 13.4148145657227
endloop
endfacet
facet normal 4.50625287885968e-031 -2.85155516660701e-016 -1.0
outer loop
vertex 1.12798659301916e-014 14.0 13.5
vertex 6.0 14.6470476127563 13.4148145657227
vertex 6.0 14.0 13.5
endloop
endfacet
facet normal 4.50625287885968e-031 -2.85155516660701e-016 -1.0
outer loop
vertex 6.0 14.0 13.5
vertex 1.12798659301916e-014 13.3529523872437 13.4148145657227
vertex 1.12798659301916e-014 14.0 13.5
endloop
endfacet
facet normal 4.14688767069822e-031 0.258819045102521 -0.965925826289068
outer loop
vertex 1.12798659301916e-014 13.3529523872437 13.4148145657227
vertex 6.0 14.0 13.5
vertex 6.0 13.3529523872437 13.4148145657227
endloop
endfacet
facet normal 3.98179472600472e-032 0.965925826289068 -0.258819045102521
outer loop
vertex 1.12798659301916e-014 11.5851854342773 11.6470476127563
vertex 6.0 11.5 11.0
vertex 1.12798659301916e-014 11.5 11.0
endloop
endfacet
facet normal -7.95221096269354e-032 1.0 -2.85155516660701e-016
outer loop
vertex 6.0 11.5 11.0
vertex 1.12798659301916e-014 11.5851854342773 11.6470476127563
vertex 6.0 11.5851854342773 11.6470476127563
endloop
endfacet
facet normal -7.95221096269354e-032 1.0 -2.85155516660701e-016
outer loop
vertex 1.12798659301916e-014 11.5 11.0
vertex 6.0 11.5851854342773 10.3529523872437
vertex 1.12798659301916e-014 11.5851854342773 10.3529523872437
endloop
endfacet
facet normal -1.93442866159343e-031 0.965925826289068 0.258819045102521
outer loop
vertex 6.0 11.5851854342773 10.3529523872437
vertex 1.12798659301916e-014 11.5 11.0
vertex 6.0 11.5 11.0
endloop
endfacet
facet normal -1.93442866159343e-031 0.965925826289068 0.258819045102521
outer loop
vertex 1.12798659301916e-014 11.5851854342773 10.3529523872437
vertex 6.0 11.8349364905389 9.75
vertex 1.12798659301916e-014 11.8349364905389 9.75
endloop
endfacet
facet normal -2.94180811042442e-031 0.866025403784438 0.500000000000001
outer loop
vertex 6.0 11.8349364905389 9.75
vertex 1.12798659301916e-014 11.5851854342773 10.3529523872437
vertex 6.0 11.5851854342773 10.3529523872437
endloop
endfacet
facet normal -2.94180811042442e-031 0.866025403784438 0.500000000000001
outer loop
vertex 1.12798659301916e-014 11.8349364905389 9.75
vertex 6.0 12.2322330470336 9.23223304703363
vertex 1.12798659301916e-014 12.2322330470336 9.23223304703363
endloop
endfacet
facet normal -3.74870819809774e-031 0.707106781186548 0.707106781186548
outer loop
vertex 6.0 12.2322330470336 9.23223304703363
vertex 1.12798659301916e-014 11.8349364905389 9.75
vertex 6.0 11.8349364905389 9.75
endloop
endfacet
facet normal -3.74870819809774e-031 0.707106781186548 0.707106781186548
outer loop
vertex 6.0 12.2322330470336 9.23223304703363
vertex 1.12798659301916e-014 12.75 8.8349364905389
vertex 1.12798659301916e-014 12.2322330470336 9.23223304703363
endloop
endfacet
facet normal -4.30014001710392e-031 0.5 0.866025403784439
outer loop
vertex 1.12798659301916e-014 12.75 8.8349364905389
vertex 6.0 12.2322330470336 9.23223304703363
vertex 6.0 12.75 8.8349364905389
endloop
endfacet
facet normal -4.30014001710392e-031 0.5 0.866025403784439
outer loop
vertex 6.0 12.75 8.8349364905389
vertex 1.12798659301916e-014 13.3529523872437 8.58518543427733
vertex 1.12798659301916e-014 12.75 8.8349364905389
endloop
endfacet
facet normal -4.55852440026184e-031 0.25881904510252 0.965925826289068
outer loop
vertex 1.12798659301916e-014 13.3529523872437 8.58518543427733
vertex 6.0 12.75 8.8349364905389
vertex 6.0 13.3529523872437 8.58518543427733
endloop
endfacet
facet normal -4.55852440026184e-031 0.25881904510252 0.965925826289068
outer loop
vertex 6.0 13.3529523872437 8.58518543427733
vertex 1.12798659301916e-014 14.0 8.5
vertex 1.12798659301916e-014 13.3529523872437 8.58518543427733
endloop
endfacet
facet normal -4.50625287885968e-031 2.85155516660701e-016 1.0
outer loop
vertex 1.12798659301916e-014 14.0 8.5
vertex 6.0 13.3529523872437 8.58518543427733
vertex 6.0 14.0 8.5
endloop
endfacet
facet normal -4.50625287885968e-031 2.85155516660701e-016 1.0
outer loop
vertex 6.0 14.0 8.5
vertex 1.12798659301916e-014 14.6470476127563 8.58518543427733
vertex 1.12798659301916e-014 14.0 8.5
endloop
endfacet
facet normal -4.14688767069822e-031 -0.258819045102521 0.965925826289068
outer loop
vertex 1.12798659301916e-014 14.6470476127563 8.58518543427733
vertex 6.0 14.0 8.5
vertex 6.0 14.6470476127563 8.58518543427733
endloop
endfacet
facet normal -4.14688767069822e-031 -0.258819045102521 0.965925826289068
outer loop
vertex 6.0 14.6470476127563 8.58518543427733
vertex 1.12798659301916e-014 15.25 8.8349364905389
vertex 1.12798659301916e-014 14.6470476127563 8.58518543427733
endloop
endfacet
facet normal -3.50491892083457e-031 -0.5 0.866025403784438
outer loop
vertex 1.12798659301916e-014 15.25 8.8349364905389
vertex 6.0 14.6470476127563 8.58518543427733
vertex 6.0 15.25 8.8349364905389
endloop
endfacet
facet normal -3.50491892083457e-031 -0.5 0.866025403784438
outer loop
vertex 6.0 15.25 8.8349364905389
vertex 1.12798659301916e-014 15.7677669529664 9.23223304703363
vertex 1.12798659301916e-014 15.25 8.8349364905389
endloop
endfacet
facet normal -2.62409573866842e-031 -0.707106781186548 0.707106781186547
outer loop
vertex 1.12798659301916e-014 15.7677669529664 9.23223304703363
vertex 6.0 15.25 8.8349364905389
vertex 6.0 15.7677669529664 9.23223304703363
endloop
endfacet
facet normal 4.14688767069822e-031 0.258819045102521 -0.965925826289068
outer loop
vertex 6.0 13.3529523872437 13.4148145657227
vertex 1.12798659301916e-014 12.75 13.1650635094611
vertex 1.12798659301916e-014 13.3529523872437 13.4148145657227
endloop
endfacet
facet normal 3.50491892083457e-031 0.5 -0.866025403784439
outer loop
vertex 1.12798659301916e-014 12.75 13.1650635094611
vertex 6.0 13.3529523872437 13.4148145657227
vertex 6.0 12.75 13.1650635094611
endloop
endfacet
facet normal 3.50491892083457e-031 0.5 -0.866025403784439
outer loop
vertex 6.0 12.75 13.1650635094611
vertex 1.12798659301916e-014 12.2322330470336 12.7677669529664
vertex 1.12798659301916e-014 12.75 13.1650635094611
endloop
endfacet
facet normal 2.62409573866842e-031 0.707106781186548 -0.707106781186547
outer loop
vertex 1.12798659301916e-014 12.2322330470336 12.7677669529664
vertex 6.0 12.75 13.1650635094611
vertex 6.0 12.2322330470336 12.7677669529664
endloop
endfacet
facet normal 2.62409573866842e-031 0.707106781186548 -0.707106781186547
outer loop
vertex 1.12798659301916e-014 12.2322330470336 12.7677669529664
vertex 6.0 11.8349364905389 12.25
vertex 1.12798659301916e-014 11.8349364905389 12.25
endloop
endfacet
facet normal 1.56444476843526e-031 0.866025403784439 -0.499999999999999
outer loop
vertex 6.0 11.8349364905389 12.25
vertex 1.12798659301916e-014 12.2322330470336 12.7677669529664
vertex 6.0 12.2322330470336 12.7677669529664
endloop
endfacet
facet normal 1.56444476843526e-031 0.866025403784439 -0.499999999999999
outer loop
vertex 1.12798659301916e-014 11.8349364905389 12.25
vertex 6.0 11.5851854342773 11.6470476127563
vertex 1.12798659301916e-014 11.5851854342773 11.6470476127563
endloop
endfacet
facet normal 3.98179472600472e-032 0.965925826289068 -0.258819045102521
outer loop
vertex 6.0 11.5851854342773 11.6470476127563
vertex 1.12798659301916e-014 11.8349364905389 12.25
vertex 6.0 11.8349364905389 12.25
endloop
endfacet
endsolid fan_mount
