solid LAMPS_full_model
facet normal -1.75108169691696e-015 1.0 3.61345612576401e-016
outer loop
vertex -109.511857180558 161.362337102385 5.49999999999997
vertex -94.7341199542804 161.362337102385 5.49999999999991
vertex -109.511857180558 161.362337102385 5.63993296509579e-015
endloop
endfacet
facet normal -1.75108169691696e-015 1.0 3.61345612576401e-016
outer loop
vertex -124.289594406835 161.362337102385 35.2000000000001
vertex -88.8628304165675 161.362337102385 5.49999999999991
vertex -94.7341199542804 161.362337102385 5.49999999999991
endloop
endfacet
facet normal -1.75108169691696e-015 1.0 3.61345612576401e-016
outer loop
vertex -88.8628304165675 161.362337102385 5.49999999999991
vertex -124.289594406835 161.362337102385 35.2000000000001
vertex -124.289594406835 161.362337102385 41.1
endloop
endfacet
facet normal -1.75108169691696e-015 1.0 3.61345612576401e-016
outer loop
vertex -81.7895944068352 161.362337102385 -5.63993296509579e-015
vertex -88.8628304165675 161.362337102385 5.49999999999991
vertex -81.7895944068351 161.362337102385 9.59999999999997
endloop
endfacet
facet normal -1.75108169691696e-015 1.0 3.61345612576401e-016
outer loop
vertex -88.8628304165675 161.362337102385 5.49999999999991
vertex -81.7895944068352 161.362337102385 -5.63993296509579e-015
vertex -109.511857180558 161.362337102385 5.63993296509579e-015
endloop
endfacet
facet normal -1.75108169691696e-015 1.0 3.61345612576401e-016
outer loop
vertex -88.8628304165675 161.362337102385 5.49999999999991
vertex -109.511857180558 161.362337102385 5.63993296509579e-015
vertex -94.7341199542804 161.362337102385 5.49999999999991
endloop
endfacet
facet normal -1.75108169691696e-015 1.0 3.61345612576401e-016
outer loop
vertex -81.7895944068351 161.362337102385 9.59999999999997
vertex -88.8628304165675 161.362337102385 5.49999999999991
vertex -83.5939207780217 161.362337102385 9.59999999999907
endloop
endfacet
facet normal -0.258819045102514 -0.96592582628907 6.57661231267475e-017
outer loop
vertex -102.762282916519 159.278329903683 1.69197988952874e-014
vertex -103.176393388683 159.332848581621 5.5
vertex -103.176393388683 159.332848581621 -2.8199664825479e-014
endloop
endfacet
facet normal 1.03440112274164e-015 -1.0 7.16642058338057e-017
outer loop
vertex -103.176393388683 159.332848581621 5.5
vertex -102.762282916519 159.278329903683 1.69197988952874e-014
vertex -102.762282916519 159.278329903683 5.50000000000001
endloop
endfacet
facet normal 1.03440112274164e-015 -1.0 7.16642058338057e-017
outer loop
vertex -103.176393388683 159.332848581621 5.5
vertex -103.590503860847 159.278329903683 1.69197988952874e-014
vertex -103.176393388683 159.332848581621 -2.8199664825479e-014
endloop
endfacet
facet normal 0.258819045102519 -0.965925826289069 -1.47155392949212e-016
outer loop
vertex -103.590503860847 159.278329903683 1.69197988952874e-014
vertex -103.176393388683 159.332848581621 5.5
vertex -103.590503860847 159.278329903683 5.50000000000001
endloop
endfacet
facet normal 0.258819045102519 -0.965925826289069 -1.47155392949212e-016
outer loop
vertex -103.590503860847 159.278329903683 1.69197988952874e-014
vertex -103.976393388683 159.118489227676 5.49999999999998
vertex -103.976393388683 159.118489227676 -5.63993296509579e-015
endloop
endfacet
facet normal 0.500000000000001 -0.866025403784438 -3.21274153596321e-016
outer loop
vertex -103.976393388683 159.118489227676 5.49999999999998
vertex -103.590503860847 159.278329903683 1.69197988952874e-014
vertex -103.590503860847 159.278329903683 5.50000000000001
endloop
endfacet
facet normal 0.500000000000005 -0.866025403784436 -3.21274153596322e-016
outer loop
vertex -103.976393388683 159.118489227676 -5.63993296509579e-015
vertex -104.307764238582 158.864219431519 5.49999999999998
vertex -104.307764238582 158.864219431519 -1.69197988952874e-014
endloop
endfacet
facet normal 0.70710678118655 -0.707106781186545 -2.24404642544469e-016
outer loop
vertex -104.307764238582 158.864219431519 5.49999999999998
vertex -103.976393388683 159.118489227676 -5.63993296509579e-015
vertex -103.976393388683 159.118489227676 5.49999999999998
endloop
endfacet
facet normal 0.86602540378444 -0.499999999999998 -1.63462935067329e-016
outer loop
vertex -104.562034034738 158.532848581621 5.49999999999998
vertex -104.307764238582 158.864219431519 -1.69197988952874e-014
vertex -104.307764238582 158.864219431519 5.49999999999998
endloop
endfacet
facet normal 0.707106781186549 -0.707106781186547 -2.24404642544471e-016
outer loop
vertex -104.307764238582 158.864219431519 -1.69197988952874e-014
vertex -104.562034034738 158.532848581621 5.49999999999998
vertex -104.562034034738 158.532848581621 1.69197988952874e-014
endloop
endfacet
facet normal 0.86602540378444 -0.499999999999998 -1.63462935067329e-016
outer loop
vertex -104.562034034738 158.532848581621 5.49999999999998
vertex -104.721874710746 158.146959053785 5.63993296509579e-015
vertex -104.562034034738 158.532848581621 1.69197988952874e-014
endloop
endfacet
facet normal 0.96592582628907 -0.258819045102516 -2.4901708849678e-016
outer loop
vertex -104.721874710746 158.146959053785 5.63993296509579e-015
vertex -104.562034034738 158.532848581621 5.49999999999998
vertex -104.721874710745 158.146959053785 5.50000000000001
endloop
endfacet
facet normal 1.0 4.0285340476789e-015 -2.08047066233283e-016
outer loop
vertex -104.776393388683 157.732848581621 5.49999999999998
vertex -104.721874710746 158.146959053785 5.63993296509579e-015
vertex -104.721874710745 158.146959053785 5.50000000000001
endloop
endfacet
facet normal 0.96592582628907 -0.258819045102516 -2.4901708849678e-016
outer loop
vertex -104.721874710746 158.146959053785 5.63993296509579e-015
vertex -104.776393388683 157.732848581621 5.49999999999998
vertex -104.776393388683 157.732848581621 -1.69197988952874e-014
endloop
endfacet
facet normal 0.965925826289067 0.258819045102526 -1.65942609781954e-016
outer loop
vertex -104.721874710745 157.318738109457 5.50000000000001
vertex -104.776393388683 157.732848581621 -1.69197988952874e-014
vertex -104.776393388683 157.732848581621 5.49999999999998
endloop
endfacet
facet normal 1.0 5.38302275181746e-015 -2.08047066233283e-016
outer loop
vertex -104.776393388683 157.732848581621 -1.69197988952874e-014
vertex -104.721874710745 157.318738109457 5.50000000000001
vertex -104.721874710746 157.318738109457 5.63993296509579e-015
endloop
endfacet
facet normal 0.866025403784439 0.499999999999999 -2.21129602209386e-016
outer loop
vertex -104.562034034738 156.932848581621 5.50000000000002
vertex -104.721874710746 157.318738109457 5.63993296509579e-015
vertex -104.721874710745 157.318738109457 5.50000000000001
endloop
endfacet
facet normal 0.965925826289068 0.258819045102521 -1.65942609781954e-016
outer loop
vertex -104.721874710746 157.318738109457 5.63993296509579e-015
vertex -104.562034034738 156.932848581621 5.50000000000002
vertex -104.562034034738 156.932848581621 -5.63993296509579e-015
endloop
endfacet
facet normal 0.70710678118655 0.707106781186545 -8.96138491922898e-017
outer loop
vertex -104.307764238581 156.601477731722 5.5
vertex -104.562034034738 156.932848581621 -5.63993296509579e-015
vertex -104.562034034738 156.932848581621 5.50000000000002
endloop
endfacet
facet normal 0.866025403784438 0.500000000000002 -2.21129602209387e-016
outer loop
vertex -104.562034034738 156.932848581621 -5.63993296509579e-015
vertex -104.307764238581 156.601477731722 5.5
vertex -104.307764238581 156.601477731722 -2.8199664825479e-014
endloop
endfacet
facet normal 0.707106781186545 0.70710678118655 -8.96138491922819e-017
outer loop
vertex -104.307764238581 156.601477731722 -2.8199664825479e-014
vertex -103.976393388683 156.347207935566 5.5
vertex -103.976393388683 156.347207935566 -4.51194637207664e-014
endloop
endfacet
facet normal 0.500000000000002 0.866025403784437 4.32393939042993e-017
outer loop
vertex -103.976393388683 156.347207935566 5.5
vertex -104.307764238581 156.601477731722 -2.8199664825479e-014
vertex -104.307764238581 156.601477731722 5.5
endloop
endfacet
facet normal 0.500000000000002 0.866025403784437 4.32393939042993e-017
outer loop
vertex -103.976393388683 156.347207935566 5.5
vertex -103.590503860847 156.187367259558 0.0
vertex -103.976393388683 156.347207935566 -4.51194637207664e-014
endloop
endfacet
facet normal 0.258819045102523 0.965925826289068 -6.57661231267425e-017
outer loop
vertex -103.590503860847 156.187367259558 0.0
vertex -103.976393388683 156.347207935566 5.5
vertex -103.590503860847 156.187367259558 5.49999999999996
endloop
endfacet
facet normal 0.258819045102516 0.96592582628907 -6.57661231267466e-017
outer loop
vertex -103.590503860847 156.187367259558 5.49999999999996
vertex -103.176393388683 156.132848581621 1.12798659301916e-014
vertex -103.590503860847 156.187367259558 0.0
endloop
endfacet
facet normal -1.47104550762833e-015 1.0 -1.13656821909049e-016
outer loop
vertex -103.176393388683 156.132848581621 1.12798659301916e-014
vertex -103.590503860847 156.187367259558 5.49999999999996
vertex -103.176393388683 156.132848581621 5.50000000000001
endloop
endfacet
facet normal -1.47104550762833e-015 1.0 -1.13656821909049e-016
outer loop
vertex -103.176393388683 156.132848581621 1.12798659301916e-014
vertex -102.762282916519 156.187367259558 5.49999999999997
vertex -102.762282916519 156.187367259558 0.0
endloop
endfacet
facet normal -0.258819045102519 0.965925826289069 4.91726221069784e-017
outer loop
vertex -102.762282916519 156.187367259558 5.49999999999997
vertex -103.176393388683 156.132848581621 1.12798659301916e-014
vertex -103.176393388683 156.132848581621 5.50000000000001
endloop
endfacet
facet normal -0.258819045102526 0.965925826289067 4.91726221069853e-017
outer loop
vertex -102.762282916519 156.187367259558 0.0
vertex -102.376393388683 156.347207935566 5.5
vertex -102.376393388683 156.347207935566 -4.51194637207664e-014
endloop
endfacet
facet normal -0.500000000000002 0.866025403784437 1.53303689295347e-016
outer loop
vertex -102.376393388683 156.347207935566 5.5
vertex -102.762282916519 156.187367259558 0.0
vertex -102.762282916519 156.187367259558 5.49999999999997
endloop
endfacet
facet normal -0.500000000000002 0.866025403784437 1.53303689295347e-016
outer loop
vertex -102.376393388683 156.347207935566 5.5
vertex -102.045022538785 156.601477731722 -2.25597318603832e-014
vertex -102.376393388683 156.347207935566 -4.51194637207664e-014
endloop
endfacet
facet normal -0.707106781186547 0.707106781186548 2.10407103852718e-016
outer loop
vertex -102.045022538785 156.601477731722 -2.25597318603832e-014
vertex -102.376393388683 156.347207935566 5.5
vertex -102.045022538785 156.601477731722 5.5
endloop
endfacet
facet normal -0.707106781186547 0.707106781186548 2.10407103852718e-016
outer loop
vertex -102.045022538785 156.601477731722 -2.25597318603832e-014
vertex -101.790752742628 156.932848581621 5.50000000000002
vertex -101.790752742628 156.932848581621 0.0
endloop
endfacet
facet normal -0.866025403784441 0.499999999999996 2.61445705909562e-016
outer loop
vertex -101.790752742628 156.932848581621 5.50000000000002
vertex -102.045022538785 156.601477731722 -2.25597318603832e-014
vertex -102.045022538785 156.601477731722 5.5
endloop
endfacet
facet normal -0.866025403784438 0.500000000000001 2.61445705909563e-016
outer loop
vertex -101.790752742628 156.932848581621 0.0
vertex -101.63091206662 157.318738109457 5.50000000000001
vertex -101.630912066621 157.318738109457 1.12798659301916e-014
endloop
endfacet
facet normal -0.965925826289068 0.258819045102523 2.49017088496779e-016
outer loop
vertex -101.63091206662 157.318738109457 5.50000000000001
vertex -101.790752742628 156.932848581621 0.0
vertex -101.790752742628 156.932848581621 5.50000000000002
endloop
endfacet
facet normal -1.0 -4.01962293778343e-015 2.08047066233283e-016
outer loop
vertex -101.576393388683 157.732848581621 -1.12798659301916e-014
vertex -101.63091206662 157.318738109457 5.50000000000001
vertex -101.576393388683 157.732848581621 5.49999999999999
endloop
endfacet
facet normal -0.965925826289068 0.258819045102523 2.49017088496779e-016
outer loop
vertex -101.63091206662 157.318738109457 5.50000000000001
vertex -101.576393388683 157.732848581621 -1.12798659301916e-014
vertex -101.630912066621 157.318738109457 1.12798659301916e-014
endloop
endfacet
facet normal -1.0 -4.01962293778343e-015 2.08047066233283e-016
outer loop
vertex -101.576393388683 157.732848581621 -1.12798659301916e-014
vertex -101.63091206662 158.146959053785 5.50000000000001
vertex -101.630912066621 158.146959053785 1.12798659301916e-014
endloop
endfacet
facet normal -0.965925826289068 -0.258819045102522 1.65942609781954e-016
outer loop
vertex -101.63091206662 158.146959053785 5.50000000000001
vertex -101.576393388683 157.732848581621 -1.12798659301916e-014
vertex -101.576393388683 157.732848581621 5.49999999999999
endloop
endfacet
facet normal -0.965925826289069 -0.25881904510252 1.65942609781953e-016
outer loop
vertex -101.630912066621 158.146959053785 1.12798659301916e-014
vertex -101.790752742628 158.532848581621 5.49999999999998
vertex -101.790752742628 158.532848581621 2.25597318603832e-014
endloop
endfacet
facet normal -0.866025403784442 -0.499999999999994 1.23146831367154e-016
outer loop
vertex -101.790752742628 158.532848581621 5.49999999999998
vertex -101.630912066621 158.146959053785 1.12798659301916e-014
vertex -101.63091206662 158.146959053785 5.50000000000001
endloop
endfacet
facet normal -0.866025403784439 -0.5 1.23146831367151e-016
outer loop
vertex -101.790752742628 158.532848581621 2.25597318603832e-014
vertex -102.045022538785 158.864219431519 5.49999999999998
vertex -102.045022538785 158.864219431519 -1.12798659301916e-014
endloop
endfacet
facet normal -0.707106781186548 -0.707106781186547 8.96138491922872e-017
outer loop
vertex -102.045022538785 158.864219431519 5.49999999999998
vertex -101.790752742628 158.532848581621 2.25597318603832e-014
vertex -101.790752742628 158.532848581621 5.49999999999998
endloop
endfacet
facet normal -0.707106781186548 -0.707106781186547 8.96138491922872e-017
outer loop
vertex -102.045022538785 158.864219431519 5.49999999999998
vertex -102.376393388683 159.118489227676 -5.63993296509579e-015
vertex -102.045022538785 158.864219431519 -1.12798659301916e-014
endloop
endfacet
facet normal -0.499999999999999 -0.866025403784439 5.47433769379369e-017
outer loop
vertex -102.376393388683 159.118489227676 -5.63993296509579e-015
vertex -102.045022538785 158.864219431519 5.49999999999998
vertex -102.376393388683 159.118489227676 5.49999999999998
endloop
endfacet
facet normal -0.499999999999995 -0.866025403784441 5.47433769379347e-017
outer loop
vertex -102.376393388683 159.118489227676 5.49999999999998
vertex -102.762282916519 159.278329903683 1.69197988952874e-014
vertex -102.376393388683 159.118489227676 -5.63993296509579e-015
endloop
endfacet
facet normal -0.258819045102514 -0.96592582628907 6.57661231267475e-017
outer loop
vertex -102.762282916519 159.278329903683 1.69197988952874e-014
vertex -102.376393388683 159.118489227676 5.49999999999998
vertex -102.762282916519 159.278329903683 5.50000000000001
endloop
endfacet
facet normal -0.258819045102518 -0.965925826289069 6.57661231267451e-017
outer loop
vertex -102.762282916519 125.923190103731 1.12798659301916e-014
vertex -103.176393388683 125.977708781668 5.49999999999998
vertex -103.176393388683 125.977708781668 0.0
endloop
endfacet
facet normal 1.04331223263727e-015 -1.0 7.16642058338057e-017
outer loop
vertex -103.176393388683 125.977708781668 5.49999999999998
vertex -102.762282916519 125.923190103731 1.12798659301916e-014
vertex -102.762282916519 125.923190103731 5.49999999999997
endloop
endfacet
facet normal 1.04331223263727e-015 -1.0 7.16642058338057e-017
outer loop
vertex -103.176393388683 125.977708781668 5.49999999999998
vertex -103.590503860847 125.923190103731 1.12798659301916e-014
vertex -103.176393388683 125.977708781668 0.0
endloop
endfacet
facet normal 0.258819045102522 -0.965925826289068 -1.47155392949215e-016
outer loop
vertex -103.590503860847 125.923190103731 1.12798659301916e-014
vertex -103.176393388683 125.977708781668 5.49999999999998
vertex -103.590503860847 125.923190103731 5.49999999999997
endloop
endfacet
facet normal 0.258819045102522 -0.965925826289068 -1.47155392949215e-016
outer loop
vertex -103.590503860847 125.923190103731 1.12798659301916e-014
vertex -103.976393388683 125.763349427724 5.49999999999998
vertex -103.976393388683 125.763349427724 -1.12798659301916e-014
endloop
endfacet
facet normal 0.500000000000004 -0.866025403784436 -3.21274153596322e-016
outer loop
vertex -103.976393388683 125.763349427724 5.49999999999998
vertex -103.590503860847 125.923190103731 1.12798659301916e-014
vertex -103.590503860847 125.923190103731 5.49999999999997
endloop
endfacet
facet normal 0.500000000000004 -0.866025403784436 -3.21274153596322e-016
outer loop
vertex -103.976393388683 125.763349427724 5.49999999999998
vertex -104.307764238581 125.509079631567 1.12798659301916e-014
vertex -103.976393388683 125.763349427724 -1.12798659301916e-014
endloop
endfacet
facet normal 0.707106781186549 -0.707106781186546 -3.29386182732578e-016
outer loop
vertex -104.307764238581 125.509079631567 1.12798659301916e-014
vertex -103.976393388683 125.763349427724 5.49999999999998
vertex -104.307764238581 125.509079631567 5.49999999999998
endloop
endfacet
facet normal 0.70710678118655 -0.707106781186545 -3.29386182732578e-016
outer loop
vertex -104.307764238581 125.509079631567 5.49999999999998
vertex -104.562034034738 125.177708781668 0.0
vertex -104.307764238581 125.509079631567 1.12798659301916e-014
endloop
endfacet
facet normal 0.866025403784439 -0.499999999999999 -2.68444475255436e-016
outer loop
vertex -104.562034034738 125.177708781668 0.0
vertex -104.307764238581 125.509079631567 5.49999999999998
vertex -104.562034034738 125.177708781668 5.49999999999998
endloop
endfacet
facet normal 0.965925826289069 -0.258819045102517 -2.4901708849678e-016
outer loop
vertex -104.721874710745 124.791819253832 5.5
vertex -104.562034034738 125.177708781668 0.0
vertex -104.562034034738 125.177708781668 5.49999999999998
endloop
endfacet
facet normal 0.866025403784439 -0.499999999999999 -2.68444475255436e-016
outer loop
vertex -104.562034034738 125.177708781668 0.0
vertex -104.721874710745 124.791819253832 5.5
vertex -104.721874710745 124.791819253832 0.0
endloop
endfacet
facet normal 1.0 2.45126759614951e-015 -2.08047066233284e-016
outer loop
vertex -104.776393388683 124.377708781668 5.5
vertex -104.721874710745 124.791819253832 0.0
vertex -104.721874710745 124.791819253832 5.5
endloop
endfacet
facet normal 0.965925826289069 -0.25881904510252 -2.4901708849678e-016
outer loop
vertex -104.721874710745 124.791819253832 0.0
vertex -104.776393388683 124.377708781668 5.5
vertex -104.776393388683 124.377708781668 0.0
endloop
endfacet
facet normal 0.965925826289068 0.258819045102521 -1.65942609781954e-016
outer loop
vertex -104.721874710745 123.963598309504 5.49999999999998
vertex -104.776393388683 124.377708781668 0.0
vertex -104.776393388683 124.377708781668 5.5
endloop
endfacet
facet normal 1.0 4.70577839974816e-015 -2.08047066233283e-016
outer loop
vertex -104.776393388683 124.377708781668 0.0
vertex -104.721874710745 123.963598309504 5.49999999999998
vertex -104.721874710745 123.963598309504 0.0
endloop
endfacet
facet normal 0.866025403784439 0.5 -1.16148062021277e-016
outer loop
vertex -104.562034034738 123.577708781668 5.49999999999999
vertex -104.721874710745 123.963598309504 0.0
vertex -104.721874710745 123.963598309504 5.49999999999998
endloop
endfacet
facet normal 0.965925826289068 0.258819045102524 -1.65942609781954e-016
outer loop
vertex -104.721874710745 123.963598309504 0.0
vertex -104.562034034738 123.577708781668 5.49999999999999
vertex -104.562034034738 123.577708781668 -1.12798659301916e-014
endloop
endfacet
facet normal 0.707106781186547 0.707106781186548 1.53676909958221e-017
outer loop
vertex -104.307764238581 123.24633793177 5.49999999999999
vertex -104.562034034738 123.577708781668 -1.12798659301916e-014
vertex -104.562034034738 123.577708781668 5.49999999999999
endloop
endfacet
facet normal 0.866025403784439 0.499999999999999 -1.16148062021278e-016
outer loop
vertex -104.562034034738 123.577708781668 -1.12798659301916e-014
vertex -104.307764238581 123.24633793177 5.49999999999999
vertex -104.307764238581 123.24633793177 0.0
endloop
endfacet
facet normal 0.707106781186547 0.707106781186548 1.53676909958221e-017
outer loop
vertex -104.307764238581 123.24633793177 5.49999999999999
vertex -103.976393388683 122.992068135613 0.0
vertex -104.307764238581 123.24633793177 0.0
endloop
endfacet
facet normal 0.5 0.866025403784439 4.32393939042987e-017
outer loop
vertex -103.976393388683 122.992068135613 0.0
vertex -104.307764238581 123.24633793177 5.49999999999999
vertex -103.976393388683 122.992068135613 5.5
endloop
endfacet
facet normal 0.5 0.866025403784439 4.32393939042987e-017
outer loop
vertex -103.976393388683 122.992068135613 5.5
vertex -103.590503860847 122.832227459606 1.12798659301916e-014
vertex -103.976393388683 122.992068135613 0.0
endloop
endfacet
facet normal 0.258819045102516 0.96592582628907 -6.57661231267465e-017
outer loop
vertex -103.590503860847 122.832227459606 1.12798659301916e-014
vertex -103.976393388683 122.992068135613 5.5
vertex -103.590503860847 122.832227459606 5.49999999999998
endloop
endfacet
facet normal 0.258819045102516 0.96592582628907 -6.57661231267465e-017
outer loop
vertex -103.590503860847 122.832227459606 1.12798659301916e-014
vertex -103.176393388683 122.777708781668 5.5
vertex -103.176393388683 122.777708781668 -1.12798659301916e-014
endloop
endfacet
facet normal -1.47104550762833e-015 1.0 -1.13656821909049e-016
outer loop
vertex -103.176393388683 122.777708781668 5.5
vertex -103.590503860847 122.832227459606 1.12798659301916e-014
vertex -103.590503860847 122.832227459606 5.49999999999998
endloop
endfacet
facet normal -1.47104550762833e-015 1.0 -1.13656821909049e-016
outer loop
vertex -103.176393388683 122.777708781668 5.5
vertex -102.762282916519 122.832227459606 1.12798659301916e-014
vertex -103.176393388683 122.777708781668 -1.12798659301916e-014
endloop
endfacet
facet normal -0.258819045102519 0.965925826289069 4.91726221069781e-017
outer loop
vertex -102.762282916519 122.832227459606 1.12798659301916e-014
vertex -103.176393388683 122.777708781668 5.5
vertex -102.762282916519 122.832227459606 5.49999999999998
endloop
endfacet
facet normal -0.258819045102519 0.965925826289069 4.91726221069781e-017
outer loop
vertex -102.762282916519 122.832227459606 1.12798659301916e-014
vertex -102.376393388683 122.992068135613 5.5
vertex -102.376393388683 122.992068135613 0.0
endloop
endfacet
facet normal -0.500000000000001 0.866025403784438 1.11311073220103e-016
outer loop
vertex -102.376393388683 122.992068135613 5.5
vertex -102.762282916519 122.832227459606 1.12798659301916e-014
vertex -102.762282916519 122.832227459606 5.49999999999998
endloop
endfacet
facet normal -0.500000000000001 0.866025403784438 1.11311073220103e-016
outer loop
vertex -102.376393388683 122.992068135613 5.5
vertex -102.045022538784 123.24633793177 0.0
vertex -102.376393388683 122.992068135613 0.0
endloop
endfacet
facet normal -0.707106781186551 0.707106781186544 8.44292556269913e-017
outer loop
vertex -102.045022538784 123.24633793177 0.0
vertex -102.376393388683 122.992068135613 5.5
vertex -102.045022538784 123.24633793177 5.49999999999999
endloop
endfacet
facet normal -0.707106781186551 0.707106781186544 8.44292556269913e-017
outer loop
vertex -102.045022538784 123.24633793177 0.0
vertex -101.790752742628 123.577708781668 5.49999999999999
vertex -101.790752742628 123.577708781668 -1.12798659301916e-014
endloop
endfacet
facet normal -0.86602540378444 0.499999999999998 1.77460473759075e-016
outer loop
vertex -101.790752742628 123.577708781668 5.49999999999999
vertex -102.045022538784 123.24633793177 0.0
vertex -102.045022538784 123.24633793177 5.49999999999999
endloop
endfacet
facet normal -0.86602540378444 0.499999999999997 1.77460473759075e-016
outer loop
vertex -101.790752742628 123.577708781668 -1.12798659301916e-014
vertex -101.63091206662 123.963598309504 5.49999999999998
vertex -101.63091206662 123.963598309504 0.0
endloop
endfacet
facet normal -0.965925826289069 0.258819045102519 2.4901708849678e-016
outer loop
vertex -101.63091206662 123.963598309504 5.49999999999998
vertex -101.790752742628 123.577708781668 -1.12798659301916e-014
vertex -101.790752742628 123.577708781668 5.49999999999999
endloop
endfacet
facet normal -0.965925826289068 0.258819045102521 2.4901708849678e-016
outer loop
vertex -101.63091206662 123.963598309504 0.0
vertex -101.576393388683 124.377708781668 5.5
vertex -101.576393388683 124.377708781668 0.0
endloop
endfacet
facet normal -1.0 -6.96028920334692e-015 2.08047066233282e-016
outer loop
vertex -101.576393388683 124.377708781668 5.5
vertex -101.63091206662 123.963598309504 0.0
vertex -101.63091206662 123.963598309504 5.49999999999998
endloop
endfacet
facet normal -1.0 -4.70577839974816e-015 2.08047066233283e-016
outer loop
vertex -101.576393388683 124.377708781668 0.0
vertex -101.63091206662 124.791819253832 5.5
vertex -101.63091206662 124.791819253832 0.0
endloop
endfacet
facet normal -0.965925826289068 -0.25881904510252 1.65942609781953e-016
outer loop
vertex -101.63091206662 124.791819253832 5.5
vertex -101.576393388683 124.377708781668 0.0
vertex -101.576393388683 124.377708781668 5.5
endloop
endfacet
facet normal -0.965925826289068 -0.258819045102523 1.65942609781954e-016
outer loop
vertex -101.63091206662 124.791819253832 0.0
vertex -101.790752742628 125.177708781668 5.49999999999998
vertex -101.790752742628 125.177708781668 0.0
endloop
endfacet
facet normal -0.866025403784442 -0.499999999999995 2.07132063517639e-016
outer loop
vertex -101.790752742628 125.177708781668 5.49999999999998
vertex -101.63091206662 124.791819253832 0.0
vertex -101.63091206662 124.791819253832 5.5
endloop
endfacet
facet normal -0.866025403784441 -0.499999999999996 2.07132063517639e-016
outer loop
vertex -101.790752742628 125.177708781668 0.0
vertex -102.045022538784 125.509079631567 5.49999999999998
vertex -102.045022538784 125.509079631567 1.12798659301916e-014
endloop
endfacet
facet normal -0.707106781186549 -0.707106781186546 1.73599081342774e-016
outer loop
vertex -102.045022538784 125.509079631567 5.49999999999998
vertex -101.790752742628 125.177708781668 0.0
vertex -101.790752742628 125.177708781668 5.49999999999998
endloop
endfacet
facet normal -0.707106781186547 -0.707106781186548 1.73599081342773e-016
outer loop
vertex -102.045022538784 125.509079631567 1.12798659301916e-014
vertex -102.376393388683 125.763349427723 5.49999999999998
vertex -102.376393388683 125.763349427724 -1.12798659301916e-014
endloop
endfacet
facet normal -0.499999999999998 -0.86602540378444 5.47433769379364e-017
outer loop
vertex -102.376393388683 125.763349427723 5.49999999999998
vertex -102.045022538784 125.509079631567 1.12798659301916e-014
vertex -102.045022538784 125.509079631567 5.49999999999998
endloop
endfacet
facet normal -0.499999999999998 -0.86602540378444 5.47433769379364e-017
outer loop
vertex -102.376393388683 125.763349427723 5.49999999999998
vertex -102.762282916519 125.923190103731 1.12798659301916e-014
vertex -102.376393388683 125.763349427724 -1.12798659301916e-014
endloop
endfacet
facet normal -0.258819045102518 -0.965925826289069 6.57661231267451e-017
outer loop
vertex -102.762282916519 125.923190103731 1.12798659301916e-014
vertex -102.376393388683 125.763349427723 5.49999999999998
vertex -102.762282916519 125.923190103731 5.49999999999997
endloop
endfacet
facet normal -0.708829323519396 -8.50161439016515e-016 -0.705380032407379
outer loop
vertex -94.7341199542804 120.462337102385 5.49999999999997
vertex -124.289594406835 161.362337102385 35.2000000000001
vertex -94.7341199542804 161.362337102385 5.49999999999991
endloop
endfacet
facet normal -0.708829323519396 -8.50161439016515e-016 -0.705380032407379
outer loop
vertex -124.289594406835 161.362337102385 35.2000000000001
vertex -94.7341199542804 120.462337102385 5.49999999999997
vertex -124.289594406835 120.462337102385 35.2
endloop
endfacet
facet normal -1.0 -1.47104550762833e-015 2.22044604925031e-016
outer loop
vertex -124.289594406835 120.462337102385 35.2
vertex -124.289594406835 161.362337102385 41.1
vertex -124.289594406835 161.362337102385 35.2000000000001
endloop
endfacet
facet normal -1.0 -1.47104550762833e-015 2.22044604925031e-016
outer loop
vertex -124.289594406835 161.362337102385 41.1
vertex -124.289594406835 120.462337102385 35.2
vertex -124.289594406835 120.462337102385 41.1
endloop
endfacet
facet normal -2.46936868715987e-013 1.1169549392977e-014 1.0
outer loop
vertex -81.7895944068351 161.362337102385 9.59999999999997
vertex -83.5939207780219 120.462337102385 9.59999999999998
vertex -81.789594406835 120.462337102385 9.59999999999998
endloop
endfacet
facet normal -2.46936868715987e-013 1.1169549392977e-014 1.0
outer loop
vertex -83.5939207780219 120.462337102385 9.59999999999998
vertex -81.7895944068351 161.362337102385 9.59999999999997
vertex -83.5939207780217 161.362337102385 9.59999999999907
endloop
endfacet
facet normal 1.0 1.47104550762833e-015 -2.22044604925031e-016
outer loop
vertex -81.7895944068351 161.362337102385 9.59999999999997
vertex -81.789594406835 120.462337102385 -1.12798659301916e-014
vertex -81.7895944068352 161.362337102385 -5.63993296509579e-015
endloop
endfacet
facet normal 1.0 1.47104550762833e-015 -2.22044604925031e-016
outer loop
vertex -81.789594406835 120.462337102385 -1.12798659301916e-014
vertex -81.7895944068351 161.362337102385 9.59999999999997
vertex -81.789594406835 120.462337102385 9.59999999999998
endloop
endfacet
facet normal 0.708829323519396 8.64039226824331e-016 0.705380032407379
outer loop
vertex -121.024177080686 132.581344190176 35.5503340405839
vertex -93.3732798103163 148.681344190176 7.7642245586235
vertex -121.024177080686 148.681344190176 35.5503340405839
endloop
endfacet
facet normal 0.708829323519396 8.64039226824331e-016 0.705380032407379
outer loop
vertex -93.3732798103163 148.681344190176 7.7642245586235
vertex -121.024177080686 132.581344190176 35.5503340405839
vertex -93.3732798103163 132.581344190176 7.7642245586234
endloop
endfacet
facet normal -0.705380032407379 -1.16148610124841e-015 0.708829323519396
outer loop
vertex -93.3732798103163 148.681344190176 7.7642245586235
vertex -92.2391528926853 132.581344190176 8.89283261047521
vertex -92.2391528926853 148.681344190176 8.8928326104753
endloop
endfacet
facet normal -0.705380032407379 -1.16148610124841e-015 0.708829323519396
outer loop
vertex -92.2391528926853 132.581344190176 8.89283261047521
vertex -93.3732798103163 148.681344190176 7.7642245586235
vertex -93.3732798103163 132.581344190176 7.7642245586234
endloop
endfacet
facet normal 1.47104550762833e-015 -1.0 -3.45126646034193e-031
outer loop
vertex -92.2391528926853 148.681344190176 8.8928326104753
vertex -121.024177080686 148.681344190176 35.5503340405839
vertex -93.3732798103163 148.681344190176 7.7642245586235
endloop
endfacet
facet normal 1.47104550762833e-015 -1.0 -3.45126646034193e-031
outer loop
vertex -121.024177080686 148.681344190176 35.5503340405839
vertex -92.2391528926853 148.681344190176 8.8928326104753
vertex -119.890050163055 148.681344190176 36.6789420924356
endloop
endfacet
facet normal 0.705380032407379 1.16148610124841e-015 -0.708829323519396
outer loop
vertex -121.024177080686 132.581344190176 35.5503340405839
vertex -119.890050163055 148.681344190176 36.6789420924356
vertex -119.890050163055 132.581344190176 36.6789420924356
endloop
endfacet
facet normal 0.705380032407379 1.16148610124841e-015 -0.708829323519396
outer loop
vertex -119.890050163055 148.681344190176 36.6789420924356
vertex -121.024177080686 132.581344190176 35.5503340405839
vertex -121.024177080686 148.681344190176 35.5503340405839
endloop
endfacet
facet normal -1.47104550762833e-015 1.0 3.45126646034193e-031
outer loop
vertex -121.024177080686 132.581344190176 35.5503340405839
vertex -92.2391528926853 132.581344190176 8.89283261047521
vertex -93.3732798103163 132.581344190176 7.7642245586234
endloop
endfacet
facet normal -1.47104550762833e-015 1.0 3.45126646034193e-031
outer loop
vertex -92.2391528926853 132.581344190176 8.89283261047521
vertex -121.024177080686 132.581344190176 35.5503340405839
vertex -119.890050163055 132.581344190176 36.6789420924356
endloop
endfacet
facet normal 1.71742790890892e-015 4.82634850313823e-016 1.0
outer loop
vertex -94.7341199542804 161.362337102385 5.49999999999991
vertex -101.63091206662 158.146959053785 5.50000000000001
vertex -94.7341199542804 120.462337102385 5.49999999999997
endloop
endfacet
facet normal 1.71742790890892e-015 4.82634850313823e-016 1.0
outer loop
vertex -101.63091206662 158.146959053785 5.50000000000001
vertex -94.7341199542804 161.362337102385 5.49999999999991
vertex -101.790752742628 158.532848581621 5.49999999999998
endloop
endfacet
facet normal 1.71742790890892e-015 4.82634850313823e-016 1.0
outer loop
vertex -101.790752742628 158.532848581621 5.49999999999998
vertex -94.7341199542804 161.362337102385 5.49999999999991
vertex -102.045022538785 158.864219431519 5.49999999999998
endloop
endfacet
facet normal 1.71742790890892e-015 4.82634850313823e-016 1.0
outer loop
vertex -102.045022538785 158.864219431519 5.49999999999998
vertex -94.7341199542804 161.362337102385 5.49999999999991
vertex -102.376393388683 159.118489227676 5.49999999999998
endloop
endfacet
facet normal 1.71742790890892e-015 4.82634850313823e-016 1.0
outer loop
vertex -102.376393388683 159.118489227676 5.49999999999998
vertex -94.7341199542804 161.362337102385 5.49999999999991
vertex -102.762282916519 159.278329903683 5.50000000000001
endloop
endfacet
facet normal 1.71742790890892e-015 4.82634850313823e-016 1.0
outer loop
vertex -102.762282916519 159.278329903683 5.50000000000001
vertex -94.7341199542804 161.362337102385 5.49999999999991
vertex -109.511857180558 161.362337102385 5.49999999999997
endloop
endfacet
facet normal 1.71742790890892e-015 4.82634850313823e-016 1.0
outer loop
vertex -94.7341199542804 120.462337102385 5.49999999999997
vertex -101.63091206662 158.146959053785 5.50000000000001
vertex -101.576393388683 157.732848581621 5.49999999999999
endloop
endfacet
facet normal 1.71742790890892e-015 4.82634850313823e-016 1.0
outer loop
vertex -102.762282916519 159.278329903683 5.50000000000001
vertex -109.511857180558 161.362337102385 5.49999999999997
vertex -103.176393388683 159.332848581621 5.5
endloop
endfacet
facet normal 1.71742790890892e-015 4.82634850313823e-016 1.0
outer loop
vertex -103.176393388683 159.332848581621 5.5
vertex -109.511857180558 161.362337102385 5.49999999999997
vertex -103.590503860847 159.278329903683 5.50000000000001
endloop
endfacet
facet normal 1.71742790890892e-015 4.82634850313823e-016 1.0
outer loop
vertex -103.590503860847 159.278329903683 5.50000000000001
vertex -109.511857180558 161.362337102385 5.49999999999997
vertex -103.976393388683 159.118489227676 5.49999999999998
endloop
endfacet
facet normal 1.71742790890892e-015 4.82634850313823e-016 1.0
outer loop
vertex -103.976393388683 159.118489227676 5.49999999999998
vertex -109.511857180558 161.362337102385 5.49999999999997
vertex -104.307764238582 158.864219431519 5.49999999999998
endloop
endfacet
facet normal 1.71742790890892e-015 4.82634850313823e-016 1.0
outer loop
vertex -104.307764238582 158.864219431519 5.49999999999998
vertex -109.511857180558 161.362337102385 5.49999999999997
vertex -104.562034034738 158.532848581621 5.49999999999998
endloop
endfacet
facet normal 1.71742790890892e-015 4.82634850313823e-016 1.0
outer loop
vertex -104.562034034738 158.532848581621 5.49999999999998
vertex -109.511857180558 161.362337102385 5.49999999999997
vertex -104.721874710745 158.146959053785 5.50000000000001
endloop
endfacet
facet normal 1.71742790890892e-015 4.82634850313823e-016 1.0
outer loop
vertex -104.721874710745 158.146959053785 5.50000000000001
vertex -109.511857180558 161.362337102385 5.49999999999997
vertex -104.776393388683 157.732848581621 5.49999999999998
endloop
endfacet
facet normal 1.71742790890892e-015 4.82634850313823e-016 1.0
outer loop
vertex -104.776393388683 157.732848581621 5.49999999999998
vertex -109.511857180558 161.362337102385 5.49999999999997
vertex -104.776393388683 124.377708781668 5.5
endloop
endfacet
facet normal 1.71742790890892e-015 4.82634850313823e-016 1.0
outer loop
vertex -94.7341199542804 120.462337102385 5.49999999999997
vertex -102.762282916519 122.832227459606 5.49999999999998
vertex -109.511857180558 120.462337102385 5.49999999999999
endloop
endfacet
facet normal 1.71742790890892e-015 4.82634850313823e-016 1.0
outer loop
vertex -102.762282916519 122.832227459606 5.49999999999998
vertex -94.7341199542804 120.462337102385 5.49999999999997
vertex -102.376393388683 122.992068135613 5.5
endloop
endfacet
facet normal 1.71742790890892e-015 4.82634850313823e-016 1.0
outer loop
vertex -102.376393388683 122.992068135613 5.5
vertex -94.7341199542804 120.462337102385 5.49999999999997
vertex -102.045022538784 123.24633793177 5.49999999999999
endloop
endfacet
facet normal 1.71742790890892e-015 4.82634850313823e-016 1.0
outer loop
vertex -102.045022538784 123.24633793177 5.49999999999999
vertex -94.7341199542804 120.462337102385 5.49999999999997
vertex -101.790752742628 123.577708781668 5.49999999999999
endloop
endfacet
facet normal 1.71742790890892e-015 4.82634850313823e-016 1.0
outer loop
vertex -101.790752742628 123.577708781668 5.49999999999999
vertex -94.7341199542804 120.462337102385 5.49999999999997
vertex -101.63091206662 123.963598309504 5.49999999999998
endloop
endfacet
facet normal 1.71742790890892e-015 4.82634850313823e-016 1.0
outer loop
vertex -101.63091206662 123.963598309504 5.49999999999998
vertex -94.7341199542804 120.462337102385 5.49999999999997
vertex -101.576393388683 124.377708781668 5.5
endloop
endfacet
facet normal 1.71742790890892e-015 4.82634850313823e-016 1.0
outer loop
vertex -101.576393388683 124.377708781668 5.5
vertex -94.7341199542804 120.462337102385 5.49999999999997
vertex -101.576393388683 157.732848581621 5.49999999999999
endloop
endfacet
facet normal 1.71742790890892e-015 4.82634850313823e-016 1.0
outer loop
vertex -109.511857180558 120.462337102385 5.49999999999999
vertex -102.762282916519 122.832227459606 5.49999999999998
vertex -103.176393388683 122.777708781668 5.5
endloop
endfacet
facet normal 1.71742790890892e-015 4.82634850313823e-016 1.0
outer loop
vertex -109.511857180558 120.462337102385 5.49999999999999
vertex -103.176393388683 122.777708781668 5.5
vertex -103.590503860847 122.832227459606 5.49999999999998
endloop
endfacet
facet normal 1.71742790890892e-015 4.82634850313823e-016 1.0
outer loop
vertex -109.511857180558 120.462337102385 5.49999999999999
vertex -103.590503860847 122.832227459606 5.49999999999998
vertex -103.976393388683 122.992068135613 5.5
endloop
endfacet
facet normal 1.71742790890892e-015 4.82634850313823e-016 1.0
outer loop
vertex -109.511857180558 120.462337102385 5.49999999999999
vertex -103.976393388683 122.992068135613 5.5
vertex -104.307764238581 123.24633793177 5.49999999999999
endloop
endfacet
facet normal 1.71742790890892e-015 4.82634850313823e-016 1.0
outer loop
vertex -109.511857180558 120.462337102385 5.49999999999999
vertex -104.307764238581 123.24633793177 5.49999999999999
vertex -104.562034034738 123.577708781668 5.49999999999999
endloop
endfacet
facet normal 1.71742790890892e-015 4.82634850313823e-016 1.0
outer loop
vertex -109.511857180558 120.462337102385 5.49999999999999
vertex -104.562034034738 123.577708781668 5.49999999999999
vertex -104.721874710745 123.963598309504 5.49999999999998
endloop
endfacet
facet normal 1.71742790890892e-015 4.82634850313823e-016 1.0
outer loop
vertex -109.511857180558 120.462337102385 5.49999999999999
vertex -104.721874710745 123.963598309504 5.49999999999998
vertex -104.776393388683 124.377708781668 5.5
endloop
endfacet
facet normal 1.71742790890892e-015 4.82634850313823e-016 1.0
outer loop
vertex -109.511857180558 120.462337102385 5.49999999999999
vertex -104.776393388683 124.377708781668 5.5
vertex -109.511857180558 161.362337102385 5.49999999999997
endloop
endfacet
facet normal 1.71742790890892e-015 4.82634850313823e-016 1.0
outer loop
vertex -101.63091206662 157.318738109457 5.50000000000001
vertex -101.576393388683 124.377708781668 5.5
vertex -101.576393388683 157.732848581621 5.49999999999999
endloop
endfacet
facet normal 1.71742790890892e-015 4.82634850313823e-016 1.0
outer loop
vertex -101.576393388683 124.377708781668 5.5
vertex -101.63091206662 157.318738109457 5.50000000000001
vertex -101.63091206662 124.791819253832 5.5
endloop
endfacet
facet normal 1.71742790890892e-015 4.82634850313823e-016 1.0
outer loop
vertex -101.63091206662 124.791819253832 5.5
vertex -101.63091206662 157.318738109457 5.50000000000001
vertex -101.790752742628 156.932848581621 5.50000000000002
endloop
endfacet
facet normal 1.71742790890892e-015 4.82634850313823e-016 1.0
outer loop
vertex -101.63091206662 124.791819253832 5.5
vertex -101.790752742628 156.932848581621 5.50000000000002
vertex -101.790752742628 125.177708781668 5.49999999999998
endloop
endfacet
facet normal 1.71742790890892e-015 4.82634850313823e-016 1.0
outer loop
vertex -101.790752742628 125.177708781668 5.49999999999998
vertex -101.790752742628 156.932848581621 5.50000000000002
vertex -102.045022538785 156.601477731722 5.5
endloop
endfacet
facet normal 1.71742790890892e-015 4.82634850313823e-016 1.0
outer loop
vertex -101.790752742628 125.177708781668 5.49999999999998
vertex -102.045022538785 156.601477731722 5.5
vertex -102.045022538784 125.509079631567 5.49999999999998
endloop
endfacet
facet normal 1.71742790890892e-015 4.82634850313823e-016 1.0
outer loop
vertex -102.045022538784 125.509079631567 5.49999999999998
vertex -102.045022538785 156.601477731722 5.5
vertex -102.376393388683 156.347207935566 5.5
endloop
endfacet
facet normal 1.71742790890892e-015 4.82634850313823e-016 1.0
outer loop
vertex -102.045022538784 125.509079631567 5.49999999999998
vertex -102.376393388683 156.347207935566 5.5
vertex -102.376393388683 125.763349427723 5.49999999999998
endloop
endfacet
facet normal 1.71742790890892e-015 4.82634850313823e-016 1.0
outer loop
vertex -102.376393388683 125.763349427723 5.49999999999998
vertex -102.376393388683 156.347207935566 5.5
vertex -102.762282916519 156.187367259558 5.49999999999997
endloop
endfacet
facet normal 1.71742790890892e-015 4.82634850313823e-016 1.0
outer loop
vertex -102.376393388683 125.763349427723 5.49999999999998
vertex -102.762282916519 156.187367259558 5.49999999999997
vertex -102.762282916519 125.923190103731 5.49999999999997
endloop
endfacet
facet normal 1.71742790890892e-015 4.82634850313823e-016 1.0
outer loop
vertex -102.762282916519 125.923190103731 5.49999999999997
vertex -102.762282916519 156.187367259558 5.49999999999997
vertex -103.176393388683 156.132848581621 5.50000000000001
endloop
endfacet
facet normal 1.71742790890892e-015 4.82634850313823e-016 1.0
outer loop
vertex -102.762282916519 125.923190103731 5.49999999999997
vertex -103.176393388683 156.132848581621 5.50000000000001
vertex -103.176393388683 125.977708781668 5.49999999999998
endloop
endfacet
facet normal 1.71742790890892e-015 4.82634850313823e-016 1.0
outer loop
vertex -103.176393388683 125.977708781668 5.49999999999998
vertex -103.176393388683 156.132848581621 5.50000000000001
vertex -103.590503860847 156.187367259558 5.49999999999996
endloop
endfacet
facet normal 1.71742790890892e-015 4.82634850313823e-016 1.0
outer loop
vertex -103.176393388683 125.977708781668 5.49999999999998
vertex -103.590503860847 156.187367259558 5.49999999999996
vertex -103.590503860847 125.923190103731 5.49999999999997
endloop
endfacet
facet normal 1.71742790890892e-015 4.82634850313823e-016 1.0
outer loop
vertex -103.590503860847 125.923190103731 5.49999999999997
vertex -103.590503860847 156.187367259558 5.49999999999996
vertex -103.976393388683 156.347207935566 5.5
endloop
endfacet
facet normal 1.71742790890892e-015 4.82634850313823e-016 1.0
outer loop
vertex -103.590503860847 125.923190103731 5.49999999999997
vertex -103.976393388683 156.347207935566 5.5
vertex -103.976393388683 125.763349427724 5.49999999999998
endloop
endfacet
facet normal 1.71742790890892e-015 4.82634850313823e-016 1.0
outer loop
vertex -103.976393388683 125.763349427724 5.49999999999998
vertex -103.976393388683 156.347207935566 5.5
vertex -104.307764238581 156.601477731722 5.5
endloop
endfacet
facet normal 1.71742790890892e-015 4.82634850313823e-016 1.0
outer loop
vertex -103.976393388683 125.763349427724 5.49999999999998
vertex -104.307764238581 156.601477731722 5.5
vertex -104.307764238581 125.509079631567 5.49999999999998
endloop
endfacet
facet normal 1.71742790890892e-015 4.82634850313823e-016 1.0
outer loop
vertex -104.307764238581 125.509079631567 5.49999999999998
vertex -104.307764238581 156.601477731722 5.5
vertex -104.562034034738 156.932848581621 5.50000000000002
endloop
endfacet
facet normal 1.71742790890892e-015 4.82634850313823e-016 1.0
outer loop
vertex -104.307764238581 125.509079631567 5.49999999999998
vertex -104.562034034738 156.932848581621 5.50000000000002
vertex -104.562034034738 125.177708781668 5.49999999999998
endloop
endfacet
facet normal 1.71742790890892e-015 4.82634850313823e-016 1.0
outer loop
vertex -104.562034034738 125.177708781668 5.49999999999998
vertex -104.562034034738 156.932848581621 5.50000000000002
vertex -104.721874710745 157.318738109457 5.50000000000001
endloop
endfacet
facet normal 1.71742790890892e-015 4.82634850313823e-016 1.0
outer loop
vertex -104.562034034738 125.177708781668 5.49999999999998
vertex -104.721874710745 157.318738109457 5.50000000000001
vertex -104.721874710745 124.791819253832 5.5
endloop
endfacet
facet normal 1.71742790890892e-015 4.82634850313823e-016 1.0
outer loop
vertex -104.721874710745 124.791819253832 5.5
vertex -104.721874710745 157.318738109457 5.50000000000001
vertex -104.776393388683 157.732848581621 5.49999999999998
endloop
endfacet
facet normal 1.71742790890892e-015 4.82634850313823e-016 1.0
outer loop
vertex -104.721874710745 124.791819253832 5.5
vertex -104.776393388683 157.732848581621 5.49999999999998
vertex -104.776393388683 124.377708781668 5.5
endloop
endfacet
facet normal -1.0 -1.37895671518235e-015 6.09537521010365e-031
outer loop
vertex -109.511857180558 120.462337102385 1.12798659301916e-014
vertex -109.511857180558 161.362337102385 5.49999999999997
vertex -109.511857180558 161.362337102385 5.63993296509579e-015
endloop
endfacet
facet normal -1.0 -1.37895671518235e-015 6.09537521010365e-031
outer loop
vertex -109.511857180558 161.362337102385 5.49999999999997
vertex -109.511857180558 120.462337102385 1.12798659301916e-014
vertex -109.511857180558 120.462337102385 5.49999999999999
endloop
endfacet
facet normal 0.708829323519395 9.37795890547776e-016 0.70538003240738
outer loop
vertex -124.289594406835 120.462337102385 41.1
vertex -119.890050163055 148.681344190176 36.6789420924356
vertex -124.289594406835 161.362337102385 41.1
endloop
endfacet
facet normal 0.708829323519395 9.37795890547776e-016 0.70538003240738
outer loop
vertex -119.890050163055 148.681344190176 36.6789420924356
vertex -124.289594406835 120.462337102385 41.1
vertex -119.890050163055 132.581344190176 36.6789420924356
endloop
endfacet
facet normal 0.708829323519395 9.37795890547776e-016 0.70538003240738
outer loop
vertex -119.890050163055 132.581344190176 36.6789420924356
vertex -124.289594406835 120.462337102385 41.1
vertex -92.2391528926853 132.581344190176 8.89283261047521
endloop
endfacet
facet normal 0.708829323519395 9.37795890547776e-016 0.70538003240738
outer loop
vertex -88.8628304165675 161.362337102385 5.49999999999991
vertex -92.2391528926853 148.681344190176 8.8928326104753
vertex -88.8628304165675 120.462337102385 5.49999999999997
endloop
endfacet
facet normal 0.708829323519395 9.37795890547776e-016 0.70538003240738
outer loop
vertex -92.2391528926853 148.681344190176 8.8928326104753
vertex -88.8628304165675 161.362337102385 5.49999999999991
vertex -124.289594406835 161.362337102385 41.1
endloop
endfacet
facet normal 0.708829323519395 9.37795890547776e-016 0.70538003240738
outer loop
vertex -92.2391528926853 148.681344190176 8.8928326104753
vertex -124.289594406835 161.362337102385 41.1
vertex -119.890050163055 148.681344190176 36.6789420924356
endloop
endfacet
facet normal 0.708829323519395 9.37795890547776e-016 0.70538003240738
outer loop
vertex -88.8628304165675 120.462337102385 5.49999999999997
vertex -92.2391528926853 148.681344190176 8.8928326104753
vertex -92.2391528926853 132.581344190176 8.89283261047521
endloop
endfacet
facet normal 0.708829323519395 9.37795890547776e-016 0.70538003240738
outer loop
vertex -88.8628304165675 120.462337102385 5.49999999999997
vertex -92.2391528926853 132.581344190176 8.89283261047521
vertex -124.289594406835 120.462337102385 41.1
endloop
endfacet
facet normal 2.30064920033123e-015 -1.0 1.2985881549243e-015
outer loop
vertex -81.789594406835 120.462337102385 -1.12798659301916e-014
vertex -88.8628304165675 120.462337102385 5.49999999999997
vertex -109.511857180558 120.462337102385 1.12798659301916e-014
endloop
endfacet
facet normal 2.30064920033123e-015 -1.0 1.2985881549243e-015
outer loop
vertex -88.8628304165675 120.462337102385 5.49999999999997
vertex -81.789594406835 120.462337102385 -1.12798659301916e-014
vertex -81.789594406835 120.462337102385 9.59999999999998
endloop
endfacet
facet normal 2.30064920033123e-015 -1.0 1.2985881549243e-015
outer loop
vertex -88.8628304165675 120.462337102385 5.49999999999997
vertex -81.789594406835 120.462337102385 9.59999999999998
vertex -83.5939207780219 120.462337102385 9.59999999999998
endloop
endfacet
facet normal 2.30064920033123e-015 -1.0 1.2985881549243e-015
outer loop
vertex -124.289594406835 120.462337102385 41.1
vertex -94.7341199542804 120.462337102385 5.49999999999997
vertex -88.8628304165675 120.462337102385 5.49999999999997
endloop
endfacet
facet normal 2.30064920033123e-015 -1.0 1.2985881549243e-015
outer loop
vertex -94.7341199542804 120.462337102385 5.49999999999997
vertex -124.289594406835 120.462337102385 41.1
vertex -124.289594406835 120.462337102385 35.2
endloop
endfacet
facet normal 2.30064920033123e-015 -1.0 1.2985881549243e-015
outer loop
vertex -109.511857180558 120.462337102385 1.12798659301916e-014
vertex -94.7341199542804 120.462337102385 5.49999999999997
vertex -109.511857180558 120.462337102385 5.49999999999999
endloop
endfacet
facet normal 2.30064920033123e-015 -1.0 1.2985881549243e-015
outer loop
vertex -94.7341199542804 120.462337102385 5.49999999999997
vertex -109.511857180558 120.462337102385 1.12798659301916e-014
vertex -88.8628304165675 120.462337102385 5.49999999999997
endloop
endfacet
facet normal -0.614123443106137 9.43877807288151e-015 0.789209982594913
outer loop
vertex -88.8628304165675 161.362337102385 5.49999999999991
vertex -83.5939207780219 120.462337102385 9.59999999999998
vertex -83.5939207780217 161.362337102385 9.59999999999907
endloop
endfacet
facet normal -0.614123443106137 9.43877807288151e-015 0.789209982594913
outer loop
vertex -83.5939207780219 120.462337102385 9.59999999999998
vertex -88.8628304165675 161.362337102385 5.49999999999991
vertex -88.8628304165675 120.462337102385 5.49999999999997
endloop
endfacet
endsolid LAMPS_full_model
