<?xml version="1.0" standalone="no"?>
<!DOCTYPE svg PUBLIC "-//W3C//DTD SVG 1.1//EN" "http://www.w3.org/Graphics/SVG/1.1/DTD/svg11.dtd">
<svg width="220.0mm" height="220.0mm"
 viewBox="0 0 220.0 220.0"
 xmlns="http://www.w3.org/2000/svg" version="1.1"
 xmlns:xlink="http://www.w3.org/1999/xlink">
<desc>Output from Flights of Ideas SVG Sketchup Plugin</desc>

  <path id="face0-cut"
 style="fill:none;stroke:rgb(0,0,255);stroke-width:1;stroke-miterlimit:4;stroke-dasharray:none;stroke-linejoin:round;stroke-linecap:round"
        d="M 210.0,61.000197927238 L 210.0,29.9999999999999 L 190.0,29.9999999999999 L 190.0,10.0 L 30.0,10.0 L 30.0,29.9999999999999 L 10.0,29.9999999999997 L 10.0,190.0 L 30.0,190.0 L 30.0,210.0 L 30.9190389255088,210.0 L 190.0,210.0 L 190.0,190.0 L 210.0,190.0 L 210.0,160.000226522884 L 192.541717967449,160.000226523984 L 192.541717968536,170.000226488534 L 185.245156433956,170.000226487992 L 185.245156435022,160.000226464417 L 173.793681935599,160.000226489433 L 162.342207422136,148.54875199256 L 162.3422074118,137.000226524962 L 141.174908416893,137.000226514446 L 141.174908415584,84.5646145046136 L 162.342207402076,84.5646145202427 L 162.342207406885,72.451559337214 L 173.79354025321,61.000197927238 L 185.244851300299,61.000197927238 L 185.244829505855,51.0060771329808 L 191.84215703652,51.011109071007 L 191.835934357976,61.000197927238 L 210.0,61.000197927238 M 125.950023985659,70.6172346311508 L 125.950023985659,150.617234631151 L 45.9500239856586,150.617234631151 L 45.9500239856586,70.6172346311511 L 125.950023985659,70.6172346311508 "
  />
</svg>
