%
M48
M72
T01C0.0160
T02C0.0276
T03C0.0315
T04C0.0320
T05C0.0354
T06C0.0360
T07C0.0400
T08C0.0440
T09C0.1260
T10C0.1300
%
T01
X19700Y9400
X21300Y9800
X30900Y7000
X24900Y18200
T02
X11400Y15550
X10400Y15550
X7900Y15050
X6900Y15050
T03
X31650Y15800
X32650Y15800
X33650Y15800
X34650Y15800
X35650Y15800
X36650Y15800
X37650Y15800
X38650Y15800
X38650Y10800
X37650Y10800
X36650Y10800
X35650Y10800
X34650Y10800
X33650Y10800
X32650Y10800
X31650Y10800
T04
X27400Y10050
X26400Y10050
X25150Y10050
X24150Y10050
X22650Y10300
X22650Y11300
X22650Y12300
X22650Y13300
X24150Y12550
X25150Y12550
X26400Y12550
X27400Y12550
X26400Y14550
X25400Y14550
X24400Y14550
X23400Y14550
X22400Y14550
X21400Y14550
X20400Y14550
X19400Y14550
X18400Y14550
X17400Y14550
X16400Y14550
X15400Y14550
X13650Y15050
X12900Y14550
X12900Y15550
X15400Y17550
X16400Y17550
X17400Y17550
X18400Y17550
X19400Y17550
X20400Y17550
X21400Y17550
X22400Y17550
X23400Y17550
X24400Y17550
X25400Y17550
X26400Y17550
X27900Y16550
X28900Y16550
X28900Y15050
X27900Y15050
X19650Y13300
X19650Y12300
X17900Y12300
X17900Y13300
X17900Y11300
X19650Y11300
X19650Y10300
X17900Y10300
X17400Y8550
X18400Y8550
X19400Y8550
X20400Y8550
X21400Y8550
X22400Y8550
X23400Y8550
X24400Y8550
X25400Y8550
X26400Y8550
X27900Y8050
X28900Y8050
X28150Y6550
X28150Y5550
X26400Y5550
X25400Y5550
X24400Y5550
X23400Y5550
X22400Y5550
X21400Y5550
X20400Y5550
X19400Y5550
X18400Y5550
X17400Y5550
X16400Y5550
X15400Y5550
X13650Y8300
X12650Y8300
X11400Y8550
X10400Y8550
X10400Y10800
X11400Y10800
X12900Y11050
X13650Y11550
X12900Y12050
X11400Y13300
X10400Y13300
X14900Y13300
X14900Y12300
X14900Y11300
X14900Y10300
X15400Y8550
X16400Y8550
T05
X30400Y10550
X30400Y13550
X36150Y12300
X39150Y12300
X13650Y17050
X10650Y17050
T06
X32650Y13550
X33650Y13550
X34650Y13550
X34650Y12550
X33650Y12550
X32650Y12550
T07
X7650Y1800
X9900Y1800
X18900Y1800
X19900Y1800
X20900Y1800
X21900Y1800
X22900Y1800
X23900Y1800
X25900Y1800
X26900Y1800
X27900Y1800
X28900Y1800
X29900Y1800
X30900Y1800
X31900Y1800
X32900Y1800
X34900Y1800
X35900Y1800
X36900Y1800
X37900Y1800
X38900Y1800
X39900Y1800
X40900Y1800
X41900Y1800
X42900Y3800
X43900Y3800
X43900Y4800
X42900Y4800
X42900Y5800
X43900Y5800
X43900Y6800
X42900Y6800
X42900Y7800
X43900Y7800
X43900Y8800
X42900Y8800
X42900Y9800
X43900Y9800
X43900Y10800
X42900Y10800
X42900Y11800
X43900Y11800
X43900Y12800
X42900Y12800
X42900Y13800
X43900Y13800
X43900Y14800
X42900Y14800
X42900Y15800
X43900Y15800
X43900Y16800
X42900Y16800
X42900Y17800
X43900Y17800
X43900Y18800
X42900Y18800
X42900Y19800
X43900Y19800
X43900Y20800
X42900Y20800
X39900Y20800
X38900Y20800
X37900Y20800
X36900Y20800
X35900Y20800
X34900Y20800
X33900Y20800
X32900Y20800
X30900Y20800
X29900Y20800
X28900Y20800
X27900Y20800
X26900Y20800
X25900Y20800
X24900Y20800
X23900Y20800
X22400Y20800
X21400Y20800
X20400Y20800
X19400Y20800
X18400Y20800
X17400Y20800
X16400Y20800
X15400Y20800
X9150Y19050
X8150Y19050
X7150Y19050
X7400Y17300
X7400Y16300
X30150Y5300
X31150Y5300
X32400Y5300
X33400Y5300
X33650Y8300
X34650Y8300
X35650Y8300
X36650Y8300
X40150Y8550
X40150Y7550
X40150Y6050
X40150Y5050
T08
X14150Y19050
X10150Y19050
X8650Y13800
X8650Y12800
X8650Y11800
T09
X11900Y20800
X41400Y20800
X43900Y1800
T10
X8150Y24950
X1750Y12800
M30
