G75*
G70*
%OFA0B0*%
%FSLAX24Y24*%
%IPPOS*%
%LPD*%
%AMOC8*
5,1,8,0,0,1.08239X$1,22.5*
%
%ADD10C,0.1340*%
%ADD11C,0.0680*%
%ADD12OC8,0.0680*%
%ADD13OC8,0.0710*%
%ADD14C,0.0820*%
%ADD15C,0.0552*%
%ADD16R,0.0820X0.0820*%
%ADD17OC8,0.0620*%
%ADD18C,0.1380*%
%ADD19C,0.0740*%
%ADD20C,0.0740*%
%ADD21C,0.0730*%
%ADD22OC8,0.0560*%
%ADD23C,0.0671*%
%ADD24C,0.0580*%
%ADD25C,0.0965*%
%ADD26OC8,0.0840*%
%ADD27C,0.0905*%
%ADD28C,0.0986*%
%ADD29C,0.0560*%
%ADD30C,0.0380*%
D10*
X011900Y021050D03*
X041400Y021050D03*
X043900Y002050D03*
D11*
X041900Y001750D02*
X041900Y002350D01*
X040900Y002350D02*
X040900Y001750D01*
X039900Y001750D02*
X039900Y002350D01*
X038900Y002350D02*
X038900Y001750D01*
X037900Y001750D02*
X037900Y002350D01*
X036900Y002350D02*
X036900Y001750D01*
X035900Y001750D02*
X035900Y002350D01*
X034900Y002350D02*
X034900Y001750D01*
X032900Y001750D02*
X032900Y002350D01*
X031900Y002350D02*
X031900Y001750D01*
X030900Y001750D02*
X030900Y002350D01*
X029900Y002350D02*
X029900Y001750D01*
X028900Y001750D02*
X028900Y002350D01*
X027900Y002350D02*
X027900Y001750D01*
X026900Y001750D02*
X026900Y002350D01*
X025900Y002350D02*
X025900Y001750D01*
X023900Y001750D02*
X023900Y002350D01*
X022900Y002350D02*
X022900Y001750D01*
X021900Y001750D02*
X021900Y002350D01*
X020900Y002350D02*
X020900Y001750D01*
X019900Y001750D02*
X019900Y002350D01*
X018900Y002350D02*
X018900Y001750D01*
X034400Y003250D02*
X034400Y003850D01*
X035400Y003850D02*
X035400Y003250D01*
X036400Y003250D02*
X036400Y003850D01*
X037400Y003850D02*
X037400Y003250D01*
X038400Y003250D02*
X038400Y003850D01*
X039400Y003850D02*
X039400Y003250D01*
X040400Y003250D02*
X040400Y003850D01*
X041400Y003850D02*
X041400Y003250D01*
X044850Y005550D02*
X045450Y005550D01*
X045450Y006550D02*
X044850Y006550D01*
X044850Y007550D02*
X045450Y007550D01*
X045450Y008550D02*
X044850Y008550D01*
X044850Y009550D02*
X045450Y009550D01*
X045450Y010550D02*
X044850Y010550D01*
X044850Y011550D02*
X045450Y011550D01*
X045450Y012550D02*
X044850Y012550D01*
X041400Y018000D02*
X041400Y018600D01*
X040400Y018600D02*
X040400Y018000D01*
X039400Y018000D02*
X039400Y018600D01*
X038400Y018600D02*
X038400Y018000D01*
X037400Y018000D02*
X037400Y018600D01*
X036400Y018600D02*
X036400Y018000D01*
X035400Y018000D02*
X035400Y018600D01*
X034400Y018600D02*
X034400Y018000D01*
X033900Y020750D02*
X033900Y021350D01*
X032900Y021350D02*
X032900Y020750D01*
X034900Y020750D02*
X034900Y021350D01*
X035900Y021350D02*
X035900Y020750D01*
X036900Y020750D02*
X036900Y021350D01*
X037900Y021350D02*
X037900Y020750D01*
X038900Y020750D02*
X038900Y021350D01*
X039900Y021350D02*
X039900Y020750D01*
X030900Y020750D02*
X030900Y021350D01*
X029900Y021350D02*
X029900Y020750D01*
X028900Y020750D02*
X028900Y021350D01*
X027900Y021350D02*
X027900Y020750D01*
X026900Y020750D02*
X026900Y021350D01*
X025900Y021350D02*
X025900Y020750D01*
X024900Y020750D02*
X024900Y021350D01*
X023900Y021350D02*
X023900Y020750D01*
X023400Y019850D02*
X023400Y019250D01*
X022400Y019250D02*
X022400Y019850D01*
X022400Y020750D02*
X022400Y021350D01*
X021400Y021350D02*
X021400Y020750D01*
X020400Y020750D02*
X020400Y021350D01*
X019400Y021350D02*
X019400Y020750D01*
X018400Y020750D02*
X018400Y021350D01*
X017400Y021350D02*
X017400Y020750D01*
X016400Y020750D02*
X016400Y021350D01*
X015400Y021350D02*
X015400Y020750D01*
X009150Y019600D02*
X009150Y019000D01*
X008150Y019000D02*
X008150Y019600D01*
X007150Y019600D02*
X007150Y019000D01*
X024400Y019250D02*
X024400Y019850D01*
X025400Y019850D02*
X025400Y019250D01*
X026400Y019250D02*
X026400Y019850D01*
X027400Y019850D02*
X027400Y019250D01*
X028400Y019250D02*
X028400Y019850D01*
X029400Y019850D02*
X029400Y019250D01*
D12*
X042900Y019050D03*
X043900Y019050D03*
X043900Y018050D03*
X042900Y018050D03*
X042900Y017050D03*
X043900Y017050D03*
X043900Y016050D03*
X042900Y016050D03*
X042900Y015050D03*
X043900Y015050D03*
X043900Y014050D03*
X042900Y014050D03*
X042900Y013050D03*
X043900Y013050D03*
X043900Y012050D03*
X042900Y012050D03*
X042900Y011050D03*
X043900Y011050D03*
X043900Y010050D03*
X042900Y010050D03*
X042900Y009050D03*
X043900Y009050D03*
X043900Y008050D03*
X042900Y008050D03*
X042900Y007050D03*
X043900Y007050D03*
X043900Y006050D03*
X042900Y006050D03*
X042900Y005050D03*
X043900Y005050D03*
X043900Y004050D03*
X042900Y004050D03*
X017540Y002060D03*
X015760Y002060D03*
X042900Y020050D03*
X043900Y020050D03*
X043900Y021050D03*
X042900Y021050D03*
D13*
X033400Y019300D03*
X032400Y019300D03*
X029900Y017800D03*
X028900Y017800D03*
X030150Y016300D03*
X030150Y015300D03*
X028150Y015550D03*
X028150Y014550D03*
X028150Y012300D03*
X029150Y012300D03*
X017150Y010550D03*
X016150Y010550D03*
X016150Y008550D03*
X017150Y008550D03*
X017150Y006050D03*
X016150Y006050D03*
X010900Y007800D03*
X010900Y008800D03*
X010400Y010050D03*
X011400Y010050D03*
X011400Y011550D03*
X010400Y011550D03*
X010400Y014050D03*
X011400Y014050D03*
D14*
X006650Y001800D03*
X006650Y002800D03*
X014650Y007050D03*
X014650Y010050D03*
X013900Y011300D03*
X012650Y011300D03*
X012650Y014300D03*
X013900Y014300D03*
X014650Y015300D03*
X013400Y018050D03*
X014650Y018300D03*
X010400Y018050D03*
X007400Y017550D03*
X030900Y005050D03*
X030900Y004050D03*
X033150Y004050D03*
X033150Y005050D03*
X034900Y005550D03*
X035900Y005550D03*
X037900Y005550D03*
X038900Y005550D03*
X040650Y008550D03*
X041650Y008550D03*
X041650Y010800D03*
X040650Y010800D03*
X040900Y012550D03*
X040900Y013550D03*
X040900Y014550D03*
X038400Y013800D03*
X038400Y015550D03*
X035400Y015550D03*
X035400Y013800D03*
D15*
X035400Y012036D02*
X035400Y011564D01*
X034400Y011564D02*
X034400Y012036D01*
X033400Y012036D02*
X033400Y011564D01*
X032400Y011564D02*
X032400Y012036D01*
X031400Y012036D02*
X031400Y011564D01*
X036400Y011564D02*
X036400Y012036D01*
X037400Y012036D02*
X037400Y011564D01*
X038400Y011564D02*
X038400Y012036D01*
X038400Y016564D02*
X038400Y017036D01*
X037400Y017036D02*
X037400Y016564D01*
X036400Y016564D02*
X036400Y017036D01*
X035400Y017036D02*
X035400Y016564D01*
X034400Y016564D02*
X034400Y017036D01*
X033400Y017036D02*
X033400Y016564D01*
X032400Y016564D02*
X032400Y017036D01*
X031400Y017036D02*
X031400Y016564D01*
D16*
X040900Y015550D03*
X007400Y016550D03*
D17*
X031900Y014800D03*
X031900Y013800D03*
X032900Y013800D03*
X033900Y013800D03*
X033900Y014800D03*
X032900Y014800D03*
D18*
X008150Y025200D03*
X001750Y013050D03*
D19*
X008320Y013050D02*
X008980Y013050D01*
X008980Y012050D02*
X008320Y012050D01*
X008320Y014050D02*
X008980Y014050D01*
D20*
X010400Y019800D03*
X014400Y019800D03*
D21*
X011150Y016550D03*
X010150Y016550D03*
X007900Y015300D03*
X006900Y015300D03*
D22*
X012900Y015800D03*
X013650Y016300D03*
X012900Y016800D03*
X012900Y008800D03*
X013650Y008300D03*
X012900Y007800D03*
D23*
X012900Y002595D02*
X012900Y002005D01*
X011900Y002005D02*
X011900Y002595D01*
X010400Y002595D02*
X010400Y002005D01*
X009400Y002005D02*
X009400Y002595D01*
X008400Y002595D02*
X008400Y002005D01*
X013900Y002005D02*
X013900Y002595D01*
D24*
X031400Y007300D03*
X032400Y007300D03*
X033400Y007300D03*
X034400Y007300D03*
X036400Y007300D03*
X037400Y007300D03*
X038400Y007300D03*
X039400Y007300D03*
X039400Y010300D03*
X038400Y010300D03*
X037400Y010300D03*
X036400Y010300D03*
X034400Y010300D03*
X033400Y010300D03*
X032400Y010300D03*
X031400Y010300D03*
D25*
X018030Y003040D03*
X015270Y003040D03*
D26*
X006650Y004800D03*
X037900Y019800D03*
X040900Y005300D03*
D27*
X008563Y007050D02*
X007738Y007050D01*
X007738Y009050D02*
X008563Y009050D01*
D28*
X008947Y004800D02*
X009853Y004800D01*
X012947Y004800D02*
X013853Y004800D01*
D29*
X018400Y004290D02*
X018400Y003810D01*
X019400Y003810D02*
X019400Y004290D01*
X020400Y004290D02*
X020400Y003810D01*
X021400Y003810D02*
X021400Y004290D01*
X022400Y004290D02*
X022400Y003810D01*
X023400Y003810D02*
X023400Y004290D01*
X024400Y004290D02*
X024400Y003810D01*
X025400Y003810D02*
X025400Y004290D01*
X026400Y004290D02*
X026400Y003810D01*
X027400Y003810D02*
X027400Y004290D01*
X028400Y004290D02*
X028400Y003810D01*
X029400Y003810D02*
X029400Y004290D01*
X029400Y009810D02*
X029400Y010290D01*
X028400Y010290D02*
X028400Y009810D01*
X027400Y009810D02*
X027400Y010290D01*
X026400Y010290D02*
X026400Y009810D01*
X025400Y009810D02*
X025400Y010290D01*
X024400Y010290D02*
X024400Y009810D01*
X023400Y009810D02*
X023400Y010290D01*
X022400Y010290D02*
X022400Y009810D01*
X021400Y009810D02*
X021400Y010290D01*
X020400Y010290D02*
X020400Y009810D01*
X019400Y009810D02*
X019400Y010290D01*
X018400Y010290D02*
X018400Y009810D01*
X017900Y012060D02*
X017900Y012540D01*
X018900Y012540D02*
X018900Y012060D01*
X019900Y012060D02*
X019900Y012540D01*
X020900Y012540D02*
X020900Y012060D01*
X021900Y012060D02*
X021900Y012540D01*
X022900Y012540D02*
X022900Y012060D01*
X023900Y012060D02*
X023900Y012540D01*
X024900Y012540D02*
X024900Y012060D01*
X025900Y012060D02*
X025900Y012540D01*
X026900Y012540D02*
X026900Y012060D01*
X016900Y012060D02*
X016900Y012540D01*
X015900Y012540D02*
X015900Y012060D01*
X015900Y018060D02*
X015900Y018540D01*
X016900Y018540D02*
X016900Y018060D01*
X017900Y018060D02*
X017900Y018540D01*
X018900Y018540D02*
X018900Y018060D01*
X019900Y018060D02*
X019900Y018540D01*
X020900Y018540D02*
X020900Y018060D01*
X021900Y018060D02*
X021900Y018540D01*
X022900Y018540D02*
X022900Y018060D01*
X023900Y018060D02*
X023900Y018540D01*
X024900Y018540D02*
X024900Y018060D01*
X025900Y018060D02*
X025900Y018540D01*
X026900Y018540D02*
X026900Y018060D01*
D30*
X028100Y018050D03*
X027700Y016250D03*
X024300Y014050D03*
X027700Y013850D03*
X031500Y013450D03*
X028300Y011050D03*
X025700Y011050D03*
X023900Y011050D03*
X025500Y008250D03*
X024500Y006650D03*
X020900Y006650D03*
X018700Y006050D03*
X018300Y006450D03*
X017900Y006850D03*
X017500Y007450D03*
X017900Y005250D03*
X015100Y004850D03*
X015700Y011050D03*
X014300Y012450D03*
X011700Y012850D03*
X019500Y017650D03*
X020500Y019450D03*
X020100Y019850D03*
X035900Y010450D03*
X036700Y008650D03*
X038700Y008450D03*
X040700Y009850D03*
X029300Y005850D03*
X028300Y005850D03*
X028500Y007850D03*
M02*
