G75*
G70*
%OFA0B0*%
%FSLAX24Y24*%
%IPPOS*%
%LPD*%
%AMOC8*
5,1,8,0,0,1.08239X$1,22.5*
%
%ADD10C,0.1340*%
%ADD11C,0.0680*%
%ADD12C,0.0860*%
%ADD13C,0.0480*%
%ADD14OC8,0.0680*%
%ADD15C,0.0580*%
%ADD16C,0.0560*%
%ADD17OC8,0.0710*%
%ADD18C,0.0820*%
%ADD19C,0.0552*%
%ADD20R,0.0820X0.0820*%
%ADD21OC8,0.0620*%
%ADD22C,0.1380*%
%ADD23C,0.0740*%
%ADD24C,0.0740*%
%ADD25C,0.0730*%
%ADD26OC8,0.0560*%
%ADD27C,0.0380*%
D10*
X011900Y020800D03*
X041400Y020800D03*
X043900Y001800D03*
D11*
X041900Y001500D02*
X041900Y002100D01*
X040900Y002100D02*
X040900Y001500D01*
X039900Y001500D02*
X039900Y002100D01*
X038900Y002100D02*
X038900Y001500D01*
X037900Y001500D02*
X037900Y002100D01*
X036900Y002100D02*
X036900Y001500D01*
X035900Y001500D02*
X035900Y002100D01*
X034900Y002100D02*
X034900Y001500D01*
X032900Y001500D02*
X032900Y002100D01*
X031900Y002100D02*
X031900Y001500D01*
X030900Y001500D02*
X030900Y002100D01*
X029900Y002100D02*
X029900Y001500D01*
X028900Y001500D02*
X028900Y002100D01*
X027900Y002100D02*
X027900Y001500D01*
X026900Y001500D02*
X026900Y002100D01*
X025900Y002100D02*
X025900Y001500D01*
X023900Y001500D02*
X023900Y002100D01*
X022900Y002100D02*
X022900Y001500D01*
X021900Y001500D02*
X021900Y002100D01*
X020900Y002100D02*
X020900Y001500D01*
X019900Y001500D02*
X019900Y002100D01*
X018900Y002100D02*
X018900Y001500D01*
X009150Y018750D02*
X009150Y019350D01*
X008150Y019350D02*
X008150Y018750D01*
X007150Y018750D02*
X007150Y019350D01*
X015400Y020500D02*
X015400Y021100D01*
X016400Y021100D02*
X016400Y020500D01*
X017400Y020500D02*
X017400Y021100D01*
X018400Y021100D02*
X018400Y020500D01*
X019400Y020500D02*
X019400Y021100D01*
X020400Y021100D02*
X020400Y020500D01*
X021400Y020500D02*
X021400Y021100D01*
X022400Y021100D02*
X022400Y020500D01*
X023900Y020500D02*
X023900Y021100D01*
X024900Y021100D02*
X024900Y020500D01*
X025900Y020500D02*
X025900Y021100D01*
X026900Y021100D02*
X026900Y020500D01*
X027900Y020500D02*
X027900Y021100D01*
X028900Y021100D02*
X028900Y020500D01*
X029900Y020500D02*
X029900Y021100D01*
X030900Y021100D02*
X030900Y020500D01*
X032900Y020500D02*
X032900Y021100D01*
X033900Y021100D02*
X033900Y020500D01*
X034900Y020500D02*
X034900Y021100D01*
X035900Y021100D02*
X035900Y020500D01*
X036900Y020500D02*
X036900Y021100D01*
X037900Y021100D02*
X037900Y020500D01*
X038900Y020500D02*
X038900Y021100D01*
X039900Y021100D02*
X039900Y020500D01*
D12*
X013503Y020800D02*
X013505Y020827D01*
X013511Y020854D01*
X013520Y020880D01*
X013533Y020904D01*
X013549Y020927D01*
X013568Y020946D01*
X013590Y020963D01*
X013614Y020977D01*
X013639Y020987D01*
X013666Y020994D01*
X013693Y020997D01*
X013721Y020996D01*
X013748Y020991D01*
X013774Y020983D01*
X013798Y020971D01*
X013821Y020955D01*
X013842Y020937D01*
X013859Y020916D01*
X013874Y020892D01*
X013885Y020867D01*
X013893Y020841D01*
X013897Y020814D01*
X013897Y020786D01*
X013893Y020759D01*
X013885Y020733D01*
X013874Y020708D01*
X013859Y020684D01*
X013842Y020663D01*
X013821Y020645D01*
X013799Y020629D01*
X013774Y020617D01*
X013748Y020609D01*
X013721Y020604D01*
X013693Y020603D01*
X013666Y020606D01*
X013639Y020613D01*
X013614Y020623D01*
X013590Y020637D01*
X013568Y020654D01*
X013549Y020673D01*
X013533Y020696D01*
X013520Y020720D01*
X013511Y020746D01*
X013505Y020773D01*
X013503Y020800D01*
D13*
X013700Y020800D03*
D14*
X007650Y001800D03*
X009900Y001800D03*
X042900Y003800D03*
X043900Y003800D03*
X043900Y004800D03*
X042900Y004800D03*
X042900Y005800D03*
X043900Y005800D03*
X043900Y006800D03*
X042900Y006800D03*
X042900Y007800D03*
X043900Y007800D03*
X043900Y008800D03*
X042900Y008800D03*
X042900Y009800D03*
X043900Y009800D03*
X043900Y010800D03*
X042900Y010800D03*
X042900Y011800D03*
X043900Y011800D03*
X043900Y012800D03*
X042900Y012800D03*
X042900Y013800D03*
X043900Y013800D03*
X043900Y014800D03*
X042900Y014800D03*
X042900Y015800D03*
X043900Y015800D03*
X043900Y016800D03*
X042900Y016800D03*
X042900Y017800D03*
X043900Y017800D03*
X043900Y018800D03*
X042900Y018800D03*
X042900Y019800D03*
X043900Y019800D03*
X043900Y020800D03*
X042900Y020800D03*
D15*
X022650Y013300D03*
X022650Y012300D03*
X022650Y011300D03*
X022650Y010300D03*
X019650Y010300D03*
X017900Y010300D03*
X017900Y011300D03*
X019650Y011300D03*
X019650Y012300D03*
X019650Y013300D03*
X017900Y013300D03*
X017900Y012300D03*
X014900Y012300D03*
X014900Y013300D03*
X014900Y011300D03*
X014900Y010300D03*
D16*
X015400Y008790D02*
X015400Y008310D01*
X016400Y008310D02*
X016400Y008790D01*
X017400Y008790D02*
X017400Y008310D01*
X018400Y008310D02*
X018400Y008790D01*
X019400Y008790D02*
X019400Y008310D01*
X020400Y008310D02*
X020400Y008790D01*
X021400Y008790D02*
X021400Y008310D01*
X022400Y008310D02*
X022400Y008790D01*
X023400Y008790D02*
X023400Y008310D01*
X024400Y008310D02*
X024400Y008790D01*
X025400Y008790D02*
X025400Y008310D01*
X026400Y008310D02*
X026400Y008790D01*
X026400Y005790D02*
X026400Y005310D01*
X025400Y005310D02*
X025400Y005790D01*
X024400Y005790D02*
X024400Y005310D01*
X023400Y005310D02*
X023400Y005790D01*
X022400Y005790D02*
X022400Y005310D01*
X021400Y005310D02*
X021400Y005790D01*
X020400Y005790D02*
X020400Y005310D01*
X019400Y005310D02*
X019400Y005790D01*
X018400Y005790D02*
X018400Y005310D01*
X017400Y005310D02*
X017400Y005790D01*
X016400Y005790D02*
X016400Y005310D01*
X015400Y005310D02*
X015400Y005790D01*
X015400Y014310D02*
X015400Y014790D01*
X016400Y014790D02*
X016400Y014310D01*
X017400Y014310D02*
X017400Y014790D01*
X018400Y014790D02*
X018400Y014310D01*
X019400Y014310D02*
X019400Y014790D01*
X020400Y014790D02*
X020400Y014310D01*
X021400Y014310D02*
X021400Y014790D01*
X022400Y014790D02*
X022400Y014310D01*
X023400Y014310D02*
X023400Y014790D01*
X024400Y014790D02*
X024400Y014310D01*
X025400Y014310D02*
X025400Y014790D01*
X026400Y014790D02*
X026400Y014310D01*
X026400Y017310D02*
X026400Y017790D01*
X025400Y017790D02*
X025400Y017310D01*
X024400Y017310D02*
X024400Y017790D01*
X023400Y017790D02*
X023400Y017310D01*
X022400Y017310D02*
X022400Y017790D01*
X021400Y017790D02*
X021400Y017310D01*
X020400Y017310D02*
X020400Y017790D01*
X019400Y017790D02*
X019400Y017310D01*
X018400Y017310D02*
X018400Y017790D01*
X017400Y017790D02*
X017400Y017310D01*
X016400Y017310D02*
X016400Y017790D01*
X015400Y017790D02*
X015400Y017310D01*
D17*
X011400Y013300D03*
X010400Y013300D03*
X010400Y010800D03*
X011400Y010800D03*
X011400Y008550D03*
X010400Y008550D03*
X012650Y008300D03*
X013650Y008300D03*
X024150Y010050D03*
X025150Y010050D03*
X026400Y010050D03*
X027400Y010050D03*
X027900Y008050D03*
X028900Y008050D03*
X028150Y006550D03*
X028150Y005550D03*
X027400Y012550D03*
X026400Y012550D03*
X025150Y012550D03*
X024150Y012550D03*
X027900Y015050D03*
X028900Y015050D03*
X028900Y016550D03*
X027900Y016550D03*
D18*
X030400Y013550D03*
X030400Y010550D03*
X033650Y008300D03*
X034650Y008300D03*
X035650Y008300D03*
X040150Y008550D03*
X040150Y007550D03*
X040150Y006050D03*
X040150Y005050D03*
X033400Y005300D03*
X032400Y005300D03*
X031150Y005300D03*
X030150Y005300D03*
X036150Y012300D03*
X039150Y012300D03*
X013650Y017050D03*
X010650Y017050D03*
X007400Y017300D03*
D19*
X031650Y016036D02*
X031650Y015564D01*
X032650Y015564D02*
X032650Y016036D01*
X033650Y016036D02*
X033650Y015564D01*
X034650Y015564D02*
X034650Y016036D01*
X035650Y016036D02*
X035650Y015564D01*
X036650Y015564D02*
X036650Y016036D01*
X037650Y016036D02*
X037650Y015564D01*
X038650Y015564D02*
X038650Y016036D01*
X038650Y011036D02*
X038650Y010564D01*
X037650Y010564D02*
X037650Y011036D01*
X036650Y011036D02*
X036650Y010564D01*
X035650Y010564D02*
X035650Y011036D01*
X034650Y011036D02*
X034650Y010564D01*
X033650Y010564D02*
X033650Y011036D01*
X032650Y011036D02*
X032650Y010564D01*
X031650Y010564D02*
X031650Y011036D01*
D20*
X036650Y008300D03*
X007400Y016300D03*
D21*
X032650Y013550D03*
X033650Y013550D03*
X034650Y013550D03*
X034650Y012550D03*
X033650Y012550D03*
X032650Y012550D03*
D22*
X008150Y024950D03*
X001750Y012800D03*
D23*
X008320Y012800D02*
X008980Y012800D01*
X008980Y011800D02*
X008320Y011800D01*
X008320Y013800D02*
X008980Y013800D01*
D24*
X010150Y019050D03*
X014150Y019050D03*
D25*
X011400Y015550D03*
X010400Y015550D03*
X007900Y015050D03*
X006900Y015050D03*
D26*
X012900Y014550D03*
X013650Y015050D03*
X012900Y015550D03*
X012900Y012050D03*
X013650Y011550D03*
X012900Y011050D03*
D27*
X019700Y009400D03*
X021300Y009800D03*
X030900Y007000D03*
X024900Y018200D03*
M02*
