%
M48
M72
T01C0.0160
T02C0.0276
T03C0.0315
T04C0.0320
T05C0.0354
T06C0.0360
T07C0.0394
T08C0.0400
T09C0.0440
T10C0.0472
T11C0.0550
T12C0.0590
T13C0.1260
T14C0.1300
%
T01
X15100Y4850
X17900Y5250
X18700Y6050
X18300Y6450
X17900Y6850
X17500Y7450
X20900Y6650
X24500Y6650
X25500Y8250
X28500Y7850
X28300Y5850
X29300Y5850
X36700Y8650
X38700Y8450
X40700Y9850
X35900Y10450
X31500Y13450
X28300Y11050
X25700Y11050
X23900Y11050
X27700Y13850
X24300Y14050
X27700Y16250
X28100Y18050
X20500Y19450
X20100Y19850
X19500Y17650
X11700Y12850
X14300Y12450
X15700Y11050
T02
X7900Y15300
X6900Y15300
X10150Y16550
X11150Y16550
T03
X31400Y16800
X32400Y16800
X33400Y16800
X34400Y16800
X35400Y16800
X36400Y16800
X37400Y16800
X38400Y16800
X38400Y11800
X37400Y11800
X36400Y11800
X35400Y11800
X34400Y11800
X33400Y11800
X32400Y11800
X31400Y11800
T04
X29150Y12300
X28150Y12300
X26900Y12300
X25900Y12300
X24900Y12300
X23900Y12300
X22900Y12300
X21900Y12300
X20900Y12300
X19900Y12300
X18900Y12300
X17900Y12300
X16900Y12300
X15900Y12300
X16150Y10550
X17150Y10550
X18400Y10050
X19400Y10050
X20400Y10050
X21400Y10050
X22400Y10050
X23400Y10050
X24400Y10050
X25400Y10050
X26400Y10050
X27400Y10050
X28400Y10050
X29400Y10050
X31400Y10300
X32400Y10300
X33400Y10300
X34400Y10300
X36400Y10300
X37400Y10300
X38400Y10300
X39400Y10300
X39400Y7300
X38400Y7300
X37400Y7300
X36400Y7300
X34400Y7300
X33400Y7300
X32400Y7300
X31400Y7300
X29400Y4050
X28400Y4050
X27400Y4050
X26400Y4050
X25400Y4050
X24400Y4050
X23400Y4050
X22400Y4050
X21400Y4050
X20400Y4050
X19400Y4050
X18400Y4050
X17150Y6050
X16150Y6050
X12900Y7800
X13650Y8300
X12900Y8800
X10900Y8800
X10900Y7800
X10400Y10050
X11400Y10050
X11400Y11550
X10400Y11550
X10400Y14050
X11400Y14050
X12900Y15800
X13650Y16300
X12900Y16800
X15900Y18300
X16900Y18300
X17900Y18300
X18900Y18300
X19900Y18300
X20900Y18300
X21900Y18300
X22900Y18300
X23900Y18300
X24900Y18300
X25900Y18300
X26900Y18300
X28900Y17800
X29900Y17800
X30150Y16300
X30150Y15300
X28150Y15550
X28150Y14550
X32400Y19300
X33400Y19300
X17150Y8550
X16150Y8550
T05
X14650Y7050
X14650Y10050
X13900Y11300
X12650Y11300
X12650Y14300
X13900Y14300
X14650Y15300
X13400Y18050
X14650Y18300
X10400Y18050
X35400Y15550
X35400Y13800
X38400Y13800
X38400Y15550
T06
X33900Y14800
X32900Y14800
X32900Y13800
X33900Y13800
X31900Y13800
X31900Y14800
T07
X13900Y2300
X12900Y2300
X11900Y2300
X10400Y2300
X9400Y2300
X8400Y2300
T08
X6650Y1800
X6650Y2800
X6650Y4800
X15760Y2060
X17540Y2060
X18900Y2050
X19900Y2050
X20900Y2050
X21900Y2050
X22900Y2050
X23900Y2050
X25900Y2050
X26900Y2050
X27900Y2050
X28900Y2050
X29900Y2050
X30900Y2050
X31900Y2050
X32900Y2050
X34900Y2050
X35900Y2050
X36900Y2050
X37900Y2050
X38900Y2050
X39900Y2050
X40900Y2050
X41900Y2050
X41400Y3550
X40400Y3550
X39400Y3550
X38400Y3550
X37400Y3550
X36400Y3550
X35400Y3550
X34400Y3550
X33150Y4050
X33150Y5050
X34900Y5550
X35900Y5550
X37900Y5550
X38900Y5550
X40900Y5300
X42900Y5050
X43900Y5050
X43900Y4050
X42900Y4050
X45150Y5550
X43900Y6050
X42900Y6050
X42900Y7050
X43900Y7050
X43900Y8050
X42900Y8050
X41650Y8550
X40650Y8550
X42900Y9050
X43900Y9050
X45150Y8550
X45150Y7550
X45150Y6550
X45150Y9550
X43900Y10050
X42900Y10050
X41650Y10800
X40650Y10800
X42900Y11050
X43900Y11050
X43900Y12050
X42900Y12050
X42900Y13050
X43900Y13050
X45150Y12550
X45150Y11550
X45150Y10550
X40900Y12550
X40900Y13550
X40900Y14550
X40900Y15550
X42900Y15050
X43900Y15050
X43900Y14050
X42900Y14050
X42900Y16050
X43900Y16050
X43900Y17050
X42900Y17050
X42900Y18050
X43900Y18050
X43900Y19050
X42900Y19050
X41400Y18300
X40400Y18300
X39400Y18300
X38400Y18300
X37400Y18300
X36400Y18300
X35400Y18300
X34400Y18300
X37900Y19800
X37900Y21050
X36900Y21050
X35900Y21050
X34900Y21050
X33900Y21050
X32900Y21050
X30900Y21050
X29900Y21050
X28900Y21050
X27900Y21050
X26900Y21050
X25900Y21050
X24900Y21050
X23900Y21050
X22400Y21050
X21400Y21050
X20400Y21050
X19400Y21050
X18400Y21050
X17400Y21050
X16400Y21050
X15400Y21050
X9150Y19300
X8150Y19300
X7150Y19300
X7400Y17550
X7400Y16550
X22400Y19550
X23400Y19550
X24400Y19550
X25400Y19550
X26400Y19550
X27400Y19550
X28400Y19550
X29400Y19550
X38900Y21050
X39900Y21050
X42900Y21050
X43900Y21050
X43900Y20050
X42900Y20050
X30900Y5050
X30900Y4050
T09
X8650Y12050
X8650Y13050
X8650Y14050
X10400Y19800
X14400Y19800
T10
X13400Y4800
X9400Y4800
T11
X8150Y7050
X8150Y9050
T12
X15270Y3040
X18030Y3040
T13
X43900Y2050
X41400Y21050
X11900Y21050
T14
X8150Y25200
X1750Y13050
M30
