 0
SECTION
 2
ENTITIES
  0
POLYLINE
 8
Layer0
 66
     1
70
    8
 10
0.0
 20
 0.0
 30
0.0
  0
VERTEX
  8
MY3DLAYER
10
352.360644999028
20
125.359151657092
30
34.3495231552262
 70
     32
  0
VERTEX
  8
MY3DLAYER
10
335.447473236771
20
125.359151657092
30
34.3495231552261
 70
     32
  0
VERTEX
  8
MY3DLAYER
10
336.732892079241
20
124.251504076026
30
34.3495231552261
 70
     32
  0
VERTEX
  8
MY3DLAYER
10
338.032010311239
20
122.343383805499
30
34.3495231552261
 70
     32
  0
VERTEX
  8
MY3DLAYER
10
338.793004296571
20
120.164044616251
30
34.3495231552261
 70
     32
  0
VERTEX
  8
MY3DLAYER
10
338.964013552739
20
117.8620048725
30
34.3495231552261
 70
     32
  0
VERTEX
  8
MY3DLAYER
10
338.533384081539
20
115.594144778482
30
34.3495231552261
 70
     32
  0
VERTEX
  8
MY3DLAYER
10
337.530462569787
20
113.515015251788
30
34.3495231552261
 70
     32
  0
VERTEX
  8
MY3DLAYER
10
336.023596461101
20
111.766305533739
30
34.3495231552261
 70
     32
  0
VERTEX
  8
MY3DLAYER
10
334.115476190575
20
110.467187301741
30
34.3495231552261
 70
     32
  0
VERTEX
  8
MY3DLAYER
10
331.936137001327
20
109.706193316409
30
34.3495231552261
 70
     32
  0
VERTEX
  8
MY3DLAYER
10
329.634097257576
20
109.535184060241
30
34.3495231552261
 70
     32
  0
VERTEX
  8
MY3DLAYER
10
327.366237163558
20
109.965813531441
30
34.3495231552261
 70
     32
  0
VERTEX
  8
MY3DLAYER
10
325.287107636864
20
110.968735043193
30
34.3495231552261
 70
     32
  0
VERTEX
  8
MY3DLAYER
10
323.538397918815
20
112.475601151879
30
34.3495231552262
 70
     32
  0
VERTEX
  8
MY3DLAYER
10
322.239279686816
20
114.383721422405
30
34.3495231552262
 70
     32
  0
VERTEX
  8
MY3DLAYER
10
321.478285701484
20
116.563060611653
30
34.3495231552262
 70
     32
  0
VERTEX
  8
MY3DLAYER
10
321.307276445317
20
118.865100355404
30
34.3495231552262
 70
     32
  0
VERTEX
  8
MY3DLAYER
10
321.737905916516
20
121.132960449422
30
34.3495231552262
 70
     32
  0
VERTEX
  8
MY3DLAYER
10
322.740827428269
20
123.212089976116
30
34.3495231552261
 70
     32
  0
VERTEX
  8
MY3DLAYER
10
324.247693536954
20
124.960799694165
30
34.3495231552261
 70
     32
  0
VERTEX
  8
MY3DLAYER
10
324.832785360426
20
125.359151657092
30
34.3495231552262
 70
     32
  0
VERTEX
  8
MY3DLAYER
10
307.911636333886
20
125.359151657092
30
34.3495231552262
 70
     32
  0
VERTEX
  8
MY3DLAYER
10
307.911636333886
20
120.359151657092
30
34.3495231552262
 70
     32
  0
VERTEX
  8
MY3DLAYER
10
312.911636333886
20
120.359151657092
30
34.3495231552262
 70
     32
  0
VERTEX
  8
MY3DLAYER
10
312.911636333886
20
117.189086318756
30
34.3495231552262
 70
     32
  0
VERTEX
  8
MY3DLAYER
10
316.797902436553
20
117.189086318756
30
34.3495231552262
 70
     32
  0
VERTEX
  8
MY3DLAYER
10
316.797902436553
20
118.349299992881
30
34.3495231552262
 70
     32
  0
VERTEX
  8
MY3DLAYER
10
319.142856218447
20
118.349299992881
30
34.3495231552262
 70
     32
  0
VERTEX
  8
MY3DLAYER
10
319.142856218447
20
112.95504892516
30
34.3495231552262
 70
     32
  0
VERTEX
  8
MY3DLAYER
10
316.797902436553
20
112.95504892516
30
34.3495231552262
 70
     32
  0
VERTEX
  8
MY3DLAYER
10
316.797902436553
20
114.100086318756
30
34.3495231552262
 70
     32
  0
VERTEX
  8
MY3DLAYER
10
312.911636333886
20
114.100086318756
30
34.3495231552262
 70
     32
  0
VERTEX
  8
MY3DLAYER
10
312.911636333886
20
109.530857657092
30
34.3495231552262
 70
     32
  0
VERTEX
  8
MY3DLAYER
10
307.911636333886
20
109.530857657092
30
34.3495231552262
 70
     32
  0
VERTEX
  8
MY3DLAYER
10
307.911636333886
20
104.530857657092
30
34.3495231552263
 70
     32
  0
VERTEX
  8
MY3DLAYER
10
312.911636333886
20
104.530857657092
30
34.3495231552262
 70
     32
  0
VERTEX
  8
MY3DLAYER
10
312.911636333886
20
99.5308576570919
30
34.3495231552262
 70
     32
  0
VERTEX
  8
MY3DLAYER
10
320.911636333886
20
99.5308576570919
30
34.3495231552262
 70
     32
  0
VERTEX
  8
MY3DLAYER
10
339.360644999028
20
99.5308576570919
30
34.3495231552262
 70
     32
  0
VERTEX
  8
MY3DLAYER
10
347.360644999028
20
99.5308576570919
30
34.3495231552262
 70
     32
  0
VERTEX
  8
MY3DLAYER
10
347.360644999028
20
104.530857657092
30
34.3495231552262
 70
     32
  0
VERTEX
  8
MY3DLAYER
10
352.360644999028
20
104.530857657092
30
34.3495231552263
 70
     32
  0
VERTEX
  8
MY3DLAYER
10
352.360644999028
20
109.530857657092
30
34.3495231552262
 70
     32
  0
VERTEX
  8
MY3DLAYER
10
347.359802844756
20
109.530206963082
30
34.3495231552262
 70
     32
  0
VERTEX
  8
MY3DLAYER
10
347.360794179615
20
114.099435624747
30
34.349523155226
 70
     32
  0
VERTEX
  8
MY3DLAYER
10
343.474378896361
20
114.100086318756
30
34.3495231552261
 70
     32
  0
VERTEX
  8
MY3DLAYER
10
343.474378896361
20
112.95504892516
30
34.3495231552261
 70
     32
  0
VERTEX
  8
MY3DLAYER
10
341.129425114467
20
112.95504892516
30
34.3495231552259
 70
     32
  0
VERTEX
  8
MY3DLAYER
10
341.129425114467
20
118.422681318756
30
34.3495231552259
 70
     32
  0
VERTEX
  8
MY3DLAYER
10
343.474378896361
20
118.422681318756
30
34.3495231552261
 70
     32
  0
VERTEX
  8
MY3DLAYER
10
343.474378896361
20
117.189086318756
30
34.3495231552261
 70
     32
  0
VERTEX
  8
MY3DLAYER
10
347.360978135193
20
117.19002426538
30
34.349523155226
 70
     32
  0
VERTEX
  8
MY3DLAYER
10
347.359986800334
20
120.360089603715
30
34.3495231552262
 70
     32
  0
VERTEX
  8
MY3DLAYER
10
352.360644999028
20
120.359151657092
30
34.3495231552262
 70
     32
  0
VERTEX
  8
MY3DLAYER
10
352.360644999028
20
125.359151657092
30
34.3495231552262
 70
     32
  0
SEQEND
 0
ENDSEC
 0
EOF
