G75*
G70*
%OFA0B0*%
%FSLAX24Y24*%
%IPPOS*%
%LPD*%
%AMOC8*
5,1,8,0,0,1.08239X$1,22.5*
%
%ADD10C,0.0000*%
%ADD11R,0.0591X0.0197*%
%ADD12R,0.0197X0.0591*%
%ADD13R,0.0644X0.0173*%
%ADD14R,0.0551X0.0157*%
%ADD15R,0.0394X0.0433*%
%ADD16R,0.0433X0.0394*%
%ADD17R,0.0669X0.0945*%
%ADD18R,0.0630X0.0551*%
%ADD19R,0.0157X0.0531*%
%ADD20R,0.0748X0.0630*%
%ADD21R,0.0157X0.0197*%
%ADD22R,0.0197X0.0197*%
%ADD23R,0.0591X0.0827*%
%ADD24R,0.0413X0.0425*%
%ADD25R,0.0425X0.0413*%
%ADD26R,0.0630X0.0118*%
%ADD27R,0.0512X0.0591*%
%ADD28R,0.0551X0.1181*%
%ADD29R,0.0260X0.0800*%
%ADD30R,0.0480X0.0880*%
%ADD31R,0.1417X0.0866*%
%ADD32R,0.0276X0.0118*%
%ADD33R,0.0315X0.0472*%
%ADD34R,0.0236X0.0236*%
D10*
X004097Y002109D02*
X004097Y015888D01*
X004099Y015950D01*
X004105Y016011D01*
X004114Y016072D01*
X004128Y016133D01*
X004145Y016192D01*
X004166Y016250D01*
X004191Y016307D01*
X004219Y016362D01*
X004250Y016415D01*
X004285Y016466D01*
X004323Y016515D01*
X004364Y016562D01*
X004407Y016605D01*
X004454Y016646D01*
X004503Y016684D01*
X004554Y016719D01*
X004607Y016750D01*
X004662Y016778D01*
X004719Y016803D01*
X004777Y016824D01*
X004836Y016841D01*
X004897Y016855D01*
X004958Y016864D01*
X005019Y016870D01*
X005081Y016872D01*
X005081Y016873D02*
X038940Y016873D01*
X038940Y016872D02*
X039002Y016870D01*
X039063Y016864D01*
X039124Y016855D01*
X039185Y016841D01*
X039244Y016824D01*
X039302Y016803D01*
X039359Y016778D01*
X039414Y016750D01*
X039467Y016719D01*
X039518Y016684D01*
X039567Y016646D01*
X039614Y016605D01*
X039657Y016562D01*
X039698Y016515D01*
X039736Y016466D01*
X039771Y016415D01*
X039802Y016362D01*
X039830Y016307D01*
X039855Y016250D01*
X039876Y016192D01*
X039893Y016133D01*
X039907Y016072D01*
X039916Y016011D01*
X039922Y015950D01*
X039924Y015888D01*
X039924Y002109D01*
X039922Y002047D01*
X039916Y001986D01*
X039907Y001925D01*
X039893Y001864D01*
X039876Y001805D01*
X039855Y001747D01*
X039830Y001690D01*
X039802Y001635D01*
X039771Y001582D01*
X039736Y001531D01*
X039698Y001482D01*
X039657Y001435D01*
X039614Y001392D01*
X039567Y001351D01*
X039518Y001313D01*
X039467Y001278D01*
X039414Y001247D01*
X039359Y001219D01*
X039302Y001194D01*
X039244Y001173D01*
X039185Y001156D01*
X039124Y001142D01*
X039063Y001133D01*
X039002Y001127D01*
X038940Y001125D01*
X005081Y001125D01*
X005019Y001127D01*
X004958Y001133D01*
X004897Y001142D01*
X004836Y001156D01*
X004777Y001173D01*
X004719Y001194D01*
X004662Y001219D01*
X004607Y001247D01*
X004554Y001278D01*
X004503Y001313D01*
X004454Y001351D01*
X004407Y001392D01*
X004364Y001435D01*
X004323Y001482D01*
X004285Y001531D01*
X004250Y001582D01*
X004219Y001635D01*
X004191Y001690D01*
X004166Y001747D01*
X004145Y001805D01*
X004128Y001864D01*
X004114Y001925D01*
X004105Y001986D01*
X004099Y002047D01*
X004097Y002109D01*
D11*
X016093Y004979D03*
X016093Y005294D03*
X016093Y005609D03*
X016093Y005924D03*
X016093Y006239D03*
X016093Y006554D03*
X016093Y006869D03*
X016093Y007184D03*
X016093Y007499D03*
X016093Y007814D03*
X016093Y008129D03*
X016093Y008443D03*
X016093Y008758D03*
X016093Y009073D03*
X016093Y009388D03*
X016093Y009703D03*
X022235Y009703D03*
X022235Y009388D03*
X022235Y009073D03*
X022235Y008758D03*
X022235Y008443D03*
X022235Y008129D03*
X022235Y007814D03*
X022235Y007499D03*
X022235Y007184D03*
X022235Y006869D03*
X022235Y006554D03*
X022235Y006239D03*
X022235Y005924D03*
X022235Y005609D03*
X022235Y005294D03*
X022235Y004979D03*
D12*
X021526Y004270D03*
X021211Y004270D03*
X020896Y004270D03*
X020581Y004270D03*
X020266Y004270D03*
X019951Y004270D03*
X019636Y004270D03*
X019321Y004270D03*
X019006Y004270D03*
X018691Y004270D03*
X018377Y004270D03*
X018062Y004270D03*
X017747Y004270D03*
X017432Y004270D03*
X017117Y004270D03*
X016802Y004270D03*
X016802Y010412D03*
X017117Y010412D03*
X017432Y010412D03*
X017747Y010412D03*
X018062Y010412D03*
X018377Y010412D03*
X018691Y010412D03*
X019006Y010412D03*
X019321Y010412D03*
X019636Y010412D03*
X019951Y010412D03*
X020266Y010412D03*
X020581Y010412D03*
X020896Y010412D03*
X021211Y010412D03*
X021526Y010412D03*
D13*
X027274Y007709D03*
X027274Y007453D03*
X027274Y007197D03*
X027274Y006941D03*
X027274Y006686D03*
X027274Y006430D03*
X027274Y006174D03*
X027274Y005918D03*
X027274Y005662D03*
X027274Y005406D03*
X027274Y005150D03*
X027274Y004894D03*
X029676Y004894D03*
X029676Y005150D03*
X029676Y005406D03*
X029676Y005662D03*
X029676Y005918D03*
X029676Y006174D03*
X029676Y006430D03*
X029676Y006686D03*
X029676Y006941D03*
X029676Y007197D03*
X029676Y007453D03*
X029676Y007709D03*
D14*
X032093Y007247D03*
X032093Y006991D03*
X032093Y006735D03*
X032093Y006479D03*
X032093Y006223D03*
X032093Y005967D03*
X032093Y005711D03*
X034416Y005711D03*
X034416Y005967D03*
X034416Y006223D03*
X034416Y006479D03*
X034416Y006735D03*
X034416Y006991D03*
X034416Y007247D03*
D15*
X035058Y007062D03*
X035727Y007062D03*
X035463Y007912D03*
X034794Y007912D03*
X034262Y007900D03*
X033593Y007900D03*
X032778Y007940D03*
X032109Y007940D03*
X035066Y005861D03*
X035735Y005861D03*
X035451Y005018D03*
X034782Y005018D03*
X034262Y005018D03*
X033593Y005018D03*
X032825Y004999D03*
X032156Y004999D03*
X029786Y003172D03*
X029117Y003172D03*
X014510Y004058D03*
X013841Y004058D03*
X008684Y006006D03*
X008684Y006676D03*
D16*
X009038Y007188D03*
X009707Y007188D03*
X009668Y008073D03*
X008999Y008073D03*
X022739Y003999D03*
X023329Y003999D03*
X023861Y003743D03*
X023329Y003329D03*
X022739Y003329D03*
X023861Y004412D03*
X024707Y004963D03*
X025239Y005081D03*
X024707Y005632D03*
X025239Y005751D03*
X026006Y007424D03*
X026006Y008093D03*
X031278Y007979D03*
X031278Y007310D03*
X031254Y005814D03*
X031254Y005144D03*
D17*
X019943Y013073D03*
X018487Y013073D03*
D18*
X024038Y002660D03*
X026558Y002660D03*
D19*
X025810Y002758D03*
X025554Y002758D03*
X025298Y002758D03*
X025042Y002758D03*
X024786Y002758D03*
D20*
X024825Y001695D03*
X025770Y001695D03*
D21*
X023132Y004353D03*
X023132Y004943D03*
D22*
X022837Y004904D03*
X022837Y004392D03*
X023428Y004392D03*
X023428Y004904D03*
D23*
X023152Y002247D03*
X021735Y002247D03*
X031380Y013782D03*
X032798Y013782D03*
D24*
X035642Y010514D03*
X036331Y010514D03*
X036567Y009904D03*
X035879Y009904D03*
X023536Y006892D03*
X022847Y006892D03*
X018024Y003605D03*
X017335Y003605D03*
X021016Y003349D03*
X021705Y003349D03*
X018910Y014058D03*
X019540Y014097D03*
X020229Y014097D03*
X018221Y014058D03*
D25*
X020298Y012119D03*
X020298Y011430D03*
X026538Y007178D03*
X026538Y006489D03*
X022188Y003910D03*
X022188Y003221D03*
X037404Y005819D03*
X037404Y006508D03*
X037424Y006941D03*
X037424Y007630D03*
D26*
X011814Y006607D03*
X011814Y006351D03*
X011814Y006095D03*
X011814Y005839D03*
X011814Y005583D03*
X011814Y005327D03*
X011814Y005071D03*
X011814Y004816D03*
X011814Y004560D03*
X011814Y004304D03*
X011814Y004048D03*
X011814Y003792D03*
X011814Y003536D03*
X011814Y003280D03*
X009609Y003280D03*
X009609Y003536D03*
X009609Y003792D03*
X009609Y004048D03*
X009609Y004304D03*
X009609Y004560D03*
X009609Y004816D03*
X009609Y005071D03*
X009609Y005327D03*
X009609Y005583D03*
X009609Y005839D03*
X009609Y006095D03*
X009609Y006351D03*
X009609Y006607D03*
D27*
X007699Y005554D03*
X006951Y005554D03*
X006932Y004333D03*
X007680Y004333D03*
D28*
X008132Y008841D03*
X008132Y010731D03*
D29*
X010674Y011527D03*
X011174Y011527D03*
X011674Y011527D03*
X012174Y011527D03*
X012674Y011527D03*
X013174Y011527D03*
X013674Y011527D03*
X014174Y011527D03*
X014174Y009107D03*
X013674Y009107D03*
X013174Y009107D03*
X012674Y009107D03*
X012174Y009107D03*
X011674Y009107D03*
X011174Y009107D03*
X010674Y009107D03*
D30*
X035352Y011342D03*
X036262Y011342D03*
X037172Y011342D03*
D31*
X036262Y013782D03*
D32*
X032896Y011538D03*
X032266Y011538D03*
X032266Y011282D03*
X032266Y011026D03*
X032896Y011026D03*
X032896Y011282D03*
D33*
X027670Y010003D03*
X025918Y010003D03*
X025918Y008625D03*
X027670Y008625D03*
D34*
X029038Y003900D03*
X029904Y003900D03*
M02*
