999
Inkscape export via Big Blue Saws DXF Export" (http://www.bigbluesaw.com/saw/big-blue-saw-blog/general-updates/big-blue-saws-dxf-export-for-inkscape.html)
  0
SECTION
  2
HEADER
  9
$ACADVER
  1
AC1014
  9
$HANDSEED
  5
FFFF
  0
$INSUNITS
 70
 1
 9
ENDSEC
  0
SECTION
  2
TABLES
  0
TABLE
  2
VPORT
  5
8
330
0
100
AcDbSymbolTable
 70
     4
  0
VPORT
  5
2E
330
8
100
AcDbSymbolTableRecord
100
AcDbViewportTableRecord
  2
*ACTIVE
 70
     0
 10
0.0
 20
0.0
 11
1.0
 21
1.0
 12
4.25
 22
5.5
 13
0.0
 23
0.0
 14
10.0
 24
10.0
 15
10.0
 25
10.0
 16
0.0
 26
0.0
 36
1.0
 17
0.0
 27
0.0
 37
0.0
 40
11
 41
1.24
 42
50.0
 43
0.0
 44
0.0
 50
0.0
 51
0.0
 71
     0
 72
   100
 73
     1
 74
     3
 75
     0
 76
     0
 77
     0
 78
     0
  0
ENDTAB
  0
TABLE
  2
LTYPE
  5
5
330
0
100
AcDbSymbolTable
 70
     1
  0
LTYPE
  5
14
330
5
100
AcDbSymbolTableRecord
100
AcDbLinetypeTableRecord
  2
BYBLOCK
 70
     0
  3

 72
    65
 73
     0
 40
0.0
  0
LTYPE
  5
15
330
5
100
AcDbSymbolTableRecord
100
AcDbLinetypeTableRecord
  2
BYLAYER
 70
     0
  3

 72
    65
 73
     0
 40
0.0
  0
LTYPE
  5
16
330
5
100
AcDbSymbolTableRecord
100
AcDbLinetypeTableRecord
  2
CONTINUOUS
 70
     0
  3
Solid line
 72
    65
 73
     0
 40
0.0
  0
ENDTAB
  0
TABLE
  2
STYLE
  5
3
330
0
100
AcDbSymbolTable
 70
     1
  0
STYLE
  5
11
330
3
100
AcDbSymbolTableRecord
100
AcDbTextStyleTableRecord
  2
STANDARD
 70
     0
 40
0.0
 41
1.0
 50
0.0
 71
     0
 42
2.5
  3
txt
  4

  0
ENDTAB
  0
TABLE
  2
VIEW
  5
6
330
0
100
AcDbSymbolTable
 70
     0
  0
ENDTAB
  0
TABLE
  2
UCS
  5
7
330
0
100
AcDbSymbolTable
 70
     0
  0
ENDTAB
  0
TABLE
  2
APPID
  5
9
330
0
100
AcDbSymbolTable
 70
     2
  0
APPID
  5
12
330
9
100
AcDbSymbolTableRecord
100
AcDbRegAppTableRecord
  2
ACAD
 70
     0
  0
ENDTAB
  0
TABLE
  2
DIMSTYLE
  5
A
330
0
100
AcDbSymbolTable
 70
     1
  0
DIMSTYLE
105
27
330
A
100
AcDbSymbolTableRecord
100
AcDbDimStyleTableRecord
  2
ISO-25
 70
     0
  3

  4

  5

  6

  7

 40
1.0
 41
2.5
 42
0.625
 43
3.75
 44
1.25
 45
0.0
 46
0.0
 47
0.0
 48
0.0
140
2.5
141
2.5
142
0.0
143
0.03937007874016
144
1.0
145
0.0
146
1.0
147
0.625
 71
     0
 72
     0
 73
     0
 74
     0
 75
     0
 76
     0
 77
     1
 78
     8
170
     0
171
     3
172
     1
173
     0
174
     0
175
     0
176
     0
177
     0
178
     0
270
     2
271
     2
272
     2
273
     2
274
     3
340
11
275
     0
280
     0
281
     0
282
     0
283
     0
284
     8
285
     0
286
     0
287
     3
288
     0
  0
ENDTAB
  0
TABLE
  2
BLOCK_RECORD
  5
1
330
0
100
AcDbSymbolTable
 70
     1
  0
BLOCK_RECORD
  5
1F
330
1
100
AcDbSymbolTableRecord
100
AcDbBlockTableRecord
  2
*MODEL_SPACE
  0
BLOCK_RECORD
  5
1B
330
1
100
AcDbSymbolTableRecord
100
AcDbBlockTableRecord
  2
*PAPER_SPACE
  0
ENDTAB
0
TABLE
2
LAYER
5
2
330
0
100
AcDbSymbolTable
70
1
0
LAYER
5
10
330
2
100
AcDbSymbolTableRecord
100
AcDbLayerTableRecord
2
usbl
70
0
62
7
6
CONTINUOUS
0
ENDTAB
0
ENDSEC
  0
SECTION
  2
BLOCKS
  0
BLOCK
  5
20
330
1F
100
AcDbEntity
  8
0
100
AcDbBlockBegin
  2
*MODEL_SPACE
 70
     0
 10
0.0
 20
0.0
 30
0.0
  3
*MODEL_SPACE
  1

  0
ENDBLK
  5
21
330
1F
100
AcDbEntity
  8
0
100
AcDbBlockEnd
  0
BLOCK
  5
1C
330
1B
100
AcDbEntity
 67
     1
  8
0
100
AcDbBlockBegin
  2
*PAPER_SPACE
  1

  0
ENDBLK
  5
1D
330
1B
100
AcDbEntity
 67
     1
  8
0
100
AcDbBlockEnd
  0
ENDSEC
  0
SECTION
  2
ENTITIES
0
LINE
8
usbl
62
0
5
100
100
AcDbEntity
100
AcDbLine
10
1.755156
20
11.302474
30
0.0
11
1.802399
21
11.302474
31
0.0
0
LINE
8
usbl
62
0
5
101
100
AcDbEntity
100
AcDbLine
10
1.802399
20
11.302474
30
0.0
11
1.802399
21
11.286728
31
0.0
0
LINE
8
usbl
62
0
5
102
100
AcDbEntity
100
AcDbLine
10
1.802399
20
11.286728
30
0.0
11
1.755156
21
11.286728
31
0.0
0
LINE
8
usbl
62
0
5
103
100
AcDbEntity
100
AcDbLine
10
1.755156
20
11.286728
30
0.0
11
1.755156
21
11.302474
31
0.0
0
LINE
8
usbl
62
0
5
104
100
AcDbEntity
100
AcDbLine
10
1.755156
20
11.302474
30
0.0
11
1.755156
21
11.302474
31
0.0
0
LINE
8
usbl
62
0
5
105
100
AcDbEntity
100
AcDbLine
10
1.755156
20
11.277280
30
0.0
11
1.802399
21
11.277280
31
0.0
0
LINE
8
usbl
62
0
5
106
100
AcDbEntity
100
AcDbLine
10
1.802399
20
11.277280
30
0.0
11
1.802399
21
11.261529
31
0.0
0
LINE
8
usbl
62
0
5
107
100
AcDbEntity
100
AcDbLine
10
1.802399
20
11.261529
30
0.0
11
1.755156
21
11.261529
31
0.0
0
LINE
8
usbl
62
0
5
108
100
AcDbEntity
100
AcDbLine
10
1.755156
20
11.261529
30
0.0
11
1.755156
21
11.277280
31
0.0
0
LINE
8
usbl
62
0
5
109
100
AcDbEntity
100
AcDbLine
10
1.755156
20
11.277280
30
0.0
11
1.755156
21
11.277280
31
0.0
0
LINE
8
usbl
62
0
5
10a
100
AcDbEntity
100
AcDbLine
10
1.755156
20
11.252080
30
0.0
11
1.802399
21
11.252080
31
0.0
0
LINE
8
usbl
62
0
5
10b
100
AcDbEntity
100
AcDbLine
10
1.802399
20
11.252080
30
0.0
11
1.802399
21
11.236333
31
0.0
0
LINE
8
usbl
62
0
5
10c
100
AcDbEntity
100
AcDbLine
10
1.802399
20
11.236333
30
0.0
11
1.755156
21
11.236333
31
0.0
0
LINE
8
usbl
62
0
5
10d
100
AcDbEntity
100
AcDbLine
10
1.755156
20
11.236333
30
0.0
11
1.755156
21
11.252080
31
0.0
0
LINE
8
usbl
62
0
5
10e
100
AcDbEntity
100
AcDbLine
10
1.755156
20
11.252080
30
0.0
11
1.755156
21
11.252080
31
0.0
0
LINE
8
usbl
62
0
5
10f
100
AcDbEntity
100
AcDbLine
10
1.755156
20
11.226884
30
0.0
11
1.802399
21
11.226884
31
0.0
0
LINE
8
usbl
62
0
5
110
100
AcDbEntity
100
AcDbLine
10
1.802399
20
11.226884
30
0.0
11
1.802399
21
11.211138
31
0.0
0
LINE
8
usbl
62
0
5
111
100
AcDbEntity
100
AcDbLine
10
1.802399
20
11.211138
30
0.0
11
1.755156
21
11.211138
31
0.0
0
LINE
8
usbl
62
0
5
112
100
AcDbEntity
100
AcDbLine
10
1.755156
20
11.211138
30
0.0
11
1.755156
21
11.226884
31
0.0
0
LINE
8
usbl
62
0
5
113
100
AcDbEntity
100
AcDbLine
10
1.755156
20
11.226884
30
0.0
11
1.755156
21
11.226884
31
0.0
0
LINE
8
usbl
62
0
5
114
100
AcDbEntity
100
AcDbLine
10
1.755156
20
11.201689
30
0.0
11
1.802399
21
11.201689
31
0.0
0
LINE
8
usbl
62
0
5
115
100
AcDbEntity
100
AcDbLine
10
1.802399
20
11.201689
30
0.0
11
1.802399
21
11.185938
31
0.0
0
LINE
8
usbl
62
0
5
116
100
AcDbEntity
100
AcDbLine
10
1.802399
20
11.185938
30
0.0
11
1.755156
21
11.185938
31
0.0
0
LINE
8
usbl
62
0
5
117
100
AcDbEntity
100
AcDbLine
10
1.755156
20
11.185938
30
0.0
11
1.755156
21
11.201689
31
0.0
0
LINE
8
usbl
62
0
5
118
100
AcDbEntity
100
AcDbLine
10
1.755156
20
11.201689
30
0.0
11
1.755156
21
11.201689
31
0.0
0
LINE
8
usbl
62
0
5
119
100
AcDbEntity
100
AcDbLine
10
1.755156
20
11.176490
30
0.0
11
1.802399
21
11.176490
31
0.0
0
LINE
8
usbl
62
0
5
11a
100
AcDbEntity
100
AcDbLine
10
1.802399
20
11.176490
30
0.0
11
1.802399
21
11.160743
31
0.0
0
LINE
8
usbl
62
0
5
11b
100
AcDbEntity
100
AcDbLine
10
1.802399
20
11.160743
30
0.0
11
1.755156
21
11.160743
31
0.0
0
LINE
8
usbl
62
0
5
11c
100
AcDbEntity
100
AcDbLine
10
1.755156
20
11.160743
30
0.0
11
1.755156
21
11.176490
31
0.0
0
LINE
8
usbl
62
0
5
11d
100
AcDbEntity
100
AcDbLine
10
1.755156
20
11.176490
30
0.0
11
1.755156
21
11.176490
31
0.0
0
LINE
8
usbl
62
0
5
11e
100
AcDbEntity
100
AcDbLine
10
1.755156
20
11.151294
30
0.0
11
1.802399
21
11.151294
31
0.0
0
LINE
8
usbl
62
0
5
11f
100
AcDbEntity
100
AcDbLine
10
1.802399
20
11.151294
30
0.0
11
1.802399
21
11.135548
31
0.0
0
LINE
8
usbl
62
0
5
120
100
AcDbEntity
100
AcDbLine
10
1.802399
20
11.135548
30
0.0
11
1.755156
21
11.135548
31
0.0
0
LINE
8
usbl
62
0
5
121
100
AcDbEntity
100
AcDbLine
10
1.755156
20
11.135548
30
0.0
11
1.755156
21
11.151294
31
0.0
0
LINE
8
usbl
62
0
5
122
100
AcDbEntity
100
AcDbLine
10
1.755156
20
11.151294
30
0.0
11
1.755156
21
11.151294
31
0.0
0
LINE
8
usbl
62
0
5
123
100
AcDbEntity
100
AcDbLine
10
1.755156
20
11.126099
30
0.0
11
1.802399
21
11.126099
31
0.0
0
LINE
8
usbl
62
0
5
124
100
AcDbEntity
100
AcDbLine
10
1.802399
20
11.126099
30
0.0
11
1.802399
21
11.110348
31
0.0
0
LINE
8
usbl
62
0
5
125
100
AcDbEntity
100
AcDbLine
10
1.802399
20
11.110348
30
0.0
11
1.755156
21
11.110348
31
0.0
0
LINE
8
usbl
62
0
5
126
100
AcDbEntity
100
AcDbLine
10
1.755156
20
11.110348
30
0.0
11
1.755156
21
11.126099
31
0.0
0
LINE
8
usbl
62
0
5
127
100
AcDbEntity
100
AcDbLine
10
1.755156
20
11.126099
30
0.0
11
1.755156
21
11.126099
31
0.0
0
LINE
8
usbl
62
0
5
128
100
AcDbEntity
100
AcDbLine
10
1.755156
20
11.100899
30
0.0
11
1.802399
21
11.100899
31
0.0
0
LINE
8
usbl
62
0
5
129
100
AcDbEntity
100
AcDbLine
10
1.802399
20
11.100899
30
0.0
11
1.802399
21
11.085152
31
0.0
0
LINE
8
usbl
62
0
5
12a
100
AcDbEntity
100
AcDbLine
10
1.802399
20
11.085152
30
0.0
11
1.755156
21
11.085152
31
0.0
0
LINE
8
usbl
62
0
5
12b
100
AcDbEntity
100
AcDbLine
10
1.755156
20
11.085152
30
0.0
11
1.755156
21
11.100899
31
0.0
0
LINE
8
usbl
62
0
5
12c
100
AcDbEntity
100
AcDbLine
10
1.755156
20
11.100899
30
0.0
11
1.755156
21
11.100899
31
0.0
0
LINE
8
usbl
62
0
5
12d
100
AcDbEntity
100
AcDbLine
10
1.755156
20
11.075704
30
0.0
11
1.802399
21
11.075704
31
0.0
0
LINE
8
usbl
62
0
5
12e
100
AcDbEntity
100
AcDbLine
10
1.802399
20
11.075704
30
0.0
11
1.802399
21
11.059958
31
0.0
0
LINE
8
usbl
62
0
5
12f
100
AcDbEntity
100
AcDbLine
10
1.802399
20
11.059958
30
0.0
11
1.755156
21
11.059958
31
0.0
0
LINE
8
usbl
62
0
5
130
100
AcDbEntity
100
AcDbLine
10
1.755156
20
11.059958
30
0.0
11
1.755156
21
11.075704
31
0.0
0
LINE
8
usbl
62
0
5
131
100
AcDbEntity
100
AcDbLine
10
1.755156
20
11.075704
30
0.0
11
1.755156
21
11.075704
31
0.0
0
LINE
8
usbl
62
0
5
132
100
AcDbEntity
100
AcDbLine
10
1.755156
20
11.050509
30
0.0
11
1.802399
21
11.050509
31
0.0
0
LINE
8
usbl
62
0
5
133
100
AcDbEntity
100
AcDbLine
10
1.802399
20
11.050509
30
0.0
11
1.802399
21
11.034758
31
0.0
0
LINE
8
usbl
62
0
5
134
100
AcDbEntity
100
AcDbLine
10
1.802399
20
11.034758
30
0.0
11
1.755156
21
11.034758
31
0.0
0
LINE
8
usbl
62
0
5
135
100
AcDbEntity
100
AcDbLine
10
1.755156
20
11.034758
30
0.0
11
1.755156
21
11.050509
31
0.0
0
LINE
8
usbl
62
0
5
136
100
AcDbEntity
100
AcDbLine
10
1.755156
20
11.050509
30
0.0
11
1.755156
21
11.050509
31
0.0
0
LINE
8
usbl
62
0
5
137
100
AcDbEntity
100
AcDbLine
10
1.755156
20
11.025309
30
0.0
11
1.802399
21
11.025309
31
0.0
0
LINE
8
usbl
62
0
5
138
100
AcDbEntity
100
AcDbLine
10
1.802399
20
11.025309
30
0.0
11
1.802399
21
11.009562
31
0.0
0
LINE
8
usbl
62
0
5
139
100
AcDbEntity
100
AcDbLine
10
1.802399
20
11.009562
30
0.0
11
1.755156
21
11.009562
31
0.0
0
LINE
8
usbl
62
0
5
13a
100
AcDbEntity
100
AcDbLine
10
1.755156
20
11.009562
30
0.0
11
1.755156
21
11.025309
31
0.0
0
LINE
8
usbl
62
0
5
13b
100
AcDbEntity
100
AcDbLine
10
1.755156
20
11.025309
30
0.0
11
1.755156
21
11.025309
31
0.0
0
LINE
8
usbl
62
0
5
13c
100
AcDbEntity
100
AcDbLine
10
1.755156
20
11.000113
30
0.0
11
1.802399
21
11.000113
31
0.0
0
LINE
8
usbl
62
0
5
13d
100
AcDbEntity
100
AcDbLine
10
1.802399
20
11.000113
30
0.0
11
1.802399
21
10.984367
31
0.0
0
LINE
8
usbl
62
0
5
13e
100
AcDbEntity
100
AcDbLine
10
1.802399
20
10.984367
30
0.0
11
1.755156
21
10.984367
31
0.0
0
LINE
8
usbl
62
0
5
13f
100
AcDbEntity
100
AcDbLine
10
1.755156
20
10.984367
30
0.0
11
1.755156
21
11.000113
31
0.0
0
LINE
8
usbl
62
0
5
140
100
AcDbEntity
100
AcDbLine
10
1.755156
20
11.000113
30
0.0
11
1.755156
21
11.000113
31
0.0
0
LINE
8
usbl
62
0
5
141
100
AcDbEntity
100
AcDbLine
10
1.755156
20
10.974919
30
0.0
11
1.802399
21
10.974919
31
0.0
0
LINE
8
usbl
62
0
5
142
100
AcDbEntity
100
AcDbLine
10
1.802399
20
10.974919
30
0.0
11
1.802399
21
10.959168
31
0.0
0
LINE
8
usbl
62
0
5
143
100
AcDbEntity
100
AcDbLine
10
1.802399
20
10.959168
30
0.0
11
1.755156
21
10.959168
31
0.0
0
LINE
8
usbl
62
0
5
144
100
AcDbEntity
100
AcDbLine
10
1.755156
20
10.959168
30
0.0
11
1.755156
21
10.974919
31
0.0
0
LINE
8
usbl
62
0
5
145
100
AcDbEntity
100
AcDbLine
10
1.755156
20
10.974919
30
0.0
11
1.755156
21
10.974919
31
0.0
0
LINE
8
usbl
62
0
5
146
100
AcDbEntity
100
AcDbLine
10
1.755156
20
10.949719
30
0.0
11
1.802399
21
10.949719
31
0.0
0
LINE
8
usbl
62
0
5
147
100
AcDbEntity
100
AcDbLine
10
1.802399
20
10.949719
30
0.0
11
1.802399
21
10.933972
31
0.0
0
LINE
8
usbl
62
0
5
148
100
AcDbEntity
100
AcDbLine
10
1.802399
20
10.933972
30
0.0
11
1.755156
21
10.933972
31
0.0
0
LINE
8
usbl
62
0
5
149
100
AcDbEntity
100
AcDbLine
10
1.755156
20
10.933972
30
0.0
11
1.755156
21
10.949719
31
0.0
0
LINE
8
usbl
62
0
5
14a
100
AcDbEntity
100
AcDbLine
10
1.755156
20
10.949719
30
0.0
11
1.755156
21
10.949719
31
0.0
0
LINE
8
usbl
62
0
5
14b
100
AcDbEntity
100
AcDbLine
10
1.755156
20
10.924523
30
0.0
11
1.802399
21
10.924523
31
0.0
0
LINE
8
usbl
62
0
5
14c
100
AcDbEntity
100
AcDbLine
10
1.802399
20
10.924523
30
0.0
11
1.802399
21
10.908772
31
0.0
0
LINE
8
usbl
62
0
5
14d
100
AcDbEntity
100
AcDbLine
10
1.802399
20
10.908772
30
0.0
11
1.755156
21
10.908772
31
0.0
0
LINE
8
usbl
62
0
5
14e
100
AcDbEntity
100
AcDbLine
10
1.755156
20
10.908772
30
0.0
11
1.755156
21
10.924523
31
0.0
0
LINE
8
usbl
62
0
5
14f
100
AcDbEntity
100
AcDbLine
10
1.755156
20
10.924523
30
0.0
11
1.755156
21
10.924523
31
0.0
0
LINE
8
usbl
62
0
5
150
100
AcDbEntity
100
AcDbLine
10
1.714222
20
10.883578
30
0.0
11
1.729969
21
10.883578
31
0.0
0
LINE
8
usbl
62
0
5
151
100
AcDbEntity
100
AcDbLine
10
1.729969
20
10.883578
30
0.0
11
1.729969
21
10.836334
31
0.0
0
LINE
8
usbl
62
0
5
152
100
AcDbEntity
100
AcDbLine
10
1.729969
20
10.836334
30
0.0
11
1.714222
21
10.836334
31
0.0
0
LINE
8
usbl
62
0
5
153
100
AcDbEntity
100
AcDbLine
10
1.714222
20
10.836334
30
0.0
11
1.714222
21
10.883578
31
0.0
0
LINE
8
usbl
62
0
5
154
100
AcDbEntity
100
AcDbLine
10
1.714222
20
10.883578
30
0.0
11
1.714222
21
10.883578
31
0.0
0
LINE
8
usbl
62
0
5
155
100
AcDbEntity
100
AcDbLine
10
1.689022
20
10.883578
30
0.0
11
1.704773
21
10.883578
31
0.0
0
LINE
8
usbl
62
0
5
156
100
AcDbEntity
100
AcDbLine
10
1.704773
20
10.883578
30
0.0
11
1.704773
21
10.836334
31
0.0
0
LINE
8
usbl
62
0
5
157
100
AcDbEntity
100
AcDbLine
10
1.704773
20
10.836334
30
0.0
11
1.689022
21
10.836334
31
0.0
0
LINE
8
usbl
62
0
5
158
100
AcDbEntity
100
AcDbLine
10
1.689022
20
10.836334
30
0.0
11
1.689022
21
10.883578
31
0.0
0
LINE
8
usbl
62
0
5
159
100
AcDbEntity
100
AcDbLine
10
1.689022
20
10.883578
30
0.0
11
1.689022
21
10.883578
31
0.0
0
LINE
8
usbl
62
0
5
15a
100
AcDbEntity
100
AcDbLine
10
1.663822
20
10.883578
30
0.0
11
1.679569
21
10.883578
31
0.0
0
LINE
8
usbl
62
0
5
15b
100
AcDbEntity
100
AcDbLine
10
1.679569
20
10.883578
30
0.0
11
1.679569
21
10.836334
31
0.0
0
LINE
8
usbl
62
0
5
15c
100
AcDbEntity
100
AcDbLine
10
1.679569
20
10.836334
30
0.0
11
1.663822
21
10.836334
31
0.0
0
LINE
8
usbl
62
0
5
15d
100
AcDbEntity
100
AcDbLine
10
1.663822
20
10.836334
30
0.0
11
1.663822
21
10.883578
31
0.0
0
LINE
8
usbl
62
0
5
15e
100
AcDbEntity
100
AcDbLine
10
1.663822
20
10.883578
30
0.0
11
1.663822
21
10.883578
31
0.0
0
LINE
8
usbl
62
0
5
15f
100
AcDbEntity
100
AcDbLine
10
1.638633
20
10.883578
30
0.0
11
1.654380
21
10.883578
31
0.0
0
LINE
8
usbl
62
0
5
160
100
AcDbEntity
100
AcDbLine
10
1.654380
20
10.883578
30
0.0
11
1.654380
21
10.836334
31
0.0
0
LINE
8
usbl
62
0
5
161
100
AcDbEntity
100
AcDbLine
10
1.654380
20
10.836334
30
0.0
11
1.638633
21
10.836334
31
0.0
0
LINE
8
usbl
62
0
5
162
100
AcDbEntity
100
AcDbLine
10
1.638633
20
10.836334
30
0.0
11
1.638633
21
10.883578
31
0.0
0
LINE
8
usbl
62
0
5
163
100
AcDbEntity
100
AcDbLine
10
1.638633
20
10.883578
30
0.0
11
1.638633
21
10.883578
31
0.0
0
LINE
8
usbl
62
0
5
164
100
AcDbEntity
100
AcDbLine
10
1.613433
20
10.883578
30
0.0
11
1.629184
21
10.883578
31
0.0
0
LINE
8
usbl
62
0
5
165
100
AcDbEntity
100
AcDbLine
10
1.629184
20
10.883578
30
0.0
11
1.629184
21
10.836334
31
0.0
0
LINE
8
usbl
62
0
5
166
100
AcDbEntity
100
AcDbLine
10
1.629184
20
10.836334
30
0.0
11
1.613433
21
10.836334
31
0.0
0
LINE
8
usbl
62
0
5
167
100
AcDbEntity
100
AcDbLine
10
1.613433
20
10.836334
30
0.0
11
1.613433
21
10.883578
31
0.0
0
LINE
8
usbl
62
0
5
168
100
AcDbEntity
100
AcDbLine
10
1.613433
20
10.883578
30
0.0
11
1.613433
21
10.883578
31
0.0
0
LINE
8
usbl
62
0
5
169
100
AcDbEntity
100
AcDbLine
10
1.588233
20
10.883578
30
0.0
11
1.603980
21
10.883578
31
0.0
0
LINE
8
usbl
62
0
5
16a
100
AcDbEntity
100
AcDbLine
10
1.603980
20
10.883578
30
0.0
11
1.603980
21
10.836334
31
0.0
0
LINE
8
usbl
62
0
5
16b
100
AcDbEntity
100
AcDbLine
10
1.603980
20
10.836334
30
0.0
11
1.588233
21
10.836334
31
0.0
0
LINE
8
usbl
62
0
5
16c
100
AcDbEntity
100
AcDbLine
10
1.588233
20
10.836334
30
0.0
11
1.588233
21
10.883578
31
0.0
0
LINE
8
usbl
62
0
5
16d
100
AcDbEntity
100
AcDbLine
10
1.588233
20
10.883578
30
0.0
11
1.588233
21
10.883578
31
0.0
0
LINE
8
usbl
62
0
5
16e
100
AcDbEntity
100
AcDbLine
10
1.563033
20
10.883578
30
0.0
11
1.578780
21
10.883578
31
0.0
0
LINE
8
usbl
62
0
5
16f
100
AcDbEntity
100
AcDbLine
10
1.578780
20
10.883578
30
0.0
11
1.578780
21
10.836334
31
0.0
0
LINE
8
usbl
62
0
5
170
100
AcDbEntity
100
AcDbLine
10
1.578780
20
10.836334
30
0.0
11
1.563033
21
10.836334
31
0.0
0
LINE
8
usbl
62
0
5
171
100
AcDbEntity
100
AcDbLine
10
1.563033
20
10.836334
30
0.0
11
1.563033
21
10.883578
31
0.0
0
LINE
8
usbl
62
0
5
172
100
AcDbEntity
100
AcDbLine
10
1.563033
20
10.883578
30
0.0
11
1.563033
21
10.883578
31
0.0
0
LINE
8
usbl
62
0
5
173
100
AcDbEntity
100
AcDbLine
10
1.537833
20
10.883578
30
0.0
11
1.553584
21
10.883578
31
0.0
0
LINE
8
usbl
62
0
5
174
100
AcDbEntity
100
AcDbLine
10
1.553584
20
10.883578
30
0.0
11
1.553584
21
10.836334
31
0.0
0
LINE
8
usbl
62
0
5
175
100
AcDbEntity
100
AcDbLine
10
1.553584
20
10.836334
30
0.0
11
1.537833
21
10.836334
31
0.0
0
LINE
8
usbl
62
0
5
176
100
AcDbEntity
100
AcDbLine
10
1.537833
20
10.836334
30
0.0
11
1.537833
21
10.883578
31
0.0
0
LINE
8
usbl
62
0
5
177
100
AcDbEntity
100
AcDbLine
10
1.537833
20
10.883578
30
0.0
11
1.537833
21
10.883578
31
0.0
0
LINE
8
usbl
62
0
5
178
100
AcDbEntity
100
AcDbLine
10
1.512644
20
10.883578
30
0.0
11
1.528391
21
10.883578
31
0.0
0
LINE
8
usbl
62
0
5
179
100
AcDbEntity
100
AcDbLine
10
1.528391
20
10.883578
30
0.0
11
1.528391
21
10.836334
31
0.0
0
LINE
8
usbl
62
0
5
17a
100
AcDbEntity
100
AcDbLine
10
1.528391
20
10.836334
30
0.0
11
1.512644
21
10.836334
31
0.0
0
LINE
8
usbl
62
0
5
17b
100
AcDbEntity
100
AcDbLine
10
1.512644
20
10.836334
30
0.0
11
1.512644
21
10.883578
31
0.0
0
LINE
8
usbl
62
0
5
17c
100
AcDbEntity
100
AcDbLine
10
1.512644
20
10.883578
30
0.0
11
1.512644
21
10.883578
31
0.0
0
LINE
8
usbl
62
0
5
17d
100
AcDbEntity
100
AcDbLine
10
1.487444
20
10.883578
30
0.0
11
1.503195
21
10.883578
31
0.0
0
LINE
8
usbl
62
0
5
17e
100
AcDbEntity
100
AcDbLine
10
1.503195
20
10.883578
30
0.0
11
1.503195
21
10.836334
31
0.0
0
LINE
8
usbl
62
0
5
17f
100
AcDbEntity
100
AcDbLine
10
1.503195
20
10.836334
30
0.0
11
1.487444
21
10.836334
31
0.0
0
LINE
8
usbl
62
0
5
180
100
AcDbEntity
100
AcDbLine
10
1.487444
20
10.836334
30
0.0
11
1.487444
21
10.883578
31
0.0
0
LINE
8
usbl
62
0
5
181
100
AcDbEntity
100
AcDbLine
10
1.487444
20
10.883578
30
0.0
11
1.487444
21
10.883578
31
0.0
0
LINE
8
usbl
62
0
5
182
100
AcDbEntity
100
AcDbLine
10
1.462244
20
10.883578
30
0.0
11
1.477991
21
10.883578
31
0.0
0
LINE
8
usbl
62
0
5
183
100
AcDbEntity
100
AcDbLine
10
1.477991
20
10.883578
30
0.0
11
1.477991
21
10.836334
31
0.0
0
LINE
8
usbl
62
0
5
184
100
AcDbEntity
100
AcDbLine
10
1.477991
20
10.836334
30
0.0
11
1.462244
21
10.836334
31
0.0
0
LINE
8
usbl
62
0
5
185
100
AcDbEntity
100
AcDbLine
10
1.462244
20
10.836334
30
0.0
11
1.462244
21
10.883578
31
0.0
0
LINE
8
usbl
62
0
5
186
100
AcDbEntity
100
AcDbLine
10
1.462244
20
10.883578
30
0.0
11
1.462244
21
10.883578
31
0.0
0
LINE
8
usbl
62
0
5
187
100
AcDbEntity
100
AcDbLine
10
1.437056
20
10.883578
30
0.0
11
1.452802
21
10.883578
31
0.0
0
LINE
8
usbl
62
0
5
188
100
AcDbEntity
100
AcDbLine
10
1.452802
20
10.883578
30
0.0
11
1.452802
21
10.836334
31
0.0
0
LINE
8
usbl
62
0
5
189
100
AcDbEntity
100
AcDbLine
10
1.452802
20
10.836334
30
0.0
11
1.437056
21
10.836334
31
0.0
0
LINE
8
usbl
62
0
5
18a
100
AcDbEntity
100
AcDbLine
10
1.437056
20
10.836334
30
0.0
11
1.437056
21
10.883578
31
0.0
0
LINE
8
usbl
62
0
5
18b
100
AcDbEntity
100
AcDbLine
10
1.437056
20
10.883578
30
0.0
11
1.437056
21
10.883578
31
0.0
0
LINE
8
usbl
62
0
5
18c
100
AcDbEntity
100
AcDbLine
10
1.411856
20
10.883578
30
0.0
11
1.427606
21
10.883578
31
0.0
0
LINE
8
usbl
62
0
5
18d
100
AcDbEntity
100
AcDbLine
10
1.427606
20
10.883578
30
0.0
11
1.427606
21
10.836334
31
0.0
0
LINE
8
usbl
62
0
5
18e
100
AcDbEntity
100
AcDbLine
10
1.427606
20
10.836334
30
0.0
11
1.411856
21
10.836334
31
0.0
0
LINE
8
usbl
62
0
5
18f
100
AcDbEntity
100
AcDbLine
10
1.411856
20
10.836334
30
0.0
11
1.411856
21
10.883578
31
0.0
0
LINE
8
usbl
62
0
5
190
100
AcDbEntity
100
AcDbLine
10
1.411856
20
10.883578
30
0.0
11
1.411856
21
10.883578
31
0.0
0
LINE
8
usbl
62
0
5
191
100
AcDbEntity
100
AcDbLine
10
1.386656
20
10.883578
30
0.0
11
1.402402
21
10.883578
31
0.0
0
LINE
8
usbl
62
0
5
192
100
AcDbEntity
100
AcDbLine
10
1.402402
20
10.883578
30
0.0
11
1.402402
21
10.836334
31
0.0
0
LINE
8
usbl
62
0
5
193
100
AcDbEntity
100
AcDbLine
10
1.402402
20
10.836334
30
0.0
11
1.386656
21
10.836334
31
0.0
0
LINE
8
usbl
62
0
5
194
100
AcDbEntity
100
AcDbLine
10
1.386656
20
10.836334
30
0.0
11
1.386656
21
10.883578
31
0.0
0
LINE
8
usbl
62
0
5
195
100
AcDbEntity
100
AcDbLine
10
1.386656
20
10.883578
30
0.0
11
1.386656
21
10.883578
31
0.0
0
LINE
8
usbl
62
0
5
196
100
AcDbEntity
100
AcDbLine
10
1.361467
20
10.883578
30
0.0
11
1.377213
21
10.883578
31
0.0
0
LINE
8
usbl
62
0
5
197
100
AcDbEntity
100
AcDbLine
10
1.377213
20
10.883578
30
0.0
11
1.377213
21
10.836334
31
0.0
0
LINE
8
usbl
62
0
5
198
100
AcDbEntity
100
AcDbLine
10
1.377213
20
10.836334
30
0.0
11
1.361467
21
10.836334
31
0.0
0
LINE
8
usbl
62
0
5
199
100
AcDbEntity
100
AcDbLine
10
1.361467
20
10.836334
30
0.0
11
1.361467
21
10.883578
31
0.0
0
LINE
8
usbl
62
0
5
19a
100
AcDbEntity
100
AcDbLine
10
1.361467
20
10.883578
30
0.0
11
1.361467
21
10.883578
31
0.0
0
LINE
8
usbl
62
0
5
19b
100
AcDbEntity
100
AcDbLine
10
1.336267
20
10.883578
30
0.0
11
1.352018
21
10.883578
31
0.0
0
LINE
8
usbl
62
0
5
19c
100
AcDbEntity
100
AcDbLine
10
1.352018
20
10.883578
30
0.0
11
1.352018
21
10.836334
31
0.0
0
LINE
8
usbl
62
0
5
19d
100
AcDbEntity
100
AcDbLine
10
1.352018
20
10.836334
30
0.0
11
1.336267
21
10.836334
31
0.0
0
LINE
8
usbl
62
0
5
19e
100
AcDbEntity
100
AcDbLine
10
1.336267
20
10.836334
30
0.0
11
1.336267
21
10.883578
31
0.0
0
LINE
8
usbl
62
0
5
19f
100
AcDbEntity
100
AcDbLine
10
1.336267
20
10.883578
30
0.0
11
1.336267
21
10.883578
31
0.0
0
LINE
8
usbl
62
0
5
1a0
100
AcDbEntity
100
AcDbLine
10
1.263822
20
10.924523
30
0.0
11
1.311066
21
10.924523
31
0.0
0
LINE
8
usbl
62
0
5
1a1
100
AcDbEntity
100
AcDbLine
10
1.311066
20
10.924523
30
0.0
11
1.311066
21
10.908772
31
0.0
0
LINE
8
usbl
62
0
5
1a2
100
AcDbEntity
100
AcDbLine
10
1.311066
20
10.908772
30
0.0
11
1.263822
21
10.908772
31
0.0
0
LINE
8
usbl
62
0
5
1a3
100
AcDbEntity
100
AcDbLine
10
1.263822
20
10.908772
30
0.0
11
1.263822
21
10.924523
31
0.0
0
LINE
8
usbl
62
0
5
1a4
100
AcDbEntity
100
AcDbLine
10
1.263822
20
10.924523
30
0.0
11
1.263822
21
10.924523
31
0.0
0
LINE
8
usbl
62
0
5
1a5
100
AcDbEntity
100
AcDbLine
10
1.263822
20
10.949719
30
0.0
11
1.311066
21
10.949719
31
0.0
0
LINE
8
usbl
62
0
5
1a6
100
AcDbEntity
100
AcDbLine
10
1.311066
20
10.949719
30
0.0
11
1.311066
21
10.933972
31
0.0
0
LINE
8
usbl
62
0
5
1a7
100
AcDbEntity
100
AcDbLine
10
1.311066
20
10.933972
30
0.0
11
1.263822
21
10.933972
31
0.0
0
LINE
8
usbl
62
0
5
1a8
100
AcDbEntity
100
AcDbLine
10
1.263822
20
10.933972
30
0.0
11
1.263822
21
10.949719
31
0.0
0
LINE
8
usbl
62
0
5
1a9
100
AcDbEntity
100
AcDbLine
10
1.263822
20
10.949719
30
0.0
11
1.263822
21
10.949719
31
0.0
0
LINE
8
usbl
62
0
5
1aa
100
AcDbEntity
100
AcDbLine
10
1.263822
20
10.974919
30
0.0
11
1.311066
21
10.974919
31
0.0
0
LINE
8
usbl
62
0
5
1ab
100
AcDbEntity
100
AcDbLine
10
1.311066
20
10.974919
30
0.0
11
1.311066
21
10.959168
31
0.0
0
LINE
8
usbl
62
0
5
1ac
100
AcDbEntity
100
AcDbLine
10
1.311066
20
10.959168
30
0.0
11
1.263822
21
10.959168
31
0.0
0
LINE
8
usbl
62
0
5
1ad
100
AcDbEntity
100
AcDbLine
10
1.263822
20
10.959168
30
0.0
11
1.263822
21
10.974919
31
0.0
0
LINE
8
usbl
62
0
5
1ae
100
AcDbEntity
100
AcDbLine
10
1.263822
20
10.974919
30
0.0
11
1.263822
21
10.974919
31
0.0
0
LINE
8
usbl
62
0
5
1af
100
AcDbEntity
100
AcDbLine
10
1.263822
20
11.000113
30
0.0
11
1.311066
21
11.000113
31
0.0
0
LINE
8
usbl
62
0
5
1b0
100
AcDbEntity
100
AcDbLine
10
1.311066
20
11.000113
30
0.0
11
1.311066
21
10.984367
31
0.0
0
LINE
8
usbl
62
0
5
1b1
100
AcDbEntity
100
AcDbLine
10
1.311066
20
10.984367
30
0.0
11
1.263822
21
10.984367
31
0.0
0
LINE
8
usbl
62
0
5
1b2
100
AcDbEntity
100
AcDbLine
10
1.263822
20
10.984367
30
0.0
11
1.263822
21
11.000113
31
0.0
0
LINE
8
usbl
62
0
5
1b3
100
AcDbEntity
100
AcDbLine
10
1.263822
20
11.000113
30
0.0
11
1.263822
21
11.000113
31
0.0
0
LINE
8
usbl
62
0
5
1b4
100
AcDbEntity
100
AcDbLine
10
1.263822
20
11.025309
30
0.0
11
1.311066
21
11.025309
31
0.0
0
LINE
8
usbl
62
0
5
1b5
100
AcDbEntity
100
AcDbLine
10
1.311066
20
11.025309
30
0.0
11
1.311066
21
11.009562
31
0.0
0
LINE
8
usbl
62
0
5
1b6
100
AcDbEntity
100
AcDbLine
10
1.311066
20
11.009562
30
0.0
11
1.263822
21
11.009562
31
0.0
0
LINE
8
usbl
62
0
5
1b7
100
AcDbEntity
100
AcDbLine
10
1.263822
20
11.009562
30
0.0
11
1.263822
21
11.025309
31
0.0
0
LINE
8
usbl
62
0
5
1b8
100
AcDbEntity
100
AcDbLine
10
1.263822
20
11.025309
30
0.0
11
1.263822
21
11.025309
31
0.0
0
LINE
8
usbl
62
0
5
1b9
100
AcDbEntity
100
AcDbLine
10
1.263822
20
11.050509
30
0.0
11
1.311066
21
11.050509
31
0.0
0
LINE
8
usbl
62
0
5
1ba
100
AcDbEntity
100
AcDbLine
10
1.311066
20
11.050509
30
0.0
11
1.311066
21
11.034758
31
0.0
0
LINE
8
usbl
62
0
5
1bb
100
AcDbEntity
100
AcDbLine
10
1.311066
20
11.034758
30
0.0
11
1.263822
21
11.034758
31
0.0
0
LINE
8
usbl
62
0
5
1bc
100
AcDbEntity
100
AcDbLine
10
1.263822
20
11.034758
30
0.0
11
1.263822
21
11.050509
31
0.0
0
LINE
8
usbl
62
0
5
1bd
100
AcDbEntity
100
AcDbLine
10
1.263822
20
11.050509
30
0.0
11
1.263822
21
11.050509
31
0.0
0
LINE
8
usbl
62
0
5
1be
100
AcDbEntity
100
AcDbLine
10
1.263822
20
11.075704
30
0.0
11
1.311066
21
11.075704
31
0.0
0
LINE
8
usbl
62
0
5
1bf
100
AcDbEntity
100
AcDbLine
10
1.311066
20
11.075704
30
0.0
11
1.311066
21
11.059958
31
0.0
0
LINE
8
usbl
62
0
5
1c0
100
AcDbEntity
100
AcDbLine
10
1.311066
20
11.059958
30
0.0
11
1.263822
21
11.059958
31
0.0
0
LINE
8
usbl
62
0
5
1c1
100
AcDbEntity
100
AcDbLine
10
1.263822
20
11.059958
30
0.0
11
1.263822
21
11.075704
31
0.0
0
LINE
8
usbl
62
0
5
1c2
100
AcDbEntity
100
AcDbLine
10
1.263822
20
11.075704
30
0.0
11
1.263822
21
11.075704
31
0.0
0
LINE
8
usbl
62
0
5
1c3
100
AcDbEntity
100
AcDbLine
10
1.263822
20
11.100899
30
0.0
11
1.311066
21
11.100899
31
0.0
0
LINE
8
usbl
62
0
5
1c4
100
AcDbEntity
100
AcDbLine
10
1.311066
20
11.100899
30
0.0
11
1.311066
21
11.085152
31
0.0
0
LINE
8
usbl
62
0
5
1c5
100
AcDbEntity
100
AcDbLine
10
1.311066
20
11.085152
30
0.0
11
1.263822
21
11.085152
31
0.0
0
LINE
8
usbl
62
0
5
1c6
100
AcDbEntity
100
AcDbLine
10
1.263822
20
11.085152
30
0.0
11
1.263822
21
11.100899
31
0.0
0
LINE
8
usbl
62
0
5
1c7
100
AcDbEntity
100
AcDbLine
10
1.263822
20
11.100899
30
0.0
11
1.263822
21
11.100899
31
0.0
0
LINE
8
usbl
62
0
5
1c8
100
AcDbEntity
100
AcDbLine
10
1.263822
20
11.126099
30
0.0
11
1.311066
21
11.126099
31
0.0
0
LINE
8
usbl
62
0
5
1c9
100
AcDbEntity
100
AcDbLine
10
1.311066
20
11.126099
30
0.0
11
1.311066
21
11.110348
31
0.0
0
LINE
8
usbl
62
0
5
1ca
100
AcDbEntity
100
AcDbLine
10
1.311066
20
11.110348
30
0.0
11
1.263822
21
11.110348
31
0.0
0
LINE
8
usbl
62
0
5
1cb
100
AcDbEntity
100
AcDbLine
10
1.263822
20
11.110348
30
0.0
11
1.263822
21
11.126099
31
0.0
0
LINE
8
usbl
62
0
5
1cc
100
AcDbEntity
100
AcDbLine
10
1.263822
20
11.126099
30
0.0
11
1.263822
21
11.126099
31
0.0
0
LINE
8
usbl
62
0
5
1cd
100
AcDbEntity
100
AcDbLine
10
1.263822
20
11.151294
30
0.0
11
1.311066
21
11.151294
31
0.0
0
LINE
8
usbl
62
0
5
1ce
100
AcDbEntity
100
AcDbLine
10
1.311066
20
11.151294
30
0.0
11
1.311066
21
11.135548
31
0.0
0
LINE
8
usbl
62
0
5
1cf
100
AcDbEntity
100
AcDbLine
10
1.311066
20
11.135548
30
0.0
11
1.263822
21
11.135548
31
0.0
0
LINE
8
usbl
62
0
5
1d0
100
AcDbEntity
100
AcDbLine
10
1.263822
20
11.135548
30
0.0
11
1.263822
21
11.151294
31
0.0
0
LINE
8
usbl
62
0
5
1d1
100
AcDbEntity
100
AcDbLine
10
1.263822
20
11.151294
30
0.0
11
1.263822
21
11.151294
31
0.0
0
LINE
8
usbl
62
0
5
1d2
100
AcDbEntity
100
AcDbLine
10
1.263822
20
11.176490
30
0.0
11
1.311066
21
11.176490
31
0.0
0
LINE
8
usbl
62
0
5
1d3
100
AcDbEntity
100
AcDbLine
10
1.311066
20
11.176490
30
0.0
11
1.311066
21
11.160743
31
0.0
0
LINE
8
usbl
62
0
5
1d4
100
AcDbEntity
100
AcDbLine
10
1.311066
20
11.160743
30
0.0
11
1.263822
21
11.160743
31
0.0
0
LINE
8
usbl
62
0
5
1d5
100
AcDbEntity
100
AcDbLine
10
1.263822
20
11.160743
30
0.0
11
1.263822
21
11.176490
31
0.0
0
LINE
8
usbl
62
0
5
1d6
100
AcDbEntity
100
AcDbLine
10
1.263822
20
11.176490
30
0.0
11
1.263822
21
11.176490
31
0.0
0
LINE
8
usbl
62
0
5
1d7
100
AcDbEntity
100
AcDbLine
10
1.263822
20
11.201689
30
0.0
11
1.311066
21
11.201689
31
0.0
0
LINE
8
usbl
62
0
5
1d8
100
AcDbEntity
100
AcDbLine
10
1.311066
20
11.201689
30
0.0
11
1.311066
21
11.185938
31
0.0
0
LINE
8
usbl
62
0
5
1d9
100
AcDbEntity
100
AcDbLine
10
1.311066
20
11.185938
30
0.0
11
1.263822
21
11.185938
31
0.0
0
LINE
8
usbl
62
0
5
1da
100
AcDbEntity
100
AcDbLine
10
1.263822
20
11.185938
30
0.0
11
1.263822
21
11.201689
31
0.0
0
LINE
8
usbl
62
0
5
1db
100
AcDbEntity
100
AcDbLine
10
1.263822
20
11.201689
30
0.0
11
1.263822
21
11.201689
31
0.0
0
LINE
8
usbl
62
0
5
1dc
100
AcDbEntity
100
AcDbLine
10
1.263822
20
11.226884
30
0.0
11
1.311066
21
11.226884
31
0.0
0
LINE
8
usbl
62
0
5
1dd
100
AcDbEntity
100
AcDbLine
10
1.311066
20
11.226884
30
0.0
11
1.311066
21
11.211138
31
0.0
0
LINE
8
usbl
62
0
5
1de
100
AcDbEntity
100
AcDbLine
10
1.311066
20
11.211138
30
0.0
11
1.263822
21
11.211138
31
0.0
0
LINE
8
usbl
62
0
5
1df
100
AcDbEntity
100
AcDbLine
10
1.263822
20
11.211138
30
0.0
11
1.263822
21
11.226884
31
0.0
0
LINE
8
usbl
62
0
5
1e0
100
AcDbEntity
100
AcDbLine
10
1.263822
20
11.226884
30
0.0
11
1.263822
21
11.226884
31
0.0
0
LINE
8
usbl
62
0
5
1e1
100
AcDbEntity
100
AcDbLine
10
1.263822
20
11.252080
30
0.0
11
1.311066
21
11.252080
31
0.0
0
LINE
8
usbl
62
0
5
1e2
100
AcDbEntity
100
AcDbLine
10
1.311066
20
11.252080
30
0.0
11
1.311066
21
11.236333
31
0.0
0
LINE
8
usbl
62
0
5
1e3
100
AcDbEntity
100
AcDbLine
10
1.311066
20
11.236333
30
0.0
11
1.263822
21
11.236333
31
0.0
0
LINE
8
usbl
62
0
5
1e4
100
AcDbEntity
100
AcDbLine
10
1.263822
20
11.236333
30
0.0
11
1.263822
21
11.252080
31
0.0
0
LINE
8
usbl
62
0
5
1e5
100
AcDbEntity
100
AcDbLine
10
1.263822
20
11.252080
30
0.0
11
1.263822
21
11.252080
31
0.0
0
LINE
8
usbl
62
0
5
1e6
100
AcDbEntity
100
AcDbLine
10
1.263822
20
11.277280
30
0.0
11
1.311066
21
11.277280
31
0.0
0
LINE
8
usbl
62
0
5
1e7
100
AcDbEntity
100
AcDbLine
10
1.311066
20
11.277280
30
0.0
11
1.311066
21
11.261529
31
0.0
0
LINE
8
usbl
62
0
5
1e8
100
AcDbEntity
100
AcDbLine
10
1.311066
20
11.261529
30
0.0
11
1.263822
21
11.261529
31
0.0
0
LINE
8
usbl
62
0
5
1e9
100
AcDbEntity
100
AcDbLine
10
1.263822
20
11.261529
30
0.0
11
1.263822
21
11.277280
31
0.0
0
LINE
8
usbl
62
0
5
1ea
100
AcDbEntity
100
AcDbLine
10
1.263822
20
11.277280
30
0.0
11
1.263822
21
11.277280
31
0.0
0
LINE
8
usbl
62
0
5
1eb
100
AcDbEntity
100
AcDbLine
10
1.263822
20
11.302474
30
0.0
11
1.311066
21
11.302474
31
0.0
0
LINE
8
usbl
62
0
5
1ec
100
AcDbEntity
100
AcDbLine
10
1.311066
20
11.302474
30
0.0
11
1.311066
21
11.286728
31
0.0
0
LINE
8
usbl
62
0
5
1ed
100
AcDbEntity
100
AcDbLine
10
1.311066
20
11.286728
30
0.0
11
1.263822
21
11.286728
31
0.0
0
LINE
8
usbl
62
0
5
1ee
100
AcDbEntity
100
AcDbLine
10
1.263822
20
11.286728
30
0.0
11
1.263822
21
11.302474
31
0.0
0
LINE
8
usbl
62
0
5
1ef
100
AcDbEntity
100
AcDbLine
10
1.263822
20
11.302474
30
0.0
11
1.263822
21
11.302474
31
0.0
0
LINE
8
usbl
62
0
5
1f0
100
AcDbEntity
100
AcDbLine
10
1.336267
20
11.374919
30
0.0
11
1.352018
21
11.374919
31
0.0
0
LINE
8
usbl
62
0
5
1f1
100
AcDbEntity
100
AcDbLine
10
1.352018
20
11.374919
30
0.0
11
1.352018
21
11.327671
31
0.0
0
LINE
8
usbl
62
0
5
1f2
100
AcDbEntity
100
AcDbLine
10
1.352018
20
11.327671
30
0.0
11
1.336267
21
11.327671
31
0.0
0
LINE
8
usbl
62
0
5
1f3
100
AcDbEntity
100
AcDbLine
10
1.336267
20
11.327671
30
0.0
11
1.336267
21
11.374919
31
0.0
0
LINE
8
usbl
62
0
5
1f4
100
AcDbEntity
100
AcDbLine
10
1.336267
20
11.374919
30
0.0
11
1.336267
21
11.374919
31
0.0
0
LINE
8
usbl
62
0
5
1f5
100
AcDbEntity
100
AcDbLine
10
1.361467
20
11.374919
30
0.0
11
1.377213
21
11.374919
31
0.0
0
LINE
8
usbl
62
0
5
1f6
100
AcDbEntity
100
AcDbLine
10
1.377213
20
11.374919
30
0.0
11
1.377213
21
11.327671
31
0.0
0
LINE
8
usbl
62
0
5
1f7
100
AcDbEntity
100
AcDbLine
10
1.377213
20
11.327671
30
0.0
11
1.361467
21
11.327671
31
0.0
0
LINE
8
usbl
62
0
5
1f8
100
AcDbEntity
100
AcDbLine
10
1.361467
20
11.327671
30
0.0
11
1.361467
21
11.374919
31
0.0
0
LINE
8
usbl
62
0
5
1f9
100
AcDbEntity
100
AcDbLine
10
1.361467
20
11.374919
30
0.0
11
1.361467
21
11.374919
31
0.0
0
LINE
8
usbl
62
0
5
1fa
100
AcDbEntity
100
AcDbLine
10
1.386656
20
11.374919
30
0.0
11
1.402402
21
11.374919
31
0.0
0
LINE
8
usbl
62
0
5
1fb
100
AcDbEntity
100
AcDbLine
10
1.402402
20
11.374919
30
0.0
11
1.402402
21
11.327671
31
0.0
0
LINE
8
usbl
62
0
5
1fc
100
AcDbEntity
100
AcDbLine
10
1.402402
20
11.327671
30
0.0
11
1.386656
21
11.327671
31
0.0
0
LINE
8
usbl
62
0
5
1fd
100
AcDbEntity
100
AcDbLine
10
1.386656
20
11.327671
30
0.0
11
1.386656
21
11.374919
31
0.0
0
LINE
8
usbl
62
0
5
1fe
100
AcDbEntity
100
AcDbLine
10
1.386656
20
11.374919
30
0.0
11
1.386656
21
11.374919
31
0.0
0
LINE
8
usbl
62
0
5
1ff
100
AcDbEntity
100
AcDbLine
10
1.411856
20
11.374919
30
0.0
11
1.427606
21
11.374919
31
0.0
0
LINE
8
usbl
62
0
5
200
100
AcDbEntity
100
AcDbLine
10
1.427606
20
11.374919
30
0.0
11
1.427606
21
11.327671
31
0.0
0
LINE
8
usbl
62
0
5
201
100
AcDbEntity
100
AcDbLine
10
1.427606
20
11.327671
30
0.0
11
1.411856
21
11.327671
31
0.0
0
LINE
8
usbl
62
0
5
202
100
AcDbEntity
100
AcDbLine
10
1.411856
20
11.327671
30
0.0
11
1.411856
21
11.374919
31
0.0
0
LINE
8
usbl
62
0
5
203
100
AcDbEntity
100
AcDbLine
10
1.411856
20
11.374919
30
0.0
11
1.411856
21
11.374919
31
0.0
0
LINE
8
usbl
62
0
5
204
100
AcDbEntity
100
AcDbLine
10
1.437056
20
11.374919
30
0.0
11
1.452802
21
11.374919
31
0.0
0
LINE
8
usbl
62
0
5
205
100
AcDbEntity
100
AcDbLine
10
1.452802
20
11.374919
30
0.0
11
1.452802
21
11.327671
31
0.0
0
LINE
8
usbl
62
0
5
206
100
AcDbEntity
100
AcDbLine
10
1.452802
20
11.327671
30
0.0
11
1.437056
21
11.327671
31
0.0
0
LINE
8
usbl
62
0
5
207
100
AcDbEntity
100
AcDbLine
10
1.437056
20
11.327671
30
0.0
11
1.437056
21
11.374919
31
0.0
0
LINE
8
usbl
62
0
5
208
100
AcDbEntity
100
AcDbLine
10
1.437056
20
11.374919
30
0.0
11
1.437056
21
11.374919
31
0.0
0
LINE
8
usbl
62
0
5
209
100
AcDbEntity
100
AcDbLine
10
1.462244
20
11.374919
30
0.0
11
1.477991
21
11.374919
31
0.0
0
LINE
8
usbl
62
0
5
20a
100
AcDbEntity
100
AcDbLine
10
1.477991
20
11.374919
30
0.0
11
1.477991
21
11.327671
31
0.0
0
LINE
8
usbl
62
0
5
20b
100
AcDbEntity
100
AcDbLine
10
1.477991
20
11.327671
30
0.0
11
1.462244
21
11.327671
31
0.0
0
LINE
8
usbl
62
0
5
20c
100
AcDbEntity
100
AcDbLine
10
1.462244
20
11.327671
30
0.0
11
1.462244
21
11.374919
31
0.0
0
LINE
8
usbl
62
0
5
20d
100
AcDbEntity
100
AcDbLine
10
1.462244
20
11.374919
30
0.0
11
1.462244
21
11.374919
31
0.0
0
LINE
8
usbl
62
0
5
20e
100
AcDbEntity
100
AcDbLine
10
1.487444
20
11.374919
30
0.0
11
1.503195
21
11.374919
31
0.0
0
LINE
8
usbl
62
0
5
20f
100
AcDbEntity
100
AcDbLine
10
1.503195
20
11.374919
30
0.0
11
1.503195
21
11.327671
31
0.0
0
LINE
8
usbl
62
0
5
210
100
AcDbEntity
100
AcDbLine
10
1.503195
20
11.327671
30
0.0
11
1.487444
21
11.327671
31
0.0
0
LINE
8
usbl
62
0
5
211
100
AcDbEntity
100
AcDbLine
10
1.487444
20
11.327671
30
0.0
11
1.487444
21
11.374919
31
0.0
0
LINE
8
usbl
62
0
5
212
100
AcDbEntity
100
AcDbLine
10
1.487444
20
11.374919
30
0.0
11
1.487444
21
11.374919
31
0.0
0
LINE
8
usbl
62
0
5
213
100
AcDbEntity
100
AcDbLine
10
1.512644
20
11.374919
30
0.0
11
1.528391
21
11.374919
31
0.0
0
LINE
8
usbl
62
0
5
214
100
AcDbEntity
100
AcDbLine
10
1.528391
20
11.374919
30
0.0
11
1.528391
21
11.327671
31
0.0
0
LINE
8
usbl
62
0
5
215
100
AcDbEntity
100
AcDbLine
10
1.528391
20
11.327671
30
0.0
11
1.512644
21
11.327671
31
0.0
0
LINE
8
usbl
62
0
5
216
100
AcDbEntity
100
AcDbLine
10
1.512644
20
11.327671
30
0.0
11
1.512644
21
11.374919
31
0.0
0
LINE
8
usbl
62
0
5
217
100
AcDbEntity
100
AcDbLine
10
1.512644
20
11.374919
30
0.0
11
1.512644
21
11.374919
31
0.0
0
LINE
8
usbl
62
0
5
218
100
AcDbEntity
100
AcDbLine
10
1.537833
20
11.374919
30
0.0
11
1.553584
21
11.374919
31
0.0
0
LINE
8
usbl
62
0
5
219
100
AcDbEntity
100
AcDbLine
10
1.553584
20
11.374919
30
0.0
11
1.553584
21
11.327671
31
0.0
0
LINE
8
usbl
62
0
5
21a
100
AcDbEntity
100
AcDbLine
10
1.553584
20
11.327671
30
0.0
11
1.537833
21
11.327671
31
0.0
0
LINE
8
usbl
62
0
5
21b
100
AcDbEntity
100
AcDbLine
10
1.537833
20
11.327671
30
0.0
11
1.537833
21
11.374919
31
0.0
0
LINE
8
usbl
62
0
5
21c
100
AcDbEntity
100
AcDbLine
10
1.537833
20
11.374919
30
0.0
11
1.537833
21
11.374919
31
0.0
0
LINE
8
usbl
62
0
5
21d
100
AcDbEntity
100
AcDbLine
10
1.563033
20
11.374919
30
0.0
11
1.578780
21
11.374919
31
0.0
0
LINE
8
usbl
62
0
5
21e
100
AcDbEntity
100
AcDbLine
10
1.578780
20
11.374919
30
0.0
11
1.578780
21
11.327671
31
0.0
0
LINE
8
usbl
62
0
5
21f
100
AcDbEntity
100
AcDbLine
10
1.578780
20
11.327671
30
0.0
11
1.563033
21
11.327671
31
0.0
0
LINE
8
usbl
62
0
5
220
100
AcDbEntity
100
AcDbLine
10
1.563033
20
11.327671
30
0.0
11
1.563033
21
11.374919
31
0.0
0
LINE
8
usbl
62
0
5
221
100
AcDbEntity
100
AcDbLine
10
1.563033
20
11.374919
30
0.0
11
1.563033
21
11.374919
31
0.0
0
LINE
8
usbl
62
0
5
222
100
AcDbEntity
100
AcDbLine
10
1.588233
20
11.374919
30
0.0
11
1.603980
21
11.374919
31
0.0
0
LINE
8
usbl
62
0
5
223
100
AcDbEntity
100
AcDbLine
10
1.603980
20
11.374919
30
0.0
11
1.603980
21
11.327671
31
0.0
0
LINE
8
usbl
62
0
5
224
100
AcDbEntity
100
AcDbLine
10
1.603980
20
11.327671
30
0.0
11
1.588233
21
11.327671
31
0.0
0
LINE
8
usbl
62
0
5
225
100
AcDbEntity
100
AcDbLine
10
1.588233
20
11.327671
30
0.0
11
1.588233
21
11.374919
31
0.0
0
LINE
8
usbl
62
0
5
226
100
AcDbEntity
100
AcDbLine
10
1.588233
20
11.374919
30
0.0
11
1.588233
21
11.374919
31
0.0
0
LINE
8
usbl
62
0
5
227
100
AcDbEntity
100
AcDbLine
10
1.613433
20
11.374919
30
0.0
11
1.629184
21
11.374919
31
0.0
0
LINE
8
usbl
62
0
5
228
100
AcDbEntity
100
AcDbLine
10
1.629184
20
11.374919
30
0.0
11
1.629184
21
11.327671
31
0.0
0
LINE
8
usbl
62
0
5
229
100
AcDbEntity
100
AcDbLine
10
1.629184
20
11.327671
30
0.0
11
1.613433
21
11.327671
31
0.0
0
LINE
8
usbl
62
0
5
22a
100
AcDbEntity
100
AcDbLine
10
1.613433
20
11.327671
30
0.0
11
1.613433
21
11.374919
31
0.0
0
LINE
8
usbl
62
0
5
22b
100
AcDbEntity
100
AcDbLine
10
1.613433
20
11.374919
30
0.0
11
1.613433
21
11.374919
31
0.0
0
LINE
8
usbl
62
0
5
22c
100
AcDbEntity
100
AcDbLine
10
1.638633
20
11.374919
30
0.0
11
1.654380
21
11.374919
31
0.0
0
LINE
8
usbl
62
0
5
22d
100
AcDbEntity
100
AcDbLine
10
1.654380
20
11.374919
30
0.0
11
1.654380
21
11.327671
31
0.0
0
LINE
8
usbl
62
0
5
22e
100
AcDbEntity
100
AcDbLine
10
1.654380
20
11.327671
30
0.0
11
1.638633
21
11.327671
31
0.0
0
LINE
8
usbl
62
0
5
22f
100
AcDbEntity
100
AcDbLine
10
1.638633
20
11.327671
30
0.0
11
1.638633
21
11.374919
31
0.0
0
LINE
8
usbl
62
0
5
230
100
AcDbEntity
100
AcDbLine
10
1.638633
20
11.374919
30
0.0
11
1.638633
21
11.374919
31
0.0
0
LINE
8
usbl
62
0
5
231
100
AcDbEntity
100
AcDbLine
10
1.663822
20
11.374919
30
0.0
11
1.679569
21
11.374919
31
0.0
0
LINE
8
usbl
62
0
5
232
100
AcDbEntity
100
AcDbLine
10
1.679569
20
11.374919
30
0.0
11
1.679569
21
11.327671
31
0.0
0
LINE
8
usbl
62
0
5
233
100
AcDbEntity
100
AcDbLine
10
1.679569
20
11.327671
30
0.0
11
1.663822
21
11.327671
31
0.0
0
LINE
8
usbl
62
0
5
234
100
AcDbEntity
100
AcDbLine
10
1.663822
20
11.327671
30
0.0
11
1.663822
21
11.374919
31
0.0
0
LINE
8
usbl
62
0
5
235
100
AcDbEntity
100
AcDbLine
10
1.663822
20
11.374919
30
0.0
11
1.663822
21
11.374919
31
0.0
0
LINE
8
usbl
62
0
5
236
100
AcDbEntity
100
AcDbLine
10
1.689022
20
11.374919
30
0.0
11
1.704773
21
11.374919
31
0.0
0
LINE
8
usbl
62
0
5
237
100
AcDbEntity
100
AcDbLine
10
1.704773
20
11.374919
30
0.0
11
1.704773
21
11.327671
31
0.0
0
LINE
8
usbl
62
0
5
238
100
AcDbEntity
100
AcDbLine
10
1.704773
20
11.327671
30
0.0
11
1.689022
21
11.327671
31
0.0
0
LINE
8
usbl
62
0
5
239
100
AcDbEntity
100
AcDbLine
10
1.689022
20
11.327671
30
0.0
11
1.689022
21
11.374919
31
0.0
0
LINE
8
usbl
62
0
5
23a
100
AcDbEntity
100
AcDbLine
10
1.689022
20
11.374919
30
0.0
11
1.689022
21
11.374919
31
0.0
0
LINE
8
usbl
62
0
5
23b
100
AcDbEntity
100
AcDbLine
10
1.714222
20
11.374919
30
0.0
11
1.729969
21
11.374919
31
0.0
0
LINE
8
usbl
62
0
5
23c
100
AcDbEntity
100
AcDbLine
10
1.729969
20
11.374919
30
0.0
11
1.729969
21
11.327671
31
0.0
0
LINE
8
usbl
62
0
5
23d
100
AcDbEntity
100
AcDbLine
10
1.729969
20
11.327671
30
0.0
11
1.714222
21
11.327671
31
0.0
0
LINE
8
usbl
62
0
5
23e
100
AcDbEntity
100
AcDbLine
10
1.714222
20
11.327671
30
0.0
11
1.714222
21
11.374919
31
0.0
0
LINE
8
usbl
62
0
5
23f
100
AcDbEntity
100
AcDbLine
10
1.714222
20
11.374919
30
0.0
11
1.714222
21
11.374919
31
0.0
0
LINE
8
usbl
62
0
5
240
100
AcDbEntity
100
AcDbLine
10
2.316811
20
11.119324
30
0.0
11
2.368309
21
11.119324
31
0.0
0
LINE
8
usbl
62
0
5
241
100
AcDbEntity
100
AcDbLine
10
2.368309
20
11.119324
30
0.0
11
2.368309
21
11.105470
31
0.0
0
LINE
8
usbl
62
0
5
242
100
AcDbEntity
100
AcDbLine
10
2.368309
20
11.105470
30
0.0
11
2.316811
21
11.105470
31
0.0
0
LINE
8
usbl
62
0
5
243
100
AcDbEntity
100
AcDbLine
10
2.316811
20
11.105470
30
0.0
11
2.316811
21
11.119324
31
0.0
0
LINE
8
usbl
62
0
5
244
100
AcDbEntity
100
AcDbLine
10
2.316811
20
11.119324
30
0.0
11
2.316811
21
11.119324
31
0.0
0
LINE
8
usbl
62
0
5
245
100
AcDbEntity
100
AcDbLine
10
2.316811
20
11.139797
30
0.0
11
2.368309
21
11.139797
31
0.0
0
LINE
8
usbl
62
0
5
246
100
AcDbEntity
100
AcDbLine
10
2.368309
20
11.139797
30
0.0
11
2.368309
21
11.125938
31
0.0
0
LINE
8
usbl
62
0
5
247
100
AcDbEntity
100
AcDbLine
10
2.368309
20
11.125938
30
0.0
11
2.316811
21
11.125938
31
0.0
0
LINE
8
usbl
62
0
5
248
100
AcDbEntity
100
AcDbLine
10
2.316811
20
11.125938
30
0.0
11
2.316811
21
11.139797
31
0.0
0
LINE
8
usbl
62
0
5
249
100
AcDbEntity
100
AcDbLine
10
2.316811
20
11.139797
30
0.0
11
2.316811
21
11.139797
31
0.0
0
LINE
8
usbl
62
0
5
24a
100
AcDbEntity
100
AcDbLine
10
2.316811
20
11.160270
30
0.0
11
2.368309
21
11.160270
31
0.0
0
LINE
8
usbl
62
0
5
24b
100
AcDbEntity
100
AcDbLine
10
2.368309
20
11.160270
30
0.0
11
2.368309
21
11.146411
31
0.0
0
LINE
8
usbl
62
0
5
24c
100
AcDbEntity
100
AcDbLine
10
2.368309
20
11.146411
30
0.0
11
2.316811
21
11.146411
31
0.0
0
LINE
8
usbl
62
0
5
24d
100
AcDbEntity
100
AcDbLine
10
2.316811
20
11.146411
30
0.0
11
2.316811
21
11.160270
31
0.0
0
LINE
8
usbl
62
0
5
24e
100
AcDbEntity
100
AcDbLine
10
2.316811
20
11.160270
30
0.0
11
2.316811
21
11.160270
31
0.0
0
LINE
8
usbl
62
0
5
24f
100
AcDbEntity
100
AcDbLine
10
2.316811
20
11.180743
30
0.0
11
2.368309
21
11.180743
31
0.0
0
LINE
8
usbl
62
0
5
250
100
AcDbEntity
100
AcDbLine
10
2.368309
20
11.180743
30
0.0
11
2.368309
21
11.166885
31
0.0
0
LINE
8
usbl
62
0
5
251
100
AcDbEntity
100
AcDbLine
10
2.368309
20
11.166885
30
0.0
11
2.316811
21
11.166885
31
0.0
0
LINE
8
usbl
62
0
5
252
100
AcDbEntity
100
AcDbLine
10
2.316811
20
11.166885
30
0.0
11
2.316811
21
11.180743
31
0.0
0
LINE
8
usbl
62
0
5
253
100
AcDbEntity
100
AcDbLine
10
2.316811
20
11.180743
30
0.0
11
2.316811
21
11.180743
31
0.0
0
LINE
8
usbl
62
0
5
254
100
AcDbEntity
100
AcDbLine
10
2.316811
20
11.201217
30
0.0
11
2.368309
21
11.201217
31
0.0
0
LINE
8
usbl
62
0
5
255
100
AcDbEntity
100
AcDbLine
10
2.368309
20
11.201217
30
0.0
11
2.368309
21
11.187358
31
0.0
0
LINE
8
usbl
62
0
5
256
100
AcDbEntity
100
AcDbLine
10
2.368309
20
11.187358
30
0.0
11
2.316811
21
11.187358
31
0.0
0
LINE
8
usbl
62
0
5
257
100
AcDbEntity
100
AcDbLine
10
2.316811
20
11.187358
30
0.0
11
2.316811
21
11.201217
31
0.0
0
LINE
8
usbl
62
0
5
258
100
AcDbEntity
100
AcDbLine
10
2.316811
20
11.201217
30
0.0
11
2.316811
21
11.201217
31
0.0
0
LINE
8
usbl
62
0
5
259
100
AcDbEntity
100
AcDbLine
10
2.316811
20
11.221689
30
0.0
11
2.368309
21
11.221689
31
0.0
0
LINE
8
usbl
62
0
5
25a
100
AcDbEntity
100
AcDbLine
10
2.368309
20
11.221689
30
0.0
11
2.368309
21
11.207830
31
0.0
0
LINE
8
usbl
62
0
5
25b
100
AcDbEntity
100
AcDbLine
10
2.368309
20
11.207830
30
0.0
11
2.316811
21
11.207830
31
0.0
0
LINE
8
usbl
62
0
5
25c
100
AcDbEntity
100
AcDbLine
10
2.316811
20
11.207830
30
0.0
11
2.316811
21
11.221689
31
0.0
0
LINE
8
usbl
62
0
5
25d
100
AcDbEntity
100
AcDbLine
10
2.316811
20
11.221689
30
0.0
11
2.316811
21
11.221689
31
0.0
0
LINE
8
usbl
62
0
5
25e
100
AcDbEntity
100
AcDbLine
10
2.316811
20
11.242162
30
0.0
11
2.368309
21
11.242162
31
0.0
0
LINE
8
usbl
62
0
5
25f
100
AcDbEntity
100
AcDbLine
10
2.368309
20
11.242162
30
0.0
11
2.368309
21
11.228304
31
0.0
0
LINE
8
usbl
62
0
5
260
100
AcDbEntity
100
AcDbLine
10
2.368309
20
11.228304
30
0.0
11
2.316811
21
11.228304
31
0.0
0
LINE
8
usbl
62
0
5
261
100
AcDbEntity
100
AcDbLine
10
2.316811
20
11.228304
30
0.0
11
2.316811
21
11.242162
31
0.0
0
LINE
8
usbl
62
0
5
262
100
AcDbEntity
100
AcDbLine
10
2.316811
20
11.242162
30
0.0
11
2.316811
21
11.242162
31
0.0
0
LINE
8
usbl
62
0
5
263
100
AcDbEntity
100
AcDbLine
10
2.316811
20
11.262631
30
0.0
11
2.368309
21
11.262631
31
0.0
0
LINE
8
usbl
62
0
5
264
100
AcDbEntity
100
AcDbLine
10
2.368309
20
11.262631
30
0.0
11
2.368309
21
11.248773
31
0.0
0
LINE
8
usbl
62
0
5
265
100
AcDbEntity
100
AcDbLine
10
2.368309
20
11.248773
30
0.0
11
2.316811
21
11.248773
31
0.0
0
LINE
8
usbl
62
0
5
266
100
AcDbEntity
100
AcDbLine
10
2.316811
20
11.248773
30
0.0
11
2.316811
21
11.262631
31
0.0
0
LINE
8
usbl
62
0
5
267
100
AcDbEntity
100
AcDbLine
10
2.316811
20
11.262631
30
0.0
11
2.316811
21
11.262631
31
0.0
0
LINE
8
usbl
62
0
5
268
100
AcDbEntity
100
AcDbLine
10
2.316811
20
11.283104
30
0.0
11
2.368309
21
11.283104
31
0.0
0
LINE
8
usbl
62
0
5
269
100
AcDbEntity
100
AcDbLine
10
2.368309
20
11.283104
30
0.0
11
2.368309
21
11.269246
31
0.0
0
LINE
8
usbl
62
0
5
26a
100
AcDbEntity
100
AcDbLine
10
2.368309
20
11.269246
30
0.0
11
2.316811
21
11.269246
31
0.0
0
LINE
8
usbl
62
0
5
26b
100
AcDbEntity
100
AcDbLine
10
2.316811
20
11.269246
30
0.0
11
2.316811
21
11.283104
31
0.0
0
LINE
8
usbl
62
0
5
26c
100
AcDbEntity
100
AcDbLine
10
2.316811
20
11.283104
30
0.0
11
2.316811
21
11.283104
31
0.0
0
LINE
8
usbl
62
0
5
26d
100
AcDbEntity
100
AcDbLine
10
2.316811
20
11.303578
30
0.0
11
2.368309
21
11.303578
31
0.0
0
LINE
8
usbl
62
0
5
26e
100
AcDbEntity
100
AcDbLine
10
2.368309
20
11.303578
30
0.0
11
2.368309
21
11.289719
31
0.0
0
LINE
8
usbl
62
0
5
26f
100
AcDbEntity
100
AcDbLine
10
2.368309
20
11.289719
30
0.0
11
2.316811
21
11.289719
31
0.0
0
LINE
8
usbl
62
0
5
270
100
AcDbEntity
100
AcDbLine
10
2.316811
20
11.289719
30
0.0
11
2.316811
21
11.303578
31
0.0
0
LINE
8
usbl
62
0
5
271
100
AcDbEntity
100
AcDbLine
10
2.316811
20
11.303578
30
0.0
11
2.316811
21
11.303578
31
0.0
0
LINE
8
usbl
62
0
5
272
100
AcDbEntity
100
AcDbLine
10
2.316811
20
11.324050
30
0.0
11
2.368309
21
11.324050
31
0.0
0
LINE
8
usbl
62
0
5
273
100
AcDbEntity
100
AcDbLine
10
2.368309
20
11.324050
30
0.0
11
2.368309
21
11.310191
31
0.0
0
LINE
8
usbl
62
0
5
274
100
AcDbEntity
100
AcDbLine
10
2.368309
20
11.310191
30
0.0
11
2.316811
21
11.310191
31
0.0
0
LINE
8
usbl
62
0
5
275
100
AcDbEntity
100
AcDbLine
10
2.316811
20
11.310191
30
0.0
11
2.316811
21
11.324050
31
0.0
0
LINE
8
usbl
62
0
5
276
100
AcDbEntity
100
AcDbLine
10
2.316811
20
11.324050
30
0.0
11
2.316811
21
11.324050
31
0.0
0
LINE
8
usbl
62
0
5
277
100
AcDbEntity
100
AcDbLine
10
2.316811
20
11.344523
30
0.0
11
2.368309
21
11.344523
31
0.0
0
LINE
8
usbl
62
0
5
278
100
AcDbEntity
100
AcDbLine
10
2.368309
20
11.344523
30
0.0
11
2.368309
21
11.330665
31
0.0
0
LINE
8
usbl
62
0
5
279
100
AcDbEntity
100
AcDbLine
10
2.368309
20
11.330665
30
0.0
11
2.316811
21
11.330665
31
0.0
0
LINE
8
usbl
62
0
5
27a
100
AcDbEntity
100
AcDbLine
10
2.316811
20
11.330665
30
0.0
11
2.316811
21
11.344523
31
0.0
0
LINE
8
usbl
62
0
5
27b
100
AcDbEntity
100
AcDbLine
10
2.316811
20
11.344523
30
0.0
11
2.316811
21
11.344523
31
0.0
0
LINE
8
usbl
62
0
5
27c
100
AcDbEntity
100
AcDbLine
10
2.124689
20
11.119324
30
0.0
11
2.176182
21
11.119324
31
0.0
0
LINE
8
usbl
62
0
5
27d
100
AcDbEntity
100
AcDbLine
10
2.176182
20
11.119324
30
0.0
11
2.176182
21
11.105470
31
0.0
0
LINE
8
usbl
62
0
5
27e
100
AcDbEntity
100
AcDbLine
10
2.176182
20
11.105470
30
0.0
11
2.124689
21
11.105470
31
0.0
0
LINE
8
usbl
62
0
5
27f
100
AcDbEntity
100
AcDbLine
10
2.124689
20
11.105470
30
0.0
11
2.124689
21
11.119324
31
0.0
0
LINE
8
usbl
62
0
5
280
100
AcDbEntity
100
AcDbLine
10
2.124689
20
11.119324
30
0.0
11
2.124689
21
11.119324
31
0.0
0
LINE
8
usbl
62
0
5
281
100
AcDbEntity
100
AcDbLine
10
2.124689
20
11.139797
30
0.0
11
2.176182
21
11.139797
31
0.0
0
LINE
8
usbl
62
0
5
282
100
AcDbEntity
100
AcDbLine
10
2.176182
20
11.139797
30
0.0
11
2.176182
21
11.125938
31
0.0
0
LINE
8
usbl
62
0
5
283
100
AcDbEntity
100
AcDbLine
10
2.176182
20
11.125938
30
0.0
11
2.124689
21
11.125938
31
0.0
0
LINE
8
usbl
62
0
5
284
100
AcDbEntity
100
AcDbLine
10
2.124689
20
11.125938
30
0.0
11
2.124689
21
11.139797
31
0.0
0
LINE
8
usbl
62
0
5
285
100
AcDbEntity
100
AcDbLine
10
2.124689
20
11.139797
30
0.0
11
2.124689
21
11.139797
31
0.0
0
LINE
8
usbl
62
0
5
286
100
AcDbEntity
100
AcDbLine
10
2.124689
20
11.160270
30
0.0
11
2.176182
21
11.160270
31
0.0
0
LINE
8
usbl
62
0
5
287
100
AcDbEntity
100
AcDbLine
10
2.176182
20
11.160270
30
0.0
11
2.176182
21
11.146411
31
0.0
0
LINE
8
usbl
62
0
5
288
100
AcDbEntity
100
AcDbLine
10
2.176182
20
11.146411
30
0.0
11
2.124689
21
11.146411
31
0.0
0
LINE
8
usbl
62
0
5
289
100
AcDbEntity
100
AcDbLine
10
2.124689
20
11.146411
30
0.0
11
2.124689
21
11.160270
31
0.0
0
LINE
8
usbl
62
0
5
28a
100
AcDbEntity
100
AcDbLine
10
2.124689
20
11.160270
30
0.0
11
2.124689
21
11.160270
31
0.0
0
LINE
8
usbl
62
0
5
28b
100
AcDbEntity
100
AcDbLine
10
2.124689
20
11.180743
30
0.0
11
2.176182
21
11.180743
31
0.0
0
LINE
8
usbl
62
0
5
28c
100
AcDbEntity
100
AcDbLine
10
2.176182
20
11.180743
30
0.0
11
2.176182
21
11.166885
31
0.0
0
LINE
8
usbl
62
0
5
28d
100
AcDbEntity
100
AcDbLine
10
2.176182
20
11.166885
30
0.0
11
2.124689
21
11.166885
31
0.0
0
LINE
8
usbl
62
0
5
28e
100
AcDbEntity
100
AcDbLine
10
2.124689
20
11.166885
30
0.0
11
2.124689
21
11.180743
31
0.0
0
LINE
8
usbl
62
0
5
28f
100
AcDbEntity
100
AcDbLine
10
2.124689
20
11.180743
30
0.0
11
2.124689
21
11.180743
31
0.0
0
LINE
8
usbl
62
0
5
290
100
AcDbEntity
100
AcDbLine
10
2.124689
20
11.201217
30
0.0
11
2.176182
21
11.201217
31
0.0
0
LINE
8
usbl
62
0
5
291
100
AcDbEntity
100
AcDbLine
10
2.176182
20
11.201217
30
0.0
11
2.176182
21
11.187358
31
0.0
0
LINE
8
usbl
62
0
5
292
100
AcDbEntity
100
AcDbLine
10
2.176182
20
11.187358
30
0.0
11
2.124689
21
11.187358
31
0.0
0
LINE
8
usbl
62
0
5
293
100
AcDbEntity
100
AcDbLine
10
2.124689
20
11.187358
30
0.0
11
2.124689
21
11.201217
31
0.0
0
LINE
8
usbl
62
0
5
294
100
AcDbEntity
100
AcDbLine
10
2.124689
20
11.201217
30
0.0
11
2.124689
21
11.201217
31
0.0
0
LINE
8
usbl
62
0
5
295
100
AcDbEntity
100
AcDbLine
10
2.124689
20
11.221689
30
0.0
11
2.176182
21
11.221689
31
0.0
0
LINE
8
usbl
62
0
5
296
100
AcDbEntity
100
AcDbLine
10
2.176182
20
11.221689
30
0.0
11
2.176182
21
11.207830
31
0.0
0
LINE
8
usbl
62
0
5
297
100
AcDbEntity
100
AcDbLine
10
2.176182
20
11.207830
30
0.0
11
2.124689
21
11.207830
31
0.0
0
LINE
8
usbl
62
0
5
298
100
AcDbEntity
100
AcDbLine
10
2.124689
20
11.207830
30
0.0
11
2.124689
21
11.221689
31
0.0
0
LINE
8
usbl
62
0
5
299
100
AcDbEntity
100
AcDbLine
10
2.124689
20
11.221689
30
0.0
11
2.124689
21
11.221689
31
0.0
0
LINE
8
usbl
62
0
5
29a
100
AcDbEntity
100
AcDbLine
10
2.124689
20
11.242162
30
0.0
11
2.176182
21
11.242162
31
0.0
0
LINE
8
usbl
62
0
5
29b
100
AcDbEntity
100
AcDbLine
10
2.176182
20
11.242162
30
0.0
11
2.176182
21
11.228304
31
0.0
0
LINE
8
usbl
62
0
5
29c
100
AcDbEntity
100
AcDbLine
10
2.176182
20
11.228304
30
0.0
11
2.124689
21
11.228304
31
0.0
0
LINE
8
usbl
62
0
5
29d
100
AcDbEntity
100
AcDbLine
10
2.124689
20
11.228304
30
0.0
11
2.124689
21
11.242162
31
0.0
0
LINE
8
usbl
62
0
5
29e
100
AcDbEntity
100
AcDbLine
10
2.124689
20
11.242162
30
0.0
11
2.124689
21
11.242162
31
0.0
0
LINE
8
usbl
62
0
5
29f
100
AcDbEntity
100
AcDbLine
10
2.124689
20
11.262631
30
0.0
11
2.176182
21
11.262631
31
0.0
0
LINE
8
usbl
62
0
5
2a0
100
AcDbEntity
100
AcDbLine
10
2.176182
20
11.262631
30
0.0
11
2.176182
21
11.248773
31
0.0
0
LINE
8
usbl
62
0
5
2a1
100
AcDbEntity
100
AcDbLine
10
2.176182
20
11.248773
30
0.0
11
2.124689
21
11.248773
31
0.0
0
LINE
8
usbl
62
0
5
2a2
100
AcDbEntity
100
AcDbLine
10
2.124689
20
11.248773
30
0.0
11
2.124689
21
11.262631
31
0.0
0
LINE
8
usbl
62
0
5
2a3
100
AcDbEntity
100
AcDbLine
10
2.124689
20
11.262631
30
0.0
11
2.124689
21
11.262631
31
0.0
0
LINE
8
usbl
62
0
5
2a4
100
AcDbEntity
100
AcDbLine
10
2.124689
20
11.283104
30
0.0
11
2.176182
21
11.283104
31
0.0
0
LINE
8
usbl
62
0
5
2a5
100
AcDbEntity
100
AcDbLine
10
2.176182
20
11.283104
30
0.0
11
2.176182
21
11.269246
31
0.0
0
LINE
8
usbl
62
0
5
2a6
100
AcDbEntity
100
AcDbLine
10
2.176182
20
11.269246
30
0.0
11
2.124689
21
11.269246
31
0.0
0
LINE
8
usbl
62
0
5
2a7
100
AcDbEntity
100
AcDbLine
10
2.124689
20
11.269246
30
0.0
11
2.124689
21
11.283104
31
0.0
0
LINE
8
usbl
62
0
5
2a8
100
AcDbEntity
100
AcDbLine
10
2.124689
20
11.283104
30
0.0
11
2.124689
21
11.283104
31
0.0
0
LINE
8
usbl
62
0
5
2a9
100
AcDbEntity
100
AcDbLine
10
2.124689
20
11.303578
30
0.0
11
2.176182
21
11.303578
31
0.0
0
LINE
8
usbl
62
0
5
2aa
100
AcDbEntity
100
AcDbLine
10
2.176182
20
11.303578
30
0.0
11
2.176182
21
11.289719
31
0.0
0
LINE
8
usbl
62
0
5
2ab
100
AcDbEntity
100
AcDbLine
10
2.176182
20
11.289719
30
0.0
11
2.124689
21
11.289719
31
0.0
0
LINE
8
usbl
62
0
5
2ac
100
AcDbEntity
100
AcDbLine
10
2.124689
20
11.289719
30
0.0
11
2.124689
21
11.303578
31
0.0
0
LINE
8
usbl
62
0
5
2ad
100
AcDbEntity
100
AcDbLine
10
2.124689
20
11.303578
30
0.0
11
2.124689
21
11.303578
31
0.0
0
LINE
8
usbl
62
0
5
2ae
100
AcDbEntity
100
AcDbLine
10
2.124689
20
11.324050
30
0.0
11
2.176182
21
11.324050
31
0.0
0
LINE
8
usbl
62
0
5
2af
100
AcDbEntity
100
AcDbLine
10
2.176182
20
11.324050
30
0.0
11
2.176182
21
11.310191
31
0.0
0
LINE
8
usbl
62
0
5
2b0
100
AcDbEntity
100
AcDbLine
10
2.176182
20
11.310191
30
0.0
11
2.124689
21
11.310191
31
0.0
0
LINE
8
usbl
62
0
5
2b1
100
AcDbEntity
100
AcDbLine
10
2.124689
20
11.310191
30
0.0
11
2.124689
21
11.324050
31
0.0
0
LINE
8
usbl
62
0
5
2b2
100
AcDbEntity
100
AcDbLine
10
2.124689
20
11.324050
30
0.0
11
2.124689
21
11.324050
31
0.0
0
LINE
8
usbl
62
0
5
2b3
100
AcDbEntity
100
AcDbLine
10
2.124689
20
11.344523
30
0.0
11
2.176182
21
11.344523
31
0.0
0
LINE
8
usbl
62
0
5
2b4
100
AcDbEntity
100
AcDbLine
10
2.176182
20
11.344523
30
0.0
11
2.176182
21
11.330665
31
0.0
0
LINE
8
usbl
62
0
5
2b5
100
AcDbEntity
100
AcDbLine
10
2.176182
20
11.330665
30
0.0
11
2.124689
21
11.330665
31
0.0
0
LINE
8
usbl
62
0
5
2b6
100
AcDbEntity
100
AcDbLine
10
2.124689
20
11.330665
30
0.0
11
2.124689
21
11.344523
31
0.0
0
LINE
8
usbl
62
0
5
2b7
100
AcDbEntity
100
AcDbLine
10
2.124689
20
11.344523
30
0.0
11
2.124689
21
11.344523
31
0.0
0
LINE
8
usbl
62
0
5
2b8
100
AcDbEntity
100
AcDbLine
10
2.657211
20
11.278538
30
0.0
11
2.701304
21
11.278538
31
0.0
0
LINE
8
usbl
62
0
5
2b9
100
AcDbEntity
100
AcDbLine
10
2.701304
20
11.278538
30
0.0
11
2.701304
21
11.265938
31
0.0
0
LINE
8
usbl
62
0
5
2ba
100
AcDbEntity
100
AcDbLine
10
2.701304
20
11.265938
30
0.0
11
2.657211
21
11.265938
31
0.0
0
LINE
8
usbl
62
0
5
2bb
100
AcDbEntity
100
AcDbLine
10
2.657211
20
11.265938
30
0.0
11
2.657211
21
11.278538
31
0.0
0
LINE
8
usbl
62
0
5
2bc
100
AcDbEntity
100
AcDbLine
10
2.657211
20
11.278538
30
0.0
11
2.657211
21
11.278538
31
0.0
0
LINE
8
usbl
62
0
5
2bd
100
AcDbEntity
100
AcDbLine
10
2.657211
20
11.258066
30
0.0
11
2.701304
21
11.258066
31
0.0
0
LINE
8
usbl
62
0
5
2be
100
AcDbEntity
100
AcDbLine
10
2.701304
20
11.258066
30
0.0
11
2.701304
21
11.245470
31
0.0
0
LINE
8
usbl
62
0
5
2bf
100
AcDbEntity
100
AcDbLine
10
2.701304
20
11.245470
30
0.0
11
2.657211
21
11.245470
31
0.0
0
LINE
8
usbl
62
0
5
2c0
100
AcDbEntity
100
AcDbLine
10
2.657211
20
11.245470
30
0.0
11
2.657211
21
11.258066
31
0.0
0
LINE
8
usbl
62
0
5
2c1
100
AcDbEntity
100
AcDbLine
10
2.657211
20
11.258066
30
0.0
11
2.657211
21
11.258066
31
0.0
0
LINE
8
usbl
62
0
5
2c2
100
AcDbEntity
100
AcDbLine
10
2.657211
20
11.237592
30
0.0
11
2.701304
21
11.237592
31
0.0
0
LINE
8
usbl
62
0
5
2c3
100
AcDbEntity
100
AcDbLine
10
2.701304
20
11.237592
30
0.0
11
2.701304
21
11.224997
31
0.0
0
LINE
8
usbl
62
0
5
2c4
100
AcDbEntity
100
AcDbLine
10
2.701304
20
11.224997
30
0.0
11
2.657211
21
11.224997
31
0.0
0
LINE
8
usbl
62
0
5
2c5
100
AcDbEntity
100
AcDbLine
10
2.657211
20
11.224997
30
0.0
11
2.657211
21
11.237592
31
0.0
0
LINE
8
usbl
62
0
5
2c6
100
AcDbEntity
100
AcDbLine
10
2.657211
20
11.237592
30
0.0
11
2.657211
21
11.237592
31
0.0
0
LINE
8
usbl
62
0
5
2c7
100
AcDbEntity
100
AcDbLine
10
2.657211
20
11.217119
30
0.0
11
2.701304
21
11.217119
31
0.0
0
LINE
8
usbl
62
0
5
2c8
100
AcDbEntity
100
AcDbLine
10
2.701304
20
11.217119
30
0.0
11
2.701304
21
11.204523
31
0.0
0
LINE
8
usbl
62
0
5
2c9
100
AcDbEntity
100
AcDbLine
10
2.701304
20
11.204523
30
0.0
11
2.657211
21
11.204523
31
0.0
0
LINE
8
usbl
62
0
5
2ca
100
AcDbEntity
100
AcDbLine
10
2.657211
20
11.204523
30
0.0
11
2.657211
21
11.217119
31
0.0
0
LINE
8
usbl
62
0
5
2cb
100
AcDbEntity
100
AcDbLine
10
2.657211
20
11.217119
30
0.0
11
2.657211
21
11.217119
31
0.0
0
LINE
8
usbl
62
0
5
2cc
100
AcDbEntity
100
AcDbLine
10
2.657211
20
11.196650
30
0.0
11
2.701304
21
11.196650
31
0.0
0
LINE
8
usbl
62
0
5
2cd
100
AcDbEntity
100
AcDbLine
10
2.701304
20
11.196650
30
0.0
11
2.701304
21
11.184050
31
0.0
0
LINE
8
usbl
62
0
5
2ce
100
AcDbEntity
100
AcDbLine
10
2.701304
20
11.184050
30
0.0
11
2.657211
21
11.184050
31
0.0
0
LINE
8
usbl
62
0
5
2cf
100
AcDbEntity
100
AcDbLine
10
2.657211
20
11.184050
30
0.0
11
2.657211
21
11.196650
31
0.0
0
LINE
8
usbl
62
0
5
2d0
100
AcDbEntity
100
AcDbLine
10
2.657211
20
11.196650
30
0.0
11
2.657211
21
11.196650
31
0.0
0
LINE
8
usbl
62
0
5
2d1
100
AcDbEntity
100
AcDbLine
10
2.657211
20
11.176177
30
0.0
11
2.701304
21
11.176177
31
0.0
0
LINE
8
usbl
62
0
5
2d2
100
AcDbEntity
100
AcDbLine
10
2.701304
20
11.176177
30
0.0
11
2.701304
21
11.163577
31
0.0
0
LINE
8
usbl
62
0
5
2d3
100
AcDbEntity
100
AcDbLine
10
2.701304
20
11.163577
30
0.0
11
2.657211
21
11.163577
31
0.0
0
LINE
8
usbl
62
0
5
2d4
100
AcDbEntity
100
AcDbLine
10
2.657211
20
11.163577
30
0.0
11
2.657211
21
11.176177
31
0.0
0
LINE
8
usbl
62
0
5
2d5
100
AcDbEntity
100
AcDbLine
10
2.657211
20
11.176177
30
0.0
11
2.657211
21
11.176177
31
0.0
0
LINE
8
usbl
62
0
5
2d6
100
AcDbEntity
100
AcDbLine
10
2.657211
20
11.155704
30
0.0
11
2.701304
21
11.155704
31
0.0
0
LINE
8
usbl
62
0
5
2d7
100
AcDbEntity
100
AcDbLine
10
2.701304
20
11.155704
30
0.0
11
2.701304
21
11.143105
31
0.0
0
LINE
8
usbl
62
0
5
2d8
100
AcDbEntity
100
AcDbLine
10
2.701304
20
11.143105
30
0.0
11
2.657211
21
11.143105
31
0.0
0
LINE
8
usbl
62
0
5
2d9
100
AcDbEntity
100
AcDbLine
10
2.657211
20
11.143105
30
0.0
11
2.657211
21
11.155704
31
0.0
0
LINE
8
usbl
62
0
5
2da
100
AcDbEntity
100
AcDbLine
10
2.657211
20
11.155704
30
0.0
11
2.657211
21
11.155704
31
0.0
0
LINE
8
usbl
62
0
5
2db
100
AcDbEntity
100
AcDbLine
10
2.471389
20
11.155704
30
0.0
11
2.515482
21
11.155704
31
0.0
0
LINE
8
usbl
62
0
5
2dc
100
AcDbEntity
100
AcDbLine
10
2.515482
20
11.155704
30
0.0
11
2.515482
21
11.143105
31
0.0
0
LINE
8
usbl
62
0
5
2dd
100
AcDbEntity
100
AcDbLine
10
2.515482
20
11.143105
30
0.0
11
2.471389
21
11.143105
31
0.0
0
LINE
8
usbl
62
0
5
2de
100
AcDbEntity
100
AcDbLine
10
2.471389
20
11.143105
30
0.0
11
2.471389
21
11.155704
31
0.0
0
LINE
8
usbl
62
0
5
2df
100
AcDbEntity
100
AcDbLine
10
2.471389
20
11.155704
30
0.0
11
2.471389
21
11.155704
31
0.0
0
LINE
8
usbl
62
0
5
2e0
100
AcDbEntity
100
AcDbLine
10
2.471389
20
11.176177
30
0.0
11
2.515482
21
11.176177
31
0.0
0
LINE
8
usbl
62
0
5
2e1
100
AcDbEntity
100
AcDbLine
10
2.515482
20
11.176177
30
0.0
11
2.515482
21
11.163577
31
0.0
0
LINE
8
usbl
62
0
5
2e2
100
AcDbEntity
100
AcDbLine
10
2.515482
20
11.163577
30
0.0
11
2.471389
21
11.163577
31
0.0
0
LINE
8
usbl
62
0
5
2e3
100
AcDbEntity
100
AcDbLine
10
2.471389
20
11.163577
30
0.0
11
2.471389
21
11.176177
31
0.0
0
LINE
8
usbl
62
0
5
2e4
100
AcDbEntity
100
AcDbLine
10
2.471389
20
11.176177
30
0.0
11
2.471389
21
11.176177
31
0.0
0
LINE
8
usbl
62
0
5
2e5
100
AcDbEntity
100
AcDbLine
10
2.471389
20
11.196650
30
0.0
11
2.515482
21
11.196650
31
0.0
0
LINE
8
usbl
62
0
5
2e6
100
AcDbEntity
100
AcDbLine
10
2.515482
20
11.196650
30
0.0
11
2.515482
21
11.184050
31
0.0
0
LINE
8
usbl
62
0
5
2e7
100
AcDbEntity
100
AcDbLine
10
2.515482
20
11.184050
30
0.0
11
2.471389
21
11.184050
31
0.0
0
LINE
8
usbl
62
0
5
2e8
100
AcDbEntity
100
AcDbLine
10
2.471389
20
11.184050
30
0.0
11
2.471389
21
11.196650
31
0.0
0
LINE
8
usbl
62
0
5
2e9
100
AcDbEntity
100
AcDbLine
10
2.471389
20
11.196650
30
0.0
11
2.471389
21
11.196650
31
0.0
0
LINE
8
usbl
62
0
5
2ea
100
AcDbEntity
100
AcDbLine
10
2.471389
20
11.217119
30
0.0
11
2.515482
21
11.217119
31
0.0
0
LINE
8
usbl
62
0
5
2eb
100
AcDbEntity
100
AcDbLine
10
2.515482
20
11.217119
30
0.0
11
2.515482
21
11.204523
31
0.0
0
LINE
8
usbl
62
0
5
2ec
100
AcDbEntity
100
AcDbLine
10
2.515482
20
11.204523
30
0.0
11
2.471389
21
11.204523
31
0.0
0
LINE
8
usbl
62
0
5
2ed
100
AcDbEntity
100
AcDbLine
10
2.471389
20
11.204523
30
0.0
11
2.471389
21
11.217119
31
0.0
0
LINE
8
usbl
62
0
5
2ee
100
AcDbEntity
100
AcDbLine
10
2.471389
20
11.217119
30
0.0
11
2.471389
21
11.217119
31
0.0
0
LINE
8
usbl
62
0
5
2ef
100
AcDbEntity
100
AcDbLine
10
2.471389
20
11.237592
30
0.0
11
2.515482
21
11.237592
31
0.0
0
LINE
8
usbl
62
0
5
2f0
100
AcDbEntity
100
AcDbLine
10
2.515482
20
11.237592
30
0.0
11
2.515482
21
11.224997
31
0.0
0
LINE
8
usbl
62
0
5
2f1
100
AcDbEntity
100
AcDbLine
10
2.515482
20
11.224997
30
0.0
11
2.471389
21
11.224997
31
0.0
0
LINE
8
usbl
62
0
5
2f2
100
AcDbEntity
100
AcDbLine
10
2.471389
20
11.224997
30
0.0
11
2.471389
21
11.237592
31
0.0
0
LINE
8
usbl
62
0
5
2f3
100
AcDbEntity
100
AcDbLine
10
2.471389
20
11.237592
30
0.0
11
2.471389
21
11.237592
31
0.0
0
LINE
8
usbl
62
0
5
2f4
100
AcDbEntity
100
AcDbLine
10
2.471389
20
11.258066
30
0.0
11
2.515482
21
11.258066
31
0.0
0
LINE
8
usbl
62
0
5
2f5
100
AcDbEntity
100
AcDbLine
10
2.515482
20
11.258066
30
0.0
11
2.515482
21
11.245470
31
0.0
0
LINE
8
usbl
62
0
5
2f6
100
AcDbEntity
100
AcDbLine
10
2.515482
20
11.245470
30
0.0
11
2.471389
21
11.245470
31
0.0
0
LINE
8
usbl
62
0
5
2f7
100
AcDbEntity
100
AcDbLine
10
2.471389
20
11.245470
30
0.0
11
2.471389
21
11.258066
31
0.0
0
LINE
8
usbl
62
0
5
2f8
100
AcDbEntity
100
AcDbLine
10
2.471389
20
11.258066
30
0.0
11
2.471389
21
11.258066
31
0.0
0
LINE
8
usbl
62
0
5
2f9
100
AcDbEntity
100
AcDbLine
10
2.471389
20
11.278538
30
0.0
11
2.515482
21
11.278538
31
0.0
0
LINE
8
usbl
62
0
5
2fa
100
AcDbEntity
100
AcDbLine
10
2.515482
20
11.278538
30
0.0
11
2.515482
21
11.265938
31
0.0
0
LINE
8
usbl
62
0
5
2fb
100
AcDbEntity
100
AcDbLine
10
2.515482
20
11.265938
30
0.0
11
2.471389
21
11.265938
31
0.0
0
LINE
8
usbl
62
0
5
2fc
100
AcDbEntity
100
AcDbLine
10
2.471389
20
11.265938
30
0.0
11
2.471389
21
11.278538
31
0.0
0
LINE
8
usbl
62
0
5
2fd
100
AcDbEntity
100
AcDbLine
10
2.471389
20
11.278538
30
0.0
11
2.471389
21
11.278538
31
0.0
0
LINE
8
usbl
62
0
5
2fe
100
AcDbEntity
100
AcDbLine
10
2.532489
20
11.111294
30
0.0
11
2.563982
21
11.111294
31
0.0
0
LINE
8
usbl
62
0
5
2ff
100
AcDbEntity
100
AcDbLine
10
2.563982
20
11.111294
30
0.0
11
2.563982
21
11.076650
31
0.0
0
LINE
8
usbl
62
0
5
300
100
AcDbEntity
100
AcDbLine
10
2.563982
20
11.076650
30
0.0
11
2.532489
21
11.076650
31
0.0
0
LINE
8
usbl
62
0
5
301
100
AcDbEntity
100
AcDbLine
10
2.532489
20
11.076650
30
0.0
11
2.532489
21
11.111294
31
0.0
0
LINE
8
usbl
62
0
5
302
100
AcDbEntity
100
AcDbLine
10
2.532489
20
11.111294
30
0.0
11
2.532489
21
11.111294
31
0.0
0
LINE
8
usbl
62
0
5
303
100
AcDbEntity
100
AcDbLine
10
2.478944
20
11.111294
30
0.0
11
2.510442
21
11.111294
31
0.0
0
LINE
8
usbl
62
0
5
304
100
AcDbEntity
100
AcDbLine
10
2.510442
20
11.111294
30
0.0
11
2.510442
21
11.076650
31
0.0
0
LINE
8
usbl
62
0
5
305
100
AcDbEntity
100
AcDbLine
10
2.510442
20
11.076650
30
0.0
11
2.478944
21
11.076650
31
0.0
0
LINE
8
usbl
62
0
5
306
100
AcDbEntity
100
AcDbLine
10
2.478944
20
11.076650
30
0.0
11
2.478944
21
11.111294
31
0.0
0
LINE
8
usbl
62
0
5
307
100
AcDbEntity
100
AcDbLine
10
2.478944
20
11.111294
30
0.0
11
2.478944
21
11.111294
31
0.0
0
LINE
8
usbl
62
0
5
308
100
AcDbEntity
100
AcDbLine
10
2.436111
20
11.116021
30
0.0
11
2.470755
21
11.116021
31
0.0
0
LINE
8
usbl
62
0
5
309
100
AcDbEntity
100
AcDbLine
10
2.470755
20
11.116021
30
0.0
11
2.470755
21
11.084524
31
0.0
0
LINE
8
usbl
62
0
5
30a
100
AcDbEntity
100
AcDbLine
10
2.470755
20
11.084524
30
0.0
11
2.436111
21
11.084524
31
0.0
0
LINE
8
usbl
62
0
5
30b
100
AcDbEntity
100
AcDbLine
10
2.436111
20
11.084524
30
0.0
11
2.436111
21
11.116021
31
0.0
0
LINE
8
usbl
62
0
5
30c
100
AcDbEntity
100
AcDbLine
10
2.436111
20
11.116021
30
0.0
11
2.436111
21
11.116021
31
0.0
0
LINE
8
usbl
62
0
5
30d
100
AcDbEntity
100
AcDbLine
10
2.436111
20
11.062474
30
0.0
11
2.470755
21
11.062474
31
0.0
0
LINE
8
usbl
62
0
5
30e
100
AcDbEntity
100
AcDbLine
10
2.470755
20
11.062474
30
0.0
11
2.470755
21
11.030977
31
0.0
0
LINE
8
usbl
62
0
5
30f
100
AcDbEntity
100
AcDbLine
10
2.470755
20
11.030977
30
0.0
11
2.436111
21
11.030977
31
0.0
0
LINE
8
usbl
62
0
5
310
100
AcDbEntity
100
AcDbLine
10
2.436111
20
11.030977
30
0.0
11
2.436111
21
11.062474
31
0.0
0
LINE
8
usbl
62
0
5
311
100
AcDbEntity
100
AcDbLine
10
2.436111
20
11.062474
30
0.0
11
2.436111
21
11.062474
31
0.0
0
LINE
8
usbl
62
0
5
312
100
AcDbEntity
100
AcDbLine
10
2.651222
20
11.114446
30
0.0
11
2.682720
21
11.114446
31
0.0
0
LINE
8
usbl
62
0
5
313
100
AcDbEntity
100
AcDbLine
10
2.682720
20
11.114446
30
0.0
11
2.682720
21
11.079797
31
0.0
0
LINE
8
usbl
62
0
5
314
100
AcDbEntity
100
AcDbLine
10
2.682720
20
11.079797
30
0.0
11
2.651222
21
11.079797
31
0.0
0
LINE
8
usbl
62
0
5
315
100
AcDbEntity
100
AcDbLine
10
2.651222
20
11.079797
30
0.0
11
2.651222
21
11.114446
31
0.0
0
LINE
8
usbl
62
0
5
316
100
AcDbEntity
100
AcDbLine
10
2.651222
20
11.114446
30
0.0
11
2.651222
21
11.114446
31
0.0
0
LINE
8
usbl
62
0
5
317
100
AcDbEntity
100
AcDbLine
10
2.597678
20
11.114446
30
0.0
11
2.629175
21
11.114446
31
0.0
0
LINE
8
usbl
62
0
5
318
100
AcDbEntity
100
AcDbLine
10
2.629175
20
11.114446
30
0.0
11
2.629175
21
11.079797
31
0.0
0
LINE
8
usbl
62
0
5
319
100
AcDbEntity
100
AcDbLine
10
2.629175
20
11.079797
30
0.0
11
2.597678
21
11.079797
31
0.0
0
LINE
8
usbl
62
0
5
31a
100
AcDbEntity
100
AcDbLine
10
2.597678
20
11.079797
30
0.0
11
2.597678
21
11.114446
31
0.0
0
LINE
8
usbl
62
0
5
31b
100
AcDbEntity
100
AcDbLine
10
2.597678
20
11.114446
30
0.0
11
2.597678
21
11.114446
31
0.0
0
LINE
8
usbl
62
0
5
31c
100
AcDbEntity
100
AcDbLine
10
2.747289
20
11.113499
30
0.0
11
2.778786
21
11.113499
31
0.0
0
LINE
8
usbl
62
0
5
31d
100
AcDbEntity
100
AcDbLine
10
2.778786
20
11.113499
30
0.0
11
2.778786
21
11.078855
31
0.0
0
LINE
8
usbl
62
0
5
31e
100
AcDbEntity
100
AcDbLine
10
2.778786
20
11.078855
30
0.0
11
2.747289
21
11.078855
31
0.0
0
LINE
8
usbl
62
0
5
31f
100
AcDbEntity
100
AcDbLine
10
2.747289
20
11.078855
30
0.0
11
2.747289
21
11.113499
31
0.0
0
LINE
8
usbl
62
0
5
320
100
AcDbEntity
100
AcDbLine
10
2.747289
20
11.113499
30
0.0
11
2.747289
21
11.113499
31
0.0
0
LINE
8
usbl
62
0
5
321
100
AcDbEntity
100
AcDbLine
10
2.693744
20
11.113499
30
0.0
11
2.725238
21
11.113499
31
0.0
0
LINE
8
usbl
62
0
5
322
100
AcDbEntity
100
AcDbLine
10
2.725238
20
11.113499
30
0.0
11
2.725238
21
11.078855
31
0.0
0
LINE
8
usbl
62
0
5
323
100
AcDbEntity
100
AcDbLine
10
2.725238
20
11.078855
30
0.0
11
2.693744
21
11.078855
31
0.0
0
LINE
8
usbl
62
0
5
324
100
AcDbEntity
100
AcDbLine
10
2.693744
20
11.078855
30
0.0
11
2.693744
21
11.113499
31
0.0
0
LINE
8
usbl
62
0
5
325
100
AcDbEntity
100
AcDbLine
10
2.693744
20
11.113499
30
0.0
11
2.693744
21
11.113499
31
0.0
0
LINE
8
usbl
62
0
5
326
100
AcDbEntity
100
AcDbLine
10
2.651222
20
11.344997
30
0.0
11
2.682720
21
11.344997
31
0.0
0
LINE
8
usbl
62
0
5
327
100
AcDbEntity
100
AcDbLine
10
2.682720
20
11.344997
30
0.0
11
2.682720
21
11.310348
31
0.0
0
LINE
8
usbl
62
0
5
328
100
AcDbEntity
100
AcDbLine
10
2.682720
20
11.310348
30
0.0
11
2.651222
21
11.310348
31
0.0
0
LINE
8
usbl
62
0
5
329
100
AcDbEntity
100
AcDbLine
10
2.651222
20
11.310348
30
0.0
11
2.651222
21
11.344997
31
0.0
0
LINE
8
usbl
62
0
5
32a
100
AcDbEntity
100
AcDbLine
10
2.651222
20
11.344997
30
0.0
11
2.651222
21
11.344997
31
0.0
0
LINE
8
usbl
62
0
5
32b
100
AcDbEntity
100
AcDbLine
10
2.597678
20
11.344997
30
0.0
11
2.629175
21
11.344997
31
0.0
0
LINE
8
usbl
62
0
5
32c
100
AcDbEntity
100
AcDbLine
10
2.629175
20
11.344997
30
0.0
11
2.629175
21
11.310348
31
0.0
0
LINE
8
usbl
62
0
5
32d
100
AcDbEntity
100
AcDbLine
10
2.629175
20
11.310348
30
0.0
11
2.597678
21
11.310348
31
0.0
0
LINE
8
usbl
62
0
5
32e
100
AcDbEntity
100
AcDbLine
10
2.597678
20
11.310348
30
0.0
11
2.597678
21
11.344997
31
0.0
0
LINE
8
usbl
62
0
5
32f
100
AcDbEntity
100
AcDbLine
10
2.597678
20
11.344997
30
0.0
11
2.597678
21
11.344997
31
0.0
0
LINE
8
usbl
62
0
5
330
100
AcDbEntity
100
AcDbLine
10
2.746344
20
11.344997
30
0.0
11
2.777842
21
11.344997
31
0.0
0
LINE
8
usbl
62
0
5
331
100
AcDbEntity
100
AcDbLine
10
2.777842
20
11.344997
30
0.0
11
2.777842
21
11.310348
31
0.0
0
LINE
8
usbl
62
0
5
332
100
AcDbEntity
100
AcDbLine
10
2.777842
20
11.310348
30
0.0
11
2.746344
21
11.310348
31
0.0
0
LINE
8
usbl
62
0
5
333
100
AcDbEntity
100
AcDbLine
10
2.746344
20
11.310348
30
0.0
11
2.746344
21
11.344997
31
0.0
0
LINE
8
usbl
62
0
5
334
100
AcDbEntity
100
AcDbLine
10
2.746344
20
11.344997
30
0.0
11
2.746344
21
11.344997
31
0.0
0
LINE
8
usbl
62
0
5
335
100
AcDbEntity
100
AcDbLine
10
2.692800
20
11.344997
30
0.0
11
2.724297
21
11.344997
31
0.0
0
LINE
8
usbl
62
0
5
336
100
AcDbEntity
100
AcDbLine
10
2.724297
20
11.344997
30
0.0
11
2.724297
21
11.310348
31
0.0
0
LINE
8
usbl
62
0
5
337
100
AcDbEntity
100
AcDbLine
10
2.724297
20
11.310348
30
0.0
11
2.692800
21
11.310348
31
0.0
0
LINE
8
usbl
62
0
5
338
100
AcDbEntity
100
AcDbLine
10
2.692800
20
11.310348
30
0.0
11
2.692800
21
11.344997
31
0.0
0
LINE
8
usbl
62
0
5
339
100
AcDbEntity
100
AcDbLine
10
2.692800
20
11.344997
30
0.0
11
2.692800
21
11.344997
31
0.0
0
LINE
8
usbl
62
0
5
33a
100
AcDbEntity
100
AcDbLine
10
2.536267
20
11.346572
30
0.0
11
2.567764
21
11.346572
31
0.0
0
LINE
8
usbl
62
0
5
33b
100
AcDbEntity
100
AcDbLine
10
2.567764
20
11.346572
30
0.0
11
2.567764
21
11.311924
31
0.0
0
LINE
8
usbl
62
0
5
33c
100
AcDbEntity
100
AcDbLine
10
2.567764
20
11.311924
30
0.0
11
2.536267
21
11.311924
31
0.0
0
LINE
8
usbl
62
0
5
33d
100
AcDbEntity
100
AcDbLine
10
2.536267
20
11.311924
30
0.0
11
2.536267
21
11.346572
31
0.0
0
LINE
8
usbl
62
0
5
33e
100
AcDbEntity
100
AcDbLine
10
2.536267
20
11.346572
30
0.0
11
2.536267
21
11.346572
31
0.0
0
LINE
8
usbl
62
0
5
33f
100
AcDbEntity
100
AcDbLine
10
2.482722
20
11.346572
30
0.0
11
2.514220
21
11.346572
31
0.0
0
LINE
8
usbl
62
0
5
340
100
AcDbEntity
100
AcDbLine
10
2.514220
20
11.346572
30
0.0
11
2.514220
21
11.311924
31
0.0
0
LINE
8
usbl
62
0
5
341
100
AcDbEntity
100
AcDbLine
10
2.514220
20
11.311924
30
0.0
11
2.482722
21
11.311924
31
0.0
0
LINE
8
usbl
62
0
5
342
100
AcDbEntity
100
AcDbLine
10
2.482722
20
11.311924
30
0.0
11
2.482722
21
11.346572
31
0.0
0
LINE
8
usbl
62
0
5
343
100
AcDbEntity
100
AcDbLine
10
2.482722
20
11.346572
30
0.0
11
2.482722
21
11.346572
31
0.0
0
LINE
8
usbl
62
0
5
344
100
AcDbEntity
100
AcDbLine
10
2.437367
20
11.319168
30
0.0
11
2.472015
21
11.319168
31
0.0
0
LINE
8
usbl
62
0
5
345
100
AcDbEntity
100
AcDbLine
10
2.472015
20
11.319168
30
0.0
11
2.472015
21
11.287670
31
0.0
0
LINE
8
usbl
62
0
5
346
100
AcDbEntity
100
AcDbLine
10
2.472015
20
11.287670
30
0.0
11
2.437367
21
11.287670
31
0.0
0
LINE
8
usbl
62
0
5
347
100
AcDbEntity
100
AcDbLine
10
2.437367
20
11.287670
30
0.0
11
2.437367
21
11.319168
31
0.0
0
LINE
8
usbl
62
0
5
348
100
AcDbEntity
100
AcDbLine
10
2.437367
20
11.319168
30
0.0
11
2.437367
21
11.319168
31
0.0
0
LINE
8
usbl
62
0
5
349
100
AcDbEntity
100
AcDbLine
10
2.437367
20
11.372713
30
0.0
11
2.472015
21
11.372713
31
0.0
0
LINE
8
usbl
62
0
5
34a
100
AcDbEntity
100
AcDbLine
10
2.472015
20
11.372713
30
0.0
11
2.472015
21
11.341216
31
0.0
0
LINE
8
usbl
62
0
5
34b
100
AcDbEntity
100
AcDbLine
10
2.472015
20
11.341216
30
0.0
11
2.437367
21
11.341216
31
0.0
0
LINE
8
usbl
62
0
5
34c
100
AcDbEntity
100
AcDbLine
10
2.437367
20
11.341216
30
0.0
11
2.437367
21
11.372713
31
0.0
0
LINE
8
usbl
62
0
5
34d
100
AcDbEntity
100
AcDbLine
10
2.437367
20
11.372713
30
0.0
11
2.437367
21
11.372713
31
0.0
0
LINE
8
usbl
62
0
5
34e
100
AcDbEntity
100
AcDbLine
10
2.769022
20
11.277592
30
0.0
11
2.800520
21
11.277592
31
0.0
0
LINE
8
usbl
62
0
5
34f
100
AcDbEntity
100
AcDbLine
10
2.800520
20
11.277592
30
0.0
11
2.800520
21
11.242948
31
0.0
0
LINE
8
usbl
62
0
5
350
100
AcDbEntity
100
AcDbLine
10
2.800520
20
11.242948
30
0.0
11
2.769022
21
11.242948
31
0.0
0
LINE
8
usbl
62
0
5
351
100
AcDbEntity
100
AcDbLine
10
2.769022
20
11.242948
30
0.0
11
2.769022
21
11.277592
31
0.0
0
LINE
8
usbl
62
0
5
352
100
AcDbEntity
100
AcDbLine
10
2.769022
20
11.277592
30
0.0
11
2.769022
21
11.277592
31
0.0
0
LINE
8
usbl
62
0
5
353
100
AcDbEntity
100
AcDbLine
10
2.715478
20
11.277592
30
0.0
11
2.746975
21
11.277592
31
0.0
0
LINE
8
usbl
62
0
5
354
100
AcDbEntity
100
AcDbLine
10
2.746975
20
11.277592
30
0.0
11
2.746975
21
11.242948
31
0.0
0
LINE
8
usbl
62
0
5
355
100
AcDbEntity
100
AcDbLine
10
2.746975
20
11.242948
30
0.0
11
2.715478
21
11.242948
31
0.0
0
LINE
8
usbl
62
0
5
356
100
AcDbEntity
100
AcDbLine
10
2.715478
20
11.242948
30
0.0
11
2.715478
21
11.277592
31
0.0
0
LINE
8
usbl
62
0
5
357
100
AcDbEntity
100
AcDbLine
10
2.715478
20
11.277592
30
0.0
11
2.715478
21
11.277592
31
0.0
0
LINE
8
usbl
62
0
5
358
100
AcDbEntity
100
AcDbLine
10
2.768389
20
11.181529
30
0.0
11
2.799886
21
11.181529
31
0.0
0
LINE
8
usbl
62
0
5
359
100
AcDbEntity
100
AcDbLine
10
2.799886
20
11.181529
30
0.0
11
2.799886
21
11.146885
31
0.0
0
LINE
8
usbl
62
0
5
35a
100
AcDbEntity
100
AcDbLine
10
2.799886
20
11.146885
30
0.0
11
2.768389
21
11.146885
31
0.0
0
LINE
8
usbl
62
0
5
35b
100
AcDbEntity
100
AcDbLine
10
2.768389
20
11.146885
30
0.0
11
2.768389
21
11.181529
31
0.0
0
LINE
8
usbl
62
0
5
35c
100
AcDbEntity
100
AcDbLine
10
2.768389
20
11.181529
30
0.0
11
2.768389
21
11.181529
31
0.0
0
LINE
8
usbl
62
0
5
35d
100
AcDbEntity
100
AcDbLine
10
2.714844
20
11.181529
30
0.0
11
2.746338
21
11.181529
31
0.0
0
LINE
8
usbl
62
0
5
35e
100
AcDbEntity
100
AcDbLine
10
2.746338
20
11.181529
30
0.0
11
2.746338
21
11.146885
31
0.0
0
LINE
8
usbl
62
0
5
35f
100
AcDbEntity
100
AcDbLine
10
2.746338
20
11.146885
30
0.0
11
2.714844
21
11.146885
31
0.0
0
LINE
8
usbl
62
0
5
360
100
AcDbEntity
100
AcDbLine
10
2.714844
20
11.146885
30
0.0
11
2.714844
21
11.181529
31
0.0
0
LINE
8
usbl
62
0
5
361
100
AcDbEntity
100
AcDbLine
10
2.714844
20
11.181529
30
0.0
11
2.714844
21
11.181529
31
0.0
0
LINE
8
usbl
62
0
5
362
100
AcDbEntity
100
AcDbLine
10
1.921467
20
11.243894
30
0.0
11
1.956111
21
11.243894
31
0.0
0
LINE
8
usbl
62
0
5
363
100
AcDbEntity
100
AcDbLine
10
1.956111
20
11.243894
30
0.0
11
1.956111
21
11.212397
31
0.0
0
LINE
8
usbl
62
0
5
364
100
AcDbEntity
100
AcDbLine
10
1.956111
20
11.212397
30
0.0
11
1.921467
21
11.212397
31
0.0
0
LINE
8
usbl
62
0
5
365
100
AcDbEntity
100
AcDbLine
10
1.921467
20
11.212397
30
0.0
11
1.921467
21
11.243894
31
0.0
0
LINE
8
usbl
62
0
5
366
100
AcDbEntity
100
AcDbLine
10
1.921467
20
11.243894
30
0.0
11
1.921467
21
11.243894
31
0.0
0
LINE
8
usbl
62
0
5
367
100
AcDbEntity
100
AcDbLine
10
1.921467
20
11.297436
30
0.0
11
1.956111
21
11.297436
31
0.0
0
LINE
8
usbl
62
0
5
368
100
AcDbEntity
100
AcDbLine
10
1.956111
20
11.297436
30
0.0
11
1.956111
21
11.265938
31
0.0
0
LINE
8
usbl
62
0
5
369
100
AcDbEntity
100
AcDbLine
10
1.956111
20
11.265938
30
0.0
11
1.921467
21
11.265938
31
0.0
0
LINE
8
usbl
62
0
5
36a
100
AcDbEntity
100
AcDbLine
10
1.921467
20
11.265938
30
0.0
11
1.921467
21
11.297436
31
0.0
0
LINE
8
usbl
62
0
5
36b
100
AcDbEntity
100
AcDbLine
10
1.921467
20
11.297436
30
0.0
11
1.921467
21
11.297436
31
0.0
0
LINE
8
usbl
62
0
5
36c
100
AcDbEntity
100
AcDbLine
10
1.965556
20
11.242319
30
0.0
11
2.000200
21
11.242319
31
0.0
0
LINE
8
usbl
62
0
5
36d
100
AcDbEntity
100
AcDbLine
10
2.000200
20
11.242319
30
0.0
11
2.000200
21
11.210821
31
0.0
0
LINE
8
usbl
62
0
5
36e
100
AcDbEntity
100
AcDbLine
10
2.000200
20
11.210821
30
0.0
11
1.965556
21
11.210821
31
0.0
0
LINE
8
usbl
62
0
5
36f
100
AcDbEntity
100
AcDbLine
10
1.965556
20
11.210821
30
0.0
11
1.965556
21
11.242319
31
0.0
0
LINE
8
usbl
62
0
5
370
100
AcDbEntity
100
AcDbLine
10
1.965556
20
11.242319
30
0.0
11
1.965556
21
11.242319
31
0.0
0
LINE
8
usbl
62
0
5
371
100
AcDbEntity
100
AcDbLine
10
1.965556
20
11.295860
30
0.0
11
2.000200
21
11.295860
31
0.0
0
LINE
8
usbl
62
0
5
372
100
AcDbEntity
100
AcDbLine
10
2.000200
20
11.295860
30
0.0
11
2.000200
21
11.264367
31
0.0
0
LINE
8
usbl
62
0
5
373
100
AcDbEntity
100
AcDbLine
10
2.000200
20
11.264367
30
0.0
11
1.965556
21
11.264367
31
0.0
0
LINE
8
usbl
62
0
5
374
100
AcDbEntity
100
AcDbLine
10
1.965556
20
11.264367
30
0.0
11
1.965556
21
11.295860
31
0.0
0
LINE
8
usbl
62
0
5
375
100
AcDbEntity
100
AcDbLine
10
1.965556
20
11.295860
30
0.0
11
1.965556
21
11.295860
31
0.0
0
LINE
8
usbl
62
0
5
376
100
AcDbEntity
100
AcDbLine
10
1.452167
20
10.684836
30
0.0
11
1.505708
21
10.684836
31
0.0
0
LINE
8
usbl
62
0
5
377
100
AcDbEntity
100
AcDbLine
10
1.505708
20
10.684836
30
0.0
11
1.505708
21
10.609245
31
0.0
0
LINE
8
usbl
62
0
5
378
100
AcDbEntity
100
AcDbLine
10
1.505708
20
10.609245
30
0.0
11
1.452167
21
10.609245
31
0.0
0
LINE
8
usbl
62
0
5
379
100
AcDbEntity
100
AcDbLine
10
1.452167
20
10.609245
30
0.0
11
1.452167
21
10.684836
31
0.0
0
LINE
8
usbl
62
0
5
37a
100
AcDbEntity
100
AcDbLine
10
1.452167
20
10.684836
30
0.0
11
1.452167
21
10.684836
31
0.0
0
LINE
8
usbl
62
0
5
37b
100
AcDbEntity
100
AcDbLine
10
1.568711
20
10.684836
30
0.0
11
1.622253
21
10.684836
31
0.0
0
LINE
8
usbl
62
0
5
37c
100
AcDbEntity
100
AcDbLine
10
1.622253
20
10.684836
30
0.0
11
1.622253
21
10.609245
31
0.0
0
LINE
8
usbl
62
0
5
37d
100
AcDbEntity
100
AcDbLine
10
1.622253
20
10.609245
30
0.0
11
1.568711
21
10.609245
31
0.0
0
LINE
8
usbl
62
0
5
37e
100
AcDbEntity
100
AcDbLine
10
1.568711
20
10.609245
30
0.0
11
1.568711
21
10.684836
31
0.0
0
LINE
8
usbl
62
0
5
37f
100
AcDbEntity
100
AcDbLine
10
1.568711
20
10.684836
30
0.0
11
1.568711
21
10.684836
31
0.0
0
LINE
8
usbl
62
0
5
380
100
AcDbEntity
100
AcDbLine
10
1.897833
20
11.502162
30
0.0
11
1.948228
21
11.502162
31
0.0
0
LINE
8
usbl
62
0
5
381
100
AcDbEntity
100
AcDbLine
10
1.948228
20
11.502162
30
0.0
11
1.948228
21
11.458065
31
0.0
0
LINE
8
usbl
62
0
5
382
100
AcDbEntity
100
AcDbLine
10
1.948228
20
11.458065
30
0.0
11
1.897833
21
11.458065
31
0.0
0
LINE
8
usbl
62
0
5
383
100
AcDbEntity
100
AcDbLine
10
1.897833
20
11.458065
30
0.0
11
1.897833
21
11.502162
31
0.0
0
LINE
8
usbl
62
0
5
384
100
AcDbEntity
100
AcDbLine
10
1.897833
20
11.502162
30
0.0
11
1.897833
21
11.502162
31
0.0
0
LINE
8
usbl
62
0
5
385
100
AcDbEntity
100
AcDbLine
10
2.099411
20
11.502162
30
0.0
11
2.149806
21
11.502162
31
0.0
0
LINE
8
usbl
62
0
5
386
100
AcDbEntity
100
AcDbLine
10
2.149806
20
11.502162
30
0.0
11
2.149806
21
11.458065
31
0.0
0
LINE
8
usbl
62
0
5
387
100
AcDbEntity
100
AcDbLine
10
2.149806
20
11.458065
30
0.0
11
2.099411
21
11.458065
31
0.0
0
LINE
8
usbl
62
0
5
388
100
AcDbEntity
100
AcDbLine
10
2.099411
20
11.458065
30
0.0
11
2.099411
21
11.502162
31
0.0
0
LINE
8
usbl
62
0
5
389
100
AcDbEntity
100
AcDbLine
10
2.099411
20
11.502162
30
0.0
11
2.099411
21
11.502162
31
0.0
0
LINE
8
usbl
62
0
5
38a
100
AcDbEntity
100
AcDbLine
10
2.017522
20
11.493499
30
0.0
11
2.030118
21
11.493499
31
0.0
0
LINE
8
usbl
62
0
5
38b
100
AcDbEntity
100
AcDbLine
10
2.030118
20
11.493499
30
0.0
11
2.030118
21
11.450977
31
0.0
0
LINE
8
usbl
62
0
5
38c
100
AcDbEntity
100
AcDbLine
10
2.030118
20
11.450977
30
0.0
11
2.017522
21
11.450977
31
0.0
0
LINE
8
usbl
62
0
5
38d
100
AcDbEntity
100
AcDbLine
10
2.017522
20
11.450977
30
0.0
11
2.017522
21
11.493499
31
0.0
0
LINE
8
usbl
62
0
5
38e
100
AcDbEntity
100
AcDbLine
10
2.017522
20
11.493499
30
0.0
11
2.017522
21
11.493499
31
0.0
0
LINE
8
usbl
62
0
5
38f
100
AcDbEntity
100
AcDbLine
10
2.038000
20
11.493499
30
0.0
11
2.050600
21
11.493499
31
0.0
0
LINE
8
usbl
62
0
5
390
100
AcDbEntity
100
AcDbLine
10
2.050600
20
11.493499
30
0.0
11
2.050600
21
11.450977
31
0.0
0
LINE
8
usbl
62
0
5
391
100
AcDbEntity
100
AcDbLine
10
2.050600
20
11.450977
30
0.0
11
2.038000
21
11.450977
31
0.0
0
LINE
8
usbl
62
0
5
392
100
AcDbEntity
100
AcDbLine
10
2.038000
20
11.450977
30
0.0
11
2.038000
21
11.493499
31
0.0
0
LINE
8
usbl
62
0
5
393
100
AcDbEntity
100
AcDbLine
10
2.038000
20
11.493499
30
0.0
11
2.038000
21
11.493499
31
0.0
0
LINE
8
usbl
62
0
5
394
100
AcDbEntity
100
AcDbLine
10
2.058467
20
11.493499
30
0.0
11
2.071066
21
11.493499
31
0.0
0
LINE
8
usbl
62
0
5
395
100
AcDbEntity
100
AcDbLine
10
2.071066
20
11.493499
30
0.0
11
2.071066
21
11.450977
31
0.0
0
LINE
8
usbl
62
0
5
396
100
AcDbEntity
100
AcDbLine
10
2.071066
20
11.450977
30
0.0
11
2.058467
21
11.450977
31
0.0
0
LINE
8
usbl
62
0
5
397
100
AcDbEntity
100
AcDbLine
10
2.058467
20
11.450977
30
0.0
11
2.058467
21
11.493499
31
0.0
0
LINE
8
usbl
62
0
5
398
100
AcDbEntity
100
AcDbLine
10
2.058467
20
11.493499
30
0.0
11
2.058467
21
11.493499
31
0.0
0
LINE
8
usbl
62
0
5
399
100
AcDbEntity
100
AcDbLine
10
1.997056
20
11.493499
30
0.0
11
2.009651
21
11.493499
31
0.0
0
LINE
8
usbl
62
0
5
39a
100
AcDbEntity
100
AcDbLine
10
2.009651
20
11.493499
30
0.0
11
2.009651
21
11.450977
31
0.0
0
LINE
8
usbl
62
0
5
39b
100
AcDbEntity
100
AcDbLine
10
2.009651
20
11.450977
30
0.0
11
1.997056
21
11.450977
31
0.0
0
LINE
8
usbl
62
0
5
39c
100
AcDbEntity
100
AcDbLine
10
1.997056
20
11.450977
30
0.0
11
1.997056
21
11.493499
31
0.0
0
LINE
8
usbl
62
0
5
39d
100
AcDbEntity
100
AcDbLine
10
1.997056
20
11.493499
30
0.0
11
1.997056
21
11.493499
31
0.0
0
LINE
8
usbl
62
0
5
39e
100
AcDbEntity
100
AcDbLine
10
1.976578
20
11.493499
30
0.0
11
1.989178
21
11.493499
31
0.0
0
LINE
8
usbl
62
0
5
39f
100
AcDbEntity
100
AcDbLine
10
1.989178
20
11.493499
30
0.0
11
1.989178
21
11.450977
31
0.0
0
LINE
8
usbl
62
0
5
3a0
100
AcDbEntity
100
AcDbLine
10
1.989178
20
11.450977
30
0.0
11
1.976578
21
11.450977
31
0.0
0
LINE
8
usbl
62
0
5
3a1
100
AcDbEntity
100
AcDbLine
10
1.976578
20
11.450977
30
0.0
11
1.976578
21
11.493499
31
0.0
0
LINE
8
usbl
62
0
5
3a2
100
AcDbEntity
100
AcDbLine
10
1.976578
20
11.493499
30
0.0
11
1.976578
21
11.493499
31
0.0
0
LINE
8
usbl
62
0
5
3a3
100
AcDbEntity
100
AcDbLine
10
1.956111
20
11.582475
30
0.0
11
2.015955
21
11.582475
31
0.0
0
LINE
8
usbl
62
0
5
3a4
100
AcDbEntity
100
AcDbLine
10
2.015955
20
11.582475
30
0.0
11
2.015955
21
11.532080
31
0.0
0
LINE
8
usbl
62
0
5
3a5
100
AcDbEntity
100
AcDbLine
10
2.015955
20
11.532080
30
0.0
11
1.956111
21
11.532080
31
0.0
0
LINE
8
usbl
62
0
5
3a6
100
AcDbEntity
100
AcDbLine
10
1.956111
20
11.532080
30
0.0
11
1.956111
21
11.582475
31
0.0
0
LINE
8
usbl
62
0
5
3a7
100
AcDbEntity
100
AcDbLine
10
1.956111
20
11.582475
30
0.0
11
1.956111
21
11.582475
31
0.0
0
LINE
8
usbl
62
0
5
3a8
100
AcDbEntity
100
AcDbLine
10
2.031700
20
11.582475
30
0.0
11
2.091544
21
11.582475
31
0.0
0
LINE
8
usbl
62
0
5
3a9
100
AcDbEntity
100
AcDbLine
10
2.091544
20
11.582475
30
0.0
11
2.091544
21
11.532080
31
0.0
0
LINE
8
usbl
62
0
5
3aa
100
AcDbEntity
100
AcDbLine
10
2.091544
20
11.532080
30
0.0
11
2.031700
21
11.532080
31
0.0
0
LINE
8
usbl
62
0
5
3ab
100
AcDbEntity
100
AcDbLine
10
2.031700
20
11.532080
30
0.0
11
2.031700
21
11.582475
31
0.0
0
LINE
8
usbl
62
0
5
3ac
100
AcDbEntity
100
AcDbLine
10
2.031700
20
11.582475
30
0.0
11
2.031700
21
11.582475
31
0.0
0
LINE
8
usbl
62
0
5
3ad
100
AcDbEntity
100
AcDbLine
10
1.844300
20
11.352553
30
0.0
11
1.856895
21
11.352553
31
0.0
0
LINE
8
usbl
62
0
5
3ae
100
AcDbEntity
100
AcDbLine
10
1.856895
20
11.352553
30
0.0
11
1.856895
21
11.336807
31
0.0
0
LINE
8
usbl
62
0
5
3af
100
AcDbEntity
100
AcDbLine
10
1.856895
20
11.336807
30
0.0
11
1.844300
21
11.336807
31
0.0
0
LINE
8
usbl
62
0
5
3b0
100
AcDbEntity
100
AcDbLine
10
1.844300
20
11.336807
30
0.0
11
1.844300
21
11.352553
31
0.0
0
LINE
8
usbl
62
0
5
3b1
100
AcDbEntity
100
AcDbLine
10
1.844300
20
11.352553
30
0.0
11
1.844300
21
11.352553
31
0.0
0
LINE
8
usbl
62
0
5
3b2
100
AcDbEntity
100
AcDbLine
10
1.844300
20
11.305309
30
0.0
11
1.856895
21
11.305309
31
0.0
0
LINE
8
usbl
62
0
5
3b3
100
AcDbEntity
100
AcDbLine
10
1.856895
20
11.305309
30
0.0
11
1.856895
21
11.289562
31
0.0
0
LINE
8
usbl
62
0
5
3b4
100
AcDbEntity
100
AcDbLine
10
1.856895
20
11.289562
30
0.0
11
1.844300
21
11.289562
31
0.0
0
LINE
8
usbl
62
0
5
3b5
100
AcDbEntity
100
AcDbLine
10
1.844300
20
11.289562
30
0.0
11
1.844300
21
11.305309
31
0.0
0
LINE
8
usbl
62
0
5
3b6
100
AcDbEntity
100
AcDbLine
10
1.844300
20
11.305309
30
0.0
11
1.844300
21
11.305309
31
0.0
0
LINE
8
usbl
62
0
5
3b7
100
AcDbEntity
100
AcDbLine
10
1.866344
20
11.349407
30
0.0
11
1.882095
21
11.349407
31
0.0
0
LINE
8
usbl
62
0
5
3b8
100
AcDbEntity
100
AcDbLine
10
1.882095
20
11.349407
30
0.0
11
1.882095
21
11.333656
31
0.0
0
LINE
8
usbl
62
0
5
3b9
100
AcDbEntity
100
AcDbLine
10
1.882095
20
11.333656
30
0.0
11
1.866344
21
11.333656
31
0.0
0
LINE
8
usbl
62
0
5
3ba
100
AcDbEntity
100
AcDbLine
10
1.866344
20
11.333656
30
0.0
11
1.866344
21
11.349407
31
0.0
0
LINE
8
usbl
62
0
5
3bb
100
AcDbEntity
100
AcDbLine
10
1.866344
20
11.349407
30
0.0
11
1.866344
21
11.349407
31
0.0
0
LINE
8
usbl
62
0
5
3bc
100
AcDbEntity
100
AcDbLine
10
1.819100
20
11.349407
30
0.0
11
1.834851
21
11.349407
31
0.0
0
LINE
8
usbl
62
0
5
3bd
100
AcDbEntity
100
AcDbLine
10
1.834851
20
11.349407
30
0.0
11
1.834851
21
11.333656
31
0.0
0
LINE
8
usbl
62
0
5
3be
100
AcDbEntity
100
AcDbLine
10
1.834851
20
11.333656
30
0.0
11
1.819100
21
11.333656
31
0.0
0
LINE
8
usbl
62
0
5
3bf
100
AcDbEntity
100
AcDbLine
10
1.819100
20
11.333656
30
0.0
11
1.819100
21
11.349407
31
0.0
0
LINE
8
usbl
62
0
5
3c0
100
AcDbEntity
100
AcDbLine
10
1.819100
20
11.349407
30
0.0
11
1.819100
21
11.349407
31
0.0
0
LINE
8
usbl
62
0
5
3c1
100
AcDbEntity
100
AcDbLine
10
1.819100
20
11.308460
30
0.0
11
1.834851
21
11.308460
31
0.0
0
LINE
8
usbl
62
0
5
3c2
100
AcDbEntity
100
AcDbLine
10
1.834851
20
11.308460
30
0.0
11
1.834851
21
11.292713
31
0.0
0
LINE
8
usbl
62
0
5
3c3
100
AcDbEntity
100
AcDbLine
10
1.834851
20
11.292713
30
0.0
11
1.819100
21
11.292713
31
0.0
0
LINE
8
usbl
62
0
5
3c4
100
AcDbEntity
100
AcDbLine
10
1.819100
20
11.292713
30
0.0
11
1.819100
21
11.308460
31
0.0
0
LINE
8
usbl
62
0
5
3c5
100
AcDbEntity
100
AcDbLine
10
1.819100
20
11.308460
30
0.0
11
1.819100
21
11.308460
31
0.0
0
LINE
8
usbl
62
0
5
3c6
100
AcDbEntity
100
AcDbLine
10
1.866344
20
11.308460
30
0.0
11
1.882095
21
11.308460
31
0.0
0
LINE
8
usbl
62
0
5
3c7
100
AcDbEntity
100
AcDbLine
10
1.882095
20
11.308460
30
0.0
11
1.882095
21
11.292713
31
0.0
0
LINE
8
usbl
62
0
5
3c8
100
AcDbEntity
100
AcDbLine
10
1.882095
20
11.292713
30
0.0
11
1.866344
21
11.292713
31
0.0
0
LINE
8
usbl
62
0
5
3c9
100
AcDbEntity
100
AcDbLine
10
1.866344
20
11.292713
30
0.0
11
1.866344
21
11.308460
31
0.0
0
LINE
8
usbl
62
0
5
3ca
100
AcDbEntity
100
AcDbLine
10
1.866344
20
11.308460
30
0.0
11
1.866344
21
11.308460
31
0.0
0
LINE
8
usbl
62
0
5
3cb
100
AcDbEntity
100
AcDbLine
10
1.801778
20
11.388772
30
0.0
11
1.836426
21
11.388772
31
0.0
0
LINE
8
usbl
62
0
5
3cc
100
AcDbEntity
100
AcDbLine
10
1.836426
20
11.388772
30
0.0
11
1.836426
21
11.357279
31
0.0
0
LINE
8
usbl
62
0
5
3cd
100
AcDbEntity
100
AcDbLine
10
1.836426
20
11.357279
30
0.0
11
1.801778
21
11.357279
31
0.0
0
LINE
8
usbl
62
0
5
3ce
100
AcDbEntity
100
AcDbLine
10
1.801778
20
11.357279
30
0.0
11
1.801778
21
11.388772
31
0.0
0
LINE
8
usbl
62
0
5
3cf
100
AcDbEntity
100
AcDbLine
10
1.801778
20
11.388772
30
0.0
11
1.801778
21
11.388772
31
0.0
0
LINE
8
usbl
62
0
5
3d0
100
AcDbEntity
100
AcDbLine
10
1.801778
20
11.442319
30
0.0
11
1.836426
21
11.442319
31
0.0
0
LINE
8
usbl
62
0
5
3d1
100
AcDbEntity
100
AcDbLine
10
1.836426
20
11.442319
30
0.0
11
1.836426
21
11.410821
31
0.0
0
LINE
8
usbl
62
0
5
3d2
100
AcDbEntity
100
AcDbLine
10
1.836426
20
11.410821
30
0.0
11
1.801778
21
11.410821
31
0.0
0
LINE
8
usbl
62
0
5
3d3
100
AcDbEntity
100
AcDbLine
10
1.801778
20
11.410821
30
0.0
11
1.801778
21
11.442319
31
0.0
0
LINE
8
usbl
62
0
5
3d4
100
AcDbEntity
100
AcDbLine
10
1.801778
20
11.442319
30
0.0
11
1.801778
21
11.442319
31
0.0
0
LINE
8
usbl
62
0
5
3d5
100
AcDbEntity
100
AcDbLine
10
1.849022
20
11.388772
30
0.0
11
1.883671
21
11.388772
31
0.0
0
LINE
8
usbl
62
0
5
3d6
100
AcDbEntity
100
AcDbLine
10
1.883671
20
11.388772
30
0.0
11
1.883671
21
11.357279
31
0.0
0
LINE
8
usbl
62
0
5
3d7
100
AcDbEntity
100
AcDbLine
10
1.883671
20
11.357279
30
0.0
11
1.849022
21
11.357279
31
0.0
0
LINE
8
usbl
62
0
5
3d8
100
AcDbEntity
100
AcDbLine
10
1.849022
20
11.357279
30
0.0
11
1.849022
21
11.388772
31
0.0
0
LINE
8
usbl
62
0
5
3d9
100
AcDbEntity
100
AcDbLine
10
1.849022
20
11.388772
30
0.0
11
1.849022
21
11.388772
31
0.0
0
LINE
8
usbl
62
0
5
3da
100
AcDbEntity
100
AcDbLine
10
1.849022
20
11.442319
30
0.0
11
1.883671
21
11.442319
31
0.0
0
LINE
8
usbl
62
0
5
3db
100
AcDbEntity
100
AcDbLine
10
1.883671
20
11.442319
30
0.0
11
1.883671
21
11.410821
31
0.0
0
LINE
8
usbl
62
0
5
3dc
100
AcDbEntity
100
AcDbLine
10
1.883671
20
11.410821
30
0.0
11
1.849022
21
11.410821
31
0.0
0
LINE
8
usbl
62
0
5
3dd
100
AcDbEntity
100
AcDbLine
10
1.849022
20
11.410821
30
0.0
11
1.849022
21
11.442319
31
0.0
0
LINE
8
usbl
62
0
5
3de
100
AcDbEntity
100
AcDbLine
10
1.849022
20
11.442319
30
0.0
11
1.849022
21
11.442319
31
0.0
0
LINE
8
usbl
62
0
5
3df
100
AcDbEntity
100
AcDbLine
10
1.891544
20
11.357280
30
0.0
11
1.926189
21
11.357280
31
0.0
0
LINE
8
usbl
62
0
5
3e0
100
AcDbEntity
100
AcDbLine
10
1.926189
20
11.357280
30
0.0
11
1.926189
21
11.325783
31
0.0
0
LINE
8
usbl
62
0
5
3e1
100
AcDbEntity
100
AcDbLine
10
1.926189
20
11.325783
30
0.0
11
1.891544
21
11.325783
31
0.0
0
LINE
8
usbl
62
0
5
3e2
100
AcDbEntity
100
AcDbLine
10
1.891544
20
11.325783
30
0.0
11
1.891544
21
11.357280
31
0.0
0
LINE
8
usbl
62
0
5
3e3
100
AcDbEntity
100
AcDbLine
10
1.891544
20
11.357280
30
0.0
11
1.891544
21
11.357280
31
0.0
0
LINE
8
usbl
62
0
5
3e4
100
AcDbEntity
100
AcDbLine
10
1.891544
20
11.410821
30
0.0
11
1.926189
21
11.410821
31
0.0
0
LINE
8
usbl
62
0
5
3e5
100
AcDbEntity
100
AcDbLine
10
1.926189
20
11.410821
30
0.0
11
1.926189
21
11.379324
31
0.0
0
LINE
8
usbl
62
0
5
3e6
100
AcDbEntity
100
AcDbLine
10
1.926189
20
11.379324
30
0.0
11
1.891544
21
11.379324
31
0.0
0
LINE
8
usbl
62
0
5
3e7
100
AcDbEntity
100
AcDbLine
10
1.891544
20
11.379324
30
0.0
11
1.891544
21
11.410821
31
0.0
0
LINE
8
usbl
62
0
5
3e8
100
AcDbEntity
100
AcDbLine
10
1.891544
20
11.410821
30
0.0
11
1.891544
21
11.410821
31
0.0
0
LINE
8
usbl
62
0
5
3e9
100
AcDbEntity
100
AcDbLine
10
1.828544
20
11.546256
30
0.0
11
1.875788
21
11.546256
31
0.0
0
LINE
8
usbl
62
0
5
3ea
100
AcDbEntity
100
AcDbLine
10
1.875788
20
11.546256
30
0.0
11
1.875788
21
11.480114
31
0.0
0
LINE
8
usbl
62
0
5
3eb
100
AcDbEntity
100
AcDbLine
10
1.875788
20
11.480114
30
0.0
11
1.828544
21
11.480114
31
0.0
0
LINE
8
usbl
62
0
5
3ec
100
AcDbEntity
100
AcDbLine
10
1.828544
20
11.480114
30
0.0
11
1.828544
21
11.546256
31
0.0
0
LINE
8
usbl
62
0
5
3ed
100
AcDbEntity
100
AcDbLine
10
1.828544
20
11.546256
30
0.0
11
1.828544
21
11.546256
31
0.0
0
LINE
8
usbl
62
0
5
3ee
100
AcDbEntity
100
AcDbLine
10
1.715156
20
11.546256
30
0.0
11
1.762399
21
11.546256
31
0.0
0
LINE
8
usbl
62
0
5
3ef
100
AcDbEntity
100
AcDbLine
10
1.762399
20
11.546256
30
0.0
11
1.762399
21
11.480114
31
0.0
0
LINE
8
usbl
62
0
5
3f0
100
AcDbEntity
100
AcDbLine
10
1.762399
20
11.480114
30
0.0
11
1.715156
21
11.480114
31
0.0
0
LINE
8
usbl
62
0
5
3f1
100
AcDbEntity
100
AcDbLine
10
1.715156
20
11.480114
30
0.0
11
1.715156
21
11.546256
31
0.0
0
LINE
8
usbl
62
0
5
3f2
100
AcDbEntity
100
AcDbLine
10
1.715156
20
11.546256
30
0.0
11
1.715156
21
11.546256
31
0.0
0
LINE
8
usbl
62
0
5
3f3
100
AcDbEntity
100
AcDbLine
10
1.811222
20
11.158538
30
0.0
11
1.844295
21
11.158538
31
0.0
0
LINE
8
usbl
62
0
5
3f4
100
AcDbEntity
100
AcDbLine
10
1.844295
20
11.158538
30
0.0
11
1.844295
21
11.124523
31
0.0
0
LINE
8
usbl
62
0
5
3f5
100
AcDbEntity
100
AcDbLine
10
1.844295
20
11.124523
30
0.0
11
1.811222
21
11.124523
31
0.0
0
LINE
8
usbl
62
0
5
3f6
100
AcDbEntity
100
AcDbLine
10
1.811222
20
11.124523
30
0.0
11
1.811222
21
11.158538
31
0.0
0
LINE
8
usbl
62
0
5
3f7
100
AcDbEntity
100
AcDbLine
10
1.811222
20
11.158538
30
0.0
11
1.811222
21
11.158538
31
0.0
0
LINE
8
usbl
62
0
5
3f8
100
AcDbEntity
100
AcDbLine
10
1.866344
20
11.158538
30
0.0
11
1.899417
21
11.158538
31
0.0
0
LINE
8
usbl
62
0
5
3f9
100
AcDbEntity
100
AcDbLine
10
1.899417
20
11.158538
30
0.0
11
1.899417
21
11.124523
31
0.0
0
LINE
8
usbl
62
0
5
3fa
100
AcDbEntity
100
AcDbLine
10
1.899417
20
11.124523
30
0.0
11
1.866344
21
11.124523
31
0.0
0
LINE
8
usbl
62
0
5
3fb
100
AcDbEntity
100
AcDbLine
10
1.866344
20
11.124523
30
0.0
11
1.866344
21
11.158538
31
0.0
0
LINE
8
usbl
62
0
5
3fc
100
AcDbEntity
100
AcDbLine
10
1.866344
20
11.158538
30
0.0
11
1.866344
21
11.158538
31
0.0
0
LINE
8
usbl
62
0
5
3fd
100
AcDbEntity
100
AcDbLine
10
1.425400
20
11.421529
30
0.0
11
1.458469
21
11.421529
31
0.0
0
LINE
8
usbl
62
0
5
3fe
100
AcDbEntity
100
AcDbLine
10
1.458469
20
11.421529
30
0.0
11
1.458469
21
11.387514
31
0.0
0
LINE
8
usbl
62
0
5
3ff
100
AcDbEntity
100
AcDbLine
10
1.458469
20
11.387514
30
0.0
11
1.425400
21
11.387514
31
0.0
0
LINE
8
usbl
62
0
5
400
100
AcDbEntity
100
AcDbLine
10
1.425400
20
11.387514
30
0.0
11
1.425400
21
11.421529
31
0.0
0
LINE
8
usbl
62
0
5
401
100
AcDbEntity
100
AcDbLine
10
1.425400
20
11.421529
30
0.0
11
1.425400
21
11.421529
31
0.0
0
LINE
8
usbl
62
0
5
402
100
AcDbEntity
100
AcDbLine
10
1.370278
20
11.421529
30
0.0
11
1.403346
21
11.421529
31
0.0
0
LINE
8
usbl
62
0
5
403
100
AcDbEntity
100
AcDbLine
10
1.403346
20
11.421529
30
0.0
11
1.403346
21
11.387514
31
0.0
0
LINE
8
usbl
62
0
5
404
100
AcDbEntity
100
AcDbLine
10
1.403346
20
11.387514
30
0.0
11
1.370278
21
11.387514
31
0.0
0
LINE
8
usbl
62
0
5
405
100
AcDbEntity
100
AcDbLine
10
1.370278
20
11.387514
30
0.0
11
1.370278
21
11.421529
31
0.0
0
LINE
8
usbl
62
0
5
406
100
AcDbEntity
100
AcDbLine
10
1.370278
20
11.421529
30
0.0
11
1.370278
21
11.421529
31
0.0
0
LINE
8
usbl
62
0
5
407
100
AcDbEntity
100
AcDbLine
10
1.664767
20
11.442002
30
0.0
11
1.697835
21
11.442002
31
0.0
0
LINE
8
usbl
62
0
5
408
100
AcDbEntity
100
AcDbLine
10
1.697835
20
11.442002
30
0.0
11
1.697835
21
11.407987
31
0.0
0
LINE
8
usbl
62
0
5
409
100
AcDbEntity
100
AcDbLine
10
1.697835
20
11.407987
30
0.0
11
1.664767
21
11.407987
31
0.0
0
LINE
8
usbl
62
0
5
40a
100
AcDbEntity
100
AcDbLine
10
1.664767
20
11.407987
30
0.0
11
1.664767
21
11.442002
31
0.0
0
LINE
8
usbl
62
0
5
40b
100
AcDbEntity
100
AcDbLine
10
1.664767
20
11.442002
30
0.0
11
1.664767
21
11.442002
31
0.0
0
LINE
8
usbl
62
0
5
40c
100
AcDbEntity
100
AcDbLine
10
1.719889
20
11.442002
30
0.0
11
1.752957
21
11.442002
31
0.0
0
LINE
8
usbl
62
0
5
40d
100
AcDbEntity
100
AcDbLine
10
1.752957
20
11.442002
30
0.0
11
1.752957
21
11.407987
31
0.0
0
LINE
8
usbl
62
0
5
40e
100
AcDbEntity
100
AcDbLine
10
1.752957
20
11.407987
30
0.0
11
1.719889
21
11.407987
31
0.0
0
LINE
8
usbl
62
0
5
40f
100
AcDbEntity
100
AcDbLine
10
1.719889
20
11.407987
30
0.0
11
1.719889
21
11.442002
31
0.0
0
LINE
8
usbl
62
0
5
410
100
AcDbEntity
100
AcDbLine
10
1.719889
20
11.442002
30
0.0
11
1.719889
21
11.442002
31
0.0
0
LINE
8
usbl
62
0
5
411
100
AcDbEntity
100
AcDbLine
10
1.758000
20
11.396650
30
0.0
11
1.792019
21
11.396650
31
0.0
0
LINE
8
usbl
62
0
5
412
100
AcDbEntity
100
AcDbLine
10
1.792019
20
11.396650
30
0.0
11
1.792019
21
11.363577
31
0.0
0
LINE
8
usbl
62
0
5
413
100
AcDbEntity
100
AcDbLine
10
1.792019
20
11.363577
30
0.0
11
1.758000
21
11.363577
31
0.0
0
LINE
8
usbl
62
0
5
414
100
AcDbEntity
100
AcDbLine
10
1.758000
20
11.363577
30
0.0
11
1.758000
21
11.396650
31
0.0
0
LINE
8
usbl
62
0
5
415
100
AcDbEntity
100
AcDbLine
10
1.758000
20
11.396650
30
0.0
11
1.758000
21
11.396650
31
0.0
0
LINE
8
usbl
62
0
5
416
100
AcDbEntity
100
AcDbLine
10
1.758000
20
11.451768
30
0.0
11
1.792019
21
11.451768
31
0.0
0
LINE
8
usbl
62
0
5
417
100
AcDbEntity
100
AcDbLine
10
1.792019
20
11.451768
30
0.0
11
1.792019
21
11.418695
31
0.0
0
LINE
8
usbl
62
0
5
418
100
AcDbEntity
100
AcDbLine
10
1.792019
20
11.418695
30
0.0
11
1.758000
21
11.418695
31
0.0
0
LINE
8
usbl
62
0
5
419
100
AcDbEntity
100
AcDbLine
10
1.758000
20
11.418695
30
0.0
11
1.758000
21
11.451768
31
0.0
0
LINE
8
usbl
62
0
5
41a
100
AcDbEntity
100
AcDbLine
10
1.758000
20
11.451768
30
0.0
11
1.758000
21
11.451768
31
0.0
0
LINE
8
usbl
62
0
5
41b
100
AcDbEntity
100
AcDbLine
10
1.606811
20
10.795074
30
0.0
11
1.640830
21
10.795074
31
0.0
0
LINE
8
usbl
62
0
5
41c
100
AcDbEntity
100
AcDbLine
10
1.640830
20
10.795074
30
0.0
11
1.640830
21
10.762002
31
0.0
0
LINE
8
usbl
62
0
5
41d
100
AcDbEntity
100
AcDbLine
10
1.640830
20
10.762002
30
0.0
11
1.606811
21
10.762002
31
0.0
0
LINE
8
usbl
62
0
5
41e
100
AcDbEntity
100
AcDbLine
10
1.606811
20
10.762002
30
0.0
11
1.606811
21
10.795074
31
0.0
0
LINE
8
usbl
62
0
5
41f
100
AcDbEntity
100
AcDbLine
10
1.606811
20
10.795074
30
0.0
11
1.606811
21
10.795074
31
0.0
0
LINE
8
usbl
62
0
5
420
100
AcDbEntity
100
AcDbLine
10
1.606811
20
10.739958
30
0.0
11
1.640830
21
10.739958
31
0.0
0
LINE
8
usbl
62
0
5
421
100
AcDbEntity
100
AcDbLine
10
1.640830
20
10.739958
30
0.0
11
1.640830
21
10.706885
31
0.0
0
LINE
8
usbl
62
0
5
422
100
AcDbEntity
100
AcDbLine
10
1.640830
20
10.706885
30
0.0
11
1.606811
21
10.706885
31
0.0
0
LINE
8
usbl
62
0
5
423
100
AcDbEntity
100
AcDbLine
10
1.606811
20
10.706885
30
0.0
11
1.606811
21
10.739958
31
0.0
0
LINE
8
usbl
62
0
5
424
100
AcDbEntity
100
AcDbLine
10
1.606811
20
10.739958
30
0.0
11
1.606811
21
10.739958
31
0.0
0
LINE
8
usbl
62
0
5
425
100
AcDbEntity
100
AcDbLine
10
2.074533
20
11.171451
30
0.0
11
2.108548
21
11.171451
31
0.0
0
LINE
8
usbl
62
0
5
426
100
AcDbEntity
100
AcDbLine
10
2.108548
20
11.171451
30
0.0
11
2.108548
21
11.138383
31
0.0
0
LINE
8
usbl
62
0
5
427
100
AcDbEntity
100
AcDbLine
10
2.108548
20
11.138383
30
0.0
11
2.074533
21
11.138383
31
0.0
0
LINE
8
usbl
62
0
5
428
100
AcDbEntity
100
AcDbLine
10
2.074533
20
11.138383
30
0.0
11
2.074533
21
11.171451
31
0.0
0
LINE
8
usbl
62
0
5
429
100
AcDbEntity
100
AcDbLine
10
2.074533
20
11.171451
30
0.0
11
2.074533
21
11.171451
31
0.0
0
LINE
8
usbl
62
0
5
42a
100
AcDbEntity
100
AcDbLine
10
2.074533
20
11.226568
30
0.0
11
2.108548
21
11.226568
31
0.0
0
LINE
8
usbl
62
0
5
42b
100
AcDbEntity
100
AcDbLine
10
2.108548
20
11.226568
30
0.0
11
2.108548
21
11.193499
31
0.0
0
LINE
8
usbl
62
0
5
42c
100
AcDbEntity
100
AcDbLine
10
2.108548
20
11.193499
30
0.0
11
2.074533
21
11.193499
31
0.0
0
LINE
8
usbl
62
0
5
42d
100
AcDbEntity
100
AcDbLine
10
2.074533
20
11.193499
30
0.0
11
2.074533
21
11.226568
31
0.0
0
LINE
8
usbl
62
0
5
42e
100
AcDbEntity
100
AcDbLine
10
2.074533
20
11.226568
30
0.0
11
2.074533
21
11.226568
31
0.0
0
LINE
8
usbl
62
0
5
42f
100
AcDbEntity
100
AcDbLine
10
2.824144
20
11.299011
30
0.0
11
2.858159
21
11.299011
31
0.0
0
LINE
8
usbl
62
0
5
430
100
AcDbEntity
100
AcDbLine
10
2.858159
20
11.299011
30
0.0
11
2.858159
21
11.265938
31
0.0
0
LINE
8
usbl
62
0
5
431
100
AcDbEntity
100
AcDbLine
10
2.858159
20
11.265938
30
0.0
11
2.824144
21
11.265938
31
0.0
0
LINE
8
usbl
62
0
5
432
100
AcDbEntity
100
AcDbLine
10
2.824144
20
11.265938
30
0.0
11
2.824144
21
11.299011
31
0.0
0
LINE
8
usbl
62
0
5
433
100
AcDbEntity
100
AcDbLine
10
2.824144
20
11.299011
30
0.0
11
2.824144
21
11.299011
31
0.0
0
LINE
8
usbl
62
0
5
434
100
AcDbEntity
100
AcDbLine
10
2.824144
20
11.354129
30
0.0
11
2.858159
21
11.354129
31
0.0
0
LINE
8
usbl
62
0
5
435
100
AcDbEntity
100
AcDbLine
10
2.858159
20
11.354129
30
0.0
11
2.858159
21
11.321060
31
0.0
0
LINE
8
usbl
62
0
5
436
100
AcDbEntity
100
AcDbLine
10
2.858159
20
11.321060
30
0.0
11
2.824144
21
11.321060
31
0.0
0
LINE
8
usbl
62
0
5
437
100
AcDbEntity
100
AcDbLine
10
2.824144
20
11.321060
30
0.0
11
2.824144
21
11.354129
31
0.0
0
LINE
8
usbl
62
0
5
438
100
AcDbEntity
100
AcDbLine
10
2.824144
20
11.354129
30
0.0
11
2.824144
21
11.354129
31
0.0
0
LINE
8
usbl
62
0
5
439
100
AcDbEntity
100
AcDbLine
10
2.846189
20
11.114758
30
0.0
11
2.880204
21
11.114758
31
0.0
0
LINE
8
usbl
62
0
5
43a
100
AcDbEntity
100
AcDbLine
10
2.880204
20
11.114758
30
0.0
11
2.880204
21
11.081689
31
0.0
0
LINE
8
usbl
62
0
5
43b
100
AcDbEntity
100
AcDbLine
10
2.880204
20
11.081689
30
0.0
11
2.846189
21
11.081689
31
0.0
0
LINE
8
usbl
62
0
5
43c
100
AcDbEntity
100
AcDbLine
10
2.846189
20
11.081689
30
0.0
11
2.846189
21
11.114758
31
0.0
0
LINE
8
usbl
62
0
5
43d
100
AcDbEntity
100
AcDbLine
10
2.846189
20
11.114758
30
0.0
11
2.846189
21
11.114758
31
0.0
0
LINE
8
usbl
62
0
5
43e
100
AcDbEntity
100
AcDbLine
10
2.846189
20
11.169876
30
0.0
11
2.880204
21
11.169876
31
0.0
0
LINE
8
usbl
62
0
5
43f
100
AcDbEntity
100
AcDbLine
10
2.880204
20
11.169876
30
0.0
11
2.880204
21
11.136807
31
0.0
0
LINE
8
usbl
62
0
5
440
100
AcDbEntity
100
AcDbLine
10
2.880204
20
11.136807
30
0.0
11
2.846189
21
11.136807
31
0.0
0
LINE
8
usbl
62
0
5
441
100
AcDbEntity
100
AcDbLine
10
2.846189
20
11.136807
30
0.0
11
2.846189
21
11.169876
31
0.0
0
LINE
8
usbl
62
0
5
442
100
AcDbEntity
100
AcDbLine
10
2.846189
20
11.169876
30
0.0
11
2.846189
21
11.169876
31
0.0
0
LINE
8
usbl
62
0
5
443
100
AcDbEntity
100
AcDbLine
10
1.601778
20
10.582162
30
0.0
11
1.634851
21
10.582162
31
0.0
0
LINE
8
usbl
62
0
5
444
100
AcDbEntity
100
AcDbLine
10
1.634851
20
10.582162
30
0.0
11
1.634851
21
10.548143
31
0.0
0
LINE
8
usbl
62
0
5
445
100
AcDbEntity
100
AcDbLine
10
1.634851
20
10.548143
30
0.0
11
1.601778
21
10.548143
31
0.0
0
LINE
8
usbl
62
0
5
446
100
AcDbEntity
100
AcDbLine
10
1.601778
20
10.548143
30
0.0
11
1.601778
21
10.582162
31
0.0
0
LINE
8
usbl
62
0
5
447
100
AcDbEntity
100
AcDbLine
10
1.601778
20
10.582162
30
0.0
11
1.601778
21
10.582162
31
0.0
0
LINE
8
usbl
62
0
5
448
100
AcDbEntity
100
AcDbLine
10
1.546656
20
10.582162
30
0.0
11
1.579728
21
10.582162
31
0.0
0
LINE
8
usbl
62
0
5
449
100
AcDbEntity
100
AcDbLine
10
1.579728
20
10.582162
30
0.0
11
1.579728
21
10.548143
31
0.0
0
LINE
8
usbl
62
0
5
44a
100
AcDbEntity
100
AcDbLine
10
1.579728
20
10.548143
30
0.0
11
1.546656
21
10.548143
31
0.0
0
LINE
8
usbl
62
0
5
44b
100
AcDbEntity
100
AcDbLine
10
1.546656
20
10.548143
30
0.0
11
1.546656
21
10.582162
31
0.0
0
LINE
8
usbl
62
0
5
44c
100
AcDbEntity
100
AcDbLine
10
1.546656
20
10.582162
30
0.0
11
1.546656
21
10.582162
31
0.0
0
LINE
8
usbl
62
0
5
44d
100
AcDbEntity
100
AcDbLine
10
1.441144
20
10.585309
30
0.0
11
1.474217
21
10.585309
31
0.0
0
LINE
8
usbl
62
0
5
44e
100
AcDbEntity
100
AcDbLine
10
1.474217
20
10.585309
30
0.0
11
1.474217
21
10.551294
31
0.0
0
LINE
8
usbl
62
0
5
44f
100
AcDbEntity
100
AcDbLine
10
1.474217
20
10.551294
30
0.0
11
1.441144
21
10.551294
31
0.0
0
LINE
8
usbl
62
0
5
450
100
AcDbEntity
100
AcDbLine
10
1.441144
20
10.551294
30
0.0
11
1.441144
21
10.585309
31
0.0
0
LINE
8
usbl
62
0
5
451
100
AcDbEntity
100
AcDbLine
10
1.441144
20
10.585309
30
0.0
11
1.441144
21
10.585309
31
0.0
0
LINE
8
usbl
62
0
5
452
100
AcDbEntity
100
AcDbLine
10
1.496267
20
10.585309
30
0.0
11
1.529340
21
10.585309
31
0.0
0
LINE
8
usbl
62
0
5
453
100
AcDbEntity
100
AcDbLine
10
1.529340
20
10.585309
30
0.0
11
1.529340
21
10.551294
31
0.0
0
LINE
8
usbl
62
0
5
454
100
AcDbEntity
100
AcDbLine
10
1.529340
20
10.551294
30
0.0
11
1.496267
21
10.551294
31
0.0
0
LINE
8
usbl
62
0
5
455
100
AcDbEntity
100
AcDbLine
10
1.496267
20
10.551294
30
0.0
11
1.496267
21
10.585309
31
0.0
0
LINE
8
usbl
62
0
5
456
100
AcDbEntity
100
AcDbLine
10
1.496267
20
10.585309
30
0.0
11
1.496267
21
10.585309
31
0.0
0
LINE
8
usbl
62
0
5
457
100
AcDbEntity
100
AcDbLine
10
0.743507
20
11.169090
30
0.0
11
0.793902
21
11.169090
31
0.0
0
LINE
8
usbl
62
0
5
458
100
AcDbEntity
100
AcDbLine
10
0.793902
20
11.169090
30
0.0
11
0.793902
21
11.159641
31
0.0
0
LINE
8
usbl
62
0
5
459
100
AcDbEntity
100
AcDbLine
10
0.793902
20
11.159641
30
0.0
11
0.743507
21
11.159641
31
0.0
0
LINE
8
usbl
62
0
5
45a
100
AcDbEntity
100
AcDbLine
10
0.743507
20
11.159641
30
0.0
11
0.743507
21
11.169090
31
0.0
0
LINE
8
usbl
62
0
5
45b
100
AcDbEntity
100
AcDbLine
10
0.743507
20
11.169090
30
0.0
11
0.743507
21
11.169090
31
0.0
0
LINE
8
usbl
62
0
5
45c
100
AcDbEntity
100
AcDbLine
10
0.743507
20
11.189562
30
0.0
11
0.793902
21
11.189562
31
0.0
0
LINE
8
usbl
62
0
5
45d
100
AcDbEntity
100
AcDbLine
10
0.793902
20
11.189562
30
0.0
11
0.793902
21
11.180113
31
0.0
0
LINE
8
usbl
62
0
5
45e
100
AcDbEntity
100
AcDbLine
10
0.793902
20
11.180113
30
0.0
11
0.743507
21
11.180113
31
0.0
0
LINE
8
usbl
62
0
5
45f
100
AcDbEntity
100
AcDbLine
10
0.743507
20
11.180113
30
0.0
11
0.743507
21
11.189562
31
0.0
0
LINE
8
usbl
62
0
5
460
100
AcDbEntity
100
AcDbLine
10
0.743507
20
11.189562
30
0.0
11
0.743507
21
11.189562
31
0.0
0
LINE
8
usbl
62
0
5
461
100
AcDbEntity
100
AcDbLine
10
0.743507
20
11.210036
30
0.0
11
0.793902
21
11.210036
31
0.0
0
LINE
8
usbl
62
0
5
462
100
AcDbEntity
100
AcDbLine
10
0.793902
20
11.210036
30
0.0
11
0.793902
21
11.200587
31
0.0
0
LINE
8
usbl
62
0
5
463
100
AcDbEntity
100
AcDbLine
10
0.793902
20
11.200587
30
0.0
11
0.743507
21
11.200587
31
0.0
0
LINE
8
usbl
62
0
5
464
100
AcDbEntity
100
AcDbLine
10
0.743507
20
11.200587
30
0.0
11
0.743507
21
11.210036
31
0.0
0
LINE
8
usbl
62
0
5
465
100
AcDbEntity
100
AcDbLine
10
0.743507
20
11.210036
30
0.0
11
0.743507
21
11.210036
31
0.0
0
LINE
8
usbl
62
0
5
466
100
AcDbEntity
100
AcDbLine
10
0.743507
20
11.230509
30
0.0
11
0.793902
21
11.230509
31
0.0
0
LINE
8
usbl
62
0
5
467
100
AcDbEntity
100
AcDbLine
10
0.793902
20
11.230509
30
0.0
11
0.793902
21
11.221060
31
0.0
0
LINE
8
usbl
62
0
5
468
100
AcDbEntity
100
AcDbLine
10
0.793902
20
11.221060
30
0.0
11
0.743507
21
11.221060
31
0.0
0
LINE
8
usbl
62
0
5
469
100
AcDbEntity
100
AcDbLine
10
0.743507
20
11.221060
30
0.0
11
0.743507
21
11.230509
31
0.0
0
LINE
8
usbl
62
0
5
46a
100
AcDbEntity
100
AcDbLine
10
0.743507
20
11.230509
30
0.0
11
0.743507
21
11.230509
31
0.0
0
LINE
8
usbl
62
0
5
46b
100
AcDbEntity
100
AcDbLine
10
0.743507
20
11.250978
30
0.0
11
0.793902
21
11.250978
31
0.0
0
LINE
8
usbl
62
0
5
46c
100
AcDbEntity
100
AcDbLine
10
0.793902
20
11.250978
30
0.0
11
0.793902
21
11.241529
31
0.0
0
LINE
8
usbl
62
0
5
46d
100
AcDbEntity
100
AcDbLine
10
0.793902
20
11.241529
30
0.0
11
0.743507
21
11.241529
31
0.0
0
LINE
8
usbl
62
0
5
46e
100
AcDbEntity
100
AcDbLine
10
0.743507
20
11.241529
30
0.0
11
0.743507
21
11.250978
31
0.0
0
LINE
8
usbl
62
0
5
46f
100
AcDbEntity
100
AcDbLine
10
0.743507
20
11.250978
30
0.0
11
0.743507
21
11.250978
31
0.0
0
LINE
8
usbl
62
0
5
470
100
AcDbEntity
100
AcDbLine
10
0.743507
20
11.271451
30
0.0
11
0.793902
21
11.271451
31
0.0
0
LINE
8
usbl
62
0
5
471
100
AcDbEntity
100
AcDbLine
10
0.793902
20
11.271451
30
0.0
11
0.793902
21
11.262002
31
0.0
0
LINE
8
usbl
62
0
5
472
100
AcDbEntity
100
AcDbLine
10
0.793902
20
11.262002
30
0.0
11
0.743507
21
11.262002
31
0.0
0
LINE
8
usbl
62
0
5
473
100
AcDbEntity
100
AcDbLine
10
0.743507
20
11.262002
30
0.0
11
0.743507
21
11.271451
31
0.0
0
LINE
8
usbl
62
0
5
474
100
AcDbEntity
100
AcDbLine
10
0.743507
20
11.271451
30
0.0
11
0.743507
21
11.271451
31
0.0
0
LINE
8
usbl
62
0
5
475
100
AcDbEntity
100
AcDbLine
10
0.743507
20
11.291923
30
0.0
11
0.793902
21
11.291923
31
0.0
0
LINE
8
usbl
62
0
5
476
100
AcDbEntity
100
AcDbLine
10
0.793902
20
11.291923
30
0.0
11
0.793902
21
11.282475
31
0.0
0
LINE
8
usbl
62
0
5
477
100
AcDbEntity
100
AcDbLine
10
0.793902
20
11.282475
30
0.0
11
0.743507
21
11.282475
31
0.0
0
LINE
8
usbl
62
0
5
478
100
AcDbEntity
100
AcDbLine
10
0.743507
20
11.282475
30
0.0
11
0.743507
21
11.291923
31
0.0
0
LINE
8
usbl
62
0
5
479
100
AcDbEntity
100
AcDbLine
10
0.743507
20
11.291923
30
0.0
11
0.743507
21
11.291923
31
0.0
0
LINE
8
usbl
62
0
5
47a
100
AcDbEntity
100
AcDbLine
10
0.743507
20
11.312397
30
0.0
11
0.793902
21
11.312397
31
0.0
0
LINE
8
usbl
62
0
5
47b
100
AcDbEntity
100
AcDbLine
10
0.793902
20
11.312397
30
0.0
11
0.793902
21
11.302948
31
0.0
0
LINE
8
usbl
62
0
5
47c
100
AcDbEntity
100
AcDbLine
10
0.793902
20
11.302948
30
0.0
11
0.743507
21
11.302948
31
0.0
0
LINE
8
usbl
62
0
5
47d
100
AcDbEntity
100
AcDbLine
10
0.743507
20
11.302948
30
0.0
11
0.743507
21
11.312397
31
0.0
0
LINE
8
usbl
62
0
5
47e
100
AcDbEntity
100
AcDbLine
10
0.743507
20
11.312397
30
0.0
11
0.743507
21
11.312397
31
0.0
0
LINE
8
usbl
62
0
5
47f
100
AcDbEntity
100
AcDbLine
10
0.743507
20
11.332870
30
0.0
11
0.793902
21
11.332870
31
0.0
0
LINE
8
usbl
62
0
5
480
100
AcDbEntity
100
AcDbLine
10
0.793902
20
11.332870
30
0.0
11
0.793902
21
11.323421
31
0.0
0
LINE
8
usbl
62
0
5
481
100
AcDbEntity
100
AcDbLine
10
0.793902
20
11.323421
30
0.0
11
0.743507
21
11.323421
31
0.0
0
LINE
8
usbl
62
0
5
482
100
AcDbEntity
100
AcDbLine
10
0.743507
20
11.323421
30
0.0
11
0.743507
21
11.332870
31
0.0
0
LINE
8
usbl
62
0
5
483
100
AcDbEntity
100
AcDbLine
10
0.743507
20
11.332870
30
0.0
11
0.743507
21
11.332870
31
0.0
0
LINE
8
usbl
62
0
5
484
100
AcDbEntity
100
AcDbLine
10
0.743507
20
11.353343
30
0.0
11
0.793902
21
11.353343
31
0.0
0
LINE
8
usbl
62
0
5
485
100
AcDbEntity
100
AcDbLine
10
0.793902
20
11.353343
30
0.0
11
0.793902
21
11.343895
31
0.0
0
LINE
8
usbl
62
0
5
486
100
AcDbEntity
100
AcDbLine
10
0.793902
20
11.343895
30
0.0
11
0.743507
21
11.343895
31
0.0
0
LINE
8
usbl
62
0
5
487
100
AcDbEntity
100
AcDbLine
10
0.743507
20
11.343895
30
0.0
11
0.743507
21
11.353343
31
0.0
0
LINE
8
usbl
62
0
5
488
100
AcDbEntity
100
AcDbLine
10
0.743507
20
11.353343
30
0.0
11
0.743507
21
11.353343
31
0.0
0
LINE
8
usbl
62
0
5
489
100
AcDbEntity
100
AcDbLine
10
0.743507
20
11.373816
30
0.0
11
0.793902
21
11.373816
31
0.0
0
LINE
8
usbl
62
0
5
48a
100
AcDbEntity
100
AcDbLine
10
0.793902
20
11.373816
30
0.0
11
0.793902
21
11.364367
31
0.0
0
LINE
8
usbl
62
0
5
48b
100
AcDbEntity
100
AcDbLine
10
0.793902
20
11.364367
30
0.0
11
0.743507
21
11.364367
31
0.0
0
LINE
8
usbl
62
0
5
48c
100
AcDbEntity
100
AcDbLine
10
0.743507
20
11.364367
30
0.0
11
0.743507
21
11.373816
31
0.0
0
LINE
8
usbl
62
0
5
48d
100
AcDbEntity
100
AcDbLine
10
0.743507
20
11.373816
30
0.0
11
0.743507
21
11.373816
31
0.0
0
LINE
8
usbl
62
0
5
48e
100
AcDbEntity
100
AcDbLine
10
0.743507
20
11.394284
30
0.0
11
0.793902
21
11.394284
31
0.0
0
LINE
8
usbl
62
0
5
48f
100
AcDbEntity
100
AcDbLine
10
0.793902
20
11.394284
30
0.0
11
0.793902
21
11.384836
31
0.0
0
LINE
8
usbl
62
0
5
490
100
AcDbEntity
100
AcDbLine
10
0.793902
20
11.384836
30
0.0
11
0.743507
21
11.384836
31
0.0
0
LINE
8
usbl
62
0
5
491
100
AcDbEntity
100
AcDbLine
10
0.743507
20
11.384836
30
0.0
11
0.743507
21
11.394284
31
0.0
0
LINE
8
usbl
62
0
5
492
100
AcDbEntity
100
AcDbLine
10
0.743507
20
11.394284
30
0.0
11
0.743507
21
11.394284
31
0.0
0
LINE
8
usbl
62
0
5
493
100
AcDbEntity
100
AcDbLine
10
0.743507
20
11.414758
30
0.0
11
0.793902
21
11.414758
31
0.0
0
LINE
8
usbl
62
0
5
494
100
AcDbEntity
100
AcDbLine
10
0.793902
20
11.414758
30
0.0
11
0.793902
21
11.405309
31
0.0
0
LINE
8
usbl
62
0
5
495
100
AcDbEntity
100
AcDbLine
10
0.793902
20
11.405309
30
0.0
11
0.743507
21
11.405309
31
0.0
0
LINE
8
usbl
62
0
5
496
100
AcDbEntity
100
AcDbLine
10
0.743507
20
11.405309
30
0.0
11
0.743507
21
11.414758
31
0.0
0
LINE
8
usbl
62
0
5
497
100
AcDbEntity
100
AcDbLine
10
0.743507
20
11.414758
30
0.0
11
0.743507
21
11.414758
31
0.0
0
LINE
8
usbl
62
0
5
498
100
AcDbEntity
100
AcDbLine
10
0.743507
20
11.435231
30
0.0
11
0.793902
21
11.435231
31
0.0
0
LINE
8
usbl
62
0
5
499
100
AcDbEntity
100
AcDbLine
10
0.793902
20
11.435231
30
0.0
11
0.793902
21
11.425782
31
0.0
0
LINE
8
usbl
62
0
5
49a
100
AcDbEntity
100
AcDbLine
10
0.793902
20
11.425782
30
0.0
11
0.743507
21
11.425782
31
0.0
0
LINE
8
usbl
62
0
5
49b
100
AcDbEntity
100
AcDbLine
10
0.743507
20
11.425782
30
0.0
11
0.743507
21
11.435231
31
0.0
0
LINE
8
usbl
62
0
5
49c
100
AcDbEntity
100
AcDbLine
10
0.743507
20
11.435231
30
0.0
11
0.743507
21
11.435231
31
0.0
0
LINE
8
usbl
62
0
5
49d
100
AcDbEntity
100
AcDbLine
10
0.919887
20
11.435231
30
0.0
11
0.970282
21
11.435231
31
0.0
0
LINE
8
usbl
62
0
5
49e
100
AcDbEntity
100
AcDbLine
10
0.970282
20
11.435231
30
0.0
11
0.970282
21
11.425782
31
0.0
0
LINE
8
usbl
62
0
5
49f
100
AcDbEntity
100
AcDbLine
10
0.970282
20
11.425782
30
0.0
11
0.919887
21
11.425782
31
0.0
0
LINE
8
usbl
62
0
5
4a0
100
AcDbEntity
100
AcDbLine
10
0.919887
20
11.425782
30
0.0
11
0.919887
21
11.435231
31
0.0
0
LINE
8
usbl
62
0
5
4a1
100
AcDbEntity
100
AcDbLine
10
0.919887
20
11.435231
30
0.0
11
0.919887
21
11.435231
31
0.0
0
LINE
8
usbl
62
0
5
4a2
100
AcDbEntity
100
AcDbLine
10
0.919887
20
11.414758
30
0.0
11
0.970282
21
11.414758
31
0.0
0
LINE
8
usbl
62
0
5
4a3
100
AcDbEntity
100
AcDbLine
10
0.970282
20
11.414758
30
0.0
11
0.970282
21
11.405309
31
0.0
0
LINE
8
usbl
62
0
5
4a4
100
AcDbEntity
100
AcDbLine
10
0.970282
20
11.405309
30
0.0
11
0.919887
21
11.405309
31
0.0
0
LINE
8
usbl
62
0
5
4a5
100
AcDbEntity
100
AcDbLine
10
0.919887
20
11.405309
30
0.0
11
0.919887
21
11.414758
31
0.0
0
LINE
8
usbl
62
0
5
4a6
100
AcDbEntity
100
AcDbLine
10
0.919887
20
11.414758
30
0.0
11
0.919887
21
11.414758
31
0.0
0
LINE
8
usbl
62
0
5
4a7
100
AcDbEntity
100
AcDbLine
10
0.919887
20
11.394284
30
0.0
11
0.970282
21
11.394284
31
0.0
0
LINE
8
usbl
62
0
5
4a8
100
AcDbEntity
100
AcDbLine
10
0.970282
20
11.394284
30
0.0
11
0.970282
21
11.384836
31
0.0
0
LINE
8
usbl
62
0
5
4a9
100
AcDbEntity
100
AcDbLine
10
0.970282
20
11.384836
30
0.0
11
0.919887
21
11.384836
31
0.0
0
LINE
8
usbl
62
0
5
4aa
100
AcDbEntity
100
AcDbLine
10
0.919887
20
11.384836
30
0.0
11
0.919887
21
11.394284
31
0.0
0
LINE
8
usbl
62
0
5
4ab
100
AcDbEntity
100
AcDbLine
10
0.919887
20
11.394284
30
0.0
11
0.919887
21
11.394284
31
0.0
0
LINE
8
usbl
62
0
5
4ac
100
AcDbEntity
100
AcDbLine
10
0.919887
20
11.373816
30
0.0
11
0.970282
21
11.373816
31
0.0
0
LINE
8
usbl
62
0
5
4ad
100
AcDbEntity
100
AcDbLine
10
0.970282
20
11.373816
30
0.0
11
0.970282
21
11.364367
31
0.0
0
LINE
8
usbl
62
0
5
4ae
100
AcDbEntity
100
AcDbLine
10
0.970282
20
11.364367
30
0.0
11
0.919887
21
11.364367
31
0.0
0
LINE
8
usbl
62
0
5
4af
100
AcDbEntity
100
AcDbLine
10
0.919887
20
11.364367
30
0.0
11
0.919887
21
11.373816
31
0.0
0
LINE
8
usbl
62
0
5
4b0
100
AcDbEntity
100
AcDbLine
10
0.919887
20
11.373816
30
0.0
11
0.919887
21
11.373816
31
0.0
0
LINE
8
usbl
62
0
5
4b1
100
AcDbEntity
100
AcDbLine
10
0.919887
20
11.353343
30
0.0
11
0.970282
21
11.353343
31
0.0
0
LINE
8
usbl
62
0
5
4b2
100
AcDbEntity
100
AcDbLine
10
0.970282
20
11.353343
30
0.0
11
0.970282
21
11.343895
31
0.0
0
LINE
8
usbl
62
0
5
4b3
100
AcDbEntity
100
AcDbLine
10
0.970282
20
11.343895
30
0.0
11
0.919887
21
11.343895
31
0.0
0
LINE
8
usbl
62
0
5
4b4
100
AcDbEntity
100
AcDbLine
10
0.919887
20
11.343895
30
0.0
11
0.919887
21
11.353343
31
0.0
0
LINE
8
usbl
62
0
5
4b5
100
AcDbEntity
100
AcDbLine
10
0.919887
20
11.353343
30
0.0
11
0.919887
21
11.353343
31
0.0
0
LINE
8
usbl
62
0
5
4b6
100
AcDbEntity
100
AcDbLine
10
0.919887
20
11.332870
30
0.0
11
0.970282
21
11.332870
31
0.0
0
LINE
8
usbl
62
0
5
4b7
100
AcDbEntity
100
AcDbLine
10
0.970282
20
11.332870
30
0.0
11
0.970282
21
11.323421
31
0.0
0
LINE
8
usbl
62
0
5
4b8
100
AcDbEntity
100
AcDbLine
10
0.970282
20
11.323421
30
0.0
11
0.919887
21
11.323421
31
0.0
0
LINE
8
usbl
62
0
5
4b9
100
AcDbEntity
100
AcDbLine
10
0.919887
20
11.323421
30
0.0
11
0.919887
21
11.332870
31
0.0
0
LINE
8
usbl
62
0
5
4ba
100
AcDbEntity
100
AcDbLine
10
0.919887
20
11.332870
30
0.0
11
0.919887
21
11.332870
31
0.0
0
LINE
8
usbl
62
0
5
4bb
100
AcDbEntity
100
AcDbLine
10
0.919887
20
11.312397
30
0.0
11
0.970282
21
11.312397
31
0.0
0
LINE
8
usbl
62
0
5
4bc
100
AcDbEntity
100
AcDbLine
10
0.970282
20
11.312397
30
0.0
11
0.970282
21
11.302948
31
0.0
0
LINE
8
usbl
62
0
5
4bd
100
AcDbEntity
100
AcDbLine
10
0.970282
20
11.302948
30
0.0
11
0.919887
21
11.302948
31
0.0
0
LINE
8
usbl
62
0
5
4be
100
AcDbEntity
100
AcDbLine
10
0.919887
20
11.302948
30
0.0
11
0.919887
21
11.312397
31
0.0
0
LINE
8
usbl
62
0
5
4bf
100
AcDbEntity
100
AcDbLine
10
0.919887
20
11.312397
30
0.0
11
0.919887
21
11.312397
31
0.0
0
LINE
8
usbl
62
0
5
4c0
100
AcDbEntity
100
AcDbLine
10
0.919887
20
11.291923
30
0.0
11
0.970282
21
11.291923
31
0.0
0
LINE
8
usbl
62
0
5
4c1
100
AcDbEntity
100
AcDbLine
10
0.970282
20
11.291923
30
0.0
11
0.970282
21
11.282475
31
0.0
0
LINE
8
usbl
62
0
5
4c2
100
AcDbEntity
100
AcDbLine
10
0.970282
20
11.282475
30
0.0
11
0.919887
21
11.282475
31
0.0
0
LINE
8
usbl
62
0
5
4c3
100
AcDbEntity
100
AcDbLine
10
0.919887
20
11.282475
30
0.0
11
0.919887
21
11.291923
31
0.0
0
LINE
8
usbl
62
0
5
4c4
100
AcDbEntity
100
AcDbLine
10
0.919887
20
11.291923
30
0.0
11
0.919887
21
11.291923
31
0.0
0
LINE
8
usbl
62
0
5
4c5
100
AcDbEntity
100
AcDbLine
10
0.919887
20
11.271451
30
0.0
11
0.970282
21
11.271451
31
0.0
0
LINE
8
usbl
62
0
5
4c6
100
AcDbEntity
100
AcDbLine
10
0.970282
20
11.271451
30
0.0
11
0.970282
21
11.262002
31
0.0
0
LINE
8
usbl
62
0
5
4c7
100
AcDbEntity
100
AcDbLine
10
0.970282
20
11.262002
30
0.0
11
0.919887
21
11.262002
31
0.0
0
LINE
8
usbl
62
0
5
4c8
100
AcDbEntity
100
AcDbLine
10
0.919887
20
11.262002
30
0.0
11
0.919887
21
11.271451
31
0.0
0
LINE
8
usbl
62
0
5
4c9
100
AcDbEntity
100
AcDbLine
10
0.919887
20
11.271451
30
0.0
11
0.919887
21
11.271451
31
0.0
0
LINE
8
usbl
62
0
5
4ca
100
AcDbEntity
100
AcDbLine
10
0.919887
20
11.250978
30
0.0
11
0.970282
21
11.250978
31
0.0
0
LINE
8
usbl
62
0
5
4cb
100
AcDbEntity
100
AcDbLine
10
0.970282
20
11.250978
30
0.0
11
0.970282
21
11.241529
31
0.0
0
LINE
8
usbl
62
0
5
4cc
100
AcDbEntity
100
AcDbLine
10
0.970282
20
11.241529
30
0.0
11
0.919887
21
11.241529
31
0.0
0
LINE
8
usbl
62
0
5
4cd
100
AcDbEntity
100
AcDbLine
10
0.919887
20
11.241529
30
0.0
11
0.919887
21
11.250978
31
0.0
0
LINE
8
usbl
62
0
5
4ce
100
AcDbEntity
100
AcDbLine
10
0.919887
20
11.250978
30
0.0
11
0.919887
21
11.250978
31
0.0
0
LINE
8
usbl
62
0
5
4cf
100
AcDbEntity
100
AcDbLine
10
0.919887
20
11.230509
30
0.0
11
0.970282
21
11.230509
31
0.0
0
LINE
8
usbl
62
0
5
4d0
100
AcDbEntity
100
AcDbLine
10
0.970282
20
11.230509
30
0.0
11
0.970282
21
11.221060
31
0.0
0
LINE
8
usbl
62
0
5
4d1
100
AcDbEntity
100
AcDbLine
10
0.970282
20
11.221060
30
0.0
11
0.919887
21
11.221060
31
0.0
0
LINE
8
usbl
62
0
5
4d2
100
AcDbEntity
100
AcDbLine
10
0.919887
20
11.221060
30
0.0
11
0.919887
21
11.230509
31
0.0
0
LINE
8
usbl
62
0
5
4d3
100
AcDbEntity
100
AcDbLine
10
0.919887
20
11.230509
30
0.0
11
0.919887
21
11.230509
31
0.0
0
LINE
8
usbl
62
0
5
4d4
100
AcDbEntity
100
AcDbLine
10
0.919887
20
11.210036
30
0.0
11
0.970282
21
11.210036
31
0.0
0
LINE
8
usbl
62
0
5
4d5
100
AcDbEntity
100
AcDbLine
10
0.970282
20
11.210036
30
0.0
11
0.970282
21
11.200587
31
0.0
0
LINE
8
usbl
62
0
5
4d6
100
AcDbEntity
100
AcDbLine
10
0.970282
20
11.200587
30
0.0
11
0.919887
21
11.200587
31
0.0
0
LINE
8
usbl
62
0
5
4d7
100
AcDbEntity
100
AcDbLine
10
0.919887
20
11.200587
30
0.0
11
0.919887
21
11.210036
31
0.0
0
LINE
8
usbl
62
0
5
4d8
100
AcDbEntity
100
AcDbLine
10
0.919887
20
11.210036
30
0.0
11
0.919887
21
11.210036
31
0.0
0
LINE
8
usbl
62
0
5
4d9
100
AcDbEntity
100
AcDbLine
10
0.919887
20
11.189562
30
0.0
11
0.970282
21
11.189562
31
0.0
0
LINE
8
usbl
62
0
5
4da
100
AcDbEntity
100
AcDbLine
10
0.970282
20
11.189562
30
0.0
11
0.970282
21
11.180113
31
0.0
0
LINE
8
usbl
62
0
5
4db
100
AcDbEntity
100
AcDbLine
10
0.970282
20
11.180113
30
0.0
11
0.919887
21
11.180113
31
0.0
0
LINE
8
usbl
62
0
5
4dc
100
AcDbEntity
100
AcDbLine
10
0.919887
20
11.180113
30
0.0
11
0.919887
21
11.189562
31
0.0
0
LINE
8
usbl
62
0
5
4dd
100
AcDbEntity
100
AcDbLine
10
0.919887
20
11.189562
30
0.0
11
0.919887
21
11.189562
31
0.0
0
LINE
8
usbl
62
0
5
4de
100
AcDbEntity
100
AcDbLine
10
0.919887
20
11.169090
30
0.0
11
0.970282
21
11.169090
31
0.0
0
LINE
8
usbl
62
0
5
4df
100
AcDbEntity
100
AcDbLine
10
0.970282
20
11.169090
30
0.0
11
0.970282
21
11.159641
31
0.0
0
LINE
8
usbl
62
0
5
4e0
100
AcDbEntity
100
AcDbLine
10
0.970282
20
11.159641
30
0.0
11
0.919887
21
11.159641
31
0.0
0
LINE
8
usbl
62
0
5
4e1
100
AcDbEntity
100
AcDbLine
10
0.919887
20
11.159641
30
0.0
11
0.919887
21
11.169090
31
0.0
0
LINE
8
usbl
62
0
5
4e2
100
AcDbEntity
100
AcDbLine
10
0.919887
20
11.169090
30
0.0
11
0.919887
21
11.169090
31
0.0
0
LINE
8
usbl
62
0
5
4e3
100
AcDbEntity
100
AcDbLine
10
0.535633
20
11.272241
30
0.0
11
0.576580
21
11.272241
31
0.0
0
LINE
8
usbl
62
0
5
4e4
100
AcDbEntity
100
AcDbLine
10
0.576580
20
11.272241
30
0.0
11
0.576580
21
11.224997
31
0.0
0
LINE
8
usbl
62
0
5
4e5
100
AcDbEntity
100
AcDbLine
10
0.576580
20
11.224997
30
0.0
11
0.535633
21
11.224997
31
0.0
0
LINE
8
usbl
62
0
5
4e6
100
AcDbEntity
100
AcDbLine
10
0.535633
20
11.224997
30
0.0
11
0.535633
21
11.272241
31
0.0
0
LINE
8
usbl
62
0
5
4e7
100
AcDbEntity
100
AcDbLine
10
0.535633
20
11.272241
30
0.0
11
0.535633
21
11.272241
31
0.0
0
LINE
8
usbl
62
0
5
4e8
100
AcDbEntity
100
AcDbLine
10
0.595478
20
11.272241
30
0.0
11
0.636424
21
11.272241
31
0.0
0
LINE
8
usbl
62
0
5
4e9
100
AcDbEntity
100
AcDbLine
10
0.636424
20
11.272241
30
0.0
11
0.636424
21
11.224997
31
0.0
0
LINE
8
usbl
62
0
5
4ea
100
AcDbEntity
100
AcDbLine
10
0.636424
20
11.224997
30
0.0
11
0.595478
21
11.224997
31
0.0
0
LINE
8
usbl
62
0
5
4eb
100
AcDbEntity
100
AcDbLine
10
0.595478
20
11.224997
30
0.0
11
0.595478
21
11.272241
31
0.0
0
LINE
8
usbl
62
0
5
4ec
100
AcDbEntity
100
AcDbLine
10
0.595478
20
11.272241
30
0.0
11
0.595478
21
11.272241
31
0.0
0
LINE
8
usbl
62
0
5
4ed
100
AcDbEntity
100
AcDbLine
10
0.534058
20
11.369876
30
0.0
11
0.575004
21
11.369876
31
0.0
0
LINE
8
usbl
62
0
5
4ee
100
AcDbEntity
100
AcDbLine
10
0.575004
20
11.369876
30
0.0
11
0.575004
21
11.322632
31
0.0
0
LINE
8
usbl
62
0
5
4ef
100
AcDbEntity
100
AcDbLine
10
0.575004
20
11.322632
30
0.0
11
0.534058
21
11.322632
31
0.0
0
LINE
8
usbl
62
0
5
4f0
100
AcDbEntity
100
AcDbLine
10
0.534058
20
11.322632
30
0.0
11
0.534058
21
11.369876
31
0.0
0
LINE
8
usbl
62
0
5
4f1
100
AcDbEntity
100
AcDbLine
10
0.534058
20
11.369876
30
0.0
11
0.534058
21
11.369876
31
0.0
0
LINE
8
usbl
62
0
5
4f2
100
AcDbEntity
100
AcDbLine
10
0.593902
20
11.369876
30
0.0
11
0.634848
21
11.369876
31
0.0
0
LINE
8
usbl
62
0
5
4f3
100
AcDbEntity
100
AcDbLine
10
0.634848
20
11.369876
30
0.0
11
0.634848
21
11.322632
31
0.0
0
LINE
8
usbl
62
0
5
4f4
100
AcDbEntity
100
AcDbLine
10
0.634848
20
11.322632
30
0.0
11
0.593902
21
11.322632
31
0.0
0
LINE
8
usbl
62
0
5
4f5
100
AcDbEntity
100
AcDbLine
10
0.593902
20
11.322632
30
0.0
11
0.593902
21
11.369876
31
0.0
0
LINE
8
usbl
62
0
5
4f6
100
AcDbEntity
100
AcDbLine
10
0.593902
20
11.369876
30
0.0
11
0.593902
21
11.369876
31
0.0
0
LINE
8
usbl
62
0
5
4f7
100
AcDbEntity
100
AcDbLine
10
0.678941
20
11.176177
30
0.0
11
0.710439
21
11.176177
31
0.0
0
LINE
8
usbl
62
0
5
4f8
100
AcDbEntity
100
AcDbLine
10
0.710439
20
11.176177
30
0.0
11
0.710439
21
11.141528
31
0.0
0
LINE
8
usbl
62
0
5
4f9
100
AcDbEntity
100
AcDbLine
10
0.710439
20
11.141528
30
0.0
11
0.678941
21
11.141528
31
0.0
0
LINE
8
usbl
62
0
5
4fa
100
AcDbEntity
100
AcDbLine
10
0.678941
20
11.141528
30
0.0
11
0.678941
21
11.176177
31
0.0
0
LINE
8
usbl
62
0
5
4fb
100
AcDbEntity
100
AcDbLine
10
0.678941
20
11.176177
30
0.0
11
0.678941
21
11.176177
31
0.0
0
LINE
8
usbl
62
0
5
4fc
100
AcDbEntity
100
AcDbLine
10
0.678941
20
11.229719
30
0.0
11
0.710439
21
11.229719
31
0.0
0
LINE
8
usbl
62
0
5
4fd
100
AcDbEntity
100
AcDbLine
10
0.710439
20
11.229719
30
0.0
11
0.710439
21
11.195075
31
0.0
0
LINE
8
usbl
62
0
5
4fe
100
AcDbEntity
100
AcDbLine
10
0.710439
20
11.195075
30
0.0
11
0.678941
21
11.195075
31
0.0
0
LINE
8
usbl
62
0
5
4ff
100
AcDbEntity
100
AcDbLine
10
0.678941
20
11.195075
30
0.0
11
0.678941
21
11.229719
31
0.0
0
LINE
8
usbl
62
0
5
500
100
AcDbEntity
100
AcDbLine
10
0.678941
20
11.229719
30
0.0
11
0.678941
21
11.229719
31
0.0
0
LINE
8
usbl
62
0
5
501
100
AcDbEntity
100
AcDbLine
10
0.705712
20
11.133656
30
0.0
11
0.740361
21
11.133656
31
0.0
0
LINE
8
usbl
62
0
5
502
100
AcDbEntity
100
AcDbLine
10
0.740361
20
11.133656
30
0.0
11
0.740361
21
11.102162
31
0.0
0
LINE
8
usbl
62
0
5
503
100
AcDbEntity
100
AcDbLine
10
0.740361
20
11.102162
30
0.0
11
0.705712
21
11.102162
31
0.0
0
LINE
8
usbl
62
0
5
504
100
AcDbEntity
100
AcDbLine
10
0.705712
20
11.102162
30
0.0
11
0.705712
21
11.133656
31
0.0
0
LINE
8
usbl
62
0
5
505
100
AcDbEntity
100
AcDbLine
10
0.705712
20
11.133656
30
0.0
11
0.705712
21
11.133656
31
0.0
0
LINE
8
usbl
62
0
5
506
100
AcDbEntity
100
AcDbLine
10
0.759258
20
11.133656
30
0.0
11
0.793902
21
11.133656
31
0.0
0
LINE
8
usbl
62
0
5
507
100
AcDbEntity
100
AcDbLine
10
0.793902
20
11.133656
30
0.0
11
0.793902
21
11.102162
31
0.0
0
LINE
8
usbl
62
0
5
508
100
AcDbEntity
100
AcDbLine
10
0.793902
20
11.102162
30
0.0
11
0.759258
21
11.102162
31
0.0
0
LINE
8
usbl
62
0
5
509
100
AcDbEntity
100
AcDbLine
10
0.759258
20
11.102162
30
0.0
11
0.759258
21
11.133656
31
0.0
0
LINE
8
usbl
62
0
5
50a
100
AcDbEntity
100
AcDbLine
10
0.759258
20
11.133656
30
0.0
11
0.759258
21
11.133656
31
0.0
0
LINE
8
usbl
62
0
5
50b
100
AcDbEntity
100
AcDbLine
10
0.589180
20
11.158856
30
0.0
11
0.623824
21
11.158856
31
0.0
0
LINE
8
usbl
62
0
5
50c
100
AcDbEntity
100
AcDbLine
10
0.623824
20
11.158856
30
0.0
11
0.623824
21
11.127358
31
0.0
0
LINE
8
usbl
62
0
5
50d
100
AcDbEntity
100
AcDbLine
10
0.623824
20
11.127358
30
0.0
11
0.589180
21
11.127358
31
0.0
0
LINE
8
usbl
62
0
5
50e
100
AcDbEntity
100
AcDbLine
10
0.589180
20
11.127358
30
0.0
11
0.589180
21
11.158856
31
0.0
0
LINE
8
usbl
62
0
5
50f
100
AcDbEntity
100
AcDbLine
10
0.589180
20
11.158856
30
0.0
11
0.589180
21
11.158856
31
0.0
0
LINE
8
usbl
62
0
5
510
100
AcDbEntity
100
AcDbLine
10
0.535633
20
11.158856
30
0.0
11
0.570282
21
11.158856
31
0.0
0
LINE
8
usbl
62
0
5
511
100
AcDbEntity
100
AcDbLine
10
0.570282
20
11.158856
30
0.0
11
0.570282
21
11.127358
31
0.0
0
LINE
8
usbl
62
0
5
512
100
AcDbEntity
100
AcDbLine
10
0.570282
20
11.127358
30
0.0
11
0.535633
21
11.127358
31
0.0
0
LINE
8
usbl
62
0
5
513
100
AcDbEntity
100
AcDbLine
10
0.535633
20
11.127358
30
0.0
11
0.535633
21
11.158856
31
0.0
0
LINE
8
usbl
62
0
5
514
100
AcDbEntity
100
AcDbLine
10
0.535633
20
11.158856
30
0.0
11
0.535633
21
11.158856
31
0.0
0
LINE
8
usbl
62
0
5
515
100
AcDbEntity
100
AcDbLine
10
0.486814
20
11.021846
30
0.0
11
0.581302
21
11.021846
31
0.0
0
LINE
8
usbl
62
0
5
516
100
AcDbEntity
100
AcDbLine
10
0.581302
20
11.021846
30
0.0
11
0.581302
21
10.977753
31
0.0
0
LINE
8
usbl
62
0
5
517
100
AcDbEntity
100
AcDbLine
10
0.581302
20
10.977753
30
0.0
11
0.486814
21
10.977753
31
0.0
0
LINE
8
usbl
62
0
5
518
100
AcDbEntity
100
AcDbLine
10
0.486814
20
10.977753
30
0.0
11
0.486814
21
11.021846
31
0.0
0
LINE
8
usbl
62
0
5
519
100
AcDbEntity
100
AcDbLine
10
0.486814
20
11.021846
30
0.0
11
0.486814
21
11.021846
31
0.0
0
LINE
8
usbl
62
0
5
51a
100
AcDbEntity
100
AcDbLine
10
0.637994
20
11.021846
30
0.0
11
0.732487
21
11.021846
31
0.0
0
LINE
8
usbl
62
0
5
51b
100
AcDbEntity
100
AcDbLine
10
0.732487
20
11.021846
30
0.0
11
0.732487
21
10.977753
31
0.0
0
LINE
8
usbl
62
0
5
51c
100
AcDbEntity
100
AcDbLine
10
0.732487
20
10.977753
30
0.0
11
0.637994
21
10.977753
31
0.0
0
LINE
8
usbl
62
0
5
51d
100
AcDbEntity
100
AcDbLine
10
0.637994
20
10.977753
30
0.0
11
0.637994
21
11.021846
31
0.0
0
LINE
8
usbl
62
0
5
51e
100
AcDbEntity
100
AcDbLine
10
0.637994
20
11.021846
30
0.0
11
0.637994
21
11.021846
31
0.0
0
LINE
8
usbl
62
0
5
51f
100
AcDbEntity
100
AcDbLine
10
1.091541
20
11.385626
30
0.0
11
1.123039
21
11.385626
31
0.0
0
LINE
8
usbl
62
0
5
520
100
AcDbEntity
100
AcDbLine
10
1.123039
20
11.385626
30
0.0
11
1.123039
21
11.350977
31
0.0
0
LINE
8
usbl
62
0
5
521
100
AcDbEntity
100
AcDbLine
10
1.123039
20
11.350977
30
0.0
11
1.091541
21
11.350977
31
0.0
0
LINE
8
usbl
62
0
5
522
100
AcDbEntity
100
AcDbLine
10
1.091541
20
11.350977
30
0.0
11
1.091541
21
11.385626
31
0.0
0
LINE
8
usbl
62
0
5
523
100
AcDbEntity
100
AcDbLine
10
1.091541
20
11.385626
30
0.0
11
1.091541
21
11.385626
31
0.0
0
LINE
8
usbl
62
0
5
524
100
AcDbEntity
100
AcDbLine
10
1.145078
20
11.385626
30
0.0
11
1.176575
21
11.385626
31
0.0
0
LINE
8
usbl
62
0
5
525
100
AcDbEntity
100
AcDbLine
10
1.176575
20
11.385626
30
0.0
11
1.176575
21
11.350977
31
0.0
0
LINE
8
usbl
62
0
5
526
100
AcDbEntity
100
AcDbLine
10
1.176575
20
11.350977
30
0.0
11
1.145078
21
11.350977
31
0.0
0
LINE
8
usbl
62
0
5
527
100
AcDbEntity
100
AcDbLine
10
1.145078
20
11.350977
30
0.0
11
1.145078
21
11.385626
31
0.0
0
LINE
8
usbl
62
0
5
528
100
AcDbEntity
100
AcDbLine
10
1.145078
20
11.385626
30
0.0
11
1.145078
21
11.385626
31
0.0
0
LINE
8
usbl
62
0
5
529
100
AcDbEntity
100
AcDbLine
10
1.957678
20
10.568302
30
0.0
11
1.967127
21
10.568302
31
0.0
0
LINE
8
usbl
62
0
5
52a
100
AcDbEntity
100
AcDbLine
10
1.967127
20
10.568302
30
0.0
11
1.967127
21
10.546254
31
0.0
0
LINE
8
usbl
62
0
5
52b
100
AcDbEntity
100
AcDbLine
10
1.967127
20
10.546254
30
0.0
11
1.957678
21
10.546254
31
0.0
0
LINE
8
usbl
62
0
5
52c
100
AcDbEntity
100
AcDbLine
10
1.957678
20
10.546254
30
0.0
11
1.957678
21
10.568302
31
0.0
0
LINE
8
usbl
62
0
5
52d
100
AcDbEntity
100
AcDbLine
10
1.957678
20
10.568302
30
0.0
11
1.957678
21
10.568302
31
0.0
0
LINE
8
usbl
62
0
5
52e
100
AcDbEntity
100
AcDbLine
10
1.978156
20
10.568302
30
0.0
11
1.987604
21
10.568302
31
0.0
0
LINE
8
usbl
62
0
5
52f
100
AcDbEntity
100
AcDbLine
10
1.987604
20
10.568302
30
0.0
11
1.987604
21
10.546254
31
0.0
0
LINE
8
usbl
62
0
5
530
100
AcDbEntity
100
AcDbLine
10
1.987604
20
10.546254
30
0.0
11
1.978156
21
10.546254
31
0.0
0
LINE
8
usbl
62
0
5
531
100
AcDbEntity
100
AcDbLine
10
1.978156
20
10.546254
30
0.0
11
1.978156
21
10.568302
31
0.0
0
LINE
8
usbl
62
0
5
532
100
AcDbEntity
100
AcDbLine
10
1.978156
20
10.568302
30
0.0
11
1.978156
21
10.568302
31
0.0
0
LINE
8
usbl
62
0
5
533
100
AcDbEntity
100
AcDbLine
10
1.998633
20
10.568302
30
0.0
11
2.008082
21
10.568302
31
0.0
0
LINE
8
usbl
62
0
5
534
100
AcDbEntity
100
AcDbLine
10
2.008082
20
10.568302
30
0.0
11
2.008082
21
10.546254
31
0.0
0
LINE
8
usbl
62
0
5
535
100
AcDbEntity
100
AcDbLine
10
2.008082
20
10.546254
30
0.0
11
1.998633
21
10.546254
31
0.0
0
LINE
8
usbl
62
0
5
536
100
AcDbEntity
100
AcDbLine
10
1.998633
20
10.546254
30
0.0
11
1.998633
21
10.568302
31
0.0
0
LINE
8
usbl
62
0
5
537
100
AcDbEntity
100
AcDbLine
10
1.998633
20
10.568302
30
0.0
11
1.998633
21
10.568302
31
0.0
0
LINE
8
usbl
62
0
5
538
100
AcDbEntity
100
AcDbLine
10
1.998633
20
10.517913
30
0.0
11
2.008082
21
10.517913
31
0.0
0
LINE
8
usbl
62
0
5
539
100
AcDbEntity
100
AcDbLine
10
2.008082
20
10.517913
30
0.0
11
2.008082
21
10.495865
31
0.0
0
LINE
8
usbl
62
0
5
53a
100
AcDbEntity
100
AcDbLine
10
2.008082
20
10.495865
30
0.0
11
1.998633
21
10.495865
31
0.0
0
LINE
8
usbl
62
0
5
53b
100
AcDbEntity
100
AcDbLine
10
1.998633
20
10.495865
30
0.0
11
1.998633
21
10.517913
31
0.0
0
LINE
8
usbl
62
0
5
53c
100
AcDbEntity
100
AcDbLine
10
1.998633
20
10.517913
30
0.0
11
1.998633
21
10.517913
31
0.0
0
LINE
8
usbl
62
0
5
53d
100
AcDbEntity
100
AcDbLine
10
1.978156
20
10.517913
30
0.0
11
1.987604
21
10.517913
31
0.0
0
LINE
8
usbl
62
0
5
53e
100
AcDbEntity
100
AcDbLine
10
1.987604
20
10.517913
30
0.0
11
1.987604
21
10.495865
31
0.0
0
LINE
8
usbl
62
0
5
53f
100
AcDbEntity
100
AcDbLine
10
1.987604
20
10.495865
30
0.0
11
1.978156
21
10.495865
31
0.0
0
LINE
8
usbl
62
0
5
540
100
AcDbEntity
100
AcDbLine
10
1.978156
20
10.495865
30
0.0
11
1.978156
21
10.517913
31
0.0
0
LINE
8
usbl
62
0
5
541
100
AcDbEntity
100
AcDbLine
10
1.978156
20
10.517913
30
0.0
11
1.978156
21
10.517913
31
0.0
0
LINE
8
usbl
62
0
5
542
100
AcDbEntity
100
AcDbLine
10
1.957678
20
10.517913
30
0.0
11
1.967127
21
10.517913
31
0.0
0
LINE
8
usbl
62
0
5
543
100
AcDbEntity
100
AcDbLine
10
1.967127
20
10.517913
30
0.0
11
1.967127
21
10.495865
31
0.0
0
LINE
8
usbl
62
0
5
544
100
AcDbEntity
100
AcDbLine
10
1.967127
20
10.495865
30
0.0
11
1.957678
21
10.495865
31
0.0
0
LINE
8
usbl
62
0
5
545
100
AcDbEntity
100
AcDbLine
10
1.957678
20
10.495865
30
0.0
11
1.957678
21
10.517913
31
0.0
0
LINE
8
usbl
62
0
5
546
100
AcDbEntity
100
AcDbLine
10
1.957678
20
10.517913
30
0.0
11
1.957678
21
10.517913
31
0.0
0
LINE
8
usbl
62
0
5
547
100
AcDbEntity
100
AcDbLine
10
2.060833
20
10.911611
30
0.0
11
2.086029
21
10.911611
31
0.0
0
LINE
8
usbl
62
0
5
548
100
AcDbEntity
100
AcDbLine
10
2.086029
20
10.911611
30
0.0
11
2.086029
21
10.873816
31
0.0
0
LINE
8
usbl
62
0
5
549
100
AcDbEntity
100
AcDbLine
10
2.086029
20
10.873816
30
0.0
11
2.060833
21
10.873816
31
0.0
0
LINE
8
usbl
62
0
5
54a
100
AcDbEntity
100
AcDbLine
10
2.060833
20
10.873816
30
0.0
11
2.060833
21
10.911611
31
0.0
0
LINE
8
usbl
62
0
5
54b
100
AcDbEntity
100
AcDbLine
10
2.060833
20
10.911611
30
0.0
11
2.060833
21
10.911611
31
0.0
0
LINE
8
usbl
62
0
5
54c
100
AcDbEntity
100
AcDbLine
10
2.200989
20
10.911611
30
0.0
11
2.226184
21
10.911611
31
0.0
0
LINE
8
usbl
62
0
5
54d
100
AcDbEntity
100
AcDbLine
10
2.226184
20
10.911611
30
0.0
11
2.226184
21
10.873816
31
0.0
0
LINE
8
usbl
62
0
5
54e
100
AcDbEntity
100
AcDbLine
10
2.226184
20
10.873816
30
0.0
11
2.200989
21
10.873816
31
0.0
0
LINE
8
usbl
62
0
5
54f
100
AcDbEntity
100
AcDbLine
10
2.200989
20
10.873816
30
0.0
11
2.200989
21
10.911611
31
0.0
0
LINE
8
usbl
62
0
5
550
100
AcDbEntity
100
AcDbLine
10
2.200989
20
10.911611
30
0.0
11
2.200989
21
10.911611
31
0.0
0
LINE
8
usbl
62
0
5
551
100
AcDbEntity
100
AcDbLine
10
2.060833
20
11.021846
30
0.0
11
2.086029
21
11.021846
31
0.0
0
LINE
8
usbl
62
0
5
552
100
AcDbEntity
100
AcDbLine
10
2.086029
20
11.021846
30
0.0
11
2.086029
21
10.984050
31
0.0
0
LINE
8
usbl
62
0
5
553
100
AcDbEntity
100
AcDbLine
10
2.086029
20
10.984050
30
0.0
11
2.060833
21
10.984050
31
0.0
0
LINE
8
usbl
62
0
5
554
100
AcDbEntity
100
AcDbLine
10
2.060833
20
10.984050
30
0.0
11
2.060833
21
11.021846
31
0.0
0
LINE
8
usbl
62
0
5
555
100
AcDbEntity
100
AcDbLine
10
2.060833
20
11.021846
30
0.0
11
2.060833
21
11.021846
31
0.0
0
LINE
8
usbl
62
0
5
556
100
AcDbEntity
100
AcDbLine
10
2.200989
20
11.021846
30
0.0
11
2.226184
21
11.021846
31
0.0
0
LINE
8
usbl
62
0
5
557
100
AcDbEntity
100
AcDbLine
10
2.226184
20
11.021846
30
0.0
11
2.226184
21
10.984050
31
0.0
0
LINE
8
usbl
62
0
5
558
100
AcDbEntity
100
AcDbLine
10
2.226184
20
10.984050
30
0.0
11
2.200989
21
10.984050
31
0.0
0
LINE
8
usbl
62
0
5
559
100
AcDbEntity
100
AcDbLine
10
2.200989
20
10.984050
30
0.0
11
2.200989
21
11.021846
31
0.0
0
LINE
8
usbl
62
0
5
55a
100
AcDbEntity
100
AcDbLine
10
2.200989
20
11.021846
30
0.0
11
2.200989
21
11.021846
31
0.0
0
LINE
8
usbl
62
0
5
55b
100
AcDbEntity
100
AcDbLine
10
2.052167
20
11.114758
30
0.0
11
2.086811
21
11.114758
31
0.0
0
LINE
8
usbl
62
0
5
55c
100
AcDbEntity
100
AcDbLine
10
2.086811
20
11.114758
30
0.0
11
2.086811
21
11.083265
31
0.0
0
LINE
8
usbl
62
0
5
55d
100
AcDbEntity
100
AcDbLine
10
2.086811
20
11.083265
30
0.0
11
2.052167
21
11.083265
31
0.0
0
LINE
8
usbl
62
0
5
55e
100
AcDbEntity
100
AcDbLine
10
2.052167
20
11.083265
30
0.0
11
2.052167
21
11.114758
31
0.0
0
LINE
8
usbl
62
0
5
55f
100
AcDbEntity
100
AcDbLine
10
2.052167
20
11.114758
30
0.0
11
2.052167
21
11.114758
31
0.0
0
LINE
8
usbl
62
0
5
560
100
AcDbEntity
100
AcDbLine
10
2.052167
20
11.061217
30
0.0
11
2.086811
21
11.061217
31
0.0
0
LINE
8
usbl
62
0
5
561
100
AcDbEntity
100
AcDbLine
10
2.086811
20
11.061217
30
0.0
11
2.086811
21
11.029719
31
0.0
0
LINE
8
usbl
62
0
5
562
100
AcDbEntity
100
AcDbLine
10
2.086811
20
11.029719
30
0.0
11
2.052167
21
11.029719
31
0.0
0
LINE
8
usbl
62
0
5
563
100
AcDbEntity
100
AcDbLine
10
2.052167
20
11.029719
30
0.0
11
2.052167
21
11.061217
31
0.0
0
LINE
8
usbl
62
0
5
564
100
AcDbEntity
100
AcDbLine
10
2.052167
20
11.061217
30
0.0
11
2.052167
21
11.061217
31
0.0
0
LINE
8
usbl
62
0
5
565
100
AcDbEntity
100
AcDbLine
10
0.790751
20
11.536807
30
0.0
11
0.812800
21
11.536807
31
0.0
0
LINE
8
usbl
62
0
5
566
100
AcDbEntity
100
AcDbLine
10
0.812800
20
11.536807
30
0.0
11
0.812800
21
11.508460
31
0.0
0
LINE
8
usbl
62
0
5
567
100
AcDbEntity
100
AcDbLine
10
0.812800
20
11.508460
30
0.0
11
0.790751
21
11.508460
31
0.0
0
LINE
8
usbl
62
0
5
568
100
AcDbEntity
100
AcDbLine
10
0.790751
20
11.508460
30
0.0
11
0.790751
21
11.536807
31
0.0
0
LINE
8
usbl
62
0
5
569
100
AcDbEntity
100
AcDbLine
10
0.790751
20
11.536807
30
0.0
11
0.790751
21
11.536807
31
0.0
0
LINE
8
usbl
62
0
5
56a
100
AcDbEntity
100
AcDbLine
10
0.866341
20
11.552553
30
0.0
11
0.888390
21
11.552553
31
0.0
0
LINE
8
usbl
62
0
5
56b
100
AcDbEntity
100
AcDbLine
10
0.888390
20
11.552553
30
0.0
11
0.888390
21
11.533656
31
0.0
0
LINE
8
usbl
62
0
5
56c
100
AcDbEntity
100
AcDbLine
10
0.888390
20
11.533656
30
0.0
11
0.866341
21
11.533656
31
0.0
0
LINE
8
usbl
62
0
5
56d
100
AcDbEntity
100
AcDbLine
10
0.866341
20
11.533656
30
0.0
11
0.866341
21
11.552553
31
0.0
0
LINE
8
usbl
62
0
5
56e
100
AcDbEntity
100
AcDbLine
10
0.866341
20
11.552553
30
0.0
11
0.866341
21
11.552553
31
0.0
0
LINE
8
usbl
62
0
5
56f
100
AcDbEntity
100
AcDbLine
10
0.866341
20
11.511611
30
0.0
11
0.888390
21
11.511611
31
0.0
0
LINE
8
usbl
62
0
5
570
100
AcDbEntity
100
AcDbLine
10
0.888390
20
11.511611
30
0.0
11
0.888390
21
11.492714
31
0.0
0
LINE
8
usbl
62
0
5
571
100
AcDbEntity
100
AcDbLine
10
0.888390
20
11.492714
30
0.0
11
0.866341
21
11.492714
31
0.0
0
LINE
8
usbl
62
0
5
572
100
AcDbEntity
100
AcDbLine
10
0.866341
20
11.492714
30
0.0
11
0.866341
21
11.511611
31
0.0
0
LINE
8
usbl
62
0
5
573
100
AcDbEntity
100
AcDbLine
10
0.866341
20
11.511611
30
0.0
11
0.866341
21
11.511611
31
0.0
0
LINE
8
usbl
62
0
5
574
100
AcDbEntity
100
AcDbLine
10
0.948233
20
11.505309
30
0.0
11
0.979731
21
11.505309
31
0.0
0
LINE
8
usbl
62
0
5
575
100
AcDbEntity
100
AcDbLine
10
0.979731
20
11.505309
30
0.0
11
0.979731
21
11.470665
31
0.0
0
LINE
8
usbl
62
0
5
576
100
AcDbEntity
100
AcDbLine
10
0.979731
20
11.470665
30
0.0
11
0.948233
21
11.470665
31
0.0
0
LINE
8
usbl
62
0
5
577
100
AcDbEntity
100
AcDbLine
10
0.948233
20
11.470665
30
0.0
11
0.948233
21
11.505309
31
0.0
0
LINE
8
usbl
62
0
5
578
100
AcDbEntity
100
AcDbLine
10
0.948233
20
11.505309
30
0.0
11
0.948233
21
11.505309
31
0.0
0
LINE
8
usbl
62
0
5
579
100
AcDbEntity
100
AcDbLine
10
1.001776
20
11.505309
30
0.0
11
1.033273
21
11.505309
31
0.0
0
LINE
8
usbl
62
0
5
57a
100
AcDbEntity
100
AcDbLine
10
1.033273
20
11.505309
30
0.0
11
1.033273
21
11.470665
31
0.0
0
LINE
8
usbl
62
0
5
57b
100
AcDbEntity
100
AcDbLine
10
1.033273
20
11.470665
30
0.0
11
1.001776
21
11.470665
31
0.0
0
LINE
8
usbl
62
0
5
57c
100
AcDbEntity
100
AcDbLine
10
1.001776
20
11.470665
30
0.0
11
1.001776
21
11.505309
31
0.0
0
LINE
8
usbl
62
0
5
57d
100
AcDbEntity
100
AcDbLine
10
1.001776
20
11.505309
30
0.0
11
1.001776
21
11.505309
31
0.0
0
LINE
8
usbl
62
0
5
57e
100
AcDbEntity
100
AcDbLine
10
2.586033
20
10.629719
30
0.0
11
2.642726
21
10.629719
31
0.0
0
LINE
8
usbl
62
0
5
57f
100
AcDbEntity
100
AcDbLine
10
2.642726
20
10.629719
30
0.0
11
2.642726
21
10.560426
31
0.0
0
LINE
8
usbl
62
0
5
580
100
AcDbEntity
100
AcDbLine
10
2.642726
20
10.560426
30
0.0
11
2.586033
21
10.560426
31
0.0
0
LINE
8
usbl
62
0
5
581
100
AcDbEntity
100
AcDbLine
10
2.586033
20
10.560426
30
0.0
11
2.586033
21
10.629719
31
0.0
0
LINE
8
usbl
62
0
5
582
100
AcDbEntity
100
AcDbLine
10
2.586033
20
10.629719
30
0.0
11
2.586033
21
10.629719
31
0.0
0
LINE
8
usbl
62
0
5
583
100
AcDbEntity
100
AcDbLine
10
2.746656
20
10.629719
30
0.0
11
2.803348
21
10.629719
31
0.0
0
LINE
8
usbl
62
0
5
584
100
AcDbEntity
100
AcDbLine
10
2.803348
20
10.629719
30
0.0
11
2.803348
21
10.560426
31
0.0
0
LINE
8
usbl
62
0
5
585
100
AcDbEntity
100
AcDbLine
10
2.803348
20
10.560426
30
0.0
11
2.746656
21
10.560426
31
0.0
0
LINE
8
usbl
62
0
5
586
100
AcDbEntity
100
AcDbLine
10
2.746656
20
10.560426
30
0.0
11
2.746656
21
10.629719
31
0.0
0
LINE
8
usbl
62
0
5
587
100
AcDbEntity
100
AcDbLine
10
2.746656
20
10.629719
30
0.0
11
2.746656
21
10.629719
31
0.0
0
LINE
8
usbl
62
0
5
588
100
AcDbEntity
100
AcDbLine
10
2.745878
20
10.518069
30
0.0
11
2.794693
21
10.518069
31
0.0
0
LINE
8
usbl
62
0
5
589
100
AcDbEntity
100
AcDbLine
10
2.794693
20
10.518069
30
0.0
11
2.794693
21
10.499171
31
0.0
0
LINE
8
usbl
62
0
5
58a
100
AcDbEntity
100
AcDbLine
10
2.794693
20
10.499171
30
0.0
11
2.745878
21
10.499171
31
0.0
0
LINE
8
usbl
62
0
5
58b
100
AcDbEntity
100
AcDbLine
10
2.745878
20
10.499171
30
0.0
11
2.745878
21
10.518069
31
0.0
0
LINE
8
usbl
62
0
5
58c
100
AcDbEntity
100
AcDbLine
10
2.745878
20
10.518069
30
0.0
11
2.745878
21
10.518069
31
0.0
0
LINE
8
usbl
62
0
5
58d
100
AcDbEntity
100
AcDbLine
10
2.746033
20
10.478069
30
0.0
11
2.794853
21
10.478069
31
0.0
0
LINE
8
usbl
62
0
5
58e
100
AcDbEntity
100
AcDbLine
10
2.794853
20
10.478069
30
0.0
11
2.794853
21
10.459171
31
0.0
0
LINE
8
usbl
62
0
5
58f
100
AcDbEntity
100
AcDbLine
10
2.794853
20
10.459171
30
0.0
11
2.746033
21
10.459171
31
0.0
0
LINE
8
usbl
62
0
5
590
100
AcDbEntity
100
AcDbLine
10
2.746033
20
10.459171
30
0.0
11
2.746033
21
10.478069
31
0.0
0
LINE
8
usbl
62
0
5
591
100
AcDbEntity
100
AcDbLine
10
2.746033
20
10.478069
30
0.0
11
2.746033
21
10.478069
31
0.0
0
LINE
8
usbl
62
0
5
592
100
AcDbEntity
100
AcDbLine
10
2.746033
20
10.438069
30
0.0
11
2.794853
21
10.438069
31
0.0
0
LINE
8
usbl
62
0
5
593
100
AcDbEntity
100
AcDbLine
10
2.794853
20
10.438069
30
0.0
11
2.794853
21
10.419171
31
0.0
0
LINE
8
usbl
62
0
5
594
100
AcDbEntity
100
AcDbLine
10
2.794853
20
10.419171
30
0.0
11
2.746033
21
10.419171
31
0.0
0
LINE
8
usbl
62
0
5
595
100
AcDbEntity
100
AcDbLine
10
2.746033
20
10.419171
30
0.0
11
2.746033
21
10.438069
31
0.0
0
LINE
8
usbl
62
0
5
596
100
AcDbEntity
100
AcDbLine
10
2.746033
20
10.438069
30
0.0
11
2.746033
21
10.438069
31
0.0
0
LINE
8
usbl
62
0
5
597
100
AcDbEntity
100
AcDbLine
10
2.745878
20
10.398069
30
0.0
11
2.794693
21
10.398069
31
0.0
0
LINE
8
usbl
62
0
5
598
100
AcDbEntity
100
AcDbLine
10
2.794693
20
10.398069
30
0.0
11
2.794693
21
10.379171
31
0.0
0
LINE
8
usbl
62
0
5
599
100
AcDbEntity
100
AcDbLine
10
2.794693
20
10.379171
30
0.0
11
2.745878
21
10.379171
31
0.0
0
LINE
8
usbl
62
0
5
59a
100
AcDbEntity
100
AcDbLine
10
2.745878
20
10.379171
30
0.0
11
2.745878
21
10.398069
31
0.0
0
LINE
8
usbl
62
0
5
59b
100
AcDbEntity
100
AcDbLine
10
2.745878
20
10.398069
30
0.0
11
2.745878
21
10.398069
31
0.0
0
LINE
8
usbl
62
0
5
59c
100
AcDbEntity
100
AcDbLine
10
2.575789
20
10.398069
30
0.0
11
2.624608
21
10.398069
31
0.0
0
LINE
8
usbl
62
0
5
59d
100
AcDbEntity
100
AcDbLine
10
2.624608
20
10.398069
30
0.0
11
2.624608
21
10.379171
31
0.0
0
LINE
8
usbl
62
0
5
59e
100
AcDbEntity
100
AcDbLine
10
2.624608
20
10.379171
30
0.0
11
2.575789
21
10.379171
31
0.0
0
LINE
8
usbl
62
0
5
59f
100
AcDbEntity
100
AcDbLine
10
2.575789
20
10.379171
30
0.0
11
2.575789
21
10.398069
31
0.0
0
LINE
8
usbl
62
0
5
5a0
100
AcDbEntity
100
AcDbLine
10
2.575789
20
10.398069
30
0.0
11
2.575789
21
10.398069
31
0.0
0
LINE
8
usbl
62
0
5
5a1
100
AcDbEntity
100
AcDbLine
10
2.575789
20
10.438069
30
0.0
11
2.624608
21
10.438069
31
0.0
0
LINE
8
usbl
62
0
5
5a2
100
AcDbEntity
100
AcDbLine
10
2.624608
20
10.438069
30
0.0
11
2.624608
21
10.419171
31
0.0
0
LINE
8
usbl
62
0
5
5a3
100
AcDbEntity
100
AcDbLine
10
2.624608
20
10.419171
30
0.0
11
2.575789
21
10.419171
31
0.0
0
LINE
8
usbl
62
0
5
5a4
100
AcDbEntity
100
AcDbLine
10
2.575789
20
10.419171
30
0.0
11
2.575789
21
10.438069
31
0.0
0
LINE
8
usbl
62
0
5
5a5
100
AcDbEntity
100
AcDbLine
10
2.575789
20
10.438069
30
0.0
11
2.575789
21
10.438069
31
0.0
0
LINE
8
usbl
62
0
5
5a6
100
AcDbEntity
100
AcDbLine
10
2.575789
20
10.478069
30
0.0
11
2.624608
21
10.478069
31
0.0
0
LINE
8
usbl
62
0
5
5a7
100
AcDbEntity
100
AcDbLine
10
2.624608
20
10.478069
30
0.0
11
2.624608
21
10.459171
31
0.0
0
LINE
8
usbl
62
0
5
5a8
100
AcDbEntity
100
AcDbLine
10
2.624608
20
10.459171
30
0.0
11
2.575789
21
10.459171
31
0.0
0
LINE
8
usbl
62
0
5
5a9
100
AcDbEntity
100
AcDbLine
10
2.575789
20
10.459171
30
0.0
11
2.575789
21
10.478069
31
0.0
0
LINE
8
usbl
62
0
5
5aa
100
AcDbEntity
100
AcDbLine
10
2.575789
20
10.478069
30
0.0
11
2.575789
21
10.478069
31
0.0
0
LINE
8
usbl
62
0
5
5ab
100
AcDbEntity
100
AcDbLine
10
2.575789
20
10.518069
30
0.0
11
2.624608
21
10.518069
31
0.0
0
LINE
8
usbl
62
0
5
5ac
100
AcDbEntity
100
AcDbLine
10
2.624608
20
10.518069
30
0.0
11
2.624608
21
10.499171
31
0.0
0
LINE
8
usbl
62
0
5
5ad
100
AcDbEntity
100
AcDbLine
10
2.624608
20
10.499171
30
0.0
11
2.575789
21
10.499171
31
0.0
0
LINE
8
usbl
62
0
5
5ae
100
AcDbEntity
100
AcDbLine
10
2.575789
20
10.499171
30
0.0
11
2.575789
21
10.518069
31
0.0
0
LINE
8
usbl
62
0
5
5af
100
AcDbEntity
100
AcDbLine
10
2.575789
20
10.518069
30
0.0
11
2.575789
21
10.518069
31
0.0
0
LINE
8
usbl
62
0
5
5b0
100
AcDbEntity
100
AcDbLine
10
2.832011
20
10.634446
30
0.0
11
2.866026
21
10.634446
31
0.0
0
LINE
8
usbl
62
0
5
5b1
100
AcDbEntity
100
AcDbLine
10
2.866026
20
10.634446
30
0.0
11
2.866026
21
10.601373
31
0.0
0
LINE
8
usbl
62
0
5
5b2
100
AcDbEntity
100
AcDbLine
10
2.866026
20
10.601373
30
0.0
11
2.832011
21
10.601373
31
0.0
0
LINE
8
usbl
62
0
5
5b3
100
AcDbEntity
100
AcDbLine
10
2.832011
20
10.601373
30
0.0
11
2.832011
21
10.634446
31
0.0
0
LINE
8
usbl
62
0
5
5b4
100
AcDbEntity
100
AcDbLine
10
2.832011
20
10.634446
30
0.0
11
2.832011
21
10.634446
31
0.0
0
LINE
8
usbl
62
0
5
5b5
100
AcDbEntity
100
AcDbLine
10
2.832011
20
10.579324
30
0.0
11
2.866026
21
10.579324
31
0.0
0
LINE
8
usbl
62
0
5
5b6
100
AcDbEntity
100
AcDbLine
10
2.866026
20
10.579324
30
0.0
11
2.866026
21
10.546256
31
0.0
0
LINE
8
usbl
62
0
5
5b7
100
AcDbEntity
100
AcDbLine
10
2.866026
20
10.546256
30
0.0
11
2.832011
21
10.546256
31
0.0
0
LINE
8
usbl
62
0
5
5b8
100
AcDbEntity
100
AcDbLine
10
2.832011
20
10.546256
30
0.0
11
2.832011
21
10.579324
31
0.0
0
LINE
8
usbl
62
0
5
5b9
100
AcDbEntity
100
AcDbLine
10
2.832011
20
10.579324
30
0.0
11
2.832011
21
10.579324
31
0.0
0
LINE
8
usbl
62
0
5
5ba
100
AcDbEntity
100
AcDbLine
10
2.571856
20
10.831294
30
0.0
11
2.634850
21
10.831294
31
0.0
0
LINE
8
usbl
62
0
5
5bb
100
AcDbEntity
100
AcDbLine
10
2.634850
20
10.831294
30
0.0
11
2.634850
21
10.730509
31
0.0
0
LINE
8
usbl
62
0
5
5bc
100
AcDbEntity
100
AcDbLine
10
2.634850
20
10.730509
30
0.0
11
2.571856
21
10.730509
31
0.0
0
LINE
8
usbl
62
0
5
5bd
100
AcDbEntity
100
AcDbLine
10
2.571856
20
10.730509
30
0.0
11
2.571856
21
10.831294
31
0.0
0
LINE
8
usbl
62
0
5
5be
100
AcDbEntity
100
AcDbLine
10
2.571856
20
10.831294
30
0.0
11
2.571856
21
10.831294
31
0.0
0
LINE
8
usbl
62
0
5
5bf
100
AcDbEntity
100
AcDbLine
10
2.817522
20
10.831294
30
0.0
11
2.880513
21
10.831294
31
0.0
0
LINE
8
usbl
62
0
5
5c0
100
AcDbEntity
100
AcDbLine
10
2.880513
20
10.831294
30
0.0
11
2.880513
21
10.730509
31
0.0
0
LINE
8
usbl
62
0
5
5c1
100
AcDbEntity
100
AcDbLine
10
2.880513
20
10.730509
30
0.0
11
2.817522
21
10.730509
31
0.0
0
LINE
8
usbl
62
0
5
5c2
100
AcDbEntity
100
AcDbLine
10
2.817522
20
10.730509
30
0.0
11
2.817522
21
10.831294
31
0.0
0
LINE
8
usbl
62
0
5
5c3
100
AcDbEntity
100
AcDbLine
10
2.817522
20
10.831294
30
0.0
11
2.817522
21
10.831294
31
0.0
0
LINE
8
usbl
62
0
5
5c4
100
AcDbEntity
100
AcDbLine
10
2.822567
20
10.491136
30
0.0
11
2.856581
21
10.491136
31
0.0
0
LINE
8
usbl
62
0
5
5c5
100
AcDbEntity
100
AcDbLine
10
2.856581
20
10.491136
30
0.0
11
2.856581
21
10.458063
31
0.0
0
LINE
8
usbl
62
0
5
5c6
100
AcDbEntity
100
AcDbLine
10
2.856581
20
10.458063
30
0.0
11
2.822567
21
10.458063
31
0.0
0
LINE
8
usbl
62
0
5
5c7
100
AcDbEntity
100
AcDbLine
10
2.822567
20
10.458063
30
0.0
11
2.822567
21
10.491136
31
0.0
0
LINE
8
usbl
62
0
5
5c8
100
AcDbEntity
100
AcDbLine
10
2.822567
20
10.491136
30
0.0
11
2.822567
21
10.491136
31
0.0
0
LINE
8
usbl
62
0
5
5c9
100
AcDbEntity
100
AcDbLine
10
2.822567
20
10.436024
30
0.0
11
2.856581
21
10.436024
31
0.0
0
LINE
8
usbl
62
0
5
5ca
100
AcDbEntity
100
AcDbLine
10
2.856581
20
10.436024
30
0.0
11
2.856581
21
10.402952
31
0.0
0
LINE
8
usbl
62
0
5
5cb
100
AcDbEntity
100
AcDbLine
10
2.856581
20
10.402952
30
0.0
11
2.822567
21
10.402952
31
0.0
0
LINE
8
usbl
62
0
5
5cc
100
AcDbEntity
100
AcDbLine
10
2.822567
20
10.402952
30
0.0
11
2.822567
21
10.436024
31
0.0
0
LINE
8
usbl
62
0
5
5cd
100
AcDbEntity
100
AcDbLine
10
2.822567
20
10.436024
30
0.0
11
2.822567
21
10.436024
31
0.0
0
LINE
8
usbl
62
0
5
5ce
100
AcDbEntity
100
AcDbLine
10
2.466344
20
10.804523
30
0.0
11
2.551388
21
10.804523
31
0.0
0
LINE
8
usbl
62
0
5
5cf
100
AcDbEntity
100
AcDbLine
10
2.551388
20
10.804523
30
0.0
11
2.551388
21
10.724206
31
0.0
0
LINE
8
usbl
62
0
5
5d0
100
AcDbEntity
100
AcDbLine
10
2.551388
20
10.724206
30
0.0
11
2.466344
21
10.724206
31
0.0
0
LINE
8
usbl
62
0
5
5d1
100
AcDbEntity
100
AcDbLine
10
2.466344
20
10.724206
30
0.0
11
2.466344
21
10.804523
31
0.0
0
LINE
8
usbl
62
0
5
5d2
100
AcDbEntity
100
AcDbLine
10
2.466344
20
10.804523
30
0.0
11
2.466344
21
10.804523
31
0.0
0
LINE
8
usbl
62
0
5
5d3
100
AcDbEntity
100
AcDbLine
10
2.466344
20
10.604523
30
0.0
11
2.551388
21
10.604523
31
0.0
0
LINE
8
usbl
62
0
5
5d4
100
AcDbEntity
100
AcDbLine
10
2.551388
20
10.604523
30
0.0
11
2.551388
21
10.524206
31
0.0
0
LINE
8
usbl
62
0
5
5d5
100
AcDbEntity
100
AcDbLine
10
2.551388
20
10.524206
30
0.0
11
2.466344
21
10.524206
31
0.0
0
LINE
8
usbl
62
0
5
5d6
100
AcDbEntity
100
AcDbLine
10
2.466344
20
10.524206
30
0.0
11
2.466344
21
10.604523
31
0.0
0
LINE
8
usbl
62
0
5
5d7
100
AcDbEntity
100
AcDbLine
10
2.466344
20
10.604523
30
0.0
11
2.466344
21
10.604523
31
0.0
0
LINE
8
usbl
62
0
5
5d8
100
AcDbEntity
100
AcDbLine
10
2.206500
20
10.503736
30
0.0
11
2.300988
21
10.503736
31
0.0
0
LINE
8
usbl
62
0
5
5d9
100
AcDbEntity
100
AcDbLine
10
2.300988
20
10.503736
30
0.0
11
2.300988
21
10.459643
31
0.0
0
LINE
8
usbl
62
0
5
5da
100
AcDbEntity
100
AcDbLine
10
2.300988
20
10.459643
30
0.0
11
2.206500
21
10.459643
31
0.0
0
LINE
8
usbl
62
0
5
5db
100
AcDbEntity
100
AcDbLine
10
2.206500
20
10.459643
30
0.0
11
2.206500
21
10.503736
31
0.0
0
LINE
8
usbl
62
0
5
5dc
100
AcDbEntity
100
AcDbLine
10
2.206500
20
10.503736
30
0.0
11
2.206500
21
10.503736
31
0.0
0
LINE
8
usbl
62
0
5
5dd
100
AcDbEntity
100
AcDbLine
10
2.357678
20
10.503736
30
0.0
11
2.452166
21
10.503736
31
0.0
0
LINE
8
usbl
62
0
5
5de
100
AcDbEntity
100
AcDbLine
10
2.452166
20
10.503736
30
0.0
11
2.452166
21
10.459643
31
0.0
0
LINE
8
usbl
62
0
5
5df
100
AcDbEntity
100
AcDbLine
10
2.452166
20
10.459643
30
0.0
11
2.357678
21
10.459643
31
0.0
0
LINE
8
usbl
62
0
5
5e0
100
AcDbEntity
100
AcDbLine
10
2.357678
20
10.459643
30
0.0
11
2.357678
21
10.503736
31
0.0
0
LINE
8
usbl
62
0
5
5e1
100
AcDbEntity
100
AcDbLine
10
2.357678
20
10.503736
30
0.0
11
2.357678
21
10.503736
31
0.0
0
LINE
8
usbl
62
0
5
5e2
100
AcDbEntity
100
AcDbLine
10
0.726184
20
10.584836
30
0.0
11
0.776579
21
10.584836
31
0.0
0
LINE
8
usbl
62
0
5
5e3
100
AcDbEntity
100
AcDbLine
10
0.776579
20
10.584836
30
0.0
11
0.776579
21
10.575387
31
0.0
0
LINE
8
usbl
62
0
5
5e4
100
AcDbEntity
100
AcDbLine
10
0.776579
20
10.575387
30
0.0
11
0.726184
21
10.575387
31
0.0
0
LINE
8
usbl
62
0
5
5e5
100
AcDbEntity
100
AcDbLine
10
0.726184
20
10.575387
30
0.0
11
0.726184
21
10.584836
31
0.0
0
LINE
8
usbl
62
0
5
5e6
100
AcDbEntity
100
AcDbLine
10
0.726184
20
10.584836
30
0.0
11
0.726184
21
10.584836
31
0.0
0
LINE
8
usbl
62
0
5
5e7
100
AcDbEntity
100
AcDbLine
10
0.726184
20
10.605309
30
0.0
11
0.776579
21
10.605309
31
0.0
0
LINE
8
usbl
62
0
5
5e8
100
AcDbEntity
100
AcDbLine
10
0.776579
20
10.605309
30
0.0
11
0.776579
21
10.595860
31
0.0
0
LINE
8
usbl
62
0
5
5e9
100
AcDbEntity
100
AcDbLine
10
0.776579
20
10.595860
30
0.0
11
0.726184
21
10.595860
31
0.0
0
LINE
8
usbl
62
0
5
5ea
100
AcDbEntity
100
AcDbLine
10
0.726184
20
10.595860
30
0.0
11
0.726184
21
10.605309
31
0.0
0
LINE
8
usbl
62
0
5
5eb
100
AcDbEntity
100
AcDbLine
10
0.726184
20
10.605309
30
0.0
11
0.726184
21
10.605309
31
0.0
0
LINE
8
usbl
62
0
5
5ec
100
AcDbEntity
100
AcDbLine
10
0.726184
20
10.625782
30
0.0
11
0.776579
21
10.625782
31
0.0
0
LINE
8
usbl
62
0
5
5ed
100
AcDbEntity
100
AcDbLine
10
0.776579
20
10.625782
30
0.0
11
0.776579
21
10.616333
31
0.0
0
LINE
8
usbl
62
0
5
5ee
100
AcDbEntity
100
AcDbLine
10
0.776579
20
10.616333
30
0.0
11
0.726184
21
10.616333
31
0.0
0
LINE
8
usbl
62
0
5
5ef
100
AcDbEntity
100
AcDbLine
10
0.726184
20
10.616333
30
0.0
11
0.726184
21
10.625782
31
0.0
0
LINE
8
usbl
62
0
5
5f0
100
AcDbEntity
100
AcDbLine
10
0.726184
20
10.625782
30
0.0
11
0.726184
21
10.625782
31
0.0
0
LINE
8
usbl
62
0
5
5f1
100
AcDbEntity
100
AcDbLine
10
0.726184
20
10.646256
30
0.0
11
0.776579
21
10.646256
31
0.0
0
LINE
8
usbl
62
0
5
5f2
100
AcDbEntity
100
AcDbLine
10
0.776579
20
10.646256
30
0.0
11
0.776579
21
10.636807
31
0.0
0
LINE
8
usbl
62
0
5
5f3
100
AcDbEntity
100
AcDbLine
10
0.776579
20
10.636807
30
0.0
11
0.726184
21
10.636807
31
0.0
0
LINE
8
usbl
62
0
5
5f4
100
AcDbEntity
100
AcDbLine
10
0.726184
20
10.636807
30
0.0
11
0.726184
21
10.646256
31
0.0
0
LINE
8
usbl
62
0
5
5f5
100
AcDbEntity
100
AcDbLine
10
0.726184
20
10.646256
30
0.0
11
0.726184
21
10.646256
31
0.0
0
LINE
8
usbl
62
0
5
5f6
100
AcDbEntity
100
AcDbLine
10
0.726184
20
10.666729
30
0.0
11
0.776579
21
10.666729
31
0.0
0
LINE
8
usbl
62
0
5
5f7
100
AcDbEntity
100
AcDbLine
10
0.776579
20
10.666729
30
0.0
11
0.776579
21
10.657280
31
0.0
0
LINE
8
usbl
62
0
5
5f8
100
AcDbEntity
100
AcDbLine
10
0.776579
20
10.657280
30
0.0
11
0.726184
21
10.657280
31
0.0
0
LINE
8
usbl
62
0
5
5f9
100
AcDbEntity
100
AcDbLine
10
0.726184
20
10.657280
30
0.0
11
0.726184
21
10.666729
31
0.0
0
LINE
8
usbl
62
0
5
5fa
100
AcDbEntity
100
AcDbLine
10
0.726184
20
10.666729
30
0.0
11
0.726184
21
10.666729
31
0.0
0
LINE
8
usbl
62
0
5
5fb
100
AcDbEntity
100
AcDbLine
10
0.726184
20
10.687201
30
0.0
11
0.776579
21
10.687201
31
0.0
0
LINE
8
usbl
62
0
5
5fc
100
AcDbEntity
100
AcDbLine
10
0.776579
20
10.687201
30
0.0
11
0.776579
21
10.677752
31
0.0
0
LINE
8
usbl
62
0
5
5fd
100
AcDbEntity
100
AcDbLine
10
0.776579
20
10.677752
30
0.0
11
0.726184
21
10.677752
31
0.0
0
LINE
8
usbl
62
0
5
5fe
100
AcDbEntity
100
AcDbLine
10
0.726184
20
10.677752
30
0.0
11
0.726184
21
10.687201
31
0.0
0
LINE
8
usbl
62
0
5
5ff
100
AcDbEntity
100
AcDbLine
10
0.726184
20
10.687201
30
0.0
11
0.726184
21
10.687201
31
0.0
0
LINE
8
usbl
62
0
5
600
100
AcDbEntity
100
AcDbLine
10
0.726184
20
10.707674
30
0.0
11
0.776579
21
10.707674
31
0.0
0
LINE
8
usbl
62
0
5
601
100
AcDbEntity
100
AcDbLine
10
0.776579
20
10.707674
30
0.0
11
0.776579
21
10.698221
31
0.0
0
LINE
8
usbl
62
0
5
602
100
AcDbEntity
100
AcDbLine
10
0.776579
20
10.698221
30
0.0
11
0.726184
21
10.698221
31
0.0
0
LINE
8
usbl
62
0
5
603
100
AcDbEntity
100
AcDbLine
10
0.726184
20
10.698221
30
0.0
11
0.726184
21
10.707674
31
0.0
0
LINE
8
usbl
62
0
5
604
100
AcDbEntity
100
AcDbLine
10
0.726184
20
10.707674
30
0.0
11
0.726184
21
10.707674
31
0.0
0
LINE
8
usbl
62
0
5
605
100
AcDbEntity
100
AcDbLine
10
0.726184
20
10.728143
30
0.0
11
0.776579
21
10.728143
31
0.0
0
LINE
8
usbl
62
0
5
606
100
AcDbEntity
100
AcDbLine
10
0.776579
20
10.728143
30
0.0
11
0.776579
21
10.718695
31
0.0
0
LINE
8
usbl
62
0
5
607
100
AcDbEntity
100
AcDbLine
10
0.776579
20
10.718695
30
0.0
11
0.726184
21
10.718695
31
0.0
0
LINE
8
usbl
62
0
5
608
100
AcDbEntity
100
AcDbLine
10
0.726184
20
10.718695
30
0.0
11
0.726184
21
10.728143
31
0.0
0
LINE
8
usbl
62
0
5
609
100
AcDbEntity
100
AcDbLine
10
0.726184
20
10.728143
30
0.0
11
0.726184
21
10.728143
31
0.0
0
LINE
8
usbl
62
0
5
60a
100
AcDbEntity
100
AcDbLine
10
0.726184
20
10.748617
30
0.0
11
0.776579
21
10.748617
31
0.0
0
LINE
8
usbl
62
0
5
60b
100
AcDbEntity
100
AcDbLine
10
0.776579
20
10.748617
30
0.0
11
0.776579
21
10.739168
31
0.0
0
LINE
8
usbl
62
0
5
60c
100
AcDbEntity
100
AcDbLine
10
0.776579
20
10.739168
30
0.0
11
0.726184
21
10.739168
31
0.0
0
LINE
8
usbl
62
0
5
60d
100
AcDbEntity
100
AcDbLine
10
0.726184
20
10.739168
30
0.0
11
0.726184
21
10.748617
31
0.0
0
LINE
8
usbl
62
0
5
60e
100
AcDbEntity
100
AcDbLine
10
0.726184
20
10.748617
30
0.0
11
0.726184
21
10.748617
31
0.0
0
LINE
8
usbl
62
0
5
60f
100
AcDbEntity
100
AcDbLine
10
0.726184
20
10.769090
30
0.0
11
0.776579
21
10.769090
31
0.0
0
LINE
8
usbl
62
0
5
610
100
AcDbEntity
100
AcDbLine
10
0.776579
20
10.769090
30
0.0
11
0.776579
21
10.759641
31
0.0
0
LINE
8
usbl
62
0
5
611
100
AcDbEntity
100
AcDbLine
10
0.776579
20
10.759641
30
0.0
11
0.726184
21
10.759641
31
0.0
0
LINE
8
usbl
62
0
5
612
100
AcDbEntity
100
AcDbLine
10
0.726184
20
10.759641
30
0.0
11
0.726184
21
10.769090
31
0.0
0
LINE
8
usbl
62
0
5
613
100
AcDbEntity
100
AcDbLine
10
0.726184
20
10.769090
30
0.0
11
0.726184
21
10.769090
31
0.0
0
LINE
8
usbl
62
0
5
614
100
AcDbEntity
100
AcDbLine
10
0.726184
20
10.789562
30
0.0
11
0.776579
21
10.789562
31
0.0
0
LINE
8
usbl
62
0
5
615
100
AcDbEntity
100
AcDbLine
10
0.776579
20
10.789562
30
0.0
11
0.776579
21
10.780113
31
0.0
0
LINE
8
usbl
62
0
5
616
100
AcDbEntity
100
AcDbLine
10
0.776579
20
10.780113
30
0.0
11
0.726184
21
10.780113
31
0.0
0
LINE
8
usbl
62
0
5
617
100
AcDbEntity
100
AcDbLine
10
0.726184
20
10.780113
30
0.0
11
0.726184
21
10.789562
31
0.0
0
LINE
8
usbl
62
0
5
618
100
AcDbEntity
100
AcDbLine
10
0.726184
20
10.789562
30
0.0
11
0.726184
21
10.789562
31
0.0
0
LINE
8
usbl
62
0
5
619
100
AcDbEntity
100
AcDbLine
10
0.726184
20
10.810036
30
0.0
11
0.776579
21
10.810036
31
0.0
0
LINE
8
usbl
62
0
5
61a
100
AcDbEntity
100
AcDbLine
10
0.776579
20
10.810036
30
0.0
11
0.776579
21
10.800587
31
0.0
0
LINE
8
usbl
62
0
5
61b
100
AcDbEntity
100
AcDbLine
10
0.776579
20
10.800587
30
0.0
11
0.726184
21
10.800587
31
0.0
0
LINE
8
usbl
62
0
5
61c
100
AcDbEntity
100
AcDbLine
10
0.726184
20
10.800587
30
0.0
11
0.726184
21
10.810036
31
0.0
0
LINE
8
usbl
62
0
5
61d
100
AcDbEntity
100
AcDbLine
10
0.726184
20
10.810036
30
0.0
11
0.726184
21
10.810036
31
0.0
0
LINE
8
usbl
62
0
5
61e
100
AcDbEntity
100
AcDbLine
10
0.726184
20
10.830509
30
0.0
11
0.776579
21
10.830509
31
0.0
0
LINE
8
usbl
62
0
5
61f
100
AcDbEntity
100
AcDbLine
10
0.776579
20
10.830509
30
0.0
11
0.776579
21
10.821060
31
0.0
0
LINE
8
usbl
62
0
5
620
100
AcDbEntity
100
AcDbLine
10
0.776579
20
10.821060
30
0.0
11
0.726184
21
10.821060
31
0.0
0
LINE
8
usbl
62
0
5
621
100
AcDbEntity
100
AcDbLine
10
0.726184
20
10.821060
30
0.0
11
0.726184
21
10.830509
31
0.0
0
LINE
8
usbl
62
0
5
622
100
AcDbEntity
100
AcDbLine
10
0.726184
20
10.830509
30
0.0
11
0.726184
21
10.830509
31
0.0
0
LINE
8
usbl
62
0
5
623
100
AcDbEntity
100
AcDbLine
10
0.726184
20
10.850978
30
0.0
11
0.776579
21
10.850978
31
0.0
0
LINE
8
usbl
62
0
5
624
100
AcDbEntity
100
AcDbLine
10
0.776579
20
10.850978
30
0.0
11
0.776579
21
10.841529
31
0.0
0
LINE
8
usbl
62
0
5
625
100
AcDbEntity
100
AcDbLine
10
0.776579
20
10.841529
30
0.0
11
0.726184
21
10.841529
31
0.0
0
LINE
8
usbl
62
0
5
626
100
AcDbEntity
100
AcDbLine
10
0.726184
20
10.841529
30
0.0
11
0.726184
21
10.850978
31
0.0
0
LINE
8
usbl
62
0
5
627
100
AcDbEntity
100
AcDbLine
10
0.726184
20
10.850978
30
0.0
11
0.726184
21
10.850978
31
0.0
0
LINE
8
usbl
62
0
5
628
100
AcDbEntity
100
AcDbLine
10
0.902566
20
10.850978
30
0.0
11
0.952956
21
10.850978
31
0.0
0
LINE
8
usbl
62
0
5
629
100
AcDbEntity
100
AcDbLine
10
0.952956
20
10.850978
30
0.0
11
0.952956
21
10.841529
31
0.0
0
LINE
8
usbl
62
0
5
62a
100
AcDbEntity
100
AcDbLine
10
0.952956
20
10.841529
30
0.0
11
0.902566
21
10.841529
31
0.0
0
LINE
8
usbl
62
0
5
62b
100
AcDbEntity
100
AcDbLine
10
0.902566
20
10.841529
30
0.0
11
0.902566
21
10.850978
31
0.0
0
LINE
8
usbl
62
0
5
62c
100
AcDbEntity
100
AcDbLine
10
0.902566
20
10.850978
30
0.0
11
0.902566
21
10.850978
31
0.0
0
LINE
8
usbl
62
0
5
62d
100
AcDbEntity
100
AcDbLine
10
0.902566
20
10.830509
30
0.0
11
0.952956
21
10.830509
31
0.0
0
LINE
8
usbl
62
0
5
62e
100
AcDbEntity
100
AcDbLine
10
0.952956
20
10.830509
30
0.0
11
0.952956
21
10.821060
31
0.0
0
LINE
8
usbl
62
0
5
62f
100
AcDbEntity
100
AcDbLine
10
0.952956
20
10.821060
30
0.0
11
0.902566
21
10.821060
31
0.0
0
LINE
8
usbl
62
0
5
630
100
AcDbEntity
100
AcDbLine
10
0.902566
20
10.821060
30
0.0
11
0.902566
21
10.830509
31
0.0
0
LINE
8
usbl
62
0
5
631
100
AcDbEntity
100
AcDbLine
10
0.902566
20
10.830509
30
0.0
11
0.902566
21
10.830509
31
0.0
0
LINE
8
usbl
62
0
5
632
100
AcDbEntity
100
AcDbLine
10
0.902566
20
10.810036
30
0.0
11
0.952956
21
10.810036
31
0.0
0
LINE
8
usbl
62
0
5
633
100
AcDbEntity
100
AcDbLine
10
0.952956
20
10.810036
30
0.0
11
0.952956
21
10.800587
31
0.0
0
LINE
8
usbl
62
0
5
634
100
AcDbEntity
100
AcDbLine
10
0.952956
20
10.800587
30
0.0
11
0.902566
21
10.800587
31
0.0
0
LINE
8
usbl
62
0
5
635
100
AcDbEntity
100
AcDbLine
10
0.902566
20
10.800587
30
0.0
11
0.902566
21
10.810036
31
0.0
0
LINE
8
usbl
62
0
5
636
100
AcDbEntity
100
AcDbLine
10
0.902566
20
10.810036
30
0.0
11
0.902566
21
10.810036
31
0.0
0
LINE
8
usbl
62
0
5
637
100
AcDbEntity
100
AcDbLine
10
0.902566
20
10.789562
30
0.0
11
0.952956
21
10.789562
31
0.0
0
LINE
8
usbl
62
0
5
638
100
AcDbEntity
100
AcDbLine
10
0.952956
20
10.789562
30
0.0
11
0.952956
21
10.780113
31
0.0
0
LINE
8
usbl
62
0
5
639
100
AcDbEntity
100
AcDbLine
10
0.952956
20
10.780113
30
0.0
11
0.902566
21
10.780113
31
0.0
0
LINE
8
usbl
62
0
5
63a
100
AcDbEntity
100
AcDbLine
10
0.902566
20
10.780113
30
0.0
11
0.902566
21
10.789562
31
0.0
0
LINE
8
usbl
62
0
5
63b
100
AcDbEntity
100
AcDbLine
10
0.902566
20
10.789562
30
0.0
11
0.902566
21
10.789562
31
0.0
0
LINE
8
usbl
62
0
5
63c
100
AcDbEntity
100
AcDbLine
10
0.902566
20
10.769090
30
0.0
11
0.952956
21
10.769090
31
0.0
0
LINE
8
usbl
62
0
5
63d
100
AcDbEntity
100
AcDbLine
10
0.952956
20
10.769090
30
0.0
11
0.952956
21
10.759641
31
0.0
0
LINE
8
usbl
62
0
5
63e
100
AcDbEntity
100
AcDbLine
10
0.952956
20
10.759641
30
0.0
11
0.902566
21
10.759641
31
0.0
0
LINE
8
usbl
62
0
5
63f
100
AcDbEntity
100
AcDbLine
10
0.902566
20
10.759641
30
0.0
11
0.902566
21
10.769090
31
0.0
0
LINE
8
usbl
62
0
5
640
100
AcDbEntity
100
AcDbLine
10
0.902566
20
10.769090
30
0.0
11
0.902566
21
10.769090
31
0.0
0
LINE
8
usbl
62
0
5
641
100
AcDbEntity
100
AcDbLine
10
0.902566
20
10.748617
30
0.0
11
0.952956
21
10.748617
31
0.0
0
LINE
8
usbl
62
0
5
642
100
AcDbEntity
100
AcDbLine
10
0.952956
20
10.748617
30
0.0
11
0.952956
21
10.739168
31
0.0
0
LINE
8
usbl
62
0
5
643
100
AcDbEntity
100
AcDbLine
10
0.952956
20
10.739168
30
0.0
11
0.902566
21
10.739168
31
0.0
0
LINE
8
usbl
62
0
5
644
100
AcDbEntity
100
AcDbLine
10
0.902566
20
10.739168
30
0.0
11
0.902566
21
10.748617
31
0.0
0
LINE
8
usbl
62
0
5
645
100
AcDbEntity
100
AcDbLine
10
0.902566
20
10.748617
30
0.0
11
0.902566
21
10.748617
31
0.0
0
LINE
8
usbl
62
0
5
646
100
AcDbEntity
100
AcDbLine
10
0.902566
20
10.728143
30
0.0
11
0.952956
21
10.728143
31
0.0
0
LINE
8
usbl
62
0
5
647
100
AcDbEntity
100
AcDbLine
10
0.952956
20
10.728143
30
0.0
11
0.952956
21
10.718695
31
0.0
0
LINE
8
usbl
62
0
5
648
100
AcDbEntity
100
AcDbLine
10
0.952956
20
10.718695
30
0.0
11
0.902566
21
10.718695
31
0.0
0
LINE
8
usbl
62
0
5
649
100
AcDbEntity
100
AcDbLine
10
0.902566
20
10.718695
30
0.0
11
0.902566
21
10.728143
31
0.0
0
LINE
8
usbl
62
0
5
64a
100
AcDbEntity
100
AcDbLine
10
0.902566
20
10.728143
30
0.0
11
0.902566
21
10.728143
31
0.0
0
LINE
8
usbl
62
0
5
64b
100
AcDbEntity
100
AcDbLine
10
0.902566
20
10.707674
30
0.0
11
0.952956
21
10.707674
31
0.0
0
LINE
8
usbl
62
0
5
64c
100
AcDbEntity
100
AcDbLine
10
0.952956
20
10.707674
30
0.0
11
0.952956
21
10.698221
31
0.0
0
LINE
8
usbl
62
0
5
64d
100
AcDbEntity
100
AcDbLine
10
0.952956
20
10.698221
30
0.0
11
0.902566
21
10.698221
31
0.0
0
LINE
8
usbl
62
0
5
64e
100
AcDbEntity
100
AcDbLine
10
0.902566
20
10.698221
30
0.0
11
0.902566
21
10.707674
31
0.0
0
LINE
8
usbl
62
0
5
64f
100
AcDbEntity
100
AcDbLine
10
0.902566
20
10.707674
30
0.0
11
0.902566
21
10.707674
31
0.0
0
LINE
8
usbl
62
0
5
650
100
AcDbEntity
100
AcDbLine
10
0.902566
20
10.687201
30
0.0
11
0.952956
21
10.687201
31
0.0
0
LINE
8
usbl
62
0
5
651
100
AcDbEntity
100
AcDbLine
10
0.952956
20
10.687201
30
0.0
11
0.952956
21
10.677752
31
0.0
0
LINE
8
usbl
62
0
5
652
100
AcDbEntity
100
AcDbLine
10
0.952956
20
10.677752
30
0.0
11
0.902566
21
10.677752
31
0.0
0
LINE
8
usbl
62
0
5
653
100
AcDbEntity
100
AcDbLine
10
0.902566
20
10.677752
30
0.0
11
0.902566
21
10.687201
31
0.0
0
LINE
8
usbl
62
0
5
654
100
AcDbEntity
100
AcDbLine
10
0.902566
20
10.687201
30
0.0
11
0.902566
21
10.687201
31
0.0
0
LINE
8
usbl
62
0
5
655
100
AcDbEntity
100
AcDbLine
10
0.902566
20
10.666729
30
0.0
11
0.952956
21
10.666729
31
0.0
0
LINE
8
usbl
62
0
5
656
100
AcDbEntity
100
AcDbLine
10
0.952956
20
10.666729
30
0.0
11
0.952956
21
10.657280
31
0.0
0
LINE
8
usbl
62
0
5
657
100
AcDbEntity
100
AcDbLine
10
0.952956
20
10.657280
30
0.0
11
0.902566
21
10.657280
31
0.0
0
LINE
8
usbl
62
0
5
658
100
AcDbEntity
100
AcDbLine
10
0.902566
20
10.657280
30
0.0
11
0.902566
21
10.666729
31
0.0
0
LINE
8
usbl
62
0
5
659
100
AcDbEntity
100
AcDbLine
10
0.902566
20
10.666729
30
0.0
11
0.902566
21
10.666729
31
0.0
0
LINE
8
usbl
62
0
5
65a
100
AcDbEntity
100
AcDbLine
10
0.902566
20
10.646256
30
0.0
11
0.952956
21
10.646256
31
0.0
0
LINE
8
usbl
62
0
5
65b
100
AcDbEntity
100
AcDbLine
10
0.952956
20
10.646256
30
0.0
11
0.952956
21
10.636807
31
0.0
0
LINE
8
usbl
62
0
5
65c
100
AcDbEntity
100
AcDbLine
10
0.952956
20
10.636807
30
0.0
11
0.902566
21
10.636807
31
0.0
0
LINE
8
usbl
62
0
5
65d
100
AcDbEntity
100
AcDbLine
10
0.902566
20
10.636807
30
0.0
11
0.902566
21
10.646256
31
0.0
0
LINE
8
usbl
62
0
5
65e
100
AcDbEntity
100
AcDbLine
10
0.902566
20
10.646256
30
0.0
11
0.902566
21
10.646256
31
0.0
0
LINE
8
usbl
62
0
5
65f
100
AcDbEntity
100
AcDbLine
10
0.902566
20
10.625782
30
0.0
11
0.952956
21
10.625782
31
0.0
0
LINE
8
usbl
62
0
5
660
100
AcDbEntity
100
AcDbLine
10
0.952956
20
10.625782
30
0.0
11
0.952956
21
10.616333
31
0.0
0
LINE
8
usbl
62
0
5
661
100
AcDbEntity
100
AcDbLine
10
0.952956
20
10.616333
30
0.0
11
0.902566
21
10.616333
31
0.0
0
LINE
8
usbl
62
0
5
662
100
AcDbEntity
100
AcDbLine
10
0.902566
20
10.616333
30
0.0
11
0.902566
21
10.625782
31
0.0
0
LINE
8
usbl
62
0
5
663
100
AcDbEntity
100
AcDbLine
10
0.902566
20
10.625782
30
0.0
11
0.902566
21
10.625782
31
0.0
0
LINE
8
usbl
62
0
5
664
100
AcDbEntity
100
AcDbLine
10
0.902566
20
10.605309
30
0.0
11
0.952956
21
10.605309
31
0.0
0
LINE
8
usbl
62
0
5
665
100
AcDbEntity
100
AcDbLine
10
0.952956
20
10.605309
30
0.0
11
0.952956
21
10.595860
31
0.0
0
LINE
8
usbl
62
0
5
666
100
AcDbEntity
100
AcDbLine
10
0.952956
20
10.595860
30
0.0
11
0.902566
21
10.595860
31
0.0
0
LINE
8
usbl
62
0
5
667
100
AcDbEntity
100
AcDbLine
10
0.902566
20
10.595860
30
0.0
11
0.902566
21
10.605309
31
0.0
0
LINE
8
usbl
62
0
5
668
100
AcDbEntity
100
AcDbLine
10
0.902566
20
10.605309
30
0.0
11
0.902566
21
10.605309
31
0.0
0
LINE
8
usbl
62
0
5
669
100
AcDbEntity
100
AcDbLine
10
0.902566
20
10.584836
30
0.0
11
0.952956
21
10.584836
31
0.0
0
LINE
8
usbl
62
0
5
66a
100
AcDbEntity
100
AcDbLine
10
0.952956
20
10.584836
30
0.0
11
0.952956
21
10.575387
31
0.0
0
LINE
8
usbl
62
0
5
66b
100
AcDbEntity
100
AcDbLine
10
0.952956
20
10.575387
30
0.0
11
0.902566
21
10.575387
31
0.0
0
LINE
8
usbl
62
0
5
66c
100
AcDbEntity
100
AcDbLine
10
0.902566
20
10.575387
30
0.0
11
0.902566
21
10.584836
31
0.0
0
LINE
8
usbl
62
0
5
66d
100
AcDbEntity
100
AcDbLine
10
0.902566
20
10.584836
30
0.0
11
0.902566
21
10.584836
31
0.0
0
LINE
8
usbl
62
0
5
66e
100
AcDbEntity
100
AcDbLine
10
0.510439
20
10.691138
30
0.0
11
0.551385
21
10.691138
31
0.0
0
LINE
8
usbl
62
0
5
66f
100
AcDbEntity
100
AcDbLine
10
0.551385
20
10.691138
30
0.0
11
0.551385
21
10.643894
31
0.0
0
LINE
8
usbl
62
0
5
670
100
AcDbEntity
100
AcDbLine
10
0.551385
20
10.643894
30
0.0
11
0.510439
21
10.643894
31
0.0
0
LINE
8
usbl
62
0
5
671
100
AcDbEntity
100
AcDbLine
10
0.510439
20
10.643894
30
0.0
11
0.510439
21
10.691138
31
0.0
0
LINE
8
usbl
62
0
5
672
100
AcDbEntity
100
AcDbLine
10
0.510439
20
10.691138
30
0.0
11
0.510439
21
10.691138
31
0.0
0
LINE
8
usbl
62
0
5
673
100
AcDbEntity
100
AcDbLine
10
0.570282
20
10.691138
30
0.0
11
0.611224
21
10.691138
31
0.0
0
LINE
8
usbl
62
0
5
674
100
AcDbEntity
100
AcDbLine
10
0.611224
20
10.691138
30
0.0
11
0.611224
21
10.643894
31
0.0
0
LINE
8
usbl
62
0
5
675
100
AcDbEntity
100
AcDbLine
10
0.611224
20
10.643894
30
0.0
11
0.570282
21
10.643894
31
0.0
0
LINE
8
usbl
62
0
5
676
100
AcDbEntity
100
AcDbLine
10
0.570282
20
10.643894
30
0.0
11
0.570282
21
10.691138
31
0.0
0
LINE
8
usbl
62
0
5
677
100
AcDbEntity
100
AcDbLine
10
0.570282
20
10.691138
30
0.0
11
0.570282
21
10.691138
31
0.0
0
LINE
8
usbl
62
0
5
678
100
AcDbEntity
100
AcDbLine
10
0.512014
20
10.782474
30
0.0
11
0.552956
21
10.782474
31
0.0
0
LINE
8
usbl
62
0
5
679
100
AcDbEntity
100
AcDbLine
10
0.552956
20
10.782474
30
0.0
11
0.552956
21
10.735231
31
0.0
0
LINE
8
usbl
62
0
5
67a
100
AcDbEntity
100
AcDbLine
10
0.552956
20
10.735231
30
0.0
11
0.512014
21
10.735231
31
0.0
0
LINE
8
usbl
62
0
5
67b
100
AcDbEntity
100
AcDbLine
10
0.512014
20
10.735231
30
0.0
11
0.512014
21
10.782474
31
0.0
0
LINE
8
usbl
62
0
5
67c
100
AcDbEntity
100
AcDbLine
10
0.512014
20
10.782474
30
0.0
11
0.512014
21
10.782474
31
0.0
0
LINE
8
usbl
62
0
5
67d
100
AcDbEntity
100
AcDbLine
10
0.571853
20
10.782474
30
0.0
11
0.612800
21
10.782474
31
0.0
0
LINE
8
usbl
62
0
5
67e
100
AcDbEntity
100
AcDbLine
10
0.612800
20
10.782474
30
0.0
11
0.612800
21
10.735231
31
0.0
0
LINE
8
usbl
62
0
5
67f
100
AcDbEntity
100
AcDbLine
10
0.612800
20
10.735231
30
0.0
11
0.571853
21
10.735231
31
0.0
0
LINE
8
usbl
62
0
5
680
100
AcDbEntity
100
AcDbLine
10
0.571853
20
10.735231
30
0.0
11
0.571853
21
10.782474
31
0.0
0
LINE
8
usbl
62
0
5
681
100
AcDbEntity
100
AcDbLine
10
0.571853
20
10.782474
30
0.0
11
0.571853
21
10.782474
31
0.0
0
LINE
8
usbl
62
0
5
682
100
AcDbEntity
100
AcDbLine
10
0.663194
20
10.544680
30
0.0
11
0.697839
21
10.544680
31
0.0
0
LINE
8
usbl
62
0
5
683
100
AcDbEntity
100
AcDbLine
10
0.697839
20
10.544680
30
0.0
11
0.697839
21
10.513183
31
0.0
0
LINE
8
usbl
62
0
5
684
100
AcDbEntity
100
AcDbLine
10
0.697839
20
10.513183
30
0.0
11
0.663194
21
10.513183
31
0.0
0
LINE
8
usbl
62
0
5
685
100
AcDbEntity
100
AcDbLine
10
0.663194
20
10.513183
30
0.0
11
0.663194
21
10.544680
31
0.0
0
LINE
8
usbl
62
0
5
686
100
AcDbEntity
100
AcDbLine
10
0.663194
20
10.544680
30
0.0
11
0.663194
21
10.544680
31
0.0
0
LINE
8
usbl
62
0
5
687
100
AcDbEntity
100
AcDbLine
10
0.609649
20
10.544680
30
0.0
11
0.644297
21
10.544680
31
0.0
0
LINE
8
usbl
62
0
5
688
100
AcDbEntity
100
AcDbLine
10
0.644297
20
10.544680
30
0.0
11
0.644297
21
10.513183
31
0.0
0
LINE
8
usbl
62
0
5
689
100
AcDbEntity
100
AcDbLine
10
0.644297
20
10.513183
30
0.0
11
0.609649
21
10.513183
31
0.0
0
LINE
8
usbl
62
0
5
68a
100
AcDbEntity
100
AcDbLine
10
0.609649
20
10.513183
30
0.0
11
0.609649
21
10.544680
31
0.0
0
LINE
8
usbl
62
0
5
68b
100
AcDbEntity
100
AcDbLine
10
0.609649
20
10.544680
30
0.0
11
0.609649
21
10.544680
31
0.0
0
LINE
8
usbl
62
0
5
68c
100
AcDbEntity
100
AcDbLine
10
0.708863
20
10.546258
30
0.0
11
0.743507
21
10.546258
31
0.0
0
LINE
8
usbl
62
0
5
68d
100
AcDbEntity
100
AcDbLine
10
0.743507
20
10.546258
30
0.0
11
0.743507
21
10.514760
31
0.0
0
LINE
8
usbl
62
0
5
68e
100
AcDbEntity
100
AcDbLine
10
0.743507
20
10.514760
30
0.0
11
0.708863
21
10.514760
31
0.0
0
LINE
8
usbl
62
0
5
68f
100
AcDbEntity
100
AcDbLine
10
0.708863
20
10.514760
30
0.0
11
0.708863
21
10.546258
31
0.0
0
LINE
8
usbl
62
0
5
690
100
AcDbEntity
100
AcDbLine
10
0.708863
20
10.546258
30
0.0
11
0.708863
21
10.546258
31
0.0
0
LINE
8
usbl
62
0
5
691
100
AcDbEntity
100
AcDbLine
10
0.762404
20
10.546258
30
0.0
11
0.797053
21
10.546258
31
0.0
0
LINE
8
usbl
62
0
5
692
100
AcDbEntity
100
AcDbLine
10
0.797053
20
10.546258
30
0.0
11
0.797053
21
10.514760
31
0.0
0
LINE
8
usbl
62
0
5
693
100
AcDbEntity
100
AcDbLine
10
0.797053
20
10.514760
30
0.0
11
0.762404
21
10.514760
31
0.0
0
LINE
8
usbl
62
0
5
694
100
AcDbEntity
100
AcDbLine
10
0.762404
20
10.514760
30
0.0
11
0.762404
21
10.546258
31
0.0
0
LINE
8
usbl
62
0
5
695
100
AcDbEntity
100
AcDbLine
10
0.762404
20
10.546258
30
0.0
11
0.762404
21
10.546258
31
0.0
0
LINE
8
usbl
62
0
5
696
100
AcDbEntity
100
AcDbLine
10
0.597053
20
10.883264
30
0.0
11
0.631697
21
10.883264
31
0.0
0
LINE
8
usbl
62
0
5
697
100
AcDbEntity
100
AcDbLine
10
0.631697
20
10.883264
30
0.0
11
0.631697
21
10.851767
31
0.0
0
LINE
8
usbl
62
0
5
698
100
AcDbEntity
100
AcDbLine
10
0.631697
20
10.851767
30
0.0
11
0.597053
21
10.851767
31
0.0
0
LINE
8
usbl
62
0
5
699
100
AcDbEntity
100
AcDbLine
10
0.597053
20
10.851767
30
0.0
11
0.597053
21
10.883264
31
0.0
0
LINE
8
usbl
62
0
5
69a
100
AcDbEntity
100
AcDbLine
10
0.597053
20
10.883264
30
0.0
11
0.597053
21
10.883264
31
0.0
0
LINE
8
usbl
62
0
5
69b
100
AcDbEntity
100
AcDbLine
10
0.543507
20
10.883264
30
0.0
11
0.578155
21
10.883264
31
0.0
0
LINE
8
usbl
62
0
5
69c
100
AcDbEntity
100
AcDbLine
10
0.578155
20
10.883264
30
0.0
11
0.578155
21
10.851767
31
0.0
0
LINE
8
usbl
62
0
5
69d
100
AcDbEntity
100
AcDbLine
10
0.578155
20
10.851767
30
0.0
11
0.543507
21
10.851767
31
0.0
0
LINE
8
usbl
62
0
5
69e
100
AcDbEntity
100
AcDbLine
10
0.543507
20
10.851767
30
0.0
11
0.543507
21
10.883264
31
0.0
0
LINE
8
usbl
62
0
5
69f
100
AcDbEntity
100
AcDbLine
10
0.543507
20
10.883264
30
0.0
11
0.543507
21
10.883264
31
0.0
0
LINE
8
usbl
62
0
5
6a0
100
AcDbEntity
100
AcDbLine
10
0.790751
20
10.943104
30
0.0
11
0.812800
21
10.943104
31
0.0
0
LINE
8
usbl
62
0
5
6a1
100
AcDbEntity
100
AcDbLine
10
0.812800
20
10.943104
30
0.0
11
0.812800
21
10.914758
31
0.0
0
LINE
8
usbl
62
0
5
6a2
100
AcDbEntity
100
AcDbLine
10
0.812800
20
10.914758
30
0.0
11
0.790751
21
10.914758
31
0.0
0
LINE
8
usbl
62
0
5
6a3
100
AcDbEntity
100
AcDbLine
10
0.790751
20
10.914758
30
0.0
11
0.790751
21
10.943104
31
0.0
0
LINE
8
usbl
62
0
5
6a4
100
AcDbEntity
100
AcDbLine
10
0.790751
20
10.943104
30
0.0
11
0.790751
21
10.943104
31
0.0
0
LINE
8
usbl
62
0
5
6a5
100
AcDbEntity
100
AcDbLine
10
0.866341
20
10.958856
30
0.0
11
0.888390
21
10.958856
31
0.0
0
LINE
8
usbl
62
0
5
6a6
100
AcDbEntity
100
AcDbLine
10
0.888390
20
10.958856
30
0.0
11
0.888390
21
10.939958
31
0.0
0
LINE
8
usbl
62
0
5
6a7
100
AcDbEntity
100
AcDbLine
10
0.888390
20
10.939958
30
0.0
11
0.866341
21
10.939958
31
0.0
0
LINE
8
usbl
62
0
5
6a8
100
AcDbEntity
100
AcDbLine
10
0.866341
20
10.939958
30
0.0
11
0.866341
21
10.958856
31
0.0
0
LINE
8
usbl
62
0
5
6a9
100
AcDbEntity
100
AcDbLine
10
0.866341
20
10.958856
30
0.0
11
0.866341
21
10.958856
31
0.0
0
LINE
8
usbl
62
0
5
6aa
100
AcDbEntity
100
AcDbLine
10
0.866341
20
10.917909
30
0.0
11
0.888390
21
10.917909
31
0.0
0
LINE
8
usbl
62
0
5
6ab
100
AcDbEntity
100
AcDbLine
10
0.888390
20
10.917909
30
0.0
11
0.888390
21
10.899011
31
0.0
0
LINE
8
usbl
62
0
5
6ac
100
AcDbEntity
100
AcDbLine
10
0.888390
20
10.899011
30
0.0
11
0.866341
21
10.899011
31
0.0
0
LINE
8
usbl
62
0
5
6ad
100
AcDbEntity
100
AcDbLine
10
0.866341
20
10.899011
30
0.0
11
0.866341
21
10.917909
31
0.0
0
LINE
8
usbl
62
0
5
6ae
100
AcDbEntity
100
AcDbLine
10
0.866341
20
10.917909
30
0.0
11
0.866341
21
10.917909
31
0.0
0
LINE
8
usbl
62
0
5
6af
100
AcDbEntity
100
AcDbLine
10
0.962404
20
10.949407
30
0.0
11
0.997053
21
10.949407
31
0.0
0
LINE
8
usbl
62
0
5
6b0
100
AcDbEntity
100
AcDbLine
10
0.997053
20
10.949407
30
0.0
11
0.997053
21
10.917909
31
0.0
0
LINE
8
usbl
62
0
5
6b1
100
AcDbEntity
100
AcDbLine
10
0.997053
20
10.917909
30
0.0
11
0.962404
21
10.917909
31
0.0
0
LINE
8
usbl
62
0
5
6b2
100
AcDbEntity
100
AcDbLine
10
0.962404
20
10.917909
30
0.0
11
0.962404
21
10.949407
31
0.0
0
LINE
8
usbl
62
0
5
6b3
100
AcDbEntity
100
AcDbLine
10
0.962404
20
10.949407
30
0.0
11
0.962404
21
10.949407
31
0.0
0
LINE
8
usbl
62
0
5
6b4
100
AcDbEntity
100
AcDbLine
10
0.962404
20
10.895860
30
0.0
11
0.997053
21
10.895860
31
0.0
0
LINE
8
usbl
62
0
5
6b5
100
AcDbEntity
100
AcDbLine
10
0.997053
20
10.895860
30
0.0
11
0.997053
21
10.864367
31
0.0
0
LINE
8
usbl
62
0
5
6b6
100
AcDbEntity
100
AcDbLine
10
0.997053
20
10.864367
30
0.0
11
0.962404
21
10.864367
31
0.0
0
LINE
8
usbl
62
0
5
6b7
100
AcDbEntity
100
AcDbLine
10
0.962404
20
10.864367
30
0.0
11
0.962404
21
10.895860
31
0.0
0
LINE
8
usbl
62
0
5
6b8
100
AcDbEntity
100
AcDbLine
10
0.962404
20
10.895860
30
0.0
11
0.962404
21
10.895860
31
0.0
0
LINE
8
usbl
62
0
5
6b9
100
AcDbEntity
100
AcDbLine
10
1.083668
20
10.732080
30
0.0
11
1.105712
21
10.732080
31
0.0
0
LINE
8
usbl
62
0
5
6ba
100
AcDbEntity
100
AcDbLine
10
1.105712
20
10.732080
30
0.0
11
1.105712
21
10.722631
31
0.0
0
LINE
8
usbl
62
0
5
6bb
100
AcDbEntity
100
AcDbLine
10
1.105712
20
10.722631
30
0.0
11
1.083668
21
10.722631
31
0.0
0
LINE
8
usbl
62
0
5
6bc
100
AcDbEntity
100
AcDbLine
10
1.083668
20
10.722631
30
0.0
11
1.083668
21
10.732080
31
0.0
0
LINE
8
usbl
62
0
5
6bd
100
AcDbEntity
100
AcDbLine
10
1.083668
20
10.732080
30
0.0
11
1.083668
21
10.732080
31
0.0
0
LINE
8
usbl
62
0
5
6be
100
AcDbEntity
100
AcDbLine
10
1.083668
20
10.752553
30
0.0
11
1.105712
21
10.752553
31
0.0
0
LINE
8
usbl
62
0
5
6bf
100
AcDbEntity
100
AcDbLine
10
1.105712
20
10.752553
30
0.0
11
1.105712
21
10.743105
31
0.0
0
LINE
8
usbl
62
0
5
6c0
100
AcDbEntity
100
AcDbLine
10
1.105712
20
10.743105
30
0.0
11
1.083668
21
10.743105
31
0.0
0
LINE
8
usbl
62
0
5
6c1
100
AcDbEntity
100
AcDbLine
10
1.083668
20
10.743105
30
0.0
11
1.083668
21
10.752553
31
0.0
0
LINE
8
usbl
62
0
5
6c2
100
AcDbEntity
100
AcDbLine
10
1.083668
20
10.752553
30
0.0
11
1.083668
21
10.752553
31
0.0
0
LINE
8
usbl
62
0
5
6c3
100
AcDbEntity
100
AcDbLine
10
1.083668
20
10.773027
30
0.0
11
1.105712
21
10.773027
31
0.0
0
LINE
8
usbl
62
0
5
6c4
100
AcDbEntity
100
AcDbLine
10
1.105712
20
10.773027
30
0.0
11
1.105712
21
10.763578
31
0.0
0
LINE
8
usbl
62
0
5
6c5
100
AcDbEntity
100
AcDbLine
10
1.105712
20
10.763578
30
0.0
11
1.083668
21
10.763578
31
0.0
0
LINE
8
usbl
62
0
5
6c6
100
AcDbEntity
100
AcDbLine
10
1.083668
20
10.763578
30
0.0
11
1.083668
21
10.773027
31
0.0
0
LINE
8
usbl
62
0
5
6c7
100
AcDbEntity
100
AcDbLine
10
1.083668
20
10.773027
30
0.0
11
1.083668
21
10.773027
31
0.0
0
LINE
8
usbl
62
0
5
6c8
100
AcDbEntity
100
AcDbLine
10
1.134056
20
10.773027
30
0.0
11
1.156104
21
10.773027
31
0.0
0
LINE
8
usbl
62
0
5
6c9
100
AcDbEntity
100
AcDbLine
10
1.156104
20
10.773027
30
0.0
11
1.156104
21
10.763578
31
0.0
0
LINE
8
usbl
62
0
5
6ca
100
AcDbEntity
100
AcDbLine
10
1.156104
20
10.763578
30
0.0
11
1.134056
21
10.763578
31
0.0
0
LINE
8
usbl
62
0
5
6cb
100
AcDbEntity
100
AcDbLine
10
1.134056
20
10.763578
30
0.0
11
1.134056
21
10.773027
31
0.0
0
LINE
8
usbl
62
0
5
6cc
100
AcDbEntity
100
AcDbLine
10
1.134056
20
10.773027
30
0.0
11
1.134056
21
10.773027
31
0.0
0
LINE
8
usbl
62
0
5
6cd
100
AcDbEntity
100
AcDbLine
10
1.134056
20
10.752553
30
0.0
11
1.156104
21
10.752553
31
0.0
0
LINE
8
usbl
62
0
5
6ce
100
AcDbEntity
100
AcDbLine
10
1.156104
20
10.752553
30
0.0
11
1.156104
21
10.743105
31
0.0
0
LINE
8
usbl
62
0
5
6cf
100
AcDbEntity
100
AcDbLine
10
1.156104
20
10.743105
30
0.0
11
1.134056
21
10.743105
31
0.0
0
LINE
8
usbl
62
0
5
6d0
100
AcDbEntity
100
AcDbLine
10
1.134056
20
10.743105
30
0.0
11
1.134056
21
10.752553
31
0.0
0
LINE
8
usbl
62
0
5
6d1
100
AcDbEntity
100
AcDbLine
10
1.134056
20
10.752553
30
0.0
11
1.134056
21
10.752553
31
0.0
0
LINE
8
usbl
62
0
5
6d2
100
AcDbEntity
100
AcDbLine
10
1.134056
20
10.732080
30
0.0
11
1.156104
21
10.732080
31
0.0
0
LINE
8
usbl
62
0
5
6d3
100
AcDbEntity
100
AcDbLine
10
1.156104
20
10.732080
30
0.0
11
1.156104
21
10.722631
31
0.0
0
LINE
8
usbl
62
0
5
6d4
100
AcDbEntity
100
AcDbLine
10
1.156104
20
10.722631
30
0.0
11
1.134056
21
10.722631
31
0.0
0
LINE
8
usbl
62
0
5
6d5
100
AcDbEntity
100
AcDbLine
10
1.134056
20
10.722631
30
0.0
11
1.134056
21
10.732080
31
0.0
0
LINE
8
usbl
62
0
5
6d6
100
AcDbEntity
100
AcDbLine
10
1.134056
20
10.732080
30
0.0
11
1.134056
21
10.732080
31
0.0
0
LINE
8
usbl
62
0
5
6d7
100
AcDbEntity
100
AcDbLine
10
2.241144
20
11.445470
30
0.0
11
2.256891
21
11.445470
31
0.0
0
LINE
8
usbl
62
0
5
6d8
100
AcDbEntity
100
AcDbLine
10
2.256891
20
11.445470
30
0.0
11
2.256891
21
11.429719
31
0.0
0
LINE
8
usbl
62
0
5
6d9
100
AcDbEntity
100
AcDbLine
10
2.256891
20
11.429719
30
0.0
11
2.241144
21
11.429719
31
0.0
0
LINE
8
usbl
62
0
5
6da
100
AcDbEntity
100
AcDbLine
10
2.241144
20
11.429719
30
0.0
11
2.241144
21
11.445470
31
0.0
0
LINE
8
usbl
62
0
5
6db
100
AcDbEntity
100
AcDbLine
10
2.241144
20
11.445470
30
0.0
11
2.241144
21
11.445470
31
0.0
0
LINE
8
usbl
62
0
5
6dc
100
AcDbEntity
100
AcDbLine
10
2.241144
20
11.475388
30
0.0
11
2.256891
21
11.475388
31
0.0
0
LINE
8
usbl
62
0
5
6dd
100
AcDbEntity
100
AcDbLine
10
2.256891
20
11.475388
30
0.0
11
2.256891
21
11.459641
31
0.0
0
LINE
8
usbl
62
0
5
6de
100
AcDbEntity
100
AcDbLine
10
2.256891
20
11.459641
30
0.0
11
2.241144
21
11.459641
31
0.0
0
LINE
8
usbl
62
0
5
6df
100
AcDbEntity
100
AcDbLine
10
2.241144
20
11.459641
30
0.0
11
2.241144
21
11.475388
31
0.0
0
LINE
8
usbl
62
0
5
6e0
100
AcDbEntity
100
AcDbLine
10
2.241144
20
11.475388
30
0.0
11
2.241144
21
11.475388
31
0.0
0
LINE
8
usbl
62
0
5
6e1
100
AcDbEntity
100
AcDbLine
10
2.241144
20
11.505309
30
0.0
11
2.256891
21
11.505309
31
0.0
0
LINE
8
usbl
62
0
5
6e2
100
AcDbEntity
100
AcDbLine
10
2.256891
20
11.505309
30
0.0
11
2.256891
21
11.489562
31
0.0
0
LINE
8
usbl
62
0
5
6e3
100
AcDbEntity
100
AcDbLine
10
2.256891
20
11.489562
30
0.0
11
2.241144
21
11.489562
31
0.0
0
LINE
8
usbl
62
0
5
6e4
100
AcDbEntity
100
AcDbLine
10
2.241144
20
11.489562
30
0.0
11
2.241144
21
11.505309
31
0.0
0
LINE
8
usbl
62
0
5
6e5
100
AcDbEntity
100
AcDbLine
10
2.241144
20
11.505309
30
0.0
11
2.241144
21
11.505309
31
0.0
0
LINE
8
usbl
62
0
5
6e6
100
AcDbEntity
100
AcDbLine
10
2.313589
20
11.505309
30
0.0
11
2.329340
21
11.505309
31
0.0
0
LINE
8
usbl
62
0
5
6e7
100
AcDbEntity
100
AcDbLine
10
2.329340
20
11.505309
30
0.0
11
2.329340
21
11.489562
31
0.0
0
LINE
8
usbl
62
0
5
6e8
100
AcDbEntity
100
AcDbLine
10
2.329340
20
11.489562
30
0.0
11
2.313589
21
11.489562
31
0.0
0
LINE
8
usbl
62
0
5
6e9
100
AcDbEntity
100
AcDbLine
10
2.313589
20
11.489562
30
0.0
11
2.313589
21
11.505309
31
0.0
0
LINE
8
usbl
62
0
5
6ea
100
AcDbEntity
100
AcDbLine
10
2.313589
20
11.505309
30
0.0
11
2.313589
21
11.505309
31
0.0
0
LINE
8
usbl
62
0
5
6eb
100
AcDbEntity
100
AcDbLine
10
2.313589
20
11.445470
30
0.0
11
2.329340
21
11.445470
31
0.0
0
LINE
8
usbl
62
0
5
6ec
100
AcDbEntity
100
AcDbLine
10
2.329340
20
11.445470
30
0.0
11
2.329340
21
11.429719
31
0.0
0
LINE
8
usbl
62
0
5
6ed
100
AcDbEntity
100
AcDbLine
10
2.329340
20
11.429719
30
0.0
11
2.313589
21
11.429719
31
0.0
0
LINE
8
usbl
62
0
5
6ee
100
AcDbEntity
100
AcDbLine
10
2.313589
20
11.429719
30
0.0
11
2.313589
21
11.445470
31
0.0
0
LINE
8
usbl
62
0
5
6ef
100
AcDbEntity
100
AcDbLine
10
2.313589
20
11.445470
30
0.0
11
2.313589
21
11.445470
31
0.0
0
LINE
8
usbl
62
0
5
6f0
100
AcDbEntity
100
AcDbLine
10
2.143511
20
11.440427
30
0.0
11
2.176584
21
11.440427
31
0.0
0
LINE
8
usbl
62
0
5
6f1
100
AcDbEntity
100
AcDbLine
10
2.176584
20
11.440427
30
0.0
11
2.176584
21
11.406412
31
0.0
0
LINE
8
usbl
62
0
5
6f2
100
AcDbEntity
100
AcDbLine
10
2.176584
20
11.406412
30
0.0
11
2.143511
21
11.406412
31
0.0
0
LINE
8
usbl
62
0
5
6f3
100
AcDbEntity
100
AcDbLine
10
2.143511
20
11.406412
30
0.0
11
2.143511
21
11.440427
31
0.0
0
LINE
8
usbl
62
0
5
6f4
100
AcDbEntity
100
AcDbLine
10
2.143511
20
11.440427
30
0.0
11
2.143511
21
11.440427
31
0.0
0
LINE
8
usbl
62
0
5
6f5
100
AcDbEntity
100
AcDbLine
10
2.198633
20
11.440427
30
0.0
11
2.231702
21
11.440427
31
0.0
0
LINE
8
usbl
62
0
5
6f6
100
AcDbEntity
100
AcDbLine
10
2.231702
20
11.440427
30
0.0
11
2.231702
21
11.406412
31
0.0
0
LINE
8
usbl
62
0
5
6f7
100
AcDbEntity
100
AcDbLine
10
2.231702
20
11.406412
30
0.0
11
2.198633
21
11.406412
31
0.0
0
LINE
8
usbl
62
0
5
6f8
100
AcDbEntity
100
AcDbLine
10
2.198633
20
11.406412
30
0.0
11
2.198633
21
11.440427
31
0.0
0
LINE
8
usbl
62
0
5
6f9
100
AcDbEntity
100
AcDbLine
10
2.198633
20
11.440427
30
0.0
11
2.198633
21
11.440427
31
0.0
0
LINE
8
usbl
62
0
5
6fa
100
AcDbEntity
100
AcDbLine
10
2.417522
20
11.501846
30
0.0
11
2.450591
21
11.501846
31
0.0
0
LINE
8
usbl
62
0
5
6fb
100
AcDbEntity
100
AcDbLine
10
2.450591
20
11.501846
30
0.0
11
2.450591
21
11.467831
31
0.0
0
LINE
8
usbl
62
0
5
6fc
100
AcDbEntity
100
AcDbLine
10
2.450591
20
11.467831
30
0.0
11
2.417522
21
11.467831
31
0.0
0
LINE
8
usbl
62
0
5
6fd
100
AcDbEntity
100
AcDbLine
10
2.417522
20
11.467831
30
0.0
11
2.417522
21
11.501846
31
0.0
0
LINE
8
usbl
62
0
5
6fe
100
AcDbEntity
100
AcDbLine
10
2.417522
20
11.501846
30
0.0
11
2.417522
21
11.501846
31
0.0
0
LINE
8
usbl
62
0
5
6ff
100
AcDbEntity
100
AcDbLine
10
2.362400
20
11.501846
30
0.0
11
2.395473
21
11.501846
31
0.0
0
LINE
8
usbl
62
0
5
700
100
AcDbEntity
100
AcDbLine
10
2.395473
20
11.501846
30
0.0
11
2.395473
21
11.467831
31
0.0
0
LINE
8
usbl
62
0
5
701
100
AcDbEntity
100
AcDbLine
10
2.395473
20
11.467831
30
0.0
11
2.362400
21
11.467831
31
0.0
0
LINE
8
usbl
62
0
5
702
100
AcDbEntity
100
AcDbLine
10
2.362400
20
11.467831
30
0.0
11
2.362400
21
11.501846
31
0.0
0
LINE
8
usbl
62
0
5
703
100
AcDbEntity
100
AcDbLine
10
2.362400
20
11.501846
30
0.0
11
2.362400
21
11.501846
31
0.0
0
LINE
8
usbl
62
0
5
704
100
AcDbEntity
100
AcDbLine
10
2.338789
20
11.432553
30
0.0
11
2.371857
21
11.432553
31
0.0
0
LINE
8
usbl
62
0
5
705
100
AcDbEntity
100
AcDbLine
10
2.371857
20
11.432553
30
0.0
11
2.371857
21
11.398539
31
0.0
0
LINE
8
usbl
62
0
5
706
100
AcDbEntity
100
AcDbLine
10
2.371857
20
11.398539
30
0.0
11
2.338789
21
11.398539
31
0.0
0
LINE
8
usbl
62
0
5
707
100
AcDbEntity
100
AcDbLine
10
2.338789
20
11.398539
30
0.0
11
2.338789
21
11.432553
31
0.0
0
LINE
8
usbl
62
0
5
708
100
AcDbEntity
100
AcDbLine
10
2.338789
20
11.432553
30
0.0
11
2.338789
21
11.432553
31
0.0
0
LINE
8
usbl
62
0
5
709
100
AcDbEntity
100
AcDbLine
10
2.393900
20
11.432553
30
0.0
11
2.426973
21
11.432553
31
0.0
0
LINE
8
usbl
62
0
5
70a
100
AcDbEntity
100
AcDbLine
10
2.426973
20
11.432553
30
0.0
11
2.426973
21
11.398539
31
0.0
0
LINE
8
usbl
62
0
5
70b
100
AcDbEntity
100
AcDbLine
10
2.426973
20
11.398539
30
0.0
11
2.393900
21
11.398539
31
0.0
0
LINE
8
usbl
62
0
5
70c
100
AcDbEntity
100
AcDbLine
10
2.393900
20
11.398539
30
0.0
11
2.393900
21
11.432553
31
0.0
0
LINE
8
usbl
62
0
5
70d
100
AcDbEntity
100
AcDbLine
10
2.393900
20
11.432553
30
0.0
11
2.393900
21
11.432553
31
0.0
  0
ENDSEC
  0
SECTION
  2
OBJECTS
  0
DICTIONARY
  5
C
330
0
100
AcDbDictionary
  3
ACAD_GROUP
350
D
  3
ACAD_MLINESTYLE
350
17
  0
DICTIONARY
  5
D
330
C
100
AcDbDictionary
  0
DICTIONARY
  5
1A
330
C
100
AcDbDictionary
  0
DICTIONARY
  5
17
330
C
100
AcDbDictionary
  3
STANDARD
350
18
  0
DICTIONARY
  5
19
330
C
100
AcDbDictionary
  0
ENDSEC
  0
EOF
