  0
SECTION
  2
HEADER
  9
$ACADVER
  1
AC1009
  9
$FILLMODE
 70
1
  9
$EXTMIN
 10
-10.1524
 20
-2.6024
 30
0.0000
  9
$EXTMAX
 10
105.4524
 20
43.3024
 30
0.0000
  0
ENDSEC
  0
SECTION
  2
TABLES
  0
TABLE
  2
LTYPE
 70
1
  0
LTYPE
  2
CONTINUOUS
 70
64
  3
Solid line
 72
65
 73
0
 40
0
  0
ENDTAB
  0
TABLE
  2
LAYER
 70
255
  0
LAYER
  2
20
 70
64
 62
178
  6
CONTINUOUS
  0
LAYER
  2
31
 70
64
 62
251
  6
CONTINUOUS
  0
ENDTAB
  0
ENDSEC
  0
SECTION
  2
BLOCKS
  0
BLOCK
  8
0
  2
RECT
 70
64
 10
0.0000
 20
0.0000
 30
0.0000
  3
RECT
  0
SOLID
  8
0
 10
-0.5000
 20
-0.5000
 30
0.0000
 11
0.5000
 21
-0.5000
 31
0.0000
 12
-0.5000
 22
0.5000
 32
0.0000
 13
0.5000
 23
0.5000
 33
0.0000
  0
ENDBLK
  8
0
  0
BLOCK
  8
0
  2
PIE
 70
64
 10
0.0000
 20
0.0000
 30
0.0000
  3
PIE
  0
POLYLINE
  8
0
 66
1
 10
0.0000
 20
0.0000
 30
0.0000
 40
0.5000
 41
0.5000
 70
0
  0
VERTEX
  8
0
 10
0.0000
 20
-0.2500
 30
0.0000
 42
1.0000
  0
VERTEX
  8
0
 10
0.0000
 20
0.2500
 30
0.0000
 42
1.0000
  0
VERTEX
  8
0
 10
0.0000
 20
-0.2500
 30
0.0000
  0
SEQEND
  8
0
  0
ENDBLK
  8
0
  0
BLOCK
  8
0
  2
OCTAGONP
 70
64
 10
0.0000
 20
0.0000
 30
0.0000
  3
OCTAGONP
  0
POLYLINE
  8
0
 66
1
 10
0.0000
 20
0.0000
 30
0.0000
 40
0.5000
 41
0.5000
 70
0
  0
VERTEX
  8
0
 10
-0.2500
 20
-0.1036
 30
0.0000
  0
VERTEX
  8
0
 10
-0.2500
 20
0.1036
 30
0.0000
  0
VERTEX
  8
0
 10
-0.1036
 20
0.2500
 30
0.0000
  0
VERTEX
  8
0
 10
0.1036
 20
0.2500
 30
0.0000
  0
VERTEX
  8
0
 10
0.2500
 20
0.1036
 30
0.0000
  0
VERTEX
  8
0
 10
0.2500
 20
-0.1036
 30
0.0000
  0
VERTEX
  8
0
 10
0.1036
 20
-0.2500
 30
0.0000
  0
VERTEX
  8
0
 10
-0.1036
 20
-0.2500
 30
0.0000
  0
VERTEX
  8
0
 10
-0.2500
 20
-0.1036
 30
0.0000
  0
VERTEX
  8
0
 10
-0.2500
 20
0.1036
 30
0.0000
  0
SEQEND
  8
0
  0
ENDBLK
  8
0
  0
BLOCK
  8
0
  2
SQUAREP
 70
64
 10
0.0000
 20
0.0000
 30
0.0000
  3
SQUAREP
  0
SOLID
  8
0
 10
-0.5000
 20
-0.5000
 30
0.0000
 11
0.5000
 21
-0.5000
 31
0.0000
 12
-0.5000
 22
0.5000
 32
0.0000
 13
0.5000
 23
0.5000
 33
0.0000
  0
ENDBLK
  8
0
  0
BLOCK
  8
0
  2
ROUNDP
 70
64
 10
0.0000
 20
0.0000
 30
0.0000
  3
ROUNDP
  0
POLYLINE
  8
0
 66
1
 10
0.0000
 20
0.0000
 30
0.0000
 40
0.5000
 41
0.5000
 70
0
  0
VERTEX
  8
0
 10
0.0000
 20
-0.2500
 30
0.0000
 42
1.0000
  0
VERTEX
  8
0
 10
0.0000
 20
0.2500
 30
0.0000
 42
1.0000
  0
VERTEX
  8
0
 10
0.0000
 20
-0.2500
 30
0.0000
  0
SEQEND
  8
0
  0
ENDBLK
  8
0
  0
BLOCK
  8
0
  2
ANNULUSP
 70
64
 10
0.0000
 20
0.0000
 30
0.0000
  3
ANNULUSP
  0
POLYLINE
  8
0
 66
1
 10
0.0000
 20
0.0000
 30
0.0000
 40
0.5000
 41
0.5000
 70
0
  0
VERTEX
  8
0
 10
0.0000
 20
-0.2500
 30
0.0000
 42
1.0000
  0
VERTEX
  8
0
 10
0.0000
 20
0.2500
 30
0.0000
 42
1.0000
  0
VERTEX
  8
0
 10
0.0000
 20
-0.2500
 30
0.0000
  0
SEQEND
  8
0
  0
ENDBLK
  8
0
  0
BLOCK
  8
0
  2
THERMALP
 70
64
 10
0.0000
 20
0.0000
 30
0.0000
  3
THERMALP
  0
POLYLINE
  8
0
 66
1
 10
0.0000
 20
0.0000
 30
0.0000
 40
0.1000
 41
0.1000
 70
0
  0
VERTEX
  8
0
 10
-0.2379
 20
0.4500
 30
0.0000
  0
VERTEX
  8
0
 10
0.2379
 20
0.4500
 30
0.0000
  0
SEQEND
  8
0
  0
POLYLINE
  8
0
 66
1
 10
0.0000
 20
0.0000
 30
0.0000
 40
0.0500
 41
0.0500
 70
0
  0
VERTEX
  8
0
 10
0.2379
 20
0.4250
 30
0.0000
 42
1.0000
  0
VERTEX
  8
0
 10
0.2379
 20
0.4750
 30
0.0000
  0
SEQEND
  8
0
  0
POLYLINE
  8
0
 66
1
 10
0.0000
 20
0.0000
 30
0.0000
 40
0.0500
 41
0.0500
 70
0
  0
VERTEX
  8
0
 10
-0.2379
 20
0.4750
 30
0.0000
 42
1.0000
  0
VERTEX
  8
0
 10
-0.2379
 20
0.4250
 30
0.0000
  0
SEQEND
  8
0
  0
POLYLINE
  8
0
 66
1
 10
0.0000
 20
0.0000
 30
0.0000
 40
0.1000
 41
0.1000
 70
0
  0
VERTEX
  8
0
 10
0.4500
 20
0.2379
 30
0.0000
  0
VERTEX
  8
0
 10
0.4500
 20
-0.2379
 30
0.0000
  0
SEQEND
  8
0
  0
POLYLINE
  8
0
 66
1
 10
0.0000
 20
0.0000
 30
0.0000
 40
0.0500
 41
0.0500
 70
0
  0
VERTEX
  8
0
 10
0.4250
 20
-0.2379
 30
0.0000
 42
1.0000
  0
VERTEX
  8
0
 10
0.4750
 20
-0.2379
 30
0.0000
  0
SEQEND
  8
0
  0
POLYLINE
  8
0
 66
1
 10
0.0000
 20
0.0000
 30
0.0000
 40
0.0500
 41
0.0500
 70
0
  0
VERTEX
  8
0
 10
0.4750
 20
0.2379
 30
0.0000
 42
1.0000
  0
VERTEX
  8
0
 10
0.4250
 20
0.2379
 30
0.0000
  0
SEQEND
  8
0
  0
POLYLINE
  8
0
 66
1
 10
0.0000
 20
0.0000
 30
0.0000
 40
0.1000
 41
0.1000
 70
0
  0
VERTEX
  8
0
 10
0.2379
 20
-0.4500
 30
0.0000
  0
VERTEX
  8
0
 10
-0.2379
 20
-0.4500
 30
0.0000
  0
SEQEND
  8
0
  0
POLYLINE
  8
0
 66
1
 10
0.0000
 20
0.0000
 30
0.0000
 40
0.0500
 41
0.0500
 70
0
  0
VERTEX
  8
0
 10
-0.2379
 20
-0.4250
 30
0.0000
 42
1.0000
  0
VERTEX
  8
0
 10
-0.2379
 20
-0.4750
 30
0.0000
  0
SEQEND
  8
0
  0
POLYLINE
  8
0
 66
1
 10
0.0000
 20
0.0000
 30
0.0000
 40
0.0500
 41
0.0500
 70
0
  0
VERTEX
  8
0
 10
0.2379
 20
-0.4750
 30
0.0000
 42
1.0000
  0
VERTEX
  8
0
 10
0.2379
 20
-0.4250
 30
0.0000
  0
SEQEND
  8
0
  0
POLYLINE
  8
0
 66
1
 10
0.0000
 20
0.0000
 30
0.0000
 40
0.1000
 41
0.1000
 70
0
  0
VERTEX
  8
0
 10
-0.4500
 20
-0.2379
 30
0.0000
  0
VERTEX
  8
0
 10
-0.4500
 20
0.2379
 30
0.0000
  0
SEQEND
  8
0
  0
POLYLINE
  8
0
 66
1
 10
0.0000
 20
0.0000
 30
0.0000
 40
0.0500
 41
0.0500
 70
0
  0
VERTEX
  8
0
 10
-0.4250
 20
0.2379
 30
0.0000
 42
1.0000
  0
VERTEX
  8
0
 10
-0.4750
 20
0.2379
 30
0.0000
  0
SEQEND
  8
0
  0
POLYLINE
  8
0
 66
1
 10
0.0000
 20
0.0000
 30
0.0000
 40
0.0500
 41
0.0500
 70
0
  0
VERTEX
  8
0
 10
-0.4750
 20
-0.2379
 30
0.0000
 42
1.0000
  0
VERTEX
  8
0
 10
-0.4250
 20
-0.2379
 30
0.0000
  0
SEQEND
  8
0
  0
ENDBLK
  8
0
  0
BLOCK
  8
0
  2
OCTAGONV
 70
64
 10
0.0000
 20
0.0000
 30
0.0000
  3
OCTAGONV
  0
POLYLINE
  8
0
 66
1
 10
0.0000
 20
0.0000
 30
0.0000
 40
0.5000
 41
0.5000
 70
0
  0
VERTEX
  8
0
 10
-0.2500
 20
-0.1036
 30
0.0000
  0
VERTEX
  8
0
 10
-0.2500
 20
0.1036
 30
0.0000
  0
VERTEX
  8
0
 10
-0.1036
 20
0.2500
 30
0.0000
  0
VERTEX
  8
0
 10
0.1036
 20
0.2500
 30
0.0000
  0
VERTEX
  8
0
 10
0.2500
 20
0.1036
 30
0.0000
  0
VERTEX
  8
0
 10
0.2500
 20
-0.1036
 30
0.0000
  0
VERTEX
  8
0
 10
0.1036
 20
-0.2500
 30
0.0000
  0
VERTEX
  8
0
 10
-0.1036
 20
-0.2500
 30
0.0000
  0
VERTEX
  8
0
 10
-0.2500
 20
-0.1036
 30
0.0000
  0
VERTEX
  8
0
 10
-0.2500
 20
0.1036
 30
0.0000
  0
SEQEND
  8
0
  0
ENDBLK
  8
0
  0
BLOCK
  8
0
  2
SQUAREV
 70
64
 10
0.0000
 20
0.0000
 30
0.0000
  3
SQUAREV
  0
SOLID
  8
0
 10
-0.5000
 20
-0.5000
 30
0.0000
 11
0.5000
 21
-0.5000
 31
0.0000
 12
-0.5000
 22
0.5000
 32
0.0000
 13
0.5000
 23
0.5000
 33
0.0000
  0
ENDBLK
  8
0
  0
BLOCK
  8
0
  2
ROUNDV
 70
64
 10
0.0000
 20
0.0000
 30
0.0000
  3
ROUNDV
  0
POLYLINE
  8
0
 66
1
 10
0.0000
 20
0.0000
 30
0.0000
 40
0.5000
 41
0.5000
 70
0
  0
VERTEX
  8
0
 10
0.0000
 20
-0.2500
 30
0.0000
 42
1.0000
  0
VERTEX
  8
0
 10
0.0000
 20
0.2500
 30
0.0000
 42
1.0000
  0
VERTEX
  8
0
 10
0.0000
 20
-0.2500
 30
0.0000
  0
SEQEND
  8
0
  0
ENDBLK
  8
0
  0
BLOCK
  8
0
  2
ANNULUSV
 70
64
 10
0.0000
 20
0.0000
 30
0.0000
  3
ANNULUSV
  0
POLYLINE
  8
0
 66
1
 10
0.0000
 20
0.0000
 30
0.0000
 40
0.5000
 41
0.5000
 70
0
  0
VERTEX
  8
0
 10
0.0000
 20
-0.2500
 30
0.0000
 42
1.0000
  0
VERTEX
  8
0
 10
0.0000
 20
0.2500
 30
0.0000
 42
1.0000
  0
VERTEX
  8
0
 10
0.0000
 20
-0.2500
 30
0.0000
  0
SEQEND
  8
0
  0
ENDBLK
  8
0
  0
BLOCK
  8
0
  2
THERMALV
 70
64
 10
0.0000
 20
0.0000
 30
0.0000
  3
THERMALV
  0
POLYLINE
  8
0
 66
1
 10
0.0000
 20
0.0000
 30
0.0000
 40
0.1000
 41
0.1000
 70
0
  0
VERTEX
  8
0
 10
-0.2379
 20
0.4500
 30
0.0000
  0
VERTEX
  8
0
 10
0.2379
 20
0.4500
 30
0.0000
  0
SEQEND
  8
0
  0
POLYLINE
  8
0
 66
1
 10
0.0000
 20
0.0000
 30
0.0000
 40
0.0500
 41
0.0500
 70
0
  0
VERTEX
  8
0
 10
0.2379
 20
0.4250
 30
0.0000
 42
1.0000
  0
VERTEX
  8
0
 10
0.2379
 20
0.4750
 30
0.0000
  0
SEQEND
  8
0
  0
POLYLINE
  8
0
 66
1
 10
0.0000
 20
0.0000
 30
0.0000
 40
0.0500
 41
0.0500
 70
0
  0
VERTEX
  8
0
 10
-0.2379
 20
0.4750
 30
0.0000
 42
1.0000
  0
VERTEX
  8
0
 10
-0.2379
 20
0.4250
 30
0.0000
  0
SEQEND
  8
0
  0
POLYLINE
  8
0
 66
1
 10
0.0000
 20
0.0000
 30
0.0000
 40
0.1000
 41
0.1000
 70
0
  0
VERTEX
  8
0
 10
0.4500
 20
0.2379
 30
0.0000
  0
VERTEX
  8
0
 10
0.4500
 20
-0.2379
 30
0.0000
  0
SEQEND
  8
0
  0
POLYLINE
  8
0
 66
1
 10
0.0000
 20
0.0000
 30
0.0000
 40
0.0500
 41
0.0500
 70
0
  0
VERTEX
  8
0
 10
0.4250
 20
-0.2379
 30
0.0000
 42
1.0000
  0
VERTEX
  8
0
 10
0.4750
 20
-0.2379
 30
0.0000
  0
SEQEND
  8
0
  0
POLYLINE
  8
0
 66
1
 10
0.0000
 20
0.0000
 30
0.0000
 40
0.0500
 41
0.0500
 70
0
  0
VERTEX
  8
0
 10
0.4750
 20
0.2379
 30
0.0000
 42
1.0000
  0
VERTEX
  8
0
 10
0.4250
 20
0.2379
 30
0.0000
  0
SEQEND
  8
0
  0
POLYLINE
  8
0
 66
1
 10
0.0000
 20
0.0000
 30
0.0000
 40
0.1000
 41
0.1000
 70
0
  0
VERTEX
  8
0
 10
0.2379
 20
-0.4500
 30
0.0000
  0
VERTEX
  8
0
 10
-0.2379
 20
-0.4500
 30
0.0000
  0
SEQEND
  8
0
  0
POLYLINE
  8
0
 66
1
 10
0.0000
 20
0.0000
 30
0.0000
 40
0.0500
 41
0.0500
 70
0
  0
VERTEX
  8
0
 10
-0.2379
 20
-0.4250
 30
0.0000
 42
1.0000
  0
VERTEX
  8
0
 10
-0.2379
 20
-0.4750
 30
0.0000
  0
SEQEND
  8
0
  0
POLYLINE
  8
0
 66
1
 10
0.0000
 20
0.0000
 30
0.0000
 40
0.0500
 41
0.0500
 70
0
  0
VERTEX
  8
0
 10
0.2379
 20
-0.4750
 30
0.0000
 42
1.0000
  0
VERTEX
  8
0
 10
0.2379
 20
-0.4250
 30
0.0000
  0
SEQEND
  8
0
  0
POLYLINE
  8
0
 66
1
 10
0.0000
 20
0.0000
 30
0.0000
 40
0.1000
 41
0.1000
 70
0
  0
VERTEX
  8
0
 10
-0.4500
 20
-0.2379
 30
0.0000
  0
VERTEX
  8
0
 10
-0.4500
 20
0.2379
 30
0.0000
  0
SEQEND
  8
0
  0
POLYLINE
  8
0
 66
1
 10
0.0000
 20
0.0000
 30
0.0000
 40
0.0500
 41
0.0500
 70
0
  0
VERTEX
  8
0
 10
-0.4250
 20
0.2379
 30
0.0000
 42
1.0000
  0
VERTEX
  8
0
 10
-0.4750
 20
0.2379
 30
0.0000
  0
SEQEND
  8
0
  0
POLYLINE
  8
0
 66
1
 10
0.0000
 20
0.0000
 30
0.0000
 40
0.0500
 41
0.0500
 70
0
  0
VERTEX
  8
0
 10
-0.4750
 20
-0.2379
 30
0.0000
 42
1.0000
  0
VERTEX
  8
0
 10
-0.4250
 20
-0.2379
 30
0.0000
  0
SEQEND
  8
0
  0
ENDBLK
  8
0
  0
BLOCK
  8
0
  2
LONGP100
 70
64
 10
0.0000
 20
0.0000
 30
0.0000
  3
LONGP100
  0
POLYLINE
  8
0
 66
1
 10
0.0000
 20
0.0000
 30
0.0000
 40
1.0000
 41
1.0000
 70
0
  0
VERTEX
  8
0
 10
-0.5000
 20
0.0000
 30
0.0000
  0
VERTEX
  8
0
 10
0.5000
 20
0.0000
 30
0.0000
  0
SEQEND
  8
0
  0
POLYLINE
  8
0
 66
1
 10
0.0000
 20
0.0000
 30
0.0000
 40
0.5000
 41
0.5000
 70
0
  0
VERTEX
  8
0
 10
0.5000
 20
-0.2500
 30
0.0000
 42
1.0000
  0
VERTEX
  8
0
 10
0.5000
 20
0.2500
 30
0.0000
  0
SEQEND
  8
0
  0
POLYLINE
  8
0
 66
1
 10
0.0000
 20
0.0000
 30
0.0000
 40
0.5000
 41
0.5000
 70
0
  0
VERTEX
  8
0
 10
-0.5000
 20
0.2500
 30
0.0000
 42
1.0000
  0
VERTEX
  8
0
 10
-0.5000
 20
-0.2500
 30
0.0000
  0
SEQEND
  8
0
  0
ENDBLK
  8
0
  0
ENDSEC
  0
SECTION
  2
ENTITIES
  0
ARC
  8
20
 10
88.5000
 20
2.5000
 30
0.0000
 40
2.5000
 50
270.0000
 51
0.0000
  0
LINE
  8
20
 10
91.0000
 20
2.5000
 30
0.0000
 11
91.0000
 21
37.5000
 31
0.0000
  0
ARC
  8
20
 10
88.5000
 20
37.5000
 30
0.0000
 40
2.5000
 50
0.0000
 51
90.0000
  0
LINE
  8
20
 10
88.5000
 20
40.0000
 30
0.0000
 11
2.5000
 21
40.0000
 31
0.0000
  0
ARC
  8
20
 10
2.5000
 20
37.5000
 30
0.0000
 40
2.5000
 50
90.0000
 51
180.0000
  0
LINE
  8
20
 10
0.0000
 20
37.5000
 30
0.0000
 11
0.0000
 21
2.5000
 31
0.0000
  0
ARC
  8
20
 10
2.5000
 20
2.5000
 30
0.0000
 40
2.5000
 50
180.0000
 51
270.0000
  0
LINE
  8
20
 10
2.5000
 20
0.0000
 30
0.0000
 11
88.5000
 21
0.0000
 31
0.0000
  0
INSERT
  8
31
  2
RECT
 10
47.6250
 20
14.6500
 30
0.0000
 41
1.0500
 42
1.0800
 43
1.0000
 50
0.0000
  0
INSERT
  8
31
  2
RECT
 10
49.3750
 20
14.6500
 30
0.0000
 41
1.0500
 42
1.0800
 43
1.0000
 50
0.0000
  0
INSERT
  8
31
  2
RECT
 10
35.3750
 20
6.3000
 30
0.0000
 41
1.0500
 42
1.0800
 43
1.0000
 50
180.0000
  0
INSERT
  8
31
  2
RECT
 10
33.6250
 20
6.3000
 30
0.0000
 41
1.0500
 42
1.0800
 43
1.0000
 50
180.0000
  0
INSERT
  8
31
  2
RECT
 10
42.9750
 20
5.6500
 30
0.0000
 41
1.0500
 42
1.0800
 43
1.0000
 50
0.0000
  0
INSERT
  8
31
  2
RECT
 10
44.7250
 20
5.6500
 30
0.0000
 41
1.0500
 42
1.0800
 43
1.0000
 50
0.0000
  0
INSERT
  8
31
  2
RECT
 10
45.9500
 20
7.0750
 30
0.0000
 41
1.0500
 42
1.0800
 43
1.0000
 50
270.0000
  0
INSERT
  8
31
  2
RECT
 10
45.9500
 20
5.3250
 30
0.0000
 41
1.0500
 42
1.0800
 43
1.0000
 50
270.0000
  0
INSERT
  8
31
  2
RECT
 10
41.1500
 20
26.1750
 30
0.0000
 41
1.0500
 42
1.0800
 43
1.0000
 50
90.0000
  0
INSERT
  8
31
  2
RECT
 10
41.1500
 20
27.9250
 30
0.0000
 41
1.0500
 42
1.0800
 43
1.0000
 50
90.0000
  0
INSERT
  8
31
  2
RECT
 10
57.0000
 20
15.3750
 30
0.0000
 41
1.0500
 42
1.0800
 43
1.0000
 50
270.0000
  0
INSERT
  8
31
  2
RECT
 10
57.0000
 20
13.6250
 30
0.0000
 41
1.0500
 42
1.0800
 43
1.0000
 50
270.0000
  0
INSERT
  8
31
  2
RECT
 10
84.6000
 20
11.9250
 30
0.0000
 41
1.0500
 42
1.0800
 43
1.0000
 50
90.0000
  0
INSERT
  8
31
  2
RECT
 10
84.6000
 20
13.6750
 30
0.0000
 41
1.0500
 42
1.0800
 43
1.0000
 50
90.0000
  0
INSERT
  8
31
  2
RECT
 10
84.6500
 20
14.7750
 30
0.0000
 41
1.0500
 42
1.0800
 43
1.0000
 50
90.0000
  0
INSERT
  8
31
  2
RECT
 10
84.6500
 20
16.5250
 30
0.0000
 41
1.0500
 42
1.0800
 43
1.0000
 50
90.0000
  0
INSERT
  8
31
  2
RECT
 10
40.9750
 20
32.9500
 30
0.0000
 41
1.0500
 42
1.0800
 43
1.0000
 50
180.0000
  0
INSERT
  8
31
  2
RECT
 10
39.2250
 20
32.9500
 30
0.0000
 41
1.0500
 42
1.0800
 43
1.0000
 50
180.0000
  0
INSERT
  8
31
  2
RECT
 10
35.8750
 20
32.8500
 30
0.0000
 41
1.0500
 42
1.0800
 43
1.0000
 50
0.0000
  0
INSERT
  8
31
  2
RECT
 10
37.6250
 20
32.8500
 30
0.0000
 41
1.0500
 42
1.0800
 43
1.0000
 50
0.0000
  0
INSERT
  8
31
  2
RECT
 10
11.6500
 20
14.1000
 30
0.0000
 41
1.1000
 42
1.0000
 43
1.0000
 50
270.0000
  0
INSERT
  8
31
  2
RECT
 10
11.6500
 20
12.4000
 30
0.0000
 41
1.1000
 42
1.0000
 43
1.0000
 50
270.0000
  0
INSERT
  8
31
  2
RECT
 10
12.5500
 20
15.4000
 30
0.0000
 41
1.1000
 42
1.0000
 43
1.0000
 50
0.0000
  0
INSERT
  8
31
  2
RECT
 10
14.2500
 20
15.4000
 30
0.0000
 41
1.1000
 42
1.0000
 43
1.0000
 50
0.0000
  0
INSERT
  8
31
  2
RECT
 10
12.4500
 20
17.6500
 30
0.0000
 41
1.1000
 42
1.0000
 43
1.0000
 50
0.0000
  0
INSERT
  8
31
  2
RECT
 10
14.1500
 20
17.6500
 30
0.0000
 41
1.1000
 42
1.0000
 43
1.0000
 50
0.0000
  0
INSERT
  8
31
  2
RECT
 10
10.2500
 20
19.6000
 30
0.0000
 41
3.0000
 42
1.4000
 43
1.0000
 50
270.0000
  0
INSERT
  8
31
  2
RECT
 10
10.2500
 20
24.4000
 30
0.0000
 41
3.0000
 42
1.4000
 43
1.0000
 50
270.0000
  0
INSERT
  8
31
  2
RECT
 10
80.1250
 20
23.8500
 30
0.0000
 41
1.0500
 42
1.0800
 43
1.0000
 50
0.0000
  0
INSERT
  8
31
  2
RECT
 10
81.8750
 20
23.8500
 30
0.0000
 41
1.0500
 42
1.0800
 43
1.0000
 50
0.0000
  0
INSERT
  8
31
  2
RECT
 10
80.7250
 20
22.3000
 30
0.0000
 41
1.0500
 42
1.0800
 43
1.0000
 50
0.0000
  0
INSERT
  8
31
  2
RECT
 10
82.4750
 20
22.3000
 30
0.0000
 41
1.0500
 42
1.0800
 43
1.0000
 50
0.0000
  0
INSERT
  8
31
  2
RECT
 10
48.4000
 20
2.8500
 30
0.0000
 41
1.5000
 42
2.1000
 43
1.0000
 50
180.0000
  0
INSERT
  8
31
  2
RECT
 10
44.8000
 20
2.8500
 30
0.0000
 41
1.5000
 42
2.1000
 43
1.0000
 50
180.0000
  0
INSERT
  8
31
  2
RECT
 10
72.9000
 20
32.1500
 30
0.0000
 41
1.5000
 42
2.1000
 43
1.0000
 50
180.0000
  0
INSERT
  8
31
  2
RECT
 10
69.3000
 20
32.1500
 30
0.0000
 41
1.5000
 42
2.1000
 43
1.0000
 50
180.0000
  0
INSERT
  8
31
  2
RECT
 10
63.3500
 20
7.0500
 30
0.0000
 41
0.6000
 42
0.6000
 43
1.0000
 50
180.0000
  0
INSERT
  8
31
  2
RECT
 10
65.5500
 20
7.0500
 30
0.0000
 41
0.6000
 42
0.6000
 43
1.0000
 50
180.0000
  0
INSERT
  8
31
  2
RECT
 10
16.7050
 20
20.2766
 30
0.0000
 41
0.6604
 42
2.0320
 43
1.0000
 50
0.0000
  0
INSERT
  8
31
  2
RECT
 10
17.9750
 20
20.2766
 30
0.0000
 41
0.6604
 42
2.0320
 43
1.0000
 50
0.0000
  0
INSERT
  8
31
  2
RECT
 10
19.2450
 20
20.2766
 30
0.0000
 41
0.6604
 42
2.0320
 43
1.0000
 50
0.0000
  0
INSERT
  8
31
  2
RECT
 10
20.5150
 20
20.2766
 30
0.0000
 41
0.6604
 42
2.0320
 43
1.0000
 50
0.0000
  0
INSERT
  8
31
  2
RECT
 10
21.7850
 20
20.2766
 30
0.0000
 41
0.6604
 42
2.0320
 43
1.0000
 50
0.0000
  0
INSERT
  8
31
  2
RECT
 10
23.0550
 20
20.2766
 30
0.0000
 41
0.6604
 42
2.0320
 43
1.0000
 50
0.0000
  0
INSERT
  8
31
  2
RECT
 10
24.3250
 20
20.2766
 30
0.0000
 41
0.6604
 42
2.0320
 43
1.0000
 50
0.0000
  0
INSERT
  8
31
  2
RECT
 10
25.5950
 20
20.2766
 30
0.0000
 41
0.6604
 42
2.0320
 43
1.0000
 50
0.0000
  0
INSERT
  8
31
  2
RECT
 10
25.5950
 20
26.4234
 30
0.0000
 41
0.6604
 42
2.0320
 43
1.0000
 50
0.0000
  0
INSERT
  8
31
  2
RECT
 10
24.3250
 20
26.4234
 30
0.0000
 41
0.6604
 42
2.0320
 43
1.0000
 50
0.0000
  0
INSERT
  8
31
  2
RECT
 10
23.0550
 20
26.4234
 30
0.0000
 41
0.6604
 42
2.0320
 43
1.0000
 50
0.0000
  0
INSERT
  8
31
  2
RECT
 10
21.7850
 20
26.4234
 30
0.0000
 41
0.6604
 42
2.0320
 43
1.0000
 50
0.0000
  0
INSERT
  8
31
  2
RECT
 10
20.5150
 20
26.4234
 30
0.0000
 41
0.6604
 42
2.0320
 43
1.0000
 50
0.0000
  0
INSERT
  8
31
  2
RECT
 10
19.2450
 20
26.4234
 30
0.0000
 41
0.6604
 42
2.0320
 43
1.0000
 50
0.0000
  0
INSERT
  8
31
  2
RECT
 10
17.9750
 20
26.4234
 30
0.0000
 41
0.6604
 42
2.0320
 43
1.0000
 50
0.0000
  0
INSERT
  8
31
  2
RECT
 10
16.7050
 20
26.4234
 30
0.0000
 41
0.6604
 42
2.0320
 43
1.0000
 50
0.0000
  0
INSERT
  8
31
  2
RECT
 10
72.8500
 20
17.3100
 30
0.0000
 41
1.0000
 42
1.1000
 43
1.0000
 50
180.0000
  0
INSERT
  8
31
  2
RECT
 10
71.1500
 20
17.3100
 30
0.0000
 41
1.0000
 42
1.1000
 43
1.0000
 50
180.0000
  0
INSERT
  8
31
  2
RECT
 10
69.0400
 20
15.7100
 30
0.0000
 41
1.0000
 42
1.1000
 43
1.0000
 50
90.0000
  0
INSERT
  8
31
  2
RECT
 10
69.0400
 20
17.4100
 30
0.0000
 41
1.0000
 42
1.1000
 43
1.0000
 50
90.0000
  0
INSERT
  8
31
  2
RECT
 10
76.6200
 20
17.2100
 30
0.0000
 41
1.0000
 42
1.1000
 43
1.0000
 50
180.0000
  0
INSERT
  8
31
  2
RECT
 10
74.9200
 20
17.2100
 30
0.0000
 41
1.0000
 42
1.1000
 43
1.0000
 50
180.0000
  0
INSERT
  8
31
  2
RECT
 10
79.6700
 20
17.2400
 30
0.0000
 41
1.0000
 42
1.1000
 43
1.0000
 50
180.0000
  0
INSERT
  8
31
  2
RECT
 10
77.9700
 20
17.2400
 30
0.0000
 41
1.0000
 42
1.1000
 43
1.0000
 50
180.0000
  0
INSERT
  8
31
  2
RECT
 10
76.6200
 20
9.8900
 30
0.0000
 41
1.0000
 42
1.1000
 43
1.0000
 50
180.0000
  0
INSERT
  8
31
  2
RECT
 10
74.9200
 20
9.8900
 30
0.0000
 41
1.0000
 42
1.1000
 43
1.0000
 50
180.0000
  0
INSERT
  8
31
  2
RECT
 10
79.6400
 20
9.8900
 30
0.0000
 41
1.0000
 42
1.1000
 43
1.0000
 50
180.0000
  0
INSERT
  8
31
  2
RECT
 10
77.9400
 20
9.8900
 30
0.0000
 41
1.0000
 42
1.1000
 43
1.0000
 50
180.0000
  0
INSERT
  8
31
  2
RECT
 10
72.9700
 20
9.8400
 30
0.0000
 41
1.0000
 42
1.1000
 43
1.0000
 50
180.0000
  0
INSERT
  8
31
  2
RECT
 10
71.2700
 20
9.8400
 30
0.0000
 41
1.0000
 42
1.1000
 43
1.0000
 50
180.0000
  0
INSERT
  8
31
  2
RECT
 10
68.9800
 20
11.9100
 30
0.0000
 41
1.0000
 42
1.1000
 43
1.0000
 50
270.0000
  0
INSERT
  8
31
  2
RECT
 10
68.9800
 20
10.2100
 30
0.0000
 41
1.0000
 42
1.1000
 43
1.0000
 50
270.0000
  0
INSERT
  8
31
  2
RECT
 10
80.3600
 20
12.0300
 30
0.0000
 41
1.0000
 42
1.1000
 43
1.0000
 50
180.0000
  0
INSERT
  8
31
  2
RECT
 10
78.6600
 20
12.0300
 30
0.0000
 41
1.0000
 42
1.1000
 43
1.0000
 50
180.0000
  0
INSERT
  8
31
  2
RECT
 10
80.3400
 20
15.0800
 30
0.0000
 41
1.0000
 42
1.1000
 43
1.0000
 50
180.0000
  0
INSERT
  8
31
  2
RECT
 10
78.6400
 20
15.0800
 30
0.0000
 41
1.0000
 42
1.1000
 43
1.0000
 50
180.0000
  0
INSERT
  8
31
  2
RECT
 10
52.3500
 20
11.4500
 30
0.0000
 41
1.0000
 42
1.1000
 43
1.0000
 50
270.0000
  0
INSERT
  8
31
  2
RECT
 10
52.3500
 20
9.7500
 30
0.0000
 41
1.0000
 42
1.1000
 43
1.0000
 50
270.0000
  0
INSERT
  8
31
  2
RECT
 10
53.7000
 20
11.7500
 30
0.0000
 41
1.0000
 42
1.1000
 43
1.0000
 50
270.0000
  0
INSERT
  8
31
  2
RECT
 10
53.7000
 20
10.0500
 30
0.0000
 41
1.0000
 42
1.1000
 43
1.0000
 50
270.0000
  0
INSERT
  8
31
  2
RECT
 10
47.3500
 20
7.3000
 30
0.0000
 41
1.0000
 42
1.1000
 43
1.0000
 50
270.0000
  0
INSERT
  8
31
  2
RECT
 10
47.3500
 20
5.6000
 30
0.0000
 41
1.0000
 42
1.1000
 43
1.0000
 50
270.0000
  0
INSERT
  8
31
  2
RECT
 10
48.8500
 20
7.3000
 30
0.0000
 41
1.0000
 42
1.1000
 43
1.0000
 50
270.0000
  0
INSERT
  8
31
  2
RECT
 10
48.8500
 20
5.6000
 30
0.0000
 41
1.0000
 42
1.1000
 43
1.0000
 50
270.0000
  0
INSERT
  8
31
  2
RECT
 10
50.2000
 20
8.3500
 30
0.0000
 41
1.0000
 42
1.1000
 43
1.0000
 50
270.0000
  0
INSERT
  8
31
  2
RECT
 10
50.2000
 20
6.6500
 30
0.0000
 41
1.0000
 42
1.1000
 43
1.0000
 50
270.0000
  0
INSERT
  8
31
  2
RECT
 10
7.2500
 20
11.2500
 30
0.0000
 41
1.3000
 42
1.5000
 43
1.0000
 50
0.0000
  0
INSERT
  8
31
  2
RECT
 10
9.1500
 20
11.2500
 30
0.0000
 41
1.3000
 42
1.5000
 43
1.0000
 50
0.0000
  0
INSERT
  8
31
  2
RECT
 10
7.2000
 20
8.1500
 30
0.0000
 41
1.3000
 42
1.5000
 43
1.0000
 50
0.0000
  0
INSERT
  8
31
  2
RECT
 10
9.1000
 20
8.1500
 30
0.0000
 41
1.3000
 42
1.5000
 43
1.0000
 50
0.0000
  0
INSERT
  8
31
  2
RECT
 10
24.7500
 20
7.4500
 30
0.0000
 41
1.0000
 42
1.1000
 43
1.0000
 50
0.0000
  0
INSERT
  8
31
  2
RECT
 10
26.4500
 20
7.4500
 30
0.0000
 41
1.0000
 42
1.1000
 43
1.0000
 50
0.0000
  0
INSERT
  8
31
  2
RECT
 10
55.6500
 20
16.0000
 30
0.0000
 41
1.0000
 42
1.1000
 43
1.0000
 50
90.0000
  0
INSERT
  8
31
  2
RECT
 10
55.6500
 20
17.7000
 30
0.0000
 41
1.0000
 42
1.1000
 43
1.0000
 50
90.0000
  0
INSERT
  8
31
  2
RECT
 10
63.5500
 20
5.2000
 30
0.0000
 41
1.0000
 42
1.1000
 43
1.0000
 50
0.0000
  0
INSERT
  8
31
  2
RECT
 10
65.2500
 20
5.2000
 30
0.0000
 41
1.0000
 42
1.1000
 43
1.0000
 50
0.0000
  0
INSERT
  8
31
  2
RECT
 10
46.0700
 20
9.7900
 30
0.0000
 41
1.5000
 42
0.5000
 43
1.0000
 50
0.0000
  0
INSERT
  8
31
  2
RECT
 10
46.0700
 20
10.5900
 30
0.0000
 41
1.5000
 42
0.5000
 43
1.0000
 50
0.0000
  0
INSERT
  8
31
  2
RECT
 10
46.0700
 20
11.3900
 30
0.0000
 41
1.5000
 42
0.5000
 43
1.0000
 50
0.0000
  0
INSERT
  8
31
  2
RECT
 10
46.0700
 20
12.1900
 30
0.0000
 41
1.5000
 42
0.5000
 43
1.0000
 50
0.0000
  0
INSERT
  8
31
  2
RECT
 10
46.0700
 20
12.9900
 30
0.0000
 41
1.5000
 42
0.5000
 43
1.0000
 50
0.0000
  0
INSERT
  8
31
  2
RECT
 10
46.0700
 20
13.7900
 30
0.0000
 41
1.5000
 42
0.5000
 43
1.0000
 50
0.0000
  0
INSERT
  8
31
  2
RECT
 10
46.0700
 20
14.5900
 30
0.0000
 41
1.5000
 42
0.5000
 43
1.0000
 50
0.0000
  0
INSERT
  8
31
  2
RECT
 10
46.0700
 20
15.3900
 30
0.0000
 41
1.5000
 42
0.5000
 43
1.0000
 50
0.0000
  0
INSERT
  8
31
  2
RECT
 10
46.0700
 20
16.1900
 30
0.0000
 41
1.5000
 42
0.5000
 43
1.0000
 50
0.0000
  0
INSERT
  8
31
  2
RECT
 10
46.0700
 20
16.9900
 30
0.0000
 41
1.5000
 42
0.5000
 43
1.0000
 50
0.0000
  0
INSERT
  8
31
  2
RECT
 10
46.0700
 20
17.7900
 30
0.0000
 41
1.5000
 42
0.5000
 43
1.0000
 50
0.0000
  0
INSERT
  8
31
  2
RECT
 10
46.0700
 20
18.5900
 30
0.0000
 41
1.5000
 42
0.5000
 43
1.0000
 50
0.0000
  0
INSERT
  8
31
  2
RECT
 10
46.0700
 20
19.3900
 30
0.0000
 41
1.5000
 42
0.5000
 43
1.0000
 50
0.0000
  0
INSERT
  8
31
  2
RECT
 10
46.0700
 20
20.1900
 30
0.0000
 41
1.5000
 42
0.5000
 43
1.0000
 50
0.0000
  0
INSERT
  8
31
  2
RECT
 10
46.0700
 20
20.9900
 30
0.0000
 41
1.5000
 42
0.5000
 43
1.0000
 50
0.0000
  0
INSERT
  8
31
  2
RECT
 10
46.0700
 20
21.7900
 30
0.0000
 41
1.5000
 42
0.5000
 43
1.0000
 50
0.0000
  0
INSERT
  8
31
  2
RECT
 10
44.2700
 20
23.5900
 30
0.0000
 41
1.5000
 42
0.5000
 43
1.0000
 50
90.0000
  0
INSERT
  8
31
  2
RECT
 10
43.4700
 20
23.5900
 30
0.0000
 41
1.5000
 42
0.5000
 43
1.0000
 50
90.0000
  0
INSERT
  8
31
  2
RECT
 10
42.6700
 20
23.5900
 30
0.0000
 41
1.5000
 42
0.5000
 43
1.0000
 50
90.0000
  0
INSERT
  8
31
  2
RECT
 10
41.8700
 20
23.5900
 30
0.0000
 41
1.5000
 42
0.5000
 43
1.0000
 50
90.0000
  0
INSERT
  8
31
  2
RECT
 10
41.0700
 20
23.5900
 30
0.0000
 41
1.5000
 42
0.5000
 43
1.0000
 50
90.0000
  0
INSERT
  8
31
  2
RECT
 10
40.2700
 20
23.5900
 30
0.0000
 41
1.5000
 42
0.5000
 43
1.0000
 50
90.0000
  0
INSERT
  8
31
  2
RECT
 10
39.4700
 20
23.5900
 30
0.0000
 41
1.5000
 42
0.5000
 43
1.0000
 50
90.0000
  0
INSERT
  8
31
  2
RECT
 10
38.6700
 20
23.5900
 30
0.0000
 41
1.5000
 42
0.5000
 43
1.0000
 50
90.0000
  0
INSERT
  8
31
  2
RECT
 10
37.8700
 20
23.5900
 30
0.0000
 41
1.5000
 42
0.5000
 43
1.0000
 50
90.0000
  0
INSERT
  8
31
  2
RECT
 10
37.0700
 20
23.5900
 30
0.0000
 41
1.5000
 42
0.5000
 43
1.0000
 50
90.0000
  0
INSERT
  8
31
  2
RECT
 10
36.2700
 20
23.5900
 30
0.0000
 41
1.5000
 42
0.5000
 43
1.0000
 50
90.0000
  0
INSERT
  8
31
  2
RECT
 10
35.4700
 20
23.5900
 30
0.0000
 41
1.5000
 42
0.5000
 43
1.0000
 50
90.0000
  0
INSERT
  8
31
  2
RECT
 10
34.6700
 20
23.5900
 30
0.0000
 41
1.5000
 42
0.5000
 43
1.0000
 50
90.0000
  0
INSERT
  8
31
  2
RECT
 10
33.8700
 20
23.5900
 30
0.0000
 41
1.5000
 42
0.5000
 43
1.0000
 50
90.0000
  0
INSERT
  8
31
  2
RECT
 10
33.0700
 20
23.5900
 30
0.0000
 41
1.5000
 42
0.5000
 43
1.0000
 50
90.0000
  0
INSERT
  8
31
  2
RECT
 10
32.2700
 20
23.5900
 30
0.0000
 41
1.5000
 42
0.5000
 43
1.0000
 50
90.0000
  0
INSERT
  8
31
  2
RECT
 10
30.4700
 20
21.7900
 30
0.0000
 41
1.5000
 42
0.5000
 43
1.0000
 50
0.0000
  0
INSERT
  8
31
  2
RECT
 10
30.4700
 20
20.9900
 30
0.0000
 41
1.5000
 42
0.5000
 43
1.0000
 50
0.0000
  0
INSERT
  8
31
  2
RECT
 10
30.4700
 20
20.1900
 30
0.0000
 41
1.5000
 42
0.5000
 43
1.0000
 50
0.0000
  0
INSERT
  8
31
  2
RECT
 10
30.4700
 20
19.3900
 30
0.0000
 41
1.5000
 42
0.5000
 43
1.0000
 50
0.0000
  0
INSERT
  8
31
  2
RECT
 10
30.4700
 20
18.5900
 30
0.0000
 41
1.5000
 42
0.5000
 43
1.0000
 50
0.0000
  0
INSERT
  8
31
  2
RECT
 10
30.4700
 20
17.7900
 30
0.0000
 41
1.5000
 42
0.5000
 43
1.0000
 50
0.0000
  0
INSERT
  8
31
  2
RECT
 10
30.4700
 20
16.9900
 30
0.0000
 41
1.5000
 42
0.5000
 43
1.0000
 50
0.0000
  0
INSERT
  8
31
  2
RECT
 10
30.4700
 20
16.1900
 30
0.0000
 41
1.5000
 42
0.5000
 43
1.0000
 50
0.0000
  0
INSERT
  8
31
  2
RECT
 10
30.4700
 20
15.3900
 30
0.0000
 41
1.5000
 42
0.5000
 43
1.0000
 50
0.0000
  0
INSERT
  8
31
  2
RECT
 10
30.4700
 20
14.5900
 30
0.0000
 41
1.5000
 42
0.5000
 43
1.0000
 50
0.0000
  0
INSERT
  8
31
  2
RECT
 10
30.4700
 20
13.7900
 30
0.0000
 41
1.5000
 42
0.5000
 43
1.0000
 50
0.0000
  0
INSERT
  8
31
  2
RECT
 10
30.4700
 20
12.9900
 30
0.0000
 41
1.5000
 42
0.5000
 43
1.0000
 50
0.0000
  0
INSERT
  8
31
  2
RECT
 10
30.4700
 20
12.1900
 30
0.0000
 41
1.5000
 42
0.5000
 43
1.0000
 50
0.0000
  0
INSERT
  8
31
  2
RECT
 10
30.4700
 20
11.3900
 30
0.0000
 41
1.5000
 42
0.5000
 43
1.0000
 50
0.0000
  0
INSERT
  8
31
  2
RECT
 10
30.4700
 20
10.5900
 30
0.0000
 41
1.5000
 42
0.5000
 43
1.0000
 50
0.0000
  0
INSERT
  8
31
  2
RECT
 10
30.4700
 20
9.7900
 30
0.0000
 41
1.5000
 42
0.5000
 43
1.0000
 50
0.0000
  0
INSERT
  8
31
  2
RECT
 10
32.2700
 20
7.9900
 30
0.0000
 41
1.5000
 42
0.5000
 43
1.0000
 50
90.0000
  0
INSERT
  8
31
  2
RECT
 10
33.0700
 20
7.9900
 30
0.0000
 41
1.5000
 42
0.5000
 43
1.0000
 50
90.0000
  0
INSERT
  8
31
  2
RECT
 10
33.8700
 20
7.9900
 30
0.0000
 41
1.5000
 42
0.5000
 43
1.0000
 50
90.0000
  0
INSERT
  8
31
  2
RECT
 10
34.6700
 20
7.9900
 30
0.0000
 41
1.5000
 42
0.5000
 43
1.0000
 50
90.0000
  0
INSERT
  8
31
  2
RECT
 10
35.4700
 20
7.9900
 30
0.0000
 41
1.5000
 42
0.5000
 43
1.0000
 50
90.0000
  0
INSERT
  8
31
  2
RECT
 10
36.2700
 20
7.9900
 30
0.0000
 41
1.5000
 42
0.5000
 43
1.0000
 50
90.0000
  0
INSERT
  8
31
  2
RECT
 10
37.0700
 20
7.9900
 30
0.0000
 41
1.5000
 42
0.5000
 43
1.0000
 50
90.0000
  0
INSERT
  8
31
  2
RECT
 10
37.8700
 20
7.9900
 30
0.0000
 41
1.5000
 42
0.5000
 43
1.0000
 50
90.0000
  0
INSERT
  8
31
  2
RECT
 10
38.6700
 20
7.9900
 30
0.0000
 41
1.5000
 42
0.5000
 43
1.0000
 50
90.0000
  0
INSERT
  8
31
  2
RECT
 10
39.4700
 20
7.9900
 30
0.0000
 41
1.5000
 42
0.5000
 43
1.0000
 50
90.0000
  0
INSERT
  8
31
  2
RECT
 10
40.2700
 20
7.9900
 30
0.0000
 41
1.5000
 42
0.5000
 43
1.0000
 50
90.0000
  0
INSERT
  8
31
  2
RECT
 10
41.0700
 20
7.9900
 30
0.0000
 41
1.5000
 42
0.5000
 43
1.0000
 50
90.0000
  0
INSERT
  8
31
  2
RECT
 10
41.8700
 20
7.9900
 30
0.0000
 41
1.5000
 42
0.5000
 43
1.0000
 50
90.0000
  0
INSERT
  8
31
  2
RECT
 10
42.6700
 20
7.9900
 30
0.0000
 41
1.5000
 42
0.5000
 43
1.0000
 50
90.0000
  0
INSERT
  8
31
  2
RECT
 10
43.4700
 20
7.9900
 30
0.0000
 41
1.5000
 42
0.5000
 43
1.0000
 50
90.0000
  0
INSERT
  8
31
  2
RECT
 10
44.2700
 20
7.9900
 30
0.0000
 41
1.5000
 42
0.5000
 43
1.0000
 50
90.0000
  0
INSERT
  8
31
  2
RECT
 10
58.8700
 20
16.7250
 30
0.0000
 41
0.4400
 42
1.6350
 43
1.0000
 50
270.0000
  0
INSERT
  8
31
  2
RECT
 10
58.8700
 20
16.0750
 30
0.0000
 41
0.4400
 42
1.6350
 43
1.0000
 50
270.0000
  0
INSERT
  8
31
  2
RECT
 10
58.8700
 20
15.4250
 30
0.0000
 41
0.4400
 42
1.6350
 43
1.0000
 50
270.0000
  0
INSERT
  8
31
  2
RECT
 10
58.8700
 20
14.7750
 30
0.0000
 41
0.4400
 42
1.6350
 43
1.0000
 50
270.0000
  0
INSERT
  8
31
  2
RECT
 10
58.8700
 20
14.1250
 30
0.0000
 41
0.4400
 42
1.6350
 43
1.0000
 50
270.0000
  0
INSERT
  8
31
  2
RECT
 10
58.8700
 20
13.4750
 30
0.0000
 41
0.4400
 42
1.6350
 43
1.0000
 50
270.0000
  0
INSERT
  8
31
  2
RECT
 10
58.8700
 20
12.8250
 30
0.0000
 41
0.4400
 42
1.6350
 43
1.0000
 50
270.0000
  0
INSERT
  8
31
  2
RECT
 10
58.8700
 20
12.1750
 30
0.0000
 41
0.4400
 42
1.6350
 43
1.0000
 50
270.0000
  0
INSERT
  8
31
  2
RECT
 10
58.8700
 20
11.5250
 30
0.0000
 41
0.4400
 42
1.6350
 43
1.0000
 50
270.0000
  0
INSERT
  8
31
  2
RECT
 10
58.8700
 20
10.8750
 30
0.0000
 41
0.4400
 42
1.6350
 43
1.0000
 50
270.0000
  0
INSERT
  8
31
  2
RECT
 10
58.8700
 20
10.2250
 30
0.0000
 41
0.4400
 42
1.6350
 43
1.0000
 50
270.0000
  0
INSERT
  8
31
  2
RECT
 10
58.8700
 20
9.5750
 30
0.0000
 41
0.4400
 42
1.6350
 43
1.0000
 50
270.0000
  0
INSERT
  8
31
  2
RECT
 10
64.9700
 20
9.5750
 30
0.0000
 41
0.4400
 42
1.6350
 43
1.0000
 50
270.0000
  0
INSERT
  8
31
  2
RECT
 10
64.9700
 20
10.2250
 30
0.0000
 41
0.4400
 42
1.6350
 43
1.0000
 50
270.0000
  0
INSERT
  8
31
  2
RECT
 10
64.9700
 20
10.8750
 30
0.0000
 41
0.4400
 42
1.6350
 43
1.0000
 50
270.0000
  0
INSERT
  8
31
  2
RECT
 10
64.9700
 20
11.5250
 30
0.0000
 41
0.4400
 42
1.6350
 43
1.0000
 50
270.0000
  0
INSERT
  8
31
  2
RECT
 10
64.9700
 20
12.1750
 30
0.0000
 41
0.4400
 42
1.6350
 43
1.0000
 50
270.0000
  0
INSERT
  8
31
  2
RECT
 10
64.9700
 20
12.8250
 30
0.0000
 41
0.4400
 42
1.6350
 43
1.0000
 50
270.0000
  0
INSERT
  8
31
  2
RECT
 10
64.9700
 20
13.4750
 30
0.0000
 41
0.4400
 42
1.6350
 43
1.0000
 50
270.0000
  0
INSERT
  8
31
  2
RECT
 10
64.9700
 20
14.1250
 30
0.0000
 41
0.4400
 42
1.6350
 43
1.0000
 50
270.0000
  0
INSERT
  8
31
  2
RECT
 10
64.9700
 20
14.7750
 30
0.0000
 41
0.4400
 42
1.6350
 43
1.0000
 50
270.0000
  0
INSERT
  8
31
  2
RECT
 10
64.9700
 20
15.4250
 30
0.0000
 41
0.4400
 42
1.6350
 43
1.0000
 50
270.0000
  0
INSERT
  8
31
  2
RECT
 10
64.9700
 20
16.0750
 30
0.0000
 41
0.4400
 42
1.6350
 43
1.0000
 50
270.0000
  0
INSERT
  8
31
  2
RECT
 10
64.9700
 20
16.7250
 30
0.0000
 41
0.4400
 42
1.6350
 43
1.0000
 50
270.0000
  0
INSERT
  8
31
  2
RECT
 10
77.0100
 20
11.6500
 30
0.0000
 41
0.4000
 42
1.4000
 43
1.0000
 50
270.0000
  0
INSERT
  8
31
  2
RECT
 10
77.0100
 20
12.3000
 30
0.0000
 41
0.4000
 42
1.4000
 43
1.0000
 50
270.0000
  0
INSERT
  8
31
  2
RECT
 10
77.0100
 20
12.9500
 30
0.0000
 41
0.4000
 42
1.4000
 43
1.0000
 50
270.0000
  0
INSERT
  8
31
  2
RECT
 10
77.0100
 20
13.6000
 30
0.0000
 41
0.4000
 42
1.4000
 43
1.0000
 50
270.0000
  0
INSERT
  8
31
  2
RECT
 10
77.0100
 20
14.2500
 30
0.0000
 41
0.4000
 42
1.4000
 43
1.0000
 50
270.0000
  0
INSERT
  8
31
  2
RECT
 10
77.0100
 20
14.9000
 30
0.0000
 41
0.4000
 42
1.4000
 43
1.0000
 50
270.0000
  0
INSERT
  8
31
  2
RECT
 10
77.0100
 20
15.5500
 30
0.0000
 41
0.4000
 42
1.4000
 43
1.0000
 50
270.0000
  0
INSERT
  8
31
  2
RECT
 10
71.1100
 20
15.5500
 30
0.0000
 41
0.4000
 42
1.4000
 43
1.0000
 50
270.0000
  0
INSERT
  8
31
  2
RECT
 10
71.1100
 20
14.9000
 30
0.0000
 41
0.4000
 42
1.4000
 43
1.0000
 50
270.0000
  0
INSERT
  8
31
  2
RECT
 10
71.1100
 20
14.2500
 30
0.0000
 41
0.4000
 42
1.4000
 43
1.0000
 50
270.0000
  0
INSERT
  8
31
  2
RECT
 10
71.1100
 20
13.6000
 30
0.0000
 41
0.4000
 42
1.4000
 43
1.0000
 50
270.0000
  0
INSERT
  8
31
  2
RECT
 10
71.1100
 20
12.9500
 30
0.0000
 41
0.4000
 42
1.4000
 43
1.0000
 50
270.0000
  0
INSERT
  8
31
  2
RECT
 10
71.1100
 20
12.3000
 30
0.0000
 41
0.4000
 42
1.4000
 43
1.0000
 50
270.0000
  0
INSERT
  8
31
  2
RECT
 10
71.1100
 20
11.6500
 30
0.0000
 41
0.4000
 42
1.4000
 43
1.0000
 50
270.0000
  0
INSERT
  8
31
  2
RECT
 10
36.5500
 20
30.3500
 30
0.0000
 41
1.7000
 42
2.4000
 43
1.0000
 50
0.0000
  0
INSERT
  8
31
  2
RECT
 10
40.2500
 20
30.3500
 30
0.0000
 41
1.7000
 42
2.4000
 43
1.0000
 50
0.0000
  0
INSERT
  8
31
  2
RECT
 10
50.6500
 20
3.9000
 30
0.0000
 41
1.6000
 42
1.4000
 43
1.0000
 50
0.0000
  0
INSERT
  8
31
  2
RECT
 10
52.6500
 20
1.4500
 30
0.0000
 41
1.9000
 42
1.6000
 43
1.0000
 50
0.0000
  0
INSERT
  8
31
  2
RECT
 10
55.0500
 20
1.4500
 30
0.0000
 41
1.9000
 42
1.6000
 43
1.0000
 50
0.0000
  0
INSERT
  8
31
  2
RECT
 10
57.0500
 20
3.9000
 30
0.0000
 41
1.6000
 42
1.4000
 43
1.0000
 50
0.0000
  0
INSERT
  8
31
  2
RECT
 10
52.5500
 20
4.1500
 30
0.0000
 41
0.4000
 42
1.3500
 43
1.0000
 50
0.0000
  0
INSERT
  8
31
  2
RECT
 10
53.2000
 20
4.1500
 30
0.0000
 41
0.4000
 42
1.3500
 43
1.0000
 50
0.0000
  0
INSERT
  8
31
  2
RECT
 10
53.8500
 20
4.1500
 30
0.0000
 41
0.4000
 42
1.3500
 43
1.0000
 50
0.0000
  0
INSERT
  8
31
  2
RECT
 10
54.5000
 20
4.1500
 30
0.0000
 41
0.4000
 42
1.3500
 43
1.0000
 50
0.0000
  0
INSERT
  8
31
  2
RECT
 10
55.1500
 20
4.1500
 30
0.0000
 41
0.4000
 42
1.3500
 43
1.0000
 50
0.0000
  0
INSERT
  8
31
  2
RECT
 10
49.1000
 20
9.6000
 30
0.0000
 41
0.5000
 42
0.5000
 43
1.0000
 50
180.0000
  0
INSERT
  8
31
  2
RECT
 10
48.3500
 20
9.7000
 30
0.0000
 41
0.4000
 42
0.5000
 43
1.0000
 50
180.0000
  0
INSERT
  8
31
  2
RECT
 10
47.6000
 20
9.6000
 30
0.0000
 41
0.5000
 42
0.5000
 43
1.0000
 50
180.0000
  0
INSERT
  8
31
  2
RECT
 10
47.6000
 20
8.3000
 30
0.0000
 41
0.5000
 42
0.5000
 43
1.0000
 50
180.0000
  0
INSERT
  8
31
  2
RECT
 10
48.3500
 20
8.2000
 30
0.0000
 41
0.4000
 42
0.5000
 43
1.0000
 50
180.0000
  0
INSERT
  8
31
  2
RECT
 10
49.1000
 20
8.3000
 30
0.0000
 41
0.5000
 42
0.5000
 43
1.0000
 50
180.0000
  0
INSERT
  8
31
  2
RECT
 10
14.0000
 20
13.9250
 30
0.0000
 41
1.6000
 42
0.3000
 43
1.0000
 50
0.0000
  0
INSERT
  8
31
  2
RECT
 10
14.0000
 20
13.2750
 30
0.0000
 41
1.6000
 42
0.3000
 43
1.0000
 50
0.0000
  0
INSERT
  8
31
  2
RECT
 10
14.0000
 20
12.6250
 30
0.0000
 41
1.6000
 42
0.3000
 43
1.0000
 50
0.0000
  0
INSERT
  8
31
  2
RECT
 10
14.0000
 20
11.9750
 30
0.0000
 41
1.6000
 42
0.3000
 43
1.0000
 50
0.0000
  0
INSERT
  8
31
  2
RECT
 10
14.0000
 20
11.3250
 30
0.0000
 41
1.6000
 42
0.3000
 43
1.0000
 50
0.0000
  0
INSERT
  8
31
  2
RECT
 10
14.0000
 20
10.6750
 30
0.0000
 41
1.6000
 42
0.3000
 43
1.0000
 50
0.0000
  0
INSERT
  8
31
  2
RECT
 10
14.0000
 20
10.0250
 30
0.0000
 41
1.6000
 42
0.3000
 43
1.0000
 50
0.0000
  0
INSERT
  8
31
  2
RECT
 10
14.0000
 20
9.3750
 30
0.0000
 41
1.6000
 42
0.3000
 43
1.0000
 50
0.0000
  0
INSERT
  8
31
  2
RECT
 10
14.0000
 20
8.7250
 30
0.0000
 41
1.6000
 42
0.3000
 43
1.0000
 50
0.0000
  0
INSERT
  8
31
  2
RECT
 10
14.0000
 20
8.0750
 30
0.0000
 41
1.6000
 42
0.3000
 43
1.0000
 50
0.0000
  0
INSERT
  8
31
  2
RECT
 10
14.0000
 20
7.4250
 30
0.0000
 41
1.6000
 42
0.3000
 43
1.0000
 50
0.0000
  0
INSERT
  8
31
  2
RECT
 10
14.0000
 20
6.7750
 30
0.0000
 41
1.6000
 42
0.3000
 43
1.0000
 50
0.0000
  0
INSERT
  8
31
  2
RECT
 10
14.0000
 20
6.1250
 30
0.0000
 41
1.6000
 42
0.3000
 43
1.0000
 50
0.0000
  0
INSERT
  8
31
  2
RECT
 10
14.0000
 20
5.4750
 30
0.0000
 41
1.6000
 42
0.3000
 43
1.0000
 50
0.0000
  0
INSERT
  8
31
  2
RECT
 10
19.6000
 20
5.4750
 30
0.0000
 41
1.6000
 42
0.3000
 43
1.0000
 50
0.0000
  0
INSERT
  8
31
  2
RECT
 10
19.6000
 20
6.1250
 30
0.0000
 41
1.6000
 42
0.3000
 43
1.0000
 50
0.0000
  0
INSERT
  8
31
  2
RECT
 10
19.6000
 20
6.7750
 30
0.0000
 41
1.6000
 42
0.3000
 43
1.0000
 50
0.0000
  0
INSERT
  8
31
  2
RECT
 10
19.6000
 20
7.4250
 30
0.0000
 41
1.6000
 42
0.3000
 43
1.0000
 50
0.0000
  0
INSERT
  8
31
  2
RECT
 10
19.6000
 20
8.0750
 30
0.0000
 41
1.6000
 42
0.3000
 43
1.0000
 50
0.0000
  0
INSERT
  8
31
  2
RECT
 10
19.6000
 20
8.7250
 30
0.0000
 41
1.6000
 42
0.3000
 43
1.0000
 50
0.0000
  0
INSERT
  8
31
  2
RECT
 10
19.6000
 20
9.3750
 30
0.0000
 41
1.6000
 42
0.3000
 43
1.0000
 50
0.0000
  0
INSERT
  8
31
  2
RECT
 10
19.6000
 20
10.0250
 30
0.0000
 41
1.6000
 42
0.3000
 43
1.0000
 50
0.0000
  0
INSERT
  8
31
  2
RECT
 10
19.6000
 20
10.6750
 30
0.0000
 41
1.6000
 42
0.3000
 43
1.0000
 50
0.0000
  0
INSERT
  8
31
  2
RECT
 10
19.6000
 20
11.3250
 30
0.0000
 41
1.6000
 42
0.3000
 43
1.0000
 50
0.0000
  0
INSERT
  8
31
  2
RECT
 10
19.6000
 20
11.9750
 30
0.0000
 41
1.6000
 42
0.3000
 43
1.0000
 50
0.0000
  0
INSERT
  8
31
  2
RECT
 10
19.6000
 20
12.6250
 30
0.0000
 41
1.6000
 42
0.3000
 43
1.0000
 50
0.0000
  0
INSERT
  8
31
  2
RECT
 10
19.6000
 20
13.2750
 30
0.0000
 41
1.6000
 42
0.3000
 43
1.0000
 50
0.0000
  0
INSERT
  8
31
  2
RECT
 10
19.6000
 20
13.9250
 30
0.0000
 41
1.6000
 42
0.3000
 43
1.0000
 50
0.0000
  0
INSERT
  8
31
  2
RECT
 10
79.3886
 20
25.9512
 30
0.0000
 41
1.2192
 42
2.2352
 43
1.0000
 50
0.0000
  0
INSERT
  8
31
  2
RECT
 10
81.7000
 20
25.9512
 30
0.0000
 41
1.2192
 42
2.2352
 43
1.0000
 50
0.0000
  0
INSERT
  8
31
  2
RECT
 10
84.0114
 20
25.9512
 30
0.0000
 41
1.2192
 42
2.2352
 43
1.0000
 50
0.0000
  0
INSERT
  8
31
  2
RECT
 10
81.7000
 20
32.1490
 30
0.0000
 41
3.6000
 42
2.2000
 43
1.0000
 50
0.0000
  0
INSERT
  8
31
  2
RECT
 10
71.5500
 20
26.4500
 30
0.0000
 41
0.7000
 42
0.3000
 43
1.0000
 50
0.0000
  0
INSERT
  8
31
  2
RECT
 10
71.5500
 20
25.8000
 30
0.0000
 41
0.7000
 42
0.3000
 43
1.0000
 50
0.0000
  0
INSERT
  8
31
  2
RECT
 10
71.5500
 20
25.1500
 30
0.0000
 41
0.7000
 42
0.3000
 43
1.0000
 50
0.0000
  0
INSERT
  8
31
  2
RECT
 10
73.1500
 20
25.1500
 30
0.0000
 41
0.7000
 42
0.3000
 43
1.0000
 50
0.0000
  0
INSERT
  8
31
  2
RECT
 10
73.1500
 20
25.8000
 30
0.0000
 41
0.7000
 42
0.3000
 43
1.0000
 50
0.0000
  0
INSERT
  8
31
  2
RECT
 10
73.1500
 20
26.4500
 30
0.0000
 41
0.7000
 42
0.3000
 43
1.0000
 50
0.0000
  0
INSERT
  8
31
  2
RECT
 10
55.4250
 20
22.5500
 30
0.0000
 41
0.8000
 42
1.2000
 43
1.0000
 50
0.0000
  0
INSERT
  8
31
  2
RECT
 10
59.8750
 20
22.5500
 30
0.0000
 41
0.8000
 42
1.2000
 43
1.0000
 50
0.0000
  0
INSERT
  8
31
  2
RECT
 10
55.4250
 20
19.0500
 30
0.0000
 41
0.8000
 42
1.2000
 43
1.0000
 50
0.0000
  0
INSERT
  8
31
  2
RECT
 10
59.8750
 20
19.0500
 30
0.0000
 41
0.8000
 42
1.2000
 43
1.0000
 50
0.0000
  0
ENDSEC
  0
EOF
