999
DXF created by Inkscape
  0
SECTION
  2
HEADER
  9
$ACADVER
  1
AC1014
  9
$HANDSEED
  5
FFFF
  9
$MEASUREMENT
 70
     1
  0
ENDSEC
  0
SECTION
  2
TABLES
  0
TABLE
  2
VPORT
  5
8
330
0
100
AcDbSymbolTable
 70
     4
  0
VPORT
  5
2E
330
8
100
AcDbSymbolTableRecord
100
AcDbViewportTableRecord
  2
*ACTIVE
 70
     0
 10
0.0
 20
0.0
 11
1.0
 21
1.0
 12
210.0
 22
148.5
 13
0.0
 23
0.0
 14
10.0
 24
10.0
 15
10.0
 25
10.0
 16
0.0
 26
0.0
 36
1.0
 17
0.0
 27
0.0
 37
0.0
 40
341.0
 41
1.24
 42
50.0
 43
0.0
 44
0.0
 50
0.0
 51
0.0
 71
     0
 72
   100
 73
     1
 74
     3
 75
     0
 76
     0
 77
     0
 78
     0
  0
ENDTAB
  0
TABLE
  2
LTYPE
  5
5
330
0
100
AcDbSymbolTable
 70
     1
  0
LTYPE
  5
14
330
5
100
AcDbSymbolTableRecord
100
AcDbLinetypeTableRecord
  2
BYBLOCK
 70
     0
  3

 72
    65
 73
     0
 40
0.0
  0
LTYPE
  5
15
330
5
100
AcDbSymbolTableRecord
100
AcDbLinetypeTableRecord
  2
BYLAYER
 70
     0
  3

 72
    65
 73
     0
 40
0.0
  0
LTYPE
  5
16
330
5
100
AcDbSymbolTableRecord
100
AcDbLinetypeTableRecord
  2
CONTINUOUS
 70
     0
  3
Solid line
 72
    65
 73
     0
 40
0.0
  0
ENDTAB
  0
TABLE
  2
LAYER
  5
2
100
AcDbSymbolTable
 70
2
  0
LAYER
  5
50
100
AcDbSymbolTableRecord
100
AcDbLayerTableRecord
  2
0
 70
0
  6
CONTINUOUS
  0
LAYER
  5
51
100
AcDbSymbolTableRecord
100
AcDbLayerTableRecord
  2
Layer_1
 70
0
  6
CONTINUOUS
  0
ENDTAB
  0
TABLE
  2
STYLE
  5
3
330
0
100
AcDbSymbolTable
 70
     1
  0
STYLE
  5
11
330
3
100
AcDbSymbolTableRecord
100
AcDbTextStyleTableRecord
  2
STANDARD
 70
     0
 40
0.0
 41
1.0
 50
0.0
 71
     0
 42
2.5
  3
txt
  4

  0
ENDTAB
  0
TABLE
  2
VIEW
  5
6
330
0
100
AcDbSymbolTable
 70
     0
  0
ENDTAB
  0
TABLE
  2
UCS
  5
7
330
0
100
AcDbSymbolTable
 70
     0
  0
ENDTAB
  0
TABLE
  2
APPID
  5
9
330
0
100
AcDbSymbolTable
 70
     2
  0
APPID
  5
12
330
9
100
AcDbSymbolTableRecord
100
AcDbRegAppTableRecord
  2
ACAD
 70
     0
  0
ENDTAB
  0
TABLE
  2
DIMSTYLE
  5
A
330
0
100
AcDbSymbolTable
 70
     1
  0
DIMSTYLE
105
27
330
A
100
AcDbSymbolTableRecord
100
AcDbDimStyleTableRecord
  2
ISO-25
 70
     0
  3

  4

  5

  6

  7

 40
1.0
 41
2.5
 42
0.625
 43
3.75
 44
1.25
 45
0.0
 46
0.0
 47
0.0
 48
0.0
140
2.5
141
2.5
142
0.0
143
0.03937007874016
144
1.0
145
0.0
146
1.0
147
0.625
 71
     0
 72
     0
 73
     0
 74
     0
 75
     0
 76
     0
 77
     1
 78
     8
170
     0
171
     3
172
     1
173
     0
174
     0
175
     0
176
     0
177
     0
178
     0
270
     2
271
     2
272
     2
273
     2
274
     3
340
11
275
     0
280
     0
281
     0
282
     0
283
     0
284
     8
285
     0
286
     0
287
     3
288
     0
  0
ENDTAB
  0
TABLE
  2
BLOCK_RECORD
  5
1
330
0
100
AcDbSymbolTable
 70
     1
  0
BLOCK_RECORD
  5
1F
330
1
100
AcDbSymbolTableRecord
100
AcDbBlockTableRecord
  2
*MODEL_SPACE
  0
BLOCK_RECORD
  5
1B
330
1
100
AcDbSymbolTableRecord
100
AcDbBlockTableRecord
  2
*PAPER_SPACE
  0
ENDTAB
  0
ENDSEC
  0
SECTION
  2
BLOCKS
  0
BLOCK
  5
20
330
1F
100
AcDbEntity
  8
0
100
AcDbBlockBegin
  2
*MODEL_SPACE
 70
     0
 10
0.0
 20
0.0
 30
0.0
  3
*MODEL_SPACE
  1

  0
ENDBLK
  5
21
330
1F
100
AcDbEntity
  8
0
100
AcDbBlockEnd
  0
BLOCK
  5
1C
330
1B
100
AcDbEntity
 67
     1
  8
0
100
AcDbBlockBegin
  2
*PAPER_SPACE
  1

  0
ENDBLK
  5
1D
330
1B
100
AcDbEntity
 67
     1
  8
0
100
AcDbBlockEnd
  0
ENDSEC
  0
SECTION
  2
ENTITIES
  0
LWPOLYLINE
  5
100
100
AcDbEntity
  8
Layer_1
 62
7
100
AcDbPolyline
 90
6
 70
0
 10
136.546083
 20
121.640545
 30
0.0
 10
138.046077
 20
121.640545
 30
0.0
 10
138.046077
 20
122.140498
 30
0.0
 10
136.546083
 20
122.140498
 30
0.0
 10
136.546083
 20
121.640545
 30
0.0
 10
136.546083
 20
121.640545
 30
0.0
  0
LWPOLYLINE
  5
101
100
AcDbEntity
  8
Layer_1
 62
7
100
AcDbPolyline
 90
6
 70
0
 10
136.546083
 20
122.440469
 30
0.0
 10
138.046077
 20
122.440469
 30
0.0
 10
138.046077
 20
122.940560
 30
0.0
 10
136.546083
 20
122.940560
 30
0.0
 10
136.546083
 20
122.440469
 30
0.0
 10
136.546083
 20
122.440469
 30
0.0
  0
LWPOLYLINE
  5
102
100
AcDbEntity
  8
Layer_1
 62
7
100
AcDbPolyline
 90
6
 70
0
 10
136.546083
 20
123.240569
 30
0.0
 10
138.046077
 20
123.240569
 30
0.0
 10
138.046077
 20
123.740522
 30
0.0
 10
136.546083
 20
123.740522
 30
0.0
 10
136.546083
 20
123.240569
 30
0.0
 10
136.546083
 20
123.240569
 30
0.0
  0
LWPOLYLINE
  5
103
100
AcDbEntity
  8
Layer_1
 62
7
100
AcDbPolyline
 90
6
 70
0
 10
136.546083
 20
124.040528
 30
0.0
 10
138.046077
 20
124.040528
 30
0.0
 10
138.046077
 20
124.540481
 30
0.0
 10
136.546083
 20
124.540481
 30
0.0
 10
136.546083
 20
124.040528
 30
0.0
 10
136.546083
 20
124.040528
 30
0.0
  0
LWPOLYLINE
  5
104
100
AcDbEntity
  8
Layer_1
 62
7
100
AcDbPolyline
 90
6
 70
0
 10
136.546083
 20
124.840487
 30
0.0
 10
138.046077
 20
124.840487
 30
0.0
 10
138.046077
 20
125.340577
 30
0.0
 10
136.546083
 20
125.340577
 30
0.0
 10
136.546083
 20
124.840487
 30
0.0
 10
136.546083
 20
124.840487
 30
0.0
  0
LWPOLYLINE
  5
105
100
AcDbEntity
  8
Layer_1
 62
7
100
AcDbPolyline
 90
6
 70
0
 10
136.546083
 20
125.640551
 30
0.0
 10
138.046077
 20
125.640551
 30
0.0
 10
138.046077
 20
126.140505
 30
0.0
 10
136.546083
 20
126.140505
 30
0.0
 10
136.546083
 20
125.640551
 30
0.0
 10
136.546083
 20
125.640551
 30
0.0
  0
LWPOLYLINE
  5
106
100
AcDbEntity
  8
Layer_1
 62
7
100
AcDbPolyline
 90
6
 70
0
 10
136.546083
 20
126.440510
 30
0.0
 10
138.046077
 20
126.440510
 30
0.0
 10
138.046077
 20
126.940463
 30
0.0
 10
136.546083
 20
126.940463
 30
0.0
 10
136.546083
 20
126.440510
 30
0.0
 10
136.546083
 20
126.440510
 30
0.0
  0
LWPOLYLINE
  5
107
100
AcDbEntity
  8
Layer_1
 62
7
100
AcDbPolyline
 90
6
 70
0
 10
136.546083
 20
127.240469
 30
0.0
 10
138.046077
 20
127.240469
 30
0.0
 10
138.046077
 20
127.740560
 30
0.0
 10
136.546083
 20
127.740560
 30
0.0
 10
136.546083
 20
127.240469
 30
0.0
 10
136.546083
 20
127.240469
 30
0.0
  0
LWPOLYLINE
  5
108
100
AcDbEntity
  8
Layer_1
 62
7
100
AcDbPolyline
 90
6
 70
0
 10
136.546083
 20
128.040569
 30
0.0
 10
138.046077
 20
128.040569
 30
0.0
 10
138.046077
 20
128.540522
 30
0.0
 10
136.546083
 20
128.540522
 30
0.0
 10
136.546083
 20
128.040569
 30
0.0
 10
136.546083
 20
128.040569
 30
0.0
  0
LWPOLYLINE
  5
109
100
AcDbEntity
  8
Layer_1
 62
7
100
AcDbPolyline
 90
6
 70
0
 10
136.546083
 20
128.840493
 30
0.0
 10
138.046077
 20
128.840493
 30
0.0
 10
138.046077
 20
129.340446
 30
0.0
 10
136.546083
 20
129.340446
 30
0.0
 10
136.546083
 20
128.840493
 30
0.0
 10
136.546083
 20
128.840493
 30
0.0
  0
LWPOLYLINE
  5
10a
100
AcDbEntity
  8
Layer_1
 62
7
100
AcDbPolyline
 90
6
 70
0
 10
136.546083
 20
129.640452
 30
0.0
 10
138.046077
 20
129.640452
 30
0.0
 10
138.046077
 20
130.140542
 30
0.0
 10
136.546083
 20
130.140542
 30
0.0
 10
136.546083
 20
129.640452
 30
0.0
 10
136.546083
 20
129.640452
 30
0.0
  0
LWPOLYLINE
  5
10b
100
AcDbEntity
  8
Layer_1
 62
7
100
AcDbPolyline
 90
6
 70
0
 10
136.546083
 20
130.440552
 30
0.0
 10
138.046077
 20
130.440552
 30
0.0
 10
138.046077
 20
130.940505
 30
0.0
 10
136.546083
 20
130.940505
 30
0.0
 10
136.546083
 20
130.440552
 30
0.0
 10
136.546083
 20
130.440552
 30
0.0
  0
LWPOLYLINE
  5
10c
100
AcDbEntity
  8
Layer_1
 62
7
100
AcDbPolyline
 90
6
 70
0
 10
136.546083
 20
131.240511
 30
0.0
 10
138.046077
 20
131.240511
 30
0.0
 10
138.046077
 20
131.740464
 30
0.0
 10
136.546083
 20
131.740464
 30
0.0
 10
136.546083
 20
131.240511
 30
0.0
 10
136.546083
 20
131.240511
 30
0.0
  0
LWPOLYLINE
  5
10d
100
AcDbEntity
  8
Layer_1
 62
7
100
AcDbPolyline
 90
6
 70
0
 10
136.546083
 20
132.040434
 30
0.0
 10
138.046077
 20
132.040434
 30
0.0
 10
138.046077
 20
132.540525
 30
0.0
 10
136.546083
 20
132.540525
 30
0.0
 10
136.546083
 20
132.040434
 30
0.0
 10
136.546083
 20
132.040434
 30
0.0
  0
LWPOLYLINE
  5
10e
100
AcDbEntity
  8
Layer_1
 62
7
100
AcDbPolyline
 90
6
 70
0
 10
136.546083
 20
132.840534
 30
0.0
 10
138.046077
 20
132.840534
 30
0.0
 10
138.046077
 20
133.340487
 30
0.0
 10
136.546083
 20
133.340487
 30
0.0
 10
136.546083
 20
132.840534
 30
0.0
 10
136.546083
 20
132.840534
 30
0.0
  0
LWPOLYLINE
  5
10f
100
AcDbEntity
  8
Layer_1
 62
7
100
AcDbPolyline
 90
6
 70
0
 10
136.546083
 20
133.640493
 30
0.0
 10
138.046077
 20
133.640493
 30
0.0
 10
138.046077
 20
134.140584
 30
0.0
 10
136.546083
 20
134.140584
 30
0.0
 10
136.546083
 20
133.640493
 30
0.0
 10
136.546083
 20
133.640493
 30
0.0
  0
LWPOLYLINE
  5
110
100
AcDbEntity
  8
Layer_1
 62
7
100
AcDbPolyline
 90
6
 70
0
 10
135.246450
 20
134.940514
 30
0.0
 10
135.746403
 20
134.940514
 30
0.0
 10
135.746403
 20
136.440508
 30
0.0
 10
135.246450
 20
136.440508
 30
0.0
 10
135.246450
 20
134.940514
 30
0.0
 10
135.246450
 20
134.940514
 30
0.0
  0
LWPOLYLINE
  5
111
100
AcDbEntity
  8
Layer_1
 62
7
100
AcDbPolyline
 90
6
 70
0
 10
134.446350
 20
134.940514
 30
0.0
 10
134.946440
 20
134.940514
 30
0.0
 10
134.946440
 20
136.440508
 30
0.0
 10
134.446350
 20
136.440508
 30
0.0
 10
134.446350
 20
134.940514
 30
0.0
 10
134.446350
 20
134.940514
 30
0.0
  0
LWPOLYLINE
  5
112
100
AcDbEntity
  8
Layer_1
 62
7
100
AcDbPolyline
 90
6
 70
0
 10
133.646250
 20
134.940514
 30
0.0
 10
134.146203
 20
134.940514
 30
0.0
 10
134.146203
 20
136.440508
 30
0.0
 10
133.646250
 20
136.440508
 30
0.0
 10
133.646250
 20
134.940514
 30
0.0
 10
133.646250
 20
134.940514
 30
0.0
  0
LWPOLYLINE
  5
113
100
AcDbEntity
  8
Layer_1
 62
7
100
AcDbPolyline
 90
6
 70
0
 10
132.846503
 20
134.940514
 30
0.0
 10
133.346456
 20
134.940514
 30
0.0
 10
133.346456
 20
136.440508
 30
0.0
 10
132.846503
 20
136.440508
 30
0.0
 10
132.846503
 20
134.940514
 30
0.0
 10
132.846503
 20
134.940514
 30
0.0
  0
LWPOLYLINE
  5
114
100
AcDbEntity
  8
Layer_1
 62
7
100
AcDbPolyline
 90
6
 70
0
 10
132.046403
 20
134.940514
 30
0.0
 10
132.546493
 20
134.940514
 30
0.0
 10
132.546493
 20
136.440508
 30
0.0
 10
132.046403
 20
136.440508
 30
0.0
 10
132.046403
 20
134.940514
 30
0.0
 10
132.046403
 20
134.940514
 30
0.0
  0
LWPOLYLINE
  5
115
100
AcDbEntity
  8
Layer_1
 62
7
100
AcDbPolyline
 90
6
 70
0
 10
131.246303
 20
134.940514
 30
0.0
 10
131.746256
 20
134.940514
 30
0.0
 10
131.746256
 20
136.440508
 30
0.0
 10
131.246303
 20
136.440508
 30
0.0
 10
131.246303
 20
134.940514
 30
0.0
 10
131.246303
 20
134.940514
 30
0.0
  0
LWPOLYLINE
  5
116
100
AcDbEntity
  8
Layer_1
 62
7
100
AcDbPolyline
 90
6
 70
0
 10
130.446203
 20
134.940514
 30
0.0
 10
130.946156
 20
134.940514
 30
0.0
 10
130.946156
 20
136.440508
 30
0.0
 10
130.446203
 20
136.440508
 30
0.0
 10
130.446203
 20
134.940514
 30
0.0
 10
130.446203
 20
134.940514
 30
0.0
  0
LWPOLYLINE
  5
117
100
AcDbEntity
  8
Layer_1
 62
7
100
AcDbPolyline
 90
6
 70
0
 10
129.646103
 20
134.940514
 30
0.0
 10
130.146193
 20
134.940514
 30
0.0
 10
130.146193
 20
136.440508
 30
0.0
 10
129.646103
 20
136.440508
 30
0.0
 10
129.646103
 20
134.940514
 30
0.0
 10
129.646103
 20
134.940514
 30
0.0
  0
LWPOLYLINE
  5
118
100
AcDbEntity
  8
Layer_1
 62
7
100
AcDbPolyline
 90
6
 70
0
 10
128.846355
 20
134.940514
 30
0.0
 10
129.346308
 20
134.940514
 30
0.0
 10
129.346308
 20
136.440508
 30
0.0
 10
128.846355
 20
136.440508
 30
0.0
 10
128.846355
 20
134.940514
 30
0.0
 10
128.846355
 20
134.940514
 30
0.0
  0
LWPOLYLINE
  5
119
100
AcDbEntity
  8
Layer_1
 62
7
100
AcDbPolyline
 90
6
 70
0
 10
128.046255
 20
134.940514
 30
0.0
 10
128.546346
 20
134.940514
 30
0.0
 10
128.546346
 20
136.440508
 30
0.0
 10
128.046255
 20
136.440508
 30
0.0
 10
128.046255
 20
134.940514
 30
0.0
 10
128.046255
 20
134.940514
 30
0.0
  0
LWPOLYLINE
  5
11a
100
AcDbEntity
  8
Layer_1
 62
7
100
AcDbPolyline
 90
6
 70
0
 10
127.246155
 20
134.940514
 30
0.0
 10
127.746108
 20
134.940514
 30
0.0
 10
127.746108
 20
136.440508
 30
0.0
 10
127.246155
 20
136.440508
 30
0.0
 10
127.246155
 20
134.940514
 30
0.0
 10
127.246155
 20
134.940514
 30
0.0
  0
LWPOLYLINE
  5
11b
100
AcDbEntity
  8
Layer_1
 62
7
100
AcDbPolyline
 90
6
 70
0
 10
126.446408
 20
134.940514
 30
0.0
 10
126.946361
 20
134.940514
 30
0.0
 10
126.946361
 20
136.440508
 30
0.0
 10
126.446408
 20
136.440508
 30
0.0
 10
126.446408
 20
134.940514
 30
0.0
 10
126.446408
 20
134.940514
 30
0.0
  0
LWPOLYLINE
  5
11c
100
AcDbEntity
  8
Layer_1
 62
7
100
AcDbPolyline
 90
6
 70
0
 10
125.646308
 20
134.940514
 30
0.0
 10
126.146399
 20
134.940514
 30
0.0
 10
126.146399
 20
136.440508
 30
0.0
 10
125.646308
 20
136.440508
 30
0.0
 10
125.646308
 20
134.940514
 30
0.0
 10
125.646308
 20
134.940514
 30
0.0
  0
LWPOLYLINE
  5
11d
100
AcDbEntity
  8
Layer_1
 62
7
100
AcDbPolyline
 90
6
 70
0
 10
124.846208
 20
134.940514
 30
0.0
 10
125.346161
 20
134.940514
 30
0.0
 10
125.346161
 20
136.440508
 30
0.0
 10
124.846208
 20
136.440508
 30
0.0
 10
124.846208
 20
134.940514
 30
0.0
 10
124.846208
 20
134.940514
 30
0.0
  0
LWPOLYLINE
  5
11e
100
AcDbEntity
  8
Layer_1
 62
7
100
AcDbPolyline
 90
6
 70
0
 10
124.046461
 20
134.940514
 30
0.0
 10
124.546414
 20
134.940514
 30
0.0
 10
124.546414
 20
136.440508
 30
0.0
 10
124.046461
 20
136.440508
 30
0.0
 10
124.046461
 20
134.940514
 30
0.0
 10
124.046461
 20
134.940514
 30
0.0
  0
LWPOLYLINE
  5
11f
100
AcDbEntity
  8
Layer_1
 62
7
100
AcDbPolyline
 90
6
 70
0
 10
123.246361
 20
134.940514
 30
0.0
 10
123.746452
 20
134.940514
 30
0.0
 10
123.746452
 20
136.440508
 30
0.0
 10
123.246361
 20
136.440508
 30
0.0
 10
123.246361
 20
134.940514
 30
0.0
 10
123.246361
 20
134.940514
 30
0.0
  0
LWPOLYLINE
  5
120
100
AcDbEntity
  8
Layer_1
 62
7
100
AcDbPolyline
 90
6
 70
0
 10
120.946250
 20
133.640493
 30
0.0
 10
122.446243
 20
133.640493
 30
0.0
 10
122.446243
 20
134.140584
 30
0.0
 10
120.946250
 20
134.140584
 30
0.0
 10
120.946250
 20
133.640493
 30
0.0
 10
120.946250
 20
133.640493
 30
0.0
  0
LWPOLYLINE
  5
121
100
AcDbEntity
  8
Layer_1
 62
7
100
AcDbPolyline
 90
6
 70
0
 10
120.946250
 20
132.840534
 30
0.0
 10
122.446243
 20
132.840534
 30
0.0
 10
122.446243
 20
133.340487
 30
0.0
 10
120.946250
 20
133.340487
 30
0.0
 10
120.946250
 20
132.840534
 30
0.0
 10
120.946250
 20
132.840534
 30
0.0
  0
LWPOLYLINE
  5
122
100
AcDbEntity
  8
Layer_1
 62
7
100
AcDbPolyline
 90
6
 70
0
 10
120.946250
 20
132.040434
 30
0.0
 10
122.446243
 20
132.040434
 30
0.0
 10
122.446243
 20
132.540525
 30
0.0
 10
120.946250
 20
132.540525
 30
0.0
 10
120.946250
 20
132.040434
 30
0.0
 10
120.946250
 20
132.040434
 30
0.0
  0
LWPOLYLINE
  5
123
100
AcDbEntity
  8
Layer_1
 62
7
100
AcDbPolyline
 90
6
 70
0
 10
120.946250
 20
131.240511
 30
0.0
 10
122.446243
 20
131.240511
 30
0.0
 10
122.446243
 20
131.740464
 30
0.0
 10
120.946250
 20
131.740464
 30
0.0
 10
120.946250
 20
131.240511
 30
0.0
 10
120.946250
 20
131.240511
 30
0.0
  0
LWPOLYLINE
  5
124
100
AcDbEntity
  8
Layer_1
 62
7
100
AcDbPolyline
 90
6
 70
0
 10
120.946250
 20
130.440552
 30
0.0
 10
122.446243
 20
130.440552
 30
0.0
 10
122.446243
 20
130.940505
 30
0.0
 10
120.946250
 20
130.940505
 30
0.0
 10
120.946250
 20
130.440552
 30
0.0
 10
120.946250
 20
130.440552
 30
0.0
  0
LWPOLYLINE
  5
125
100
AcDbEntity
  8
Layer_1
 62
7
100
AcDbPolyline
 90
6
 70
0
 10
120.946250
 20
129.640452
 30
0.0
 10
122.446243
 20
129.640452
 30
0.0
 10
122.446243
 20
130.140542
 30
0.0
 10
120.946250
 20
130.140542
 30
0.0
 10
120.946250
 20
129.640452
 30
0.0
 10
120.946250
 20
129.640452
 30
0.0
  0
LWPOLYLINE
  5
126
100
AcDbEntity
  8
Layer_1
 62
7
100
AcDbPolyline
 90
6
 70
0
 10
120.946250
 20
128.840493
 30
0.0
 10
122.446243
 20
128.840493
 30
0.0
 10
122.446243
 20
129.340446
 30
0.0
 10
120.946250
 20
129.340446
 30
0.0
 10
120.946250
 20
128.840493
 30
0.0
 10
120.946250
 20
128.840493
 30
0.0
  0
LWPOLYLINE
  5
127
100
AcDbEntity
  8
Layer_1
 62
7
100
AcDbPolyline
 90
6
 70
0
 10
120.946250
 20
128.040569
 30
0.0
 10
122.446243
 20
128.040569
 30
0.0
 10
122.446243
 20
128.540522
 30
0.0
 10
120.946250
 20
128.540522
 30
0.0
 10
120.946250
 20
128.040569
 30
0.0
 10
120.946250
 20
128.040569
 30
0.0
  0
LWPOLYLINE
  5
128
100
AcDbEntity
  8
Layer_1
 62
7
100
AcDbPolyline
 90
6
 70
0
 10
120.946250
 20
127.240469
 30
0.0
 10
122.446243
 20
127.240469
 30
0.0
 10
122.446243
 20
127.740560
 30
0.0
 10
120.946250
 20
127.740560
 30
0.0
 10
120.946250
 20
127.240469
 30
0.0
 10
120.946250
 20
127.240469
 30
0.0
  0
LWPOLYLINE
  5
129
100
AcDbEntity
  8
Layer_1
 62
7
100
AcDbPolyline
 90
6
 70
0
 10
120.946250
 20
126.440510
 30
0.0
 10
122.446243
 20
126.440510
 30
0.0
 10
122.446243
 20
126.940463
 30
0.0
 10
120.946250
 20
126.940463
 30
0.0
 10
120.946250
 20
126.440510
 30
0.0
 10
120.946250
 20
126.440510
 30
0.0
  0
LWPOLYLINE
  5
12a
100
AcDbEntity
  8
Layer_1
 62
7
100
AcDbPolyline
 90
6
 70
0
 10
120.946250
 20
125.640551
 30
0.0
 10
122.446243
 20
125.640551
 30
0.0
 10
122.446243
 20
126.140505
 30
0.0
 10
120.946250
 20
126.140505
 30
0.0
 10
120.946250
 20
125.640551
 30
0.0
 10
120.946250
 20
125.640551
 30
0.0
  0
LWPOLYLINE
  5
12b
100
AcDbEntity
  8
Layer_1
 62
7
100
AcDbPolyline
 90
6
 70
0
 10
120.946250
 20
124.840487
 30
0.0
 10
122.446243
 20
124.840487
 30
0.0
 10
122.446243
 20
125.340577
 30
0.0
 10
120.946250
 20
125.340577
 30
0.0
 10
120.946250
 20
124.840487
 30
0.0
 10
120.946250
 20
124.840487
 30
0.0
  0
LWPOLYLINE
  5
12c
100
AcDbEntity
  8
Layer_1
 62
7
100
AcDbPolyline
 90
6
 70
0
 10
120.946250
 20
124.040528
 30
0.0
 10
122.446243
 20
124.040528
 30
0.0
 10
122.446243
 20
124.540481
 30
0.0
 10
120.946250
 20
124.540481
 30
0.0
 10
120.946250
 20
124.040528
 30
0.0
 10
120.946250
 20
124.040528
 30
0.0
  0
LWPOLYLINE
  5
12d
100
AcDbEntity
  8
Layer_1
 62
7
100
AcDbPolyline
 90
6
 70
0
 10
120.946250
 20
123.240569
 30
0.0
 10
122.446243
 20
123.240569
 30
0.0
 10
122.446243
 20
123.740522
 30
0.0
 10
120.946250
 20
123.740522
 30
0.0
 10
120.946250
 20
123.240569
 30
0.0
 10
120.946250
 20
123.240569
 30
0.0
  0
LWPOLYLINE
  5
12e
100
AcDbEntity
  8
Layer_1
 62
7
100
AcDbPolyline
 90
6
 70
0
 10
120.946250
 20
122.440469
 30
0.0
 10
122.446243
 20
122.440469
 30
0.0
 10
122.446243
 20
122.940560
 30
0.0
 10
120.946250
 20
122.940560
 30
0.0
 10
120.946250
 20
122.440469
 30
0.0
 10
120.946250
 20
122.440469
 30
0.0
  0
LWPOLYLINE
  5
12f
100
AcDbEntity
  8
Layer_1
 62
7
100
AcDbPolyline
 90
6
 70
0
 10
120.946250
 20
121.640545
 30
0.0
 10
122.446243
 20
121.640545
 30
0.0
 10
122.446243
 20
122.140498
 30
0.0
 10
120.946250
 20
122.140498
 30
0.0
 10
120.946250
 20
121.640545
 30
0.0
 10
120.946250
 20
121.640545
 30
0.0
  0
LWPOLYLINE
  5
130
100
AcDbEntity
  8
Layer_1
 62
7
100
AcDbPolyline
 90
6
 70
0
 10
123.246361
 20
119.340434
 30
0.0
 10
123.746452
 20
119.340434
 30
0.0
 10
123.746452
 20
120.840565
 30
0.0
 10
123.246361
 20
120.840565
 30
0.0
 10
123.246361
 20
119.340434
 30
0.0
 10
123.246361
 20
119.340434
 30
0.0
  0
LWPOLYLINE
  5
131
100
AcDbEntity
  8
Layer_1
 62
7
100
AcDbPolyline
 90
6
 70
0
 10
124.046461
 20
119.340434
 30
0.0
 10
124.546414
 20
119.340434
 30
0.0
 10
124.546414
 20
120.840565
 30
0.0
 10
124.046461
 20
120.840565
 30
0.0
 10
124.046461
 20
119.340434
 30
0.0
 10
124.046461
 20
119.340434
 30
0.0
  0
LWPOLYLINE
  5
132
100
AcDbEntity
  8
Layer_1
 62
7
100
AcDbPolyline
 90
6
 70
0
 10
124.846208
 20
119.340434
 30
0.0
 10
125.346161
 20
119.340434
 30
0.0
 10
125.346161
 20
120.840565
 30
0.0
 10
124.846208
 20
120.840565
 30
0.0
 10
124.846208
 20
119.340434
 30
0.0
 10
124.846208
 20
119.340434
 30
0.0
  0
LWPOLYLINE
  5
133
100
AcDbEntity
  8
Layer_1
 62
7
100
AcDbPolyline
 90
6
 70
0
 10
125.646308
 20
119.340434
 30
0.0
 10
126.146399
 20
119.340434
 30
0.0
 10
126.146399
 20
120.840565
 30
0.0
 10
125.646308
 20
120.840565
 30
0.0
 10
125.646308
 20
119.340434
 30
0.0
 10
125.646308
 20
119.340434
 30
0.0
  0
LWPOLYLINE
  5
134
100
AcDbEntity
  8
Layer_1
 62
7
100
AcDbPolyline
 90
6
 70
0
 10
126.446408
 20
119.340434
 30
0.0
 10
126.946361
 20
119.340434
 30
0.0
 10
126.946361
 20
120.840565
 30
0.0
 10
126.446408
 20
120.840565
 30
0.0
 10
126.446408
 20
119.340434
 30
0.0
 10
126.446408
 20
119.340434
 30
0.0
  0
LWPOLYLINE
  5
135
100
AcDbEntity
  8
Layer_1
 62
7
100
AcDbPolyline
 90
6
 70
0
 10
127.246155
 20
119.340434
 30
0.0
 10
127.746108
 20
119.340434
 30
0.0
 10
127.746108
 20
120.840565
 30
0.0
 10
127.246155
 20
120.840565
 30
0.0
 10
127.246155
 20
119.340434
 30
0.0
 10
127.246155
 20
119.340434
 30
0.0
  0
LWPOLYLINE
  5
136
100
AcDbEntity
  8
Layer_1
 62
7
100
AcDbPolyline
 90
6
 70
0
 10
128.046255
 20
119.340434
 30
0.0
 10
128.546346
 20
119.340434
 30
0.0
 10
128.546346
 20
120.840565
 30
0.0
 10
128.046255
 20
120.840565
 30
0.0
 10
128.046255
 20
119.340434
 30
0.0
 10
128.046255
 20
119.340434
 30
0.0
  0
LWPOLYLINE
  5
137
100
AcDbEntity
  8
Layer_1
 62
7
100
AcDbPolyline
 90
6
 70
0
 10
128.846355
 20
119.340434
 30
0.0
 10
129.346308
 20
119.340434
 30
0.0
 10
129.346308
 20
120.840565
 30
0.0
 10
128.846355
 20
120.840565
 30
0.0
 10
128.846355
 20
119.340434
 30
0.0
 10
128.846355
 20
119.340434
 30
0.0
  0
LWPOLYLINE
  5
138
100
AcDbEntity
  8
Layer_1
 62
7
100
AcDbPolyline
 90
6
 70
0
 10
129.646103
 20
119.340434
 30
0.0
 10
130.146193
 20
119.340434
 30
0.0
 10
130.146193
 20
120.840565
 30
0.0
 10
129.646103
 20
120.840565
 30
0.0
 10
129.646103
 20
119.340434
 30
0.0
 10
129.646103
 20
119.340434
 30
0.0
  0
LWPOLYLINE
  5
139
100
AcDbEntity
  8
Layer_1
 62
7
100
AcDbPolyline
 90
6
 70
0
 10
130.446203
 20
119.340434
 30
0.0
 10
130.946156
 20
119.340434
 30
0.0
 10
130.946156
 20
120.840565
 30
0.0
 10
130.446203
 20
120.840565
 30
0.0
 10
130.446203
 20
119.340434
 30
0.0
 10
130.446203
 20
119.340434
 30
0.0
  0
LWPOLYLINE
  5
13a
100
AcDbEntity
  8
Layer_1
 62
7
100
AcDbPolyline
 90
6
 70
0
 10
131.246303
 20
119.340434
 30
0.0
 10
131.746256
 20
119.340434
 30
0.0
 10
131.746256
 20
120.840565
 30
0.0
 10
131.246303
 20
120.840565
 30
0.0
 10
131.246303
 20
119.340434
 30
0.0
 10
131.246303
 20
119.340434
 30
0.0
  0
LWPOLYLINE
  5
13b
100
AcDbEntity
  8
Layer_1
 62
7
100
AcDbPolyline
 90
6
 70
0
 10
132.046403
 20
119.340434
 30
0.0
 10
132.546493
 20
119.340434
 30
0.0
 10
132.546493
 20
120.840565
 30
0.0
 10
132.046403
 20
120.840565
 30
0.0
 10
132.046403
 20
119.340434
 30
0.0
 10
132.046403
 20
119.340434
 30
0.0
  0
LWPOLYLINE
  5
13c
100
AcDbEntity
  8
Layer_1
 62
7
100
AcDbPolyline
 90
6
 70
0
 10
132.846503
 20
119.340434
 30
0.0
 10
133.346456
 20
119.340434
 30
0.0
 10
133.346456
 20
120.840565
 30
0.0
 10
132.846503
 20
120.840565
 30
0.0
 10
132.846503
 20
119.340434
 30
0.0
 10
132.846503
 20
119.340434
 30
0.0
  0
LWPOLYLINE
  5
13d
100
AcDbEntity
  8
Layer_1
 62
7
100
AcDbPolyline
 90
6
 70
0
 10
133.646250
 20
119.340434
 30
0.0
 10
134.146203
 20
119.340434
 30
0.0
 10
134.146203
 20
120.840565
 30
0.0
 10
133.646250
 20
120.840565
 30
0.0
 10
133.646250
 20
119.340434
 30
0.0
 10
133.646250
 20
119.340434
 30
0.0
  0
LWPOLYLINE
  5
13e
100
AcDbEntity
  8
Layer_1
 62
7
100
AcDbPolyline
 90
6
 70
0
 10
134.446350
 20
119.340434
 30
0.0
 10
134.946440
 20
119.340434
 30
0.0
 10
134.946440
 20
120.840565
 30
0.0
 10
134.446350
 20
120.840565
 30
0.0
 10
134.446350
 20
119.340434
 30
0.0
 10
134.446350
 20
119.340434
 30
0.0
  0
LWPOLYLINE
  5
13f
100
AcDbEntity
  8
Layer_1
 62
7
100
AcDbPolyline
 90
6
 70
0
 10
135.246450
 20
119.340434
 30
0.0
 10
135.746403
 20
119.340434
 30
0.0
 10
135.746403
 20
120.840565
 30
0.0
 10
135.246450
 20
120.840565
 30
0.0
 10
135.246450
 20
119.340434
 30
0.0
 10
135.246450
 20
119.340434
 30
0.0
  0
LWPOLYLINE
  5
140
100
AcDbEntity
  8
Layer_1
 62
7
100
AcDbPolyline
 90
6
 70
0
 10
154.378647
 20
127.455558
 30
0.0
 10
156.013691
 20
127.455558
 30
0.0
 10
156.013691
 20
127.895429
 30
0.0
 10
154.378647
 20
127.895429
 30
0.0
 10
154.378647
 20
127.455558
 30
0.0
 10
154.378647
 20
127.455558
 30
0.0
  0
LWPOLYLINE
  5
141
100
AcDbEntity
  8
Layer_1
 62
7
100
AcDbPolyline
 90
6
 70
0
 10
154.378647
 20
126.805565
 30
0.0
 10
156.013691
 20
126.805565
 30
0.0
 10
156.013691
 20
127.245574
 30
0.0
 10
154.378647
 20
127.245574
 30
0.0
 10
154.378647
 20
126.805565
 30
0.0
 10
154.378647
 20
126.805565
 30
0.0
  0
LWPOLYLINE
  5
142
100
AcDbEntity
  8
Layer_1
 62
7
100
AcDbPolyline
 90
6
 70
0
 10
154.378647
 20
126.155536
 30
0.0
 10
156.013691
 20
126.155536
 30
0.0
 10
156.013691
 20
126.595546
 30
0.0
 10
154.378647
 20
126.595546
 30
0.0
 10
154.378647
 20
126.155536
 30
0.0
 10
154.378647
 20
126.155536
 30
0.0
  0
LWPOLYLINE
  5
143
100
AcDbEntity
  8
Layer_1
 62
7
100
AcDbPolyline
 90
6
 70
0
 10
154.378647
 20
125.505508
 30
0.0
 10
156.013691
 20
125.505508
 30
0.0
 10
156.013691
 20
125.945517
 30
0.0
 10
154.378647
 20
125.945517
 30
0.0
 10
154.378647
 20
125.505508
 30
0.0
 10
154.378647
 20
125.505508
 30
0.0
  0
LWPOLYLINE
  5
144
100
AcDbEntity
  8
Layer_1
 62
7
100
AcDbPolyline
 90
6
 70
0
 10
154.378647
 20
124.855480
 30
0.0
 10
156.013691
 20
124.855480
 30
0.0
 10
156.013691
 20
125.295489
 30
0.0
 10
154.378647
 20
125.295489
 30
0.0
 10
154.378647
 20
124.855480
 30
0.0
 10
154.378647
 20
124.855480
 30
0.0
  0
LWPOLYLINE
  5
145
100
AcDbEntity
  8
Layer_1
 62
7
100
AcDbPolyline
 90
6
 70
0
 10
154.378647
 20
124.205487
 30
0.0
 10
156.013691
 20
124.205487
 30
0.0
 10
156.013691
 20
124.645496
 30
0.0
 10
154.378647
 20
124.645496
 30
0.0
 10
154.378647
 20
124.205487
 30
0.0
 10
154.378647
 20
124.205487
 30
0.0
  0
LWPOLYLINE
  5
146
100
AcDbEntity
  8
Layer_1
 62
7
100
AcDbPolyline
 90
6
 70
0
 10
154.378647
 20
123.555458
 30
0.0
 10
156.013691
 20
123.555458
 30
0.0
 10
156.013691
 20
123.995467
 30
0.0
 10
154.378647
 20
123.995467
 30
0.0
 10
154.378647
 20
123.555458
 30
0.0
 10
154.378647
 20
123.555458
 30
0.0
  0
LWPOLYLINE
  5
147
100
AcDbEntity
  8
Layer_1
 62
7
100
AcDbPolyline
 90
6
 70
0
 10
154.378647
 20
122.905571
 30
0.0
 10
156.013691
 20
122.905571
 30
0.0
 10
156.013691
 20
123.345580
 30
0.0
 10
154.378647
 20
123.345580
 30
0.0
 10
154.378647
 20
122.905571
 30
0.0
 10
154.378647
 20
122.905571
 30
0.0
  0
LWPOLYLINE
  5
148
100
AcDbEntity
  8
Layer_1
 62
7
100
AcDbPolyline
 90
6
 70
0
 10
154.378647
 20
122.255543
 30
0.0
 10
156.013691
 20
122.255543
 30
0.0
 10
156.013691
 20
122.695552
 30
0.0
 10
154.378647
 20
122.695552
 30
0.0
 10
154.378647
 20
122.255543
 30
0.0
 10
154.378647
 20
122.255543
 30
0.0
  0
LWPOLYLINE
  5
149
100
AcDbEntity
  8
Layer_1
 62
7
100
AcDbPolyline
 90
6
 70
0
 10
154.378647
 20
121.605514
 30
0.0
 10
156.013691
 20
121.605514
 30
0.0
 10
156.013691
 20
122.045524
 30
0.0
 10
154.378647
 20
122.045524
 30
0.0
 10
154.378647
 20
121.605514
 30
0.0
 10
154.378647
 20
121.605514
 30
0.0
  0
LWPOLYLINE
  5
14a
100
AcDbEntity
  8
Layer_1
 62
7
100
AcDbPolyline
 90
6
 70
0
 10
154.378647
 20
120.955521
 30
0.0
 10
156.013691
 20
120.955521
 30
0.0
 10
156.013691
 20
121.395531
 30
0.0
 10
154.378647
 20
121.395531
 30
0.0
 10
154.378647
 20
120.955521
 30
0.0
 10
154.378647
 20
120.955521
 30
0.0
  0
LWPOLYLINE
  5
14b
100
AcDbEntity
  8
Layer_1
 62
7
100
AcDbPolyline
 90
6
 70
0
 10
154.378647
 20
120.305493
 30
0.0
 10
156.013691
 20
120.305493
 30
0.0
 10
156.013691
 20
120.745502
 30
0.0
 10
154.378647
 20
120.745502
 30
0.0
 10
154.378647
 20
120.305493
 30
0.0
 10
154.378647
 20
120.305493
 30
0.0
  0
LWPOLYLINE
  5
14c
100
AcDbEntity
  8
Layer_1
 62
7
100
AcDbPolyline
 90
6
 70
0
 10
148.278766
 20
127.455558
 30
0.0
 10
149.913673
 20
127.455558
 30
0.0
 10
149.913673
 20
127.895429
 30
0.0
 10
148.278766
 20
127.895429
 30
0.0
 10
148.278766
 20
127.455558
 30
0.0
 10
148.278766
 20
127.455558
 30
0.0
  0
LWPOLYLINE
  5
14d
100
AcDbEntity
  8
Layer_1
 62
7
100
AcDbPolyline
 90
6
 70
0
 10
148.278766
 20
126.805565
 30
0.0
 10
149.913673
 20
126.805565
 30
0.0
 10
149.913673
 20
127.245574
 30
0.0
 10
148.278766
 20
127.245574
 30
0.0
 10
148.278766
 20
126.805565
 30
0.0
 10
148.278766
 20
126.805565
 30
0.0
  0
LWPOLYLINE
  5
14e
100
AcDbEntity
  8
Layer_1
 62
7
100
AcDbPolyline
 90
6
 70
0
 10
148.278766
 20
126.155536
 30
0.0
 10
149.913673
 20
126.155536
 30
0.0
 10
149.913673
 20
126.595546
 30
0.0
 10
148.278766
 20
126.595546
 30
0.0
 10
148.278766
 20
126.155536
 30
0.0
 10
148.278766
 20
126.155536
 30
0.0
  0
LWPOLYLINE
  5
14f
100
AcDbEntity
  8
Layer_1
 62
7
100
AcDbPolyline
 90
6
 70
0
 10
148.278766
 20
125.505508
 30
0.0
 10
149.913673
 20
125.505508
 30
0.0
 10
149.913673
 20
125.945517
 30
0.0
 10
148.278766
 20
125.945517
 30
0.0
 10
148.278766
 20
125.505508
 30
0.0
 10
148.278766
 20
125.505508
 30
0.0
  0
LWPOLYLINE
  5
150
100
AcDbEntity
  8
Layer_1
 62
7
100
AcDbPolyline
 90
6
 70
0
 10
148.278766
 20
124.855480
 30
0.0
 10
149.913673
 20
124.855480
 30
0.0
 10
149.913673
 20
125.295489
 30
0.0
 10
148.278766
 20
125.295489
 30
0.0
 10
148.278766
 20
124.855480
 30
0.0
 10
148.278766
 20
124.855480
 30
0.0
  0
LWPOLYLINE
  5
151
100
AcDbEntity
  8
Layer_1
 62
7
100
AcDbPolyline
 90
6
 70
0
 10
148.278766
 20
124.205487
 30
0.0
 10
149.913673
 20
124.205487
 30
0.0
 10
149.913673
 20
124.645496
 30
0.0
 10
148.278766
 20
124.645496
 30
0.0
 10
148.278766
 20
124.205487
 30
0.0
 10
148.278766
 20
124.205487
 30
0.0
  0
LWPOLYLINE
  5
152
100
AcDbEntity
  8
Layer_1
 62
7
100
AcDbPolyline
 90
6
 70
0
 10
148.278766
 20
123.555458
 30
0.0
 10
149.913673
 20
123.555458
 30
0.0
 10
149.913673
 20
123.995467
 30
0.0
 10
148.278766
 20
123.995467
 30
0.0
 10
148.278766
 20
123.555458
 30
0.0
 10
148.278766
 20
123.555458
 30
0.0
  0
LWPOLYLINE
  5
153
100
AcDbEntity
  8
Layer_1
 62
7
100
AcDbPolyline
 90
6
 70
0
 10
148.278766
 20
122.905571
 30
0.0
 10
149.913673
 20
122.905571
 30
0.0
 10
149.913673
 20
123.345580
 30
0.0
 10
148.278766
 20
123.345580
 30
0.0
 10
148.278766
 20
122.905571
 30
0.0
 10
148.278766
 20
122.905571
 30
0.0
  0
LWPOLYLINE
  5
154
100
AcDbEntity
  8
Layer_1
 62
7
100
AcDbPolyline
 90
6
 70
0
 10
148.278766
 20
122.255543
 30
0.0
 10
149.913673
 20
122.255543
 30
0.0
 10
149.913673
 20
122.695552
 30
0.0
 10
148.278766
 20
122.695552
 30
0.0
 10
148.278766
 20
122.255543
 30
0.0
 10
148.278766
 20
122.255543
 30
0.0
  0
LWPOLYLINE
  5
155
100
AcDbEntity
  8
Layer_1
 62
7
100
AcDbPolyline
 90
6
 70
0
 10
148.278766
 20
121.605514
 30
0.0
 10
149.913673
 20
121.605514
 30
0.0
 10
149.913673
 20
122.045524
 30
0.0
 10
148.278766
 20
122.045524
 30
0.0
 10
148.278766
 20
121.605514
 30
0.0
 10
148.278766
 20
121.605514
 30
0.0
  0
LWPOLYLINE
  5
156
100
AcDbEntity
  8
Layer_1
 62
7
100
AcDbPolyline
 90
6
 70
0
 10
148.278766
 20
120.955521
 30
0.0
 10
149.913673
 20
120.955521
 30
0.0
 10
149.913673
 20
121.395531
 30
0.0
 10
148.278766
 20
121.395531
 30
0.0
 10
148.278766
 20
120.955521
 30
0.0
 10
148.278766
 20
120.955521
 30
0.0
  0
LWPOLYLINE
  5
157
100
AcDbEntity
  8
Layer_1
 62
7
100
AcDbPolyline
 90
6
 70
0
 10
148.278766
 20
120.305493
 30
0.0
 10
149.913673
 20
120.305493
 30
0.0
 10
149.913673
 20
120.745502
 30
0.0
 10
148.278766
 20
120.745502
 30
0.0
 10
148.278766
 20
120.305493
 30
0.0
 10
148.278766
 20
120.305493
 30
0.0
  0
LWPOLYLINE
  5
158
100
AcDbEntity
  8
Layer_1
 62
7
100
AcDbPolyline
 90
6
 70
0
 10
165.186347
 20
122.400534
 30
0.0
 10
166.586296
 20
122.400534
 30
0.0
 10
166.586296
 20
122.800577
 30
0.0
 10
165.186347
 20
122.800577
 30
0.0
 10
165.186347
 20
122.400534
 30
0.0
 10
165.186347
 20
122.400534
 30
0.0
  0
LWPOLYLINE
  5
159
100
AcDbEntity
  8
Layer_1
 62
7
100
AcDbPolyline
 90
6
 70
0
 10
165.186347
 20
123.050527
 30
0.0
 10
166.586296
 20
123.050527
 30
0.0
 10
166.586296
 20
123.450433
 30
0.0
 10
165.186347
 20
123.450433
 30
0.0
 10
165.186347
 20
123.050527
 30
0.0
 10
165.186347
 20
123.050527
 30
0.0
  0
LWPOLYLINE
  5
15a
100
AcDbEntity
  8
Layer_1
 62
7
100
AcDbPolyline
 90
6
 70
0
 10
165.186347
 20
123.700556
 30
0.0
 10
166.586296
 20
123.700556
 30
0.0
 10
166.586296
 20
124.100461
 30
0.0
 10
165.186347
 20
124.100461
 30
0.0
 10
165.186347
 20
123.700556
 30
0.0
 10
165.186347
 20
123.700556
 30
0.0
  0
LWPOLYLINE
  5
15b
100
AcDbEntity
  8
Layer_1
 62
7
100
AcDbPolyline
 90
6
 70
0
 10
165.186347
 20
124.350584
 30
0.0
 10
166.586296
 20
124.350584
 30
0.0
 10
166.586296
 20
124.750490
 30
0.0
 10
165.186347
 20
124.750490
 30
0.0
 10
165.186347
 20
124.350584
 30
0.0
 10
165.186347
 20
124.350584
 30
0.0
  0
LWPOLYLINE
  5
15c
100
AcDbEntity
  8
Layer_1
 62
7
100
AcDbPolyline
 90
6
 70
0
 10
165.186347
 20
125.000471
 30
0.0
 10
166.586296
 20
125.000471
 30
0.0
 10
166.586296
 20
125.400514
 30
0.0
 10
165.186347
 20
125.400514
 30
0.0
 10
165.186347
 20
125.000471
 30
0.0
 10
165.186347
 20
125.000471
 30
0.0
  0
LWPOLYLINE
  5
15d
100
AcDbEntity
  8
Layer_1
 62
7
100
AcDbPolyline
 90
6
 70
0
 10
165.186347
 20
125.650500
 30
0.0
 10
166.586296
 20
125.650500
 30
0.0
 10
166.586296
 20
126.050543
 30
0.0
 10
165.186347
 20
126.050543
 30
0.0
 10
165.186347
 20
125.650500
 30
0.0
 10
165.186347
 20
125.650500
 30
0.0
  0
LWPOLYLINE
  5
15e
100
AcDbEntity
  8
Layer_1
 62
7
100
AcDbPolyline
 90
6
 70
0
 10
165.186347
 20
126.300493
 30
0.0
 10
166.586296
 20
126.300493
 30
0.0
 10
166.586296
 20
126.700536
 30
0.0
 10
165.186347
 20
126.700536
 30
0.0
 10
165.186347
 20
126.300493
 30
0.0
 10
165.186347
 20
126.300493
 30
0.0
  0
LWPOLYLINE
  5
15f
100
AcDbEntity
  8
Layer_1
 62
7
100
AcDbPolyline
 90
6
 70
0
 10
159.286491
 20
126.300493
 30
0.0
 10
160.686441
 20
126.300493
 30
0.0
 10
160.686441
 20
126.700536
 30
0.0
 10
159.286491
 20
126.700536
 30
0.0
 10
159.286491
 20
126.300493
 30
0.0
 10
159.286491
 20
126.300493
 30
0.0
  0
LWPOLYLINE
  5
160
100
AcDbEntity
  8
Layer_1
 62
7
100
AcDbPolyline
 90
6
 70
0
 10
159.286491
 20
125.650500
 30
0.0
 10
160.686441
 20
125.650500
 30
0.0
 10
160.686441
 20
126.050543
 30
0.0
 10
159.286491
 20
126.050543
 30
0.0
 10
159.286491
 20
125.650500
 30
0.0
 10
159.286491
 20
125.650500
 30
0.0
  0
LWPOLYLINE
  5
161
100
AcDbEntity
  8
Layer_1
 62
7
100
AcDbPolyline
 90
6
 70
0
 10
159.286491
 20
125.000471
 30
0.0
 10
160.686441
 20
125.000471
 30
0.0
 10
160.686441
 20
125.400514
 30
0.0
 10
159.286491
 20
125.400514
 30
0.0
 10
159.286491
 20
125.000471
 30
0.0
 10
159.286491
 20
125.000471
 30
0.0
  0
LWPOLYLINE
  5
162
100
AcDbEntity
  8
Layer_1
 62
7
100
AcDbPolyline
 90
6
 70
0
 10
159.286491
 20
124.350584
 30
0.0
 10
160.686441
 20
124.350584
 30
0.0
 10
160.686441
 20
124.750490
 30
0.0
 10
159.286491
 20
124.750490
 30
0.0
 10
159.286491
 20
124.350584
 30
0.0
 10
159.286491
 20
124.350584
 30
0.0
  0
LWPOLYLINE
  5
163
100
AcDbEntity
  8
Layer_1
 62
7
100
AcDbPolyline
 90
6
 70
0
 10
159.286491
 20
123.700556
 30
0.0
 10
160.686441
 20
123.700556
 30
0.0
 10
160.686441
 20
124.100461
 30
0.0
 10
159.286491
 20
124.100461
 30
0.0
 10
159.286491
 20
123.700556
 30
0.0
 10
159.286491
 20
123.700556
 30
0.0
  0
LWPOLYLINE
  5
164
100
AcDbEntity
  8
Layer_1
 62
7
100
AcDbPolyline
 90
6
 70
0
 10
159.286491
 20
123.050527
 30
0.0
 10
160.686441
 20
123.050527
 30
0.0
 10
160.686441
 20
123.450433
 30
0.0
 10
159.286491
 20
123.450433
 30
0.0
 10
159.286491
 20
123.050527
 30
0.0
 10
159.286491
 20
123.050527
 30
0.0
  0
LWPOLYLINE
  5
165
100
AcDbEntity
  8
Layer_1
 62
7
100
AcDbPolyline
 90
6
 70
0
 10
159.286491
 20
122.400534
 30
0.0
 10
160.686441
 20
122.400534
 30
0.0
 10
160.686441
 20
122.800577
 30
0.0
 10
159.286491
 20
122.800577
 30
0.0
 10
159.286491
 20
122.400534
 30
0.0
 10
159.286491
 20
122.400534
 30
0.0
  0
LWPOLYLINE
  5
166
100
AcDbEntity
  8
Layer_1
 62
7
100
AcDbPolyline
 90
6
 70
0
 10
161.226416
 20
127.710510
 30
0.0
 10
162.226323
 20
127.710510
 30
0.0
 10
162.226323
 20
128.810461
 30
0.0
 10
161.226416
 20
128.810461
 30
0.0
 10
161.226416
 20
127.710510
 30
0.0
 10
161.226416
 20
127.710510
 30
0.0
  0
LWPOLYLINE
  5
167
100
AcDbEntity
  8
Layer_1
 62
7
100
AcDbPolyline
 90
6
 70
0
 10
159.526380
 20
127.710510
 30
0.0
 10
160.526424
 20
127.710510
 30
0.0
 10
160.526424
 20
128.810461
 30
0.0
 10
159.526380
 20
128.810461
 30
0.0
 10
159.526380
 20
127.710510
 30
0.0
 10
159.526380
 20
127.710510
 30
0.0
  0
LWPOLYLINE
  5
168
100
AcDbEntity
  8
Layer_1
 62
7
100
AcDbPolyline
 90
6
 70
0
 10
158.166422
 20
127.560439
 30
0.0
 10
159.266372
 20
127.560439
 30
0.0
 10
159.266372
 20
128.560482
 30
0.0
 10
158.166422
 20
128.560482
 30
0.0
 10
158.166422
 20
127.560439
 30
0.0
 10
158.166422
 20
127.560439
 30
0.0
  0
LWPOLYLINE
  5
169
100
AcDbEntity
  8
Layer_1
 62
7
100
AcDbPolyline
 90
6
 70
0
 10
158.166422
 20
129.260545
 30
0.0
 10
159.266372
 20
129.260545
 30
0.0
 10
159.266372
 20
130.260589
 30
0.0
 10
158.166422
 20
130.260589
 30
0.0
 10
158.166422
 20
129.260545
 30
0.0
 10
158.166422
 20
129.260545
 30
0.0
  0
LWPOLYLINE
  5
16a
100
AcDbEntity
  8
Layer_1
 62
7
100
AcDbPolyline
 90
6
 70
0
 10
164.996200
 20
127.610462
 30
0.0
 10
165.996244
 20
127.610462
 30
0.0
 10
165.996244
 20
128.710551
 30
0.0
 10
164.996200
 20
128.710551
 30
0.0
 10
164.996200
 20
127.610462
 30
0.0
 10
164.996200
 20
127.610462
 30
0.0
  0
LWPOLYLINE
  5
16b
100
AcDbEntity
  8
Layer_1
 62
7
100
AcDbPolyline
 90
6
 70
0
 10
163.296164
 20
127.610462
 30
0.0
 10
164.296207
 20
127.610462
 30
0.0
 10
164.296207
 20
128.710551
 30
0.0
 10
163.296164
 20
128.710551
 30
0.0
 10
163.296164
 20
127.610462
 30
0.0
 10
163.296164
 20
127.610462
 30
0.0
  0
LWPOLYLINE
  5
16c
100
AcDbEntity
  8
Layer_1
 62
7
100
AcDbPolyline
 90
6
 70
0
 10
168.046316
 20
127.640519
 30
0.0
 10
169.046360
 20
127.640519
 30
0.0
 10
169.046360
 20
128.740470
 30
0.0
 10
168.046316
 20
128.740470
 30
0.0
 10
168.046316
 20
127.640519
 30
0.0
 10
168.046316
 20
127.640519
 30
0.0
  0
LWPOLYLINE
  5
16d
100
AcDbEntity
  8
Layer_1
 62
7
100
AcDbPolyline
 90
6
 70
0
 10
166.346280
 20
127.640519
 30
0.0
 10
167.346187
 20
127.640519
 30
0.0
 10
167.346187
 20
128.740470
 30
0.0
 10
166.346280
 20
128.740470
 30
0.0
 10
166.346280
 20
127.640519
 30
0.0
 10
166.346280
 20
127.640519
 30
0.0
  0
LWPOLYLINE
  5
16e
100
AcDbEntity
  8
Layer_1
 62
7
100
AcDbPolyline
 90
6
 70
0
 10
164.996200
 20
120.290465
 30
0.0
 10
165.996244
 20
120.290465
 30
0.0
 10
165.996244
 20
121.390553
 30
0.0
 10
164.996200
 20
121.390553
 30
0.0
 10
164.996200
 20
120.290465
 30
0.0
 10
164.996200
 20
120.290465
 30
0.0
  0
LWPOLYLINE
  5
16f
100
AcDbEntity
  8
Layer_1
 62
7
100
AcDbPolyline
 90
6
 70
0
 10
163.296164
 20
120.290465
 30
0.0
 10
164.296207
 20
120.290465
 30
0.0
 10
164.296207
 20
121.390553
 30
0.0
 10
163.296164
 20
121.390553
 30
0.0
 10
163.296164
 20
120.290465
 30
0.0
 10
163.296164
 20
120.290465
 30
0.0
  0
LWPOLYLINE
  5
170
100
AcDbEntity
  8
Layer_1
 62
7
100
AcDbPolyline
 90
6
 70
0
 10
168.016330
 20
120.290465
 30
0.0
 10
169.016374
 20
120.290465
 30
0.0
 10
169.016374
 20
121.390553
 30
0.0
 10
168.016330
 20
121.390553
 30
0.0
 10
168.016330
 20
120.290465
 30
0.0
 10
168.016330
 20
120.290465
 30
0.0
  0
LWPOLYLINE
  5
171
100
AcDbEntity
  8
Layer_1
 62
7
100
AcDbPolyline
 90
6
 70
0
 10
166.316294
 20
120.290465
 30
0.0
 10
167.316338
 20
120.290465
 30
0.0
 10
167.316338
 20
121.390553
 30
0.0
 10
166.316294
 20
121.390553
 30
0.0
 10
166.316294
 20
120.290465
 30
0.0
 10
166.316294
 20
120.290465
 30
0.0
  0
LWPOLYLINE
  5
172
100
AcDbEntity
  8
Layer_1
 62
7
100
AcDbPolyline
 90
6
 70
0
 10
161.346361
 20
120.240441
 30
0.0
 10
162.346405
 20
120.240441
 30
0.0
 10
162.346405
 20
121.340529
 30
0.0
 10
161.346361
 20
121.340529
 30
0.0
 10
161.346361
 20
120.240441
 30
0.0
 10
161.346361
 20
120.240441
 30
0.0
  0
LWPOLYLINE
  5
173
100
AcDbEntity
  8
Layer_1
 62
7
100
AcDbPolyline
 90
6
 70
0
 10
159.646325
 20
120.240441
 30
0.0
 10
160.646369
 20
120.240441
 30
0.0
 10
160.646369
 20
121.340529
 30
0.0
 10
159.646325
 20
121.340529
 30
0.0
 10
159.646325
 20
120.240441
 30
0.0
 10
159.646325
 20
120.240441
 30
0.0
  0
LWPOLYLINE
  5
174
100
AcDbEntity
  8
Layer_1
 62
7
100
AcDbPolyline
 90
6
 70
0
 10
158.206286
 20
121.110532
 30
0.0
 10
159.306374
 20
121.110532
 30
0.0
 10
159.306374
 20
122.110576
 30
0.0
 10
158.206286
 20
122.110576
 30
0.0
 10
158.206286
 20
121.110532
 30
0.0
 10
158.206286
 20
121.110532
 30
0.0
  0
LWPOLYLINE
  5
175
100
AcDbEntity
  8
Layer_1
 62
7
100
AcDbPolyline
 90
6
 70
0
 10
158.206286
 20
119.410461
 30
0.0
 10
159.306374
 20
119.410461
 30
0.0
 10
159.306374
 20
120.410504
 30
0.0
 10
158.206286
 20
120.410504
 30
0.0
 10
158.206286
 20
119.410461
 30
0.0
 10
158.206286
 20
119.410461
 30
0.0
  0
LWPOLYLINE
  5
176
100
AcDbEntity
  8
Layer_1
 62
7
100
AcDbPolyline
 90
6
 70
0
 10
168.736350
 20
122.430556
 30
0.0
 10
169.736394
 20
122.430556
 30
0.0
 10
169.736394
 20
123.530506
 30
0.0
 10
168.736350
 20
123.530506
 30
0.0
 10
168.736350
 20
122.430556
 30
0.0
 10
168.736350
 20
122.430556
 30
0.0
  0
LWPOLYLINE
  5
177
100
AcDbEntity
  8
Layer_1
 62
7
100
AcDbPolyline
 90
6
 70
0
 10
167.036314
 20
122.430556
 30
0.0
 10
168.036357
 20
122.430556
 30
0.0
 10
168.036357
 20
123.530506
 30
0.0
 10
167.036314
 20
123.530506
 30
0.0
 10
167.036314
 20
122.430556
 30
0.0
 10
167.036314
 20
122.430556
 30
0.0
  0
LWPOLYLINE
  5
178
100
AcDbEntity
  8
Layer_1
 62
7
100
AcDbPolyline
 90
6
 70
0
 10
168.716241
 20
125.480567
 30
0.0
 10
169.716285
 20
125.480567
 30
0.0
 10
169.716285
 20
126.580517
 30
0.0
 10
168.716241
 20
126.580517
 30
0.0
 10
168.716241
 20
125.480567
 30
0.0
 10
168.716241
 20
125.480567
 30
0.0
  0
LWPOLYLINE
  5
179
100
AcDbEntity
  8
Layer_1
 62
7
100
AcDbPolyline
 90
6
 70
0
 10
167.016205
 20
125.480567
 30
0.0
 10
168.016112
 20
125.480567
 30
0.0
 10
168.016112
 20
126.580517
 30
0.0
 10
167.016205
 20
126.580517
 30
0.0
 10
167.016205
 20
125.480567
 30
0.0
 10
167.016205
 20
125.480567
 30
0.0
  0
LWPOLYLINE
  5
17a
100
AcDbEntity
  8
Layer_1
 62
7
100
AcDbPolyline
 90
6
 70
0
 10
141.826461
 20
123.500460
 30
0.0
 10
142.926411
 20
123.500460
 30
0.0
 10
142.926411
 20
124.500504
 30
0.0
 10
141.826461
 20
124.500504
 30
0.0
 10
141.826461
 20
123.500460
 30
0.0
 10
141.826461
 20
123.500460
 30
0.0
  0
LWPOLYLINE
  5
17b
100
AcDbEntity
  8
Layer_1
 62
7
100
AcDbPolyline
 90
6
 70
0
 10
141.826461
 20
121.800530
 30
0.0
 10
142.926411
 20
121.800530
 30
0.0
 10
142.926411
 20
122.800574
 30
0.0
 10
141.826461
 20
122.800574
 30
0.0
 10
141.826461
 20
121.800530
 30
0.0
 10
141.826461
 20
121.800530
 30
0.0
  0
LWPOLYLINE
  5
17c
100
AcDbEntity
  8
Layer_1
 62
7
100
AcDbPolyline
 90
6
 70
0
 10
143.226283
 20
123.550484
 30
0.0
 10
144.326234
 20
123.550484
 30
0.0
 10
144.326234
 20
124.550528
 30
0.0
 10
143.226283
 20
124.550528
 30
0.0
 10
143.226283
 20
123.550484
 30
0.0
 10
143.226283
 20
123.550484
 30
0.0
  0
LWPOLYLINE
  5
17d
100
AcDbEntity
  8
Layer_1
 62
7
100
AcDbPolyline
 90
6
 70
0
 10
143.226283
 20
121.850554
 30
0.0
 10
144.326234
 20
121.850554
 30
0.0
 10
144.326234
 20
122.850460
 30
0.0
 10
143.226283
 20
122.850460
 30
0.0
 10
143.226283
 20
121.850554
 30
0.0
 10
143.226283
 20
121.850554
 30
0.0
  0
LWPOLYLINE
  5
17e
100
AcDbEntity
  8
Layer_1
 62
7
100
AcDbPolyline
 90
6
 70
0
 10
126.926186
 20
141.250580
 30
0.0
 10
128.626134
 20
141.250580
 30
0.0
 10
128.626134
 20
143.650573
 30
0.0
 10
126.926186
 20
143.650573
 30
0.0
 10
126.926186
 20
141.250580
 30
0.0
 10
126.926186
 20
141.250580
 30
0.0
  0
LWPOLYLINE
  5
17f
100
AcDbEntity
  8
Layer_1
 62
7
100
AcDbPolyline
 90
6
 70
0
 10
130.626472
 20
141.250580
 30
0.0
 10
132.326420
 20
141.250580
 30
0.0
 10
132.326420
 20
143.650573
 30
0.0
 10
130.626472
 20
143.650573
 30
0.0
 10
130.626472
 20
141.250580
 30
0.0
 10
130.626472
 20
141.250580
 30
0.0
  0
LWPOLYLINE
  5
180
100
AcDbEntity
  8
Layer_1
 62
7
100
AcDbPolyline
 90
6
 70
0
 10
141.076103
 20
115.300458
 30
0.0
 10
142.676144
 20
115.300458
 30
0.0
 10
142.676144
 20
116.700545
 30
0.0
 10
141.076103
 20
116.700545
 30
0.0
 10
141.076103
 20
115.300458
 30
0.0
 10
141.076103
 20
115.300458
 30
0.0
  0
LWPOLYLINE
  5
181
100
AcDbEntity
  8
Layer_1
 62
7
100
AcDbPolyline
 90
6
 70
0
 10
147.476197
 20
115.300458
 30
0.0
 10
149.076238
 20
115.300458
 30
0.0
 10
149.076238
 20
116.700545
 30
0.0
 10
147.476197
 20
116.700545
 30
0.0
 10
147.476197
 20
115.300458
 30
0.0
 10
147.476197
 20
115.300458
 30
0.0
  0
LWPOLYLINE
  5
182
100
AcDbEntity
  8
Layer_1
 62
7
100
AcDbPolyline
 90
6
 70
0
 10
144.876225
 20
115.575519
 30
0.0
 10
145.276130
 20
115.575519
 30
0.0
 10
145.276130
 20
116.925582
 30
0.0
 10
144.876225
 20
116.925582
 30
0.0
 10
144.876225
 20
115.575519
 30
0.0
 10
144.876225
 20
115.575519
 30
0.0
  0
LWPOLYLINE
  5
183
100
AcDbEntity
  8
Layer_1
 62
7
100
AcDbPolyline
 90
6
 70
0
 10
145.526394
 20
115.575519
 30
0.0
 10
145.926437
 20
115.575519
 30
0.0
 10
145.926437
 20
116.925582
 30
0.0
 10
145.526394
 20
116.925582
 30
0.0
 10
145.526394
 20
115.575519
 30
0.0
 10
145.526394
 20
115.575519
 30
0.0
  0
LWPOLYLINE
  5
184
100
AcDbEntity
  8
Layer_1
 62
7
100
AcDbPolyline
 90
6
 70
0
 10
146.176211
 20
115.575519
 30
0.0
 10
146.576254
 20
115.575519
 30
0.0
 10
146.576254
 20
116.925582
 30
0.0
 10
146.176211
 20
116.925582
 30
0.0
 10
146.176211
 20
115.575519
 30
0.0
 10
146.176211
 20
115.575519
 30
0.0
  0
LWPOLYLINE
  5
185
100
AcDbEntity
  8
Layer_1
 62
7
100
AcDbPolyline
 90
6
 70
0
 10
144.226408
 20
115.575519
 30
0.0
 10
144.626313
 20
115.575519
 30
0.0
 10
144.626313
 20
116.925582
 30
0.0
 10
144.226408
 20
116.925582
 30
0.0
 10
144.226408
 20
115.575519
 30
0.0
 10
144.226408
 20
115.575519
 30
0.0
  0
LWPOLYLINE
  5
186
100
AcDbEntity
  8
Layer_1
 62
7
100
AcDbPolyline
 90
6
 70
0
 10
143.576239
 20
115.575519
 30
0.0
 10
143.976282
 20
115.575519
 30
0.0
 10
143.976282
 20
116.925582
 30
0.0
 10
143.576239
 20
116.925582
 30
0.0
 10
143.576239
 20
115.575519
 30
0.0
 10
143.576239
 20
115.575519
 30
0.0
  0
LWPOLYLINE
  5
187
100
AcDbEntity
  8
Layer_1
 62
7
100
AcDbPolyline
 90
6
 70
0
 10
142.926422
 20
112.750528
 30
0.0
 10
144.826462
 20
112.750528
 30
0.0
 10
144.826462
 20
114.350569
 30
0.0
 10
142.926422
 20
114.350569
 30
0.0
 10
142.926422
 20
112.750528
 30
0.0
 10
142.926422
 20
112.750528
 30
0.0
  0
LWPOLYLINE
  5
188
100
AcDbEntity
  8
Layer_1
 62
7
100
AcDbPolyline
 90
6
 70
0
 10
145.326369
 20
112.750528
 30
0.0
 10
147.226409
 20
112.750528
 30
0.0
 10
147.226409
 20
114.350569
 30
0.0
 10
145.326369
 20
114.350569
 30
0.0
 10
145.326369
 20
112.750528
 30
0.0
 10
145.326369
 20
112.750528
 30
0.0
  0
LWPOLYLINE
  5
189
100
AcDbEntity
  8
Layer_1
 62
7
100
AcDbPolyline
 90
6
 70
0
 10
139.376419
 20
120.050541
 30
0.0
 10
139.776325
 20
120.050541
 30
0.0
 10
139.776325
 20
120.550494
 30
0.0
 10
139.376419
 20
120.550494
 30
0.0
 10
139.376419
 20
120.050541
 30
0.0
 10
139.376419
 20
120.050541
 30
0.0
  0
LWPOLYLINE
  5
18a
100
AcDbEntity
  8
Layer_1
 62
7
100
AcDbPolyline
 90
6
 70
0
 10
139.376419
 20
121.550552
 30
0.0
 10
139.776325
 20
121.550552
 30
0.0
 10
139.776325
 20
122.050505
 30
0.0
 10
139.376419
 20
122.050505
 30
0.0
 10
139.376419
 20
121.550552
 30
0.0
 10
139.376419
 20
121.550552
 30
0.0
  0
LWPOLYLINE
  5
18b
100
AcDbEntity
  8
Layer_1
 62
7
100
AcDbPolyline
 90
6
 70
0
 10
140.076330
 20
120.150447
 30
0.0
 10
140.576421
 20
120.150447
 30
0.0
 10
140.576421
 20
120.650538
 30
0.0
 10
140.076330
 20
120.650538
 30
0.0
 10
140.076330
 20
120.150447
 30
0.0
 10
140.076330
 20
120.150447
 30
0.0
  0
LWPOLYLINE
  5
18c
100
AcDbEntity
  8
Layer_1
 62
7
100
AcDbPolyline
 90
6
 70
0
 10
138.576319
 20
120.150447
 30
0.0
 10
139.076410
 20
120.150447
 30
0.0
 10
139.076410
 20
120.650538
 30
0.0
 10
138.576319
 20
120.650538
 30
0.0
 10
138.576319
 20
120.150447
 30
0.0
 10
138.576319
 20
120.150447
 30
0.0
  0
LWPOLYLINE
  5
18d
100
AcDbEntity
  8
Layer_1
 62
7
100
AcDbPolyline
 90
6
 70
0
 10
138.576319
 20
121.450504
 30
0.0
 10
139.076410
 20
121.450504
 30
0.0
 10
139.076410
 20
121.950457
 30
0.0
 10
138.576319
 20
121.950457
 30
0.0
 10
138.576319
 20
121.450504
 30
0.0
 10
138.576319
 20
121.450504
 30
0.0
  0
LWPOLYLINE
  5
18e
100
AcDbEntity
  8
Layer_1
 62
7
100
AcDbPolyline
 90
6
 70
0
 10
140.076330
 20
121.450504
 30
0.0
 10
140.576421
 20
121.450504
 30
0.0
 10
140.576421
 20
121.950457
 30
0.0
 10
140.076330
 20
121.950457
 30
0.0
 10
140.076330
 20
121.450504
 30
0.0
 10
140.076330
 20
121.450504
 30
0.0
  0
LWPOLYLINE
  5
18f
100
AcDbEntity
  8
Layer_1
 62
7
100
AcDbPolyline
 90
6
 70
0
 10
138.026339
 20
118.900591
 30
0.0
 10
139.126427
 20
118.900591
 30
0.0
 10
139.126427
 20
119.900497
 30
0.0
 10
138.026339
 20
119.900497
 30
0.0
 10
138.026339
 20
118.900591
 30
0.0
 10
138.026339
 20
118.900591
 30
0.0
  0
LWPOLYLINE
  5
190
100
AcDbEntity
  8
Layer_1
 62
7
100
AcDbPolyline
 90
6
 70
0
 10
138.026339
 20
117.200484
 30
0.0
 10
139.126427
 20
117.200484
 30
0.0
 10
139.126427
 20
118.200528
 30
0.0
 10
138.026339
 20
118.200528
 30
0.0
 10
138.026339
 20
117.200484
 30
0.0
 10
138.026339
 20
117.200484
 30
0.0
  0
LWPOLYLINE
  5
191
100
AcDbEntity
  8
Layer_1
 62
7
100
AcDbPolyline
 90
6
 70
0
 10
139.526350
 20
118.900591
 30
0.0
 10
140.626438
 20
118.900591
 30
0.0
 10
140.626438
 20
119.900497
 30
0.0
 10
139.526350
 20
119.900497
 30
0.0
 10
139.526350
 20
118.900591
 30
0.0
 10
139.526350
 20
118.900591
 30
0.0
  0
LWPOLYLINE
  5
192
100
AcDbEntity
  8
Layer_1
 62
7
100
AcDbPolyline
 90
6
 70
0
 10
139.526350
 20
117.200484
 30
0.0
 10
140.626438
 20
117.200484
 30
0.0
 10
140.626438
 20
118.200528
 30
0.0
 10
139.526350
 20
118.200528
 30
0.0
 10
139.526350
 20
117.200484
 30
0.0
 10
139.526350
 20
117.200484
 30
0.0
  0
LWPOLYLINE
  5
193
100
AcDbEntity
  8
Layer_1
 62
7
100
AcDbPolyline
 90
6
 70
0
 10
140.876430
 20
119.900469
 30
0.0
 10
141.976381
 20
119.900469
 30
0.0
 10
141.976381
 20
120.900513
 30
0.0
 10
140.876430
 20
120.900513
 30
0.0
 10
140.876430
 20
119.900469
 30
0.0
 10
140.876430
 20
119.900469
 30
0.0
  0
LWPOLYLINE
  5
194
100
AcDbEntity
  8
Layer_1
 62
7
100
AcDbPolyline
 90
6
 70
0
 10
140.876430
 20
118.200539
 30
0.0
 10
141.976381
 20
118.200539
 30
0.0
 10
141.976381
 20
119.200582
 30
0.0
 10
140.876430
 20
119.200582
 30
0.0
 10
140.876430
 20
118.200539
 30
0.0
 10
140.876430
 20
118.200539
 30
0.0
  0
LWPOLYLINE
  5
195
100
AcDbEntity
  8
Layer_1
 62
7
100
AcDbPolyline
 90
6
 70
0
 10
138.876180
 20
113.900495
 30
0.0
 10
140.376174
 20
113.900495
 30
0.0
 10
140.376174
 20
116.000486
 30
0.0
 10
138.876180
 20
116.000486
 30
0.0
 10
138.876180
 20
113.900495
 30
0.0
 10
138.876180
 20
113.900495
 30
0.0
  0
LWPOLYLINE
  5
196
100
AcDbEntity
  8
Layer_1
 62
7
100
AcDbPolyline
 90
6
 70
0
 10
135.276083
 20
113.900495
 30
0.0
 10
136.776077
 20
113.900495
 30
0.0
 10
136.776077
 20
116.000486
 30
0.0
 10
135.276083
 20
116.000486
 30
0.0
 10
135.276083
 20
113.900495
 30
0.0
 10
135.276083
 20
113.900495
 30
0.0
  0
LWPOLYLINE
  5
197
100
AcDbEntity
  8
Layer_1
 62
7
100
AcDbPolyline
 90
6
 70
0
 10
138.326200
 20
126.210534
 30
0.0
 10
139.376264
 20
126.210534
 30
0.0
 10
139.376264
 20
127.290504
 30
0.0
 10
138.326200
 20
127.290504
 30
0.0
 10
138.326200
 20
126.210534
 30
0.0
 10
138.326200
 20
126.210534
 30
0.0
  0
LWPOLYLINE
  5
198
100
AcDbEntity
  8
Layer_1
 62
7
100
AcDbPolyline
 90
6
 70
0
 10
140.076330
 20
126.210534
 30
0.0
 10
141.126395
 20
126.210534
 30
0.0
 10
141.126395
 20
127.290504
 30
0.0
 10
140.076330
 20
127.290504
 30
0.0
 10
140.076330
 20
126.210534
 30
0.0
 10
140.076330
 20
126.210534
 30
0.0
  0
LWPOLYLINE
  5
199
100
AcDbEntity
  8
Layer_1
 62
7
100
AcDbPolyline
 90
6
 70
0
 10
126.076344
 20
117.860567
 30
0.0
 10
127.126271
 20
117.860567
 30
0.0
 10
127.126271
 20
118.940536
 30
0.0
 10
126.076344
 20
118.940536
 30
0.0
 10
126.076344
 20
117.860567
 30
0.0
 10
126.076344
 20
117.860567
 30
0.0
  0
LWPOLYLINE
  5
19a
100
AcDbEntity
  8
Layer_1
 62
7
100
AcDbPolyline
 90
6
 70
0
 10
124.326214
 20
117.860567
 30
0.0
 10
125.376140
 20
117.860567
 30
0.0
 10
125.376140
 20
118.940536
 30
0.0
 10
124.326214
 20
118.940536
 30
0.0
 10
124.326214
 20
117.860567
 30
0.0
 10
124.326214
 20
117.860567
 30
0.0
  0
LWPOLYLINE
  5
19b
100
AcDbEntity
  8
Layer_1
 62
7
100
AcDbPolyline
 90
6
 70
0
 10
133.676236
 20
117.210538
 30
0.0
 10
134.726162
 20
117.210538
 30
0.0
 10
134.726162
 20
118.290508
 30
0.0
 10
133.676236
 20
118.290508
 30
0.0
 10
133.676236
 20
117.210538
 30
0.0
 10
133.676236
 20
117.210538
 30
0.0
  0
LWPOLYLINE
  5
19c
100
AcDbEntity
  8
Layer_1
 62
7
100
AcDbPolyline
 90
6
 70
0
 10
135.426366
 20
117.210538
 30
0.0
 10
136.476293
 20
117.210538
 30
0.0
 10
136.476293
 20
118.290508
 30
0.0
 10
135.426366
 20
118.290508
 30
0.0
 10
135.426366
 20
117.210538
 30
0.0
 10
135.426366
 20
117.210538
 30
0.0
  0
LWPOLYLINE
  5
19d
100
AcDbEntity
  8
Layer_1
 62
7
100
AcDbPolyline
 90
6
 70
0
 10
136.636394
 20
118.650471
 30
0.0
 10
137.716501
 20
118.650471
 30
0.0
 10
137.716501
 20
119.700536
 30
0.0
 10
136.636394
 20
119.700536
 30
0.0
 10
136.636394
 20
118.650471
 30
0.0
 10
136.636394
 20
118.650471
 30
0.0
  0
LWPOLYLINE
  5
19e
100
AcDbEntity
  8
Layer_1
 62
7
100
AcDbPolyline
 90
6
 70
0
 10
136.636394
 20
116.900482
 30
0.0
 10
137.716501
 20
116.900482
 30
0.0
 10
137.716501
 20
117.950546
 30
0.0
 10
136.636394
 20
117.950546
 30
0.0
 10
136.636394
 20
116.900482
 30
0.0
 10
136.636394
 20
116.900482
 30
0.0
  0
LWPOLYLINE
  5
19f
100
AcDbEntity
  8
Layer_1
 62
7
100
AcDbPolyline
 90
6
 70
0
 10
131.836147
 20
137.750495
 30
0.0
 10
132.916254
 20
137.750495
 30
0.0
 10
132.916254
 20
138.800559
 30
0.0
 10
131.836147
 20
138.800559
 30
0.0
 10
131.836147
 20
137.750495
 30
0.0
 10
131.836147
 20
137.750495
 30
0.0
  0
LWPOLYLINE
  5
1a0
100
AcDbEntity
  8
Layer_1
 62
7
100
AcDbPolyline
 90
6
 70
0
 10
131.836147
 20
139.500449
 30
0.0
 10
132.916254
 20
139.500449
 30
0.0
 10
132.916254
 20
140.550514
 30
0.0
 10
131.836147
 20
140.550514
 30
0.0
 10
131.836147
 20
139.500449
 30
0.0
 10
131.836147
 20
139.500449
 30
0.0
  0
LWPOLYLINE
  5
1a1
100
AcDbEntity
  8
Layer_1
 62
7
100
AcDbPolyline
 90
6
 70
0
 10
146.686328
 20
125.800536
 30
0.0
 10
147.766297
 20
125.800536
 30
0.0
 10
147.766297
 20
126.850463
 30
0.0
 10
146.686328
 20
126.850463
 30
0.0
 10
146.686328
 20
125.800536
 30
0.0
 10
146.686328
 20
125.800536
 30
0.0
  0
LWPOLYLINE
  5
1a2
100
AcDbEntity
  8
Layer_1
 62
7
100
AcDbPolyline
 90
6
 70
0
 10
146.686328
 20
124.050582
 30
0.0
 10
147.766297
 20
124.050582
 30
0.0
 10
147.766297
 20
125.100509
 30
0.0
 10
146.686328
 20
125.100509
 30
0.0
 10
146.686328
 20
124.050582
 30
0.0
 10
146.686328
 20
124.050582
 30
0.0
  0
LWPOLYLINE
  5
1a3
100
AcDbEntity
  8
Layer_1
 62
7
100
AcDbPolyline
 90
6
 70
0
 10
170.486480
 20
121.750506
 30
0.0
 10
171.566449
 20
121.750506
 30
0.0
 10
171.566449
 20
122.800570
 30
0.0
 10
170.486480
 20
122.800570
 30
0.0
 10
170.486480
 20
121.750506
 30
0.0
 10
170.486480
 20
121.750506
 30
0.0
  0
LWPOLYLINE
  5
1a4
100
AcDbEntity
  8
Layer_1
 62
7
100
AcDbPolyline
 90
6
 70
0
 10
170.486480
 20
120.000517
 30
0.0
 10
171.566449
 20
120.000517
 30
0.0
 10
171.566449
 20
121.050443
 30
0.0
 10
170.486480
 20
121.050443
 30
0.0
 10
170.486480
 20
120.000517
 30
0.0
 10
170.486480
 20
120.000517
 30
0.0
  0
LWPOLYLINE
  5
1a5
100
AcDbEntity
  8
Layer_1
 62
7
100
AcDbPolyline
 90
6
 70
0
 10
171.186391
 20
127.600549
 30
0.0
 10
172.266361
 20
127.600549
 30
0.0
 10
172.266361
 20
128.650476
 30
0.0
 10
171.186391
 20
128.650476
 30
0.0
 10
171.186391
 20
127.600549
 30
0.0
 10
171.186391
 20
127.600549
 30
0.0
  0
LWPOLYLINE
  5
1a6
100
AcDbEntity
  8
Layer_1
 62
7
100
AcDbPolyline
 90
6
 70
0
 10
171.186391
 20
125.850560
 30
0.0
 10
172.266361
 20
125.850560
 30
0.0
 10
172.266361
 20
126.900487
 30
0.0
 10
171.186391
 20
126.900487
 30
0.0
 10
171.186391
 20
125.850560
 30
0.0
 10
171.186391
 20
125.850560
 30
0.0
  0
LWPOLYLINE
  5
1a7
100
AcDbEntity
  8
Layer_1
 62
7
100
AcDbPolyline
 90
6
 70
0
 10
131.676339
 20
144.510458
 30
0.0
 10
132.726403
 20
144.510458
 30
0.0
 10
132.726403
 20
145.590565
 30
0.0
 10
131.676339
 20
145.590565
 30
0.0
 10
131.676339
 20
144.510458
 30
0.0
 10
131.676339
 20
144.510458
 30
0.0
  0
LWPOLYLINE
  5
1a8
100
AcDbEntity
  8
Layer_1
 62
7
100
AcDbPolyline
 90
6
 70
0
 10
129.926208
 20
144.510458
 30
0.0
 10
130.976272
 20
144.510458
 30
0.0
 10
130.976272
 20
145.590565
 30
0.0
 10
129.926208
 20
145.590565
 30
0.0
 10
129.926208
 20
144.510458
 30
0.0
 10
129.926208
 20
144.510458
 30
0.0
  0
LWPOLYLINE
  5
1a9
100
AcDbEntity
  8
Layer_1
 62
7
100
AcDbPolyline
 90
6
 70
0
 10
126.576230
 20
144.410552
 30
0.0
 10
127.626295
 20
144.410552
 30
0.0
 10
127.626295
 20
145.490521
 30
0.0
 10
126.576230
 20
145.490521
 30
0.0
 10
126.576230
 20
144.410552
 30
0.0
 10
126.576230
 20
144.410552
 30
0.0
  0
LWPOLYLINE
  5
1aa
100
AcDbEntity
  8
Layer_1
 62
7
100
AcDbPolyline
 90
6
 70
0
 10
128.326361
 20
144.410552
 30
0.0
 10
129.376425
 20
144.410552
 30
0.0
 10
129.376425
 20
145.490521
 30
0.0
 10
128.326361
 20
145.490521
 30
0.0
 10
128.326361
 20
144.410552
 30
0.0
 10
128.326361
 20
144.410552
 30
0.0
  0
LWPOLYLINE
  5
1ab
100
AcDbEntity
  8
Layer_1
 62
7
100
AcDbPolyline
 90
6
 70
0
 10
104.426231
 20
125.875501
 30
0.0
 10
106.026272
 20
125.875501
 30
0.0
 10
106.026272
 20
126.175500
 30
0.0
 10
104.426231
 20
126.175500
 30
0.0
 10
104.426231
 20
125.875501
 30
0.0
 10
104.426231
 20
125.875501
 30
0.0
  0
LWPOLYLINE
  5
1ac
100
AcDbEntity
  8
Layer_1
 62
7
100
AcDbPolyline
 90
6
 70
0
 10
104.426231
 20
125.225508
 30
0.0
 10
106.026272
 20
125.225508
 30
0.0
 10
106.026272
 20
125.525507
 30
0.0
 10
104.426231
 20
125.525507
 30
0.0
 10
104.426231
 20
125.225508
 30
0.0
 10
104.426231
 20
125.225508
 30
0.0
  0
LWPOLYLINE
  5
1ad
100
AcDbEntity
  8
Layer_1
 62
7
100
AcDbPolyline
 90
6
 70
0
 10
104.426231
 20
124.575480
 30
0.0
 10
106.026272
 20
124.575480
 30
0.0
 10
106.026272
 20
124.875479
 30
0.0
 10
104.426231
 20
124.875479
 30
0.0
 10
104.426231
 20
124.575480
 30
0.0
 10
104.426231
 20
124.575480
 30
0.0
  0
LWPOLYLINE
  5
1ae
100
AcDbEntity
  8
Layer_1
 62
7
100
AcDbPolyline
 90
6
 70
0
 10
104.426231
 20
123.925452
 30
0.0
 10
106.026272
 20
123.925452
 30
0.0
 10
106.026272
 20
124.225451
 30
0.0
 10
104.426231
 20
124.225451
 30
0.0
 10
104.426231
 20
123.925452
 30
0.0
 10
104.426231
 20
123.925452
 30
0.0
  0
LWPOLYLINE
  5
1af
100
AcDbEntity
  8
Layer_1
 62
7
100
AcDbPolyline
 90
6
 70
0
 10
104.426231
 20
123.275564
 30
0.0
 10
106.026272
 20
123.275564
 30
0.0
 10
106.026272
 20
123.575563
 30
0.0
 10
104.426231
 20
123.575563
 30
0.0
 10
104.426231
 20
123.275564
 30
0.0
 10
104.426231
 20
123.275564
 30
0.0
  0
LWPOLYLINE
  5
1b0
100
AcDbEntity
  8
Layer_1
 62
7
100
AcDbPolyline
 90
6
 70
0
 10
104.426231
 20
122.625536
 30
0.0
 10
106.026272
 20
122.625536
 30
0.0
 10
106.026272
 20
122.925535
 30
0.0
 10
104.426231
 20
122.925535
 30
0.0
 10
104.426231
 20
122.625536
 30
0.0
 10
104.426231
 20
122.625536
 30
0.0
  0
LWPOLYLINE
  5
1b1
100
AcDbEntity
  8
Layer_1
 62
7
100
AcDbPolyline
 90
6
 70
0
 10
104.426231
 20
121.975543
 30
0.0
 10
106.026272
 20
121.975543
 30
0.0
 10
106.026272
 20
122.275542
 30
0.0
 10
104.426231
 20
122.275542
 30
0.0
 10
104.426231
 20
121.975543
 30
0.0
 10
104.426231
 20
121.975543
 30
0.0
  0
LWPOLYLINE
  5
1b2
100
AcDbEntity
  8
Layer_1
 62
7
100
AcDbPolyline
 90
6
 70
0
 10
104.426231
 20
121.325515
 30
0.0
 10
106.026272
 20
121.325515
 30
0.0
 10
106.026272
 20
121.625514
 30
0.0
 10
104.426231
 20
121.625514
 30
0.0
 10
104.426231
 20
121.325515
 30
0.0
 10
104.426231
 20
121.325515
 30
0.0
  0
LWPOLYLINE
  5
1b3
100
AcDbEntity
  8
Layer_1
 62
7
100
AcDbPolyline
 90
6
 70
0
 10
104.426231
 20
120.675486
 30
0.0
 10
106.026272
 20
120.675486
 30
0.0
 10
106.026272
 20
120.975485
 30
0.0
 10
104.426231
 20
120.975485
 30
0.0
 10
104.426231
 20
120.675486
 30
0.0
 10
104.426231
 20
120.675486
 30
0.0
  0
LWPOLYLINE
  5
1b4
100
AcDbEntity
  8
Layer_1
 62
7
100
AcDbPolyline
 90
6
 70
0
 10
104.426231
 20
120.025458
 30
0.0
 10
106.026272
 20
120.025458
 30
0.0
 10
106.026272
 20
120.325457
 30
0.0
 10
104.426231
 20
120.325457
 30
0.0
 10
104.426231
 20
120.025458
 30
0.0
 10
104.426231
 20
120.025458
 30
0.0
  0
LWPOLYLINE
  5
1b5
100
AcDbEntity
  8
Layer_1
 62
7
100
AcDbPolyline
 90
6
 70
0
 10
104.426231
 20
119.375465
 30
0.0
 10
106.026272
 20
119.375465
 30
0.0
 10
106.026272
 20
119.675464
 30
0.0
 10
104.426231
 20
119.675464
 30
0.0
 10
104.426231
 20
119.375465
 30
0.0
 10
104.426231
 20
119.375465
 30
0.0
  0
LWPOLYLINE
  5
1b6
100
AcDbEntity
  8
Layer_1
 62
7
100
AcDbPolyline
 90
6
 70
0
 10
104.426231
 20
118.725578
 30
0.0
 10
106.026272
 20
118.725578
 30
0.0
 10
106.026272
 20
119.025577
 30
0.0
 10
104.426231
 20
119.025577
 30
0.0
 10
104.426231
 20
118.725578
 30
0.0
 10
104.426231
 20
118.725578
 30
0.0
  0
LWPOLYLINE
  5
1b7
100
AcDbEntity
  8
Layer_1
 62
7
100
AcDbPolyline
 90
6
 70
0
 10
104.426231
 20
118.075549
 30
0.0
 10
106.026272
 20
118.075549
 30
0.0
 10
106.026272
 20
118.375548
 30
0.0
 10
104.426231
 20
118.375548
 30
0.0
 10
104.426231
 20
118.075549
 30
0.0
 10
104.426231
 20
118.075549
 30
0.0
  0
LWPOLYLINE
  5
1b8
100
AcDbEntity
  8
Layer_1
 62
7
100
AcDbPolyline
 90
6
 70
0
 10
104.426231
 20
117.425521
 30
0.0
 10
106.026272
 20
117.425521
 30
0.0
 10
106.026272
 20
117.725520
 30
0.0
 10
104.426231
 20
117.725520
 30
0.0
 10
104.426231
 20
117.425521
 30
0.0
 10
104.426231
 20
117.425521
 30
0.0
  0
LWPOLYLINE
  5
1b9
100
AcDbEntity
  8
Layer_1
 62
7
100
AcDbPolyline
 90
6
 70
0
 10
110.026296
 20
117.425521
 30
0.0
 10
111.626337
 20
117.425521
 30
0.0
 10
111.626337
 20
117.725520
 30
0.0
 10
110.026296
 20
117.725520
 30
0.0
 10
110.026296
 20
117.425521
 30
0.0
 10
110.026296
 20
117.425521
 30
0.0
  0
LWPOLYLINE
  5
1ba
100
AcDbEntity
  8
Layer_1
 62
7
100
AcDbPolyline
 90
6
 70
0
 10
110.026296
 20
118.075549
 30
0.0
 10
111.626337
 20
118.075549
 30
0.0
 10
111.626337
 20
118.375548
 30
0.0
 10
110.026296
 20
118.375548
 30
0.0
 10
110.026296
 20
118.075549
 30
0.0
 10
110.026296
 20
118.075549
 30
0.0
  0
LWPOLYLINE
  5
1bb
100
AcDbEntity
  8
Layer_1
 62
7
100
AcDbPolyline
 90
6
 70
0
 10
110.026296
 20
118.725578
 30
0.0
 10
111.626337
 20
118.725578
 30
0.0
 10
111.626337
 20
119.025577
 30
0.0
 10
110.026296
 20
119.025577
 30
0.0
 10
110.026296
 20
118.725578
 30
0.0
 10
110.026296
 20
118.725578
 30
0.0
  0
LWPOLYLINE
  5
1bc
100
AcDbEntity
  8
Layer_1
 62
7
100
AcDbPolyline
 90
6
 70
0
 10
110.026296
 20
119.375465
 30
0.0
 10
111.626337
 20
119.375465
 30
0.0
 10
111.626337
 20
119.675464
 30
0.0
 10
110.026296
 20
119.675464
 30
0.0
 10
110.026296
 20
119.375465
 30
0.0
 10
110.026296
 20
119.375465
 30
0.0
  0
LWPOLYLINE
  5
1bd
100
AcDbEntity
  8
Layer_1
 62
7
100
AcDbPolyline
 90
6
 70
0
 10
110.026296
 20
120.025458
 30
0.0
 10
111.626337
 20
120.025458
 30
0.0
 10
111.626337
 20
120.325457
 30
0.0
 10
110.026296
 20
120.325457
 30
0.0
 10
110.026296
 20
120.025458
 30
0.0
 10
110.026296
 20
120.025458
 30
0.0
  0
LWPOLYLINE
  5
1be
100
AcDbEntity
  8
Layer_1
 62
7
100
AcDbPolyline
 90
6
 70
0
 10
110.026296
 20
120.675486
 30
0.0
 10
111.626337
 20
120.675486
 30
0.0
 10
111.626337
 20
120.975485
 30
0.0
 10
110.026296
 20
120.975485
 30
0.0
 10
110.026296
 20
120.675486
 30
0.0
 10
110.026296
 20
120.675486
 30
0.0
  0
LWPOLYLINE
  5
1bf
100
AcDbEntity
  8
Layer_1
 62
7
100
AcDbPolyline
 90
6
 70
0
 10
110.026296
 20
121.325515
 30
0.0
 10
111.626337
 20
121.325515
 30
0.0
 10
111.626337
 20
121.625514
 30
0.0
 10
110.026296
 20
121.625514
 30
0.0
 10
110.026296
 20
121.325515
 30
0.0
 10
110.026296
 20
121.325515
 30
0.0
  0
LWPOLYLINE
  5
1c0
100
AcDbEntity
  8
Layer_1
 62
7
100
AcDbPolyline
 90
6
 70
0
 10
110.026296
 20
121.975543
 30
0.0
 10
111.626337
 20
121.975543
 30
0.0
 10
111.626337
 20
122.275542
 30
0.0
 10
110.026296
 20
122.275542
 30
0.0
 10
110.026296
 20
121.975543
 30
0.0
 10
110.026296
 20
121.975543
 30
0.0
  0
LWPOLYLINE
  5
1c1
100
AcDbEntity
  8
Layer_1
 62
7
100
AcDbPolyline
 90
6
 70
0
 10
110.026296
 20
122.625536
 30
0.0
 10
111.626337
 20
122.625536
 30
0.0
 10
111.626337
 20
122.925535
 30
0.0
 10
110.026296
 20
122.925535
 30
0.0
 10
110.026296
 20
122.625536
 30
0.0
 10
110.026296
 20
122.625536
 30
0.0
  0
LWPOLYLINE
  5
1c2
100
AcDbEntity
  8
Layer_1
 62
7
100
AcDbPolyline
 90
6
 70
0
 10
110.026296
 20
123.275564
 30
0.0
 10
111.626337
 20
123.275564
 30
0.0
 10
111.626337
 20
123.575563
 30
0.0
 10
110.026296
 20
123.575563
 30
0.0
 10
110.026296
 20
123.275564
 30
0.0
 10
110.026296
 20
123.275564
 30
0.0
  0
LWPOLYLINE
  5
1c3
100
AcDbEntity
  8
Layer_1
 62
7
100
AcDbPolyline
 90
6
 70
0
 10
110.026296
 20
123.925452
 30
0.0
 10
111.626337
 20
123.925452
 30
0.0
 10
111.626337
 20
124.225451
 30
0.0
 10
110.026296
 20
124.225451
 30
0.0
 10
110.026296
 20
123.925452
 30
0.0
 10
110.026296
 20
123.925452
 30
0.0
  0
LWPOLYLINE
  5
1c4
100
AcDbEntity
  8
Layer_1
 62
7
100
AcDbPolyline
 90
6
 70
0
 10
110.026296
 20
124.575480
 30
0.0
 10
111.626337
 20
124.575480
 30
0.0
 10
111.626337
 20
124.875479
 30
0.0
 10
110.026296
 20
124.875479
 30
0.0
 10
110.026296
 20
124.575480
 30
0.0
 10
110.026296
 20
124.575480
 30
0.0
  0
LWPOLYLINE
  5
1c5
100
AcDbEntity
  8
Layer_1
 62
7
100
AcDbPolyline
 90
6
 70
0
 10
110.026296
 20
125.225508
 30
0.0
 10
111.626337
 20
125.225508
 30
0.0
 10
111.626337
 20
125.525507
 30
0.0
 10
110.026296
 20
125.525507
 30
0.0
 10
110.026296
 20
125.225508
 30
0.0
 10
110.026296
 20
125.225508
 30
0.0
  0
LWPOLYLINE
  5
1c6
100
AcDbEntity
  8
Layer_1
 62
7
100
AcDbPolyline
 90
6
 70
0
 10
110.026296
 20
125.875501
 30
0.0
 10
111.626337
 20
125.875501
 30
0.0
 10
111.626337
 20
126.175500
 30
0.0
 10
110.026296
 20
126.175500
 30
0.0
 10
110.026296
 20
125.875501
 30
0.0
 10
110.026296
 20
125.875501
 30
0.0
  0
LWPOLYLINE
  5
1c7
100
AcDbEntity
  8
Layer_1
 62
7
100
AcDbPolyline
 90
6
 70
0
 10
97.826253
 20
122.600454
 30
0.0
 10
99.126295
 20
122.600454
 30
0.0
 10
99.126295
 20
124.100447
 30
0.0
 10
97.826253
 20
124.100447
 30
0.0
 10
97.826253
 20
122.600454
 30
0.0
 10
97.826253
 20
122.600454
 30
0.0
  0
LWPOLYLINE
  5
1c8
100
AcDbEntity
  8
Layer_1
 62
7
100
AcDbPolyline
 90
6
 70
0
 10
99.726314
 20
122.600454
 30
0.0
 10
101.026356
 20
122.600454
 30
0.0
 10
101.026356
 20
124.100447
 30
0.0
 10
99.726314
 20
124.100447
 30
0.0
 10
99.726314
 20
122.600454
 30
0.0
 10
99.726314
 20
122.600454
 30
0.0
  0
LWPOLYLINE
  5
1c9
100
AcDbEntity
  8
Layer_1
 62
7
100
AcDbPolyline
 90
6
 70
0
 10
97.776229
 20
119.500560
 30
0.0
 10
99.076271
 20
119.500560
 30
0.0
 10
99.076271
 20
121.000553
 30
0.0
 10
97.776229
 20
121.000553
 30
0.0
 10
97.776229
 20
119.500560
 30
0.0
 10
97.776229
 20
119.500560
 30
0.0
  0
LWPOLYLINE
  5
1ca
100
AcDbEntity
  8
Layer_1
 62
7
100
AcDbPolyline
 90
6
 70
0
 10
99.676290
 20
119.500560
 30
0.0
 10
100.976332
 20
119.500560
 30
0.0
 10
100.976332
 20
121.000553
 30
0.0
 10
99.676290
 20
121.000553
 30
0.0
 10
99.676290
 20
119.500560
 30
0.0
 10
99.676290
 20
119.500560
 30
0.0
  0
LWPOLYLINE
  5
1cb
100
AcDbEntity
  8
Layer_1
 62
7
100
AcDbPolyline
 90
6
 70
0
 10
102.376274
 20
125.650500
 30
0.0
 10
103.376318
 20
125.650500
 30
0.0
 10
103.376318
 20
126.750588
 30
0.0
 10
102.376274
 20
126.750588
 30
0.0
 10
102.376274
 20
125.650500
 30
0.0
 10
102.376274
 20
125.650500
 30
0.0
  0
LWPOLYLINE
  5
1cc
100
AcDbEntity
  8
Layer_1
 62
7
100
AcDbPolyline
 90
6
 70
0
 10
102.376274
 20
123.950534
 30
0.0
 10
103.376318
 20
123.950534
 30
0.0
 10
103.376318
 20
125.050485
 30
0.0
 10
102.376274
 20
125.050485
 30
0.0
 10
102.376274
 20
123.950534
 30
0.0
 10
102.376274
 20
123.950534
 30
0.0
  0
LWPOLYLINE
  5
1cd
100
AcDbEntity
  8
Layer_1
 62
7
100
AcDbPolyline
 90
6
 70
0
 10
103.226257
 20
127.000545
 30
0.0
 10
104.326345
 20
127.000545
 30
0.0
 10
104.326345
 20
128.000451
 30
0.0
 10
103.226257
 20
128.000451
 30
0.0
 10
103.226257
 20
127.000545
 30
0.0
 10
103.226257
 20
127.000545
 30
0.0
  0
LWPOLYLINE
  5
1ce
100
AcDbEntity
  8
Layer_1
 62
7
100
AcDbPolyline
 90
6
 70
0
 10
104.926329
 20
127.000545
 30
0.0
 10
106.026279
 20
127.000545
 30
0.0
 10
106.026279
 20
128.000451
 30
0.0
 10
104.926329
 20
128.000451
 30
0.0
 10
104.926329
 20
127.000545
 30
0.0
 10
104.926329
 20
127.000545
 30
0.0
  0
LWPOLYLINE
  5
1cf
100
AcDbEntity
  8
Layer_1
 62
7
100
AcDbPolyline
 90
6
 70
0
 10
99.526359
 20
126.200445
 30
0.0
 10
100.626310
 20
126.200445
 30
0.0
 10
100.626310
 20
127.200489
 30
0.0
 10
99.526359
 20
127.200489
 30
0.0
 10
99.526359
 20
126.200445
 30
0.0
 10
99.526359
 20
126.200445
 30
0.0
  0
LWPOLYLINE
  5
1d0
100
AcDbEntity
  8
Layer_1
 62
7
100
AcDbPolyline
 90
6
 70
0
 10
97.826253
 20
126.200445
 30
0.0
 10
98.926341
 20
126.200445
 30
0.0
 10
98.926341
 20
127.200489
 30
0.0
 10
97.826253
 20
127.200489
 30
0.0
 10
97.826253
 20
126.200445
 30
0.0
 10
97.826253
 20
126.200445
 30
0.0
  0
LWPOLYLINE
  5
1d1
100
AcDbEntity
  8
Layer_1
 62
7
100
AcDbPolyline
 90
6
 70
0
 10
96.276253
 20
130.550512
 30
0.0
 10
99.276243
 20
130.550512
 30
0.0
 10
99.276243
 20
131.950462
 30
0.0
 10
96.276253
 20
131.950462
 30
0.0
 10
96.276253
 20
130.550512
 30
0.0
 10
96.276253
 20
130.550512
 30
0.0
  0
LWPOLYLINE
  5
1d2
100
AcDbEntity
  8
Layer_1
 62
7
100
AcDbPolyline
 90
6
 70
0
 10
101.076218
 20
130.550512
 30
0.0
 10
104.076346
 20
130.550512
 30
0.0
 10
104.076346
 20
131.950462
 30
0.0
 10
101.076218
 20
131.950462
 30
0.0
 10
101.076218
 20
130.550512
 30
0.0
 10
101.076218
 20
130.550512
 30
0.0
  0
LWPOLYLINE
  5
1d3
100
AcDbEntity
  8
Layer_1
 62
7
100
AcDbPolyline
 90
6
 70
0
 10
115.476324
 20
119.000497
 30
0.0
 10
116.476368
 20
119.000497
 30
0.0
 10
116.476368
 20
120.100586
 30
0.0
 10
115.476324
 20
120.100586
 30
0.0
 10
115.476324
 20
119.000497
 30
0.0
 10
115.476324
 20
119.000497
 30
0.0
  0
LWPOLYLINE
  5
1d4
100
AcDbEntity
  8
Layer_1
 62
7
100
AcDbPolyline
 90
6
 70
0
 10
117.176114
 20
119.000497
 30
0.0
 10
118.176157
 20
119.000497
 30
0.0
 10
118.176157
 20
120.100586
 30
0.0
 10
117.176114
 20
120.100586
 30
0.0
 10
117.176114
 20
119.000497
 30
0.0
 10
117.176114
 20
119.000497
 30
0.0
  0
LWPOLYLINE
  5
1d5
100
AcDbEntity
  8
Layer_1
 62
7
100
AcDbPolyline
 90
6
 70
0
 10
142.976164
 20
144.950513
 30
0.0
 10
143.276162
 20
144.950513
 30
0.0
 10
143.276162
 20
145.650558
 30
0.0
 10
142.976164
 20
145.650558
 30
0.0
 10
142.976164
 20
144.950513
 30
0.0
 10
142.976164
 20
144.950513
 30
0.0
  0
LWPOLYLINE
  5
1d6
100
AcDbEntity
  8
Layer_1
 62
7
100
AcDbPolyline
 90
6
 70
0
 10
143.626333
 20
144.950513
 30
0.0
 10
143.926332
 20
144.950513
 30
0.0
 10
143.926332
 20
145.650558
 30
0.0
 10
143.626333
 20
145.650558
 30
0.0
 10
143.626333
 20
144.950513
 30
0.0
 10
143.626333
 20
144.950513
 30
0.0
  0
LWPOLYLINE
  5
1d7
100
AcDbEntity
  8
Layer_1
 62
7
100
AcDbPolyline
 90
6
 70
0
 10
144.276503
 20
144.950513
 30
0.0
 10
144.576501
 20
144.950513
 30
0.0
 10
144.576501
 20
145.650558
 30
0.0
 10
144.276503
 20
145.650558
 30
0.0
 10
144.276503
 20
144.950513
 30
0.0
 10
144.276503
 20
144.950513
 30
0.0
  0
LWPOLYLINE
  5
1d8
100
AcDbEntity
  8
Layer_1
 62
7
100
AcDbPolyline
 90
6
 70
0
 10
144.276503
 20
146.550361
 30
0.0
 10
144.576501
 20
146.550361
 30
0.0
 10
144.576501
 20
147.250406
 30
0.0
 10
144.276503
 20
147.250406
 30
0.0
 10
144.276503
 20
146.550361
 30
0.0
 10
144.276503
 20
146.550361
 30
0.0
  0
LWPOLYLINE
  5
1d9
100
AcDbEntity
  8
Layer_1
 62
7
100
AcDbPolyline
 90
6
 70
0
 10
143.626333
 20
146.550361
 30
0.0
 10
143.926332
 20
146.550361
 30
0.0
 10
143.926332
 20
147.250406
 30
0.0
 10
143.626333
 20
147.250406
 30
0.0
 10
143.626333
 20
146.550361
 30
0.0
 10
143.626333
 20
146.550361
 30
0.0
  0
LWPOLYLINE
  5
1da
100
AcDbEntity
  8
Layer_1
 62
7
100
AcDbPolyline
 90
6
 70
0
 10
142.976164
 20
146.550361
 30
0.0
 10
143.276162
 20
146.550361
 30
0.0
 10
143.276162
 20
147.250406
 30
0.0
 10
142.976164
 20
147.250406
 30
0.0
 10
142.976164
 20
146.550361
 30
0.0
 10
142.976164
 20
146.550361
 30
0.0
  0
LWPOLYLINE
  5
1db
100
AcDbEntity
  8
Layer_1
 62
7
100
AcDbPolyline
 90
6
 70
0
 10
146.251353
 20
134.050456
 30
0.0
 10
147.051304
 20
134.050456
 30
0.0
 10
147.051304
 20
135.250451
 30
0.0
 10
146.251353
 20
135.250451
 30
0.0
 10
146.251353
 20
134.050456
 30
0.0
 10
146.251353
 20
134.050456
 30
0.0
  0
LWPOLYLINE
  5
1dc
100
AcDbEntity
  8
Layer_1
 62
7
100
AcDbPolyline
 90
6
 70
0
 10
150.701291
 20
134.050456
 30
0.0
 10
151.501243
 20
134.050456
 30
0.0
 10
151.501243
 20
135.250451
 30
0.0
 10
150.701291
 20
135.250451
 30
0.0
 10
150.701291
 20
134.050456
 30
0.0
 10
150.701291
 20
134.050456
 30
0.0
  0
LWPOLYLINE
  5
1dd
100
AcDbEntity
  8
Layer_1
 62
7
100
AcDbPolyline
 90
6
 70
0
 10
146.251353
 20
130.550512
 30
0.0
 10
147.051304
 20
130.550512
 30
0.0
 10
147.051304
 20
131.750507
 30
0.0
 10
146.251353
 20
131.750507
 30
0.0
 10
146.251353
 20
130.550512
 30
0.0
 10
146.251353
 20
130.550512
 30
0.0
  0
LWPOLYLINE
  5
1de
100
AcDbEntity
  8
Layer_1
 62
7
100
AcDbPolyline
 90
6
 70
0
 10
150.701291
 20
130.550512
 30
0.0
 10
151.501243
 20
130.550512
 30
0.0
 10
151.501243
 20
131.750507
 30
0.0
 10
150.701291
 20
131.750507
 30
0.0
 10
150.701291
 20
130.550512
 30
0.0
 10
150.701291
 20
130.550512
 30
0.0
  0
LWPOLYLINE
  5
1df
100
AcDbEntity
  8
Layer_1
 62
7
100
AcDbPolyline
 90
6
 70
0
 10
145.976186
 20
127.600549
 30
0.0
 10
147.076136
 20
127.600549
 30
0.0
 10
147.076136
 20
128.600456
 30
0.0
 10
145.976186
 20
128.600456
 30
0.0
 10
145.976186
 20
127.600549
 30
0.0
 10
145.976186
 20
127.600549
 30
0.0
  0
LWPOLYLINE
  5
1e0
100
AcDbEntity
  8
Layer_1
 62
7
100
AcDbPolyline
 90
6
 70
0
 10
145.976186
 20
129.300480
 30
0.0
 10
147.076136
 20
129.300480
 30
0.0
 10
147.076136
 20
130.300524
 30
0.0
 10
145.976186
 20
130.300524
 30
0.0
 10
145.976186
 20
129.300480
 30
0.0
 10
145.976186
 20
129.300480
 30
0.0
  0
LWPOLYLINE
  5
1e1
100
AcDbEntity
  8
Layer_1
 62
7
100
AcDbPolyline
 90
6
 70
0
 10
105.926242
 20
114.200497
 30
0.0
 10
106.626287
 20
114.200497
 30
0.0
 10
106.626287
 20
115.100493
 30
0.0
 10
105.926242
 20
115.100493
 30
0.0
 10
105.926242
 20
114.200497
 30
0.0
 10
105.926242
 20
114.200497
 30
0.0
  0
LWPOLYLINE
  5
1e2
100
AcDbEntity
  8
Layer_1
 62
7
100
AcDbPolyline
 90
6
 70
0
 10
108.326224
 20
113.700541
 30
0.0
 10
109.026270
 20
113.700541
 30
0.0
 10
109.026270
 20
114.300538
 30
0.0
 10
108.326224
 20
114.300538
 30
0.0
 10
108.326224
 20
113.700541
 30
0.0
 10
108.326224
 20
113.700541
 30
0.0
  0
LWPOLYLINE
  5
1e3
100
AcDbEntity
  8
Layer_1
 62
7
100
AcDbPolyline
 90
6
 70
0
 10
108.326224
 20
115.000456
 30
0.0
 10
109.026270
 20
115.000456
 30
0.0
 10
109.026270
 20
115.600453
 30
0.0
 10
108.326224
 20
115.600453
 30
0.0
 10
108.326224
 20
115.000456
 30
0.0
 10
108.326224
 20
115.000456
 30
0.0
  0
LWPOLYLINE
  5
1e4
100
AcDbEntity
  8
Layer_1
 62
7
100
AcDbPolyline
 90
6
 70
0
 10
110.926303
 20
115.200552
 30
0.0
 10
111.926346
 20
115.200552
 30
0.0
 10
111.926346
 20
116.300502
 30
0.0
 10
110.926303
 20
116.300502
 30
0.0
 10
110.926303
 20
115.200552
 30
0.0
 10
110.926303
 20
115.200552
 30
0.0
  0
LWPOLYLINE
  5
1e5
100
AcDbEntity
  8
Layer_1
 62
7
100
AcDbPolyline
 90
6
 70
0
 10
112.626268
 20
115.200552
 30
0.0
 10
113.626312
 20
115.200552
 30
0.0
 10
113.626312
 20
116.300502
 30
0.0
 10
112.626268
 20
116.300502
 30
0.0
 10
112.626268
 20
115.200552
 30
0.0
 10
112.626268
 20
115.200552
 30
0.0
  0
LWPOLYLINE
  5
1e6
100
AcDbEntity
  8
Layer_1
 62
7
100
AcDbPolyline
 90
6
 70
0
 10
162.926453
 20
143.000534
 30
0.0
 10
164.726445
 20
143.000534
 30
0.0
 10
164.726445
 20
145.200573
 30
0.0
 10
162.926453
 20
145.200573
 30
0.0
 10
162.926453
 20
143.000534
 30
0.0
 10
162.926453
 20
143.000534
 30
0.0
  0
LWPOLYLINE
  5
1e7
100
AcDbEntity
  8
Layer_1
 62
7
100
AcDbPolyline
 90
6
 70
0
 10
168.026208
 20
143.000534
 30
0.0
 10
169.826200
 20
143.000534
 30
0.0
 10
169.826200
 20
145.200573
 30
0.0
 10
168.026208
 20
145.200573
 30
0.0
 10
168.026208
 20
143.000534
 30
0.0
 10
168.026208
 20
143.000534
 30
0.0
  0
LWPOLYLINE
  5
1e8
100
AcDbEntity
  8
Layer_1
 62
7
100
AcDbPolyline
 90
6
 70
0
 10
168.001514
 20
146.545422
 30
0.0
 10
169.551393
 20
146.545422
 30
0.0
 10
169.551393
 20
147.145419
 30
0.0
 10
168.001514
 20
147.145419
 30
0.0
 10
168.001514
 20
146.545422
 30
0.0
 10
168.001514
 20
146.545422
 30
0.0
  0
LWPOLYLINE
  5
1e9
100
AcDbEntity
  8
Layer_1
 62
7
100
AcDbPolyline
 90
6
 70
0
 10
168.006453
 20
147.815422
 30
0.0
 10
169.556470
 20
147.815422
 30
0.0
 10
169.556470
 20
148.415419
 30
0.0
 10
168.006453
 20
148.415419
 30
0.0
 10
168.006453
 20
147.815422
 30
0.0
 10
168.006453
 20
147.815422
 30
0.0
  0
LWPOLYLINE
  5
1ea
100
AcDbEntity
  8
Layer_1
 62
7
100
AcDbPolyline
 90
6
 70
0
 10
168.006453
 20
149.085422
 30
0.0
 10
169.556470
 20
149.085422
 30
0.0
 10
169.556470
 20
149.685419
 30
0.0
 10
168.006453
 20
149.685419
 30
0.0
 10
168.006453
 20
149.085422
 30
0.0
 10
168.006453
 20
149.085422
 30
0.0
  0
LWPOLYLINE
  5
1eb
100
AcDbEntity
  8
Layer_1
 62
7
100
AcDbPolyline
 90
6
 70
0
 10
168.001514
 20
150.355422
 30
0.0
 10
169.551393
 20
150.355422
 30
0.0
 10
169.551393
 20
150.955419
 30
0.0
 10
168.001514
 20
150.955419
 30
0.0
 10
168.001514
 20
150.355422
 30
0.0
 10
168.001514
 20
150.355422
 30
0.0
  0
LWPOLYLINE
  5
1ec
100
AcDbEntity
  8
Layer_1
 62
7
100
AcDbPolyline
 90
6
 70
0
 10
162.601191
 20
150.355422
 30
0.0
 10
164.151209
 20
150.355422
 30
0.0
 10
164.151209
 20
150.955419
 30
0.0
 10
162.601191
 20
150.955419
 30
0.0
 10
162.601191
 20
150.355422
 30
0.0
 10
162.601191
 20
150.355422
 30
0.0
  0
LWPOLYLINE
  5
1ed
100
AcDbEntity
  8
Layer_1
 62
7
100
AcDbPolyline
 90
6
 70
0
 10
162.601191
 20
149.085422
 30
0.0
 10
164.151209
 20
149.085422
 30
0.0
 10
164.151209
 20
149.685419
 30
0.0
 10
162.601191
 20
149.685419
 30
0.0
 10
162.601191
 20
149.085422
 30
0.0
 10
162.601191
 20
149.085422
 30
0.0
  0
LWPOLYLINE
  5
1ee
100
AcDbEntity
  8
Layer_1
 62
7
100
AcDbPolyline
 90
6
 70
0
 10
162.601191
 20
147.815422
 30
0.0
 10
164.151209
 20
147.815422
 30
0.0
 10
164.151209
 20
148.415419
 30
0.0
 10
162.601191
 20
148.415419
 30
0.0
 10
162.601191
 20
147.815422
 30
0.0
 10
162.601191
 20
147.815422
 30
0.0
  0
LWPOLYLINE
  5
1ef
100
AcDbEntity
  8
Layer_1
 62
7
100
AcDbPolyline
 90
6
 70
0
 10
162.601191
 20
146.545422
 30
0.0
 10
164.151209
 20
146.545422
 30
0.0
 10
164.151209
 20
147.145419
 30
0.0
 10
162.601191
 20
147.145419
 30
0.0
 10
162.601191
 20
146.545422
 30
0.0
 10
162.601191
 20
146.545422
 30
0.0
  0
LWPOLYLINE
  5
1f0
100
AcDbEntity
  8
Layer_1
 62
7
100
AcDbPolyline
 90
6
 70
0
 10
170.736247
 20
142.850462
 30
0.0
 10
171.816216
 20
142.850462
 30
0.0
 10
171.816216
 20
143.900527
 30
0.0
 10
170.736247
 20
143.900527
 30
0.0
 10
170.736247
 20
142.850462
 30
0.0
 10
170.736247
 20
142.850462
 30
0.0
  0
LWPOLYLINE
  5
1f1
100
AcDbEntity
  8
Layer_1
 62
7
100
AcDbPolyline
 90
6
 70
0
 10
170.736247
 20
144.600558
 30
0.0
 10
171.816216
 20
144.600558
 30
0.0
 10
171.816216
 20
145.650484
 30
0.0
 10
170.736247
 20
145.650484
 30
0.0
 10
170.736247
 20
144.600558
 30
0.0
 10
170.736247
 20
144.600558
 30
0.0
  0
LWPOLYLINE
  5
1f2
100
AcDbEntity
  8
Layer_1
 62
7
100
AcDbPolyline
 90
6
 70
0
 10
162.476308
 20
136.600510
 30
0.0
 10
164.476392
 20
136.600510
 30
0.0
 10
164.476392
 20
139.800452
 30
0.0
 10
162.476308
 20
139.800452
 30
0.0
 10
162.476308
 20
136.600510
 30
0.0
 10
162.476308
 20
136.600510
 30
0.0
  0
LWPOLYLINE
  5
1f3
100
AcDbEntity
  8
Layer_1
 62
7
100
AcDbPolyline
 90
6
 70
0
 10
170.276225
 20
136.600510
 30
0.0
 10
172.276171
 20
136.600510
 30
0.0
 10
172.276171
 20
139.800452
 30
0.0
 10
170.276225
 20
139.800452
 30
0.0
 10
170.276225
 20
136.600510
 30
0.0
 10
170.276225
 20
136.600510
 30
0.0
  0
LWPOLYLINE
  5
1f4
100
AcDbEntity
  8
Layer_1
 62
7
100
AcDbPolyline
 90
6
 70
0
 10
170.436386
 20
147.400555
 30
0.0
 10
171.516355
 20
147.400555
 30
0.0
 10
171.516355
 20
148.450619
 30
0.0
 10
170.436386
 20
148.450619
 30
0.0
 10
170.436386
 20
147.400555
 30
0.0
 10
170.436386
 20
147.400555
 30
0.0
  0
LWPOLYLINE
  5
1f5
100
AcDbEntity
  8
Layer_1
 62
7
100
AcDbPolyline
 90
6
 70
0
 10
170.436386
 20
149.150333
 30
0.0
 10
171.516355
 20
149.150333
 30
0.0
 10
171.516355
 20
150.200397
 30
0.0
 10
170.436386
 20
150.200397
 30
0.0
 10
170.436386
 20
149.150333
 30
0.0
 10
170.436386
 20
149.150333
 30
0.0
  0
LWPOLYLINE
  5
1f6
100
AcDbEntity
  8
Layer_1
 62
7
100
AcDbPolyline
 90
6
 70
0
 10
159.126330
 20
137.450493
 30
0.0
 10
161.826460
 20
137.450493
 30
0.0
 10
161.826460
 20
140.000554
 30
0.0
 10
159.126330
 20
140.000554
 30
0.0
 10
159.126330
 20
137.450493
 30
0.0
 10
159.126330
 20
137.450493
 30
0.0
  0
LWPOLYLINE
  5
1f7
100
AcDbEntity
  8
Layer_1
 62
7
100
AcDbPolyline
 90
6
 70
0
 10
159.126330
 20
143.800493
 30
0.0
 10
161.826460
 20
143.800493
 30
0.0
 10
161.826460
 20
146.350554
 30
0.0
 10
159.126330
 20
146.350554
 30
0.0
 10
159.126330
 20
143.800493
 30
0.0
 10
159.126330
 20
143.800493
 30
0.0
  0
LWPOLYLINE
  5
1f8
100
AcDbEntity
  8
Layer_1
 62
7
100
AcDbPolyline
 90
6
 70
0
 10
150.876269
 20
147.000505
 30
0.0
 10
153.876260
 20
147.000505
 30
0.0
 10
153.876260
 20
148.400454
 30
0.0
 10
150.876269
 20
148.400454
 30
0.0
 10
150.876269
 20
147.000505
 30
0.0
 10
150.876269
 20
147.000505
 30
0.0
  0
LWPOLYLINE
  5
1f9
100
AcDbEntity
  8
Layer_1
 62
7
100
AcDbPolyline
 90
6
 70
0
 10
155.676164
 20
147.000505
 30
0.0
 10
158.676154
 20
147.000505
 30
0.0
 10
158.676154
 20
148.400454
 30
0.0
 10
155.676164
 20
148.400454
 30
0.0
 10
155.676164
 20
147.000505
 30
0.0
 10
155.676164
 20
147.000505
 30
0.0
  0
LWPOLYLINE
  5
1fa
100
AcDbEntity
  8
Layer_1
 62
7
100
AcDbPolyline
 90
6
 70
0
 10
103.876250
 20
144.425580
 30
0.0
 10
105.476292
 20
144.425580
 30
0.0
 10
105.476292
 20
144.725579
 30
0.0
 10
103.876250
 20
144.725579
 30
0.0
 10
103.876250
 20
144.425580
 30
0.0
 10
103.876250
 20
144.425580
 30
0.0
  0
LWPOLYLINE
  5
1fb
100
AcDbEntity
  8
Layer_1
 62
7
100
AcDbPolyline
 90
6
 70
0
 10
103.876250
 20
143.775552
 30
0.0
 10
105.476292
 20
143.775552
 30
0.0
 10
105.476292
 20
144.075551
 30
0.0
 10
103.876250
 20
144.075551
 30
0.0
 10
103.876250
 20
143.775552
 30
0.0
 10
103.876250
 20
143.775552
 30
0.0
  0
LWPOLYLINE
  5
1fc
100
AcDbEntity
  8
Layer_1
 62
7
100
AcDbPolyline
 90
6
 70
0
 10
103.876250
 20
143.125523
 30
0.0
 10
105.476292
 20
143.125523
 30
0.0
 10
105.476292
 20
143.425522
 30
0.0
 10
103.876250
 20
143.425522
 30
0.0
 10
103.876250
 20
143.125523
 30
0.0
 10
103.876250
 20
143.125523
 30
0.0
  0
LWPOLYLINE
  5
1fd
100
AcDbEntity
  8
Layer_1
 62
7
100
AcDbPolyline
 90
6
 70
0
 10
103.876250
 20
142.475495
 30
0.0
 10
105.476292
 20
142.475495
 30
0.0
 10
105.476292
 20
142.775494
 30
0.0
 10
103.876250
 20
142.775494
 30
0.0
 10
103.876250
 20
142.475495
 30
0.0
 10
103.876250
 20
142.475495
 30
0.0
  0
LWPOLYLINE
  5
1fe
100
AcDbEntity
  8
Layer_1
 62
7
100
AcDbPolyline
 90
6
 70
0
 10
103.876250
 20
141.825467
 30
0.0
 10
105.476292
 20
141.825467
 30
0.0
 10
105.476292
 20
142.125466
 30
0.0
 10
103.876250
 20
142.125466
 30
0.0
 10
103.876250
 20
141.825467
 30
0.0
 10
103.876250
 20
141.825467
 30
0.0
  0
LWPOLYLINE
  5
1ff
100
AcDbEntity
  8
Layer_1
 62
7
100
AcDbPolyline
 90
6
 70
0
 10
103.876250
 20
141.175474
 30
0.0
 10
105.476292
 20
141.175474
 30
0.0
 10
105.476292
 20
141.475473
 30
0.0
 10
103.876250
 20
141.475473
 30
0.0
 10
103.876250
 20
141.175474
 30
0.0
 10
103.876250
 20
141.175474
 30
0.0
  0
LWPOLYLINE
  5
200
100
AcDbEntity
  8
Layer_1
 62
7
100
AcDbPolyline
 90
6
 70
0
 10
103.876250
 20
140.525445
 30
0.0
 10
105.476292
 20
140.525445
 30
0.0
 10
105.476292
 20
140.825582
 30
0.0
 10
103.876250
 20
140.825582
 30
0.0
 10
103.876250
 20
140.525445
 30
0.0
 10
103.876250
 20
140.525445
 30
0.0
  0
LWPOLYLINE
  5
201
100
AcDbEntity
  8
Layer_1
 62
7
100
AcDbPolyline
 90
6
 70
0
 10
103.876250
 20
139.875558
 30
0.0
 10
105.476292
 20
139.875558
 30
0.0
 10
105.476292
 20
140.175557
 30
0.0
 10
103.876250
 20
140.175557
 30
0.0
 10
103.876250
 20
139.875558
 30
0.0
 10
103.876250
 20
139.875558
 30
0.0
  0
LWPOLYLINE
  5
202
100
AcDbEntity
  8
Layer_1
 62
7
100
AcDbPolyline
 90
6
 70
0
 10
103.876250
 20
139.225530
 30
0.0
 10
105.476292
 20
139.225530
 30
0.0
 10
105.476292
 20
139.525529
 30
0.0
 10
103.876250
 20
139.525529
 30
0.0
 10
103.876250
 20
139.225530
 30
0.0
 10
103.876250
 20
139.225530
 30
0.0
  0
LWPOLYLINE
  5
203
100
AcDbEntity
  8
Layer_1
 62
7
100
AcDbPolyline
 90
6
 70
0
 10
103.876250
 20
138.575501
 30
0.0
 10
105.476292
 20
138.575501
 30
0.0
 10
105.476292
 20
138.875500
 30
0.0
 10
103.876250
 20
138.875500
 30
0.0
 10
103.876250
 20
138.575501
 30
0.0
 10
103.876250
 20
138.575501
 30
0.0
  0
LWPOLYLINE
  5
204
100
AcDbEntity
  8
Layer_1
 62
7
100
AcDbPolyline
 90
6
 70
0
 10
103.876250
 20
137.925508
 30
0.0
 10
105.476292
 20
137.925508
 30
0.0
 10
105.476292
 20
138.225507
 30
0.0
 10
103.876250
 20
138.225507
 30
0.0
 10
103.876250
 20
137.925508
 30
0.0
 10
103.876250
 20
137.925508
 30
0.0
  0
LWPOLYLINE
  5
205
100
AcDbEntity
  8
Layer_1
 62
7
100
AcDbPolyline
 90
6
 70
0
 10
103.876250
 20
137.275480
 30
0.0
 10
105.476292
 20
137.275480
 30
0.0
 10
105.476292
 20
137.575479
 30
0.0
 10
103.876250
 20
137.575479
 30
0.0
 10
103.876250
 20
137.275480
 30
0.0
 10
103.876250
 20
137.275480
 30
0.0
  0
LWPOLYLINE
  5
206
100
AcDbEntity
  8
Layer_1
 62
7
100
AcDbPolyline
 90
6
 70
0
 10
103.876250
 20
136.625452
 30
0.0
 10
105.476292
 20
136.625452
 30
0.0
 10
105.476292
 20
136.925451
 30
0.0
 10
103.876250
 20
136.925451
 30
0.0
 10
103.876250
 20
136.625452
 30
0.0
 10
103.876250
 20
136.625452
 30
0.0
  0
LWPOLYLINE
  5
207
100
AcDbEntity
  8
Layer_1
 62
7
100
AcDbPolyline
 90
6
 70
0
 10
103.876250
 20
135.975564
 30
0.0
 10
105.476292
 20
135.975564
 30
0.0
 10
105.476292
 20
136.275563
 30
0.0
 10
103.876250
 20
136.275563
 30
0.0
 10
103.876250
 20
135.975564
 30
0.0
 10
103.876250
 20
135.975564
 30
0.0
  0
LWPOLYLINE
  5
208
100
AcDbEntity
  8
Layer_1
 62
7
100
AcDbPolyline
 90
6
 70
0
 10
109.476351
 20
135.975564
 30
0.0
 10
111.076254
 20
135.975564
 30
0.0
 10
111.076254
 20
136.275563
 30
0.0
 10
109.476351
 20
136.275563
 30
0.0
 10
109.476351
 20
135.975564
 30
0.0
 10
109.476351
 20
135.975564
 30
0.0
  0
LWPOLYLINE
  5
209
100
AcDbEntity
  8
Layer_1
 62
7
100
AcDbPolyline
 90
6
 70
0
 10
109.476351
 20
136.625452
 30
0.0
 10
111.076254
 20
136.625452
 30
0.0
 10
111.076254
 20
136.925451
 30
0.0
 10
109.476351
 20
136.925451
 30
0.0
 10
109.476351
 20
136.625452
 30
0.0
 10
109.476351
 20
136.625452
 30
0.0
  0
LWPOLYLINE
  5
20a
100
AcDbEntity
  8
Layer_1
 62
7
100
AcDbPolyline
 90
6
 70
0
 10
109.476351
 20
137.275480
 30
0.0
 10
111.076254
 20
137.275480
 30
0.0
 10
111.076254
 20
137.575479
 30
0.0
 10
109.476351
 20
137.575479
 30
0.0
 10
109.476351
 20
137.275480
 30
0.0
 10
109.476351
 20
137.275480
 30
0.0
  0
LWPOLYLINE
  5
20b
100
AcDbEntity
  8
Layer_1
 62
7
100
AcDbPolyline
 90
6
 70
0
 10
109.476351
 20
137.925508
 30
0.0
 10
111.076254
 20
137.925508
 30
0.0
 10
111.076254
 20
138.225507
 30
0.0
 10
109.476351
 20
138.225507
 30
0.0
 10
109.476351
 20
137.925508
 30
0.0
 10
109.476351
 20
137.925508
 30
0.0
  0
LWPOLYLINE
  5
20c
100
AcDbEntity
  8
Layer_1
 62
7
100
AcDbPolyline
 90
6
 70
0
 10
109.476351
 20
138.575501
 30
0.0
 10
111.076254
 20
138.575501
 30
0.0
 10
111.076254
 20
138.875500
 30
0.0
 10
109.476351
 20
138.875500
 30
0.0
 10
109.476351
 20
138.575501
 30
0.0
 10
109.476351
 20
138.575501
 30
0.0
  0
LWPOLYLINE
  5
20d
100
AcDbEntity
  8
Layer_1
 62
7
100
AcDbPolyline
 90
6
 70
0
 10
109.476351
 20
139.225530
 30
0.0
 10
111.076254
 20
139.225530
 30
0.0
 10
111.076254
 20
139.525529
 30
0.0
 10
109.476351
 20
139.525529
 30
0.0
 10
109.476351
 20
139.225530
 30
0.0
 10
109.476351
 20
139.225530
 30
0.0
  0
LWPOLYLINE
  5
20e
100
AcDbEntity
  8
Layer_1
 62
7
100
AcDbPolyline
 90
6
 70
0
 10
109.476351
 20
139.875558
 30
0.0
 10
111.076254
 20
139.875558
 30
0.0
 10
111.076254
 20
140.175557
 30
0.0
 10
109.476351
 20
140.175557
 30
0.0
 10
109.476351
 20
139.875558
 30
0.0
 10
109.476351
 20
139.875558
 30
0.0
  0
LWPOLYLINE
  5
20f
100
AcDbEntity
  8
Layer_1
 62
7
100
AcDbPolyline
 90
6
 70
0
 10
109.476351
 20
140.525445
 30
0.0
 10
111.076254
 20
140.525445
 30
0.0
 10
111.076254
 20
140.825582
 30
0.0
 10
109.476351
 20
140.825582
 30
0.0
 10
109.476351
 20
140.525445
 30
0.0
 10
109.476351
 20
140.525445
 30
0.0
  0
LWPOLYLINE
  5
210
100
AcDbEntity
  8
Layer_1
 62
7
100
AcDbPolyline
 90
6
 70
0
 10
109.476351
 20
141.175474
 30
0.0
 10
111.076254
 20
141.175474
 30
0.0
 10
111.076254
 20
141.475473
 30
0.0
 10
109.476351
 20
141.475473
 30
0.0
 10
109.476351
 20
141.175474
 30
0.0
 10
109.476351
 20
141.175474
 30
0.0
  0
LWPOLYLINE
  5
211
100
AcDbEntity
  8
Layer_1
 62
7
100
AcDbPolyline
 90
6
 70
0
 10
109.476351
 20
141.825467
 30
0.0
 10
111.076254
 20
141.825467
 30
0.0
 10
111.076254
 20
142.125466
 30
0.0
 10
109.476351
 20
142.125466
 30
0.0
 10
109.476351
 20
141.825467
 30
0.0
 10
109.476351
 20
141.825467
 30
0.0
  0
LWPOLYLINE
  5
212
100
AcDbEntity
  8
Layer_1
 62
7
100
AcDbPolyline
 90
6
 70
0
 10
109.476351
 20
142.475495
 30
0.0
 10
111.076254
 20
142.475495
 30
0.0
 10
111.076254
 20
142.775494
 30
0.0
 10
109.476351
 20
142.775494
 30
0.0
 10
109.476351
 20
142.475495
 30
0.0
 10
109.476351
 20
142.475495
 30
0.0
  0
LWPOLYLINE
  5
213
100
AcDbEntity
  8
Layer_1
 62
7
100
AcDbPolyline
 90
6
 70
0
 10
109.476351
 20
143.125523
 30
0.0
 10
111.076254
 20
143.125523
 30
0.0
 10
111.076254
 20
143.425522
 30
0.0
 10
109.476351
 20
143.425522
 30
0.0
 10
109.476351
 20
143.125523
 30
0.0
 10
109.476351
 20
143.125523
 30
0.0
  0
LWPOLYLINE
  5
214
100
AcDbEntity
  8
Layer_1
 62
7
100
AcDbPolyline
 90
6
 70
0
 10
109.476351
 20
143.775552
 30
0.0
 10
111.076254
 20
143.775552
 30
0.0
 10
111.076254
 20
144.075551
 30
0.0
 10
109.476351
 20
144.075551
 30
0.0
 10
109.476351
 20
143.775552
 30
0.0
 10
109.476351
 20
143.775552
 30
0.0
  0
LWPOLYLINE
  5
215
100
AcDbEntity
  8
Layer_1
 62
7
100
AcDbPolyline
 90
6
 70
0
 10
109.476351
 20
144.425580
 30
0.0
 10
111.076254
 20
144.425580
 30
0.0
 10
111.076254
 20
144.725579
 30
0.0
 10
109.476351
 20
144.725579
 30
0.0
 10
109.476351
 20
144.425580
 30
0.0
 10
109.476351
 20
144.425580
 30
0.0
  0
LWPOLYLINE
  5
216
100
AcDbEntity
  8
Layer_1
 62
7
100
AcDbPolyline
 90
6
 70
0
 10
97.026329
 20
141.050484
 30
0.0
 10
98.326371
 20
141.050484
 30
0.0
 10
98.326371
 20
142.550478
 30
0.0
 10
97.026329
 20
142.550478
 30
0.0
 10
97.026329
 20
141.050484
 30
0.0
 10
97.026329
 20
141.050484
 30
0.0
  0
LWPOLYLINE
  5
217
100
AcDbEntity
  8
Layer_1
 62
7
100
AcDbPolyline
 90
6
 70
0
 10
98.926355
 20
141.050484
 30
0.0
 10
100.226260
 20
141.050484
 30
0.0
 10
100.226260
 20
142.550478
 30
0.0
 10
98.926355
 20
142.550478
 30
0.0
 10
98.926355
 20
141.050484
 30
0.0
 10
98.926355
 20
141.050484
 30
0.0
  0
LWPOLYLINE
  5
218
100
AcDbEntity
  8
Layer_1
 62
7
100
AcDbPolyline
 90
6
 70
0
 10
97.076353
 20
138.150545
 30
0.0
 10
98.376258
 20
138.150545
 30
0.0
 10
98.376258
 20
139.650539
 30
0.0
 10
97.076353
 20
139.650539
 30
0.0
 10
97.076353
 20
138.150545
 30
0.0
 10
97.076353
 20
138.150545
 30
0.0
  0
LWPOLYLINE
  5
219
100
AcDbEntity
  8
Layer_1
 62
7
100
AcDbPolyline
 90
6
 70
0
 10
98.976238
 20
138.150545
 30
0.0
 10
100.276280
 20
138.150545
 30
0.0
 10
100.276280
 20
139.650539
 30
0.0
 10
98.976238
 20
139.650539
 30
0.0
 10
98.976238
 20
138.150545
 30
0.0
 10
98.976238
 20
138.150545
 30
0.0
  0
LWPOLYLINE
  5
21a
100
AcDbEntity
  8
Layer_1
 62
7
100
AcDbPolyline
 90
6
 70
0
 10
101.876318
 20
145.700519
 30
0.0
 10
102.976268
 20
145.700519
 30
0.0
 10
102.976268
 20
146.700563
 30
0.0
 10
101.876318
 20
146.700563
 30
0.0
 10
101.876318
 20
145.700519
 30
0.0
 10
101.876318
 20
145.700519
 30
0.0
  0
LWPOLYLINE
  5
21b
100
AcDbEntity
  8
Layer_1
 62
7
100
AcDbPolyline
 90
6
 70
0
 10
100.176246
 20
145.700519
 30
0.0
 10
101.276335
 20
145.700519
 30
0.0
 10
101.276335
 20
146.700563
 30
0.0
 10
100.176246
 20
146.700563
 30
0.0
 10
100.176246
 20
145.700519
 30
0.0
 10
100.176246
 20
145.700519
 30
0.0
  0
LWPOLYLINE
  5
21c
100
AcDbEntity
  8
Layer_1
 62
7
100
AcDbPolyline
 90
6
 70
0
 10
103.326305
 20
145.650424
 30
0.0
 10
104.426256
 20
145.650424
 30
0.0
 10
104.426256
 20
146.650468
 30
0.0
 10
103.326305
 20
146.650468
 30
0.0
 10
103.326305
 20
145.650424
 30
0.0
 10
103.326305
 20
145.650424
 30
0.0
  0
LWPOLYLINE
  5
21d
100
AcDbEntity
  8
Layer_1
 62
7
100
AcDbPolyline
 90
6
 70
0
 10
105.026235
 20
145.650424
 30
0.0
 10
106.126323
 20
145.650424
 30
0.0
 10
106.126323
 20
146.650468
 30
0.0
 10
105.026235
 20
146.650468
 30
0.0
 10
105.026235
 20
145.650424
 30
0.0
 10
105.026235
 20
145.650424
 30
0.0
  0
LWPOLYLINE
  5
21e
100
AcDbEntity
  8
Layer_1
 62
7
100
AcDbPolyline
 90
6
 70
0
 10
99.776338
 20
134.950463
 30
0.0
 10
100.876288
 20
134.950463
 30
0.0
 10
100.876288
 20
135.950507
 30
0.0
 10
99.776338
 20
135.950507
 30
0.0
 10
99.776338
 20
134.950463
 30
0.0
 10
99.776338
 20
134.950463
 30
0.0
  0
LWPOLYLINE
  5
21f
100
AcDbEntity
  8
Layer_1
 62
7
100
AcDbPolyline
 90
6
 70
0
 10
98.076231
 20
134.950463
 30
0.0
 10
99.176319
 20
134.950463
 30
0.0
 10
99.176319
 20
135.950507
 30
0.0
 10
98.076231
 20
135.950507
 30
0.0
 10
98.076231
 20
134.950463
 30
0.0
 10
98.076231
 20
134.950463
 30
0.0
  0
LWPOLYLINE
  5
220
100
AcDbEntity
  8
Layer_1
 62
7
100
AcDbPolyline
 90
6
 70
0
 10
105.926242
 20
133.050543
 30
0.0
 10
106.626287
 20
133.050543
 30
0.0
 10
106.626287
 20
133.950539
 30
0.0
 10
105.926242
 20
133.950539
 30
0.0
 10
105.926242
 20
133.050543
 30
0.0
 10
105.926242
 20
133.050543
 30
0.0
  0
LWPOLYLINE
  5
221
100
AcDbEntity
  8
Layer_1
 62
7
100
AcDbPolyline
 90
6
 70
0
 10
108.326224
 20
132.550445
 30
0.0
 10
109.026270
 20
132.550445
 30
0.0
 10
109.026270
 20
133.150442
 30
0.0
 10
108.326224
 20
133.150442
 30
0.0
 10
108.326224
 20
132.550445
 30
0.0
 10
108.326224
 20
132.550445
 30
0.0
  0
LWPOLYLINE
  5
222
100
AcDbEntity
  8
Layer_1
 62
7
100
AcDbPolyline
 90
6
 70
0
 10
108.326224
 20
133.850502
 30
0.0
 10
109.026270
 20
133.850502
 30
0.0
 10
109.026270
 20
134.450499
 30
0.0
 10
108.326224
 20
134.450499
 30
0.0
 10
108.326224
 20
133.850502
 30
0.0
 10
108.326224
 20
133.850502
 30
0.0
  0
LWPOLYLINE
  5
223
100
AcDbEntity
  8
Layer_1
 62
7
100
AcDbPolyline
 90
6
 70
0
 10
111.376235
 20
132.850447
 30
0.0
 10
112.476323
 20
132.850447
 30
0.0
 10
112.476323
 20
133.850491
 30
0.0
 10
111.376235
 20
133.850491
 30
0.0
 10
111.376235
 20
132.850447
 30
0.0
 10
111.376235
 20
132.850447
 30
0.0
  0
LWPOLYLINE
  5
224
100
AcDbEntity
  8
Layer_1
 62
7
100
AcDbPolyline
 90
6
 70
0
 10
111.376235
 20
134.550554
 30
0.0
 10
112.476323
 20
134.550554
 30
0.0
 10
112.476323
 20
135.550460
 30
0.0
 10
111.376235
 20
135.550460
 30
0.0
 10
111.376235
 20
134.550554
 30
0.0
 10
111.376235
 20
134.550554
 30
0.0
  0
LWPOLYLINE
  5
225
100
AcDbEntity
  8
Layer_1
 62
7
100
AcDbPolyline
 90
6
 70
0
 10
115.226346
 20
139.750569
 30
0.0
 10
115.926250
 20
139.750569
 30
0.0
 10
115.926250
 20
140.050568
 30
0.0
 10
115.226346
 20
140.050568
 30
0.0
 10
115.226346
 20
139.750569
 30
0.0
 10
115.226346
 20
139.750569
 30
0.0
  0
LWPOLYLINE
  5
226
100
AcDbEntity
  8
Layer_1
 62
7
100
AcDbPolyline
 90
6
 70
0
 10
115.226346
 20
139.100541
 30
0.0
 10
115.926250
 20
139.100541
 30
0.0
 10
115.926250
 20
139.400540
 30
0.0
 10
115.226346
 20
139.400540
 30
0.0
 10
115.226346
 20
139.100541
 30
0.0
 10
115.226346
 20
139.100541
 30
0.0
  0
LWPOLYLINE
  5
227
100
AcDbEntity
  8
Layer_1
 62
7
100
AcDbPolyline
 90
6
 70
0
 10
115.226346
 20
138.450512
 30
0.0
 10
115.926250
 20
138.450512
 30
0.0
 10
115.926250
 20
138.750511
 30
0.0
 10
115.226346
 20
138.750511
 30
0.0
 10
115.226346
 20
138.450512
 30
0.0
 10
115.226346
 20
138.450512
 30
0.0
  0
LWPOLYLINE
  5
228
100
AcDbEntity
  8
Layer_1
 62
7
100
AcDbPolyline
 90
6
 70
0
 10
116.826158
 20
138.450512
 30
0.0
 10
117.526203
 20
138.450512
 30
0.0
 10
117.526203
 20
138.750511
 30
0.0
 10
116.826158
 20
138.750511
 30
0.0
 10
116.826158
 20
138.450512
 30
0.0
 10
116.826158
 20
138.450512
 30
0.0
  0
LWPOLYLINE
  5
229
100
AcDbEntity
  8
Layer_1
 62
7
100
AcDbPolyline
 90
6
 70
0
 10
116.826158
 20
139.100541
 30
0.0
 10
117.526203
 20
139.100541
 30
0.0
 10
117.526203
 20
139.400540
 30
0.0
 10
116.826158
 20
139.400540
 30
0.0
 10
116.826158
 20
139.100541
 30
0.0
 10
116.826158
 20
139.100541
 30
0.0
  0
LWPOLYLINE
  5
22a
100
AcDbEntity
  8
Layer_1
 62
7
100
AcDbPolyline
 90
6
 70
0
 10
116.826158
 20
139.750569
 30
0.0
 10
117.526203
 20
139.750569
 30
0.0
 10
117.526203
 20
140.050568
 30
0.0
 10
116.826158
 20
140.050568
 30
0.0
 10
116.826158
 20
139.750569
 30
0.0
 10
116.826158
 20
139.750569
 30
0.0
  0
LWPOLYLINE
  5
22b
100
AcDbEntity
  8
Layer_1
 62
7
100
AcDbPolyline
 90
6
 70
0
 10
151.976230
 20
117.100436
 30
0.0
 10
152.476183
 20
117.100436
 30
0.0
 10
152.476183
 20
117.600527
 30
0.0
 10
151.976230
 20
117.600527
 30
0.0
 10
151.976230
 20
117.100436
 30
0.0
 10
151.976230
 20
117.100436
 30
0.0
  0
LWPOLYLINE
  5
22c
100
AcDbEntity
  8
Layer_1
 62
7
100
AcDbPolyline
 90
6
 70
0
 10
151.976230
 20
116.150547
 30
0.0
 10
152.476183
 20
116.150547
 30
0.0
 10
152.476183
 20
116.650500
 30
0.0
 10
151.976230
 20
116.650500
 30
0.0
 10
151.976230
 20
116.150547
 30
0.0
 10
151.976230
 20
116.150547
 30
0.0
  0
LWPOLYLINE
  5
22d
100
AcDbEntity
  8
Layer_1
 62
7
100
AcDbPolyline
 90
6
 70
0
 10
151.976230
 20
115.200552
 30
0.0
 10
152.476183
 20
115.200552
 30
0.0
 10
152.476183
 20
115.700505
 30
0.0
 10
151.976230
 20
115.700505
 30
0.0
 10
151.976230
 20
115.200552
 30
0.0
 10
151.976230
 20
115.200552
 30
0.0
  0
LWPOLYLINE
  5
22e
100
AcDbEntity
  8
Layer_1
 62
7
100
AcDbPolyline
 90
6
 70
0
 10
154.276341
 20
115.200552
 30
0.0
 10
154.776432
 20
115.200552
 30
0.0
 10
154.776432
 20
115.700505
 30
0.0
 10
154.276341
 20
115.700505
 30
0.0
 10
154.276341
 20
115.200552
 30
0.0
 10
154.276341
 20
115.200552
 30
0.0
  0
LWPOLYLINE
  5
22f
100
AcDbEntity
  8
Layer_1
 62
7
100
AcDbPolyline
 90
6
 70
0
 10
154.276341
 20
117.100436
 30
0.0
 10
154.776432
 20
117.100436
 30
0.0
 10
154.776432
 20
117.600527
 30
0.0
 10
154.276341
 20
117.600527
 30
0.0
 10
154.276341
 20
117.100436
 30
0.0
 10
154.276341
 20
117.100436
 30
0.0
  0
LWPOLYLINE
  5
230
100
AcDbEntity
  8
Layer_1
 62
7
100
AcDbPolyline
 90
6
 70
0
 10
148.876372
 20
117.260562
 30
0.0
 10
149.926436
 20
117.260562
 30
0.0
 10
149.926436
 20
118.340531
 30
0.0
 10
148.876372
 20
118.340531
 30
0.0
 10
148.876372
 20
117.260562
 30
0.0
 10
148.876372
 20
117.260562
 30
0.0
  0
LWPOLYLINE
  5
231
100
AcDbEntity
  8
Layer_1
 62
7
100
AcDbPolyline
 90
6
 70
0
 10
150.626503
 20
117.260562
 30
0.0
 10
151.676429
 20
117.260562
 30
0.0
 10
151.676429
 20
118.340531
 30
0.0
 10
150.626503
 20
118.340531
 30
0.0
 10
150.626503
 20
117.260562
 30
0.0
 10
150.626503
 20
117.260562
 30
0.0
  0
LWPOLYLINE
  5
232
100
AcDbEntity
  8
Layer_1
 62
7
100
AcDbPolyline
 90
6
 70
0
 10
157.576225
 20
115.310512
 30
0.0
 10
158.626151
 20
115.310512
 30
0.0
 10
158.626151
 20
116.390482
 30
0.0
 10
157.576225
 20
116.390482
 30
0.0
 10
157.576225
 20
115.310512
 30
0.0
 10
157.576225
 20
115.310512
 30
0.0
  0
LWPOLYLINE
  5
233
100
AcDbEntity
  8
Layer_1
 62
7
100
AcDbPolyline
 90
6
 70
0
 10
155.826094
 20
115.310512
 30
0.0
 10
156.876158
 20
115.310512
 30
0.0
 10
156.876158
 20
116.390482
 30
0.0
 10
155.826094
 20
116.390482
 30
0.0
 10
155.826094
 20
115.310512
 30
0.0
 10
155.826094
 20
115.310512
 30
0.0
  0
LWPOLYLINE
  5
234
100
AcDbEntity
  8
Layer_1
 62
7
100
AcDbPolyline
 90
6
 70
0
 10
155.076441
 20
117.510541
 30
0.0
 10
156.126368
 20
117.510541
 30
0.0
 10
156.126368
 20
118.590510
 30
0.0
 10
155.076441
 20
118.590510
 30
0.0
 10
155.076441
 20
117.510541
 30
0.0
 10
155.076441
 20
117.510541
 30
0.0
  0
LWPOLYLINE
  5
235
100
AcDbEntity
  8
Layer_1
 62
7
100
AcDbPolyline
 90
6
 70
0
 10
156.826219
 20
117.510541
 30
0.0
 10
157.876283
 20
117.510541
 30
0.0
 10
157.876283
 20
118.590510
 30
0.0
 10
156.826219
 20
118.590510
 30
0.0
 10
156.826219
 20
117.510541
 30
0.0
 10
156.826219
 20
117.510541
 30
0.0
  0
ENDSEC
  0
SECTION
  2
OBJECTS
  0
DICTIONARY
  5
C
330
0
100
AcDbDictionary
  3
ACAD_GROUP
350
D
  3
ACAD_MLINESTYLE
350
17
  0
DICTIONARY
  5
D
330
C
100
AcDbDictionary
  0
DICTIONARY
  5
1A
330
C
100
AcDbDictionary
  0
DICTIONARY
  5
17
330
C
100
AcDbDictionary
  3
STANDARD
350
18
  0
DICTIONARY
  5
19
330
C
100
AcDbDictionary
  0
ENDSEC
  0
EOF
