 0
SECTION
 2
ENTITIES
  0
POLYLINE
 8
Layer0
 66
     1
70
    8
 10
0.0
 20
 0.0
 30
0.0
  0
VERTEX
  8
MY3DLAYER
10
315.911636333886
20
99.5308576570919
30
34.3495231552262
 70
     32
  0
VERTEX
  8
MY3DLAYER
10
320.911636333886
20
99.5308576570919
30
34.3495231552262
 70
     32
  0
VERTEX
  8
MY3DLAYER
10
339.360644999028
20
99.5308576570919
30
34.3495231552262
 70
     32
  0
VERTEX
  8
MY3DLAYER
10
344.360644999028
20
99.5308576570919
30
34.3495231552262
 70
     32
  0
VERTEX
  8
MY3DLAYER
10
344.360644999028
20
104.530857657092
30
34.3495231552262
 70
     32
  0
VERTEX
  8
MY3DLAYER
10
349.360644999028
20
104.530857657092
30
34.3495231552263
 70
     32
  0
VERTEX
  8
MY3DLAYER
10
349.360644999028
20
109.530857657092
30
34.3495231552262
 70
     32
  0
VERTEX
  8
MY3DLAYER
10
344.360644999028
20
109.530857657092
30
34.3495231552262
 70
     32
  0
VERTEX
  8
MY3DLAYER
10
344.361636333886
20
114.100086318756
30
34.349523155226
 70
     32
  0
VERTEX
  8
MY3DLAYER
10
343.474378896361
20
114.100086318756
30
34.3495231552262
 70
     32
  0
VERTEX
  8
MY3DLAYER
10
343.474378896361
20
112.95504892516
30
34.3495231552262
 70
     32
  0
VERTEX
  8
MY3DLAYER
10
341.129425114467
20
112.95504892516
30
34.3495231552259
 70
     32
  0
VERTEX
  8
MY3DLAYER
10
341.129425114467
20
114.100086318756
30
34.3495231552259
 70
     32
  0
VERTEX
  8
MY3DLAYER
10
340.915472333886
20
114.100086318756
30
34.3495231552262
 70
     32
  0
VERTEX
  8
MY3DLAYER
10
340.915472333886
20
117.189086318756
30
34.3495231552262
 70
     32
  0
VERTEX
  8
MY3DLAYER
10
341.129425114467
20
117.189086318756
30
34.3495231552259
 70
     32
  0
VERTEX
  8
MY3DLAYER
10
341.129425114467
20
118.422681318756
30
34.3495231552259
 70
     32
  0
VERTEX
  8
MY3DLAYER
10
343.474378896361
20
118.422681318756
30
34.3495231552262
 70
     32
  0
VERTEX
  8
MY3DLAYER
10
343.474378896361
20
117.189086318756
30
34.3495231552262
 70
     32
  0
VERTEX
  8
MY3DLAYER
10
344.361636333886
20
117.189086318756
30
34.349523155226
 70
     32
  0
VERTEX
  8
MY3DLAYER
10
344.360644999028
20
120.359151657092
30
34.3495231552262
 70
     32
  0
VERTEX
  8
MY3DLAYER
10
349.360644999028
20
120.359151657092
30
34.3495231552262
 70
     32
  0
VERTEX
  8
MY3DLAYER
10
349.360644999028
20
125.359151657092
30
34.3495231552262
 70
     32
  0
VERTEX
  8
MY3DLAYER
10
336.524601920212
20
125.359151657092
30
34.3495231552262
 70
     32
  0
VERTEX
  8
MY3DLAYER
10
338.745458958471
20
122.316814570475
30
34.3495231552262
 70
     32
  0
VERTEX
  8
MY3DLAYER
10
339.605352724141
20
118.649580783988
30
34.3495231552262
 70
     32
  0
VERTEX
  8
MY3DLAYER
10
338.96835881294
20
114.937134193116
30
34.3495231552262
 70
     32
  0
VERTEX
  8
MY3DLAYER
10
336.93516759078
20
111.766305533739
30
34.3495231552262
 70
     32
  0
VERTEX
  8
MY3DLAYER
10
333.827167950911
20
109.638311367497
30
34.3495231552262
 70
     32
  0
VERTEX
  8
MY3DLAYER
10
330.135644999028
20
108.889526198899
30
34.3495231552262
 70
     32
  0
VERTEX
  8
MY3DLAYER
10
326.444122047145
20
109.638311367497
30
34.3495231552262
 70
     32
  0
VERTEX
  8
MY3DLAYER
10
323.336122407276
20
111.766305533739
30
34.3495231552262
 70
     32
  0
VERTEX
  8
MY3DLAYER
10
321.302931185116
20
114.937134193116
30
34.3495231552262
 70
     32
  0
VERTEX
  8
MY3DLAYER
10
320.665937273915
20
118.649580783988
30
34.3495231552262
 70
     32
  0
VERTEX
  8
MY3DLAYER
10
321.525831039584
20
122.316814570475
30
34.3495231552262
 70
     32
  0
VERTEX
  8
MY3DLAYER
10
323.746688077844
20
125.359151657092
30
34.3495231552262
 70
     32
  0
VERTEX
  8
MY3DLAYER
10
310.911636333886
20
125.359151657092
30
34.3495231552262
 70
     32
  0
VERTEX
  8
MY3DLAYER
10
310.911636333886
20
120.359151657092
30
34.3495231552262
 70
     32
  0
VERTEX
  8
MY3DLAYER
10
315.910644999028
20
120.359151657092
30
34.3495231552262
 70
     32
  0
VERTEX
  8
MY3DLAYER
10
315.910644999028
20
117.189086318756
30
34.3495231552262
 70
     32
  0
VERTEX
  8
MY3DLAYER
10
316.797902436553
20
117.189086318756
30
34.3495231552262
 70
     32
  0
VERTEX
  8
MY3DLAYER
10
316.797902436553
20
118.349299992881
30
34.3495231552262
 70
     32
  0
VERTEX
  8
MY3DLAYER
10
319.142856218447
20
118.349299992881
30
34.3495231552262
 70
     32
  0
VERTEX
  8
MY3DLAYER
10
319.142856218447
20
117.189086318756
30
34.3495231552262
 70
     32
  0
VERTEX
  8
MY3DLAYER
10
319.356808999028
20
117.189086318756
30
34.3495231552262
 70
     32
  0
VERTEX
  8
MY3DLAYER
10
319.356808999028
20
114.100086318756
30
34.3495231552262
 70
     32
  0
VERTEX
  8
MY3DLAYER
10
319.142856218447
20
114.100086318756
30
34.3495231552262
 70
     32
  0
VERTEX
  8
MY3DLAYER
10
319.142856218447
20
112.95504892516
30
34.3495231552262
 70
     32
  0
VERTEX
  8
MY3DLAYER
10
316.797902436553
20
112.95504892516
30
34.3495231552262
 70
     32
  0
VERTEX
  8
MY3DLAYER
10
316.797902436553
20
114.100086318756
30
34.3495231552262
 70
     32
  0
VERTEX
  8
MY3DLAYER
10
315.910644999028
20
114.100086318756
30
34.3495231552262
 70
     32
  0
VERTEX
  8
MY3DLAYER
10
315.910644999028
20
109.530857657092
30
34.3495231552262
 70
     32
  0
VERTEX
  8
MY3DLAYER
10
310.911636333886
20
109.530857657092
30
34.3495231552262
 70
     32
  0
VERTEX
  8
MY3DLAYER
10
310.911636333886
20
104.530857657092
30
34.3495231552263
 70
     32
  0
VERTEX
  8
MY3DLAYER
10
315.911636333886
20
104.530857657092
30
34.3495231552262
 70
     32
  0
VERTEX
  8
MY3DLAYER
10
315.911636333886
20
99.5308576570919
30
34.3495231552262
 70
     32
  0
SEQEND
 0
ENDSEC
 0
EOF
