 0
SECTION
 2
ENTITIES
  0
POLYLINE
 8
Layer0
 66
     1
70
    8
 10
0.0
 20
 0.0
 30
0.0
  0
VERTEX
  8
MY3DLAYER
10
352.453473164121
20
185.169255388635
30
34.3495231552264
 70
     32
  0
VERTEX
  8
MY3DLAYER
10
352.453473164121
20
167.514909119436
30
34.3495231552264
 70
     32
  0
VERTEX
  8
MY3DLAYER
10
358.145449164121
20
160.51422683443
30
34.3495231552265
 70
     32
  0
VERTEX
  8
MY3DLAYER
10
358.145449164121
20
125.978427388634
30
34.3495231552263
 70
     32
  0
VERTEX
  8
MY3DLAYER
10
401.478219596428
20
125.978427388634
30
34.3495231552263
 70
     32
  0
VERTEX
  8
MY3DLAYER
10
401.478219596428
20
130.978427388634
30
34.3495231552263
 70
     32
  0
VERTEX
  8
MY3DLAYER
10
396.478219596428
20
130.978427388634
30
34.3495231552263
 70
     32
  0
VERTEX
  8
MY3DLAYER
10
396.478219596428
20
131.978427388634
30
34.3495231552264
 70
     32
  0
VERTEX
  8
MY3DLAYER
10
392.028999401264
20
131.978427388634
30
34.3495231552264
 70
     32
  0
VERTEX
  8
MY3DLAYER
10
392.028999401264
20
130.801983615741
30
34.3495231552264
 70
     32
  0
VERTEX
  8
MY3DLAYER
10
389.628999401272
20
130.801983615741
30
34.3495231552264
 70
     32
  0
VERTEX
  8
MY3DLAYER
10
389.628999401272
20
131.978427388634
30
34.3495231552264
 70
     32
  0
VERTEX
  8
MY3DLAYER
10
387.025811596428
20
131.978427388634
30
34.3495231552264
 70
     32
  0
VERTEX
  8
MY3DLAYER
10
387.025811596428
20
134.978427388634
30
34.3495231552264
 70
     32
  0
VERTEX
  8
MY3DLAYER
10
389.628999401272
20
134.978427388634
30
34.3495231552264
 70
     32
  0
VERTEX
  8
MY3DLAYER
10
389.628999401272
20
136.30198361574
30
34.3495231552264
 70
     32
  0
VERTEX
  8
MY3DLAYER
10
392.028999401267
20
136.30198361574
30
34.3495231552264
 70
     32
  0
VERTEX
  8
MY3DLAYER
10
392.028999401267
20
134.978427388634
30
34.3495231552264
 70
     32
  0
VERTEX
  8
MY3DLAYER
10
396.478219596428
20
134.978427388634
30
34.3495231552264
 70
     32
  0
VERTEX
  8
MY3DLAYER
10
396.478219596428
20
135.978427388634
30
34.3495231552263
 70
     32
  0
VERTEX
  8
MY3DLAYER
10
401.478219596428
20
135.978427388634
30
34.3495231552263
 70
     32
  0
VERTEX
  8
MY3DLAYER
10
401.478219596428
20
140.978427388634
30
34.3495231552263
 70
     32
  0
VERTEX
  8
MY3DLAYER
10
396.478219596428
20
140.978427388634
30
34.3495231552263
 70
     32
  0
VERTEX
  8
MY3DLAYER
10
394.215751873977
20
142.573152419754
30
34.3495231552263
 70
     32
  0
VERTEX
  8
MY3DLAYER
10
392.263465322
20
144.535417778717
30
34.3495231552264
 70
     32
  0
VERTEX
  8
MY3DLAYER
10
390.680295711857
20
146.805986453198
30
34.3495231552264
 70
     32
  0
VERTEX
  8
MY3DLAYER
10
389.514035885265
20
149.316314347496
30
34.3495231552264
 70
     32
  0
VERTEX
  8
MY3DLAYER
10
388.799892980447
20
151.990619496785
30
34.3495231552264
 70
     32
  0
VERTEX
  8
MY3DLAYER
10
388.559425596428
20
154.748169778691
30
34.3495231552264
 70
     32
  0
VERTEX
  8
MY3DLAYER
10
388.799892980447
20
157.505720060596
30
34.3495231552264
 70
     32
  0
VERTEX
  8
MY3DLAYER
10
389.514035885265
20
160.180025209885
30
34.3495231552264
 70
     32
  0
VERTEX
  8
MY3DLAYER
10
390.680295711857
20
162.690353104184
30
34.3495231552264
 70
     32
  0
VERTEX
  8
MY3DLAYER
10
392.263465322
20
164.960921778665
30
34.3495231552264
 70
     32
  0
VERTEX
  8
MY3DLAYER
10
394.215751873977
20
166.923187137628
30
34.3495231552264
 70
     32
  0
VERTEX
  8
MY3DLAYER
10
396.478219596428
20
168.517912168747
30
34.3495231552264
 70
     32
  0
VERTEX
  8
MY3DLAYER
10
401.478219596428
20
168.517912168747
30
34.3495231552264
 70
     32
  0
VERTEX
  8
MY3DLAYER
10
401.478219596428
20
174.304579807082
30
34.3495231552264
 70
     32
  0
VERTEX
  8
MY3DLAYER
10
396.478219596428
20
174.304579807082
30
34.3495231552264
 70
     32
  0
VERTEX
  8
MY3DLAYER
10
396.478219596428
20
175.736917597858
30
34.3495231552265
 70
     32
  0
VERTEX
  8
MY3DLAYER
10
392.028999401266
20
175.736917597858
30
34.3495231552265
 70
     32
  0
VERTEX
  8
MY3DLAYER
10
392.028999401266
20
174.435806337292
30
34.3495231552265
 70
     32
  0
VERTEX
  8
MY3DLAYER
10
389.628999401272
20
174.435806337292
30
34.3495231552265
 70
     32
  0
VERTEX
  8
MY3DLAYER
10
389.628999401272
20
175.736917597858
30
34.3495231552265
 70
     32
  0
VERTEX
  8
MY3DLAYER
10
387.025811596428
20
175.736917597858
30
34.3495231552265
 70
     32
  0
VERTEX
  8
MY3DLAYER
10
387.025811596428
20
178.736917597858
30
34.3495231552265
 70
     32
  0
VERTEX
  8
MY3DLAYER
10
389.628999401272
20
178.736917597858
30
34.3495231552265
 70
     32
  0
VERTEX
  8
MY3DLAYER
10
389.628999401272
20
179.935806337292
30
34.3495231552265
 70
     32
  0
VERTEX
  8
MY3DLAYER
10
392.028999401266
20
179.935806337292
30
34.3495231552265
 70
     32
  0
VERTEX
  8
MY3DLAYER
10
392.028999401266
20
178.736917597858
30
34.3495231552265
 70
     32
  0
VERTEX
  8
MY3DLAYER
10
396.478219596428
20
178.736917597858
30
34.3495231552265
 70
     32
  0
VERTEX
  8
MY3DLAYER
10
396.478219596428
20
180.169255388634
30
34.3495231552264
 70
     32
  0
VERTEX
  8
MY3DLAYER
10
401.478219596428
20
180.169255388634
30
34.3495231552264
 70
     32
  0
VERTEX
  8
MY3DLAYER
10
401.478219596428
20
185.169255388634
30
34.3495231552264
 70
     32
  0
VERTEX
  8
MY3DLAYER
10
352.453473164121
20
185.169255388635
30
34.3495231552264
 70
     32
  0
SEQEND
  0
POLYLINE
 8
Layer0
 66
     1
70
    8
 10
0.0
 20
 0.0
 30
0.0
  0
VERTEX
  8
MY3DLAYER
10
371.588646428918
20
131.880527895359
30
34.3495231552263
 70
     32
  0
VERTEX
  8
MY3DLAYER
10
371.350268495022
20
131.569867723579
30
34.3495231552263
 70
     32
  0
VERTEX
  8
MY3DLAYER
10
371.039608323242
20
131.331489789682
30
34.3495231552263
 70
     32
  0
VERTEX
  8
MY3DLAYER
10
370.677836890896
20
131.181639155925
30
34.3495231552263
 70
     32
  0
VERTEX
  8
MY3DLAYER
10
370.289608323242
20
131.130527895359
30
34.3495231552263
 70
     32
  0
VERTEX
  8
MY3DLAYER
10
369.901379755588
20
131.181639155925
30
34.3495231552263
 70
     32
  0
VERTEX
  8
MY3DLAYER
10
369.539608323242
20
131.331489789682
30
34.3495231552263
 70
     32
  0
VERTEX
  8
MY3DLAYER
10
369.228948151462
20
131.569867723579
30
34.3495231552263
 70
     32
  0
VERTEX
  8
MY3DLAYER
10
368.990570217565
20
131.880527895359
30
34.3495231552263
 70
     32
  0
VERTEX
  8
MY3DLAYER
10
368.840719583808
20
132.242299327705
30
34.3495231552263
 70
     32
  0
VERTEX
  8
MY3DLAYER
10
368.789608323242
20
132.630527895359
30
34.3495231552263
 70
     32
  0
VERTEX
  8
MY3DLAYER
10
368.840719583808
20
133.018756463012
30
34.3495231552263
 70
     32
  0
VERTEX
  8
MY3DLAYER
10
368.990570217565
20
133.380527895359
30
34.3495231552263
 70
     32
  0
VERTEX
  8
MY3DLAYER
10
369.228948151462
20
133.691188067139
30
34.3495231552263
 70
     32
  0
VERTEX
  8
MY3DLAYER
10
369.539608323242
20
133.929566001035
30
34.3495231552263
 70
     32
  0
VERTEX
  8
MY3DLAYER
10
369.901379755588
20
134.079416634792
30
34.3495231552263
 70
     32
  0
VERTEX
  8
MY3DLAYER
10
370.289608323242
20
134.130527895359
30
34.3495231552263
 70
     32
  0
VERTEX
  8
MY3DLAYER
10
370.677836890896
20
134.079416634792
30
34.3495231552263
 70
     32
  0
VERTEX
  8
MY3DLAYER
10
371.039608323242
20
133.929566001035
30
34.3495231552263
 70
     32
  0
VERTEX
  8
MY3DLAYER
10
371.350268495022
20
133.691188067139
30
34.3495231552263
 70
     32
  0
VERTEX
  8
MY3DLAYER
10
371.588646428918
20
133.380527895359
30
34.3495231552263
 70
     32
  0
VERTEX
  8
MY3DLAYER
10
371.738497062675
20
133.018756463012
30
34.3495231552263
 70
     32
  0
VERTEX
  8
MY3DLAYER
10
371.789608323242
20
132.630527895359
30
34.3495231552263
 70
     32
  0
VERTEX
  8
MY3DLAYER
10
371.738497062675
20
132.242299327705
30
34.3495231552263
 70
     32
  0
VERTEX
  8
MY3DLAYER
10
371.588646428918
20
131.880527895359
30
34.3495231552263
 70
     32
  0
SEQEND
  0
POLYLINE
 8
Layer0
 66
     1
70
    8
 10
0.0
 20
 0.0
 30
0.0
  0
VERTEX
  8
MY3DLAYER
10
369.228948151462
20
148.315883560414
30
34.3495231552264
 70
     32
  0
VERTEX
  8
MY3DLAYER
10
369.539608323242
20
148.554261494311
30
34.3495231552264
 70
     32
  0
VERTEX
  8
MY3DLAYER
10
369.901379755588
20
148.704112128068
30
34.3495231552265
 70
     32
  0
VERTEX
  8
MY3DLAYER
10
370.289608323242
20
148.755223388634
30
34.3495231552265
 70
     32
  0
VERTEX
  8
MY3DLAYER
10
370.677836890896
20
148.704112128068
30
34.3495231552265
 70
     32
  0
VERTEX
  8
MY3DLAYER
10
371.039608323242
20
148.554261494311
30
34.3495231552264
 70
     32
  0
VERTEX
  8
MY3DLAYER
10
371.350268495022
20
148.315883560414
30
34.3495231552264
 70
     32
  0
VERTEX
  8
MY3DLAYER
10
371.588646428918
20
148.005223388634
30
34.3495231552264
 70
     32
  0
VERTEX
  8
MY3DLAYER
10
371.738497062675
20
147.643451956288
30
34.3495231552264
 70
     32
  0
VERTEX
  8
MY3DLAYER
10
371.789608323242
20
147.255223388634
30
34.3495231552264
 70
     32
  0
VERTEX
  8
MY3DLAYER
10
371.738497062675
20
146.866994820981
30
34.3495231552264
 70
     32
  0
VERTEX
  8
MY3DLAYER
10
371.588646428918
20
146.505223388634
30
34.3495231552264
 70
     32
  0
VERTEX
  8
MY3DLAYER
10
371.350268495022
20
146.194563216855
30
34.3495231552264
 70
     32
  0
VERTEX
  8
MY3DLAYER
10
371.039608323242
20
145.956185282958
30
34.3495231552264
 70
     32
  0
VERTEX
  8
MY3DLAYER
10
370.677836890896
20
145.806334649201
30
34.3495231552264
 70
     32
  0
VERTEX
  8
MY3DLAYER
10
370.289608323242
20
145.755223388634
30
34.3495231552264
 70
     32
  0
VERTEX
  8
MY3DLAYER
10
369.901379755588
20
145.806334649201
30
34.3495231552264
 70
     32
  0
VERTEX
  8
MY3DLAYER
10
369.539608323242
20
145.956185282958
30
34.3495231552264
 70
     32
  0
VERTEX
  8
MY3DLAYER
10
369.228948151462
20
146.194563216855
30
34.3495231552264
 70
     32
  0
VERTEX
  8
MY3DLAYER
10
368.990570217565
20
146.505223388634
30
34.3495231552264
 70
     32
  0
VERTEX
  8
MY3DLAYER
10
368.840719583808
20
146.866994820981
30
34.3495231552264
 70
     32
  0
VERTEX
  8
MY3DLAYER
10
368.789608323242
20
147.255223388634
30
34.3495231552264
 70
     32
  0
VERTEX
  8
MY3DLAYER
10
368.840719583808
20
147.643451956288
30
34.3495231552264
 70
     32
  0
VERTEX
  8
MY3DLAYER
10
368.990570217565
20
148.005223388634
30
34.3495231552264
 70
     32
  0
VERTEX
  8
MY3DLAYER
10
369.228948151462
20
148.315883560414
30
34.3495231552264
 70
     32
  0
SEQEND
  0
POLYLINE
 8
Layer0
 66
     1
70
    8
 10
0.0
 20
 0.0
 30
0.0
  0
VERTEX
  8
MY3DLAYER
10
371.738497062675
20
170.134018336326
30
34.3495231552264
 70
     32
  0
VERTEX
  8
MY3DLAYER
10
371.588646428918
20
169.77224690398
30
34.3495231552264
 70
     32
  0
VERTEX
  8
MY3DLAYER
10
371.350268495022
20
169.4615867322
30
34.3495231552264
 70
     32
  0
VERTEX
  8
MY3DLAYER
10
371.039608323242
20
169.223208798303
30
34.3495231552264
 70
     32
  0
VERTEX
  8
MY3DLAYER
10
370.677836890896
20
169.073358164546
30
34.3495231552264
 70
     32
  0
VERTEX
  8
MY3DLAYER
10
370.289608323242
20
169.02224690398
30
34.3495231552264
 70
     32
  0
VERTEX
  8
MY3DLAYER
10
369.901379755588
20
169.073358164546
30
34.3495231552264
 70
     32
  0
VERTEX
  8
MY3DLAYER
10
369.539608323242
20
169.223208798303
30
34.3495231552264
 70
     32
  0
VERTEX
  8
MY3DLAYER
10
369.228948151462
20
169.4615867322
30
34.3495231552264
 70
     32
  0
VERTEX
  8
MY3DLAYER
10
368.990570217565
20
169.77224690398
30
34.3495231552264
 70
     32
  0
VERTEX
  8
MY3DLAYER
10
368.840719583808
20
170.134018336326
30
34.3495231552264
 70
     32
  0
VERTEX
  8
MY3DLAYER
10
368.789608323242
20
170.52224690398
30
34.3495231552264
 70
     32
  0
VERTEX
  8
MY3DLAYER
10
368.840719583808
20
170.910475471634
30
34.3495231552264
 70
     32
  0
VERTEX
  8
MY3DLAYER
10
368.990570217565
20
171.27224690398
30
34.3495231552264
 70
     32
  0
VERTEX
  8
MY3DLAYER
10
369.228948151462
20
171.58290707576
30
34.3495231552264
 70
     32
  0
VERTEX
  8
MY3DLAYER
10
369.539608323242
20
171.821285009656
30
34.3495231552264
 70
     32
  0
VERTEX
  8
MY3DLAYER
10
369.901379755588
20
171.971135643413
30
34.3495231552264
 70
     32
  0
VERTEX
  8
MY3DLAYER
10
370.289608323242
20
172.02224690398
30
34.3495231552264
 70
     32
  0
VERTEX
  8
MY3DLAYER
10
370.677836890896
20
171.971135643413
30
34.3495231552264
 70
     32
  0
VERTEX
  8
MY3DLAYER
10
371.039608323242
20
171.821285009656
30
34.3495231552264
 70
     32
  0
VERTEX
  8
MY3DLAYER
10
371.350268495022
20
171.58290707576
30
34.3495231552264
 70
     32
  0
VERTEX
  8
MY3DLAYER
10
371.588646428918
20
171.27224690398
30
34.3495231552264
 70
     32
  0
VERTEX
  8
MY3DLAYER
10
371.738497062675
20
170.910475471634
30
34.3495231552264
 70
     32
  0
VERTEX
  8
MY3DLAYER
10
371.789608323242
20
170.52224690398
30
34.3495231552264
 70
     32
  0
VERTEX
  8
MY3DLAYER
10
371.738497062675
20
170.134018336326
30
34.3495231552264
 70
     32
  0
SEQEND
  0
POLYLINE
 8
Layer0
 66
     1
70
    8
 10
0.0
 20
 0.0
 30
0.0
  0
VERTEX
  8
MY3DLAYER
10
365.625104164121
20
144.495252319084
30
34.3495231552264
 70
     32
  0
VERTEX
  8
MY3DLAYER
10
360.625104164121
20
144.495252319084
30
34.3495231552264
 70
     32
  0
VERTEX
  8
MY3DLAYER
10
360.625104164121
20
149.495252319084
30
34.3495231552264
 70
     32
  0
VERTEX
  8
MY3DLAYER
10
365.625104164121
20
149.495252319084
30
34.3495231552264
 70
     32
  0
VERTEX
  8
MY3DLAYER
10
365.625104164121
20
144.495252319084
30
34.3495231552264
 70
     32
  0
SEQEND
  0
POLYLINE
 8
Layer0
 66
     1
70
    8
 10
0.0
 20
 0.0
 30
0.0
  0
VERTEX
  8
MY3DLAYER
10
360.625104164121
20
130.085976388634
30
34.3495231552263
 70
     32
  0
VERTEX
  8
MY3DLAYER
10
360.625104164121
20
135.085976388634
30
34.3495231552263
 70
     32
  0
VERTEX
  8
MY3DLAYER
10
365.625104164121
20
135.085976388634
30
34.3495231552263
 70
     32
  0
VERTEX
  8
MY3DLAYER
10
365.625104164121
20
130.085976388634
30
34.3495231552263
 70
     32
  0
VERTEX
  8
MY3DLAYER
10
360.625104164121
20
130.085976388634
30
34.3495231552263
 70
     32
  0
SEQEND
  0
POLYLINE
 8
Layer0
 66
     1
70
    8
 10
0.0
 20
 0.0
 30
0.0
  0
VERTEX
  8
MY3DLAYER
10
365.625104164122
20
167.76227583443
30
34.3495231552263
 70
     32
  0
VERTEX
  8
MY3DLAYER
10
360.625104164121
20
167.76227583443
30
34.3495231552263
 70
     32
  0
VERTEX
  8
MY3DLAYER
10
360.625104164122
20
172.76227583443
30
34.3495231552263
 70
     32
  0
VERTEX
  8
MY3DLAYER
10
365.625104164122
20
172.76227583443
30
34.3495231552263
 70
     32
  0
VERTEX
  8
MY3DLAYER
10
365.625104164122
20
167.76227583443
30
34.3495231552263
 70
     32
  0
SEQEND
  0
POLYLINE
 8
Layer0
 66
     1
70
    8
 10
0.0
 20
 0.0
 30
0.0
  0
VERTEX
  8
MY3DLAYER
10
381.453398164121
20
130.085976388634
30
34.3495231552263
 70
     32
  0
VERTEX
  8
MY3DLAYER
10
376.453398164121
20
130.085976388634
30
34.3495231552263
 70
     32
  0
VERTEX
  8
MY3DLAYER
10
376.453398164121
20
135.085976388634
30
34.3495231552263
 70
     32
  0
VERTEX
  8
MY3DLAYER
10
381.453398164121
20
135.085976388634
30
34.3495231552263
 70
     32
  0
VERTEX
  8
MY3DLAYER
10
381.453398164121
20
130.085976388634
30
34.3495231552263
 70
     32
  0
SEQEND
  0
POLYLINE
 8
Layer0
 66
     1
70
    8
 10
0.0
 20
 0.0
 30
0.0
  0
VERTEX
  8
MY3DLAYER
10
376.453398164122
20
172.76227583443
30
34.3495231552263
 70
     32
  0
VERTEX
  8
MY3DLAYER
10
381.453398164122
20
172.76227583443
30
34.3495231552263
 70
     32
  0
VERTEX
  8
MY3DLAYER
10
381.453398164122
20
167.76227583443
30
34.3495231552263
 70
     32
  0
VERTEX
  8
MY3DLAYER
10
376.453398164122
20
167.76227583443
30
34.3495231552263
 70
     32
  0
VERTEX
  8
MY3DLAYER
10
376.453398164122
20
172.76227583443
30
34.3495231552263
 70
     32
  0
SEQEND
  0
POLYLINE
 8
Layer0
 66
     1
70
    8
 10
0.0
 20
 0.0
 30
0.0
  0
VERTEX
  8
MY3DLAYER
10
376.453398164121
20
144.495252319084
30
34.3495231552264
 70
     32
  0
VERTEX
  8
MY3DLAYER
10
376.453398164121
20
149.495252319084
30
34.3495231552264
 70
     32
  0
VERTEX
  8
MY3DLAYER
10
381.453398164121
20
149.495252319084
30
34.3495231552264
 70
     32
  0
VERTEX
  8
MY3DLAYER
10
381.453398164121
20
144.495252319084
30
34.3495231552264
 70
     32
  0
VERTEX
  8
MY3DLAYER
10
376.453398164121
20
144.495252319084
30
34.3495231552264
 70
     32
  0
SEQEND
  0
POLYLINE
 8
Layer0
 66
     1
70
    8
 10
0.0
 20
 0.0
 30
0.0
  0
VERTEX
  8
MY3DLAYER
10
385.154386622314
20
173.47536783443
30
34.3495231552263
 70
     32
  0
VERTEX
  8
MY3DLAYER
10
380.154386622314
20
173.47536783443
30
34.3495231552263
 70
     32
  0
VERTEX
  8
MY3DLAYER
10
380.154386622314
20
178.47536783443
30
34.3495231552263
 70
     32
  0
VERTEX
  8
MY3DLAYER
10
385.154386622314
20
178.47536783443
30
34.3495231552263
 70
     32
  0
VERTEX
  8
MY3DLAYER
10
385.154386622314
20
173.47536783443
30
34.3495231552263
 70
     32
  0
SEQEND
  0
POLYLINE
 8
Layer0
 66
     1
70
    8
 10
0.0
 20
 0.0
 30
0.0
  0
VERTEX
  8
MY3DLAYER
10
370.70995199116
20
183.165989425333
30
34.3495231552265
 70
     32
  0
VERTEX
  8
MY3DLAYER
10
371.071723423507
20
183.016138791576
30
34.3495231552265
 70
     32
  0
VERTEX
  8
MY3DLAYER
10
371.382383595287
20
182.777760857679
30
34.3495231552265
 70
     32
  0
VERTEX
  8
MY3DLAYER
10
371.620761529183
20
182.467100685899
30
34.3495231552265
 70
     32
  0
VERTEX
  8
MY3DLAYER
10
371.77061216294
20
182.105329253553
30
34.3495231552265
 70
     32
  0
VERTEX
  8
MY3DLAYER
10
371.821723423507
20
181.717100685899
30
34.3495231552265
 70
     32
  0
VERTEX
  8
MY3DLAYER
10
371.77061216294
20
181.328872118246
30
34.3495231552265
 70
     32
  0
VERTEX
  8
MY3DLAYER
10
371.620761529183
20
180.967100685899
30
34.3495231552265
 70
     32
  0
VERTEX
  8
MY3DLAYER
10
371.382383595287
20
180.65644051412
30
34.3495231552265
 70
     32
  0
VERTEX
  8
MY3DLAYER
10
371.071723423507
20
180.418062580223
30
34.3495231552265
 70
     32
  0
VERTEX
  8
MY3DLAYER
10
370.70995199116
20
180.268211946466
30
34.3495231552265
 70
     32
  0
VERTEX
  8
MY3DLAYER
10
370.321723423507
20
180.217100685899
30
34.3495231552265
 70
     32
  0
VERTEX
  8
MY3DLAYER
10
369.933494855853
20
180.268211946466
30
34.3495231552265
 70
     32
  0
VERTEX
  8
MY3DLAYER
10
369.571723423507
20
180.418062580223
30
34.3495231552265
 70
     32
  0
VERTEX
  8
MY3DLAYER
10
369.261063251727
20
180.65644051412
30
34.3495231552265
 70
     32
  0
VERTEX
  8
MY3DLAYER
10
369.02268531783
20
180.967100685899
30
34.3495231552265
 70
     32
  0
VERTEX
  8
MY3DLAYER
10
368.872834684073
20
181.328872118246
30
34.3495231552265
 70
     32
  0
VERTEX
  8
MY3DLAYER
10
368.821723423507
20
181.717100685899
30
34.3495231552265
 70
     32
  0
VERTEX
  8
MY3DLAYER
10
368.872834684073
20
182.105329253553
30
34.3495231552265
 70
     32
  0
VERTEX
  8
MY3DLAYER
10
369.02268531783
20
182.467100685899
30
34.3495231552265
 70
     32
  0
VERTEX
  8
MY3DLAYER
10
369.261063251727
20
182.777760857679
30
34.3495231552265
 70
     32
  0
VERTEX
  8
MY3DLAYER
10
369.571723423507
20
183.016138791576
30
34.3495231552265
 70
     32
  0
VERTEX
  8
MY3DLAYER
10
369.933494855853
20
183.165989425333
30
34.3495231552265
 70
     32
  0
VERTEX
  8
MY3DLAYER
10
370.321723423507
20
183.217100685899
30
34.3495231552265
 70
     32
  0
VERTEX
  8
MY3DLAYER
10
370.70995199116
20
183.165989425333
30
34.3495231552265
 70
     32
  0
SEQEND
  0
POLYLINE
 8
Layer0
 66
     1
70
    8
 10
0.0
 20
 0.0
 30
0.0
  0
VERTEX
  8
MY3DLAYER
10
360.625104164122
20
184.17188083443
30
34.3495231552263
 70
     32
  0
VERTEX
  8
MY3DLAYER
10
365.625104164122
20
184.17188083443
30
34.3495231552263
 70
     32
  0
VERTEX
  8
MY3DLAYER
10
365.625104164122
20
179.17188083443
30
34.3495231552263
 70
     32
  0
VERTEX
  8
MY3DLAYER
10
360.625104164122
20
179.17188083443
30
34.3495231552263
 70
     32
  0
VERTEX
  8
MY3DLAYER
10
360.625104164122
20
184.17188083443
30
34.3495231552263
 70
     32
  0
SEQEND
  0
POLYLINE
 8
Layer0
 66
     1
70
    8
 10
0.0
 20
 0.0
 30
0.0
  0
VERTEX
  8
MY3DLAYER
10
376.453398164122
20
184.17188083443
30
34.3495231552263
 70
     32
  0
VERTEX
  8
MY3DLAYER
10
381.453398164122
20
184.17188083443
30
34.3495231552263
 70
     32
  0
VERTEX
  8
MY3DLAYER
10
381.453398164122
20
179.17188083443
30
34.3495231552263
 70
     32
  0
VERTEX
  8
MY3DLAYER
10
376.453398164122
20
179.17188083443
30
34.3495231552263
 70
     32
  0
VERTEX
  8
MY3DLAYER
10
376.453398164122
20
184.17188083443
30
34.3495231552263
 70
     32
  0
SEQEND
  0
POLYLINE
 8
Layer0
 66
     1
70
    8
 10
0.0
 20
 0.0
 30
0.0
  0
VERTEX
  8
MY3DLAYER
10
363.145449164121
20
173.47536783443
30
34.3495231552265
 70
     32
  0
VERTEX
  8
MY3DLAYER
10
358.145449164122
20
173.47536783443
30
34.3495231552265
 70
     32
  0
VERTEX
  8
MY3DLAYER
10
358.145449164122
20
178.47536783443
30
34.3495231552265
 70
     32
  0
VERTEX
  8
MY3DLAYER
10
363.145449164121
20
178.47536783443
30
34.3495231552265
 70
     32
  0
VERTEX
  8
MY3DLAYER
10
363.145449164121
20
173.47536783443
30
34.3495231552265
 70
     32
  0
SEQEND
  0
POLYLINE
 8
Layer0
 66
     1
70
    8
 10
0.0
 20
 0.0
 30
0.0
  0
VERTEX
  8
MY3DLAYER
10
369.062896538944
20
159.496078065101
30
34.3501541598933
 70
     32
  0
VERTEX
  8
MY3DLAYER
10
369.310325999564
20
159.818534416364
30
34.3501827611363
 70
     32
  0
VERTEX
  8
MY3DLAYER
10
369.632782350959
20
160.065963877133
30
34.3502084352023
 70
     32
  0
VERTEX
  8
MY3DLAYER
10
370.008290725666
20
160.221504538554
30
34.350229432446
 70
     32
  0
VERTEX
  8
MY3DLAYER
10
370.411260848504
20
160.274556561593
30
34.35024432194
 70
     32
  0
VERTEX
  8
MY3DLAYER
10
370.814230971543
20
160.221504538554
30
34.3502520889899
 70
     32
  0
VERTEX
  8
MY3DLAYER
10
371.189739346836
20
160.065963877133
30
34.3502522042839
 70
     32
  0
VERTEX
  8
MY3DLAYER
10
371.512195699165
20
159.818534416364
30
34.3502446599651
 70
     32
  0
VERTEX
  8
MY3DLAYER
10
371.759625161003
20
159.496078065101
30
34.3502299701664
 70
     32
  0
VERTEX
  8
MY3DLAYER
10
371.915165823421
20
159.120569690799
30
34.3502091359732
 70
     32
  0
VERTEX
  8
MY3DLAYER
10
371.968217847319
20
158.717599568609
30
34.3501835772013
 70
     32
  0
VERTEX
  8
MY3DLAYER
10
371.915165824942
20
158.314629446419
30
34.3501550356388
 70
     32
  0
VERTEX
  8
MY3DLAYER
10
371.759625163941
20
157.939121072117
30
34.3501254563461
 70
     32
  0
VERTEX
  8
MY3DLAYER
10
371.51219570332
20
157.616664720854
30
34.350096855103
 70
     32
  0
VERTEX
  8
MY3DLAYER
10
371.189739351925
20
157.369235260085
30
34.350071181037
 70
     32
  0
VERTEX
  8
MY3DLAYER
10
370.814230977219
20
157.213694598664
30
34.3500501837933
 70
     32
  0
VERTEX
  8
MY3DLAYER
10
370.41126085438
20
157.160642575625
30
34.3500352942993
 70
     32
  0
VERTEX
  8
MY3DLAYER
10
370.008290731342
20
157.213694598664
30
34.3500275272495
 70
     32
  0
VERTEX
  8
MY3DLAYER
10
369.632782356048
20
157.369235260085
30
34.3500274119554
 70
     32
  0
VERTEX
  8
MY3DLAYER
10
369.31032600372
20
157.616664720854
30
34.3500349562741
 70
     32
  0
VERTEX
  8
MY3DLAYER
10
369.062896541882
20
157.939121072117
30
34.3500496460729
 70
     32
  0
VERTEX
  8
MY3DLAYER
10
368.907355879464
20
158.314629446419
30
34.3500704802662
 70
     32
  0
VERTEX
  8
MY3DLAYER
10
368.854303855565
20
158.717599568609
30
34.3500960390381
 70
     32
  0
VERTEX
  8
MY3DLAYER
10
368.907355877943
20
159.120569690799
30
34.3501245806005
 70
     32
  0
VERTEX
  8
MY3DLAYER
10
369.062896538944
20
159.496078065101
30
34.3501541598933
 70
     32
  0
SEQEND
 0
ENDSEC
 0
EOF
