 0
SECTION
 2
ENTITIES
  0
POLYLINE
 8
Layer0
 66
     1
70
    8
 10
0.0
 20
 0.0
 30
0.0
  0
VERTEX
  8
MY3DLAYER
10
368.526722268392
20
125.978427388634
30
34.3495231552264
 70
     32
  0
VERTEX
  8
MY3DLAYER
10
358.145449164121
20
125.978427388634
30
34.3495231552263
 70
     32
  0
VERTEX
  8
MY3DLAYER
10
358.145449164121
20
120.978427388634
30
34.3495231552263
 70
     32
  0
VERTEX
  8
MY3DLAYER
10
363.145449164122
20
120.978427388634
30
34.3495231552263
 70
     32
  0
VERTEX
  8
MY3DLAYER
10
363.145449164122
20
103.969489930442
30
34.3495231552263
 70
     32
  0
VERTEX
  8
MY3DLAYER
10
358.145449164121
20
103.969489930442
30
34.3495231552263
 70
     32
  0
VERTEX
  8
MY3DLAYER
10
358.145449164121
20
98.9694899304416
30
34.3495231552263
 70
     32
  0
VERTEX
  8
MY3DLAYER
10
396.594457829263
20
98.9694899304416
30
34.3495231552263
 70
     32
  0
VERTEX
  8
MY3DLAYER
10
396.594457829263
20
103.969489930442
30
34.3495231552263
 70
     32
  0
VERTEX
  8
MY3DLAYER
10
391.594457829263
20
103.969489930442
30
34.3495231552263
 70
     32
  0
VERTEX
  8
MY3DLAYER
10
391.594457829263
20
120.978427388634
30
34.3495231552263
 70
     32
  0
VERTEX
  8
MY3DLAYER
10
396.594457829263
20
120.978427388634
30
34.3495231552263
 70
     32
  0
VERTEX
  8
MY3DLAYER
10
396.594457829263
20
125.978427388634
30
34.3495231552263
 70
     32
  0
VERTEX
  8
MY3DLAYER
10
386.292976196873
20
125.978427388634
30
34.3495231552263
 70
     32
  0
VERTEX
  8
MY3DLAYER
10
386.292976196873
20
122.036781566442
30
34.3495231552263
 70
     32
  0
VERTEX
  8
MY3DLAYER
10
387.421117877619
20
119.538651935813
30
34.3495231552263
 70
     32
  0
VERTEX
  8
MY3DLAYER
10
387.864255537223
20
116.83365945562
30
34.3495231552263
 70
     32
  0
VERTEX
  8
MY3DLAYER
10
387.592190076504
20
114.106144893176
30
34.3495231552263
 70
     32
  0
VERTEX
  8
MY3DLAYER
10
386.623462306998
20
111.541983858481
30
34.3495231552263
 70
     32
  0
VERTEX
  8
MY3DLAYER
10
385.024089425301
20
109.315919688572
30
34.3495231552263
 70
     32
  0
VERTEX
  8
MY3DLAYER
10
382.90306605021
20
107.579654977885
30
34.3495231552264
 70
     32
  0
VERTEX
  8
MY3DLAYER
10
380.404936419582
20
106.451513297139
30
34.3495231552264
 70
     32
  0
VERTEX
  8
MY3DLAYER
10
377.699943939389
20
106.008375637534
30
34.3495231552264
 70
     32
  0
VERTEX
  8
MY3DLAYER
10
374.972429376945
20
106.280441098254
30
34.3495231552264
 70
     32
  0
VERTEX
  8
MY3DLAYER
10
372.408268342249
20
107.249168867759
30
34.3495231552264
 70
     32
  0
VERTEX
  8
MY3DLAYER
10
370.182204172341
20
108.848541749457
30
34.3495231552264
 70
     32
  0
VERTEX
  8
MY3DLAYER
10
368.445939461653
20
110.969565124548
30
34.3495231552264
 70
     32
  0
VERTEX
  8
MY3DLAYER
10
367.317797780907
20
113.467694755176
30
34.3495231552264
 70
     32
  0
VERTEX
  8
MY3DLAYER
10
366.874660121302
20
116.172687235369
30
34.3495231552264
 70
     32
  0
VERTEX
  8
MY3DLAYER
10
367.146725582022
20
118.900201797813
30
34.3495231552264
 70
     32
  0
VERTEX
  8
MY3DLAYER
10
368.115453351527
20
121.464362832508
30
34.3495231552264
 70
     32
  0
VERTEX
  8
MY3DLAYER
10
368.526722268392
20
122.036781566442
30
34.3495231552264
 70
     32
  0
VERTEX
  8
MY3DLAYER
10
368.526722268392
20
125.978427388634
30
34.3495231552264
 70
     32
  0
SEQEND
 0
ENDSEC
 0
EOF
