 0
SECTION
 2
ENTITIES
  0
POLYLINE
 8
Layer0
 66
     1
70
    8
 10
0.0
 20
 0.0
 30
0.0
  0
VERTEX
  8
MY3DLAYER
10
300.335898566721
20
184.549979657092
30
34.3495231552263
 70
     32
  0
VERTEX
  8
MY3DLAYER
10
300.335898566721
20
166.895633387894
30
34.3495231552263
 70
     32
  0
VERTEX
  8
MY3DLAYER
10
306.027874566721
20
159.894951102887
30
34.3495231552264
 70
     32
  0
VERTEX
  8
MY3DLAYER
10
306.027874566721
20
125.359151657092
30
34.3495231552262
 70
     32
  0
VERTEX
  8
MY3DLAYER
10
349.360644999028
20
125.359151657092
30
34.3495231552262
 70
     32
  0
VERTEX
  8
MY3DLAYER
10
349.360644999028
20
130.359151657092
30
34.3495231552262
 70
     32
  0
VERTEX
  8
MY3DLAYER
10
344.360644999028
20
130.359151657092
30
34.3495231552262
 70
     32
  0
VERTEX
  8
MY3DLAYER
10
344.360644999028
20
131.359151657092
30
34.3495231552263
 70
     32
  0
VERTEX
  8
MY3DLAYER
10
339.911424803864
20
131.359151657092
30
34.3495231552263
 70
     32
  0
VERTEX
  8
MY3DLAYER
10
339.911424803864
20
130.182707884198
30
34.3495231552263
 70
     32
  0
VERTEX
  8
MY3DLAYER
10
337.511424803871
20
130.182707884198
30
34.3495231552263
 70
     32
  0
VERTEX
  8
MY3DLAYER
10
337.511424803871
20
131.359151657092
30
34.3495231552263
 70
     32
  0
VERTEX
  8
MY3DLAYER
10
334.908236999028
20
131.359151657092
30
34.3495231552263
 70
     32
  0
VERTEX
  8
MY3DLAYER
10
334.908236999028
20
134.359151657092
30
34.3495231552263
 70
     32
  0
VERTEX
  8
MY3DLAYER
10
337.511424803871
20
134.359151657092
30
34.3495231552263
 70
     32
  0
VERTEX
  8
MY3DLAYER
10
337.511424803871
20
135.682707884198
30
34.3495231552263
 70
     32
  0
VERTEX
  8
MY3DLAYER
10
339.911424803866
20
135.682707884198
30
34.3495231552263
 70
     32
  0
VERTEX
  8
MY3DLAYER
10
339.911424803866
20
134.359151657092
30
34.3495231552263
 70
     32
  0
VERTEX
  8
MY3DLAYER
10
344.360644999028
20
134.359151657092
30
34.3495231552263
 70
     32
  0
VERTEX
  8
MY3DLAYER
10
344.360644999028
20
135.359151657092
30
34.3495231552262
 70
     32
  0
VERTEX
  8
MY3DLAYER
10
349.360644999028
20
135.359151657092
30
34.3495231552262
 70
     32
  0
VERTEX
  8
MY3DLAYER
10
349.360644999028
20
140.359151657092
30
34.3495231552262
 70
     32
  0
VERTEX
  8
MY3DLAYER
10
344.360644999028
20
140.359151657092
30
34.3495231552262
 70
     32
  0
VERTEX
  8
MY3DLAYER
10
342.098177276576
20
141.953876688211
30
34.3495231552262
 70
     32
  0
VERTEX
  8
MY3DLAYER
10
340.1458907246
20
143.916142047174
30
34.3495231552263
 70
     32
  0
VERTEX
  8
MY3DLAYER
10
338.562721114457
20
146.186710721655
30
34.3495231552263
 70
     32
  0
VERTEX
  8
MY3DLAYER
10
337.396461287865
20
148.697038615954
30
34.3495231552263
 70
     32
  0
VERTEX
  8
MY3DLAYER
10
336.682318383047
20
151.371343765243
30
34.3495231552263
 70
     32
  0
VERTEX
  8
MY3DLAYER
10
336.441850999028
20
154.128894047148
30
34.3495231552263
 70
     32
  0
VERTEX
  8
MY3DLAYER
10
336.682318383047
20
156.886444329054
30
34.3495231552263
 70
     32
  0
VERTEX
  8
MY3DLAYER
10
337.396461287865
20
159.560749478343
30
34.3495231552263
 70
     32
  0
VERTEX
  8
MY3DLAYER
10
338.562721114457
20
162.071077372641
30
34.3495231552263
 70
     32
  0
VERTEX
  8
MY3DLAYER
10
340.1458907246
20
164.341646047122
30
34.3495231552263
 70
     32
  0
VERTEX
  8
MY3DLAYER
10
342.098177276576
20
166.303911406085
30
34.3495231552263
 70
     32
  0
VERTEX
  8
MY3DLAYER
10
344.360644999028
20
167.898636437205
30
34.3495231552263
 70
     32
  0
VERTEX
  8
MY3DLAYER
10
349.360644999028
20
167.898636437205
30
34.3495231552263
 70
     32
  0
VERTEX
  8
MY3DLAYER
10
349.360644999028
20
173.685304075539
30
34.3495231552263
 70
     32
  0
VERTEX
  8
MY3DLAYER
10
344.360644999028
20
173.685304075539
30
34.3495231552263
 70
     32
  0
VERTEX
  8
MY3DLAYER
10
344.360644999028
20
175.117641866316
30
34.3495231552264
 70
     32
  0
VERTEX
  8
MY3DLAYER
10
339.911424803865
20
175.117641866316
30
34.3495231552264
 70
     32
  0
VERTEX
  8
MY3DLAYER
10
339.911424803865
20
173.816530605749
30
34.3495231552264
 70
     32
  0
VERTEX
  8
MY3DLAYER
10
337.511424803871
20
173.816530605749
30
34.3495231552264
 70
     32
  0
VERTEX
  8
MY3DLAYER
10
337.511424803871
20
175.117641866316
30
34.3495231552264
 70
     32
  0
VERTEX
  8
MY3DLAYER
10
334.908236999028
20
175.117641866316
30
34.3495231552264
 70
     32
  0
VERTEX
  8
MY3DLAYER
10
334.908236999028
20
178.117641866316
30
34.3495231552264
 70
     32
  0
VERTEX
  8
MY3DLAYER
10
337.511424803871
20
178.117641866316
30
34.3495231552264
 70
     32
  0
VERTEX
  8
MY3DLAYER
10
337.511424803871
20
179.316530605749
30
34.3495231552264
 70
     32
  0
VERTEX
  8
MY3DLAYER
10
339.911424803865
20
179.316530605749
30
34.3495231552264
 70
     32
  0
VERTEX
  8
MY3DLAYER
10
339.911424803865
20
178.117641866316
30
34.3495231552264
 70
     32
  0
VERTEX
  8
MY3DLAYER
10
344.360644999028
20
178.117641866316
30
34.3495231552264
 70
     32
  0
VERTEX
  8
MY3DLAYER
10
344.360644999028
20
179.549979657092
30
34.3495231552263
 70
     32
  0
VERTEX
  8
MY3DLAYER
10
349.360644999028
20
179.549979657092
30
34.3495231552263
 70
     32
  0
VERTEX
  8
MY3DLAYER
10
349.360644999028
20
184.549979657092
30
34.3495231552263
 70
     32
  0
VERTEX
  8
MY3DLAYER
10
300.335898566721
20
184.549979657092
30
34.3495231552263
 70
     32
  0
SEQEND
  0
POLYLINE
 8
Layer0
 66
     1
70
    8
 10
0.0
 20
 0.0
 30
0.0
  0
VERTEX
  8
MY3DLAYER
10
319.471071831518
20
131.261252163816
30
34.3495231552262
 70
     32
  0
VERTEX
  8
MY3DLAYER
10
319.232693897621
20
130.950591992036
30
34.3495231552262
 70
     32
  0
VERTEX
  8
MY3DLAYER
10
318.922033725841
20
130.71221405814
30
34.3495231552262
 70
     32
  0
VERTEX
  8
MY3DLAYER
10
318.560262293495
20
130.562363424383
30
34.3495231552262
 70
     32
  0
VERTEX
  8
MY3DLAYER
10
318.172033725841
20
130.511252163816
30
34.3495231552262
 70
     32
  0
VERTEX
  8
MY3DLAYER
10
317.783805158188
20
130.562363424383
30
34.3495231552262
 70
     32
  0
VERTEX
  8
MY3DLAYER
10
317.422033725841
20
130.71221405814
30
34.3495231552262
 70
     32
  0
VERTEX
  8
MY3DLAYER
10
317.111373554062
20
130.950591992036
30
34.3495231552262
 70
     32
  0
VERTEX
  8
MY3DLAYER
10
316.872995620165
20
131.261252163816
30
34.3495231552262
 70
     32
  0
VERTEX
  8
MY3DLAYER
10
316.723144986408
20
131.623023596162
30
34.3495231552262
 70
     32
  0
VERTEX
  8
MY3DLAYER
10
316.672033725841
20
132.011252163816
30
34.3495231552262
 70
     32
  0
VERTEX
  8
MY3DLAYER
10
316.723144986408
20
132.39948073147
30
34.3495231552262
 70
     32
  0
VERTEX
  8
MY3DLAYER
10
316.872995620165
20
132.761252163816
30
34.3495231552262
 70
     32
  0
VERTEX
  8
MY3DLAYER
10
317.111373554062
20
133.071912335596
30
34.3495231552262
 70
     32
  0
VERTEX
  8
MY3DLAYER
10
317.422033725841
20
133.310290269493
30
34.3495231552262
 70
     32
  0
VERTEX
  8
MY3DLAYER
10
317.783805158188
20
133.46014090325
30
34.3495231552262
 70
     32
  0
VERTEX
  8
MY3DLAYER
10
318.172033725841
20
133.511252163816
30
34.3495231552262
 70
     32
  0
VERTEX
  8
MY3DLAYER
10
318.560262293495
20
133.46014090325
30
34.3495231552262
 70
     32
  0
VERTEX
  8
MY3DLAYER
10
318.922033725841
20
133.310290269493
30
34.3495231552262
 70
     32
  0
VERTEX
  8
MY3DLAYER
10
319.232693897621
20
133.071912335596
30
34.3495231552262
 70
     32
  0
VERTEX
  8
MY3DLAYER
10
319.471071831518
20
132.761252163816
30
34.3495231552262
 70
     32
  0
VERTEX
  8
MY3DLAYER
10
319.620922465275
20
132.39948073147
30
34.3495231552262
 70
     32
  0
VERTEX
  8
MY3DLAYER
10
319.672033725841
20
132.011252163816
30
34.3495231552262
 70
     32
  0
VERTEX
  8
MY3DLAYER
10
319.620922465275
20
131.623023596162
30
34.3495231552262
 70
     32
  0
VERTEX
  8
MY3DLAYER
10
319.471071831518
20
131.261252163816
30
34.3495231552262
 70
     32
  0
SEQEND
  0
POLYLINE
 8
Layer0
 66
     1
70
    8
 10
0.0
 20
 0.0
 30
0.0
  0
VERTEX
  8
MY3DLAYER
10
317.111373554062
20
147.696607828872
30
34.3495231552263
 70
     32
  0
VERTEX
  8
MY3DLAYER
10
317.422033725841
20
147.934985762769
30
34.3495231552263
 70
     32
  0
VERTEX
  8
MY3DLAYER
10
317.783805158188
20
148.084836396526
30
34.3495231552263
 70
     32
  0
VERTEX
  8
MY3DLAYER
10
318.172033725841
20
148.135947657092
30
34.3495231552263
 70
     32
  0
VERTEX
  8
MY3DLAYER
10
318.560262293495
20
148.084836396526
30
34.3495231552263
 70
     32
  0
VERTEX
  8
MY3DLAYER
10
318.922033725841
20
147.934985762769
30
34.3495231552263
 70
     32
  0
VERTEX
  8
MY3DLAYER
10
319.232693897621
20
147.696607828872
30
34.3495231552263
 70
     32
  0
VERTEX
  8
MY3DLAYER
10
319.471071831518
20
147.385947657092
30
34.3495231552263
 70
     32
  0
VERTEX
  8
MY3DLAYER
10
319.620922465275
20
147.024176224746
30
34.3495231552263
 70
     32
  0
VERTEX
  8
MY3DLAYER
10
319.672033725841
20
146.635947657092
30
34.3495231552263
 70
     32
  0
VERTEX
  8
MY3DLAYER
10
319.620922465275
20
146.247719089438
30
34.3495231552263
 70
     32
  0
VERTEX
  8
MY3DLAYER
10
319.471071831518
20
145.885947657092
30
34.3495231552263
 70
     32
  0
VERTEX
  8
MY3DLAYER
10
319.232693897621
20
145.575287485312
30
34.3495231552263
 70
     32
  0
VERTEX
  8
MY3DLAYER
10
318.922033725841
20
145.336909551415
30
34.3495231552263
 70
     32
  0
VERTEX
  8
MY3DLAYER
10
318.560262293495
20
145.187058917658
30
34.3495231552263
 70
     32
  0
VERTEX
  8
MY3DLAYER
10
318.172033725841
20
145.135947657092
30
34.3495231552263
 70
     32
  0
VERTEX
  8
MY3DLAYER
10
317.783805158188
20
145.187058917658
30
34.3495231552263
 70
     32
  0
VERTEX
  8
MY3DLAYER
10
317.422033725841
20
145.336909551415
30
34.3495231552263
 70
     32
  0
VERTEX
  8
MY3DLAYER
10
317.111373554062
20
145.575287485312
30
34.3495231552263
 70
     32
  0
VERTEX
  8
MY3DLAYER
10
316.872995620165
20
145.885947657092
30
34.3495231552263
 70
     32
  0
VERTEX
  8
MY3DLAYER
10
316.723144986408
20
146.247719089438
30
34.3495231552263
 70
     32
  0
VERTEX
  8
MY3DLAYER
10
316.672033725841
20
146.635947657092
30
34.3495231552263
 70
     32
  0
VERTEX
  8
MY3DLAYER
10
316.723144986408
20
147.024176224746
30
34.3495231552263
 70
     32
  0
VERTEX
  8
MY3DLAYER
10
316.872995620165
20
147.385947657092
30
34.3495231552263
 70
     32
  0
VERTEX
  8
MY3DLAYER
10
317.111373554062
20
147.696607828872
30
34.3495231552263
 70
     32
  0
SEQEND
  0
POLYLINE
 8
Layer0
 66
     1
70
    8
 10
0.0
 20
 0.0
 30
0.0
  0
VERTEX
  8
MY3DLAYER
10
319.620922465275
20
169.514742604784
30
34.3495231552263
 70
     32
  0
VERTEX
  8
MY3DLAYER
10
319.471071831518
20
169.152971172437
30
34.3495231552263
 70
     32
  0
VERTEX
  8
MY3DLAYER
10
319.232693897621
20
168.842311000657
30
34.3495231552263
 70
     32
  0
VERTEX
  8
MY3DLAYER
10
318.922033725841
20
168.603933066761
30
34.3495231552263
 70
     32
  0
VERTEX
  8
MY3DLAYER
10
318.560262293495
20
168.454082433004
30
34.3495231552263
 70
     32
  0
VERTEX
  8
MY3DLAYER
10
318.172033725841
20
168.402971172437
30
34.3495231552263
 70
     32
  0
VERTEX
  8
MY3DLAYER
10
317.783805158188
20
168.454082433004
30
34.3495231552263
 70
     32
  0
VERTEX
  8
MY3DLAYER
10
317.422033725841
20
168.603933066761
30
34.3495231552263
 70
     32
  0
VERTEX
  8
MY3DLAYER
10
317.111373554062
20
168.842311000657
30
34.3495231552263
 70
     32
  0
VERTEX
  8
MY3DLAYER
10
316.872995620165
20
169.152971172437
30
34.3495231552263
 70
     32
  0
VERTEX
  8
MY3DLAYER
10
316.723144986408
20
169.514742604784
30
34.3495231552263
 70
     32
  0
VERTEX
  8
MY3DLAYER
10
316.672033725841
20
169.902971172437
30
34.3495231552263
 70
     32
  0
VERTEX
  8
MY3DLAYER
10
316.723144986408
20
170.291199740091
30
34.3495231552263
 70
     32
  0
VERTEX
  8
MY3DLAYER
10
316.872995620165
20
170.652971172437
30
34.3495231552263
 70
     32
  0
VERTEX
  8
MY3DLAYER
10
317.111373554062
20
170.963631344217
30
34.3495231552263
 70
     32
  0
VERTEX
  8
MY3DLAYER
10
317.422033725841
20
171.202009278114
30
34.3495231552263
 70
     32
  0
VERTEX
  8
MY3DLAYER
10
317.783805158188
20
171.351859911871
30
34.3495231552263
 70
     32
  0
VERTEX
  8
MY3DLAYER
10
318.172033725841
20
171.402971172437
30
34.3495231552263
 70
     32
  0
VERTEX
  8
MY3DLAYER
10
318.560262293495
20
171.351859911871
30
34.3495231552263
 70
     32
  0
VERTEX
  8
MY3DLAYER
10
318.922033725841
20
171.202009278114
30
34.3495231552263
 70
     32
  0
VERTEX
  8
MY3DLAYER
10
319.232693897621
20
170.963631344217
30
34.3495231552263
 70
     32
  0
VERTEX
  8
MY3DLAYER
10
319.471071831518
20
170.652971172437
30
34.3495231552263
 70
     32
  0
VERTEX
  8
MY3DLAYER
10
319.620922465275
20
170.291199740091
30
34.3495231552263
 70
     32
  0
VERTEX
  8
MY3DLAYER
10
319.672033725842
20
169.902971172437
30
34.3495231552263
 70
     32
  0
VERTEX
  8
MY3DLAYER
10
319.620922465275
20
169.514742604784
30
34.3495231552263
 70
     32
  0
SEQEND
  0
POLYLINE
 8
Layer0
 66
     1
70
    8
 10
0.0
 20
 0.0
 30
0.0
  0
VERTEX
  8
MY3DLAYER
10
313.507529566721
20
143.875976587542
30
34.3495231552263
 70
     32
  0
VERTEX
  8
MY3DLAYER
10
308.507529566721
20
143.875976587542
30
34.3495231552263
 70
     32
  0
VERTEX
  8
MY3DLAYER
10
308.507529566721
20
148.875976587542
30
34.3495231552263
 70
     32
  0
VERTEX
  8
MY3DLAYER
10
313.507529566721
20
148.875976587542
30
34.3495231552263
 70
     32
  0
VERTEX
  8
MY3DLAYER
10
313.507529566721
20
143.875976587542
30
34.3495231552263
 70
     32
  0
SEQEND
  0
POLYLINE
 8
Layer0
 66
     1
70
    8
 10
0.0
 20
 0.0
 30
0.0
  0
VERTEX
  8
MY3DLAYER
10
308.507529566721
20
129.466700657092
30
34.3495231552262
 70
     32
  0
VERTEX
  8
MY3DLAYER
10
308.507529566721
20
134.466700657092
30
34.3495231552262
 70
     32
  0
VERTEX
  8
MY3DLAYER
10
313.507529566721
20
134.466700657092
30
34.3495231552262
 70
     32
  0
VERTEX
  8
MY3DLAYER
10
313.507529566721
20
129.466700657092
30
34.3495231552262
 70
     32
  0
VERTEX
  8
MY3DLAYER
10
308.507529566721
20
129.466700657092
30
34.3495231552262
 70
     32
  0
SEQEND
  0
POLYLINE
 8
Layer0
 66
     1
70
    8
 10
0.0
 20
 0.0
 30
0.0
  0
VERTEX
  8
MY3DLAYER
10
313.507529566721
20
167.143000102887
30
34.3495231552262
 70
     32
  0
VERTEX
  8
MY3DLAYER
10
308.507529566721
20
167.143000102887
30
34.3495231552262
 70
     32
  0
VERTEX
  8
MY3DLAYER
10
308.507529566721
20
172.143000102887
30
34.3495231552262
 70
     32
  0
VERTEX
  8
MY3DLAYER
10
313.507529566721
20
172.143000102887
30
34.3495231552262
 70
     32
  0
VERTEX
  8
MY3DLAYER
10
313.507529566721
20
167.143000102887
30
34.3495231552262
 70
     32
  0
SEQEND
  0
POLYLINE
 8
Layer0
 66
     1
70
    8
 10
0.0
 20
 0.0
 30
0.0
  0
VERTEX
  8
MY3DLAYER
10
329.335823566721
20
129.466700657092
30
34.3495231552262
 70
     32
  0
VERTEX
  8
MY3DLAYER
10
324.335823566721
20
129.466700657092
30
34.3495231552262
 70
     32
  0
VERTEX
  8
MY3DLAYER
10
324.335823566721
20
134.466700657092
30
34.3495231552262
 70
     32
  0
VERTEX
  8
MY3DLAYER
10
329.335823566721
20
134.466700657092
30
34.3495231552262
 70
     32
  0
VERTEX
  8
MY3DLAYER
10
329.335823566721
20
129.466700657092
30
34.3495231552262
 70
     32
  0
SEQEND
  0
POLYLINE
 8
Layer0
 66
     1
70
    8
 10
0.0
 20
 0.0
 30
0.0
  0
VERTEX
  8
MY3DLAYER
10
324.335823566721
20
172.143000102887
30
34.3495231552262
 70
     32
  0
VERTEX
  8
MY3DLAYER
10
329.335823566721
20
172.143000102887
30
34.3495231552262
 70
     32
  0
VERTEX
  8
MY3DLAYER
10
329.335823566721
20
167.143000102887
30
34.3495231552262
 70
     32
  0
VERTEX
  8
MY3DLAYER
10
324.335823566721
20
167.143000102887
30
34.3495231552262
 70
     32
  0
VERTEX
  8
MY3DLAYER
10
324.335823566721
20
172.143000102887
30
34.3495231552262
 70
     32
  0
SEQEND
  0
POLYLINE
 8
Layer0
 66
     1
70
    8
 10
0.0
 20
 0.0
 30
0.0
  0
VERTEX
  8
MY3DLAYER
10
324.335823566721
20
143.875976587542
30
34.3495231552263
 70
     32
  0
VERTEX
  8
MY3DLAYER
10
324.335823566721
20
148.875976587542
30
34.3495231552263
 70
     32
  0
VERTEX
  8
MY3DLAYER
10
329.335823566721
20
148.875976587542
30
34.3495231552263
 70
     32
  0
VERTEX
  8
MY3DLAYER
10
329.335823566721
20
143.875976587542
30
34.3495231552263
 70
     32
  0
VERTEX
  8
MY3DLAYER
10
324.335823566721
20
143.875976587542
30
34.3495231552263
 70
     32
  0
SEQEND
  0
POLYLINE
 8
Layer0
 66
     1
70
    8
 10
0.0
 20
 0.0
 30
0.0
  0
VERTEX
  8
MY3DLAYER
10
333.036812024914
20
172.856092102887
30
34.3495231552262
 70
     32
  0
VERTEX
  8
MY3DLAYER
10
328.036812024914
20
172.856092102887
30
34.3495231552262
 70
     32
  0
VERTEX
  8
MY3DLAYER
10
328.036812024914
20
177.856092102887
30
34.3495231552262
 70
     32
  0
VERTEX
  8
MY3DLAYER
10
333.036812024914
20
177.856092102887
30
34.3495231552262
 70
     32
  0
VERTEX
  8
MY3DLAYER
10
333.036812024914
20
172.856092102887
30
34.3495231552262
 70
     32
  0
SEQEND
  0
POLYLINE
 8
Layer0
 66
     1
70
    8
 10
0.0
 20
 0.0
 30
0.0
  0
VERTEX
  8
MY3DLAYER
10
318.59237739376
20
182.546713693791
30
34.3495231552264
 70
     32
  0
VERTEX
  8
MY3DLAYER
10
318.954148826106
20
182.396863060034
30
34.3495231552264
 70
     32
  0
VERTEX
  8
MY3DLAYER
10
319.264808997886
20
182.158485126137
30
34.3495231552264
 70
     32
  0
VERTEX
  8
MY3DLAYER
10
319.503186931783
20
181.847824954357
30
34.3495231552264
 70
     32
  0
VERTEX
  8
MY3DLAYER
10
319.65303756554
20
181.486053522011
30
34.3495231552264
 70
     32
  0
VERTEX
  8
MY3DLAYER
10
319.704148826106
20
181.097824954357
30
34.3495231552264
 70
     32
  0
VERTEX
  8
MY3DLAYER
10
319.65303756554
20
180.709596386703
30
34.3495231552264
 70
     32
  0
VERTEX
  8
MY3DLAYER
10
319.503186931783
20
180.347824954357
30
34.3495231552264
 70
     32
  0
VERTEX
  8
MY3DLAYER
10
319.264808997886
20
180.037164782577
30
34.3495231552264
 70
     32
  0
VERTEX
  8
MY3DLAYER
10
318.954148826106
20
179.79878684868
30
34.3495231552264
 70
     32
  0
VERTEX
  8
MY3DLAYER
10
318.59237739376
20
179.648936214923
30
34.3495231552264
 70
     32
  0
VERTEX
  8
MY3DLAYER
10
318.204148826106
20
179.597824954357
30
34.3495231552264
 70
     32
  0
VERTEX
  8
MY3DLAYER
10
317.815920258453
20
179.648936214923
30
34.3495231552264
 70
     32
  0
VERTEX
  8
MY3DLAYER
10
317.454148826106
20
179.79878684868
30
34.3495231552264
 70
     32
  0
VERTEX
  8
MY3DLAYER
10
317.143488654327
20
180.037164782577
30
34.3495231552264
 70
     32
  0
VERTEX
  8
MY3DLAYER
10
316.90511072043
20
180.347824954357
30
34.3495231552264
 70
     32
  0
VERTEX
  8
MY3DLAYER
10
316.755260086673
20
180.709596386703
30
34.3495231552264
 70
     32
  0
VERTEX
  8
MY3DLAYER
10
316.704148826106
20
181.097824954357
30
34.3495231552264
 70
     32
  0
VERTEX
  8
MY3DLAYER
10
316.755260086673
20
181.486053522011
30
34.3495231552264
 70
     32
  0
VERTEX
  8
MY3DLAYER
10
316.90511072043
20
181.847824954357
30
34.3495231552264
 70
     32
  0
VERTEX
  8
MY3DLAYER
10
317.143488654327
20
182.158485126137
30
34.3495231552264
 70
     32
  0
VERTEX
  8
MY3DLAYER
10
317.454148826106
20
182.396863060034
30
34.3495231552264
 70
     32
  0
VERTEX
  8
MY3DLAYER
10
317.815920258453
20
182.546713693791
30
34.3495231552264
 70
     32
  0
VERTEX
  8
MY3DLAYER
10
318.204148826106
20
182.597824954357
30
34.3495231552264
 70
     32
  0
VERTEX
  8
MY3DLAYER
10
318.59237739376
20
182.546713693791
30
34.3495231552264
 70
     32
  0
SEQEND
  0
POLYLINE
 8
Layer0
 66
     1
70
    8
 10
0.0
 20
 0.0
 30
0.0
  0
VERTEX
  8
MY3DLAYER
10
308.507529566721
20
183.552605102887
30
34.3495231552262
 70
     32
  0
VERTEX
  8
MY3DLAYER
10
313.507529566721
20
183.552605102887
30
34.3495231552262
 70
     32
  0
VERTEX
  8
MY3DLAYER
10
313.507529566721
20
178.552605102887
30
34.3495231552262
 70
     32
  0
VERTEX
  8
MY3DLAYER
10
308.507529566721
20
178.552605102887
30
34.3495231552262
 70
     32
  0
VERTEX
  8
MY3DLAYER
10
308.507529566721
20
183.552605102887
30
34.3495231552262
 70
     32
  0
SEQEND
  0
POLYLINE
 8
Layer0
 66
     1
70
    8
 10
0.0
 20
 0.0
 30
0.0
  0
VERTEX
  8
MY3DLAYER
10
324.335823566721
20
183.552605102887
30
34.3495231552262
 70
     32
  0
VERTEX
  8
MY3DLAYER
10
329.335823566721
20
183.552605102887
30
34.3495231552262
 70
     32
  0
VERTEX
  8
MY3DLAYER
10
329.335823566721
20
178.552605102887
30
34.3495231552262
 70
     32
  0
VERTEX
  8
MY3DLAYER
10
324.335823566721
20
178.552605102887
30
34.3495231552262
 70
     32
  0
VERTEX
  8
MY3DLAYER
10
324.335823566721
20
183.552605102887
30
34.3495231552262
 70
     32
  0
SEQEND
  0
POLYLINE
 8
Layer0
 66
     1
70
    8
 10
0.0
 20
 0.0
 30
0.0
  0
VERTEX
  8
MY3DLAYER
10
311.027874566721
20
172.856092102887
30
34.3495231552264
 70
     32
  0
VERTEX
  8
MY3DLAYER
10
306.027874566721
20
172.856092102887
30
34.3495231552264
 70
     32
  0
VERTEX
  8
MY3DLAYER
10
306.027874566721
20
177.856092102887
30
34.3495231552264
 70
     32
  0
VERTEX
  8
MY3DLAYER
10
311.027874566721
20
177.856092102887
30
34.3495231552264
 70
     32
  0
VERTEX
  8
MY3DLAYER
10
311.027874566721
20
172.856092102887
30
34.3495231552264
 70
     32
  0
SEQEND
 0
ENDSEC
 0
EOF
