 0
SECTION
 2
ENTITIES
  0
POLYLINE
 8
Layer0
 66
     1
70
    8
 10
0.0
 20
 0.0
 30
0.0
  0
VERTEX
  8
MY3DLAYER
10
6.35
20
-23.8054019433273
30
33.2558800260242
 70
     32
  0
VERTEX
  8
MY3DLAYER
10
20.5490316571237
20
-23.8054019433273
30
33.2558800260242
 70
     32
  0
VERTEX
  8
MY3DLAYER
10
20.5490316571237
20
26.9945980566728
30
33.2558800260242
 70
     32
  0
VERTEX
  8
MY3DLAYER
10
6.35
20
26.9945980566728
30
33.2558800260242
 70
     32
  0
VERTEX
  8
MY3DLAYER
10
6.35
20
-23.8054019433273
30
33.2558800260242
 70
     32
  0
SEQEND
  0
POLYLINE
 8
Layer0
 66
     1
70
    8
 10
0.0
 20
 0.0
 30
0.0
  0
VERTEX
  8
MY3DLAYER
10
13.8603910626621
20
19.1111908074389
30
33.2558800260242
 70
     32
  0
VERTEX
  8
MY3DLAYER
10
13.4495158285618
20
19.0570980566728
30
33.2558800260242
 70
     32
  0
VERTEX
  8
MY3DLAYER
10
13.0386405944616
20
19.1111908074389
30
33.2558800260242
 70
     32
  0
VERTEX
  8
MY3DLAYER
10
12.6557658285618
20
19.269782728165
30
33.2558800260242
 70
     32
  0
VERTEX
  8
MY3DLAYER
10
12.3269838134282
20
19.5220660415391
30
33.2558800260242
 70
     32
  0
VERTEX
  8
MY3DLAYER
10
12.074700500054
20
19.8508480566727
30
33.2558800260242
 70
     32
  0
VERTEX
  8
MY3DLAYER
10
11.9161085793279
20
20.2337228225725
30
33.2558800260242
 70
     32
  0
VERTEX
  8
MY3DLAYER
10
11.8620158285618
20
20.6445980566727
30
33.2558800260242
 70
     32
  0
VERTEX
  8
MY3DLAYER
10
11.9161085793279
20
21.055473290773
30
33.2558800260242
 70
     32
  0
VERTEX
  8
MY3DLAYER
10
12.074700500054
20
21.4383480566728
30
33.2558800260242
 70
     32
  0
VERTEX
  8
MY3DLAYER
10
12.3269838134282
20
21.7671300718064
30
33.2558800260242
 70
     32
  0
VERTEX
  8
MY3DLAYER
10
12.6557658285618
20
22.0194133851805
30
33.2558800260242
 70
     32
  0
VERTEX
  8
MY3DLAYER
10
13.0386405944616
20
22.1780053059066
30
33.2558800260242
 70
     32
  0
VERTEX
  8
MY3DLAYER
10
13.4495158285618
20
22.2320980566728
30
33.2558800260242
 70
     32
  0
VERTEX
  8
MY3DLAYER
10
13.8603910626621
20
22.1780053059066
30
33.2558800260242
 70
     32
  0
VERTEX
  8
MY3DLAYER
10
14.2432658285618
20
22.0194133851805
30
33.2558800260242
 70
     32
  0
VERTEX
  8
MY3DLAYER
10
14.5720478436955
20
21.7671300718064
30
33.2558800260242
 70
     32
  0
VERTEX
  8
MY3DLAYER
10
14.8243311570696
20
21.4383480566728
30
33.2558800260242
 70
     32
  0
VERTEX
  8
MY3DLAYER
10
14.9829230777957
20
21.055473290773
30
33.2558800260242
 70
     32
  0
VERTEX
  8
MY3DLAYER
10
15.0370158285618
20
20.6445980566727
30
33.2558800260242
 70
     32
  0
VERTEX
  8
MY3DLAYER
10
14.9829230777957
20
20.2337228225725
30
33.2558800260242
 70
     32
  0
VERTEX
  8
MY3DLAYER
10
14.8243311570696
20
19.8508480566727
30
33.2558800260242
 70
     32
  0
VERTEX
  8
MY3DLAYER
10
14.5720478436955
20
19.5220660415391
30
33.2558800260242
 70
     32
  0
VERTEX
  8
MY3DLAYER
10
14.2432658285618
20
19.269782728165
30
33.2558800260242
 70
     32
  0
VERTEX
  8
MY3DLAYER
10
13.8603910626621
20
19.1111908074389
30
33.2558800260242
 70
     32
  0
SEQEND
  0
POLYLINE
 8
Layer0
 66
     1
70
    8
 10
0.0
 20
 0.0
 30
0.0
  0
VERTEX
  8
MY3DLAYER
10
13.8603910626621
20
-18.9888091925612
30
33.2558800260242
 70
     32
  0
VERTEX
  8
MY3DLAYER
10
13.4495158285618
20
-19.0429019433272
30
33.2558800260242
 70
     32
  0
VERTEX
  8
MY3DLAYER
10
13.0386405944616
20
-18.9888091925612
30
33.2558800260242
 70
     32
  0
VERTEX
  8
MY3DLAYER
10
12.6557658285618
20
-18.830217271835
30
33.2558800260242
 70
     32
  0
VERTEX
  8
MY3DLAYER
10
12.3269838134282
20
-18.5779339584609
30
33.2558800260242
 70
     32
  0
VERTEX
  8
MY3DLAYER
10
12.074700500054
20
-18.2491519433273
30
33.2558800260242
 70
     32
  0
VERTEX
  8
MY3DLAYER
10
11.9161085793279
20
-17.8662771774275
30
33.2558800260242
 70
     32
  0
VERTEX
  8
MY3DLAYER
10
11.8620158285618
20
-17.4554019433273
30
33.2558800260242
 70
     32
  0
VERTEX
  8
MY3DLAYER
10
11.9161085793279
20
-17.044526709227
30
33.2558800260242
 70
     32
  0
VERTEX
  8
MY3DLAYER
10
12.074700500054
20
-16.6616519433272
30
33.2558800260242
 70
     32
  0
VERTEX
  8
MY3DLAYER
10
12.3269838134282
20
-16.3328699281936
30
33.2558800260242
 70
     32
  0
VERTEX
  8
MY3DLAYER
10
12.6557658285618
20
-16.0805866148195
30
33.2558800260242
 70
     32
  0
VERTEX
  8
MY3DLAYER
10
13.0386405944616
20
-15.9219946940934
30
33.2558800260242
 70
     32
  0
VERTEX
  8
MY3DLAYER
10
13.4495158285618
20
-15.8679019433272
30
33.2558800260242
 70
     32
  0
VERTEX
  8
MY3DLAYER
10
13.8603910626621
20
-15.9219946940934
30
33.2558800260242
 70
     32
  0
VERTEX
  8
MY3DLAYER
10
14.2432658285618
20
-16.0805866148194
30
33.2558800260242
 70
     32
  0
VERTEX
  8
MY3DLAYER
10
14.5720478436955
20
-16.3328699281936
30
33.2558800260242
 70
     32
  0
VERTEX
  8
MY3DLAYER
10
14.8243311570696
20
-16.6616519433272
30
33.2558800260242
 70
     32
  0
VERTEX
  8
MY3DLAYER
10
14.9829230777957
20
-17.044526709227
30
33.2558800260242
 70
     32
  0
VERTEX
  8
MY3DLAYER
10
15.0370158285618
20
-17.4554019433273
30
33.2558800260242
 70
     32
  0
VERTEX
  8
MY3DLAYER
10
14.9829230777957
20
-17.8662771774275
30
33.2558800260242
 70
     32
  0
VERTEX
  8
MY3DLAYER
10
14.8243311570696
20
-18.2491519433273
30
33.2558800260242
 70
     32
  0
VERTEX
  8
MY3DLAYER
10
14.5720478436955
20
-18.5779339584609
30
33.2558800260242
 70
     32
  0
VERTEX
  8
MY3DLAYER
10
14.2432658285618
20
-18.830217271835
30
33.2558800260242
 70
     32
  0
VERTEX
  8
MY3DLAYER
10
13.8603910626621
20
-18.9888091925612
30
33.2558800260242
 70
     32
  0
SEQEND
 0
ENDSEC
 0
EOF
