999
Inkscape export via Big Blue Saws DXF Export" (http://www.bigbluesaw.com/saw/big-blue-saw-blog/general-updates/big-blue-saws-dxf-export-for-inkscape.html)
  0
SECTION
  2
HEADER
  9
$ACADVER
  1
AC1014
  9
$HANDSEED
  5
FFFF
  0
$INSUNITS
 70
 1
 9
ENDSEC
  0
SECTION
  2
TABLES
  0
TABLE
  2
VPORT
  5
8
330
0
100
AcDbSymbolTable
 70
     4
  0
VPORT
  5
2E
330
8
100
AcDbSymbolTableRecord
100
AcDbViewportTableRecord
  2
*ACTIVE
 70
     0
 10
0.0
 20
0.0
 11
1.0
 21
1.0
 12
4.25
 22
5.5
 13
0.0
 23
0.0
 14
10.0
 24
10.0
 15
10.0
 25
10.0
 16
0.0
 26
0.0
 36
1.0
 17
0.0
 27
0.0
 37
0.0
 40
11
 41
1.24
 42
50.0
 43
0.0
 44
0.0
 50
0.0
 51
0.0
 71
     0
 72
   100
 73
     1
 74
     3
 75
     0
 76
     0
 77
     0
 78
     0
  0
ENDTAB
  0
TABLE
  2
LTYPE
  5
5
330
0
100
AcDbSymbolTable
 70
     1
  0
LTYPE
  5
14
330
5
100
AcDbSymbolTableRecord
100
AcDbLinetypeTableRecord
  2
BYBLOCK
 70
     0
  3

 72
    65
 73
     0
 40
0.0
  0
LTYPE
  5
15
330
5
100
AcDbSymbolTableRecord
100
AcDbLinetypeTableRecord
  2
BYLAYER
 70
     0
  3

 72
    65
 73
     0
 40
0.0
  0
LTYPE
  5
16
330
5
100
AcDbSymbolTableRecord
100
AcDbLinetypeTableRecord
  2
CONTINUOUS
 70
     0
  3
Solid line
 72
    65
 73
     0
 40
0.0
  0
ENDTAB
  0
TABLE
  2
STYLE
  5
3
330
0
100
AcDbSymbolTable
 70
     1
  0
STYLE
  5
11
330
3
100
AcDbSymbolTableRecord
100
AcDbTextStyleTableRecord
  2
STANDARD
 70
     0
 40
0.0
 41
1.0
 50
0.0
 71
     0
 42
2.5
  3
txt
  4

  0
ENDTAB
  0
TABLE
  2
VIEW
  5
6
330
0
100
AcDbSymbolTable
 70
     0
  0
ENDTAB
  0
TABLE
  2
UCS
  5
7
330
0
100
AcDbSymbolTable
 70
     0
  0
ENDTAB
  0
TABLE
  2
APPID
  5
9
330
0
100
AcDbSymbolTable
 70
     2
  0
APPID
  5
12
330
9
100
AcDbSymbolTableRecord
100
AcDbRegAppTableRecord
  2
ACAD
 70
     0
  0
ENDTAB
  0
TABLE
  2
DIMSTYLE
  5
A
330
0
100
AcDbSymbolTable
 70
     1
  0
DIMSTYLE
105
27
330
A
100
AcDbSymbolTableRecord
100
AcDbDimStyleTableRecord
  2
ISO-25
 70
     0
  3

  4

  5

  6

  7

 40
1.0
 41
2.5
 42
0.625
 43
3.75
 44
1.25
 45
0.0
 46
0.0
 47
0.0
 48
0.0
140
2.5
141
2.5
142
0.0
143
0.03937007874016
144
1.0
145
0.0
146
1.0
147
0.625
 71
     0
 72
     0
 73
     0
 74
     0
 75
     0
 76
     0
 77
     1
 78
     8
170
     0
171
     3
172
     1
173
     0
174
     0
175
     0
176
     0
177
     0
178
     0
270
     2
271
     2
272
     2
273
     2
274
     3
340
11
275
     0
280
     0
281
     0
282
     0
283
     0
284
     8
285
     0
286
     0
287
     3
288
     0
  0
ENDTAB
  0
TABLE
  2
BLOCK_RECORD
  5
1
330
0
100
AcDbSymbolTable
 70
     1
  0
BLOCK_RECORD
  5
1F
330
1
100
AcDbSymbolTableRecord
100
AcDbBlockTableRecord
  2
*MODEL_SPACE
  0
BLOCK_RECORD
  5
1B
330
1
100
AcDbSymbolTableRecord
100
AcDbBlockTableRecord
  2
*PAPER_SPACE
  0
ENDTAB
0
TABLE
2
LAYER
5
2
330
0
100
AcDbSymbolTable
70
1
0
LAYER
5
10
330
2
100
AcDbSymbolTableRecord
100
AcDbLayerTableRecord
2
Default
70
0
62
7
6
CONTINUOUS
0
ENDTAB
0
ENDSEC
  0
SECTION
  2
BLOCKS
  0
BLOCK
  5
20
330
1F
100
AcDbEntity
  8
0
100
AcDbBlockBegin
  2
*MODEL_SPACE
 70
     0
 10
0.0
 20
0.0
 30
0.0
  3
*MODEL_SPACE
  1

  0
ENDBLK
  5
21
330
1F
100
AcDbEntity
  8
0
100
AcDbBlockEnd
  0
BLOCK
  5
1C
330
1B
100
AcDbEntity
 67
     1
  8
0
100
AcDbBlockBegin
  2
*PAPER_SPACE
  1

  0
ENDBLK
  5
1D
330
1B
100
AcDbEntity
 67
     1
  8
0
100
AcDbBlockEnd
  0
ENDSEC
  0
SECTION
  2
ENTITIES
0
LINE
8
Default
62
5
5
100
100
AcDbEntity
100
AcDbLine
10
0.111111
20
6.610673
30
0.0
11
2.613124
21
6.610673
31
0.0
0
LINE
8
Default
62
5
5
101
100
AcDbEntity
100
AcDbLine
10
2.613124
20
6.610673
30
0.0
11
2.613124
21
8.944005
31
0.0
0
LINE
8
Default
62
5
5
102
100
AcDbEntity
100
AcDbLine
10
2.613124
20
8.944005
30
0.0
11
0.232538
21
8.944006
31
0.0
0
LINE
8
Default
62
5
5
103
100
AcDbEntity
100
AcDbLine
10
0.232538
20
8.944006
30
0.0
11
0.232538
21
7.549917
31
0.0
0
LINE
8
Default
62
5
5
104
100
AcDbEntity
100
AcDbLine
10
0.232538
20
7.549917
30
0.0
11
0.111111
21
7.327695
31
0.0
0
LINE
8
Default
62
5
5
105
100
AcDbEntity
100
AcDbLine
10
0.111111
20
7.327695
30
0.0
11
0.111111
21
6.610673
31
0.0
0
LINE
8
Default
62
5
5
106
100
AcDbEntity
100
AcDbLine
10
0.950674
20
7.022875
30
0.0
11
0.951564
21
7.016113
31
0.0
0
LINE
8
Default
62
5
5
107
100
AcDbEntity
100
AcDbLine
10
0.951564
20
7.016113
30
0.0
11
0.950674
21
7.009352
31
0.0
0
LINE
8
Default
62
5
5
108
100
AcDbEntity
100
AcDbLine
10
0.950674
20
7.009352
30
0.0
11
0.948064
21
7.003051
31
0.0
0
LINE
8
Default
62
5
5
109
100
AcDbEntity
100
AcDbLine
10
0.948064
20
7.003051
30
0.0
11
0.943912
21
6.997640
31
0.0
0
LINE
8
Default
62
5
5
10a
100
AcDbEntity
100
AcDbLine
10
0.943912
20
6.997640
30
0.0
11
0.938501
21
6.993488
31
0.0
0
LINE
8
Default
62
5
5
10b
100
AcDbEntity
100
AcDbLine
10
0.938501
20
6.993488
30
0.0
11
0.932201
21
6.990878
31
0.0
0
LINE
8
Default
62
5
5
10c
100
AcDbEntity
100
AcDbLine
10
0.932201
20
6.990878
30
0.0
11
0.925439
21
6.989988
31
0.0
0
LINE
8
Default
62
5
5
10d
100
AcDbEntity
100
AcDbLine
10
0.925439
20
6.989988
30
0.0
11
0.918677
21
6.990878
31
0.0
0
LINE
8
Default
62
5
5
10e
100
AcDbEntity
100
AcDbLine
10
0.918677
20
6.990878
30
0.0
11
0.912376
21
6.993488
31
0.0
0
LINE
8
Default
62
5
5
10f
100
AcDbEntity
100
AcDbLine
10
0.912376
20
6.993488
30
0.0
11
0.906966
21
6.997640
31
0.0
0
LINE
8
Default
62
5
5
110
100
AcDbEntity
100
AcDbLine
10
0.906966
20
6.997640
30
0.0
11
0.902814
21
7.003051
31
0.0
0
LINE
8
Default
62
5
5
111
100
AcDbEntity
100
AcDbLine
10
0.902814
20
7.003051
30
0.0
11
0.900204
21
7.009352
31
0.0
0
LINE
8
Default
62
5
5
112
100
AcDbEntity
100
AcDbLine
10
0.900204
20
7.009352
30
0.0
11
0.899314
21
7.016113
31
0.0
0
LINE
8
Default
62
5
5
113
100
AcDbEntity
100
AcDbLine
10
0.899314
20
7.016113
30
0.0
11
0.900204
21
7.022875
31
0.0
0
LINE
8
Default
62
5
5
114
100
AcDbEntity
100
AcDbLine
10
0.900204
20
7.022875
30
0.0
11
0.902814
21
7.029176
31
0.0
0
LINE
8
Default
62
5
5
115
100
AcDbEntity
100
AcDbLine
10
0.902814
20
7.029176
30
0.0
11
0.906966
21
7.034586
31
0.0
0
LINE
8
Default
62
5
5
116
100
AcDbEntity
100
AcDbLine
10
0.906966
20
7.034586
30
0.0
11
0.912376
21
7.038738
31
0.0
0
LINE
8
Default
62
5
5
117
100
AcDbEntity
100
AcDbLine
10
0.912376
20
7.038738
30
0.0
11
0.918677
21
7.041348
31
0.0
0
LINE
8
Default
62
5
5
118
100
AcDbEntity
100
AcDbLine
10
0.918677
20
7.041348
30
0.0
11
0.925439
21
7.042238
31
0.0
0
LINE
8
Default
62
5
5
119
100
AcDbEntity
100
AcDbLine
10
0.925439
20
7.042238
30
0.0
11
0.932201
21
7.041348
31
0.0
0
LINE
8
Default
62
5
5
11a
100
AcDbEntity
100
AcDbLine
10
0.932201
20
7.041348
30
0.0
11
0.938501
21
7.038738
31
0.0
0
LINE
8
Default
62
5
5
11b
100
AcDbEntity
100
AcDbLine
10
0.938501
20
7.038738
30
0.0
11
0.943912
21
7.034586
31
0.0
0
LINE
8
Default
62
5
5
11c
100
AcDbEntity
100
AcDbLine
10
0.943912
20
7.034586
30
0.0
11
0.948064
21
7.029176
31
0.0
0
LINE
8
Default
62
5
5
11d
100
AcDbEntity
100
AcDbLine
10
0.948064
20
7.029176
30
0.0
11
0.950674
21
7.022875
31
0.0
0
LINE
8
Default
62
5
5
11e
100
AcDbEntity
100
AcDbLine
10
1.661757
20
7.023097
30
0.0
11
1.662676
21
7.016113
31
0.0
0
LINE
8
Default
62
5
5
11f
100
AcDbEntity
100
AcDbLine
10
1.662676
20
7.016113
30
0.0
11
1.661757
21
7.009130
31
0.0
0
LINE
8
Default
62
5
5
120
100
AcDbEntity
100
AcDbLine
10
1.661757
20
7.009130
30
0.0
11
1.659061
21
7.002622
31
0.0
0
LINE
8
Default
62
5
5
121
100
AcDbEntity
100
AcDbLine
10
1.659061
20
7.002622
30
0.0
11
1.654773
21
6.997034
31
0.0
0
LINE
8
Default
62
5
5
122
100
AcDbEntity
100
AcDbLine
10
1.654773
20
6.997034
30
0.0
11
1.649185
21
6.992746
31
0.0
0
LINE
8
Default
62
5
5
123
100
AcDbEntity
100
AcDbLine
10
1.649185
20
6.992746
30
0.0
11
1.642678
21
6.990051
31
0.0
0
LINE
8
Default
62
5
5
124
100
AcDbEntity
100
AcDbLine
10
1.642678
20
6.990051
30
0.0
11
1.635694
21
6.989131
31
0.0
0
LINE
8
Default
62
5
5
125
100
AcDbEntity
100
AcDbLine
10
1.635694
20
6.989131
30
0.0
11
1.628711
21
6.990051
31
0.0
0
LINE
8
Default
62
5
5
126
100
AcDbEntity
100
AcDbLine
10
1.628711
20
6.990051
30
0.0
11
1.622203
21
6.992746
31
0.0
0
LINE
8
Default
62
5
5
127
100
AcDbEntity
100
AcDbLine
10
1.622203
20
6.992746
30
0.0
11
1.616615
21
6.997034
31
0.0
0
LINE
8
Default
62
5
5
128
100
AcDbEntity
100
AcDbLine
10
1.616615
20
6.997034
30
0.0
11
1.612327
21
7.002622
31
0.0
0
LINE
8
Default
62
5
5
129
100
AcDbEntity
100
AcDbLine
10
1.612327
20
7.002622
30
0.0
11
1.609632
21
7.009130
31
0.0
0
LINE
8
Default
62
5
5
12a
100
AcDbEntity
100
AcDbLine
10
1.609632
20
7.009130
30
0.0
11
1.608713
21
7.016113
31
0.0
0
LINE
8
Default
62
5
5
12b
100
AcDbEntity
100
AcDbLine
10
1.608713
20
7.016113
30
0.0
11
1.609632
21
7.023097
31
0.0
0
LINE
8
Default
62
5
5
12c
100
AcDbEntity
100
AcDbLine
10
1.609632
20
7.023097
30
0.0
11
1.612327
21
7.029604
31
0.0
0
LINE
8
Default
62
5
5
12d
100
AcDbEntity
100
AcDbLine
10
1.612327
20
7.029604
30
0.0
11
1.616615
21
7.035192
31
0.0
0
LINE
8
Default
62
5
5
12e
100
AcDbEntity
100
AcDbLine
10
1.616615
20
7.035192
30
0.0
11
1.622203
21
7.039480
31
0.0
0
LINE
8
Default
62
5
5
12f
100
AcDbEntity
100
AcDbLine
10
1.622203
20
7.039480
30
0.0
11
1.628711
21
7.042176
31
0.0
0
LINE
8
Default
62
5
5
130
100
AcDbEntity
100
AcDbLine
10
1.628711
20
7.042176
30
0.0
11
1.635694
21
7.043095
31
0.0
0
LINE
8
Default
62
5
5
131
100
AcDbEntity
100
AcDbLine
10
1.635694
20
7.043095
30
0.0
11
1.642678
21
7.042176
31
0.0
0
LINE
8
Default
62
5
5
132
100
AcDbEntity
100
AcDbLine
10
1.642678
20
7.042176
30
0.0
11
1.649185
21
7.039480
31
0.0
0
LINE
8
Default
62
5
5
133
100
AcDbEntity
100
AcDbLine
10
1.649185
20
7.039480
30
0.0
11
1.654773
21
7.035192
31
0.0
0
LINE
8
Default
62
5
5
134
100
AcDbEntity
100
AcDbLine
10
1.654773
20
7.035192
30
0.0
11
1.659061
21
7.029604
31
0.0
0
LINE
8
Default
62
5
5
135
100
AcDbEntity
100
AcDbLine
10
1.659061
20
7.029604
30
0.0
11
1.661757
21
7.023097
31
0.0
0
LINE
8
Default
62
5
5
136
100
AcDbEntity
100
AcDbLine
10
0.402014
20
7.049917
30
0.0
11
0.402014
21
8.494361
31
0.0
0
LINE
8
Default
62
5
5
137
100
AcDbEntity
100
AcDbLine
10
0.402014
20
8.494361
30
0.0
11
0.403130
21
8.513806
31
0.0
0
LINE
8
Default
62
5
5
138
100
AcDbEntity
100
AcDbLine
10
0.403130
20
8.513806
30
0.0
11
0.406466
21
8.532995
31
0.0
0
LINE
8
Default
62
5
5
139
100
AcDbEntity
100
AcDbLine
10
0.406466
20
8.532995
30
0.0
11
0.411976
21
8.551676
31
0.0
0
LINE
8
Default
62
5
5
13a
100
AcDbEntity
100
AcDbLine
10
0.411976
20
8.551676
30
0.0
11
0.419588
21
8.569603
31
0.0
0
LINE
8
Default
62
5
5
13b
100
AcDbEntity
100
AcDbLine
10
0.419588
20
8.569603
30
0.0
11
0.429203
21
8.586541
31
0.0
0
LINE
8
Default
62
5
5
13c
100
AcDbEntity
100
AcDbLine
10
0.429203
20
8.586541
30
0.0
11
0.440693
21
8.602267
31
0.0
0
LINE
8
Default
62
5
5
13d
100
AcDbEntity
100
AcDbLine
10
0.440693
20
8.602267
30
0.0
11
0.453908
21
8.616574
31
0.0
0
LINE
8
Default
62
5
5
13e
100
AcDbEntity
100
AcDbLine
10
0.453908
20
8.616574
30
0.0
11
0.468674
21
8.629275
31
0.0
0
LINE
8
Default
62
5
5
13f
100
AcDbEntity
100
AcDbLine
10
0.468674
20
8.629275
30
0.0
11
0.484797
21
8.640201
31
0.0
0
LINE
8
Default
62
5
5
140
100
AcDbEntity
100
AcDbLine
10
0.484797
20
8.640201
30
0.0
11
0.502065
21
8.649210
31
0.0
0
LINE
8
Default
62
5
5
141
100
AcDbEntity
100
AcDbLine
10
0.502065
20
8.649210
30
0.0
11
0.520251
21
8.656183
31
0.0
0
LINE
8
Default
62
5
5
142
100
AcDbEntity
100
AcDbLine
10
0.520251
20
8.656183
30
0.0
11
0.539115
21
8.661028
31
0.0
0
LINE
8
Default
62
5
5
143
100
AcDbEntity
100
AcDbLine
10
0.539115
20
8.661028
30
0.0
11
0.674235
21
8.661028
31
0.0
0
LINE
8
Default
62
5
5
144
100
AcDbEntity
100
AcDbLine
10
0.674235
20
8.661028
30
0.0
11
1.835034
21
8.661028
31
0.0
0
LINE
8
Default
62
5
5
145
100
AcDbEntity
100
AcDbLine
10
1.835034
20
8.661028
30
0.0
11
2.168680
21
8.661028
31
0.0
0
LINE
8
Default
62
5
5
146
100
AcDbEntity
100
AcDbLine
10
2.168680
20
8.661028
30
0.0
11
2.190434
21
8.659602
31
0.0
0
LINE
8
Default
62
5
5
147
100
AcDbEntity
100
AcDbLine
10
2.190434
20
8.659602
30
0.0
11
2.211817
21
8.655349
31
0.0
0
LINE
8
Default
62
5
5
148
100
AcDbEntity
100
AcDbLine
10
2.211817
20
8.655349
30
0.0
11
2.232461
21
8.648341
31
0.0
0
LINE
8
Default
62
5
5
149
100
AcDbEntity
100
AcDbLine
10
2.232461
20
8.648341
30
0.0
11
2.252013
21
8.638699
31
0.0
0
LINE
8
Default
62
5
5
14a
100
AcDbEntity
100
AcDbLine
10
2.252013
20
8.638699
30
0.0
11
2.270140
21
8.626587
31
0.0
0
LINE
8
Default
62
5
5
14b
100
AcDbEntity
100
AcDbLine
10
2.270140
20
8.626587
30
0.0
11
2.286531
21
8.612212
31
0.0
0
LINE
8
Default
62
5
5
14c
100
AcDbEntity
100
AcDbLine
10
2.286531
20
8.612212
30
0.0
11
2.300905
21
8.595822
31
0.0
0
LINE
8
Default
62
5
5
14d
100
AcDbEntity
100
AcDbLine
10
2.300905
20
8.595822
30
0.0
11
2.313017
21
8.577695
31
0.0
0
LINE
8
Default
62
5
5
14e
100
AcDbEntity
100
AcDbLine
10
2.313017
20
8.577695
30
0.0
11
2.322660
21
8.558142
31
0.0
0
LINE
8
Default
62
5
5
14f
100
AcDbEntity
100
AcDbLine
10
2.322660
20
8.558142
30
0.0
11
2.329668
21
8.537498
31
0.0
0
LINE
8
Default
62
5
5
150
100
AcDbEntity
100
AcDbLine
10
2.329668
20
8.537498
30
0.0
11
2.333921
21
8.516116
31
0.0
0
LINE
8
Default
62
5
5
151
100
AcDbEntity
100
AcDbLine
10
2.333921
20
8.516116
30
0.0
11
2.335347
21
8.494361
31
0.0
0
LINE
8
Default
62
5
5
152
100
AcDbEntity
100
AcDbLine
10
2.335347
20
8.494361
30
0.0
11
2.335347
21
7.049917
31
0.0
0
LINE
8
Default
62
5
5
153
100
AcDbEntity
100
AcDbLine
10
2.335347
20
7.049917
30
0.0
11
2.334230
21
7.030652
31
0.0
0
LINE
8
Default
62
5
5
154
100
AcDbEntity
100
AcDbLine
10
2.334230
20
7.030652
30
0.0
11
2.330894
21
7.011645
31
0.0
0
LINE
8
Default
62
5
5
155
100
AcDbEntity
100
AcDbLine
10
2.330894
20
7.011645
30
0.0
11
2.325384
21
6.993151
31
0.0
0
LINE
8
Default
62
5
5
156
100
AcDbEntity
100
AcDbLine
10
2.325384
20
6.993151
30
0.0
11
2.317774
21
6.975418
31
0.0
0
LINE
8
Default
62
5
5
157
100
AcDbEntity
100
AcDbLine
10
2.317774
20
6.975418
30
0.0
11
2.308165
21
6.958683
31
0.0
0
LINE
8
Default
62
5
5
158
100
AcDbEntity
100
AcDbLine
10
2.308165
20
6.958683
30
0.0
11
2.296687
21
6.943171
31
0.0
0
LINE
8
Default
62
5
5
159
100
AcDbEntity
100
AcDbLine
10
2.296687
20
6.943171
30
0.0
11
2.283493
21
6.929089
31
0.0
0
LINE
8
Default
62
5
5
15a
100
AcDbEntity
100
AcDbLine
10
2.283493
20
6.929089
30
0.0
11
2.268760
21
6.916626
31
0.0
0
LINE
8
Default
62
5
5
15b
100
AcDbEntity
100
AcDbLine
10
2.268760
20
6.916626
30
0.0
11
2.252685
21
6.905949
31
0.0
0
LINE
8
Default
62
5
5
15c
100
AcDbEntity
100
AcDbLine
10
2.252685
20
6.905949
30
0.0
11
2.235484
21
6.897202
31
0.0
0
LINE
8
Default
62
5
5
15d
100
AcDbEntity
100
AcDbLine
10
2.235484
20
6.897202
30
0.0
11
2.217388
21
6.890500
31
0.0
0
LINE
8
Default
62
5
5
15e
100
AcDbEntity
100
AcDbLine
10
2.217388
20
6.890500
30
0.0
11
2.198638
21
6.885935
31
0.0
0
LINE
8
Default
62
5
5
15f
100
AcDbEntity
100
AcDbLine
10
2.198638
20
6.885935
30
0.0
11
1.890900
21
6.885935
31
0.0
0
LINE
8
Default
62
5
5
160
100
AcDbEntity
100
AcDbLine
10
1.890900
20
6.885935
30
0.0
11
1.613123
21
7.161028
31
0.0
0
LINE
8
Default
62
5
5
161
100
AcDbEntity
100
AcDbLine
10
1.613123
20
7.161028
30
0.0
11
0.946457
21
7.161028
31
0.0
0
LINE
8
Default
62
5
5
162
100
AcDbEntity
100
AcDbLine
10
0.946457
20
7.161028
30
0.0
11
0.672641
21
6.883250
31
0.0
0
LINE
8
Default
62
5
5
163
100
AcDbEntity
100
AcDbLine
10
0.672641
20
6.883250
30
0.0
11
0.539115
21
6.883250
31
0.0
0
LINE
8
Default
62
5
5
164
100
AcDbEntity
100
AcDbLine
10
0.539115
20
6.883250
30
0.0
11
0.519450
21
6.886549
31
0.0
0
LINE
8
Default
62
5
5
165
100
AcDbEntity
100
AcDbLine
10
0.519450
20
6.886549
30
0.0
11
0.500380
21
6.892373
31
0.0
0
LINE
8
Default
62
5
5
166
100
AcDbEntity
100
AcDbLine
10
0.500380
20
6.892373
30
0.0
11
0.482228
21
6.900624
31
0.0
0
LINE
8
Default
62
5
5
167
100
AcDbEntity
100
AcDbLine
10
0.482228
20
6.900624
30
0.0
11
0.465302
21
6.911163
31
0.0
0
LINE
8
Default
62
5
5
168
100
AcDbEntity
100
AcDbLine
10
0.465302
20
6.911163
30
0.0
11
0.449887
21
6.923810
31
0.0
0
LINE
8
Default
62
5
5
169
100
AcDbEntity
100
AcDbLine
10
0.449887
20
6.923810
30
0.0
11
0.436244
21
6.938352
31
0.0
0
LINE
8
Default
62
5
5
16a
100
AcDbEntity
100
AcDbLine
10
0.436244
20
6.938352
30
0.0
11
0.424606
21
6.954542
31
0.0
0
LINE
8
Default
62
5
5
16b
100
AcDbEntity
100
AcDbLine
10
0.424606
20
6.954542
30
0.0
11
0.415169
21
6.972107
31
0.0
0
LINE
8
Default
62
5
5
16c
100
AcDbEntity
100
AcDbLine
10
0.415169
20
6.972107
30
0.0
11
0.408092
21
6.990748
31
0.0
0
LINE
8
Default
62
5
5
16d
100
AcDbEntity
100
AcDbLine
10
0.408092
20
6.990748
30
0.0
11
0.403496
21
7.010150
31
0.0
0
LINE
8
Default
62
5
5
16e
100
AcDbEntity
100
AcDbLine
10
0.403496
20
7.010150
30
0.0
11
0.401458
21
7.029985
31
0.0
0
LINE
8
Default
62
5
5
16f
100
AcDbEntity
100
AcDbLine
10
0.401458
20
7.029985
30
0.0
11
0.402014
21
7.049917
31
0.0
  0
ENDSEC
  0
SECTION
  2
OBJECTS
  0
DICTIONARY
  5
C
330
0
100
AcDbDictionary
  3
ACAD_GROUP
350
D
  3
ACAD_MLINESTYLE
350
17
  0
DICTIONARY
  5
D
330
C
100
AcDbDictionary
  0
DICTIONARY
  5
1A
330
C
100
AcDbDictionary
  0
DICTIONARY
  5
17
330
C
100
AcDbDictionary
  3
STANDARD
350
18
  0
DICTIONARY
  5
19
330
C
100
AcDbDictionary
  0
ENDSEC
  0
EOF
