  0
SECTION
  2
HEADER
  9
$ACADVER
  1
AC1014
  9
$ACADMAINTVER
 70
     0
  9
$DWGCODEPAGE
  3
ANSI_1252
  9
$INSBASE
 10
0.0
 20
0.0
 30
0.0
  9
$EXTMIN
 10
0.0
 20
0.0
 30
0.0
  9
$EXTMAX
 10
290.1
 20
200.125
 30
0.0
  9
$LIMMIN
 10
-10.0
 20
-10.0
  9
$LIMMAX
 10
300.1
 20
210.125
  9
$ORTHOMODE
 70
     0
  9
$REGENMODE
 70
     1
  9
$FILLMODE
 70
     1
  9
$QTEXTMODE
 70
     0
  9
$MIRRTEXT
 70
     1
  9
$DRAGMODE
 70
     2
  9
$LTSCALE
 40
1.0
  9
$OSMODE
 70
     0
  9
$ATTMODE
 70
     1
  9
$TEXTSIZE
 40
0.2
  9
$TRACEWID
 40
0.05
  9
$TEXTSTYLE
  7
STANDARD
  9
$CLAYER
  8
0
  9
$CELTYPE
  6
CONTINUOUS
  9
$CECOLOR
 62
   256
  9
$CELTSCALE
 40
1.0
  9
$DELOBJ
 70
     1
  9
$DISPSILH
 70
     0
  9
$DIMSCALE
 40
1.0
  9
$DIMASZ
 40
0.18
  9
$DIMEXO
 40
0.0625
  9
$DIMDLI
 40
0.38
  9
$DIMRND
 40
0.0
  9
$DIMDLE
 40
0.0
  9
$DIMEXE
 40
0.18
  9
$DIMTP
 40
0.0
  9
$DIMTM
 40
0.0
  9
$DIMTXT
 40
0.18
  9
$DIMCEN
 40
0.09
  9
$DIMTSZ
 40
0.0
  9
$DIMTOL
 70
     0
  9
$DIMLIM
 70
     0
  9
$DIMTIH
 70
     1
  9
$DIMTOH
 70
     1
  9
$DIMSE1
 70
     0
  9
$DIMSE2
 70
     0
  9
$DIMTAD
 70
     0
  9
$DIMZIN
 70
     0
  9
$DIMBLK
  1

  9
$DIMASO
 70
     1
  9
$DIMSHO
 70
     1
  9
$DIMPOST
  1

  9
$DIMAPOST
  1

  9
$DIMALT
 70
     0
  9
$DIMALTD
 70
     2
  9
$DIMALTF
 40
25.4
  9
$DIMLFAC
 40
1.0
  9
$DIMTOFL
 70
     0
  9
$DIMTVP
 40
0.0
  9
$DIMTIX
 70
     0
  9
$DIMSOXD
 70
     0
  9
$DIMSAH
 70
     0
  9
$DIMBLK1
  1

  9
$DIMBLK2
  1

  9
$DIMSTYLE
  2
STANDARD
  9
$DIMCLRD
 70
     0
  9
$DIMCLRE
 70
     0
  9
$DIMCLRT
 70
     0
  9
$DIMTFAC
 40
1.0
  9
$DIMGAP
 40
0.09
  9
$DIMJUST
 70
     0
  9
$DIMSD1
 70
     0
  9
$DIMSD2
 70
     0
  9
$DIMTOLJ
 70
     1
  9
$DIMTZIN
 70
     0
  9
$DIMALTZ
 70
     0
  9
$DIMALTTZ
 70
     0
  9
$DIMFIT
 70
     3
  9
$DIMUPT
 70
     0
  9
$DIMUNIT
 70
     2
  9
$DIMDEC
 70
     4
  9
$DIMTDEC
 70
     4
  9
$DIMALTU
 70
     2
  9
$DIMALTTD
 70
     2
  9
$DIMTXSTY
  7
STANDARD
  9
$DIMAUNIT
 70
     0
  9
$LUNITS
 70
     2
  9
$LUPREC
 70
     4
  9
$SKETCHINC
 40
0.1
  9
$FILLETRAD
 40
0.0
  9
$AUNITS
 70
     0
  9
$AUPREC
 70
     0
  9
$MENU
  1
acad
  9
$ELEVATION
 40
0.0
  9
$PELEVATION
 40
0.0
  9
$THICKNESS
 40
0.0
  9
$LIMCHECK
 70
     0
  9
$BLIPMODE
 70
     1
  9
$CHAMFERA
 40
0.0
  9
$CHAMFERB
 40
0.0
  9
$CHAMFERC
 40
0.0
  9
$CHAMFERD
 40
0.0
  9
$SKPOLY
 70
     0
  9
$TDCREATE
 40
2456448.905312500
  9
$TDUPDATE
 40
2456448.905312500
  9
$TDINDWG
 40
0.0000000000
  9
$TDUSRTIMER
 40
0.0000000000
  9
$USRTIMER
 70
     1
  9
$ANGBASE
 50
0.0
  9
$ANGDIR
 70
     0
  9
$PDMODE
 70
     0
  9
$PDSIZE
 40
0.0
  9
$PLINEWID
 40
0.0
  9
$COORDS
 70
     1
  9
$SPLFRAME
 70
     0
  9
$SPLINETYPE
 70
     6
  9
$SPLINESEGS
 70
     8
  9
$ATTDIA
 70
     0
  9
$ATTREQ
 70
     1
  9
$HANDLING
 70
     1
  9
$HANDSEED
  5
8E
  9
$SURFTAB1
 70
     6
  9
$SURFTAB2
 70
     6
  9
$SURFTYPE
 70
     6
  9
$SURFU
 70
     6
  9
$SURFV
 70
     6
  9
$UCSNAME
  2

  9
$UCSORG
 10
0.0
 20
0.0
 30
0.0
  9
$UCSXDIR
 10
1.0
 20
0.0
 30
0.0
  9
$UCSYDIR
 10
0.0
 20
1.0
 30
0.0
  9
$PUCSNAME
  2

  9
$PUCSORG
 10
0.0
 20
0.0
 30
0.0
  9
$PUCSXDIR
 10
1.0
 20
0.0
 30
0.0
  9
$PUCSYDIR
 10
0.0
 20
1.0
 30
0.0
  9
$USERI1
 70
     0
  9
$USERI2
 70
     0
  9
$USERI3
 70
     0
  9
$USERI4
 70
     0
  9
$USERI5
 70
     0
  9
$USERR1
 40
0.0
  9
$USERR2
 40
0.0
  9
$USERR3
 40
0.0
  9
$USERR4
 40
0.0
  9
$USERR5
 40
0.0
  9
$WORLDVIEW
 70
     1
  9
$SHADEDGE
 70
     3
  9
$SHADEDIF
 70
    70
  9
$TILEMODE
 70
     1
  9
$MAXACTVP
 70
    16
  9
$PINSBASE
 10
0.0
 20
0.0
 30
0.0
  9
$PLIMCHECK
 70
     0
  9
$PEXTMIN
 10
1.000000E+20
 20
1.000000E+20
 30
1.000000E+20
  9
$PEXTMAX
 10
-1.000000E+20
 20
-1.000000E+20
 30
-1.000000E+20
  9
$PLIMMIN
 10
0.0
 20
0.0
  9
$PLIMMAX
 10
12.0
 20
9.0
  9
$UNITMODE
 70
     0
  9
$VISRETAIN
 70
     0
  9
$PLINEGEN
 70
     0
  9
$PSLTSCALE
 70
     0
  9
$TREEDEPTH
 70
  3020
  9
$PICKSTYLE
 70
     1
  9
$CMLSTYLE
  2
STANDARD
  9
$CMLJUST
 70
     0
  9
$CMLSCALE
 40
1.0
  9
$PROXYGRAPHICS
 70
     0
  9
$MEASUREMENT
 70
     0
  0
ENDSEC
  0
SECTION
  2
CLASSES
  0
CLASS
  1
LWPOLYLINE
  2
AcDbPolyline
  3
"AutoCAD"
 90
        0
280
     0
281
     1
  0
CLASS
  1
IMAGE
  2
AcDbRasterImage
  3
ISM
 90
      127
280
     0
281
     1
  0
CLASS
  1
OLE2FRAME
  2
AcDbOle2Frame
  3
""
 90
        0
280
     0
281
     1
  0
CLASS
  1
HATCH
  2
AcDbHatch
  3
"ACAD_SEDONA"
 90
        0
280
     0
281
     1
  0
CLASS
  1
DICTIONARYVAR
  2
AcDbDictionaryVar
  3
"AutoCAD"
 90
        0
280
     0
281
     0
  0
CLASS
  1
RASTERVARIABLES
  2
AcDbRasterVariables
  3
ISM
 90
        0
280
     0
281
     0
  0
CLASS
  1
IMAGEDEF
  2
AcDbRasterImageDef
  3
ISM
 90
        0
280
     0
281
     0
  0
CLASS
  1
IMAGEDEF_REACTOR
  2
AcDbRasterImageDefReactor
  3
ISM
 90
        1
280
     0
281
     0
  0
CLASS
  1
IDBUFFER
  2
AcDbIdBuffer
  3
"Acad"
 90
        0
280
     0
281
     0
  0
CLASS
  1
SPATIAL_FILTER
  2
AcDbSpatialFilter
  3
"Acad"
 90
        0
280
     0
281
     0
  0
CLASS
  1
XRECORD
  2
AcDbXrecord
  3
"<Built In>"
 90
        0
280
     0
281
     0
  0
CLASS
  1
SORTENTSTABLE
  2
AcDbSortentsTable
  3
"AutoCAD"
 90
        0
280
     0
281
     0
  0
CLASS
  1
LAYER_INDEX
  2
AcDbLayerIndex
  3
"Acad"
 90
        0
280
     0
281
     0
  0
CLASS
  1
SPATIAL_INDEX
  2
AcDbSpatialIndex
  3
"Acad"
 90
        0
280
     0
281
     0
  0
CLASS
  1
OBJECT_PTR
  2
CAseDLPNTableRecord
  3
"ASE-LPNTableRecord"
 90
        1
280
     0
281
     0
  0
CLASS
  1
LAYOUT
  2
AcDbLayout
  3
"AutoCAD 2000"
 90
        1
280
     0
281
     0
  0
CLASS
  1
PLOTSETTINGS
  2
AcDbPlotSettings
  3
"AutoCAD 2000"
 90
        1
280
     0
281
     0
  0
CLASS
  1
ACDBDICTIONARYWDFLT
  2
AcDbDictionaryWithDefault
  3
"AutoCAD 2000"
 90
        1
280
     0
281
     0
  0
CLASS
  1
ACDBPLACEHOLDER
  2
AcDbPlaceHolder
  3
"AutoCAD 2000"
 90
        1
280
     0
281
     0
  0
ENDSEC
  0
SECTION
  2
TABLES
  0
TABLE
  2
VPORT
  5
7
100
AcDbSymbolTable
 70
     1
  0
VPORT
  5
15
100
AcDbSymbolTableRecord
100
AcDbViewportTableRecord
  2
*ACTIVE
 70
     0
 10
0.0
 20
0.0
 11
1.0
 21
1.0
 12
145.05
 22
100.0625
 13
0.0
 23
0.0
 14
1.0
 24
1.0
 15
0.0
 25
0.0
 16
0.0
 26
0.0
 36
1.0
 17
0.0
 27
0.0
 37
0.0
 40
200.125
 41
1.449594
 42
50.0
 43
0.0
 44
0.0
 50
0.0
 51
0.0
 71
     0
 72
   100
 73
     1
 74
     1
 75
     0
 76
     0
 77
     0
 78
     0
  0
ENDTAB
  0
TABLE
  2
LTYPE
  5
4
100
AcDbSymbolTable
 70
     3
  0
LTYPE
  5
11
100
AcDbSymbolTableRecord
100
AcDbLinetypeTableRecord
  2
BYBLOCK
 70
    64
  3

 72
    65
 73
     0
 40
0.0
  0
LTYPE
  5
12
100
AcDbSymbolTableRecord
100
AcDbLinetypeTableRecord
  2
BYLAYER
 70
    64
  3

 72
    65
 73
     0
 40
0.0
  0
LTYPE
  5
13
100
AcDbSymbolTableRecord
100
AcDbLinetypeTableRecord
  2
CONTINUOUS
 70
    64
  3
Solid line
 72
    65
 73
     0
 40
0.0
  0
ENDTAB
  0
TABLE
  2
LAYER
  5
2
100
AcDbSymbolTable
 70
     4
  0
LAYER
  5
14
100
AcDbSymbolTableRecord
100
AcDbLayerTableRecord
  2
0
 70
     0
 62
     7
  6
CONTINUOUS
  0
LAYER
  5
8C
100
AcDbSymbolTableRecord
100
AcDbLayerTableRecord
  2
LAY252
 70
     0
 62
   254
  6
CONTINUOUS
  0
LAYER
  5
1D
100
AcDbSymbolTableRecord
100
AcDbLayerTableRecord
  2
LAY001
 70
     0
 62
     7
  6
CONTINUOUS
  0
LAYER
  5
45
100
AcDbSymbolTableRecord
100
AcDbLayerTableRecord
  2
LAY002
 70
     0
 62
     1
  6
CONTINUOUS
  0
ENDTAB
  0
TABLE
  2
STYLE
  5
3
100
AcDbSymbolTable
 70
     1
  0
STYLE
  5
17
100
AcDbSymbolTableRecord
100
AcDbTextStyleTableRecord
  2
STANDARD
 70
     0
 40
0.0
 41
1.0
 50
0.0
 71
     0
 42
0.0
  3
txt
  4

  0
ENDTAB
  0
TABLE
  2
VIEW
  5
5
100
AcDbSymbolTable
 70
     0
  0
ENDTAB
  0
TABLE
  2
UCS
  5
6
100
AcDbSymbolTable
 70
     0
  0
ENDTAB
  0
TABLE
  2
APPID
  5
8
100
AcDbSymbolTable
 70
     2
  0
APPID
  5
16
100
AcDbSymbolTableRecord
100
AcDbRegAppTableRecord
  2
ACAD
 70
     0
  0
APPID
  5
8D
100
AcDbSymbolTableRecord
100
AcDbRegAppTableRecord
  2
HPGL2CAD
 70
     0
  0
ENDTAB
  0
TABLE
  2
DIMSTYLE
  5
9
100
AcDbSymbolTable
 70
     1
  0
DIMSTYLE
105
18
100
AcDbSymbolTableRecord
100
AcDbDimStyleTableRecord
  2
STANDARD
 70
     0
  3

  4

  5

  6

  7

 40
1.0
 41
0.18
 42
0.0625
 43
0.38
 44
0.18
 45
0.0
 46
0.0
 47
0.0
 48
0.0
 71
     0
 72
     0
 73
     1
 74
     1
 75
     0
 76
     0
 77
     0
 78
     0
140
0.18
141
0.09
142
0.0
143
25.4
144
1.0
145
0.0
146
1.0
147
0.09
170
     0
171
     2
172
     0
173
     0
174
     0
175
     0
176
     0
177
     0
178
     0
270
     2
271
     4
272
     4
273
     2
274
     2
275
     0
280
     0
281
     0
282
     0
283
     1
284
     0
285
     0
286
     0
287
     0
288
     0
340
17
  0
ENDTAB
  0
TABLE
  2
BLOCK_RECORD
  5
1
100
AcDbSymbolTable
 70
     0
  0
BLOCK_RECORD
  5
A
100
AcDbSymbolTableRecord
100
AcDbBlockTableRecord
  2
*MODEL_SPACE
  0
BLOCK_RECORD
  5
B
100
AcDbSymbolTableRecord
100
AcDbBlockTableRecord
  2
*PAPER_SPACE
  0
ENDTAB
  0
ENDSEC
  0
SECTION
  2
BLOCKS
  0
BLOCK
  5
D
100
AcDbEntity
  8
0
100
AcDbBlockBegin
  2
*MODEL_SPACE
 70
     0
 10
0.0
 20
0.0
 30
0.0
  3
*MODEL_SPACE
  1

  0
ENDBLK
  5
E
100
AcDbEntity
  8
0
100
AcDbBlockEnd
  0
BLOCK
  5
F
100
AcDbEntity
 67
     1
  8
0
100
AcDbBlockBegin
  2
*PAPER_SPACE
 70
     0
 10
0.0
 20
0.0
 30
0.0
  3
*PAPER_SPACE
  1

  0
ENDBLK
  5
10
100
AcDbEntity
 67
     1
  8
0
100
AcDbBlockEnd
  0
ENDSEC
  0
SECTION
  2
ENTITIES
  0
LWPOLYLINE
  5
1E
100
AcDbEntity
  8
LAY001
 62
     7
100
AcDbPolyline
 90
       40
 70
     1
 10
50.05
 20
145.6
 10
50.2
 20
145.575
 10
50.35
 20
145.55
 10
50.625
 20
145.475
 10
50.875
 20
145.325
 10
51.1
 20
145.15
 10
51.275
 20
144.925
 10
51.425
 20
144.675
 10
51.525
 20
144.4
 10
51.525
 20
144.25
 10
51.55
 20
144.1
 10
51.525
 20
143.95
 10
51.525
 20
143.8
 10
51.425
 20
143.5
 10
51.275
 20
143.25
 10
51.1
 20
143.025
 10
50.875
 20
142.85
 10
50.625
 20
142.7
 10
50.35
 20
142.625
 10
50.2
 20
142.6
 10
50.05
 20
142.6
 10
49.9
 20
142.6
 10
49.75
 20
142.625
 10
49.45
 20
142.7
 10
49.2
 20
142.85
 10
48.975
 20
143.025
 10
48.8
 20
143.25
 10
48.65
 20
143.5
 10
48.575
 20
143.8
 10
48.55
 20
143.95
 10
48.55
 20
144.1
 10
48.55
 20
144.25
 10
48.575
 20
144.4
 10
48.65
 20
144.675
 10
48.8
 20
144.925
 10
48.975
 20
145.15
 10
49.2
 20
145.325
 10
49.45
 20
145.475
 10
49.75
 20
145.55
 10
49.9
 20
145.575
  0
LWPOLYLINE
  5
1F
100
AcDbEntity
  8
LAY001
 62
     7
100
AcDbPolyline
 90
       40
 70
     1
 10
50.2
 20
86.775
 10
50.35
 20
86.75
 10
50.5
 20
86.725
 10
50.8
 20
86.65
 10
51.05
 20
86.5
 10
51.275
 20
86.325
 10
51.45
 20
86.1
 10
51.6
 20
85.85
 10
51.675
 20
85.575
 10
51.7
 20
85.425
 10
51.7
 20
85.275
 10
51.7
 20
85.125
 10
51.675
 20
84.975
 10
51.6
 20
84.675
 10
51.45
 20
84.425
 10
51.275
 20
84.2
 10
51.05
 20
84.025
 10
50.8
 20
83.875
 10
50.5
 20
83.8
 10
50.35
 20
83.775
 10
50.2
 20
83.775
 10
50.05
 20
83.775
 10
49.9
 20
83.8
 10
49.625
 20
83.875
 10
49.375
 20
84.025
 10
49.15
 20
84.2
 10
48.975
 20
84.425
 10
48.825
 20
84.675
 10
48.725
 20
84.975
 10
48.725
 20
85.125
 10
48.7
 20
85.275
 10
48.725
 20
85.425
 10
48.725
 20
85.575
 10
48.825
 20
85.85
 10
48.975
 20
86.1
 10
49.15
 20
86.325
 10
49.375
 20
86.5
 10
49.625
 20
86.65
 10
49.9
 20
86.725
 10
50.05
 20
86.75
  0
LWPOLYLINE
  5
20
100
AcDbEntity
  8
LAY001
 62
     7
100
AcDbPolyline
 90
       64
 70
     1
 10
36.425
 20
168.95
 10
36.025
 20
168.975
 10
35.625
 20
169.05
 10
35.225
 20
169.15
 10
34.875
 20
169.275
 10
34.525
 20
169.45
 10
34.175
 20
169.65
 10
33.875
 20
169.875
 10
33.6
 20
170.125
 10
33.325
 20
170.425
 10
33.1
 20
170.725
 10
32.9
 20
171.05
 10
32.75
 20
171.4
 10
32.6
 20
171.775
 10
32.5
 20
172.15
 10
32.45
 20
172.55
 10
32.425
 20
172.95
 10
32.45
 20
173.375
 10
32.5
 20
173.775
 10
32.6
 20
174.15
 10
32.75
 20
174.525
 10
32.9
 20
174.875
 10
33.1
 20
175.2
 10
33.325
 20
175.5
 10
33.6
 20
175.775
 10
33.875
 20
176.05
 10
34.175
 20
176.275
 10
34.525
 20
176.475
 10
34.875
 20
176.65
 10
35.225
 20
176.775
 10
35.625
 20
176.875
 10
36.025
 20
176.95
 10
36.425
 20
176.95
 10
36.825
 20
176.95
 10
37.225
 20
176.875
 10
37.625
 20
176.775
 10
37.975
 20
176.65
 10
38.325
 20
176.475
 10
38.65
 20
176.275
 10
38.975
 20
176.05
 10
39.25
 20
175.775
 10
39.5
 20
175.5
 10
39.75
 20
175.2
 10
39.95
 20
174.875
 10
40.1
 20
174.525
 10
40.25
 20
174.15
 10
40.35
 20
173.775
 10
40.4
 20
173.375
 10
40.425
 20
172.95
 10
40.4
 20
172.55
 10
40.35
 20
172.15
 10
40.25
 20
171.775
 10
40.1
 20
171.4
 10
39.95
 20
171.05
 10
39.75
 20
170.725
 10
39.5
 20
170.425
 10
39.25
 20
170.125
 10
38.975
 20
169.875
 10
38.65
 20
169.65
 10
38.325
 20
169.45
 10
37.975
 20
169.275
 10
37.625
 20
169.15
 10
37.225
 20
169.05
 10
36.825
 20
168.975
  0
LWPOLYLINE
  5
21
100
AcDbEntity
  8
LAY001
 62
     7
100
AcDbPolyline
 90
        4
 70
     1
 10
20.0
 20
180.1
 10
0.0
 20
180.1
 10
0.0
 20
200.1
 10
20.0
 20
200.1
  0
LWPOLYLINE
  5
22
100
AcDbEntity
  8
LAY001
 62
     7
100
AcDbPolyline
 90
       56
 70
     1
 10
52.225
 20
191.0
 10
52.225
 20
191.2
 10
52.25
 20
191.4
 10
52.3
 20
191.6
 10
52.375
 20
191.775
 10
52.475
 20
191.95
 10
52.575
 20
192.125
 10
52.8
 20
192.425
 10
53.1
 20
192.675
 10
53.275
 20
192.775
 10
53.45
 20
192.85
 10
53.625
 20
192.925
 10
53.825
 20
192.975
 10
54.025
 20
193.0
 10
54.225
 20
193.0
 10
54.425
 20
193.0
 10
54.625
 20
192.975
 10
54.825
 20
192.925
 10
55.0
 20
192.85
 10
55.175
 20
192.775
 10
55.35
 20
192.675
 10
55.625
 20
192.425
 10
55.875
 20
192.125
 10
55.975
 20
191.95
 10
56.075
 20
191.775
 10
56.125
 20
191.6
 10
56.175
 20
191.4
 10
56.2
 20
191.2
 10
56.225
 20
191.0
 10
56.2
 20
190.8
 10
56.175
 20
190.6
 10
56.125
 20
190.4
 10
56.075
 20
190.225
 10
55.975
 20
190.05
 10
55.875
 20
189.9
 10
55.625
 20
189.6
 10
55.35
 20
189.35
 10
55.175
 20
189.25
 10
55.0
 20
189.175
 10
54.825
 20
189.1
 10
54.625
 20
189.05
 10
54.425
 20
189.025
 10
54.225
 20
189.0
 10
54.025
 20
189.025
 10
53.825
 20
189.05
 10
53.625
 20
189.1
 10
53.45
 20
189.175
 10
53.275
 20
189.25
 10
53.1
 20
189.35
 10
52.8
 20
189.6
 10
52.575
 20
189.9
 10
52.475
 20
190.05
 10
52.375
 20
190.225
 10
52.3
 20
190.4
 10
52.25
 20
190.6
 10
52.225
 20
190.8
  0
LWPOLYLINE
  5
23
100
AcDbEntity
  8
LAY001
 62
     7
100
AcDbPolyline
 90
        4
 70
     1
 10
71.7
 20
178.075
 10
86.1
 20
178.075
 10
86.1
 20
169.4
 10
71.7
 20
169.4
  0
LWPOLYLINE
  5
24
100
AcDbEntity
  8
LAY001
 62
     7
100
AcDbPolyline
 90
       56
 70
     1
 10
139.425
 20
167.225
 10
139.225
 20
167.225
 10
139.025
 20
167.25
 10
138.85
 20
167.3
 10
138.65
 20
167.375
 10
138.475
 20
167.45
 10
138.325
 20
167.55
 10
138.025
 20
167.8
 10
137.775
 20
168.1
 10
137.675
 20
168.25
 10
137.6
 20
168.425
 10
137.525
 20
168.625
 10
137.475
 20
168.8
 10
137.45
 20
169.0
 10
137.425
 20
169.225
 10
137.45
 20
169.425
 10
137.475
 20
169.625
 10
137.525
 20
169.8
 10
137.6
 20
170.0
 10
137.675
 20
170.175
 10
137.775
 20
170.325
 10
138.025
 20
170.625
 10
138.325
 20
170.875
 10
138.475
 20
170.975
 10
138.65
 20
171.05
 10
138.85
 20
171.125
 10
139.025
 20
171.175
 10
139.225
 20
171.2
 10
139.425
 20
171.225
 10
139.65
 20
171.2
 10
139.85
 20
171.175
 10
140.025
 20
171.125
 10
140.225
 20
171.05
 10
140.4
 20
170.975
 10
140.55
 20
170.875
 10
140.85
 20
170.625
 10
141.1
 20
170.325
 10
141.2
 20
170.175
 10
141.275
 20
170.0
 10
141.35
 20
169.8
 10
141.4
 20
169.625
 10
141.425
 20
169.425
 10
141.425
 20
169.225
 10
141.425
 20
169.0
 10
141.4
 20
168.8
 10
141.35
 20
168.625
 10
141.275
 20
168.425
 10
141.2
 20
168.25
 10
141.1
 20
168.1
 10
140.85
 20
167.8
 10
140.55
 20
167.55
 10
140.4
 20
167.45
 10
140.225
 20
167.375
 10
140.025
 20
167.3
 10
139.85
 20
167.25
 10
139.65
 20
167.225
  0
LWPOLYLINE
  5
25
100
AcDbEntity
  8
LAY001
 62
     7
100
AcDbPolyline
 90
       56
 70
     1
 10
117.65
 20
169.125
 10
117.65
 20
168.925
 10
117.625
 20
168.725
 10
117.575
 20
168.55
 10
117.5
 20
168.35
 10
117.425
 20
168.175
 10
117.325
 20
168.025
 10
117.075
 20
167.725
 10
116.775
 20
167.475
 10
116.625
 20
167.375
 10
116.45
 20
167.3
 10
116.25
 20
167.225
 10
116.075
 20
167.175
 10
115.875
 20
167.15
 10
115.65
 20
167.125
 10
115.45
 20
167.15
 10
115.25
 20
167.175
 10
115.075
 20
167.225
 10
114.875
 20
167.3
 10
114.7
 20
167.375
 10
114.55
 20
167.475
 10
114.25
 20
167.725
 10
114.0
 20
168.025
 10
113.9
 20
168.175
 10
113.825
 20
168.35
 10
113.75
 20
168.55
 10
113.7
 20
168.725
 10
113.675
 20
168.925
 10
113.65
 20
169.125
 10
113.675
 20
169.35
 10
113.7
 20
169.525
 10
113.75
 20
169.725
 10
113.825
 20
169.9
 10
113.9
 20
170.075
 10
114.0
 20
170.25
 10
114.25
 20
170.55
 10
114.55
 20
170.8
 10
114.7
 20
170.9
 10
114.875
 20
170.975
 10
115.075
 20
171.05
 10
115.25
 20
171.1
 10
115.45
 20
171.125
 10
115.65
 20
171.125
 10
115.875
 20
171.125
 10
116.075
 20
171.1
 10
116.25
 20
171.05
 10
116.45
 20
170.975
 10
116.625
 20
170.9
 10
116.775
 20
170.8
 10
117.075
 20
170.55
 10
117.325
 20
170.25
 10
117.425
 20
170.075
 10
117.5
 20
169.9
 10
117.575
 20
169.725
 10
117.625
 20
169.525
 10
117.65
 20
169.35
  0
LWPOLYLINE
  5
26
100
AcDbEntity
  8
LAY001
 62
     7
100
AcDbPolyline
 90
       56
 70
     1
 10
115.65
 20
159.25
 10
115.85
 20
159.25
 10
116.05
 20
159.2
 10
116.225
 20
159.15
 10
116.425
 20
159.1
 10
116.6
 20
159.0
 10
116.75
 20
158.9
 10
117.05
 20
158.675
 10
117.3
 20
158.375
 10
117.4
 20
158.2
 10
117.475
 20
158.025
 10
117.55
 20
157.85
 10
117.6
 20
157.65
 10
117.625
 20
157.45
 10
117.65
 20
157.25
 10
117.625
 20
157.05
 10
117.6
 20
156.85
 10
117.55
 20
156.65
 10
117.475
 20
156.475
 10
117.4
 20
156.3
 10
117.3
 20
156.125
 10
117.05
 20
155.825
 10
116.75
 20
155.6
 10
116.6
 20
155.5
 10
116.425
 20
155.4
 10
116.225
 20
155.35
 10
116.05
 20
155.3
 10
115.85
 20
155.25
 10
115.65
 20
155.25
 10
115.425
 20
155.25
 10
115.25
 20
155.3
 10
115.05
 20
155.35
 10
114.875
 20
155.4
 10
114.7
 20
155.5
 10
114.525
 20
155.6
 10
114.225
 20
155.825
 10
113.975
 20
156.125
 10
113.875
 20
156.3
 10
113.8
 20
156.475
 10
113.725
 20
156.65
 10
113.675
 20
156.85
 10
113.65
 20
157.05
 10
113.65
 20
157.25
 10
113.65
 20
157.45
 10
113.675
 20
157.65
 10
113.725
 20
157.85
 10
113.8
 20
158.025
 10
113.875
 20
158.2
 10
113.975
 20
158.375
 10
114.225
 20
158.675
 10
114.525
 20
158.9
 10
114.7
 20
159.0
 10
114.875
 20
159.1
 10
115.05
 20
159.15
 10
115.25
 20
159.2
 10
115.425
 20
159.25
  0
LWPOLYLINE
  5
27
100
AcDbEntity
  8
LAY001
 62
     7
100
AcDbPolyline
 90
       64
 70
     1
 10
128.25
 20
70.525
 10
128.675
 20
70.5
 10
129.05
 20
70.45
 10
129.45
 20
70.35
 10
129.8
 20
70.2
 10
130.15
 20
70.05
 10
130.5
 20
69.85
 10
130.8
 20
69.625
 10
131.075
 20
69.35
 10
131.35
 20
69.075
 10
131.575
 20
68.775
 10
131.775
 20
68.425
 10
131.95
 20
68.075
 10
132.075
 20
67.725
 10
132.175
 20
67.325
 10
132.225
 20
66.925
 10
132.25
 20
66.525
 10
132.225
 20
66.125
 10
132.175
 20
65.725
 10
132.075
 20
65.325
 10
131.95
 20
64.975
 10
131.775
 20
64.625
 10
131.575
 20
64.3
 10
131.35
 20
63.975
 10
131.075
 20
63.7
 10
130.8
 20
63.45
 10
130.5
 20
63.2
 10
130.15
 20
63.0
 10
129.8
 20
62.85
 10
129.45
 20
62.7
 10
129.05
 20
62.6
 10
128.675
 20
62.55
 10
128.25
 20
62.525
 10
127.85
 20
62.55
 10
127.45
 20
62.6
 10
127.075
 20
62.7
 10
126.7
 20
62.85
 10
126.35
 20
63.0
 10
126.025
 20
63.2
 10
125.7
 20
63.45
 10
125.425
 20
63.7
 10
125.175
 20
63.975
 10
124.925
 20
64.3
 10
124.725
 20
64.625
 10
124.575
 20
64.975
 10
124.425
 20
65.325
 10
124.325
 20
65.725
 10
124.275
 20
66.125
 10
124.25
 20
66.525
 10
124.275
 20
66.925
 10
124.325
 20
67.325
 10
124.425
 20
67.725
 10
124.575
 20
68.075
 10
124.725
 20
68.425
 10
124.925
 20
68.775
 10
125.175
 20
69.075
 10
125.425
 20
69.35
 10
125.7
 20
69.625
 10
126.025
 20
69.85
 10
126.35
 20
70.05
 10
126.7
 20
70.2
 10
127.075
 20
70.35
 10
127.45
 20
70.45
 10
127.85
 20
70.5
  0
LWPOLYLINE
  5
28
100
AcDbEntity
  8
LAY001
 62
     7
100
AcDbPolyline
 90
       64
 70
     1
 10
164.125
 20
66.5
 10
164.15
 20
66.9
 10
164.225
 20
67.3
 10
164.325
 20
67.675
 10
164.45
 20
68.05
 10
164.625
 20
68.4
 10
164.825
 20
68.725
 10
165.05
 20
69.025
 10
165.3
 20
69.325
 10
165.6
 20
69.575
 10
165.9
 20
69.8
 10
166.225
 20
70.0
 10
166.575
 20
70.175
 10
166.95
 20
70.3
 10
167.325
 20
70.4
 10
167.725
 20
70.475
 10
168.125
 20
70.5
 10
168.55
 20
70.475
 10
168.95
 20
70.4
 10
169.325
 20
70.3
 10
169.7
 20
70.175
 10
170.05
 20
70.0
 10
170.375
 20
69.8
 10
170.675
 20
69.575
 10
170.975
 20
69.325
 10
171.225
 20
69.025
 10
171.45
 20
68.725
 10
171.65
 20
68.4
 10
171.825
 20
68.05
 10
171.95
 20
67.675
 10
172.05
 20
67.3
 10
172.125
 20
66.9
 10
172.125
 20
66.5
 10
172.125
 20
66.075
 10
172.05
 20
65.675
 10
171.95
 20
65.3
 10
171.825
 20
64.925
 10
171.65
 20
64.575
 10
171.45
 20
64.25
 10
171.225
 20
63.95
 10
170.975
 20
63.65
 10
170.675
 20
63.4
 10
170.375
 20
63.175
 10
170.05
 20
62.975
 10
169.7
 20
62.8
 10
169.325
 20
62.675
 10
168.95
 20
62.575
 10
168.55
 20
62.5
 10
168.125
 20
62.5
 10
167.725
 20
62.5
 10
167.325
 20
62.575
 10
166.95
 20
62.675
 10
166.575
 20
62.8
 10
166.225
 20
62.975
 10
165.9
 20
63.175
 10
165.6
 20
63.4
 10
165.3
 20
63.65
 10
165.05
 20
63.95
 10
164.825
 20
64.25
 10
164.625
 20
64.575
 10
164.45
 20
64.925
 10
164.325
 20
65.3
 10
164.225
 20
65.675
 10
164.15
 20
66.075
  0
LWPOLYLINE
  5
29
100
AcDbEntity
  8
LAY001
 62
     7
100
AcDbPolyline
 90
        4
 70
     1
 10
194.125
 20
133.5
 10
194.125
 20
138.525
 10
199.25
 20
138.525
 10
199.25
 20
133.5
  0
LWPOLYLINE
  5
2A
100
AcDbEntity
  8
LAY001
 62
     7
100
AcDbPolyline
 90
       40
 70
     1
 10
200.625
 20
136.075
 10
200.65
 20
136.225
 10
200.675
 20
136.375
 10
200.75
 20
136.65
 10
200.9
 20
136.9
 10
201.075
 20
137.125
 10
201.3
 20
137.3
 10
201.55
 20
137.45
 10
201.825
 20
137.525
 10
201.975
 20
137.55
 10
202.125
 20
137.575
 10
202.275
 20
137.55
 10
202.425
 20
137.525
 10
202.725
 20
137.45
 10
202.975
 20
137.3
 10
203.2
 20
137.125
 10
203.375
 20
136.9
 10
203.525
 20
136.65
 10
203.6
 20
136.375
 10
203.625
 20
136.225
 10
203.625
 20
136.075
 10
203.625
 20
135.9
 10
203.6
 20
135.75
 10
203.525
 20
135.475
 10
203.375
 20
135.225
 10
203.2
 20
135.0
 10
202.975
 20
134.825
 10
202.725
 20
134.675
 10
202.425
 20
134.6
 10
202.275
 20
134.575
 10
202.125
 20
134.575
 10
201.975
 20
134.575
 10
201.825
 20
134.6
 10
201.55
 20
134.675
 10
201.3
 20
134.825
 10
201.075
 20
135.0
 10
200.9
 20
135.225
 10
200.75
 20
135.475
 10
200.675
 20
135.75
 10
200.65
 20
135.9
  0
LWPOLYLINE
  5
2B
100
AcDbEntity
  8
LAY001
 62
     7
100
AcDbPolyline
 90
        4
 70
     1
 10
205.125
 20
138.525
 10
210.875
 20
138.525
 10
210.875
 20
133.5
 10
205.125
 20
133.5
  0
LWPOLYLINE
  5
2C
100
AcDbEntity
  8
LAY001
 62
     7
100
AcDbPolyline
 90
        4
 70
     1
 10
238.4
 20
138.55
 10
243.525
 20
138.55
 10
243.525
 20
133.55
 10
238.4
 20
133.55
  0
LWPOLYLINE
  5
2D
100
AcDbEntity
  8
LAY001
 62
     7
100
AcDbPolyline
 90
       40
 70
     1
 10
244.6
 20
136.1
 10
244.625
 20
136.25
 10
244.65
 20
136.4
 10
244.725
 20
136.675
 10
244.875
 20
136.95
 10
245.05
 20
137.15
 10
245.275
 20
137.35
 10
245.525
 20
137.475
 10
245.8
 20
137.575
 10
245.95
 20
137.6
 10
246.1
 20
137.6
 10
246.25
 20
137.6
 10
246.4
 20
137.575
 10
246.7
 20
137.475
 10
246.95
 20
137.35
 10
247.175
 20
137.15
 10
247.35
 20
136.95
 10
247.5
 20
136.675
 10
247.575
 20
136.4
 10
247.6
 20
136.25
 10
247.6
 20
136.1
 10
247.6
 20
135.95
 10
247.575
 20
135.8
 10
247.5
 20
135.525
 10
247.35
 20
135.275
 10
247.175
 20
135.05
 10
246.95
 20
134.85
 10
246.7
 20
134.725
 10
246.4
 20
134.625
 10
246.25
 20
134.6
 10
246.1
 20
134.6
 10
245.95
 20
134.6
 10
245.8
 20
134.625
 10
245.525
 20
134.725
 10
245.275
 20
134.85
 10
245.05
 20
135.05
 10
244.875
 20
135.275
 10
244.725
 20
135.525
 10
244.65
 20
135.8
 10
244.625
 20
135.95
  0
LWPOLYLINE
  5
2E
100
AcDbEntity
  8
LAY001
 62
     7
100
AcDbPolyline
 90
        4
 70
     1
 10
248.5
 20
138.55
 10
253.375
 20
138.55
 10
253.375
 20
133.55
 10
248.5
 20
133.55
  0
LWPOLYLINE
  5
2F
100
AcDbEntity
  8
LAY001
 62
     7
100
AcDbPolyline
 90
        4
 70
     1
 10
253.35
 20
172.95
 10
248.475
 20
172.95
 10
248.475
 20
177.975
 10
253.35
 20
177.975
  0
LWPOLYLINE
  5
30
100
AcDbEntity
  8
LAY001
 62
     7
100
AcDbPolyline
 90
       40
 70
     1
 10
247.6
 20
175.5
 10
247.575
 20
175.35
 10
247.55
 20
175.2
 10
247.475
 20
174.925
 10
247.325
 20
174.675
 10
247.15
 20
174.45
 10
246.925
 20
174.275
 10
246.675
 20
174.125
 10
246.4
 20
174.025
 10
246.25
 20
174.025
 10
246.1
 20
174.0
 10
245.95
 20
174.025
 10
245.8
 20
174.025
 10
245.5
 20
174.125
 10
245.25
 20
174.275
 10
245.025
 20
174.45
 10
244.85
 20
174.675
 10
244.7
 20
174.925
 10
244.625
 20
175.2
 10
244.6
 20
175.35
 10
244.6
 20
175.5
 10
244.6
 20
175.65
 10
244.625
 20
175.8
 10
244.7
 20
176.1
 10
244.85
 20
176.35
 10
245.025
 20
176.575
 10
245.25
 20
176.75
 10
245.5
 20
176.9
 10
245.8
 20
176.975
 10
245.95
 20
177.0
 10
246.1
 20
177.0
 10
246.25
 20
177.0
 10
246.4
 20
176.975
 10
246.675
 20
176.9
 10
246.925
 20
176.75
 10
247.15
 20
176.575
 10
247.325
 20
176.35
 10
247.475
 20
176.1
 10
247.55
 20
175.8
 10
247.575
 20
175.65
  0
LWPOLYLINE
  5
31
100
AcDbEntity
  8
LAY001
 62
     7
100
AcDbPolyline
 90
        4
 70
     1
 10
243.5
 20
177.975
 10
243.5
 20
172.95
 10
238.375
 20
172.95
 10
238.375
 20
177.975
  0
LWPOLYLINE
  5
32
100
AcDbEntity
  8
LAY001
 62
     7
100
AcDbPolyline
 90
        4
 70
     1
 10
210.875
 20
177.975
 10
210.875
 20
172.95
 10
205.125
 20
172.95
 10
205.125
 20
177.975
  0
LWPOLYLINE
  5
33
100
AcDbEntity
  8
LAY001
 62
     7
100
AcDbPolyline
 90
       40
 70
     1
 10
203.65
 20
175.5
 10
203.65
 20
175.35
 10
203.625
 20
175.2
 10
203.525
 20
174.925
 10
203.4
 20
174.675
 10
203.225
 20
174.45
 10
203.0
 20
174.275
 10
202.725
 20
174.125
 10
202.45
 20
174.025
 10
202.3
 20
174.025
 10
202.15
 20
174.0
 10
202.0
 20
174.025
 10
201.85
 20
174.025
 10
201.575
 20
174.125
 10
201.325
 20
174.275
 10
201.1
 20
174.45
 10
200.9
 20
174.675
 10
200.775
 20
174.925
 10
200.675
 20
175.2
 10
200.65
 20
175.35
 10
200.65
 20
175.5
 10
200.65
 20
175.65
 10
200.675
 20
175.8
 10
200.775
 20
176.1
 10
200.9
 20
176.35
 10
201.1
 20
176.575
 10
201.325
 20
176.75
 10
201.575
 20
176.9
 10
201.85
 20
176.975
 10
202.0
 20
177.0
 10
202.15
 20
177.0
 10
202.3
 20
177.0
 10
202.45
 20
176.975
 10
202.725
 20
176.9
 10
203.0
 20
176.75
 10
203.225
 20
176.575
 10
203.4
 20
176.35
 10
203.525
 20
176.1
 10
203.625
 20
175.8
 10
203.65
 20
175.65
  0
LWPOLYLINE
  5
34
100
AcDbEntity
  8
LAY001
 62
     7
100
AcDbPolyline
 90
        4
 70
     1
 10
199.275
 20
177.975
 10
199.275
 20
172.95
 10
194.15
 20
172.95
 10
194.15
 20
177.975
  0
LWPOLYLINE
  5
35
100
AcDbEntity
  8
LAY001
 62
     7
100
AcDbPolyline
 90
       40
 70
     1
 10
279.425
 20
125.2
 10
279.45
 20
125.35
 10
279.475
 20
125.5
 10
279.55
 20
125.775
 10
279.7
 20
126.025
 10
279.875
 20
126.25
 10
280.1
 20
126.45
 10
280.35
 20
126.575
 10
280.625
 20
126.675
 10
280.775
 20
126.7
 10
280.925
 20
126.7
 10
281.1
 20
126.7
 10
281.25
 20
126.675
 10
281.525
 20
126.575
 10
281.775
 20
126.45
 10
282.0
 20
126.25
 10
282.175
 20
126.025
 10
282.325
 20
125.775
 10
282.4
 20
125.5
 10
282.425
 20
125.35
 10
282.425
 20
125.2
 10
282.425
 20
125.05
 10
282.4
 20
124.9
 10
282.325
 20
124.625
 10
282.175
 20
124.35
 10
282.0
 20
124.125
 10
281.775
 20
123.95
 10
281.525
 20
123.825
 10
281.25
 20
123.725
 10
281.1
 20
123.7
 10
280.925
 20
123.7
 10
280.775
 20
123.7
 10
280.625
 20
123.725
 10
280.35
 20
123.825
 10
280.1
 20
123.95
 10
279.875
 20
124.125
 10
279.7
 20
124.35
 10
279.55
 20
124.625
 10
279.475
 20
124.9
 10
279.45
 20
125.05
  0
LWPOLYLINE
  5
36
100
AcDbEntity
  8
LAY001
 62
     7
100
AcDbPolyline
 90
       40
 70
     1
 10
280.925
 20
52.7
 10
281.075
 20
52.7
 10
281.225
 20
52.675
 10
281.5
 20
52.575
 10
281.75
 20
52.45
 10
281.975
 20
52.25
 10
282.175
 20
52.025
 10
282.3
 20
51.775
 10
282.4
 20
51.5
 10
282.425
 20
51.35
 10
282.425
 20
51.2
 10
282.425
 20
51.05
 10
282.4
 20
50.9
 10
282.3
 20
50.625
 10
282.175
 20
50.35
 10
281.975
 20
50.125
 10
281.75
 20
49.95
 10
281.5
 20
49.825
 10
281.225
 20
49.725
 10
281.075
 20
49.7
 10
280.925
 20
49.7
 10
280.775
 20
49.7
 10
280.625
 20
49.725
 10
280.35
 20
49.825
 10
280.075
 20
49.95
 10
279.85
 20
50.125
 10
279.675
 20
50.35
 10
279.55
 20
50.625
 10
279.45
 20
50.9
 10
279.425
 20
51.05
 10
279.425
 20
51.2
 10
279.425
 20
51.35
 10
279.45
 20
51.5
 10
279.55
 20
51.775
 10
279.675
 20
52.025
 10
279.85
 20
52.25
 10
280.075
 20
52.45
 10
280.35
 20
52.575
 10
280.625
 20
52.675
 10
280.775
 20
52.7
  0
LWPOLYLINE
  5
37
100
AcDbEntity
  8
LAY001
 62
     7
100
AcDbPolyline
 90
       40
 70
     1
 10
248.5
 20
46.25
 10
248.5
 20
46.075
 10
248.475
 20
45.925
 10
248.375
 20
45.65
 10
248.25
 20
45.4
 10
248.05
 20
45.175
 10
247.825
 20
45.0
 10
247.575
 20
44.85
 10
247.3
 20
44.775
 10
247.15
 20
44.75
 10
247.0
 20
44.75
 10
246.85
 20
44.75
 10
246.7
 20
44.775
 10
246.425
 20
44.85
 10
246.15
 20
45.0
 10
245.925
 20
45.175
 10
245.75
 20
45.4
 10
245.625
 20
45.65
 10
245.525
 20
45.925
 10
245.5
 20
46.075
 10
245.5
 20
46.25
 10
245.5
 20
46.4
 10
245.525
 20
46.55
 10
245.625
 20
46.825
 10
245.75
 20
47.075
 10
245.925
 20
47.3
 10
246.15
 20
47.475
 10
246.425
 20
47.625
 10
246.7
 20
47.7
 10
246.85
 20
47.725
 10
247.0
 20
47.725
 10
247.15
 20
47.725
 10
247.3
 20
47.7
 10
247.575
 20
47.625
 10
247.825
 20
47.475
 10
248.05
 20
47.3
 10
248.25
 20
47.075
 10
248.375
 20
46.825
 10
248.475
 20
46.55
 10
248.5
 20
46.4
  0
LWPOLYLINE
  5
38
100
AcDbEntity
  8
LAY001
 62
     7
100
AcDbPolyline
 90
        4
 70
     1
 10
256.675
 20
131.25
 10
256.675
 20
136.925
 10
266.9
 20
136.925
 10
266.9
 20
131.25
  0
LWPOLYLINE
  5
39
100
AcDbEntity
  8
LAY001
 62
     7
100
AcDbPolyline
 90
        4
 70
     1
 10
270.075
 20
180.1
 10
270.075
 20
200.1
 10
290.075
 20
200.1
 10
290.075
 20
180.1
  0
LWPOLYLINE
  5
3A
100
AcDbEntity
  8
LAY001
 62
     7
100
AcDbPolyline
 90
       56
 70
     1
 10
238.425
 20
190.525
 10
238.4
 20
190.725
 10
238.375
 20
190.925
 10
238.325
 20
191.125
 10
238.25
 20
191.3
 10
238.175
 20
191.475
 10
238.075
 20
191.65
 10
237.825
 20
191.95
 10
237.525
 20
192.2
 10
237.375
 20
192.3
 10
237.2
 20
192.375
 10
237.0
 20
192.45
 10
236.825
 20
192.5
 10
236.625
 20
192.525
 10
236.425
 20
192.525
 10
236.2
 20
192.525
 10
236.025
 20
192.5
 10
235.825
 20
192.45
 10
235.65
 20
192.375
 10
235.475
 20
192.3
 10
235.3
 20
192.2
 10
235.0
 20
191.95
 10
234.75
 20
191.65
 10
234.65
 20
191.475
 10
234.575
 20
191.3
 10
234.5
 20
191.125
 10
234.45
 20
190.925
 10
234.425
 20
190.725
 10
234.425
 20
190.525
 10
234.425
 20
190.325
 10
234.45
 20
190.125
 10
234.5
 20
189.925
 10
234.575
 20
189.75
 10
234.65
 20
189.575
 10
234.75
 20
189.425
 10
235.0
 20
189.125
 10
235.3
 20
188.875
 10
235.475
 20
188.775
 10
235.65
 20
188.7
 10
235.825
 20
188.625
 10
236.025
 20
188.575
 10
236.2
 20
188.55
 10
236.425
 20
188.525
 10
236.625
 20
188.55
 10
236.825
 20
188.575
 10
237.0
 20
188.625
 10
237.2
 20
188.7
 10
237.375
 20
188.775
 10
237.525
 20
188.875
 10
237.825
 20
189.125
 10
238.075
 20
189.425
 10
238.175
 20
189.575
 10
238.25
 20
189.75
 10
238.325
 20
189.925
 10
238.375
 20
190.125
 10
238.4
 20
190.325
  0
LWPOLYLINE
  5
3B
100
AcDbEntity
  8
LAY001
 62
     7
100
AcDbPolyline
 90
        4
 70
     1
 10
256.3
 20
39.15
 10
267.675
 20
39.15
 10
267.675
 20
32.5
 10
256.3
 20
32.5
  0
LWPOLYLINE
  5
3C
100
AcDbEntity
  8
LAY001
 62
     7
100
AcDbPolyline
 90
       56
 70
     1
 10
227.025
 20
11.3
 10
226.8
 20
11.3
 10
226.625
 20
11.25
 10
226.425
 20
11.2
 10
226.25
 20
11.15
 10
226.075
 20
11.05
 10
225.9
 20
10.95
 10
225.6
 20
10.725
 10
225.35
 20
10.425
 10
225.25
 20
10.25
 10
225.175
 20
10.075
 10
225.1
 20
9.9
 10
225.05
 20
9.7
 10
225.025
 20
9.5
 10
225.025
 20
9.3
 10
225.025
 20
9.1
 10
225.05
 20
8.9
 10
225.1
 20
8.7
 10
225.175
 20
8.525
 10
225.25
 20
8.35
 10
225.35
 20
8.175
 10
225.6
 20
7.875
 10
225.9
 20
7.65
 10
226.075
 20
7.55
 10
226.25
 20
7.45
 10
226.425
 20
7.4
 10
226.625
 20
7.35
 10
226.8
 20
7.3
 10
227.025
 20
7.3
 10
227.225
 20
7.3
 10
227.425
 20
7.35
 10
227.6
 20
7.4
 10
227.8
 20
7.45
 10
227.975
 20
7.55
 10
228.125
 20
7.65
 10
228.425
 20
7.875
 10
228.675
 20
8.175
 10
228.775
 20
8.35
 10
228.85
 20
8.525
 10
228.925
 20
8.7
 10
228.975
 20
8.9
 10
229.0
 20
9.1
 10
229.025
 20
9.3
 10
229.0
 20
9.5
 10
228.975
 20
9.7
 10
228.925
 20
9.9
 10
228.85
 20
10.075
 10
228.775
 20
10.25
 10
228.675
 20
10.425
 10
228.425
 20
10.725
 10
228.125
 20
10.95
 10
227.975
 20
11.05
 10
227.8
 20
11.15
 10
227.6
 20
11.2
 10
227.425
 20
11.25
 10
227.225
 20
11.3
  0
LWPOLYLINE
  5
3D
100
AcDbEntity
  8
LAY001
 62
     7
100
AcDbPolyline
 90
       56
 70
     1
 10
157.1
 20
21.975
 10
157.1
 20
21.775
 10
157.075
 20
21.575
 10
157.025
 20
21.4
 10
156.95
 20
21.2
 10
156.85
 20
21.025
 10
156.75
 20
20.875
 10
156.525
 20
20.575
 10
156.225
 20
20.325
 10
156.05
 20
20.225
 10
155.875
 20
20.15
 10
155.7
 20
20.075
 10
155.5
 20
20.025
 10
155.3
 20
20.0
 10
155.1
 20
19.975
 10
154.9
 20
20.0
 10
154.7
 20
20.025
 10
154.5
 20
20.075
 10
154.325
 20
20.15
 10
154.15
 20
20.225
 10
153.975
 20
20.325
 10
153.7
 20
20.575
 10
153.45
 20
20.875
 10
153.35
 20
21.025
 10
153.25
 20
21.2
 10
153.2
 20
21.4
 10
153.15
 20
21.575
 10
153.125
 20
21.775
 10
153.1
 20
21.975
 10
153.125
 20
22.2
 10
153.15
 20
22.4
 10
153.2
 20
22.575
 10
153.25
 20
22.775
 10
153.35
 20
22.95
 10
153.45
 20
23.1
 10
153.7
 20
23.4
 10
153.975
 20
23.65
 10
154.15
 20
23.75
 10
154.325
 20
23.825
 10
154.5
 20
23.9
 10
154.7
 20
23.95
 10
154.9
 20
23.975
 10
155.1
 20
23.975
 10
155.3
 20
23.975
 10
155.5
 20
23.95
 10
155.7
 20
23.9
 10
155.875
 20
23.825
 10
156.05
 20
23.75
 10
156.225
 20
23.65
 10
156.525
 20
23.4
 10
156.75
 20
23.1
 10
156.85
 20
22.95
 10
156.95
 20
22.775
 10
157.025
 20
22.575
 10
157.075
 20
22.4
 10
157.1
 20
22.2
  0
LWPOLYLINE
  5
3E
100
AcDbEntity
  8
LAY001
 62
     7
100
AcDbPolyline
 90
       56
 70
     1
 10
121.225
 20
22.025
 10
121.2
 20
21.825
 10
121.175
 20
21.625
 10
121.125
 20
21.425
 10
121.05
 20
21.25
 10
120.975
 20
21.075
 10
120.875
 20
20.9
 10
120.625
 20
20.6
 10
120.325
 20
20.375
 10
120.175
 20
20.275
 10
120.0
 20
20.175
 10
119.825
 20
20.125
 10
119.625
 20
20.075
 10
119.425
 20
20.025
 10
119.225
 20
20.025
 10
119.025
 20
20.025
 10
118.825
 20
20.075
 10
118.625
 20
20.125
 10
118.45
 20
20.175
 10
118.275
 20
20.275
 10
118.1
 20
20.375
 10
117.8
 20
20.6
 10
117.55
 20
20.9
 10
117.45
 20
21.075
 10
117.375
 20
21.25
 10
117.3
 20
21.425
 10
117.25
 20
21.625
 10
117.225
 20
21.825
 10
117.225
 20
22.025
 10
117.225
 20
22.225
 10
117.25
 20
22.425
 10
117.3
 20
22.625
 10
117.375
 20
22.8
 10
117.45
 20
22.975
 10
117.55
 20
23.15
 10
117.8
 20
23.45
 10
118.1
 20
23.675
 10
118.275
 20
23.775
 10
118.45
 20
23.875
 10
118.625
 20
23.925
 10
118.825
 20
23.975
 10
119.025
 20
24.025
 10
119.225
 20
24.025
 10
119.425
 20
24.025
 10
119.625
 20
23.975
 10
119.825
 20
23.925
 10
120.0
 20
23.875
 10
120.175
 20
23.775
 10
120.325
 20
23.675
 10
120.625
 20
23.45
 10
120.875
 20
23.15
 10
120.975
 20
22.975
 10
121.05
 20
22.8
 10
121.125
 20
22.625
 10
121.175
 20
22.425
 10
121.2
 20
22.225
  0
LWPOLYLINE
  5
3F
100
AcDbEntity
  8
LAY001
 62
     7
100
AcDbPolyline
 90
       56
 70
     1
 10
97.75
 20
23.95
 10
97.975
 20
23.95
 10
98.15
 20
23.925
 10
98.35
 20
23.875
 10
98.525
 20
23.8
 10
98.7
 20
23.7
 10
98.875
 20
23.6
 10
99.175
 20
23.375
 10
99.425
 20
23.075
 10
99.525
 20
22.9
 10
99.6
 20
22.725
 10
99.675
 20
22.55
 10
99.725
 20
22.35
 10
99.75
 20
22.15
 10
99.75
 20
21.95
 10
99.75
 20
21.75
 10
99.725
 20
21.55
 10
99.675
 20
21.35
 10
99.6
 20
21.175
 10
99.525
 20
21.0
 10
99.425
 20
20.825
 10
99.175
 20
20.55
 10
98.875
 20
20.3
 10
98.7
 20
20.2
 10
98.525
 20
20.1
 10
98.35
 20
20.05
 10
98.15
 20
20.0
 10
97.975
 20
19.975
 10
97.75
 20
19.95
 10
97.55
 20
19.975
 10
97.35
 20
20.0
 10
97.175
 20
20.05
 10
96.975
 20
20.1
 10
96.8
 20
20.2
 10
96.65
 20
20.3
 10
96.35
 20
20.55
 10
96.1
 20
20.825
 10
96.0
 20
21.0
 10
95.925
 20
21.175
 10
95.85
 20
21.35
 10
95.8
 20
21.55
 10
95.775
 20
21.75
 10
95.75
 20
21.95
 10
95.775
 20
22.15
 10
95.8
 20
22.35
 10
95.85
 20
22.55
 10
95.925
 20
22.725
 10
96.0
 20
22.9
 10
96.1
 20
23.075
 10
96.35
 20
23.375
 10
96.65
 20
23.6
 10
96.8
 20
23.7
 10
96.975
 20
23.8
 10
97.175
 20
23.875
 10
97.35
 20
23.925
 10
97.55
 20
23.95
  0
LWPOLYLINE
  5
40
100
AcDbEntity
  8
LAY001
 62
     7
100
AcDbPolyline
 90
       56
 70
     1
 10
63.875
 20
22.0
 10
63.875
 20
21.775
 10
63.825
 20
21.6
 10
63.775
 20
21.4
 10
63.725
 20
21.225
 10
63.625
 20
21.05
 10
63.525
 20
20.875
 10
63.3
 20
20.575
 10
63.0
 20
20.325
 10
62.825
 20
20.225
 10
62.65
 20
20.15
 10
62.475
 20
20.075
 10
62.275
 20
20.025
 10
62.075
 20
20.0
 10
61.875
 20
20.0
 10
61.675
 20
20.0
 10
61.475
 20
20.025
 10
61.275
 20
20.075
 10
61.1
 20
20.15
 10
60.925
 20
20.225
 10
60.75
 20
20.325
 10
60.45
 20
20.575
 10
60.225
 20
20.875
 10
60.125
 20
21.05
 10
60.025
 20
21.225
 10
59.975
 20
21.4
 10
59.925
 20
21.6
 10
59.875
 20
21.775
 10
59.875
 20
22.0
 10
59.875
 20
22.2
 10
59.925
 20
22.4
 10
59.975
 20
22.575
 10
60.025
 20
22.775
 10
60.125
 20
22.95
 10
60.225
 20
23.1
 10
60.45
 20
23.4
 10
60.75
 20
23.65
 10
60.925
 20
23.75
 10
61.1
 20
23.825
 10
61.275
 20
23.9
 10
61.475
 20
23.95
 10
61.675
 20
23.975
 10
61.875
 20
24.0
 10
62.075
 20
23.975
 10
62.275
 20
23.95
 10
62.475
 20
23.9
 10
62.65
 20
23.825
 10
62.825
 20
23.75
 10
63.0
 20
23.65
 10
63.3
 20
23.4
 10
63.525
 20
23.1
 10
63.625
 20
22.95
 10
63.725
 20
22.775
 10
63.775
 20
22.575
 10
63.825
 20
22.4
 10
63.875
 20
22.2
  0
LWPOLYLINE
  5
41
100
AcDbEntity
  8
LAY001
 62
     7
100
AcDbPolyline
 90
       56
 70
     1
 10
44.825
 20
11.775
 10
45.025
 20
11.775
 10
45.225
 20
11.725
 10
45.425
 20
11.675
 10
45.6
 20
11.625
 10
45.775
 20
11.525
 10
45.95
 20
11.425
 10
46.225
 20
11.2
 10
46.475
 20
10.9
 10
46.575
 20
10.725
 10
46.675
 20
10.55
 10
46.725
 20
10.375
 10
46.775
 20
10.175
 10
46.825
 20
9.975
 10
46.825
 20
9.775
 10
46.825
 20
9.575
 10
46.775
 20
9.375
 10
46.725
 20
9.175
 10
46.675
 20
9.0
 10
46.575
 20
8.825
 10
46.475
 20
8.65
 10
46.225
 20
8.35
 10
45.95
 20
8.125
 10
45.775
 20
8.025
 10
45.6
 20
7.925
 10
45.425
 20
7.875
 10
45.225
 20
7.825
 10
45.025
 20
7.775
 10
44.825
 20
7.775
 10
44.625
 20
7.775
 10
44.425
 20
7.825
 10
44.225
 20
7.875
 10
44.05
 20
7.925
 10
43.875
 20
8.025
 10
43.7
 20
8.125
 10
43.4
 20
8.35
 10
43.175
 20
8.65
 10
43.075
 20
8.825
 10
42.975
 20
9.0
 10
42.925
 20
9.175
 10
42.875
 20
9.375
 10
42.825
 20
9.575
 10
42.825
 20
9.775
 10
42.825
 20
9.975
 10
42.875
 20
10.175
 10
42.925
 20
10.375
 10
42.975
 20
10.55
 10
43.075
 20
10.725
 10
43.175
 20
10.9
 10
43.4
 20
11.2
 10
43.7
 20
11.425
 10
43.875
 20
11.525
 10
44.05
 20
11.625
 10
44.225
 20
11.675
 10
44.425
 20
11.725
 10
44.625
 20
11.775
  0
LWPOLYLINE
  5
42
100
AcDbEntity
  8
LAY001
 62
     7
100
AcDbPolyline
 90
        4
 70
     1
 10
20.05
 20
20.025
 10
20.05
 20
0.025
 10
0.05
 20
0.025
 10
0.05
 20
20.025
  0
LWPOLYLINE
  5
43
100
AcDbEntity
  8
LAY001
 62
     7
100
AcDbPolyline
 90
        4
 70
     1
 10
0.0
 20
0.0
 10
0.0
 20
200.125
 10
290.075
 20
200.125
 10
290.075
 20
0.0
  0
LWPOLYLINE
  5
44
100
AcDbEntity
  8
LAY001
 62
     7
100
AcDbPolyline
 90
        4
 70
     1
 10
270.1
 20
0.0
 10
270.1
 20
20.0
 10
290.1
 20
20.0
 10
290.1
 20
0.0
  0
LWPOLYLINE
  5
46
100
AcDbEntity
  8
LAY002
 62
     1
100
AcDbPolyline
 90
        4
 70
     1
 10
97.825
 20
77.8
 10
100.925
 20
77.8
 10
100.925
 20
77.4
 10
97.825
 20
77.4
  0
LWPOLYLINE
  5
47
100
AcDbEntity
  8
LAY002
 62
     1
100
AcDbPolyline
 90
       26
 70
     1
 10
98.675
 20
78.175
 10
98.675
 20
78.6
 10
100.45
 20
79.225
 10
98.675
 20
79.85
 10
98.675
 20
80.3
 10
100.925
 20
79.4
 10
101.075
 20
79.35
 10
101.225
 20
79.3
 10
101.325
 20
79.25
 10
101.425
 20
79.2
 10
101.6
 20
79.1
 10
101.725
 20
78.975
 10
101.825
 20
78.8
 10
101.85
 20
78.6
 10
101.825
 20
78.475
 10
101.825
 20
78.35
 10
101.45
 20
78.35
 10
101.475
 20
78.55
 10
101.475
 20
78.625
 10
101.45
 20
78.7
 10
101.4
 20
78.75
 10
101.325
 20
78.825
 10
101.25
 20
78.875
 10
101.175
 20
78.95
 10
101.05
 20
79.0
 10
100.925
 20
79.05
  0
LWPOLYLINE
  5
48
100
AcDbEntity
  8
LAY002
 62
     1
100
AcDbPolyline
 90
       25
 70
     1
 10
99.15
 20
76.35
 10
99.05
 20
76.275
 10
99.0
 20
76.175
 10
98.95
 20
76.05
 10
98.925
 20
75.925
 10
98.95
 20
75.775
 10
99.025
 20
75.6
 10
99.15
 20
75.45
 10
99.325
 20
75.3
 10
100.4
 20
75.3
 10
100.525
 20
75.45
 10
100.6
 20
75.6
 10
100.65
 20
75.75
 10
100.675
 20
75.925
 10
100.65
 20
76.05
 10
100.625
 20
76.15
 10
100.55
 20
76.25
 10
100.45
 20
76.35
 10
100.325
 20
76.4
 10
100.175
 20
76.45
 10
100.0
 20
76.5
 10
99.775
 20
76.5
 10
99.6
 20
76.5
 10
99.425
 20
76.45
 10
99.275
 20
76.425
  0
LWPOLYLINE
  5
49
100
AcDbEntity
  8
LAY002
 62
     1
100
AcDbPolyline
 90
       29
 70
     1
 10
98.625
 20
75.975
 10
98.65
 20
76.175
 10
98.7
 20
76.375
 10
98.8
 20
76.55
 10
98.925
 20
76.675
 10
99.1
 20
76.775
 10
99.3
 20
76.875
 10
99.525
 20
76.9
 10
99.775
 20
76.925
 10
100.05
 20
76.9
 10
100.275
 20
76.85
 10
100.475
 20
76.775
 10
100.65
 20
76.65
 10
100.8
 20
76.5
 10
100.9
 20
76.325
 10
100.975
 20
76.15
 10
100.975
 20
75.95
 10
100.975
 20
75.775
 10
100.925
 20
75.6
 10
100.85
 20
75.45
 10
100.75
 20
75.3
 10
101.8
 20
75.3
 10
101.8
 20
74.9
 10
98.675
 20
74.9
 10
98.675
 20
75.3
 10
98.95
 20
75.3
 10
98.8
 20
75.45
 10
98.7
 20
75.625
 10
98.65
 20
75.775
  0
LWPOLYLINE
  5
4A
100
AcDbEntity
  8
LAY002
 62
     1
100
AcDbPolyline
 90
       25
 70
     1
 10
99.15
 20
73.85
 10
99.05
 20
73.775
 10
99.0
 20
73.675
 10
98.95
 20
73.575
 10
98.925
 20
73.45
 10
98.95
 20
73.275
 10
99.025
 20
73.125
 10
99.15
 20
72.95
 10
99.325
 20
72.825
 10
100.4
 20
72.825
 10
100.525
 20
72.95
 10
100.6
 20
73.1
 10
100.65
 20
73.25
 10
100.675
 20
73.425
 10
100.65
 20
73.55
 10
100.625
 20
73.675
 10
100.55
 20
73.775
 10
100.45
 20
73.85
 10
100.325
 20
73.925
 10
100.175
 20
73.975
 10
100.0
 20
74.0
 10
99.775
 20
74.0
 10
99.6
 20
74.0
 10
99.425
 20
73.975
 10
99.275
 20
73.925
  0
LWPOLYLINE
  5
4B
100
AcDbEntity
  8
LAY002
 62
     1
100
AcDbPolyline
 90
       29
 70
     1
 10
98.625
 20
73.475
 10
98.65
 20
73.7
 10
98.7
 20
73.875
 10
98.8
 20
74.05
 10
98.925
 20
74.175
 10
99.1
 20
74.3
 10
99.3
 20
74.375
 10
99.525
 20
74.425
 10
99.775
 20
74.425
 10
100.05
 20
74.425
 10
100.275
 20
74.375
 10
100.475
 20
74.275
 10
100.65
 20
74.15
 10
100.8
 20
74.0
 10
100.9
 20
73.85
 10
100.975
 20
73.65
 10
100.975
 20
73.45
 10
100.975
 20
73.275
 10
100.925
 20
73.1
 10
100.85
 20
72.95
 10
100.75
 20
72.825
 10
101.8
 20
72.825
 10
101.8
 20
72.4
 10
98.675
 20
72.4
 10
98.675
 20
72.825
 10
98.95
 20
72.825
 10
98.8
 20
72.95
 10
98.7
 20
73.125
 10
98.65
 20
73.3
  0
LWPOLYLINE
  5
4C
100
AcDbEntity
  8
LAY002
 62
     1
100
AcDbPolyline
 90
       32
 70
     1
 10
98.675
 20
71.8
 10
100.925
 20
71.8
 10
100.925
 20
71.375
 10
100.65
 20
71.375
 10
100.8
 20
71.225
 10
100.9
 20
71.05
 10
100.95
 20
70.875
 10
100.975
 20
70.675
 10
100.975
 20
70.5
 10
100.925
 20
70.35
 10
100.875
 20
70.2
 10
100.775
 20
70.1
 10
100.65
 20
70.0
 10
100.525
 20
69.95
 10
100.35
 20
69.925
 10
100.15
 20
69.9
 10
98.675
 20
69.9
 10
98.675
 20
70.325
 10
100.125
 20
70.325
 10
100.25
 20
70.325
 10
100.375
 20
70.35
 10
100.45
 20
70.375
 10
100.525
 20
70.425
 10
100.575
 20
70.475
 10
100.625
 20
70.55
 10
100.65
 20
70.65
 10
100.65
 20
70.75
 10
100.625
 20
70.925
 10
100.55
 20
71.075
 10
100.45
 20
71.225
 10
100.3
 20
71.375
 10
98.675
 20
71.375
  0
LWPOLYLINE
  5
4D
100
AcDbEntity
  8
LAY002
 62
     1
100
AcDbPolyline
 90
      100
 70
     1
 10
98.7
 20
69.3
 10
98.7
 20
68.875
 10
98.575
 20
68.85
 10
98.45
 20
68.8
 10
98.35
 20
68.75
 10
98.275
 20
68.65
 10
98.2
 20
68.55
 10
98.175
 20
68.4
 10
98.15
 20
68.25
 10
98.125
 20
68.075
 10
98.15
 20
67.925
 10
98.175
 20
67.775
 10
98.2
 20
67.65
 10
98.25
 20
67.525
 10
98.325
 20
67.45
 10
98.4
 20
67.4
 10
98.5
 20
67.35
 10
98.6
 20
67.35
 10
98.7
 20
67.35
 10
98.775
 20
67.375
 10
98.85
 20
67.425
 10
98.9
 20
67.5
 10
98.95
 20
67.6
 10
99.0
 20
67.725
 10
99.05
 20
67.875
 10
99.075
 20
68.075
 10
99.125
 20
68.275
 10
99.175
 20
68.475
 10
99.225
 20
68.625
 10
99.275
 20
68.75
 10
99.375
 20
69.0
 10
99.55
 20
69.2
 10
99.65
 20
69.275
 10
99.775
 20
69.325
 10
99.9
 20
69.35
 10
100.05
 20
69.375
 10
100.25
 20
69.35
 10
100.425
 20
69.3
 10
100.575
 20
69.2
 10
100.725
 20
69.05
 10
100.825
 20
68.875
 10
100.925
 20
68.675
 10
100.975
 20
68.425
 10
100.975
 20
68.175
 10
100.975
 20
67.875
 10
100.9
 20
67.6
 10
100.825
 20
67.35
 10
100.675
 20
67.175
 10
100.525
 20
67.025
 10
100.35
 20
66.925
 10
100.15
 20
66.85
 10
99.925
 20
66.825
 10
99.925
 20
67.225
 10
100.1
 20
67.25
 10
100.225
 20
67.325
 10
100.35
 20
67.4
 10
100.45
 20
67.525
 10
100.525
 20
67.675
 10
100.575
 20
67.825
 10
100.6
 20
67.975
 10
100.6
 20
68.175
 10
100.6
 20
68.325
 10
100.575
 20
68.5
 10
100.525
 20
68.625
 10
100.475
 20
68.75
 10
100.4
 20
68.825
 10
100.3
 20
68.9
 10
100.2
 20
68.95
 10
100.075
 20
68.95
 10
99.95
 20
68.95
 10
99.85
 20
68.9
 10
99.775
 20
68.825
 10
99.7
 20
68.725
 10
99.65
 20
68.6
 10
99.6
 20
68.425
 10
99.525
 20
68.2
 10
99.475
 20
67.95
 10
99.425
 20
67.7
 10
99.35
 20
67.475
 10
99.25
 20
67.3
 10
99.15
 20
67.175
 10
99.05
 20
67.05
 10
98.925
 20
66.975
 10
98.775
 20
66.95
 10
98.625
 20
66.925
 10
98.45
 20
66.95
 10
98.275
 20
67.0
 10
98.125
 20
67.1
 10
98.0
 20
67.25
 10
97.9
 20
67.4
 10
97.825
 20
67.6
 10
97.775
 20
67.825
 10
97.75
 20
68.075
 10
97.775
 20
68.325
 10
97.825
 20
68.55
 10
97.9
 20
68.775
 10
98.0
 20
68.95
 10
98.15
 20
69.1
 10
98.3
 20
69.2
 10
98.475
 20
69.275
  0
LWPOLYLINE
  5
4E
100
AcDbEntity
  8
LAY002
 62
     1
100
AcDbPolyline
 90
       17
 70
     1
 10
98.65
 20
65.45
 10
99.05
 20
65.45
 10
99.025
 20
65.325
 10
99.025
 20
65.2
 10
99.025
 20
65.05
 10
99.1
 20
64.9
 10
99.2
 20
64.775
 10
99.325
 20
64.65
 10
100.925
 20
64.65
 10
100.925
 20
64.225
 10
98.675
 20
64.225
 10
98.675
 20
64.65
 10
99.0
 20
64.65
 10
98.825
 20
64.775
 10
98.725
 20
64.925
 10
98.65
 20
65.1
 10
98.625
 20
65.25
  0
LWPOLYLINE
  5
4F
100
AcDbEntity
  8
LAY002
 62
     1
100
AcDbPolyline
 90
       17
 70
     1
 10
99.575
 20
63.35
 10
99.425
 20
63.3
 10
99.3
 20
63.25
 10
99.2
 20
63.2
 10
99.1
 20
63.125
 10
99.025
 20
63.025
 10
98.975
 20
62.925
 10
98.95
 20
62.8
 10
98.925
 20
62.675
 10
98.95
 20
62.575
 10
98.975
 20
62.45
 10
99.025
 20
62.35
 10
99.1
 20
62.25
 10
99.175
 20
62.175
 10
99.3
 20
62.125
 10
99.425
 20
62.075
 10
99.575
 20
62.025
  0
LWPOLYLINE
  5
50
100
AcDbEntity
  8
LAY002
 62
     1
100
AcDbPolyline
 90
       49
 70
     1
 10
98.925
 20
63.475
 10
99.1
 20
63.6
 10
99.3
 20
63.7
 10
99.55
 20
63.75
 10
99.8
 20
63.775
 10
99.9
 20
63.775
 10
99.9
 20
62.025
 10
100.075
 20
62.05
 10
100.25
 20
62.1
 10
100.375
 20
62.15
 10
100.475
 20
62.25
 10
100.55
 20
62.35
 10
100.625
 20
62.475
 10
100.65
 20
62.6
 10
100.675
 20
62.725
 10
100.65
 20
62.925
 10
100.55
 20
63.125
 10
100.5
 20
63.2
 10
100.425
 20
63.25
 10
100.35
 20
63.3
 10
100.25
 20
63.3
 10
100.25
 20
63.725
 10
100.425
 20
63.7
 10
100.575
 20
63.625
 10
100.7
 20
63.525
 10
100.8
 20
63.4
 10
100.875
 20
63.25
 10
100.925
 20
63.1
 10
100.975
 20
62.925
 10
100.975
 20
62.725
 10
100.975
 20
62.475
 10
100.9
 20
62.275
 10
100.8
 20
62.075
 10
100.675
 20
61.9
 10
100.5
 20
61.775
 10
100.3
 20
61.675
 10
100.075
 20
61.625
 10
99.8
 20
61.6
 10
99.55
 20
61.625
 10
99.3
 20
61.675
 10
99.1
 20
61.775
 10
98.925
 20
61.9
 10
98.8
 20
62.05
 10
98.7
 20
62.25
 10
98.65
 20
62.45
 10
98.625
 20
62.675
 10
98.65
 20
62.925
 10
98.7
 20
63.125
 10
98.8
 20
63.325
  0
LWPOLYLINE
  5
51
100
AcDbEntity
  8
LAY002
 62
     1
100
AcDbPolyline
 90
       13
 70
     1
 10
98.675
 20
61.425
 10
100.925
 20
60.725
 10
100.925
 20
60.325
 10
99.275
 20
59.825
 10
100.925
 20
59.325
 10
100.925
 20
58.925
 10
98.675
 20
58.225
 10
98.675
 20
58.675
 10
100.4
 20
59.1
 10
98.675
 20
59.625
 10
98.675
 20
60.0
 10
100.4
 20
60.525
 10
98.675
 20
60.95
  0
LWPOLYLINE
  5
52
100
AcDbEntity
  8
LAY002
 62
     1
100
AcDbPolyline
 90
       32
 70
     1
 10
99.8
 20
57.625
 10
99.6
 20
57.6
 10
99.425
 20
57.575
 10
99.275
 20
57.525
 10
99.15
 20
57.425
 10
99.05
 20
57.325
 10
99.0
 20
57.225
 10
98.95
 20
57.1
 10
98.925
 20
56.95
 10
98.95
 20
56.825
 10
99.0
 20
56.7
 10
99.05
 20
56.575
 10
99.15
 20
56.475
 10
99.275
 20
56.4
 10
99.425
 20
56.35
 10
99.6
 20
56.3
 10
99.8
 20
56.3
 10
100.0
 20
56.3
 10
100.175
 20
56.35
 10
100.325
 20
56.4
 10
100.45
 20
56.475
 10
100.55
 20
56.575
 10
100.625
 20
56.7
 10
100.65
 20
56.825
 10
100.675
 20
56.95
 10
100.65
 20
57.1
 10
100.625
 20
57.225
 10
100.55
 20
57.325
 10
100.45
 20
57.425
 10
100.325
 20
57.525
 10
100.175
 20
57.575
 10
100.0
 20
57.6
  0
LWPOLYLINE
  5
53
100
AcDbEntity
  8
LAY002
 62
     1
100
AcDbPolyline
 90
       32
 70
     1
 10
98.925
 20
57.75
 10
99.1
 20
57.875
 10
99.3
 20
57.975
 10
99.55
 20
58.025
 10
99.8
 20
58.05
 10
100.075
 20
58.025
 10
100.3
 20
57.975
 10
100.5
 20
57.875
 10
100.675
 20
57.75
 10
100.8
 20
57.6
 10
100.9
 20
57.4
 10
100.975
 20
57.2
 10
100.975
 20
56.95
 10
100.975
 20
56.725
 10
100.9
 20
56.5
 10
100.8
 20
56.325
 10
100.675
 20
56.175
 10
100.5
 20
56.025
 10
100.3
 20
55.95
 10
100.075
 20
55.875
 10
99.8
 20
55.875
 10
99.55
 20
55.875
 10
99.3
 20
55.95
 10
99.1
 20
56.025
 10
98.925
 20
56.175
 10
98.8
 20
56.325
 10
98.7
 20
56.5
 10
98.65
 20
56.725
 10
98.625
 20
56.95
 10
98.65
 20
57.2
 10
98.7
 20
57.4
 10
98.8
 20
57.6
  0
LWPOLYLINE
  5
54
100
AcDbEntity
  8
LAY002
 62
     1
100
AcDbPolyline
 90
       19
 70
     1
 10
98.725
 20
55.075
 10
98.55
 20
55.05
 10
98.4
 20
54.975
 10
98.275
 20
54.875
 10
98.225
 20
54.725
 10
98.2
 20
54.65
 10
98.2
 20
54.55
 10
98.175
 20
54.425
 10
98.175
 20
54.3
 10
98.175
 20
53.5
 10
99.325
 20
53.5
 10
99.325
 20
54.325
 10
99.3
 20
54.5
 10
99.275
 20
54.675
 10
99.225
 20
54.8
 10
99.175
 20
54.9
 10
99.075
 20
54.975
 10
98.975
 20
55.025
 10
98.875
 20
55.05
  0
LWPOLYLINE
  5
55
100
AcDbEntity
  8
LAY002
 62
     1
100
AcDbPolyline
 90
       25
 70
     1
 10
97.875
 20
54.925
 10
97.925
 20
55.05
 10
98.0
 20
55.175
 10
98.075
 20
55.275
 10
98.2
 20
55.35
 10
98.325
 20
55.425
 10
98.45
 20
55.475
 10
98.575
 20
55.5
 10
98.725
 20
55.5
 10
98.95
 20
55.5
 10
99.15
 20
55.425
 10
99.3
 20
55.35
 10
99.45
 20
55.2
 10
99.55
 20
55.025
 10
99.625
 20
54.825
 10
99.675
 20
54.575
 10
99.675
 20
54.3
 10
99.675
 20
53.5
 10
100.925
 20
53.5
 10
100.925
 20
53.075
 10
97.825
 20
53.075
 10
97.825
 20
54.275
 10
97.825
 20
54.475
 10
97.825
 20
54.65
 10
97.85
 20
54.8
  0
LWPOLYLINE
  5
56
100
AcDbEntity
  8
LAY002
 62
     1
100
AcDbPolyline
 90
        4
 70
     1
 10
103.175
 20
50.675
 10
23.175
 20
50.675
 10
23.175
 20
160.675
 10
103.175
 20
160.675
  0
LWPOLYLINE
  5
57
100
AcDbEntity
  8
LAY002
 62
     1
100
AcDbPolyline
 90
       70
 70
     1
 10
132.65
 20
147.95
 10
132.9
 20
148.175
 10
133.2
 20
148.325
 10
133.525
 20
148.4
 10
133.875
 20
148.45
 10
134.2
 20
148.425
 10
134.475
 20
148.375
 10
134.725
 20
148.275
 10
134.95
 20
148.15
 10
135.125
 20
147.975
 10
135.275
 20
147.8
 10
135.375
 20
147.575
 10
135.425
 20
147.35
 10
134.925
 20
147.35
 10
134.9
 20
147.5
 10
134.85
 20
147.65
 10
134.75
 20
147.775
 10
134.625
 20
147.875
 10
134.475
 20
147.95
 10
134.3
 20
148.0
 10
134.1
 20
148.05
 10
133.9
 20
148.05
 10
133.625
 20
148.025
 10
133.4
 20
147.975
 10
133.2
 20
147.85
 10
133.0
 20
147.7
 10
132.875
 20
147.5
 10
132.75
 20
147.25
 10
132.7
 20
146.975
 10
132.675
 20
146.675
 10
132.7
 20
146.375
 10
132.75
 20
146.1
 10
132.875
 20
145.85
 10
133.025
 20
145.65
 10
133.2
 20
145.5
 10
133.4
 20
145.375
 10
133.625
 20
145.325
 10
133.9
 20
145.3
 10
134.075
 20
145.3
 10
134.25
 20
145.325
 10
134.4
 20
145.35
 10
134.55
 20
145.425
 10
134.7
 20
145.475
 10
134.825
 20
145.575
 10
134.925
 20
145.675
 10
135.025
 20
145.775
 10
135.025
 20
146.3
 10
134.1
 20
146.3
 10
134.1
 20
146.7
 10
135.475
 20
146.7
 10
135.475
 20
144.975
 10
135.15
 20
144.975
 10
135.025
 20
145.325
 10
134.825
 20
145.15
 10
134.575
 20
145.0
 10
134.25
 20
144.925
 10
133.9
 20
144.9
 10
133.725
 20
144.925
 10
133.525
 20
144.925
 10
133.375
 20
144.975
 10
133.2
 20
145.025
 10
132.925
 20
145.175
 10
132.675
 20
145.4
 10
132.45
 20
145.65
 10
132.3
 20
145.95
 10
132.225
 20
146.3
 10
132.2
 20
146.675
 10
132.225
 20
147.05
 10
132.3
 20
147.4
 10
132.45
 20
147.7
  0
LWPOLYLINE
  5
58
100
AcDbEntity
  8
LAY002
 62
     1
100
AcDbPolyline
 90
       20
 70
     1
 10
136.45
 20
145.65
 10
136.45
 20
145.55
 10
136.475
 20
145.475
 10
136.525
 20
145.4
 10
136.6
 20
145.35
 10
136.75
 20
145.275
 10
136.975
 20
145.25
 10
137.2
 20
145.275
 10
137.4
 20
145.35
 10
137.6
 20
145.475
 10
137.75
 20
145.625
 10
137.75
 20
146.175
 10
137.425
 20
146.175
 10
137.2
 20
146.15
 10
137.0
 20
146.125
 10
136.825
 20
146.1
 10
136.7
 20
146.025
 10
136.575
 20
145.95
 10
136.5
 20
145.875
 10
136.45
 20
145.775
  0
LWPOLYLINE
  5
59
100
AcDbEntity
  8
LAY002
 62
     1
100
AcDbPolyline
 90
       59
 70
     1
 10
136.85
 20
144.9
 10
136.675
 20
144.925
 10
136.5
 20
144.95
 10
136.35
 20
145.025
 10
136.225
 20
145.1
 10
136.125
 20
145.225
 10
136.05
 20
145.325
 10
136.0
 20
145.475
 10
135.975
 20
145.625
 10
136.0
 20
145.825
 10
136.075
 20
146.0
 10
136.2
 20
146.15
 10
136.375
 20
146.275
 10
136.575
 20
146.375
 10
136.85
 20
146.425
 10
137.15
 20
146.475
 10
137.525
 20
146.5
 10
137.75
 20
146.5
 10
137.725
 20
146.625
 10
137.725
 20
146.725
 10
137.725
 20
146.8
 10
137.7
 20
146.875
 10
137.65
 20
146.975
 10
137.55
 20
147.075
 10
137.475
 20
147.1
 10
137.375
 20
147.125
 10
137.275
 20
147.15
 10
137.125
 20
147.15
 10
136.975
 20
147.15
 10
136.875
 20
147.125
 10
136.75
 20
147.1
 10
136.675
 20
147.05
 10
136.6
 20
147.0
 10
136.55
 20
146.925
 10
136.525
 20
146.825
 10
136.5
 20
146.725
 10
136.05
 20
146.725
 10
136.075
 20
146.9
 10
136.15
 20
147.075
 10
136.225
 20
147.2
 10
136.35
 20
147.3
 10
136.5
 20
147.4
 10
136.7
 20
147.45
 10
136.9
 20
147.475
 10
137.15
 20
147.5
 10
137.375
 20
147.475
 10
137.6
 20
147.45
 10
137.775
 20
147.4
 10
137.925
 20
147.3
 10
138.025
 20
147.2
 10
138.125
 20
147.025
 10
138.175
 20
146.825
 10
138.2
 20
146.575
 10
138.2
 20
144.975
 10
137.75
 20
144.975
 10
137.75
 20
145.225
 10
137.55
 20
145.075
 10
137.35
 20
144.975
 10
137.1
 20
144.925
  0
LWPOLYLINE
  5
5A
100
AcDbEntity
  8
LAY002
 62
     1
100
AcDbPolyline
 90
        4
 70
     1
 10
138.85
 20
144.975
 10
138.85
 20
148.375
 10
139.325
 20
148.375
 10
139.325
 20
144.975
  0
LWPOLYLINE
  5
5B
100
AcDbEntity
  8
LAY002
 62
     1
100
AcDbPolyline
 90
        7
 70
     1
 10
140.675
 20
144.975
 10
139.725
 20
147.45
 10
140.2
 20
147.45
 10
140.875
 20
145.5
 10
141.55
 20
147.45
 10
142.05
 20
147.45
 10
141.075
 20
144.975
  0
LWPOLYLINE
  5
5C
100
AcDbEntity
  8
LAY002
 62
     1
100
AcDbPolyline
 90
       32
 70
     1
 10
142.95
 20
145.5
 10
143.05
 20
145.375
 10
143.175
 20
145.3
 10
143.325
 20
145.275
 10
143.475
 20
145.25
 10
143.625
 20
145.275
 10
143.775
 20
145.3
 10
143.9
 20
145.375
 10
144.0
 20
145.5
 10
144.1
 20
145.625
 10
144.15
 20
145.8
 10
144.2
 20
145.975
 10
144.2
 20
146.2
 10
144.2
 20
146.425
 10
144.15
 20
146.625
 10
144.1
 20
146.775
 10
144.0
 20
146.925
 10
143.9
 20
147.025
 10
143.775
 20
147.1
 10
143.625
 20
147.15
 10
143.475
 20
147.15
 10
143.325
 20
147.15
 10
143.175
 20
147.1
 10
143.05
 20
147.025
 10
142.95
 20
146.925
 10
142.875
 20
146.775
 10
142.8
 20
146.625
 10
142.75
 20
146.425
 10
142.75
 20
146.2
 10
142.75
 20
145.975
 10
142.8
 20
145.8
 10
142.875
 20
145.625
  0
LWPOLYLINE
  5
5D
100
AcDbEntity
  8
LAY002
 62
     1
100
AcDbPolyline
 90
       32
 70
     1
 10
143.475
 20
144.9
 10
143.225
 20
144.925
 10
142.975
 20
145.0
 10
142.775
 20
145.1
 10
142.6
 20
145.25
 10
142.475
 20
145.425
 10
142.375
 20
145.65
 10
142.3
 20
145.9
 10
142.275
 20
146.2
 10
142.3
 20
146.5
 10
142.375
 20
146.75
 10
142.475
 20
146.975
 10
142.6
 20
147.15
 10
142.775
 20
147.3
 10
142.975
 20
147.4
 10
143.225
 20
147.475
 10
143.475
 20
147.5
 10
143.725
 20
147.475
 10
143.975
 20
147.4
 10
144.175
 20
147.3
 10
144.35
 20
147.15
 10
144.5
 20
146.975
 10
144.6
 20
146.75
 10
144.65
 20
146.5
 10
144.675
 20
146.2
 10
144.65
 20
145.9
 10
144.6
 20
145.65
 10
144.5
 20
145.425
 10
144.35
 20
145.25
 10
144.175
 20
145.1
 10
143.975
 20
145.0
 10
143.725
 20
144.925
  0
LWPOLYLINE
  5
5E
100
AcDbEntity
  8
LAY002
 62
     1
100
AcDbPolyline
 90
        4
 70
     1
 10
110.55
 20
144.025
 10
110.55
 20
184.025
 10
145.55
 20
184.025
 10
145.55
 20
144.025
  0
LWPOLYLINE
  5
5F
100
AcDbEntity
  8
LAY002
 62
     1
100
AcDbPolyline
 90
       13
 70
     1
 10
139.825
 20
62.675
 10
140.825
 20
62.675
 10
142.225
 20
58.55
 10
143.6
 20
62.675
 10
144.625
 20
62.675
 10
144.625
 20
57.725
 10
143.975
 20
57.725
 10
143.975
 20
61.925
 10
142.525
 20
57.725
 10
141.925
 20
57.725
 10
140.45
 20
61.925
 10
140.45
 20
57.725
 10
139.825
 20
57.725
  0
LWPOLYLINE
  5
60
100
AcDbEntity
  8
LAY002
 62
     1
100
AcDbPolyline
 90
        4
 70
     1
 10
145.675
 20
62.675
 10
146.325
 20
62.675
 10
146.325
 20
61.975
 10
145.675
 20
61.975
  0
LWPOLYLINE
  5
61
100
AcDbEntity
  8
LAY002
 62
     1
100
AcDbPolyline
 90
        4
 70
     1
 10
145.675
 20
61.3
 10
146.325
 20
61.3
 10
146.325
 20
57.725
 10
145.675
 20
57.725
  0
LWPOLYLINE
  5
62
100
AcDbEntity
  8
LAY002
 62
     1
100
AcDbPolyline
 90
       28
 70
     1
 10
147.3
 20
61.3
 10
147.95
 20
61.3
 10
147.95
 20
60.8
 10
148.05
 20
60.95
 10
148.175
 20
61.05
 10
148.275
 20
61.15
 10
148.4
 20
61.25
 10
148.525
 20
61.3
 10
148.65
 20
61.35
 10
148.775
 20
61.375
 10
148.9
 20
61.375
 10
149.05
 20
61.375
 10
149.2
 20
61.35
 10
149.2
 20
60.725
 10
149.125
 20
60.75
 10
149.025
 20
60.75
 10
148.925
 20
60.75
 10
148.8
 20
60.775
 10
148.675
 20
60.75
 10
148.575
 20
60.725
 10
148.45
 20
60.7
 10
148.35
 20
60.625
 10
148.225
 20
60.575
 10
148.125
 20
60.475
 10
148.05
 20
60.375
 10
147.95
 20
60.25
 10
147.95
 20
57.725
 10
147.3
 20
57.725
  0
LWPOLYLINE
  5
63
100
AcDbEntity
  8
LAY002
 62
     1
100
AcDbPolyline
 90
       28
 70
     1
 10
149.65
 20
61.3
 10
150.325
 20
61.3
 10
150.325
 20
60.8
 10
150.425
 20
60.95
 10
150.525
 20
61.05
 10
150.65
 20
61.15
 10
150.775
 20
61.25
 10
150.875
 20
61.3
 10
151.025
 20
61.35
 10
151.15
 20
61.375
 10
151.275
 20
61.375
 10
151.425
 20
61.375
 10
151.575
 20
61.35
 10
151.575
 20
60.725
 10
151.5
 20
60.75
 10
151.4
 20
60.75
 10
151.3
 20
60.75
 10
151.175
 20
60.775
 10
151.05
 20
60.75
 10
150.925
 20
60.725
 10
150.825
 20
60.7
 10
150.7
 20
60.625
 10
150.6
 20
60.575
 10
150.5
 20
60.475
 10
150.4
 20
60.375
 10
150.325
 20
60.25
 10
150.325
 20
57.725
 10
149.65
 20
57.725
  0
LWPOLYLINE
  5
64
100
AcDbEntity
  8
LAY002
 62
     1
100
AcDbPolyline
 90
       32
 70
     1
 10
152.775
 20
60.55
 10
152.65
 20
60.35
 10
152.55
 20
60.1
 10
152.5
 20
59.825
 10
152.475
 20
59.5
 10
152.5
 20
59.2
 10
152.55
 20
58.925
 10
152.65
 20
58.675
 10
152.775
 20
58.475
 10
152.925
 20
58.325
 10
153.1
 20
58.225
 10
153.3
 20
58.15
 10
153.525
 20
58.125
 10
153.75
 20
58.15
 10
153.95
 20
58.225
 10
154.125
 20
58.325
 10
154.3
 20
58.475
 10
154.425
 20
58.675
 10
154.5
 20
58.925
 10
154.575
 20
59.2
 10
154.575
 20
59.5
 10
154.575
 20
59.825
 10
154.5
 20
60.1
 10
154.425
 20
60.35
 10
154.3
 20
60.55
 10
154.125
 20
60.7
 10
153.95
 20
60.8
 10
153.75
 20
60.875
 10
153.525
 20
60.9
 10
153.3
 20
60.875
 10
153.1
 20
60.8
 10
152.925
 20
60.7
  0
LWPOLYLINE
  5
65
100
AcDbEntity
  8
LAY002
 62
     1
100
AcDbPolyline
 90
       48
 70
     1
 10
152.275
 20
60.9
 10
152.4
 20
61.0
 10
152.525
 20
61.1
 10
152.675
 20
61.2
 10
152.825
 20
61.25
 10
152.975
 20
61.325
 10
153.15
 20
61.35
 10
153.325
 20
61.375
 10
153.525
 20
61.375
 10
153.725
 20
61.375
 10
153.9
 20
61.35
 10
154.075
 20
61.325
 10
154.225
 20
61.25
 10
154.4
 20
61.2
 10
154.525
 20
61.1
 10
154.675
 20
61.0
 10
154.8
 20
60.9
 10
155.0
 20
60.625
 10
155.15
 20
60.3
 10
155.225
 20
59.925
 10
155.25
 20
59.5
 10
155.225
 20
59.1
 10
155.15
 20
58.725
 10
155.0
 20
58.4
 10
154.8
 20
58.125
 10
154.675
 20
58.0
 10
154.525
 20
57.9
 10
154.4
 20
57.825
 10
154.225
 20
57.75
 10
154.075
 20
57.7
 10
153.9
 20
57.675
 10
153.725
 20
57.65
 10
153.525
 20
57.625
 10
153.325
 20
57.65
 10
153.15
 20
57.675
 10
152.975
 20
57.7
 10
152.825
 20
57.75
 10
152.675
 20
57.825
 10
152.525
 20
57.9
 10
152.4
 20
58.0
 10
152.275
 20
58.125
 10
152.075
 20
58.4
 10
151.925
 20
58.725
 10
151.825
 20
59.1
 10
151.8
 20
59.5
 10
151.825
 20
59.925
 10
151.925
 20
60.3
 10
152.075
 20
60.625
  0
LWPOLYLINE
  5
66
100
AcDbEntity
  8
LAY002
 62
     1
100
AcDbPolyline
 90
       28
 70
     1
 10
156.0
 20
61.3
 10
156.65
 20
61.3
 10
156.65
 20
60.8
 10
156.75
 20
60.95
 10
156.875
 20
61.05
 10
156.975
 20
61.15
 10
157.1
 20
61.25
 10
157.225
 20
61.3
 10
157.35
 20
61.35
 10
157.475
 20
61.375
 10
157.6
 20
61.375
 10
157.75
 20
61.375
 10
157.9
 20
61.35
 10
157.9
 20
60.725
 10
157.825
 20
60.75
 10
157.75
 20
60.75
 10
157.625
 20
60.75
 10
157.5
 20
60.775
 10
157.375
 20
60.75
 10
157.275
 20
60.725
 10
157.15
 20
60.7
 10
157.05
 20
60.625
 10
156.95
 20
60.575
 10
156.825
 20
60.475
 10
156.75
 20
60.375
 10
156.65
 20
60.25
 10
156.65
 20
57.725
 10
156.0
 20
57.725
  0
LWPOLYLINE
  5
67
100
AcDbEntity
  8
LAY002
 62
     1
100
AcDbPolyline
 90
        4
 70
     1
 10
181.825
 20
56.325
 10
111.825
 20
56.325
 10
111.825
 20
136.325
 10
181.825
 20
136.325
  0
LWPOLYLINE
  5
68
100
AcDbEntity
  8
LAY002
 62
     1
100
AcDbPolyline
 90
        6
 70
     1
 10
250.075
 20
151.925
 10
250.075
 20
152.4
 10
253.05
 20
152.4
 10
253.05
 20
154.1
 10
253.475
 20
154.1
 10
253.475
 20
151.925
  0
LWPOLYLINE
  5
69
100
AcDbEntity
  8
LAY002
 62
     1
100
AcDbPolyline
 90
       20
 70
     1
 10
252.8
 20
154.9
 10
252.875
 20
154.925
 10
252.95
 20
154.95
 10
253.025
 20
155.0
 10
253.075
 20
155.05
 10
253.15
 20
155.225
 10
253.175
 20
155.45
 10
253.15
 20
155.65
 10
253.075
 20
155.875
 10
252.975
 20
156.05
 10
252.825
 20
156.2
 10
252.275
 20
156.2
 10
252.275
 20
155.875
 10
252.275
 20
155.65
 10
252.3
 20
155.45
 10
252.35
 20
155.3
 10
252.4
 20
155.15
 10
252.475
 20
155.05
 10
252.575
 20
154.975
 10
252.675
 20
154.925
  0
LWPOLYLINE
  5
6A
100
AcDbEntity
  8
LAY002
 62
     1
100
AcDbPolyline
 90
       59
 70
     1
 10
253.525
 20
155.3
 10
253.5
 20
155.125
 10
253.475
 20
154.975
 10
253.4
 20
154.825
 10
253.325
 20
154.7
 10
253.225
 20
154.575
 10
253.1
 20
154.5
 10
252.95
 20
154.45
 10
252.825
 20
154.45
 10
252.6
 20
154.475
 10
252.425
 20
154.55
 10
252.3
 20
154.65
 10
252.175
 20
154.825
 10
252.075
 20
155.05
 10
252.0
 20
155.3
 10
251.975
 20
155.625
 10
251.95
 20
155.975
 10
251.95
 20
156.2
 10
251.825
 20
156.2
 10
251.725
 20
156.175
 10
251.625
 20
156.175
 10
251.575
 20
156.175
 10
251.45
 20
156.1
 10
251.375
 20
156.0
 10
251.325
 20
155.925
 10
251.3
 20
155.825
 10
251.3
 20
155.725
 10
251.3
 20
155.6
 10
251.3
 20
155.45
 10
251.325
 20
155.325
 10
251.35
 20
155.225
 10
251.4
 20
155.125
 10
251.45
 20
155.075
 10
251.525
 20
155.0
 10
251.6
 20
154.975
 10
251.7
 20
154.975
 10
251.7
 20
154.525
 10
251.525
 20
154.55
 10
251.375
 20
154.6
 10
251.25
 20
154.7
 10
251.15
 20
154.825
 10
251.05
 20
154.975
 10
251.0
 20
155.15
 10
250.95
 20
155.375
 10
250.95
 20
155.6
 10
250.95
 20
155.85
 10
251.0
 20
156.05
 10
251.05
 20
156.225
 10
251.125
 20
156.375
 10
251.25
 20
156.5
 10
251.425
 20
156.575
 10
251.625
 20
156.625
 10
251.875
 20
156.65
 10
253.475
 20
156.65
 10
253.475
 20
156.2
 10
253.2
 20
156.2
 10
253.35
 20
156.0
 10
253.45
 20
155.8
 10
253.5
 20
155.575
  0
LWPOLYLINE
  5
6B
100
AcDbEntity
  8
LAY002
 62
     1
100
AcDbPolyline
 90
       94
 70
     1
 10
252.725
 20
157.125
 10
252.725
 20
157.575
 10
252.825
 20
157.6
 10
252.925
 20
157.625
 10
253.0
 20
157.675
 10
253.075
 20
157.75
 10
253.125
 20
157.825
 10
253.15
 20
157.925
 10
253.175
 20
158.05
 10
253.175
 20
158.2
 10
253.175
 20
158.35
 10
253.15
 20
158.45
 10
253.125
 20
158.55
 10
253.075
 20
158.625
 10
253.0
 20
158.7
 10
252.95
 20
158.75
 10
252.875
 20
158.775
 10
252.775
 20
158.775
 10
252.7
 20
158.775
 10
252.65
 20
158.75
 10
252.6
 20
158.7
 10
252.55
 20
158.65
 10
252.525
 20
158.55
 10
252.475
 20
158.425
 10
252.425
 20
158.25
 10
252.375
 20
158.05
 10
252.325
 20
157.85
 10
252.25
 20
157.65
 10
252.2
 20
157.5
 10
252.125
 20
157.4
 10
252.05
 20
157.3
 10
251.95
 20
157.25
 10
251.8
 20
157.2
 10
251.65
 20
157.175
 10
251.5
 20
157.2
 10
251.375
 20
157.25
 10
251.25
 20
157.325
 10
251.15
 20
157.45
 10
251.05
 20
157.575
 10
251.0
 20
157.75
 10
250.95
 20
157.925
 10
250.95
 20
158.125
 10
250.95
 20
158.375
 10
251.0
 20
158.575
 10
251.05
 20
158.75
 10
251.125
 20
158.875
 10
251.225
 20
159.0
 10
251.325
 20
159.075
 10
251.475
 20
159.125
 10
251.625
 20
159.15
 10
251.625
 20
158.7
 10
251.55
 20
158.675
 10
251.475
 20
158.65
 10
251.425
 20
158.6
 10
251.375
 20
158.55
 10
251.35
 20
158.475
 10
251.3
 20
158.4
 10
251.3
 20
158.275
 10
251.3
 20
158.15
 10
251.3
 20
157.95
 10
251.375
 20
157.775
 10
251.425
 20
157.725
 10
251.475
 20
157.675
 10
251.55
 20
157.65
 10
251.625
 20
157.625
 10
251.75
 20
157.675
 10
251.825
 20
157.75
 10
251.85
 20
157.825
 10
251.9
 20
157.95
 10
251.95
 20
158.125
 10
252.0
 20
158.325
 10
252.05
 20
158.55
 10
252.125
 20
158.725
 10
252.175
 20
158.875
 10
252.25
 20
159.0
 10
252.325
 20
159.1
 10
252.45
 20
159.175
 10
252.575
 20
159.225
 10
252.75
 20
159.225
 10
252.9
 20
159.225
 10
253.05
 20
159.15
 10
253.175
 20
159.075
 10
253.3
 20
158.95
 10
253.4
 20
158.8
 10
253.475
 20
158.625
 10
253.5
 20
158.425
 10
253.525
 20
158.225
 10
253.5
 20
157.975
 10
253.475
 20
157.75
 10
253.4
 20
157.575
 10
253.325
 20
157.425
 10
253.2
 20
157.3
 10
253.075
 20
157.225
 10
252.925
 20
157.15
  0
LWPOLYLINE
  5
6C
100
AcDbEntity
  8
LAY002
 62
     1
100
AcDbPolyline
 90
       17
 70
     1
 10
252.0
 20
160.075
 10
252.0
 20
161.5
 10
251.825
 20
161.45
 10
251.675
 20
161.4
 10
251.575
 20
161.325
 10
251.475
 20
161.25
 10
251.4
 20
161.15
 10
251.325
 20
161.025
 10
251.3
 20
160.925
 10
251.3
 20
160.775
 10
251.3
 20
160.65
 10
251.325
 20
160.525
 10
251.4
 20
160.425
 10
251.475
 20
160.325
 10
251.575
 20
160.225
 10
251.675
 20
160.15
 10
251.825
 20
160.1
  0
LWPOLYLINE
  5
6D
100
AcDbEntity
  8
LAY002
 62
     1
100
AcDbPolyline
 90
       50
 70
     1
 10
252.225
 20
159.6
 10
251.95
 20
159.625
 10
251.7
 20
159.675
 10
251.475
 20
159.775
 10
251.3
 20
159.925
 10
251.15
 20
160.1
 10
251.025
 20
160.3
 10
250.975
 20
160.525
 10
250.95
 20
160.775
 10
250.975
 20
161.05
 10
251.025
 20
161.275
 10
251.15
 20
161.475
 10
251.275
 20
161.65
 10
251.475
 20
161.8
 10
251.7
 20
161.9
 10
251.95
 20
161.95
 10
252.225
 20
161.975
 10
252.35
 20
161.975
 10
252.35
 20
160.05
 10
252.55
 20
160.1
 10
252.7
 20
160.125
 10
252.85
 20
160.2
 10
252.975
 20
160.3
 10
253.075
 20
160.425
 10
253.125
 20
160.55
 10
253.175
 20
160.675
 10
253.175
 20
160.825
 10
253.15
 20
161.05
 10
253.125
 20
161.15
 10
253.05
 20
161.25
 10
253.0
 20
161.35
 10
252.925
 20
161.4
 10
252.825
 20
161.45
 10
252.725
 20
161.45
 10
252.725
 20
161.925
 10
252.9
 20
161.875
 10
253.075
 20
161.8
 10
253.2
 20
161.7
 10
253.325
 20
161.575
 10
253.4
 20
161.4
 10
253.475
 20
161.225
 10
253.5
 20
161.05
 10
253.525
 20
160.825
 10
253.5
 20
160.575
 10
253.425
 20
160.325
 10
253.325
 20
160.125
 10
253.175
 20
159.925
 10
253.0
 20
159.775
 10
252.775
 20
159.675
 10
252.525
 20
159.625
  0
LWPOLYLINE
  5
6E
100
AcDbEntity
  8
LAY002
 62
     1
100
AcDbPolyline
 90
       17
 70
     1
 10
253.475
 20
162.475
 10
251.0
 20
162.475
 10
251.0
 20
162.925
 10
251.35
 20
162.925
 10
251.175
 20
163.075
 10
251.05
 20
163.225
 10
250.975
 20
163.4
 10
250.95
 20
163.575
 10
250.975
 20
163.8
 10
251.4
 20
163.8
 10
251.375
 20
163.675
 10
251.375
 20
163.525
 10
251.4
 20
163.35
 10
251.475
 20
163.2
 10
251.575
 20
163.05
 10
251.725
 20
162.925
 10
253.475
 20
162.925
  0
LWPOLYLINE
  5
6F
100
AcDbEntity
  8
LAY002
 62
     1
100
AcDbPolyline
 90
        4
 70
     1
 10
253.475
 20
164.2
 10
253.0
 20
164.2
 10
253.0
 20
164.7
 10
253.475
 20
164.7
  0
LWPOLYLINE
  5
70
100
AcDbEntity
  8
LAY002
 62
     1
100
AcDbPolyline
 90
        6
 70
     1
 10
252.625
 20
164.6
 10
252.625
 20
164.3
 10
250.8
 20
164.2
 10
250.075
 20
164.2
 10
250.075
 20
164.7
 10
250.8
 20
164.7
  0
LWPOLYLINE
  5
71
100
AcDbEntity
  8
LAY002
 62
     1
100
AcDbPolyline
 90
        4
 70
     1
 10
192.45
 20
179.775
 10
255.35
 20
179.775
 10
255.35
 20
131.1
 10
192.45
 20
131.1
  0
LWPOLYLINE
  5
72
100
AcDbEntity
  8
LAY002
 62
     1
100
AcDbPolyline
 90
       19
 70
     1
 10
280.0
 20
101.875
 10
279.9
 20
101.85
 10
279.8
 20
101.825
 10
279.725
 20
101.775
 10
279.65
 20
101.7
 10
279.6
 20
101.6
 10
279.575
 20
101.475
 10
279.55
 20
101.325
 10
279.55
 20
101.15
 10
279.55
 20
100.475
 10
280.475
 20
100.475
 10
280.475
 20
101.175
 10
280.45
 20
101.35
 10
280.45
 20
101.5
 10
280.4
 20
101.6
 10
280.35
 20
101.7
 10
280.3
 20
101.775
 10
280.225
 20
101.825
 10
280.125
 20
101.85
  0
LWPOLYLINE
  5
73
100
AcDbEntity
  8
LAY002
 62
     1
100
AcDbPolyline
 90
       19
 70
     1
 10
280.95
 20
101.825
 10
280.9
 20
101.725
 10
280.875
 20
101.575
 10
280.85
 20
101.4
 10
280.825
 20
101.2
 10
280.825
 20
100.475
 10
281.9
 20
100.475
 10
281.9
 20
101.25
 10
281.875
 20
101.425
 10
281.85
 20
101.575
 10
281.825
 20
101.7
 10
281.75
 20
101.8
 10
281.675
 20
101.9
 10
281.6
 20
101.95
 10
281.475
 20
101.975
 10
281.35
 20
102.0
 10
281.225
 20
102.0
 10
281.125
 20
101.95
 10
281.025
 20
101.9
  0
LWPOLYLINE
  5
74
100
AcDbEntity
  8
LAY002
 62
     1
100
AcDbPolyline
 90
       31
 70
     1
 10
281.35
 20
102.425
 10
281.575
 20
102.425
 10
281.75
 20
102.35
 10
281.9
 20
102.275
 10
282.025
 20
102.125
 10
282.125
 20
101.95
 10
282.2
 20
101.75
 10
282.25
 20
101.525
 10
282.25
 20
101.25
 10
282.25
 20
100.05
 10
279.175
 20
100.05
 10
279.175
 20
101.2
 10
279.175
 20
101.425
 10
279.225
 20
101.65
 10
279.3
 20
101.825
 10
279.375
 20
102.0
 10
279.5
 20
102.125
 10
279.625
 20
102.2
 10
279.775
 20
102.25
 10
279.95
 20
102.275
 10
280.175
 20
102.25
 10
280.35
 20
102.175
 10
280.5
 20
102.025
 10
280.625
 20
101.825
 10
280.675
 20
101.975
 10
280.725
 20
102.1
 10
280.8
 20
102.2
 10
280.9
 20
102.275
 10
281.0
 20
102.35
 10
281.125
 20
102.4
 10
281.225
 20
102.425
  0
LWPOLYLINE
  5
75
100
AcDbEntity
  8
LAY002
 62
     1
100
AcDbPolyline
 90
       66
 70
     1
 10
281.275
 20
99.475
 10
281.525
 20
99.425
 10
281.725
 20
99.35
 10
281.9
 20
99.225
 10
282.05
 20
99.075
 10
282.15
 20
98.9
 10
282.25
 20
98.675
 10
282.3
 20
98.45
 10
282.3
 20
98.175
 10
282.275
 20
97.875
 10
282.2
 20
97.575
 10
282.075
 20
97.325
 10
281.875
 20
97.1
 10
281.65
 20
96.925
 10
281.375
 20
96.8
 10
281.075
 20
96.725
 10
280.725
 20
96.7
 10
280.375
 20
96.725
 10
280.05
 20
96.8
 10
279.775
 20
96.925
 10
279.55
 20
97.1
 10
279.375
 20
97.325
 10
279.225
 20
97.575
 10
279.15
 20
97.875
 10
279.125
 20
98.175
 10
279.15
 20
98.425
 10
279.2
 20
98.675
 10
279.275
 20
98.875
 10
279.4
 20
99.075
 10
279.55
 20
99.225
 10
279.7
 20
99.35
 10
279.9
 20
99.425
 10
280.1
 20
99.475
 10
280.1
 20
99.05
 10
279.975
 20
99.025
 10
279.85
 20
98.975
 10
279.75
 20
98.875
 10
279.65
 20
98.775
 10
279.575
 20
98.65
 10
279.525
 20
98.525
 10
279.475
 20
98.35
 10
279.475
 20
98.2
 10
279.5
 20
97.95
 10
279.55
 20
97.75
 10
279.65
 20
97.575
 10
279.8
 20
97.425
 10
279.975
 20
97.3
 10
280.175
 20
97.2
 10
280.425
 20
97.15
 10
280.725
 20
97.15
 10
281.0
 20
97.15
 10
281.25
 20
97.2
 10
281.45
 20
97.3
 10
281.65
 20
97.425
 10
281.775
 20
97.575
 10
281.875
 20
97.75
 10
281.95
 20
97.95
 10
281.95
 20
98.175
 10
281.95
 20
98.35
 10
281.925
 20
98.525
 10
281.875
 20
98.65
 10
281.775
 20
98.775
 10
281.7
 20
98.875
 10
281.575
 20
98.975
 10
281.425
 20
99.025
 10
281.275
 20
99.05
  0
LWPOLYLINE
  5
76
100
AcDbEntity
  8
LAY002
 62
     1
100
AcDbPolyline
 90
       19
 70
     1
 10
280.075
 20
95.875
 10
279.9
 20
95.85
 10
279.75
 20
95.775
 10
279.65
 20
95.675
 10
279.575
 20
95.525
 10
279.55
 20
95.45
 10
279.55
 20
95.35
 10
279.55
 20
95.25
 10
279.55
 20
95.1
 10
279.55
 20
94.325
 10
280.65
 20
94.325
 10
280.65
 20
95.125
 10
280.65
 20
95.3
 10
280.625
 20
95.475
 10
280.575
 20
95.6
 10
280.5
 20
95.7
 10
280.425
 20
95.775
 10
280.325
 20
95.825
 10
280.225
 20
95.85
  0
LWPOLYLINE
  5
77
100
AcDbEntity
  8
LAY002
 62
     1
100
AcDbPolyline
 90
       25
 70
     1
 10
279.25
 20
95.725
 10
279.3
 20
95.85
 10
279.35
 20
95.975
 10
279.45
 20
96.075
 10
279.55
 20
96.15
 10
279.675
 20
96.225
 10
279.8
 20
96.275
 10
279.925
 20
96.3
 10
280.075
 20
96.3
 10
280.3
 20
96.275
 10
280.475
 20
96.225
 10
280.65
 20
96.125
 10
280.775
 20
96.0
 10
280.9
 20
95.825
 10
280.975
 20
95.625
 10
281.0
 20
95.375
 10
281.025
 20
95.125
 10
281.025
 20
94.325
 10
282.25
 20
94.325
 10
282.25
 20
93.9
 10
279.175
 20
93.9
 10
279.175
 20
95.075
 10
279.175
 20
95.275
 10
279.2
 20
95.425
 10
279.225
 20
95.6
  0
LWPOLYLINE
  5
78
100
AcDbEntity
  8
LAY002
 62
     1
100
AcDbPolyline
 90
        6
 70
     1
 10
281.9
 20
92.225
 10
282.25
 20
92.225
 10
282.25
 20
90.25
 10
279.175
 20
90.25
 10
279.175
 20
90.675
 10
281.9
 20
90.675
  0
LWPOLYLINE
  5
79
100
AcDbEntity
  8
LAY002
 62
     1
100
AcDbPolyline
 90
      100
 70
     1
 10
281.375
 20
89.65
 10
281.575
 20
89.65
 10
281.75
 20
89.575
 10
281.9
 20
89.475
 10
282.05
 20
89.325
 10
282.175
 20
89.15
 10
282.25
 20
88.95
 10
282.3
 20
88.725
 10
282.3
 20
88.475
 10
282.3
 20
88.175
 10
282.25
 20
87.9
 10
282.15
 20
87.675
 10
282.025
 20
87.475
 10
281.85
 20
87.325
 10
281.675
 20
87.225
 10
281.475
 20
87.15
 10
281.275
 20
87.125
 10
281.275
 20
87.525
 10
281.425
 20
87.575
 10
281.575
 20
87.625
 10
281.675
 20
87.7
 10
281.775
 20
87.825
 10
281.85
 20
87.975
 10
281.9
 20
88.125
 10
281.925
 20
88.275
 10
281.95
 20
88.475
 10
281.925
 20
88.625
 10
281.9
 20
88.775
 10
281.875
 20
88.925
 10
281.8
 20
89.025
 10
281.725
 20
89.125
 10
281.625
 20
89.2
 10
281.525
 20
89.25
 10
281.425
 20
89.25
 10
281.3
 20
89.225
 10
281.2
 20
89.2
 10
281.125
 20
89.125
 10
281.05
 20
89.025
 10
281.0
 20
88.9
 10
280.925
 20
88.725
 10
280.875
 20
88.5
 10
280.825
 20
88.25
 10
280.75
 20
88.0
 10
280.675
 20
87.8
 10
280.6
 20
87.625
 10
280.5
 20
87.475
 10
280.4
 20
87.375
 10
280.275
 20
87.3
 10
280.125
 20
87.25
 10
279.975
 20
87.25
 10
279.8
 20
87.25
 10
279.625
 20
87.325
 10
279.5
 20
87.425
 10
279.35
 20
87.55
 10
279.25
 20
87.725
 10
279.175
 20
87.9
 10
279.125
 20
88.125
 10
279.125
 20
88.375
 10
279.125
 20
88.625
 10
279.175
 20
88.85
 10
279.25
 20
89.05
 10
279.375
 20
89.225
 10
279.5
 20
89.375
 10
279.65
 20
89.475
 10
279.85
 20
89.55
 10
280.05
 20
89.575
 10
280.05
 20
89.175
 10
279.925
 20
89.15
 10
279.8
 20
89.1
 10
279.7
 20
89.025
 10
279.625
 20
88.95
 10
279.575
 20
88.825
 10
279.525
 20
88.7
 10
279.5
 20
88.55
 10
279.475
 20
88.375
 10
279.5
 20
88.225
 10
279.525
 20
88.075
 10
279.55
 20
87.95
 10
279.625
 20
87.85
 10
279.675
 20
87.75
 10
279.775
 20
87.7
 10
279.85
 20
87.65
 10
279.95
 20
87.65
 10
280.05
 20
87.65
 10
280.125
 20
87.7
 10
280.2
 20
87.725
 10
280.25
 20
87.8
 10
280.3
 20
87.9
 10
280.35
 20
88.025
 10
280.4
 20
88.175
 10
280.425
 20
88.375
 10
280.475
 20
88.575
 10
280.525
 20
88.75
 10
280.575
 20
88.925
 10
280.625
 20
89.05
 10
280.725
 20
89.275
 10
280.9
 20
89.475
 10
281.0
 20
89.55
 10
281.1
 20
89.625
 10
281.25
 20
89.65
  0
LWPOLYLINE
  5
7A
100
AcDbEntity
  8
LAY002
 62
     1
100
AcDbPolyline
 90
       32
 70
     1
 10
280.8
 20
86.625
 10
282.25
 20
86.625
 10
282.25
 20
86.225
 10
280.825
 20
86.225
 10
280.7
 20
86.225
 10
280.575
 20
86.2
 10
280.5
 20
86.175
 10
280.425
 20
86.125
 10
280.375
 20
86.075
 10
280.325
 20
86.0
 10
280.3
 20
85.9
 10
280.3
 20
85.8
 10
280.325
 20
85.65
 10
280.4
 20
85.475
 10
280.5
 20
85.325
 10
280.65
 20
85.175
 10
282.25
 20
85.175
 10
282.25
 20
84.75
 10
280.025
 20
84.75
 10
280.025
 20
85.175
 10
280.3
 20
85.175
 10
280.175
 20
85.325
 10
280.05
 20
85.5
 10
280.0
 20
85.675
 10
279.975
 20
85.85
 10
280.0
 20
86.05
 10
280.025
 20
86.2
 10
280.1
 20
86.325
 10
280.175
 20
86.45
 10
280.3
 20
86.525
 10
280.45
 20
86.6
 10
280.6
 20
86.625
  0
LWPOLYLINE
  5
7B
100
AcDbEntity
  8
LAY002
 62
     1
100
AcDbPolyline
 90
       17
 70
     1
 10
280.925
 20
83.875
 10
280.775
 20
83.85
 10
280.65
 20
83.8
 10
280.525
 20
83.725
 10
280.45
 20
83.65
 10
280.375
 20
83.55
 10
280.325
 20
83.45
 10
280.3
 20
83.35
 10
280.275
 20
83.225
 10
280.3
 20
83.1
 10
280.325
 20
83.0
 10
280.375
 20
82.9
 10
280.45
 20
82.8
 10
280.525
 20
82.725
 10
280.65
 20
82.65
 10
280.775
 20
82.625
 10
280.925
 20
82.575
  0
LWPOLYLINE
  5
7C
100
AcDbEntity
  8
LAY002
 62
     1
100
AcDbPolyline
 90
       49
 70
     1
 10
280.275
 20
84.0
 10
280.45
 20
84.15
 10
280.65
 20
84.225
 10
280.875
 20
84.275
 10
281.15
 20
84.3
 10
281.25
 20
84.3
 10
281.25
 20
82.575
 10
281.425
 20
82.6
 10
281.575
 20
82.65
 10
281.7
 20
82.7
 10
281.825
 20
82.8
 10
281.9
 20
82.9
 10
281.95
 20
83.0
 10
282.0
 20
83.125
 10
282.0
 20
83.275
 10
281.975
 20
83.475
 10
281.9
 20
83.65
 10
281.825
 20
83.725
 10
281.775
 20
83.8
 10
281.675
 20
83.825
 10
281.6
 20
83.85
 10
281.6
 20
84.25
 10
281.75
 20
84.225
 10
281.9
 20
84.15
 10
282.025
 20
84.05
 10
282.125
 20
83.95
 10
282.2
 20
83.8
 10
282.275
 20
83.625
 10
282.3
 20
83.45
 10
282.3
 20
83.275
 10
282.3
 20
83.025
 10
282.225
 20
82.825
 10
282.15
 20
82.625
 10
282.0
 20
82.45
 10
281.825
 20
82.325
 10
281.625
 20
82.225
 10
281.4
 20
82.175
 10
281.15
 20
82.15
 10
280.875
 20
82.175
 10
280.65
 20
82.225
 10
280.45
 20
82.325
 10
280.275
 20
82.45
 10
280.15
 20
82.6
 10
280.05
 20
82.8
 10
280.0
 20
83.0
 10
279.975
 20
83.225
 10
280.0
 20
83.45
 10
280.05
 20
83.675
 10
280.15
 20
83.85
  0
LWPOLYLINE
  5
7D
100
AcDbEntity
  8
LAY002
 62
     1
100
AcDbPolyline
 90
       25
 70
     1
 10
281.125
 20
81.425
 10
280.925
 20
81.4
 10
280.75
 20
81.375
 10
280.625
 20
81.325
 10
280.5
 20
81.275
 10
280.4
 20
81.175
 10
280.35
 20
81.1
 10
280.3
 20
80.975
 10
280.275
 20
80.85
 10
280.3
 20
80.675
 10
280.375
 20
80.525
 10
280.5
 20
80.375
 10
280.675
 20
80.225
 10
281.725
 20
80.225
 10
281.85
 20
80.375
 10
281.925
 20
80.525
 10
281.975
 20
80.675
 10
282.0
 20
80.825
 10
281.975
 20
80.95
 10
281.95
 20
81.075
 10
281.875
 20
81.175
 10
281.775
 20
81.25
 10
281.65
 20
81.325
 10
281.5
 20
81.375
 10
281.325
 20
81.4
  0
LWPOLYLINE
  5
7E
100
AcDbEntity
  8
LAY002
 62
     1
100
AcDbPolyline
 90
       29
 70
     1
 10
280.275
 20
81.6
 10
280.45
 20
81.7
 10
280.65
 20
81.775
 10
280.875
 20
81.825
 10
281.125
 20
81.825
 10
281.375
 20
81.825
 10
281.625
 20
81.775
 10
281.825
 20
81.675
 10
282.0
 20
81.55
 10
282.125
 20
81.4
 10
282.225
 20
81.25
 10
282.3
 20
81.075
 10
282.3
 20
80.85
 10
282.3
 20
80.675
 10
282.25
 20
80.525
 10
282.175
 20
80.375
 10
282.075
 20
80.225
 10
283.125
 20
80.225
 10
283.125
 20
79.825
 10
280.025
 20
79.825
 10
280.025
 20
80.225
 10
280.3
 20
80.225
 10
280.15
 20
80.375
 10
280.05
 20
80.525
 10
280.0
 20
80.7
 10
279.975
 20
80.9
 10
280.0
 20
81.1
 10
280.05
 20
81.3
 10
280.15
 20
81.45
  0
LWPOLYLINE
  5
7F
100
AcDbEntity
  8
LAY002
 62
     1
100
AcDbPolyline
 90
       32
 70
     1
 10
280.725
 20
78.875
 10
280.45
 20
78.875
 10
280.2
 20
78.8
 10
279.975
 20
78.7
 10
279.8
 20
78.575
 10
279.65
 20
78.425
 10
279.55
 20
78.225
 10
279.5
 20
78.025
 10
279.475
 20
77.8
 10
279.5
 20
77.575
 10
279.55
 20
77.375
 10
279.65
 20
77.175
 10
279.8
 20
77.025
 10
279.975
 20
76.875
 10
280.2
 20
76.8
 10
280.45
 20
76.725
 10
280.725
 20
76.725
 10
281.0
 20
76.725
 10
281.25
 20
76.8
 10
281.45
 20
76.875
 10
281.625
 20
77.025
 10
281.775
 20
77.175
 10
281.875
 20
77.375
 10
281.95
 20
77.575
 10
281.95
 20
77.8
 10
281.95
 20
78.025
 10
281.875
 20
78.225
 10
281.775
 20
78.425
 10
281.625
 20
78.575
 10
281.45
 20
78.7
 10
281.25
 20
78.8
 10
281.0
 20
78.875
  0
LWPOLYLINE
  5
80
100
AcDbEntity
  8
LAY002
 62
     1
100
AcDbPolyline
 90
       32
 70
     1
 10
280.725
 20
79.325
 10
281.05
 20
79.3
 10
281.375
 20
79.2
 10
281.625
 20
79.075
 10
281.875
 20
78.9
 10
282.075
 20
78.675
 10
282.2
 20
78.4
 10
282.275
 20
78.125
 10
282.3
 20
77.8
 10
282.275
 20
77.475
 10
282.2
 20
77.2
 10
282.075
 20
76.925
 10
281.875
 20
76.7
 10
281.625
 20
76.525
 10
281.375
 20
76.375
 10
281.05
 20
76.3
 10
280.725
 20
76.275
 10
280.375
 20
76.3
 10
280.075
 20
76.375
 10
279.8
 20
76.525
 10
279.55
 20
76.7
 10
279.375
 20
76.925
 10
279.225
 20
77.2
 10
279.15
 20
77.475
 10
279.125
 20
77.8
 10
279.15
 20
78.125
 10
279.225
 20
78.4
 10
279.375
 20
78.675
 10
279.55
 20
78.9
 10
279.8
 20
79.075
 10
280.075
 20
79.2
 10
280.375
 20
79.3
  0
LWPOLYLINE
  5
81
100
AcDbEntity
  8
LAY002
 62
     1
100
AcDbPolyline
 90
        4
 70
     1
 10
243.875
 20
43.25
 10
243.875
 20
128.25
 10
283.875
 20
128.25
 10
283.875
 20
43.25
  0
LWPOLYLINE
  5
82
100
AcDbEntity
  8
LAY002
 62
     1
100
AcDbPolyline
 90
       33
 70
     1
 10
201.425
 20
8.35
 10
201.425
 20
7.875
 10
200.85
 20
7.875
 10
200.85
 20
5.875
 10
200.85
 20
5.725
 10
200.875
 20
5.6
 10
200.9
 20
5.5
 10
200.925
 20
5.425
 10
201.05
 20
5.375
 10
201.2
 20
5.35
 10
201.5
 20
5.375
 10
201.5
 20
4.9
 10
201.275
 20
4.875
 10
201.05
 20
4.85
 10
200.875
 20
4.875
 10
200.725
 20
4.9
 10
200.575
 20
4.925
 10
200.475
 20
5.0
 10
200.4
 20
5.075
 10
200.325
 20
5.15
 10
200.275
 20
5.25
 10
200.25
 20
5.35
 10
200.225
 20
5.45
 10
200.225
 20
5.6
 10
200.225
 20
5.75
 10
200.2
 20
5.925
 10
200.2
 20
7.875
 10
199.775
 20
7.875
 10
199.775
 20
8.35
 10
200.2
 20
8.35
 10
200.2
 20
9.225
 10
200.85
 20
9.225
 10
200.85
 20
8.35
  0
LWPOLYLINE
  5
83
100
AcDbEntity
  8
LAY002
 62
     1
100
AcDbPolyline
 90
       40
 70
     1
 10
199.2
 20
7.175
 10
199.2
 20
4.9
 10
198.575
 20
4.9
 10
198.575
 20
7.15
 10
198.55
 20
7.325
 10
198.525
 20
7.5
 10
198.475
 20
7.65
 10
198.425
 20
7.75
 10
198.325
 20
7.825
 10
198.2
 20
7.875
 10
198.075
 20
7.925
 10
197.9
 20
7.925
 10
197.775
 20
7.925
 10
197.65
 20
7.9
 10
197.55
 20
7.85
 10
197.425
 20
7.8
 10
197.3
 20
7.725
 10
197.175
 20
7.625
 10
197.05
 20
7.5
 10
196.925
 20
7.375
 10
196.925
 20
4.9
 10
196.3
 20
4.9
 10
196.3
 20
8.35
 10
196.925
 20
8.35
 10
196.925
 20
7.925
 10
197.05
 20
8.05
 10
197.175
 20
8.15
 10
197.3
 20
8.225
 10
197.45
 20
8.3
 10
197.575
 20
8.375
 10
197.7
 20
8.4
 10
197.85
 20
8.425
 10
198.0
 20
8.45
 10
198.275
 20
8.425
 10
198.525
 20
8.35
 10
198.725
 20
8.25
 10
198.9
 20
8.125
 10
199.025
 20
7.95
 10
199.125
 20
7.725
 10
199.175
 20
7.475
  0
LWPOLYLINE
  5
84
100
AcDbEntity
  8
LAY002
 62
     1
100
AcDbPolyline
 90
       32
 70
     1
 10
194.95
 20
6.625
 10
194.925
 20
6.95
 10
194.875
 20
7.2
 10
194.775
 20
7.45
 10
194.65
 20
7.625
 10
194.5
 20
7.775
 10
194.325
 20
7.875
 10
194.15
 20
7.95
 10
193.925
 20
7.95
 10
193.7
 20
7.95
 10
193.525
 20
7.875
 10
193.35
 20
7.775
 10
193.2
 20
7.625
 10
193.075
 20
7.45
 10
192.975
 20
7.2
 10
192.925
 20
6.95
 10
192.9
 20
6.625
 10
192.925
 20
6.325
 10
192.975
 20
6.05
 10
193.075
 20
5.825
 10
193.2
 20
5.65
 10
193.35
 20
5.5
 10
193.525
 20
5.4
 10
193.7
 20
5.325
 10
193.925
 20
5.3
 10
194.15
 20
5.325
 10
194.325
 20
5.4
 10
194.5
 20
5.5
 10
194.65
 20
5.65
 10
194.775
 20
5.825
 10
194.875
 20
6.05
 10
194.925
 20
6.325
  0
LWPOLYLINE
  5
85
100
AcDbEntity
  8
LAY002
 62
     1
100
AcDbPolyline
 90
       32
 70
     1
 10
195.6
 20
6.625
 10
195.575
 20
6.225
 10
195.475
 20
5.875
 10
195.35
 20
5.55
 10
195.15
 20
5.3
 10
194.9
 20
5.1
 10
194.6
 20
4.95
 10
194.3
 20
4.85
 10
193.925
 20
4.825
 10
193.575
 20
4.85
 10
193.25
 20
4.95
 10
192.95
 20
5.1
 10
192.725
 20
5.3
 10
192.525
 20
5.55
 10
192.375
 20
5.875
 10
192.275
 20
6.225
 10
192.25
 20
6.625
 10
192.275
 20
7.05
 10
192.375
 20
7.4
 10
192.525
 20
7.7
 10
192.725
 20
7.975
 10
192.95
 20
8.175
 10
193.25
 20
8.325
 10
193.575
 20
8.4
 10
193.925
 20
8.45
 10
194.3
 20
8.4
 10
194.6
 20
8.325
 10
194.9
 20
8.175
 10
195.15
 20
7.975
 10
195.35
 20
7.7
 10
195.475
 20
7.4
 10
195.575
 20
7.05
  0
LWPOLYLINE
  5
86
100
AcDbEntity
  8
LAY002
 62
     1
100
AcDbPolyline
 90
       25
 70
     1
 10
192.05
 20
7.8
 10
191.875
 20
7.825
 10
191.65
 20
7.85
 10
191.55
 20
7.825
 10
191.425
 20
7.8
 10
191.325
 20
7.775
 10
191.2
 20
7.725
 10
191.1
 20
7.65
 10
191.025
 20
7.575
 10
190.925
 20
7.475
 10
190.825
 20
7.35
 10
190.825
 20
4.9
 10
190.2
 20
4.9
 10
190.2
 20
8.35
 10
190.825
 20
8.35
 10
190.825
 20
7.875
 10
190.925
 20
8.0
 10
191.05
 20
8.125
 10
191.15
 20
8.225
 10
191.275
 20
8.3
 10
191.375
 20
8.35
 10
191.5
 20
8.4
 10
191.625
 20
8.425
 10
191.75
 20
8.45
 10
192.05
 20
8.425
  0
LWPOLYLINE
  5
87
100
AcDbEntity
  8
LAY002
 62
     1
100
AcDbPolyline
 90
       10
 70
     1
 10
189.4
 20
9.125
 10
186.725
 20
9.125
 10
186.725
 20
7.625
 10
189.05
 20
7.625
 10
189.05
 20
7.075
 10
186.725
 20
7.075
 10
186.725
 20
4.9
 10
186.075
 20
4.9
 10
186.075
 20
9.675
 10
189.4
 20
9.675
  0
LWPOLYLINE
  5
88
100
AcDbEntity
  8
LAY002
 62
     1
100
AcDbPolyline
 90
        9
 70
     1
 10
116.325
 20
44.175
 10
115.775
 20
44.175
 10
115.775
 20
45.825
 10
114.2
 20
48.05
 10
114.85
 20
48.05
 10
116.05
 20
46.275
 10
117.25
 20
48.05
 10
117.875
 20
48.05
 10
116.325
 20
45.825
  0
LWPOLYLINE
  5
89
100
AcDbEntity
  8
LAY002
 62
     1
100
AcDbPolyline
 90
        4
 70
     1
 10
112.375
 20
49.825
 10
162.875
 20
49.825
 10
162.875
 20
18.05
 10
112.375
 20
18.05
  0
LWPOLYLINE
  5
8A
100
AcDbEntity
  8
LAY002
 62
     1
100
AcDbPolyline
 90
       12
 70
     1
 10
59.95
 20
44.125
 10
59.35
 20
44.125
 10
58.225
 20
45.65
 10
57.125
 20
44.125
 10
56.525
 20
44.125
 10
57.95
 20
46.025
 10
56.65
 20
47.75
 10
57.275
 20
47.75
 10
58.225
 20
46.4
 10
59.2
 20
47.75
 10
59.8
 20
47.75
 10
58.5
 20
46.025
  0
LWPOLYLINE
  5
8B
100
AcDbEntity
  8
LAY002
 62
     1
100
AcDbPolyline
 90
        4
 70
     1
 10
55.05
 20
49.775
 10
105.55
 20
49.775
 10
105.55
 20
18.0
 10
55.05
 20
18.0
  0
ENDSEC
  0
SECTION
  2
OBJECTS
  0
DICTIONARY
  5
19
100
AcDbDictionary
  3
ACAD_GROUP
350
1A
  3
ACAD_MLINESTYLE
350
1B
  0
DICTIONARY
  5
1A
102
{ACAD_REACTORS
330
19
102
}
100
AcDbDictionary
  0
DICTIONARY
  5
1B
102
{ACAD_REACTORS
330
19
102
}
100
AcDbDictionary
  3
STANDARD
350
1C
  0
MLINESTYLE
  5
1C
102
{ACAD_REACTORS
330
1B
102
}
100
AcDbMlineStyle
  2
STANDARD
 70
     0
  3

 62
     0
 51
90.0
 52
90.0
 71
     2
 49
0.5
 62
   256
  6
BYLAYER
 49
-0.5
 62
   256
  6
BYLAYER
  0
ENDSEC
  0
EOF
