  0
SECTION
  2
HEADER
  9
$ACADVER
  1
AC1014
  9
$ACADMAINTVER
 70
     0
  9
$DWGCODEPAGE
  3
ANSI_1252
  9
$INSBASE
 10
0.0
 20
0.0
 30
0.0
  9
$EXTMIN
 10
0.0
 20
0.0
 30
0.0
  9
$EXTMAX
 10
59.05
 20
43.25
 30
0.0
  9
$LIMMIN
 10
-10.0
 20
-10.0
  9
$LIMMAX
 10
69.05
 20
53.25
  9
$ORTHOMODE
 70
     0
  9
$REGENMODE
 70
     1
  9
$FILLMODE
 70
     1
  9
$QTEXTMODE
 70
     0
  9
$MIRRTEXT
 70
     1
  9
$DRAGMODE
 70
     2
  9
$LTSCALE
 40
1.0
  9
$OSMODE
 70
     0
  9
$ATTMODE
 70
     1
  9
$TEXTSIZE
 40
0.2
  9
$TRACEWID
 40
0.05
  9
$TEXTSTYLE
  7
STANDARD
  9
$CLAYER
  8
0
  9
$CELTYPE
  6
CONTINUOUS
  9
$CECOLOR
 62
   256
  9
$CELTSCALE
 40
1.0
  9
$DELOBJ
 70
     1
  9
$DISPSILH
 70
     0
  9
$DIMSCALE
 40
1.0
  9
$DIMASZ
 40
0.18
  9
$DIMEXO
 40
0.0625
  9
$DIMDLI
 40
0.38
  9
$DIMRND
 40
0.0
  9
$DIMDLE
 40
0.0
  9
$DIMEXE
 40
0.18
  9
$DIMTP
 40
0.0
  9
$DIMTM
 40
0.0
  9
$DIMTXT
 40
0.18
  9
$DIMCEN
 40
0.09
  9
$DIMTSZ
 40
0.0
  9
$DIMTOL
 70
     0
  9
$DIMLIM
 70
     0
  9
$DIMTIH
 70
     1
  9
$DIMTOH
 70
     1
  9
$DIMSE1
 70
     0
  9
$DIMSE2
 70
     0
  9
$DIMTAD
 70
     0
  9
$DIMZIN
 70
     0
  9
$DIMBLK
  1

  9
$DIMASO
 70
     1
  9
$DIMSHO
 70
     1
  9
$DIMPOST
  1

  9
$DIMAPOST
  1

  9
$DIMALT
 70
     0
  9
$DIMALTD
 70
     2
  9
$DIMALTF
 40
25.4
  9
$DIMLFAC
 40
1.0
  9
$DIMTOFL
 70
     0
  9
$DIMTVP
 40
0.0
  9
$DIMTIX
 70
     0
  9
$DIMSOXD
 70
     0
  9
$DIMSAH
 70
     0
  9
$DIMBLK1
  1

  9
$DIMBLK2
  1

  9
$DIMSTYLE
  2
STANDARD
  9
$DIMCLRD
 70
     0
  9
$DIMCLRE
 70
     0
  9
$DIMCLRT
 70
     0
  9
$DIMTFAC
 40
1.0
  9
$DIMGAP
 40
0.09
  9
$DIMJUST
 70
     0
  9
$DIMSD1
 70
     0
  9
$DIMSD2
 70
     0
  9
$DIMTOLJ
 70
     1
  9
$DIMTZIN
 70
     0
  9
$DIMALTZ
 70
     0
  9
$DIMALTTZ
 70
     0
  9
$DIMFIT
 70
     3
  9
$DIMUPT
 70
     0
  9
$DIMUNIT
 70
     2
  9
$DIMDEC
 70
     4
  9
$DIMTDEC
 70
     4
  9
$DIMALTU
 70
     2
  9
$DIMALTTD
 70
     2
  9
$DIMTXSTY
  7
STANDARD
  9
$DIMAUNIT
 70
     0
  9
$LUNITS
 70
     2
  9
$LUPREC
 70
     4
  9
$SKETCHINC
 40
0.1
  9
$FILLETRAD
 40
0.0
  9
$AUNITS
 70
     0
  9
$AUPREC
 70
     0
  9
$MENU
  1
acad
  9
$ELEVATION
 40
0.0
  9
$PELEVATION
 40
0.0
  9
$THICKNESS
 40
0.0
  9
$LIMCHECK
 70
     0
  9
$BLIPMODE
 70
     1
  9
$CHAMFERA
 40
0.0
  9
$CHAMFERB
 40
0.0
  9
$CHAMFERC
 40
0.0
  9
$CHAMFERD
 40
0.0
  9
$SKPOLY
 70
     0
  9
$TDCREATE
 40
2456448.907037037
  9
$TDUPDATE
 40
2456448.907037037
  9
$TDINDWG
 40
0.0000000000
  9
$TDUSRTIMER
 40
0.0000000000
  9
$USRTIMER
 70
     1
  9
$ANGBASE
 50
0.0
  9
$ANGDIR
 70
     0
  9
$PDMODE
 70
     0
  9
$PDSIZE
 40
0.0
  9
$PLINEWID
 40
0.0
  9
$COORDS
 70
     1
  9
$SPLFRAME
 70
     0
  9
$SPLINETYPE
 70
     6
  9
$SPLINESEGS
 70
     8
  9
$ATTDIA
 70
     0
  9
$ATTREQ
 70
     1
  9
$HANDLING
 70
     1
  9
$HANDSEED
  5
2A
  9
$SURFTAB1
 70
     6
  9
$SURFTAB2
 70
     6
  9
$SURFTYPE
 70
     6
  9
$SURFU
 70
     6
  9
$SURFV
 70
     6
  9
$UCSNAME
  2

  9
$UCSORG
 10
0.0
 20
0.0
 30
0.0
  9
$UCSXDIR
 10
1.0
 20
0.0
 30
0.0
  9
$UCSYDIR
 10
0.0
 20
1.0
 30
0.0
  9
$PUCSNAME
  2

  9
$PUCSORG
 10
0.0
 20
0.0
 30
0.0
  9
$PUCSXDIR
 10
1.0
 20
0.0
 30
0.0
  9
$PUCSYDIR
 10
0.0
 20
1.0
 30
0.0
  9
$USERI1
 70
     0
  9
$USERI2
 70
     0
  9
$USERI3
 70
     0
  9
$USERI4
 70
     0
  9
$USERI5
 70
     0
  9
$USERR1
 40
0.0
  9
$USERR2
 40
0.0
  9
$USERR3
 40
0.0
  9
$USERR4
 40
0.0
  9
$USERR5
 40
0.0
  9
$WORLDVIEW
 70
     1
  9
$SHADEDGE
 70
     3
  9
$SHADEDIF
 70
    70
  9
$TILEMODE
 70
     1
  9
$MAXACTVP
 70
    16
  9
$PINSBASE
 10
0.0
 20
0.0
 30
0.0
  9
$PLIMCHECK
 70
     0
  9
$PEXTMIN
 10
1.000000E+20
 20
1.000000E+20
 30
1.000000E+20
  9
$PEXTMAX
 10
-1.000000E+20
 20
-1.000000E+20
 30
-1.000000E+20
  9
$PLIMMIN
 10
0.0
 20
0.0
  9
$PLIMMAX
 10
12.0
 20
9.0
  9
$UNITMODE
 70
     0
  9
$VISRETAIN
 70
     0
  9
$PLINEGEN
 70
     0
  9
$PSLTSCALE
 70
     0
  9
$TREEDEPTH
 70
  3020
  9
$PICKSTYLE
 70
     1
  9
$CMLSTYLE
  2
STANDARD
  9
$CMLJUST
 70
     0
  9
$CMLSCALE
 40
1.0
  9
$PROXYGRAPHICS
 70
     0
  9
$MEASUREMENT
 70
     0
  0
ENDSEC
  0
SECTION
  2
CLASSES
  0
CLASS
  1
LWPOLYLINE
  2
AcDbPolyline
  3
"AutoCAD"
 90
        0
280
     0
281
     1
  0
CLASS
  1
IMAGE
  2
AcDbRasterImage
  3
ISM
 90
      127
280
     0
281
     1
  0
CLASS
  1
OLE2FRAME
  2
AcDbOle2Frame
  3
""
 90
        0
280
     0
281
     1
  0
CLASS
  1
HATCH
  2
AcDbHatch
  3
"ACAD_SEDONA"
 90
        0
280
     0
281
     1
  0
CLASS
  1
DICTIONARYVAR
  2
AcDbDictionaryVar
  3
"AutoCAD"
 90
        0
280
     0
281
     0
  0
CLASS
  1
RASTERVARIABLES
  2
AcDbRasterVariables
  3
ISM
 90
        0
280
     0
281
     0
  0
CLASS
  1
IMAGEDEF
  2
AcDbRasterImageDef
  3
ISM
 90
        0
280
     0
281
     0
  0
CLASS
  1
IMAGEDEF_REACTOR
  2
AcDbRasterImageDefReactor
  3
ISM
 90
        1
280
     0
281
     0
  0
CLASS
  1
IDBUFFER
  2
AcDbIdBuffer
  3
"Acad"
 90
        0
280
     0
281
     0
  0
CLASS
  1
SPATIAL_FILTER
  2
AcDbSpatialFilter
  3
"Acad"
 90
        0
280
     0
281
     0
  0
CLASS
  1
XRECORD
  2
AcDbXrecord
  3
"<Built In>"
 90
        0
280
     0
281
     0
  0
CLASS
  1
SORTENTSTABLE
  2
AcDbSortentsTable
  3
"AutoCAD"
 90
        0
280
     0
281
     0
  0
CLASS
  1
LAYER_INDEX
  2
AcDbLayerIndex
  3
"Acad"
 90
        0
280
     0
281
     0
  0
CLASS
  1
SPATIAL_INDEX
  2
AcDbSpatialIndex
  3
"Acad"
 90
        0
280
     0
281
     0
  0
CLASS
  1
OBJECT_PTR
  2
CAseDLPNTableRecord
  3
"ASE-LPNTableRecord"
 90
        1
280
     0
281
     0
  0
CLASS
  1
LAYOUT
  2
AcDbLayout
  3
"AutoCAD 2000"
 90
        1
280
     0
281
     0
  0
CLASS
  1
PLOTSETTINGS
  2
AcDbPlotSettings
  3
"AutoCAD 2000"
 90
        1
280
     0
281
     0
  0
CLASS
  1
ACDBDICTIONARYWDFLT
  2
AcDbDictionaryWithDefault
  3
"AutoCAD 2000"
 90
        1
280
     0
281
     0
  0
CLASS
  1
ACDBPLACEHOLDER
  2
AcDbPlaceHolder
  3
"AutoCAD 2000"
 90
        1
280
     0
281
     0
  0
ENDSEC
  0
SECTION
  2
TABLES
  0
TABLE
  2
VPORT
  5
7
100
AcDbSymbolTable
 70
     1
  0
VPORT
  5
15
100
AcDbSymbolTableRecord
100
AcDbViewportTableRecord
  2
*ACTIVE
 70
     0
 10
0.0
 20
0.0
 11
1.0
 21
1.0
 12
29.525
 22
21.625
 13
0.0
 23
0.0
 14
1.0
 24
1.0
 15
0.0
 25
0.0
 16
0.0
 26
0.0
 36
1.0
 17
0.0
 27
0.0
 37
0.0
 40
43.25
 41
1.365318
 42
50.0
 43
0.0
 44
0.0
 50
0.0
 51
0.0
 71
     0
 72
   100
 73
     1
 74
     1
 75
     0
 76
     0
 77
     0
 78
     0
  0
ENDTAB
  0
TABLE
  2
LTYPE
  5
4
100
AcDbSymbolTable
 70
     3
  0
LTYPE
  5
11
100
AcDbSymbolTableRecord
100
AcDbLinetypeTableRecord
  2
BYBLOCK
 70
    64
  3

 72
    65
 73
     0
 40
0.0
  0
LTYPE
  5
12
100
AcDbSymbolTableRecord
100
AcDbLinetypeTableRecord
  2
BYLAYER
 70
    64
  3

 72
    65
 73
     0
 40
0.0
  0
LTYPE
  5
13
100
AcDbSymbolTableRecord
100
AcDbLinetypeTableRecord
  2
CONTINUOUS
 70
    64
  3
Solid line
 72
    65
 73
     0
 40
0.0
  0
ENDTAB
  0
TABLE
  2
LAYER
  5
2
100
AcDbSymbolTable
 70
     3
  0
LAYER
  5
14
100
AcDbSymbolTableRecord
100
AcDbLayerTableRecord
  2
0
 70
     0
 62
     7
  6
CONTINUOUS
  0
LAYER
  5
28
100
AcDbSymbolTableRecord
100
AcDbLayerTableRecord
  2
LAY252
 70
     0
 62
   254
  6
CONTINUOUS
  0
LAYER
  5
1D
100
AcDbSymbolTableRecord
100
AcDbLayerTableRecord
  2
LAY001
 70
     0
 62
     7
  6
CONTINUOUS
  0
ENDTAB
  0
TABLE
  2
STYLE
  5
3
100
AcDbSymbolTable
 70
     1
  0
STYLE
  5
17
100
AcDbSymbolTableRecord
100
AcDbTextStyleTableRecord
  2
STANDARD
 70
     0
 40
0.0
 41
1.0
 50
0.0
 71
     0
 42
0.0
  3
txt
  4

  0
ENDTAB
  0
TABLE
  2
VIEW
  5
5
100
AcDbSymbolTable
 70
     0
  0
ENDTAB
  0
TABLE
  2
UCS
  5
6
100
AcDbSymbolTable
 70
     0
  0
ENDTAB
  0
TABLE
  2
APPID
  5
8
100
AcDbSymbolTable
 70
     2
  0
APPID
  5
16
100
AcDbSymbolTableRecord
100
AcDbRegAppTableRecord
  2
ACAD
 70
     0
  0
APPID
  5
29
100
AcDbSymbolTableRecord
100
AcDbRegAppTableRecord
  2
HPGL2CAD
 70
     0
  0
ENDTAB
  0
TABLE
  2
DIMSTYLE
  5
9
100
AcDbSymbolTable
 70
     1
  0
DIMSTYLE
105
18
100
AcDbSymbolTableRecord
100
AcDbDimStyleTableRecord
  2
STANDARD
 70
     0
  3

  4

  5

  6

  7

 40
1.0
 41
0.18
 42
0.0625
 43
0.38
 44
0.18
 45
0.0
 46
0.0
 47
0.0
 48
0.0
 71
     0
 72
     0
 73
     1
 74
     1
 75
     0
 76
     0
 77
     0
 78
     0
140
0.18
141
0.09
142
0.0
143
25.4
144
1.0
145
0.0
146
1.0
147
0.09
170
     0
171
     2
172
     0
173
     0
174
     0
175
     0
176
     0
177
     0
178
     0
270
     2
271
     4
272
     4
273
     2
274
     2
275
     0
280
     0
281
     0
282
     0
283
     1
284
     0
285
     0
286
     0
287
     0
288
     0
340
17
  0
ENDTAB
  0
TABLE
  2
BLOCK_RECORD
  5
1
100
AcDbSymbolTable
 70
     0
  0
BLOCK_RECORD
  5
A
100
AcDbSymbolTableRecord
100
AcDbBlockTableRecord
  2
*MODEL_SPACE
  0
BLOCK_RECORD
  5
B
100
AcDbSymbolTableRecord
100
AcDbBlockTableRecord
  2
*PAPER_SPACE
  0
ENDTAB
  0
ENDSEC
  0
SECTION
  2
BLOCKS
  0
BLOCK
  5
D
100
AcDbEntity
  8
0
100
AcDbBlockBegin
  2
*MODEL_SPACE
 70
     0
 10
0.0
 20
0.0
 30
0.0
  3
*MODEL_SPACE
  1

  0
ENDBLK
  5
E
100
AcDbEntity
  8
0
100
AcDbBlockEnd
  0
BLOCK
  5
F
100
AcDbEntity
 67
     1
  8
0
100
AcDbBlockBegin
  2
*PAPER_SPACE
 70
     0
 10
0.0
 20
0.0
 30
0.0
  3
*PAPER_SPACE
  1

  0
ENDBLK
  5
10
100
AcDbEntity
 67
     1
  8
0
100
AcDbBlockEnd
  0
ENDSEC
  0
SECTION
  2
ENTITIES
  0
LWPOLYLINE
  5
1E
100
AcDbEntity
  8
LAY001
 62
     7
100
AcDbPolyline
 90
       64
 70
     1
 10
7.35
 20
31.8
 10
7.375
 20
32.05
 10
7.4
 20
32.3
 10
7.475
 20
32.55
 10
7.55
 20
32.775
 10
7.675
 20
33.0
 10
7.8
 20
33.2
 10
7.925
 20
33.4
 10
8.1
 20
33.575
 10
8.275
 20
33.725
 10
8.475
 20
33.875
 10
8.675
 20
34.0
 10
8.875
 20
34.1
 10
9.125
 20
34.175
 10
9.35
 20
34.25
 10
9.6
 20
34.275
 10
9.85
 20
34.3
 10
10.125
 20
34.275
 10
10.375
 20
34.25
 10
10.6
 20
34.175
 10
10.825
 20
34.1
 10
11.05
 20
34.0
 10
11.25
 20
33.875
 10
11.45
 20
33.725
 10
11.625
 20
33.575
 10
11.8
 20
33.4
 10
11.925
 20
33.2
 10
12.05
 20
33.0
 10
12.175
 20
32.775
 10
12.25
 20
32.55
 10
12.3
 20
32.3
 10
12.35
 20
32.05
 10
12.35
 20
31.8
 10
12.35
 20
31.55
 10
12.3
 20
31.3
 10
12.25
 20
31.05
 10
12.175
 20
30.825
 10
12.05
 20
30.6
 10
11.925
 20
30.4
 10
11.8
 20
30.2
 10
11.625
 20
30.025
 10
11.45
 20
29.875
 10
11.25
 20
29.725
 10
11.05
 20
29.6
 10
10.825
 20
29.5
 10
10.6
 20
29.4
 10
10.375
 20
29.35
 10
10.125
 20
29.3
 10
9.85
 20
29.3
 10
9.6
 20
29.3
 10
9.35
 20
29.35
 10
9.125
 20
29.4
 10
8.875
 20
29.5
 10
8.675
 20
29.6
 10
8.475
 20
29.725
 10
8.275
 20
29.875
 10
8.1
 20
30.025
 10
7.925
 20
30.2
 10
7.8
 20
30.4
 10
7.675
 20
30.6
 10
7.55
 20
30.825
 10
7.475
 20
31.05
 10
7.4
 20
31.3
 10
7.375
 20
31.55
  0
LWPOLYLINE
  5
1F
100
AcDbEntity
  8
LAY001
 62
     7
100
AcDbPolyline
 90
       64
 70
     1
 10
9.725
 20
12.775
 10
9.975
 20
12.75
 10
10.225
 20
12.725
 10
10.45
 20
12.65
 10
10.7
 20
12.575
 10
10.9
 20
12.475
 10
11.125
 20
12.35
 10
11.3
 20
12.2
 10
11.475
 20
12.025
 10
11.65
 20
11.85
 10
11.775
 20
11.675
 10
11.9
 20
11.45
 10
12.025
 20
11.25
 10
12.1
 20
11.0
 10
12.175
 20
10.775
 10
12.2
 20
10.525
 10
12.225
 20
10.275
 10
12.2
 20
10.0
 10
12.175
 20
9.75
 10
12.1
 20
9.525
 10
12.025
 20
9.3
 10
11.9
 20
9.075
 10
11.775
 20
8.875
 10
11.65
 20
8.675
 10
11.475
 20
8.5
 10
11.3
 20
8.325
 10
11.125
 20
8.2
 10
10.9
 20
8.075
 10
10.7
 20
7.95
 10
10.45
 20
7.875
 10
10.225
 20
7.825
 10
9.975
 20
7.775
 10
9.725
 20
7.775
 10
9.45
 20
7.775
 10
9.2
 20
7.825
 10
8.975
 20
7.875
 10
8.75
 20
7.95
 10
8.525
 20
8.075
 10
8.325
 20
8.2
 10
8.125
 20
8.325
 10
7.95
 20
8.5
 10
7.775
 20
8.675
 10
7.65
 20
8.875
 10
7.525
 20
9.075
 10
7.4
 20
9.3
 10
7.325
 20
9.525
 10
7.275
 20
9.75
 10
7.225
 20
10.0
 10
7.225
 20
10.275
 10
7.225
 20
10.525
 10
7.275
 20
10.775
 10
7.325
 20
11.0
 10
7.4
 20
11.25
 10
7.525
 20
11.45
 10
7.65
 20
11.675
 10
7.775
 20
11.85
 10
7.95
 20
12.025
 10
8.125
 20
12.2
 10
8.325
 20
12.35
 10
8.525
 20
12.475
 10
8.75
 20
12.575
 10
8.975
 20
12.65
 10
9.2
 20
12.725
 10
9.45
 20
12.75
  0
LWPOLYLINE
  5
20
100
AcDbEntity
  8
LAY001
 62
     7
100
AcDbPolyline
 90
       64
 70
     1
 10
28.875
 20
10.15
 10
28.9
 20
10.4
 10
28.925
 20
10.65
 10
29.0
 20
10.875
 10
29.075
 20
11.1
 10
29.175
 20
11.325
 10
29.3
 20
11.525
 10
29.45
 20
11.725
 10
29.625
 20
11.9
 10
29.8
 20
12.075
 10
29.975
 20
12.2
 10
30.2
 20
12.325
 10
30.4
 20
12.45
 10
30.65
 20
12.525
 10
30.875
 20
12.6
 10
31.125
 20
12.625
 10
31.375
 20
12.65
 10
31.65
 20
12.625
 10
31.875
 20
12.6
 10
32.125
 20
12.525
 10
32.35
 20
12.45
 10
32.575
 20
12.325
 10
32.775
 20
12.2
 10
32.975
 20
12.075
 10
33.15
 20
11.9
 10
33.325
 20
11.725
 10
33.45
 20
11.525
 10
33.575
 20
11.325
 10
33.675
 20
11.1
 10
33.775
 20
10.875
 10
33.825
 20
10.65
 10
33.875
 20
10.4
 10
33.875
 20
10.15
 10
33.875
 20
9.875
 10
33.825
 20
9.625
 10
33.775
 20
9.4
 10
33.675
 20
9.175
 10
33.575
 20
8.95
 10
33.45
 20
8.75
 10
33.325
 20
8.55
 10
33.15
 20
8.375
 10
32.975
 20
8.2
 10
32.775
 20
8.075
 10
32.575
 20
7.95
 10
32.35
 20
7.825
 10
32.125
 20
7.75
 10
31.875
 20
7.7
 10
31.65
 20
7.65
 10
31.375
 20
7.65
 10
31.125
 20
7.65
 10
30.875
 20
7.7
 10
30.65
 20
7.75
 10
30.4
 20
7.825
 10
30.2
 20
7.95
 10
29.975
 20
8.075
 10
29.8
 20
8.2
 10
29.625
 20
8.375
 10
29.45
 20
8.55
 10
29.3
 20
8.75
 10
29.175
 20
8.95
 10
29.075
 20
9.175
 10
29.0
 20
9.4
 10
28.925
 20
9.625
 10
28.9
 20
9.875
  0
LWPOLYLINE
  5
21
100
AcDbEntity
  8
LAY001
 62
     7
100
AcDbPolyline
 90
       64
 70
     1
 10
31.625
 20
29.2
 10
31.35
 20
29.225
 10
31.1
 20
29.25
 10
30.875
 20
29.325
 10
30.65
 20
29.4
 10
30.425
 20
29.525
 10
30.225
 20
29.65
 10
30.025
 20
29.775
 10
29.85
 20
29.95
 10
29.675
 20
30.125
 10
29.55
 20
30.325
 10
29.425
 20
30.525
 10
29.3
 20
30.75
 10
29.225
 20
30.975
 10
29.175
 20
31.2
 10
29.125
 20
31.45
 10
29.125
 20
31.7
 10
29.125
 20
31.975
 10
29.175
 20
32.225
 10
29.225
 20
32.45
 10
29.3
 20
32.675
 10
29.425
 20
32.9
 10
29.55
 20
33.1
 10
29.675
 20
33.3
 10
29.85
 20
33.475
 10
30.025
 20
33.65
 10
30.225
 20
33.775
 10
30.425
 20
33.9
 10
30.65
 20
34.025
 10
30.875
 20
34.1
 10
31.1
 20
34.15
 10
31.35
 20
34.2
 10
31.625
 20
34.2
 10
31.875
 20
34.2
 10
32.125
 20
34.15
 10
32.35
 20
34.1
 10
32.575
 20
34.025
 10
32.8
 20
33.9
 10
33.0
 20
33.775
 10
33.2
 20
33.65
 10
33.375
 20
33.475
 10
33.55
 20
33.3
 10
33.675
 20
33.1
 10
33.8
 20
32.9
 10
33.925
 20
32.675
 10
34.0
 20
32.45
 10
34.075
 20
32.225
 10
34.1
 20
31.975
 10
34.125
 20
31.7
 10
34.1
 20
31.45
 10
34.075
 20
31.2
 10
34.0
 20
30.975
 10
33.925
 20
30.75
 10
33.8
 20
30.525
 10
33.675
 20
30.325
 10
33.55
 20
30.125
 10
33.375
 20
29.95
 10
33.2
 20
29.775
 10
33.0
 20
29.65
 10
32.8
 20
29.525
 10
32.575
 20
29.4
 10
32.35
 20
29.325
 10
32.125
 20
29.25
 10
31.875
 20
29.225
  0
LWPOLYLINE
  5
22
100
AcDbEntity
  8
LAY001
 62
     7
100
AcDbPolyline
 90
       40
 70
     1
 10
43.775
 20
22.775
 10
43.775
 20
22.925
 10
43.8
 20
23.075
 10
43.9
 20
23.35
 10
44.025
 20
23.6
 10
44.2
 20
23.825
 10
44.425
 20
24.0
 10
44.675
 20
24.15
 10
44.975
 20
24.225
 10
45.125
 20
24.25
 10
45.275
 20
24.275
 10
45.425
 20
24.25
 10
45.575
 20
24.225
 10
45.85
 20
24.15
 10
46.1
 20
24.0
 10
46.325
 20
23.825
 10
46.525
 20
23.6
 10
46.65
 20
23.35
 10
46.75
 20
23.075
 10
46.775
 20
22.925
 10
46.775
 20
22.775
 10
46.775
 20
22.6
 10
46.75
 20
22.45
 10
46.65
 20
22.175
 10
46.525
 20
21.925
 10
46.325
 20
21.7
 10
46.1
 20
21.525
 10
45.85
 20
21.375
 10
45.575
 20
21.3
 10
45.425
 20
21.275
 10
45.275
 20
21.275
 10
45.125
 20
21.275
 10
44.975
 20
21.3
 10
44.675
 20
21.375
 10
44.425
 20
21.525
 10
44.2
 20
21.7
 10
44.025
 20
21.925
 10
43.9
 20
22.175
 10
43.8
 20
22.45
 10
43.775
 20
22.6
  0
LWPOLYLINE
  5
23
100
AcDbEntity
  8
LAY001
 62
     7
100
AcDbPolyline
 90
       64
 70
     1
 10
49.75
 20
26.75
 10
49.4
 20
26.775
 10
49.05
 20
26.825
 10
48.725
 20
26.925
 10
48.4
 20
27.025
 10
48.075
 20
27.175
 10
47.8
 20
27.35
 10
47.525
 20
27.55
 10
47.275
 20
27.775
 10
47.05
 20
28.025
 10
46.85
 20
28.3
 10
46.675
 20
28.6
 10
46.525
 20
28.9
 10
46.4
 20
29.225
 10
46.325
 20
29.55
 10
46.275
 20
29.9
 10
46.25
 20
30.25
 10
46.275
 20
30.625
 10
46.325
 20
30.975
 10
46.4
 20
31.3
 10
46.525
 20
31.625
 10
46.675
 20
31.925
 10
46.85
 20
32.225
 10
47.05
 20
32.5
 10
47.275
 20
32.725
 10
47.525
 20
32.975
 10
47.8
 20
33.175
 10
48.075
 20
33.35
 10
48.4
 20
33.475
 10
48.725
 20
33.6
 10
49.05
 20
33.7
 10
49.4
 20
33.75
 10
49.75
 20
33.75
 10
50.1
 20
33.75
 10
50.45
 20
33.7
 10
50.8
 20
33.6
 10
51.125
 20
33.475
 10
51.425
 20
33.35
 10
51.7
 20
33.175
 10
51.975
 20
32.975
 10
52.225
 20
32.725
 10
52.45
 20
32.5
 10
52.65
 20
32.225
 10
52.825
 20
31.925
 10
52.975
 20
31.625
 10
53.1
 20
31.3
 10
53.175
 20
30.975
 10
53.225
 20
30.625
 10
53.25
 20
30.25
 10
53.225
 20
29.9
 10
53.175
 20
29.55
 10
53.1
 20
29.225
 10
52.975
 20
28.9
 10
52.825
 20
28.6
 10
52.65
 20
28.3
 10
52.45
 20
28.025
 10
52.225
 20
27.775
 10
51.975
 20
27.55
 10
51.7
 20
27.35
 10
51.425
 20
27.175
 10
51.125
 20
27.025
 10
50.8
 20
26.925
 10
50.45
 20
26.825
 10
50.1
 20
26.775
  0
LWPOLYLINE
  5
24
100
AcDbEntity
  8
LAY001
 62
     7
100
AcDbPolyline
 90
       40
 70
     1
 10
52.675
 20
22.625
 10
52.675
 20
22.775
 10
52.7
 20
22.925
 10
52.8
 20
23.2
 10
52.925
 20
23.45
 10
53.1
 20
23.675
 10
53.325
 20
23.875
 10
53.575
 20
24.0
 10
53.875
 20
24.1
 10
54.025
 20
24.125
 10
54.175
 20
24.125
 10
54.325
 20
24.125
 10
54.475
 20
24.1
 10
54.75
 20
24.0
 10
55.0
 20
23.875
 10
55.225
 20
23.675
 10
55.425
 20
23.45
 10
55.55
 20
23.2
 10
55.65
 20
22.925
 10
55.65
 20
22.775
 10
55.675
 20
22.625
 10
55.65
 20
22.475
 10
55.65
 20
22.325
 10
55.55
 20
22.025
 10
55.425
 20
21.775
 10
55.225
 20
21.55
 10
55.0
 20
21.375
 10
54.75
 20
21.25
 10
54.475
 20
21.15
 10
54.325
 20
21.125
 10
54.175
 20
21.125
 10
54.025
 20
21.125
 10
53.875
 20
21.15
 10
53.575
 20
21.25
 10
53.325
 20
21.375
 10
53.1
 20
21.55
 10
52.925
 20
21.775
 10
52.8
 20
22.025
 10
52.7
 20
22.325
 10
52.675
 20
22.475
  0
LWPOLYLINE
  5
25
100
AcDbEntity
  8
LAY001
 62
     7
100
AcDbPolyline
 90
       40
 70
     1
 10
54.175
 20
35.9
 10
54.025
 20
35.925
 10
53.875
 20
35.925
 10
53.575
 20
36.025
 10
53.325
 20
36.15
 10
53.1
 20
36.35
 10
52.925
 20
36.575
 10
52.8
 20
36.825
 10
52.7
 20
37.1
 10
52.675
 20
37.25
 10
52.675
 20
37.4
 10
52.675
 20
37.55
 10
52.7
 20
37.7
 10
52.8
 20
38.0
 10
52.925
 20
38.25
 10
53.1
 20
38.475
 10
53.325
 20
38.65
 10
53.575
 20
38.775
 10
53.875
 20
38.875
 10
54.025
 20
38.9
 10
54.175
 20
38.9
 10
54.325
 20
38.9
 10
54.475
 20
38.875
 10
54.75
 20
38.775
 10
55.0
 20
38.65
 10
55.225
 20
38.475
 10
55.425
 20
38.25
 10
55.55
 20
38.0
 10
55.65
 20
37.7
 10
55.65
 20
37.55
 10
55.675
 20
37.4
 10
55.65
 20
37.25
 10
55.65
 20
37.1
 10
55.55
 20
36.825
 10
55.425
 20
36.575
 10
55.225
 20
36.35
 10
55.0
 20
36.15
 10
54.75
 20
36.025
 10
54.475
 20
35.925
 10
54.325
 20
35.925
  0
LWPOLYLINE
  5
26
100
AcDbEntity
  8
LAY001
 62
     7
100
AcDbPolyline
 90
       40
 70
     1
 10
46.625
 20
37.4
 10
46.625
 20
37.25
 10
46.6
 20
37.1
 10
46.525
 20
36.825
 10
46.375
 20
36.55
 10
46.2
 20
36.35
 10
45.975
 20
36.15
 10
45.725
 20
36.025
 10
45.425
 20
35.925
 10
45.275
 20
35.9
 10
45.125
 20
35.9
 10
44.975
 20
35.9
 10
44.825
 20
35.925
 10
44.55
 20
36.025
 10
44.3
 20
36.15
 10
44.075
 20
36.35
 10
43.9
 20
36.55
 10
43.75
 20
36.825
 10
43.65
 20
37.1
 10
43.65
 20
37.25
 10
43.625
 20
37.4
 10
43.65
 20
37.55
 10
43.65
 20
37.7
 10
43.75
 20
37.975
 10
43.9
 20
38.25
 10
44.075
 20
38.45
 10
44.3
 20
38.65
 10
44.55
 20
38.775
 10
44.825
 20
38.875
 10
44.975
 20
38.9
 10
45.125
 20
38.9
 10
45.275
 20
38.9
 10
45.425
 20
38.875
 10
45.725
 20
38.775
 10
45.975
 20
38.65
 10
46.2
 20
38.45
 10
46.375
 20
38.25
 10
46.525
 20
37.975
 10
46.6
 20
37.7
 10
46.625
 20
37.55
  0
LWPOLYLINE
  5
27
100
AcDbEntity
  8
LAY001
 62
     7
100
AcDbPolyline
 90
       12
 70
     1
 10
42.1
 20
41.2
 10
44.3
 20
43.25
 10
56.325
 20
43.225
 10
58.925
 20
41.05
 10
59.05
 20
20.4
 10
55.975
 20
17.3
 10
50.075
 20
17.3
 10
40.125
 20
7.325
 10
39.95
 20
0.0
 10
0.0
 20
0.0
 10
0.15
 20
38.3
 10
0.05
 20
41.3
  0
ENDSEC
  0
SECTION
  2
OBJECTS
  0
DICTIONARY
  5
19
100
AcDbDictionary
  3
ACAD_GROUP
350
1A
  3
ACAD_MLINESTYLE
350
1B
  0
DICTIONARY
  5
1A
102
{ACAD_REACTORS
330
19
102
}
100
AcDbDictionary
  0
DICTIONARY
  5
1B
102
{ACAD_REACTORS
330
19
102
}
100
AcDbDictionary
  3
STANDARD
350
1C
  0
MLINESTYLE
  5
1C
102
{ACAD_REACTORS
330
1B
102
}
100
AcDbMlineStyle
  2
STANDARD
 70
     0
  3

 62
     0
 51
90.0
 52
90.0
 71
     2
 49
0.5
 62
   256
  6
BYLAYER
 49
-0.5
 62
   256
  6
BYLAYER
  0
ENDSEC
  0
EOF
