G75*
G70*
%OFA0B0*%
%FSLAX24Y24*%
%IPPOS*%
%LPD*%
%AMOC8*
5,1,8,0,0,1.08239X$1,22.5*
%
%ADD10C,0.0160*%
%ADD11C,0.0060*%
%ADD12R,0.2000X0.2000*%
%ADD13R,0.2500X0.2500*%
%ADD14R,0.1000X0.1000*%
%ADD15C,0.0050*%
%ADD16C,0.0200*%
%ADD17R,0.0300X0.4200*%
%ADD18R,0.0200X0.0750*%
%ADD19R,0.0200X0.0300*%
%ADD20R,0.4200X0.0300*%
%ADD21R,0.0750X0.0200*%
%ADD22R,0.0300X0.0200*%
%ADD23C,0.0040*%
%ADD24R,0.0551X0.0256*%
%ADD25R,0.0200X0.1000*%
%ADD26R,0.0750X0.0300*%
%ADD27R,0.0059X0.0118*%
%ADD28R,0.0118X0.0118*%
%ADD29C,0.0080*%
%ADD30C,0.0010*%
%ADD31C,0.0020*%
%ADD32R,0.0118X0.0059*%
%ADD33R,0.0256X0.0551*%
%ADD34C,0.0070*%
%ADD35C,0.0120*%
%ADD36C,0.0100*%
D10*
X007433Y007150D02*
X010433Y007150D01*
X007433Y007150D02*
X007433Y011150D01*
X007433Y015150D01*
X010433Y015150D01*
X010433Y011150D02*
X007433Y011150D01*
D11*
X005983Y007800D02*
X005983Y006750D01*
X007183Y006750D01*
X010733Y006750D01*
X010733Y007900D01*
X010733Y008400D02*
X010733Y009900D01*
X010733Y010400D02*
X010733Y011900D01*
X010733Y012400D02*
X010733Y013900D01*
X010733Y014400D02*
X010733Y015550D01*
X007183Y015550D01*
X005983Y015550D01*
X005983Y014500D01*
X005983Y013800D01*
X005983Y012500D01*
X005983Y011800D01*
X005983Y010500D01*
X006483Y010350D01*
X006483Y009950D01*
X005983Y009800D01*
X005983Y008500D01*
X006483Y008350D01*
X006483Y007950D01*
X005983Y007800D01*
X005983Y008500D01*
X005983Y009800D02*
X005983Y010500D01*
X005983Y011800D02*
X006483Y011950D01*
X006483Y012350D01*
X005983Y012500D01*
X005983Y013800D02*
X006483Y013950D01*
X006483Y014350D01*
X005983Y014500D01*
X007183Y015550D02*
X007183Y006750D01*
X008070Y007680D02*
X008284Y007680D01*
X008390Y007787D01*
X008390Y008000D01*
X008177Y008000D01*
X007963Y007787D02*
X008070Y007680D01*
X007963Y007787D02*
X007963Y008214D01*
X008070Y008321D01*
X008284Y008321D01*
X008390Y008214D01*
X008177Y010287D02*
X008177Y010714D01*
X008390Y010500D02*
X007963Y010500D01*
X008070Y012180D02*
X008284Y012180D01*
X008390Y012287D01*
X008390Y012500D01*
X008177Y012500D01*
X007963Y012287D02*
X008070Y012180D01*
X007963Y012287D02*
X007963Y012714D01*
X008070Y012821D01*
X008284Y012821D01*
X008390Y012714D01*
X008177Y014287D02*
X008177Y014714D01*
X008390Y014500D02*
X007963Y014500D01*
X007683Y016150D02*
X007183Y016150D01*
X006933Y016400D01*
X006933Y016900D01*
X007183Y017150D01*
X006933Y017400D01*
X006933Y017900D01*
X007183Y018150D01*
X006933Y018400D01*
X006933Y018900D01*
X007183Y019150D01*
X007683Y019150D01*
X007933Y018900D01*
X007933Y018400D01*
X007683Y018150D01*
X007933Y017900D01*
X007933Y017400D01*
X007683Y017150D01*
X007933Y016900D01*
X007933Y016400D01*
X007683Y016150D01*
X007683Y019650D02*
X007183Y019650D01*
X006933Y019900D01*
X006933Y020400D01*
X007183Y020650D01*
X006933Y020900D01*
X006933Y021400D01*
X007183Y021650D01*
X006933Y021900D01*
X006933Y022400D01*
X007183Y022650D01*
X007683Y022650D01*
X007933Y022400D01*
X007933Y021900D01*
X007683Y021650D01*
X007933Y021400D01*
X007933Y020900D01*
X007683Y020650D01*
X007933Y020400D01*
X007933Y019900D01*
X007683Y019650D01*
X009433Y021300D02*
X009433Y023000D01*
X009435Y023017D01*
X009439Y023034D01*
X009446Y023050D01*
X009456Y023064D01*
X009469Y023077D01*
X009483Y023087D01*
X009499Y023094D01*
X009516Y023098D01*
X009533Y023100D01*
X010333Y023100D01*
X010350Y023098D01*
X010367Y023094D01*
X010383Y023087D01*
X010397Y023077D01*
X010410Y023064D01*
X010420Y023050D01*
X010427Y023034D01*
X010431Y023017D01*
X010433Y023000D01*
X010433Y021300D01*
X010431Y021283D01*
X010427Y021266D01*
X010420Y021250D01*
X010410Y021236D01*
X010397Y021223D01*
X010383Y021213D01*
X010367Y021206D01*
X010350Y021202D01*
X010333Y021200D01*
X009533Y021200D01*
X009516Y021202D01*
X009499Y021206D01*
X009483Y021213D01*
X009469Y021223D01*
X009456Y021236D01*
X009446Y021250D01*
X009439Y021266D01*
X009435Y021283D01*
X009433Y021300D01*
X009933Y022000D02*
X009933Y022050D01*
X009933Y022250D02*
X009933Y022300D01*
X010733Y023250D02*
X007183Y023250D01*
X005983Y023250D01*
X005983Y024300D01*
X006483Y024450D01*
X006483Y024850D01*
X005983Y025000D01*
X005983Y024300D01*
X005983Y025000D02*
X005983Y026300D01*
X005983Y027000D01*
X006483Y026850D01*
X006483Y026450D01*
X005983Y026300D01*
X005983Y027000D02*
X005983Y028300D01*
X005983Y029000D01*
X006483Y028850D01*
X006483Y028450D01*
X005983Y028300D01*
X005983Y029000D02*
X005983Y030050D01*
X007183Y030050D01*
X007183Y023250D01*
X007570Y024180D02*
X007784Y024180D01*
X007890Y024287D01*
X007890Y024500D01*
X007677Y024500D01*
X007463Y024287D02*
X007463Y024714D01*
X007570Y024821D01*
X007784Y024821D01*
X007890Y024714D01*
X007463Y024287D02*
X007570Y024180D01*
X010733Y024400D02*
X010733Y023250D01*
X010733Y024900D02*
X010733Y026400D01*
X010733Y026900D02*
X010733Y028400D01*
X010733Y028900D02*
X010733Y030050D01*
X007183Y030050D01*
X008177Y029214D02*
X008177Y028787D01*
X007963Y029000D02*
X008390Y029000D01*
X008390Y027000D02*
X007963Y027000D01*
X014983Y026050D02*
X014983Y025250D01*
X014985Y025233D01*
X014989Y025216D01*
X014996Y025200D01*
X015006Y025186D01*
X015019Y025173D01*
X015033Y025163D01*
X015049Y025156D01*
X015066Y025152D01*
X015083Y025150D01*
X016783Y025150D01*
X016800Y025152D01*
X016817Y025156D01*
X016833Y025163D01*
X016847Y025173D01*
X016860Y025186D01*
X016870Y025200D01*
X016877Y025216D01*
X016881Y025233D01*
X016883Y025250D01*
X016883Y026050D01*
X016881Y026067D01*
X016877Y026084D01*
X016870Y026100D01*
X016860Y026114D01*
X016847Y026127D01*
X016833Y026137D01*
X016817Y026144D01*
X016800Y026148D01*
X016783Y026150D01*
X015083Y026150D01*
X015066Y026148D01*
X015049Y026144D01*
X015033Y026137D01*
X015019Y026127D01*
X015006Y026114D01*
X014996Y026100D01*
X014989Y026084D01*
X014985Y026067D01*
X014983Y026050D01*
X015783Y025650D02*
X015833Y025650D01*
X016033Y025650D02*
X016083Y025650D01*
X016533Y024100D02*
X017333Y024100D01*
X017350Y024098D01*
X017367Y024094D01*
X017383Y024087D01*
X017397Y024077D01*
X017410Y024064D01*
X017420Y024050D01*
X017427Y024034D01*
X017431Y024017D01*
X017433Y024000D01*
X017433Y022300D01*
X017431Y022283D01*
X017427Y022266D01*
X017420Y022250D01*
X017410Y022236D01*
X017397Y022223D01*
X017383Y022213D01*
X017367Y022206D01*
X017350Y022202D01*
X017333Y022200D01*
X016533Y022200D01*
X016516Y022202D01*
X016499Y022206D01*
X016483Y022213D01*
X016469Y022223D01*
X016456Y022236D01*
X016446Y022250D01*
X016439Y022266D01*
X016435Y022283D01*
X016433Y022300D01*
X016433Y024000D01*
X016435Y024017D01*
X016439Y024034D01*
X016446Y024050D01*
X016456Y024064D01*
X016469Y024077D01*
X016483Y024087D01*
X016499Y024094D01*
X016516Y024098D01*
X016533Y024100D01*
X016933Y023300D02*
X016933Y023250D01*
X016933Y023050D02*
X016933Y023000D01*
X019933Y024900D02*
X019933Y025400D01*
X020183Y025650D01*
X020683Y025650D01*
X020933Y025400D01*
X021183Y025650D01*
X021683Y025650D01*
X021933Y025400D01*
X022183Y025650D01*
X022683Y025650D01*
X022933Y025400D01*
X022933Y024900D01*
X022683Y024650D01*
X022183Y024650D01*
X021933Y024900D01*
X021683Y024650D01*
X021183Y024650D01*
X020933Y024900D01*
X020683Y024650D01*
X020183Y024650D01*
X019933Y024900D01*
X020583Y023150D02*
X022283Y023150D01*
X022300Y023148D01*
X022317Y023144D01*
X022333Y023137D01*
X022347Y023127D01*
X022360Y023114D01*
X022370Y023100D01*
X022377Y023084D01*
X022381Y023067D01*
X022383Y023050D01*
X022383Y022250D01*
X022381Y022233D01*
X022377Y022216D01*
X022370Y022200D01*
X022360Y022186D01*
X022347Y022173D01*
X022333Y022163D01*
X022317Y022156D01*
X022300Y022152D01*
X022283Y022150D01*
X020583Y022150D01*
X020566Y022152D01*
X020549Y022156D01*
X020533Y022163D01*
X020519Y022173D01*
X020506Y022186D01*
X020496Y022200D01*
X020489Y022216D01*
X020485Y022233D01*
X020483Y022250D01*
X020483Y023050D01*
X020485Y023067D01*
X020489Y023084D01*
X020496Y023100D01*
X020506Y023114D01*
X020519Y023127D01*
X020533Y023137D01*
X020549Y023144D01*
X020566Y023148D01*
X020583Y023150D01*
X021283Y022650D02*
X021333Y022650D01*
X021533Y022650D02*
X021583Y022650D01*
X021583Y020150D02*
X023283Y020150D01*
X023300Y020148D01*
X023317Y020144D01*
X023333Y020137D01*
X023347Y020127D01*
X023360Y020114D01*
X023370Y020100D01*
X023377Y020084D01*
X023381Y020067D01*
X023383Y020050D01*
X023383Y019250D01*
X023381Y019233D01*
X023377Y019216D01*
X023370Y019200D01*
X023360Y019186D01*
X023347Y019173D01*
X023333Y019163D01*
X023317Y019156D01*
X023300Y019152D01*
X023283Y019150D01*
X021583Y019150D01*
X021566Y019152D01*
X021549Y019156D01*
X021533Y019163D01*
X021519Y019173D01*
X021506Y019186D01*
X021496Y019200D01*
X021489Y019216D01*
X021485Y019233D01*
X021483Y019250D01*
X021483Y020050D01*
X021485Y020067D01*
X021489Y020084D01*
X021496Y020100D01*
X021506Y020114D01*
X021519Y020127D01*
X021533Y020137D01*
X021549Y020144D01*
X021566Y020148D01*
X021583Y020150D01*
X022283Y019650D02*
X022333Y019650D01*
X022533Y019650D02*
X022583Y019650D01*
X024733Y020000D02*
X024833Y020100D01*
X025983Y020150D01*
X027433Y020000D02*
X027433Y020750D01*
X027472Y020752D01*
X027511Y020758D01*
X027549Y020767D01*
X027586Y020780D01*
X027622Y020797D01*
X027655Y020817D01*
X027687Y020841D01*
X027716Y020867D01*
X027742Y020896D01*
X027766Y020928D01*
X027786Y020961D01*
X027803Y020997D01*
X027816Y021034D01*
X027825Y021072D01*
X027831Y021111D01*
X027833Y021150D01*
X027831Y021189D01*
X027825Y021228D01*
X027816Y021266D01*
X027803Y021303D01*
X027786Y021339D01*
X027766Y021372D01*
X027742Y021404D01*
X027716Y021433D01*
X027687Y021459D01*
X027655Y021483D01*
X027622Y021503D01*
X027586Y021520D01*
X027549Y021533D01*
X027511Y021542D01*
X027472Y021548D01*
X027433Y021550D01*
X027433Y022300D01*
X031433Y022300D01*
X031433Y020000D01*
X027433Y020000D01*
X027433Y018300D02*
X027433Y017550D01*
X027472Y017548D01*
X027511Y017542D01*
X027549Y017533D01*
X027586Y017520D01*
X027622Y017503D01*
X027655Y017483D01*
X027687Y017459D01*
X027716Y017433D01*
X027742Y017404D01*
X027766Y017372D01*
X027786Y017339D01*
X027803Y017303D01*
X027816Y017266D01*
X027825Y017228D01*
X027831Y017189D01*
X027833Y017150D01*
X027831Y017111D01*
X027825Y017072D01*
X027816Y017034D01*
X027803Y016997D01*
X027786Y016961D01*
X027766Y016928D01*
X027742Y016896D01*
X027716Y016867D01*
X027687Y016841D01*
X027655Y016817D01*
X027622Y016797D01*
X027586Y016780D01*
X027549Y016767D01*
X027511Y016758D01*
X027472Y016752D01*
X027433Y016750D01*
X027433Y016000D01*
X031433Y016000D01*
X031433Y018300D01*
X027433Y018300D01*
X024733Y020000D02*
X024733Y016300D01*
X024833Y016200D01*
X025983Y016150D01*
X023733Y015650D02*
X023733Y014650D01*
X022133Y014650D01*
X022133Y015650D01*
X023733Y015650D01*
X023333Y015400D02*
X022933Y015150D01*
X022933Y014900D01*
X022933Y015150D02*
X022933Y015400D01*
X022933Y015150D02*
X022683Y015150D01*
X022933Y015150D02*
X023533Y015150D01*
X023333Y014900D02*
X022933Y015150D01*
X023333Y015400D02*
X023333Y014900D01*
X020433Y014200D02*
X020383Y013050D01*
X020283Y012950D01*
X016583Y012950D01*
X016483Y013050D01*
X016433Y014200D01*
X017633Y015650D02*
X017633Y016650D01*
X019233Y016650D01*
X019233Y015650D01*
X017633Y015650D01*
X018183Y016150D02*
X018433Y016150D01*
X018433Y015900D01*
X018433Y016150D02*
X018433Y016400D01*
X018433Y016150D02*
X018833Y016400D01*
X018833Y015900D01*
X018433Y016150D01*
X019033Y016150D01*
X015383Y018200D02*
X015133Y018800D01*
X014733Y018800D01*
X014483Y018200D01*
X014483Y012100D01*
X014733Y011500D01*
X015133Y011500D01*
X015383Y012100D01*
X015383Y018200D01*
X015183Y010450D02*
X016683Y010450D01*
X017183Y010450D02*
X018333Y010450D01*
X018333Y006900D01*
X018333Y005700D01*
X017283Y005700D01*
X016583Y005700D01*
X016733Y006200D01*
X017133Y006200D01*
X017283Y005700D01*
X016583Y005700D02*
X015283Y005700D01*
X014583Y005700D01*
X014733Y006200D01*
X015133Y006200D01*
X015283Y005700D01*
X014583Y005700D02*
X013533Y005700D01*
X013533Y006900D01*
X018333Y006900D01*
X019483Y006750D02*
X021933Y006750D01*
X021933Y006650D01*
X021433Y006650D01*
X021433Y006500D01*
X020433Y006500D01*
X020433Y006650D01*
X021433Y006650D01*
X021183Y006850D02*
X022283Y006850D01*
X022283Y007350D01*
X022383Y006750D02*
X021933Y006750D01*
X022383Y006750D02*
X022383Y008150D01*
X022283Y008150D02*
X022283Y007950D01*
X022283Y008150D02*
X021983Y008150D01*
X021983Y008250D01*
X021633Y008250D01*
X021633Y008150D01*
X021233Y008150D01*
X021233Y008050D01*
X020633Y008050D01*
X020633Y008150D01*
X020183Y008150D01*
X020183Y008250D01*
X019883Y008250D01*
X019883Y008150D01*
X019583Y008150D01*
X019583Y007950D01*
X019483Y008150D02*
X019483Y006750D01*
X019583Y006850D02*
X019583Y007350D01*
X019583Y006850D02*
X020683Y006850D01*
X021183Y006850D01*
X021183Y007250D01*
X020683Y007250D01*
X020683Y006850D01*
X020433Y006650D02*
X019933Y006650D01*
X019933Y006750D01*
X017390Y007787D02*
X017390Y008000D01*
X017177Y008000D01*
X017390Y007787D02*
X017284Y007680D01*
X017070Y007680D01*
X016963Y007787D01*
X016963Y008214D01*
X017070Y008321D01*
X017284Y008321D01*
X017390Y008214D01*
X014890Y008500D02*
X014463Y008500D01*
X014677Y008287D02*
X014677Y008714D01*
X014683Y010450D02*
X013533Y010450D01*
X013533Y006900D01*
X024083Y006900D02*
X024083Y007550D01*
X024083Y008050D02*
X024083Y009400D01*
X024183Y009500D01*
X026683Y009500D01*
X026783Y009400D01*
X026783Y008050D01*
X026783Y007550D02*
X026783Y006900D01*
X026683Y006800D01*
X026433Y006800D01*
X025683Y006800D01*
X025833Y006950D02*
X026433Y006950D01*
X026433Y006800D01*
X025583Y007550D02*
X025583Y007850D01*
X025583Y008000D01*
X025733Y008150D01*
X026033Y008150D01*
X026033Y008450D01*
X025733Y008450D01*
X025583Y008600D01*
X025583Y008750D01*
X025583Y009050D01*
X025283Y009050D01*
X025283Y008750D01*
X025283Y008600D01*
X025133Y008450D01*
X024833Y008450D01*
X024833Y008150D01*
X025133Y008150D01*
X025283Y008000D01*
X025283Y007850D01*
X025283Y007550D01*
X025583Y007550D01*
X025583Y007850D02*
X025283Y007850D01*
X025283Y008750D02*
X025583Y008750D01*
X027583Y009400D02*
X027583Y008050D01*
X027583Y007550D02*
X027583Y006900D01*
X027683Y006800D01*
X027933Y006800D01*
X028683Y006800D01*
X028533Y006950D02*
X027933Y006950D01*
X027933Y006800D01*
X028783Y007550D02*
X028783Y007850D01*
X029083Y007850D01*
X029083Y008000D01*
X029233Y008150D01*
X029533Y008150D01*
X029533Y008450D01*
X029233Y008450D01*
X029083Y008600D01*
X029083Y008750D01*
X029083Y009050D01*
X028783Y009050D01*
X028783Y008750D01*
X028783Y008600D01*
X028633Y008450D01*
X028333Y008450D01*
X028333Y008150D01*
X028633Y008150D01*
X028783Y008000D01*
X028783Y007850D01*
X028783Y007550D02*
X029083Y007550D01*
X029083Y007850D01*
X029083Y008750D02*
X028783Y008750D01*
X027683Y009500D02*
X027583Y009400D01*
X027683Y009500D02*
X030183Y009500D01*
X030283Y009400D01*
X030283Y008050D01*
X030283Y007550D02*
X030283Y006900D01*
X030183Y006800D01*
X029933Y006800D01*
X029183Y006800D01*
X029333Y006950D02*
X029933Y006950D01*
X029933Y006800D01*
X025183Y006800D02*
X024433Y006800D01*
X024433Y006950D01*
X025033Y006950D01*
X024433Y006800D02*
X024183Y006800D01*
X024083Y006900D01*
X031983Y013800D02*
X039883Y013800D01*
X039883Y016150D01*
X039839Y016152D01*
X039796Y016158D01*
X039754Y016167D01*
X039712Y016180D01*
X039672Y016197D01*
X039633Y016217D01*
X039596Y016240D01*
X039562Y016267D01*
X039529Y016296D01*
X039500Y016329D01*
X039473Y016363D01*
X039450Y016400D01*
X039430Y016439D01*
X039413Y016479D01*
X039400Y016521D01*
X039391Y016563D01*
X039385Y016606D01*
X039383Y016650D01*
X039385Y016694D01*
X039391Y016737D01*
X039400Y016779D01*
X039413Y016821D01*
X039430Y016861D01*
X039450Y016900D01*
X039473Y016937D01*
X039500Y016971D01*
X039529Y017004D01*
X039562Y017033D01*
X039596Y017060D01*
X039633Y017083D01*
X039672Y017103D01*
X039712Y017120D01*
X039754Y017133D01*
X039796Y017142D01*
X039839Y017148D01*
X039883Y017150D01*
X039883Y019500D01*
X031983Y019500D01*
X031983Y013800D01*
X035933Y016400D02*
X036183Y016150D01*
X036683Y016150D01*
X036933Y016400D01*
X036933Y017900D01*
X036683Y018150D01*
X036183Y018150D01*
X035933Y017900D01*
X035933Y016400D01*
X036933Y016400D02*
X037183Y016150D01*
X037683Y016150D01*
X037933Y016400D01*
X037933Y017900D01*
X037683Y018150D01*
X037183Y018150D01*
X036933Y017900D01*
X037933Y017900D02*
X038183Y018150D01*
X038683Y018150D01*
X038933Y017900D01*
X038933Y016400D01*
X038683Y016150D01*
X038183Y016150D01*
X037933Y016400D01*
X040433Y016400D02*
X040683Y016150D01*
X040433Y015900D01*
X040433Y015400D01*
X040683Y015150D01*
X040433Y014900D01*
X040433Y014400D01*
X040683Y014150D01*
X040433Y013900D01*
X040433Y013400D01*
X040683Y013150D01*
X042183Y013150D01*
X042433Y013400D01*
X042433Y013900D01*
X042183Y014150D01*
X042433Y014400D01*
X042433Y014900D01*
X042183Y015150D01*
X042433Y015400D01*
X042433Y015900D01*
X042183Y016150D01*
X042433Y016400D01*
X042433Y016900D01*
X042183Y017150D01*
X040683Y017150D01*
X040433Y016900D01*
X040433Y016400D01*
X040683Y020150D02*
X039183Y020150D01*
X038933Y020400D01*
X038933Y020900D01*
X039183Y021150D01*
X038933Y021400D01*
X038933Y021900D01*
X039183Y022150D01*
X038933Y022400D01*
X038933Y022900D01*
X039183Y023150D01*
X038933Y023400D01*
X038933Y023900D01*
X039183Y024150D01*
X040683Y024150D01*
X040933Y023900D01*
X040933Y023400D01*
X040683Y023150D01*
X040933Y022900D01*
X040933Y022400D01*
X040683Y022150D01*
X040933Y021900D01*
X040933Y021400D01*
X040683Y021150D01*
X040933Y020900D01*
X040933Y020400D01*
X040683Y020150D01*
X037933Y020400D02*
X037683Y020150D01*
X037183Y020150D01*
X036933Y020400D01*
X036683Y020150D01*
X036183Y020150D01*
X035933Y020400D01*
X035683Y020150D01*
X035183Y020150D01*
X034933Y020400D01*
X034933Y020900D01*
X035183Y021150D01*
X035683Y021150D01*
X035933Y020900D01*
X036183Y021150D01*
X036683Y021150D01*
X036933Y020900D01*
X037183Y021150D01*
X037683Y021150D01*
X037933Y020900D01*
X037933Y020400D01*
X037683Y022150D02*
X037183Y022150D01*
X036933Y022400D01*
X036683Y022150D01*
X036183Y022150D01*
X035933Y022400D01*
X035683Y022150D01*
X035183Y022150D01*
X034933Y022400D01*
X034933Y022900D01*
X035183Y023150D01*
X035683Y023150D01*
X035933Y022900D01*
X036183Y023150D01*
X036683Y023150D01*
X036933Y022900D01*
X037183Y023150D01*
X037683Y023150D01*
X037933Y022900D01*
X037933Y022400D01*
X037683Y022150D01*
X036933Y023650D02*
X035933Y023650D01*
X033933Y023650D01*
X032933Y023650D01*
X032933Y027650D01*
X033933Y027650D01*
X034533Y027650D01*
X034535Y027611D01*
X034541Y027572D01*
X034550Y027534D01*
X034563Y027497D01*
X034580Y027461D01*
X034600Y027428D01*
X034624Y027396D01*
X034650Y027367D01*
X034679Y027341D01*
X034711Y027317D01*
X034744Y027297D01*
X034780Y027280D01*
X034817Y027267D01*
X034855Y027258D01*
X034894Y027252D01*
X034933Y027250D01*
X034972Y027252D01*
X035011Y027258D01*
X035049Y027267D01*
X035086Y027280D01*
X035122Y027297D01*
X035155Y027317D01*
X035187Y027341D01*
X035216Y027367D01*
X035242Y027396D01*
X035266Y027428D01*
X035286Y027461D01*
X035303Y027497D01*
X035316Y027534D01*
X035325Y027572D01*
X035331Y027611D01*
X035333Y027650D01*
X035933Y027650D01*
X035933Y023650D01*
X036933Y023650D02*
X036933Y027650D01*
X035933Y027650D01*
X033933Y027650D02*
X033933Y023650D01*
X038083Y025400D02*
X038083Y025650D01*
X038083Y026400D01*
X038233Y026250D02*
X038233Y025650D01*
X038083Y025650D01*
X038083Y025400D02*
X038183Y025300D01*
X038833Y025300D01*
X039333Y025300D02*
X040683Y025300D01*
X040783Y025400D01*
X040783Y027900D01*
X040683Y028000D01*
X039333Y028000D01*
X038833Y028000D02*
X038183Y028000D01*
X038083Y027900D01*
X038083Y027650D01*
X038083Y026900D01*
X038233Y027050D02*
X038233Y027650D01*
X038083Y027650D01*
X038833Y026800D02*
X039133Y026800D01*
X039133Y026500D01*
X039283Y026500D01*
X039433Y026350D01*
X039433Y026050D01*
X039733Y026050D01*
X039733Y026350D01*
X039883Y026500D01*
X040033Y026500D01*
X040333Y026500D01*
X040333Y026800D01*
X040033Y026800D01*
X039883Y026800D01*
X039733Y026950D01*
X039733Y027250D01*
X039433Y027250D01*
X039433Y026950D01*
X039283Y026800D01*
X039133Y026800D01*
X038833Y026800D02*
X038833Y026500D01*
X039133Y026500D01*
X040033Y026500D02*
X040033Y026800D01*
X046183Y018650D02*
X046683Y018650D01*
X046933Y018400D01*
X046933Y017900D01*
X046683Y017650D01*
X046183Y017650D01*
X045933Y017900D01*
X045933Y018400D01*
X046183Y018650D01*
X046183Y009650D02*
X046683Y009650D01*
X046933Y009400D01*
X046933Y007900D01*
X046683Y007650D01*
X046183Y007650D01*
X045933Y007900D01*
X045933Y009400D01*
X045683Y009650D01*
X045183Y009650D01*
X044933Y009400D01*
X044933Y007900D01*
X044683Y007650D01*
X044183Y007650D01*
X043933Y007900D01*
X043933Y009400D01*
X043683Y009650D01*
X043183Y009650D01*
X042933Y009400D01*
X042683Y009650D01*
X042183Y009650D01*
X041933Y009400D01*
X041933Y007900D01*
X042183Y007650D01*
X042683Y007650D01*
X042933Y007900D01*
X042933Y009400D01*
X043933Y009400D02*
X044183Y009650D01*
X044683Y009650D01*
X044933Y009400D01*
X045933Y009400D02*
X046183Y009650D01*
X045933Y007900D02*
X045683Y007650D01*
X045183Y007650D01*
X044933Y007900D01*
X043933Y007900D02*
X043683Y007650D01*
X043183Y007650D01*
X042933Y007900D01*
X041283Y008050D02*
X041283Y009400D01*
X041183Y009500D01*
X038683Y009500D01*
X038583Y009400D01*
X038583Y008050D01*
X038583Y007550D02*
X038583Y006900D01*
X038683Y006800D01*
X038933Y006800D01*
X039683Y006800D01*
X039533Y006950D02*
X038933Y006950D01*
X038933Y006800D01*
X039783Y007550D02*
X039783Y007850D01*
X040083Y007850D01*
X040083Y008000D01*
X040233Y008150D01*
X040533Y008150D01*
X040533Y008450D01*
X040233Y008450D01*
X040083Y008600D01*
X040083Y008750D01*
X040083Y009050D01*
X039783Y009050D01*
X039783Y008750D01*
X039783Y008600D01*
X039633Y008450D01*
X039333Y008450D01*
X039333Y008150D01*
X039633Y008150D01*
X039783Y008000D01*
X039783Y007850D01*
X039783Y007550D02*
X040083Y007550D01*
X040083Y007850D01*
X040083Y008750D02*
X039783Y008750D01*
X041283Y007550D02*
X041283Y006900D01*
X041183Y006800D01*
X040933Y006800D01*
X040183Y006800D01*
X040333Y006950D02*
X040933Y006950D01*
X040933Y006800D01*
X027183Y025650D02*
X026683Y025650D01*
X026433Y025900D01*
X026433Y026400D01*
X026683Y026650D01*
X027183Y026650D01*
X027433Y026400D01*
X027433Y025900D01*
X027183Y025650D01*
X023433Y026900D02*
X023183Y026650D01*
X022683Y026650D01*
X022433Y026900D01*
X022433Y027400D01*
X022683Y027650D01*
X023183Y027650D01*
X023433Y027400D01*
X023433Y026900D01*
X019933Y027400D02*
X019683Y027150D01*
X019183Y027150D01*
X018933Y027400D01*
X018933Y027900D01*
X019183Y028150D01*
X019683Y028150D01*
X019933Y027900D01*
X019933Y027400D01*
D12*
X009933Y012150D03*
X009933Y008150D03*
X017433Y009650D03*
D13*
X009683Y024400D03*
D14*
X007433Y020150D03*
X007433Y016650D03*
D15*
X008108Y016638D02*
X008183Y016713D01*
X008108Y016638D02*
X008108Y016488D01*
X008183Y016413D01*
X008483Y016413D01*
X008558Y016488D01*
X008558Y016638D01*
X008483Y016713D01*
X008333Y016713D01*
X008333Y016563D01*
X008333Y016873D02*
X008333Y017173D01*
X008258Y017173D02*
X008558Y017173D01*
X008558Y017333D02*
X008558Y017634D01*
X008408Y017794D02*
X008558Y017944D01*
X008408Y018094D01*
X008108Y018094D01*
X008183Y018254D02*
X008483Y018254D01*
X008558Y018329D01*
X008558Y018479D01*
X008483Y018554D01*
X008183Y018554D01*
X008108Y018479D01*
X008108Y018329D01*
X008183Y018254D01*
X008183Y018715D02*
X008333Y018865D01*
X008558Y018865D01*
X008333Y018865D02*
X008183Y019015D01*
X008108Y019015D01*
X008108Y018715D02*
X008183Y018715D01*
X007658Y019215D02*
X007658Y019515D01*
X007658Y019365D02*
X007208Y019365D01*
X007358Y019215D01*
X008108Y019988D02*
X008183Y019913D01*
X008483Y019913D01*
X008558Y019988D01*
X008558Y020138D01*
X008483Y020213D01*
X008333Y020213D01*
X008333Y020063D01*
X008183Y020213D02*
X008108Y020138D01*
X008108Y019988D01*
X008258Y020373D02*
X008108Y020523D01*
X008258Y020673D01*
X008558Y020673D01*
X008558Y020833D02*
X008108Y020833D01*
X008333Y020673D02*
X008333Y020373D01*
X008258Y020373D02*
X008558Y020373D01*
X008558Y020833D02*
X008558Y021134D01*
X008408Y021294D02*
X008108Y021294D01*
X008108Y021594D02*
X008408Y021594D01*
X008558Y021444D01*
X008408Y021294D01*
X008483Y021754D02*
X008183Y021754D01*
X008108Y021829D01*
X008108Y021979D01*
X008183Y022054D01*
X008483Y022054D01*
X008558Y021979D01*
X008558Y021829D01*
X008483Y021754D01*
X008558Y022215D02*
X008108Y022515D01*
X008108Y022215D02*
X008558Y022515D01*
X007658Y022715D02*
X007658Y023015D01*
X007658Y022865D02*
X007208Y022865D01*
X007358Y022715D01*
X010558Y022665D02*
X010558Y022365D01*
X010633Y022204D02*
X010558Y022129D01*
X010558Y021979D01*
X010633Y021904D01*
X010933Y021904D01*
X011008Y021979D01*
X011008Y022129D01*
X010933Y022204D01*
X010933Y022365D02*
X011008Y022365D01*
X010933Y022365D02*
X010633Y022665D01*
X010558Y022665D01*
X010083Y025115D02*
X010158Y025190D01*
X010158Y025340D01*
X010083Y025415D01*
X010008Y025415D01*
X009933Y025340D01*
X009933Y025265D01*
X009933Y025340D02*
X009858Y025415D01*
X009783Y025415D01*
X009708Y025340D01*
X009708Y025190D01*
X009783Y025115D01*
X011583Y026950D02*
X011483Y027050D01*
X011433Y028200D01*
X011563Y027190D02*
X011565Y027210D01*
X011571Y027228D01*
X011580Y027246D01*
X011592Y027261D01*
X011607Y027273D01*
X011625Y027282D01*
X011643Y027288D01*
X011663Y027290D01*
X011683Y027288D01*
X011701Y027282D01*
X011719Y027273D01*
X011734Y027261D01*
X011746Y027246D01*
X011755Y027228D01*
X011761Y027210D01*
X011763Y027190D01*
X011761Y027170D01*
X011755Y027152D01*
X011746Y027134D01*
X011734Y027119D01*
X011719Y027107D01*
X011701Y027098D01*
X011683Y027092D01*
X011663Y027090D01*
X011643Y027092D01*
X011625Y027098D01*
X011607Y027107D01*
X011592Y027119D01*
X011580Y027134D01*
X011571Y027152D01*
X011565Y027170D01*
X011563Y027190D01*
X011583Y026950D02*
X015283Y026950D01*
X015383Y027050D01*
X015433Y028200D01*
X015683Y029150D02*
X015683Y030150D01*
X023933Y030150D01*
X023933Y029150D01*
X015683Y029150D01*
X015534Y026725D02*
X015383Y026725D01*
X015308Y026650D01*
X015308Y026350D01*
X015383Y026275D01*
X015534Y026275D01*
X015609Y026350D01*
X015769Y026500D02*
X016069Y026500D01*
X015994Y026275D02*
X015994Y026725D01*
X015769Y026500D01*
X015609Y026650D02*
X015534Y026725D01*
X017686Y026605D02*
X017912Y026605D01*
X017987Y026680D01*
X017987Y026830D01*
X017912Y026905D01*
X017686Y026905D01*
X017686Y026455D01*
X018147Y026530D02*
X018222Y026455D01*
X018372Y026455D01*
X018447Y026530D01*
X018447Y026605D01*
X018372Y026680D01*
X018222Y026680D01*
X018147Y026755D01*
X018147Y026830D01*
X018222Y026905D01*
X018372Y026905D01*
X018447Y026830D01*
X018607Y026680D02*
X018907Y026680D01*
X019068Y026530D02*
X019143Y026455D01*
X019293Y026455D01*
X019368Y026530D01*
X019368Y026830D01*
X019293Y026905D01*
X019143Y026905D01*
X019068Y026830D01*
X019068Y026530D01*
X019528Y026455D02*
X019528Y026905D01*
X019828Y026455D01*
X019828Y026905D01*
X022568Y026405D02*
X022568Y026180D01*
X022718Y026255D01*
X022793Y026255D01*
X022868Y026180D01*
X022868Y026030D01*
X022793Y025955D01*
X022643Y025955D01*
X022568Y026030D01*
X022568Y026405D02*
X022868Y026405D01*
X023028Y026405D02*
X023028Y026105D01*
X023178Y025955D01*
X023328Y026105D01*
X023328Y026405D01*
X023958Y026295D02*
X024108Y026295D01*
X024033Y026295D02*
X024033Y026745D01*
X023958Y026745D02*
X024108Y026745D01*
X024265Y026670D02*
X024340Y026745D01*
X024490Y026745D01*
X024566Y026670D01*
X024726Y026745D02*
X025026Y026745D01*
X025026Y026670D01*
X024726Y026370D01*
X024726Y026295D01*
X024566Y026370D02*
X024490Y026295D01*
X024340Y026295D01*
X024265Y026370D01*
X024265Y026670D01*
X024083Y026950D02*
X023983Y027050D01*
X023933Y028200D01*
X024433Y029150D02*
X024433Y030150D01*
X032433Y030150D01*
X032433Y029150D01*
X024433Y029150D01*
X024063Y027190D02*
X024065Y027210D01*
X024071Y027228D01*
X024080Y027246D01*
X024092Y027261D01*
X024107Y027273D01*
X024125Y027282D01*
X024143Y027288D01*
X024163Y027290D01*
X024183Y027288D01*
X024201Y027282D01*
X024219Y027273D01*
X024234Y027261D01*
X024246Y027246D01*
X024255Y027228D01*
X024261Y027210D01*
X024263Y027190D01*
X024261Y027170D01*
X024255Y027152D01*
X024246Y027134D01*
X024234Y027119D01*
X024219Y027107D01*
X024201Y027098D01*
X024183Y027092D01*
X024163Y027090D01*
X024143Y027092D01*
X024125Y027098D01*
X024107Y027107D01*
X024092Y027119D01*
X024080Y027134D01*
X024071Y027152D01*
X024065Y027170D01*
X024063Y027190D01*
X024083Y026950D02*
X027783Y026950D01*
X027883Y027050D01*
X027933Y028200D01*
X028428Y028395D02*
X028428Y028695D01*
X028578Y028845D01*
X028729Y028695D01*
X028729Y028395D01*
X028729Y028620D02*
X028428Y028620D01*
X028889Y028620D02*
X029189Y028620D01*
X029349Y028770D02*
X029349Y028470D01*
X029424Y028395D01*
X029574Y028395D01*
X029649Y028470D01*
X029649Y028770D01*
X029574Y028845D01*
X029424Y028845D01*
X029349Y028770D01*
X029810Y028845D02*
X029810Y028470D01*
X029885Y028395D01*
X030035Y028395D01*
X030110Y028470D01*
X030110Y028845D01*
X030270Y028845D02*
X030570Y028845D01*
X030420Y028845D02*
X030420Y028395D01*
X029421Y026845D02*
X029271Y026845D01*
X029196Y026770D01*
X029196Y026470D01*
X029271Y026395D01*
X029421Y026395D01*
X029496Y026470D01*
X029496Y026770D02*
X029421Y026845D01*
X029036Y026770D02*
X028960Y026845D01*
X028810Y026845D01*
X028735Y026770D01*
X028578Y026845D02*
X028428Y026845D01*
X028503Y026845D02*
X028503Y026395D01*
X028428Y026395D02*
X028578Y026395D01*
X028735Y026395D02*
X029036Y026695D01*
X029036Y026770D01*
X029036Y026395D02*
X028735Y026395D01*
X028128Y026320D02*
X028128Y026470D01*
X028053Y026545D01*
X028128Y026320D02*
X028053Y026245D01*
X027753Y026245D01*
X027678Y026320D01*
X027678Y026470D01*
X027753Y026545D01*
X027753Y026084D02*
X027678Y026009D01*
X027678Y025859D01*
X027753Y025784D01*
X028053Y025784D01*
X028128Y025859D01*
X028128Y026009D01*
X028053Y026084D01*
X027978Y025624D02*
X027678Y025624D01*
X027678Y025324D02*
X027978Y025324D01*
X028128Y025474D01*
X027978Y025624D01*
X028503Y024845D02*
X028428Y024770D01*
X028428Y024695D01*
X028503Y024620D01*
X028654Y024620D01*
X028729Y024545D01*
X028729Y024470D01*
X028654Y024395D01*
X028503Y024395D01*
X028428Y024470D01*
X028503Y024845D02*
X028654Y024845D01*
X028729Y024770D01*
X028889Y024845D02*
X028889Y024395D01*
X029189Y024395D01*
X029349Y024395D02*
X029349Y024845D01*
X029574Y024845D01*
X029649Y024770D01*
X029649Y024620D01*
X029574Y024545D01*
X029349Y024545D01*
X029499Y024545D02*
X029649Y024395D01*
X029810Y024395D02*
X029960Y024395D01*
X029885Y024395D02*
X029885Y024845D01*
X029810Y024845D02*
X029960Y024845D01*
X030116Y024695D02*
X030116Y024395D01*
X030116Y024620D02*
X030417Y024620D01*
X030417Y024695D02*
X030417Y024395D01*
X030577Y024395D02*
X030877Y024395D01*
X030577Y024395D02*
X030577Y024845D01*
X030417Y024695D02*
X030267Y024845D01*
X030116Y024695D01*
X029189Y024845D02*
X028889Y024845D01*
X028889Y024620D02*
X029039Y024620D01*
X033908Y027825D02*
X034058Y027825D01*
X033983Y027825D02*
X033983Y028275D01*
X033908Y028275D02*
X034058Y028275D01*
X034215Y028200D02*
X034215Y027900D01*
X034290Y027825D01*
X034440Y027825D01*
X034516Y027900D01*
X034676Y028050D02*
X034976Y028050D01*
X034901Y027825D02*
X034901Y028275D01*
X034676Y028050D01*
X034516Y028200D02*
X034440Y028275D01*
X034290Y028275D01*
X034215Y028200D01*
X033433Y029150D02*
X041433Y029150D01*
X041433Y030150D01*
X033433Y030150D01*
X033433Y029150D01*
X038358Y027579D02*
X038698Y027579D01*
X038698Y027466D02*
X038698Y027693D01*
X038471Y027466D02*
X038358Y027579D01*
X038415Y025593D02*
X038471Y025593D01*
X038528Y025536D01*
X038585Y025593D01*
X038642Y025593D01*
X038698Y025536D01*
X038698Y025423D01*
X038642Y025366D01*
X038528Y025479D02*
X038528Y025536D01*
X038415Y025593D02*
X038358Y025536D01*
X038358Y025423D01*
X038415Y025366D01*
X040958Y027004D02*
X040958Y027229D01*
X041033Y027304D01*
X041183Y027304D01*
X041258Y027229D01*
X041258Y027004D01*
X041408Y027004D02*
X040958Y027004D01*
X041258Y027154D02*
X041408Y027304D01*
X041408Y027465D02*
X041408Y027765D01*
X041408Y027615D02*
X040958Y027615D01*
X041108Y027465D01*
X043433Y030150D02*
X043433Y012150D01*
X045433Y012150D01*
X045433Y030150D01*
X043433Y030150D01*
X046178Y030009D02*
X046178Y029784D01*
X046628Y029784D01*
X046628Y030009D01*
X046553Y030084D01*
X046253Y030084D01*
X046178Y030009D01*
X046328Y030245D02*
X046178Y030395D01*
X046328Y030545D01*
X046628Y030545D01*
X046403Y030545D02*
X046403Y030245D01*
X046328Y030245D02*
X046628Y030245D01*
X046628Y029624D02*
X046628Y029324D01*
X046178Y029324D01*
X046178Y029624D01*
X046403Y029474D02*
X046403Y029324D01*
X046628Y029164D02*
X046628Y028863D01*
X046178Y028863D01*
X038658Y023163D02*
X038658Y023012D01*
X038583Y022937D01*
X038433Y023012D02*
X038358Y022937D01*
X038283Y022937D01*
X038208Y023012D01*
X038208Y023163D01*
X038283Y023238D01*
X038433Y023163D02*
X038508Y023238D01*
X038583Y023238D01*
X038658Y023163D01*
X038433Y023163D02*
X038433Y023012D01*
X038148Y022875D02*
X038148Y022425D01*
X038208Y022477D02*
X038658Y022777D01*
X038208Y022777D01*
X038148Y022875D02*
X037998Y022725D01*
X037998Y022425D02*
X038298Y022425D01*
X038208Y022477D02*
X038658Y022477D01*
X038583Y022317D02*
X038283Y022317D01*
X038208Y022242D01*
X038208Y022092D01*
X038283Y022017D01*
X038583Y022017D01*
X038658Y022092D01*
X038658Y022242D01*
X038583Y022317D01*
X038208Y021856D02*
X038208Y021556D01*
X038208Y021706D02*
X038658Y021706D01*
X038658Y021246D02*
X038208Y021246D01*
X038208Y021096D02*
X038208Y021396D01*
X038208Y020936D02*
X038583Y020936D01*
X038658Y020861D01*
X038658Y020710D01*
X038583Y020635D01*
X038208Y020635D01*
X038283Y020475D02*
X038358Y020475D01*
X038433Y020400D01*
X038433Y020175D01*
X038658Y020175D02*
X038208Y020175D01*
X038208Y020400D01*
X038283Y020475D01*
X038298Y020425D02*
X037998Y020425D01*
X038148Y020425D02*
X038148Y020875D01*
X037998Y020725D01*
X038433Y020400D02*
X038508Y020475D01*
X038583Y020475D01*
X038658Y020400D01*
X038658Y020175D01*
X037798Y019750D02*
X037498Y019750D01*
X037338Y019900D02*
X037038Y019600D01*
X037038Y019525D01*
X037338Y019525D01*
X037338Y019900D02*
X037338Y019975D01*
X037038Y019975D01*
X037038Y021525D02*
X037338Y021525D01*
X037498Y021750D02*
X037798Y021750D01*
X037648Y021900D02*
X037648Y021600D01*
X037338Y021900D02*
X037038Y021600D01*
X037038Y021525D01*
X037038Y021975D02*
X037338Y021975D01*
X037338Y021900D01*
X042708Y016940D02*
X042783Y017015D01*
X042858Y017015D01*
X042933Y016940D01*
X043008Y017015D01*
X043083Y017015D01*
X043158Y016940D01*
X043158Y016790D01*
X043083Y016715D01*
X043083Y016554D02*
X043008Y016554D01*
X042933Y016479D01*
X042933Y016329D01*
X042858Y016254D01*
X042783Y016254D01*
X042708Y016329D01*
X042708Y016479D01*
X042783Y016554D01*
X042783Y016715D02*
X042708Y016790D01*
X042708Y016940D01*
X042933Y016940D02*
X042933Y016865D01*
X043083Y016554D02*
X043158Y016479D01*
X043158Y016329D01*
X043083Y016254D01*
X043083Y016094D02*
X042708Y016094D01*
X042708Y015794D02*
X043083Y015794D01*
X043158Y015869D01*
X043158Y016019D01*
X043083Y016094D01*
X043233Y016404D02*
X042633Y016404D01*
X045607Y017405D02*
X045907Y017405D01*
X045757Y017405D02*
X045757Y016955D01*
X046218Y016955D02*
X046218Y017405D01*
X046068Y017405D02*
X046368Y017405D01*
X046528Y017405D02*
X046528Y016955D01*
X046828Y016955D01*
X045688Y019645D02*
X045238Y019645D01*
X045688Y019645D02*
X045688Y019945D01*
X045688Y020105D02*
X045238Y020105D01*
X045238Y020406D01*
X045238Y020566D02*
X045238Y020791D01*
X045313Y020866D01*
X045613Y020866D01*
X045688Y020791D01*
X045688Y020566D01*
X045238Y020566D01*
X045463Y020256D02*
X045463Y020105D01*
X045688Y020105D02*
X045688Y020406D01*
X045688Y021026D02*
X045238Y021026D01*
X045238Y021251D01*
X045313Y021326D01*
X045388Y021326D01*
X045463Y021251D01*
X045463Y021026D01*
X045688Y021026D02*
X045688Y021251D01*
X045613Y021326D01*
X045538Y021326D01*
X045463Y021251D01*
X038798Y015875D02*
X038648Y015800D01*
X038498Y015650D01*
X038723Y015650D01*
X038798Y015575D01*
X038798Y015500D01*
X038723Y015425D01*
X038573Y015425D01*
X038498Y015500D01*
X038498Y015650D01*
X038338Y015650D02*
X038263Y015575D01*
X038038Y015575D01*
X038038Y015425D02*
X038038Y015875D01*
X038263Y015875D01*
X038338Y015800D01*
X038338Y015650D01*
X037877Y015875D02*
X037727Y015875D01*
X037802Y015875D02*
X037802Y015500D01*
X037727Y015425D01*
X037652Y015425D01*
X037577Y015500D01*
X037526Y011905D02*
X037226Y011905D01*
X037526Y011905D02*
X037526Y011830D01*
X037226Y011530D01*
X037226Y011455D01*
X037526Y011455D01*
X037686Y011680D02*
X037987Y011680D01*
X038147Y011455D02*
X038147Y011905D01*
X038297Y011755D01*
X038447Y011905D01*
X038447Y011455D01*
X038607Y011530D02*
X038682Y011455D01*
X038832Y011455D01*
X038907Y011530D01*
X038907Y011830D01*
X038832Y011905D01*
X038682Y011905D01*
X038607Y011830D01*
X038607Y011530D01*
X039068Y011905D02*
X039368Y011905D01*
X039218Y011905D02*
X039218Y011455D01*
X039528Y011455D02*
X039828Y011455D01*
X039678Y011455D02*
X039678Y011905D01*
X039528Y011755D01*
X039394Y010125D02*
X039244Y010125D01*
X039169Y010050D01*
X039009Y010050D02*
X039009Y009900D01*
X038934Y009825D01*
X038708Y009825D01*
X038708Y009675D02*
X038708Y010125D01*
X038934Y010125D01*
X039009Y010050D01*
X038858Y009825D02*
X039009Y009675D01*
X039169Y009675D02*
X039469Y009975D01*
X039469Y010050D01*
X039394Y010125D01*
X039629Y010050D02*
X039629Y009975D01*
X039704Y009900D01*
X039929Y009900D01*
X039929Y009750D02*
X039929Y010050D01*
X039854Y010125D01*
X039704Y010125D01*
X039629Y010050D01*
X039629Y009750D02*
X039704Y009675D01*
X039854Y009675D01*
X039929Y009750D01*
X039469Y009675D02*
X039169Y009675D01*
X038300Y009345D02*
X038300Y009045D01*
X038150Y008895D01*
X038000Y009045D01*
X038000Y009345D01*
X037840Y009270D02*
X037840Y009195D01*
X037765Y009120D01*
X037615Y009120D01*
X037540Y009195D01*
X037540Y009270D01*
X037615Y009345D01*
X037765Y009345D01*
X037840Y009270D01*
X037765Y009120D02*
X037840Y009045D01*
X037840Y008970D01*
X037765Y008895D01*
X037615Y008895D01*
X037540Y008970D01*
X037540Y009045D01*
X037615Y009120D01*
X037380Y009120D02*
X037079Y009120D01*
X037305Y009345D01*
X037305Y008895D01*
X036919Y008970D02*
X036844Y008895D01*
X036694Y008895D01*
X036619Y008970D01*
X036919Y009270D01*
X036919Y008970D01*
X036619Y008970D02*
X036619Y009270D01*
X036694Y009345D01*
X036844Y009345D01*
X036919Y009270D01*
X036464Y008970D02*
X036464Y008895D01*
X036389Y008895D01*
X036389Y008970D01*
X036464Y008970D01*
X036229Y008895D02*
X035928Y008895D01*
X036229Y009195D01*
X036229Y009270D01*
X036154Y009345D01*
X036003Y009345D01*
X035928Y009270D01*
X034880Y009345D02*
X034880Y009045D01*
X034729Y008895D01*
X034579Y009045D01*
X034579Y009345D01*
X034419Y009345D02*
X034119Y009345D01*
X034119Y009120D01*
X034269Y009195D01*
X034344Y009195D01*
X034419Y009120D01*
X034419Y008970D01*
X034344Y008895D01*
X034194Y008895D01*
X034119Y008970D01*
X033964Y008970D02*
X033964Y008895D01*
X033889Y008895D01*
X033889Y008970D01*
X033964Y008970D01*
X033729Y008895D02*
X033428Y008895D01*
X033729Y009195D01*
X033729Y009270D01*
X033654Y009345D01*
X033503Y009345D01*
X033428Y009270D01*
X032840Y009270D02*
X032840Y009345D01*
X032840Y009270D02*
X032690Y009120D01*
X032690Y008895D01*
X032690Y009120D02*
X032540Y009270D01*
X032540Y009345D01*
X032380Y009345D02*
X032380Y009045D01*
X032229Y008895D01*
X032079Y009045D01*
X032079Y009345D01*
X031919Y009345D02*
X031619Y009345D01*
X031619Y009120D01*
X031769Y009195D01*
X031844Y009195D01*
X031919Y009120D01*
X031919Y008970D01*
X031844Y008895D01*
X031694Y008895D01*
X031619Y008970D01*
X031464Y008970D02*
X031464Y008895D01*
X031389Y008895D01*
X031389Y008970D01*
X031464Y008970D01*
X031229Y008895D02*
X030928Y008895D01*
X031229Y009195D01*
X031229Y009270D01*
X031154Y009345D01*
X031003Y009345D01*
X030928Y009270D01*
X030078Y007415D02*
X029965Y007415D01*
X029908Y007359D01*
X030022Y007245D02*
X030078Y007245D01*
X030135Y007188D01*
X030135Y007132D01*
X030078Y007075D01*
X029965Y007075D01*
X029908Y007132D01*
X030078Y007245D02*
X030135Y007302D01*
X030135Y007359D01*
X030078Y007415D01*
X028035Y007075D02*
X027808Y007075D01*
X027922Y007075D02*
X027922Y007415D01*
X027808Y007302D01*
X026635Y007302D02*
X026578Y007245D01*
X026635Y007188D01*
X026635Y007132D01*
X026578Y007075D01*
X026465Y007075D01*
X026408Y007132D01*
X026522Y007245D02*
X026578Y007245D01*
X026635Y007302D02*
X026635Y007359D01*
X026578Y007415D01*
X026465Y007415D01*
X026408Y007359D01*
X024535Y007075D02*
X024308Y007075D01*
X024422Y007075D02*
X024422Y007415D01*
X024308Y007302D01*
X024208Y009675D02*
X024208Y010125D01*
X024434Y010125D01*
X024509Y010050D01*
X024509Y009900D01*
X024434Y009825D01*
X024208Y009825D01*
X024358Y009825D02*
X024509Y009675D01*
X024669Y009900D02*
X024969Y009900D01*
X024894Y009675D02*
X024894Y010125D01*
X024669Y009900D01*
X025433Y010150D02*
X025433Y011150D01*
X019433Y011150D01*
X019433Y010150D01*
X025433Y010150D01*
X026433Y010150D02*
X034433Y010150D01*
X034433Y011150D01*
X026433Y011150D01*
X026433Y010150D01*
X027708Y010125D02*
X027708Y009675D01*
X027708Y009825D02*
X027934Y009825D01*
X028009Y009900D01*
X028009Y010050D01*
X027934Y010125D01*
X027708Y010125D01*
X027858Y009825D02*
X028009Y009675D01*
X028169Y009750D02*
X028244Y009675D01*
X028394Y009675D01*
X028469Y009750D01*
X028469Y009825D01*
X028394Y009900D01*
X028319Y009900D01*
X028394Y009900D02*
X028469Y009975D01*
X028469Y010050D01*
X028394Y010125D01*
X028244Y010125D01*
X028169Y010050D01*
X035433Y010150D02*
X043433Y010150D01*
X043433Y011150D01*
X035433Y011150D01*
X035433Y010150D01*
X038808Y007302D02*
X038922Y007415D01*
X038922Y007075D01*
X039035Y007075D02*
X038808Y007075D01*
X040908Y007132D02*
X040965Y007075D01*
X041078Y007075D01*
X041135Y007132D01*
X041135Y007188D01*
X041078Y007245D01*
X041022Y007245D01*
X041078Y007245D02*
X041135Y007302D01*
X041135Y007359D01*
X041078Y007415D01*
X040965Y007415D01*
X040908Y007359D01*
X045577Y007375D02*
X045577Y006925D01*
X045877Y006925D01*
X046038Y007000D02*
X046113Y006925D01*
X046263Y006925D01*
X046338Y007000D01*
X046498Y006925D02*
X046723Y006925D01*
X046798Y007000D01*
X046798Y007300D01*
X046723Y007375D01*
X046498Y007375D01*
X046498Y006925D01*
X046338Y007300D02*
X046263Y007375D01*
X046113Y007375D01*
X046038Y007300D01*
X046038Y007000D01*
X044183Y010650D02*
X044185Y010704D01*
X044191Y010758D01*
X044201Y010811D01*
X044214Y010864D01*
X044231Y010915D01*
X044252Y010965D01*
X044277Y011013D01*
X044305Y011060D01*
X044336Y011104D01*
X044370Y011146D01*
X044407Y011185D01*
X044447Y011222D01*
X044490Y011255D01*
X044535Y011286D01*
X044582Y011313D01*
X044630Y011336D01*
X044681Y011356D01*
X044732Y011373D01*
X044785Y011385D01*
X044838Y011394D01*
X044892Y011399D01*
X044947Y011400D01*
X045001Y011397D01*
X045054Y011390D01*
X045107Y011379D01*
X045160Y011365D01*
X045211Y011347D01*
X045260Y011325D01*
X045308Y011300D01*
X045354Y011271D01*
X045398Y011239D01*
X045439Y011204D01*
X045477Y011166D01*
X045513Y011125D01*
X045546Y011082D01*
X045576Y011037D01*
X045602Y010989D01*
X045625Y010940D01*
X045644Y010889D01*
X045659Y010838D01*
X045671Y010785D01*
X045679Y010731D01*
X045683Y010677D01*
X045683Y010623D01*
X045679Y010569D01*
X045671Y010515D01*
X045659Y010462D01*
X045644Y010411D01*
X045625Y010360D01*
X045602Y010311D01*
X045576Y010263D01*
X045546Y010218D01*
X045513Y010175D01*
X045477Y010134D01*
X045439Y010096D01*
X045398Y010061D01*
X045354Y010029D01*
X045308Y010000D01*
X045260Y009975D01*
X045211Y009953D01*
X045160Y009935D01*
X045107Y009921D01*
X045054Y009910D01*
X045001Y009903D01*
X044947Y009900D01*
X044892Y009901D01*
X044838Y009906D01*
X044785Y009915D01*
X044732Y009927D01*
X044681Y009944D01*
X044630Y009964D01*
X044582Y009987D01*
X044535Y010014D01*
X044490Y010045D01*
X044447Y010078D01*
X044407Y010115D01*
X044370Y010154D01*
X044336Y010196D01*
X044305Y010240D01*
X044277Y010287D01*
X044252Y010335D01*
X044231Y010385D01*
X044214Y010436D01*
X044201Y010489D01*
X044191Y010542D01*
X044185Y010596D01*
X044183Y010650D01*
X027308Y016025D02*
X027308Y016175D01*
X027308Y016100D02*
X026858Y016100D01*
X026858Y016025D02*
X026858Y016175D01*
X026933Y016332D02*
X027233Y016332D01*
X027308Y016407D01*
X027308Y016557D01*
X027233Y016632D01*
X027233Y016792D02*
X027308Y016867D01*
X027308Y017018D01*
X027233Y017093D01*
X027158Y017093D01*
X027083Y017018D01*
X027083Y016792D01*
X027233Y016792D01*
X027083Y016792D02*
X026933Y016942D01*
X026858Y017093D01*
X026933Y016632D02*
X026858Y016557D01*
X026858Y016407D01*
X026933Y016332D01*
X024453Y019254D02*
X024153Y019254D01*
X024078Y019329D01*
X024078Y019479D01*
X024153Y019554D01*
X024453Y019554D01*
X024528Y019479D01*
X024528Y019329D01*
X024453Y019254D01*
X024378Y019404D02*
X024528Y019554D01*
X024528Y019715D02*
X024528Y020015D01*
X024528Y019865D02*
X024078Y019865D01*
X024228Y019715D01*
X022798Y019025D02*
X022798Y018575D01*
X022648Y018575D02*
X022948Y018575D01*
X022648Y018875D02*
X022798Y019025D01*
X022488Y018950D02*
X022413Y019025D01*
X022263Y019025D01*
X022188Y018950D01*
X022188Y018650D01*
X022263Y018575D01*
X022413Y018575D01*
X022488Y018650D01*
X022491Y018845D02*
X022191Y018395D01*
X022031Y018470D02*
X022031Y018845D01*
X022191Y018845D02*
X022491Y018395D01*
X022031Y018470D02*
X021955Y018395D01*
X021805Y018395D01*
X021730Y018470D01*
X021730Y018845D01*
X021570Y018695D02*
X021570Y018395D01*
X021570Y018620D02*
X021270Y018620D01*
X021270Y018695D02*
X021420Y018845D01*
X021570Y018695D01*
X021270Y018695D02*
X021270Y018395D01*
X021110Y018620D02*
X020810Y018620D01*
X020649Y018545D02*
X020499Y018395D01*
X020349Y018545D01*
X020349Y018845D01*
X020189Y018770D02*
X020114Y018845D01*
X019964Y018845D01*
X019889Y018770D01*
X020189Y018770D02*
X020189Y018695D01*
X019889Y018395D01*
X020189Y018395D01*
X019729Y018395D02*
X019428Y018395D01*
X019578Y018395D02*
X019578Y018845D01*
X019428Y018695D01*
X020649Y018545D02*
X020649Y018845D01*
X020783Y019950D02*
X017083Y019950D01*
X016983Y020050D01*
X016933Y021200D01*
X017063Y020190D02*
X017065Y020210D01*
X017071Y020228D01*
X017080Y020246D01*
X017092Y020261D01*
X017107Y020273D01*
X017125Y020282D01*
X017143Y020288D01*
X017163Y020290D01*
X017183Y020288D01*
X017201Y020282D01*
X017219Y020273D01*
X017234Y020261D01*
X017246Y020246D01*
X017255Y020228D01*
X017261Y020210D01*
X017263Y020190D01*
X017261Y020170D01*
X017255Y020152D01*
X017246Y020134D01*
X017234Y020119D01*
X017219Y020107D01*
X017201Y020098D01*
X017183Y020092D01*
X017163Y020090D01*
X017143Y020092D01*
X017125Y020098D01*
X017107Y020107D01*
X017092Y020119D01*
X017080Y020134D01*
X017071Y020152D01*
X017065Y020170D01*
X017063Y020190D01*
X017033Y019745D02*
X017033Y019295D01*
X016958Y019295D02*
X017108Y019295D01*
X017265Y019370D02*
X017340Y019295D01*
X017490Y019295D01*
X017566Y019370D01*
X017726Y019295D02*
X018026Y019595D01*
X018026Y019670D01*
X017951Y019745D01*
X017801Y019745D01*
X017726Y019670D01*
X017566Y019670D02*
X017490Y019745D01*
X017340Y019745D01*
X017265Y019670D01*
X017265Y019370D01*
X017108Y019745D02*
X016958Y019745D01*
X017726Y019295D02*
X018026Y019295D01*
X017884Y017275D02*
X017658Y017275D01*
X017658Y016825D01*
X017884Y016825D01*
X017959Y016900D01*
X017959Y017200D01*
X017884Y017275D01*
X018119Y017125D02*
X018269Y017275D01*
X018269Y016825D01*
X018119Y016825D02*
X018419Y016825D01*
X022158Y016275D02*
X022158Y015825D01*
X022384Y015825D01*
X022459Y015900D01*
X022459Y016200D01*
X022384Y016275D01*
X022158Y016275D01*
X022619Y016200D02*
X022694Y016275D01*
X022844Y016275D01*
X022919Y016200D01*
X022919Y016125D01*
X022619Y015825D01*
X022919Y015825D01*
X020783Y019950D02*
X020883Y020050D01*
X020933Y021200D01*
X020883Y023275D02*
X021034Y023275D01*
X021109Y023350D01*
X021269Y023350D02*
X021344Y023275D01*
X021494Y023275D01*
X021569Y023350D01*
X021569Y023425D01*
X021494Y023500D01*
X021419Y023500D01*
X021494Y023500D02*
X021569Y023575D01*
X021569Y023650D01*
X021494Y023725D01*
X021344Y023725D01*
X021269Y023650D01*
X021109Y023650D02*
X021034Y023725D01*
X020883Y023725D01*
X020808Y023650D01*
X020808Y023350D01*
X020883Y023275D01*
X021192Y024025D02*
X021117Y024100D01*
X021192Y024025D02*
X021342Y024025D01*
X021417Y024100D01*
X021417Y024175D01*
X021342Y024250D01*
X021192Y024250D01*
X021117Y024325D01*
X021117Y024400D01*
X021192Y024475D01*
X021342Y024475D01*
X021417Y024400D01*
X021577Y024475D02*
X021577Y024025D01*
X021877Y024025D01*
X022038Y024025D02*
X022038Y024475D01*
X022263Y024475D01*
X022338Y024400D01*
X022338Y024250D01*
X022263Y024175D01*
X022038Y024175D01*
X022188Y024175D02*
X022338Y024025D01*
X022498Y024025D02*
X022798Y024025D01*
X022648Y024025D02*
X022648Y024475D01*
X022498Y024325D01*
X021877Y024475D02*
X021577Y024475D01*
X021577Y024250D02*
X021727Y024250D01*
X022998Y024925D02*
X023298Y024925D01*
X023148Y024925D02*
X023148Y025375D01*
X022998Y025225D01*
X018008Y023590D02*
X018008Y023440D01*
X017933Y023365D01*
X017783Y023365D02*
X017708Y023515D01*
X017708Y023590D01*
X017783Y023665D01*
X017933Y023665D01*
X018008Y023590D01*
X017783Y023365D02*
X017558Y023365D01*
X017558Y023665D01*
X017633Y023204D02*
X017558Y023129D01*
X017558Y022979D01*
X017633Y022904D01*
X017933Y022904D01*
X018008Y022979D01*
X018008Y023129D01*
X017933Y023204D01*
X010158Y027115D02*
X009858Y027415D01*
X009783Y027415D01*
X009708Y027340D01*
X009708Y027190D01*
X009783Y027115D01*
X010158Y027115D02*
X010158Y027415D01*
X010158Y029015D02*
X010158Y029315D01*
X010158Y029165D02*
X009708Y029165D01*
X009858Y029015D01*
X012183Y029650D02*
X012185Y029704D01*
X012191Y029758D01*
X012201Y029811D01*
X012214Y029864D01*
X012231Y029915D01*
X012252Y029965D01*
X012277Y030013D01*
X012305Y030060D01*
X012336Y030104D01*
X012370Y030146D01*
X012407Y030185D01*
X012447Y030222D01*
X012490Y030255D01*
X012535Y030286D01*
X012582Y030313D01*
X012630Y030336D01*
X012681Y030356D01*
X012732Y030373D01*
X012785Y030385D01*
X012838Y030394D01*
X012892Y030399D01*
X012947Y030400D01*
X013001Y030397D01*
X013054Y030390D01*
X013107Y030379D01*
X013160Y030365D01*
X013211Y030347D01*
X013260Y030325D01*
X013308Y030300D01*
X013354Y030271D01*
X013398Y030239D01*
X013439Y030204D01*
X013477Y030166D01*
X013513Y030125D01*
X013546Y030082D01*
X013576Y030037D01*
X013602Y029989D01*
X013625Y029940D01*
X013644Y029889D01*
X013659Y029838D01*
X013671Y029785D01*
X013679Y029731D01*
X013683Y029677D01*
X013683Y029623D01*
X013679Y029569D01*
X013671Y029515D01*
X013659Y029462D01*
X013644Y029411D01*
X013625Y029360D01*
X013602Y029311D01*
X013576Y029263D01*
X013546Y029218D01*
X013513Y029175D01*
X013477Y029134D01*
X013439Y029096D01*
X013398Y029061D01*
X013354Y029029D01*
X013308Y029000D01*
X013260Y028975D01*
X013211Y028953D01*
X013160Y028935D01*
X013107Y028921D01*
X013054Y028910D01*
X013001Y028903D01*
X012947Y028900D01*
X012892Y028901D01*
X012838Y028906D01*
X012785Y028915D01*
X012732Y028927D01*
X012681Y028944D01*
X012630Y028964D01*
X012582Y028987D01*
X012535Y029014D01*
X012490Y029045D01*
X012447Y029078D01*
X012407Y029115D01*
X012370Y029154D01*
X012336Y029196D01*
X012305Y029240D01*
X012277Y029287D01*
X012252Y029335D01*
X012231Y029385D01*
X012214Y029436D01*
X012201Y029489D01*
X012191Y029542D01*
X012185Y029596D01*
X012183Y029650D01*
X026858Y021093D02*
X026858Y020792D01*
X027083Y020792D01*
X027008Y020942D01*
X027008Y021018D01*
X027083Y021093D01*
X027233Y021093D01*
X027308Y021018D01*
X027308Y020867D01*
X027233Y020792D01*
X027233Y020632D02*
X027308Y020557D01*
X027308Y020407D01*
X027233Y020332D01*
X026933Y020332D01*
X026858Y020407D01*
X026858Y020557D01*
X026933Y020632D01*
X026858Y020175D02*
X026858Y020025D01*
X026858Y020100D02*
X027308Y020100D01*
X027308Y020025D02*
X027308Y020175D01*
X017219Y012670D02*
X017144Y012745D01*
X016994Y012745D01*
X016919Y012670D01*
X016759Y012670D02*
X016759Y012370D01*
X016684Y012295D01*
X016533Y012295D01*
X016458Y012370D01*
X016458Y012670D01*
X016533Y012745D01*
X016684Y012745D01*
X016759Y012670D01*
X016608Y012445D02*
X016759Y012295D01*
X016919Y012295D02*
X017219Y012595D01*
X017219Y012670D01*
X017219Y012295D02*
X016919Y012295D01*
X014258Y014754D02*
X013808Y014754D01*
X013808Y015054D01*
X013958Y015215D02*
X013808Y015365D01*
X014258Y015365D01*
X014258Y015215D02*
X014258Y015515D01*
X014033Y014904D02*
X014033Y014754D01*
X010158Y014815D02*
X010158Y014515D01*
X010158Y014665D02*
X009708Y014665D01*
X009858Y014515D01*
X009858Y012915D02*
X009783Y012915D01*
X009708Y012840D01*
X009708Y012690D01*
X009783Y012615D01*
X009858Y012915D02*
X010158Y012615D01*
X010158Y012915D01*
X010083Y010915D02*
X010158Y010840D01*
X010158Y010690D01*
X010083Y010615D01*
X009933Y010765D02*
X009933Y010840D01*
X010008Y010915D01*
X010083Y010915D01*
X009933Y010840D02*
X009858Y010915D01*
X009783Y010915D01*
X009708Y010840D01*
X009708Y010690D01*
X009783Y010615D01*
X009933Y008915D02*
X009933Y008615D01*
X009708Y008840D01*
X010158Y008840D01*
X011683Y010650D02*
X011685Y010704D01*
X011691Y010758D01*
X011701Y010811D01*
X011714Y010864D01*
X011731Y010915D01*
X011752Y010965D01*
X011777Y011013D01*
X011805Y011060D01*
X011836Y011104D01*
X011870Y011146D01*
X011907Y011185D01*
X011947Y011222D01*
X011990Y011255D01*
X012035Y011286D01*
X012082Y011313D01*
X012130Y011336D01*
X012181Y011356D01*
X012232Y011373D01*
X012285Y011385D01*
X012338Y011394D01*
X012392Y011399D01*
X012447Y011400D01*
X012501Y011397D01*
X012554Y011390D01*
X012607Y011379D01*
X012660Y011365D01*
X012711Y011347D01*
X012760Y011325D01*
X012808Y011300D01*
X012854Y011271D01*
X012898Y011239D01*
X012939Y011204D01*
X012977Y011166D01*
X013013Y011125D01*
X013046Y011082D01*
X013076Y011037D01*
X013102Y010989D01*
X013125Y010940D01*
X013144Y010889D01*
X013159Y010838D01*
X013171Y010785D01*
X013179Y010731D01*
X013183Y010677D01*
X013183Y010623D01*
X013179Y010569D01*
X013171Y010515D01*
X013159Y010462D01*
X013144Y010411D01*
X013125Y010360D01*
X013102Y010311D01*
X013076Y010263D01*
X013046Y010218D01*
X013013Y010175D01*
X012977Y010134D01*
X012939Y010096D01*
X012898Y010061D01*
X012854Y010029D01*
X012808Y010000D01*
X012760Y009975D01*
X012711Y009953D01*
X012660Y009935D01*
X012607Y009921D01*
X012554Y009910D01*
X012501Y009903D01*
X012447Y009900D01*
X012392Y009901D01*
X012338Y009906D01*
X012285Y009915D01*
X012232Y009927D01*
X012181Y009944D01*
X012130Y009964D01*
X012082Y009987D01*
X012035Y010014D01*
X011990Y010045D01*
X011947Y010078D01*
X011907Y010115D01*
X011870Y010154D01*
X011836Y010196D01*
X011805Y010240D01*
X011777Y010287D01*
X011752Y010335D01*
X011731Y010385D01*
X011714Y010436D01*
X011701Y010489D01*
X011691Y010542D01*
X011685Y010596D01*
X011683Y010650D01*
X014158Y009725D02*
X014308Y009875D01*
X014308Y009425D01*
X014158Y009425D02*
X014459Y009425D01*
X016058Y009425D02*
X016359Y009725D01*
X016359Y009800D01*
X016284Y009875D01*
X016133Y009875D01*
X016058Y009800D01*
X016058Y009425D02*
X016359Y009425D01*
X019958Y009475D02*
X020033Y009400D01*
X020184Y009400D01*
X020259Y009325D01*
X020259Y009250D01*
X020184Y009175D01*
X020033Y009175D01*
X019958Y009250D01*
X019958Y009475D02*
X019958Y009550D01*
X020033Y009625D01*
X020184Y009625D01*
X020259Y009550D01*
X020419Y009475D02*
X020569Y009625D01*
X020569Y009175D01*
X020419Y009175D02*
X020719Y009175D01*
X008558Y016873D02*
X008258Y016873D01*
X008108Y017023D01*
X008258Y017173D01*
X008108Y017333D02*
X008558Y017333D01*
X008408Y017794D02*
X008108Y017794D01*
D16*
X016663Y013190D03*
X024973Y019920D03*
D17*
X026283Y018150D03*
D18*
X026033Y016425D03*
X026033Y019875D03*
D19*
X026033Y018650D03*
X026033Y017650D03*
D20*
X018933Y021500D03*
X018433Y014500D03*
X013433Y028500D03*
X025933Y028500D03*
D21*
X027658Y028250D03*
X024208Y028250D03*
X015158Y028250D03*
X011708Y028250D03*
X017208Y021250D03*
X020658Y021250D03*
X020158Y014250D03*
X016708Y014250D03*
D22*
X017933Y014250D03*
X018933Y014250D03*
X018433Y021250D03*
X019433Y021250D03*
X013933Y028250D03*
X012933Y028250D03*
X025433Y028250D03*
X026433Y028250D03*
D23*
X025844Y027030D02*
X025921Y026954D01*
X025921Y026877D01*
X025844Y026800D01*
X025690Y026800D01*
X025614Y026877D01*
X025614Y026954D01*
X025690Y027030D01*
X025844Y027030D01*
X025844Y026800D02*
X025921Y026723D01*
X025921Y026647D01*
X025844Y026570D01*
X025690Y026570D01*
X025614Y026647D01*
X025614Y026723D01*
X025690Y026800D01*
X025460Y026800D02*
X025384Y026723D01*
X025153Y026723D01*
X025153Y026570D02*
X025153Y027030D01*
X025384Y027030D01*
X025460Y026954D01*
X025460Y026800D01*
X025307Y026723D02*
X025460Y026570D01*
X024804Y025530D02*
X024881Y025454D01*
X024881Y025377D01*
X024804Y025300D01*
X024881Y025223D01*
X024881Y025147D01*
X024804Y025070D01*
X024651Y025070D01*
X024574Y025147D01*
X024421Y025070D02*
X024114Y025070D01*
X024421Y025377D01*
X024421Y025454D01*
X024344Y025530D01*
X024190Y025530D01*
X024114Y025454D01*
X023960Y025454D02*
X023960Y025300D01*
X023884Y025223D01*
X023653Y025223D01*
X023653Y025070D02*
X023653Y025530D01*
X023884Y025530D01*
X023960Y025454D01*
X023807Y025223D02*
X023960Y025070D01*
X024574Y025454D02*
X024651Y025530D01*
X024804Y025530D01*
X024804Y025300D02*
X024728Y025300D01*
X026153Y025223D02*
X026384Y025223D01*
X026460Y025300D01*
X026460Y025454D01*
X026384Y025530D01*
X026153Y025530D01*
X026153Y025070D01*
X026307Y025223D02*
X026460Y025070D01*
X026614Y025070D02*
X026921Y025070D01*
X026767Y025070D02*
X026767Y025530D01*
X026614Y025377D01*
X027074Y025300D02*
X027228Y025377D01*
X027304Y025377D01*
X027381Y025300D01*
X027381Y025147D01*
X027304Y025070D01*
X027151Y025070D01*
X027074Y025147D01*
X027074Y025300D02*
X027074Y025530D01*
X027381Y025530D01*
X024728Y024030D02*
X024728Y023570D01*
X024881Y023570D02*
X024574Y023570D01*
X024421Y023570D02*
X024114Y023570D01*
X024267Y023570D02*
X024267Y024030D01*
X024114Y023877D01*
X023960Y023954D02*
X023960Y023800D01*
X023884Y023723D01*
X023653Y023723D01*
X023653Y023570D02*
X023653Y024030D01*
X023884Y024030D01*
X023960Y023954D01*
X023807Y023723D02*
X023960Y023570D01*
X024574Y023877D02*
X024728Y024030D01*
X024804Y022030D02*
X024881Y021954D01*
X024881Y021877D01*
X024804Y021800D01*
X024881Y021723D01*
X024881Y021647D01*
X024804Y021570D01*
X024651Y021570D01*
X024574Y021647D01*
X024421Y021570D02*
X024114Y021570D01*
X024267Y021570D02*
X024267Y022030D01*
X024114Y021877D01*
X023960Y021954D02*
X023960Y021800D01*
X023884Y021723D01*
X023653Y021723D01*
X023653Y021570D02*
X023653Y022030D01*
X023884Y022030D01*
X023960Y021954D01*
X023807Y021723D02*
X023960Y021570D01*
X024574Y021954D02*
X024651Y022030D01*
X024804Y022030D01*
X024804Y021800D02*
X024728Y021800D01*
X025653Y021723D02*
X025884Y021723D01*
X025960Y021800D01*
X025960Y021954D01*
X025884Y022030D01*
X025653Y022030D01*
X025653Y021570D01*
X025807Y021723D02*
X025960Y021570D01*
X026114Y021570D02*
X026421Y021877D01*
X026421Y021954D01*
X026344Y022030D01*
X026190Y022030D01*
X026114Y021954D01*
X026114Y021570D02*
X026421Y021570D01*
X026574Y021647D02*
X026651Y021570D01*
X026804Y021570D01*
X026881Y021647D01*
X026881Y021723D01*
X026804Y021800D01*
X026574Y021800D01*
X026574Y021647D01*
X026574Y021800D02*
X026728Y021954D01*
X026881Y022030D01*
X024381Y019030D02*
X024074Y019030D01*
X023767Y019030D02*
X023767Y018570D01*
X023614Y018570D02*
X023921Y018570D01*
X024074Y018570D02*
X024074Y018647D01*
X024381Y018954D01*
X024381Y019030D01*
X023767Y019030D02*
X023614Y018877D01*
X023460Y018954D02*
X023460Y018800D01*
X023384Y018723D01*
X023153Y018723D01*
X023153Y018570D02*
X023153Y019030D01*
X023384Y019030D01*
X023460Y018954D01*
X023307Y018723D02*
X023460Y018570D01*
X023565Y017630D02*
X023335Y017400D01*
X023641Y017400D01*
X023565Y017170D02*
X023565Y017630D01*
X023181Y017554D02*
X023181Y017247D01*
X023104Y017170D01*
X022874Y017170D01*
X022874Y017630D01*
X023104Y017630D01*
X023181Y017554D01*
X022721Y017630D02*
X022414Y017630D01*
X022414Y017170D01*
X022721Y017170D01*
X022567Y017400D02*
X022414Y017400D01*
X022260Y017170D02*
X021953Y017170D01*
X021953Y017630D01*
X018421Y019147D02*
X018421Y019223D01*
X018344Y019300D01*
X018114Y019300D01*
X018114Y019147D01*
X018190Y019070D01*
X018344Y019070D01*
X018421Y019147D01*
X018267Y019454D02*
X018114Y019300D01*
X017960Y019300D02*
X017884Y019223D01*
X017653Y019223D01*
X017653Y019070D02*
X017653Y019530D01*
X017884Y019530D01*
X017960Y019454D01*
X017960Y019300D01*
X017807Y019223D02*
X017960Y019070D01*
X018267Y019454D02*
X018421Y019530D01*
X016381Y020147D02*
X016381Y020454D01*
X016304Y020530D01*
X016151Y020530D01*
X016074Y020454D01*
X016074Y020377D01*
X016151Y020300D01*
X016381Y020300D01*
X016381Y020147D02*
X016304Y020070D01*
X016151Y020070D01*
X016074Y020147D01*
X015921Y020070D02*
X015614Y020070D01*
X015767Y020070D02*
X015767Y020530D01*
X015614Y020377D01*
X015460Y020454D02*
X015460Y020300D01*
X015384Y020223D01*
X015153Y020223D01*
X015153Y020070D02*
X015153Y020530D01*
X015384Y020530D01*
X015460Y020454D01*
X015307Y020223D02*
X015460Y020070D01*
X012760Y021670D02*
X012453Y021670D01*
X012607Y021670D02*
X012607Y022130D01*
X012453Y021977D01*
X011695Y021896D02*
X011234Y021896D01*
X011234Y021743D02*
X011234Y021436D01*
X011234Y021589D02*
X011695Y021589D01*
X011465Y021896D02*
X011465Y022203D01*
X011465Y022356D02*
X011465Y022663D01*
X011388Y022663D02*
X011695Y022663D01*
X011695Y022356D02*
X011388Y022356D01*
X011234Y022510D01*
X011388Y022663D01*
X011234Y022817D02*
X011234Y023124D01*
X011234Y022970D02*
X011695Y022970D01*
X011695Y023277D02*
X011695Y023584D01*
X011695Y023431D02*
X011234Y023431D01*
X011388Y023277D01*
X011465Y023738D02*
X011311Y023891D01*
X011234Y024045D01*
X011465Y023968D02*
X011465Y023738D01*
X011618Y023738D01*
X011695Y023814D01*
X011695Y023968D01*
X011618Y024045D01*
X011541Y024045D01*
X011465Y023968D01*
X011465Y024198D02*
X011234Y024428D01*
X011695Y024428D01*
X011465Y024505D02*
X011465Y024198D01*
X011465Y024658D02*
X011311Y024812D01*
X011234Y024965D01*
X011465Y024889D02*
X011465Y024658D01*
X011618Y024658D01*
X011695Y024735D01*
X011695Y024889D01*
X011618Y024965D01*
X011541Y024965D01*
X011465Y024889D01*
X011234Y022203D02*
X011695Y022203D01*
X010100Y020730D02*
X009946Y020654D01*
X009793Y020500D01*
X010023Y020500D01*
X010100Y020423D01*
X010100Y020347D01*
X010023Y020270D01*
X009870Y020270D01*
X009793Y020347D01*
X009793Y020500D01*
X009695Y020389D02*
X009618Y020465D01*
X009541Y020465D01*
X009465Y020389D01*
X009465Y020158D01*
X009618Y020158D01*
X009695Y020235D01*
X009695Y020389D01*
X009639Y020270D02*
X009333Y020270D01*
X009311Y020312D02*
X009465Y020158D01*
X009486Y020270D02*
X009486Y020730D01*
X009333Y020577D01*
X009234Y020465D02*
X009311Y020312D01*
X009179Y020270D02*
X009026Y020423D01*
X009102Y020423D02*
X008872Y020423D01*
X008872Y020270D02*
X008872Y020730D01*
X009102Y020730D01*
X009179Y020654D01*
X009179Y020500D01*
X009102Y020423D01*
X009234Y019928D02*
X009465Y019698D01*
X009465Y020005D01*
X009695Y019928D02*
X009234Y019928D01*
X009234Y019545D02*
X009311Y019391D01*
X009465Y019238D01*
X009465Y019468D01*
X009541Y019545D01*
X009618Y019545D01*
X009695Y019468D01*
X009695Y019314D01*
X009618Y019238D01*
X009465Y019238D01*
X009695Y019084D02*
X009695Y018777D01*
X009695Y018931D02*
X009234Y018931D01*
X009388Y018777D01*
X009234Y018624D02*
X009234Y018317D01*
X009234Y018470D02*
X009695Y018470D01*
X009695Y018163D02*
X009388Y018163D01*
X009234Y018010D01*
X009388Y017856D01*
X009695Y017856D01*
X009695Y017703D02*
X009234Y017703D01*
X009465Y017703D02*
X009465Y017396D01*
X009695Y017396D02*
X009234Y017396D01*
X009234Y017243D02*
X009234Y016936D01*
X009234Y017089D02*
X009695Y017089D01*
X010453Y017170D02*
X010760Y017170D01*
X010607Y017170D02*
X010607Y017630D01*
X010453Y017477D01*
X009465Y017856D02*
X009465Y018163D01*
X012353Y015317D02*
X012353Y015010D01*
X012583Y015010D01*
X012506Y015163D01*
X012506Y015240D01*
X012583Y015317D01*
X012737Y015317D01*
X012813Y015240D01*
X012813Y015086D01*
X012737Y015010D01*
X012813Y014856D02*
X012813Y014549D01*
X012506Y014856D01*
X012430Y014856D01*
X012353Y014779D01*
X012353Y014626D01*
X012430Y014549D01*
X012430Y014396D02*
X012583Y014396D01*
X012660Y014319D01*
X012660Y014089D01*
X012660Y014242D02*
X012813Y014396D01*
X012813Y014089D02*
X012353Y014089D01*
X012353Y014319D01*
X012430Y014396D01*
X013853Y013790D02*
X013853Y013636D01*
X013930Y013560D01*
X013930Y013406D02*
X013853Y013329D01*
X013853Y013176D01*
X013930Y013099D01*
X014237Y013099D01*
X014313Y013176D01*
X014313Y013329D01*
X014237Y013406D01*
X014313Y013560D02*
X014006Y013867D01*
X013930Y013867D01*
X013853Y013790D01*
X014313Y013867D02*
X014313Y013560D01*
X012813Y012817D02*
X012813Y012510D01*
X012506Y012817D01*
X012430Y012817D01*
X012353Y012740D01*
X012353Y012586D01*
X012430Y012510D01*
X012430Y012356D02*
X012583Y012356D01*
X012660Y012279D01*
X012660Y012049D01*
X012813Y012049D02*
X012353Y012049D01*
X012353Y012279D01*
X012430Y012356D01*
X012660Y012203D02*
X012813Y012356D01*
X016053Y012030D02*
X016053Y011570D01*
X016053Y011723D02*
X016284Y011723D01*
X016360Y011800D01*
X016360Y011954D01*
X016284Y012030D01*
X016053Y012030D01*
X016207Y011723D02*
X016360Y011570D01*
X016514Y011570D02*
X016821Y011570D01*
X016667Y011570D02*
X016667Y012030D01*
X016514Y011877D01*
X016974Y011800D02*
X017281Y011800D01*
X017204Y011570D02*
X017204Y012030D01*
X016974Y011800D01*
X017612Y011630D02*
X017612Y011170D01*
X017919Y011170D01*
X018072Y011170D02*
X018379Y011170D01*
X018533Y011170D02*
X018763Y011170D01*
X018839Y011247D01*
X018839Y011554D01*
X018763Y011630D01*
X018533Y011630D01*
X018533Y011170D01*
X018226Y011400D02*
X018072Y011400D01*
X018072Y011630D02*
X018072Y011170D01*
X018072Y011630D02*
X018379Y011630D01*
X018993Y011554D02*
X019070Y011630D01*
X019223Y011630D01*
X019300Y011554D01*
X019300Y011477D01*
X019223Y011400D01*
X019300Y011323D01*
X019300Y011247D01*
X019223Y011170D01*
X019070Y011170D01*
X018993Y011247D01*
X019146Y011400D02*
X019223Y011400D01*
X021153Y013570D02*
X021153Y014030D01*
X021384Y014030D01*
X021460Y013954D01*
X021460Y013800D01*
X021384Y013723D01*
X021153Y013723D01*
X021307Y013723D02*
X021460Y013570D01*
X021614Y013570D02*
X021921Y013877D01*
X021921Y013954D01*
X021844Y014030D01*
X021690Y014030D01*
X021614Y013954D01*
X021614Y013570D02*
X021921Y013570D01*
X022074Y013800D02*
X022381Y013800D01*
X022304Y013570D02*
X022304Y014030D01*
X022074Y013800D01*
X027367Y011625D02*
X027367Y011318D01*
X027444Y011241D01*
X027597Y011241D01*
X027674Y011318D01*
X027828Y011318D02*
X027904Y011241D01*
X028058Y011241D01*
X028135Y011318D01*
X028135Y011394D01*
X028058Y011471D01*
X027828Y011471D01*
X027828Y011318D01*
X027828Y011471D02*
X027981Y011625D01*
X028135Y011701D01*
X027674Y011625D02*
X027597Y011701D01*
X027444Y011701D01*
X027367Y011625D01*
X032195Y018099D02*
X032349Y018099D01*
X032426Y018176D01*
X032579Y018099D02*
X032886Y018099D01*
X032733Y018099D02*
X032733Y018560D01*
X032579Y018406D01*
X032426Y018483D02*
X032349Y018560D01*
X032195Y018560D01*
X032119Y018483D01*
X032119Y018176D01*
X032195Y018099D01*
X033039Y018176D02*
X033346Y018483D01*
X033346Y018176D01*
X033270Y018099D01*
X033116Y018099D01*
X033039Y018176D01*
X033039Y018483D01*
X033116Y018560D01*
X033270Y018560D01*
X033346Y018483D01*
X033460Y021070D02*
X033307Y021223D01*
X033384Y021223D02*
X033153Y021223D01*
X033153Y021070D02*
X033153Y021530D01*
X033384Y021530D01*
X033460Y021454D01*
X033460Y021300D01*
X033384Y021223D01*
X033614Y021147D02*
X033614Y021070D01*
X033614Y021147D02*
X033921Y021454D01*
X033921Y021530D01*
X033614Y021530D01*
X032013Y021870D02*
X031553Y021870D01*
X031553Y022100D01*
X031630Y022177D01*
X031783Y022177D01*
X031860Y022100D01*
X031860Y021870D01*
X031860Y022023D02*
X032013Y022177D01*
X032013Y022330D02*
X032013Y022637D01*
X032013Y022484D02*
X031553Y022484D01*
X031706Y022330D01*
X031630Y022791D02*
X031553Y022868D01*
X031553Y023021D01*
X031630Y023098D01*
X031937Y022791D01*
X032013Y022868D01*
X032013Y023021D01*
X031937Y023098D01*
X031630Y023098D01*
X031630Y022791D02*
X031937Y022791D01*
X040553Y019521D02*
X040630Y019598D01*
X040937Y019291D01*
X041013Y019368D01*
X041013Y019521D01*
X040937Y019598D01*
X040630Y019598D01*
X040553Y019521D02*
X040553Y019368D01*
X040630Y019291D01*
X040937Y019291D01*
X041013Y019137D02*
X041013Y018830D01*
X040706Y019137D01*
X040630Y019137D01*
X040553Y019061D01*
X040553Y018907D01*
X040630Y018830D01*
X040630Y018677D02*
X040783Y018677D01*
X040860Y018600D01*
X040860Y018370D01*
X041013Y018370D02*
X040553Y018370D01*
X040553Y018600D01*
X040630Y018677D01*
X040860Y018523D02*
X041013Y018677D01*
X045553Y022870D02*
X045553Y023100D01*
X045630Y023177D01*
X045783Y023177D01*
X045860Y023100D01*
X045860Y022870D01*
X046013Y022870D02*
X045553Y022870D01*
X045860Y023023D02*
X046013Y023177D01*
X046013Y023330D02*
X045706Y023637D01*
X045630Y023637D01*
X045553Y023561D01*
X045553Y023407D01*
X045630Y023330D01*
X046013Y023330D02*
X046013Y023637D01*
X045937Y023791D02*
X045860Y023791D01*
X045783Y023868D01*
X045783Y024021D01*
X045860Y024098D01*
X045937Y024098D01*
X046013Y024021D01*
X046013Y023868D01*
X045937Y023791D01*
X045783Y023868D02*
X045706Y023791D01*
X045630Y023791D01*
X045553Y023868D01*
X045553Y024021D01*
X045630Y024098D01*
X045706Y024098D01*
X045783Y024021D01*
X045813Y025089D02*
X045353Y025089D01*
X045353Y025319D01*
X045430Y025396D01*
X045583Y025396D01*
X045660Y025319D01*
X045660Y025089D01*
X045660Y025242D02*
X045813Y025396D01*
X045813Y025549D02*
X045506Y025856D01*
X045430Y025856D01*
X045353Y025779D01*
X045353Y025626D01*
X045430Y025549D01*
X045813Y025549D02*
X045813Y025856D01*
X045813Y026010D02*
X045737Y026010D01*
X045430Y026317D01*
X045353Y026317D01*
X045353Y026010D01*
X043313Y025317D02*
X043313Y025010D01*
X043313Y025163D02*
X042853Y025163D01*
X043006Y025010D01*
X043006Y024856D02*
X042930Y024856D01*
X042853Y024779D01*
X042853Y024626D01*
X042930Y024549D01*
X042930Y024396D02*
X043083Y024396D01*
X043160Y024319D01*
X043160Y024089D01*
X043160Y024242D02*
X043313Y024396D01*
X043313Y024549D02*
X043006Y024856D01*
X043313Y024856D02*
X043313Y024549D01*
X042930Y024396D02*
X042853Y024319D01*
X042853Y024089D01*
X043313Y024089D01*
X043313Y028089D02*
X042853Y028089D01*
X042853Y028319D01*
X042930Y028396D01*
X043083Y028396D01*
X043160Y028319D01*
X043160Y028089D01*
X043160Y028242D02*
X043313Y028396D01*
X043313Y028549D02*
X043006Y028856D01*
X042930Y028856D01*
X042853Y028779D01*
X042853Y028626D01*
X042930Y028549D01*
X043313Y028549D02*
X043313Y028856D01*
X043313Y029010D02*
X043006Y029317D01*
X042930Y029317D01*
X042853Y029240D01*
X042853Y029086D01*
X042930Y029010D01*
X043313Y029010D02*
X043313Y029317D01*
X022421Y022030D02*
X022114Y022030D01*
X022114Y021800D01*
X022267Y021877D01*
X022344Y021877D01*
X022421Y021800D01*
X022421Y021647D01*
X022344Y021570D01*
X022190Y021570D01*
X022114Y021647D01*
X021960Y021570D02*
X021807Y021723D01*
X021884Y021723D02*
X021653Y021723D01*
X021653Y021570D02*
X021653Y022030D01*
X021884Y022030D01*
X021960Y021954D01*
X021960Y021800D01*
X021884Y021723D01*
X019413Y021828D02*
X019413Y022135D01*
X019413Y022289D02*
X018953Y022289D01*
X018953Y022596D01*
X018953Y022749D02*
X018953Y022979D01*
X019030Y023056D01*
X019337Y023056D01*
X019413Y022979D01*
X019413Y022749D01*
X018953Y022749D01*
X019183Y022442D02*
X019183Y022289D01*
X019413Y022289D02*
X019413Y022596D01*
X019413Y023210D02*
X019413Y023517D01*
X019413Y023363D02*
X018953Y023363D01*
X019106Y023210D01*
X018953Y021828D02*
X019413Y021828D01*
X018013Y025370D02*
X017553Y025370D01*
X017553Y025600D01*
X017630Y025677D01*
X017783Y025677D01*
X017860Y025600D01*
X017860Y025370D01*
X017860Y025523D02*
X018013Y025677D01*
X018013Y025830D02*
X018013Y026137D01*
X018013Y025984D02*
X017553Y025984D01*
X017706Y025830D01*
X017630Y026291D02*
X017553Y026368D01*
X017553Y026521D01*
X017630Y026598D01*
X017706Y026598D01*
X018013Y026291D01*
X018013Y026598D01*
X020553Y027370D02*
X020553Y027600D01*
X020630Y027677D01*
X020783Y027677D01*
X020860Y027600D01*
X020860Y027370D01*
X021013Y027370D02*
X020553Y027370D01*
X020860Y027523D02*
X021013Y027677D01*
X020937Y027830D02*
X021013Y027907D01*
X021013Y028061D01*
X020937Y028137D01*
X020630Y028137D01*
X020553Y028061D01*
X020553Y027907D01*
X020630Y027830D01*
X020706Y027830D01*
X020783Y027907D01*
X020783Y028137D01*
X017023Y017230D02*
X017100Y017154D01*
X017100Y017077D01*
X017023Y017000D01*
X016870Y017000D01*
X016793Y017077D01*
X016793Y017154D01*
X016870Y017230D01*
X017023Y017230D01*
X017023Y017000D02*
X017100Y016923D01*
X017100Y016847D01*
X017023Y016770D01*
X016870Y016770D01*
X016793Y016847D01*
X016793Y016923D01*
X016870Y017000D01*
X016639Y016770D02*
X016333Y016770D01*
X016486Y016770D02*
X016486Y017230D01*
X016333Y017077D01*
X016179Y017154D02*
X016179Y017000D01*
X016102Y016923D01*
X015872Y016923D01*
X015872Y016770D02*
X015872Y017230D01*
X016102Y017230D01*
X016179Y017154D01*
X016026Y016923D02*
X016179Y016770D01*
D24*
X011933Y014938D03*
X011933Y014358D03*
X011934Y012942D03*
X011934Y012362D03*
X008933Y019358D03*
X008933Y019938D03*
X018433Y025358D03*
X018433Y025938D03*
X021433Y027358D03*
X021433Y027938D03*
X032433Y022438D03*
X032433Y021858D03*
X041433Y018938D03*
X041433Y018358D03*
X046433Y022858D03*
X046433Y023438D03*
X046434Y024862D03*
X046434Y025442D03*
X042434Y025442D03*
X042434Y024862D03*
X042434Y028862D03*
X042434Y029442D03*
D25*
X022383Y015150D03*
X017883Y016150D03*
D26*
X017258Y016150D03*
X019608Y016150D03*
X021758Y015150D03*
X024108Y015150D03*
D27*
X018670Y023091D03*
X018197Y023091D03*
D28*
X018433Y023091D03*
X022492Y016650D03*
X018874Y012150D03*
D29*
X025634Y012205D02*
X025988Y011851D01*
X028233Y011851D01*
X028233Y012717D01*
X028233Y013583D02*
X028233Y014449D01*
X025988Y014449D01*
X025634Y014095D01*
X025634Y013583D01*
X025634Y012717D02*
X025634Y012205D01*
X030933Y008400D02*
X031183Y008650D01*
X031683Y008650D01*
X031933Y008400D01*
X032183Y008650D01*
X032683Y008650D01*
X032933Y008400D01*
X032933Y007900D01*
X032683Y007650D01*
X032183Y007650D01*
X031933Y007900D01*
X031683Y007650D01*
X031183Y007650D01*
X030933Y007900D01*
X030933Y008400D01*
X033433Y008400D02*
X033433Y007900D01*
X033683Y007650D01*
X034183Y007650D01*
X034433Y007900D01*
X034683Y007650D01*
X035183Y007650D01*
X035433Y007900D01*
X035433Y008400D01*
X035183Y008650D01*
X034683Y008650D01*
X034433Y008400D01*
X034183Y008650D01*
X033683Y008650D01*
X033433Y008400D01*
X035933Y008400D02*
X035933Y007900D01*
X036183Y007650D01*
X036683Y007650D01*
X036933Y007900D01*
X037183Y007650D01*
X037683Y007650D01*
X037933Y007900D01*
X037933Y008400D01*
X037683Y008650D01*
X037183Y008650D01*
X036933Y008400D01*
X036683Y008650D01*
X036183Y008650D01*
X035933Y008400D01*
X034378Y015351D02*
X032134Y015351D01*
X032134Y016217D01*
X032134Y017083D02*
X032134Y017949D01*
X034378Y017949D01*
X034733Y017595D01*
X034733Y017083D01*
X034733Y016217D02*
X034733Y015705D01*
X034378Y015351D01*
X045933Y019900D02*
X046183Y019650D01*
X046683Y019650D01*
X046933Y019900D01*
X046933Y020400D01*
X046683Y020650D01*
X046933Y020900D01*
X046933Y021400D01*
X046683Y021650D01*
X046183Y021650D01*
X045933Y021400D01*
X045933Y020900D01*
X046183Y020650D01*
X045933Y020400D01*
X045933Y019900D01*
X046183Y026650D02*
X046683Y026650D01*
X046933Y026900D01*
X046933Y027400D01*
X046683Y027650D01*
X046933Y027900D01*
X046933Y028400D01*
X046683Y028650D01*
X046183Y028650D01*
X045933Y028400D01*
X045933Y027900D01*
X046183Y027650D01*
X045933Y027400D01*
X045933Y026900D01*
X046183Y026650D01*
X021433Y017900D02*
X021433Y017400D01*
X021183Y017150D01*
X020683Y017150D01*
X020433Y017400D01*
X020183Y017150D01*
X019683Y017150D01*
X019433Y017400D01*
X019433Y017900D01*
X019683Y018150D01*
X020183Y018150D01*
X020433Y017900D01*
X020683Y018150D01*
X021183Y018150D01*
X021433Y017900D01*
D30*
X028126Y013519D02*
X028059Y013498D01*
X028059Y013499D02*
X028037Y013563D01*
X028012Y013626D01*
X027983Y013687D01*
X027950Y013747D01*
X027914Y013804D01*
X027875Y013860D01*
X027833Y013913D01*
X027788Y013963D01*
X027740Y014011D01*
X027689Y014056D01*
X027636Y014098D01*
X027580Y014137D01*
X027522Y014173D01*
X027463Y014205D01*
X027401Y014234D01*
X027338Y014259D01*
X027274Y014281D01*
X027209Y014299D01*
X027142Y014313D01*
X027075Y014323D01*
X027008Y014329D01*
X026940Y014332D01*
X026872Y014331D01*
X026805Y014325D01*
X026737Y014316D01*
X026671Y014303D01*
X026605Y014286D01*
X026540Y014266D01*
X026477Y014242D01*
X026415Y014214D01*
X026355Y014183D01*
X026297Y014148D01*
X026240Y014110D01*
X026187Y014069D01*
X026135Y014025D01*
X026086Y013978D01*
X026040Y013928D01*
X025997Y013876D01*
X025957Y013821D01*
X025920Y013764D01*
X025886Y013705D01*
X025856Y013644D01*
X025830Y013582D01*
X025807Y013518D01*
X025741Y013539D01*
X025740Y013539D01*
X025763Y013604D01*
X025790Y013668D01*
X025820Y013729D01*
X025854Y013789D01*
X025890Y013847D01*
X025930Y013903D01*
X025973Y013957D01*
X026019Y014009D01*
X026067Y014057D01*
X026118Y014103D01*
X026172Y014146D01*
X026228Y014186D01*
X026286Y014223D01*
X026346Y014257D01*
X026407Y014288D01*
X026470Y014315D01*
X026535Y014338D01*
X026601Y014358D01*
X026668Y014374D01*
X026735Y014387D01*
X026803Y014396D01*
X026872Y014401D01*
X026941Y014402D01*
X027009Y014399D01*
X027078Y014393D01*
X027146Y014383D01*
X027213Y014370D01*
X027280Y014352D01*
X027345Y014331D01*
X027409Y014307D01*
X027472Y014279D01*
X027533Y014247D01*
X027592Y014212D01*
X027650Y014174D01*
X027705Y014133D01*
X027758Y014089D01*
X027808Y014043D01*
X027856Y013993D01*
X027901Y013941D01*
X027943Y013886D01*
X027981Y013830D01*
X028017Y013771D01*
X028050Y013710D01*
X028079Y013648D01*
X028104Y013584D01*
X028126Y013519D01*
X028118Y013517D01*
X028095Y013583D01*
X028069Y013647D01*
X028039Y013710D01*
X028006Y013772D01*
X027970Y013831D01*
X027930Y013888D01*
X027887Y013943D01*
X027841Y013996D01*
X027792Y014046D01*
X027740Y014093D01*
X027686Y014137D01*
X027630Y014177D01*
X027571Y014215D01*
X027510Y014249D01*
X027448Y014280D01*
X027383Y014307D01*
X027318Y014331D01*
X027251Y014351D01*
X027183Y014367D01*
X027114Y014379D01*
X027045Y014388D01*
X026975Y014392D01*
X026906Y014393D01*
X026836Y014389D01*
X026767Y014382D01*
X026698Y014371D01*
X026630Y014356D01*
X026562Y014337D01*
X026496Y014315D01*
X026432Y014289D01*
X026369Y014259D01*
X026307Y014226D01*
X026248Y014189D01*
X026191Y014149D01*
X026136Y014106D01*
X026083Y014060D01*
X026034Y014011D01*
X025987Y013960D01*
X025943Y013905D01*
X025902Y013849D01*
X025864Y013790D01*
X025830Y013729D01*
X025799Y013667D01*
X025772Y013602D01*
X025749Y013537D01*
X025757Y013534D01*
X025781Y013599D01*
X025808Y013663D01*
X025838Y013725D01*
X025872Y013785D01*
X025909Y013844D01*
X025950Y013900D01*
X025994Y013954D01*
X026040Y014005D01*
X026090Y014054D01*
X026142Y014099D01*
X026196Y014142D01*
X026253Y014182D01*
X026312Y014218D01*
X026373Y014251D01*
X026435Y014280D01*
X026499Y014306D01*
X026565Y014329D01*
X026632Y014347D01*
X026699Y014362D01*
X026768Y014373D01*
X026837Y014380D01*
X026906Y014384D01*
X026975Y014383D01*
X027044Y014379D01*
X027113Y014370D01*
X027181Y014358D01*
X027248Y014342D01*
X027315Y014322D01*
X027380Y014299D01*
X027444Y014272D01*
X027506Y014241D01*
X027566Y014207D01*
X027625Y014170D01*
X027681Y014129D01*
X027734Y014086D01*
X027786Y014039D01*
X027834Y013990D01*
X027880Y013938D01*
X027923Y013883D01*
X027962Y013826D01*
X027998Y013767D01*
X028031Y013706D01*
X028061Y013644D01*
X028087Y013580D01*
X028109Y013514D01*
X028100Y013511D01*
X028078Y013576D01*
X028053Y013640D01*
X028023Y013702D01*
X027991Y013763D01*
X027955Y013821D01*
X027915Y013878D01*
X027873Y013932D01*
X027828Y013984D01*
X027779Y014033D01*
X027729Y014079D01*
X027675Y014122D01*
X027619Y014163D01*
X027562Y014200D01*
X027502Y014233D01*
X027440Y014264D01*
X027377Y014291D01*
X027312Y014314D01*
X027246Y014333D01*
X027179Y014349D01*
X027112Y014361D01*
X027043Y014370D01*
X026975Y014374D01*
X026906Y014375D01*
X026837Y014371D01*
X026769Y014364D01*
X026701Y014353D01*
X026634Y014339D01*
X026568Y014320D01*
X026503Y014298D01*
X026439Y014272D01*
X026377Y014243D01*
X026316Y014210D01*
X026258Y014174D01*
X026201Y014135D01*
X026147Y014092D01*
X026096Y014047D01*
X026047Y013999D01*
X026000Y013948D01*
X025957Y013894D01*
X025917Y013839D01*
X025880Y013781D01*
X025846Y013721D01*
X025816Y013659D01*
X025789Y013596D01*
X025766Y013531D01*
X025774Y013528D01*
X025797Y013593D01*
X025824Y013655D01*
X025854Y013717D01*
X025888Y013776D01*
X025924Y013834D01*
X025964Y013889D01*
X026007Y013942D01*
X026053Y013993D01*
X026102Y014040D01*
X026153Y014085D01*
X026207Y014128D01*
X026263Y014167D01*
X026321Y014202D01*
X026381Y014235D01*
X026443Y014264D01*
X026506Y014290D01*
X026570Y014312D01*
X026636Y014330D01*
X026703Y014345D01*
X026770Y014355D01*
X026838Y014363D01*
X026906Y014366D01*
X026974Y014365D01*
X027043Y014361D01*
X027110Y014353D01*
X027177Y014341D01*
X027244Y014325D01*
X027309Y014305D01*
X027373Y014282D01*
X027436Y014256D01*
X027497Y014225D01*
X027557Y014192D01*
X027614Y014155D01*
X027670Y014115D01*
X027723Y014072D01*
X027773Y014026D01*
X027821Y013978D01*
X027866Y013926D01*
X027908Y013873D01*
X027947Y013817D01*
X027983Y013758D01*
X028015Y013698D01*
X028044Y013637D01*
X028070Y013573D01*
X028092Y013509D01*
X028083Y013506D01*
X028061Y013570D01*
X028036Y013633D01*
X028007Y013694D01*
X027975Y013754D01*
X027940Y013812D01*
X027901Y013867D01*
X027859Y013921D01*
X027814Y013971D01*
X027767Y014020D01*
X027717Y014065D01*
X027664Y014108D01*
X027609Y014148D01*
X027552Y014184D01*
X027493Y014218D01*
X027433Y014247D01*
X027370Y014274D01*
X027306Y014297D01*
X027242Y014316D01*
X027176Y014332D01*
X027109Y014344D01*
X027042Y014352D01*
X026974Y014356D01*
X026906Y014357D01*
X026839Y014354D01*
X026771Y014347D01*
X026704Y014336D01*
X026638Y014321D01*
X026573Y014303D01*
X026509Y014281D01*
X026446Y014256D01*
X026385Y014227D01*
X026325Y014195D01*
X026268Y014159D01*
X026212Y014120D01*
X026159Y014079D01*
X026108Y014034D01*
X026060Y013986D01*
X026014Y013936D01*
X025971Y013884D01*
X025932Y013829D01*
X025895Y013772D01*
X025862Y013713D01*
X025832Y013652D01*
X025806Y013589D01*
X025783Y013526D01*
X025792Y013523D01*
X025815Y013588D01*
X025842Y013651D01*
X025872Y013712D01*
X025906Y013772D01*
X025944Y013830D01*
X025984Y013885D01*
X026028Y013938D01*
X026075Y013989D01*
X026124Y014037D01*
X026176Y014081D01*
X026231Y014123D01*
X026288Y014161D01*
X026347Y014197D01*
X026408Y014228D01*
X026471Y014257D01*
X026535Y014281D01*
X026601Y014302D01*
X026667Y014319D01*
X026735Y014332D01*
X026803Y014341D01*
X026871Y014347D01*
X026940Y014348D01*
X027009Y014345D01*
X027077Y014339D01*
X027145Y014329D01*
X027213Y014314D01*
X027279Y014296D01*
X027344Y014274D01*
X027408Y014249D01*
X027470Y014219D01*
X027531Y014187D01*
X027589Y014150D01*
X027645Y014111D01*
X027699Y014068D01*
X027751Y014023D01*
X027799Y013974D01*
X027845Y013923D01*
X027888Y013869D01*
X027928Y013813D01*
X027964Y013755D01*
X027997Y013694D01*
X028027Y013632D01*
X028052Y013569D01*
X028075Y013504D01*
X028066Y013501D01*
X028044Y013565D01*
X028018Y013629D01*
X027989Y013690D01*
X027956Y013750D01*
X027920Y013808D01*
X027881Y013864D01*
X027838Y013917D01*
X027793Y013968D01*
X027744Y014016D01*
X027693Y014062D01*
X027640Y014104D01*
X027584Y014143D01*
X027526Y014179D01*
X027466Y014211D01*
X027404Y014240D01*
X027341Y014266D01*
X027276Y014287D01*
X027210Y014305D01*
X027144Y014320D01*
X027076Y014330D01*
X027008Y014336D01*
X026940Y014339D01*
X026872Y014338D01*
X026804Y014332D01*
X026736Y014323D01*
X026669Y014310D01*
X026603Y014293D01*
X026538Y014273D01*
X026474Y014248D01*
X026412Y014220D01*
X026352Y014189D01*
X026293Y014154D01*
X026236Y014116D01*
X026182Y014074D01*
X026130Y014030D01*
X026081Y013983D01*
X026035Y013932D01*
X025991Y013880D01*
X025951Y013825D01*
X025914Y013768D01*
X025880Y013708D01*
X025850Y013647D01*
X025823Y013584D01*
X025800Y013520D01*
X025740Y012781D02*
X025807Y012802D01*
X025807Y012801D02*
X025829Y012737D01*
X025854Y012674D01*
X025883Y012613D01*
X025916Y012553D01*
X025952Y012496D01*
X025991Y012440D01*
X026033Y012387D01*
X026078Y012337D01*
X026126Y012289D01*
X026177Y012244D01*
X026230Y012202D01*
X026286Y012163D01*
X026344Y012127D01*
X026403Y012095D01*
X026465Y012066D01*
X026528Y012041D01*
X026592Y012019D01*
X026657Y012001D01*
X026724Y011987D01*
X026791Y011977D01*
X026858Y011971D01*
X026926Y011968D01*
X026994Y011969D01*
X027061Y011975D01*
X027129Y011984D01*
X027195Y011997D01*
X027261Y012014D01*
X027326Y012034D01*
X027389Y012058D01*
X027451Y012086D01*
X027511Y012117D01*
X027569Y012152D01*
X027626Y012190D01*
X027679Y012231D01*
X027731Y012275D01*
X027780Y012322D01*
X027826Y012372D01*
X027869Y012424D01*
X027909Y012479D01*
X027946Y012536D01*
X027980Y012595D01*
X028010Y012656D01*
X028036Y012718D01*
X028059Y012782D01*
X028125Y012761D01*
X028126Y012761D01*
X028103Y012696D01*
X028076Y012632D01*
X028046Y012571D01*
X028012Y012511D01*
X027976Y012453D01*
X027936Y012397D01*
X027893Y012343D01*
X027847Y012291D01*
X027799Y012243D01*
X027748Y012197D01*
X027694Y012154D01*
X027638Y012114D01*
X027580Y012077D01*
X027520Y012043D01*
X027459Y012012D01*
X027396Y011985D01*
X027331Y011962D01*
X027265Y011942D01*
X027198Y011926D01*
X027131Y011913D01*
X027063Y011904D01*
X026994Y011899D01*
X026925Y011898D01*
X026857Y011901D01*
X026788Y011907D01*
X026720Y011917D01*
X026653Y011930D01*
X026586Y011948D01*
X026521Y011969D01*
X026457Y011993D01*
X026394Y012021D01*
X026333Y012053D01*
X026274Y012088D01*
X026216Y012126D01*
X026161Y012167D01*
X026108Y012211D01*
X026058Y012257D01*
X026010Y012307D01*
X025965Y012359D01*
X025923Y012414D01*
X025885Y012470D01*
X025849Y012529D01*
X025816Y012590D01*
X025787Y012652D01*
X025762Y012716D01*
X025740Y012781D01*
X025748Y012783D01*
X025771Y012717D01*
X025797Y012653D01*
X025827Y012590D01*
X025860Y012528D01*
X025896Y012469D01*
X025936Y012412D01*
X025979Y012357D01*
X026025Y012304D01*
X026074Y012254D01*
X026126Y012207D01*
X026180Y012163D01*
X026236Y012123D01*
X026295Y012085D01*
X026356Y012051D01*
X026418Y012020D01*
X026483Y011993D01*
X026548Y011969D01*
X026615Y011949D01*
X026683Y011933D01*
X026752Y011921D01*
X026821Y011912D01*
X026891Y011908D01*
X026960Y011907D01*
X027030Y011911D01*
X027099Y011918D01*
X027168Y011929D01*
X027236Y011944D01*
X027304Y011963D01*
X027370Y011985D01*
X027434Y012011D01*
X027497Y012041D01*
X027559Y012074D01*
X027618Y012111D01*
X027675Y012151D01*
X027730Y012194D01*
X027783Y012240D01*
X027832Y012289D01*
X027879Y012340D01*
X027923Y012395D01*
X027964Y012451D01*
X028002Y012510D01*
X028036Y012571D01*
X028067Y012633D01*
X028094Y012698D01*
X028117Y012763D01*
X028109Y012766D01*
X028085Y012701D01*
X028058Y012637D01*
X028028Y012575D01*
X027994Y012515D01*
X027957Y012456D01*
X027916Y012400D01*
X027872Y012346D01*
X027826Y012295D01*
X027776Y012246D01*
X027724Y012201D01*
X027670Y012158D01*
X027613Y012118D01*
X027554Y012082D01*
X027493Y012049D01*
X027431Y012020D01*
X027367Y011994D01*
X027301Y011971D01*
X027234Y011953D01*
X027167Y011938D01*
X027098Y011927D01*
X027029Y011920D01*
X026960Y011916D01*
X026891Y011917D01*
X026822Y011921D01*
X026753Y011930D01*
X026685Y011942D01*
X026618Y011958D01*
X026551Y011978D01*
X026486Y012001D01*
X026422Y012028D01*
X026360Y012059D01*
X026300Y012093D01*
X026241Y012130D01*
X026185Y012171D01*
X026132Y012214D01*
X026080Y012261D01*
X026032Y012310D01*
X025986Y012362D01*
X025943Y012417D01*
X025904Y012474D01*
X025868Y012533D01*
X025835Y012594D01*
X025805Y012656D01*
X025779Y012720D01*
X025757Y012786D01*
X025766Y012789D01*
X025788Y012724D01*
X025813Y012660D01*
X025843Y012598D01*
X025875Y012537D01*
X025911Y012479D01*
X025951Y012422D01*
X025993Y012368D01*
X026038Y012316D01*
X026087Y012267D01*
X026137Y012221D01*
X026191Y012178D01*
X026247Y012137D01*
X026304Y012100D01*
X026364Y012067D01*
X026426Y012036D01*
X026489Y012009D01*
X026554Y011986D01*
X026620Y011967D01*
X026687Y011951D01*
X026754Y011939D01*
X026823Y011930D01*
X026891Y011926D01*
X026960Y011925D01*
X027029Y011929D01*
X027097Y011936D01*
X027165Y011947D01*
X027232Y011961D01*
X027298Y011980D01*
X027363Y012002D01*
X027427Y012028D01*
X027489Y012057D01*
X027550Y012090D01*
X027608Y012126D01*
X027665Y012165D01*
X027719Y012208D01*
X027770Y012253D01*
X027819Y012301D01*
X027866Y012352D01*
X027909Y012406D01*
X027949Y012461D01*
X027986Y012519D01*
X028020Y012579D01*
X028050Y012641D01*
X028077Y012704D01*
X028100Y012769D01*
X028092Y012772D01*
X028069Y012707D01*
X028042Y012645D01*
X028012Y012583D01*
X027978Y012524D01*
X027942Y012466D01*
X027902Y012411D01*
X027859Y012358D01*
X027813Y012307D01*
X027764Y012260D01*
X027713Y012215D01*
X027659Y012172D01*
X027603Y012133D01*
X027545Y012098D01*
X027485Y012065D01*
X027423Y012036D01*
X027360Y012010D01*
X027296Y011988D01*
X027230Y011970D01*
X027163Y011955D01*
X027096Y011945D01*
X027028Y011937D01*
X026960Y011934D01*
X026892Y011935D01*
X026823Y011939D01*
X026756Y011947D01*
X026689Y011959D01*
X026622Y011975D01*
X026557Y011995D01*
X026493Y012018D01*
X026430Y012044D01*
X026369Y012075D01*
X026309Y012108D01*
X026252Y012145D01*
X026196Y012185D01*
X026143Y012228D01*
X026093Y012274D01*
X026045Y012322D01*
X026000Y012374D01*
X025958Y012427D01*
X025919Y012483D01*
X025883Y012542D01*
X025851Y012602D01*
X025822Y012663D01*
X025796Y012727D01*
X025774Y012791D01*
X025783Y012794D01*
X025805Y012730D01*
X025830Y012667D01*
X025859Y012606D01*
X025891Y012546D01*
X025926Y012488D01*
X025965Y012433D01*
X026007Y012379D01*
X026052Y012329D01*
X026099Y012280D01*
X026149Y012235D01*
X026202Y012192D01*
X026257Y012152D01*
X026314Y012116D01*
X026373Y012082D01*
X026433Y012053D01*
X026496Y012026D01*
X026560Y012003D01*
X026624Y011984D01*
X026690Y011968D01*
X026757Y011956D01*
X026824Y011948D01*
X026892Y011944D01*
X026960Y011943D01*
X027027Y011946D01*
X027095Y011953D01*
X027162Y011964D01*
X027228Y011979D01*
X027293Y011997D01*
X027357Y012019D01*
X027420Y012044D01*
X027481Y012073D01*
X027541Y012105D01*
X027598Y012141D01*
X027654Y012180D01*
X027707Y012221D01*
X027758Y012266D01*
X027806Y012314D01*
X027852Y012364D01*
X027895Y012416D01*
X027934Y012471D01*
X027971Y012528D01*
X028004Y012587D01*
X028034Y012648D01*
X028060Y012711D01*
X028083Y012774D01*
X028074Y012777D01*
X028051Y012712D01*
X028024Y012649D01*
X027994Y012588D01*
X027960Y012528D01*
X027922Y012470D01*
X027882Y012415D01*
X027838Y012362D01*
X027791Y012311D01*
X027742Y012263D01*
X027690Y012219D01*
X027635Y012177D01*
X027578Y012139D01*
X027519Y012103D01*
X027458Y012072D01*
X027395Y012043D01*
X027331Y012019D01*
X027265Y011998D01*
X027199Y011981D01*
X027131Y011968D01*
X027063Y011959D01*
X026995Y011953D01*
X026926Y011952D01*
X026857Y011955D01*
X026789Y011961D01*
X026721Y011971D01*
X026653Y011986D01*
X026587Y012004D01*
X026522Y012026D01*
X026458Y012051D01*
X026396Y012081D01*
X026335Y012113D01*
X026277Y012150D01*
X026221Y012189D01*
X026167Y012232D01*
X026115Y012277D01*
X026067Y012326D01*
X026021Y012377D01*
X025978Y012431D01*
X025938Y012487D01*
X025902Y012545D01*
X025869Y012606D01*
X025839Y012668D01*
X025814Y012731D01*
X025791Y012796D01*
X025800Y012799D01*
X025822Y012735D01*
X025848Y012671D01*
X025877Y012610D01*
X025910Y012550D01*
X025946Y012492D01*
X025985Y012436D01*
X026028Y012383D01*
X026073Y012332D01*
X026122Y012284D01*
X026173Y012238D01*
X026226Y012196D01*
X026282Y012157D01*
X026340Y012121D01*
X026400Y012089D01*
X026462Y012060D01*
X026525Y012034D01*
X026590Y012013D01*
X026656Y011995D01*
X026722Y011980D01*
X026790Y011970D01*
X026858Y011964D01*
X026926Y011961D01*
X026994Y011962D01*
X027062Y011968D01*
X027130Y011977D01*
X027197Y011990D01*
X027263Y012007D01*
X027328Y012027D01*
X027392Y012052D01*
X027454Y012080D01*
X027514Y012111D01*
X027573Y012146D01*
X027630Y012184D01*
X027684Y012226D01*
X027736Y012270D01*
X027785Y012317D01*
X027831Y012368D01*
X027875Y012420D01*
X027915Y012475D01*
X027952Y012532D01*
X027986Y012592D01*
X028016Y012653D01*
X028043Y012716D01*
X028066Y012780D01*
X034626Y017019D02*
X034559Y016998D01*
X034559Y016999D02*
X034537Y017063D01*
X034512Y017126D01*
X034483Y017187D01*
X034450Y017247D01*
X034414Y017304D01*
X034375Y017360D01*
X034333Y017413D01*
X034288Y017463D01*
X034240Y017511D01*
X034189Y017556D01*
X034136Y017598D01*
X034080Y017637D01*
X034022Y017673D01*
X033963Y017705D01*
X033901Y017734D01*
X033838Y017759D01*
X033774Y017781D01*
X033709Y017799D01*
X033642Y017813D01*
X033575Y017823D01*
X033508Y017829D01*
X033440Y017832D01*
X033372Y017831D01*
X033305Y017825D01*
X033237Y017816D01*
X033171Y017803D01*
X033105Y017786D01*
X033040Y017766D01*
X032977Y017742D01*
X032915Y017714D01*
X032855Y017683D01*
X032797Y017648D01*
X032740Y017610D01*
X032687Y017569D01*
X032635Y017525D01*
X032586Y017478D01*
X032540Y017428D01*
X032497Y017376D01*
X032457Y017321D01*
X032420Y017264D01*
X032386Y017205D01*
X032356Y017144D01*
X032330Y017082D01*
X032307Y017018D01*
X032241Y017039D01*
X032240Y017039D01*
X032263Y017104D01*
X032290Y017168D01*
X032320Y017229D01*
X032354Y017289D01*
X032390Y017347D01*
X032430Y017403D01*
X032473Y017457D01*
X032519Y017509D01*
X032567Y017557D01*
X032618Y017603D01*
X032672Y017646D01*
X032728Y017686D01*
X032786Y017723D01*
X032846Y017757D01*
X032907Y017788D01*
X032970Y017815D01*
X033035Y017838D01*
X033101Y017858D01*
X033168Y017874D01*
X033235Y017887D01*
X033303Y017896D01*
X033372Y017901D01*
X033441Y017902D01*
X033509Y017899D01*
X033578Y017893D01*
X033646Y017883D01*
X033713Y017870D01*
X033780Y017852D01*
X033845Y017831D01*
X033909Y017807D01*
X033972Y017779D01*
X034033Y017747D01*
X034092Y017712D01*
X034150Y017674D01*
X034205Y017633D01*
X034258Y017589D01*
X034308Y017543D01*
X034356Y017493D01*
X034401Y017441D01*
X034443Y017386D01*
X034481Y017330D01*
X034517Y017271D01*
X034550Y017210D01*
X034579Y017148D01*
X034604Y017084D01*
X034626Y017019D01*
X034618Y017017D01*
X034595Y017083D01*
X034569Y017147D01*
X034539Y017210D01*
X034506Y017272D01*
X034470Y017331D01*
X034430Y017388D01*
X034387Y017443D01*
X034341Y017496D01*
X034292Y017546D01*
X034240Y017593D01*
X034186Y017637D01*
X034130Y017677D01*
X034071Y017715D01*
X034010Y017749D01*
X033948Y017780D01*
X033883Y017807D01*
X033818Y017831D01*
X033751Y017851D01*
X033683Y017867D01*
X033614Y017879D01*
X033545Y017888D01*
X033475Y017892D01*
X033406Y017893D01*
X033336Y017889D01*
X033267Y017882D01*
X033198Y017871D01*
X033130Y017856D01*
X033062Y017837D01*
X032996Y017815D01*
X032932Y017789D01*
X032869Y017759D01*
X032807Y017726D01*
X032748Y017689D01*
X032691Y017649D01*
X032636Y017606D01*
X032583Y017560D01*
X032534Y017511D01*
X032487Y017460D01*
X032443Y017405D01*
X032402Y017349D01*
X032364Y017290D01*
X032330Y017229D01*
X032299Y017167D01*
X032272Y017102D01*
X032249Y017037D01*
X032257Y017034D01*
X032281Y017099D01*
X032308Y017163D01*
X032338Y017225D01*
X032372Y017285D01*
X032409Y017344D01*
X032450Y017400D01*
X032494Y017454D01*
X032540Y017505D01*
X032590Y017554D01*
X032642Y017599D01*
X032696Y017642D01*
X032753Y017682D01*
X032812Y017718D01*
X032873Y017751D01*
X032935Y017780D01*
X032999Y017806D01*
X033065Y017829D01*
X033132Y017847D01*
X033199Y017862D01*
X033268Y017873D01*
X033337Y017880D01*
X033406Y017884D01*
X033475Y017883D01*
X033544Y017879D01*
X033613Y017870D01*
X033681Y017858D01*
X033748Y017842D01*
X033815Y017822D01*
X033880Y017799D01*
X033944Y017772D01*
X034006Y017741D01*
X034066Y017707D01*
X034125Y017670D01*
X034181Y017629D01*
X034234Y017586D01*
X034286Y017539D01*
X034334Y017490D01*
X034380Y017438D01*
X034423Y017383D01*
X034462Y017326D01*
X034498Y017267D01*
X034531Y017206D01*
X034561Y017144D01*
X034587Y017080D01*
X034609Y017014D01*
X034600Y017011D01*
X034578Y017076D01*
X034553Y017140D01*
X034523Y017202D01*
X034491Y017263D01*
X034455Y017321D01*
X034415Y017378D01*
X034373Y017432D01*
X034328Y017484D01*
X034279Y017533D01*
X034229Y017579D01*
X034175Y017622D01*
X034119Y017663D01*
X034062Y017700D01*
X034002Y017733D01*
X033940Y017764D01*
X033877Y017791D01*
X033812Y017814D01*
X033746Y017833D01*
X033679Y017849D01*
X033612Y017861D01*
X033543Y017870D01*
X033475Y017874D01*
X033406Y017875D01*
X033337Y017871D01*
X033269Y017864D01*
X033201Y017853D01*
X033134Y017839D01*
X033068Y017820D01*
X033003Y017798D01*
X032939Y017772D01*
X032877Y017743D01*
X032816Y017710D01*
X032758Y017674D01*
X032701Y017635D01*
X032647Y017592D01*
X032596Y017547D01*
X032547Y017499D01*
X032500Y017448D01*
X032457Y017394D01*
X032417Y017339D01*
X032380Y017281D01*
X032346Y017221D01*
X032316Y017159D01*
X032289Y017096D01*
X032266Y017031D01*
X032274Y017028D01*
X032297Y017093D01*
X032324Y017155D01*
X032354Y017217D01*
X032388Y017276D01*
X032424Y017334D01*
X032464Y017389D01*
X032507Y017442D01*
X032553Y017493D01*
X032602Y017540D01*
X032653Y017585D01*
X032707Y017628D01*
X032763Y017667D01*
X032821Y017702D01*
X032881Y017735D01*
X032943Y017764D01*
X033006Y017790D01*
X033070Y017812D01*
X033136Y017830D01*
X033203Y017845D01*
X033270Y017855D01*
X033338Y017863D01*
X033406Y017866D01*
X033474Y017865D01*
X033543Y017861D01*
X033610Y017853D01*
X033677Y017841D01*
X033744Y017825D01*
X033809Y017805D01*
X033873Y017782D01*
X033936Y017756D01*
X033997Y017725D01*
X034057Y017692D01*
X034114Y017655D01*
X034170Y017615D01*
X034223Y017572D01*
X034273Y017526D01*
X034321Y017478D01*
X034366Y017426D01*
X034408Y017373D01*
X034447Y017317D01*
X034483Y017258D01*
X034515Y017198D01*
X034544Y017137D01*
X034570Y017073D01*
X034592Y017009D01*
X034583Y017006D01*
X034561Y017070D01*
X034536Y017133D01*
X034507Y017194D01*
X034475Y017254D01*
X034440Y017312D01*
X034401Y017367D01*
X034359Y017421D01*
X034314Y017471D01*
X034267Y017520D01*
X034217Y017565D01*
X034164Y017608D01*
X034109Y017648D01*
X034052Y017684D01*
X033993Y017718D01*
X033933Y017747D01*
X033870Y017774D01*
X033806Y017797D01*
X033742Y017816D01*
X033676Y017832D01*
X033609Y017844D01*
X033542Y017852D01*
X033474Y017856D01*
X033406Y017857D01*
X033339Y017854D01*
X033271Y017847D01*
X033204Y017836D01*
X033138Y017821D01*
X033073Y017803D01*
X033009Y017781D01*
X032946Y017756D01*
X032885Y017727D01*
X032825Y017695D01*
X032768Y017659D01*
X032712Y017620D01*
X032659Y017579D01*
X032608Y017534D01*
X032560Y017486D01*
X032514Y017436D01*
X032471Y017384D01*
X032432Y017329D01*
X032395Y017272D01*
X032362Y017213D01*
X032332Y017152D01*
X032306Y017089D01*
X032283Y017026D01*
X032292Y017023D01*
X032315Y017088D01*
X032342Y017151D01*
X032372Y017212D01*
X032406Y017272D01*
X032444Y017330D01*
X032484Y017385D01*
X032528Y017438D01*
X032575Y017489D01*
X032624Y017537D01*
X032676Y017581D01*
X032731Y017623D01*
X032788Y017661D01*
X032847Y017697D01*
X032908Y017728D01*
X032971Y017757D01*
X033035Y017781D01*
X033101Y017802D01*
X033167Y017819D01*
X033235Y017832D01*
X033303Y017841D01*
X033371Y017847D01*
X033440Y017848D01*
X033509Y017845D01*
X033577Y017839D01*
X033645Y017829D01*
X033713Y017814D01*
X033779Y017796D01*
X033844Y017774D01*
X033908Y017749D01*
X033970Y017719D01*
X034031Y017687D01*
X034089Y017650D01*
X034145Y017611D01*
X034199Y017568D01*
X034251Y017523D01*
X034299Y017474D01*
X034345Y017423D01*
X034388Y017369D01*
X034428Y017313D01*
X034464Y017255D01*
X034497Y017194D01*
X034527Y017132D01*
X034552Y017069D01*
X034575Y017004D01*
X034566Y017001D01*
X034544Y017065D01*
X034518Y017129D01*
X034489Y017190D01*
X034456Y017250D01*
X034420Y017308D01*
X034381Y017364D01*
X034338Y017417D01*
X034293Y017468D01*
X034244Y017516D01*
X034193Y017562D01*
X034140Y017604D01*
X034084Y017643D01*
X034026Y017679D01*
X033966Y017711D01*
X033904Y017740D01*
X033841Y017766D01*
X033776Y017787D01*
X033710Y017805D01*
X033644Y017820D01*
X033576Y017830D01*
X033508Y017836D01*
X033440Y017839D01*
X033372Y017838D01*
X033304Y017832D01*
X033236Y017823D01*
X033169Y017810D01*
X033103Y017793D01*
X033038Y017773D01*
X032974Y017748D01*
X032912Y017720D01*
X032852Y017689D01*
X032793Y017654D01*
X032736Y017616D01*
X032682Y017574D01*
X032630Y017530D01*
X032581Y017483D01*
X032535Y017432D01*
X032491Y017380D01*
X032451Y017325D01*
X032414Y017268D01*
X032380Y017208D01*
X032350Y017147D01*
X032323Y017084D01*
X032300Y017020D01*
X032240Y016281D02*
X032307Y016302D01*
X032307Y016301D02*
X032329Y016237D01*
X032354Y016174D01*
X032383Y016113D01*
X032416Y016053D01*
X032452Y015996D01*
X032491Y015940D01*
X032533Y015887D01*
X032578Y015837D01*
X032626Y015789D01*
X032677Y015744D01*
X032730Y015702D01*
X032786Y015663D01*
X032844Y015627D01*
X032903Y015595D01*
X032965Y015566D01*
X033028Y015541D01*
X033092Y015519D01*
X033157Y015501D01*
X033224Y015487D01*
X033291Y015477D01*
X033358Y015471D01*
X033426Y015468D01*
X033494Y015469D01*
X033561Y015475D01*
X033629Y015484D01*
X033695Y015497D01*
X033761Y015514D01*
X033826Y015534D01*
X033889Y015558D01*
X033951Y015586D01*
X034011Y015617D01*
X034069Y015652D01*
X034126Y015690D01*
X034179Y015731D01*
X034231Y015775D01*
X034280Y015822D01*
X034326Y015872D01*
X034369Y015924D01*
X034409Y015979D01*
X034446Y016036D01*
X034480Y016095D01*
X034510Y016156D01*
X034536Y016218D01*
X034559Y016282D01*
X034625Y016261D01*
X034626Y016261D01*
X034603Y016196D01*
X034576Y016132D01*
X034546Y016071D01*
X034512Y016011D01*
X034476Y015953D01*
X034436Y015897D01*
X034393Y015843D01*
X034347Y015791D01*
X034299Y015743D01*
X034248Y015697D01*
X034194Y015654D01*
X034138Y015614D01*
X034080Y015577D01*
X034020Y015543D01*
X033959Y015512D01*
X033896Y015485D01*
X033831Y015462D01*
X033765Y015442D01*
X033698Y015426D01*
X033631Y015413D01*
X033563Y015404D01*
X033494Y015399D01*
X033425Y015398D01*
X033357Y015401D01*
X033288Y015407D01*
X033220Y015417D01*
X033153Y015430D01*
X033086Y015448D01*
X033021Y015469D01*
X032957Y015493D01*
X032894Y015521D01*
X032833Y015553D01*
X032774Y015588D01*
X032716Y015626D01*
X032661Y015667D01*
X032608Y015711D01*
X032558Y015757D01*
X032510Y015807D01*
X032465Y015859D01*
X032423Y015914D01*
X032385Y015970D01*
X032349Y016029D01*
X032316Y016090D01*
X032287Y016152D01*
X032262Y016216D01*
X032240Y016281D01*
X032248Y016283D01*
X032271Y016217D01*
X032297Y016153D01*
X032327Y016090D01*
X032360Y016028D01*
X032396Y015969D01*
X032436Y015912D01*
X032479Y015857D01*
X032525Y015804D01*
X032574Y015754D01*
X032626Y015707D01*
X032680Y015663D01*
X032736Y015623D01*
X032795Y015585D01*
X032856Y015551D01*
X032918Y015520D01*
X032983Y015493D01*
X033048Y015469D01*
X033115Y015449D01*
X033183Y015433D01*
X033252Y015421D01*
X033321Y015412D01*
X033391Y015408D01*
X033460Y015407D01*
X033530Y015411D01*
X033599Y015418D01*
X033668Y015429D01*
X033736Y015444D01*
X033804Y015463D01*
X033870Y015485D01*
X033934Y015511D01*
X033997Y015541D01*
X034059Y015574D01*
X034118Y015611D01*
X034175Y015651D01*
X034230Y015694D01*
X034283Y015740D01*
X034332Y015789D01*
X034379Y015840D01*
X034423Y015895D01*
X034464Y015951D01*
X034502Y016010D01*
X034536Y016071D01*
X034567Y016133D01*
X034594Y016198D01*
X034617Y016263D01*
X034609Y016266D01*
X034585Y016201D01*
X034558Y016137D01*
X034528Y016075D01*
X034494Y016015D01*
X034457Y015956D01*
X034416Y015900D01*
X034372Y015846D01*
X034326Y015795D01*
X034276Y015746D01*
X034224Y015701D01*
X034170Y015658D01*
X034113Y015618D01*
X034054Y015582D01*
X033993Y015549D01*
X033931Y015520D01*
X033867Y015494D01*
X033801Y015471D01*
X033734Y015453D01*
X033667Y015438D01*
X033598Y015427D01*
X033529Y015420D01*
X033460Y015416D01*
X033391Y015417D01*
X033322Y015421D01*
X033253Y015430D01*
X033185Y015442D01*
X033118Y015458D01*
X033051Y015478D01*
X032986Y015501D01*
X032922Y015528D01*
X032860Y015559D01*
X032800Y015593D01*
X032741Y015630D01*
X032685Y015671D01*
X032632Y015714D01*
X032580Y015761D01*
X032532Y015810D01*
X032486Y015862D01*
X032443Y015917D01*
X032404Y015974D01*
X032368Y016033D01*
X032335Y016094D01*
X032305Y016156D01*
X032279Y016220D01*
X032257Y016286D01*
X032266Y016289D01*
X032288Y016224D01*
X032313Y016160D01*
X032343Y016098D01*
X032375Y016037D01*
X032411Y015979D01*
X032451Y015922D01*
X032493Y015868D01*
X032538Y015816D01*
X032587Y015767D01*
X032637Y015721D01*
X032691Y015678D01*
X032747Y015637D01*
X032804Y015600D01*
X032864Y015567D01*
X032926Y015536D01*
X032989Y015509D01*
X033054Y015486D01*
X033120Y015467D01*
X033187Y015451D01*
X033254Y015439D01*
X033323Y015430D01*
X033391Y015426D01*
X033460Y015425D01*
X033529Y015429D01*
X033597Y015436D01*
X033665Y015447D01*
X033732Y015461D01*
X033798Y015480D01*
X033863Y015502D01*
X033927Y015528D01*
X033989Y015557D01*
X034050Y015590D01*
X034108Y015626D01*
X034165Y015665D01*
X034219Y015708D01*
X034270Y015753D01*
X034319Y015801D01*
X034366Y015852D01*
X034409Y015906D01*
X034449Y015961D01*
X034486Y016019D01*
X034520Y016079D01*
X034550Y016141D01*
X034577Y016204D01*
X034600Y016269D01*
X034592Y016272D01*
X034569Y016207D01*
X034542Y016145D01*
X034512Y016083D01*
X034478Y016024D01*
X034442Y015966D01*
X034402Y015911D01*
X034359Y015858D01*
X034313Y015807D01*
X034264Y015760D01*
X034213Y015715D01*
X034159Y015672D01*
X034103Y015633D01*
X034045Y015598D01*
X033985Y015565D01*
X033923Y015536D01*
X033860Y015510D01*
X033796Y015488D01*
X033730Y015470D01*
X033663Y015455D01*
X033596Y015445D01*
X033528Y015437D01*
X033460Y015434D01*
X033392Y015435D01*
X033323Y015439D01*
X033256Y015447D01*
X033189Y015459D01*
X033122Y015475D01*
X033057Y015495D01*
X032993Y015518D01*
X032930Y015544D01*
X032869Y015575D01*
X032809Y015608D01*
X032752Y015645D01*
X032696Y015685D01*
X032643Y015728D01*
X032593Y015774D01*
X032545Y015822D01*
X032500Y015874D01*
X032458Y015927D01*
X032419Y015983D01*
X032383Y016042D01*
X032351Y016102D01*
X032322Y016163D01*
X032296Y016227D01*
X032274Y016291D01*
X032283Y016294D01*
X032305Y016230D01*
X032330Y016167D01*
X032359Y016106D01*
X032391Y016046D01*
X032426Y015988D01*
X032465Y015933D01*
X032507Y015879D01*
X032552Y015829D01*
X032599Y015780D01*
X032649Y015735D01*
X032702Y015692D01*
X032757Y015652D01*
X032814Y015616D01*
X032873Y015582D01*
X032933Y015553D01*
X032996Y015526D01*
X033060Y015503D01*
X033124Y015484D01*
X033190Y015468D01*
X033257Y015456D01*
X033324Y015448D01*
X033392Y015444D01*
X033460Y015443D01*
X033527Y015446D01*
X033595Y015453D01*
X033662Y015464D01*
X033728Y015479D01*
X033793Y015497D01*
X033857Y015519D01*
X033920Y015544D01*
X033981Y015573D01*
X034041Y015605D01*
X034098Y015641D01*
X034154Y015680D01*
X034207Y015721D01*
X034258Y015766D01*
X034306Y015814D01*
X034352Y015864D01*
X034395Y015916D01*
X034434Y015971D01*
X034471Y016028D01*
X034504Y016087D01*
X034534Y016148D01*
X034560Y016211D01*
X034583Y016274D01*
X034574Y016277D01*
X034551Y016212D01*
X034524Y016149D01*
X034494Y016088D01*
X034460Y016028D01*
X034422Y015970D01*
X034382Y015915D01*
X034338Y015862D01*
X034291Y015811D01*
X034242Y015763D01*
X034190Y015719D01*
X034135Y015677D01*
X034078Y015639D01*
X034019Y015603D01*
X033958Y015572D01*
X033895Y015543D01*
X033831Y015519D01*
X033765Y015498D01*
X033699Y015481D01*
X033631Y015468D01*
X033563Y015459D01*
X033495Y015453D01*
X033426Y015452D01*
X033357Y015455D01*
X033289Y015461D01*
X033221Y015471D01*
X033153Y015486D01*
X033087Y015504D01*
X033022Y015526D01*
X032958Y015551D01*
X032896Y015581D01*
X032835Y015613D01*
X032777Y015650D01*
X032721Y015689D01*
X032667Y015732D01*
X032615Y015777D01*
X032567Y015826D01*
X032521Y015877D01*
X032478Y015931D01*
X032438Y015987D01*
X032402Y016045D01*
X032369Y016106D01*
X032339Y016168D01*
X032314Y016231D01*
X032291Y016296D01*
X032300Y016299D01*
X032322Y016235D01*
X032348Y016171D01*
X032377Y016110D01*
X032410Y016050D01*
X032446Y015992D01*
X032485Y015936D01*
X032528Y015883D01*
X032573Y015832D01*
X032622Y015784D01*
X032673Y015738D01*
X032726Y015696D01*
X032782Y015657D01*
X032840Y015621D01*
X032900Y015589D01*
X032962Y015560D01*
X033025Y015534D01*
X033090Y015513D01*
X033156Y015495D01*
X033222Y015480D01*
X033290Y015470D01*
X033358Y015464D01*
X033426Y015461D01*
X033494Y015462D01*
X033562Y015468D01*
X033630Y015477D01*
X033697Y015490D01*
X033763Y015507D01*
X033828Y015527D01*
X033892Y015552D01*
X033954Y015580D01*
X034014Y015611D01*
X034073Y015646D01*
X034130Y015684D01*
X034184Y015726D01*
X034236Y015770D01*
X034285Y015817D01*
X034331Y015868D01*
X034375Y015920D01*
X034415Y015975D01*
X034452Y016032D01*
X034486Y016092D01*
X034516Y016153D01*
X034543Y016216D01*
X034566Y016280D01*
D31*
X033637Y015249D02*
X033490Y015249D01*
X033453Y015212D01*
X033453Y015102D01*
X033673Y015102D01*
X033673Y015212D01*
X033637Y015249D01*
X033637Y015028D02*
X033490Y015028D01*
X033453Y014991D01*
X033453Y014881D01*
X033673Y014881D01*
X033673Y014991D01*
X033637Y015028D01*
X033600Y014807D02*
X033453Y014807D01*
X033600Y014807D02*
X033673Y014733D01*
X033600Y014660D01*
X033453Y014660D01*
X032673Y014697D02*
X032673Y014770D01*
X032637Y014807D01*
X032563Y014807D01*
X032563Y014733D01*
X032490Y014660D02*
X032637Y014660D01*
X032673Y014697D01*
X032673Y014881D02*
X032453Y014881D01*
X032673Y015028D01*
X032453Y015028D01*
X032453Y015102D02*
X032453Y015212D01*
X032490Y015249D01*
X032637Y015249D01*
X032673Y015212D01*
X032673Y015102D01*
X032453Y015102D01*
X032490Y014807D02*
X032453Y014770D01*
X032453Y014697D01*
X032490Y014660D01*
X034453Y014733D02*
X034673Y014733D01*
X034673Y014660D02*
X034673Y014807D01*
X034673Y014881D02*
X034673Y014991D01*
X034637Y015028D01*
X034600Y015028D01*
X034563Y014991D01*
X034563Y014881D01*
X034453Y014881D02*
X034453Y014991D01*
X034490Y015028D01*
X034527Y015028D01*
X034563Y014991D01*
X034673Y014881D02*
X034453Y014881D01*
X034453Y014733D02*
X034527Y014660D01*
X035453Y014733D02*
X035673Y014733D01*
X035673Y014660D02*
X035673Y014807D01*
X035673Y014881D02*
X035527Y014881D01*
X035453Y014954D01*
X035527Y015028D01*
X035673Y015028D01*
X035563Y015028D02*
X035563Y014881D01*
X035453Y014733D02*
X035527Y014660D01*
X036453Y014697D02*
X036490Y014660D01*
X036453Y014697D02*
X036453Y014770D01*
X036490Y014807D01*
X036527Y014807D01*
X036673Y014660D01*
X036673Y014807D01*
X036673Y014881D02*
X036527Y014881D01*
X036453Y014954D01*
X036527Y015028D01*
X036673Y015028D01*
X036563Y015028D02*
X036563Y014881D01*
X037453Y014881D02*
X037453Y014991D01*
X037490Y015028D01*
X037527Y015028D01*
X037563Y014991D01*
X037563Y014881D01*
X037527Y014807D02*
X037490Y014807D01*
X037453Y014770D01*
X037453Y014697D01*
X037490Y014660D01*
X037527Y014807D02*
X037673Y014660D01*
X037673Y014807D01*
X037673Y014881D02*
X037673Y014991D01*
X037637Y015028D01*
X037600Y015028D01*
X037563Y014991D01*
X037673Y014881D02*
X037453Y014881D01*
X038453Y014881D02*
X038673Y015028D01*
X038453Y015028D01*
X038453Y015102D02*
X038453Y015212D01*
X038490Y015249D01*
X038637Y015249D01*
X038673Y015212D01*
X038673Y015102D01*
X038453Y015102D01*
X038453Y014881D02*
X038673Y014881D01*
X038637Y014807D02*
X038563Y014807D01*
X038563Y014733D01*
X038490Y014660D02*
X038637Y014660D01*
X038673Y014697D01*
X038673Y014770D01*
X038637Y014807D01*
X038490Y014807D02*
X038453Y014770D01*
X038453Y014697D01*
X038490Y014660D01*
X039453Y014660D02*
X039600Y014660D01*
X039673Y014733D01*
X039600Y014807D01*
X039453Y014807D01*
X039527Y014881D02*
X039527Y014918D01*
X039563Y014954D01*
X039527Y014991D01*
X039563Y015028D01*
X039673Y015028D01*
X039673Y014954D02*
X039563Y014954D01*
X039527Y014881D02*
X039673Y014881D01*
X039637Y015102D02*
X039673Y015139D01*
X039673Y015212D01*
X039637Y015249D01*
X039563Y015249D01*
X039527Y015212D01*
X039527Y015139D01*
X039563Y015102D01*
X039637Y015102D01*
X039527Y015323D02*
X039527Y015396D01*
X039490Y015360D02*
X039637Y015360D01*
X039673Y015396D01*
X038413Y017997D02*
X038193Y017997D01*
X038267Y018070D01*
X038193Y018144D01*
X038413Y018144D01*
X038377Y018218D02*
X038413Y018255D01*
X038413Y018328D01*
X038377Y018365D01*
X038340Y018365D01*
X038303Y018328D01*
X038303Y018255D01*
X038267Y018218D01*
X038230Y018218D01*
X038193Y018255D01*
X038193Y018328D01*
X038230Y018365D01*
X038267Y018439D02*
X038193Y018512D01*
X038413Y018512D01*
X038413Y018439D02*
X038413Y018586D01*
X039193Y018586D02*
X039413Y018586D01*
X039193Y018439D01*
X039413Y018439D01*
X039413Y018365D02*
X039413Y018218D01*
X039193Y018218D01*
X039193Y018365D01*
X039303Y018291D02*
X039303Y018218D01*
X037413Y018255D02*
X037377Y018218D01*
X037413Y018255D02*
X037413Y018328D01*
X037377Y018365D01*
X037340Y018365D01*
X037303Y018328D01*
X037303Y018255D01*
X037267Y018218D01*
X037230Y018218D01*
X037193Y018255D01*
X037193Y018328D01*
X037230Y018365D01*
X037230Y018439D02*
X037193Y018476D01*
X037193Y018549D01*
X037230Y018586D01*
X037267Y018586D01*
X037413Y018439D01*
X037413Y018586D01*
X037413Y018144D02*
X037193Y018144D01*
X037267Y018070D01*
X037193Y017997D01*
X037413Y017997D01*
X036413Y017997D02*
X036193Y017997D01*
X036267Y018070D01*
X036193Y018144D01*
X036413Y018144D01*
X036377Y018218D02*
X036413Y018255D01*
X036413Y018328D01*
X036377Y018365D01*
X036340Y018365D01*
X036303Y018328D01*
X036303Y018255D01*
X036267Y018218D01*
X036230Y018218D01*
X036193Y018255D01*
X036193Y018328D01*
X036230Y018365D01*
X036230Y018439D02*
X036193Y018476D01*
X036193Y018549D01*
X036230Y018586D01*
X036267Y018586D01*
X036303Y018549D01*
X036340Y018586D01*
X036377Y018586D01*
X036413Y018549D01*
X036413Y018476D01*
X036377Y018439D01*
X036303Y018512D02*
X036303Y018549D01*
X035413Y018512D02*
X035193Y018512D01*
X035193Y018439D02*
X035193Y018586D01*
X035230Y018365D02*
X035193Y018328D01*
X035193Y018255D01*
X035230Y018218D01*
X035267Y018218D01*
X035303Y018255D01*
X035303Y018328D01*
X035340Y018365D01*
X035377Y018365D01*
X035413Y018328D01*
X035413Y018255D01*
X035377Y018218D01*
X035413Y018144D02*
X035340Y018070D01*
X035340Y018107D02*
X035340Y017997D01*
X035413Y017997D02*
X035193Y017997D01*
X035193Y018107D01*
X035230Y018144D01*
X035303Y018144D01*
X035340Y018107D01*
X034413Y018107D02*
X034413Y018034D01*
X034377Y017997D01*
X034303Y018034D02*
X034303Y018107D01*
X034340Y018144D01*
X034377Y018144D01*
X034413Y018107D01*
X034413Y018218D02*
X034193Y018218D01*
X034230Y018144D02*
X034193Y018107D01*
X034193Y018034D01*
X034230Y017997D01*
X034267Y017997D01*
X034303Y018034D01*
X034413Y018218D02*
X034413Y018365D01*
X034413Y018439D02*
X034193Y018439D01*
X034193Y018549D01*
X034230Y018586D01*
X034303Y018586D01*
X034340Y018549D01*
X034340Y018439D01*
X033413Y018439D02*
X033193Y018439D01*
X033193Y018549D01*
X033230Y018586D01*
X033303Y018586D01*
X033340Y018549D01*
X033340Y018439D01*
X033413Y018365D02*
X033413Y018218D01*
X033193Y018218D01*
X033193Y018365D01*
X033303Y018291D02*
X033303Y018218D01*
X033193Y018144D02*
X033193Y017997D01*
X033193Y018070D02*
X033413Y018070D01*
X033377Y017923D02*
X033413Y017886D01*
X033413Y017813D01*
X033377Y017776D01*
X033303Y017813D02*
X033267Y017776D01*
X033230Y017776D01*
X033193Y017813D01*
X033193Y017886D01*
X033230Y017923D01*
X033303Y017886D02*
X033340Y017923D01*
X033377Y017923D01*
X033303Y017886D02*
X033303Y017813D01*
X032413Y018071D02*
X032413Y018181D01*
X032377Y018217D01*
X032230Y018217D01*
X032193Y018181D01*
X032193Y018071D01*
X032413Y018071D01*
X032413Y018292D02*
X032413Y018365D01*
X032413Y018328D02*
X032193Y018328D01*
X032193Y018292D02*
X032193Y018365D01*
X032193Y018439D02*
X032193Y018549D01*
X032230Y018586D01*
X032303Y018586D01*
X032340Y018549D01*
X032340Y018439D01*
X032413Y018439D02*
X032193Y018439D01*
X032340Y018512D02*
X032413Y018586D01*
X015333Y016200D02*
X014533Y016200D01*
X014933Y015750D02*
X014933Y014550D01*
X014833Y014850D02*
X014833Y015450D01*
X015033Y015450D01*
X015033Y014850D01*
X014833Y014850D01*
X014533Y014100D02*
X015333Y014100D01*
D32*
X018874Y012386D03*
X018874Y011914D03*
X022492Y016414D03*
X022492Y016886D03*
D33*
X023141Y018151D03*
X023721Y018151D03*
X022221Y021151D03*
X021641Y021151D03*
X023641Y023151D03*
X024221Y023151D03*
X024221Y024651D03*
X023641Y024651D03*
X025141Y026151D03*
X025721Y026151D03*
X026141Y024651D03*
X026721Y024651D03*
X026221Y021151D03*
X025641Y021151D03*
X033141Y020651D03*
X033721Y020651D03*
X021721Y013151D03*
X021141Y013151D03*
X017225Y017649D03*
X016645Y017649D03*
X017641Y018651D03*
X018221Y018651D03*
X015721Y019651D03*
X015141Y019651D03*
D34*
X015278Y011316D02*
X015278Y010895D01*
X015068Y010685D01*
X014857Y010895D01*
X014857Y011316D01*
X014633Y011210D02*
X014528Y011316D01*
X014318Y011316D01*
X014213Y011210D01*
X014633Y011210D02*
X014633Y011105D01*
X014213Y010685D01*
X014633Y010685D01*
X013989Y010685D02*
X013568Y010685D01*
X013779Y010685D02*
X013779Y011316D01*
X013568Y011105D01*
X011598Y010151D02*
X010968Y010151D01*
X010968Y010361D02*
X010968Y009940D01*
X010968Y009716D02*
X011493Y009716D01*
X011598Y009611D01*
X011598Y009401D01*
X011493Y009296D01*
X010968Y009296D01*
X011073Y009072D02*
X010968Y008967D01*
X010968Y008756D01*
X011073Y008651D01*
X011493Y008651D01*
X011598Y008756D01*
X011598Y008967D01*
X011493Y009072D01*
X011073Y009072D01*
X010968Y008427D02*
X011388Y008427D01*
X011598Y008217D01*
X011388Y008007D01*
X010968Y008007D01*
X011073Y007783D02*
X010968Y007678D01*
X010968Y007467D01*
X011073Y007362D01*
X011073Y007783D02*
X011178Y007783D01*
X011598Y007362D01*
X011598Y007783D01*
X011598Y007138D02*
X011598Y006718D01*
X011598Y006928D02*
X010968Y006928D01*
X011178Y006718D01*
X011178Y028151D02*
X010968Y028362D01*
X011598Y028362D01*
X011598Y028572D02*
X011598Y028151D01*
X011493Y028796D02*
X011598Y028901D01*
X011598Y029111D01*
X011493Y029216D01*
X011283Y029216D01*
X011178Y029111D01*
X011178Y029006D01*
X011283Y028796D01*
X010968Y028796D01*
X010968Y029216D01*
X010968Y029440D02*
X011388Y029440D01*
X011598Y029651D01*
X011388Y029861D01*
X010968Y029861D01*
D35*
X025433Y009370D02*
X025433Y009220D01*
X026133Y008950D02*
X026233Y009050D01*
X026373Y008300D02*
X026523Y008300D01*
X027843Y008300D02*
X027993Y008300D01*
X028183Y008950D02*
X028083Y009050D01*
X028933Y009220D02*
X028933Y009370D01*
X029633Y008950D02*
X029733Y009050D01*
X029873Y008300D02*
X030023Y008300D01*
X024683Y008950D02*
X024583Y009050D01*
X024493Y008300D02*
X024343Y008300D01*
X038843Y008300D02*
X038993Y008300D01*
X039183Y008950D02*
X039083Y009050D01*
X039933Y009220D02*
X039933Y009370D01*
X040633Y008950D02*
X040733Y009050D01*
X040873Y008300D02*
X041023Y008300D01*
X039583Y025560D02*
X039583Y025710D01*
X040233Y025950D02*
X040333Y025850D01*
X040503Y026650D02*
X040653Y026650D01*
X040233Y027400D02*
X040333Y027500D01*
X039583Y027590D02*
X039583Y027740D01*
D36*
X022533Y019950D02*
X022533Y019650D01*
X022533Y019350D01*
X022333Y019350D02*
X022333Y019650D01*
X022333Y019950D01*
X021533Y022350D02*
X021533Y022650D01*
X021533Y022950D01*
X021333Y022950D02*
X021333Y022650D01*
X021333Y022350D01*
X017233Y023050D02*
X016933Y023050D01*
X016633Y023050D01*
X016633Y023250D02*
X016933Y023250D01*
X017233Y023250D01*
X016033Y025350D02*
X016033Y025650D01*
X016033Y025950D01*
X015833Y025950D02*
X015833Y025650D01*
X015833Y025350D01*
X010233Y022250D02*
X009933Y022250D01*
X009633Y022250D01*
X009633Y022050D02*
X009933Y022050D01*
X010233Y022050D01*
M02*
