G75*
G70*
%OFA0B0*%
%FSLAX24Y24*%
%IPPOS*%
%LPD*%
%AMOC8*
5,1,8,0,0,1.08239X$1,22.5*
%
%ADD10C,0.0720*%
%ADD11C,0.0720*%
%ADD12R,0.0631X0.0513*%
%ADD13R,0.0513X0.0631*%
%ADD14C,0.0760*%
%ADD15C,0.0714*%
%ADD16C,0.1340*%
%ADD17R,0.0552X0.0552*%
%ADD18R,0.1458X0.0710*%
%ADD19OC8,0.0840*%
%ADD20C,0.0986*%
%ADD21OC8,0.0720*%
%ADD22OC8,0.0674*%
%ADD23C,0.0674*%
%ADD24R,0.0592X0.0671*%
%ADD25R,0.0592X0.0710*%
%ADD26R,0.0671X0.0592*%
%ADD27C,0.0965*%
%ADD28C,0.0820*%
%ADD29C,0.0905*%
%ADD30C,0.0640*%
%ADD31OC8,0.0640*%
%ADD32C,0.0640*%
%ADD33R,0.0552X0.0946*%
%ADD34OC8,0.0710*%
D10*
X007433Y016650D03*
X007433Y017650D03*
X007433Y018650D03*
X007433Y020150D03*
X007433Y021150D03*
X007433Y022150D03*
X020533Y026350D03*
X021533Y026350D03*
X022533Y026350D03*
X028833Y025700D03*
X028883Y026650D03*
X029883Y026650D03*
X029833Y025700D03*
X030833Y025700D03*
X030883Y026650D03*
X031883Y026650D03*
X031833Y025700D03*
X031933Y027650D03*
X030933Y027650D03*
X029933Y027650D03*
X028933Y027650D03*
X035433Y022650D03*
X036433Y022650D03*
X037433Y022650D03*
X037433Y020650D03*
X036433Y020650D03*
X035433Y020650D03*
X036433Y012650D03*
X037433Y012650D03*
X038433Y012650D03*
X039433Y012650D03*
D11*
X025453Y016950D02*
X024813Y016950D01*
X024813Y017950D02*
X025453Y017950D01*
X025453Y018950D02*
X024813Y018950D01*
X019083Y015970D02*
X019083Y015330D01*
X018083Y015330D02*
X018083Y015970D01*
X017083Y015970D02*
X017083Y015330D01*
X017063Y021250D02*
X017703Y021250D01*
X017703Y022250D02*
X017063Y022250D01*
X017063Y023250D02*
X017703Y023250D01*
X014433Y027330D02*
X014433Y027970D01*
X013433Y027970D02*
X013433Y027330D01*
X012433Y027330D02*
X012433Y027970D01*
X023683Y028070D02*
X023683Y027430D01*
X024683Y027430D02*
X024683Y028070D01*
X025683Y028070D02*
X025683Y027430D01*
D12*
X018733Y026144D03*
X018733Y025356D03*
X022383Y021494D03*
X022383Y020706D03*
X032833Y020994D03*
X032833Y020206D03*
X041433Y019044D03*
X041433Y018256D03*
X046433Y022756D03*
X046433Y023544D03*
X046433Y024756D03*
X046433Y025544D03*
X042433Y025544D03*
X042433Y024756D03*
X042433Y028756D03*
X042433Y029544D03*
X013933Y012494D03*
X013933Y011706D03*
X009033Y016356D03*
X009033Y017144D03*
D13*
X012440Y014950D03*
X013227Y014950D03*
X016340Y017250D03*
X017127Y017250D03*
X017340Y018850D03*
X018127Y018850D03*
X015927Y020050D03*
X015140Y020050D03*
X022640Y017400D03*
X023427Y017400D03*
X023727Y013150D03*
X022940Y013150D03*
X032440Y022600D03*
X033227Y022600D03*
X028727Y024250D03*
X027940Y024250D03*
X026527Y023600D03*
X025740Y023600D03*
X024327Y024650D03*
X023540Y024650D03*
X022377Y025350D03*
X021590Y025350D03*
X025340Y026150D03*
X026127Y026150D03*
X037940Y024600D03*
X038727Y024600D03*
D14*
X024933Y015150D03*
X020933Y015150D03*
X020083Y013650D03*
X016083Y013650D03*
D15*
X019933Y010650D03*
X020933Y010650D03*
X021933Y010650D03*
X022933Y010650D03*
X023933Y010650D03*
X024933Y010650D03*
X026933Y010650D03*
X027933Y010650D03*
X028933Y010650D03*
X029933Y010650D03*
X030933Y010650D03*
X031933Y010650D03*
X032933Y010650D03*
X033933Y010650D03*
X035933Y010650D03*
X036933Y010650D03*
X037933Y010650D03*
X038933Y010650D03*
X039933Y010650D03*
X040933Y010650D03*
X041933Y010650D03*
X042933Y010650D03*
X043933Y012650D03*
X043933Y013650D03*
X044933Y013650D03*
X044933Y012650D03*
X044933Y014650D03*
X043933Y014650D03*
X043933Y015650D03*
X043933Y016650D03*
X044933Y016650D03*
X044933Y015650D03*
X044933Y017650D03*
X043933Y017650D03*
X043933Y018650D03*
X043933Y019650D03*
X044933Y019650D03*
X044933Y018650D03*
X044933Y020650D03*
X043933Y020650D03*
X043933Y021650D03*
X044933Y021650D03*
X044933Y022650D03*
X043933Y022650D03*
X043933Y023650D03*
X044933Y023650D03*
X044933Y024650D03*
X043933Y024650D03*
X043933Y025650D03*
X043933Y026650D03*
X044933Y026650D03*
X044933Y025650D03*
X044933Y027650D03*
X043933Y027650D03*
X043933Y028650D03*
X043933Y029650D03*
X044933Y029650D03*
X044933Y028650D03*
X040933Y029650D03*
X039933Y029650D03*
X038933Y029650D03*
X037933Y029650D03*
X036933Y029650D03*
X035933Y029650D03*
X034933Y029650D03*
X033933Y029650D03*
X031933Y029650D03*
X030933Y029650D03*
X029933Y029650D03*
X028933Y029650D03*
X027933Y029650D03*
X026933Y029650D03*
X025933Y029650D03*
X024933Y029650D03*
X023333Y029650D03*
X022333Y029650D03*
X021333Y029650D03*
X020333Y029650D03*
X019333Y029650D03*
X018333Y029650D03*
X017333Y029650D03*
X016333Y029650D03*
D16*
X012933Y029650D03*
X012433Y010650D03*
X044933Y010650D03*
D17*
X020247Y022300D03*
X019420Y022300D03*
X019347Y012150D03*
X018520Y012150D03*
X012797Y008200D03*
X011970Y008200D03*
D18*
X025870Y013150D03*
X027996Y013150D03*
X032370Y016650D03*
X034496Y016650D03*
D19*
X027233Y026900D03*
X021783Y028300D03*
X019433Y027650D03*
D20*
X015133Y018103D02*
X015133Y017197D01*
X015133Y014103D02*
X015133Y013197D01*
D21*
X020043Y007660D03*
X021823Y007660D03*
X036433Y016650D03*
X037433Y016650D03*
X038433Y016650D03*
X038433Y017650D03*
X037433Y017650D03*
X036433Y017650D03*
X046433Y018150D03*
X046433Y009150D03*
X045433Y009150D03*
X044433Y009150D03*
X043433Y009150D03*
X042433Y009150D03*
X042433Y008150D03*
X043433Y008150D03*
X044433Y008150D03*
X045433Y008150D03*
X046433Y008150D03*
D22*
X041933Y013650D03*
X040933Y013650D03*
X040933Y014650D03*
X041933Y014650D03*
X041933Y015650D03*
X040933Y015650D03*
X040933Y016650D03*
X041933Y016650D03*
X040433Y020650D03*
X039433Y020650D03*
X039433Y021650D03*
X040433Y021650D03*
X040433Y022650D03*
X039433Y022650D03*
X039433Y023650D03*
X040433Y023650D03*
D23*
X039433Y019150D03*
X038433Y019150D03*
X037433Y019150D03*
X036433Y019150D03*
X035433Y019150D03*
X034433Y019150D03*
X033433Y019150D03*
X032433Y019150D03*
X032433Y014150D03*
X033433Y014150D03*
X034433Y014150D03*
X035433Y014150D03*
X036433Y014150D03*
X037433Y014150D03*
X038433Y014150D03*
X039433Y014150D03*
D24*
X025318Y021200D03*
X024649Y021200D03*
D25*
X016807Y011150D03*
X016059Y011150D03*
D26*
X011883Y012315D03*
X011883Y012985D03*
D27*
X019553Y008640D03*
X022313Y008640D03*
D28*
X031433Y008150D03*
X032433Y008150D03*
X033933Y008150D03*
X034933Y008150D03*
X036433Y008150D03*
X037433Y008150D03*
X020833Y016600D03*
X020833Y017600D03*
X046433Y020150D03*
X046433Y021150D03*
X046433Y027150D03*
X046433Y028150D03*
D29*
X010346Y008150D02*
X009521Y008150D01*
X009521Y010150D02*
X010346Y010150D01*
X010346Y012150D02*
X009521Y012150D01*
X009521Y014150D02*
X010346Y014150D01*
X014933Y010063D02*
X014933Y009238D01*
X016933Y009238D02*
X016933Y010063D01*
X010346Y025250D02*
X009521Y025250D01*
X009521Y027250D02*
X010346Y027250D01*
X010346Y029250D02*
X009521Y029250D01*
D30*
X033153Y027150D02*
X033713Y027150D01*
X033713Y026150D02*
X033153Y026150D01*
X033153Y025150D02*
X033713Y025150D01*
X033713Y024150D02*
X033153Y024150D01*
X036153Y024150D02*
X036713Y024150D01*
X036713Y025150D02*
X036153Y025150D01*
X036153Y026150D02*
X036713Y026150D01*
X036713Y027150D02*
X036153Y027150D01*
D31*
X039433Y027650D03*
X040433Y026650D03*
X039433Y025650D03*
X039933Y009150D03*
X038933Y008150D03*
X040933Y008150D03*
X029933Y008150D03*
X028933Y009150D03*
X027933Y008150D03*
X026433Y008150D03*
X025433Y009150D03*
X024433Y008150D03*
D32*
X027933Y015650D03*
X028933Y015650D03*
X029933Y015650D03*
X030933Y015650D03*
X030933Y018650D03*
X029933Y018650D03*
X028933Y018650D03*
X027933Y018650D03*
X027933Y019650D03*
X028933Y019650D03*
X029933Y019650D03*
X030933Y019650D03*
X030933Y022650D03*
X029933Y022650D03*
X028933Y022650D03*
X027933Y022650D03*
D33*
X013433Y019246D03*
X012433Y019246D03*
X011433Y019246D03*
X010433Y019246D03*
X009983Y020354D03*
X010983Y020354D03*
X011983Y020354D03*
X012983Y020354D03*
X012983Y023346D03*
X011983Y023346D03*
X010983Y023346D03*
X009983Y023346D03*
X010433Y016254D03*
X011433Y016254D03*
X012433Y016254D03*
X013433Y016254D03*
D34*
X020033Y019950D03*
X021033Y019950D03*
X020533Y023850D03*
X019533Y023850D03*
X016733Y025300D03*
X016733Y026300D03*
X014683Y026150D03*
X013683Y026150D03*
X014233Y022550D03*
X014233Y021550D03*
M02*
