G75*
G70*
%OFA0B0*%
%FSLAX24Y24*%
%IPPOS*%
%LPD*%
%AMOC8*
5,1,8,0,0,1.08239X$1,22.5*
%
%ADD10C,0.0060*%
%ADD11C,0.0100*%
%ADD12C,0.0080*%
D10*
X027721Y016787D02*
X027828Y016680D01*
X028041Y016680D01*
X028148Y016787D01*
X027721Y017214D01*
X027721Y016787D01*
X027721Y017214D02*
X027828Y017321D01*
X028041Y017321D01*
X028148Y017214D01*
X028148Y016787D01*
X028363Y016787D02*
X028363Y016680D01*
X028470Y016680D01*
X028470Y016787D01*
X028363Y016787D01*
X028688Y016680D02*
X029115Y016680D01*
X028901Y016680D02*
X028901Y017321D01*
X029115Y017107D01*
X029977Y017107D02*
X030297Y017107D01*
X030404Y017000D01*
X030297Y016894D01*
X030084Y016894D01*
X029977Y016787D01*
X030084Y016680D01*
X030404Y016680D01*
X030621Y016787D02*
X030728Y016680D01*
X031048Y016680D01*
X031048Y016466D02*
X031048Y017107D01*
X030728Y017107D01*
X030621Y017000D01*
X030621Y016787D01*
X031266Y016680D02*
X031266Y017000D01*
X031373Y017107D01*
X031479Y017000D01*
X031479Y016680D01*
X031693Y016680D02*
X031693Y017107D01*
X031586Y017107D01*
X031479Y017000D01*
X031910Y017000D02*
X031910Y016680D01*
X032231Y016680D01*
X032337Y016787D01*
X032231Y016894D01*
X031910Y016894D01*
X031910Y017000D02*
X032017Y017107D01*
X032231Y017107D01*
X032982Y017321D02*
X032982Y016680D01*
X032555Y016680D01*
X033844Y017000D02*
X034271Y017000D01*
X035133Y016787D02*
X035240Y016680D01*
X035453Y016680D01*
X035560Y016787D01*
X035560Y017214D01*
X035453Y017321D01*
X035240Y017321D01*
X035133Y017214D01*
X035778Y016680D02*
X036205Y016680D01*
X036205Y017321D01*
X036849Y017321D02*
X036849Y016680D01*
X036422Y016680D01*
X037710Y016680D02*
X037817Y016787D01*
X037817Y017214D01*
X037924Y017107D02*
X037710Y017107D01*
X038140Y017000D02*
X038353Y017000D01*
X038571Y017000D02*
X038678Y017107D01*
X038891Y017107D01*
X038998Y017000D01*
X038998Y016787D01*
X038891Y016680D01*
X038678Y016680D01*
X038571Y016787D01*
X038571Y017000D01*
X038247Y017214D02*
X038247Y016680D01*
X038247Y017214D02*
X038140Y017321D01*
X039215Y017107D02*
X039536Y017107D01*
X039642Y017000D01*
X039536Y016894D01*
X039322Y016894D01*
X039215Y016787D01*
X039322Y016680D01*
X039642Y016680D01*
X039860Y016680D02*
X039860Y017000D01*
X039967Y017107D01*
X040287Y017107D01*
X040287Y016680D01*
X040503Y016680D02*
X040717Y016680D01*
X040610Y016680D02*
X040610Y017107D01*
X040717Y017107D01*
X040933Y017107D02*
X041254Y016894D01*
X040933Y016680D01*
X041254Y016680D02*
X041254Y017321D01*
X041471Y017107D02*
X041471Y016787D01*
X041578Y016680D01*
X041685Y016787D01*
X041792Y016680D01*
X041898Y016787D01*
X041898Y017107D01*
X042116Y017000D02*
X042116Y016680D01*
X042436Y016680D01*
X042543Y016787D01*
X042436Y016894D01*
X042116Y016894D01*
X042116Y017000D02*
X042223Y017107D01*
X042436Y017107D01*
X042760Y017000D02*
X043187Y017000D01*
X043187Y016680D02*
X043187Y017321D01*
X042760Y017321D02*
X042760Y016680D01*
X044049Y016680D02*
X044477Y016680D01*
X044049Y017107D01*
X044049Y017214D01*
X044156Y017321D01*
X044370Y017321D01*
X044477Y017214D01*
X044908Y017321D02*
X044908Y016680D01*
X045121Y016680D02*
X044694Y016680D01*
X045339Y016787D02*
X045445Y016680D01*
X045659Y016680D01*
X045766Y016787D01*
X045339Y017214D01*
X045339Y016787D01*
X045121Y017107D02*
X044908Y017321D01*
X045339Y017214D02*
X045445Y017321D01*
X045659Y017321D01*
X045766Y017214D01*
X045766Y016787D01*
X045983Y016680D02*
X046410Y016680D01*
X045983Y017107D01*
X045983Y017214D01*
X046090Y017321D01*
X046303Y017321D01*
X046410Y017214D01*
X047272Y017214D02*
X047379Y017321D01*
X047593Y017321D01*
X047699Y017214D01*
X047699Y016787D01*
X047593Y016680D01*
X047379Y016680D01*
X047272Y016787D01*
X042813Y020390D02*
X041993Y021620D01*
X042563Y022970D01*
X044013Y023240D01*
X043993Y024510D01*
X042513Y024790D01*
X041933Y026100D01*
X042813Y027350D01*
X041933Y028230D01*
X040643Y027360D01*
X039383Y027870D01*
X039093Y029420D01*
X037803Y029410D01*
X037523Y027890D01*
X036283Y027360D01*
X034973Y028230D01*
X034083Y027340D01*
X034963Y026040D01*
X034443Y024920D01*
X034403Y024770D01*
X032923Y024500D01*
X032913Y023230D01*
X034383Y022960D01*
X034903Y021590D01*
X034083Y020380D01*
X034973Y019490D01*
X036193Y020340D01*
X036703Y020020D01*
X037623Y022260D01*
X037053Y022680D01*
X036673Y023510D01*
X036753Y024410D01*
X037343Y025230D01*
X037353Y025220D01*
X038143Y025570D01*
X038743Y025580D01*
X038743Y025560D01*
X039533Y025210D01*
X040103Y024490D01*
X040223Y023560D01*
X039893Y022750D01*
X039323Y022250D01*
X040233Y020030D01*
X040233Y020030D01*
X040743Y020320D01*
X041933Y019490D01*
X042813Y020390D01*
X042805Y020381D02*
X040089Y020381D01*
X040065Y020440D02*
X042780Y020440D01*
X042741Y020498D02*
X040041Y020498D01*
X040017Y020557D02*
X042702Y020557D01*
X042663Y020615D02*
X039994Y020615D01*
X039970Y020674D02*
X042624Y020674D01*
X042585Y020732D02*
X039946Y020732D01*
X039922Y020791D02*
X042546Y020791D01*
X042507Y020849D02*
X039898Y020849D01*
X039874Y020908D02*
X042468Y020908D01*
X042429Y020966D02*
X039850Y020966D01*
X039826Y021025D02*
X042390Y021025D01*
X042351Y021083D02*
X039802Y021083D01*
X039778Y021142D02*
X042312Y021142D01*
X042273Y021200D02*
X039754Y021200D01*
X039730Y021259D02*
X042234Y021259D01*
X042195Y021317D02*
X039706Y021317D01*
X039682Y021376D02*
X042156Y021376D01*
X042117Y021434D02*
X039658Y021434D01*
X039634Y021493D02*
X042078Y021493D01*
X042039Y021551D02*
X039610Y021551D01*
X039586Y021610D02*
X042000Y021610D01*
X042014Y021668D02*
X039562Y021668D01*
X039538Y021727D02*
X042038Y021727D01*
X042063Y021785D02*
X039514Y021785D01*
X039490Y021844D02*
X042088Y021844D01*
X042112Y021902D02*
X039466Y021902D01*
X039442Y021961D02*
X042137Y021961D01*
X042162Y022019D02*
X039418Y022019D01*
X039394Y022078D02*
X042187Y022078D01*
X042211Y022136D02*
X039370Y022136D01*
X039346Y022195D02*
X042236Y022195D01*
X042261Y022253D02*
X039327Y022253D01*
X039394Y022312D02*
X042285Y022312D01*
X042310Y022370D02*
X039460Y022370D01*
X039527Y022429D02*
X042335Y022429D01*
X042359Y022487D02*
X039594Y022487D01*
X039660Y022546D02*
X042384Y022546D01*
X042409Y022604D02*
X039727Y022604D01*
X039794Y022663D02*
X042434Y022663D01*
X042458Y022721D02*
X039860Y022721D01*
X039905Y022780D02*
X042483Y022780D01*
X042508Y022838D02*
X039929Y022838D01*
X039953Y022897D02*
X042532Y022897D01*
X042557Y022955D02*
X039977Y022955D01*
X040001Y023014D02*
X042797Y023014D01*
X043112Y023072D02*
X040025Y023072D01*
X040048Y023131D02*
X043426Y023131D01*
X043740Y023189D02*
X040072Y023189D01*
X040096Y023248D02*
X044013Y023248D01*
X044012Y023306D02*
X040120Y023306D01*
X040144Y023365D02*
X044011Y023365D01*
X044010Y023423D02*
X040168Y023423D01*
X040191Y023482D02*
X044010Y023482D01*
X044009Y023540D02*
X040215Y023540D01*
X040218Y023599D02*
X044008Y023599D01*
X044007Y023657D02*
X040211Y023657D01*
X040203Y023716D02*
X044006Y023716D01*
X044005Y023774D02*
X040196Y023774D01*
X040188Y023833D02*
X044004Y023833D01*
X044003Y023891D02*
X040181Y023891D01*
X040173Y023950D02*
X044002Y023950D01*
X044001Y024008D02*
X040166Y024008D01*
X040158Y024067D02*
X044000Y024067D01*
X043999Y024125D02*
X040150Y024125D01*
X040143Y024184D02*
X043998Y024184D01*
X043998Y024242D02*
X040135Y024242D01*
X040128Y024301D02*
X043997Y024301D01*
X043996Y024359D02*
X040120Y024359D01*
X040113Y024418D02*
X043995Y024418D01*
X043994Y024476D02*
X040105Y024476D01*
X040068Y024535D02*
X043863Y024535D01*
X043554Y024593D02*
X040022Y024593D01*
X039975Y024652D02*
X043245Y024652D01*
X042936Y024710D02*
X039929Y024710D01*
X039883Y024769D02*
X042627Y024769D01*
X042497Y024827D02*
X039836Y024827D01*
X039790Y024886D02*
X042471Y024886D01*
X042445Y024944D02*
X039744Y024944D01*
X039698Y025003D02*
X042419Y025003D01*
X042393Y025061D02*
X039651Y025061D01*
X039605Y025120D02*
X042367Y025120D01*
X042342Y025178D02*
X039559Y025178D01*
X039473Y025237D02*
X042316Y025237D01*
X042290Y025295D02*
X039341Y025295D01*
X039209Y025354D02*
X042264Y025354D01*
X042238Y025412D02*
X039077Y025412D01*
X038945Y025471D02*
X042212Y025471D01*
X042186Y025529D02*
X038813Y025529D01*
X038051Y025529D02*
X034726Y025529D01*
X034699Y025471D02*
X037919Y025471D01*
X037787Y025412D02*
X034672Y025412D01*
X034645Y025354D02*
X037655Y025354D01*
X037523Y025295D02*
X034617Y025295D01*
X034590Y025237D02*
X037391Y025237D01*
X037306Y025178D02*
X034563Y025178D01*
X034536Y025120D02*
X037264Y025120D01*
X037222Y025061D02*
X034509Y025061D01*
X034482Y025003D02*
X037180Y025003D01*
X037138Y024944D02*
X034455Y024944D01*
X034434Y024886D02*
X037096Y024886D01*
X037053Y024827D02*
X034419Y024827D01*
X034396Y024769D02*
X037011Y024769D01*
X036969Y024710D02*
X034075Y024710D01*
X033754Y024652D02*
X036927Y024652D01*
X036885Y024593D02*
X033434Y024593D01*
X033113Y024535D02*
X036843Y024535D01*
X036801Y024476D02*
X032923Y024476D01*
X032923Y024418D02*
X036759Y024418D01*
X036749Y024359D02*
X032922Y024359D01*
X032922Y024301D02*
X036744Y024301D01*
X036738Y024242D02*
X032921Y024242D01*
X032921Y024184D02*
X036733Y024184D01*
X036728Y024125D02*
X032920Y024125D01*
X032920Y024067D02*
X036723Y024067D01*
X036718Y024008D02*
X032919Y024008D01*
X032919Y023950D02*
X036712Y023950D01*
X036707Y023891D02*
X032919Y023891D01*
X032918Y023833D02*
X036702Y023833D01*
X036697Y023774D02*
X032918Y023774D01*
X032917Y023716D02*
X036692Y023716D01*
X036686Y023657D02*
X032917Y023657D01*
X032916Y023599D02*
X036681Y023599D01*
X036676Y023540D02*
X032916Y023540D01*
X032915Y023482D02*
X036686Y023482D01*
X036713Y023423D02*
X032915Y023423D01*
X032914Y023365D02*
X036740Y023365D01*
X036767Y023306D02*
X032914Y023306D01*
X032913Y023248D02*
X036793Y023248D01*
X036820Y023189D02*
X033136Y023189D01*
X033455Y023131D02*
X036847Y023131D01*
X036874Y023072D02*
X033773Y023072D01*
X034092Y023014D02*
X036901Y023014D01*
X036927Y022955D02*
X034385Y022955D01*
X034407Y022897D02*
X036954Y022897D01*
X036981Y022838D02*
X034430Y022838D01*
X034452Y022780D02*
X037008Y022780D01*
X037035Y022721D02*
X034474Y022721D01*
X034496Y022663D02*
X037077Y022663D01*
X037156Y022604D02*
X034518Y022604D01*
X034541Y022546D02*
X037236Y022546D01*
X037315Y022487D02*
X034563Y022487D01*
X034585Y022429D02*
X037395Y022429D01*
X037474Y022370D02*
X034607Y022370D01*
X034629Y022312D02*
X037553Y022312D01*
X037620Y022253D02*
X034652Y022253D01*
X034674Y022195D02*
X037596Y022195D01*
X037572Y022136D02*
X034696Y022136D01*
X034718Y022078D02*
X037548Y022078D01*
X037524Y022019D02*
X034740Y022019D01*
X034763Y021961D02*
X037500Y021961D01*
X037476Y021902D02*
X034785Y021902D01*
X034807Y021844D02*
X037452Y021844D01*
X037428Y021785D02*
X034829Y021785D01*
X034851Y021727D02*
X037404Y021727D01*
X037380Y021668D02*
X034874Y021668D01*
X034896Y021610D02*
X037356Y021610D01*
X037332Y021551D02*
X034877Y021551D01*
X034837Y021493D02*
X037308Y021493D01*
X037284Y021434D02*
X034798Y021434D01*
X034758Y021376D02*
X037260Y021376D01*
X037236Y021317D02*
X034718Y021317D01*
X034679Y021259D02*
X037212Y021259D01*
X037188Y021200D02*
X034639Y021200D01*
X034599Y021142D02*
X037164Y021142D01*
X037140Y021083D02*
X034560Y021083D01*
X034520Y021025D02*
X037116Y021025D01*
X037092Y020966D02*
X034481Y020966D01*
X034441Y020908D02*
X037068Y020908D01*
X037044Y020849D02*
X034401Y020849D01*
X034362Y020791D02*
X037020Y020791D01*
X036996Y020732D02*
X034322Y020732D01*
X034282Y020674D02*
X036972Y020674D01*
X036948Y020615D02*
X034243Y020615D01*
X034203Y020557D02*
X036924Y020557D01*
X036900Y020498D02*
X034163Y020498D01*
X034124Y020440D02*
X036876Y020440D01*
X036852Y020381D02*
X034084Y020381D01*
X034141Y020323D02*
X036168Y020323D01*
X036221Y020323D02*
X036828Y020323D01*
X036804Y020264D02*
X036314Y020264D01*
X036408Y020206D02*
X036780Y020206D01*
X036756Y020147D02*
X036501Y020147D01*
X036594Y020089D02*
X036731Y020089D01*
X036707Y020030D02*
X036687Y020030D01*
X036084Y020264D02*
X034199Y020264D01*
X034258Y020206D02*
X036000Y020206D01*
X035916Y020147D02*
X034316Y020147D01*
X034375Y020089D02*
X035832Y020089D01*
X035748Y020030D02*
X034433Y020030D01*
X034492Y019972D02*
X035665Y019972D01*
X035581Y019913D02*
X034550Y019913D01*
X034609Y019855D02*
X035497Y019855D01*
X035413Y019796D02*
X034667Y019796D01*
X034726Y019738D02*
X035329Y019738D01*
X035245Y019679D02*
X034784Y019679D01*
X034843Y019621D02*
X035161Y019621D01*
X035077Y019562D02*
X034901Y019562D01*
X034960Y019504D02*
X034993Y019504D01*
X040113Y020323D02*
X042747Y020323D01*
X042690Y020264D02*
X040824Y020264D01*
X040907Y020206D02*
X042633Y020206D01*
X042576Y020147D02*
X040991Y020147D01*
X041075Y020089D02*
X042519Y020089D01*
X042461Y020030D02*
X041159Y020030D01*
X041243Y019972D02*
X042404Y019972D01*
X042347Y019913D02*
X041327Y019913D01*
X041411Y019855D02*
X042290Y019855D01*
X042233Y019796D02*
X041495Y019796D01*
X041578Y019738D02*
X042175Y019738D01*
X042118Y019679D02*
X041662Y019679D01*
X041746Y019621D02*
X042061Y019621D01*
X042004Y019562D02*
X041830Y019562D01*
X041914Y019504D02*
X041947Y019504D01*
X040645Y020264D02*
X040137Y020264D01*
X040161Y020206D02*
X040542Y020206D01*
X040439Y020147D02*
X040185Y020147D01*
X040209Y020089D02*
X040336Y020089D01*
X040610Y017427D02*
X040610Y017321D01*
X042160Y025588D02*
X034753Y025588D01*
X034780Y025646D02*
X042134Y025646D01*
X042108Y025705D02*
X034808Y025705D01*
X034835Y025763D02*
X042082Y025763D01*
X042057Y025822D02*
X034862Y025822D01*
X034889Y025880D02*
X042031Y025880D01*
X042005Y025939D02*
X034916Y025939D01*
X034943Y025997D02*
X041979Y025997D01*
X041953Y026056D02*
X034953Y026056D01*
X034913Y026114D02*
X041943Y026114D01*
X041984Y026173D02*
X034874Y026173D01*
X034834Y026231D02*
X042026Y026231D01*
X042067Y026290D02*
X034794Y026290D01*
X034755Y026348D02*
X042108Y026348D01*
X042149Y026407D02*
X034715Y026407D01*
X034676Y026465D02*
X042190Y026465D01*
X042232Y026524D02*
X034636Y026524D01*
X034596Y026582D02*
X042273Y026582D01*
X042314Y026641D02*
X034557Y026641D01*
X034517Y026699D02*
X042355Y026699D01*
X042396Y026758D02*
X034478Y026758D01*
X034438Y026816D02*
X042437Y026816D01*
X042479Y026875D02*
X034398Y026875D01*
X034359Y026933D02*
X042520Y026933D01*
X042561Y026992D02*
X034319Y026992D01*
X034280Y027050D02*
X042602Y027050D01*
X042643Y027109D02*
X034240Y027109D01*
X034200Y027167D02*
X042685Y027167D01*
X042726Y027226D02*
X034161Y027226D01*
X034121Y027284D02*
X042767Y027284D01*
X042808Y027343D02*
X034086Y027343D01*
X034144Y027401D02*
X036221Y027401D01*
X036133Y027460D02*
X034203Y027460D01*
X034261Y027518D02*
X036045Y027518D01*
X035957Y027577D02*
X034320Y027577D01*
X034378Y027635D02*
X035869Y027635D01*
X035781Y027694D02*
X034437Y027694D01*
X034495Y027752D02*
X035693Y027752D01*
X035605Y027811D02*
X034554Y027811D01*
X034612Y027869D02*
X035517Y027869D01*
X035429Y027928D02*
X034671Y027928D01*
X034729Y027986D02*
X035341Y027986D01*
X035252Y028045D02*
X034788Y028045D01*
X034846Y028103D02*
X035164Y028103D01*
X035076Y028162D02*
X034905Y028162D01*
X034963Y028220D02*
X034988Y028220D01*
X036379Y027401D02*
X040542Y027401D01*
X040397Y027460D02*
X036516Y027460D01*
X036653Y027518D02*
X040253Y027518D01*
X040108Y027577D02*
X036790Y027577D01*
X036927Y027635D02*
X039964Y027635D01*
X039819Y027694D02*
X037064Y027694D01*
X037201Y027752D02*
X039675Y027752D01*
X039530Y027811D02*
X037338Y027811D01*
X037474Y027869D02*
X039386Y027869D01*
X039373Y027928D02*
X037530Y027928D01*
X037541Y027986D02*
X039362Y027986D01*
X039351Y028045D02*
X037552Y028045D01*
X037563Y028103D02*
X039340Y028103D01*
X039329Y028162D02*
X037573Y028162D01*
X037584Y028220D02*
X039318Y028220D01*
X039307Y028279D02*
X037595Y028279D01*
X037606Y028337D02*
X039296Y028337D01*
X039285Y028396D02*
X037616Y028396D01*
X037627Y028454D02*
X039274Y028454D01*
X039263Y028513D02*
X037638Y028513D01*
X037649Y028571D02*
X039252Y028571D01*
X039241Y028630D02*
X037660Y028630D01*
X037670Y028688D02*
X039230Y028688D01*
X039219Y028747D02*
X037681Y028747D01*
X037692Y028805D02*
X039208Y028805D01*
X039197Y028864D02*
X037703Y028864D01*
X037713Y028922D02*
X039186Y028922D01*
X039176Y028981D02*
X037724Y028981D01*
X037735Y029039D02*
X039165Y029039D01*
X039154Y029098D02*
X037746Y029098D01*
X037757Y029156D02*
X039143Y029156D01*
X039132Y029215D02*
X037767Y029215D01*
X037778Y029273D02*
X039121Y029273D01*
X039110Y029332D02*
X037789Y029332D01*
X037800Y029390D02*
X039099Y029390D01*
X041398Y027869D02*
X042294Y027869D01*
X042236Y027928D02*
X041485Y027928D01*
X041572Y027986D02*
X042177Y027986D01*
X042119Y028045D02*
X041658Y028045D01*
X041745Y028103D02*
X042060Y028103D01*
X042002Y028162D02*
X041832Y028162D01*
X041919Y028220D02*
X041943Y028220D01*
X042353Y027811D02*
X041311Y027811D01*
X041225Y027752D02*
X042411Y027752D01*
X042470Y027694D02*
X041138Y027694D01*
X041051Y027635D02*
X042528Y027635D01*
X042587Y027577D02*
X040965Y027577D01*
X040878Y027518D02*
X042645Y027518D01*
X042704Y027460D02*
X040791Y027460D01*
X040704Y027401D02*
X042762Y027401D01*
D11*
X045933Y009650D02*
X006933Y009650D01*
X006933Y022107D01*
X005831Y022107D01*
X005831Y026910D01*
X006933Y026910D01*
X006933Y030650D01*
X045433Y030650D01*
X045933Y030150D01*
X045933Y025650D01*
X046933Y024650D01*
X046933Y011150D01*
X045933Y010150D01*
X045933Y009650D01*
X006894Y011280D02*
X005878Y011280D01*
X005878Y014823D01*
X006894Y014823D01*
X006933Y022107D02*
X006933Y026910D01*
D12*
X032883Y024520D02*
X032883Y023210D01*
X034373Y022930D01*
X034893Y021620D02*
X034053Y020380D01*
X034973Y019460D01*
X036183Y020290D01*
X036703Y019990D01*
X037653Y022270D01*
X039263Y022270D02*
X040213Y019980D01*
X040733Y020280D01*
X041933Y019460D01*
X042853Y020380D01*
X042013Y021620D01*
X042533Y022930D02*
X044023Y023210D01*
X044023Y024520D01*
X042503Y024800D01*
X041963Y026040D02*
X042853Y027340D01*
X041933Y028260D01*
X040623Y027370D01*
X039403Y027860D02*
X039103Y029440D01*
X037803Y029440D01*
X037513Y027870D01*
X036293Y027370D02*
X034973Y028260D01*
X034053Y027340D01*
X034933Y026050D01*
X034393Y024800D02*
X032883Y024520D01*
X034393Y024800D02*
X034444Y024989D01*
X034504Y025175D01*
X034573Y025357D01*
X034651Y025537D01*
X034737Y025712D01*
X034831Y025884D01*
X034933Y026050D01*
X036294Y027370D02*
X036457Y027465D01*
X036625Y027552D01*
X036797Y027631D01*
X036972Y027703D01*
X037150Y027767D01*
X037331Y027822D01*
X037514Y027870D01*
X037654Y022260D02*
X037580Y022301D01*
X037507Y022345D01*
X037438Y022393D01*
X037370Y022444D01*
X037305Y022498D01*
X037243Y022555D01*
X037184Y022616D01*
X037128Y022679D01*
X037075Y022744D01*
X037025Y022813D01*
X036978Y022883D01*
X036935Y022956D01*
X036896Y023031D01*
X036860Y023108D01*
X036828Y023186D01*
X036800Y023266D01*
X036776Y023347D01*
X036756Y023429D01*
X036740Y023512D01*
X036728Y023595D01*
X036720Y023679D01*
X036716Y023764D01*
X036717Y023848D01*
X036721Y023933D01*
X036730Y024017D01*
X036742Y024101D01*
X036759Y024183D01*
X036780Y024265D01*
X036804Y024346D01*
X036833Y024426D01*
X036865Y024504D01*
X036902Y024580D01*
X036941Y024655D01*
X036985Y024727D01*
X037032Y024798D01*
X037082Y024865D01*
X037136Y024931D01*
X037192Y024994D01*
X037252Y025053D01*
X037315Y025110D01*
X037380Y025164D01*
X037448Y025214D01*
X037518Y025262D01*
X037590Y025305D01*
X037665Y025345D01*
X037741Y025382D01*
X037819Y025414D01*
X037898Y025443D01*
X037979Y025468D01*
X038061Y025489D01*
X038144Y025506D01*
X038227Y025519D01*
X038312Y025528D01*
X038396Y025532D01*
X038481Y025533D01*
X038565Y025529D01*
X038649Y025521D01*
X038733Y025510D01*
X038816Y025494D01*
X038898Y025474D01*
X038979Y025450D01*
X039059Y025422D01*
X039137Y025390D01*
X039214Y025355D01*
X039289Y025316D01*
X039362Y025273D01*
X039433Y025227D01*
X039501Y025177D01*
X039567Y025124D01*
X039630Y025068D01*
X039691Y025009D01*
X039748Y024947D01*
X039802Y024882D01*
X039854Y024815D01*
X039901Y024745D01*
X039946Y024673D01*
X039987Y024599D01*
X040024Y024523D01*
X040057Y024446D01*
X040087Y024367D01*
X040112Y024286D01*
X040134Y024204D01*
X040152Y024122D01*
X040166Y024038D01*
X040175Y023954D01*
X040181Y023870D01*
X040182Y023785D01*
X040179Y023701D01*
X040172Y023617D01*
X040161Y023533D01*
X040146Y023450D01*
X040127Y023367D01*
X040104Y023286D01*
X040077Y023206D01*
X040046Y023127D01*
X040011Y023050D01*
X039973Y022975D01*
X039931Y022902D01*
X039885Y022830D01*
X039836Y022762D01*
X039784Y022695D01*
X039729Y022631D01*
X039670Y022570D01*
X039609Y022512D01*
X039545Y022457D01*
X039478Y022405D01*
X039409Y022357D01*
X039337Y022312D01*
X039263Y022270D01*
X040623Y027370D02*
X040459Y027463D01*
X040291Y027549D01*
X040120Y027627D01*
X039945Y027697D01*
X039767Y027759D01*
X039586Y027814D01*
X039403Y027860D01*
X034373Y022930D02*
X034420Y022733D01*
X034476Y022539D01*
X034542Y022347D01*
X034616Y022159D01*
X034700Y021975D01*
X034792Y021795D01*
X034893Y021620D01*
X042013Y021620D02*
X042114Y021795D01*
X042206Y021975D01*
X042290Y022159D01*
X042365Y022347D01*
X042430Y022539D01*
X042486Y022733D01*
X042533Y022930D01*
X042503Y024800D02*
X042452Y024987D01*
X042391Y025172D01*
X042322Y025353D01*
X042245Y025531D01*
X042159Y025705D01*
X042065Y025875D01*
X041963Y026040D01*
M02*
