G75*
G70*
%OFA0B0*%
%FSLAX24Y24*%
%IPPOS*%
%LPD*%
%AMOC8*
5,1,8,0,0,1.08239X$1,22.5*
%
%ADD10C,0.0512*%
%ADD11C,0.0640*%
%ADD12C,0.0640*%
%ADD13C,0.0680*%
%ADD14C,0.0634*%
%ADD15OC8,0.0760*%
%ADD16C,0.0906*%
%ADD17OC8,0.0640*%
%ADD18OC8,0.0594*%
%ADD19C,0.0594*%
%ADD20C,0.0885*%
%ADD21C,0.0740*%
%ADD22C,0.0825*%
%ADD23C,0.0560*%
%ADD24OC8,0.0560*%
%ADD25C,0.0560*%
%ADD26OC8,0.0630*%
%ADD27C,0.0160*%
%ADD28C,0.0070*%
%ADD29C,0.0290*%
%ADD30C,0.0400*%
D10*
X044539Y010650D02*
X044541Y010689D01*
X044547Y010728D01*
X044557Y010766D01*
X044570Y010803D01*
X044587Y010838D01*
X044607Y010872D01*
X044631Y010903D01*
X044658Y010932D01*
X044687Y010958D01*
X044719Y010981D01*
X044753Y011001D01*
X044789Y011017D01*
X044826Y011029D01*
X044865Y011038D01*
X044904Y011043D01*
X044943Y011044D01*
X044982Y011041D01*
X045021Y011034D01*
X045058Y011023D01*
X045095Y011009D01*
X045130Y010991D01*
X045163Y010970D01*
X045194Y010945D01*
X045222Y010918D01*
X045247Y010888D01*
X045269Y010855D01*
X045288Y010821D01*
X045303Y010785D01*
X045315Y010747D01*
X045323Y010709D01*
X045327Y010670D01*
X045327Y010630D01*
X045323Y010591D01*
X045315Y010553D01*
X045303Y010515D01*
X045288Y010479D01*
X045269Y010445D01*
X045247Y010412D01*
X045222Y010382D01*
X045194Y010355D01*
X045163Y010330D01*
X045130Y010309D01*
X045095Y010291D01*
X045058Y010277D01*
X045021Y010266D01*
X044982Y010259D01*
X044943Y010256D01*
X044904Y010257D01*
X044865Y010262D01*
X044826Y010271D01*
X044789Y010283D01*
X044753Y010299D01*
X044719Y010319D01*
X044687Y010342D01*
X044658Y010368D01*
X044631Y010397D01*
X044607Y010428D01*
X044587Y010462D01*
X044570Y010497D01*
X044557Y010534D01*
X044547Y010572D01*
X044541Y010611D01*
X044539Y010650D01*
D11*
X039433Y012650D03*
X038433Y012650D03*
X037433Y012650D03*
X036433Y012650D03*
X036433Y020650D03*
X035433Y020650D03*
X037433Y020650D03*
X037433Y022650D03*
X036433Y022650D03*
X035433Y022650D03*
X031933Y023650D03*
X030933Y023650D03*
X029933Y023650D03*
X028933Y023650D03*
X028933Y025650D03*
X029933Y025650D03*
X030933Y025650D03*
X031933Y025650D03*
X031933Y027650D03*
X030933Y027650D03*
X029933Y027650D03*
X028933Y027650D03*
X022433Y025150D03*
X021433Y025150D03*
X020433Y025150D03*
X007433Y022150D03*
X007433Y021150D03*
X007433Y020150D03*
X007433Y018650D03*
X007433Y017650D03*
X007433Y016650D03*
D12*
X017433Y013970D02*
X017433Y013330D01*
X018433Y013330D02*
X018433Y013970D01*
X019433Y013970D02*
X019433Y013330D01*
X025113Y017150D02*
X025753Y017150D01*
X025753Y018150D02*
X025113Y018150D01*
X025113Y019150D02*
X025753Y019150D01*
X019933Y020330D02*
X019933Y020970D01*
X018933Y020970D02*
X018933Y020330D01*
X017933Y020330D02*
X017933Y020970D01*
X014433Y027330D02*
X014433Y027970D01*
X013433Y027970D02*
X013433Y027330D01*
X012433Y027330D02*
X012433Y027970D01*
X024933Y027970D02*
X024933Y027330D01*
X025933Y027330D02*
X025933Y027970D01*
X026933Y027970D02*
X026933Y027330D01*
D13*
X020433Y016150D03*
X020933Y015150D03*
X024933Y015150D03*
X016433Y016150D03*
D14*
X019933Y010650D03*
X020933Y010650D03*
X021933Y010650D03*
X022933Y010650D03*
X023933Y010650D03*
X024933Y010650D03*
X026933Y010650D03*
X027933Y010650D03*
X028933Y010650D03*
X029933Y010650D03*
X030933Y010650D03*
X031933Y010650D03*
X032933Y010650D03*
X033933Y010650D03*
X035933Y010650D03*
X036933Y010650D03*
X037933Y010650D03*
X038933Y010650D03*
X039933Y010650D03*
X040933Y010650D03*
X041933Y010650D03*
X042933Y010650D03*
X043933Y012650D03*
X043933Y013650D03*
X044933Y013650D03*
X044933Y012650D03*
X044933Y014650D03*
X043933Y014650D03*
X043933Y015650D03*
X043933Y016650D03*
X044933Y016650D03*
X044933Y015650D03*
X044933Y017650D03*
X043933Y017650D03*
X043933Y018650D03*
X043933Y019650D03*
X044933Y019650D03*
X044933Y018650D03*
X044933Y020650D03*
X043933Y020650D03*
X043933Y021650D03*
X044933Y021650D03*
X044933Y022650D03*
X043933Y022650D03*
X043933Y023650D03*
X044933Y023650D03*
X044933Y024650D03*
X043933Y024650D03*
X043933Y025650D03*
X043933Y026650D03*
X044933Y026650D03*
X044933Y025650D03*
X044933Y027650D03*
X043933Y027650D03*
X043933Y028650D03*
X043933Y029650D03*
X044933Y029650D03*
X044933Y028650D03*
X040933Y029650D03*
X039933Y029650D03*
X038933Y029650D03*
X037933Y029650D03*
X036933Y029650D03*
X035933Y029650D03*
X034933Y029650D03*
X033933Y029650D03*
X031933Y029650D03*
X030933Y029650D03*
X029933Y029650D03*
X028933Y029650D03*
X027933Y029650D03*
X026933Y029650D03*
X025933Y029650D03*
X024933Y029650D03*
X023333Y029650D03*
X022333Y029650D03*
X021333Y029650D03*
X020333Y029650D03*
X019333Y029650D03*
X018333Y029650D03*
X017333Y029650D03*
X016333Y029650D03*
D15*
X019433Y027650D03*
X022933Y027150D03*
X026933Y026150D03*
D16*
X014933Y017603D02*
X014933Y016697D01*
X014933Y013603D02*
X014933Y012697D01*
D17*
X020043Y007660D03*
X021823Y007660D03*
X036433Y016650D03*
X037433Y016650D03*
X038433Y016650D03*
X038433Y017650D03*
X037433Y017650D03*
X036433Y017650D03*
X046433Y018150D03*
X046433Y009150D03*
X045433Y009150D03*
X044433Y009150D03*
X043433Y009150D03*
X042433Y009150D03*
X042433Y008150D03*
X043433Y008150D03*
X044433Y008150D03*
X045433Y008150D03*
X046433Y008150D03*
D18*
X041933Y013650D03*
X040933Y013650D03*
X040933Y014650D03*
X041933Y014650D03*
X041933Y015650D03*
X040933Y015650D03*
X040933Y016650D03*
X041933Y016650D03*
X040433Y020650D03*
X039433Y020650D03*
X039433Y021650D03*
X040433Y021650D03*
X040433Y022650D03*
X039433Y022650D03*
X039433Y023650D03*
X040433Y023650D03*
D19*
X039433Y019150D03*
X038433Y019150D03*
X037433Y019150D03*
X036433Y019150D03*
X035433Y019150D03*
X034433Y019150D03*
X033433Y019150D03*
X032433Y019150D03*
X032433Y014150D03*
X033433Y014150D03*
X034433Y014150D03*
X035433Y014150D03*
X036433Y014150D03*
X037433Y014150D03*
X038433Y014150D03*
X039433Y014150D03*
D20*
X022313Y008640D03*
X019553Y008640D03*
D21*
X031433Y008150D03*
X032433Y008150D03*
X033933Y008150D03*
X034933Y008150D03*
X036433Y008150D03*
X037433Y008150D03*
X020933Y017650D03*
X019933Y017650D03*
X046433Y020150D03*
X046433Y021150D03*
X046433Y027150D03*
X046433Y028150D03*
D22*
X016933Y010063D02*
X016933Y009238D01*
X014933Y009238D02*
X014933Y010063D01*
X010346Y010150D02*
X009521Y010150D01*
X009521Y012150D02*
X010346Y012150D01*
X010346Y014150D02*
X009521Y014150D01*
X009521Y008150D02*
X010346Y008150D01*
X010346Y024650D02*
X009521Y024650D01*
X009521Y026650D02*
X010346Y026650D01*
X010346Y028650D02*
X009521Y028650D01*
D23*
X033153Y027150D02*
X033713Y027150D01*
X033713Y026150D02*
X033153Y026150D01*
X033153Y025150D02*
X033713Y025150D01*
X033713Y024150D02*
X033153Y024150D01*
X036153Y024150D02*
X036713Y024150D01*
X036713Y025150D02*
X036153Y025150D01*
X036153Y026150D02*
X036713Y026150D01*
X036713Y027150D02*
X036153Y027150D01*
D24*
X039433Y027650D03*
X040433Y026650D03*
X039433Y025650D03*
X039933Y009150D03*
X038933Y008150D03*
X040933Y008150D03*
X029933Y008150D03*
X028933Y009150D03*
X027933Y008150D03*
X026433Y008150D03*
X025433Y009150D03*
X024433Y008150D03*
D25*
X027933Y015650D03*
X028933Y015650D03*
X029933Y015650D03*
X030933Y015650D03*
X030933Y018650D03*
X029933Y018650D03*
X028933Y018650D03*
X027933Y018650D03*
X027933Y019650D03*
X028933Y019650D03*
X029933Y019650D03*
X030933Y019650D03*
X030933Y022650D03*
X029933Y022650D03*
X028933Y022650D03*
X027933Y022650D03*
D26*
X022933Y019650D03*
X021933Y019650D03*
X021933Y022650D03*
X020933Y022650D03*
X016933Y022650D03*
X016933Y023650D03*
X016433Y025650D03*
X015433Y025650D03*
X009933Y022650D03*
X009933Y021650D03*
D27*
X006933Y008650D02*
X006933Y007080D01*
X046748Y007080D01*
X046748Y007758D01*
X046640Y007650D01*
X046453Y007650D01*
X046453Y008130D01*
X046413Y008130D01*
X045933Y008130D01*
X045933Y007943D01*
X046226Y007650D01*
X046413Y007650D01*
X046413Y008130D01*
X046413Y008170D01*
X045933Y008170D01*
X045933Y008357D01*
X046226Y008650D01*
X046413Y008650D01*
X046413Y008170D01*
X046453Y008170D01*
X046453Y008650D01*
X046640Y008650D01*
X046748Y008542D01*
X046748Y008800D01*
X046628Y008680D01*
X046239Y008680D01*
X045963Y008955D01*
X045963Y009345D01*
X046084Y009465D01*
X045783Y009465D01*
X045903Y009345D01*
X045903Y008955D01*
X045628Y008680D01*
X045239Y008680D01*
X045118Y008800D01*
X045118Y008573D01*
X044896Y008352D01*
X044903Y008345D01*
X044903Y007955D01*
X044783Y007835D01*
X044857Y007835D01*
X044970Y007948D01*
X044963Y007955D01*
X044963Y008345D01*
X045239Y008620D01*
X045628Y008620D01*
X045903Y008345D01*
X045903Y007955D01*
X045628Y007680D01*
X045239Y007680D01*
X045232Y007687D01*
X045010Y007465D01*
X038357Y007465D01*
X038248Y007573D01*
X038248Y008727D01*
X038357Y008835D01*
X038857Y009335D01*
X039510Y009335D01*
X039755Y009580D01*
X040111Y009580D01*
X040363Y009328D01*
X040363Y008972D01*
X040226Y008835D01*
X042010Y008835D01*
X042232Y008613D01*
X042239Y008620D01*
X042628Y008620D01*
X042903Y008345D01*
X042903Y007955D01*
X042783Y007835D01*
X043084Y007835D01*
X042963Y007955D01*
X042963Y008345D01*
X043239Y008620D01*
X043628Y008620D01*
X043635Y008613D01*
X043748Y008727D01*
X043748Y008800D01*
X043628Y008680D01*
X043239Y008680D01*
X042963Y008955D01*
X042963Y009345D01*
X043239Y009620D01*
X043248Y009620D01*
X043248Y010305D01*
X043198Y010254D01*
X043026Y010183D01*
X042840Y010183D01*
X042669Y010254D01*
X042538Y010386D01*
X042466Y010557D01*
X042466Y010743D01*
X042538Y010914D01*
X042669Y011046D01*
X042840Y011117D01*
X043026Y011117D01*
X043198Y011046D01*
X043248Y010995D01*
X043248Y011227D01*
X043357Y011335D01*
X043638Y011617D01*
X043638Y011709D01*
X043683Y011817D01*
X043766Y011900D01*
X043875Y011945D01*
X043992Y011945D01*
X044100Y011900D01*
X044183Y011817D01*
X044228Y011709D01*
X044228Y011707D01*
X044357Y011835D01*
X045357Y011835D01*
X045638Y012117D01*
X045638Y012209D01*
X045683Y012317D01*
X045766Y012400D01*
X045875Y012445D01*
X045992Y012445D01*
X046100Y012400D01*
X046183Y012317D01*
X046228Y012209D01*
X046248Y012209D01*
X046228Y012209D02*
X046228Y012091D01*
X046183Y011983D01*
X046100Y011900D01*
X045992Y011855D01*
X045900Y011855D01*
X045618Y011573D01*
X045510Y011465D01*
X044510Y011465D01*
X044118Y011073D01*
X044118Y009500D01*
X044239Y009620D01*
X044628Y009620D01*
X044748Y009500D01*
X044748Y009727D01*
X044857Y009835D01*
X046248Y009835D01*
X046248Y016573D01*
X046118Y016703D01*
X046118Y014573D01*
X046010Y014465D01*
X045362Y014465D01*
X045329Y014386D01*
X045198Y014254D01*
X045026Y014183D01*
X044840Y014183D01*
X044669Y014254D01*
X044538Y014386D01*
X044466Y014557D01*
X044466Y014743D01*
X044538Y014914D01*
X044669Y015046D01*
X044840Y015117D01*
X045026Y015117D01*
X045198Y015046D01*
X045329Y014914D01*
X045362Y014835D01*
X045748Y014835D01*
X045748Y016573D01*
X045357Y016965D01*
X045279Y016965D01*
X045329Y016914D01*
X045400Y016743D01*
X045400Y016557D01*
X045329Y016386D01*
X045198Y016254D01*
X045026Y016183D01*
X044840Y016183D01*
X044669Y016254D01*
X044538Y016386D01*
X044466Y016557D01*
X044466Y016743D01*
X044538Y016914D01*
X044588Y016965D01*
X044279Y016965D01*
X044329Y016914D01*
X044400Y016743D01*
X044400Y016557D01*
X044329Y016386D01*
X044279Y016335D01*
X044510Y016335D01*
X044761Y016084D01*
X044840Y016117D01*
X045026Y016117D01*
X045198Y016046D01*
X045329Y015914D01*
X045400Y015743D01*
X045400Y015557D01*
X045329Y015386D01*
X045198Y015254D01*
X045026Y015183D01*
X044840Y015183D01*
X044669Y015254D01*
X044538Y015386D01*
X044466Y015557D01*
X044466Y015743D01*
X044499Y015822D01*
X044357Y015965D01*
X044279Y015965D01*
X044329Y015914D01*
X044400Y015743D01*
X044400Y015557D01*
X044329Y015386D01*
X044198Y015254D01*
X044026Y015183D01*
X043840Y015183D01*
X043669Y015254D01*
X043538Y015386D01*
X043466Y015557D01*
X043466Y015743D01*
X043538Y015914D01*
X043588Y015965D01*
X042357Y015965D01*
X042248Y016073D01*
X042119Y016203D01*
X042119Y016203D01*
X041748Y016203D01*
X041618Y016333D01*
X041618Y016227D01*
X041748Y016097D01*
X041748Y016097D01*
X042119Y016097D01*
X042380Y015835D01*
X042380Y015465D01*
X042251Y015335D01*
X043510Y015335D01*
X043761Y015084D01*
X043840Y015117D01*
X044026Y015117D01*
X044198Y015046D01*
X044329Y014914D01*
X044400Y014743D01*
X044400Y014557D01*
X044329Y014386D01*
X044279Y014335D01*
X044510Y014335D01*
X044761Y014084D01*
X044840Y014117D01*
X045026Y014117D01*
X045198Y014046D01*
X045329Y013914D01*
X045400Y013743D01*
X045400Y013557D01*
X045329Y013386D01*
X045198Y013254D01*
X045026Y013183D01*
X044840Y013183D01*
X044669Y013254D01*
X044538Y013386D01*
X044466Y013557D01*
X044466Y013743D01*
X044499Y013822D01*
X044357Y013965D01*
X044279Y013965D01*
X044329Y013914D01*
X044400Y013743D01*
X044400Y013557D01*
X044329Y013386D01*
X044198Y013254D01*
X044026Y013183D01*
X043840Y013183D01*
X043718Y013234D01*
X043728Y013209D01*
X043728Y013103D01*
X043743Y013110D01*
X043817Y013135D01*
X043894Y013147D01*
X043915Y013147D01*
X043915Y012668D01*
X043915Y012632D01*
X043436Y012632D01*
X043436Y012611D01*
X043449Y012534D01*
X043473Y012459D01*
X043508Y012390D01*
X043554Y012326D01*
X043610Y012271D01*
X043673Y012225D01*
X043743Y012190D01*
X043817Y012165D01*
X043894Y012153D01*
X043915Y012153D01*
X043915Y012632D01*
X043952Y012632D01*
X043952Y012668D01*
X044430Y012668D01*
X044430Y012689D01*
X044418Y012766D01*
X044394Y012841D01*
X044358Y012910D01*
X044312Y012974D01*
X044257Y013029D01*
X044194Y013075D01*
X044124Y013110D01*
X044050Y013135D01*
X043972Y013147D01*
X043952Y013147D01*
X043952Y012668D01*
X043915Y012668D01*
X043436Y012668D01*
X043436Y012689D01*
X043449Y012766D01*
X043473Y012841D01*
X043480Y012855D01*
X043400Y012855D01*
X042510Y011965D01*
X040510Y011965D01*
X039510Y010965D01*
X039279Y010965D01*
X039329Y010914D01*
X039400Y010743D01*
X039400Y010557D01*
X039329Y010386D01*
X039198Y010254D01*
X039026Y010183D01*
X038840Y010183D01*
X038669Y010254D01*
X038618Y010305D01*
X038618Y010073D01*
X038510Y009965D01*
X038010Y009465D01*
X035357Y009465D01*
X035248Y009573D01*
X035248Y011573D01*
X035118Y011703D01*
X035118Y009335D01*
X037510Y009335D01*
X037618Y009227D01*
X037618Y008636D01*
X037728Y008591D01*
X037874Y008445D01*
X037953Y008253D01*
X037953Y008047D01*
X037874Y007855D01*
X037728Y007709D01*
X037537Y007630D01*
X037330Y007630D01*
X037139Y007709D01*
X036992Y007855D01*
X036933Y007998D01*
X036874Y007855D01*
X036728Y007709D01*
X036537Y007630D01*
X036330Y007630D01*
X036139Y007709D01*
X035992Y007855D01*
X035913Y008047D01*
X035913Y008253D01*
X035992Y008445D01*
X036139Y008591D01*
X036330Y008670D01*
X036537Y008670D01*
X036728Y008591D01*
X036874Y008445D01*
X036933Y008302D01*
X036992Y008445D01*
X037139Y008591D01*
X037248Y008636D01*
X037248Y008965D01*
X034880Y008965D01*
X035010Y008835D01*
X035118Y008727D01*
X035118Y008636D01*
X035228Y008591D01*
X035374Y008445D01*
X035453Y008253D01*
X035453Y008047D01*
X035374Y007855D01*
X035228Y007709D01*
X035037Y007630D01*
X034830Y007630D01*
X034639Y007709D01*
X034492Y007855D01*
X034433Y007998D01*
X034374Y007855D01*
X034228Y007709D01*
X034037Y007630D01*
X033830Y007630D01*
X033639Y007709D01*
X033492Y007855D01*
X033466Y007921D01*
X033010Y007465D01*
X031857Y007465D01*
X031748Y007573D01*
X031748Y007730D01*
X031728Y007709D01*
X031537Y007630D01*
X031330Y007630D01*
X031139Y007709D01*
X030992Y007855D01*
X030966Y007921D01*
X030510Y007465D01*
X029357Y007465D01*
X029248Y007573D01*
X027857Y008965D01*
X025856Y008965D01*
X025611Y008720D01*
X025255Y008720D01*
X025003Y008972D01*
X025003Y009328D01*
X025255Y009580D01*
X025611Y009580D01*
X025856Y009335D01*
X028010Y009335D01*
X029510Y007835D01*
X029640Y007835D01*
X029503Y007972D01*
X029503Y008328D01*
X029640Y008465D01*
X029357Y008465D01*
X029248Y008573D01*
X029102Y008720D01*
X028755Y008720D01*
X028503Y008972D01*
X028503Y009328D01*
X028755Y009580D01*
X029111Y009580D01*
X029363Y009328D01*
X029363Y008982D01*
X029510Y008835D01*
X032010Y008835D01*
X032118Y008727D01*
X032118Y008570D01*
X032139Y008591D01*
X032248Y008636D01*
X032248Y009227D01*
X032357Y009335D01*
X034748Y009335D01*
X034748Y011465D01*
X033166Y011465D01*
X033100Y011400D01*
X032992Y011355D01*
X032875Y011355D01*
X032766Y011400D01*
X032683Y011483D01*
X032638Y011591D01*
X032638Y011709D01*
X032683Y011817D01*
X032766Y011900D01*
X032875Y011945D01*
X032992Y011945D01*
X033100Y011900D01*
X033166Y011835D01*
X034987Y011835D01*
X034857Y011965D01*
X032857Y011965D01*
X032748Y012073D01*
X031467Y013355D01*
X031375Y013355D01*
X031266Y013400D01*
X031183Y013483D01*
X031138Y013591D01*
X031138Y013593D01*
X030510Y012965D01*
X024166Y012965D01*
X024100Y012900D01*
X023992Y012855D01*
X023875Y012855D01*
X023766Y012900D01*
X023683Y012983D01*
X023638Y013091D01*
X023638Y013209D01*
X023676Y013300D01*
X022364Y013300D01*
X022235Y013353D01*
X020928Y014660D01*
X020836Y014660D01*
X020656Y014735D01*
X020590Y014800D01*
X019864Y014800D01*
X019735Y014853D01*
X018137Y016452D01*
X017788Y016800D01*
X017691Y016800D01*
X017728Y016709D01*
X017728Y016591D01*
X017683Y016483D01*
X017600Y016400D01*
X017492Y016355D01*
X017375Y016355D01*
X017266Y016400D01*
X017201Y016465D01*
X016811Y016465D01*
X016849Y016428D01*
X016923Y016247D01*
X016923Y016053D01*
X016849Y015872D01*
X016711Y015735D01*
X016531Y015660D01*
X016438Y015660D01*
X016283Y015505D01*
X016283Y014907D01*
X016375Y014945D01*
X016492Y014945D01*
X016600Y014900D01*
X016683Y014817D01*
X016728Y014709D01*
X016728Y014591D01*
X016683Y014483D01*
X016618Y014418D01*
X016618Y013727D01*
X016963Y013382D01*
X016963Y014063D01*
X017035Y014236D01*
X017167Y014368D01*
X017340Y014440D01*
X017527Y014440D01*
X017700Y014368D01*
X017832Y014236D01*
X017903Y014063D01*
X017903Y013237D01*
X017832Y013064D01*
X017700Y012932D01*
X017527Y012860D01*
X017485Y012860D01*
X017510Y012835D01*
X019362Y012835D01*
X019316Y012842D01*
X019241Y012867D01*
X019171Y012902D01*
X019108Y012949D01*
X019052Y013004D01*
X019006Y013068D01*
X018970Y013138D01*
X018946Y013213D01*
X018933Y013291D01*
X018933Y013630D01*
X019413Y013630D01*
X019413Y013670D01*
X018933Y013670D01*
X018933Y014009D01*
X018946Y014087D01*
X018970Y014162D01*
X019006Y014232D01*
X019052Y014296D01*
X019108Y014351D01*
X019171Y014398D01*
X019241Y014433D01*
X019316Y014458D01*
X019394Y014470D01*
X019413Y014470D01*
X019413Y013670D01*
X019453Y013670D01*
X019453Y014470D01*
X019473Y014470D01*
X019550Y014458D01*
X019625Y014433D01*
X019695Y014398D01*
X019759Y014351D01*
X019815Y014296D01*
X019861Y014232D01*
X019897Y014162D01*
X019921Y014087D01*
X019933Y014009D01*
X019933Y013670D01*
X019453Y013670D01*
X019453Y013630D01*
X019933Y013630D01*
X019933Y013291D01*
X019921Y013213D01*
X019897Y013138D01*
X019861Y013068D01*
X019815Y013004D01*
X019759Y012949D01*
X019695Y012902D01*
X019625Y012867D01*
X019550Y012842D01*
X019504Y012835D01*
X028701Y012835D01*
X028766Y012900D01*
X028875Y012945D01*
X028992Y012945D01*
X029100Y012900D01*
X029183Y012817D01*
X029266Y012900D01*
X029375Y012945D01*
X029492Y012945D01*
X029600Y012900D01*
X029666Y012835D01*
X030010Y012835D01*
X030118Y012727D01*
X030118Y011079D01*
X030198Y011046D01*
X030329Y010914D01*
X030400Y010743D01*
X030400Y010557D01*
X030329Y010386D01*
X030198Y010254D01*
X030026Y010183D01*
X029840Y010183D01*
X029669Y010254D01*
X029538Y010386D01*
X029466Y010557D01*
X029466Y010743D01*
X029538Y010914D01*
X029669Y011046D01*
X029748Y011079D01*
X029748Y012465D01*
X029666Y012465D01*
X029600Y012400D01*
X029492Y012355D01*
X029375Y012355D01*
X029266Y012400D01*
X029183Y012483D01*
X029100Y012400D01*
X028992Y012355D01*
X028875Y012355D01*
X028766Y012400D01*
X028701Y012465D01*
X025587Y012465D01*
X025632Y012447D01*
X025730Y012348D01*
X025783Y012220D01*
X025783Y011080D01*
X025730Y010952D01*
X025632Y010853D01*
X025400Y010622D01*
X025400Y010557D01*
X025329Y010386D01*
X025198Y010254D01*
X025026Y010183D01*
X024840Y010183D01*
X024669Y010254D01*
X024538Y010386D01*
X024466Y010557D01*
X024466Y010743D01*
X024538Y010914D01*
X024669Y011046D01*
X024840Y011117D01*
X024905Y011117D01*
X025083Y011295D01*
X025083Y011800D01*
X021045Y011800D01*
X021510Y011335D01*
X021618Y011227D01*
X021618Y010995D01*
X021669Y011046D01*
X021840Y011117D01*
X022026Y011117D01*
X022198Y011046D01*
X022329Y010914D01*
X022400Y010743D01*
X022400Y010557D01*
X022329Y010386D01*
X022198Y010254D01*
X022026Y010183D01*
X021840Y010183D01*
X021669Y010254D01*
X021618Y010305D01*
X021618Y009835D01*
X023010Y009835D01*
X024265Y008580D01*
X024611Y008580D01*
X024863Y008328D01*
X024863Y007972D01*
X024611Y007720D01*
X024255Y007720D01*
X024003Y007972D01*
X024003Y008318D01*
X022857Y009465D01*
X021357Y009465D01*
X021248Y009573D01*
X021248Y010305D01*
X021198Y010254D01*
X021026Y010183D01*
X020840Y010183D01*
X020669Y010254D01*
X020538Y010386D01*
X020466Y010557D01*
X020466Y010743D01*
X020517Y010865D01*
X020492Y010855D01*
X020375Y010855D01*
X020349Y010865D01*
X020400Y010743D01*
X020400Y010557D01*
X020367Y010478D01*
X021010Y009835D01*
X021118Y009727D01*
X021118Y007835D01*
X021353Y007835D01*
X021353Y007855D01*
X021629Y008130D01*
X021996Y008130D01*
X021978Y008138D01*
X021811Y008304D01*
X021721Y008522D01*
X021721Y008758D01*
X021811Y008976D01*
X021978Y009142D01*
X022195Y009232D01*
X022431Y009232D01*
X022649Y009142D01*
X022816Y008976D01*
X022906Y008758D01*
X022906Y008522D01*
X022816Y008304D01*
X022649Y008138D01*
X022431Y008048D01*
X022195Y008048D01*
X022033Y008115D01*
X022293Y007855D01*
X022293Y007465D01*
X022018Y007190D01*
X021629Y007190D01*
X021354Y007465D01*
X020857Y007465D01*
X020748Y007573D01*
X020748Y009573D01*
X020106Y010216D01*
X020026Y010183D01*
X019840Y010183D01*
X019669Y010254D01*
X019538Y010386D01*
X019466Y010557D01*
X019466Y010743D01*
X019538Y010914D01*
X019588Y010965D01*
X019118Y010965D01*
X019118Y009573D01*
X019010Y009465D01*
X017510Y007965D01*
X010878Y007965D01*
X010823Y007831D01*
X010664Y007673D01*
X010458Y007588D01*
X009409Y007588D01*
X009202Y007673D01*
X009044Y007831D01*
X008958Y008038D01*
X008958Y008262D01*
X009044Y008469D01*
X009202Y008627D01*
X009409Y008712D01*
X010458Y008712D01*
X010664Y008627D01*
X010823Y008469D01*
X010878Y008335D01*
X017357Y008335D01*
X018748Y009727D01*
X018748Y011227D01*
X018857Y011335D01*
X020201Y011335D01*
X020266Y011400D01*
X020375Y011445D01*
X020492Y011445D01*
X020600Y011400D01*
X020683Y011317D01*
X020728Y011209D01*
X020728Y011091D01*
X020718Y011066D01*
X020840Y011117D01*
X021026Y011117D01*
X021198Y011046D01*
X021248Y010995D01*
X021248Y011073D01*
X020857Y011465D01*
X016857Y011465D01*
X016748Y011573D01*
X015967Y012355D01*
X015875Y012355D01*
X015766Y012400D01*
X015683Y012483D01*
X015638Y012591D01*
X015638Y012709D01*
X015683Y012817D01*
X015766Y012900D01*
X015875Y012945D01*
X015992Y012945D01*
X016100Y012900D01*
X016183Y012817D01*
X016228Y012709D01*
X016228Y012617D01*
X017010Y011835D01*
X017279Y011835D01*
X017235Y011853D01*
X015735Y013353D01*
X015637Y013452D01*
X015583Y013580D01*
X015583Y015720D01*
X015637Y015848D01*
X015943Y016155D01*
X015943Y016247D01*
X016018Y016428D01*
X016055Y016465D01*
X016010Y016465D01*
X014618Y015073D01*
X014510Y014965D01*
X012666Y014965D01*
X012600Y014900D01*
X012492Y014855D01*
X012375Y014855D01*
X012266Y014900D01*
X012183Y014983D01*
X012138Y015091D01*
X012138Y015209D01*
X012183Y015317D01*
X012266Y015400D01*
X012375Y015445D01*
X012492Y015445D01*
X012600Y015400D01*
X012666Y015335D01*
X014357Y015335D01*
X015161Y016139D01*
X015053Y016094D01*
X014813Y016094D01*
X014592Y016186D01*
X014478Y016300D01*
X014042Y016300D01*
X013933Y015650D01*
X010283Y015650D01*
X010283Y014712D01*
X010458Y014712D01*
X010664Y014627D01*
X010823Y014469D01*
X010908Y014262D01*
X010908Y014038D01*
X010823Y013831D01*
X010664Y013673D01*
X010458Y013588D01*
X009409Y013588D01*
X009378Y013600D01*
X009132Y013353D01*
X009003Y013300D01*
X008783Y013300D01*
X008783Y011795D01*
X009078Y011500D01*
X009822Y011500D01*
X009748Y011573D01*
X009748Y011588D01*
X009409Y011588D01*
X009202Y011673D01*
X009044Y011831D01*
X008958Y012038D01*
X008958Y012262D01*
X009044Y012469D01*
X009202Y012627D01*
X009409Y012712D01*
X010458Y012712D01*
X010664Y012627D01*
X010823Y012469D01*
X010908Y012262D01*
X010908Y012038D01*
X010823Y011831D01*
X010664Y011673D01*
X010458Y011588D01*
X010257Y011588D01*
X013010Y008835D01*
X014540Y008835D01*
X014456Y008919D01*
X014371Y009126D01*
X014371Y009718D01*
X013735Y010353D01*
X013637Y010452D01*
X013583Y010580D01*
X013583Y013220D01*
X013637Y013348D01*
X013735Y013447D01*
X013864Y013500D01*
X014331Y013500D01*
X014331Y013723D01*
X014422Y013944D01*
X014592Y014114D01*
X014813Y014206D01*
X015053Y014206D01*
X015275Y014114D01*
X015444Y013944D01*
X015536Y013723D01*
X015536Y012577D01*
X015444Y012356D01*
X015275Y012186D01*
X015053Y012094D01*
X014813Y012094D01*
X014592Y012186D01*
X014422Y012356D01*
X014331Y012577D01*
X014331Y012800D01*
X014283Y012800D01*
X014283Y011407D01*
X014375Y011445D01*
X014492Y011445D01*
X014600Y011400D01*
X014666Y011335D01*
X015201Y011335D01*
X015266Y011400D01*
X015375Y011445D01*
X015492Y011445D01*
X015600Y011400D01*
X015683Y011317D01*
X015728Y011209D01*
X015728Y011091D01*
X015683Y010983D01*
X015600Y010900D01*
X015492Y010855D01*
X015375Y010855D01*
X015266Y010900D01*
X015201Y010965D01*
X014666Y010965D01*
X014600Y010900D01*
X014492Y010855D01*
X014375Y010855D01*
X014283Y010893D01*
X014283Y010795D01*
X014577Y010501D01*
X014615Y010539D01*
X014821Y010625D01*
X015045Y010625D01*
X015252Y010539D01*
X015410Y010381D01*
X015496Y010174D01*
X015496Y009126D01*
X015410Y008919D01*
X015326Y008835D01*
X015748Y008835D01*
X015748Y010727D01*
X015857Y010835D01*
X016357Y011335D01*
X017201Y011335D01*
X017266Y011400D01*
X017375Y011445D01*
X017492Y011445D01*
X017600Y011400D01*
X017683Y011317D01*
X017728Y011209D01*
X017728Y011091D01*
X017683Y010983D01*
X017600Y010900D01*
X017492Y010855D01*
X017375Y010855D01*
X017266Y010900D01*
X017201Y010965D01*
X016510Y010965D01*
X016118Y010573D01*
X016118Y008573D01*
X016010Y008465D01*
X012857Y008465D01*
X010283Y011038D01*
X010283Y010712D01*
X010458Y010712D01*
X010664Y010627D01*
X010823Y010469D01*
X010908Y010262D01*
X010908Y010038D01*
X010823Y009831D01*
X010664Y009673D01*
X011649Y009673D01*
X011807Y009515D02*
X007798Y009515D01*
X007933Y009650D02*
X007933Y013150D01*
X006933Y014150D01*
X006933Y015650D01*
X009583Y015650D01*
X009583Y014712D01*
X009409Y014712D01*
X009202Y014627D01*
X009044Y014469D01*
X008958Y014262D01*
X008958Y014170D01*
X008788Y014000D01*
X008364Y014000D01*
X008235Y013947D01*
X008137Y013848D01*
X008083Y013720D01*
X008083Y011580D01*
X008137Y011452D01*
X008235Y011353D01*
X008735Y010853D01*
X008864Y010800D01*
X009583Y010800D01*
X009583Y010712D01*
X009409Y010712D01*
X009202Y010627D01*
X009044Y010469D01*
X008958Y010262D01*
X008958Y010038D01*
X009044Y009831D01*
X009202Y009673D01*
X009409Y009588D01*
X010458Y009588D01*
X010664Y009673D01*
X010823Y009832D02*
X011490Y009832D01*
X011332Y009990D02*
X010888Y009990D01*
X010908Y010149D02*
X011173Y010149D01*
X011015Y010307D02*
X010890Y010307D01*
X010856Y010466D02*
X010824Y010466D01*
X010698Y010624D02*
X010667Y010624D01*
X010539Y010783D02*
X010283Y010783D01*
X010283Y010941D02*
X010381Y010941D01*
X010587Y011258D02*
X011896Y011258D01*
X011975Y011337D02*
X011747Y011109D01*
X011623Y010811D01*
X011623Y010489D01*
X011747Y010191D01*
X011975Y009963D01*
X012272Y009840D01*
X012594Y009840D01*
X012892Y009963D01*
X013120Y010191D01*
X013243Y010489D01*
X013243Y010811D01*
X013120Y011109D01*
X012892Y011337D01*
X012594Y011460D01*
X012272Y011460D01*
X011975Y011337D01*
X012167Y011417D02*
X010428Y011417D01*
X010270Y011575D02*
X013583Y011575D01*
X013583Y011417D02*
X012699Y011417D01*
X012971Y011258D02*
X013583Y011258D01*
X013583Y011100D02*
X013124Y011100D01*
X013189Y010941D02*
X013583Y010941D01*
X013583Y010783D02*
X013243Y010783D01*
X013243Y010624D02*
X013583Y010624D01*
X013631Y010466D02*
X013234Y010466D01*
X013168Y010307D02*
X013781Y010307D01*
X013940Y010149D02*
X013077Y010149D01*
X012919Y009990D02*
X014098Y009990D01*
X014257Y009832D02*
X012013Y009832D01*
X011948Y009990D02*
X011855Y009990D01*
X011789Y010149D02*
X011696Y010149D01*
X011699Y010307D02*
X011538Y010307D01*
X011633Y010466D02*
X011379Y010466D01*
X011221Y010624D02*
X011623Y010624D01*
X011623Y010783D02*
X011062Y010783D01*
X010904Y010941D02*
X011677Y010941D01*
X011743Y011100D02*
X010745Y011100D01*
X010725Y011734D02*
X013583Y011734D01*
X013583Y011892D02*
X010848Y011892D01*
X010908Y012051D02*
X013583Y012051D01*
X013583Y012209D02*
X010908Y012209D01*
X010865Y012368D02*
X013583Y012368D01*
X013583Y012526D02*
X010765Y012526D01*
X010525Y012685D02*
X013583Y012685D01*
X013583Y012843D02*
X008783Y012843D01*
X008783Y012685D02*
X009341Y012685D01*
X009101Y012526D02*
X008783Y012526D01*
X008783Y012368D02*
X009002Y012368D01*
X008958Y012209D02*
X008783Y012209D01*
X008783Y012051D02*
X008958Y012051D01*
X009019Y011892D02*
X008783Y011892D01*
X008845Y011734D02*
X009142Y011734D01*
X009003Y011575D02*
X009748Y011575D01*
X009583Y010783D02*
X007933Y010783D01*
X007933Y010941D02*
X008647Y010941D01*
X008489Y011100D02*
X007933Y011100D01*
X007933Y011258D02*
X008330Y011258D01*
X008172Y011417D02*
X007933Y011417D01*
X007933Y011575D02*
X008086Y011575D01*
X008083Y011734D02*
X007933Y011734D01*
X007933Y011892D02*
X008083Y011892D01*
X008083Y012051D02*
X007933Y012051D01*
X007933Y012209D02*
X008083Y012209D01*
X008083Y012368D02*
X007933Y012368D01*
X007933Y012526D02*
X008083Y012526D01*
X008083Y012685D02*
X007933Y012685D01*
X007933Y012843D02*
X008083Y012843D01*
X008083Y013002D02*
X007933Y013002D01*
X007923Y013160D02*
X008083Y013160D01*
X008083Y013319D02*
X007765Y013319D01*
X007606Y013477D02*
X008083Y013477D01*
X008083Y013636D02*
X007448Y013636D01*
X007289Y013794D02*
X008114Y013794D01*
X008249Y013953D02*
X007131Y013953D01*
X006972Y014111D02*
X008899Y014111D01*
X008961Y014270D02*
X006933Y014270D01*
X006933Y014428D02*
X009027Y014428D01*
X009162Y014587D02*
X006933Y014587D01*
X006933Y014745D02*
X009583Y014745D01*
X009583Y014904D02*
X006933Y014904D01*
X006933Y015062D02*
X009583Y015062D01*
X009583Y015221D02*
X006933Y015221D01*
X006933Y015379D02*
X009583Y015379D01*
X009583Y015538D02*
X006933Y015538D01*
X006933Y016150D02*
X006933Y030650D01*
X014933Y030650D01*
X014933Y027650D01*
X017433Y027650D01*
X017433Y027000D01*
X014864Y027000D01*
X014735Y026947D01*
X013788Y026000D01*
X013750Y026000D01*
X013783Y026080D01*
X013783Y027015D01*
X013832Y027064D01*
X013903Y027237D01*
X013903Y028063D01*
X013832Y028236D01*
X013700Y028368D01*
X013527Y028440D01*
X013340Y028440D01*
X013167Y028368D01*
X013035Y028236D01*
X012963Y028063D01*
X012963Y027237D01*
X013035Y027064D01*
X013083Y027015D01*
X013083Y026500D01*
X011078Y026500D01*
X010908Y026670D01*
X010908Y026762D01*
X010823Y026969D01*
X010664Y027127D01*
X010458Y027212D01*
X009409Y027212D01*
X009202Y027127D01*
X009044Y026969D01*
X008958Y026762D01*
X008958Y026538D01*
X009044Y026331D01*
X009202Y026173D01*
X009409Y026088D01*
X010458Y026088D01*
X010488Y026100D01*
X010588Y026000D01*
X008783Y026000D01*
X008783Y027800D01*
X009003Y027800D01*
X009132Y027853D01*
X009378Y028100D01*
X009409Y028088D01*
X010458Y028088D01*
X010664Y028173D01*
X010823Y028331D01*
X010908Y028538D01*
X010908Y028762D01*
X010823Y028969D01*
X010664Y029127D01*
X010458Y029212D01*
X009409Y029212D01*
X009202Y029127D01*
X009044Y028969D01*
X008958Y028762D01*
X008958Y028670D01*
X008788Y028500D01*
X008364Y028500D01*
X008235Y028447D01*
X008137Y028348D01*
X008083Y028220D01*
X008083Y021580D01*
X008137Y021452D01*
X008235Y021353D01*
X009735Y019853D01*
X009864Y019800D01*
X010676Y019800D01*
X010638Y019709D01*
X010638Y019617D01*
X010357Y019335D01*
X007857Y019335D01*
X007608Y019086D01*
X007527Y019120D01*
X007340Y019120D01*
X007167Y019048D01*
X007035Y018916D01*
X006963Y018743D01*
X006963Y018557D01*
X007035Y018384D01*
X007167Y018252D01*
X007340Y018180D01*
X007527Y018180D01*
X007700Y018252D01*
X007832Y018384D01*
X007903Y018557D01*
X007903Y018743D01*
X007870Y018825D01*
X008010Y018965D01*
X010510Y018965D01*
X010618Y019073D01*
X010900Y019355D01*
X010992Y019355D01*
X011100Y019400D01*
X011183Y019483D01*
X011228Y019591D01*
X011228Y019709D01*
X011191Y019800D01*
X013933Y019800D01*
X013933Y018650D01*
X012933Y017150D01*
X012933Y017000D01*
X009864Y017000D01*
X009735Y016947D01*
X009637Y016848D01*
X009583Y016720D01*
X009583Y016150D01*
X006933Y016150D01*
X006933Y016172D02*
X007288Y016172D01*
X007316Y016162D02*
X007394Y016150D01*
X007413Y016150D01*
X007413Y016630D01*
X006933Y016630D01*
X006933Y016611D01*
X006946Y016533D01*
X006970Y016458D01*
X007006Y016388D01*
X007052Y016324D01*
X007108Y016269D01*
X007171Y016222D01*
X007241Y016187D01*
X007316Y016162D01*
X007413Y016172D02*
X007453Y016172D01*
X007453Y016150D02*
X007473Y016150D01*
X007550Y016162D01*
X007625Y016187D01*
X007695Y016222D01*
X007759Y016269D01*
X007815Y016324D01*
X007861Y016388D01*
X007897Y016458D01*
X007921Y016533D01*
X007933Y016611D01*
X007933Y016630D01*
X007453Y016630D01*
X007453Y016150D01*
X007579Y016172D02*
X009583Y016172D01*
X009583Y016330D02*
X007819Y016330D01*
X007907Y016489D02*
X009583Y016489D01*
X009583Y016647D02*
X007453Y016647D01*
X007453Y016630D02*
X007453Y016670D01*
X007413Y016670D01*
X007413Y016630D01*
X007453Y016630D01*
X007453Y016670D02*
X007933Y016670D01*
X007933Y016689D01*
X007921Y016767D01*
X007897Y016842D01*
X007861Y016912D01*
X007815Y016976D01*
X007759Y017031D01*
X007695Y017078D01*
X007625Y017113D01*
X007550Y017138D01*
X007473Y017150D01*
X007453Y017150D01*
X007453Y016670D01*
X007413Y016670D02*
X007413Y017150D01*
X007394Y017150D01*
X007316Y017138D01*
X007241Y017113D01*
X007171Y017078D01*
X007108Y017031D01*
X007052Y016976D01*
X007006Y016912D01*
X006970Y016842D01*
X006946Y016767D01*
X006933Y016689D01*
X006933Y016670D01*
X007413Y016670D01*
X007413Y016647D02*
X006933Y016647D01*
X006933Y016489D02*
X006960Y016489D01*
X006933Y016330D02*
X007048Y016330D01*
X007413Y016330D02*
X007453Y016330D01*
X007453Y016489D02*
X007413Y016489D01*
X007413Y016806D02*
X007453Y016806D01*
X007453Y016964D02*
X007413Y016964D01*
X007413Y017123D02*
X007453Y017123D01*
X007527Y017180D02*
X007700Y017252D01*
X007832Y017384D01*
X007903Y017557D01*
X007903Y017743D01*
X007832Y017916D01*
X007700Y018048D01*
X007527Y018120D01*
X007340Y018120D01*
X007167Y018048D01*
X007035Y017916D01*
X006963Y017743D01*
X006963Y017557D01*
X007035Y017384D01*
X007167Y017252D01*
X007340Y017180D01*
X007527Y017180D01*
X007597Y017123D02*
X012933Y017123D01*
X013021Y017281D02*
X007729Y017281D01*
X007855Y017440D02*
X013126Y017440D01*
X013232Y017598D02*
X007903Y017598D01*
X007898Y017757D02*
X013338Y017757D01*
X013443Y017915D02*
X007832Y017915D01*
X007639Y018074D02*
X013549Y018074D01*
X013655Y018232D02*
X007652Y018232D01*
X007835Y018391D02*
X013760Y018391D01*
X013866Y018549D02*
X007900Y018549D01*
X007903Y018708D02*
X013933Y018708D01*
X013933Y018866D02*
X007911Y018866D01*
X007705Y019183D02*
X006933Y019183D01*
X006933Y019025D02*
X007143Y019025D01*
X007014Y018866D02*
X006933Y018866D01*
X006933Y018708D02*
X006963Y018708D01*
X006966Y018549D02*
X006933Y018549D01*
X006933Y018391D02*
X007032Y018391D01*
X006933Y018232D02*
X007214Y018232D01*
X007228Y018074D02*
X006933Y018074D01*
X006933Y017915D02*
X007034Y017915D01*
X006969Y017757D02*
X006933Y017757D01*
X006933Y017598D02*
X006963Y017598D01*
X006933Y017440D02*
X007012Y017440D01*
X006933Y017281D02*
X007138Y017281D01*
X007270Y017123D02*
X006933Y017123D01*
X006933Y016964D02*
X007043Y016964D01*
X006958Y016806D02*
X006933Y016806D01*
X007823Y016964D02*
X009777Y016964D01*
X009619Y016806D02*
X007909Y016806D01*
X010283Y015538D02*
X014559Y015538D01*
X014718Y015696D02*
X013941Y015696D01*
X013967Y015855D02*
X014876Y015855D01*
X015035Y016013D02*
X013994Y016013D01*
X014020Y016172D02*
X014627Y016172D01*
X015241Y015696D02*
X015583Y015696D01*
X015583Y015538D02*
X015082Y015538D01*
X014924Y015379D02*
X015583Y015379D01*
X015583Y015221D02*
X014765Y015221D01*
X014607Y015062D02*
X015583Y015062D01*
X015583Y014904D02*
X012604Y014904D01*
X012263Y014904D02*
X010283Y014904D01*
X010283Y015062D02*
X012150Y015062D01*
X012143Y015221D02*
X010283Y015221D01*
X010283Y015379D02*
X012245Y015379D01*
X012622Y015379D02*
X014401Y015379D01*
X015399Y015855D02*
X015643Y015855D01*
X015558Y016013D02*
X015801Y016013D01*
X015716Y016172D02*
X015943Y016172D01*
X015978Y016330D02*
X015875Y016330D01*
X016618Y015696D02*
X018892Y015696D01*
X018734Y015855D02*
X016831Y015855D01*
X016907Y016013D02*
X018575Y016013D01*
X018417Y016172D02*
X016923Y016172D01*
X016889Y016330D02*
X018258Y016330D01*
X018100Y016489D02*
X017686Y016489D01*
X017728Y016647D02*
X017941Y016647D01*
X019278Y016300D02*
X019788Y016300D01*
X019943Y016145D01*
X019943Y016053D01*
X020018Y015872D01*
X020156Y015735D01*
X020336Y015660D01*
X020531Y015660D01*
X020711Y015735D01*
X020849Y015872D01*
X020923Y016053D01*
X020923Y016247D01*
X020849Y016428D01*
X020711Y016565D01*
X020531Y016640D01*
X020438Y016640D01*
X020230Y016848D01*
X020132Y016947D01*
X020003Y017000D01*
X019778Y017000D01*
X019908Y017130D01*
X020037Y017130D01*
X020228Y017209D01*
X020374Y017355D01*
X020417Y017459D01*
X020424Y017439D01*
X020463Y017362D01*
X020514Y017292D01*
X020575Y017230D01*
X020645Y017180D01*
X020722Y017140D01*
X020805Y017114D01*
X020890Y017100D01*
X020913Y017100D01*
X020913Y017630D01*
X020953Y017630D01*
X020953Y017100D01*
X020977Y017100D01*
X021062Y017114D01*
X021144Y017140D01*
X021222Y017180D01*
X021292Y017230D01*
X021353Y017292D01*
X021404Y017362D01*
X021443Y017439D01*
X021470Y017521D01*
X021483Y017607D01*
X021483Y017630D01*
X020953Y017630D01*
X020953Y017670D01*
X021483Y017670D01*
X021483Y017693D01*
X021470Y017779D01*
X021443Y017861D01*
X021404Y017938D01*
X021384Y017965D01*
X022987Y017965D01*
X022967Y017945D01*
X022875Y017945D01*
X022766Y017900D01*
X022683Y017817D01*
X022600Y017900D01*
X022492Y017945D01*
X022375Y017945D01*
X022266Y017900D01*
X022183Y017817D01*
X022100Y017900D01*
X021992Y017945D01*
X021875Y017945D01*
X021766Y017900D01*
X021683Y017817D01*
X021638Y017709D01*
X021638Y017591D01*
X021683Y017483D01*
X021766Y017400D01*
X021875Y017355D01*
X021967Y017355D01*
X023357Y015965D01*
X024357Y015965D01*
X024705Y015617D01*
X024661Y015595D01*
X024595Y015547D01*
X024537Y015489D01*
X024489Y015423D01*
X024451Y015350D01*
X024426Y015272D01*
X024413Y015191D01*
X024413Y015180D01*
X024903Y015180D01*
X024903Y015120D01*
X024413Y015120D01*
X024413Y015109D01*
X024426Y015028D01*
X024451Y014950D01*
X024489Y014877D01*
X024537Y014811D01*
X024595Y014753D01*
X024661Y014705D01*
X024734Y014668D01*
X024812Y014643D01*
X024892Y014630D01*
X024903Y014630D01*
X024903Y015120D01*
X024963Y015120D01*
X024963Y014630D01*
X024974Y014630D01*
X025055Y014643D01*
X025133Y014668D01*
X025206Y014705D01*
X025272Y014753D01*
X025330Y014811D01*
X025378Y014877D01*
X025415Y014950D01*
X025441Y015028D01*
X025453Y015109D01*
X025453Y015120D01*
X024963Y015120D01*
X024963Y015180D01*
X025453Y015180D01*
X025453Y015191D01*
X025441Y015272D01*
X025415Y015350D01*
X025378Y015423D01*
X025347Y015465D01*
X026487Y015465D01*
X025357Y014335D01*
X025166Y014335D01*
X025100Y014400D01*
X024992Y014445D01*
X024875Y014445D01*
X024766Y014400D01*
X024683Y014317D01*
X024638Y014209D01*
X024638Y014091D01*
X024676Y014000D01*
X022578Y014000D01*
X021423Y015155D01*
X021423Y015247D01*
X021349Y015428D01*
X021211Y015565D01*
X021031Y015640D01*
X020836Y015640D01*
X020656Y015565D01*
X020590Y015500D01*
X020078Y015500D01*
X019278Y016300D01*
X019407Y016172D02*
X019917Y016172D01*
X019960Y016013D02*
X019565Y016013D01*
X019724Y015855D02*
X020036Y015855D01*
X019882Y015696D02*
X020249Y015696D01*
X020041Y015538D02*
X020628Y015538D01*
X020618Y015696D02*
X024626Y015696D01*
X024585Y015538D02*
X021239Y015538D01*
X021369Y015379D02*
X024466Y015379D01*
X024418Y015221D02*
X021423Y015221D01*
X021516Y015062D02*
X024421Y015062D01*
X024475Y014904D02*
X021675Y014904D01*
X021833Y014745D02*
X024606Y014745D01*
X024903Y014745D02*
X024963Y014745D01*
X024963Y014904D02*
X024903Y014904D01*
X024903Y015062D02*
X024963Y015062D01*
X025261Y014745D02*
X025767Y014745D01*
X025925Y014904D02*
X025391Y014904D01*
X025446Y015062D02*
X026084Y015062D01*
X026242Y015221D02*
X025449Y015221D01*
X025400Y015379D02*
X026401Y015379D01*
X025608Y014587D02*
X021992Y014587D01*
X022150Y014428D02*
X024834Y014428D01*
X025033Y014428D02*
X025450Y014428D01*
X024664Y014270D02*
X022309Y014270D01*
X022467Y014111D02*
X024638Y014111D01*
X023638Y013160D02*
X019904Y013160D01*
X019933Y013319D02*
X022319Y013319D01*
X022111Y013477D02*
X019933Y013477D01*
X019933Y013794D02*
X021794Y013794D01*
X021636Y013953D02*
X019933Y013953D01*
X019913Y014111D02*
X021477Y014111D01*
X021319Y014270D02*
X019834Y014270D01*
X019636Y014428D02*
X021160Y014428D01*
X021002Y014587D02*
X016726Y014587D01*
X016713Y014745D02*
X020645Y014745D01*
X019685Y014904D02*
X016592Y014904D01*
X016283Y015062D02*
X019526Y015062D01*
X019368Y015221D02*
X016283Y015221D01*
X016283Y015379D02*
X019209Y015379D01*
X019051Y015538D02*
X016316Y015538D01*
X015583Y014745D02*
X010283Y014745D01*
X010705Y014587D02*
X015583Y014587D01*
X015583Y014428D02*
X010840Y014428D01*
X010905Y014270D02*
X015583Y014270D01*
X015583Y014111D02*
X015277Y014111D01*
X015436Y013953D02*
X015583Y013953D01*
X015583Y013794D02*
X015507Y013794D01*
X015536Y013636D02*
X015583Y013636D01*
X015626Y013477D02*
X015536Y013477D01*
X015536Y013319D02*
X015770Y013319D01*
X015928Y013160D02*
X015536Y013160D01*
X015536Y013002D02*
X016087Y013002D01*
X016158Y012843D02*
X016245Y012843D01*
X016228Y012685D02*
X016404Y012685D01*
X016319Y012526D02*
X016562Y012526D01*
X016477Y012368D02*
X016721Y012368D01*
X016636Y012209D02*
X016879Y012209D01*
X016794Y012051D02*
X017038Y012051D01*
X016953Y011892D02*
X017196Y011892D01*
X016747Y011575D02*
X014283Y011575D01*
X014283Y011417D02*
X014306Y011417D01*
X014561Y011417D02*
X015306Y011417D01*
X015561Y011417D02*
X017306Y011417D01*
X017561Y011417D02*
X020306Y011417D01*
X020561Y011417D02*
X020905Y011417D01*
X021064Y011258D02*
X020708Y011258D01*
X020728Y011100D02*
X020799Y011100D01*
X021068Y011100D02*
X021222Y011100D01*
X021428Y011417D02*
X025083Y011417D01*
X025083Y011575D02*
X021270Y011575D01*
X021111Y011734D02*
X025083Y011734D01*
X025046Y011258D02*
X021587Y011258D01*
X021618Y011100D02*
X021799Y011100D01*
X022068Y011100D02*
X022721Y011100D01*
X022743Y011110D02*
X022673Y011075D01*
X022610Y011029D01*
X022554Y010974D01*
X022508Y010910D01*
X022473Y010841D01*
X022449Y010766D01*
X022436Y010689D01*
X022436Y010668D01*
X022915Y010668D01*
X022915Y010632D01*
X022436Y010632D01*
X022436Y010611D01*
X022449Y010534D01*
X022473Y010459D01*
X022508Y010390D01*
X022554Y010326D01*
X022610Y010271D01*
X022673Y010225D01*
X022743Y010190D01*
X022817Y010165D01*
X022894Y010153D01*
X022915Y010153D01*
X022915Y010632D01*
X022952Y010632D01*
X022952Y010668D01*
X023430Y010668D01*
X023430Y010689D01*
X023418Y010766D01*
X023394Y010841D01*
X023358Y010910D01*
X023312Y010974D01*
X023257Y011029D01*
X023194Y011075D01*
X023124Y011110D01*
X023050Y011135D01*
X022972Y011147D01*
X022952Y011147D01*
X022952Y010668D01*
X022915Y010668D01*
X022915Y011147D01*
X022894Y011147D01*
X022817Y011135D01*
X022743Y011110D01*
X022915Y011100D02*
X022952Y011100D01*
X022952Y010941D02*
X022915Y010941D01*
X022915Y010783D02*
X022952Y010783D01*
X022952Y010632D02*
X023430Y010632D01*
X023430Y010611D01*
X023418Y010534D01*
X023394Y010459D01*
X023358Y010390D01*
X023312Y010326D01*
X023257Y010271D01*
X023194Y010225D01*
X023124Y010190D01*
X023050Y010165D01*
X022972Y010153D01*
X022952Y010153D01*
X022952Y010632D01*
X022952Y010624D02*
X022915Y010624D01*
X022915Y010466D02*
X022952Y010466D01*
X022952Y010307D02*
X022915Y010307D01*
X022574Y010307D02*
X022251Y010307D01*
X022362Y010466D02*
X022471Y010466D01*
X022436Y010624D02*
X022400Y010624D01*
X022384Y010783D02*
X022454Y010783D01*
X022531Y010941D02*
X022303Y010941D01*
X023146Y011100D02*
X023721Y011100D01*
X023743Y011110D02*
X023673Y011075D01*
X023610Y011029D01*
X023554Y010974D01*
X023508Y010910D01*
X023473Y010841D01*
X023449Y010766D01*
X023436Y010689D01*
X023436Y010668D01*
X023915Y010668D01*
X023915Y010632D01*
X023436Y010632D01*
X023436Y010611D01*
X023449Y010534D01*
X023473Y010459D01*
X023508Y010390D01*
X023554Y010326D01*
X023610Y010271D01*
X023673Y010225D01*
X023743Y010190D01*
X023817Y010165D01*
X023894Y010153D01*
X023915Y010153D01*
X023915Y010632D01*
X023952Y010632D01*
X023952Y010668D01*
X024430Y010668D01*
X024430Y010689D01*
X024418Y010766D01*
X024394Y010841D01*
X024358Y010910D01*
X024312Y010974D01*
X024257Y011029D01*
X024194Y011075D01*
X024124Y011110D01*
X024050Y011135D01*
X023972Y011147D01*
X023952Y011147D01*
X023952Y010668D01*
X023915Y010668D01*
X023915Y011147D01*
X023894Y011147D01*
X023817Y011135D01*
X023743Y011110D01*
X023915Y011100D02*
X023952Y011100D01*
X023952Y010941D02*
X023915Y010941D01*
X023915Y010783D02*
X023952Y010783D01*
X023952Y010632D02*
X024430Y010632D01*
X024430Y010611D01*
X024418Y010534D01*
X024394Y010459D01*
X024358Y010390D01*
X024312Y010326D01*
X024257Y010271D01*
X024194Y010225D01*
X024124Y010190D01*
X024050Y010165D01*
X023972Y010153D01*
X023952Y010153D01*
X023952Y010632D01*
X023952Y010624D02*
X023915Y010624D01*
X023915Y010466D02*
X023952Y010466D01*
X023952Y010307D02*
X023915Y010307D01*
X023574Y010307D02*
X023293Y010307D01*
X023396Y010466D02*
X023471Y010466D01*
X023436Y010624D02*
X023430Y010624D01*
X023413Y010783D02*
X023454Y010783D01*
X023531Y010941D02*
X023336Y010941D01*
X024146Y011100D02*
X024799Y011100D01*
X024564Y010941D02*
X024336Y010941D01*
X024413Y010783D02*
X024483Y010783D01*
X024466Y010624D02*
X024430Y010624D01*
X024396Y010466D02*
X024504Y010466D01*
X024616Y010307D02*
X024293Y010307D01*
X025251Y010307D02*
X026616Y010307D01*
X026669Y010254D02*
X026840Y010183D01*
X027026Y010183D01*
X027198Y010254D01*
X027329Y010386D01*
X027400Y010557D01*
X027400Y010743D01*
X027329Y010914D01*
X027198Y011046D01*
X027026Y011117D01*
X026840Y011117D01*
X026669Y011046D01*
X026538Y010914D01*
X026466Y010743D01*
X026466Y010557D01*
X026538Y010386D01*
X026669Y010254D01*
X026504Y010466D02*
X025362Y010466D01*
X025402Y010624D02*
X026466Y010624D01*
X026483Y010783D02*
X025561Y010783D01*
X025719Y010941D02*
X026564Y010941D01*
X026799Y011100D02*
X025783Y011100D01*
X025783Y011258D02*
X029748Y011258D01*
X029748Y011100D02*
X029068Y011100D01*
X029026Y011117D02*
X028840Y011117D01*
X028669Y011046D01*
X028538Y010914D01*
X028466Y010743D01*
X028466Y010557D01*
X028538Y010386D01*
X028669Y010254D01*
X028840Y010183D01*
X029026Y010183D01*
X029198Y010254D01*
X029329Y010386D01*
X029400Y010557D01*
X029400Y010743D01*
X029329Y010914D01*
X029198Y011046D01*
X029026Y011117D01*
X028799Y011100D02*
X028068Y011100D01*
X028026Y011117D02*
X027840Y011117D01*
X027669Y011046D01*
X027538Y010914D01*
X027466Y010743D01*
X027466Y010557D01*
X027538Y010386D01*
X027669Y010254D01*
X027840Y010183D01*
X028026Y010183D01*
X028198Y010254D01*
X028329Y010386D01*
X028400Y010557D01*
X028400Y010743D01*
X028329Y010914D01*
X028198Y011046D01*
X028026Y011117D01*
X027799Y011100D02*
X027068Y011100D01*
X027303Y010941D02*
X027564Y010941D01*
X027483Y010783D02*
X027384Y010783D01*
X027400Y010624D02*
X027466Y010624D01*
X027504Y010466D02*
X027362Y010466D01*
X027251Y010307D02*
X027616Y010307D01*
X028251Y010307D02*
X028616Y010307D01*
X028504Y010466D02*
X028362Y010466D01*
X028400Y010624D02*
X028466Y010624D01*
X028483Y010783D02*
X028384Y010783D01*
X028303Y010941D02*
X028564Y010941D01*
X029303Y010941D02*
X029564Y010941D01*
X029483Y010783D02*
X029384Y010783D01*
X029400Y010624D02*
X029466Y010624D01*
X029504Y010466D02*
X029362Y010466D01*
X029251Y010307D02*
X029616Y010307D01*
X030251Y010307D02*
X030616Y010307D01*
X030669Y010254D02*
X030840Y010183D01*
X031026Y010183D01*
X031198Y010254D01*
X031329Y010386D01*
X031400Y010557D01*
X031400Y010743D01*
X031329Y010914D01*
X031198Y011046D01*
X031026Y011117D01*
X030840Y011117D01*
X030669Y011046D01*
X030538Y010914D01*
X030466Y010743D01*
X030466Y010557D01*
X030538Y010386D01*
X030669Y010254D01*
X030504Y010466D02*
X030362Y010466D01*
X030400Y010624D02*
X030466Y010624D01*
X030483Y010783D02*
X030384Y010783D01*
X030303Y010941D02*
X030564Y010941D01*
X030799Y011100D02*
X030118Y011100D01*
X030118Y011258D02*
X034748Y011258D01*
X034748Y011100D02*
X034068Y011100D01*
X034026Y011117D02*
X033840Y011117D01*
X033669Y011046D01*
X033538Y010914D01*
X033466Y010743D01*
X033466Y010557D01*
X033538Y010386D01*
X033669Y010254D01*
X033840Y010183D01*
X034026Y010183D01*
X034198Y010254D01*
X034329Y010386D01*
X034400Y010557D01*
X034400Y010743D01*
X034329Y010914D01*
X034198Y011046D01*
X034026Y011117D01*
X033799Y011100D02*
X033068Y011100D01*
X033026Y011117D02*
X032840Y011117D01*
X032669Y011046D01*
X032538Y010914D01*
X032466Y010743D01*
X032466Y010557D01*
X032538Y010386D01*
X032669Y010254D01*
X032840Y010183D01*
X033026Y010183D01*
X033198Y010254D01*
X033329Y010386D01*
X033400Y010557D01*
X033400Y010743D01*
X033329Y010914D01*
X033198Y011046D01*
X033026Y011117D01*
X032799Y011100D02*
X032068Y011100D01*
X032026Y011117D02*
X031840Y011117D01*
X031669Y011046D01*
X031538Y010914D01*
X031466Y010743D01*
X031466Y010557D01*
X031538Y010386D01*
X031669Y010254D01*
X031840Y010183D01*
X032026Y010183D01*
X032198Y010254D01*
X032329Y010386D01*
X032400Y010557D01*
X032400Y010743D01*
X032329Y010914D01*
X032198Y011046D01*
X032026Y011117D01*
X031799Y011100D02*
X031068Y011100D01*
X031303Y010941D02*
X031564Y010941D01*
X031483Y010783D02*
X031384Y010783D01*
X031400Y010624D02*
X031466Y010624D01*
X031504Y010466D02*
X031362Y010466D01*
X031251Y010307D02*
X031616Y010307D01*
X032251Y010307D02*
X032616Y010307D01*
X032504Y010466D02*
X032362Y010466D01*
X032400Y010624D02*
X032466Y010624D01*
X032483Y010783D02*
X032384Y010783D01*
X032303Y010941D02*
X032564Y010941D01*
X032750Y011417D02*
X030118Y011417D01*
X030118Y011575D02*
X032645Y011575D01*
X032649Y011734D02*
X030118Y011734D01*
X030118Y011892D02*
X032758Y011892D01*
X032771Y012051D02*
X030118Y012051D01*
X030118Y012209D02*
X032613Y012209D01*
X032454Y012368D02*
X030118Y012368D01*
X030118Y012526D02*
X032296Y012526D01*
X032137Y012685D02*
X030118Y012685D01*
X029658Y012843D02*
X031979Y012843D01*
X031820Y013002D02*
X030546Y013002D01*
X030705Y013160D02*
X031662Y013160D01*
X031503Y013319D02*
X030863Y013319D01*
X031022Y013477D02*
X031189Y013477D01*
X031490Y013945D02*
X032510Y014965D01*
X033987Y014965D01*
X033591Y014569D01*
X033522Y014597D01*
X033344Y014597D01*
X033180Y014529D01*
X033054Y014403D01*
X032986Y014239D01*
X032986Y014061D01*
X033054Y013897D01*
X033180Y013771D01*
X033344Y013703D01*
X033522Y013703D01*
X033591Y013731D01*
X034987Y012335D01*
X033010Y012335D01*
X031728Y013617D01*
X031728Y013709D01*
X031683Y013817D01*
X031600Y013900D01*
X031492Y013945D01*
X031490Y013945D01*
X031497Y013953D02*
X031998Y013953D01*
X031991Y013967D02*
X032025Y013900D01*
X032069Y013839D01*
X032122Y013786D01*
X032183Y013742D01*
X032250Y013708D01*
X032322Y013685D01*
X032396Y013673D01*
X032425Y013673D01*
X032425Y014141D01*
X032442Y014141D01*
X032442Y013673D01*
X032471Y013673D01*
X032545Y013685D01*
X032617Y013708D01*
X032683Y013742D01*
X032744Y013786D01*
X032797Y013839D01*
X032841Y013900D01*
X032876Y013967D01*
X032899Y014038D01*
X032910Y014112D01*
X032910Y014141D01*
X032442Y014141D01*
X032442Y014159D01*
X032425Y014159D01*
X032425Y014627D01*
X032396Y014627D01*
X032322Y014615D01*
X032250Y014592D01*
X032183Y014558D01*
X032122Y014514D01*
X032069Y014461D01*
X032025Y014400D01*
X031991Y014333D01*
X031968Y014262D01*
X031956Y014188D01*
X031956Y014159D01*
X032425Y014159D01*
X032425Y014141D01*
X031956Y014141D01*
X031956Y014112D01*
X031968Y014038D01*
X031991Y013967D01*
X031956Y014111D02*
X031656Y014111D01*
X031814Y014270D02*
X031970Y014270D01*
X031973Y014428D02*
X032046Y014428D01*
X032131Y014587D02*
X032239Y014587D01*
X032290Y014745D02*
X033767Y014745D01*
X033925Y014904D02*
X032448Y014904D01*
X032442Y014627D02*
X032442Y014159D01*
X032910Y014159D01*
X032910Y014188D01*
X032899Y014262D01*
X032876Y014333D01*
X032841Y014400D01*
X032797Y014461D01*
X032744Y014514D01*
X032683Y014558D01*
X032617Y014592D01*
X032545Y014615D01*
X032471Y014627D01*
X032442Y014627D01*
X032442Y014587D02*
X032425Y014587D01*
X032425Y014428D02*
X032442Y014428D01*
X032425Y014270D02*
X032442Y014270D01*
X032425Y014111D02*
X032442Y014111D01*
X032425Y013953D02*
X032442Y013953D01*
X032425Y013794D02*
X032442Y013794D01*
X032752Y013794D02*
X033157Y013794D01*
X033031Y013953D02*
X032868Y013953D01*
X032910Y014111D02*
X032986Y014111D01*
X032999Y014270D02*
X032896Y014270D01*
X032821Y014428D02*
X033079Y014428D01*
X033319Y014587D02*
X032628Y014587D01*
X033548Y014587D02*
X033608Y014587D01*
X033852Y014307D02*
X034510Y014965D01*
X035701Y014965D01*
X035766Y014900D01*
X035875Y014855D01*
X035992Y014855D01*
X036100Y014900D01*
X036183Y014983D01*
X036228Y015091D01*
X036228Y015209D01*
X036191Y015300D01*
X039583Y015300D01*
X039583Y014795D01*
X039386Y014597D01*
X039344Y014597D01*
X039180Y014529D01*
X039054Y014403D01*
X038986Y014239D01*
X038986Y014061D01*
X039054Y013897D01*
X039180Y013771D01*
X039344Y013703D01*
X039522Y013703D01*
X039687Y013771D01*
X039812Y013897D01*
X039880Y014061D01*
X039880Y014102D01*
X040132Y014353D01*
X040230Y014452D01*
X040283Y014580D01*
X040283Y015720D01*
X040230Y015848D01*
X040132Y015947D01*
X040087Y015965D01*
X040510Y015965D01*
X040748Y016203D01*
X040748Y016203D01*
X041119Y016203D01*
X041248Y016333D01*
X041248Y016073D01*
X041357Y015965D01*
X041486Y015835D01*
X041486Y015465D01*
X041616Y015335D01*
X041510Y015335D01*
X041380Y015465D01*
X041380Y015465D01*
X041380Y015835D01*
X041119Y016097D01*
X040748Y016097D01*
X040486Y015835D01*
X040486Y015465D01*
X040748Y015203D01*
X041119Y015203D01*
X041248Y015073D01*
X041357Y014965D01*
X041616Y014965D01*
X041486Y014835D01*
X041486Y014465D01*
X041748Y014203D01*
X042119Y014203D01*
X042248Y014073D01*
X042357Y013965D01*
X043588Y013965D01*
X043538Y013914D01*
X043505Y013835D01*
X043357Y013835D01*
X043248Y013727D01*
X043248Y013727D01*
X042357Y012835D01*
X041010Y012835D01*
X040510Y013335D01*
X040118Y013335D01*
X040118Y013573D01*
X040748Y014203D01*
X040748Y014203D01*
X041119Y014203D01*
X041380Y014465D01*
X041380Y014835D01*
X041119Y015097D01*
X040748Y015097D01*
X040486Y014835D01*
X040486Y014465D01*
X040486Y014465D01*
X039857Y013835D01*
X039748Y013727D01*
X039748Y013073D01*
X039857Y012965D01*
X040357Y012965D01*
X040377Y012945D01*
X040375Y012945D01*
X040266Y012900D01*
X040183Y012817D01*
X040138Y012709D01*
X040138Y012617D01*
X039357Y011835D01*
X036857Y011835D01*
X036748Y011727D01*
X036106Y011084D01*
X036026Y011117D01*
X035840Y011117D01*
X035669Y011046D01*
X035618Y010995D01*
X035618Y011703D01*
X035638Y011683D01*
X035638Y011591D01*
X035683Y011483D01*
X035766Y011400D01*
X035875Y011355D01*
X035992Y011355D01*
X036100Y011400D01*
X036183Y011483D01*
X036228Y011591D01*
X036228Y011709D01*
X036183Y011817D01*
X036100Y011900D01*
X035992Y011945D01*
X035900Y011945D01*
X033852Y013993D01*
X033880Y014061D01*
X033880Y014239D01*
X033852Y014307D01*
X033868Y014270D02*
X033999Y014270D01*
X033986Y014239D02*
X033986Y014061D01*
X034054Y013897D01*
X034180Y013771D01*
X034344Y013703D01*
X034522Y013703D01*
X034591Y013731D01*
X035248Y013073D01*
X035357Y012965D01*
X035857Y012965D01*
X035997Y012825D01*
X035963Y012743D01*
X035963Y012557D01*
X036035Y012384D01*
X036167Y012252D01*
X036340Y012180D01*
X036527Y012180D01*
X036700Y012252D01*
X036832Y012384D01*
X036903Y012557D01*
X036903Y012743D01*
X036832Y012916D01*
X036783Y012965D01*
X036857Y012965D01*
X036997Y012825D01*
X036963Y012743D01*
X036963Y012557D01*
X037035Y012384D01*
X037167Y012252D01*
X037340Y012180D01*
X037527Y012180D01*
X037700Y012252D01*
X037832Y012384D01*
X037903Y012557D01*
X037903Y012743D01*
X037832Y012916D01*
X037783Y012965D01*
X037857Y012965D01*
X037997Y012825D01*
X037963Y012743D01*
X037963Y012557D01*
X038035Y012384D01*
X038167Y012252D01*
X038340Y012180D01*
X038527Y012180D01*
X038700Y012252D01*
X038832Y012384D01*
X038903Y012557D01*
X038903Y012743D01*
X038832Y012916D01*
X038783Y012965D01*
X038857Y012965D01*
X038997Y012825D01*
X038963Y012743D01*
X038963Y012557D01*
X039035Y012384D01*
X039167Y012252D01*
X039340Y012180D01*
X039527Y012180D01*
X039700Y012252D01*
X039832Y012384D01*
X039903Y012557D01*
X039903Y012743D01*
X039832Y012916D01*
X039700Y013048D01*
X039527Y013120D01*
X039340Y013120D01*
X039259Y013086D01*
X039010Y013335D01*
X038510Y013335D01*
X037852Y013993D01*
X037880Y014061D01*
X037880Y014239D01*
X037812Y014403D01*
X037687Y014529D01*
X037522Y014597D01*
X037344Y014597D01*
X037180Y014529D01*
X037054Y014403D01*
X036986Y014239D01*
X036986Y014061D01*
X037054Y013897D01*
X037180Y013771D01*
X037344Y013703D01*
X037522Y013703D01*
X037591Y013731D01*
X037987Y013335D01*
X037510Y013335D01*
X036852Y013993D01*
X036880Y014061D01*
X036880Y014239D01*
X036812Y014403D01*
X036687Y014529D01*
X036522Y014597D01*
X036344Y014597D01*
X036180Y014529D01*
X036054Y014403D01*
X035986Y014239D01*
X035986Y014061D01*
X036054Y013897D01*
X036180Y013771D01*
X036344Y013703D01*
X036522Y013703D01*
X036591Y013731D01*
X036987Y013335D01*
X036510Y013335D01*
X035852Y013993D01*
X035880Y014061D01*
X035880Y014239D01*
X035812Y014403D01*
X035687Y014529D01*
X035522Y014597D01*
X035344Y014597D01*
X035180Y014529D01*
X035054Y014403D01*
X034986Y014239D01*
X034986Y014061D01*
X035054Y013897D01*
X035180Y013771D01*
X035344Y013703D01*
X035522Y013703D01*
X035591Y013731D01*
X035987Y013335D01*
X035510Y013335D01*
X034852Y013993D01*
X034880Y014061D01*
X034880Y014239D01*
X034812Y014403D01*
X034687Y014529D01*
X034522Y014597D01*
X034344Y014597D01*
X034180Y014529D01*
X034054Y014403D01*
X033986Y014239D01*
X033986Y014111D02*
X033880Y014111D01*
X033892Y013953D02*
X034031Y013953D01*
X034051Y013794D02*
X034157Y013794D01*
X034209Y013636D02*
X034686Y013636D01*
X034845Y013477D02*
X034368Y013477D01*
X034526Y013319D02*
X035003Y013319D01*
X035162Y013160D02*
X034685Y013160D01*
X034843Y013002D02*
X035320Y013002D01*
X035248Y013073D02*
X035248Y013073D01*
X035002Y012843D02*
X035979Y012843D01*
X035963Y012685D02*
X035160Y012685D01*
X035319Y012526D02*
X035976Y012526D01*
X036051Y012368D02*
X035477Y012368D01*
X035636Y012209D02*
X036270Y012209D01*
X036597Y012209D02*
X037270Y012209D01*
X037051Y012368D02*
X036816Y012368D01*
X036891Y012526D02*
X036976Y012526D01*
X036963Y012685D02*
X036903Y012685D01*
X036862Y012843D02*
X036979Y012843D01*
X037816Y012368D02*
X038051Y012368D01*
X037976Y012526D02*
X037891Y012526D01*
X037903Y012685D02*
X037963Y012685D01*
X037979Y012843D02*
X037862Y012843D01*
X038862Y012843D02*
X038979Y012843D01*
X038963Y012685D02*
X038903Y012685D01*
X038891Y012526D02*
X038976Y012526D01*
X039051Y012368D02*
X038816Y012368D01*
X038597Y012209D02*
X039270Y012209D01*
X039597Y012209D02*
X039731Y012209D01*
X039816Y012368D02*
X039889Y012368D01*
X039891Y012526D02*
X040048Y012526D01*
X040138Y012685D02*
X039903Y012685D01*
X039862Y012843D02*
X040209Y012843D01*
X039820Y013002D02*
X039746Y013002D01*
X039748Y013160D02*
X039185Y013160D01*
X039026Y013319D02*
X039748Y013319D01*
X039748Y013477D02*
X038368Y013477D01*
X038396Y013673D02*
X038322Y013685D01*
X038250Y013708D01*
X038183Y013742D01*
X038122Y013786D01*
X038069Y013839D01*
X038025Y013900D01*
X037991Y013967D01*
X037968Y014038D01*
X037956Y014112D01*
X037956Y014141D01*
X038425Y014141D01*
X038442Y014141D01*
X038442Y013673D01*
X038471Y013673D01*
X038545Y013685D01*
X038617Y013708D01*
X038683Y013742D01*
X038744Y013786D01*
X038797Y013839D01*
X038841Y013900D01*
X038876Y013967D01*
X038899Y014038D01*
X038910Y014112D01*
X038910Y014141D01*
X038442Y014141D01*
X038442Y014159D01*
X038425Y014159D01*
X038425Y014627D01*
X038396Y014627D01*
X038322Y014615D01*
X038250Y014592D01*
X038183Y014558D01*
X038122Y014514D01*
X038069Y014461D01*
X038025Y014400D01*
X037991Y014333D01*
X037968Y014262D01*
X037956Y014188D01*
X037956Y014159D01*
X038425Y014159D01*
X038425Y014141D01*
X038425Y013673D01*
X038396Y013673D01*
X038425Y013794D02*
X038442Y013794D01*
X038425Y013953D02*
X038442Y013953D01*
X038425Y014111D02*
X038442Y014111D01*
X038442Y014159D02*
X038910Y014159D01*
X038910Y014188D01*
X038899Y014262D01*
X038876Y014333D01*
X038841Y014400D01*
X038797Y014461D01*
X038744Y014514D01*
X038683Y014558D01*
X038617Y014592D01*
X038545Y014615D01*
X038471Y014627D01*
X038442Y014627D01*
X038442Y014159D01*
X038442Y014270D02*
X038425Y014270D01*
X038425Y014428D02*
X038442Y014428D01*
X038425Y014587D02*
X038442Y014587D01*
X038628Y014587D02*
X039319Y014587D01*
X039533Y014745D02*
X034290Y014745D01*
X034319Y014587D02*
X034131Y014587D01*
X034079Y014428D02*
X033973Y014428D01*
X034548Y014587D02*
X035319Y014587D01*
X035548Y014587D02*
X036319Y014587D01*
X036548Y014587D02*
X037319Y014587D01*
X037548Y014587D02*
X038239Y014587D01*
X038046Y014428D02*
X037788Y014428D01*
X037868Y014270D02*
X037970Y014270D01*
X037956Y014111D02*
X037880Y014111D01*
X037892Y013953D02*
X037998Y013953D01*
X038051Y013794D02*
X038115Y013794D01*
X038209Y013636D02*
X039748Y013636D01*
X039710Y013794D02*
X039816Y013794D01*
X039836Y013953D02*
X039974Y013953D01*
X039889Y014111D02*
X040133Y014111D01*
X040048Y014270D02*
X040291Y014270D01*
X040206Y014428D02*
X040450Y014428D01*
X040486Y014587D02*
X040283Y014587D01*
X040283Y014745D02*
X040486Y014745D01*
X040554Y014904D02*
X040283Y014904D01*
X040283Y015062D02*
X040713Y015062D01*
X040730Y015221D02*
X040283Y015221D01*
X040283Y015379D02*
X040572Y015379D01*
X040486Y015538D02*
X040283Y015538D01*
X040283Y015696D02*
X040486Y015696D01*
X040505Y015855D02*
X040224Y015855D01*
X040558Y016013D02*
X040664Y016013D01*
X040716Y016172D02*
X041248Y016172D01*
X041246Y016330D02*
X041248Y016330D01*
X041203Y016013D02*
X041309Y016013D01*
X041361Y015855D02*
X041467Y015855D01*
X041486Y015835D02*
X041486Y015835D01*
X041486Y015696D02*
X041380Y015696D01*
X041380Y015538D02*
X041486Y015538D01*
X041466Y015379D02*
X041572Y015379D01*
X041260Y015062D02*
X041154Y015062D01*
X041119Y015203D02*
X041119Y015203D01*
X041312Y014904D02*
X041554Y014904D01*
X041486Y014745D02*
X041380Y014745D01*
X041380Y014587D02*
X041486Y014587D01*
X041523Y014428D02*
X041344Y014428D01*
X041185Y014270D02*
X041681Y014270D01*
X041748Y014097D02*
X041486Y013835D01*
X041486Y013465D01*
X041748Y013203D01*
X042119Y013203D01*
X042380Y013465D01*
X042380Y013835D01*
X042119Y014097D01*
X041748Y014097D01*
X041603Y013953D02*
X041306Y013953D01*
X041410Y013848D02*
X041131Y014127D01*
X040942Y014127D01*
X040942Y013659D01*
X040925Y013659D01*
X040925Y014127D01*
X040736Y014127D01*
X040456Y013848D01*
X040456Y013659D01*
X040925Y013659D01*
X040925Y013641D01*
X040942Y013641D01*
X040942Y013173D01*
X041131Y013173D01*
X041410Y013452D01*
X041410Y013641D01*
X040942Y013641D01*
X040942Y013659D01*
X041410Y013659D01*
X041410Y013848D01*
X041410Y013794D02*
X041486Y013794D01*
X041486Y013636D02*
X041410Y013636D01*
X041410Y013477D02*
X041486Y013477D01*
X041632Y013319D02*
X041277Y013319D01*
X040942Y013319D02*
X040925Y013319D01*
X040925Y013173D02*
X040925Y013641D01*
X040456Y013641D01*
X040456Y013452D01*
X040736Y013173D01*
X040925Y013173D01*
X040843Y013002D02*
X042523Y013002D01*
X042682Y013160D02*
X040685Y013160D01*
X040590Y013319D02*
X040526Y013319D01*
X040456Y013477D02*
X040118Y013477D01*
X040180Y013636D02*
X040456Y013636D01*
X040456Y013794D02*
X040339Y013794D01*
X040497Y013953D02*
X040561Y013953D01*
X040656Y014111D02*
X040720Y014111D01*
X040925Y014111D02*
X040942Y014111D01*
X040925Y013953D02*
X040942Y013953D01*
X040925Y013794D02*
X040942Y013794D01*
X040925Y013636D02*
X040942Y013636D01*
X040925Y013477D02*
X040942Y013477D01*
X041002Y012843D02*
X042365Y012843D01*
X042234Y013319D02*
X042840Y013319D01*
X042999Y013477D02*
X042380Y013477D01*
X042380Y013636D02*
X043157Y013636D01*
X043316Y013794D02*
X042380Y013794D01*
X042263Y013953D02*
X043576Y013953D01*
X044291Y013953D02*
X044369Y013953D01*
X044379Y013794D02*
X044488Y013794D01*
X044466Y013636D02*
X044400Y013636D01*
X044367Y013477D02*
X044500Y013477D01*
X044605Y013319D02*
X044262Y013319D01*
X044284Y013002D02*
X044582Y013002D01*
X044610Y013029D02*
X044554Y012974D01*
X044508Y012910D01*
X044473Y012841D01*
X044449Y012766D01*
X044436Y012689D01*
X044436Y012668D01*
X044915Y012668D01*
X044915Y012632D01*
X044436Y012632D01*
X044436Y012611D01*
X044449Y012534D01*
X044473Y012459D01*
X044508Y012390D01*
X044554Y012326D01*
X044610Y012271D01*
X044673Y012225D01*
X044743Y012190D01*
X044817Y012165D01*
X044894Y012153D01*
X044915Y012153D01*
X044915Y012632D01*
X044952Y012632D01*
X044952Y012668D01*
X045430Y012668D01*
X045430Y012689D01*
X045418Y012766D01*
X045394Y012841D01*
X045358Y012910D01*
X045312Y012974D01*
X045257Y013029D01*
X045194Y013075D01*
X045124Y013110D01*
X045050Y013135D01*
X044972Y013147D01*
X044952Y013147D01*
X044952Y012668D01*
X044915Y012668D01*
X044915Y013147D01*
X044894Y013147D01*
X044817Y013135D01*
X044743Y013110D01*
X044673Y013075D01*
X044610Y013029D01*
X044474Y012843D02*
X044393Y012843D01*
X044430Y012685D02*
X044436Y012685D01*
X044430Y012632D02*
X043952Y012632D01*
X043952Y012153D01*
X043972Y012153D01*
X044050Y012165D01*
X044124Y012190D01*
X044194Y012225D01*
X044257Y012271D01*
X044312Y012326D01*
X044358Y012390D01*
X044394Y012459D01*
X044418Y012534D01*
X044430Y012611D01*
X044430Y012632D01*
X044415Y012526D02*
X044451Y012526D01*
X044524Y012368D02*
X044342Y012368D01*
X044162Y012209D02*
X044704Y012209D01*
X044915Y012209D02*
X044952Y012209D01*
X044952Y012153D02*
X044972Y012153D01*
X045050Y012165D01*
X045124Y012190D01*
X045194Y012225D01*
X045257Y012271D01*
X045312Y012326D01*
X045358Y012390D01*
X045394Y012459D01*
X045418Y012534D01*
X045430Y012611D01*
X045430Y012632D01*
X044952Y012632D01*
X044952Y012153D01*
X044952Y012368D02*
X044915Y012368D01*
X044915Y012526D02*
X044952Y012526D01*
X044952Y012685D02*
X044915Y012685D01*
X044915Y012843D02*
X044952Y012843D01*
X044952Y013002D02*
X044915Y013002D01*
X045284Y013002D02*
X046248Y013002D01*
X046248Y013160D02*
X043728Y013160D01*
X043915Y013002D02*
X043952Y013002D01*
X043952Y012843D02*
X043915Y012843D01*
X043915Y012685D02*
X043952Y012685D01*
X043952Y012526D02*
X043915Y012526D01*
X043915Y012368D02*
X043952Y012368D01*
X043952Y012209D02*
X043915Y012209D01*
X043704Y012209D02*
X042754Y012209D01*
X042912Y012368D02*
X043524Y012368D01*
X043451Y012526D02*
X043071Y012526D01*
X043229Y012685D02*
X043436Y012685D01*
X043474Y012843D02*
X043388Y012843D01*
X043758Y011892D02*
X040437Y011892D01*
X040278Y011734D02*
X043649Y011734D01*
X043597Y011575D02*
X040120Y011575D01*
X039961Y011417D02*
X043438Y011417D01*
X043280Y011258D02*
X039803Y011258D01*
X039840Y011117D02*
X039669Y011046D01*
X039538Y010914D01*
X039466Y010743D01*
X039466Y010557D01*
X039538Y010386D01*
X039669Y010254D01*
X039840Y010183D01*
X040026Y010183D01*
X040198Y010254D01*
X040329Y010386D01*
X040400Y010557D01*
X040400Y010743D01*
X040329Y010914D01*
X040198Y011046D01*
X040026Y011117D01*
X039840Y011117D01*
X039799Y011100D02*
X039644Y011100D01*
X039564Y010941D02*
X039303Y010941D01*
X039384Y010783D02*
X039483Y010783D01*
X039466Y010624D02*
X039400Y010624D01*
X039362Y010466D02*
X039504Y010466D01*
X039616Y010307D02*
X039251Y010307D01*
X038618Y010149D02*
X043248Y010149D01*
X043248Y009990D02*
X038535Y009990D01*
X038376Y009832D02*
X043248Y009832D01*
X043248Y009673D02*
X038218Y009673D01*
X038059Y009515D02*
X039690Y009515D01*
X039531Y009356D02*
X035118Y009356D01*
X035118Y009515D02*
X035307Y009515D01*
X035248Y009673D02*
X035118Y009673D01*
X035118Y009832D02*
X035248Y009832D01*
X035248Y009990D02*
X035118Y009990D01*
X035118Y010149D02*
X035248Y010149D01*
X035248Y010307D02*
X035118Y010307D01*
X035118Y010466D02*
X035248Y010466D01*
X035248Y010624D02*
X035118Y010624D01*
X035118Y010783D02*
X035248Y010783D01*
X035248Y010941D02*
X035118Y010941D01*
X035118Y011100D02*
X035248Y011100D01*
X035248Y011258D02*
X035118Y011258D01*
X035118Y011417D02*
X035248Y011417D01*
X035247Y011575D02*
X035118Y011575D01*
X034930Y011892D02*
X033109Y011892D01*
X032977Y012368D02*
X034954Y012368D01*
X034796Y012526D02*
X032819Y012526D01*
X032660Y012685D02*
X034637Y012685D01*
X034479Y012843D02*
X032502Y012843D01*
X032343Y013002D02*
X034320Y013002D01*
X034162Y013160D02*
X032185Y013160D01*
X032026Y013319D02*
X034003Y013319D01*
X033845Y013477D02*
X031868Y013477D01*
X031728Y013636D02*
X033686Y013636D01*
X034892Y013953D02*
X035031Y013953D01*
X035051Y013794D02*
X035157Y013794D01*
X035209Y013636D02*
X035686Y013636D01*
X035845Y013477D02*
X035368Y013477D01*
X035892Y013953D02*
X036031Y013953D01*
X036051Y013794D02*
X036157Y013794D01*
X036209Y013636D02*
X036686Y013636D01*
X036845Y013477D02*
X036368Y013477D01*
X036892Y013953D02*
X037031Y013953D01*
X037051Y013794D02*
X037157Y013794D01*
X037209Y013636D02*
X037686Y013636D01*
X037845Y013477D02*
X037368Y013477D01*
X036986Y014111D02*
X036880Y014111D01*
X036868Y014270D02*
X036999Y014270D01*
X037079Y014428D02*
X036788Y014428D01*
X036079Y014428D02*
X035788Y014428D01*
X035868Y014270D02*
X035999Y014270D01*
X035986Y014111D02*
X035880Y014111D01*
X035763Y014904D02*
X034448Y014904D01*
X034788Y014428D02*
X035079Y014428D01*
X034999Y014270D02*
X034868Y014270D01*
X034880Y014111D02*
X034986Y014111D01*
X036104Y014904D02*
X039583Y014904D01*
X039583Y015062D02*
X036216Y015062D01*
X036223Y015221D02*
X039583Y015221D01*
X039079Y014428D02*
X038821Y014428D01*
X038896Y014270D02*
X038999Y014270D01*
X038986Y014111D02*
X038910Y014111D01*
X038868Y013953D02*
X039031Y013953D01*
X039157Y013794D02*
X038752Y013794D01*
X038270Y012209D02*
X037597Y012209D01*
X036755Y011734D02*
X036218Y011734D01*
X036222Y011575D02*
X036597Y011575D01*
X036438Y011417D02*
X036117Y011417D01*
X036280Y011258D02*
X035618Y011258D01*
X035618Y011100D02*
X035799Y011100D01*
X036068Y011100D02*
X036121Y011100D01*
X035750Y011417D02*
X035618Y011417D01*
X035618Y011575D02*
X035645Y011575D01*
X035794Y012051D02*
X039572Y012051D01*
X039414Y011892D02*
X036109Y011892D01*
X034748Y011417D02*
X033117Y011417D01*
X033303Y010941D02*
X033564Y010941D01*
X033483Y010783D02*
X033384Y010783D01*
X033400Y010624D02*
X033466Y010624D01*
X033504Y010466D02*
X033362Y010466D01*
X033251Y010307D02*
X033616Y010307D01*
X034251Y010307D02*
X034748Y010307D01*
X034748Y010149D02*
X021618Y010149D01*
X021618Y009990D02*
X034748Y009990D01*
X034748Y009832D02*
X023013Y009832D01*
X023172Y009673D02*
X034748Y009673D01*
X034748Y009515D02*
X029177Y009515D01*
X029335Y009356D02*
X034748Y009356D01*
X034964Y008881D02*
X037248Y008881D01*
X037248Y008722D02*
X035118Y008722D01*
X035255Y008564D02*
X036111Y008564D01*
X035976Y008405D02*
X035391Y008405D01*
X035453Y008247D02*
X035913Y008247D01*
X035913Y008088D02*
X035453Y008088D01*
X035405Y007930D02*
X035962Y007930D01*
X036077Y007771D02*
X035290Y007771D01*
X034577Y007771D02*
X034290Y007771D01*
X034405Y007930D02*
X034462Y007930D01*
X033577Y007771D02*
X033316Y007771D01*
X033157Y007613D02*
X038248Y007613D01*
X038248Y007771D02*
X037790Y007771D01*
X037905Y007930D02*
X038248Y007930D01*
X038248Y008088D02*
X037953Y008088D01*
X037953Y008247D02*
X038248Y008247D01*
X038248Y008405D02*
X037891Y008405D01*
X037755Y008564D02*
X038248Y008564D01*
X038248Y008722D02*
X037618Y008722D01*
X037618Y008881D02*
X038402Y008881D01*
X038561Y009039D02*
X037618Y009039D01*
X037618Y009198D02*
X038719Y009198D01*
X039510Y008465D02*
X039363Y008318D01*
X039363Y007972D01*
X039226Y007835D01*
X040598Y007835D01*
X040473Y007959D01*
X040473Y008150D01*
X040933Y008150D01*
X040933Y008150D01*
X040473Y008150D01*
X040473Y008341D01*
X040598Y008465D01*
X039510Y008465D01*
X039450Y008405D02*
X040538Y008405D01*
X040473Y008247D02*
X039363Y008247D01*
X039363Y008088D02*
X040473Y008088D01*
X040503Y007930D02*
X039321Y007930D01*
X040272Y008881D02*
X041996Y008881D01*
X041933Y008943D02*
X042226Y008650D01*
X042413Y008650D01*
X042413Y009130D01*
X041933Y009130D01*
X041933Y008943D01*
X041933Y009039D02*
X040363Y009039D01*
X040363Y009198D02*
X041933Y009198D01*
X041933Y009170D02*
X042413Y009170D01*
X042413Y009130D01*
X042453Y009130D01*
X042453Y008650D01*
X042640Y008650D01*
X042933Y008943D01*
X042933Y009130D01*
X042453Y009130D01*
X042453Y009170D01*
X042413Y009170D01*
X042413Y009650D01*
X042226Y009650D01*
X041933Y009357D01*
X041933Y009170D01*
X041933Y009356D02*
X040335Y009356D01*
X040177Y009515D02*
X042091Y009515D01*
X042413Y009515D02*
X042453Y009515D01*
X042453Y009650D02*
X042453Y009170D01*
X042933Y009170D01*
X042933Y009357D01*
X042640Y009650D01*
X042453Y009650D01*
X042453Y009356D02*
X042413Y009356D01*
X042413Y009198D02*
X042453Y009198D01*
X042453Y009039D02*
X042413Y009039D01*
X042413Y008881D02*
X042453Y008881D01*
X042453Y008722D02*
X042413Y008722D01*
X042154Y008722D02*
X042123Y008722D01*
X041857Y008465D02*
X041970Y008352D01*
X041963Y008345D01*
X041963Y007955D01*
X042084Y007835D01*
X041269Y007835D01*
X041393Y007959D01*
X041393Y008150D01*
X041393Y008341D01*
X041269Y008465D01*
X041857Y008465D01*
X041917Y008405D02*
X041329Y008405D01*
X041393Y008247D02*
X041963Y008247D01*
X041963Y008088D02*
X041393Y008088D01*
X041393Y008150D02*
X040933Y008150D01*
X041393Y008150D01*
X041363Y007930D02*
X041989Y007930D01*
X042878Y007930D02*
X042989Y007930D01*
X042963Y008088D02*
X042903Y008088D01*
X042903Y008247D02*
X042963Y008247D01*
X043024Y008405D02*
X042843Y008405D01*
X042685Y008564D02*
X043182Y008564D01*
X043197Y008722D02*
X042712Y008722D01*
X042871Y008881D02*
X043038Y008881D01*
X042963Y009039D02*
X042933Y009039D01*
X042933Y009198D02*
X042963Y009198D01*
X042975Y009356D02*
X042933Y009356D01*
X042776Y009515D02*
X043133Y009515D01*
X042616Y010307D02*
X042251Y010307D01*
X042198Y010254D02*
X042329Y010386D01*
X042400Y010557D01*
X042400Y010743D01*
X042329Y010914D01*
X042198Y011046D01*
X042026Y011117D01*
X041840Y011117D01*
X041669Y011046D01*
X041538Y010914D01*
X041466Y010743D01*
X041466Y010557D01*
X041538Y010386D01*
X041669Y010254D01*
X041840Y010183D01*
X042026Y010183D01*
X042198Y010254D01*
X042362Y010466D02*
X042504Y010466D01*
X042466Y010624D02*
X042400Y010624D01*
X042384Y010783D02*
X042483Y010783D01*
X042564Y010941D02*
X042303Y010941D01*
X042068Y011100D02*
X042799Y011100D01*
X043068Y011100D02*
X043248Y011100D01*
X044118Y010941D02*
X044177Y010941D01*
X044123Y010811D02*
X044123Y010489D01*
X044247Y010191D01*
X044475Y009963D01*
X044772Y009840D01*
X045094Y009840D01*
X045392Y009963D01*
X045620Y010191D01*
X045743Y010489D01*
X045743Y010811D01*
X045620Y011109D01*
X045392Y011337D01*
X045094Y011460D01*
X044772Y011460D01*
X044475Y011337D01*
X044247Y011109D01*
X044123Y010811D01*
X044118Y010783D02*
X044123Y010783D01*
X044118Y010624D02*
X044123Y010624D01*
X044118Y010466D02*
X044133Y010466D01*
X044118Y010307D02*
X044199Y010307D01*
X044118Y010149D02*
X044289Y010149D01*
X044448Y009990D02*
X044118Y009990D01*
X044118Y009832D02*
X044853Y009832D01*
X044748Y009673D02*
X044118Y009673D01*
X044118Y009515D02*
X044133Y009515D01*
X044734Y009515D02*
X044748Y009515D01*
X045419Y009990D02*
X046248Y009990D01*
X046248Y010149D02*
X045577Y010149D01*
X045668Y010307D02*
X046248Y010307D01*
X046248Y010466D02*
X045734Y010466D01*
X045743Y010624D02*
X046248Y010624D01*
X046248Y010783D02*
X045743Y010783D01*
X045689Y010941D02*
X046248Y010941D01*
X046248Y011100D02*
X045624Y011100D01*
X045471Y011258D02*
X046248Y011258D01*
X046248Y011417D02*
X045199Y011417D01*
X045620Y011575D02*
X046248Y011575D01*
X046248Y011734D02*
X045778Y011734D01*
X046081Y011892D02*
X046248Y011892D01*
X046248Y012051D02*
X046211Y012051D01*
X046248Y012368D02*
X046133Y012368D01*
X046248Y012526D02*
X045415Y012526D01*
X045430Y012685D02*
X046248Y012685D01*
X046248Y012843D02*
X045393Y012843D01*
X045342Y012368D02*
X045734Y012368D01*
X045638Y012209D02*
X045162Y012209D01*
X045414Y011892D02*
X044109Y011892D01*
X044218Y011734D02*
X044255Y011734D01*
X044461Y011417D02*
X044667Y011417D01*
X044396Y011258D02*
X044303Y011258D01*
X044243Y011100D02*
X044144Y011100D01*
X045572Y012051D02*
X042595Y012051D01*
X041799Y011100D02*
X041068Y011100D01*
X041026Y011117D02*
X040840Y011117D01*
X040669Y011046D01*
X040538Y010914D01*
X040466Y010743D01*
X040466Y010557D01*
X040538Y010386D01*
X040669Y010254D01*
X040840Y010183D01*
X041026Y010183D01*
X041198Y010254D01*
X041329Y010386D01*
X041400Y010557D01*
X041400Y010743D01*
X041329Y010914D01*
X041198Y011046D01*
X041026Y011117D01*
X040799Y011100D02*
X040068Y011100D01*
X040303Y010941D02*
X040564Y010941D01*
X040483Y010783D02*
X040384Y010783D01*
X040400Y010624D02*
X040466Y010624D01*
X040504Y010466D02*
X040362Y010466D01*
X040251Y010307D02*
X040616Y010307D01*
X041251Y010307D02*
X041616Y010307D01*
X041504Y010466D02*
X041362Y010466D01*
X041400Y010624D02*
X041466Y010624D01*
X041483Y010783D02*
X041384Y010783D01*
X041303Y010941D02*
X041564Y010941D01*
X043670Y008722D02*
X043744Y008722D01*
X044950Y008405D02*
X045024Y008405D01*
X044963Y008247D02*
X044903Y008247D01*
X044903Y008088D02*
X044963Y008088D01*
X044951Y007930D02*
X044878Y007930D01*
X045157Y007613D02*
X046748Y007613D01*
X046748Y007454D02*
X022282Y007454D01*
X022293Y007613D02*
X029209Y007613D01*
X029051Y007771D02*
X028162Y007771D01*
X028111Y007720D02*
X028363Y007972D01*
X028363Y008328D01*
X028111Y008580D01*
X027755Y008580D01*
X027503Y008328D01*
X027503Y007972D01*
X027755Y007720D01*
X028111Y007720D01*
X028321Y007930D02*
X028892Y007930D01*
X028734Y008088D02*
X028363Y008088D01*
X028363Y008247D02*
X028575Y008247D01*
X028417Y008405D02*
X028286Y008405D01*
X028258Y008564D02*
X028128Y008564D01*
X028100Y008722D02*
X025613Y008722D01*
X025772Y008881D02*
X027941Y008881D01*
X027739Y008564D02*
X026628Y008564D01*
X026611Y008580D02*
X026255Y008580D01*
X026003Y008328D01*
X026003Y007972D01*
X026255Y007720D01*
X026611Y007720D01*
X026863Y007972D01*
X026863Y008328D01*
X026611Y008580D01*
X026786Y008405D02*
X027580Y008405D01*
X027503Y008247D02*
X026863Y008247D01*
X026863Y008088D02*
X027503Y008088D01*
X027546Y007930D02*
X026821Y007930D01*
X026662Y007771D02*
X027704Y007771D01*
X028940Y008405D02*
X029580Y008405D01*
X029503Y008247D02*
X029098Y008247D01*
X029257Y008088D02*
X029503Y008088D01*
X029546Y007930D02*
X029415Y007930D01*
X029258Y008564D02*
X028781Y008564D01*
X028753Y008722D02*
X028623Y008722D01*
X028595Y008881D02*
X028464Y008881D01*
X028503Y009039D02*
X028306Y009039D01*
X028147Y009198D02*
X028503Y009198D01*
X028531Y009356D02*
X025835Y009356D01*
X025677Y009515D02*
X028690Y009515D01*
X029363Y009198D02*
X032248Y009198D01*
X032248Y009039D02*
X029363Y009039D01*
X029464Y008881D02*
X032248Y008881D01*
X032248Y008722D02*
X032118Y008722D01*
X031748Y007613D02*
X030657Y007613D01*
X030816Y007771D02*
X031077Y007771D01*
X034362Y010466D02*
X034748Y010466D01*
X034748Y010624D02*
X034400Y010624D01*
X034384Y010783D02*
X034748Y010783D01*
X034748Y010941D02*
X034303Y010941D01*
X036755Y008564D02*
X037111Y008564D01*
X036976Y008405D02*
X036891Y008405D01*
X036905Y007930D02*
X036962Y007930D01*
X037077Y007771D02*
X036790Y007771D01*
X040933Y008150D02*
X040933Y008150D01*
X045108Y008564D02*
X045182Y008564D01*
X045197Y008722D02*
X045118Y008722D01*
X045670Y008722D02*
X046197Y008722D01*
X046140Y008564D02*
X045685Y008564D01*
X045843Y008405D02*
X045981Y008405D01*
X045933Y008247D02*
X045903Y008247D01*
X045903Y008088D02*
X045933Y008088D01*
X045947Y007930D02*
X045878Y007930D01*
X045719Y007771D02*
X046105Y007771D01*
X046413Y007771D02*
X046453Y007771D01*
X046453Y007930D02*
X046413Y007930D01*
X046413Y008088D02*
X046453Y008088D01*
X046453Y008247D02*
X046413Y008247D01*
X046413Y008405D02*
X046453Y008405D01*
X046453Y008564D02*
X046413Y008564D01*
X046670Y008722D02*
X046748Y008722D01*
X046748Y008564D02*
X046727Y008564D01*
X046038Y008881D02*
X045829Y008881D01*
X045903Y009039D02*
X045963Y009039D01*
X045963Y009198D02*
X045903Y009198D01*
X045892Y009356D02*
X045975Y009356D01*
X046618Y009620D02*
X046618Y016727D01*
X046510Y016835D01*
X045510Y017835D01*
X045362Y017835D01*
X045329Y017914D01*
X045198Y018046D01*
X045026Y018117D01*
X044840Y018117D01*
X044669Y018046D01*
X044538Y017914D01*
X044466Y017743D01*
X044466Y017557D01*
X044538Y017386D01*
X044588Y017335D01*
X044279Y017335D01*
X044329Y017386D01*
X044400Y017557D01*
X044400Y017743D01*
X044329Y017914D01*
X044198Y018046D01*
X044026Y018117D01*
X043840Y018117D01*
X043718Y018066D01*
X043728Y018091D01*
X043728Y018209D01*
X043718Y018234D01*
X043840Y018183D01*
X044026Y018183D01*
X044198Y018254D01*
X044329Y018386D01*
X044400Y018557D01*
X044400Y018743D01*
X044329Y018914D01*
X044198Y019046D01*
X044026Y019117D01*
X043840Y019117D01*
X043669Y019046D01*
X043538Y018914D01*
X043466Y018743D01*
X043466Y018557D01*
X043517Y018435D01*
X043492Y018445D01*
X043375Y018445D01*
X043266Y018400D01*
X043201Y018335D01*
X034510Y018335D01*
X033852Y018993D01*
X033880Y019061D01*
X033880Y019239D01*
X033812Y019403D01*
X033687Y019529D01*
X033522Y019597D01*
X033344Y019597D01*
X033180Y019529D01*
X033118Y019467D01*
X033118Y020727D01*
X033010Y020835D01*
X032010Y021835D01*
X031666Y021835D01*
X031600Y021900D01*
X031492Y021945D01*
X031375Y021945D01*
X031266Y021900D01*
X031183Y021817D01*
X031138Y021709D01*
X031138Y021591D01*
X031183Y021483D01*
X031266Y021400D01*
X031375Y021355D01*
X031492Y021355D01*
X031600Y021400D01*
X031666Y021465D01*
X031857Y021465D01*
X031987Y021335D01*
X030510Y021335D01*
X030118Y021727D01*
X030010Y021835D01*
X025166Y021835D01*
X025100Y021900D01*
X024992Y021945D01*
X024875Y021945D01*
X024766Y021900D01*
X024683Y021817D01*
X024638Y021709D01*
X024638Y021617D01*
X024357Y021335D01*
X020933Y021335D01*
X020933Y021465D01*
X023510Y021465D01*
X023618Y021573D01*
X024900Y022855D01*
X024992Y022855D01*
X025100Y022900D01*
X025183Y022983D01*
X025228Y023091D01*
X025228Y023209D01*
X025183Y023317D01*
X025100Y023400D01*
X024992Y023445D01*
X024875Y023445D01*
X024766Y023400D01*
X024683Y023317D01*
X024638Y023209D01*
X024638Y023117D01*
X023357Y021835D01*
X020933Y021835D01*
X020933Y021965D01*
X021510Y021965D01*
X021618Y022073D01*
X021735Y022190D01*
X021741Y022185D01*
X022126Y022185D01*
X022398Y022457D01*
X022398Y022843D01*
X022126Y023115D01*
X021741Y023115D01*
X021468Y022843D01*
X021468Y022457D01*
X021474Y022452D01*
X021357Y022335D01*
X021276Y022335D01*
X021398Y022457D01*
X021398Y022843D01*
X021393Y022848D01*
X022010Y023465D01*
X026857Y023465D01*
X027528Y022794D01*
X027503Y022736D01*
X027503Y022564D01*
X027569Y022406D01*
X027676Y022299D01*
X027638Y022209D01*
X027638Y022091D01*
X027683Y021983D01*
X027766Y021900D01*
X027875Y021855D01*
X027992Y021855D01*
X028100Y021900D01*
X028166Y021965D01*
X029510Y021965D01*
X029618Y022073D01*
X029618Y022073D01*
X029789Y022244D01*
X029848Y022220D01*
X030019Y022220D01*
X030177Y022285D01*
X030298Y022406D01*
X030363Y022564D01*
X030363Y022736D01*
X030298Y022894D01*
X030177Y023015D01*
X030019Y023080D01*
X029848Y023080D01*
X029690Y023015D01*
X029569Y022894D01*
X029503Y022736D01*
X029503Y022564D01*
X029528Y022506D01*
X029357Y022335D01*
X029226Y022335D01*
X029298Y022406D01*
X029363Y022564D01*
X029363Y022736D01*
X029298Y022894D01*
X029177Y023015D01*
X029019Y023080D01*
X028848Y023080D01*
X028698Y023018D01*
X028728Y023091D01*
X028728Y023209D01*
X028720Y023230D01*
X028840Y023180D01*
X029027Y023180D01*
X029200Y023252D01*
X029332Y023384D01*
X029403Y023557D01*
X029403Y023743D01*
X029332Y023916D01*
X029200Y024048D01*
X029118Y024082D01*
X029118Y024465D01*
X031857Y024465D01*
X032857Y023465D01*
X034357Y023465D01*
X034997Y022825D01*
X034963Y022743D01*
X034963Y022557D01*
X035035Y022384D01*
X035167Y022252D01*
X035340Y022180D01*
X035527Y022180D01*
X035700Y022252D01*
X035832Y022384D01*
X035903Y022557D01*
X035903Y022743D01*
X035832Y022916D01*
X035700Y023048D01*
X035527Y023120D01*
X035340Y023120D01*
X035259Y023086D01*
X034880Y023465D01*
X037510Y023465D01*
X037618Y023573D01*
X038510Y024465D01*
X043010Y024465D01*
X043118Y024573D01*
X043118Y028573D01*
X043761Y029216D01*
X043840Y029183D01*
X044026Y029183D01*
X044198Y029254D01*
X044329Y029386D01*
X044362Y029465D01*
X044505Y029465D01*
X044538Y029386D01*
X044669Y029254D01*
X044840Y029183D01*
X045026Y029183D01*
X045198Y029254D01*
X045329Y029386D01*
X045400Y029557D01*
X045400Y029743D01*
X045329Y029914D01*
X045198Y030046D01*
X045026Y030117D01*
X044840Y030117D01*
X044669Y030046D01*
X044538Y029914D01*
X044505Y029835D01*
X044362Y029835D01*
X044329Y029914D01*
X044198Y030046D01*
X044026Y030117D01*
X043840Y030117D01*
X043669Y030046D01*
X043538Y029914D01*
X043466Y029743D01*
X043466Y029557D01*
X043499Y029478D01*
X042857Y028835D01*
X042748Y028727D01*
X042748Y024835D01*
X038380Y024835D01*
X038510Y024965D01*
X039010Y024965D01*
X039265Y025220D01*
X039611Y025220D01*
X039856Y025465D01*
X040510Y025465D01*
X042510Y027465D01*
X042618Y027573D01*
X042618Y030650D01*
X046748Y030650D01*
X046748Y028570D01*
X046728Y028591D01*
X046537Y028670D01*
X046330Y028670D01*
X046139Y028591D01*
X045992Y028445D01*
X045913Y028253D01*
X045913Y028047D01*
X045992Y027855D01*
X046139Y027709D01*
X046242Y027666D01*
X046222Y027660D01*
X046145Y027620D01*
X046075Y027570D01*
X046014Y027508D01*
X045963Y027438D01*
X045924Y027361D01*
X045897Y027279D01*
X045883Y027193D01*
X045883Y027170D01*
X046413Y027170D01*
X046413Y027130D01*
X045883Y027130D01*
X045883Y027107D01*
X045897Y027021D01*
X045924Y026939D01*
X045963Y026862D01*
X046014Y026792D01*
X046075Y026730D01*
X046145Y026680D01*
X046222Y026640D01*
X046305Y026614D01*
X046390Y026600D01*
X046413Y026600D01*
X046413Y027130D01*
X046453Y027130D01*
X046453Y026600D01*
X046477Y026600D01*
X046562Y026614D01*
X046644Y026640D01*
X046722Y026680D01*
X046748Y026699D01*
X046748Y021601D01*
X046722Y021620D01*
X046644Y021660D01*
X046562Y021686D01*
X046477Y021700D01*
X046453Y021700D01*
X046453Y021170D01*
X046413Y021170D01*
X046413Y021130D01*
X045883Y021130D01*
X045883Y021107D01*
X045897Y021021D01*
X045924Y020939D01*
X045963Y020862D01*
X046014Y020792D01*
X046075Y020730D01*
X046145Y020680D01*
X046222Y020640D01*
X046242Y020634D01*
X046139Y020591D01*
X045992Y020445D01*
X045913Y020253D01*
X045913Y020047D01*
X045992Y019855D01*
X046139Y019709D01*
X046330Y019630D01*
X046537Y019630D01*
X046728Y019709D01*
X046748Y019730D01*
X046748Y018500D01*
X046628Y018620D01*
X046239Y018620D01*
X045963Y018345D01*
X045963Y018335D01*
X045510Y018335D01*
X045367Y018478D01*
X045400Y018557D01*
X045400Y018743D01*
X045329Y018914D01*
X045198Y019046D01*
X045026Y019117D01*
X044840Y019117D01*
X044669Y019046D01*
X044538Y018914D01*
X044466Y018743D01*
X044466Y018557D01*
X044538Y018386D01*
X044669Y018254D01*
X044840Y018183D01*
X045026Y018183D01*
X045106Y018216D01*
X045248Y018073D01*
X045357Y017965D01*
X045963Y017965D01*
X045963Y017955D01*
X046239Y017680D01*
X046628Y017680D01*
X046748Y017800D01*
X046748Y009500D01*
X046628Y009620D01*
X046618Y009620D01*
X046618Y009673D02*
X046748Y009673D01*
X046734Y009515D02*
X046748Y009515D01*
X046748Y009832D02*
X046618Y009832D01*
X046618Y009990D02*
X046748Y009990D01*
X046748Y010149D02*
X046618Y010149D01*
X046618Y010307D02*
X046748Y010307D01*
X046748Y010466D02*
X046618Y010466D01*
X046618Y010624D02*
X046748Y010624D01*
X046748Y010783D02*
X046618Y010783D01*
X046618Y010941D02*
X046748Y010941D01*
X046748Y011100D02*
X046618Y011100D01*
X046618Y011258D02*
X046748Y011258D01*
X046748Y011417D02*
X046618Y011417D01*
X046618Y011575D02*
X046748Y011575D01*
X046748Y011734D02*
X046618Y011734D01*
X046618Y011892D02*
X046748Y011892D01*
X046748Y012051D02*
X046618Y012051D01*
X046618Y012209D02*
X046748Y012209D01*
X046748Y012368D02*
X046618Y012368D01*
X046618Y012526D02*
X046748Y012526D01*
X046748Y012685D02*
X046618Y012685D01*
X046618Y012843D02*
X046748Y012843D01*
X046748Y013002D02*
X046618Y013002D01*
X046618Y013160D02*
X046748Y013160D01*
X046748Y013319D02*
X046618Y013319D01*
X046618Y013477D02*
X046748Y013477D01*
X046748Y013636D02*
X046618Y013636D01*
X046618Y013794D02*
X046748Y013794D01*
X046748Y013953D02*
X046618Y013953D01*
X046618Y014111D02*
X046748Y014111D01*
X046748Y014270D02*
X046618Y014270D01*
X046618Y014428D02*
X046748Y014428D01*
X046748Y014587D02*
X046618Y014587D01*
X046618Y014745D02*
X046748Y014745D01*
X046748Y014904D02*
X046618Y014904D01*
X046618Y015062D02*
X046748Y015062D01*
X046748Y015221D02*
X046618Y015221D01*
X046618Y015379D02*
X046748Y015379D01*
X046748Y015538D02*
X046618Y015538D01*
X046618Y015696D02*
X046748Y015696D01*
X046748Y015855D02*
X046618Y015855D01*
X046618Y016013D02*
X046748Y016013D01*
X046748Y016172D02*
X046618Y016172D01*
X046618Y016330D02*
X046748Y016330D01*
X046748Y016489D02*
X046618Y016489D01*
X046618Y016647D02*
X046748Y016647D01*
X046748Y016806D02*
X046539Y016806D01*
X046381Y016964D02*
X046748Y016964D01*
X046748Y017123D02*
X046222Y017123D01*
X046064Y017281D02*
X046748Y017281D01*
X046748Y017440D02*
X045905Y017440D01*
X045747Y017598D02*
X046748Y017598D01*
X046748Y017757D02*
X046705Y017757D01*
X046162Y017757D02*
X045588Y017757D01*
X045329Y017915D02*
X046004Y017915D01*
X046009Y018391D02*
X045454Y018391D01*
X045397Y018549D02*
X046168Y018549D01*
X046699Y018549D02*
X046748Y018549D01*
X046748Y018708D02*
X045400Y018708D01*
X045349Y018866D02*
X046748Y018866D01*
X046748Y019025D02*
X045219Y019025D01*
X045198Y019254D02*
X045329Y019386D01*
X045400Y019557D01*
X045400Y019743D01*
X045329Y019914D01*
X045198Y020046D01*
X045026Y020117D01*
X044840Y020117D01*
X044669Y020046D01*
X044538Y019914D01*
X044466Y019743D01*
X044466Y019557D01*
X044538Y019386D01*
X044669Y019254D01*
X044840Y019183D01*
X045026Y019183D01*
X045198Y019254D01*
X045285Y019342D02*
X046748Y019342D01*
X046748Y019500D02*
X045377Y019500D01*
X045400Y019659D02*
X046261Y019659D01*
X046031Y019817D02*
X045369Y019817D01*
X045268Y019976D02*
X045943Y019976D01*
X045913Y020134D02*
X044679Y020134D01*
X044618Y020073D02*
X044761Y020216D01*
X044840Y020183D01*
X045026Y020183D01*
X045198Y020254D01*
X045329Y020386D01*
X045400Y020557D01*
X045400Y020743D01*
X045329Y020914D01*
X045198Y021046D01*
X045026Y021117D01*
X044840Y021117D01*
X044669Y021046D01*
X044538Y020914D01*
X044466Y020743D01*
X044466Y020557D01*
X044499Y020478D01*
X044357Y020335D01*
X044279Y020335D01*
X044329Y020386D01*
X044400Y020557D01*
X044400Y020743D01*
X044329Y020914D01*
X044198Y021046D01*
X044026Y021117D01*
X043840Y021117D01*
X043761Y021084D01*
X043510Y021335D01*
X040857Y021335D01*
X040748Y021227D01*
X040619Y021097D01*
X040619Y021097D01*
X040248Y021097D01*
X039986Y020835D01*
X039986Y020465D01*
X040248Y020203D01*
X040619Y020203D01*
X040880Y020465D01*
X040880Y020835D01*
X041010Y020965D01*
X043357Y020965D01*
X043499Y020822D01*
X043466Y020743D01*
X043466Y020557D01*
X043538Y020386D01*
X043588Y020335D01*
X043357Y020335D01*
X041967Y018945D01*
X041875Y018945D01*
X041766Y018900D01*
X041683Y018817D01*
X041638Y018709D01*
X041638Y018591D01*
X041683Y018483D01*
X041766Y018400D01*
X041875Y018355D01*
X041992Y018355D01*
X042100Y018400D01*
X042183Y018483D01*
X042228Y018591D01*
X042228Y018683D01*
X043510Y019965D01*
X043588Y019965D01*
X043538Y019914D01*
X043466Y019743D01*
X043466Y019557D01*
X043538Y019386D01*
X043669Y019254D01*
X043840Y019183D01*
X044026Y019183D01*
X044198Y019254D01*
X044329Y019386D01*
X044400Y019557D01*
X044400Y019743D01*
X044329Y019914D01*
X044279Y019965D01*
X044510Y019965D01*
X044618Y020073D01*
X044599Y019976D02*
X044520Y019976D01*
X044497Y019817D02*
X044369Y019817D01*
X044400Y019659D02*
X044466Y019659D01*
X044490Y019500D02*
X044377Y019500D01*
X044285Y019342D02*
X044582Y019342D01*
X044648Y019025D02*
X044219Y019025D01*
X044349Y018866D02*
X044517Y018866D01*
X044466Y018708D02*
X044400Y018708D01*
X044397Y018549D02*
X044470Y018549D01*
X044535Y018391D02*
X044331Y018391D01*
X044144Y018232D02*
X044722Y018232D01*
X044736Y018074D02*
X044131Y018074D01*
X044329Y017915D02*
X044538Y017915D01*
X044472Y017757D02*
X044395Y017757D01*
X044400Y017598D02*
X044466Y017598D01*
X044515Y017440D02*
X044351Y017440D01*
X043736Y018074D02*
X043721Y018074D01*
X043719Y018232D02*
X043722Y018232D01*
X043470Y018549D02*
X042211Y018549D01*
X042252Y018708D02*
X043466Y018708D01*
X043517Y018866D02*
X042411Y018866D01*
X042569Y019025D02*
X043648Y019025D01*
X043582Y019342D02*
X042886Y019342D01*
X042728Y019183D02*
X046748Y019183D01*
X046748Y019659D02*
X046606Y019659D01*
X045930Y020293D02*
X045236Y020293D01*
X045356Y020451D02*
X045999Y020451D01*
X046184Y020610D02*
X045400Y020610D01*
X045390Y020768D02*
X046037Y020768D01*
X045930Y020927D02*
X045317Y020927D01*
X045103Y021085D02*
X045887Y021085D01*
X045883Y021170D02*
X046413Y021170D01*
X046413Y021700D01*
X046390Y021700D01*
X046305Y021686D01*
X046222Y021660D01*
X046145Y021620D01*
X046075Y021570D01*
X046014Y021508D01*
X045963Y021438D01*
X045924Y021361D01*
X045897Y021279D01*
X045883Y021193D01*
X045883Y021170D01*
X045891Y021244D02*
X045172Y021244D01*
X045198Y021254D02*
X045329Y021386D01*
X045400Y021557D01*
X045400Y021743D01*
X045329Y021914D01*
X045198Y022046D01*
X045026Y022117D01*
X044840Y022117D01*
X044669Y022046D01*
X044538Y021914D01*
X044466Y021743D01*
X044466Y021557D01*
X044538Y021386D01*
X044669Y021254D01*
X044840Y021183D01*
X045026Y021183D01*
X045198Y021254D01*
X045336Y021402D02*
X045944Y021402D01*
X046066Y021561D02*
X045400Y021561D01*
X045400Y021719D02*
X046748Y021719D01*
X046748Y021878D02*
X045344Y021878D01*
X045208Y022036D02*
X046748Y022036D01*
X046748Y022195D02*
X045054Y022195D01*
X045026Y022183D02*
X045198Y022254D01*
X045329Y022386D01*
X045400Y022557D01*
X045400Y022743D01*
X045329Y022914D01*
X045198Y023046D01*
X045026Y023117D01*
X044840Y023117D01*
X044669Y023046D01*
X044538Y022914D01*
X044466Y022743D01*
X044466Y022557D01*
X044499Y022478D01*
X044357Y022335D01*
X044279Y022335D01*
X044329Y022386D01*
X044400Y022557D01*
X044400Y022743D01*
X044329Y022914D01*
X044198Y023046D01*
X044026Y023117D01*
X043840Y023117D01*
X043669Y023046D01*
X043538Y022914D01*
X043505Y022835D01*
X040880Y022835D01*
X040880Y022835D01*
X040619Y023097D01*
X040248Y023097D01*
X039986Y022835D01*
X039986Y022465D01*
X040248Y022203D01*
X040619Y022203D01*
X040880Y022465D01*
X043505Y022465D01*
X043538Y022386D01*
X043588Y022335D01*
X043166Y022335D01*
X043100Y022400D01*
X042992Y022445D01*
X042875Y022445D01*
X042766Y022400D01*
X042683Y022317D01*
X042638Y022209D01*
X042638Y022091D01*
X042683Y021983D01*
X042766Y021900D01*
X042875Y021855D01*
X042992Y021855D01*
X043100Y021900D01*
X043166Y021965D01*
X043588Y021965D01*
X043538Y021914D01*
X043505Y021835D01*
X040880Y021835D01*
X040880Y021835D01*
X040619Y022097D01*
X040248Y022097D01*
X039986Y021835D01*
X039986Y021465D01*
X040248Y021203D01*
X040619Y021203D01*
X040880Y021465D01*
X043505Y021465D01*
X043538Y021386D01*
X043669Y021254D01*
X043840Y021183D01*
X044026Y021183D01*
X044198Y021254D01*
X044329Y021386D01*
X044400Y021557D01*
X044400Y021743D01*
X044329Y021914D01*
X044279Y021965D01*
X044510Y021965D01*
X044618Y022073D01*
X044761Y022216D01*
X044840Y022183D01*
X045026Y022183D01*
X044813Y022195D02*
X044739Y022195D01*
X044659Y022036D02*
X044581Y022036D01*
X044522Y021878D02*
X044344Y021878D01*
X044400Y021719D02*
X044466Y021719D01*
X044466Y021561D02*
X044400Y021561D01*
X044336Y021402D02*
X044531Y021402D01*
X044695Y021244D02*
X044172Y021244D01*
X044103Y021085D02*
X044764Y021085D01*
X044550Y020927D02*
X044317Y020927D01*
X044390Y020768D02*
X044477Y020768D01*
X044466Y020610D02*
X044400Y020610D01*
X044356Y020451D02*
X044473Y020451D01*
X043764Y021085D02*
X043760Y021085D01*
X043695Y021244D02*
X043601Y021244D01*
X043531Y021402D02*
X040818Y021402D01*
X040880Y021465D02*
X040880Y021465D01*
X040765Y021244D02*
X040659Y021244D01*
X040971Y020927D02*
X042330Y020927D01*
X042375Y020945D02*
X042266Y020900D01*
X042183Y020817D01*
X042138Y020709D01*
X042138Y020617D01*
X040357Y018835D01*
X040166Y018835D01*
X040100Y018900D01*
X039992Y018945D01*
X039875Y018945D01*
X039824Y018924D01*
X039880Y019061D01*
X039880Y019239D01*
X039812Y019403D01*
X039687Y019529D01*
X039522Y019597D01*
X039344Y019597D01*
X039180Y019529D01*
X039054Y019403D01*
X038986Y019239D01*
X038986Y019061D01*
X039054Y018897D01*
X039180Y018771D01*
X039344Y018703D01*
X039522Y018703D01*
X039659Y018760D01*
X039638Y018709D01*
X039638Y018591D01*
X039683Y018483D01*
X039766Y018400D01*
X039875Y018355D01*
X039992Y018355D01*
X040100Y018400D01*
X040166Y018465D01*
X040510Y018465D01*
X040618Y018573D01*
X040618Y018573D01*
X042400Y020355D01*
X042492Y020355D01*
X042600Y020400D01*
X042683Y020483D01*
X042728Y020591D01*
X042728Y020709D01*
X042683Y020817D01*
X042600Y020900D01*
X042492Y020945D01*
X042375Y020945D01*
X042537Y020927D02*
X043395Y020927D01*
X043477Y020768D02*
X042704Y020768D01*
X042728Y020610D02*
X043466Y020610D01*
X043510Y020451D02*
X042652Y020451D01*
X042337Y020293D02*
X043314Y020293D01*
X043156Y020134D02*
X042179Y020134D01*
X042020Y019976D02*
X042997Y019976D01*
X042839Y019817D02*
X041862Y019817D01*
X041703Y019659D02*
X042680Y019659D01*
X042522Y019500D02*
X041545Y019500D01*
X041386Y019342D02*
X042363Y019342D01*
X042205Y019183D02*
X041228Y019183D01*
X041069Y019025D02*
X042046Y019025D01*
X041732Y018866D02*
X040911Y018866D01*
X040752Y018708D02*
X041638Y018708D01*
X041656Y018549D02*
X040594Y018549D01*
X040388Y018866D02*
X040135Y018866D01*
X039865Y019025D02*
X040546Y019025D01*
X040705Y019183D02*
X039880Y019183D01*
X039838Y019342D02*
X040863Y019342D01*
X041022Y019500D02*
X039716Y019500D01*
X039151Y019500D02*
X039045Y019500D01*
X039118Y019573D02*
X039118Y020227D01*
X039010Y020335D01*
X037510Y021835D01*
X034166Y021835D01*
X034100Y021900D01*
X033992Y021945D01*
X033875Y021945D01*
X033766Y021900D01*
X033683Y021817D01*
X033638Y021709D01*
X033638Y021591D01*
X033683Y021483D01*
X033766Y021400D01*
X033875Y021355D01*
X033992Y021355D01*
X034100Y021400D01*
X034166Y021465D01*
X037357Y021465D01*
X038748Y020073D01*
X038748Y019727D01*
X038591Y019569D01*
X038522Y019597D01*
X038344Y019597D01*
X038207Y019540D01*
X038228Y019591D01*
X038228Y019709D01*
X038183Y019817D01*
X038100Y019900D01*
X037992Y019945D01*
X037875Y019945D01*
X037766Y019900D01*
X037701Y019835D01*
X035510Y019835D01*
X034618Y020727D01*
X034510Y020835D01*
X034010Y020835D01*
X032618Y022227D01*
X032618Y023227D01*
X032370Y023475D01*
X032403Y023557D01*
X032403Y023743D01*
X032332Y023916D01*
X032200Y024048D01*
X032027Y024120D01*
X031840Y024120D01*
X031667Y024048D01*
X031535Y023916D01*
X031463Y023743D01*
X031463Y023557D01*
X031535Y023384D01*
X031667Y023252D01*
X031840Y023180D01*
X032027Y023180D01*
X032108Y023214D01*
X032248Y023073D01*
X032248Y022073D01*
X032357Y021965D01*
X033857Y020465D01*
X034357Y020465D01*
X034987Y019835D01*
X034857Y019835D01*
X034748Y019727D01*
X034591Y019569D01*
X034522Y019597D01*
X034344Y019597D01*
X034180Y019529D01*
X034054Y019403D01*
X033986Y019239D01*
X033986Y019061D01*
X034054Y018897D01*
X034180Y018771D01*
X034344Y018703D01*
X034522Y018703D01*
X034687Y018771D01*
X034812Y018897D01*
X034880Y019061D01*
X034880Y019239D01*
X034852Y019307D01*
X034933Y019388D01*
X035014Y019307D01*
X034986Y019239D01*
X034986Y019061D01*
X035054Y018897D01*
X035180Y018771D01*
X035344Y018703D01*
X035522Y018703D01*
X035687Y018771D01*
X035812Y018897D01*
X035880Y019061D01*
X035880Y019239D01*
X035812Y019403D01*
X035751Y019465D01*
X036116Y019465D01*
X036054Y019403D01*
X035986Y019239D01*
X035986Y019061D01*
X036054Y018897D01*
X036180Y018771D01*
X036344Y018703D01*
X036522Y018703D01*
X036687Y018771D01*
X036812Y018897D01*
X036880Y019061D01*
X036880Y019239D01*
X036812Y019403D01*
X036751Y019465D01*
X037116Y019465D01*
X037054Y019403D01*
X036986Y019239D01*
X036986Y019061D01*
X037054Y018897D01*
X037180Y018771D01*
X037344Y018703D01*
X037522Y018703D01*
X037687Y018771D01*
X037812Y018897D01*
X037880Y019061D01*
X037880Y019239D01*
X037824Y019376D01*
X037875Y019355D01*
X037992Y019355D01*
X038043Y019376D01*
X037986Y019239D01*
X037986Y019061D01*
X038054Y018897D01*
X038180Y018771D01*
X038344Y018703D01*
X038522Y018703D01*
X038687Y018771D01*
X038812Y018897D01*
X038880Y019061D01*
X038880Y019239D01*
X038852Y019307D01*
X039118Y019573D01*
X039118Y019659D02*
X041180Y019659D01*
X041339Y019817D02*
X039118Y019817D01*
X039118Y019976D02*
X041497Y019976D01*
X041656Y020134D02*
X039118Y020134D01*
X039236Y020173D02*
X038956Y020452D01*
X038956Y020641D01*
X039425Y020641D01*
X039442Y020641D01*
X039442Y020173D01*
X039631Y020173D01*
X039910Y020452D01*
X039910Y020641D01*
X039442Y020641D01*
X039442Y020659D01*
X039425Y020659D01*
X039425Y021127D01*
X039236Y021127D01*
X038956Y020848D01*
X038956Y020659D01*
X039425Y020659D01*
X039425Y020641D01*
X039425Y020173D01*
X039236Y020173D01*
X039116Y020293D02*
X039052Y020293D01*
X038957Y020451D02*
X038894Y020451D01*
X038956Y020610D02*
X038735Y020610D01*
X038577Y020768D02*
X038956Y020768D01*
X039035Y020927D02*
X038418Y020927D01*
X038260Y021085D02*
X039194Y021085D01*
X039236Y021173D02*
X038956Y021452D01*
X038956Y021641D01*
X039425Y021641D01*
X039442Y021641D01*
X039442Y021173D01*
X039631Y021173D01*
X039910Y021452D01*
X039910Y021641D01*
X039442Y021641D01*
X039442Y021659D01*
X039425Y021659D01*
X039425Y022127D01*
X039236Y022127D01*
X038956Y021848D01*
X038956Y021659D01*
X039425Y021659D01*
X039425Y021641D01*
X039425Y021173D01*
X039236Y021173D01*
X039165Y021244D02*
X038101Y021244D01*
X037943Y021402D02*
X039006Y021402D01*
X038956Y021561D02*
X037784Y021561D01*
X037626Y021719D02*
X038956Y021719D01*
X038986Y021878D02*
X034123Y021878D01*
X033744Y021878D02*
X032967Y021878D01*
X032809Y022036D02*
X039145Y022036D01*
X039236Y022173D02*
X038956Y022452D01*
X038956Y022641D01*
X039425Y022641D01*
X039442Y022641D01*
X039442Y022173D01*
X039631Y022173D01*
X039910Y022452D01*
X039910Y022641D01*
X039442Y022641D01*
X039442Y022659D01*
X039425Y022659D01*
X039425Y023127D01*
X039236Y023127D01*
X038956Y022848D01*
X038956Y022659D01*
X039425Y022659D01*
X039425Y022641D01*
X039425Y022173D01*
X039236Y022173D01*
X039214Y022195D02*
X037562Y022195D01*
X037527Y022180D02*
X037700Y022252D01*
X037832Y022384D01*
X037903Y022557D01*
X037903Y022743D01*
X037832Y022916D01*
X037700Y023048D01*
X037527Y023120D01*
X037340Y023120D01*
X037167Y023048D01*
X037035Y022916D01*
X036963Y022743D01*
X036963Y022557D01*
X037035Y022384D01*
X037167Y022252D01*
X037340Y022180D01*
X037527Y022180D01*
X037305Y022195D02*
X036641Y022195D01*
X036625Y022187D02*
X036695Y022222D01*
X036759Y022269D01*
X036815Y022324D01*
X036861Y022388D01*
X036897Y022458D01*
X036921Y022533D01*
X036933Y022611D01*
X036933Y022630D01*
X036453Y022630D01*
X036453Y022150D01*
X036473Y022150D01*
X036550Y022162D01*
X036625Y022187D01*
X036453Y022195D02*
X036413Y022195D01*
X036413Y022150D02*
X036413Y022630D01*
X035933Y022630D01*
X035933Y022611D01*
X035946Y022533D01*
X035970Y022458D01*
X036006Y022388D01*
X036052Y022324D01*
X036108Y022269D01*
X036171Y022222D01*
X036241Y022187D01*
X036316Y022162D01*
X036394Y022150D01*
X036413Y022150D01*
X036226Y022195D02*
X035562Y022195D01*
X035305Y022195D02*
X032650Y022195D01*
X032618Y022353D02*
X035066Y022353D01*
X034982Y022512D02*
X032618Y022512D01*
X032618Y022670D02*
X034963Y022670D01*
X034993Y022829D02*
X032618Y022829D01*
X032618Y022987D02*
X034835Y022987D01*
X034676Y023146D02*
X032618Y023146D01*
X032541Y023304D02*
X034518Y023304D01*
X034359Y023463D02*
X032382Y023463D01*
X032403Y023621D02*
X032701Y023621D01*
X032542Y023780D02*
X032388Y023780D01*
X032384Y023938D02*
X032310Y023938D01*
X032225Y024097D02*
X032083Y024097D01*
X032067Y024255D02*
X029118Y024255D01*
X029118Y024097D02*
X029708Y024097D01*
X029741Y024113D02*
X029671Y024078D01*
X029608Y024031D01*
X029552Y023976D01*
X029506Y023912D01*
X029470Y023842D01*
X029446Y023767D01*
X029433Y023689D01*
X029433Y023670D01*
X029913Y023670D01*
X029913Y023630D01*
X029433Y023630D01*
X029433Y023611D01*
X029446Y023533D01*
X029470Y023458D01*
X029506Y023388D01*
X029552Y023324D01*
X029608Y023269D01*
X029671Y023222D01*
X029741Y023187D01*
X029816Y023162D01*
X029894Y023150D01*
X029913Y023150D01*
X029913Y023630D01*
X029953Y023630D01*
X029953Y023150D01*
X029973Y023150D01*
X030050Y023162D01*
X030125Y023187D01*
X030195Y023222D01*
X030259Y023269D01*
X030315Y023324D01*
X030361Y023388D01*
X030397Y023458D01*
X030421Y023533D01*
X030433Y023611D01*
X030433Y023630D01*
X029953Y023630D01*
X029953Y023670D01*
X029913Y023670D01*
X029913Y024150D01*
X029894Y024150D01*
X029816Y024138D01*
X029741Y024113D01*
X029913Y024097D02*
X029953Y024097D01*
X029953Y024150D02*
X029953Y023670D01*
X030433Y023670D01*
X030433Y023689D01*
X030421Y023767D01*
X030397Y023842D01*
X030361Y023912D01*
X030315Y023976D01*
X030259Y024031D01*
X030195Y024078D01*
X030125Y024113D01*
X030050Y024138D01*
X029973Y024150D01*
X029953Y024150D01*
X029953Y023938D02*
X029913Y023938D01*
X029913Y023780D02*
X029953Y023780D01*
X029953Y023621D02*
X029913Y023621D01*
X029913Y023463D02*
X029953Y023463D01*
X029953Y023304D02*
X029913Y023304D01*
X029572Y023304D02*
X029252Y023304D01*
X029364Y023463D02*
X029469Y023463D01*
X029433Y023621D02*
X029403Y023621D01*
X029388Y023780D02*
X029450Y023780D01*
X029525Y023938D02*
X029310Y023938D01*
X029118Y024414D02*
X031908Y024414D01*
X031783Y024097D02*
X031083Y024097D01*
X031027Y024120D02*
X030840Y024120D01*
X030667Y024048D01*
X030535Y023916D01*
X030463Y023743D01*
X030463Y023557D01*
X030535Y023384D01*
X030667Y023252D01*
X030840Y023180D01*
X031027Y023180D01*
X031200Y023252D01*
X031332Y023384D01*
X031403Y023557D01*
X031403Y023743D01*
X031332Y023916D01*
X031200Y024048D01*
X031027Y024120D01*
X030783Y024097D02*
X030158Y024097D01*
X030342Y023938D02*
X030557Y023938D01*
X030478Y023780D02*
X030417Y023780D01*
X030433Y023621D02*
X030463Y023621D01*
X030502Y023463D02*
X030398Y023463D01*
X030294Y023304D02*
X030615Y023304D01*
X030690Y023015D02*
X030569Y022894D01*
X030503Y022736D01*
X030503Y022564D01*
X030569Y022406D01*
X030690Y022285D01*
X030848Y022220D01*
X031019Y022220D01*
X031177Y022285D01*
X031298Y022406D01*
X031363Y022564D01*
X031363Y022736D01*
X031298Y022894D01*
X031177Y023015D01*
X031019Y023080D01*
X030848Y023080D01*
X030690Y023015D01*
X030662Y022987D02*
X030204Y022987D01*
X030325Y022829D02*
X030542Y022829D01*
X030503Y022670D02*
X030363Y022670D01*
X030341Y022512D02*
X030525Y022512D01*
X030622Y022353D02*
X030244Y022353D01*
X029739Y022195D02*
X032248Y022195D01*
X032248Y022353D02*
X031244Y022353D01*
X031341Y022512D02*
X032248Y022512D01*
X032248Y022670D02*
X031363Y022670D01*
X031325Y022829D02*
X032248Y022829D01*
X032248Y022987D02*
X031204Y022987D01*
X031252Y023304D02*
X031615Y023304D01*
X031502Y023463D02*
X031364Y023463D01*
X031403Y023621D02*
X031463Y023621D01*
X031478Y023780D02*
X031388Y023780D01*
X031310Y023938D02*
X031557Y023938D01*
X032248Y024597D02*
X032118Y024727D01*
X032010Y024835D01*
X029118Y024835D01*
X029118Y025218D01*
X029200Y025252D01*
X029332Y025384D01*
X029403Y025557D01*
X029403Y025743D01*
X029332Y025916D01*
X029200Y026048D01*
X029027Y026120D01*
X028840Y026120D01*
X028667Y026048D01*
X028535Y025916D01*
X028463Y025743D01*
X028463Y025557D01*
X028535Y025384D01*
X028667Y025252D01*
X028748Y025218D01*
X028748Y024082D01*
X028667Y024048D01*
X028535Y023916D01*
X028463Y023743D01*
X028463Y023557D01*
X028513Y023436D01*
X028492Y023445D01*
X028400Y023445D01*
X026490Y025355D01*
X026492Y025355D01*
X026600Y025400D01*
X026666Y025465D01*
X027510Y025465D01*
X028510Y026465D01*
X031857Y026465D01*
X032248Y026073D01*
X032248Y026000D01*
X032200Y026048D01*
X032027Y026120D01*
X031840Y026120D01*
X031667Y026048D01*
X031535Y025916D01*
X031463Y025743D01*
X031463Y025557D01*
X031535Y025384D01*
X031667Y025252D01*
X031840Y025180D01*
X032027Y025180D01*
X032200Y025252D01*
X032248Y025300D01*
X032248Y024597D01*
X032248Y024731D02*
X032114Y024731D01*
X032248Y024889D02*
X029118Y024889D01*
X029118Y025048D02*
X032248Y025048D01*
X032248Y025206D02*
X032090Y025206D01*
X031777Y025206D02*
X031090Y025206D01*
X031027Y025180D02*
X031200Y025252D01*
X031332Y025384D01*
X031403Y025557D01*
X031403Y025743D01*
X031332Y025916D01*
X031200Y026048D01*
X031027Y026120D01*
X030840Y026120D01*
X030667Y026048D01*
X030535Y025916D01*
X030463Y025743D01*
X030463Y025557D01*
X030535Y025384D01*
X030667Y025252D01*
X030840Y025180D01*
X031027Y025180D01*
X030777Y025206D02*
X030163Y025206D01*
X030195Y025222D02*
X030125Y025187D01*
X030050Y025162D01*
X029973Y025150D01*
X029953Y025150D01*
X029953Y025630D01*
X029913Y025630D01*
X029433Y025630D01*
X029433Y025611D01*
X029446Y025533D01*
X029470Y025458D01*
X029506Y025388D01*
X029552Y025324D01*
X029608Y025269D01*
X029671Y025222D01*
X029741Y025187D01*
X029816Y025162D01*
X029894Y025150D01*
X029913Y025150D01*
X029913Y025630D01*
X029913Y025670D01*
X029433Y025670D01*
X029433Y025689D01*
X029446Y025767D01*
X029470Y025842D01*
X029506Y025912D01*
X029552Y025976D01*
X029608Y026031D01*
X029671Y026078D01*
X029741Y026113D01*
X029816Y026138D01*
X029894Y026150D01*
X029913Y026150D01*
X029913Y025670D01*
X029953Y025670D01*
X029953Y026150D01*
X029973Y026150D01*
X030050Y026138D01*
X030125Y026113D01*
X030195Y026078D01*
X030259Y026031D01*
X030315Y025976D01*
X030361Y025912D01*
X030397Y025842D01*
X030421Y025767D01*
X030433Y025689D01*
X030433Y025670D01*
X029953Y025670D01*
X029953Y025630D01*
X030433Y025630D01*
X030433Y025611D01*
X030421Y025533D01*
X030397Y025458D01*
X030361Y025388D01*
X030315Y025324D01*
X030259Y025269D01*
X030195Y025222D01*
X030344Y025365D02*
X030554Y025365D01*
X030477Y025523D02*
X030418Y025523D01*
X030433Y025682D02*
X030463Y025682D01*
X030503Y025840D02*
X030397Y025840D01*
X030292Y025999D02*
X030617Y025999D01*
X031249Y025999D02*
X031617Y025999D01*
X031503Y025840D02*
X031363Y025840D01*
X031403Y025682D02*
X031463Y025682D01*
X031477Y025523D02*
X031389Y025523D01*
X031313Y025365D02*
X031554Y025365D01*
X032165Y026157D02*
X028202Y026157D01*
X028043Y025999D02*
X028617Y025999D01*
X028503Y025840D02*
X027885Y025840D01*
X027726Y025682D02*
X028463Y025682D01*
X028477Y025523D02*
X027568Y025523D01*
X026956Y024889D02*
X028748Y024889D01*
X028748Y024731D02*
X027114Y024731D01*
X027273Y024572D02*
X028748Y024572D01*
X028748Y024414D02*
X027431Y024414D01*
X027590Y024255D02*
X028748Y024255D01*
X028748Y024097D02*
X027748Y024097D01*
X027907Y023938D02*
X028557Y023938D01*
X028478Y023780D02*
X028065Y023780D01*
X028224Y023621D02*
X028463Y023621D01*
X028502Y023463D02*
X028382Y023463D01*
X028728Y023146D02*
X032176Y023146D01*
X032286Y022036D02*
X029581Y022036D01*
X029375Y022353D02*
X029244Y022353D01*
X029341Y022512D02*
X029525Y022512D01*
X029503Y022670D02*
X029363Y022670D01*
X029325Y022829D02*
X029542Y022829D01*
X029662Y022987D02*
X029204Y022987D01*
X030126Y021719D02*
X031143Y021719D01*
X031151Y021561D02*
X030284Y021561D01*
X030443Y021402D02*
X031264Y021402D01*
X031603Y021402D02*
X031920Y021402D01*
X032126Y021719D02*
X032603Y021719D01*
X032761Y021561D02*
X032284Y021561D01*
X032443Y021402D02*
X032920Y021402D01*
X033078Y021244D02*
X032601Y021244D01*
X032760Y021085D02*
X033237Y021085D01*
X033395Y020927D02*
X032918Y020927D01*
X033077Y020768D02*
X033554Y020768D01*
X033712Y020610D02*
X033118Y020610D01*
X033118Y020451D02*
X034371Y020451D01*
X034529Y020293D02*
X033118Y020293D01*
X033118Y020134D02*
X034688Y020134D01*
X034846Y019976D02*
X033118Y019976D01*
X033118Y019817D02*
X034839Y019817D01*
X034680Y019659D02*
X033118Y019659D01*
X033118Y019500D02*
X033151Y019500D01*
X033716Y019500D02*
X034151Y019500D01*
X034029Y019342D02*
X033838Y019342D01*
X033880Y019183D02*
X033986Y019183D01*
X034001Y019025D02*
X033865Y019025D01*
X033979Y018866D02*
X034085Y018866D01*
X034137Y018708D02*
X034333Y018708D01*
X034296Y018549D02*
X039656Y018549D01*
X039638Y018708D02*
X039534Y018708D01*
X039333Y018708D02*
X038534Y018708D01*
X038333Y018708D02*
X037534Y018708D01*
X037333Y018708D02*
X036534Y018708D01*
X036333Y018708D02*
X035534Y018708D01*
X035333Y018708D02*
X034534Y018708D01*
X034782Y018866D02*
X035085Y018866D01*
X035001Y019025D02*
X034865Y019025D01*
X034880Y019183D02*
X034986Y019183D01*
X034980Y019342D02*
X034886Y019342D01*
X035369Y019976D02*
X038748Y019976D01*
X038748Y019817D02*
X038183Y019817D01*
X038228Y019659D02*
X038680Y019659D01*
X038886Y019342D02*
X039029Y019342D01*
X038986Y019183D02*
X038880Y019183D01*
X038865Y019025D02*
X039001Y019025D01*
X039085Y018866D02*
X038782Y018866D01*
X038085Y018866D02*
X037782Y018866D01*
X037865Y019025D02*
X038001Y019025D01*
X037986Y019183D02*
X037880Y019183D01*
X037838Y019342D02*
X038029Y019342D01*
X037700Y020252D02*
X037832Y020384D01*
X037903Y020557D01*
X037903Y020743D01*
X037832Y020916D01*
X037700Y021048D01*
X037527Y021120D01*
X037340Y021120D01*
X037167Y021048D01*
X037035Y020916D01*
X036963Y020743D01*
X036963Y020557D01*
X037035Y020384D01*
X037167Y020252D01*
X037340Y020180D01*
X037527Y020180D01*
X037700Y020252D01*
X037741Y020293D02*
X038529Y020293D01*
X038371Y020451D02*
X037860Y020451D01*
X037903Y020610D02*
X038212Y020610D01*
X038054Y020768D02*
X037893Y020768D01*
X037895Y020927D02*
X037821Y020927D01*
X037737Y021085D02*
X037611Y021085D01*
X037578Y021244D02*
X033601Y021244D01*
X033443Y021402D02*
X033764Y021402D01*
X033651Y021561D02*
X033284Y021561D01*
X033126Y021719D02*
X033643Y021719D01*
X034103Y021402D02*
X037420Y021402D01*
X037255Y021085D02*
X036681Y021085D01*
X036695Y021078D02*
X036625Y021113D01*
X036550Y021138D01*
X036473Y021150D01*
X036453Y021150D01*
X036453Y020670D01*
X036413Y020670D01*
X036413Y020630D01*
X035933Y020630D01*
X035933Y020611D01*
X035946Y020533D01*
X035970Y020458D01*
X036006Y020388D01*
X036052Y020324D01*
X036108Y020269D01*
X036171Y020222D01*
X036241Y020187D01*
X036316Y020162D01*
X036394Y020150D01*
X036413Y020150D01*
X036413Y020630D01*
X036453Y020630D01*
X036453Y020150D01*
X036473Y020150D01*
X036550Y020162D01*
X036625Y020187D01*
X036695Y020222D01*
X036759Y020269D01*
X036815Y020324D01*
X036861Y020388D01*
X036897Y020458D01*
X036921Y020533D01*
X036933Y020611D01*
X036933Y020630D01*
X036453Y020630D01*
X036453Y020670D01*
X036933Y020670D01*
X036933Y020689D01*
X036921Y020767D01*
X036897Y020842D01*
X036861Y020912D01*
X036815Y020976D01*
X036759Y021031D01*
X036695Y021078D01*
X036850Y020927D02*
X037045Y020927D01*
X036973Y020768D02*
X036921Y020768D01*
X036933Y020610D02*
X036963Y020610D01*
X037007Y020451D02*
X036893Y020451D01*
X036783Y020293D02*
X037126Y020293D01*
X036453Y020293D02*
X036413Y020293D01*
X036413Y020451D02*
X036453Y020451D01*
X036453Y020610D02*
X036413Y020610D01*
X036413Y020670D02*
X035933Y020670D01*
X035933Y020689D01*
X035946Y020767D01*
X035970Y020842D01*
X036006Y020912D01*
X036052Y020976D01*
X036108Y021031D01*
X036171Y021078D01*
X036241Y021113D01*
X036316Y021138D01*
X036394Y021150D01*
X036413Y021150D01*
X036413Y020670D01*
X036413Y020768D02*
X036453Y020768D01*
X036453Y020927D02*
X036413Y020927D01*
X036413Y021085D02*
X036453Y021085D01*
X036186Y021085D02*
X035611Y021085D01*
X035527Y021120D02*
X035340Y021120D01*
X035167Y021048D01*
X035035Y020916D01*
X034963Y020743D01*
X034963Y020557D01*
X035035Y020384D01*
X035167Y020252D01*
X035340Y020180D01*
X035527Y020180D01*
X035700Y020252D01*
X035832Y020384D01*
X035903Y020557D01*
X035903Y020743D01*
X035832Y020916D01*
X035700Y021048D01*
X035527Y021120D01*
X035255Y021085D02*
X033760Y021085D01*
X033918Y020927D02*
X035045Y020927D01*
X034973Y020768D02*
X034577Y020768D01*
X034735Y020610D02*
X034963Y020610D01*
X035007Y020451D02*
X034894Y020451D01*
X035052Y020293D02*
X035126Y020293D01*
X035211Y020134D02*
X038688Y020134D01*
X039425Y020293D02*
X039442Y020293D01*
X039425Y020451D02*
X039442Y020451D01*
X039425Y020610D02*
X039442Y020610D01*
X039442Y020659D02*
X039910Y020659D01*
X039910Y020848D01*
X039631Y021127D01*
X039442Y021127D01*
X039442Y020659D01*
X039442Y020768D02*
X039425Y020768D01*
X039425Y020927D02*
X039442Y020927D01*
X039425Y021085D02*
X039442Y021085D01*
X039425Y021244D02*
X039442Y021244D01*
X039425Y021402D02*
X039442Y021402D01*
X039425Y021561D02*
X039442Y021561D01*
X039442Y021659D02*
X039910Y021659D01*
X039910Y021848D01*
X039631Y022127D01*
X039442Y022127D01*
X039442Y021659D01*
X039442Y021719D02*
X039425Y021719D01*
X039425Y021878D02*
X039442Y021878D01*
X039425Y022036D02*
X039442Y022036D01*
X039425Y022195D02*
X039442Y022195D01*
X039425Y022353D02*
X039442Y022353D01*
X039425Y022512D02*
X039442Y022512D01*
X039442Y022659D02*
X039910Y022659D01*
X039910Y022848D01*
X039631Y023127D01*
X039442Y023127D01*
X039442Y022659D01*
X039442Y022670D02*
X039425Y022670D01*
X039425Y022829D02*
X039442Y022829D01*
X039425Y022987D02*
X039442Y022987D01*
X039442Y023173D02*
X039631Y023173D01*
X039910Y023452D01*
X039910Y023641D01*
X039442Y023641D01*
X039442Y023173D01*
X039425Y023173D02*
X039425Y023641D01*
X039442Y023641D01*
X039442Y023659D01*
X039425Y023659D01*
X039425Y024127D01*
X039236Y024127D01*
X038956Y023848D01*
X038956Y023659D01*
X039425Y023659D01*
X039425Y023641D01*
X038956Y023641D01*
X038956Y023452D01*
X039236Y023173D01*
X039425Y023173D01*
X039425Y023304D02*
X039442Y023304D01*
X039425Y023463D02*
X039442Y023463D01*
X039425Y023621D02*
X039442Y023621D01*
X039442Y023659D02*
X039910Y023659D01*
X039910Y023848D01*
X039631Y024127D01*
X039442Y024127D01*
X039442Y023659D01*
X039442Y023780D02*
X039425Y023780D01*
X039425Y023938D02*
X039442Y023938D01*
X039425Y024097D02*
X039442Y024097D01*
X039662Y024097D02*
X040247Y024097D01*
X040248Y024097D02*
X039986Y023835D01*
X039986Y023465D01*
X040248Y023203D01*
X040619Y023203D01*
X040880Y023465D01*
X043505Y023465D01*
X043538Y023386D01*
X043669Y023254D01*
X043840Y023183D01*
X044026Y023183D01*
X044198Y023254D01*
X044329Y023386D01*
X044400Y023557D01*
X044400Y023743D01*
X044329Y023914D01*
X044198Y024046D01*
X044026Y024117D01*
X043840Y024117D01*
X043669Y024046D01*
X043538Y023914D01*
X043505Y023835D01*
X040880Y023835D01*
X040880Y023835D01*
X040619Y024097D01*
X040248Y024097D01*
X040089Y023938D02*
X039820Y023938D01*
X039910Y023780D02*
X039986Y023780D01*
X039986Y023621D02*
X039910Y023621D01*
X039910Y023463D02*
X039988Y023463D01*
X040147Y023304D02*
X039762Y023304D01*
X039771Y022987D02*
X040138Y022987D01*
X039986Y022829D02*
X039910Y022829D01*
X039910Y022670D02*
X039986Y022670D01*
X039986Y022512D02*
X039910Y022512D01*
X039811Y022353D02*
X040098Y022353D01*
X040187Y022036D02*
X039722Y022036D01*
X039653Y022195D02*
X042638Y022195D01*
X042661Y022036D02*
X040680Y022036D01*
X040838Y021878D02*
X042820Y021878D01*
X043046Y021878D02*
X043522Y021878D01*
X043570Y022353D02*
X043147Y022353D01*
X042719Y022353D02*
X040769Y022353D01*
X040880Y022465D02*
X040880Y022465D01*
X040729Y022987D02*
X043610Y022987D01*
X043619Y023304D02*
X040720Y023304D01*
X040878Y023463D02*
X043506Y023463D01*
X043561Y023938D02*
X040778Y023938D01*
X040619Y024097D02*
X043791Y024097D01*
X043840Y024183D02*
X044026Y024183D01*
X044198Y024254D01*
X044329Y024386D01*
X044400Y024557D01*
X044400Y024743D01*
X044329Y024914D01*
X044198Y025046D01*
X044026Y025117D01*
X043840Y025117D01*
X043669Y025046D01*
X043538Y024914D01*
X043466Y024743D01*
X043466Y024557D01*
X043538Y024386D01*
X043669Y024254D01*
X043840Y024183D01*
X043668Y024255D02*
X038300Y024255D01*
X038141Y024097D02*
X039205Y024097D01*
X039047Y023938D02*
X037983Y023938D01*
X037824Y023780D02*
X038956Y023780D01*
X038956Y023621D02*
X037666Y023621D01*
X037761Y022987D02*
X039096Y022987D01*
X038956Y022829D02*
X037868Y022829D01*
X037903Y022670D02*
X038956Y022670D01*
X038956Y022512D02*
X037885Y022512D01*
X037801Y022353D02*
X039055Y022353D01*
X039104Y023304D02*
X035041Y023304D01*
X035199Y023146D02*
X036366Y023146D01*
X036394Y023150D02*
X036316Y023138D01*
X036241Y023113D01*
X036171Y023078D01*
X036108Y023031D01*
X036052Y022976D01*
X036006Y022912D01*
X035970Y022842D01*
X035946Y022767D01*
X035933Y022689D01*
X035933Y022670D01*
X036413Y022670D01*
X036413Y022630D01*
X036453Y022630D01*
X036453Y022670D01*
X036413Y022670D01*
X036413Y023150D01*
X036394Y023150D01*
X036413Y023146D02*
X036453Y023146D01*
X036453Y023150D02*
X036453Y022670D01*
X036413Y022670D01*
X036453Y022670D02*
X036933Y022670D01*
X036933Y022689D01*
X036921Y022767D01*
X036897Y022842D01*
X036861Y022912D01*
X036815Y022976D01*
X036759Y023031D01*
X036695Y023078D01*
X036625Y023113D01*
X036550Y023138D01*
X036473Y023150D01*
X036453Y023150D01*
X036501Y023146D02*
X046748Y023146D01*
X046748Y023304D02*
X045248Y023304D01*
X045198Y023254D02*
X045329Y023386D01*
X045400Y023557D01*
X045400Y023743D01*
X045329Y023914D01*
X045198Y024046D01*
X045026Y024117D01*
X044840Y024117D01*
X044669Y024046D01*
X044538Y023914D01*
X044466Y023743D01*
X044466Y023557D01*
X044538Y023386D01*
X044669Y023254D01*
X044840Y023183D01*
X045026Y023183D01*
X045198Y023254D01*
X045361Y023463D02*
X046748Y023463D01*
X046748Y023621D02*
X045400Y023621D01*
X045385Y023780D02*
X046748Y023780D01*
X046748Y023938D02*
X045306Y023938D01*
X045075Y024097D02*
X046748Y024097D01*
X046748Y024255D02*
X045199Y024255D01*
X045198Y024254D02*
X045329Y024386D01*
X045400Y024557D01*
X045400Y024743D01*
X045329Y024914D01*
X045198Y025046D01*
X045026Y025117D01*
X044840Y025117D01*
X044669Y025046D01*
X044538Y024914D01*
X044466Y024743D01*
X044466Y024557D01*
X044538Y024386D01*
X044669Y024254D01*
X044840Y024183D01*
X045026Y024183D01*
X045198Y024254D01*
X045341Y024414D02*
X046748Y024414D01*
X046748Y024572D02*
X045400Y024572D01*
X045400Y024731D02*
X046748Y024731D01*
X046748Y024889D02*
X045340Y024889D01*
X045194Y025048D02*
X046748Y025048D01*
X046748Y025206D02*
X045081Y025206D01*
X045026Y025183D02*
X045198Y025254D01*
X045329Y025386D01*
X045400Y025557D01*
X045400Y025743D01*
X045329Y025914D01*
X045198Y026046D01*
X045026Y026117D01*
X044840Y026117D01*
X044669Y026046D01*
X044538Y025914D01*
X044466Y025743D01*
X044466Y025557D01*
X044538Y025386D01*
X044669Y025254D01*
X044840Y025183D01*
X045026Y025183D01*
X044785Y025206D02*
X044081Y025206D01*
X044026Y025183D02*
X044198Y025254D01*
X044329Y025386D01*
X044400Y025557D01*
X044400Y025743D01*
X044329Y025914D01*
X044198Y026046D01*
X044026Y026117D01*
X043840Y026117D01*
X043669Y026046D01*
X043538Y025914D01*
X043466Y025743D01*
X043466Y025557D01*
X043538Y025386D01*
X043669Y025254D01*
X043840Y025183D01*
X044026Y025183D01*
X044194Y025048D02*
X044673Y025048D01*
X044527Y024889D02*
X044340Y024889D01*
X044400Y024731D02*
X044466Y024731D01*
X044466Y024572D02*
X044400Y024572D01*
X044341Y024414D02*
X044526Y024414D01*
X044668Y024255D02*
X044199Y024255D01*
X044075Y024097D02*
X044791Y024097D01*
X044561Y023938D02*
X044306Y023938D01*
X044385Y023780D02*
X044482Y023780D01*
X044466Y023621D02*
X044400Y023621D01*
X044361Y023463D02*
X044506Y023463D01*
X044619Y023304D02*
X044248Y023304D01*
X044257Y022987D02*
X044610Y022987D01*
X044502Y022829D02*
X044365Y022829D01*
X044400Y022670D02*
X044466Y022670D01*
X044485Y022512D02*
X044381Y022512D01*
X044375Y022353D02*
X044297Y022353D01*
X045297Y022353D02*
X046748Y022353D01*
X046748Y022512D02*
X045381Y022512D01*
X045400Y022670D02*
X046748Y022670D01*
X046748Y022829D02*
X045365Y022829D01*
X045257Y022987D02*
X046748Y022987D01*
X046453Y021561D02*
X046413Y021561D01*
X046413Y021402D02*
X046453Y021402D01*
X046453Y021244D02*
X046413Y021244D01*
X043497Y019817D02*
X043362Y019817D01*
X043466Y019659D02*
X043203Y019659D01*
X043045Y019500D02*
X043490Y019500D01*
X043257Y018391D02*
X042078Y018391D01*
X041789Y018391D02*
X040078Y018391D01*
X039789Y018391D02*
X034454Y018391D01*
X035782Y018866D02*
X036085Y018866D01*
X036001Y019025D02*
X035865Y019025D01*
X035880Y019183D02*
X035986Y019183D01*
X036029Y019342D02*
X035838Y019342D01*
X035741Y020293D02*
X036084Y020293D01*
X035974Y020451D02*
X035860Y020451D01*
X035903Y020610D02*
X035934Y020610D01*
X035946Y020768D02*
X035893Y020768D01*
X035821Y020927D02*
X036016Y020927D01*
X036031Y022353D02*
X035801Y022353D01*
X035885Y022512D02*
X035953Y022512D01*
X035933Y022670D02*
X035903Y022670D01*
X035868Y022829D02*
X035966Y022829D01*
X036063Y022987D02*
X035761Y022987D01*
X036413Y022987D02*
X036453Y022987D01*
X036453Y022829D02*
X036413Y022829D01*
X036413Y022512D02*
X036453Y022512D01*
X036453Y022353D02*
X036413Y022353D01*
X036836Y022353D02*
X037066Y022353D01*
X036982Y022512D02*
X036914Y022512D01*
X036933Y022670D02*
X036963Y022670D01*
X036999Y022829D02*
X036901Y022829D01*
X036803Y022987D02*
X037106Y022987D01*
X038956Y023463D02*
X034882Y023463D01*
X032444Y021878D02*
X031623Y021878D01*
X031244Y021878D02*
X028046Y021878D01*
X027820Y021878D02*
X025123Y021878D01*
X024744Y021878D02*
X023922Y021878D01*
X023764Y021719D02*
X024643Y021719D01*
X024582Y021561D02*
X023605Y021561D01*
X023399Y021878D02*
X020933Y021878D01*
X020933Y021402D02*
X024424Y021402D01*
X024081Y022036D02*
X027661Y022036D01*
X027638Y022195D02*
X024239Y022195D01*
X024398Y022353D02*
X027622Y022353D01*
X027525Y022512D02*
X024556Y022512D01*
X024715Y022670D02*
X027503Y022670D01*
X027493Y022829D02*
X024873Y022829D01*
X025185Y022987D02*
X027335Y022987D01*
X027176Y023146D02*
X025228Y023146D01*
X025189Y023304D02*
X027018Y023304D01*
X026859Y023463D02*
X022007Y023463D01*
X021849Y023304D02*
X024678Y023304D01*
X024638Y023146D02*
X021690Y023146D01*
X021613Y022987D02*
X021532Y022987D01*
X021468Y022829D02*
X021398Y022829D01*
X021398Y022670D02*
X021468Y022670D01*
X021468Y022512D02*
X021398Y022512D01*
X021375Y022353D02*
X021294Y022353D01*
X021581Y022036D02*
X023558Y022036D01*
X023716Y022195D02*
X022135Y022195D01*
X022294Y022353D02*
X023875Y022353D01*
X024033Y022512D02*
X022398Y022512D01*
X022398Y022670D02*
X024192Y022670D01*
X024350Y022829D02*
X022398Y022829D01*
X022254Y022987D02*
X024509Y022987D01*
X025248Y023835D02*
X020510Y023835D01*
X019510Y024835D01*
X017933Y024835D01*
X017933Y026300D01*
X020003Y026300D01*
X020132Y026353D01*
X020230Y026452D01*
X021578Y027800D01*
X023288Y027800D01*
X023735Y027353D01*
X023864Y027300D01*
X024463Y027300D01*
X024463Y027237D01*
X024535Y027064D01*
X024667Y026932D01*
X024840Y026860D01*
X025027Y026860D01*
X025200Y026932D01*
X025332Y027064D01*
X025403Y027237D01*
X025403Y028063D01*
X025332Y028236D01*
X025200Y028368D01*
X025027Y028440D01*
X024840Y028440D01*
X024667Y028368D01*
X024535Y028236D01*
X024463Y028063D01*
X024463Y028000D01*
X024078Y028000D01*
X023730Y028348D01*
X023632Y028447D01*
X023587Y028465D01*
X025357Y028465D01*
X025560Y028262D01*
X025535Y028236D01*
X025463Y028063D01*
X025463Y027237D01*
X025535Y027064D01*
X025667Y026932D01*
X025840Y026860D01*
X026027Y026860D01*
X026200Y026932D01*
X026332Y027064D01*
X026403Y027237D01*
X026403Y028063D01*
X026332Y028236D01*
X026200Y028368D01*
X026027Y028440D01*
X025905Y028440D01*
X025618Y028727D01*
X025510Y028835D01*
X017857Y028835D01*
X017553Y028531D01*
X017433Y028650D01*
X015433Y028650D01*
X015433Y030622D01*
X015518Y030650D01*
X032248Y030650D01*
X032248Y029995D01*
X032198Y030046D01*
X032026Y030117D01*
X031840Y030117D01*
X031669Y030046D01*
X031538Y029914D01*
X031466Y029743D01*
X031466Y029557D01*
X031538Y029386D01*
X031669Y029254D01*
X031748Y029221D01*
X031748Y028082D01*
X031667Y028048D01*
X031535Y027916D01*
X031463Y027743D01*
X031463Y027557D01*
X031535Y027384D01*
X031667Y027252D01*
X031840Y027180D01*
X032027Y027180D01*
X032200Y027252D01*
X032248Y027300D01*
X032248Y026882D01*
X032183Y026817D01*
X032138Y026709D01*
X032138Y026707D01*
X032010Y026835D01*
X031857Y026835D01*
X028380Y026835D01*
X028759Y027214D01*
X028840Y027180D01*
X029027Y027180D01*
X029200Y027252D01*
X029332Y027384D01*
X029403Y027557D01*
X029403Y027743D01*
X029332Y027916D01*
X029200Y028048D01*
X029027Y028120D01*
X028840Y028120D01*
X028667Y028048D01*
X028535Y027916D01*
X028463Y027743D01*
X028463Y027557D01*
X028497Y027475D01*
X027427Y026406D01*
X027153Y026680D01*
X026725Y026680D01*
X026905Y026860D01*
X027027Y026860D01*
X027200Y026932D01*
X027332Y027064D01*
X027403Y027237D01*
X027403Y028063D01*
X027332Y028236D01*
X027200Y028368D01*
X027027Y028440D01*
X026840Y028440D01*
X026667Y028368D01*
X026535Y028236D01*
X026463Y028063D01*
X026463Y027237D01*
X026535Y027064D01*
X026560Y027038D01*
X025357Y025835D01*
X025248Y025727D01*
X025248Y023835D01*
X025248Y023938D02*
X020407Y023938D01*
X020248Y024097D02*
X025248Y024097D01*
X025248Y024255D02*
X020090Y024255D01*
X019931Y024414D02*
X025248Y024414D01*
X025248Y024572D02*
X019773Y024572D01*
X019614Y024731D02*
X020218Y024731D01*
X020167Y024752D02*
X020340Y024680D01*
X020527Y024680D01*
X020700Y024752D01*
X020832Y024884D01*
X020903Y025057D01*
X020903Y025243D01*
X020832Y025416D01*
X020700Y025548D01*
X020527Y025620D01*
X020340Y025620D01*
X020167Y025548D01*
X020035Y025416D01*
X019963Y025243D01*
X019963Y025057D01*
X020035Y024884D01*
X020167Y024752D01*
X020033Y024889D02*
X017933Y024889D01*
X017933Y025048D02*
X019967Y025048D01*
X019963Y025206D02*
X017933Y025206D01*
X017933Y025365D02*
X020013Y025365D01*
X020142Y025523D02*
X017933Y025523D01*
X017933Y025682D02*
X021248Y025682D01*
X021248Y025582D02*
X021167Y025548D01*
X021035Y025416D01*
X020963Y025243D01*
X020963Y025057D01*
X021035Y024884D01*
X021167Y024752D01*
X021340Y024680D01*
X021527Y024680D01*
X021700Y024752D01*
X021832Y024884D01*
X021903Y025057D01*
X021903Y025243D01*
X021832Y025416D01*
X021700Y025548D01*
X021618Y025582D01*
X021618Y026965D01*
X022403Y026965D01*
X022403Y026930D01*
X022714Y026620D01*
X023153Y026620D01*
X023463Y026930D01*
X023463Y027370D01*
X023153Y027680D01*
X022714Y027680D01*
X022403Y027370D01*
X022403Y027335D01*
X021357Y027335D01*
X021248Y027227D01*
X021248Y025582D01*
X021142Y025523D02*
X020725Y025523D01*
X020853Y025365D02*
X021013Y025365D01*
X020963Y025206D02*
X020903Y025206D01*
X020900Y025048D02*
X020967Y025048D01*
X021033Y024889D02*
X020834Y024889D01*
X020649Y024731D02*
X021218Y024731D01*
X021649Y024731D02*
X022160Y024731D01*
X022171Y024722D02*
X022241Y024687D01*
X022316Y024662D01*
X022394Y024650D01*
X022413Y024650D01*
X022413Y025130D01*
X021933Y025130D01*
X021933Y025111D01*
X021946Y025033D01*
X021970Y024958D01*
X022006Y024888D01*
X022052Y024824D01*
X022108Y024769D01*
X022171Y024722D01*
X022005Y024889D02*
X021834Y024889D01*
X021900Y025048D02*
X021943Y025048D01*
X021933Y025170D02*
X022413Y025170D01*
X022413Y025130D01*
X022453Y025130D01*
X022453Y024650D01*
X022473Y024650D01*
X022550Y024662D01*
X022625Y024687D01*
X022695Y024722D01*
X022759Y024769D01*
X022815Y024824D01*
X022861Y024888D01*
X022897Y024958D01*
X022921Y025033D01*
X022933Y025111D01*
X022933Y025130D01*
X022453Y025130D01*
X022453Y025170D01*
X022413Y025170D01*
X022413Y025650D01*
X022394Y025650D01*
X022316Y025638D01*
X022241Y025613D01*
X022171Y025578D01*
X022108Y025531D01*
X022052Y025476D01*
X022006Y025412D01*
X021970Y025342D01*
X021946Y025267D01*
X021933Y025189D01*
X021933Y025170D01*
X021936Y025206D02*
X021903Y025206D01*
X021853Y025365D02*
X021981Y025365D01*
X022099Y025523D02*
X021725Y025523D01*
X021618Y025682D02*
X025248Y025682D01*
X025248Y025523D02*
X022767Y025523D01*
X022759Y025531D02*
X022695Y025578D01*
X022625Y025613D01*
X022550Y025638D01*
X022473Y025650D01*
X022453Y025650D01*
X022453Y025170D01*
X022933Y025170D01*
X022933Y025189D01*
X022921Y025267D01*
X022897Y025342D01*
X022861Y025412D01*
X022815Y025476D01*
X022759Y025531D01*
X022885Y025365D02*
X025248Y025365D01*
X025248Y025206D02*
X022931Y025206D01*
X022923Y025048D02*
X025248Y025048D01*
X025248Y024889D02*
X022862Y024889D01*
X022707Y024731D02*
X025248Y024731D01*
X025362Y025840D02*
X021618Y025840D01*
X021618Y025999D02*
X025520Y025999D01*
X025679Y026157D02*
X021618Y026157D01*
X021618Y026316D02*
X025837Y026316D01*
X025996Y026474D02*
X021618Y026474D01*
X021618Y026633D02*
X022701Y026633D01*
X022543Y026791D02*
X021618Y026791D01*
X021618Y026950D02*
X022403Y026950D01*
X022459Y027425D02*
X021203Y027425D01*
X021288Y027267D02*
X021045Y027267D01*
X020886Y027108D02*
X021248Y027108D01*
X021248Y026950D02*
X020728Y026950D01*
X020569Y026791D02*
X021248Y026791D01*
X021248Y026633D02*
X020411Y026633D01*
X020252Y026474D02*
X021248Y026474D01*
X021248Y026316D02*
X020040Y026316D01*
X021248Y026157D02*
X017933Y026157D01*
X017933Y025999D02*
X021248Y025999D01*
X021248Y025840D02*
X017933Y025840D01*
X017433Y025840D02*
X016928Y025840D01*
X016928Y025855D02*
X016638Y026145D01*
X016433Y026145D01*
X016228Y026145D01*
X015938Y025855D01*
X015938Y025650D01*
X015938Y025445D01*
X016228Y025155D01*
X016433Y025155D01*
X016433Y025650D01*
X015938Y025650D01*
X016433Y025650D01*
X016433Y025650D01*
X016433Y025650D01*
X016433Y026145D01*
X016433Y025650D01*
X016433Y025650D01*
X016433Y025155D01*
X016638Y025155D01*
X016928Y025445D01*
X016928Y025650D01*
X016928Y025855D01*
X016928Y025682D02*
X017433Y025682D01*
X017433Y025523D02*
X016928Y025523D01*
X016928Y025650D02*
X016433Y025650D01*
X016928Y025650D01*
X016848Y025365D02*
X017433Y025365D01*
X017433Y025206D02*
X016689Y025206D01*
X016433Y025206D02*
X016433Y025206D01*
X016433Y025365D02*
X016433Y025365D01*
X016433Y025523D02*
X016433Y025523D01*
X016433Y025650D02*
X016433Y025650D01*
X016433Y025682D02*
X016433Y025682D01*
X016433Y025840D02*
X016433Y025840D01*
X016433Y025999D02*
X016433Y025999D01*
X016082Y025999D02*
X015742Y025999D01*
X015626Y026115D02*
X015241Y026115D01*
X014968Y025843D01*
X014968Y025457D01*
X015241Y025185D01*
X015626Y025185D01*
X015898Y025457D01*
X015898Y025843D01*
X015626Y026115D01*
X015898Y025840D02*
X015938Y025840D01*
X015938Y025682D02*
X015898Y025682D01*
X015898Y025523D02*
X015938Y025523D01*
X016019Y025365D02*
X015805Y025365D01*
X015647Y025206D02*
X016177Y025206D01*
X015220Y025206D02*
X010552Y025206D01*
X010573Y025199D02*
X010485Y025228D01*
X010392Y025242D01*
X009991Y025242D01*
X009991Y024708D01*
X009876Y024708D01*
X009876Y025242D01*
X009474Y025242D01*
X009382Y025228D01*
X009293Y025199D01*
X009210Y025157D01*
X009135Y025102D01*
X009069Y025036D01*
X009014Y024961D01*
X008972Y024877D01*
X008943Y024789D01*
X008930Y024708D01*
X009876Y024708D01*
X009876Y024592D01*
X009991Y024592D01*
X009991Y024058D01*
X010392Y024058D01*
X010485Y024072D01*
X010573Y024101D01*
X010656Y024143D01*
X010732Y024198D01*
X010798Y024264D01*
X010853Y024339D01*
X010895Y024423D01*
X010924Y024511D01*
X010937Y024592D01*
X009991Y024592D01*
X009991Y024708D01*
X010937Y024708D01*
X010924Y024789D01*
X010895Y024877D01*
X010853Y024961D01*
X010798Y025036D01*
X010732Y025102D01*
X010656Y025157D01*
X010573Y025199D01*
X010786Y025048D02*
X017433Y025048D01*
X017433Y024889D02*
X010889Y024889D01*
X010933Y024731D02*
X011752Y024731D01*
X011748Y024727D02*
X011748Y024727D01*
X011857Y024835D01*
X017433Y024835D01*
X017433Y026300D01*
X015078Y026300D01*
X014230Y025452D01*
X014230Y025452D01*
X014132Y025353D01*
X014003Y025300D01*
X008783Y025300D01*
X008783Y021795D01*
X010078Y020500D01*
X011676Y020500D01*
X011638Y020591D01*
X011638Y020683D01*
X011357Y020965D01*
X010357Y020965D01*
X010131Y021190D01*
X010126Y021185D01*
X009741Y021185D01*
X009468Y021457D01*
X009468Y021843D01*
X009741Y022115D01*
X010126Y022115D01*
X010398Y021843D01*
X010398Y021457D01*
X010393Y021452D01*
X010510Y021335D01*
X011510Y021335D01*
X011618Y021227D01*
X011900Y020945D01*
X011992Y020945D01*
X012100Y020900D01*
X012183Y020817D01*
X012228Y020709D01*
X012228Y020591D01*
X012191Y020500D01*
X013788Y020500D01*
X013933Y020645D01*
X013933Y020650D01*
X013938Y020650D01*
X014235Y020947D01*
X014364Y021000D01*
X017463Y021000D01*
X017463Y021063D01*
X017535Y021236D01*
X017667Y021368D01*
X017840Y021440D01*
X018027Y021440D01*
X018200Y021368D01*
X018332Y021236D01*
X018403Y021063D01*
X018403Y020237D01*
X018332Y020064D01*
X018200Y019932D01*
X018027Y019860D01*
X017840Y019860D01*
X017667Y019932D01*
X017535Y020064D01*
X017463Y020237D01*
X017463Y020300D01*
X017283Y020300D01*
X017933Y019650D01*
X019638Y019650D01*
X019638Y019709D01*
X019683Y019817D01*
X017766Y019817D01*
X017623Y019976D02*
X017608Y019976D01*
X017506Y020134D02*
X017449Y020134D01*
X017463Y020293D02*
X017291Y020293D01*
X017925Y019659D02*
X019638Y019659D01*
X019683Y019817D02*
X019759Y019893D01*
X019667Y019932D01*
X019535Y020064D01*
X019463Y020237D01*
X019463Y021063D01*
X019535Y021236D01*
X019667Y021368D01*
X019840Y021440D01*
X019962Y021440D01*
X020172Y021650D01*
X017433Y021650D01*
X017433Y023465D01*
X017398Y023465D01*
X017398Y023457D01*
X017126Y023185D01*
X016741Y023185D01*
X016468Y023457D01*
X016468Y023843D01*
X016741Y024115D01*
X017126Y024115D01*
X017398Y023843D01*
X017398Y023835D01*
X017433Y023835D01*
X017433Y024465D01*
X012010Y024465D01*
X010393Y022848D01*
X010398Y022843D01*
X010398Y022457D01*
X010126Y022185D01*
X009741Y022185D01*
X009468Y022457D01*
X009468Y022843D01*
X009741Y023115D01*
X010126Y023115D01*
X010131Y023110D01*
X011748Y024727D01*
X011594Y024572D02*
X010933Y024572D01*
X010890Y024414D02*
X011435Y024414D01*
X011277Y024255D02*
X010789Y024255D01*
X010560Y024097D02*
X011118Y024097D01*
X010960Y023938D02*
X008783Y023938D01*
X008783Y023780D02*
X010801Y023780D01*
X010643Y023621D02*
X008783Y023621D01*
X008783Y023463D02*
X010484Y023463D01*
X010326Y023304D02*
X008783Y023304D01*
X008783Y023146D02*
X010167Y023146D01*
X010398Y022829D02*
X016468Y022829D01*
X016468Y022843D02*
X016468Y022457D01*
X016741Y022185D01*
X017126Y022185D01*
X017398Y022457D01*
X017398Y022843D01*
X017126Y023115D01*
X016741Y023115D01*
X016468Y022843D01*
X016468Y022670D02*
X010398Y022670D01*
X010398Y022512D02*
X016468Y022512D01*
X016573Y022353D02*
X010294Y022353D01*
X010135Y022195D02*
X016731Y022195D01*
X017135Y022195D02*
X017433Y022195D01*
X017433Y022353D02*
X017294Y022353D01*
X017398Y022512D02*
X017433Y022512D01*
X017433Y022670D02*
X017398Y022670D01*
X017398Y022829D02*
X017433Y022829D01*
X017433Y022987D02*
X017254Y022987D01*
X017433Y023146D02*
X010690Y023146D01*
X010532Y022987D02*
X016613Y022987D01*
X016622Y023304D02*
X010849Y023304D01*
X011007Y023463D02*
X016468Y023463D01*
X016468Y023621D02*
X011166Y023621D01*
X011324Y023780D02*
X016468Y023780D01*
X016564Y023938D02*
X011483Y023938D01*
X011641Y024097D02*
X016722Y024097D01*
X017144Y024097D02*
X017433Y024097D01*
X017433Y024255D02*
X011800Y024255D01*
X011958Y024414D02*
X017433Y024414D01*
X017433Y023938D02*
X017303Y023938D01*
X017398Y023463D02*
X017433Y023463D01*
X017433Y023304D02*
X017245Y023304D01*
X017433Y022036D02*
X010205Y022036D01*
X010363Y021878D02*
X017433Y021878D01*
X017433Y021719D02*
X010398Y021719D01*
X010398Y021561D02*
X020082Y021561D01*
X019748Y021402D02*
X019187Y021402D01*
X019195Y021398D02*
X019125Y021433D01*
X019050Y021458D01*
X018973Y021470D01*
X018953Y021470D01*
X018953Y020670D01*
X018913Y020670D01*
X018913Y020630D01*
X018433Y020630D01*
X018433Y020291D01*
X018446Y020213D01*
X018470Y020138D01*
X018506Y020068D01*
X018552Y020004D01*
X018608Y019949D01*
X018671Y019902D01*
X018741Y019867D01*
X018816Y019842D01*
X018894Y019830D01*
X018913Y019830D01*
X018913Y020630D01*
X018953Y020630D01*
X018953Y019830D01*
X018973Y019830D01*
X019050Y019842D01*
X019125Y019867D01*
X019195Y019902D01*
X019259Y019949D01*
X019315Y020004D01*
X019361Y020068D01*
X019397Y020138D01*
X019421Y020213D01*
X019433Y020291D01*
X019433Y020630D01*
X018953Y020630D01*
X018953Y020670D01*
X019433Y020670D01*
X019433Y021009D01*
X019421Y021087D01*
X019397Y021162D01*
X019361Y021232D01*
X019315Y021296D01*
X019259Y021351D01*
X019195Y021398D01*
X019353Y021244D02*
X019542Y021244D01*
X019472Y021085D02*
X019421Y021085D01*
X019433Y020927D02*
X019463Y020927D01*
X019463Y020768D02*
X019433Y020768D01*
X019433Y020610D02*
X019463Y020610D01*
X019463Y020451D02*
X019433Y020451D01*
X019433Y020293D02*
X019463Y020293D01*
X019506Y020134D02*
X019395Y020134D01*
X019286Y019976D02*
X019623Y019976D01*
X020107Y019893D02*
X020200Y019932D01*
X020332Y020064D01*
X020403Y020237D01*
X020403Y020465D01*
X020433Y020465D01*
X020433Y019650D01*
X020228Y019650D01*
X020228Y019709D01*
X020183Y019817D01*
X020107Y019893D01*
X020183Y019817D02*
X020433Y019817D01*
X020433Y019659D02*
X020228Y019659D01*
X020244Y019976D02*
X020433Y019976D01*
X020433Y020134D02*
X020361Y020134D01*
X020403Y020293D02*
X020433Y020293D01*
X020433Y020451D02*
X020403Y020451D01*
X020403Y020835D02*
X020403Y021063D01*
X020332Y021236D01*
X020306Y021262D01*
X020433Y021388D01*
X020433Y020835D01*
X020403Y020835D01*
X020403Y020927D02*
X020433Y020927D01*
X020433Y021085D02*
X020394Y021085D01*
X020433Y021244D02*
X020324Y021244D01*
X018953Y021244D02*
X018913Y021244D01*
X018913Y021402D02*
X018953Y021402D01*
X018913Y021470D02*
X018894Y021470D01*
X018816Y021458D01*
X018741Y021433D01*
X018671Y021398D01*
X018608Y021351D01*
X018552Y021296D01*
X018506Y021232D01*
X018470Y021162D01*
X018446Y021087D01*
X018433Y021009D01*
X018433Y020670D01*
X018913Y020670D01*
X018913Y021470D01*
X018680Y021402D02*
X018118Y021402D01*
X018324Y021244D02*
X018514Y021244D01*
X018445Y021085D02*
X018394Y021085D01*
X018403Y020927D02*
X018433Y020927D01*
X018433Y020768D02*
X018403Y020768D01*
X018403Y020610D02*
X018433Y020610D01*
X018433Y020451D02*
X018403Y020451D01*
X018403Y020293D02*
X018433Y020293D01*
X018472Y020134D02*
X018361Y020134D01*
X018244Y019976D02*
X018581Y019976D01*
X018913Y019976D02*
X018953Y019976D01*
X018953Y020134D02*
X018913Y020134D01*
X018913Y020293D02*
X018953Y020293D01*
X018953Y020451D02*
X018913Y020451D01*
X018913Y020610D02*
X018953Y020610D01*
X018953Y020768D02*
X018913Y020768D01*
X018913Y020927D02*
X018953Y020927D01*
X018953Y021085D02*
X018913Y021085D01*
X017748Y021402D02*
X010443Y021402D01*
X010237Y021085D02*
X009493Y021085D01*
X009335Y021244D02*
X009682Y021244D01*
X009524Y021402D02*
X009176Y021402D01*
X009018Y021561D02*
X009468Y021561D01*
X009468Y021719D02*
X008859Y021719D01*
X008783Y021878D02*
X009503Y021878D01*
X009662Y022036D02*
X008783Y022036D01*
X008783Y022195D02*
X009731Y022195D01*
X009573Y022353D02*
X008783Y022353D01*
X008783Y022512D02*
X009468Y022512D01*
X009468Y022670D02*
X008783Y022670D01*
X008783Y022829D02*
X009468Y022829D01*
X009613Y022987D02*
X008783Y022987D01*
X008083Y022987D02*
X006933Y022987D01*
X006933Y022829D02*
X008083Y022829D01*
X008083Y022670D02*
X006933Y022670D01*
X006933Y022512D02*
X007130Y022512D01*
X007167Y022548D02*
X007035Y022416D01*
X006963Y022243D01*
X006963Y022057D01*
X007035Y021884D01*
X007167Y021752D01*
X007340Y021680D01*
X007527Y021680D01*
X007700Y021752D01*
X007832Y021884D01*
X007903Y022057D01*
X007903Y022243D01*
X007832Y022416D01*
X007700Y022548D01*
X007527Y022620D01*
X007340Y022620D01*
X007167Y022548D01*
X007009Y022353D02*
X006933Y022353D01*
X006933Y022195D02*
X006963Y022195D01*
X006972Y022036D02*
X006933Y022036D01*
X006933Y021878D02*
X007041Y021878D01*
X006933Y021719D02*
X007246Y021719D01*
X007340Y021620D02*
X007167Y021548D01*
X007035Y021416D01*
X006963Y021243D01*
X006963Y021057D01*
X007035Y020884D01*
X007167Y020752D01*
X007340Y020680D01*
X007527Y020680D01*
X007700Y020752D01*
X007832Y020884D01*
X007903Y021057D01*
X007903Y021243D01*
X007832Y021416D01*
X007700Y021548D01*
X007527Y021620D01*
X007340Y021620D01*
X007196Y021561D02*
X006933Y021561D01*
X006933Y021402D02*
X007029Y021402D01*
X006963Y021244D02*
X006933Y021244D01*
X006933Y021085D02*
X006963Y021085D01*
X006933Y020927D02*
X007017Y020927D01*
X006933Y020768D02*
X007151Y020768D01*
X007234Y020610D02*
X006933Y020610D01*
X006933Y020451D02*
X007034Y020451D01*
X007052Y020476D02*
X007006Y020412D01*
X006970Y020342D01*
X006946Y020267D01*
X006933Y020189D01*
X006933Y020170D01*
X007413Y020170D01*
X007413Y020130D01*
X006933Y020130D01*
X006933Y020111D01*
X006946Y020033D01*
X006970Y019958D01*
X007006Y019888D01*
X007052Y019824D01*
X007108Y019769D01*
X007171Y019722D01*
X007241Y019687D01*
X007316Y019662D01*
X007394Y019650D01*
X007413Y019650D01*
X007413Y020130D01*
X007453Y020130D01*
X007453Y019650D01*
X007473Y019650D01*
X007550Y019662D01*
X007625Y019687D01*
X007695Y019722D01*
X007759Y019769D01*
X007815Y019824D01*
X007861Y019888D01*
X007897Y019958D01*
X007921Y020033D01*
X007933Y020111D01*
X007933Y020130D01*
X007453Y020130D01*
X007453Y020170D01*
X007413Y020170D01*
X007413Y020650D01*
X007394Y020650D01*
X007316Y020638D01*
X007241Y020613D01*
X007171Y020578D01*
X007108Y020531D01*
X007052Y020476D01*
X006954Y020293D02*
X006933Y020293D01*
X006933Y020134D02*
X007413Y020134D01*
X007453Y020134D02*
X009454Y020134D01*
X009296Y020293D02*
X007913Y020293D01*
X007921Y020267D02*
X007897Y020342D01*
X007861Y020412D01*
X007815Y020476D01*
X007759Y020531D01*
X007695Y020578D01*
X007625Y020613D01*
X007550Y020638D01*
X007473Y020650D01*
X007453Y020650D01*
X007453Y020170D01*
X007933Y020170D01*
X007933Y020189D01*
X007921Y020267D01*
X007833Y020451D02*
X009137Y020451D01*
X008979Y020610D02*
X007633Y020610D01*
X007716Y020768D02*
X008820Y020768D01*
X008662Y020927D02*
X007849Y020927D01*
X007903Y021085D02*
X008503Y021085D01*
X008345Y021244D02*
X007903Y021244D01*
X007838Y021402D02*
X008186Y021402D01*
X008092Y021561D02*
X007670Y021561D01*
X007621Y021719D02*
X008083Y021719D01*
X008083Y021878D02*
X007826Y021878D01*
X007895Y022036D02*
X008083Y022036D01*
X008083Y022195D02*
X007903Y022195D01*
X007858Y022353D02*
X008083Y022353D01*
X008083Y022512D02*
X007736Y022512D01*
X008083Y023146D02*
X006933Y023146D01*
X006933Y023304D02*
X008083Y023304D01*
X008083Y023463D02*
X006933Y023463D01*
X006933Y023621D02*
X008083Y023621D01*
X008083Y023780D02*
X006933Y023780D01*
X006933Y023938D02*
X008083Y023938D01*
X008083Y024097D02*
X006933Y024097D01*
X006933Y024255D02*
X008083Y024255D01*
X008083Y024414D02*
X006933Y024414D01*
X006933Y024572D02*
X008083Y024572D01*
X008083Y024731D02*
X006933Y024731D01*
X006933Y024889D02*
X008083Y024889D01*
X008083Y025048D02*
X006933Y025048D01*
X006933Y025206D02*
X008083Y025206D01*
X008083Y025365D02*
X006933Y025365D01*
X006933Y025523D02*
X008083Y025523D01*
X008083Y025682D02*
X006933Y025682D01*
X006933Y025840D02*
X008083Y025840D01*
X008083Y025999D02*
X006933Y025999D01*
X006933Y026157D02*
X008083Y026157D01*
X008083Y026316D02*
X006933Y026316D01*
X006933Y026474D02*
X008083Y026474D01*
X008083Y026633D02*
X006933Y026633D01*
X006933Y026791D02*
X008083Y026791D01*
X008083Y026950D02*
X006933Y026950D01*
X006933Y027108D02*
X008083Y027108D01*
X008083Y027267D02*
X006933Y027267D01*
X006933Y027425D02*
X008083Y027425D01*
X008083Y027584D02*
X006933Y027584D01*
X006933Y027742D02*
X008083Y027742D01*
X008083Y027901D02*
X006933Y027901D01*
X006933Y028059D02*
X008083Y028059D01*
X008083Y028218D02*
X006933Y028218D01*
X006933Y028376D02*
X008164Y028376D01*
X008823Y028535D02*
X006933Y028535D01*
X006933Y028693D02*
X008958Y028693D01*
X008995Y028852D02*
X006933Y028852D01*
X006933Y029010D02*
X009085Y029010D01*
X009303Y029169D02*
X006933Y029169D01*
X006933Y029327D02*
X012190Y029327D01*
X012247Y029191D02*
X012123Y029489D01*
X012123Y029811D01*
X012247Y030109D01*
X012475Y030337D01*
X012772Y030460D01*
X013094Y030460D01*
X013392Y030337D01*
X013620Y030109D01*
X013743Y029811D01*
X013743Y029489D01*
X013620Y029191D01*
X013392Y028963D01*
X013094Y028840D01*
X012772Y028840D01*
X012475Y028963D01*
X012247Y029191D01*
X012269Y029169D02*
X010564Y029169D01*
X010781Y029010D02*
X012428Y029010D01*
X012745Y028852D02*
X010871Y028852D01*
X010908Y028693D02*
X014933Y028693D01*
X014933Y028535D02*
X010907Y028535D01*
X010841Y028376D02*
X012142Y028376D01*
X012171Y028398D02*
X012108Y028351D01*
X012052Y028296D01*
X012006Y028232D01*
X011970Y028162D01*
X011946Y028087D01*
X011933Y028009D01*
X011933Y027670D01*
X012413Y027670D01*
X012413Y027630D01*
X011933Y027630D01*
X011933Y027291D01*
X011946Y027213D01*
X011970Y027138D01*
X012006Y027068D01*
X012052Y027004D01*
X012108Y026949D01*
X012171Y026902D01*
X012241Y026867D01*
X012316Y026842D01*
X012394Y026830D01*
X012413Y026830D01*
X012413Y027630D01*
X012453Y027630D01*
X012453Y026830D01*
X012473Y026830D01*
X012550Y026842D01*
X012625Y026867D01*
X012695Y026902D01*
X012759Y026949D01*
X012815Y027004D01*
X012861Y027068D01*
X012897Y027138D01*
X012921Y027213D01*
X012933Y027291D01*
X012933Y027630D01*
X012453Y027630D01*
X012453Y027670D01*
X012413Y027670D01*
X012413Y028470D01*
X012394Y028470D01*
X012316Y028458D01*
X012241Y028433D01*
X012171Y028398D01*
X012413Y028376D02*
X012453Y028376D01*
X012453Y028470D02*
X012453Y027670D01*
X012933Y027670D01*
X012933Y028009D01*
X012921Y028087D01*
X012897Y028162D01*
X012861Y028232D01*
X012815Y028296D01*
X012759Y028351D01*
X012695Y028398D01*
X012625Y028433D01*
X012550Y028458D01*
X012473Y028470D01*
X012453Y028470D01*
X012453Y028218D02*
X012413Y028218D01*
X012413Y028059D02*
X012453Y028059D01*
X012453Y027901D02*
X012413Y027901D01*
X012413Y027742D02*
X012453Y027742D01*
X012453Y027584D02*
X012413Y027584D01*
X012413Y027425D02*
X012453Y027425D01*
X012453Y027267D02*
X012413Y027267D01*
X012413Y027108D02*
X012453Y027108D01*
X012453Y026950D02*
X012413Y026950D01*
X012107Y026950D02*
X010831Y026950D01*
X010896Y026791D02*
X013083Y026791D01*
X013083Y026633D02*
X010946Y026633D01*
X010683Y027108D02*
X011985Y027108D01*
X011937Y027267D02*
X008783Y027267D01*
X008783Y027425D02*
X011933Y027425D01*
X011933Y027584D02*
X008783Y027584D01*
X008783Y027742D02*
X011933Y027742D01*
X011933Y027901D02*
X009179Y027901D01*
X009337Y028059D02*
X011941Y028059D01*
X011998Y028218D02*
X010709Y028218D01*
X009183Y027108D02*
X008783Y027108D01*
X008783Y026950D02*
X009036Y026950D01*
X008970Y026791D02*
X008783Y026791D01*
X008783Y026633D02*
X008958Y026633D01*
X008985Y026474D02*
X008783Y026474D01*
X008783Y026316D02*
X009060Y026316D01*
X009241Y026157D02*
X008783Y026157D01*
X008783Y025206D02*
X009315Y025206D01*
X009080Y025048D02*
X008783Y025048D01*
X008783Y024889D02*
X008978Y024889D01*
X008934Y024731D02*
X008783Y024731D01*
X008783Y024572D02*
X008933Y024572D01*
X008930Y024592D02*
X008943Y024511D01*
X008972Y024423D01*
X009014Y024339D01*
X009069Y024264D01*
X009135Y024198D01*
X009210Y024143D01*
X009293Y024101D01*
X009382Y024072D01*
X009474Y024058D01*
X009876Y024058D01*
X009876Y024592D01*
X008930Y024592D01*
X008976Y024414D02*
X008783Y024414D01*
X008783Y024255D02*
X009078Y024255D01*
X009307Y024097D02*
X008783Y024097D01*
X009876Y024097D02*
X009991Y024097D01*
X009991Y024255D02*
X009876Y024255D01*
X009876Y024414D02*
X009991Y024414D01*
X009991Y024572D02*
X009876Y024572D01*
X009876Y024731D02*
X009991Y024731D01*
X009991Y024889D02*
X009876Y024889D01*
X009876Y025048D02*
X009991Y025048D01*
X009991Y025206D02*
X009876Y025206D01*
X012760Y026950D02*
X013083Y026950D01*
X013017Y027108D02*
X012881Y027108D01*
X012930Y027267D02*
X012963Y027267D01*
X012963Y027425D02*
X012933Y027425D01*
X012933Y027584D02*
X012963Y027584D01*
X012963Y027742D02*
X012933Y027742D01*
X012933Y027901D02*
X012963Y027901D01*
X012963Y028059D02*
X012925Y028059D01*
X012868Y028218D02*
X013027Y028218D01*
X013185Y028376D02*
X012725Y028376D01*
X013122Y028852D02*
X014933Y028852D01*
X014933Y029010D02*
X013439Y029010D01*
X013597Y029169D02*
X014933Y029169D01*
X014933Y029327D02*
X013676Y029327D01*
X013742Y029486D02*
X014933Y029486D01*
X014933Y029644D02*
X013743Y029644D01*
X013743Y029803D02*
X014933Y029803D01*
X014933Y029961D02*
X013681Y029961D01*
X013609Y030120D02*
X014933Y030120D01*
X014933Y030278D02*
X013451Y030278D01*
X013151Y030437D02*
X014933Y030437D01*
X014933Y030595D02*
X006933Y030595D01*
X006933Y030437D02*
X012716Y030437D01*
X012416Y030278D02*
X006933Y030278D01*
X006933Y030120D02*
X012257Y030120D01*
X012186Y029961D02*
X006933Y029961D01*
X006933Y029803D02*
X012123Y029803D01*
X012123Y029644D02*
X006933Y029644D01*
X006933Y029486D02*
X012125Y029486D01*
X013681Y028376D02*
X014185Y028376D01*
X014167Y028368D02*
X014035Y028236D01*
X013963Y028063D01*
X013963Y027237D01*
X014035Y027064D01*
X014167Y026932D01*
X014340Y026860D01*
X014527Y026860D01*
X014700Y026932D01*
X014832Y027064D01*
X014903Y027237D01*
X014903Y028063D01*
X014832Y028236D01*
X014700Y028368D01*
X014527Y028440D01*
X014340Y028440D01*
X014167Y028368D01*
X014027Y028218D02*
X013840Y028218D01*
X013903Y028059D02*
X013963Y028059D01*
X013963Y027901D02*
X013903Y027901D01*
X013903Y027742D02*
X013963Y027742D01*
X013963Y027584D02*
X013903Y027584D01*
X013903Y027425D02*
X013963Y027425D01*
X013963Y027267D02*
X013903Y027267D01*
X013850Y027108D02*
X014017Y027108D01*
X014149Y026950D02*
X013783Y026950D01*
X013783Y026791D02*
X014579Y026791D01*
X014718Y026950D02*
X014742Y026950D01*
X014850Y027108D02*
X017433Y027108D01*
X017433Y027267D02*
X014903Y027267D01*
X014903Y027425D02*
X017433Y027425D01*
X017433Y027584D02*
X014903Y027584D01*
X014903Y027742D02*
X014933Y027742D01*
X014933Y027901D02*
X014903Y027901D01*
X014903Y028059D02*
X014933Y028059D01*
X014933Y028218D02*
X014840Y028218D01*
X014933Y028376D02*
X014681Y028376D01*
X015433Y028693D02*
X017715Y028693D01*
X017556Y028535D02*
X017549Y028535D01*
X017426Y029183D02*
X017598Y029254D01*
X017729Y029386D01*
X017800Y029557D01*
X017800Y029743D01*
X017729Y029914D01*
X017598Y030046D01*
X017426Y030117D01*
X017240Y030117D01*
X017069Y030046D01*
X016938Y029914D01*
X016866Y029743D01*
X016866Y029557D01*
X016938Y029386D01*
X017069Y029254D01*
X017240Y029183D01*
X017426Y029183D01*
X017671Y029327D02*
X017996Y029327D01*
X017938Y029386D02*
X018069Y029254D01*
X018240Y029183D01*
X018426Y029183D01*
X018598Y029254D01*
X018729Y029386D01*
X018800Y029557D01*
X018800Y029743D01*
X018729Y029914D01*
X018598Y030046D01*
X018426Y030117D01*
X018240Y030117D01*
X018069Y030046D01*
X017938Y029914D01*
X017866Y029743D01*
X017866Y029557D01*
X017938Y029386D01*
X017896Y029486D02*
X017771Y029486D01*
X017800Y029644D02*
X017866Y029644D01*
X017891Y029803D02*
X017775Y029803D01*
X017683Y029961D02*
X017984Y029961D01*
X018683Y029961D02*
X018984Y029961D01*
X018938Y029914D02*
X018866Y029743D01*
X018866Y029557D01*
X018938Y029386D01*
X019069Y029254D01*
X019240Y029183D01*
X019426Y029183D01*
X019598Y029254D01*
X019729Y029386D01*
X019800Y029557D01*
X019800Y029743D01*
X019729Y029914D01*
X019598Y030046D01*
X019426Y030117D01*
X019240Y030117D01*
X019069Y030046D01*
X018938Y029914D01*
X018891Y029803D02*
X018775Y029803D01*
X018800Y029644D02*
X018866Y029644D01*
X018896Y029486D02*
X018771Y029486D01*
X018671Y029327D02*
X018996Y029327D01*
X019671Y029327D02*
X019996Y029327D01*
X019938Y029386D02*
X020069Y029254D01*
X020240Y029183D01*
X020426Y029183D01*
X020598Y029254D01*
X020729Y029386D01*
X020800Y029557D01*
X020800Y029743D01*
X020729Y029914D01*
X020598Y030046D01*
X020426Y030117D01*
X020240Y030117D01*
X020069Y030046D01*
X019938Y029914D01*
X019866Y029743D01*
X019866Y029557D01*
X019938Y029386D01*
X019896Y029486D02*
X019771Y029486D01*
X019800Y029644D02*
X019866Y029644D01*
X019891Y029803D02*
X019775Y029803D01*
X019683Y029961D02*
X019984Y029961D01*
X020683Y029961D02*
X020984Y029961D01*
X020938Y029914D02*
X020866Y029743D01*
X020866Y029557D01*
X020938Y029386D01*
X021069Y029254D01*
X021240Y029183D01*
X021426Y029183D01*
X021598Y029254D01*
X021729Y029386D01*
X021800Y029557D01*
X021800Y029743D01*
X021729Y029914D01*
X021598Y030046D01*
X021426Y030117D01*
X021240Y030117D01*
X021069Y030046D01*
X020938Y029914D01*
X020891Y029803D02*
X020775Y029803D01*
X020800Y029644D02*
X020866Y029644D01*
X020896Y029486D02*
X020771Y029486D01*
X020671Y029327D02*
X020996Y029327D01*
X021671Y029327D02*
X021996Y029327D01*
X021938Y029386D02*
X022069Y029254D01*
X022240Y029183D01*
X022426Y029183D01*
X022598Y029254D01*
X022729Y029386D01*
X022800Y029557D01*
X022800Y029743D01*
X022729Y029914D01*
X022598Y030046D01*
X022426Y030117D01*
X022240Y030117D01*
X022069Y030046D01*
X021938Y029914D01*
X021866Y029743D01*
X021866Y029557D01*
X021938Y029386D01*
X021896Y029486D02*
X021771Y029486D01*
X021800Y029644D02*
X021866Y029644D01*
X021891Y029803D02*
X021775Y029803D01*
X021683Y029961D02*
X021984Y029961D01*
X022683Y029961D02*
X022984Y029961D01*
X022938Y029914D02*
X022866Y029743D01*
X022866Y029557D01*
X022938Y029386D01*
X023069Y029254D01*
X023240Y029183D01*
X023426Y029183D01*
X023598Y029254D01*
X023729Y029386D01*
X023800Y029557D01*
X023800Y029743D01*
X023729Y029914D01*
X023598Y030046D01*
X023426Y030117D01*
X023240Y030117D01*
X023069Y030046D01*
X022938Y029914D01*
X022891Y029803D02*
X022775Y029803D01*
X022800Y029644D02*
X022866Y029644D01*
X022896Y029486D02*
X022771Y029486D01*
X022671Y029327D02*
X022996Y029327D01*
X023671Y029327D02*
X024596Y029327D01*
X024538Y029386D02*
X024669Y029254D01*
X024840Y029183D01*
X025026Y029183D01*
X025198Y029254D01*
X025329Y029386D01*
X025400Y029557D01*
X025400Y029743D01*
X025329Y029914D01*
X025198Y030046D01*
X025026Y030117D01*
X024840Y030117D01*
X024669Y030046D01*
X024538Y029914D01*
X024466Y029743D01*
X024466Y029557D01*
X024538Y029386D01*
X024496Y029486D02*
X023771Y029486D01*
X023800Y029644D02*
X024466Y029644D01*
X024491Y029803D02*
X023775Y029803D01*
X023683Y029961D02*
X024584Y029961D01*
X025283Y029961D02*
X025584Y029961D01*
X025538Y029914D02*
X025466Y029743D01*
X025466Y029557D01*
X025538Y029386D01*
X025669Y029254D01*
X025840Y029183D01*
X026026Y029183D01*
X026198Y029254D01*
X026329Y029386D01*
X026400Y029557D01*
X026400Y029743D01*
X026329Y029914D01*
X026198Y030046D01*
X026026Y030117D01*
X025840Y030117D01*
X025669Y030046D01*
X025538Y029914D01*
X025491Y029803D02*
X025375Y029803D01*
X025400Y029644D02*
X025466Y029644D01*
X025496Y029486D02*
X025371Y029486D01*
X025271Y029327D02*
X025596Y029327D01*
X026271Y029327D02*
X026596Y029327D01*
X026538Y029386D02*
X026669Y029254D01*
X026840Y029183D01*
X027026Y029183D01*
X027198Y029254D01*
X027329Y029386D01*
X027400Y029557D01*
X027400Y029743D01*
X027329Y029914D01*
X027198Y030046D01*
X027026Y030117D01*
X026840Y030117D01*
X026669Y030046D01*
X026538Y029914D01*
X026466Y029743D01*
X026466Y029557D01*
X026538Y029386D01*
X026496Y029486D02*
X026371Y029486D01*
X026400Y029644D02*
X026466Y029644D01*
X026491Y029803D02*
X026375Y029803D01*
X026283Y029961D02*
X026584Y029961D01*
X027283Y029961D02*
X027584Y029961D01*
X027538Y029914D02*
X027466Y029743D01*
X027466Y029557D01*
X027538Y029386D01*
X027669Y029254D01*
X027840Y029183D01*
X028026Y029183D01*
X028198Y029254D01*
X028329Y029386D01*
X028400Y029557D01*
X028400Y029743D01*
X028329Y029914D01*
X028198Y030046D01*
X028026Y030117D01*
X027840Y030117D01*
X027669Y030046D01*
X027538Y029914D01*
X027491Y029803D02*
X027375Y029803D01*
X027400Y029644D02*
X027466Y029644D01*
X027496Y029486D02*
X027371Y029486D01*
X027271Y029327D02*
X027596Y029327D01*
X028271Y029327D02*
X028596Y029327D01*
X028538Y029386D02*
X028669Y029254D01*
X028840Y029183D01*
X029026Y029183D01*
X029198Y029254D01*
X029329Y029386D01*
X029400Y029557D01*
X029400Y029743D01*
X029329Y029914D01*
X029198Y030046D01*
X029026Y030117D01*
X028840Y030117D01*
X028669Y030046D01*
X028538Y029914D01*
X028466Y029743D01*
X028466Y029557D01*
X028538Y029386D01*
X028496Y029486D02*
X028371Y029486D01*
X028400Y029644D02*
X028466Y029644D01*
X028491Y029803D02*
X028375Y029803D01*
X028283Y029961D02*
X028584Y029961D01*
X029283Y029961D02*
X029584Y029961D01*
X029538Y029914D02*
X029669Y030046D01*
X029840Y030117D01*
X030026Y030117D01*
X030198Y030046D01*
X030329Y029914D01*
X030400Y029743D01*
X030400Y029557D01*
X030329Y029386D01*
X030198Y029254D01*
X030026Y029183D01*
X029840Y029183D01*
X029669Y029254D01*
X029538Y029386D01*
X029466Y029557D01*
X029466Y029743D01*
X029538Y029914D01*
X029491Y029803D02*
X029375Y029803D01*
X029400Y029644D02*
X029466Y029644D01*
X029496Y029486D02*
X029371Y029486D01*
X029271Y029327D02*
X029596Y029327D01*
X030271Y029327D02*
X030596Y029327D01*
X030538Y029386D02*
X030669Y029254D01*
X030748Y029221D01*
X030748Y028082D01*
X030667Y028048D01*
X030535Y027916D01*
X030463Y027743D01*
X030463Y027557D01*
X030535Y027384D01*
X030667Y027252D01*
X030840Y027180D01*
X031027Y027180D01*
X031200Y027252D01*
X031332Y027384D01*
X031403Y027557D01*
X031403Y027743D01*
X031332Y027916D01*
X031200Y028048D01*
X031118Y028082D01*
X031118Y029221D01*
X031198Y029254D01*
X031329Y029386D01*
X031400Y029557D01*
X031400Y029743D01*
X031329Y029914D01*
X031198Y030046D01*
X031026Y030117D01*
X030840Y030117D01*
X030669Y030046D01*
X030538Y029914D01*
X030466Y029743D01*
X030466Y029557D01*
X030538Y029386D01*
X030496Y029486D02*
X030371Y029486D01*
X030400Y029644D02*
X030466Y029644D01*
X030491Y029803D02*
X030375Y029803D01*
X030283Y029961D02*
X030584Y029961D01*
X031283Y029961D02*
X031584Y029961D01*
X031491Y029803D02*
X031375Y029803D01*
X031400Y029644D02*
X031466Y029644D01*
X031496Y029486D02*
X031371Y029486D01*
X031271Y029327D02*
X031596Y029327D01*
X031748Y029169D02*
X031118Y029169D01*
X031118Y029010D02*
X031748Y029010D01*
X031748Y028852D02*
X031118Y028852D01*
X031118Y028693D02*
X031748Y028693D01*
X031748Y028535D02*
X031118Y028535D01*
X031118Y028376D02*
X031748Y028376D01*
X031748Y028218D02*
X031118Y028218D01*
X031174Y028059D02*
X031693Y028059D01*
X031528Y027901D02*
X031338Y027901D01*
X031403Y027742D02*
X031463Y027742D01*
X031463Y027584D02*
X031403Y027584D01*
X031349Y027425D02*
X031518Y027425D01*
X031652Y027267D02*
X031215Y027267D01*
X030652Y027267D02*
X030256Y027267D01*
X030259Y027269D02*
X030315Y027324D01*
X030361Y027388D01*
X030397Y027458D01*
X030421Y027533D01*
X030433Y027611D01*
X030433Y027630D01*
X029953Y027630D01*
X029953Y027150D01*
X029973Y027150D01*
X030050Y027162D01*
X030125Y027187D01*
X030195Y027222D01*
X030259Y027269D01*
X030380Y027425D02*
X030518Y027425D01*
X030463Y027584D02*
X030429Y027584D01*
X030433Y027670D02*
X030433Y027689D01*
X030421Y027767D01*
X030397Y027842D01*
X030361Y027912D01*
X030315Y027976D01*
X030259Y028031D01*
X030195Y028078D01*
X030125Y028113D01*
X030050Y028138D01*
X029973Y028150D01*
X029953Y028150D01*
X029953Y027670D01*
X029913Y027670D01*
X029913Y027630D01*
X029433Y027630D01*
X029433Y027611D01*
X029446Y027533D01*
X029470Y027458D01*
X029506Y027388D01*
X029552Y027324D01*
X029608Y027269D01*
X029671Y027222D01*
X029741Y027187D01*
X029816Y027162D01*
X029894Y027150D01*
X029913Y027150D01*
X029913Y027630D01*
X029953Y027630D01*
X029953Y027670D01*
X030433Y027670D01*
X030425Y027742D02*
X030463Y027742D01*
X030528Y027901D02*
X030367Y027901D01*
X030221Y028059D02*
X030693Y028059D01*
X030748Y028218D02*
X027340Y028218D01*
X027403Y028059D02*
X028693Y028059D01*
X028528Y027901D02*
X027403Y027901D01*
X027403Y027742D02*
X028463Y027742D01*
X028463Y027584D02*
X027403Y027584D01*
X027403Y027425D02*
X028447Y027425D01*
X028288Y027267D02*
X027403Y027267D01*
X027350Y027108D02*
X028130Y027108D01*
X027971Y026950D02*
X027218Y026950D01*
X027200Y026633D02*
X027654Y026633D01*
X027813Y026791D02*
X026836Y026791D01*
X026471Y026950D02*
X026218Y026950D01*
X026313Y026791D02*
X023324Y026791D01*
X023463Y026950D02*
X024649Y026950D01*
X024517Y027108D02*
X023463Y027108D01*
X023463Y027267D02*
X024463Y027267D01*
X025218Y026950D02*
X025649Y026950D01*
X025517Y027108D02*
X025350Y027108D01*
X025403Y027267D02*
X025463Y027267D01*
X025463Y027425D02*
X025403Y027425D01*
X025403Y027584D02*
X025463Y027584D01*
X025463Y027742D02*
X025403Y027742D01*
X025403Y027901D02*
X025463Y027901D01*
X025463Y028059D02*
X025403Y028059D01*
X025340Y028218D02*
X025527Y028218D01*
X025446Y028376D02*
X025181Y028376D01*
X024685Y028376D02*
X023702Y028376D01*
X023861Y028218D02*
X024527Y028218D01*
X024463Y028059D02*
X024019Y028059D01*
X023505Y027584D02*
X023249Y027584D01*
X023346Y027742D02*
X021520Y027742D01*
X021362Y027584D02*
X022617Y027584D01*
X023408Y027425D02*
X023663Y027425D01*
X023165Y026633D02*
X026154Y026633D01*
X026350Y027108D02*
X026517Y027108D01*
X026463Y027267D02*
X026403Y027267D01*
X026403Y027425D02*
X026463Y027425D01*
X026463Y027584D02*
X026403Y027584D01*
X026403Y027742D02*
X026463Y027742D01*
X026463Y027901D02*
X026403Y027901D01*
X026403Y028059D02*
X026463Y028059D01*
X026527Y028218D02*
X026340Y028218D01*
X026181Y028376D02*
X026685Y028376D01*
X027181Y028376D02*
X030748Y028376D01*
X030748Y028535D02*
X025810Y028535D01*
X025652Y028693D02*
X030748Y028693D01*
X030748Y028852D02*
X015433Y028852D01*
X015433Y029010D02*
X030748Y029010D01*
X030748Y029169D02*
X015433Y029169D01*
X015433Y029327D02*
X015996Y029327D01*
X015938Y029386D02*
X016069Y029254D01*
X016240Y029183D01*
X016426Y029183D01*
X016598Y029254D01*
X016729Y029386D01*
X016800Y029557D01*
X016800Y029743D01*
X016729Y029914D01*
X016598Y030046D01*
X016426Y030117D01*
X016240Y030117D01*
X016069Y030046D01*
X015938Y029914D01*
X015866Y029743D01*
X015866Y029557D01*
X015938Y029386D01*
X015896Y029486D02*
X015433Y029486D01*
X015433Y029644D02*
X015866Y029644D01*
X015891Y029803D02*
X015433Y029803D01*
X015433Y029961D02*
X015984Y029961D01*
X015433Y030120D02*
X032248Y030120D01*
X032248Y030278D02*
X015433Y030278D01*
X015433Y030437D02*
X032248Y030437D01*
X032248Y030595D02*
X015433Y030595D01*
X016683Y029961D02*
X016984Y029961D01*
X016891Y029803D02*
X016775Y029803D01*
X016800Y029644D02*
X016866Y029644D01*
X016896Y029486D02*
X016771Y029486D01*
X016671Y029327D02*
X016996Y029327D01*
X014421Y026633D02*
X013783Y026633D01*
X013783Y026474D02*
X014262Y026474D01*
X014104Y026316D02*
X013783Y026316D01*
X013783Y026157D02*
X013945Y026157D01*
X014460Y025682D02*
X014968Y025682D01*
X014968Y025840D02*
X014618Y025840D01*
X014777Y025999D02*
X015124Y025999D01*
X014935Y026157D02*
X017433Y026157D01*
X017433Y025999D02*
X016785Y025999D01*
X015061Y025365D02*
X014143Y025365D01*
X014301Y025523D02*
X014968Y025523D01*
X017542Y021244D02*
X011601Y021244D01*
X011760Y021085D02*
X017472Y021085D01*
X014215Y020927D02*
X012037Y020927D01*
X012204Y020768D02*
X014056Y020768D01*
X013898Y020610D02*
X012228Y020610D01*
X011638Y020610D02*
X009969Y020610D01*
X009810Y020768D02*
X011554Y020768D01*
X011395Y020927D02*
X009652Y020927D01*
X009613Y019976D02*
X007902Y019976D01*
X007807Y019817D02*
X009823Y019817D01*
X010363Y019342D02*
X006933Y019342D01*
X006933Y019500D02*
X010522Y019500D01*
X010638Y019659D02*
X007527Y019659D01*
X007453Y019659D02*
X007413Y019659D01*
X007340Y019659D02*
X006933Y019659D01*
X006933Y019817D02*
X007059Y019817D01*
X006964Y019976D02*
X006933Y019976D01*
X007413Y019976D02*
X007453Y019976D01*
X007453Y019817D02*
X007413Y019817D01*
X007413Y020293D02*
X007453Y020293D01*
X007453Y020451D02*
X007413Y020451D01*
X007413Y020610D02*
X007453Y020610D01*
X010569Y019025D02*
X013933Y019025D01*
X013933Y019183D02*
X010728Y019183D01*
X010886Y019342D02*
X013933Y019342D01*
X013933Y019500D02*
X011191Y019500D01*
X011228Y019659D02*
X013933Y019659D01*
X019901Y017123D02*
X020777Y017123D01*
X020913Y017123D02*
X020953Y017123D01*
X021090Y017123D02*
X022199Y017123D01*
X022041Y017281D02*
X021342Y017281D01*
X021443Y017440D02*
X021727Y017440D01*
X021638Y017598D02*
X021482Y017598D01*
X021473Y017757D02*
X021658Y017757D01*
X021802Y017915D02*
X021416Y017915D01*
X020953Y017598D02*
X020913Y017598D01*
X020913Y017440D02*
X020953Y017440D01*
X020953Y017281D02*
X020913Y017281D01*
X020524Y017281D02*
X020300Y017281D01*
X020409Y017440D02*
X020423Y017440D01*
X020090Y016964D02*
X022358Y016964D01*
X022516Y016806D02*
X020273Y016806D01*
X020431Y016647D02*
X022675Y016647D01*
X022833Y016489D02*
X020788Y016489D01*
X020889Y016330D02*
X022992Y016330D01*
X023150Y016172D02*
X020923Y016172D01*
X020907Y016013D02*
X023309Y016013D01*
X023510Y016835D02*
X023490Y016855D01*
X023492Y016855D01*
X023600Y016900D01*
X023683Y016983D01*
X023728Y017091D01*
X023728Y017183D01*
X024010Y017465D01*
X024510Y017465D01*
X024822Y017777D01*
X024847Y017752D01*
X025020Y017680D01*
X025847Y017680D01*
X026020Y017752D01*
X026152Y017884D01*
X026223Y018057D01*
X026223Y018243D01*
X026152Y018416D01*
X026103Y018465D01*
X026357Y018465D01*
X027138Y017683D01*
X027138Y017591D01*
X027183Y017483D01*
X027266Y017400D01*
X027375Y017355D01*
X027377Y017355D01*
X026357Y016335D01*
X025010Y016335D01*
X024510Y016835D01*
X023510Y016835D01*
X023665Y016964D02*
X024648Y016964D01*
X024650Y016958D02*
X024686Y016888D01*
X024732Y016824D01*
X024788Y016769D01*
X024851Y016722D01*
X024921Y016687D01*
X024996Y016662D01*
X025074Y016650D01*
X025413Y016650D01*
X025413Y017130D01*
X024613Y017130D01*
X024613Y017111D01*
X024626Y017033D01*
X024650Y016958D01*
X024613Y017123D02*
X023728Y017123D01*
X023826Y017281D02*
X024630Y017281D01*
X024626Y017267D02*
X024613Y017189D01*
X024613Y017170D01*
X025413Y017170D01*
X025413Y017130D01*
X025453Y017130D01*
X025453Y016650D01*
X025793Y016650D01*
X025870Y016662D01*
X025945Y016687D01*
X026015Y016722D01*
X026079Y016769D01*
X026135Y016824D01*
X026181Y016888D01*
X026217Y016958D01*
X026241Y017033D01*
X026253Y017111D01*
X026253Y017130D01*
X025453Y017130D01*
X025453Y017170D01*
X025413Y017170D01*
X025413Y017650D01*
X025074Y017650D01*
X024996Y017638D01*
X024921Y017613D01*
X024851Y017578D01*
X024788Y017531D01*
X024732Y017476D01*
X024686Y017412D01*
X024650Y017342D01*
X024626Y017267D01*
X024706Y017440D02*
X023984Y017440D01*
X024643Y017598D02*
X024891Y017598D01*
X024842Y017757D02*
X024801Y017757D01*
X025413Y017598D02*
X025453Y017598D01*
X025453Y017650D02*
X025453Y017170D01*
X026253Y017170D01*
X026253Y017189D01*
X026241Y017267D01*
X026217Y017342D01*
X026181Y017412D01*
X026135Y017476D01*
X026079Y017531D01*
X026015Y017578D01*
X025945Y017613D01*
X025870Y017638D01*
X025793Y017650D01*
X025453Y017650D01*
X025453Y017440D02*
X025413Y017440D01*
X025413Y017281D02*
X025453Y017281D01*
X025453Y017123D02*
X025413Y017123D01*
X025413Y016964D02*
X025453Y016964D01*
X025453Y016806D02*
X025413Y016806D01*
X026116Y016806D02*
X026827Y016806D01*
X026986Y016964D02*
X026219Y016964D01*
X026253Y017123D02*
X027144Y017123D01*
X027303Y017281D02*
X026236Y017281D01*
X026161Y017440D02*
X027227Y017440D01*
X027138Y017598D02*
X025975Y017598D01*
X026025Y017757D02*
X027065Y017757D01*
X026907Y017915D02*
X026165Y017915D01*
X026223Y018074D02*
X026748Y018074D01*
X026590Y018232D02*
X026223Y018232D01*
X026162Y018391D02*
X026431Y018391D01*
X024751Y016806D02*
X024539Y016806D01*
X024698Y016647D02*
X026669Y016647D01*
X026510Y016489D02*
X024856Y016489D01*
X024467Y015855D02*
X020831Y015855D01*
X019453Y014428D02*
X019413Y014428D01*
X019413Y014270D02*
X019453Y014270D01*
X019453Y014111D02*
X019413Y014111D01*
X019413Y013953D02*
X019453Y013953D01*
X019453Y013794D02*
X019413Y013794D01*
X019413Y013636D02*
X018903Y013636D01*
X018903Y013794D02*
X018933Y013794D01*
X018933Y013953D02*
X018903Y013953D01*
X018903Y014063D02*
X018832Y014236D01*
X018700Y014368D01*
X018527Y014440D01*
X018340Y014440D01*
X018167Y014368D01*
X018035Y014236D01*
X017963Y014063D01*
X017963Y013237D01*
X018035Y013064D01*
X018167Y012932D01*
X018340Y012860D01*
X018527Y012860D01*
X018700Y012932D01*
X018832Y013064D01*
X018903Y013237D01*
X018903Y014063D01*
X018884Y014111D02*
X018953Y014111D01*
X019033Y014270D02*
X018798Y014270D01*
X018556Y014428D02*
X019231Y014428D01*
X019453Y013636D02*
X021953Y013636D01*
X023676Y013002D02*
X019812Y013002D01*
X019553Y012843D02*
X028709Y012843D01*
X029158Y012843D02*
X029209Y012843D01*
X029344Y012368D02*
X029022Y012368D01*
X028844Y012368D02*
X025711Y012368D01*
X025783Y012209D02*
X029748Y012209D01*
X029748Y012051D02*
X025783Y012051D01*
X025783Y011892D02*
X029748Y011892D01*
X029748Y011734D02*
X025783Y011734D01*
X025783Y011575D02*
X029748Y011575D01*
X029748Y011417D02*
X025783Y011417D01*
X025190Y009515D02*
X023330Y009515D01*
X023489Y009356D02*
X025031Y009356D01*
X025003Y009198D02*
X023647Y009198D01*
X023806Y009039D02*
X025003Y009039D01*
X025095Y008881D02*
X023964Y008881D01*
X024123Y008722D02*
X025253Y008722D01*
X024786Y008405D02*
X026080Y008405D01*
X026003Y008247D02*
X024863Y008247D01*
X024863Y008088D02*
X026003Y008088D01*
X026046Y007930D02*
X024821Y007930D01*
X024662Y007771D02*
X026204Y007771D01*
X026239Y008564D02*
X024628Y008564D01*
X024003Y008247D02*
X022758Y008247D01*
X022857Y008405D02*
X023917Y008405D01*
X023758Y008564D02*
X022906Y008564D01*
X022906Y008722D02*
X023600Y008722D01*
X023441Y008881D02*
X022855Y008881D01*
X022752Y009039D02*
X023283Y009039D01*
X023124Y009198D02*
X022516Y009198D01*
X022111Y009198D02*
X021118Y009198D01*
X021118Y009356D02*
X022966Y009356D01*
X021874Y009039D02*
X021118Y009039D01*
X021118Y008881D02*
X021772Y008881D01*
X021721Y008722D02*
X021118Y008722D01*
X021118Y008564D02*
X021721Y008564D01*
X021769Y008405D02*
X021118Y008405D01*
X021118Y008247D02*
X021869Y008247D01*
X022060Y008088D02*
X022098Y008088D01*
X022219Y007930D02*
X024046Y007930D01*
X024003Y008088D02*
X022529Y008088D01*
X022293Y007771D02*
X024204Y007771D01*
X022124Y007296D02*
X046748Y007296D01*
X046748Y007137D02*
X006933Y007137D01*
X006933Y007296D02*
X019701Y007296D01*
X019836Y007160D02*
X020023Y007160D01*
X020023Y007640D01*
X019543Y007640D01*
X019543Y007453D01*
X019836Y007160D01*
X020063Y007160D02*
X020250Y007160D01*
X020543Y007453D01*
X020543Y007640D01*
X020063Y007640D01*
X020063Y007160D01*
X020063Y007296D02*
X020023Y007296D01*
X020023Y007454D02*
X020063Y007454D01*
X020063Y007613D02*
X020023Y007613D01*
X020023Y007640D02*
X020063Y007640D01*
X020063Y007680D01*
X020023Y007680D01*
X020023Y007640D01*
X020023Y007680D02*
X019543Y007680D01*
X019543Y007867D01*
X019761Y008085D01*
X019671Y008048D01*
X019435Y008048D01*
X019218Y008138D01*
X019051Y008304D01*
X018961Y008522D01*
X018961Y008758D01*
X019051Y008976D01*
X019218Y009142D01*
X019435Y009232D01*
X019671Y009232D01*
X019889Y009142D01*
X020056Y008976D01*
X020146Y008758D01*
X020146Y008522D01*
X020056Y008304D01*
X019911Y008160D01*
X020023Y008160D01*
X020023Y007680D01*
X020063Y007680D02*
X020063Y008160D01*
X020250Y008160D01*
X020543Y007867D01*
X020543Y007680D01*
X020063Y007680D01*
X020063Y007771D02*
X020023Y007771D01*
X020023Y007930D02*
X020063Y007930D01*
X020063Y008088D02*
X020023Y008088D01*
X019998Y008247D02*
X020748Y008247D01*
X020748Y008405D02*
X020097Y008405D01*
X020146Y008564D02*
X020748Y008564D01*
X020748Y008722D02*
X020146Y008722D01*
X020095Y008881D02*
X020748Y008881D01*
X020748Y009039D02*
X019992Y009039D01*
X019756Y009198D02*
X020748Y009198D01*
X020748Y009356D02*
X018901Y009356D01*
X019059Y009515D02*
X020748Y009515D01*
X020649Y009673D02*
X019118Y009673D01*
X019118Y009832D02*
X020490Y009832D01*
X020332Y009990D02*
X019118Y009990D01*
X019118Y010149D02*
X020173Y010149D01*
X020379Y010466D02*
X020504Y010466D01*
X020466Y010624D02*
X020400Y010624D01*
X020384Y010783D02*
X020483Y010783D01*
X020538Y010307D02*
X020616Y010307D01*
X020696Y010149D02*
X021248Y010149D01*
X021248Y009990D02*
X020855Y009990D01*
X021013Y009832D02*
X021248Y009832D01*
X021248Y009673D02*
X021118Y009673D01*
X021118Y009515D02*
X021307Y009515D01*
X021118Y008088D02*
X021587Y008088D01*
X021428Y007930D02*
X021118Y007930D01*
X020748Y007930D02*
X020481Y007930D01*
X020543Y007771D02*
X020748Y007771D01*
X020748Y007613D02*
X020543Y007613D01*
X020543Y007454D02*
X021365Y007454D01*
X021523Y007296D02*
X020386Y007296D01*
X020322Y008088D02*
X020748Y008088D01*
X019606Y007930D02*
X010863Y007930D01*
X010762Y007771D02*
X019543Y007771D01*
X019543Y007613D02*
X010518Y007613D01*
X010849Y008405D02*
X017427Y008405D01*
X017585Y008564D02*
X016108Y008564D01*
X016118Y008722D02*
X016640Y008722D01*
X016623Y008731D02*
X016706Y008688D01*
X016795Y008660D01*
X016876Y008647D01*
X016876Y009592D01*
X016991Y009592D01*
X016991Y008647D01*
X017072Y008660D01*
X017161Y008688D01*
X017244Y008731D01*
X017319Y008786D01*
X017385Y008852D01*
X017440Y008927D01*
X017482Y009010D01*
X017511Y009099D01*
X017526Y009191D01*
X017526Y009592D01*
X016991Y009592D01*
X016991Y009708D01*
X016876Y009708D01*
X016876Y010653D01*
X016795Y010640D01*
X016706Y010612D01*
X016623Y010569D01*
X016547Y010514D01*
X016481Y010448D01*
X016427Y010373D01*
X016384Y010290D01*
X016355Y010201D01*
X016341Y010109D01*
X016341Y009708D01*
X016876Y009708D01*
X016876Y009592D01*
X016341Y009592D01*
X016341Y009191D01*
X016355Y009099D01*
X016384Y009010D01*
X016427Y008927D01*
X016481Y008852D01*
X016547Y008786D01*
X016623Y008731D01*
X016460Y008881D02*
X016118Y008881D01*
X016118Y009039D02*
X016375Y009039D01*
X016341Y009198D02*
X016118Y009198D01*
X016118Y009356D02*
X016341Y009356D01*
X016341Y009515D02*
X016118Y009515D01*
X016118Y009673D02*
X016876Y009673D01*
X016991Y009673D02*
X018695Y009673D01*
X018748Y009832D02*
X017526Y009832D01*
X017526Y009708D02*
X017526Y010109D01*
X017511Y010201D01*
X017482Y010290D01*
X017440Y010373D01*
X017385Y010448D01*
X017319Y010514D01*
X017244Y010569D01*
X017161Y010612D01*
X017072Y010640D01*
X016991Y010653D01*
X016991Y009708D01*
X017526Y009708D01*
X017526Y009515D02*
X018536Y009515D01*
X018378Y009356D02*
X017526Y009356D01*
X017526Y009198D02*
X018219Y009198D01*
X018061Y009039D02*
X017492Y009039D01*
X017406Y008881D02*
X017902Y008881D01*
X017744Y008722D02*
X017227Y008722D01*
X016991Y008722D02*
X016876Y008722D01*
X016876Y008881D02*
X016991Y008881D01*
X016991Y009039D02*
X016876Y009039D01*
X016876Y009198D02*
X016991Y009198D01*
X016991Y009356D02*
X016876Y009356D01*
X016876Y009515D02*
X016991Y009515D01*
X016991Y009832D02*
X016876Y009832D01*
X016876Y009990D02*
X016991Y009990D01*
X016991Y010149D02*
X016876Y010149D01*
X016876Y010307D02*
X016991Y010307D01*
X016991Y010466D02*
X016876Y010466D01*
X016876Y010624D02*
X016991Y010624D01*
X017123Y010624D02*
X018748Y010624D01*
X018748Y010466D02*
X017368Y010466D01*
X017474Y010307D02*
X018748Y010307D01*
X018748Y010149D02*
X017520Y010149D01*
X017526Y009990D02*
X018748Y009990D01*
X019118Y010307D02*
X019616Y010307D01*
X019504Y010466D02*
X019118Y010466D01*
X019118Y010624D02*
X019466Y010624D01*
X019483Y010783D02*
X019118Y010783D01*
X019118Y010941D02*
X019564Y010941D01*
X018748Y010941D02*
X017642Y010941D01*
X017728Y011100D02*
X018748Y011100D01*
X018780Y011258D02*
X017708Y011258D01*
X017225Y010941D02*
X016486Y010941D01*
X016327Y010783D02*
X018748Y010783D01*
X016744Y010624D02*
X016169Y010624D01*
X016118Y010466D02*
X016498Y010466D01*
X016393Y010307D02*
X016118Y010307D01*
X016118Y010149D02*
X016347Y010149D01*
X016341Y009990D02*
X016118Y009990D01*
X016118Y009832D02*
X016341Y009832D01*
X015748Y009832D02*
X015496Y009832D01*
X015496Y009990D02*
X015748Y009990D01*
X015748Y010149D02*
X015496Y010149D01*
X015441Y010307D02*
X015748Y010307D01*
X015748Y010466D02*
X015326Y010466D01*
X015048Y010624D02*
X015748Y010624D01*
X015804Y010783D02*
X014296Y010783D01*
X014454Y010624D02*
X014819Y010624D01*
X014642Y010941D02*
X015225Y010941D01*
X015642Y010941D02*
X015963Y010941D01*
X016121Y011100D02*
X015728Y011100D01*
X015708Y011258D02*
X016280Y011258D01*
X016588Y011734D02*
X014283Y011734D01*
X014283Y011892D02*
X016430Y011892D01*
X016271Y012051D02*
X014283Y012051D01*
X014283Y012209D02*
X014569Y012209D01*
X014417Y012368D02*
X014283Y012368D01*
X014283Y012526D02*
X014352Y012526D01*
X014331Y012685D02*
X014283Y012685D01*
X013583Y013002D02*
X008783Y013002D01*
X008783Y013160D02*
X013583Y013160D01*
X013624Y013319D02*
X009048Y013319D01*
X009255Y013477D02*
X013808Y013477D01*
X014331Y013636D02*
X010574Y013636D01*
X010785Y013794D02*
X014360Y013794D01*
X014431Y013953D02*
X010873Y013953D01*
X010908Y014111D02*
X014589Y014111D01*
X015536Y012843D02*
X015709Y012843D01*
X015638Y012685D02*
X015536Y012685D01*
X015515Y012526D02*
X015665Y012526D01*
X015844Y012368D02*
X015449Y012368D01*
X015298Y012209D02*
X016113Y012209D01*
X017502Y012843D02*
X019314Y012843D01*
X019055Y013002D02*
X018770Y013002D01*
X018872Y013160D02*
X018963Y013160D01*
X018933Y013319D02*
X018903Y013319D01*
X018903Y013477D02*
X018933Y013477D01*
X018097Y013002D02*
X017770Y013002D01*
X017872Y013160D02*
X017995Y013160D01*
X017963Y013319D02*
X017903Y013319D01*
X017903Y013477D02*
X017963Y013477D01*
X017963Y013636D02*
X017903Y013636D01*
X017903Y013794D02*
X017963Y013794D01*
X017963Y013953D02*
X017903Y013953D01*
X017884Y014111D02*
X017983Y014111D01*
X018068Y014270D02*
X017798Y014270D01*
X017556Y014428D02*
X018311Y014428D01*
X017311Y014428D02*
X016629Y014428D01*
X016618Y014270D02*
X017068Y014270D01*
X016983Y014111D02*
X016618Y014111D01*
X016618Y013953D02*
X016963Y013953D01*
X016963Y013794D02*
X016618Y013794D01*
X016709Y013636D02*
X016963Y013636D01*
X016963Y013477D02*
X016868Y013477D01*
X015748Y009673D02*
X015496Y009673D01*
X015496Y009515D02*
X015748Y009515D01*
X015748Y009356D02*
X015496Y009356D01*
X015496Y009198D02*
X015748Y009198D01*
X015748Y009039D02*
X015460Y009039D01*
X015372Y008881D02*
X015748Y008881D01*
X014495Y008881D02*
X012964Y008881D01*
X012806Y009039D02*
X014407Y009039D01*
X014371Y009198D02*
X012647Y009198D01*
X012489Y009356D02*
X014371Y009356D01*
X014371Y009515D02*
X012330Y009515D01*
X012172Y009673D02*
X014371Y009673D01*
X012758Y008564D02*
X010728Y008564D01*
X011966Y009356D02*
X007639Y009356D01*
X007481Y009198D02*
X012124Y009198D01*
X012283Y009039D02*
X007322Y009039D01*
X007164Y008881D02*
X012441Y008881D01*
X012600Y008722D02*
X007005Y008722D01*
X006933Y008650D02*
X007933Y009650D01*
X007933Y009673D02*
X009203Y009673D01*
X009044Y009832D02*
X007933Y009832D01*
X007933Y009990D02*
X008978Y009990D01*
X008958Y010149D02*
X007933Y010149D01*
X007933Y010307D02*
X008977Y010307D01*
X009043Y010466D02*
X007933Y010466D01*
X007933Y010624D02*
X009199Y010624D01*
X009139Y008564D02*
X006933Y008564D01*
X006933Y008405D02*
X009018Y008405D01*
X008958Y008247D02*
X006933Y008247D01*
X006933Y008088D02*
X008958Y008088D01*
X009003Y007930D02*
X006933Y007930D01*
X006933Y007771D02*
X009104Y007771D01*
X009349Y007613D02*
X006933Y007613D01*
X006933Y007454D02*
X019543Y007454D01*
X019338Y008088D02*
X017633Y008088D01*
X017791Y008247D02*
X019109Y008247D01*
X019009Y008405D02*
X017950Y008405D01*
X018108Y008564D02*
X018961Y008564D01*
X018961Y008722D02*
X018267Y008722D01*
X018425Y008881D02*
X019012Y008881D01*
X019114Y009039D02*
X018584Y009039D01*
X018742Y009198D02*
X019351Y009198D01*
X029522Y012368D02*
X029748Y012368D01*
X031693Y013794D02*
X032115Y013794D01*
X036782Y018866D02*
X037085Y018866D01*
X037001Y019025D02*
X036865Y019025D01*
X036880Y019183D02*
X036986Y019183D01*
X037029Y019342D02*
X036838Y019342D01*
X039751Y020293D02*
X040158Y020293D01*
X040000Y020451D02*
X039909Y020451D01*
X039910Y020610D02*
X039986Y020610D01*
X039986Y020768D02*
X039910Y020768D01*
X039832Y020927D02*
X040077Y020927D01*
X040236Y021085D02*
X039673Y021085D01*
X039702Y021244D02*
X040207Y021244D01*
X040049Y021402D02*
X039860Y021402D01*
X039910Y021561D02*
X039986Y021561D01*
X039986Y021719D02*
X039910Y021719D01*
X039881Y021878D02*
X040028Y021878D01*
X040880Y020835D02*
X040880Y020835D01*
X040880Y020768D02*
X042163Y020768D01*
X042131Y020610D02*
X040880Y020610D01*
X040867Y020451D02*
X041973Y020451D01*
X041814Y020293D02*
X040708Y020293D01*
X040880Y023465D02*
X040880Y023465D01*
X042748Y024889D02*
X038434Y024889D01*
X039092Y025048D02*
X042748Y025048D01*
X042748Y025206D02*
X039251Y025206D01*
X039756Y025365D02*
X042748Y025365D01*
X042748Y025523D02*
X040568Y025523D01*
X040726Y025682D02*
X042748Y025682D01*
X042748Y025840D02*
X040885Y025840D01*
X041043Y025999D02*
X042748Y025999D01*
X042748Y026157D02*
X041202Y026157D01*
X041360Y026316D02*
X042748Y026316D01*
X042748Y026474D02*
X041519Y026474D01*
X041677Y026633D02*
X042748Y026633D01*
X042748Y026791D02*
X041836Y026791D01*
X041994Y026950D02*
X042748Y026950D01*
X042748Y027108D02*
X042153Y027108D01*
X042311Y027267D02*
X042748Y027267D01*
X042748Y027425D02*
X042470Y027425D01*
X042618Y027584D02*
X042748Y027584D01*
X042748Y027742D02*
X042618Y027742D01*
X042618Y027901D02*
X042748Y027901D01*
X042748Y028059D02*
X042618Y028059D01*
X042618Y028218D02*
X042748Y028218D01*
X042748Y028376D02*
X042618Y028376D01*
X042618Y028535D02*
X042748Y028535D01*
X042748Y028693D02*
X042618Y028693D01*
X042618Y028852D02*
X042873Y028852D01*
X043032Y029010D02*
X042618Y029010D01*
X042618Y029169D02*
X043190Y029169D01*
X043349Y029327D02*
X042618Y029327D01*
X042618Y029486D02*
X043496Y029486D01*
X043466Y029644D02*
X042618Y029644D01*
X042618Y029803D02*
X043491Y029803D01*
X043584Y029961D02*
X042618Y029961D01*
X042618Y030120D02*
X046748Y030120D01*
X046748Y030278D02*
X042618Y030278D01*
X042618Y030437D02*
X046748Y030437D01*
X046748Y030595D02*
X042618Y030595D01*
X044283Y029961D02*
X044584Y029961D01*
X044596Y029327D02*
X044271Y029327D01*
X044198Y029046D02*
X044026Y029117D01*
X043840Y029117D01*
X043669Y029046D01*
X043538Y028914D01*
X043466Y028743D01*
X043466Y028557D01*
X043538Y028386D01*
X043669Y028254D01*
X043840Y028183D01*
X044026Y028183D01*
X044198Y028254D01*
X044329Y028386D01*
X044400Y028557D01*
X044400Y028743D01*
X044329Y028914D01*
X044198Y029046D01*
X044234Y029010D02*
X044633Y029010D01*
X044669Y029046D02*
X044538Y028914D01*
X044466Y028743D01*
X044466Y028557D01*
X044538Y028386D01*
X044669Y028254D01*
X044840Y028183D01*
X045026Y028183D01*
X045198Y028254D01*
X045329Y028386D01*
X045400Y028557D01*
X045400Y028743D01*
X045329Y028914D01*
X045198Y029046D01*
X045026Y029117D01*
X044840Y029117D01*
X044669Y029046D01*
X044511Y028852D02*
X044355Y028852D01*
X044400Y028693D02*
X044466Y028693D01*
X044476Y028535D02*
X044391Y028535D01*
X044320Y028376D02*
X044547Y028376D01*
X044757Y028218D02*
X044109Y028218D01*
X044026Y028117D02*
X043840Y028117D01*
X043669Y028046D01*
X043538Y027914D01*
X043466Y027743D01*
X043466Y027557D01*
X043538Y027386D01*
X043669Y027254D01*
X043840Y027183D01*
X044026Y027183D01*
X044198Y027254D01*
X044329Y027386D01*
X044400Y027557D01*
X044400Y027743D01*
X044329Y027914D01*
X044198Y028046D01*
X044026Y028117D01*
X044166Y028059D02*
X044701Y028059D01*
X044669Y028046D02*
X044538Y027914D01*
X044466Y027743D01*
X044466Y027557D01*
X044538Y027386D01*
X044669Y027254D01*
X044840Y027183D01*
X045026Y027183D01*
X045198Y027254D01*
X045329Y027386D01*
X045400Y027557D01*
X045400Y027743D01*
X045329Y027914D01*
X045198Y028046D01*
X045026Y028117D01*
X044840Y028117D01*
X044669Y028046D01*
X044532Y027901D02*
X044335Y027901D01*
X044400Y027742D02*
X044466Y027742D01*
X044466Y027584D02*
X044400Y027584D01*
X044345Y027425D02*
X044521Y027425D01*
X044657Y027267D02*
X044210Y027267D01*
X044198Y027046D02*
X044026Y027117D01*
X043840Y027117D01*
X043669Y027046D01*
X043538Y026914D01*
X043466Y026743D01*
X043466Y026557D01*
X043538Y026386D01*
X043669Y026254D01*
X043840Y026183D01*
X044026Y026183D01*
X044198Y026254D01*
X044329Y026386D01*
X044400Y026557D01*
X044400Y026743D01*
X044329Y026914D01*
X044198Y027046D01*
X044294Y026950D02*
X044573Y026950D01*
X044538Y026914D02*
X044669Y027046D01*
X044840Y027117D01*
X045026Y027117D01*
X045198Y027046D01*
X045329Y026914D01*
X045400Y026743D01*
X045400Y026557D01*
X045329Y026386D01*
X045198Y026254D01*
X045026Y026183D01*
X044840Y026183D01*
X044669Y026254D01*
X044538Y026386D01*
X044466Y026557D01*
X044466Y026743D01*
X044538Y026914D01*
X044486Y026791D02*
X044380Y026791D01*
X044400Y026633D02*
X044466Y026633D01*
X044501Y026474D02*
X044366Y026474D01*
X044259Y026316D02*
X044608Y026316D01*
X044622Y025999D02*
X044245Y025999D01*
X044360Y025840D02*
X044507Y025840D01*
X044466Y025682D02*
X044400Y025682D01*
X044386Y025523D02*
X044481Y025523D01*
X044559Y025365D02*
X044308Y025365D01*
X043785Y025206D02*
X043118Y025206D01*
X043118Y025048D02*
X043673Y025048D01*
X043527Y024889D02*
X043118Y024889D01*
X043118Y024731D02*
X043466Y024731D01*
X043466Y024572D02*
X043117Y024572D01*
X043526Y024414D02*
X038458Y024414D01*
X043118Y025365D02*
X043559Y025365D01*
X043481Y025523D02*
X043118Y025523D01*
X043118Y025682D02*
X043466Y025682D01*
X043507Y025840D02*
X043118Y025840D01*
X043118Y025999D02*
X043622Y025999D01*
X043608Y026316D02*
X043118Y026316D01*
X043118Y026474D02*
X043501Y026474D01*
X043466Y026633D02*
X043118Y026633D01*
X043118Y026791D02*
X043486Y026791D01*
X043573Y026950D02*
X043118Y026950D01*
X043118Y027108D02*
X043819Y027108D01*
X043657Y027267D02*
X043118Y027267D01*
X043118Y027425D02*
X043521Y027425D01*
X043466Y027584D02*
X043118Y027584D01*
X043118Y027742D02*
X043466Y027742D01*
X043532Y027901D02*
X043118Y027901D01*
X043118Y028059D02*
X043701Y028059D01*
X043757Y028218D02*
X043118Y028218D01*
X043118Y028376D02*
X043547Y028376D01*
X043476Y028535D02*
X043118Y028535D01*
X043238Y028693D02*
X043466Y028693D01*
X043511Y028852D02*
X043396Y028852D01*
X043555Y029010D02*
X043633Y029010D01*
X043714Y029169D02*
X046748Y029169D01*
X046748Y029327D02*
X045271Y029327D01*
X045371Y029486D02*
X046748Y029486D01*
X046748Y029644D02*
X045400Y029644D01*
X045375Y029803D02*
X046748Y029803D01*
X046748Y029961D02*
X045283Y029961D01*
X045234Y029010D02*
X046748Y029010D01*
X046748Y028852D02*
X045355Y028852D01*
X045400Y028693D02*
X046748Y028693D01*
X046082Y028535D02*
X045391Y028535D01*
X045320Y028376D02*
X045964Y028376D01*
X045913Y028218D02*
X045109Y028218D01*
X045166Y028059D02*
X045913Y028059D01*
X045974Y027901D02*
X045335Y027901D01*
X045400Y027742D02*
X046106Y027742D01*
X046094Y027584D02*
X045400Y027584D01*
X045345Y027425D02*
X045956Y027425D01*
X045895Y027267D02*
X045210Y027267D01*
X045047Y027108D02*
X045883Y027108D01*
X045920Y026950D02*
X045294Y026950D01*
X045380Y026791D02*
X046014Y026791D01*
X046246Y026633D02*
X045400Y026633D01*
X045366Y026474D02*
X046748Y026474D01*
X046748Y026316D02*
X045259Y026316D01*
X045245Y025999D02*
X046748Y025999D01*
X046748Y026157D02*
X043118Y026157D01*
X044047Y027108D02*
X044819Y027108D01*
X046413Y027108D02*
X046453Y027108D01*
X046453Y026950D02*
X046413Y026950D01*
X046413Y026791D02*
X046453Y026791D01*
X046453Y026633D02*
X046413Y026633D01*
X046621Y026633D02*
X046748Y026633D01*
X046748Y025840D02*
X045360Y025840D01*
X045400Y025682D02*
X046748Y025682D01*
X046748Y025523D02*
X045386Y025523D01*
X045308Y025365D02*
X046748Y025365D01*
X045248Y018074D02*
X045131Y018074D01*
X045280Y016964D02*
X045358Y016964D01*
X045374Y016806D02*
X045516Y016806D01*
X045400Y016647D02*
X045675Y016647D01*
X045748Y016489D02*
X045372Y016489D01*
X045274Y016330D02*
X045748Y016330D01*
X045748Y016172D02*
X044673Y016172D01*
X044593Y016330D02*
X044515Y016330D01*
X044495Y016489D02*
X044372Y016489D01*
X044400Y016647D02*
X044466Y016647D01*
X044492Y016806D02*
X044374Y016806D01*
X044280Y016964D02*
X044587Y016964D01*
X045231Y016013D02*
X045748Y016013D01*
X045748Y015855D02*
X045354Y015855D01*
X045400Y015696D02*
X045748Y015696D01*
X045748Y015538D02*
X045392Y015538D01*
X045323Y015379D02*
X045748Y015379D01*
X045748Y015221D02*
X045116Y015221D01*
X045159Y015062D02*
X045748Y015062D01*
X045748Y014904D02*
X045334Y014904D01*
X044708Y015062D02*
X044159Y015062D01*
X044116Y015221D02*
X044750Y015221D01*
X044544Y015379D02*
X044323Y015379D01*
X044392Y015538D02*
X044475Y015538D01*
X044466Y015696D02*
X044400Y015696D01*
X044354Y015855D02*
X044467Y015855D01*
X043750Y015221D02*
X043624Y015221D01*
X043544Y015379D02*
X042295Y015379D01*
X042380Y015538D02*
X043475Y015538D01*
X043466Y015696D02*
X042380Y015696D01*
X042361Y015855D02*
X043513Y015855D01*
X042309Y016013D02*
X042203Y016013D01*
X042150Y016172D02*
X041673Y016172D01*
X041621Y016330D02*
X041618Y016330D01*
X044334Y014904D02*
X044533Y014904D01*
X044467Y014745D02*
X044399Y014745D01*
X044400Y014587D02*
X044466Y014587D01*
X044520Y014428D02*
X044347Y014428D01*
X044575Y014270D02*
X044654Y014270D01*
X044734Y014111D02*
X044826Y014111D01*
X045040Y014111D02*
X046248Y014111D01*
X046248Y013953D02*
X045291Y013953D01*
X045379Y013794D02*
X046248Y013794D01*
X046248Y013636D02*
X045400Y013636D01*
X045367Y013477D02*
X046248Y013477D01*
X046248Y013319D02*
X045262Y013319D01*
X045213Y014270D02*
X046248Y014270D01*
X046248Y014428D02*
X045347Y014428D01*
X046118Y014587D02*
X046248Y014587D01*
X046248Y014745D02*
X046118Y014745D01*
X046118Y014904D02*
X046248Y014904D01*
X046248Y015062D02*
X046118Y015062D01*
X046118Y015221D02*
X046248Y015221D01*
X046248Y015379D02*
X046118Y015379D01*
X046118Y015538D02*
X046248Y015538D01*
X046248Y015696D02*
X046118Y015696D01*
X046118Y015855D02*
X046248Y015855D01*
X046248Y016013D02*
X046118Y016013D01*
X046118Y016172D02*
X046248Y016172D01*
X046248Y016330D02*
X046118Y016330D01*
X046118Y016489D02*
X046248Y016489D01*
X046175Y016647D02*
X046118Y016647D01*
X042211Y014111D02*
X041147Y014111D01*
X042119Y014203D02*
X042119Y014203D01*
X029953Y025206D02*
X029913Y025206D01*
X029913Y025365D02*
X029953Y025365D01*
X029953Y025523D02*
X029913Y025523D01*
X029913Y025682D02*
X029953Y025682D01*
X029953Y025840D02*
X029913Y025840D01*
X029913Y025999D02*
X029953Y025999D01*
X029575Y025999D02*
X029249Y025999D01*
X029363Y025840D02*
X029469Y025840D01*
X029433Y025682D02*
X029403Y025682D01*
X029389Y025523D02*
X029449Y025523D01*
X029523Y025365D02*
X029313Y025365D01*
X029118Y025206D02*
X029703Y025206D01*
X028748Y025206D02*
X026639Y025206D01*
X026515Y025365D02*
X028554Y025365D01*
X028748Y025048D02*
X026797Y025048D01*
X028360Y026316D02*
X032006Y026316D01*
X032054Y026791D02*
X032172Y026791D01*
X032248Y026950D02*
X028494Y026950D01*
X028653Y027108D02*
X032248Y027108D01*
X032248Y027267D02*
X032215Y027267D01*
X029953Y027267D02*
X029913Y027267D01*
X029913Y027425D02*
X029953Y027425D01*
X029953Y027584D02*
X029913Y027584D01*
X029913Y027670D02*
X029433Y027670D01*
X029433Y027689D01*
X029446Y027767D01*
X029470Y027842D01*
X029506Y027912D01*
X029552Y027976D01*
X029608Y028031D01*
X029671Y028078D01*
X029741Y028113D01*
X029816Y028138D01*
X029894Y028150D01*
X029913Y028150D01*
X029913Y027670D01*
X029913Y027742D02*
X029953Y027742D01*
X029953Y027901D02*
X029913Y027901D01*
X029913Y028059D02*
X029953Y028059D01*
X029646Y028059D02*
X029174Y028059D01*
X029338Y027901D02*
X029500Y027901D01*
X029442Y027742D02*
X029403Y027742D01*
X029403Y027584D02*
X029438Y027584D01*
X029487Y027425D02*
X029349Y027425D01*
X029215Y027267D02*
X029610Y027267D01*
X027496Y026474D02*
X027359Y026474D01*
X022453Y025523D02*
X022413Y025523D01*
X022413Y025365D02*
X022453Y025365D01*
X022453Y025206D02*
X022413Y025206D01*
X022413Y025048D02*
X022453Y025048D01*
X022453Y024889D02*
X022413Y024889D01*
X022413Y024731D02*
X022453Y024731D01*
X022564Y017915D02*
X022802Y017915D01*
X022302Y017915D02*
X022064Y017915D01*
D28*
X021933Y017650D02*
X023433Y016150D01*
X024433Y016150D01*
X024933Y015650D01*
X026433Y015650D01*
X027933Y017150D01*
X028933Y017150D01*
X028933Y017650D02*
X027933Y017650D01*
X026433Y016150D01*
X024933Y016150D01*
X024433Y016650D01*
X023433Y016650D01*
X022433Y017650D01*
X022933Y017650D02*
X023933Y018650D01*
X026433Y018650D01*
X027433Y017650D01*
X027933Y017650D02*
X028933Y018650D01*
X028433Y019150D02*
X028433Y021150D01*
X029933Y021150D01*
X029933Y021650D02*
X024933Y021650D01*
X024433Y021150D01*
X020433Y021150D01*
X019933Y021150D02*
X020433Y021650D01*
X023433Y021650D01*
X024933Y023150D01*
X025433Y023650D02*
X025433Y025650D01*
X026933Y027150D01*
X026933Y027650D01*
X025933Y027650D02*
X025933Y028150D01*
X025433Y028650D01*
X017933Y028650D01*
X016933Y027650D01*
X016433Y031150D02*
X014933Y030650D01*
X016433Y031150D02*
X042433Y031150D01*
X042433Y027650D01*
X040433Y025650D01*
X039433Y025650D01*
X038933Y025150D01*
X038433Y025150D01*
X037433Y024150D01*
X036433Y024150D01*
X036433Y025150D02*
X037933Y025150D01*
X038933Y026150D01*
X039933Y026150D01*
X040433Y026650D01*
X039433Y027650D02*
X038933Y027150D01*
X036433Y027150D01*
X035433Y026650D02*
X035433Y029150D01*
X035933Y029650D01*
X034933Y029650D02*
X034933Y027150D01*
X033933Y026150D01*
X033433Y026150D01*
X032433Y026150D02*
X032433Y024650D01*
X032933Y024150D01*
X033433Y024150D01*
X032933Y023650D02*
X031933Y024650D01*
X028933Y024650D01*
X028933Y023650D01*
X028433Y023150D02*
X025933Y025650D01*
X026433Y025650D02*
X027433Y025650D01*
X028433Y026650D01*
X031933Y026650D01*
X032433Y026150D01*
X032433Y026650D02*
X032433Y030650D01*
X039933Y030650D01*
X040933Y029650D01*
X039933Y029650D02*
X039433Y030150D01*
X032933Y030150D01*
X032933Y027650D01*
X033433Y027150D02*
X033433Y029150D01*
X033933Y029650D01*
X031933Y029650D02*
X031933Y027650D01*
X030933Y027650D02*
X030933Y029650D01*
X028933Y027650D02*
X027433Y026150D01*
X026933Y026150D01*
X028933Y025650D02*
X028933Y024650D01*
X027933Y022650D02*
X026933Y023650D01*
X025433Y023650D01*
X021933Y023650D01*
X020433Y023650D01*
X019433Y024650D01*
X011933Y024650D01*
X009933Y022650D01*
X009933Y021650D02*
X010433Y021150D01*
X011433Y021150D01*
X011933Y020650D01*
X010933Y019650D02*
X010433Y019150D01*
X007933Y019150D01*
X007433Y018650D01*
X012433Y015150D02*
X014433Y015150D01*
X015933Y016650D01*
X017433Y016650D01*
X017433Y018150D02*
X022933Y018150D01*
X024433Y019650D01*
X025933Y019650D01*
X026933Y018650D01*
X026933Y019150D02*
X025933Y020150D01*
X023433Y020150D01*
X022933Y019650D02*
X022433Y020150D01*
X021933Y020150D01*
X021433Y020650D01*
X019933Y020650D01*
X019933Y021150D01*
X019433Y021650D02*
X019933Y022150D01*
X021433Y022150D01*
X021933Y022650D01*
X021933Y023650D02*
X020933Y022650D01*
X019433Y022650D02*
X018433Y023650D01*
X016933Y023650D01*
X015433Y020150D02*
X017433Y018150D01*
X017433Y018650D02*
X019933Y018650D01*
X020433Y019150D02*
X021433Y019150D01*
X021933Y019650D02*
X021433Y020150D01*
X020433Y020150D01*
X019933Y019650D02*
X020433Y019150D01*
X021933Y020650D02*
X025933Y020650D01*
X026433Y020150D01*
X026933Y019650D02*
X026933Y021150D01*
X027433Y021150D02*
X027433Y019650D01*
X026933Y019650D02*
X027933Y018650D01*
X028933Y017650D02*
X029933Y018650D01*
X029933Y019650D02*
X030933Y020650D01*
X031433Y020650D01*
X031933Y021150D02*
X030433Y021150D01*
X029933Y021650D01*
X029433Y022150D02*
X028433Y022150D01*
X028933Y022650D01*
X028433Y022150D02*
X027933Y022150D01*
X029433Y022150D02*
X029933Y022650D01*
X031433Y021650D02*
X031933Y021650D01*
X032933Y020650D01*
X032933Y016150D01*
X033433Y016150D01*
X034433Y015150D02*
X032433Y015150D01*
X030433Y013150D01*
X023933Y013150D01*
X024933Y014150D02*
X025433Y014150D01*
X027933Y016650D01*
X028933Y016650D01*
X030933Y018650D01*
X031433Y017150D02*
X029933Y015650D01*
X030433Y014650D02*
X030933Y014650D01*
X031933Y015650D01*
X031933Y021150D01*
X032433Y022150D02*
X032433Y023150D01*
X031933Y023650D01*
X032933Y023650D02*
X034433Y023650D01*
X037433Y023650D01*
X038433Y024650D01*
X042933Y024650D01*
X042933Y028650D01*
X043933Y029650D01*
X044933Y029650D01*
X041933Y027650D02*
X039933Y029650D01*
X037933Y029650D02*
X037933Y027650D01*
X038433Y027650D01*
X035433Y026650D02*
X033933Y025150D01*
X033433Y025150D01*
X034433Y023650D02*
X035433Y022650D01*
X033933Y021650D02*
X037433Y021650D01*
X038933Y020150D01*
X038933Y019650D01*
X038433Y019150D01*
X037933Y019650D02*
X035433Y019650D01*
X034433Y020650D01*
X033933Y020650D01*
X032433Y022150D01*
X034933Y019650D02*
X035433Y019150D01*
X034933Y019650D02*
X034433Y019150D01*
X034433Y018150D02*
X033433Y019150D01*
X034433Y018150D02*
X043433Y018150D01*
X042433Y017650D02*
X040933Y017650D01*
X039433Y016150D01*
X038933Y016150D01*
X038433Y016650D01*
X037433Y016650D01*
X039433Y016150D02*
X040433Y016150D01*
X040933Y016650D01*
X041433Y017150D02*
X041433Y016150D01*
X041933Y015650D01*
X042433Y016150D02*
X044433Y016150D01*
X044933Y015650D01*
X045933Y014650D02*
X045933Y016650D01*
X045433Y017150D01*
X041433Y017150D01*
X041933Y016650D02*
X042433Y016150D01*
X043433Y015150D02*
X041433Y015150D01*
X040933Y015650D01*
X040933Y014650D02*
X039933Y013650D01*
X039933Y013150D01*
X040433Y013150D01*
X040933Y012650D01*
X042433Y012650D01*
X043433Y013650D01*
X043933Y013650D01*
X043433Y013150D02*
X042433Y012150D01*
X040433Y012150D01*
X039433Y011150D01*
X038433Y011150D01*
X038433Y010150D01*
X037933Y009650D01*
X035433Y009650D01*
X035433Y011650D01*
X034933Y012150D01*
X032933Y012150D01*
X031433Y013650D01*
X029933Y014150D02*
X027933Y014150D01*
X026933Y015150D01*
X026433Y014650D02*
X026933Y014150D01*
X027433Y014150D01*
X028933Y012650D02*
X017433Y012650D01*
X016433Y013650D01*
X016433Y014650D01*
X015933Y012650D02*
X016933Y011650D01*
X020933Y011650D01*
X021433Y011150D01*
X021433Y009650D01*
X022933Y009650D01*
X024433Y008150D01*
X025433Y009150D02*
X027933Y009150D01*
X029433Y007650D01*
X030433Y007650D01*
X030933Y008150D01*
X031433Y008150D01*
X031933Y007650D02*
X032933Y007650D01*
X033433Y008150D01*
X033933Y008150D01*
X034933Y008150D02*
X034933Y008650D01*
X034433Y009150D01*
X034933Y009150D01*
X034933Y011650D01*
X032933Y011650D01*
X035433Y013150D02*
X034433Y014150D01*
X034433Y015150D02*
X033433Y014150D01*
X035933Y011650D01*
X036933Y011650D02*
X035933Y010650D01*
X036933Y011650D02*
X039433Y011650D01*
X040433Y012650D01*
X039433Y012650D02*
X038933Y013150D01*
X038433Y013150D01*
X037433Y014150D01*
X037433Y013150D02*
X036433Y014150D01*
X036433Y013150D02*
X035433Y014150D01*
X035933Y015150D02*
X034433Y015150D01*
X035433Y013150D02*
X035933Y013150D01*
X036433Y012650D01*
X036433Y013150D02*
X036933Y013150D01*
X037433Y012650D01*
X037433Y013150D02*
X037933Y013150D01*
X038433Y012650D01*
X041933Y014650D02*
X042433Y014150D01*
X044433Y014150D01*
X044933Y013650D01*
X044933Y014650D02*
X045933Y014650D01*
X043933Y014650D02*
X043433Y015150D01*
X045433Y017650D02*
X046433Y016650D01*
X046433Y009650D01*
X044933Y009650D01*
X044933Y008650D01*
X044433Y008150D01*
X044933Y007650D02*
X045433Y008150D01*
X044933Y007650D02*
X038433Y007650D01*
X038433Y008650D01*
X038933Y009150D01*
X039933Y009150D01*
X039433Y008650D02*
X041933Y008650D01*
X042433Y008150D01*
X043433Y008150D02*
X043933Y008650D01*
X043933Y011150D01*
X044433Y011650D01*
X045433Y011650D01*
X045933Y012150D01*
X043933Y011650D02*
X043433Y011150D01*
X043433Y009150D01*
X039433Y008650D02*
X038933Y008150D01*
X037433Y008150D02*
X037433Y009150D01*
X034933Y009150D01*
X034433Y009150D02*
X032433Y009150D01*
X032433Y008150D01*
X031933Y007650D02*
X031933Y008650D01*
X029433Y008650D01*
X028933Y009150D01*
X029933Y010650D02*
X029933Y012650D01*
X029433Y012650D01*
X023933Y017650D02*
X023433Y017150D01*
X023933Y017650D02*
X024433Y017650D01*
X024933Y018150D01*
X025433Y018150D01*
X017433Y018650D02*
X016933Y019150D01*
X021433Y025150D02*
X021433Y027150D01*
X022933Y027150D01*
X039933Y018650D02*
X040433Y018650D01*
X042433Y020650D01*
X043433Y021150D02*
X043933Y020650D01*
X043433Y020150D02*
X041933Y018650D01*
X043433Y020150D02*
X044433Y020150D01*
X044933Y020650D01*
X043933Y021650D02*
X040433Y021650D01*
X040933Y021150D02*
X043433Y021150D01*
X042933Y022150D02*
X044433Y022150D01*
X044933Y022650D01*
X043933Y022650D02*
X040433Y022650D01*
X040433Y023650D02*
X043933Y023650D01*
X040933Y021150D02*
X040433Y020650D01*
X044933Y018650D02*
X045433Y018150D01*
X046433Y018150D01*
X045433Y017650D02*
X044933Y017650D01*
X021933Y007650D02*
X021823Y007660D01*
X021933Y007650D02*
X020933Y007650D01*
X020933Y009650D01*
X019933Y010650D01*
X020433Y011150D02*
X018933Y011150D01*
X018933Y009650D01*
X017433Y008150D01*
X009933Y008150D01*
X012933Y008650D02*
X009933Y011650D01*
X009933Y012150D01*
X014433Y011150D02*
X015433Y011150D01*
X015933Y010650D02*
X015933Y008650D01*
X012933Y008650D01*
X015933Y010650D02*
X016433Y011150D01*
X017433Y011150D01*
D29*
X017433Y011150D03*
X015433Y011150D03*
X014433Y011150D03*
X015933Y012650D03*
X016433Y014650D03*
X017433Y016650D03*
X017433Y018150D03*
X016933Y019150D03*
X015433Y020150D03*
X011933Y020650D03*
X010933Y019650D03*
X012433Y015150D03*
X019933Y018650D03*
X019933Y019650D03*
X021433Y019150D03*
X021933Y017650D03*
X022433Y017650D03*
X022933Y017650D03*
X023433Y017150D03*
X026933Y018650D03*
X026933Y019150D03*
X027433Y019650D03*
X026433Y020150D03*
X026933Y021150D03*
X027433Y021150D03*
X027933Y022150D03*
X028433Y023150D03*
X029933Y021150D03*
X031433Y020650D03*
X031433Y021650D03*
X033933Y021650D03*
X037933Y019650D03*
X039933Y018650D03*
X041933Y018650D03*
X042433Y017650D03*
X043433Y018150D03*
X042433Y020650D03*
X042933Y022150D03*
X041933Y027650D03*
X038433Y027650D03*
X032933Y027650D03*
X032433Y026650D03*
X026433Y025650D03*
X025933Y025650D03*
X024933Y023150D03*
X024933Y021650D03*
X023433Y020150D03*
X021933Y020650D03*
X019433Y022650D03*
X027433Y017650D03*
X028933Y017150D03*
X028433Y019150D03*
X031433Y017150D03*
X033433Y016150D03*
X035433Y016150D03*
X035933Y015150D03*
X035933Y011650D03*
X032933Y011650D03*
X031433Y013650D03*
X030433Y014650D03*
X029933Y014150D03*
X029433Y012650D03*
X028933Y012650D03*
X027433Y014150D03*
X026433Y014650D03*
X026933Y015150D03*
X024933Y014150D03*
X024933Y013650D03*
X023933Y013150D03*
X020433Y011150D03*
X040433Y012650D03*
X043433Y013150D03*
X043933Y011650D03*
X045933Y012150D03*
D30*
X039933Y014650D02*
X039933Y015650D01*
X035933Y015650D01*
X035433Y016150D01*
X034933Y015650D01*
X032433Y015650D01*
X030433Y013650D01*
X024933Y013650D01*
X022433Y013650D01*
X020933Y015150D01*
X019933Y015150D01*
X018433Y016650D01*
X017933Y017150D01*
X019433Y017150D01*
X019933Y017650D01*
X019933Y016650D02*
X018433Y016650D01*
X017933Y017150D02*
X015433Y017150D01*
X014933Y016650D01*
X009933Y016650D01*
X009933Y014150D01*
X009433Y014150D01*
X008933Y013650D01*
X008433Y013650D01*
X008433Y011650D01*
X008933Y011150D01*
X009933Y011150D01*
X009933Y010150D01*
X013933Y010650D02*
X013933Y013150D01*
X014933Y013150D01*
X015933Y013650D02*
X015933Y015650D01*
X016433Y016150D01*
X015433Y017150D02*
X014933Y017150D01*
X013933Y020150D02*
X009933Y020150D01*
X008433Y021650D01*
X008433Y025650D01*
X013933Y025650D01*
X014933Y026650D01*
X019933Y026650D01*
X021433Y028150D01*
X023433Y028150D01*
X023933Y027650D01*
X024933Y027650D01*
X017933Y020650D02*
X014433Y020650D01*
X013933Y020150D01*
X019933Y016650D02*
X020433Y016150D01*
X017433Y012150D02*
X015933Y013650D01*
X017433Y012150D02*
X025433Y012150D01*
X025433Y011150D01*
X024933Y010650D01*
X014933Y009650D02*
X013933Y010650D01*
X008433Y025650D02*
X008433Y028150D01*
X008933Y028150D01*
X009433Y028650D01*
X009933Y028650D01*
X009933Y026650D02*
X010433Y026650D01*
X010933Y026150D01*
X013433Y026150D01*
X013433Y027650D01*
X039433Y014150D02*
X039933Y014650D01*
M02*
