%
M48
M72
T01C0.0130
T02C0.0320
T03C0.0354
T04C0.0394
T05C0.0400
T06C0.0440
T07C0.0472
T08C0.0550
T09C0.0590
T10C0.1260
%
T01
X40433Y16650
X42933Y17150
X45933Y19150
X38433Y21650
X34933Y23650
X33433Y21650
X31933Y20650
X31433Y20150
X29933Y21150
X29433Y21150
X27433Y21150
X24433Y20650
X22933Y19650
X22933Y21650
X22433Y22650
X23433Y25150
X25433Y24650
X25433Y24150
X26933Y24150
X28433Y25150
X30433Y24650
X31933Y22650
X37433Y24650
X41933Y27650
X40433Y28150
X34933Y18150
X35433Y16150
X35933Y15150
X31433Y16150
X30433Y14650
X24433Y13150
X22433Y12650
X19933Y12650
X16933Y16650
X17933Y18150
X18433Y18150
X16933Y20150
X14433Y19650
X13433Y20150
X15433Y24150
X17433Y24650
X18933Y22650
X17933Y28650
X11933Y15650
X11433Y14150
X25433Y9650
T02
X25433Y9150
X24433Y8150
X26433Y8150
X27933Y8150
X28933Y9150
X29933Y8150
X38933Y8150
X39933Y9150
X40933Y8150
X30933Y15650
X29933Y15650
X28933Y15650
X27933Y15650
X27933Y18650
X27933Y19650
X28933Y19650
X28933Y18650
X29933Y18650
X29933Y19650
X30933Y19650
X30933Y18650
X30933Y22650
X29933Y22650
X28933Y22650
X27933Y22650
X33433Y24150
X33433Y25150
X33433Y26150
X33433Y27150
X36433Y27150
X36433Y26150
X36433Y25150
X36433Y24150
X39433Y25650
X40433Y26650
X39433Y27650
X21033Y19950
X20033Y19950
X19533Y23850
X20533Y23850
X16733Y25300
X16733Y26300
X14683Y26150
X13683Y26150
X14233Y22550
X14233Y21550
T03
X32433Y19150
X33433Y19150
X34433Y19150
X35433Y19150
X36433Y19150
X37433Y19150
X38433Y19150
X39433Y19150
X39433Y20650
X40433Y20650
X40433Y21650
X39433Y21650
X39433Y22650
X39433Y23650
X40433Y23650
X40433Y22650
X40933Y16650
X40933Y15650
X41933Y15650
X41933Y16650
X41933Y14650
X40933Y14650
X39433Y14150
X38433Y14150
X37433Y14150
X36433Y14150
X35433Y14150
X34433Y14150
X33433Y14150
X32433Y14150
X40933Y13650
X41933Y13650
T04
X42933Y10650
X41933Y10650
X40933Y10650
X39933Y10650
X38933Y10650
X37933Y10650
X36933Y10650
X35933Y10650
X33933Y10650
X32933Y10650
X31933Y10650
X30933Y10650
X29933Y10650
X28933Y10650
X27933Y10650
X26933Y10650
X24933Y10650
X23933Y10650
X22933Y10650
X21933Y10650
X20933Y10650
X19933Y10650
X43933Y12650
X43933Y13650
X44933Y13650
X44933Y12650
X44933Y14650
X43933Y14650
X43933Y15650
X43933Y16650
X44933Y16650
X44933Y15650
X44933Y17650
X43933Y17650
X43933Y18650
X43933Y19650
X44933Y19650
X44933Y18650
X44933Y20650
X43933Y20650
X43933Y21650
X44933Y21650
X44933Y22650
X43933Y22650
X43933Y23650
X44933Y23650
X44933Y24650
X43933Y24650
X43933Y25650
X43933Y26650
X44933Y26650
X44933Y25650
X44933Y27650
X43933Y27650
X43933Y28650
X43933Y29650
X44933Y29650
X44933Y28650
X40933Y29650
X39933Y29650
X38933Y29650
X37933Y29650
X36933Y29650
X35933Y29650
X34933Y29650
X33933Y29650
X31933Y29650
X30933Y29650
X29933Y29650
X28933Y29650
X27933Y29650
X26933Y29650
X25933Y29650
X24933Y29650
X23333Y29650
X22333Y29650
X21333Y29650
X20333Y29650
X19333Y29650
X18333Y29650
X17333Y29650
X16333Y29650
T05
X14433Y27650
X13433Y27650
X12433Y27650
X17383Y23250
X17383Y22250
X17383Y21250
X20833Y17600
X20833Y16600
X19083Y15650
X18083Y15650
X17083Y15650
X25133Y16950
X25133Y17950
X25133Y18950
X28833Y25700
X28883Y26650
X29883Y26650
X29833Y25700
X30833Y25700
X30883Y26650
X31883Y26650
X31833Y25700
X31933Y27650
X30933Y27650
X29933Y27650
X28933Y27650
X27233Y26900
X25683Y27750
X24683Y27750
X23683Y27750
X22533Y26350
X21533Y26350
X20533Y26350
X19433Y27650
X21783Y28300
X35433Y22650
X36433Y22650
X37433Y22650
X37433Y20650
X36433Y20650
X35433Y20650
X36433Y17650
X37433Y17650
X38433Y17650
X38433Y16650
X37433Y16650
X36433Y16650
X36433Y12650
X37433Y12650
X38433Y12650
X39433Y12650
X42033Y9250
X42033Y8250
X43033Y8250
X44033Y8250
X44033Y9250
X43033Y9250
X45033Y9250
X45033Y8250
X46033Y8250
X46033Y9250
X37433Y8150
X36433Y8150
X34933Y8150
X33933Y8150
X32433Y8150
X31433Y8150
X21823Y7660
X20043Y7660
X8133Y16650
X8133Y17650
X8133Y18650
X8133Y20350
X8133Y21350
X8133Y22350
X46033Y21150
X46033Y20150
X46033Y18150
X46033Y27150
X46033Y28150
T06
X24933Y15150
X20933Y15150
X20083Y13650
X16083Y13650
T07
X15133Y13650
X15133Y17650
T08
X9933Y8150
X9933Y10150
X9933Y12150
X9933Y14150
X14933Y9650
X16933Y9650
X9933Y25250
X9933Y27250
X9933Y29250
T09
X22313Y8640
X19553Y8640
T10
X12433Y10650
X12933Y29650
X44933Y10650
M30
