%
M48
M72
T01C0.0150
T02C0.0320
T03C0.0354
T04C0.0394
T05C0.0400
T06C0.0440
T07C0.0472
T08C0.0550
T09C0.0590
T10C0.1260
%
T01
X43933Y11650
X43433Y13150
X45933Y12150
X40433Y12650
X35933Y11650
X32933Y11650
X31433Y13650
X30433Y14650
X29933Y14150
X29433Y12650
X28933Y12650
X27433Y14150
X26433Y14650
X26933Y15150
X24933Y14150
X24933Y13650
X23933Y13150
X20433Y11150
X17433Y11150
X15433Y11150
X14433Y11150
X15933Y12650
X16433Y14650
X17433Y16650
X17433Y18150
X16933Y19150
X15433Y20150
X11933Y20650
X10933Y19650
X12433Y15150
X19933Y18650
X19933Y19650
X21433Y19150
X21933Y17650
X22433Y17650
X22933Y17650
X23433Y17150
X26933Y18650
X26933Y19150
X27433Y19650
X26433Y20150
X26933Y21150
X27433Y21150
X27933Y22150
X28433Y23150
X29933Y21150
X31433Y20650
X31433Y21650
X33933Y21650
X37933Y19650
X39933Y18650
X41933Y18650
X42433Y17650
X43433Y18150
X42433Y20650
X42933Y22150
X41933Y27650
X38433Y27650
X32933Y27650
X32433Y26650
X26433Y25650
X25933Y25650
X24933Y23150
X24933Y21650
X23433Y20150
X21933Y20650
X19433Y22650
X27433Y17650
X28933Y17150
X28433Y19150
X31433Y17150
X33433Y16150
X35433Y16150
X35933Y15150
T02
X30933Y15650
X29933Y15650
X28933Y15650
X27933Y15650
X27933Y18650
X27933Y19650
X28933Y19650
X28933Y18650
X29933Y18650
X29933Y19650
X30933Y19650
X30933Y18650
X30933Y22650
X29933Y22650
X28933Y22650
X27933Y22650
X22933Y19650
X21933Y19650
X21933Y22650
X20933Y22650
X16933Y22650
X16933Y23650
X16433Y25650
X15433Y25650
X9933Y22650
X9933Y21650
X25433Y9150
X24433Y8150
X26433Y8150
X27933Y8150
X28933Y9150
X29933Y8150
X38933Y8150
X39933Y9150
X40933Y8150
X36433Y24150
X36433Y25150
X36433Y26150
X36433Y27150
X33433Y27150
X33433Y26150
X33433Y25150
X33433Y24150
X39433Y25650
X40433Y26650
X39433Y27650
T03
X39433Y23650
X39433Y22650
X40433Y22650
X40433Y23650
X40433Y21650
X39433Y21650
X39433Y20650
X40433Y20650
X39433Y19150
X38433Y19150
X37433Y19150
X36433Y19150
X35433Y19150
X34433Y19150
X33433Y19150
X32433Y19150
X32433Y14150
X33433Y14150
X34433Y14150
X35433Y14150
X36433Y14150
X37433Y14150
X38433Y14150
X39433Y14150
X40933Y13650
X41933Y13650
X41933Y14650
X40933Y14650
X40933Y15650
X40933Y16650
X41933Y16650
X41933Y15650
T04
X42933Y10650
X41933Y10650
X40933Y10650
X39933Y10650
X38933Y10650
X37933Y10650
X36933Y10650
X35933Y10650
X33933Y10650
X32933Y10650
X31933Y10650
X30933Y10650
X29933Y10650
X28933Y10650
X27933Y10650
X26933Y10650
X24933Y10650
X23933Y10650
X22933Y10650
X21933Y10650
X20933Y10650
X19933Y10650
X43933Y12650
X43933Y13650
X44933Y13650
X44933Y12650
X44933Y14650
X43933Y14650
X43933Y15650
X43933Y16650
X44933Y16650
X44933Y15650
X44933Y17650
X43933Y17650
X43933Y18650
X43933Y19650
X44933Y19650
X44933Y18650
X44933Y20650
X43933Y20650
X43933Y21650
X44933Y21650
X44933Y22650
X43933Y22650
X43933Y23650
X44933Y23650
X44933Y24650
X43933Y24650
X43933Y25650
X43933Y26650
X44933Y26650
X44933Y25650
X44933Y27650
X43933Y27650
X43933Y28650
X43933Y29650
X44933Y29650
X44933Y28650
X40933Y29650
X39933Y29650
X38933Y29650
X37933Y29650
X36933Y29650
X35933Y29650
X34933Y29650
X33933Y29650
X31933Y29650
X30933Y29650
X29933Y29650
X28933Y29650
X27933Y29650
X26933Y29650
X25933Y29650
X24933Y29650
X23333Y29650
X22333Y29650
X21333Y29650
X20333Y29650
X19333Y29650
X18333Y29650
X17333Y29650
X16333Y29650
T05
X14433Y27650
X13433Y27650
X12433Y27650
X19433Y27650
X20433Y25150
X21433Y25150
X22433Y25150
X22933Y27150
X24933Y27650
X25933Y27650
X26933Y27650
X26933Y26150
X28933Y25650
X29933Y25650
X30933Y25650
X31933Y25650
X31933Y27650
X30933Y27650
X29933Y27650
X28933Y27650
X28933Y23650
X29933Y23650
X30933Y23650
X31933Y23650
X35433Y22650
X36433Y22650
X37433Y22650
X37433Y20650
X36433Y20650
X35433Y20650
X36433Y17650
X37433Y17650
X38433Y17650
X38433Y16650
X37433Y16650
X36433Y16650
X36433Y12650
X37433Y12650
X38433Y12650
X39433Y12650
X42433Y9150
X43433Y9150
X44433Y9150
X45433Y9150
X46433Y9150
X46433Y8150
X45433Y8150
X44433Y8150
X43433Y8150
X42433Y8150
X37433Y8150
X36433Y8150
X34933Y8150
X33933Y8150
X32433Y8150
X31433Y8150
X21823Y7660
X20043Y7660
X19433Y13650
X18433Y13650
X17433Y13650
X19933Y17650
X20933Y17650
X19933Y20650
X18933Y20650
X17933Y20650
X25433Y19150
X25433Y18150
X25433Y17150
X7433Y16650
X7433Y17650
X7433Y18650
X7433Y20150
X7433Y21150
X7433Y22150
X46433Y21150
X46433Y20150
X46433Y18150
X46433Y27150
X46433Y28150
T06
X24933Y15150
X20933Y15150
X20433Y16150
X16433Y16150
T07
X14933Y13150
X14933Y17150
T08
X9933Y8150
X9933Y10150
X9933Y12150
X9933Y14150
X14933Y9650
X16933Y9650
X9933Y24650
X9933Y26650
X9933Y28650
T09
X22313Y8640
X19553Y8640
T10
X12433Y10650
X12933Y29650
X44933Y10650
M30
