G75*
G70*
%OFA0B0*%
%FSLAX24Y24*%
%IPPOS*%
%LPD*%
%AMOC8*
5,1,8,0,0,1.08239X$1,22.5*
%
%ADD10R,0.0551X0.0433*%
%ADD11R,0.0472X0.0472*%
%ADD12R,0.1378X0.0630*%
%ADD13R,0.0512X0.0591*%
%ADD14R,0.0512X0.0630*%
%ADD15R,0.0591X0.0512*%
%ADD16R,0.0433X0.0551*%
%ADD17R,0.0472X0.0866*%
D10*
X011933Y012256D03*
X011933Y013044D03*
X011933Y014256D03*
X011933Y015044D03*
X008933Y019256D03*
X008933Y020044D03*
X018433Y025256D03*
X018433Y026044D03*
X021433Y027256D03*
X021433Y028044D03*
X032433Y022544D03*
X032433Y021756D03*
X041433Y019044D03*
X041433Y018256D03*
X046433Y022756D03*
X046433Y023544D03*
X046433Y024756D03*
X046433Y025544D03*
X042433Y025544D03*
X042433Y024756D03*
X042433Y028756D03*
X042433Y029544D03*
D11*
X022847Y016650D03*
X022020Y016650D03*
X019347Y012150D03*
X018520Y012150D03*
X018433Y022737D03*
X018433Y023563D03*
D12*
X032370Y016650D03*
X034496Y016650D03*
X027996Y013150D03*
X025870Y013150D03*
D13*
X024268Y021150D03*
X023599Y021150D03*
D14*
X016059Y011150D03*
X016807Y011150D03*
D15*
X013433Y013315D03*
X013433Y013985D03*
D16*
X016540Y017650D03*
X017327Y017650D03*
X017540Y018650D03*
X018327Y018650D03*
X015827Y019650D03*
X015040Y019650D03*
X021540Y021150D03*
X022327Y021150D03*
X023540Y023150D03*
X024327Y023150D03*
X024327Y024650D03*
X023540Y024650D03*
X025040Y026150D03*
X025827Y026150D03*
X026040Y024650D03*
X026827Y024650D03*
X026327Y021150D03*
X025540Y021150D03*
X023827Y018150D03*
X023040Y018150D03*
X021827Y013150D03*
X021040Y013150D03*
X033040Y020650D03*
X033827Y020650D03*
D17*
X015433Y021154D03*
X014433Y021154D03*
X013433Y021154D03*
X012433Y021154D03*
X012433Y019646D03*
X011433Y019646D03*
X010433Y019646D03*
X013433Y019646D03*
X013433Y016654D03*
X012433Y016654D03*
X011433Y016654D03*
X010433Y016654D03*
X012433Y024146D03*
X013433Y024146D03*
X014433Y024146D03*
X015433Y024146D03*
M02*
