%
M48
M72
T01C0.0118
T02C0.0197
T03C0.0236
T04C0.0276
T05C0.0360
T06C0.0400
T07C0.0472
T08C0.1260
%
T01
X10199Y3408
X10711Y3408
X11223Y3408
X11223Y3920
X10711Y3920
X10199Y3920
X10199Y4432
X10711Y4432
X11223Y4432
X11223Y4943
X10711Y4943
X10199Y4943
X10199Y5455
X10711Y5455
X11223Y5455
X11223Y5967
X10711Y5967
X10199Y5967
X10199Y6479
X10711Y6479
X11223Y6479
X12542Y5514
X15396Y6597
X19806Y6459
X20475Y5810
X21499Y6577
X21656Y7443
X20810Y7404
X19806Y7562
X22936Y7562
X24156Y7699
X25377Y7837
X26400Y8073
X28034Y8546
X28684Y7483
X28467Y6617
X27660Y5869
X27443Y5554
X28684Y5790
X29884Y5613
X28487Y4983
X28703Y4274
X30160Y4097
X30613Y3723
X28546Y3566
X27306Y2857
X23310Y5298
X25396Y7089
X24432Y8644
X24038Y9077
X24865Y9589
X25377Y9569
X26538Y9688
X23861Y9825
X20790Y9609
X19018Y10967
X18566Y11459
X18270Y11754
X18782Y12069
X14451Y12503
X13999Y12503
X13231Y11971
X11006Y11735
X10495Y11735
X9983Y11735
X9983Y12247
X10495Y12247
X10495Y12758
X9983Y12758
X9983Y13270
X10495Y13270
X11006Y13270
X12148Y13251
X11006Y12758
X11006Y12247
X11006Y11223
X10495Y11223
X9983Y11223
X9983Y10711
X10495Y10711
X11006Y10711
X12227Y10908
X13940Y10810
X13959Y11144
X14333Y11144
X14333Y10810
X16676Y9707
X15357Y8959
X11006Y13782
X10495Y13782
X9983Y13782
X25337Y13743
X25731Y14333
X25731Y14589
X25436Y14589
X25416Y14865
X26735Y15180
X26991Y15180
X27247Y15180
X27247Y15455
X26991Y15455
X26735Y15455
X26735Y15731
X26991Y15731
X27247Y15731
X31518Y15691
X31794Y15691
X31932Y15908
X31656Y15908
X33073Y16026
X33329Y16026
X33585Y16026
X33841Y16026
X34097Y16026
X34097Y15751
X33841Y15751
X33585Y15751
X33329Y15751
X33073Y15751
X33054Y15475
X33310Y15475
X33566Y15475
X33821Y15475
X34077Y15475
X34058Y15199
X33802Y15199
X33546Y15199
X33290Y15199
X33034Y15199
X33054Y14924
X33310Y14924
X33566Y14924
X33821Y14924
X34077Y14924
X34097Y14648
X33841Y14648
X33585Y14648
X33329Y14648
X33073Y14648
X31617Y13211
X31361Y13211
X31105Y13211
X31105Y12936
X31361Y12936
X31617Y12936
X31617Y12660
X31361Y12660
X31105Y12660
X33073Y16302
X33329Y16302
X33585Y16302
X33841Y16302
X34097Y16302
X35770Y7955
X35199Y7542
X35199Y7168
X35317Y6558
X35396Y5573
X34983Y4865
X35140Y3940
X35593Y3959
X36026Y3959
X32384Y5337
X32522Y5967
X32463Y6499
X15022Y4077
X12562Y4018
T02
X16380Y3605
X18506Y3625
X18447Y4904
X17404Y4845
X17306Y5337
X22640Y2542
X24353Y3664
X8566Y3703
X6420Y4294
X6420Y5613
X8113Y6814
X6125Y11321
X6184Y13270
T03
X8270Y13310
X8329Y11105
T04
X8999Y9825
X8959Y2463
T05
X13479Y5790
X14479Y5790
X5160Y8302
X5160Y9302
X13073Y12790
X13073Y13790
X12849Y15534
X13849Y15534
X11566Y15534
X10566Y15534
X22495Y14589
X23495Y14589
T06
X23715Y13003
X24715Y13003
X25715Y13003
X26715Y13003
X27715Y13003
X28715Y13003
X29715Y13003
X29715Y12003
X28715Y12003
X27715Y12003
X26715Y12003
X25715Y12003
X24715Y12003
X23715Y12003
X28550Y10621
X29550Y10621
X30550Y10621
X30550Y9621
X29550Y9621
X28550Y9621
X31829Y8802
X32829Y8802
X33829Y8802
X36719Y6731
X36719Y5731
X36719Y4731
X33766Y2861
X32766Y2861
X31766Y2861
X20286Y2707
X19286Y2707
X18286Y2707
X17286Y2707
X16286Y2707
X15286Y2707
X14286Y2707
X14286Y1707
X15286Y1707
X16286Y1707
X17286Y1707
X18286Y1707
X19286Y1707
X20286Y1707
X5691Y3510
X5691Y4510
X5691Y5510
X5691Y6510
X5534Y10774
X5534Y11774
X5534Y12774
X5534Y13774
X15782Y13506
X16782Y13506
X16782Y12506
X15782Y12506
X15782Y11506
X16782Y11506
X16782Y14506
X15782Y14506
X15782Y15506
X16782Y15506
T07
X23999Y1695
X26597Y1695
T08
X7247Y2306
X36380Y2306
X5278Y15691
M30
