G75*
G70*
%OFA0B0*%
%FSLAX24Y24*%
%IPPOS*%
%LPD*%
%AMOC8*
5,1,8,0,0,1.08239X$1,22.5*
%
%ADD10C,0.0680*%
%ADD11C,0.0789*%
%ADD12OC8,0.0680*%
%ADD13C,0.0680*%
%ADD14C,0.0640*%
%ADD15C,0.1740*%
%ADD16C,0.0516*%
D10*
X031766Y002561D02*
X031766Y003161D01*
X032766Y003161D02*
X032766Y002561D01*
X033766Y002561D02*
X033766Y003161D01*
X036419Y004731D02*
X037019Y004731D01*
X037019Y005731D02*
X036419Y005731D01*
X036419Y006731D02*
X037019Y006731D01*
X033829Y008502D02*
X033829Y009102D01*
X032829Y009102D02*
X032829Y008502D01*
X031829Y008502D02*
X031829Y009102D01*
D11*
X026597Y001695D03*
X023999Y001695D03*
D12*
X020286Y001707D03*
X019286Y001707D03*
X018286Y001707D03*
X017286Y001707D03*
X016286Y001707D03*
X015286Y001707D03*
X014286Y001707D03*
X014286Y002707D03*
X015286Y002707D03*
X016286Y002707D03*
X017286Y002707D03*
X018286Y002707D03*
X019286Y002707D03*
X020286Y002707D03*
X029550Y009621D03*
X030550Y009621D03*
X030550Y010621D03*
X029550Y010621D03*
X028550Y010621D03*
X028715Y012003D03*
X027715Y012003D03*
X026715Y012003D03*
X025715Y012003D03*
X024715Y012003D03*
X023715Y012003D03*
X023715Y013003D03*
X024715Y013003D03*
X025715Y013003D03*
X026715Y013003D03*
X027715Y013003D03*
X028715Y013003D03*
X029715Y013003D03*
X029715Y012003D03*
X016782Y011506D03*
X015782Y011506D03*
X015782Y012506D03*
X016782Y012506D03*
X016782Y013506D03*
X015782Y013506D03*
X015782Y014506D03*
X016782Y014506D03*
X016782Y015506D03*
X015782Y015506D03*
D13*
X005534Y013774D03*
X005534Y012774D03*
X005534Y011774D03*
X005534Y010774D03*
X005691Y006510D03*
X005691Y005510D03*
X005691Y004510D03*
X005691Y003510D03*
X028550Y009621D03*
D14*
X023495Y014309D02*
X023495Y014869D01*
X022495Y014869D02*
X022495Y014309D01*
X013849Y015254D02*
X013849Y015814D01*
X012849Y015814D02*
X012849Y015254D01*
X011566Y015254D02*
X011566Y015814D01*
X010566Y015814D02*
X010566Y015254D01*
X012793Y013790D02*
X013353Y013790D01*
X013353Y012790D02*
X012793Y012790D01*
X005440Y009302D02*
X004880Y009302D01*
X004880Y008302D02*
X005440Y008302D01*
X013479Y006070D02*
X013479Y005510D01*
X014479Y005510D02*
X014479Y006070D01*
D15*
X007247Y002306D03*
X036380Y002306D03*
X005278Y015691D03*
D16*
X008999Y009825D03*
X008959Y002463D03*
M02*
