G75*
G70*
%OFA0B0*%
%FSLAX24Y24*%
%IPPOS*%
%LPD*%
%AMOC8*
5,1,8,0,0,1.08239X$1,22.5*
%
%ADD10R,0.0591X0.0197*%
%ADD11R,0.0197X0.0591*%
%ADD12R,0.0644X0.0173*%
%ADD13R,0.0551X0.0157*%
%ADD14R,0.0394X0.0433*%
%ADD15R,0.0433X0.0394*%
%ADD16R,0.0669X0.0945*%
%ADD17R,0.0630X0.0551*%
%ADD18R,0.0157X0.0531*%
%ADD19R,0.0748X0.0630*%
%ADD20R,0.0157X0.0197*%
%ADD21R,0.0197X0.0197*%
%ADD22R,0.0591X0.0827*%
%ADD23R,0.0413X0.0425*%
%ADD24R,0.0425X0.0413*%
%ADD25R,0.0630X0.0118*%
%ADD26R,0.0512X0.0591*%
%ADD27R,0.1181X0.0551*%
%ADD28R,0.0118X0.0276*%
%ADD29R,0.0315X0.0472*%
%ADD30R,0.0276X0.0354*%
%ADD31R,0.0276X0.0236*%
%ADD32R,0.0709X0.0866*%
%ADD33R,0.0610X0.0236*%
%ADD34R,0.0787X0.1260*%
%ADD35R,0.1063X0.1004*%
%ADD36R,0.0276X0.0118*%
D10*
X016093Y004979D03*
X016093Y005294D03*
X016093Y005609D03*
X016093Y005924D03*
X016093Y006239D03*
X016093Y006554D03*
X016093Y006869D03*
X016093Y007184D03*
X016093Y007499D03*
X016093Y007814D03*
X016093Y008129D03*
X016093Y008443D03*
X016093Y008758D03*
X016093Y009073D03*
X016093Y009388D03*
X016093Y009703D03*
X022235Y009703D03*
X022235Y009388D03*
X022235Y009073D03*
X022235Y008758D03*
X022235Y008443D03*
X022235Y008129D03*
X022235Y007814D03*
X022235Y007499D03*
X022235Y007184D03*
X022235Y006869D03*
X022235Y006554D03*
X022235Y006239D03*
X022235Y005924D03*
X022235Y005609D03*
X022235Y005294D03*
X022235Y004979D03*
D11*
X021526Y004270D03*
X021211Y004270D03*
X020896Y004270D03*
X020581Y004270D03*
X020266Y004270D03*
X019951Y004270D03*
X019636Y004270D03*
X019321Y004270D03*
X019006Y004270D03*
X018691Y004270D03*
X018377Y004270D03*
X018062Y004270D03*
X017747Y004270D03*
X017432Y004270D03*
X017117Y004270D03*
X016802Y004270D03*
X016802Y010412D03*
X017117Y010412D03*
X017432Y010412D03*
X017747Y010412D03*
X018062Y010412D03*
X018377Y010412D03*
X018691Y010412D03*
X019006Y010412D03*
X019321Y010412D03*
X019636Y010412D03*
X019951Y010412D03*
X020266Y010412D03*
X020581Y010412D03*
X020896Y010412D03*
X021211Y010412D03*
X021526Y010412D03*
D12*
X026880Y007256D03*
X026880Y007001D03*
X026880Y006745D03*
X026880Y006489D03*
X026880Y006233D03*
X026880Y005977D03*
X026880Y005721D03*
X026880Y005465D03*
X026880Y005209D03*
X026880Y004953D03*
X026880Y004697D03*
X026880Y004441D03*
X029282Y004441D03*
X029282Y004697D03*
X029282Y004953D03*
X029282Y005209D03*
X029282Y005465D03*
X029282Y005721D03*
X029282Y005977D03*
X029282Y006233D03*
X029282Y006489D03*
X029282Y006745D03*
X029282Y007001D03*
X029282Y007256D03*
D13*
X031168Y006794D03*
X031168Y006538D03*
X031168Y006282D03*
X031168Y006026D03*
X031168Y005770D03*
X031168Y005514D03*
X031168Y005258D03*
X033491Y005258D03*
X033491Y005514D03*
X033491Y005770D03*
X033491Y006026D03*
X033491Y006282D03*
X033491Y006538D03*
X033491Y006794D03*
D14*
X034132Y006609D03*
X034802Y006609D03*
X034538Y007459D03*
X033869Y007459D03*
X033337Y007447D03*
X032668Y007447D03*
X031853Y007487D03*
X031184Y007487D03*
X034140Y005408D03*
X034810Y005408D03*
X034526Y004566D03*
X033857Y004566D03*
X033337Y004566D03*
X032668Y004566D03*
X031900Y004546D03*
X031231Y004546D03*
X014510Y004058D03*
X013841Y004058D03*
X012719Y002562D03*
X012050Y002562D03*
X008684Y006006D03*
X008684Y006676D03*
D15*
X007581Y006873D03*
X006912Y006873D03*
X009038Y007188D03*
X009707Y007188D03*
X012247Y009491D03*
X012247Y010160D03*
X007680Y010317D03*
X007010Y010317D03*
X007837Y014550D03*
X008506Y014550D03*
X009077Y014530D03*
X009747Y014530D03*
X025869Y008093D03*
X025869Y007424D03*
X024786Y005829D03*
X024235Y005810D03*
X024235Y005140D03*
X024786Y005160D03*
X023861Y004392D03*
X023329Y003999D03*
X023861Y003723D03*
X023329Y003329D03*
X022739Y003329D03*
X022739Y003999D03*
X030684Y004199D03*
X030684Y004869D03*
X030668Y007408D03*
X030668Y008077D03*
D16*
X019943Y013073D03*
X018487Y013073D03*
D17*
X024038Y002660D03*
X026558Y002660D03*
D18*
X025810Y002758D03*
X025554Y002758D03*
X025298Y002758D03*
X025042Y002758D03*
X024786Y002758D03*
D19*
X024825Y001695D03*
X025770Y001695D03*
D20*
X023132Y004353D03*
X023132Y004943D03*
D21*
X022837Y004904D03*
X022837Y004392D03*
X023428Y004392D03*
X023428Y004904D03*
X028113Y003191D03*
X028113Y002817D03*
X028113Y002443D03*
X029018Y002443D03*
X029018Y003191D03*
D22*
X023152Y002247D03*
X021735Y002247D03*
D23*
X021705Y003349D03*
X021016Y003349D03*
X018024Y003605D03*
X017335Y003605D03*
X022847Y006892D03*
X023536Y006892D03*
X027001Y003369D03*
X027690Y003369D03*
X029441Y003467D03*
X030130Y003467D03*
X030426Y002601D03*
X029737Y002601D03*
X018910Y014058D03*
X019540Y014097D03*
X020229Y014097D03*
X018221Y014058D03*
D24*
X020298Y012119D03*
X020298Y011430D03*
X026144Y006725D03*
X026144Y006036D03*
X022188Y003910D03*
X022188Y003221D03*
X035514Y004441D03*
X035514Y005130D03*
X035790Y006745D03*
X035790Y007434D03*
X035613Y013438D03*
X035613Y014127D03*
X035495Y015229D03*
X035495Y015918D03*
D25*
X009609Y003280D03*
X009609Y003536D03*
X009609Y003792D03*
X009609Y004048D03*
X009609Y004304D03*
X009609Y004560D03*
X009609Y004816D03*
X009609Y005071D03*
X009609Y005327D03*
X009609Y005583D03*
X009609Y005839D03*
X009609Y006095D03*
X009609Y006351D03*
X009609Y006607D03*
X011814Y006607D03*
X011814Y006351D03*
X011814Y006095D03*
X011814Y005839D03*
X011814Y005583D03*
X011814Y005327D03*
X011814Y005071D03*
X011814Y004816D03*
X011814Y004560D03*
X011814Y004304D03*
X011814Y004048D03*
X011814Y003792D03*
X011814Y003536D03*
X011814Y003280D03*
X011597Y010583D03*
X011597Y010839D03*
X011597Y011095D03*
X011597Y011351D03*
X011597Y011607D03*
X011597Y011863D03*
X011597Y012119D03*
X011597Y012375D03*
X011597Y012630D03*
X011597Y012886D03*
X011597Y013142D03*
X011597Y013398D03*
X011597Y013654D03*
X011597Y013910D03*
X009392Y013910D03*
X009392Y013654D03*
X009392Y013398D03*
X009392Y013142D03*
X009392Y012886D03*
X009392Y012630D03*
X009392Y012375D03*
X009392Y012119D03*
X009392Y011863D03*
X009392Y011607D03*
X009392Y011351D03*
X009392Y011095D03*
X009392Y010839D03*
X009392Y010583D03*
D26*
X007404Y011676D03*
X006656Y011676D03*
X006636Y012817D03*
X007384Y012817D03*
X007699Y005554D03*
X006951Y005554D03*
X006932Y004333D03*
X007680Y004333D03*
D27*
X008566Y008664D03*
X006676Y008664D03*
X028172Y015140D03*
X030062Y015140D03*
D28*
X025042Y014825D03*
X024786Y014825D03*
X024530Y014825D03*
X024530Y014195D03*
X024786Y014195D03*
X025042Y014195D03*
D29*
X025918Y010003D03*
X027670Y010003D03*
X027670Y008625D03*
X025918Y008625D03*
D30*
X010022Y009550D03*
X010022Y002129D03*
D31*
X010967Y002384D03*
X010967Y001873D03*
X010967Y009294D03*
X010967Y009806D03*
D32*
X032680Y013723D03*
X034688Y013723D03*
D33*
X034629Y014804D03*
X034630Y015304D03*
X034630Y015804D03*
X034629Y016304D03*
X032503Y016304D03*
X032503Y015804D03*
X032503Y015304D03*
X032503Y014804D03*
D34*
X032542Y011400D03*
X035613Y011400D03*
D35*
X031361Y011607D03*
X031361Y014107D03*
D36*
X014314Y012069D03*
X014314Y011814D03*
X014314Y011558D03*
X013684Y011558D03*
X013684Y011814D03*
X013684Y012069D03*
M02*
