G75*
G70*
%OFA0B0*%
%FSLAX24Y24*%
%IPPOS*%
%LPD*%
%AMOC8*
5,1,8,0,0,1.08239X$1,22.5*
%
%ADD10C,0.0000*%
%ADD11R,0.0591X0.0197*%
%ADD12R,0.0197X0.0591*%
%ADD13R,0.0644X0.0173*%
%ADD14R,0.0551X0.0157*%
%ADD15R,0.0394X0.0433*%
%ADD16R,0.0433X0.0394*%
%ADD17C,0.0600*%
%ADD18R,0.0669X0.0945*%
%ADD19C,0.0709*%
%ADD20R,0.0630X0.0551*%
%ADD21R,0.0157X0.0531*%
%ADD22R,0.0748X0.0630*%
%ADD23R,0.0157X0.0197*%
%ADD24R,0.0197X0.0197*%
%ADD25R,0.0591X0.0827*%
%ADD26R,0.0413X0.0425*%
%ADD27R,0.0425X0.0413*%
%ADD28OC8,0.0600*%
%ADD29C,0.0318*%
%ADD30R,0.0630X0.0118*%
%ADD31R,0.1339X0.3819*%
%ADD32R,0.0512X0.0591*%
%ADD33R,0.1181X0.0551*%
%ADD34C,0.0600*%
%ADD35C,0.0560*%
%ADD36R,0.0118X0.0276*%
%ADD37R,0.0315X0.0472*%
%ADD38R,0.0276X0.0354*%
%ADD39R,0.0276X0.0236*%
%ADD40R,0.0709X0.0866*%
%ADD41R,0.0610X0.0236*%
%ADD42R,0.0787X0.1260*%
%ADD43R,0.1063X0.1004*%
%ADD44R,0.0276X0.0118*%
%ADD45C,0.0100*%
%ADD46C,0.0120*%
%ADD47C,0.0278*%
%ADD48C,0.0357*%
%ADD49C,0.1660*%
%ADD50C,0.0160*%
%ADD51C,0.0436*%
%ADD52C,0.0240*%
%ADD53C,0.0320*%
%ADD54C,0.0396*%
D10*
X004097Y002109D02*
X004097Y015888D01*
X004099Y015950D01*
X004105Y016011D01*
X004114Y016072D01*
X004128Y016133D01*
X004145Y016192D01*
X004166Y016250D01*
X004191Y016307D01*
X004219Y016362D01*
X004250Y016415D01*
X004285Y016466D01*
X004323Y016515D01*
X004364Y016562D01*
X004407Y016605D01*
X004454Y016646D01*
X004503Y016684D01*
X004554Y016719D01*
X004607Y016750D01*
X004662Y016778D01*
X004719Y016803D01*
X004777Y016824D01*
X004836Y016841D01*
X004897Y016855D01*
X004958Y016864D01*
X005019Y016870D01*
X005081Y016872D01*
X005081Y016873D02*
X036577Y016873D01*
X036577Y016872D02*
X036639Y016870D01*
X036700Y016864D01*
X036761Y016855D01*
X036822Y016841D01*
X036881Y016824D01*
X036939Y016803D01*
X036996Y016778D01*
X037051Y016750D01*
X037104Y016719D01*
X037155Y016684D01*
X037204Y016646D01*
X037251Y016605D01*
X037294Y016562D01*
X037335Y016515D01*
X037373Y016466D01*
X037408Y016415D01*
X037439Y016362D01*
X037467Y016307D01*
X037492Y016250D01*
X037513Y016192D01*
X037530Y016133D01*
X037544Y016072D01*
X037553Y016011D01*
X037559Y015950D01*
X037561Y015888D01*
X037562Y015888D02*
X037562Y002109D01*
X037561Y002109D02*
X037559Y002047D01*
X037553Y001986D01*
X037544Y001925D01*
X037530Y001864D01*
X037513Y001805D01*
X037492Y001747D01*
X037467Y001690D01*
X037439Y001635D01*
X037408Y001582D01*
X037373Y001531D01*
X037335Y001482D01*
X037294Y001435D01*
X037251Y001392D01*
X037204Y001351D01*
X037155Y001313D01*
X037104Y001278D01*
X037051Y001247D01*
X036996Y001219D01*
X036939Y001194D01*
X036881Y001173D01*
X036822Y001156D01*
X036761Y001142D01*
X036700Y001133D01*
X036639Y001127D01*
X036577Y001125D01*
X005081Y001125D01*
X005019Y001127D01*
X004958Y001133D01*
X004897Y001142D01*
X004836Y001156D01*
X004777Y001173D01*
X004719Y001194D01*
X004662Y001219D01*
X004607Y001247D01*
X004554Y001278D01*
X004503Y001313D01*
X004454Y001351D01*
X004407Y001392D01*
X004364Y001435D01*
X004323Y001482D01*
X004285Y001531D01*
X004250Y001582D01*
X004219Y001635D01*
X004191Y001690D01*
X004166Y001747D01*
X004145Y001805D01*
X004128Y001864D01*
X004114Y001925D01*
X004105Y001986D01*
X004099Y002047D01*
X004097Y002109D01*
D11*
X016093Y004979D03*
X016093Y005294D03*
X016093Y005609D03*
X016093Y005924D03*
X016093Y006239D03*
X016093Y006554D03*
X016093Y006869D03*
X016093Y007184D03*
X016093Y007499D03*
X016093Y007814D03*
X016093Y008129D03*
X016093Y008443D03*
X016093Y008758D03*
X016093Y009073D03*
X016093Y009388D03*
X016093Y009703D03*
X022235Y009703D03*
X022235Y009388D03*
X022235Y009073D03*
X022235Y008758D03*
X022235Y008443D03*
X022235Y008129D03*
X022235Y007814D03*
X022235Y007499D03*
X022235Y007184D03*
X022235Y006869D03*
X022235Y006554D03*
X022235Y006239D03*
X022235Y005924D03*
X022235Y005609D03*
X022235Y005294D03*
X022235Y004979D03*
D12*
X021526Y004270D03*
X021211Y004270D03*
X020896Y004270D03*
X020581Y004270D03*
X020266Y004270D03*
X019951Y004270D03*
X019636Y004270D03*
X019321Y004270D03*
X019006Y004270D03*
X018691Y004270D03*
X018377Y004270D03*
X018062Y004270D03*
X017747Y004270D03*
X017432Y004270D03*
X017117Y004270D03*
X016802Y004270D03*
X016802Y010412D03*
X017117Y010412D03*
X017432Y010412D03*
X017747Y010412D03*
X018062Y010412D03*
X018377Y010412D03*
X018691Y010412D03*
X019006Y010412D03*
X019321Y010412D03*
X019636Y010412D03*
X019951Y010412D03*
X020266Y010412D03*
X020581Y010412D03*
X020896Y010412D03*
X021211Y010412D03*
X021526Y010412D03*
D13*
X026880Y007256D03*
X026880Y007001D03*
X026880Y006745D03*
X026880Y006489D03*
X026880Y006233D03*
X026880Y005977D03*
X026880Y005721D03*
X026880Y005465D03*
X026880Y005209D03*
X026880Y004953D03*
X026880Y004697D03*
X026880Y004441D03*
X029282Y004441D03*
X029282Y004697D03*
X029282Y004953D03*
X029282Y005209D03*
X029282Y005465D03*
X029282Y005721D03*
X029282Y005977D03*
X029282Y006233D03*
X029282Y006489D03*
X029282Y006745D03*
X029282Y007001D03*
X029282Y007256D03*
D14*
X031168Y006794D03*
X031168Y006538D03*
X031168Y006282D03*
X031168Y006026D03*
X031168Y005770D03*
X031168Y005514D03*
X031168Y005258D03*
X033491Y005258D03*
X033491Y005514D03*
X033491Y005770D03*
X033491Y006026D03*
X033491Y006282D03*
X033491Y006538D03*
X033491Y006794D03*
D15*
X034132Y006609D03*
X034802Y006609D03*
X034538Y007459D03*
X033869Y007459D03*
X033337Y007447D03*
X032668Y007447D03*
X031853Y007487D03*
X031184Y007487D03*
X034140Y005408D03*
X034810Y005408D03*
X034526Y004566D03*
X033857Y004566D03*
X033337Y004566D03*
X032668Y004566D03*
X031900Y004546D03*
X031231Y004546D03*
X014510Y004058D03*
X013841Y004058D03*
X012719Y002562D03*
X012050Y002562D03*
X008684Y006006D03*
X008684Y006676D03*
D16*
X007581Y006873D03*
X006912Y006873D03*
X009038Y007188D03*
X009707Y007188D03*
X012247Y009491D03*
X012247Y010160D03*
X007680Y010317D03*
X007010Y010317D03*
X007837Y014550D03*
X008506Y014550D03*
X009077Y014530D03*
X009747Y014530D03*
X025869Y008093D03*
X025869Y007424D03*
X024786Y005829D03*
X024235Y005810D03*
X024235Y005140D03*
X024786Y005160D03*
X023861Y004392D03*
X023329Y003999D03*
X023861Y003723D03*
X023329Y003329D03*
X022739Y003329D03*
X022739Y003999D03*
X030684Y004199D03*
X030684Y004869D03*
X030668Y007408D03*
X030668Y008077D03*
D17*
X031829Y008502D02*
X031829Y009102D01*
X032829Y009102D02*
X032829Y008502D01*
X033829Y008502D02*
X033829Y009102D01*
X036419Y006731D02*
X037019Y006731D01*
X037019Y005731D02*
X036419Y005731D01*
X036419Y004731D02*
X037019Y004731D01*
X033766Y003161D02*
X033766Y002561D01*
X032766Y002561D02*
X032766Y003161D01*
X031766Y003161D02*
X031766Y002561D01*
D18*
X019943Y013073D03*
X018487Y013073D03*
D19*
X023999Y001695D03*
X026597Y001695D03*
D20*
X026558Y002660D03*
X024038Y002660D03*
D21*
X024786Y002758D03*
X025042Y002758D03*
X025298Y002758D03*
X025554Y002758D03*
X025810Y002758D03*
D22*
X025770Y001695D03*
X024825Y001695D03*
D23*
X023132Y004353D03*
X023132Y004943D03*
D24*
X022837Y004904D03*
X022837Y004392D03*
X023428Y004392D03*
X023428Y004904D03*
X028113Y003191D03*
X028113Y002817D03*
X028113Y002443D03*
X029018Y002443D03*
X029018Y003191D03*
D25*
X023152Y002247D03*
X021735Y002247D03*
D26*
X021705Y003349D03*
X021016Y003349D03*
X018024Y003605D03*
X017335Y003605D03*
X022847Y006892D03*
X023536Y006892D03*
X027001Y003369D03*
X027690Y003369D03*
X029441Y003467D03*
X030130Y003467D03*
X030426Y002601D03*
X029737Y002601D03*
X018910Y014058D03*
X019540Y014097D03*
X020229Y014097D03*
X018221Y014058D03*
D27*
X020298Y012119D03*
X020298Y011430D03*
X026144Y006725D03*
X026144Y006036D03*
X022188Y003910D03*
X022188Y003221D03*
X035514Y004441D03*
X035514Y005130D03*
X035790Y006745D03*
X035790Y007434D03*
X035613Y013438D03*
X035613Y014127D03*
X035495Y015229D03*
X035495Y015918D03*
D28*
X029715Y013003D03*
X028715Y013003D03*
X027715Y013003D03*
X026715Y013003D03*
X025715Y013003D03*
X024715Y013003D03*
X023715Y013003D03*
X023715Y012003D03*
X024715Y012003D03*
X025715Y012003D03*
X026715Y012003D03*
X027715Y012003D03*
X028715Y012003D03*
X029715Y012003D03*
X029550Y010621D03*
X030550Y010621D03*
X028550Y010621D03*
X029550Y009621D03*
X030550Y009621D03*
X016782Y011506D03*
X015782Y011506D03*
X015782Y012506D03*
X016782Y012506D03*
X016782Y013506D03*
X015782Y013506D03*
X015782Y014506D03*
X016782Y014506D03*
X016782Y015506D03*
X015782Y015506D03*
X015286Y002707D03*
X016286Y002707D03*
X017286Y002707D03*
X018286Y002707D03*
X019286Y002707D03*
X020286Y002707D03*
X020286Y001707D03*
X019286Y001707D03*
X018286Y001707D03*
X017286Y001707D03*
X016286Y001707D03*
X015286Y001707D03*
X014286Y001707D03*
X014286Y002707D03*
D29*
X011223Y003408D03*
X010711Y003408D03*
X010199Y003408D03*
X010199Y003920D03*
X010711Y003920D03*
X011223Y003920D03*
X011223Y004432D03*
X010711Y004432D03*
X010199Y004432D03*
X010199Y004943D03*
X010711Y004943D03*
X011223Y004943D03*
X011223Y005455D03*
X010711Y005455D03*
X010199Y005455D03*
X010199Y005967D03*
X010711Y005967D03*
X011223Y005967D03*
X011223Y006479D03*
X010711Y006479D03*
X010199Y006479D03*
X009983Y010711D03*
X010495Y010711D03*
X011006Y010711D03*
X011006Y011223D03*
X010495Y011223D03*
X009983Y011223D03*
X009983Y011735D03*
X010495Y011735D03*
X011006Y011735D03*
X011006Y012247D03*
X010495Y012247D03*
X009983Y012247D03*
X009983Y012758D03*
X010495Y012758D03*
X011006Y012758D03*
X011006Y013270D03*
X010495Y013270D03*
X009983Y013270D03*
X009983Y013782D03*
X010495Y013782D03*
X011006Y013782D03*
D30*
X011597Y013654D03*
X011597Y013398D03*
X011597Y013142D03*
X011597Y012886D03*
X011597Y012630D03*
X011597Y012375D03*
X011597Y012119D03*
X011597Y011863D03*
X011597Y011607D03*
X011597Y011351D03*
X011597Y011095D03*
X011597Y010839D03*
X011597Y010583D03*
X009392Y010583D03*
X009392Y010839D03*
X009392Y011095D03*
X009392Y011351D03*
X009392Y011607D03*
X009392Y011863D03*
X009392Y012119D03*
X009392Y012375D03*
X009392Y012630D03*
X009392Y012886D03*
X009392Y013142D03*
X009392Y013398D03*
X009392Y013654D03*
X009392Y013910D03*
X011597Y013910D03*
X011814Y006607D03*
X011814Y006351D03*
X011814Y006095D03*
X011814Y005839D03*
X011814Y005583D03*
X011814Y005327D03*
X011814Y005071D03*
X011814Y004816D03*
X011814Y004560D03*
X011814Y004304D03*
X011814Y004048D03*
X011814Y003792D03*
X011814Y003536D03*
X011814Y003280D03*
X009609Y003280D03*
X009609Y003536D03*
X009609Y003792D03*
X009609Y004048D03*
X009609Y004304D03*
X009609Y004560D03*
X009609Y004816D03*
X009609Y005071D03*
X009609Y005327D03*
X009609Y005583D03*
X009609Y005839D03*
X009609Y006095D03*
X009609Y006351D03*
X009609Y006607D03*
D31*
X010711Y004943D03*
X010495Y012247D03*
D32*
X007404Y011676D03*
X006656Y011676D03*
X006636Y012817D03*
X007384Y012817D03*
X007699Y005554D03*
X006951Y005554D03*
X006932Y004333D03*
X007680Y004333D03*
D33*
X008566Y008664D03*
X006676Y008664D03*
X028172Y015140D03*
X030062Y015140D03*
D34*
X028550Y009621D03*
X005534Y010774D03*
X005534Y011774D03*
X005534Y012774D03*
X005534Y013774D03*
X005691Y006510D03*
X005691Y005510D03*
X005691Y004510D03*
X005691Y003510D03*
D35*
X013479Y005510D02*
X013479Y006070D01*
X014479Y006070D02*
X014479Y005510D01*
X005440Y008302D02*
X004880Y008302D01*
X004880Y009302D02*
X005440Y009302D01*
X012793Y012790D02*
X013353Y012790D01*
X013353Y013790D02*
X012793Y013790D01*
X012849Y015254D02*
X012849Y015814D01*
X013849Y015814D02*
X013849Y015254D01*
X011566Y015254D02*
X011566Y015814D01*
X010566Y015814D02*
X010566Y015254D01*
X022495Y014869D02*
X022495Y014309D01*
X023495Y014309D02*
X023495Y014869D01*
D36*
X024530Y014825D03*
X024786Y014825D03*
X025042Y014825D03*
X025042Y014195D03*
X024786Y014195D03*
X024530Y014195D03*
D37*
X025918Y010003D03*
X027670Y010003D03*
X027670Y008625D03*
X025918Y008625D03*
D38*
X010022Y009550D03*
X010022Y002129D03*
D39*
X010967Y002384D03*
X010967Y001873D03*
X010967Y009294D03*
X010967Y009806D03*
D40*
X032680Y013723D03*
X034688Y013723D03*
D41*
X034629Y014804D03*
X034630Y015304D03*
X034630Y015804D03*
X034629Y016304D03*
X032503Y016304D03*
X032503Y015804D03*
X032503Y015304D03*
X032503Y014804D03*
D42*
X032542Y011400D03*
X035613Y011400D03*
D43*
X031361Y011607D03*
X031361Y014107D03*
D44*
X014314Y012069D03*
X014314Y011814D03*
X014314Y011558D03*
X013684Y011558D03*
X013684Y011814D03*
X013684Y012069D03*
D45*
X018221Y013339D02*
X018221Y014058D01*
X018910Y014058D02*
X019501Y014058D01*
X019540Y014097D01*
X020130Y014688D01*
X020416Y014688D01*
X020829Y014274D01*
X020829Y012719D01*
X020298Y012188D01*
X020298Y012119D01*
X019884Y011705D01*
X019884Y011105D01*
X019951Y011038D01*
X019951Y010412D01*
X019951Y007707D01*
X019806Y007562D01*
X020266Y007443D02*
X020306Y007404D01*
X020810Y007404D01*
X020266Y007443D02*
X020266Y007227D01*
X020227Y007188D01*
X019510Y007188D01*
X017747Y005424D01*
X017660Y005337D01*
X017306Y005337D01*
X017747Y005424D02*
X017747Y004270D01*
X017747Y003977D01*
X017375Y003605D01*
X017335Y003605D01*
X016971Y003392D02*
X016286Y002707D01*
X015337Y002758D02*
X015286Y002707D01*
X015337Y002758D02*
X015337Y003132D01*
X016093Y003888D01*
X016093Y004979D01*
X016077Y005278D02*
X015573Y005278D01*
X014855Y004560D01*
X011814Y004560D01*
X011223Y004432D02*
X011223Y004943D01*
X011223Y005455D01*
X011223Y005967D01*
X011223Y006479D01*
X011351Y006607D01*
X011814Y006607D01*
X011223Y006479D02*
X010711Y006479D01*
X010199Y006479D01*
X010199Y007542D01*
X009707Y007188D02*
X009609Y007089D01*
X009609Y006607D01*
X010199Y006479D02*
X010199Y005967D01*
X010199Y005455D01*
X010199Y004943D01*
X010199Y004432D01*
X010199Y003920D01*
X010199Y003408D01*
X010071Y003280D01*
X009609Y003280D01*
X009609Y003536D02*
X009609Y003792D01*
X010711Y003920D02*
X010711Y003408D01*
X010770Y003349D01*
X010711Y003408D02*
X011223Y003408D01*
X011223Y003920D01*
X011223Y004432D01*
X010711Y004432D02*
X010711Y003920D01*
X011814Y003792D02*
X011814Y003536D01*
X011843Y003762D02*
X011814Y003792D01*
X011843Y003762D02*
X012286Y003762D01*
X012542Y004018D01*
X012562Y004018D01*
X012975Y004018D01*
X014286Y002707D01*
X014825Y002247D02*
X014286Y001707D01*
X011920Y001707D01*
X014825Y002247D02*
X017719Y002247D01*
X017817Y002345D01*
X017817Y003034D01*
X018024Y003241D01*
X018024Y003605D01*
X018026Y003603D01*
X018062Y003603D01*
X018062Y004270D01*
X018034Y004298D01*
X018034Y005121D01*
X019629Y006715D01*
X019806Y006715D01*
X019806Y006459D01*
X019806Y006715D02*
X020003Y006715D01*
X020672Y006046D01*
X020475Y005849D01*
X020475Y005810D01*
X020672Y006046D02*
X021211Y005506D01*
X021211Y004270D01*
X021211Y003349D01*
X021016Y003349D01*
X021211Y003349D02*
X021211Y003191D01*
X021211Y001825D01*
X021440Y001597D01*
X023802Y001597D01*
X023851Y001548D01*
X023802Y001499D01*
X023851Y001548D02*
X023999Y001695D01*
X024825Y001695D01*
X025770Y001695D01*
X026597Y001695D01*
X026597Y002621D01*
X026558Y002660D01*
X025908Y002660D01*
X025810Y002758D01*
X024786Y002758D02*
X024589Y002955D01*
X024589Y003644D01*
X024569Y003664D01*
X024353Y003664D01*
X023447Y003329D02*
X023329Y003329D01*
X023369Y003329D01*
X024038Y002660D01*
X024038Y001735D01*
X023999Y001695D01*
X023152Y002247D02*
X022936Y002247D01*
X022640Y002542D01*
X021735Y002247D02*
X021526Y002455D01*
X021526Y003191D01*
X021546Y003211D01*
X021526Y003191D02*
X021526Y003369D01*
X021546Y003349D01*
X021705Y003349D01*
X021843Y003211D01*
X022178Y003211D01*
X022188Y003221D01*
X022739Y003329D02*
X023329Y003329D01*
X022857Y003487D02*
X022758Y003487D01*
X022611Y003487D01*
X022188Y003910D01*
X022739Y003999D02*
X022837Y004097D01*
X022837Y004392D01*
X023132Y004353D02*
X023132Y004195D01*
X023329Y003999D01*
X023428Y004392D02*
X023861Y004392D01*
X023959Y004392D01*
X023428Y004904D02*
X023428Y005180D01*
X023310Y005298D01*
X023132Y005062D02*
X022900Y005294D01*
X022235Y005294D01*
X022235Y004979D02*
X022762Y004979D01*
X022837Y004904D01*
X023132Y004943D02*
X023132Y005062D01*
X023392Y005609D02*
X022235Y005609D01*
X021877Y005609D01*
X020947Y006538D01*
X020967Y006538D01*
X020967Y006774D01*
X021302Y007109D01*
X021892Y007109D01*
X021971Y007188D01*
X022231Y007188D01*
X022235Y007184D01*
X022180Y007443D02*
X021656Y007443D01*
X022180Y007443D02*
X022235Y007499D01*
X022235Y007814D02*
X022684Y007814D01*
X022936Y007562D01*
X023191Y008113D02*
X023753Y007552D01*
X024392Y006912D01*
X023536Y006892D02*
X023536Y006548D01*
X023526Y006538D01*
X022251Y006538D01*
X022235Y006554D01*
X021522Y006554D01*
X021499Y006577D01*
X022235Y006869D02*
X022823Y006869D01*
X022847Y006892D01*
X021577Y005534D02*
X020266Y006845D01*
X020266Y007227D01*
X020266Y007443D02*
X020266Y010412D01*
X020298Y010443D01*
X020298Y011430D01*
X019321Y012239D02*
X018487Y013073D01*
X018221Y013339D01*
X019636Y012766D02*
X019943Y013073D01*
X020229Y013359D01*
X020229Y014097D01*
X019636Y012766D02*
X019636Y010412D01*
X019321Y010412D02*
X019321Y012239D01*
X022239Y008447D02*
X023959Y008447D01*
X024875Y007532D01*
X026321Y007640D02*
X026321Y007188D01*
X026499Y007010D01*
X026871Y007010D01*
X026880Y007001D01*
X026880Y007256D02*
X028457Y007256D01*
X028703Y007010D01*
X029272Y007010D01*
X029282Y007001D01*
X029282Y007256D02*
X028910Y007256D01*
X028684Y007483D01*
X029806Y007758D02*
X026440Y007758D01*
X026321Y007640D01*
X026144Y006725D02*
X026321Y006548D01*
X026321Y006499D01*
X026871Y006499D01*
X026880Y006489D01*
X027729Y006489D01*
X028211Y006006D01*
X028211Y005888D01*
X028369Y005731D01*
X028664Y005731D01*
X028684Y005751D01*
X028684Y005790D01*
X028369Y005731D02*
X027847Y005209D01*
X026880Y005209D01*
X025603Y005209D01*
X025682Y005465D02*
X026880Y005465D01*
X026847Y005688D02*
X025873Y005688D01*
X026085Y005977D02*
X026085Y006026D01*
X026085Y005977D02*
X026144Y006036D01*
X026085Y005977D02*
X026880Y005977D01*
X026880Y005721D02*
X026847Y005688D01*
X027296Y006233D02*
X027660Y005869D01*
X027296Y006233D02*
X026880Y006233D01*
X026880Y006745D02*
X027827Y006745D01*
X028329Y006243D01*
X029272Y006243D01*
X029282Y006233D01*
X029282Y006489D02*
X028595Y006489D01*
X028467Y006617D01*
X029282Y006745D02*
X029756Y006745D01*
X029884Y006617D01*
X029884Y005810D01*
X029786Y005711D01*
X029292Y005711D01*
X029282Y005721D01*
X029282Y005977D01*
X029786Y005711D02*
X029884Y005613D01*
X029884Y005101D01*
X029737Y004953D01*
X029282Y004953D01*
X029282Y005209D02*
X028713Y005209D01*
X028487Y004983D01*
X027985Y004953D02*
X028526Y005495D01*
X029253Y005495D01*
X029282Y005465D01*
X030317Y005652D02*
X030416Y005751D01*
X031148Y005751D01*
X031168Y005770D01*
X031951Y005770D01*
X032384Y005337D01*
X032306Y004825D02*
X033024Y005544D01*
X032896Y005672D01*
X032896Y006380D01*
X033054Y006538D01*
X032463Y006499D02*
X032247Y006282D01*
X031168Y006282D01*
X030455Y006282D01*
X030239Y006499D01*
X030239Y007325D01*
X029806Y007758D01*
X030593Y007333D02*
X030668Y007408D01*
X031105Y007408D01*
X031184Y007487D01*
X031735Y007369D02*
X031735Y007168D01*
X031361Y006794D01*
X031168Y006794D01*
X031168Y006538D02*
X030691Y006538D01*
X030593Y006636D01*
X030593Y007333D01*
X031735Y007369D02*
X031853Y007487D01*
X032668Y007447D02*
X033321Y006794D01*
X033491Y006794D01*
X033337Y007447D02*
X033857Y007447D01*
X033869Y007459D01*
X034802Y006609D02*
X034853Y006558D01*
X035317Y006558D01*
X035337Y006026D02*
X035869Y006558D01*
X035337Y006026D02*
X033491Y006026D01*
X033024Y005544D02*
X033054Y005514D01*
X033231Y005258D02*
X033491Y005258D01*
X033321Y005258D01*
X033231Y005258D02*
X032668Y004695D01*
X032668Y004566D01*
X032766Y004467D01*
X032766Y002861D01*
X033191Y002010D02*
X033766Y002585D01*
X033766Y002861D01*
X032414Y002158D02*
X032306Y002266D01*
X032306Y004825D01*
X031900Y004546D02*
X031766Y004680D01*
X031188Y005258D01*
X031168Y005258D01*
X030751Y005514D02*
X030672Y005436D01*
X030672Y004880D01*
X030684Y004869D01*
X030908Y004869D01*
X031231Y004546D01*
X031144Y004546D01*
X030861Y004282D02*
X030345Y004282D01*
X030160Y004097D01*
X030317Y004747D02*
X029451Y003880D01*
X026459Y003880D01*
X026184Y004156D01*
X026184Y004451D01*
X026430Y004697D01*
X026880Y004697D01*
X026880Y004441D02*
X028300Y004441D01*
X028526Y004668D01*
X029253Y004668D01*
X029282Y004697D01*
X029282Y004441D02*
X029253Y004412D01*
X028841Y004412D01*
X028703Y004274D01*
X027985Y004953D02*
X026880Y004953D01*
X030317Y004747D02*
X030317Y005652D01*
X030751Y005514D02*
X031168Y005514D01*
X031168Y006026D02*
X032463Y006026D01*
X032522Y005967D01*
X034526Y005022D02*
X034526Y004566D01*
X033857Y004566D02*
X033337Y004566D01*
X031766Y004680D02*
X031766Y002861D01*
X031105Y002404D02*
X031499Y002010D01*
X032266Y002010D01*
X032414Y002158D01*
X032562Y002010D01*
X033191Y002010D01*
X031105Y002404D02*
X031105Y003506D01*
X034810Y005038D02*
X034983Y004865D01*
X034810Y005038D02*
X034810Y005408D01*
X033829Y008802D02*
X033829Y009109D01*
X033506Y010278D02*
X033585Y010357D01*
X033959Y010357D01*
X023191Y008113D02*
X022251Y008113D01*
X022235Y008129D01*
X022235Y008443D02*
X022239Y008447D01*
X016093Y005924D02*
X016077Y005908D01*
X015475Y005908D01*
X014638Y005071D01*
X011814Y005071D01*
X011814Y004816D02*
X014756Y004816D01*
X015554Y005613D01*
X016089Y005613D01*
X016093Y005609D01*
X016093Y005294D02*
X016077Y005278D01*
X017404Y004845D02*
X017432Y004817D01*
X017432Y004270D01*
X017117Y004270D02*
X017117Y004006D01*
X016971Y003861D01*
X016971Y003392D01*
X016380Y003605D02*
X016774Y003999D01*
X016774Y004243D01*
X016802Y004270D01*
X018377Y004270D02*
X018377Y004833D01*
X018447Y004904D01*
X018691Y004270D02*
X018691Y003810D01*
X018506Y003625D01*
X018585Y003152D02*
X019006Y003573D01*
X019006Y004270D01*
X019321Y004270D02*
X019321Y003495D01*
X018782Y002955D01*
X018782Y002203D01*
X018286Y001707D01*
X019286Y001707D02*
X019806Y002227D01*
X019806Y003014D01*
X019951Y003160D01*
X019951Y004270D01*
X019636Y004270D02*
X019636Y003278D01*
X019412Y003054D01*
X019412Y002833D01*
X019286Y002707D01*
X018310Y002731D02*
X018310Y003054D01*
X018408Y003152D01*
X018585Y003152D01*
X018310Y002731D02*
X018286Y002707D01*
X020266Y002727D02*
X020286Y002707D01*
X020266Y002727D02*
X020266Y004270D01*
X020581Y004270D02*
X020581Y003046D01*
X020810Y002817D01*
X020810Y002231D01*
X020286Y001707D01*
X021211Y003191D02*
X021191Y003211D01*
X021526Y003369D02*
X021526Y004270D01*
X021577Y004321D01*
X021577Y005534D01*
X012542Y005514D02*
X012473Y005583D01*
X011814Y005583D01*
X011814Y005839D01*
X011814Y006095D01*
X011223Y005967D02*
X010711Y005967D01*
X009609Y006095D02*
X009264Y006095D01*
X008684Y006676D01*
X009038Y006577D02*
X009038Y007188D01*
X009038Y006577D02*
X009264Y006351D01*
X009609Y006351D01*
X008851Y005839D02*
X008684Y006006D01*
X007926Y005327D02*
X007699Y005554D01*
X005782Y006420D02*
X005691Y006510D01*
X005723Y006479D01*
X007680Y004333D02*
X007906Y004560D01*
X010711Y004432D02*
X010711Y004943D01*
X010711Y005455D01*
D46*
X004363Y001995D02*
X004433Y001779D01*
X004567Y001594D01*
X004751Y001461D01*
X004967Y001390D01*
X005081Y001381D01*
X013961Y001381D01*
X013826Y001517D01*
X013826Y001667D01*
X014246Y001667D01*
X014246Y001747D01*
X013826Y001747D01*
X013826Y001898D01*
X014095Y002167D01*
X014246Y002167D01*
X014246Y001747D01*
X014326Y001747D01*
X014746Y001747D01*
X014746Y001898D01*
X014477Y002167D01*
X014326Y002167D01*
X014326Y001747D01*
X014326Y001667D01*
X014746Y001667D01*
X014746Y001517D01*
X014611Y001381D01*
X014990Y001381D01*
X014846Y001525D01*
X014846Y001889D01*
X015104Y002147D01*
X015468Y002147D01*
X015726Y001889D01*
X015726Y001525D01*
X015582Y001381D01*
X015990Y001381D01*
X015846Y001525D01*
X015846Y001889D01*
X016104Y002147D01*
X016468Y002147D01*
X016726Y001889D01*
X016726Y001525D01*
X016582Y001381D01*
X016990Y001381D01*
X016846Y001525D01*
X016846Y001889D01*
X017104Y002147D01*
X017468Y002147D01*
X017726Y001889D01*
X017726Y001525D01*
X017582Y001381D01*
X017990Y001381D01*
X017846Y001525D01*
X017846Y001889D01*
X018104Y002147D01*
X018457Y002147D01*
X018592Y002282D01*
X018592Y002391D01*
X018468Y002267D01*
X018104Y002267D01*
X017846Y002525D01*
X017846Y002889D01*
X018104Y003147D01*
X018134Y003147D01*
X018219Y003232D01*
X018068Y003232D01*
X018068Y003562D01*
X017981Y003562D01*
X017981Y003232D01*
X017796Y003232D01*
X017756Y003243D01*
X017719Y003264D01*
X017689Y003294D01*
X017672Y003324D01*
X017600Y003252D01*
X017100Y003252D01*
X016726Y002879D01*
X016726Y002525D01*
X016468Y002267D01*
X016104Y002267D01*
X015846Y002525D01*
X015846Y002889D01*
X016104Y003147D01*
X016457Y003147D01*
X016781Y003471D01*
X016781Y003737D01*
X016699Y003655D01*
X016699Y003542D01*
X016650Y003425D01*
X016561Y003335D01*
X016444Y003286D01*
X016317Y003286D01*
X016200Y003335D01*
X016111Y003425D01*
X016062Y003542D01*
X016062Y003589D01*
X015544Y003071D01*
X015726Y002889D01*
X015726Y002525D01*
X015468Y002267D01*
X015104Y002267D01*
X014846Y002525D01*
X014846Y002889D01*
X015104Y003147D01*
X015147Y003147D01*
X015147Y003211D01*
X015258Y003322D01*
X015903Y003967D01*
X015903Y004740D01*
X015740Y004740D01*
X015658Y004822D01*
X015658Y005088D01*
X015652Y005088D01*
X014934Y004370D01*
X014810Y004370D01*
X014847Y004332D01*
X014847Y004297D01*
X014864Y004314D01*
X014967Y004356D01*
X015078Y004356D01*
X015180Y004314D01*
X015259Y004235D01*
X015301Y004133D01*
X015301Y004022D01*
X015259Y003919D01*
X015180Y003841D01*
X015078Y003798D01*
X014967Y003798D01*
X014864Y003841D01*
X014847Y003858D01*
X014847Y003783D01*
X014765Y003701D01*
X014256Y003701D01*
X014176Y003781D01*
X014096Y003701D01*
X013586Y003701D01*
X013504Y003783D01*
X013504Y003858D01*
X013404Y003858D01*
X014115Y003147D01*
X014468Y003147D01*
X014726Y002889D01*
X014726Y002525D01*
X014468Y002267D01*
X014104Y002267D01*
X013846Y002525D01*
X013846Y002879D01*
X012896Y003828D01*
X012766Y003828D01*
X012720Y003782D01*
X012617Y003739D01*
X012532Y003739D01*
X012476Y003684D01*
X012365Y003572D01*
X012269Y003572D01*
X012269Y003480D01*
X012339Y003480D01*
X012901Y002918D01*
X012974Y002918D01*
X013056Y002836D01*
X013056Y002287D01*
X012974Y002205D01*
X012464Y002205D01*
X012384Y002285D01*
X012305Y002205D01*
X011976Y002205D01*
X011955Y002184D01*
X011221Y002184D01*
X011173Y002136D01*
X011203Y002119D01*
X011233Y002089D01*
X011254Y002052D01*
X011265Y002012D01*
X011265Y001873D01*
X010967Y001873D01*
X010967Y001873D01*
X010669Y001873D01*
X010669Y002012D01*
X010680Y002052D01*
X010701Y002089D01*
X010731Y002119D01*
X010761Y002136D01*
X010689Y002208D01*
X010689Y002561D01*
X010771Y002643D01*
X011163Y002643D01*
X011221Y002584D01*
X011713Y002584D01*
X011713Y002836D01*
X011795Y002918D01*
X012305Y002918D01*
X012384Y002838D01*
X012400Y002854D01*
X012174Y003080D01*
X011731Y003080D01*
X011730Y003081D01*
X011441Y003081D01*
X011359Y003163D01*
X011359Y003397D01*
X011369Y003408D01*
X011359Y003419D01*
X011359Y003653D01*
X011369Y003664D01*
X011359Y003675D01*
X011359Y003909D01*
X011369Y003920D01*
X011359Y003931D01*
X011359Y004165D01*
X011369Y004176D01*
X011359Y004187D01*
X011359Y004421D01*
X011369Y004432D01*
X011359Y004443D01*
X010064Y004443D01*
X010064Y004677D01*
X010053Y004688D01*
X010064Y004698D01*
X010064Y004933D01*
X010053Y004943D01*
X010064Y004954D01*
X010064Y005188D01*
X010053Y005199D01*
X010064Y005210D01*
X010064Y005444D01*
X010053Y005455D01*
X010064Y005466D01*
X010064Y005700D01*
X010053Y005711D01*
X010064Y005722D01*
X010064Y005956D01*
X010053Y005967D01*
X010064Y005978D01*
X010064Y006212D01*
X010053Y006223D01*
X010064Y006234D01*
X010064Y006468D01*
X010053Y006479D01*
X010064Y006490D01*
X010064Y006724D01*
X009982Y006806D01*
X009799Y006806D01*
X009799Y006851D01*
X009982Y006851D01*
X010064Y006933D01*
X010064Y007442D01*
X009982Y007524D01*
X009433Y007524D01*
X009373Y007464D01*
X009312Y007524D01*
X008763Y007524D01*
X008413Y007524D01*
X008413Y007642D02*
X012755Y007642D01*
X012755Y007524D02*
X009983Y007524D01*
X010064Y007405D02*
X012755Y007405D01*
X012755Y007287D02*
X010064Y007287D01*
X010064Y007168D02*
X012790Y007168D01*
X012755Y007203D02*
X012872Y007086D01*
X013448Y006510D01*
X013444Y006510D01*
X013376Y006499D01*
X013310Y006478D01*
X013248Y006446D01*
X013192Y006406D01*
X013143Y006357D01*
X013103Y006301D01*
X013071Y006239D01*
X013050Y006173D01*
X013039Y006105D01*
X013039Y005820D01*
X013449Y005820D01*
X013449Y005760D01*
X013039Y005760D01*
X013039Y005475D01*
X013050Y005407D01*
X013071Y005341D01*
X013103Y005279D01*
X013116Y005261D01*
X012661Y005261D01*
X012700Y005278D01*
X012778Y005356D01*
X012821Y005459D01*
X012821Y005570D01*
X012778Y005672D01*
X012700Y005751D01*
X012597Y005793D01*
X012486Y005793D01*
X012438Y005773D01*
X012269Y005773D01*
X012269Y005956D01*
X012258Y005967D01*
X012269Y005978D01*
X012269Y006212D01*
X012258Y006223D01*
X012269Y006234D01*
X012269Y006468D01*
X012268Y006469D01*
X012278Y006486D01*
X012289Y006527D01*
X012289Y006607D01*
X012289Y006687D01*
X012278Y006728D01*
X012257Y006764D01*
X012227Y006794D01*
X012190Y006815D01*
X012150Y006826D01*
X011814Y006826D01*
X011814Y006607D01*
X012289Y006607D01*
X011814Y006607D01*
X011814Y006607D01*
X011814Y006607D01*
X012217Y006607D01*
X012680Y006144D01*
X013125Y006144D01*
X013479Y005790D01*
X013509Y005820D02*
X013919Y005820D01*
X013919Y006105D01*
X013908Y006173D01*
X013887Y006239D01*
X013855Y006301D01*
X013815Y006357D01*
X013766Y006406D01*
X013710Y006446D01*
X013690Y006456D01*
X014314Y006456D01*
X014241Y006426D01*
X014123Y006308D01*
X014059Y006153D01*
X014059Y005426D01*
X014123Y005272D01*
X014133Y005261D01*
X013842Y005261D01*
X013855Y005279D01*
X013887Y005341D01*
X013908Y005407D01*
X013919Y005475D01*
X013919Y005760D01*
X013509Y005760D01*
X013509Y005820D01*
X013919Y005865D02*
X014059Y005865D01*
X014059Y005983D02*
X013919Y005983D01*
X013919Y006102D02*
X014059Y006102D01*
X014086Y006220D02*
X013893Y006220D01*
X013828Y006339D02*
X014154Y006339D01*
X013383Y006576D02*
X012289Y006576D01*
X012287Y006694D02*
X013264Y006694D01*
X013146Y006813D02*
X012194Y006813D01*
X011814Y006813D02*
X011814Y006813D01*
X011814Y006826D02*
X011478Y006826D01*
X011437Y006815D01*
X011400Y006794D01*
X011371Y006764D01*
X011349Y006728D01*
X011339Y006687D01*
X011339Y006607D01*
X011814Y006607D01*
X011814Y006826D01*
X011814Y006694D02*
X011814Y006694D01*
X011814Y006607D02*
X011814Y006607D01*
X011339Y006607D01*
X011339Y006527D01*
X011349Y006486D01*
X011359Y006469D01*
X011359Y006468D01*
X011359Y006234D01*
X011369Y006223D01*
X011359Y006212D01*
X011359Y005978D01*
X011369Y005967D01*
X011359Y005956D01*
X011359Y005722D01*
X011369Y005711D01*
X011359Y005700D01*
X011359Y005466D01*
X011369Y005455D01*
X011359Y005444D01*
X011359Y005210D01*
X011369Y005199D01*
X011359Y005188D01*
X011359Y004954D01*
X011369Y004943D01*
X011359Y004933D01*
X011359Y004698D01*
X011369Y004688D01*
X011359Y004677D01*
X011359Y004443D01*
X011359Y004561D02*
X010064Y004561D01*
X010064Y004443D02*
X010053Y004432D01*
X010064Y004421D01*
X010064Y004187D01*
X010053Y004176D01*
X010064Y004165D01*
X010064Y003931D01*
X010053Y003920D01*
X010064Y003909D01*
X010064Y003675D01*
X010053Y003664D01*
X010064Y003653D01*
X010064Y003419D01*
X010063Y003418D01*
X010073Y003401D01*
X010084Y003360D01*
X010084Y003280D01*
X009609Y003280D01*
X009609Y003280D01*
X010084Y003280D01*
X010084Y003200D01*
X010073Y003159D01*
X010052Y003123D01*
X010022Y003093D01*
X009986Y003072D01*
X009945Y003061D01*
X009609Y003061D01*
X009609Y003280D01*
X009609Y003280D01*
X009609Y003061D01*
X009273Y003061D01*
X009232Y003072D01*
X009196Y003093D01*
X009166Y003123D01*
X009145Y003159D01*
X009134Y003200D01*
X009134Y003280D01*
X009609Y003280D01*
X009609Y003280D01*
X009134Y003280D01*
X009134Y003320D01*
X009100Y003286D01*
X009100Y002792D01*
X009162Y002766D01*
X009263Y002666D01*
X009317Y002534D01*
X009317Y002428D01*
X009809Y002428D01*
X009826Y002446D02*
X009749Y002368D01*
X009377Y002368D01*
X009317Y002428D01*
X009312Y002547D02*
X010689Y002547D01*
X010689Y002428D02*
X010236Y002428D01*
X010218Y002446D02*
X009826Y002446D01*
X010218Y002446D02*
X010300Y002364D01*
X010300Y001893D01*
X010218Y001811D01*
X009826Y001811D01*
X009744Y001893D01*
X009744Y001968D01*
X009211Y001968D01*
X009094Y002085D01*
X009094Y002085D01*
X009061Y002118D01*
X009030Y002105D01*
X008888Y002105D01*
X008757Y002160D01*
X008656Y002260D01*
X008601Y002392D01*
X008601Y002534D01*
X008656Y002666D01*
X008700Y002710D01*
X008700Y003414D01*
X008629Y003385D01*
X008502Y003385D01*
X008385Y003433D01*
X008296Y003523D01*
X008247Y003640D01*
X008247Y003712D01*
X008156Y003621D01*
X006122Y003621D01*
X006131Y003598D01*
X006131Y003423D01*
X006065Y003261D01*
X005941Y003137D01*
X005779Y003070D01*
X005604Y003070D01*
X005442Y003137D01*
X005318Y003261D01*
X005251Y003423D01*
X005251Y003598D01*
X005318Y003760D01*
X005442Y003883D01*
X005604Y003950D01*
X005779Y003950D01*
X005828Y003930D01*
X005920Y004021D01*
X006516Y004021D01*
X006516Y004273D01*
X006872Y004273D01*
X006872Y004393D01*
X006516Y004393D01*
X006516Y004616D01*
X006124Y004616D01*
X006131Y004598D01*
X006131Y004423D01*
X006065Y004261D01*
X005941Y004137D01*
X005779Y004070D01*
X005604Y004070D01*
X005442Y004137D01*
X005318Y004261D01*
X005251Y004423D01*
X005251Y004598D01*
X005318Y004760D01*
X005442Y004883D01*
X005604Y004950D01*
X005779Y004950D01*
X005828Y004930D01*
X005909Y005010D01*
X005828Y005091D01*
X005779Y005070D01*
X005604Y005070D01*
X005442Y005137D01*
X005318Y005261D01*
X005251Y005423D01*
X005251Y005598D01*
X005318Y005760D01*
X005442Y005883D01*
X005604Y005950D01*
X005779Y005950D01*
X005941Y005883D01*
X006065Y005760D01*
X006131Y005598D01*
X006131Y005423D01*
X006111Y005374D01*
X006213Y005271D01*
X006535Y005271D01*
X006535Y005494D01*
X006891Y005494D01*
X006891Y005614D01*
X006891Y006009D01*
X006674Y006009D01*
X006634Y005998D01*
X006597Y005977D01*
X006567Y005947D01*
X006546Y005911D01*
X006535Y005870D01*
X006535Y005614D01*
X006891Y005614D01*
X007011Y005614D01*
X007011Y006009D01*
X007228Y006009D01*
X007269Y005998D01*
X007305Y005977D01*
X007335Y005947D01*
X007338Y005942D01*
X007385Y005989D01*
X007926Y005989D01*
X007872Y006043D01*
X005876Y006043D01*
X005828Y006091D01*
X005779Y006070D01*
X005604Y006070D01*
X005442Y006137D01*
X005318Y006261D01*
X005251Y006423D01*
X005251Y006598D01*
X005318Y006760D01*
X005442Y006883D01*
X005604Y006950D01*
X005779Y006950D01*
X005941Y006883D01*
X006065Y006760D01*
X006131Y006598D01*
X006131Y006443D01*
X007871Y006443D01*
X007853Y006486D01*
X007853Y006536D01*
X007307Y006536D01*
X007260Y006583D01*
X007257Y006578D01*
X007227Y006548D01*
X007190Y006527D01*
X007150Y006516D01*
X006950Y006516D01*
X006950Y006834D01*
X006874Y006834D01*
X006874Y006516D01*
X006674Y006516D01*
X006634Y006527D01*
X006597Y006548D01*
X006567Y006578D01*
X006546Y006614D01*
X006535Y006655D01*
X006535Y006834D01*
X006874Y006834D01*
X006874Y006911D01*
X006874Y007229D01*
X006674Y007229D01*
X006634Y007219D01*
X006597Y007197D01*
X006567Y007168D01*
X006546Y007131D01*
X006535Y007091D01*
X006535Y006911D01*
X006874Y006911D01*
X006950Y006911D01*
X006950Y007229D01*
X007150Y007229D01*
X007190Y007219D01*
X007227Y007197D01*
X007257Y007168D01*
X007260Y007162D01*
X007307Y007209D01*
X007813Y007209D01*
X007813Y007340D01*
X005652Y007340D01*
X005541Y007386D01*
X005457Y007470D01*
X005095Y007833D01*
X005074Y007882D01*
X004796Y007882D01*
X004642Y007946D01*
X004524Y008064D01*
X004460Y008218D01*
X004460Y008385D01*
X004524Y008540D01*
X004642Y008658D01*
X004796Y008722D01*
X005524Y008722D01*
X005678Y008658D01*
X005796Y008540D01*
X005860Y008385D01*
X005860Y008218D01*
X005796Y008064D01*
X005754Y008022D01*
X005835Y007940D01*
X007813Y007940D01*
X007813Y008271D01*
X007837Y008329D01*
X007835Y008330D01*
X007835Y008970D01*
X007425Y009380D01*
X007380Y009490D01*
X007380Y010006D01*
X007358Y010028D01*
X007355Y010022D01*
X007325Y009993D01*
X007289Y009972D01*
X007248Y009961D01*
X007049Y009961D01*
X007049Y010279D01*
X006972Y010279D01*
X006972Y009961D01*
X006773Y009961D01*
X006732Y009972D01*
X006696Y009993D01*
X006666Y010022D01*
X006645Y010059D01*
X006634Y010100D01*
X006634Y010279D01*
X006972Y010279D01*
X006972Y010356D01*
X006972Y010674D01*
X006804Y010674D01*
X006876Y010746D01*
X007133Y011003D01*
X007782Y011003D01*
X007899Y011120D01*
X008017Y011239D01*
X008017Y011396D01*
X008028Y011407D01*
X008175Y011407D01*
X008138Y011392D01*
X008043Y011296D01*
X007991Y011172D01*
X007991Y011053D01*
X007592Y010654D01*
X007405Y010654D01*
X007358Y010607D01*
X007355Y010613D01*
X007325Y010642D01*
X007289Y010663D01*
X007248Y010674D01*
X007049Y010674D01*
X007049Y010356D01*
X006972Y010356D01*
X006634Y010356D01*
X006634Y010535D01*
X006645Y010576D01*
X006666Y010613D01*
X006683Y010629D01*
X005950Y010629D01*
X005907Y010525D01*
X005783Y010401D01*
X005622Y010334D01*
X005446Y010334D01*
X005285Y010401D01*
X005161Y010525D01*
X005094Y010687D01*
X005094Y010862D01*
X005161Y011023D01*
X005285Y011147D01*
X005446Y011214D01*
X005622Y011214D01*
X005783Y011147D01*
X005901Y011029D01*
X006593Y011029D01*
X006784Y011220D01*
X006716Y011220D01*
X006716Y011616D01*
X006596Y011616D01*
X006240Y011616D01*
X006240Y011359D01*
X006251Y011319D01*
X006272Y011282D01*
X006302Y011252D01*
X006338Y011231D01*
X006379Y011220D01*
X006596Y011220D01*
X006596Y011616D01*
X006596Y011736D01*
X006240Y011736D01*
X006240Y011919D01*
X005961Y011919D01*
X005954Y011911D01*
X005974Y011862D01*
X005974Y011687D01*
X005907Y011525D01*
X005783Y011401D01*
X005622Y011334D01*
X005446Y011334D01*
X005285Y011401D01*
X005161Y011525D01*
X005094Y011687D01*
X005094Y011862D01*
X005161Y012023D01*
X005285Y012147D01*
X005446Y012214D01*
X005622Y012214D01*
X005671Y012194D01*
X005751Y012274D01*
X005671Y012355D01*
X005622Y012334D01*
X005446Y012334D01*
X005285Y012401D01*
X005161Y012525D01*
X005094Y012687D01*
X005094Y012862D01*
X005161Y013023D01*
X005285Y013147D01*
X005446Y013214D01*
X005622Y013214D01*
X005783Y013147D01*
X005907Y013023D01*
X005974Y012862D01*
X005974Y012687D01*
X005954Y012637D01*
X006016Y012575D01*
X006220Y012575D01*
X006220Y012757D01*
X006576Y012757D01*
X006576Y012877D01*
X006220Y012877D01*
X006220Y013134D01*
X006231Y013175D01*
X006252Y013211D01*
X006282Y013241D01*
X006319Y013262D01*
X006359Y013273D01*
X006568Y013273D01*
X006258Y013582D01*
X005931Y013582D01*
X005907Y013525D01*
X005783Y013401D01*
X005622Y013334D01*
X005446Y013334D01*
X005285Y013401D01*
X005161Y013525D01*
X005094Y013687D01*
X005094Y013862D01*
X005161Y014023D01*
X005285Y014147D01*
X005446Y014214D01*
X005622Y014214D01*
X005783Y014147D01*
X005907Y014023D01*
X005924Y013982D01*
X006424Y013982D01*
X006541Y013865D01*
X006936Y013470D01*
X007685Y013470D01*
X006795Y014360D01*
X006750Y014470D01*
X006750Y016165D01*
X006795Y016275D01*
X006880Y016359D01*
X007136Y016616D01*
X005081Y016616D01*
X004967Y016607D01*
X004751Y016536D01*
X004567Y016403D01*
X004433Y016219D01*
X004363Y016002D01*
X004354Y015888D01*
X004354Y002109D01*
X004363Y001995D01*
X004376Y001954D02*
X009744Y001954D01*
X009802Y001836D02*
X004415Y001836D01*
X004478Y001717D02*
X010674Y001717D01*
X010669Y001733D02*
X010680Y001693D01*
X010701Y001656D01*
X010731Y001626D01*
X010768Y001605D01*
X010808Y001594D01*
X010967Y001594D01*
X010967Y001873D01*
X010967Y001873D01*
X010669Y001873D01*
X010669Y001733D01*
X010669Y001836D02*
X010242Y001836D01*
X010300Y001954D02*
X010669Y001954D01*
X010692Y002073D02*
X010300Y002073D01*
X010300Y002191D02*
X010707Y002191D01*
X010689Y002310D02*
X010300Y002310D01*
X010022Y002129D02*
X009983Y002168D01*
X009294Y002168D01*
X008969Y002493D01*
X008900Y002562D01*
X008900Y003369D01*
X009067Y003536D01*
X009609Y003536D01*
X010064Y003495D02*
X011359Y003495D01*
X011359Y003613D02*
X010064Y003613D01*
X010064Y003732D02*
X011359Y003732D01*
X011359Y003850D02*
X010064Y003850D01*
X010064Y003969D02*
X011359Y003969D01*
X011359Y004087D02*
X010064Y004087D01*
X010064Y004206D02*
X011359Y004206D01*
X011359Y004324D02*
X010064Y004324D01*
X009609Y004304D02*
X008556Y004304D01*
X008073Y003821D01*
X006003Y003821D01*
X005691Y003510D01*
X005251Y003495D02*
X004354Y003495D01*
X004354Y003613D02*
X005258Y003613D01*
X005307Y003732D02*
X004354Y003732D01*
X004354Y003850D02*
X005409Y003850D01*
X005564Y004087D02*
X004354Y004087D01*
X004354Y003969D02*
X005867Y003969D01*
X005819Y004087D02*
X006516Y004087D01*
X006516Y004206D02*
X006009Y004206D01*
X006091Y004324D02*
X006872Y004324D01*
X006932Y004333D02*
X006459Y004333D01*
X006420Y004294D01*
X006516Y004443D02*
X006131Y004443D01*
X006131Y004561D02*
X006516Y004561D01*
X005997Y004816D02*
X005691Y004510D01*
X005374Y004206D02*
X004354Y004206D01*
X004354Y004324D02*
X005292Y004324D01*
X005251Y004443D02*
X004354Y004443D01*
X004354Y004561D02*
X005251Y004561D01*
X005285Y004680D02*
X004354Y004680D01*
X004354Y004798D02*
X005357Y004798D01*
X005522Y004917D02*
X004354Y004917D01*
X004354Y005035D02*
X005884Y005035D01*
X005997Y004816D02*
X009609Y004816D01*
X009609Y005071D02*
X006130Y005071D01*
X005691Y005510D01*
X005251Y005509D02*
X004354Y005509D01*
X004354Y005391D02*
X005265Y005391D01*
X005314Y005272D02*
X004354Y005272D01*
X004354Y005154D02*
X005426Y005154D01*
X005264Y005628D02*
X004354Y005628D01*
X004354Y005746D02*
X005313Y005746D01*
X005423Y005865D02*
X004354Y005865D01*
X004354Y005983D02*
X006608Y005983D01*
X006535Y005865D02*
X005960Y005865D01*
X006070Y005746D02*
X006535Y005746D01*
X006535Y005628D02*
X006119Y005628D01*
X006131Y005509D02*
X006891Y005509D01*
X006951Y005554D02*
X006892Y005613D01*
X006420Y005613D01*
X006535Y005391D02*
X006118Y005391D01*
X006213Y005272D02*
X006535Y005272D01*
X006891Y005628D02*
X007011Y005628D01*
X007011Y005746D02*
X006891Y005746D01*
X006891Y005865D02*
X007011Y005865D01*
X007011Y005983D02*
X006891Y005983D01*
X007295Y005983D02*
X007380Y005983D01*
X007955Y006243D02*
X008270Y005928D01*
X008270Y005652D01*
X008339Y005583D01*
X009609Y005583D01*
X009609Y005327D02*
X007926Y005327D01*
X008851Y005839D02*
X009609Y005839D01*
X010064Y005865D02*
X011359Y005865D01*
X011359Y005983D02*
X010064Y005983D01*
X010064Y006102D02*
X011359Y006102D01*
X011367Y006220D02*
X010056Y006220D01*
X010064Y006339D02*
X011359Y006339D01*
X011359Y006457D02*
X010064Y006457D01*
X010064Y006576D02*
X011339Y006576D01*
X011340Y006694D02*
X010064Y006694D01*
X010062Y006931D02*
X013027Y006931D01*
X012909Y007050D02*
X010064Y007050D01*
X009799Y006813D02*
X011433Y006813D01*
X012269Y006457D02*
X013270Y006457D01*
X013130Y006339D02*
X012269Y006339D01*
X012261Y006220D02*
X013065Y006220D01*
X013039Y006102D02*
X012269Y006102D01*
X012269Y005983D02*
X013039Y005983D01*
X013039Y005865D02*
X012269Y005865D01*
X012705Y005746D02*
X013039Y005746D01*
X013039Y005628D02*
X012797Y005628D01*
X012821Y005509D02*
X013039Y005509D01*
X013055Y005391D02*
X012793Y005391D01*
X012686Y005272D02*
X013108Y005272D01*
X013850Y005272D02*
X014123Y005272D01*
X014074Y005391D02*
X013903Y005391D01*
X013919Y005509D02*
X014059Y005509D01*
X014059Y005628D02*
X013919Y005628D01*
X013919Y005746D02*
X014059Y005746D01*
X014865Y006656D02*
X015282Y006239D01*
X016093Y006239D01*
X016093Y006554D02*
X015440Y006554D01*
X015396Y006597D01*
X015558Y006869D02*
X015534Y006892D01*
X013703Y006892D01*
X013191Y007404D01*
X013191Y011105D01*
X012178Y012119D01*
X011597Y012119D01*
X011607Y012365D02*
X011597Y012375D01*
X011607Y012365D02*
X012286Y012365D01*
X013408Y011243D01*
X013408Y007601D01*
X013825Y007184D01*
X016093Y007184D01*
X016528Y007168D02*
X019222Y007168D01*
X019320Y007266D02*
X017668Y005614D01*
X017668Y005614D01*
X017581Y005527D01*
X017566Y005527D01*
X017486Y005607D01*
X017369Y005656D01*
X017242Y005656D01*
X017125Y005607D01*
X017036Y005518D01*
X016987Y005401D01*
X016987Y005274D01*
X017036Y005157D01*
X017125Y005067D01*
X017161Y005052D01*
X017134Y005025D01*
X017086Y004908D01*
X017086Y004782D01*
X017117Y004706D01*
X016960Y004706D01*
X016959Y004704D01*
X016958Y004706D01*
X016645Y004706D01*
X016563Y004624D01*
X016563Y004056D01*
X016430Y003923D01*
X016317Y003923D01*
X016283Y003909D01*
X016283Y004740D01*
X016446Y004740D01*
X016528Y004822D01*
X016528Y005135D01*
X016527Y005136D01*
X016528Y005137D01*
X016528Y005450D01*
X016527Y005451D01*
X016528Y005452D01*
X016528Y005765D01*
X016527Y005766D01*
X016528Y005767D01*
X016528Y006080D01*
X016527Y006081D01*
X016528Y006082D01*
X016528Y006395D01*
X016527Y006396D01*
X016528Y006397D01*
X016528Y006710D01*
X016527Y006711D01*
X016528Y006712D01*
X016528Y007025D01*
X016527Y007026D01*
X016528Y007027D01*
X016528Y007340D01*
X016527Y007341D01*
X016528Y007342D01*
X016528Y007655D01*
X016527Y007656D01*
X016528Y007657D01*
X016528Y007970D01*
X016527Y007971D01*
X016528Y007972D01*
X016528Y008285D01*
X016527Y008286D01*
X016528Y008287D01*
X016528Y008600D01*
X016527Y008601D01*
X016528Y008602D01*
X016528Y008873D01*
X016597Y008873D01*
X016818Y009094D01*
X016935Y009211D01*
X016935Y009603D01*
X016955Y009652D01*
X016955Y009763D01*
X016912Y009865D01*
X016834Y009944D01*
X016754Y009977D01*
X016958Y009977D01*
X016959Y009978D01*
X016960Y009977D01*
X017273Y009977D01*
X017274Y009978D01*
X017275Y009977D01*
X017588Y009977D01*
X017589Y009978D01*
X017590Y009977D01*
X017903Y009977D01*
X017904Y009978D01*
X017905Y009977D01*
X018218Y009977D01*
X018219Y009978D01*
X018220Y009977D01*
X018533Y009977D01*
X018534Y009978D01*
X018535Y009977D01*
X018848Y009977D01*
X018849Y009978D01*
X018850Y009977D01*
X019163Y009977D01*
X019164Y009978D01*
X019165Y009977D01*
X019478Y009977D01*
X019479Y009978D01*
X019480Y009977D01*
X019775Y009977D01*
X019791Y009968D01*
X019832Y009957D01*
X019951Y009957D01*
X019951Y010412D01*
X019951Y010867D01*
X019832Y010867D01*
X019826Y010866D01*
X019826Y012461D01*
X020000Y012461D01*
X019987Y012453D01*
X019957Y012424D01*
X019936Y012387D01*
X019925Y012346D01*
X019925Y012162D01*
X020254Y012162D01*
X020254Y012075D01*
X019925Y012075D01*
X019925Y011891D01*
X019936Y011850D01*
X019957Y011814D01*
X019987Y011784D01*
X020017Y011766D01*
X019945Y011694D01*
X019945Y011165D01*
X020027Y011083D01*
X020108Y011083D01*
X020108Y010857D01*
X020071Y010867D01*
X019951Y010867D01*
X019951Y010412D01*
X019951Y010412D01*
X019951Y010412D01*
X019951Y009957D01*
X020071Y009957D01*
X020076Y009958D01*
X020076Y007378D01*
X019432Y007378D01*
X019320Y007266D01*
X019341Y007287D02*
X016528Y007287D01*
X016528Y007405D02*
X020076Y007405D01*
X020076Y007524D02*
X016528Y007524D01*
X016528Y007642D02*
X020076Y007642D01*
X020076Y007761D02*
X016528Y007761D01*
X016528Y007879D02*
X020076Y007879D01*
X020076Y007998D02*
X016528Y007998D01*
X016528Y008116D02*
X020076Y008116D01*
X020076Y008235D02*
X016528Y008235D01*
X016528Y008353D02*
X020076Y008353D01*
X020076Y008472D02*
X016528Y008472D01*
X016528Y008590D02*
X020076Y008590D01*
X020076Y008709D02*
X016528Y008709D01*
X016528Y008827D02*
X020076Y008827D01*
X020076Y008946D02*
X016669Y008946D01*
X016788Y009064D02*
X020076Y009064D01*
X020076Y009183D02*
X016906Y009183D01*
X016935Y009301D02*
X020076Y009301D01*
X020076Y009420D02*
X016935Y009420D01*
X016935Y009538D02*
X020076Y009538D01*
X020076Y009657D02*
X016955Y009657D01*
X016950Y009775D02*
X020076Y009775D01*
X020076Y009894D02*
X016884Y009894D01*
X016676Y009707D02*
X016735Y009648D01*
X016735Y009294D01*
X016514Y009073D01*
X016093Y009073D01*
X016093Y008758D02*
X016077Y008743D01*
X015593Y008743D01*
X015377Y008959D01*
X015357Y008959D01*
X014924Y008861D02*
X014924Y010495D01*
X015003Y010573D01*
X015003Y013920D01*
X014333Y014589D01*
X013546Y014589D01*
X012857Y015278D01*
X012857Y015526D01*
X012849Y015534D01*
X013269Y015582D02*
X013409Y015582D01*
X013409Y015564D02*
X013819Y015564D01*
X013819Y015504D01*
X013879Y015504D01*
X013879Y015564D01*
X014289Y015564D01*
X014289Y015849D01*
X014278Y015917D01*
X014257Y015983D01*
X014225Y016045D01*
X014199Y016080D01*
X015632Y016080D01*
X015562Y016011D01*
X015562Y015909D01*
X015342Y015689D01*
X015342Y015324D01*
X015600Y015066D01*
X015964Y015066D01*
X016222Y015324D01*
X016222Y015689D01*
X016105Y015806D01*
X016431Y015806D01*
X016322Y015697D01*
X016322Y015546D01*
X016742Y015546D01*
X016742Y015466D01*
X016822Y015466D01*
X016822Y015046D01*
X016973Y015046D01*
X017242Y015316D01*
X017242Y015466D01*
X016822Y015466D01*
X016822Y015546D01*
X017242Y015546D01*
X017242Y015697D01*
X017133Y015806D01*
X020600Y015806D01*
X021484Y014923D01*
X021174Y014613D01*
X021101Y014540D01*
X021061Y014444D01*
X021061Y012413D01*
X020670Y012022D01*
X020670Y012075D01*
X020341Y012075D01*
X020341Y012162D01*
X020254Y012162D01*
X020254Y012461D01*
X020336Y012461D01*
X020341Y012466D01*
X020341Y012162D01*
X020670Y012162D01*
X020670Y012346D01*
X020659Y012387D01*
X020638Y012424D01*
X020609Y012453D01*
X020572Y012474D01*
X020531Y012485D01*
X020361Y012485D01*
X020418Y012543D01*
X020418Y013279D01*
X020419Y013280D01*
X020419Y013744D01*
X020494Y013744D01*
X020576Y013826D01*
X020576Y014368D01*
X020494Y014450D01*
X019964Y014450D01*
X019892Y014378D01*
X019875Y014408D01*
X019845Y014438D01*
X019808Y014459D01*
X019768Y014470D01*
X019583Y014470D01*
X019583Y014140D01*
X019497Y014140D01*
X019497Y014054D01*
X019583Y014054D01*
X019583Y013724D01*
X019768Y013724D01*
X019808Y013735D01*
X019845Y013756D01*
X019875Y013786D01*
X019892Y013816D01*
X019964Y013744D01*
X020039Y013744D01*
X020039Y013686D01*
X019551Y013686D01*
X019469Y013604D01*
X019469Y012867D01*
X019446Y012845D01*
X019446Y012382D01*
X018961Y012867D01*
X018961Y013604D01*
X018879Y013686D01*
X018867Y013686D01*
X018867Y014014D01*
X018953Y014014D01*
X018953Y013685D01*
X019138Y013685D01*
X019178Y013696D01*
X019215Y013717D01*
X019245Y013747D01*
X019246Y013750D01*
X019271Y013735D01*
X019312Y013724D01*
X019497Y013724D01*
X019497Y014054D01*
X019173Y014054D01*
X019173Y014014D01*
X018953Y014014D01*
X018953Y014101D01*
X018867Y014101D01*
X018867Y014430D01*
X018682Y014430D01*
X018642Y014419D01*
X018605Y014398D01*
X018575Y014368D01*
X018558Y014338D01*
X018486Y014410D01*
X017956Y014410D01*
X017874Y014328D01*
X017874Y013787D01*
X017956Y013705D01*
X018031Y013705D01*
X018031Y013623D01*
X018012Y013604D01*
X018012Y013103D01*
X017940Y013175D01*
X017565Y013550D01*
X017565Y014007D01*
X017222Y014349D01*
X017222Y014689D01*
X016964Y014946D01*
X016600Y014946D01*
X016342Y014689D01*
X016342Y014438D01*
X016222Y014558D01*
X016222Y014689D01*
X015964Y014946D01*
X015600Y014946D01*
X015342Y014689D01*
X015342Y014324D01*
X015600Y014066D01*
X015964Y014066D01*
X016056Y014158D01*
X016082Y014132D01*
X016082Y013829D01*
X015964Y013946D01*
X015600Y013946D01*
X015342Y013689D01*
X015342Y013324D01*
X015412Y013254D01*
X015203Y013044D01*
X015203Y014003D01*
X014533Y014672D01*
X014416Y014789D01*
X013629Y014789D01*
X013263Y015155D01*
X013269Y015170D01*
X013269Y015898D01*
X013205Y016052D01*
X013176Y016080D01*
X013499Y016080D01*
X013473Y016045D01*
X013441Y015983D01*
X013420Y015917D01*
X013409Y015849D01*
X013409Y015564D01*
X013409Y015504D02*
X013409Y015219D01*
X013420Y015151D01*
X013441Y015085D01*
X013473Y015023D01*
X013513Y014967D01*
X013562Y014918D01*
X013618Y014878D01*
X013680Y014846D01*
X013746Y014825D01*
X013814Y014814D01*
X013819Y014814D01*
X013819Y015504D01*
X013409Y015504D01*
X013409Y015463D02*
X013269Y015463D01*
X013269Y015345D02*
X013409Y015345D01*
X013409Y015226D02*
X013269Y015226D01*
X013310Y015108D02*
X013434Y015108D01*
X013429Y014989D02*
X013498Y014989D01*
X013547Y014871D02*
X013632Y014871D01*
X013819Y014871D02*
X013879Y014871D01*
X013879Y014814D02*
X013884Y014814D01*
X013952Y014825D01*
X014018Y014846D01*
X014080Y014878D01*
X014136Y014918D01*
X014185Y014967D01*
X014225Y015023D01*
X014257Y015085D01*
X014278Y015151D01*
X014289Y015219D01*
X014289Y015504D01*
X013879Y015504D01*
X013879Y014814D01*
X013879Y014989D02*
X013819Y014989D01*
X013819Y015108D02*
X013879Y015108D01*
X013879Y015226D02*
X013819Y015226D01*
X013819Y015345D02*
X013879Y015345D01*
X013879Y015463D02*
X013819Y015463D01*
X014289Y015463D02*
X015342Y015463D01*
X015342Y015345D02*
X014289Y015345D01*
X014289Y015226D02*
X015440Y015226D01*
X015559Y015108D02*
X014264Y015108D01*
X014200Y014989D02*
X021417Y014989D01*
X021432Y014871D02*
X017040Y014871D01*
X017159Y014752D02*
X021314Y014752D01*
X021195Y014634D02*
X017222Y014634D01*
X017222Y014515D02*
X021091Y014515D01*
X021061Y014397D02*
X020547Y014397D01*
X020576Y014278D02*
X021061Y014278D01*
X021061Y014160D02*
X020576Y014160D01*
X020576Y014041D02*
X021061Y014041D01*
X021061Y013923D02*
X020576Y013923D01*
X020553Y013804D02*
X021061Y013804D01*
X021061Y013686D02*
X020419Y013686D01*
X020419Y013567D02*
X021061Y013567D01*
X021061Y013449D02*
X020419Y013449D01*
X020419Y013330D02*
X021061Y013330D01*
X021061Y013212D02*
X020418Y013212D01*
X020418Y013093D02*
X021061Y013093D01*
X021061Y012975D02*
X020418Y012975D01*
X020418Y012856D02*
X021061Y012856D01*
X021061Y012738D02*
X020418Y012738D01*
X020418Y012619D02*
X021061Y012619D01*
X021061Y012501D02*
X020376Y012501D01*
X020341Y012382D02*
X020254Y012382D01*
X020254Y012264D02*
X020341Y012264D01*
X020341Y012145D02*
X020793Y012145D01*
X020675Y012027D02*
X020670Y012027D01*
X020254Y012145D02*
X019826Y012145D01*
X019826Y012027D02*
X019925Y012027D01*
X019925Y011908D02*
X019826Y011908D01*
X019826Y011790D02*
X019981Y011790D01*
X019945Y011671D02*
X019826Y011671D01*
X019826Y011553D02*
X019945Y011553D01*
X019945Y011434D02*
X019826Y011434D01*
X019826Y011316D02*
X019945Y011316D01*
X019945Y011197D02*
X019826Y011197D01*
X019826Y011079D02*
X020108Y011079D01*
X020108Y010960D02*
X019826Y010960D01*
X019951Y010842D02*
X019951Y010842D01*
X019951Y010723D02*
X019951Y010723D01*
X019951Y010605D02*
X019951Y010605D01*
X019951Y010486D02*
X019951Y010486D01*
X019951Y010368D02*
X019951Y010368D01*
X019951Y010249D02*
X019951Y010249D01*
X019951Y010131D02*
X019951Y010131D01*
X019951Y010012D02*
X019951Y010012D01*
X020573Y009845D02*
X020790Y009629D01*
X020790Y009609D01*
X020573Y009845D02*
X020573Y010404D01*
X020581Y010412D01*
X020896Y010412D02*
X020896Y011191D01*
X023211Y013506D01*
X024943Y013506D01*
X025447Y013003D01*
X025715Y013003D01*
X025412Y013321D02*
X025260Y013472D01*
X025282Y013464D01*
X025393Y013464D01*
X025495Y013506D01*
X025574Y013585D01*
X025616Y013687D01*
X025616Y013798D01*
X025574Y013901D01*
X025537Y013937D01*
X025537Y013983D01*
X025241Y014279D01*
X025241Y014391D01*
X025159Y014473D01*
X024925Y014473D01*
X024914Y014462D01*
X024903Y014473D01*
X024830Y014473D01*
X024830Y014548D01*
X024903Y014548D01*
X024904Y014548D01*
X024921Y014538D01*
X024962Y014528D01*
X025042Y014528D01*
X025122Y014528D01*
X025163Y014538D01*
X025199Y014560D01*
X025229Y014589D01*
X025250Y014626D01*
X025261Y014666D01*
X025261Y014825D01*
X025042Y014825D01*
X025042Y014528D01*
X025042Y014825D01*
X025042Y014825D01*
X025042Y014825D01*
X025261Y014825D01*
X025261Y014984D01*
X025250Y015025D01*
X025229Y015061D01*
X025199Y015091D01*
X025163Y015112D01*
X025122Y015123D01*
X025042Y015123D01*
X025042Y014825D01*
X025042Y014825D01*
X025042Y015123D01*
X024962Y015123D01*
X024921Y015112D01*
X024904Y015102D01*
X024903Y015103D01*
X024669Y015103D01*
X024661Y015096D01*
X024650Y015100D01*
X024647Y015103D01*
X024643Y015103D01*
X024590Y015125D01*
X024470Y015125D01*
X024417Y015103D01*
X024413Y015103D01*
X024410Y015100D01*
X024360Y015080D01*
X024276Y014995D01*
X024170Y014889D01*
X023915Y014889D01*
X023915Y014953D01*
X023851Y015107D01*
X023733Y015225D01*
X023578Y015289D01*
X023411Y015289D01*
X023257Y015225D01*
X023139Y015107D01*
X023075Y014953D01*
X023075Y014226D01*
X023139Y014071D01*
X023257Y013953D01*
X023411Y013889D01*
X023578Y013889D01*
X023733Y013953D01*
X023851Y014071D01*
X023915Y014226D01*
X023915Y014289D01*
X024230Y014289D01*
X024230Y014136D01*
X024276Y014025D01*
X024360Y013941D01*
X024410Y013920D01*
X024413Y013918D01*
X024417Y013918D01*
X024470Y013895D01*
X024590Y013895D01*
X024643Y013918D01*
X024647Y013918D01*
X024650Y013920D01*
X024661Y013925D01*
X024669Y013918D01*
X024903Y013918D01*
X024914Y013929D01*
X024925Y013918D01*
X025037Y013918D01*
X025087Y013868D01*
X025058Y013798D01*
X025058Y013687D01*
X025067Y013666D01*
X025026Y013706D01*
X023128Y013706D01*
X020696Y011274D01*
X020696Y010847D01*
X020488Y010847D01*
X020488Y011083D01*
X020568Y011083D01*
X020650Y011165D01*
X020650Y011267D01*
X021469Y012085D01*
X021542Y012158D01*
X021581Y012254D01*
X021581Y014285D01*
X021842Y014545D01*
X022075Y014545D01*
X022075Y014226D01*
X022139Y014071D01*
X022257Y013953D01*
X022411Y013889D01*
X022578Y013889D01*
X022733Y013953D01*
X022851Y014071D01*
X022915Y014226D01*
X022915Y014953D01*
X022851Y015107D01*
X022795Y015163D01*
X022795Y015264D01*
X022843Y015313D01*
X025331Y015313D01*
X026618Y014025D01*
X026703Y013941D01*
X026813Y013895D01*
X029268Y013895D01*
X029645Y013519D01*
X029568Y013443D01*
X029533Y013443D01*
X029275Y013185D01*
X029275Y012820D01*
X029533Y012563D01*
X029897Y012563D01*
X030155Y012820D01*
X030155Y013008D01*
X030175Y012988D01*
X030175Y012451D01*
X030157Y012432D01*
X030157Y012250D01*
X030177Y012230D01*
X030177Y011896D01*
X030175Y011895D01*
X030175Y011963D01*
X029755Y011963D01*
X029755Y012043D01*
X029675Y012043D01*
X029675Y012463D01*
X029525Y012463D01*
X029255Y012193D01*
X029255Y012043D01*
X029675Y012043D01*
X029675Y011963D01*
X029255Y011963D01*
X029255Y011812D01*
X029525Y011543D01*
X029675Y011543D01*
X029675Y011963D01*
X029755Y011963D01*
X029755Y011543D01*
X029842Y011543D01*
X029842Y010951D01*
X029732Y011061D01*
X029368Y011061D01*
X029110Y010803D01*
X029110Y010438D01*
X029368Y010181D01*
X029732Y010181D01*
X029842Y010291D01*
X029842Y010097D01*
X029959Y009980D01*
X030123Y009816D01*
X030110Y009803D01*
X030110Y009438D01*
X030368Y009181D01*
X030732Y009181D01*
X030990Y009438D01*
X030990Y009803D01*
X030732Y010061D01*
X030444Y010061D01*
X030242Y010263D01*
X030242Y010306D01*
X030368Y010181D01*
X030732Y010181D01*
X030990Y010438D01*
X030990Y010803D01*
X030828Y010965D01*
X031950Y010965D01*
X032008Y011023D01*
X032008Y010712D01*
X032090Y010630D01*
X032302Y010630D01*
X032302Y010541D01*
X032431Y010412D01*
X033258Y009586D01*
X035468Y009586D01*
X035597Y009715D01*
X036463Y010581D01*
X036463Y016275D01*
X036334Y016404D01*
X036122Y016616D01*
X036577Y016616D01*
X036691Y016607D01*
X036908Y016536D01*
X037092Y016403D01*
X037225Y016219D01*
X037296Y016002D01*
X037305Y015888D01*
X037305Y007067D01*
X037268Y007104D01*
X037107Y007171D01*
X036332Y007171D01*
X036170Y007104D01*
X036109Y007043D01*
X036070Y007081D01*
X036101Y007099D01*
X036131Y007129D01*
X036152Y007165D01*
X036163Y007206D01*
X036163Y007390D01*
X035833Y007390D01*
X035833Y007477D01*
X035747Y007477D01*
X035747Y007800D01*
X035556Y007800D01*
X035516Y007789D01*
X035479Y007768D01*
X035449Y007739D01*
X035428Y007702D01*
X035417Y007661D01*
X035417Y007477D01*
X035747Y007477D01*
X035747Y007390D01*
X035417Y007390D01*
X035417Y007206D01*
X035428Y007165D01*
X035449Y007129D01*
X035479Y007099D01*
X035509Y007081D01*
X035437Y007009D01*
X035437Y006810D01*
X035373Y006837D01*
X035262Y006837D01*
X035159Y006794D01*
X035139Y006773D01*
X035139Y006883D01*
X035057Y006965D01*
X034678Y006965D01*
X034730Y007018D01*
X034730Y007103D01*
X034793Y007103D01*
X034875Y007185D01*
X034875Y007734D01*
X034793Y007816D01*
X034283Y007816D01*
X034203Y007736D01*
X034124Y007816D01*
X033614Y007816D01*
X033597Y007799D01*
X033592Y007804D01*
X033082Y007804D01*
X033003Y007724D01*
X032923Y007804D01*
X032868Y007804D01*
X032868Y008062D01*
X032917Y008062D01*
X033079Y008129D01*
X033202Y008252D01*
X033269Y008414D01*
X033269Y009189D01*
X033202Y009351D01*
X033079Y009475D01*
X032917Y009542D01*
X032742Y009542D01*
X032580Y009475D01*
X032456Y009351D01*
X032389Y009189D01*
X032389Y008414D01*
X032456Y008252D01*
X032468Y008241D01*
X032468Y007804D01*
X032413Y007804D01*
X032331Y007722D01*
X032331Y007173D01*
X032413Y007091D01*
X032756Y007091D01*
X033075Y006771D01*
X033075Y006438D01*
X033066Y006423D01*
X033055Y006382D01*
X033055Y006282D01*
X033055Y006182D01*
X033066Y006142D01*
X033075Y006126D01*
X033075Y005926D01*
X033066Y005911D01*
X033055Y005870D01*
X033055Y005770D01*
X033055Y005670D01*
X033066Y005630D01*
X033075Y005614D01*
X033075Y005371D01*
X033041Y005337D01*
X032626Y004922D01*
X032413Y004922D01*
X032331Y004840D01*
X032331Y004291D01*
X032413Y004209D01*
X032576Y004209D01*
X032576Y003558D01*
X032517Y003534D01*
X032393Y003410D01*
X032326Y003248D01*
X032326Y002473D01*
X032393Y002312D01*
X032517Y002188D01*
X032679Y002121D01*
X032854Y002121D01*
X033016Y002188D01*
X033139Y002312D01*
X033206Y002473D01*
X033206Y003248D01*
X033139Y003410D01*
X033016Y003534D01*
X032956Y003558D01*
X032956Y004243D01*
X033003Y004289D01*
X033082Y004209D01*
X033592Y004209D01*
X033597Y004214D01*
X033602Y004209D01*
X034112Y004209D01*
X034191Y004289D01*
X034271Y004209D01*
X034781Y004209D01*
X034863Y004291D01*
X034863Y004612D01*
X034927Y004586D01*
X035038Y004586D01*
X035141Y004628D01*
X035142Y004629D01*
X035142Y004485D01*
X035471Y004485D01*
X035471Y004398D01*
X035558Y004398D01*
X035558Y004485D01*
X035887Y004485D01*
X035887Y004669D01*
X035876Y004710D01*
X035855Y004746D01*
X035825Y004776D01*
X035795Y004794D01*
X035844Y004843D01*
X035979Y004708D01*
X035979Y004643D01*
X036046Y004482D01*
X036170Y004358D01*
X036332Y004291D01*
X037107Y004291D01*
X037268Y004358D01*
X037305Y004394D01*
X037305Y002109D01*
X037296Y001995D01*
X037225Y001779D01*
X037092Y001594D01*
X036908Y001461D01*
X036691Y001390D01*
X036577Y001381D01*
X027005Y001381D01*
X027037Y001426D01*
X027074Y001498D01*
X027099Y001575D01*
X027109Y001637D01*
X026655Y001637D01*
X026655Y001754D01*
X026539Y001754D01*
X026539Y002207D01*
X026477Y002197D01*
X026400Y002172D01*
X026327Y002135D01*
X026278Y002099D01*
X026272Y002109D01*
X026242Y002138D01*
X026206Y002159D01*
X026165Y002170D01*
X025830Y002170D01*
X025830Y001755D01*
X026086Y001755D01*
X026085Y001754D01*
X026539Y001754D01*
X026539Y001637D01*
X026085Y001637D01*
X026086Y001635D01*
X025830Y001635D01*
X025830Y001755D01*
X025710Y001755D01*
X025710Y001635D01*
X025236Y001635D01*
X024885Y001635D01*
X024885Y001755D01*
X025710Y001755D01*
X025710Y002170D01*
X025375Y002170D01*
X025334Y002159D01*
X025298Y002138D01*
X025298Y002138D01*
X025298Y002138D01*
X025261Y002159D01*
X025220Y002170D01*
X024885Y002170D01*
X024885Y001755D01*
X024765Y001755D01*
X024765Y001635D01*
X024510Y001635D01*
X024510Y001637D01*
X024057Y001637D01*
X024057Y001754D01*
X023940Y001754D01*
X023940Y001637D01*
X023487Y001637D01*
X023497Y001575D01*
X023522Y001498D01*
X023559Y001426D01*
X023591Y001381D01*
X020582Y001381D01*
X020726Y001525D01*
X020726Y001879D01*
X021000Y002152D01*
X021000Y002896D01*
X020919Y002976D01*
X020973Y002976D01*
X020973Y003306D01*
X021060Y003306D01*
X021336Y003306D01*
X021336Y003392D01*
X021060Y003392D01*
X021060Y003306D01*
X021060Y002976D01*
X021244Y002976D01*
X021285Y002987D01*
X021321Y003008D01*
X021336Y003023D01*
X021336Y002755D01*
X021300Y002718D01*
X021300Y001775D01*
X021382Y001693D01*
X022088Y001693D01*
X022170Y001775D01*
X022170Y002718D01*
X022088Y002800D01*
X021716Y002800D01*
X021716Y002996D01*
X021835Y002996D01*
X021835Y002956D01*
X021917Y002874D01*
X022458Y002874D01*
X022540Y002956D01*
X022540Y002972D01*
X022700Y002972D01*
X022700Y003291D01*
X022777Y003291D01*
X022777Y002972D01*
X022976Y002972D01*
X023017Y002983D01*
X023034Y002993D01*
X023051Y002983D01*
X023092Y002972D01*
X023291Y002972D01*
X023291Y003291D01*
X022953Y003291D01*
X022777Y003291D01*
X022777Y003368D01*
X022700Y003368D01*
X022700Y003662D01*
X022777Y003662D01*
X022777Y003368D01*
X023291Y003368D01*
X023291Y003291D01*
X023368Y003291D01*
X023368Y003368D01*
X023617Y003368D01*
X023623Y003366D01*
X023822Y003366D01*
X023822Y003685D01*
X023899Y003685D01*
X023899Y003366D01*
X024098Y003366D01*
X024139Y003377D01*
X024171Y003395D01*
X024173Y003394D01*
X024290Y003346D01*
X024399Y003346D01*
X024399Y003089D01*
X024374Y003096D01*
X024098Y003096D01*
X024098Y002720D01*
X024513Y002720D01*
X024513Y002763D01*
X024567Y002708D01*
X024567Y002435D01*
X024649Y002353D01*
X025653Y002353D01*
X025669Y002344D01*
X025710Y002333D01*
X025810Y002333D01*
X025909Y002333D01*
X025950Y002344D01*
X025987Y002365D01*
X026016Y002394D01*
X026037Y002431D01*
X026048Y002472D01*
X026048Y002758D01*
X025810Y002758D01*
X025810Y002758D01*
X025810Y002333D01*
X025810Y002758D01*
X025810Y002758D01*
X026048Y002758D01*
X026048Y003045D01*
X026037Y003086D01*
X026016Y003122D01*
X025987Y003152D01*
X025950Y003173D01*
X025909Y003184D01*
X025810Y003184D01*
X025810Y002758D01*
X025810Y002758D01*
X025810Y003184D01*
X025710Y003184D01*
X025669Y003173D01*
X025653Y003164D01*
X025498Y003164D01*
X025498Y003353D01*
X025381Y003470D01*
X025381Y003470D01*
X025301Y003550D01*
X025301Y004121D01*
X024966Y004455D01*
X024966Y004823D01*
X025061Y004823D01*
X025143Y004905D01*
X025143Y005415D01*
X025063Y005495D01*
X025143Y005574D01*
X025143Y005721D01*
X025599Y005265D01*
X025764Y005265D01*
X025774Y005275D01*
X026399Y005275D01*
X026399Y005209D01*
X026399Y005102D01*
X026410Y005061D01*
X026419Y005045D01*
X026419Y004887D01*
X026351Y004887D01*
X026105Y004641D01*
X025994Y004530D01*
X025994Y004077D01*
X026269Y003802D01*
X026381Y003690D01*
X026677Y003690D01*
X026666Y003680D01*
X026645Y003643D01*
X026634Y003602D01*
X026634Y003412D01*
X026957Y003412D01*
X026957Y003325D01*
X027044Y003325D01*
X027044Y002996D01*
X027061Y002996D01*
X027033Y002927D01*
X027033Y002957D01*
X027022Y002997D01*
X027001Y003034D01*
X026971Y003064D01*
X026957Y003071D01*
X026957Y003325D01*
X026634Y003325D01*
X026634Y003135D01*
X026644Y003096D01*
X026618Y003096D01*
X026618Y002720D01*
X027033Y002720D01*
X027033Y002787D01*
X027069Y002699D01*
X027148Y002620D01*
X027250Y002578D01*
X027361Y002578D01*
X027464Y002620D01*
X027542Y002699D01*
X027585Y002801D01*
X027585Y002912D01*
X027565Y002961D01*
X027620Y003016D01*
X027759Y003016D01*
X027784Y002991D01*
X027873Y002991D01*
X027865Y002978D01*
X027854Y002937D01*
X027854Y002817D01*
X027854Y002698D01*
X027865Y002657D01*
X027886Y002621D01*
X027891Y002616D01*
X027874Y002600D01*
X027874Y002287D01*
X027956Y002205D01*
X028269Y002205D01*
X028308Y002243D01*
X028333Y002243D01*
X028706Y002617D01*
X028706Y003077D01*
X028589Y003195D01*
X028392Y003391D01*
X028308Y003391D01*
X028269Y003430D01*
X028036Y003430D01*
X028036Y003639D01*
X027985Y003690D01*
X029075Y003690D01*
X029075Y003510D01*
X029398Y003510D01*
X029398Y003424D01*
X029181Y003424D01*
X029175Y003430D01*
X028862Y003430D01*
X028780Y003348D01*
X028780Y003035D01*
X028862Y002953D01*
X028915Y002953D01*
X028936Y002931D01*
X029054Y002814D01*
X029390Y002814D01*
X029390Y002643D01*
X029213Y002643D01*
X029175Y002682D01*
X028862Y002682D01*
X028780Y002600D01*
X028780Y002287D01*
X028862Y002205D01*
X029175Y002205D01*
X029213Y002243D01*
X029662Y002243D01*
X029667Y002248D01*
X030001Y002248D01*
X030074Y002320D01*
X030091Y002290D01*
X030121Y002260D01*
X030157Y002239D01*
X030198Y002228D01*
X030382Y002228D01*
X030382Y002558D01*
X030469Y002558D01*
X030469Y002644D01*
X030792Y002644D01*
X030792Y002835D01*
X030782Y002875D01*
X030760Y002912D01*
X030731Y002942D01*
X030694Y002963D01*
X030654Y002974D01*
X030469Y002974D01*
X030469Y002644D01*
X030382Y002644D01*
X030382Y002974D01*
X030198Y002974D01*
X030157Y002963D01*
X030121Y002942D01*
X030091Y002912D01*
X030074Y002881D01*
X030001Y002954D01*
X029900Y002954D01*
X030061Y003114D01*
X030395Y003114D01*
X030477Y003196D01*
X030477Y003305D01*
X030537Y003365D01*
X030617Y003444D01*
X030668Y003444D01*
X030771Y003486D01*
X030849Y003565D01*
X030892Y003667D01*
X030892Y003778D01*
X030865Y003843D01*
X030921Y003843D01*
X030962Y003853D01*
X030998Y003874D01*
X031028Y003904D01*
X031049Y003941D01*
X031060Y003981D01*
X031060Y004161D01*
X030722Y004161D01*
X030722Y004238D01*
X030928Y004238D01*
X030976Y004189D01*
X031486Y004189D01*
X031566Y004269D01*
X031576Y004258D01*
X031576Y003558D01*
X031517Y003534D01*
X031393Y003410D01*
X031326Y003248D01*
X031326Y002473D01*
X031393Y002312D01*
X031517Y002188D01*
X031679Y002121D01*
X031854Y002121D01*
X032016Y002188D01*
X032139Y002312D01*
X032206Y002473D01*
X032206Y003248D01*
X032139Y003410D01*
X032016Y003534D01*
X031956Y003558D01*
X031956Y004189D01*
X032155Y004189D01*
X032237Y004271D01*
X032237Y004820D01*
X032155Y004902D01*
X031812Y004902D01*
X031583Y005131D01*
X031583Y005580D01*
X031873Y005580D01*
X032105Y005348D01*
X032105Y005282D01*
X032148Y005179D01*
X032226Y005101D01*
X032329Y005058D01*
X032440Y005058D01*
X032542Y005101D01*
X032621Y005179D01*
X032663Y005282D01*
X032663Y005393D01*
X032621Y005495D01*
X032542Y005574D01*
X032440Y005616D01*
X032374Y005616D01*
X032154Y005836D01*
X032274Y005836D01*
X032286Y005809D01*
X032364Y005731D01*
X032467Y005688D01*
X032578Y005688D01*
X032680Y005731D01*
X032759Y005809D01*
X032801Y005912D01*
X032801Y006023D01*
X032759Y006125D01*
X032680Y006204D01*
X032580Y006245D01*
X032621Y006262D01*
X032700Y006341D01*
X032742Y006443D01*
X032742Y006554D01*
X032700Y006657D01*
X032621Y006735D01*
X032519Y006778D01*
X032408Y006778D01*
X032305Y006735D01*
X032227Y006657D01*
X032184Y006554D01*
X032184Y006488D01*
X032168Y006472D01*
X031583Y006472D01*
X031583Y006748D01*
X031814Y006978D01*
X031925Y007089D01*
X031925Y007130D01*
X032108Y007130D01*
X032190Y007212D01*
X032190Y007761D01*
X032108Y007843D01*
X032053Y007843D01*
X032053Y008118D01*
X032079Y008129D01*
X032202Y008252D01*
X032269Y008414D01*
X032269Y009189D01*
X032202Y009351D01*
X032079Y009475D01*
X031917Y009542D01*
X031742Y009542D01*
X031580Y009475D01*
X031456Y009351D01*
X031389Y009189D01*
X031389Y008414D01*
X031456Y008252D01*
X031580Y008129D01*
X031653Y008099D01*
X031653Y007843D01*
X031598Y007843D01*
X031518Y007764D01*
X031438Y007843D01*
X031040Y007843D01*
X031044Y007859D01*
X031044Y008039D01*
X030706Y008039D01*
X030706Y008116D01*
X030629Y008116D01*
X030629Y008039D01*
X030291Y008039D01*
X030291Y007859D01*
X030302Y007819D01*
X030323Y007782D01*
X030353Y007752D01*
X030383Y007735D01*
X030311Y007663D01*
X030311Y007521D01*
X029996Y007837D01*
X029884Y007948D01*
X026650Y007948D01*
X026679Y008018D01*
X026679Y008129D01*
X026637Y008231D01*
X026558Y008310D01*
X026456Y008352D01*
X026345Y008352D01*
X026296Y008332D01*
X026258Y008332D01*
X026225Y008299D01*
X026225Y008329D01*
X026235Y008367D01*
X026235Y008606D01*
X025937Y008606D01*
X025937Y008643D01*
X026235Y008643D01*
X026235Y008882D01*
X026224Y008923D01*
X026203Y008959D01*
X026174Y008989D01*
X026137Y009010D01*
X026096Y009021D01*
X025937Y009021D01*
X025937Y008643D01*
X025899Y008643D01*
X025899Y008606D01*
X025600Y008606D01*
X025600Y008430D01*
X025594Y008430D01*
X025512Y008348D01*
X025512Y008083D01*
X025432Y008116D01*
X025321Y008116D01*
X025218Y008074D01*
X025182Y008037D01*
X025097Y008037D01*
X024867Y007808D01*
X024117Y008558D01*
X024165Y008558D01*
X024195Y008486D01*
X024274Y008408D01*
X024376Y008365D01*
X024487Y008365D01*
X024590Y008408D01*
X024668Y008486D01*
X024711Y008589D01*
X024711Y008700D01*
X024668Y008802D01*
X024590Y008881D01*
X024487Y008923D01*
X024435Y008923D01*
X024400Y008958D01*
X024291Y008958D01*
X024317Y009022D01*
X024317Y009086D01*
X024428Y008976D01*
X025577Y008976D01*
X025695Y009093D01*
X026118Y009516D01*
X026118Y009626D01*
X026133Y009626D01*
X026215Y009708D01*
X026215Y009803D01*
X026284Y009803D01*
X026259Y009743D01*
X026259Y009632D01*
X026301Y009529D01*
X026380Y009451D01*
X026482Y009409D01*
X026593Y009409D01*
X026696Y009451D01*
X026775Y009529D01*
X026817Y009632D01*
X026817Y009743D01*
X026792Y009803D01*
X027372Y009803D01*
X027372Y009708D01*
X027454Y009626D01*
X027885Y009626D01*
X027904Y009645D01*
X028117Y009645D01*
X028132Y009661D01*
X028510Y009661D01*
X028510Y010038D01*
X028652Y010181D01*
X028732Y010181D01*
X028990Y010438D01*
X028990Y010803D01*
X028732Y011061D01*
X028368Y011061D01*
X028110Y010803D01*
X028110Y010438D01*
X028227Y010321D01*
X027967Y010061D01*
X027967Y010297D01*
X027885Y010379D01*
X027454Y010379D01*
X027372Y010297D01*
X027372Y010203D01*
X026215Y010203D01*
X026215Y010236D01*
X026995Y010236D01*
X027605Y010846D01*
X028058Y010846D01*
X028175Y010963D01*
X028774Y011563D01*
X028897Y011563D01*
X029155Y011820D01*
X029155Y012185D01*
X028897Y012443D01*
X028533Y012443D01*
X028431Y012341D01*
X028431Y012597D01*
X028465Y012631D01*
X028533Y012563D01*
X028897Y012563D01*
X029155Y012820D01*
X029155Y013185D01*
X028897Y013443D01*
X028533Y013443D01*
X028275Y013185D01*
X028275Y013007D01*
X028155Y012887D01*
X028155Y013185D01*
X027897Y013443D01*
X027533Y013443D01*
X027275Y013185D01*
X027275Y012845D01*
X027164Y012734D01*
X027047Y012617D01*
X027047Y012293D01*
X026897Y012443D01*
X026533Y012443D01*
X026423Y012333D01*
X026423Y012400D01*
X026586Y012563D01*
X026897Y012563D01*
X027155Y012820D01*
X027155Y013185D01*
X026897Y013443D01*
X026533Y013443D01*
X026275Y013185D01*
X026275Y012820D01*
X026276Y012819D01*
X026140Y012683D01*
X026023Y012566D01*
X026023Y012317D01*
X025897Y012443D01*
X025558Y012443D01*
X025259Y012742D01*
X025077Y012742D01*
X025155Y012820D01*
X025155Y013012D01*
X025275Y012892D01*
X025275Y012820D01*
X025533Y012563D01*
X025897Y012563D01*
X026155Y012820D01*
X026155Y013185D01*
X025897Y013443D01*
X025533Y013443D01*
X025412Y013321D01*
X025403Y013330D02*
X025420Y013330D01*
X025284Y013449D02*
X029574Y013449D01*
X029596Y013567D02*
X025556Y013567D01*
X025616Y013686D02*
X029478Y013686D01*
X029359Y013804D02*
X025614Y013804D01*
X025552Y013923D02*
X026747Y013923D01*
X026603Y014041D02*
X025479Y014041D01*
X025361Y014160D02*
X026484Y014160D01*
X026366Y014278D02*
X025242Y014278D01*
X025236Y014397D02*
X026247Y014397D01*
X026129Y014515D02*
X024830Y014515D01*
X025042Y014634D02*
X025042Y014634D01*
X025042Y014752D02*
X025042Y014752D01*
X025042Y014871D02*
X025042Y014871D01*
X025042Y014989D02*
X025042Y014989D01*
X025042Y015108D02*
X025042Y015108D01*
X025171Y015108D02*
X025536Y015108D01*
X025418Y015226D02*
X023730Y015226D01*
X023850Y015108D02*
X024428Y015108D01*
X024276Y014995D02*
X024276Y014995D01*
X024270Y014989D02*
X023900Y014989D01*
X024633Y015108D02*
X024913Y015108D01*
X025260Y014989D02*
X025655Y014989D01*
X025773Y014871D02*
X025261Y014871D01*
X025261Y014752D02*
X025892Y014752D01*
X026010Y014634D02*
X025252Y014634D01*
X024230Y014278D02*
X023915Y014278D01*
X023887Y014160D02*
X024230Y014160D01*
X024269Y014041D02*
X023821Y014041D01*
X023659Y013923D02*
X024405Y013923D01*
X024655Y013923D02*
X024664Y013923D01*
X024908Y013923D02*
X024920Y013923D01*
X025061Y013804D02*
X021581Y013804D01*
X021581Y013686D02*
X023107Y013686D01*
X022989Y013567D02*
X021581Y013567D01*
X021581Y013449D02*
X022870Y013449D01*
X022752Y013330D02*
X021581Y013330D01*
X021581Y013212D02*
X022633Y013212D01*
X022515Y013093D02*
X021581Y013093D01*
X021581Y012975D02*
X022396Y012975D01*
X022278Y012856D02*
X021581Y012856D01*
X021581Y012738D02*
X022159Y012738D01*
X022041Y012619D02*
X021581Y012619D01*
X021581Y012501D02*
X021922Y012501D01*
X021804Y012382D02*
X021581Y012382D01*
X021581Y012264D02*
X021685Y012264D01*
X021567Y012145D02*
X021529Y012145D01*
X021448Y012027D02*
X021410Y012027D01*
X021330Y011908D02*
X021292Y011908D01*
X021211Y011790D02*
X021173Y011790D01*
X021093Y011671D02*
X021055Y011671D01*
X020974Y011553D02*
X020936Y011553D01*
X020856Y011434D02*
X020818Y011434D01*
X020737Y011316D02*
X020699Y011316D01*
X020696Y011197D02*
X020650Y011197D01*
X020696Y011079D02*
X020488Y011079D01*
X020488Y010960D02*
X020696Y010960D01*
X021211Y010955D02*
X022798Y012542D01*
X025176Y012542D01*
X025715Y012003D01*
X026223Y011794D02*
X025869Y011440D01*
X022554Y011440D01*
X021526Y010412D01*
X021211Y010412D02*
X021211Y010955D01*
X022235Y010325D02*
X023113Y011203D01*
X026164Y011203D01*
X026715Y011754D01*
X026715Y012003D01*
X026223Y011794D02*
X026223Y012483D01*
X026715Y012975D01*
X026715Y013003D01*
X026420Y013330D02*
X026010Y013330D01*
X026128Y013212D02*
X026302Y013212D01*
X026275Y013093D02*
X026155Y013093D01*
X026155Y012975D02*
X026275Y012975D01*
X026275Y012856D02*
X026155Y012856D01*
X026195Y012738D02*
X026072Y012738D01*
X026140Y012683D02*
X026140Y012683D01*
X026076Y012619D02*
X025954Y012619D01*
X026023Y012501D02*
X025500Y012501D01*
X025476Y012619D02*
X025381Y012619D01*
X025358Y012738D02*
X025263Y012738D01*
X025275Y012856D02*
X025155Y012856D01*
X025155Y012975D02*
X025192Y012975D01*
X025059Y013686D02*
X025047Y013686D01*
X025337Y013743D02*
X025337Y013900D01*
X025042Y014195D01*
X023330Y013923D02*
X022659Y013923D01*
X022821Y014041D02*
X023169Y014041D01*
X023102Y014160D02*
X022887Y014160D01*
X022915Y014278D02*
X023075Y014278D01*
X023075Y014397D02*
X022915Y014397D01*
X022915Y014515D02*
X023075Y014515D01*
X023075Y014634D02*
X022915Y014634D01*
X022915Y014752D02*
X023075Y014752D01*
X023075Y014871D02*
X022915Y014871D01*
X022900Y014989D02*
X023090Y014989D01*
X023139Y015108D02*
X022850Y015108D01*
X022795Y015226D02*
X023259Y015226D01*
X022465Y015783D02*
X022240Y015558D01*
X022195Y015448D01*
X022195Y015163D01*
X022177Y015145D01*
X021884Y015145D01*
X020948Y016080D01*
X028933Y016080D01*
X029458Y015556D01*
X029413Y015556D01*
X029331Y015474D01*
X029331Y014807D01*
X029413Y014725D01*
X030710Y014725D01*
X030792Y014807D01*
X030792Y015004D01*
X032081Y015004D01*
X032057Y014980D01*
X032057Y014628D01*
X032139Y014546D01*
X032203Y014546D01*
X032203Y014231D01*
X032185Y014214D01*
X032185Y013232D01*
X032267Y013150D01*
X032380Y013150D01*
X032380Y013112D01*
X032425Y013002D01*
X032799Y012628D01*
X032884Y012543D01*
X032994Y012498D01*
X035095Y012498D01*
X035273Y012319D01*
X035273Y012170D01*
X035161Y012170D01*
X035079Y012088D01*
X035079Y010712D01*
X035161Y010630D01*
X035890Y010630D01*
X035285Y010026D01*
X033440Y010026D01*
X032836Y010630D01*
X032994Y010630D01*
X033076Y010712D01*
X033076Y012088D01*
X032994Y012170D01*
X032090Y012170D01*
X032032Y012112D01*
X032032Y012167D01*
X031950Y012249D01*
X031143Y012249D01*
X030775Y012617D01*
X030775Y013172D01*
X030729Y013283D01*
X030645Y013367D01*
X030182Y013830D01*
X029562Y014450D01*
X029452Y014495D01*
X026997Y014495D01*
X025625Y015867D01*
X025515Y015913D01*
X022659Y015913D01*
X022549Y015867D01*
X022465Y015783D01*
X022501Y015819D02*
X021210Y015819D01*
X021092Y015937D02*
X029077Y015937D01*
X029195Y015819D02*
X025674Y015819D01*
X025792Y015700D02*
X029314Y015700D01*
X029432Y015582D02*
X025911Y015582D01*
X026029Y015463D02*
X027428Y015463D01*
X027432Y015478D02*
X027421Y015437D01*
X027421Y015200D01*
X028112Y015200D01*
X028112Y015080D01*
X028232Y015080D01*
X028232Y014705D01*
X028783Y014705D01*
X028824Y014716D01*
X028861Y014737D01*
X028890Y014766D01*
X028911Y014803D01*
X028922Y014844D01*
X028922Y015080D01*
X028232Y015080D01*
X028232Y015200D01*
X028922Y015200D01*
X028922Y015437D01*
X028911Y015478D01*
X028890Y015514D01*
X028861Y015544D01*
X028824Y015565D01*
X028783Y015576D01*
X028232Y015576D01*
X028232Y015200D01*
X028112Y015200D01*
X028112Y015576D01*
X027560Y015576D01*
X027520Y015565D01*
X027483Y015544D01*
X027453Y015514D01*
X027432Y015478D01*
X027421Y015345D02*
X026148Y015345D01*
X026266Y015226D02*
X027421Y015226D01*
X027421Y015080D02*
X027421Y014844D01*
X027432Y014803D01*
X027453Y014766D01*
X027483Y014737D01*
X027520Y014716D01*
X027560Y014705D01*
X028112Y014705D01*
X028112Y015080D01*
X027421Y015080D01*
X027421Y014989D02*
X026503Y014989D01*
X026385Y015108D02*
X028112Y015108D01*
X028112Y015226D02*
X028232Y015226D01*
X028232Y015108D02*
X029331Y015108D01*
X029331Y015226D02*
X028922Y015226D01*
X028922Y015345D02*
X029331Y015345D01*
X029331Y015463D02*
X028915Y015463D01*
X028922Y014989D02*
X029331Y014989D01*
X029331Y014871D02*
X028922Y014871D01*
X028876Y014752D02*
X029386Y014752D01*
X029615Y014397D02*
X030669Y014397D01*
X030669Y014515D02*
X026977Y014515D01*
X026859Y014634D02*
X030670Y014634D01*
X030669Y014630D02*
X030669Y014167D01*
X031301Y014167D01*
X031301Y014769D01*
X030808Y014769D01*
X030768Y014758D01*
X030731Y014737D01*
X030701Y014707D01*
X030680Y014671D01*
X030669Y014630D01*
X030737Y014752D02*
X030757Y014752D01*
X030792Y014871D02*
X032057Y014871D01*
X032067Y014989D02*
X030792Y014989D01*
X031301Y014752D02*
X031421Y014752D01*
X031421Y014769D02*
X031421Y014167D01*
X032052Y014167D01*
X032052Y014630D01*
X032041Y014671D01*
X032020Y014707D01*
X031991Y014737D01*
X031954Y014758D01*
X031913Y014769D01*
X031421Y014769D01*
X031421Y014634D02*
X031301Y014634D01*
X031301Y014515D02*
X031421Y014515D01*
X031421Y014397D02*
X031301Y014397D01*
X031301Y014278D02*
X031421Y014278D01*
X031421Y014167D02*
X031301Y014167D01*
X031301Y014047D01*
X031421Y014047D01*
X031421Y014167D01*
X031421Y014160D02*
X032185Y014160D01*
X032185Y014041D02*
X032052Y014041D01*
X032052Y014047D02*
X032052Y013584D01*
X032041Y013543D01*
X032020Y013507D01*
X031991Y013477D01*
X031954Y013456D01*
X031913Y013445D01*
X031421Y013445D01*
X031421Y014047D01*
X032052Y014047D01*
X032052Y013923D02*
X032185Y013923D01*
X032185Y013804D02*
X032052Y013804D01*
X032052Y013686D02*
X032185Y013686D01*
X032185Y013567D02*
X032048Y013567D01*
X031927Y013449D02*
X032185Y013449D01*
X032185Y013330D02*
X030682Y013330D01*
X030759Y013212D02*
X032206Y013212D01*
X032388Y013093D02*
X030775Y013093D01*
X030775Y012975D02*
X032453Y012975D01*
X032571Y012856D02*
X030775Y012856D01*
X030775Y012738D02*
X032690Y012738D01*
X032808Y012619D02*
X030775Y012619D01*
X030891Y012501D02*
X032987Y012501D01*
X033019Y012145D02*
X035136Y012145D01*
X035079Y012027D02*
X033076Y012027D01*
X033076Y011908D02*
X035079Y011908D01*
X035079Y011790D02*
X033076Y011790D01*
X033076Y011671D02*
X035079Y011671D01*
X035079Y011553D02*
X033076Y011553D01*
X033076Y011434D02*
X035079Y011434D01*
X035079Y011316D02*
X033076Y011316D01*
X033076Y011197D02*
X035079Y011197D01*
X035079Y011079D02*
X033076Y011079D01*
X033076Y010960D02*
X035079Y010960D01*
X035079Y010842D02*
X033076Y010842D01*
X033076Y010723D02*
X035079Y010723D01*
X035509Y010249D02*
X033217Y010249D01*
X033335Y010131D02*
X035390Y010131D01*
X035627Y010368D02*
X033098Y010368D01*
X032980Y010486D02*
X035746Y010486D01*
X035864Y010605D02*
X032861Y010605D01*
X032357Y010486D02*
X030990Y010486D01*
X030990Y010605D02*
X032302Y010605D01*
X032008Y010723D02*
X030990Y010723D01*
X030951Y010842D02*
X032008Y010842D01*
X032008Y010960D02*
X030833Y010960D01*
X029842Y010960D02*
X029833Y010960D01*
X029842Y011079D02*
X028291Y011079D01*
X028267Y010960D02*
X028172Y010960D01*
X028148Y010842D02*
X027601Y010842D01*
X027482Y010723D02*
X028110Y010723D01*
X028110Y010605D02*
X027364Y010605D01*
X027245Y010486D02*
X028110Y010486D01*
X028181Y010368D02*
X027896Y010368D01*
X027967Y010249D02*
X028155Y010249D01*
X028037Y010131D02*
X027967Y010131D01*
X028034Y009845D02*
X028550Y010361D01*
X028550Y010621D01*
X028990Y010605D02*
X029110Y010605D01*
X029110Y010723D02*
X028990Y010723D01*
X028951Y010842D02*
X029148Y010842D01*
X029267Y010960D02*
X028833Y010960D01*
X029018Y011306D02*
X029715Y012003D01*
X029675Y012027D02*
X029155Y012027D01*
X029155Y012145D02*
X029255Y012145D01*
X029326Y012264D02*
X029076Y012264D01*
X028958Y012382D02*
X029444Y012382D01*
X029675Y012382D02*
X029755Y012382D01*
X029755Y012463D02*
X029755Y012043D01*
X030175Y012043D01*
X030175Y012193D01*
X029906Y012463D01*
X029755Y012463D01*
X029755Y012264D02*
X029675Y012264D01*
X029675Y012145D02*
X029755Y012145D01*
X029755Y012027D02*
X030177Y012027D01*
X030175Y012145D02*
X030177Y012145D01*
X030157Y012264D02*
X030105Y012264D01*
X030157Y012382D02*
X029986Y012382D01*
X030175Y012501D02*
X028431Y012501D01*
X028431Y012382D02*
X028472Y012382D01*
X028453Y012619D02*
X028476Y012619D01*
X028231Y012680D02*
X028231Y011715D01*
X027916Y011400D01*
X027443Y011400D01*
X026774Y010731D01*
X025495Y010731D01*
X025160Y010396D01*
X025022Y010396D01*
X024707Y010081D01*
X024707Y009747D01*
X024865Y009589D01*
X025337Y009609D02*
X025337Y010180D01*
X025593Y010436D01*
X026912Y010436D01*
X027522Y011046D01*
X027975Y011046D01*
X028715Y011786D01*
X028715Y012003D01*
X029155Y011908D02*
X029255Y011908D01*
X029278Y011790D02*
X029124Y011790D01*
X029006Y011671D02*
X029396Y011671D01*
X029515Y011553D02*
X028765Y011553D01*
X028646Y011434D02*
X029842Y011434D01*
X029842Y011316D02*
X028528Y011316D01*
X028409Y011197D02*
X029842Y011197D01*
X030042Y011479D02*
X030377Y011814D01*
X030377Y012341D01*
X031010Y012382D02*
X035210Y012382D01*
X035273Y012264D02*
X031128Y012264D01*
X032032Y012145D02*
X032065Y012145D01*
X030177Y011908D02*
X030175Y011908D01*
X029755Y011908D02*
X029675Y011908D01*
X029675Y011790D02*
X029755Y011790D01*
X029755Y011671D02*
X029675Y011671D01*
X029675Y011553D02*
X029755Y011553D01*
X030042Y011479D02*
X030042Y010180D01*
X030550Y009672D01*
X030550Y009621D01*
X030990Y009657D02*
X033187Y009657D01*
X033068Y009775D02*
X030990Y009775D01*
X030899Y009894D02*
X032950Y009894D01*
X032831Y010012D02*
X030781Y010012D01*
X030374Y010131D02*
X032713Y010131D01*
X032594Y010249D02*
X030800Y010249D01*
X030919Y010368D02*
X032476Y010368D01*
X032733Y009538D02*
X031926Y009538D01*
X031733Y009538D02*
X030990Y009538D01*
X030971Y009420D02*
X031525Y009420D01*
X031436Y009301D02*
X030852Y009301D01*
X030734Y009183D02*
X031389Y009183D01*
X031389Y009064D02*
X025666Y009064D01*
X025699Y009010D02*
X025662Y008989D01*
X025632Y008959D01*
X025611Y008923D01*
X025600Y008882D01*
X025600Y008643D01*
X025899Y008643D01*
X025899Y009021D01*
X025739Y009021D01*
X025699Y009010D01*
X025625Y008946D02*
X024413Y008946D01*
X024339Y009064D02*
X024317Y009064D01*
X024510Y009176D02*
X023861Y009825D01*
X024510Y009176D02*
X025495Y009176D01*
X025918Y009599D01*
X025918Y010003D01*
X026538Y010003D01*
X026538Y009688D01*
X026804Y009775D02*
X027372Y009775D01*
X027424Y009657D02*
X026817Y009657D01*
X026778Y009538D02*
X028097Y009538D01*
X028101Y009513D02*
X028123Y009444D01*
X028156Y009380D01*
X028199Y009321D01*
X028250Y009270D01*
X028309Y009227D01*
X028373Y009194D01*
X028442Y009172D01*
X028510Y009161D01*
X028510Y009581D01*
X028090Y009581D01*
X028101Y009513D01*
X028136Y009420D02*
X026620Y009420D01*
X026456Y009420D02*
X026021Y009420D01*
X026118Y009538D02*
X026298Y009538D01*
X026259Y009657D02*
X026164Y009657D01*
X026215Y009775D02*
X026272Y009775D01*
X026538Y010003D02*
X027670Y010003D01*
X027827Y009845D01*
X028034Y009845D01*
X028128Y009657D02*
X028510Y009657D01*
X028510Y009661D02*
X028510Y009581D01*
X028590Y009581D01*
X028590Y009661D01*
X028510Y009661D01*
X028550Y009652D02*
X029018Y010121D01*
X029018Y011306D01*
X028990Y010486D02*
X029110Y010486D01*
X029181Y010368D02*
X028919Y010368D01*
X028800Y010249D02*
X029299Y010249D01*
X029368Y010061D02*
X029110Y009803D01*
X029110Y009438D01*
X029368Y009181D01*
X029732Y009181D01*
X029990Y009438D01*
X029990Y009803D01*
X029732Y010061D01*
X029368Y010061D01*
X029319Y010012D02*
X028794Y010012D01*
X028791Y010014D02*
X028726Y010047D01*
X028657Y010069D01*
X028590Y010080D01*
X028590Y009661D01*
X029009Y009661D01*
X028998Y009728D01*
X028976Y009797D01*
X028943Y009862D01*
X028901Y009920D01*
X028849Y009971D01*
X028791Y010014D01*
X028920Y009894D02*
X029200Y009894D01*
X029110Y009775D02*
X028983Y009775D01*
X029110Y009657D02*
X028590Y009657D01*
X028550Y009652D02*
X028550Y009621D01*
X028590Y009581D02*
X029009Y009581D01*
X028998Y009513D01*
X028976Y009444D01*
X028943Y009380D01*
X028901Y009321D01*
X028849Y009270D01*
X028791Y009227D01*
X028726Y009194D01*
X028657Y009172D01*
X028590Y009161D01*
X028590Y009581D01*
X028590Y009538D02*
X028510Y009538D01*
X028510Y009420D02*
X028590Y009420D01*
X028590Y009301D02*
X028510Y009301D01*
X028510Y009183D02*
X028590Y009183D01*
X028690Y009183D02*
X029366Y009183D01*
X029247Y009301D02*
X028881Y009301D01*
X028964Y009420D02*
X029129Y009420D01*
X029110Y009538D02*
X029002Y009538D01*
X028590Y009775D02*
X028510Y009775D01*
X028510Y009894D02*
X028590Y009894D01*
X028590Y010012D02*
X028510Y010012D01*
X028602Y010131D02*
X029842Y010131D01*
X029842Y010249D02*
X029800Y010249D01*
X030255Y010249D02*
X030299Y010249D01*
X030045Y009894D02*
X029899Y009894D01*
X029927Y010012D02*
X029781Y010012D01*
X029990Y009775D02*
X030110Y009775D01*
X030110Y009657D02*
X029990Y009657D01*
X029990Y009538D02*
X030110Y009538D01*
X030129Y009420D02*
X029971Y009420D01*
X029852Y009301D02*
X030247Y009301D01*
X030366Y009183D02*
X029734Y009183D01*
X028409Y009183D02*
X025784Y009183D01*
X025903Y009301D02*
X028219Y009301D01*
X027926Y008989D02*
X027889Y009010D01*
X027848Y009021D01*
X027689Y009021D01*
X027689Y008643D01*
X027987Y008643D01*
X027987Y008882D01*
X027976Y008923D01*
X027955Y008959D01*
X027926Y008989D01*
X027963Y008946D02*
X031389Y008946D01*
X031389Y008827D02*
X027987Y008827D01*
X027987Y008709D02*
X031389Y008709D01*
X031389Y008590D02*
X027987Y008590D01*
X027987Y008606D02*
X027689Y008606D01*
X027689Y008643D01*
X027651Y008643D01*
X027651Y008606D01*
X027352Y008606D01*
X027352Y008367D01*
X027363Y008327D01*
X027384Y008290D01*
X027414Y008260D01*
X027451Y008239D01*
X027491Y008228D01*
X027651Y008228D01*
X027651Y008606D01*
X027689Y008606D01*
X027689Y008228D01*
X027848Y008228D01*
X027889Y008239D01*
X027926Y008260D01*
X027955Y008290D01*
X027976Y008327D01*
X027987Y008367D01*
X027987Y008606D01*
X027955Y008625D02*
X028034Y008546D01*
X027987Y008472D02*
X031389Y008472D01*
X031415Y008353D02*
X031024Y008353D01*
X031034Y008336D02*
X031012Y008372D01*
X030983Y008402D01*
X030946Y008423D01*
X030905Y008434D01*
X030706Y008434D01*
X030706Y008116D01*
X030629Y008116D01*
X030291Y008116D01*
X026679Y008116D01*
X026671Y007998D02*
X030291Y007998D01*
X030291Y008116D02*
X030291Y008295D01*
X030302Y008336D01*
X030323Y008372D01*
X030353Y008402D01*
X030390Y008423D01*
X030430Y008434D01*
X030629Y008434D01*
X030629Y008116D01*
X030706Y008116D02*
X031044Y008116D01*
X031611Y008116D01*
X031653Y007998D02*
X031044Y007998D01*
X031044Y008116D02*
X031044Y008295D01*
X031034Y008336D01*
X031044Y008235D02*
X031474Y008235D01*
X030706Y008235D02*
X030629Y008235D01*
X030629Y008353D02*
X030706Y008353D01*
X030312Y008353D02*
X027984Y008353D01*
X027872Y008235D02*
X030291Y008235D01*
X030291Y007879D02*
X029954Y007879D01*
X030072Y007761D02*
X030345Y007761D01*
X030311Y007642D02*
X030191Y007642D01*
X030309Y007524D02*
X030311Y007524D01*
X030049Y007247D02*
X029727Y007568D01*
X026518Y007568D01*
X026511Y007562D01*
X026511Y007483D01*
X027260Y007483D01*
X027297Y007446D01*
X028536Y007446D01*
X028782Y007200D01*
X028800Y007200D01*
X028800Y007256D01*
X029282Y007256D01*
X029282Y007256D01*
X029282Y007256D01*
X029764Y007256D01*
X029764Y007149D01*
X029753Y007108D01*
X029744Y007092D01*
X029744Y006935D01*
X029835Y006935D01*
X029963Y006807D01*
X030049Y006721D01*
X030049Y007247D01*
X030009Y007287D02*
X029764Y007287D01*
X029764Y007256D02*
X029764Y007364D01*
X029753Y007405D01*
X029890Y007405D01*
X029753Y007405D02*
X029732Y007441D01*
X029702Y007471D01*
X029666Y007492D01*
X029625Y007503D01*
X029282Y007503D01*
X028939Y007503D01*
X028898Y007492D01*
X028862Y007471D01*
X028832Y007441D01*
X028811Y007405D01*
X028800Y007364D01*
X028800Y007256D01*
X029282Y007256D01*
X029764Y007256D01*
X029764Y007168D02*
X030049Y007168D01*
X030049Y007050D02*
X029744Y007050D01*
X029839Y006931D02*
X030049Y006931D01*
X030049Y006813D02*
X029957Y006813D01*
X029282Y006489D02*
X028800Y006489D01*
X028800Y006596D01*
X028811Y006637D01*
X028820Y006653D01*
X028820Y006820D01*
X028625Y006820D01*
X028513Y006932D01*
X028379Y007066D01*
X027342Y007066D01*
X027342Y006935D01*
X027906Y006935D01*
X028408Y006433D01*
X028800Y006433D01*
X028800Y006489D01*
X029282Y006489D01*
X029282Y006489D01*
X028800Y006457D02*
X028384Y006457D01*
X028265Y006576D02*
X028800Y006576D01*
X028820Y006694D02*
X028147Y006694D01*
X028028Y006813D02*
X028820Y006813D01*
X028514Y006931D02*
X027910Y006931D01*
X028395Y007050D02*
X027342Y007050D01*
X027362Y006555D02*
X027749Y006555D01*
X028139Y006164D01*
X028251Y006053D01*
X028820Y006053D01*
X028820Y005866D01*
X028820Y005685D01*
X028447Y005685D01*
X028336Y005573D01*
X027906Y005143D01*
X027362Y005143D01*
X027362Y005209D01*
X026880Y005209D01*
X026399Y005209D01*
X026880Y005209D01*
X026880Y005209D01*
X026880Y005209D01*
X027362Y005209D01*
X027362Y005285D01*
X027388Y005275D01*
X027499Y005275D01*
X027602Y005317D01*
X027680Y005396D01*
X027723Y005498D01*
X027723Y005593D01*
X027818Y005632D01*
X027897Y005711D01*
X027939Y005813D01*
X027939Y005924D01*
X027897Y006027D01*
X027818Y006105D01*
X027716Y006148D01*
X027650Y006148D01*
X027375Y006423D01*
X027362Y006423D01*
X027362Y006489D01*
X027362Y006555D01*
X027362Y006489D02*
X026880Y006489D01*
X026880Y006489D01*
X027362Y006489D01*
X027362Y006457D02*
X027846Y006457D01*
X027965Y006339D02*
X027459Y006339D01*
X027577Y006220D02*
X028083Y006220D01*
X028202Y006102D02*
X027822Y006102D01*
X027915Y005983D02*
X028820Y005983D01*
X028820Y005865D02*
X027939Y005865D01*
X027911Y005746D02*
X028820Y005746D01*
X028390Y005628D02*
X027807Y005628D01*
X027723Y005509D02*
X028272Y005509D01*
X028153Y005391D02*
X027675Y005391D01*
X027443Y005554D02*
X027443Y005672D01*
X027365Y005751D01*
X027365Y005869D01*
X027256Y005977D01*
X026880Y005977D01*
X026085Y006026D02*
X025928Y006026D01*
X025770Y006184D01*
X025770Y007325D01*
X025869Y007424D01*
X025731Y007424D01*
X025396Y007089D01*
X025436Y006636D02*
X024875Y007197D01*
X024875Y007532D01*
X025180Y007837D01*
X025377Y007837D01*
X025057Y007998D02*
X024678Y007998D01*
X024559Y008116D02*
X025321Y008116D01*
X025432Y008116D02*
X025512Y008116D01*
X025512Y008235D02*
X024441Y008235D01*
X024322Y008353D02*
X025517Y008353D01*
X025600Y008472D02*
X024654Y008472D01*
X024711Y008590D02*
X025600Y008590D01*
X025600Y008709D02*
X024707Y008709D01*
X024643Y008827D02*
X025600Y008827D01*
X025899Y008827D02*
X025937Y008827D01*
X025937Y008709D02*
X025899Y008709D01*
X025918Y008625D02*
X027670Y008625D01*
X027955Y008625D01*
X027689Y008590D02*
X027651Y008590D01*
X027651Y008643D02*
X027352Y008643D01*
X027352Y008882D01*
X027363Y008923D01*
X027384Y008959D01*
X027414Y008989D01*
X027451Y009010D01*
X027491Y009021D01*
X027651Y009021D01*
X027651Y008643D01*
X027651Y008709D02*
X027689Y008709D01*
X027689Y008827D02*
X027651Y008827D01*
X027651Y008946D02*
X027689Y008946D01*
X027377Y008946D02*
X026211Y008946D01*
X026235Y008827D02*
X027352Y008827D01*
X027352Y008709D02*
X026235Y008709D01*
X026235Y008590D02*
X027352Y008590D01*
X027352Y008472D02*
X026235Y008472D01*
X026232Y008353D02*
X027356Y008353D01*
X027468Y008235D02*
X026634Y008235D01*
X026400Y008073D02*
X026380Y008093D01*
X025869Y008093D01*
X026341Y008132D02*
X026400Y008073D01*
X026511Y007524D02*
X029772Y007524D01*
X029282Y007503D02*
X029282Y007256D01*
X029282Y007503D01*
X029282Y007405D02*
X029282Y007405D01*
X029282Y007287D02*
X029282Y007287D01*
X029282Y007256D02*
X029282Y007256D01*
X028800Y007287D02*
X028696Y007287D01*
X028811Y007405D02*
X028577Y007405D01*
X027689Y008235D02*
X027651Y008235D01*
X027651Y008353D02*
X027689Y008353D01*
X027689Y008472D02*
X027651Y008472D01*
X025937Y008946D02*
X025899Y008946D01*
X024432Y008644D02*
X024317Y008758D01*
X022235Y008758D01*
X022235Y009073D02*
X024034Y009073D01*
X024038Y009077D01*
X024204Y008472D02*
X024210Y008472D01*
X024796Y007879D02*
X024939Y007879D01*
X024156Y007699D02*
X023900Y007699D01*
X023753Y007552D01*
X023616Y007405D02*
X023173Y007405D01*
X023172Y007404D02*
X023215Y007506D01*
X023215Y007617D01*
X023172Y007720D01*
X023094Y007798D01*
X022991Y007841D01*
X022925Y007841D01*
X022874Y007892D01*
X022843Y007923D01*
X023113Y007923D01*
X023553Y007483D01*
X023553Y007469D01*
X023670Y007352D01*
X023684Y007352D01*
X023773Y007262D01*
X023764Y007265D01*
X023579Y007265D01*
X023579Y006936D01*
X023493Y006936D01*
X023493Y007265D01*
X023308Y007265D01*
X023268Y007254D01*
X023231Y007233D01*
X023201Y007203D01*
X023184Y007173D01*
X023112Y007245D01*
X022670Y007245D01*
X022670Y007340D01*
X022669Y007341D01*
X022670Y007342D01*
X022670Y007473D01*
X022699Y007404D01*
X022778Y007325D01*
X022880Y007283D01*
X022991Y007283D01*
X023094Y007325D01*
X023172Y007404D01*
X023215Y007524D02*
X023512Y007524D01*
X023393Y007642D02*
X023204Y007642D01*
X023275Y007761D02*
X023131Y007761D01*
X023156Y007879D02*
X022887Y007879D01*
X022698Y007405D02*
X022670Y007405D01*
X022670Y007287D02*
X022870Y007287D01*
X023001Y007287D02*
X023749Y007287D01*
X023579Y007168D02*
X023493Y007168D01*
X023493Y007050D02*
X023579Y007050D01*
X023579Y006936D02*
X023903Y006936D01*
X023903Y007126D01*
X023900Y007135D01*
X024192Y006843D01*
X024192Y006829D01*
X024309Y006712D01*
X024743Y006712D01*
X025019Y006435D01*
X025019Y006166D01*
X024870Y006166D01*
X024810Y006226D01*
X024597Y006439D01*
X022690Y006439D01*
X022690Y006540D01*
X023112Y006540D01*
X023184Y006612D01*
X023201Y006581D01*
X023231Y006552D01*
X023268Y006531D01*
X023308Y006520D01*
X023493Y006520D01*
X023493Y006849D01*
X023579Y006849D01*
X023579Y006520D01*
X023764Y006520D01*
X023804Y006531D01*
X023841Y006552D01*
X023871Y006581D01*
X023892Y006618D01*
X023903Y006659D01*
X023903Y006849D01*
X023579Y006849D01*
X023579Y006936D01*
X023579Y006931D02*
X024104Y006931D01*
X024209Y006813D02*
X023903Y006813D01*
X023903Y006694D02*
X024760Y006694D01*
X024879Y006576D02*
X023865Y006576D01*
X023579Y006576D02*
X023493Y006576D01*
X023493Y006694D02*
X023579Y006694D01*
X023579Y006813D02*
X023493Y006813D01*
X023903Y007050D02*
X023986Y007050D01*
X024392Y006912D02*
X024825Y006912D01*
X025219Y006518D01*
X025219Y005928D01*
X025682Y005465D01*
X025771Y005272D02*
X026399Y005272D01*
X026399Y005154D02*
X025143Y005154D01*
X025143Y005272D02*
X025592Y005272D01*
X025473Y005391D02*
X025143Y005391D01*
X025077Y005509D02*
X025355Y005509D01*
X025236Y005628D02*
X025143Y005628D01*
X024786Y005829D02*
X024727Y005888D01*
X024727Y006026D01*
X024514Y006239D01*
X022235Y006239D01*
X022235Y006554D02*
X021780Y006554D01*
X022235Y006554D01*
X022235Y006554D01*
X021780Y006554D02*
X021780Y006673D01*
X021790Y006714D01*
X021800Y006730D01*
X021800Y006919D01*
X021380Y006919D01*
X021157Y006695D01*
X021157Y006597D01*
X021800Y005955D01*
X021800Y006080D01*
X021801Y006081D01*
X021800Y006082D01*
X021800Y006378D01*
X021790Y006394D01*
X021780Y006434D01*
X021780Y006554D01*
X021780Y006576D02*
X021178Y006576D01*
X021157Y006694D02*
X021785Y006694D01*
X021800Y006813D02*
X021274Y006813D01*
X021297Y006457D02*
X021780Y006457D01*
X021800Y006339D02*
X021415Y006339D01*
X021534Y006220D02*
X021800Y006220D01*
X021800Y006102D02*
X021652Y006102D01*
X021771Y005983D02*
X021800Y005983D01*
X022235Y005924D02*
X024121Y005924D01*
X024235Y005810D01*
X023743Y005495D02*
X023743Y004865D01*
X023841Y004766D01*
X024117Y004766D01*
X024235Y004648D01*
X024235Y003782D01*
X024353Y003664D01*
X023899Y003613D02*
X023822Y003613D01*
X023822Y003495D02*
X023899Y003495D01*
X023899Y003376D02*
X023822Y003376D01*
X023706Y003291D02*
X023706Y003111D01*
X023702Y003095D01*
X023702Y003096D01*
X023978Y003096D01*
X023978Y002720D01*
X024098Y002720D01*
X024098Y002600D01*
X024513Y002600D01*
X024513Y002363D01*
X024502Y002323D01*
X024481Y002286D01*
X024451Y002256D01*
X024415Y002235D01*
X024374Y002224D01*
X024098Y002224D01*
X024098Y002600D01*
X023978Y002600D01*
X023978Y002224D01*
X023702Y002224D01*
X023661Y002235D01*
X023625Y002256D01*
X023595Y002286D01*
X023587Y002299D01*
X023587Y002005D01*
X023606Y002030D01*
X023664Y002088D01*
X023729Y002135D01*
X023801Y002172D01*
X023878Y002197D01*
X023940Y002207D01*
X023940Y001754D01*
X023566Y001754D01*
X023505Y001693D01*
X022799Y001693D01*
X022717Y001775D01*
X022717Y002197D01*
X022690Y002223D01*
X022577Y002223D01*
X022460Y002272D01*
X022370Y002362D01*
X022322Y002479D01*
X022322Y002605D01*
X022370Y002722D01*
X022460Y002812D01*
X022577Y002860D01*
X022704Y002860D01*
X022821Y002812D01*
X022833Y002800D01*
X023505Y002800D01*
X023563Y002742D01*
X023563Y002957D01*
X023567Y002973D01*
X023567Y002972D01*
X023368Y002972D01*
X023368Y003291D01*
X023706Y003291D01*
X023706Y003258D02*
X024399Y003258D01*
X024399Y003139D02*
X023706Y003139D01*
X023978Y003021D02*
X024098Y003021D01*
X024098Y002902D02*
X023978Y002902D01*
X023978Y002784D02*
X024098Y002784D01*
X024098Y002665D02*
X024567Y002665D01*
X024567Y002547D02*
X024513Y002547D01*
X024513Y002428D02*
X024574Y002428D01*
X024494Y002310D02*
X026101Y002310D01*
X026094Y002323D02*
X026115Y002286D01*
X026144Y002256D01*
X026181Y002235D01*
X026222Y002224D01*
X026498Y002224D01*
X026498Y002600D01*
X026618Y002600D01*
X026618Y002720D01*
X026498Y002720D01*
X026498Y003096D01*
X026222Y003096D01*
X026181Y003085D01*
X026144Y003064D01*
X026115Y003034D01*
X026094Y002997D01*
X026083Y002957D01*
X026083Y002720D01*
X026498Y002720D01*
X026498Y002600D01*
X026083Y002600D01*
X026083Y002363D01*
X026094Y002323D01*
X026083Y002428D02*
X026036Y002428D01*
X026048Y002547D02*
X026083Y002547D01*
X026048Y002665D02*
X026498Y002665D01*
X026498Y002547D02*
X026618Y002547D01*
X026618Y002600D02*
X026618Y002224D01*
X026894Y002224D01*
X026934Y002235D01*
X026971Y002256D01*
X027001Y002286D01*
X027022Y002323D01*
X027033Y002363D01*
X027033Y002600D01*
X026618Y002600D01*
X026618Y002665D02*
X027103Y002665D01*
X027034Y002784D02*
X027033Y002784D01*
X027044Y003021D02*
X027008Y003021D01*
X027044Y003139D02*
X026957Y003139D01*
X026957Y003258D02*
X027044Y003258D01*
X026957Y003376D02*
X025475Y003376D01*
X025498Y003258D02*
X026634Y003258D01*
X026634Y003139D02*
X026000Y003139D01*
X026048Y003021D02*
X026107Y003021D01*
X026083Y002902D02*
X026048Y002902D01*
X026048Y002784D02*
X026083Y002784D01*
X025810Y002784D02*
X025810Y002784D01*
X025810Y002902D02*
X025810Y002902D01*
X025810Y003021D02*
X025810Y003021D01*
X025810Y003139D02*
X025810Y003139D01*
X025298Y003270D02*
X025101Y003467D01*
X025101Y004038D01*
X024766Y004373D01*
X024766Y005140D01*
X024786Y005160D01*
X025143Y005035D02*
X026419Y005035D01*
X026419Y004917D02*
X025143Y004917D01*
X024966Y004798D02*
X026262Y004798D01*
X026143Y004680D02*
X024966Y004680D01*
X024966Y004561D02*
X026025Y004561D01*
X025994Y004443D02*
X024979Y004443D01*
X025098Y004324D02*
X025994Y004324D01*
X025994Y004206D02*
X025216Y004206D01*
X025301Y004087D02*
X025994Y004087D01*
X026102Y003969D02*
X025301Y003969D01*
X025301Y003850D02*
X026221Y003850D01*
X026339Y003732D02*
X025301Y003732D01*
X025301Y003613D02*
X026637Y003613D01*
X026634Y003495D02*
X025356Y003495D01*
X025042Y003152D02*
X024865Y003329D01*
X024865Y003880D01*
X024491Y004254D01*
X024491Y004727D01*
X024314Y004904D01*
X024314Y005062D01*
X024235Y005140D01*
X023743Y005495D02*
X023629Y005609D01*
X023392Y005609D01*
X022599Y004751D02*
X022599Y004748D01*
X022681Y004666D01*
X022994Y004666D01*
X023033Y004705D01*
X023232Y004705D01*
X023271Y004666D01*
X023523Y004666D01*
X023504Y004647D01*
X023504Y004631D01*
X023271Y004631D01*
X023232Y004591D01*
X023033Y004591D01*
X022994Y004631D01*
X022681Y004631D01*
X022599Y004549D01*
X022599Y004335D01*
X022464Y004335D01*
X022405Y004277D01*
X022231Y004277D01*
X022231Y003953D01*
X022144Y003953D01*
X022144Y003867D01*
X021815Y003867D01*
X021815Y003702D01*
X021716Y003702D01*
X021716Y003869D01*
X021765Y003917D01*
X021765Y004240D01*
X021767Y004243D01*
X021767Y005449D01*
X021798Y005419D01*
X021800Y005419D01*
X021800Y005137D01*
X021801Y005136D01*
X021800Y005135D01*
X021800Y004822D01*
X021882Y004740D01*
X022588Y004740D01*
X022599Y004751D01*
X022667Y004680D02*
X021767Y004680D01*
X021767Y004798D02*
X021824Y004798D01*
X021800Y004917D02*
X021767Y004917D01*
X021767Y005035D02*
X021800Y005035D01*
X021800Y005154D02*
X021767Y005154D01*
X021767Y005272D02*
X021800Y005272D01*
X021800Y005391D02*
X021767Y005391D01*
X021387Y005391D02*
X017982Y005391D01*
X017937Y005345D02*
X019589Y006998D01*
X020076Y006998D01*
X020076Y006766D01*
X021387Y005455D01*
X021387Y004706D01*
X021387Y004706D01*
X021371Y004715D01*
X021331Y004726D01*
X021211Y004726D01*
X021092Y004726D01*
X021051Y004715D01*
X021035Y004706D01*
X020740Y004706D01*
X020739Y004704D01*
X020738Y004706D01*
X020425Y004706D01*
X020424Y004704D01*
X020423Y004706D01*
X020110Y004706D01*
X020109Y004704D01*
X020108Y004706D01*
X019795Y004706D01*
X019794Y004704D01*
X019793Y004706D01*
X019480Y004706D01*
X019479Y004704D01*
X019478Y004706D01*
X019165Y004706D01*
X019164Y004704D01*
X019163Y004706D01*
X018850Y004706D01*
X018849Y004704D01*
X018848Y004706D01*
X018699Y004706D01*
X018717Y004724D01*
X018766Y004841D01*
X018766Y004967D01*
X018717Y005084D01*
X018628Y005174D01*
X018511Y005223D01*
X018384Y005223D01*
X018267Y005174D01*
X018177Y005084D01*
X018129Y004967D01*
X018129Y004841D01*
X018177Y004726D01*
X018062Y004726D01*
X018062Y004270D01*
X018062Y003815D01*
X018068Y003815D01*
X018068Y003648D01*
X017981Y003648D01*
X017981Y003815D01*
X018062Y003815D01*
X018062Y004270D01*
X018062Y004270D01*
X018062Y004270D01*
X018062Y004726D01*
X017942Y004726D01*
X017937Y004724D01*
X017937Y005345D01*
X017937Y005272D02*
X021387Y005272D01*
X021387Y005154D02*
X018648Y005154D01*
X018738Y005035D02*
X021387Y005035D01*
X021387Y004917D02*
X018766Y004917D01*
X018748Y004798D02*
X021387Y004798D01*
X021211Y004726D02*
X021211Y004270D01*
X021211Y004270D01*
X021211Y003815D01*
X021092Y003815D01*
X021051Y003826D01*
X021035Y003835D01*
X020771Y003835D01*
X020771Y003717D01*
X020789Y003722D01*
X020973Y003722D01*
X020973Y003392D01*
X021060Y003392D01*
X021060Y003722D01*
X021244Y003722D01*
X021285Y003711D01*
X021321Y003690D01*
X021336Y003675D01*
X021336Y003816D01*
X021331Y003815D01*
X021211Y003815D01*
X021211Y004270D01*
X021211Y004726D01*
X021211Y004680D02*
X021211Y004680D01*
X021211Y004561D02*
X021211Y004561D01*
X021211Y004443D02*
X021211Y004443D01*
X021211Y004324D02*
X021211Y004324D01*
X021211Y004270D02*
X021211Y004270D01*
X021211Y004206D02*
X021211Y004206D01*
X021211Y004087D02*
X021211Y004087D01*
X021211Y003969D02*
X021211Y003969D01*
X021211Y003850D02*
X021211Y003850D01*
X021336Y003732D02*
X020771Y003732D01*
X020973Y003613D02*
X021060Y003613D01*
X021060Y003495D02*
X020973Y003495D01*
X021060Y003376D02*
X021336Y003376D01*
X021060Y003258D02*
X020973Y003258D01*
X020973Y003139D02*
X021060Y003139D01*
X021060Y003021D02*
X020973Y003021D01*
X020994Y002902D02*
X021336Y002902D01*
X021336Y002784D02*
X021000Y002784D01*
X021000Y002665D02*
X021300Y002665D01*
X021300Y002547D02*
X021000Y002547D01*
X021000Y002428D02*
X021300Y002428D01*
X021300Y002310D02*
X021000Y002310D01*
X021000Y002191D02*
X021300Y002191D01*
X021300Y002073D02*
X020920Y002073D01*
X020802Y001954D02*
X021300Y001954D01*
X021300Y001836D02*
X020726Y001836D01*
X020726Y001717D02*
X021358Y001717D01*
X020726Y001599D02*
X023493Y001599D01*
X023529Y001717D02*
X023940Y001717D01*
X024057Y001717D02*
X024765Y001717D01*
X024765Y001755D02*
X024510Y001755D01*
X024510Y001754D01*
X024057Y001754D01*
X024057Y002207D01*
X024119Y002197D01*
X024196Y002172D01*
X024268Y002135D01*
X024318Y002099D01*
X024323Y002109D01*
X024353Y002138D01*
X024390Y002159D01*
X024430Y002170D01*
X024765Y002170D01*
X024765Y001755D01*
X024765Y001836D02*
X024885Y001836D01*
X024885Y001954D02*
X024765Y001954D01*
X024765Y002073D02*
X024885Y002073D01*
X024885Y001717D02*
X025710Y001717D01*
X025710Y001836D02*
X025830Y001836D01*
X025830Y001954D02*
X025710Y001954D01*
X025710Y002073D02*
X025830Y002073D01*
X026458Y002191D02*
X024138Y002191D01*
X024057Y002191D02*
X023940Y002191D01*
X023860Y002191D02*
X023587Y002191D01*
X023587Y002073D02*
X023648Y002073D01*
X023940Y002073D02*
X024057Y002073D01*
X024057Y001954D02*
X023940Y001954D01*
X023940Y001836D02*
X024057Y001836D01*
X024098Y002310D02*
X023978Y002310D01*
X023978Y002428D02*
X024098Y002428D01*
X024098Y002547D02*
X023978Y002547D01*
X023563Y002784D02*
X023522Y002784D01*
X023563Y002902D02*
X022486Y002902D01*
X022432Y002784D02*
X022104Y002784D01*
X022170Y002665D02*
X022347Y002665D01*
X022322Y002547D02*
X022170Y002547D01*
X022170Y002428D02*
X022343Y002428D01*
X022422Y002310D02*
X022170Y002310D01*
X022170Y002191D02*
X022717Y002191D01*
X022717Y002073D02*
X022170Y002073D01*
X022170Y001954D02*
X022717Y001954D01*
X022717Y001836D02*
X022170Y001836D01*
X022112Y001717D02*
X022775Y001717D01*
X023531Y001480D02*
X020681Y001480D01*
X018592Y002310D02*
X018511Y002310D01*
X018501Y002191D02*
X011962Y002191D01*
X011873Y002384D02*
X012050Y002562D01*
X012030Y002581D01*
X011873Y002384D02*
X010967Y002384D01*
X011242Y002073D02*
X014001Y002073D01*
X013882Y001954D02*
X011265Y001954D01*
X011265Y001873D02*
X010967Y001873D01*
X010967Y001873D01*
X010967Y001594D01*
X011126Y001594D01*
X011167Y001605D01*
X011203Y001626D01*
X011233Y001656D01*
X011254Y001693D01*
X011265Y001733D01*
X011265Y001873D01*
X011265Y001836D02*
X013826Y001836D01*
X014246Y001836D02*
X014326Y001836D01*
X014326Y001954D02*
X014246Y001954D01*
X014246Y002073D02*
X014326Y002073D01*
X014571Y002073D02*
X015029Y002073D01*
X014911Y001954D02*
X014690Y001954D01*
X014746Y001836D02*
X014846Y001836D01*
X014846Y001717D02*
X014326Y001717D01*
X014246Y001717D02*
X011260Y001717D01*
X011141Y001599D02*
X013826Y001599D01*
X013863Y001480D02*
X004724Y001480D01*
X004564Y001599D02*
X010793Y001599D01*
X010967Y001599D02*
X010967Y001599D01*
X010967Y001717D02*
X010967Y001717D01*
X010967Y001836D02*
X010967Y001836D01*
X011713Y002665D02*
X009263Y002665D01*
X009121Y002784D02*
X011713Y002784D01*
X011779Y002902D02*
X009100Y002902D01*
X009100Y003021D02*
X012233Y003021D01*
X012321Y002902D02*
X012352Y002902D01*
X012719Y002817D02*
X012719Y002562D01*
X012719Y002817D02*
X012256Y003280D01*
X011814Y003280D01*
X011383Y003139D02*
X010061Y003139D01*
X010084Y003258D02*
X011359Y003258D01*
X011359Y003376D02*
X010080Y003376D01*
X009609Y003258D02*
X009609Y003258D01*
X009609Y003139D02*
X009609Y003139D01*
X009156Y003139D02*
X009100Y003139D01*
X009100Y003258D02*
X009134Y003258D01*
X008700Y003258D02*
X006061Y003258D01*
X006112Y003376D02*
X008700Y003376D01*
X008700Y003139D02*
X005942Y003139D01*
X005441Y003139D02*
X004354Y003139D01*
X004354Y003021D02*
X008700Y003021D01*
X008700Y002902D02*
X004354Y002902D01*
X004354Y002784D02*
X008700Y002784D01*
X008656Y002665D02*
X004354Y002665D01*
X004354Y002547D02*
X008606Y002547D01*
X008601Y002428D02*
X004354Y002428D01*
X004354Y002310D02*
X008636Y002310D01*
X008725Y002191D02*
X004354Y002191D01*
X004357Y002073D02*
X009106Y002073D01*
X008959Y002469D02*
X008960Y002478D01*
X008964Y002486D01*
X008969Y002493D01*
X008959Y002469D02*
X008959Y002463D01*
X008324Y003495D02*
X006131Y003495D01*
X006125Y003613D02*
X008258Y003613D01*
X008566Y003703D02*
X008910Y004048D01*
X009609Y004048D01*
X009609Y004560D02*
X007906Y004560D01*
X010061Y004680D02*
X011362Y004680D01*
X011359Y004798D02*
X010064Y004798D01*
X010064Y004917D02*
X011359Y004917D01*
X011359Y005035D02*
X010064Y005035D01*
X010064Y005154D02*
X011359Y005154D01*
X011359Y005272D02*
X010064Y005272D01*
X010064Y005391D02*
X011359Y005391D01*
X011359Y005509D02*
X010064Y005509D01*
X010064Y005628D02*
X011359Y005628D01*
X011359Y005746D02*
X010064Y005746D01*
X007955Y006243D02*
X005959Y006243D01*
X005691Y006510D01*
X005286Y006339D02*
X004354Y006339D01*
X004354Y006457D02*
X005251Y006457D01*
X005251Y006576D02*
X004354Y006576D01*
X004354Y006694D02*
X005291Y006694D01*
X005371Y006813D02*
X004354Y006813D01*
X004354Y006931D02*
X005557Y006931D01*
X005826Y006931D02*
X006535Y006931D01*
X006535Y006813D02*
X006012Y006813D01*
X006092Y006694D02*
X006535Y006694D01*
X006569Y006576D02*
X006131Y006576D01*
X006131Y006457D02*
X007865Y006457D01*
X007640Y006814D02*
X007581Y006873D01*
X007640Y006814D02*
X008113Y006814D01*
X008413Y007016D02*
X008413Y008087D01*
X008574Y008248D01*
X009214Y008248D01*
X009296Y008330D01*
X009296Y008998D01*
X009214Y009080D01*
X008574Y009080D01*
X007980Y009674D01*
X007980Y010006D01*
X008036Y010063D01*
X008036Y010250D01*
X008385Y010599D01*
X008385Y010156D01*
X008642Y009899D01*
X008641Y009897D01*
X008641Y009754D01*
X008695Y009623D01*
X008796Y009522D01*
X008927Y009468D01*
X009070Y009468D01*
X009201Y009522D01*
X009302Y009623D01*
X009303Y009625D01*
X009664Y009625D01*
X009744Y009545D01*
X009744Y009315D01*
X009826Y009233D01*
X010218Y009233D01*
X010300Y009315D01*
X010300Y009785D01*
X010218Y009867D01*
X009988Y009867D01*
X009829Y010025D01*
X009303Y010025D01*
X009302Y010028D01*
X009201Y010129D01*
X009070Y010183D01*
X008927Y010183D01*
X008925Y010182D01*
X008785Y010322D01*
X008785Y010589D01*
X008937Y010741D01*
X008937Y010722D01*
X008938Y010721D01*
X008928Y010704D01*
X008917Y010663D01*
X008917Y010583D01*
X008917Y010503D01*
X008928Y010462D01*
X008949Y010426D01*
X008979Y010396D01*
X009016Y010375D01*
X009056Y010364D01*
X009392Y010364D01*
X009392Y010583D01*
X008917Y010583D01*
X009392Y010583D01*
X009392Y010583D01*
X009392Y010583D01*
X009392Y010364D01*
X009728Y010364D01*
X009769Y010375D01*
X009805Y010396D01*
X009835Y010426D01*
X009856Y010462D01*
X009867Y010503D01*
X009867Y010583D01*
X009392Y010583D01*
X009392Y010583D01*
X009867Y010583D01*
X009867Y010663D01*
X009856Y010704D01*
X009846Y010721D01*
X009847Y010722D01*
X009847Y010956D01*
X009836Y010967D01*
X009847Y010978D01*
X009847Y011212D01*
X009836Y011223D01*
X009847Y011234D01*
X009847Y011468D01*
X009836Y011479D01*
X009847Y011490D01*
X009847Y011724D01*
X009836Y011735D01*
X009847Y011746D01*
X009847Y011980D01*
X009836Y011991D01*
X009847Y012002D01*
X009847Y012236D01*
X009836Y012247D01*
X009847Y012258D01*
X009847Y012492D01*
X009836Y012503D01*
X009847Y012513D01*
X009847Y012748D01*
X009836Y012758D01*
X009847Y012769D01*
X009847Y013003D01*
X009836Y013014D01*
X009847Y013025D01*
X009847Y013259D01*
X009836Y013270D01*
X009847Y013281D01*
X009847Y013515D01*
X009836Y013526D01*
X009847Y013537D01*
X009847Y013771D01*
X009836Y013782D01*
X009847Y013793D01*
X009847Y014027D01*
X009765Y014109D01*
X009608Y014109D01*
X009693Y014193D01*
X010021Y014193D01*
X010103Y014275D01*
X010103Y014785D01*
X010021Y014867D01*
X009472Y014867D01*
X009412Y014807D01*
X009352Y014867D01*
X008803Y014867D01*
X008802Y014866D01*
X008781Y014887D01*
X008232Y014887D01*
X008172Y014826D01*
X008112Y014887D01*
X007563Y014887D01*
X007481Y014805D01*
X007481Y014710D01*
X007350Y014710D01*
X007350Y015981D01*
X007450Y016080D01*
X010238Y016080D01*
X010209Y016052D01*
X010146Y015898D01*
X010146Y015170D01*
X010209Y015016D01*
X010328Y014898D01*
X010482Y014834D01*
X010518Y014834D01*
X010826Y014526D01*
X010943Y014409D01*
X013109Y014409D01*
X013308Y014210D01*
X012710Y014210D01*
X012555Y014146D01*
X012437Y014028D01*
X012373Y013873D01*
X012373Y013706D01*
X012437Y013552D01*
X012495Y013494D01*
X012451Y013451D01*
X012343Y013451D01*
X012306Y013487D01*
X012204Y013530D01*
X012093Y013530D01*
X012052Y013513D01*
X012052Y013515D01*
X012041Y013526D01*
X012052Y013537D01*
X012052Y013771D01*
X012051Y013772D01*
X012061Y013789D01*
X012072Y013830D01*
X012072Y013910D01*
X012072Y013990D01*
X012061Y014031D01*
X012040Y014067D01*
X012010Y014097D01*
X011974Y014118D01*
X011933Y014129D01*
X011597Y014129D01*
X011261Y014129D01*
X011220Y014118D01*
X011184Y014097D01*
X011154Y014067D01*
X011133Y014031D01*
X011122Y013990D01*
X011122Y013910D01*
X011122Y013830D01*
X011133Y013789D01*
X011143Y013772D01*
X011142Y013771D01*
X011142Y013537D01*
X011153Y013526D01*
X011142Y013515D01*
X011142Y013281D01*
X011153Y013270D01*
X011142Y013259D01*
X011142Y013025D01*
X011153Y013014D01*
X011142Y013003D01*
X011142Y012769D01*
X011153Y012758D01*
X011142Y012748D01*
X011142Y012513D01*
X011153Y012503D01*
X011142Y012492D01*
X011142Y012258D01*
X011153Y012247D01*
X011142Y012236D01*
X011142Y012002D01*
X011153Y011991D01*
X011142Y011980D01*
X011142Y011746D01*
X011153Y011735D01*
X011142Y011724D01*
X011142Y011490D01*
X011153Y011479D01*
X011142Y011468D01*
X011142Y011234D01*
X011153Y011223D01*
X011142Y011212D01*
X011142Y010978D01*
X011153Y010967D01*
X011142Y010956D01*
X011142Y010722D01*
X011153Y010711D01*
X011142Y010700D01*
X011142Y010466D01*
X011224Y010384D01*
X011513Y010384D01*
X011514Y010383D01*
X011741Y010383D01*
X011890Y010234D01*
X011890Y009914D01*
X011758Y010046D01*
X011640Y010163D01*
X011022Y010163D01*
X010923Y010064D01*
X010771Y010064D01*
X010689Y009982D01*
X010689Y009630D01*
X010761Y009558D01*
X010731Y009540D01*
X010701Y009510D01*
X010680Y009474D01*
X010669Y009433D01*
X010669Y009294D01*
X010967Y009294D01*
X010967Y009294D01*
X010669Y009294D01*
X010669Y009155D01*
X010680Y009114D01*
X010701Y009078D01*
X010731Y009048D01*
X010768Y009027D01*
X010808Y009016D01*
X010967Y009016D01*
X010967Y009294D01*
X011265Y009294D01*
X011265Y009433D01*
X011254Y009474D01*
X011233Y009510D01*
X011203Y009540D01*
X011173Y009558D01*
X011245Y009630D01*
X011245Y009763D01*
X011475Y009763D01*
X011890Y009348D01*
X011890Y009236D01*
X011972Y009154D01*
X012521Y009154D01*
X012603Y009236D01*
X012603Y009746D01*
X012523Y009825D01*
X012603Y009905D01*
X012603Y010415D01*
X012521Y010497D01*
X012193Y010497D01*
X012052Y010637D01*
X012052Y010688D01*
X012069Y010671D01*
X012171Y010629D01*
X012282Y010629D01*
X012385Y010671D01*
X012463Y010750D01*
X012506Y010853D01*
X012506Y010964D01*
X012463Y011066D01*
X012385Y011145D01*
X012282Y011187D01*
X012171Y011187D01*
X012069Y011145D01*
X012052Y011128D01*
X012052Y011212D01*
X012041Y011223D01*
X012052Y011234D01*
X012052Y011468D01*
X012041Y011479D01*
X012052Y011490D01*
X012052Y011627D01*
X012755Y010924D01*
X012755Y007203D01*
X012955Y007286D02*
X012955Y011006D01*
X012089Y011873D01*
X011607Y011873D01*
X011597Y011863D01*
X011142Y011908D02*
X009847Y011908D01*
X009847Y011790D02*
X011142Y011790D01*
X011142Y011671D02*
X009847Y011671D01*
X009847Y011553D02*
X011142Y011553D01*
X011142Y011434D02*
X009847Y011434D01*
X009847Y011316D02*
X011142Y011316D01*
X011142Y011197D02*
X009847Y011197D01*
X009847Y011079D02*
X011142Y011079D01*
X011146Y010960D02*
X009843Y010960D01*
X009847Y010842D02*
X011142Y010842D01*
X011142Y010723D02*
X009847Y010723D01*
X009867Y010605D02*
X011142Y010605D01*
X011142Y010486D02*
X009863Y010486D01*
X009741Y010368D02*
X011756Y010368D01*
X011875Y010249D02*
X008858Y010249D01*
X008785Y010368D02*
X009044Y010368D01*
X008922Y010486D02*
X008785Y010486D01*
X008801Y010605D02*
X008917Y010605D01*
X008919Y010723D02*
X008937Y010723D01*
X008880Y010967D02*
X008585Y010672D01*
X008585Y010239D01*
X008999Y009825D01*
X009747Y009825D01*
X010022Y009550D01*
X009744Y009538D02*
X009217Y009538D01*
X008780Y009538D02*
X008116Y009538D01*
X008234Y009420D02*
X009744Y009420D01*
X009758Y009301D02*
X008353Y009301D01*
X008471Y009183D02*
X010669Y009183D01*
X010669Y009301D02*
X010286Y009301D01*
X010300Y009420D02*
X010669Y009420D01*
X010729Y009538D02*
X010300Y009538D01*
X010300Y009657D02*
X010689Y009657D01*
X010689Y009775D02*
X010300Y009775D01*
X009961Y009894D02*
X010689Y009894D01*
X010720Y010012D02*
X009843Y010012D01*
X009197Y010131D02*
X010989Y010131D01*
X011105Y009963D02*
X011105Y009943D01*
X010967Y009806D01*
X011105Y009963D02*
X011558Y009963D01*
X012030Y009491D01*
X012247Y009491D01*
X012603Y009538D02*
X012755Y009538D01*
X012755Y009420D02*
X012603Y009420D01*
X012603Y009301D02*
X012755Y009301D01*
X012755Y009183D02*
X012550Y009183D01*
X012755Y009064D02*
X011219Y009064D01*
X011233Y009078D02*
X011254Y009114D01*
X011265Y009155D01*
X011265Y009294D01*
X010967Y009294D01*
X010967Y009294D01*
X010967Y009294D01*
X010967Y009016D01*
X011126Y009016D01*
X011167Y009027D01*
X011203Y009048D01*
X011233Y009078D01*
X011265Y009183D02*
X011943Y009183D01*
X011890Y009301D02*
X011265Y009301D01*
X011265Y009420D02*
X011818Y009420D01*
X011700Y009538D02*
X011205Y009538D01*
X011245Y009657D02*
X011581Y009657D01*
X011792Y010012D02*
X011890Y010012D01*
X011890Y010131D02*
X011673Y010131D01*
X011823Y010583D02*
X012247Y010160D01*
X012603Y010131D02*
X012755Y010131D01*
X012755Y010249D02*
X012603Y010249D01*
X012603Y010368D02*
X012755Y010368D01*
X012755Y010486D02*
X012532Y010486D01*
X012755Y010605D02*
X012085Y010605D01*
X011823Y010583D02*
X011597Y010583D01*
X011597Y010839D02*
X011666Y010908D01*
X012227Y010908D01*
X012437Y010723D02*
X012755Y010723D01*
X012755Y010842D02*
X012501Y010842D01*
X012506Y010960D02*
X012719Y010960D01*
X012600Y011079D02*
X012451Y011079D01*
X012482Y011197D02*
X012052Y011197D01*
X012052Y011316D02*
X012363Y011316D01*
X012245Y011434D02*
X012052Y011434D01*
X012052Y011553D02*
X012126Y011553D01*
X012907Y012027D02*
X013406Y012027D01*
X013406Y011952D02*
X013406Y012175D01*
X013211Y012370D01*
X012710Y012370D01*
X012555Y012434D01*
X012437Y012552D01*
X012373Y012706D01*
X012373Y012873D01*
X012437Y013028D01*
X012460Y013051D01*
X012343Y013051D01*
X012306Y013014D01*
X012204Y012971D01*
X012152Y012971D01*
X012052Y012871D01*
X012052Y012769D01*
X012041Y012758D01*
X012052Y012748D01*
X012052Y012565D01*
X012369Y012565D01*
X012486Y012448D01*
X013406Y011528D01*
X013406Y011675D01*
X013417Y011686D01*
X013406Y011696D01*
X013406Y011931D01*
X013417Y011941D01*
X013406Y011952D01*
X013406Y011908D02*
X013025Y011908D01*
X013144Y011790D02*
X013406Y011790D01*
X013406Y011671D02*
X013262Y011671D01*
X013381Y011553D02*
X013406Y011553D01*
X013625Y011499D02*
X013684Y011558D01*
X013625Y011499D02*
X013625Y007758D01*
X013884Y007499D01*
X016093Y007499D01*
X015658Y007699D02*
X013967Y007699D01*
X013825Y007841D01*
X013825Y011359D01*
X013879Y011359D01*
X013961Y011441D01*
X013961Y011614D01*
X014016Y011614D01*
X014016Y011558D01*
X014314Y011558D01*
X014314Y011339D01*
X014472Y011339D01*
X014513Y011349D01*
X014550Y011371D01*
X014566Y011387D01*
X014566Y010735D01*
X014565Y010734D01*
X014448Y010617D01*
X014448Y008660D01*
X015058Y008050D01*
X015176Y007932D01*
X015658Y007932D01*
X015658Y007699D01*
X015658Y007761D02*
X013905Y007761D01*
X013825Y007879D02*
X015658Y007879D01*
X015258Y008132D02*
X016089Y008132D01*
X016093Y008129D01*
X016093Y008443D02*
X015341Y008443D01*
X014924Y008861D01*
X014648Y008743D02*
X015258Y008132D01*
X015110Y007998D02*
X013825Y007998D01*
X013825Y008116D02*
X014992Y008116D01*
X014873Y008235D02*
X013825Y008235D01*
X013825Y008353D02*
X014755Y008353D01*
X014636Y008472D02*
X013825Y008472D01*
X013825Y008590D02*
X014518Y008590D01*
X014448Y008709D02*
X013825Y008709D01*
X013825Y008827D02*
X014448Y008827D01*
X014448Y008946D02*
X013825Y008946D01*
X013825Y009064D02*
X014448Y009064D01*
X014448Y009183D02*
X013825Y009183D01*
X013825Y009301D02*
X014448Y009301D01*
X014448Y009420D02*
X013825Y009420D01*
X013825Y009538D02*
X014448Y009538D01*
X014448Y009657D02*
X013825Y009657D01*
X013825Y009775D02*
X014448Y009775D01*
X014448Y009894D02*
X013825Y009894D01*
X013825Y010012D02*
X014448Y010012D01*
X014448Y010131D02*
X013825Y010131D01*
X013825Y010249D02*
X014448Y010249D01*
X014448Y010368D02*
X013825Y010368D01*
X013825Y010486D02*
X014448Y010486D01*
X014448Y010605D02*
X013825Y010605D01*
X013825Y010723D02*
X014554Y010723D01*
X014566Y010842D02*
X013825Y010842D01*
X013825Y010960D02*
X014566Y010960D01*
X014566Y011079D02*
X013825Y011079D01*
X013825Y011197D02*
X014566Y011197D01*
X014566Y011316D02*
X013825Y011316D01*
X013955Y011434D02*
X014028Y011434D01*
X014027Y011437D02*
X014048Y011400D01*
X014078Y011371D01*
X014114Y011349D01*
X014155Y011339D01*
X014314Y011339D01*
X014314Y011558D01*
X014314Y011558D01*
X014314Y011558D01*
X014016Y011558D01*
X014016Y011478D01*
X014027Y011437D01*
X014016Y011553D02*
X013961Y011553D01*
X014314Y011553D02*
X014314Y011553D01*
X014314Y011434D02*
X014314Y011434D01*
X014314Y011814D02*
X013684Y011814D01*
X013684Y012069D01*
X013684Y012180D01*
X013073Y012790D01*
X013652Y012494D02*
X013709Y012552D01*
X013773Y012706D01*
X013773Y012873D01*
X013709Y013028D01*
X013591Y013146D01*
X013437Y013210D01*
X012776Y013210D01*
X012936Y013370D01*
X013437Y013370D01*
X013591Y013434D01*
X013709Y013552D01*
X013773Y013706D01*
X013773Y013873D01*
X013709Y014028D01*
X013591Y014146D01*
X013527Y014173D01*
X014132Y014173D01*
X014566Y013739D01*
X014566Y012212D01*
X014509Y012269D01*
X014397Y012269D01*
X014396Y012269D01*
X014231Y012269D01*
X014230Y012269D01*
X014118Y012269D01*
X014036Y012186D01*
X014036Y012014D01*
X013961Y012014D01*
X013961Y012186D01*
X013879Y012269D01*
X013878Y012269D01*
X013652Y012494D01*
X013658Y012501D02*
X014566Y012501D01*
X014566Y012619D02*
X013737Y012619D01*
X013773Y012738D02*
X014566Y012738D01*
X014566Y012856D02*
X013773Y012856D01*
X013731Y012975D02*
X014566Y012975D01*
X014566Y013093D02*
X013644Y013093D01*
X012896Y013330D02*
X014566Y013330D01*
X014566Y013212D02*
X012778Y013212D01*
X012534Y013251D02*
X013073Y013790D01*
X012451Y014041D02*
X012055Y014041D01*
X012072Y013923D02*
X012394Y013923D01*
X012373Y013804D02*
X012065Y013804D01*
X012072Y013910D02*
X011597Y013910D01*
X011597Y013910D01*
X011122Y013910D01*
X011597Y013910D01*
X011597Y014129D01*
X011597Y013910D01*
X011597Y013910D01*
X012072Y013910D01*
X011597Y013910D02*
X011597Y013910D01*
X011597Y013923D02*
X011597Y013923D01*
X011597Y014041D02*
X011597Y014041D01*
X011139Y014041D02*
X009833Y014041D01*
X009847Y013923D02*
X011122Y013923D01*
X011129Y013804D02*
X009847Y013804D01*
X009847Y013686D02*
X011142Y013686D01*
X011142Y013567D02*
X009847Y013567D01*
X009847Y013449D02*
X011142Y013449D01*
X011142Y013330D02*
X009847Y013330D01*
X009847Y013212D02*
X011142Y013212D01*
X011142Y013093D02*
X009847Y013093D01*
X009847Y012975D02*
X011142Y012975D01*
X011142Y012856D02*
X009847Y012856D01*
X009847Y012738D02*
X011142Y012738D01*
X011142Y012619D02*
X009847Y012619D01*
X009838Y012501D02*
X011151Y012501D01*
X011142Y012382D02*
X009847Y012382D01*
X009847Y012264D02*
X011142Y012264D01*
X011142Y012145D02*
X009847Y012145D01*
X009847Y012027D02*
X011142Y012027D01*
X012433Y012501D02*
X012489Y012501D01*
X012551Y012382D02*
X012680Y012382D01*
X012670Y012264D02*
X013317Y012264D01*
X013406Y012145D02*
X012788Y012145D01*
X012410Y012619D02*
X012052Y012619D01*
X012052Y012738D02*
X012373Y012738D01*
X012373Y012856D02*
X012052Y012856D01*
X012211Y012975D02*
X012415Y012975D01*
X012534Y013251D02*
X012148Y013251D01*
X011784Y012886D01*
X011597Y012886D01*
X011597Y013142D01*
X011597Y013398D01*
X012052Y013567D02*
X012431Y013567D01*
X012382Y013686D02*
X012052Y013686D01*
X012588Y014160D02*
X009659Y014160D01*
X009392Y014176D02*
X009392Y013910D01*
X009392Y014176D02*
X009747Y014530D01*
X010103Y014515D02*
X010837Y014515D01*
X010719Y014634D02*
X010103Y014634D01*
X010103Y014752D02*
X010600Y014752D01*
X010394Y014871D02*
X008797Y014871D01*
X008506Y014550D02*
X008664Y014392D01*
X008664Y013703D01*
X008969Y013398D01*
X009392Y013398D01*
X009392Y013654D02*
X009028Y013654D01*
X008920Y013762D01*
X008920Y014373D01*
X009077Y014530D01*
X008216Y014871D02*
X008128Y014871D01*
X007547Y014871D02*
X007350Y014871D01*
X007350Y014989D02*
X010236Y014989D01*
X010172Y015108D02*
X007350Y015108D01*
X007350Y015226D02*
X010146Y015226D01*
X010146Y015345D02*
X007350Y015345D01*
X007350Y015463D02*
X010146Y015463D01*
X010146Y015582D02*
X007350Y015582D01*
X007350Y015700D02*
X010146Y015700D01*
X010146Y015819D02*
X007350Y015819D01*
X007350Y015937D02*
X010162Y015937D01*
X010213Y016056D02*
X007425Y016056D01*
X006932Y016411D02*
X004578Y016411D01*
X004487Y016293D02*
X006813Y016293D01*
X006754Y016174D02*
X004419Y016174D01*
X004380Y016056D02*
X006750Y016056D01*
X006750Y015937D02*
X004358Y015937D01*
X004354Y015819D02*
X006750Y015819D01*
X006750Y015700D02*
X004354Y015700D01*
X004354Y015582D02*
X006750Y015582D01*
X006750Y015463D02*
X004354Y015463D01*
X004354Y015345D02*
X006750Y015345D01*
X006750Y015226D02*
X004354Y015226D01*
X004354Y015108D02*
X006750Y015108D01*
X006750Y014989D02*
X004354Y014989D01*
X004354Y014871D02*
X006750Y014871D01*
X006750Y014752D02*
X004354Y014752D01*
X004354Y014634D02*
X006750Y014634D01*
X006750Y014515D02*
X004354Y014515D01*
X004354Y014397D02*
X006780Y014397D01*
X006877Y014278D02*
X004354Y014278D01*
X004354Y014160D02*
X005315Y014160D01*
X005179Y014041D02*
X004354Y014041D01*
X004354Y013923D02*
X005119Y013923D01*
X005094Y013804D02*
X004354Y013804D01*
X004354Y013686D02*
X005094Y013686D01*
X005144Y013567D02*
X004354Y013567D01*
X004354Y013449D02*
X005237Y013449D01*
X005440Y013212D02*
X004354Y013212D01*
X004354Y013330D02*
X006510Y013330D01*
X006392Y013449D02*
X005831Y013449D01*
X005924Y013567D02*
X006273Y013567D01*
X006341Y013782D02*
X005542Y013782D01*
X005534Y013774D01*
X005889Y014041D02*
X007114Y014041D01*
X006996Y014160D02*
X005753Y014160D01*
X006341Y013782D02*
X006853Y013270D01*
X007699Y013270D01*
X007798Y013172D01*
X007798Y012955D01*
X007867Y012886D01*
X009392Y012886D01*
X009392Y012630D02*
X007532Y012630D01*
X007532Y012670D01*
X007384Y012817D01*
X006576Y012856D02*
X005974Y012856D01*
X005974Y012738D02*
X006220Y012738D01*
X006220Y012619D02*
X005972Y012619D01*
X005934Y012375D02*
X005534Y012774D01*
X005122Y012619D02*
X004354Y012619D01*
X004354Y012501D02*
X005185Y012501D01*
X005331Y012382D02*
X004354Y012382D01*
X004354Y012264D02*
X005741Y012264D01*
X005879Y012119D02*
X005534Y011774D01*
X005094Y011790D02*
X004354Y011790D01*
X004354Y011908D02*
X005113Y011908D01*
X005164Y012027D02*
X004354Y012027D01*
X004354Y012145D02*
X005283Y012145D01*
X005879Y012119D02*
X009392Y012119D01*
X009392Y012375D02*
X005934Y012375D01*
X005955Y011908D02*
X006240Y011908D01*
X006240Y011790D02*
X005974Y011790D01*
X005968Y011671D02*
X006596Y011671D01*
X006596Y011553D02*
X006716Y011553D01*
X006716Y011434D02*
X006596Y011434D01*
X006596Y011316D02*
X006716Y011316D01*
X006761Y011197D02*
X005663Y011197D01*
X005852Y011079D02*
X006642Y011079D01*
X006676Y010829D02*
X005589Y010829D01*
X005534Y010774D01*
X005128Y010605D02*
X004354Y010605D01*
X004354Y010723D02*
X005094Y010723D01*
X005094Y010842D02*
X004354Y010842D01*
X004354Y010960D02*
X005135Y010960D01*
X005216Y011079D02*
X004354Y011079D01*
X004354Y011197D02*
X005405Y011197D01*
X005252Y011434D02*
X004354Y011434D01*
X004354Y011316D02*
X006253Y011316D01*
X006240Y011434D02*
X005816Y011434D01*
X005918Y011553D02*
X006240Y011553D01*
X006676Y010829D02*
X007050Y011203D01*
X007699Y011203D01*
X007817Y011321D01*
X007817Y011479D01*
X007945Y011607D01*
X009392Y011607D01*
X009392Y011863D02*
X007591Y011863D01*
X007404Y011676D01*
X008017Y011316D02*
X008062Y011316D01*
X008002Y011197D02*
X007976Y011197D01*
X007991Y011079D02*
X007857Y011079D01*
X007898Y010960D02*
X007089Y010960D01*
X006971Y010842D02*
X007780Y010842D01*
X007661Y010723D02*
X006852Y010723D01*
X006972Y010605D02*
X007049Y010605D01*
X007049Y010486D02*
X006972Y010486D01*
X006972Y010368D02*
X007049Y010368D01*
X007049Y010249D02*
X006972Y010249D01*
X006972Y010131D02*
X007049Y010131D01*
X007049Y010012D02*
X006972Y010012D01*
X006676Y010012D02*
X004354Y010012D01*
X004354Y009894D02*
X007380Y009894D01*
X007374Y010012D02*
X007345Y010012D01*
X007380Y009775D02*
X004354Y009775D01*
X004354Y009657D02*
X004620Y009657D01*
X004593Y009637D02*
X004544Y009588D01*
X004504Y009532D01*
X004472Y009471D01*
X004451Y009405D01*
X004440Y009336D01*
X004440Y009332D01*
X005130Y009332D01*
X005130Y009742D01*
X004845Y009742D01*
X004777Y009731D01*
X004711Y009709D01*
X004649Y009678D01*
X004593Y009637D01*
X004508Y009538D02*
X004354Y009538D01*
X004354Y009420D02*
X004456Y009420D01*
X004440Y009272D02*
X004440Y009267D01*
X004451Y009199D01*
X004472Y009133D01*
X004504Y009071D01*
X004544Y009015D01*
X004593Y008966D01*
X004649Y008925D01*
X004711Y008894D01*
X004777Y008873D01*
X004845Y008862D01*
X005130Y008862D01*
X005130Y009272D01*
X004440Y009272D01*
X004456Y009183D02*
X004354Y009183D01*
X004354Y009301D02*
X005130Y009301D01*
X005130Y009272D02*
X005130Y009332D01*
X005190Y009332D01*
X005190Y009742D01*
X005475Y009742D01*
X005543Y009731D01*
X005609Y009709D01*
X005671Y009678D01*
X005727Y009637D01*
X005776Y009588D01*
X005816Y009532D01*
X005848Y009471D01*
X005869Y009405D01*
X005880Y009336D01*
X005880Y009332D01*
X005190Y009332D01*
X005190Y009272D01*
X005880Y009272D01*
X005880Y009267D01*
X005869Y009199D01*
X005848Y009133D01*
X005816Y009071D01*
X005776Y009015D01*
X005727Y008966D01*
X005671Y008925D01*
X005609Y008894D01*
X005543Y008873D01*
X005475Y008862D01*
X005190Y008862D01*
X005190Y009272D01*
X005130Y009272D01*
X005190Y009301D02*
X007504Y009301D01*
X007409Y009420D02*
X005864Y009420D01*
X005812Y009538D02*
X007380Y009538D01*
X007380Y009657D02*
X005700Y009657D01*
X005190Y009657D02*
X005130Y009657D01*
X005130Y009538D02*
X005190Y009538D01*
X005190Y009420D02*
X005130Y009420D01*
X005130Y009183D02*
X005190Y009183D01*
X005190Y009064D02*
X005130Y009064D01*
X005130Y008946D02*
X005190Y008946D01*
X005555Y008709D02*
X006616Y008709D01*
X006616Y008724D02*
X006616Y008604D01*
X006736Y008604D01*
X006736Y008724D01*
X007426Y008724D01*
X007426Y008961D01*
X007415Y009001D01*
X007394Y009038D01*
X007365Y009068D01*
X007328Y009089D01*
X007287Y009100D01*
X006736Y009100D01*
X006736Y008724D01*
X006616Y008724D01*
X006616Y009100D01*
X006064Y009100D01*
X006023Y009089D01*
X005987Y009068D01*
X005957Y009038D01*
X005936Y009001D01*
X005925Y008961D01*
X005925Y008724D01*
X006616Y008724D01*
X006616Y008827D02*
X006736Y008827D01*
X006736Y008709D02*
X007835Y008709D01*
X007835Y008827D02*
X007426Y008827D01*
X007426Y008946D02*
X007835Y008946D01*
X007741Y009064D02*
X007368Y009064D01*
X007623Y009183D02*
X005864Y009183D01*
X005811Y009064D02*
X005983Y009064D01*
X005925Y008946D02*
X005698Y008946D01*
X005925Y008827D02*
X004354Y008827D01*
X004354Y008709D02*
X004765Y008709D01*
X004574Y008590D02*
X004354Y008590D01*
X004354Y008472D02*
X004496Y008472D01*
X004460Y008353D02*
X004354Y008353D01*
X004354Y008235D02*
X004460Y008235D01*
X004502Y008116D02*
X004354Y008116D01*
X004354Y007998D02*
X004590Y007998D01*
X004354Y007879D02*
X005075Y007879D01*
X005167Y007761D02*
X004354Y007761D01*
X004354Y007642D02*
X005285Y007642D01*
X005404Y007524D02*
X004354Y007524D01*
X004354Y007405D02*
X005522Y007405D01*
X006568Y007168D02*
X004354Y007168D01*
X004354Y007050D02*
X006535Y007050D01*
X006874Y007050D02*
X006950Y007050D01*
X006950Y007168D02*
X006874Y007168D01*
X007256Y007168D02*
X007265Y007168D01*
X006950Y006931D02*
X006874Y006931D01*
X006874Y006813D02*
X006950Y006813D01*
X006950Y006694D02*
X006874Y006694D01*
X006874Y006576D02*
X006950Y006576D01*
X007255Y006576D02*
X007267Y006576D01*
X008413Y007016D02*
X008429Y007032D01*
X008681Y007032D01*
X008681Y007442D01*
X008763Y007524D01*
X008681Y007405D02*
X008413Y007405D01*
X008413Y007287D02*
X008681Y007287D01*
X008681Y007168D02*
X008413Y007168D01*
X008413Y007050D02*
X008681Y007050D01*
X007813Y007287D02*
X004354Y007287D01*
X005778Y007998D02*
X007813Y007998D01*
X007813Y008116D02*
X005818Y008116D01*
X005860Y008235D02*
X006041Y008235D01*
X006023Y008239D02*
X006064Y008228D01*
X006616Y008228D01*
X006616Y008604D01*
X005925Y008604D01*
X005925Y008367D01*
X005936Y008327D01*
X005957Y008290D01*
X005987Y008260D01*
X006023Y008239D01*
X005929Y008353D02*
X005860Y008353D01*
X005824Y008472D02*
X005925Y008472D01*
X005925Y008590D02*
X005746Y008590D01*
X006616Y008590D02*
X006736Y008590D01*
X006736Y008604D02*
X006736Y008228D01*
X007287Y008228D01*
X007328Y008239D01*
X007365Y008260D01*
X007394Y008290D01*
X007415Y008327D01*
X007426Y008367D01*
X007426Y008604D01*
X006736Y008604D01*
X006736Y008472D02*
X006616Y008472D01*
X006616Y008353D02*
X006736Y008353D01*
X006736Y008235D02*
X006616Y008235D01*
X007311Y008235D02*
X007813Y008235D01*
X007835Y008353D02*
X007422Y008353D01*
X007426Y008472D02*
X007835Y008472D01*
X007835Y008590D02*
X007426Y008590D01*
X006736Y008946D02*
X006616Y008946D01*
X006616Y009064D02*
X006736Y009064D01*
X007997Y009657D02*
X008681Y009657D01*
X008641Y009775D02*
X007980Y009775D01*
X007980Y009894D02*
X008641Y009894D01*
X008529Y010012D02*
X007986Y010012D01*
X008036Y010131D02*
X008411Y010131D01*
X008385Y010249D02*
X008036Y010249D01*
X008154Y010368D02*
X008385Y010368D01*
X008385Y010486D02*
X008273Y010486D01*
X009392Y010486D02*
X009392Y010486D01*
X009392Y010368D02*
X009392Y010368D01*
X009392Y010839D02*
X009392Y010908D01*
X009333Y010967D01*
X009392Y010839D02*
X009392Y011095D01*
X009392Y011351D02*
X008575Y011351D01*
X008329Y011105D01*
X006661Y010605D02*
X005940Y010605D01*
X005868Y010486D02*
X006634Y010486D01*
X006634Y010368D02*
X005702Y010368D01*
X005366Y010368D02*
X004354Y010368D01*
X004354Y010486D02*
X005200Y010486D01*
X004354Y010249D02*
X006634Y010249D01*
X006634Y010131D02*
X004354Y010131D01*
X004354Y009064D02*
X004509Y009064D01*
X004622Y008946D02*
X004354Y008946D01*
X008413Y007998D02*
X012755Y007998D01*
X012755Y008116D02*
X008442Y008116D01*
X008560Y008235D02*
X012755Y008235D01*
X012755Y008353D02*
X009296Y008353D01*
X009296Y008472D02*
X012755Y008472D01*
X012755Y008590D02*
X009296Y008590D01*
X009296Y008709D02*
X012755Y008709D01*
X012755Y008827D02*
X009296Y008827D01*
X009296Y008946D02*
X012755Y008946D01*
X012755Y009657D02*
X012603Y009657D01*
X012574Y009775D02*
X012755Y009775D01*
X012755Y009894D02*
X012592Y009894D01*
X012603Y010012D02*
X012755Y010012D01*
X010967Y009183D02*
X010967Y009183D01*
X010967Y009064D02*
X010967Y009064D01*
X010715Y009064D02*
X009229Y009064D01*
X008413Y007879D02*
X012755Y007879D01*
X012755Y007761D02*
X008413Y007761D01*
X009313Y007524D02*
X009432Y007524D01*
X012955Y007286D02*
X013585Y006656D01*
X014865Y006656D01*
X015558Y006869D02*
X016093Y006869D01*
X016528Y006813D02*
X018867Y006813D01*
X018985Y006931D02*
X016528Y006931D01*
X016528Y007050D02*
X019104Y007050D01*
X019404Y006813D02*
X020076Y006813D01*
X020076Y006931D02*
X019523Y006931D01*
X019286Y006694D02*
X020149Y006694D01*
X020267Y006576D02*
X019167Y006576D01*
X019049Y006457D02*
X020386Y006457D01*
X020504Y006339D02*
X018930Y006339D01*
X018812Y006220D02*
X020623Y006220D01*
X020741Y006102D02*
X018693Y006102D01*
X018575Y005983D02*
X020860Y005983D01*
X020978Y005865D02*
X018456Y005865D01*
X018338Y005746D02*
X021097Y005746D01*
X021215Y005628D02*
X018219Y005628D01*
X018101Y005509D02*
X021334Y005509D01*
X022690Y006457D02*
X024997Y006457D01*
X025019Y006339D02*
X024697Y006339D01*
X024816Y006220D02*
X025019Y006220D01*
X025436Y006125D02*
X025873Y005688D01*
X025436Y006125D02*
X025436Y006636D01*
X023207Y006576D02*
X023148Y006576D01*
X018748Y006694D02*
X016528Y006694D01*
X016528Y006576D02*
X018630Y006576D01*
X018511Y006457D02*
X016528Y006457D01*
X016528Y006339D02*
X018393Y006339D01*
X018274Y006220D02*
X016528Y006220D01*
X016528Y006102D02*
X018156Y006102D01*
X018037Y005983D02*
X016528Y005983D01*
X016528Y005865D02*
X017919Y005865D01*
X017800Y005746D02*
X016528Y005746D01*
X016528Y005628D02*
X017175Y005628D01*
X017032Y005509D02*
X016528Y005509D01*
X016528Y005391D02*
X016987Y005391D01*
X016988Y005272D02*
X016528Y005272D01*
X016528Y005154D02*
X017039Y005154D01*
X017144Y005035D02*
X016528Y005035D01*
X016528Y004917D02*
X017089Y004917D01*
X017086Y004798D02*
X016504Y004798D01*
X016619Y004680D02*
X016283Y004680D01*
X016283Y004561D02*
X016563Y004561D01*
X016563Y004443D02*
X016283Y004443D01*
X016283Y004324D02*
X016563Y004324D01*
X016563Y004206D02*
X016283Y004206D01*
X016283Y004087D02*
X016563Y004087D01*
X016475Y003969D02*
X016283Y003969D01*
X015903Y003969D02*
X015279Y003969D01*
X015301Y004087D02*
X015903Y004087D01*
X015903Y004206D02*
X015271Y004206D01*
X015156Y004324D02*
X015903Y004324D01*
X015903Y004443D02*
X015007Y004443D01*
X015125Y004561D02*
X015903Y004561D01*
X015903Y004680D02*
X015244Y004680D01*
X015362Y004798D02*
X015682Y004798D01*
X015658Y004917D02*
X015481Y004917D01*
X015599Y005035D02*
X015658Y005035D01*
X014889Y004324D02*
X014847Y004324D01*
X015022Y004077D02*
X014530Y004077D01*
X014510Y004058D01*
X014847Y003850D02*
X014855Y003850D01*
X014796Y003732D02*
X015668Y003732D01*
X015786Y003850D02*
X015190Y003850D01*
X015431Y003495D02*
X013767Y003495D01*
X013649Y003613D02*
X015549Y003613D01*
X015312Y003376D02*
X013886Y003376D01*
X014004Y003258D02*
X015194Y003258D01*
X015096Y003139D02*
X014476Y003139D01*
X014595Y003021D02*
X014977Y003021D01*
X014859Y002902D02*
X014713Y002902D01*
X014726Y002784D02*
X014846Y002784D01*
X014846Y002665D02*
X014726Y002665D01*
X014726Y002547D02*
X014846Y002547D01*
X014943Y002428D02*
X014629Y002428D01*
X014511Y002310D02*
X015061Y002310D01*
X015511Y002310D02*
X016061Y002310D01*
X015943Y002428D02*
X015629Y002428D01*
X015726Y002547D02*
X015846Y002547D01*
X015846Y002665D02*
X015726Y002665D01*
X015726Y002784D02*
X015846Y002784D01*
X015859Y002902D02*
X015713Y002902D01*
X015595Y003021D02*
X015977Y003021D01*
X016096Y003139D02*
X015612Y003139D01*
X015731Y003258D02*
X016568Y003258D01*
X016602Y003376D02*
X016686Y003376D01*
X016679Y003495D02*
X016781Y003495D01*
X016781Y003613D02*
X016699Y003613D01*
X016776Y003732D02*
X016781Y003732D01*
X016082Y003495D02*
X015968Y003495D01*
X015849Y003376D02*
X016159Y003376D01*
X016868Y003021D02*
X016977Y003021D01*
X016987Y003139D02*
X017096Y003139D01*
X017104Y003147D02*
X016846Y002889D01*
X016846Y002525D01*
X017104Y002267D01*
X017468Y002267D01*
X017726Y002525D01*
X017726Y002889D01*
X017468Y003147D01*
X017104Y003147D01*
X017476Y003139D02*
X018096Y003139D01*
X018068Y003258D02*
X017981Y003258D01*
X017981Y003376D02*
X018068Y003376D01*
X018068Y003495D02*
X017981Y003495D01*
X017981Y003732D02*
X018068Y003732D01*
X018062Y003850D02*
X018062Y003850D01*
X018062Y003969D02*
X018062Y003969D01*
X018062Y004087D02*
X018062Y004087D01*
X018062Y004206D02*
X018062Y004206D01*
X018062Y004324D02*
X018062Y004324D01*
X018062Y004443D02*
X018062Y004443D01*
X018062Y004561D02*
X018062Y004561D01*
X018062Y004680D02*
X018062Y004680D01*
X018147Y004798D02*
X017937Y004798D01*
X017937Y004917D02*
X018129Y004917D01*
X018157Y005035D02*
X017937Y005035D01*
X017937Y005154D02*
X018247Y005154D01*
X017682Y005628D02*
X017437Y005628D01*
X013841Y004058D02*
X012601Y004058D01*
X012562Y004018D01*
X012524Y003732D02*
X012993Y003732D01*
X013111Y003613D02*
X012405Y003613D01*
X012269Y003495D02*
X013230Y003495D01*
X013348Y003376D02*
X012443Y003376D01*
X012562Y003258D02*
X013467Y003258D01*
X013585Y003139D02*
X012680Y003139D01*
X012799Y003021D02*
X013704Y003021D01*
X013822Y002902D02*
X012990Y002902D01*
X013056Y002784D02*
X013846Y002784D01*
X013846Y002665D02*
X013056Y002665D01*
X013056Y002547D02*
X013846Y002547D01*
X013943Y002428D02*
X013056Y002428D01*
X013056Y002310D02*
X014061Y002310D01*
X014746Y001599D02*
X014846Y001599D01*
X014891Y001480D02*
X014709Y001480D01*
X015681Y001480D02*
X015891Y001480D01*
X015846Y001599D02*
X015726Y001599D01*
X015726Y001717D02*
X015846Y001717D01*
X015846Y001836D02*
X015726Y001836D01*
X015661Y001954D02*
X015911Y001954D01*
X016029Y002073D02*
X015543Y002073D01*
X016511Y002310D02*
X017061Y002310D01*
X016943Y002428D02*
X016629Y002428D01*
X016726Y002547D02*
X016846Y002547D01*
X016846Y002665D02*
X016726Y002665D01*
X016726Y002784D02*
X016846Y002784D01*
X016859Y002902D02*
X016750Y002902D01*
X017595Y003021D02*
X017977Y003021D01*
X017859Y002902D02*
X017713Y002902D01*
X017726Y002784D02*
X017846Y002784D01*
X017846Y002665D02*
X017726Y002665D01*
X017726Y002547D02*
X017846Y002547D01*
X017943Y002428D02*
X017629Y002428D01*
X017511Y002310D02*
X018061Y002310D01*
X018029Y002073D02*
X017543Y002073D01*
X017661Y001954D02*
X017911Y001954D01*
X017846Y001836D02*
X017726Y001836D01*
X017726Y001717D02*
X017846Y001717D01*
X017846Y001599D02*
X017726Y001599D01*
X017681Y001480D02*
X017891Y001480D01*
X016891Y001480D02*
X016681Y001480D01*
X016726Y001599D02*
X016846Y001599D01*
X016846Y001717D02*
X016726Y001717D01*
X016726Y001836D02*
X016846Y001836D01*
X016911Y001954D02*
X016661Y001954D01*
X016543Y002073D02*
X017029Y002073D01*
X017605Y003258D02*
X017731Y003258D01*
X014225Y003732D02*
X014126Y003732D01*
X013556Y003732D02*
X013530Y003732D01*
X013504Y003850D02*
X013412Y003850D01*
X021333Y003021D02*
X021336Y003021D01*
X021716Y002902D02*
X021889Y002902D01*
X022700Y003021D02*
X022777Y003021D01*
X022777Y003139D02*
X022700Y003139D01*
X022700Y003258D02*
X022777Y003258D01*
X022739Y003329D02*
X022739Y003467D01*
X022758Y003487D01*
X022777Y003495D02*
X022700Y003495D01*
X022700Y003613D02*
X022777Y003613D01*
X022777Y003376D02*
X022700Y003376D01*
X023291Y003258D02*
X023368Y003258D01*
X023368Y003139D02*
X023291Y003139D01*
X023291Y003021D02*
X023368Y003021D01*
X024135Y003376D02*
X024216Y003376D01*
X025042Y003152D02*
X025042Y002758D01*
X025298Y002758D02*
X025298Y003270D01*
X026498Y003021D02*
X026618Y003021D01*
X026618Y002902D02*
X026498Y002902D01*
X026498Y002784D02*
X026618Y002784D01*
X027306Y002857D02*
X027306Y002985D01*
X027690Y003369D01*
X027867Y003191D01*
X028113Y003191D01*
X028310Y003191D01*
X028506Y002995D01*
X028506Y002699D01*
X028251Y002443D01*
X028113Y002443D01*
X027874Y002428D02*
X027033Y002428D01*
X027033Y002547D02*
X027874Y002547D01*
X027863Y002665D02*
X027509Y002665D01*
X027577Y002784D02*
X027854Y002784D01*
X027854Y002817D02*
X028113Y002817D01*
X028113Y002817D01*
X027854Y002817D01*
X027854Y002902D02*
X027585Y002902D01*
X028526Y003258D02*
X028780Y003258D01*
X028780Y003139D02*
X028645Y003139D01*
X028706Y003021D02*
X028794Y003021D01*
X028706Y002902D02*
X028966Y002902D01*
X029136Y003014D02*
X029678Y003014D01*
X030130Y003467D01*
X030150Y003447D01*
X030337Y003447D01*
X030613Y003723D01*
X030869Y003613D02*
X031576Y003613D01*
X031576Y003732D02*
X030892Y003732D01*
X030949Y003850D02*
X031576Y003850D01*
X031576Y003969D02*
X031057Y003969D01*
X031060Y004087D02*
X031576Y004087D01*
X031576Y004206D02*
X031502Y004206D01*
X031956Y004087D02*
X032576Y004087D01*
X032576Y003969D02*
X031956Y003969D01*
X031956Y003850D02*
X032576Y003850D01*
X032576Y003732D02*
X031956Y003732D01*
X031956Y003613D02*
X032576Y003613D01*
X032478Y003495D02*
X032055Y003495D01*
X032153Y003376D02*
X032379Y003376D01*
X032330Y003258D02*
X032202Y003258D01*
X032206Y003139D02*
X032326Y003139D01*
X032326Y003021D02*
X032206Y003021D01*
X032206Y002902D02*
X032326Y002902D01*
X032326Y002784D02*
X032206Y002784D01*
X032206Y002665D02*
X032326Y002665D01*
X032326Y002547D02*
X032206Y002547D01*
X032188Y002428D02*
X032345Y002428D01*
X032395Y002310D02*
X032137Y002310D01*
X032019Y002191D02*
X032514Y002191D01*
X033019Y002191D02*
X033493Y002191D01*
X033467Y002210D02*
X033525Y002167D01*
X033590Y002134D01*
X033659Y002112D01*
X033726Y002101D01*
X033726Y002821D01*
X033306Y002821D01*
X033306Y002525D01*
X033318Y002453D01*
X033340Y002384D01*
X033373Y002320D01*
X033415Y002261D01*
X033467Y002210D01*
X033380Y002310D02*
X033137Y002310D01*
X033188Y002428D02*
X033326Y002428D01*
X033306Y002547D02*
X033206Y002547D01*
X033206Y002665D02*
X033306Y002665D01*
X033306Y002784D02*
X033206Y002784D01*
X033206Y002902D02*
X033306Y002902D01*
X033306Y002901D02*
X033726Y002901D01*
X033726Y002821D01*
X033806Y002821D01*
X033806Y002101D01*
X033874Y002112D01*
X033943Y002134D01*
X034007Y002167D01*
X034066Y002210D01*
X034117Y002261D01*
X034160Y002320D01*
X034193Y002384D01*
X034215Y002453D01*
X034226Y002525D01*
X034226Y002821D01*
X033806Y002821D01*
X033806Y002901D01*
X033726Y002901D01*
X033726Y003620D01*
X033659Y003609D01*
X033590Y003587D01*
X033525Y003554D01*
X033467Y003512D01*
X033415Y003460D01*
X033373Y003402D01*
X033340Y003337D01*
X033318Y003269D01*
X033306Y003197D01*
X033306Y002901D01*
X033306Y003021D02*
X033206Y003021D01*
X033206Y003139D02*
X033306Y003139D01*
X033316Y003258D02*
X033202Y003258D01*
X033153Y003376D02*
X033360Y003376D01*
X033450Y003495D02*
X033055Y003495D01*
X032956Y003613D02*
X033681Y003613D01*
X033726Y003613D02*
X033806Y003613D01*
X033806Y003620D02*
X033806Y002901D01*
X034226Y002901D01*
X034226Y003197D01*
X034215Y003269D01*
X034193Y003337D01*
X034160Y003402D01*
X034117Y003460D01*
X034066Y003512D01*
X034007Y003554D01*
X033943Y003587D01*
X033874Y003609D01*
X033806Y003620D01*
X033851Y003613D02*
X037305Y003613D01*
X037305Y003495D02*
X034083Y003495D01*
X034173Y003376D02*
X037305Y003376D01*
X037305Y003258D02*
X034217Y003258D01*
X034226Y003139D02*
X037305Y003139D01*
X037305Y003021D02*
X034226Y003021D01*
X034226Y002902D02*
X037305Y002902D01*
X037305Y002784D02*
X034226Y002784D01*
X034226Y002665D02*
X037305Y002665D01*
X037305Y002547D02*
X034226Y002547D01*
X034207Y002428D02*
X037305Y002428D01*
X037305Y002310D02*
X034152Y002310D01*
X034040Y002191D02*
X037305Y002191D01*
X037302Y002073D02*
X026947Y002073D01*
X026932Y002088D02*
X026867Y002135D01*
X026794Y002172D01*
X026717Y002197D01*
X026655Y002207D01*
X026655Y001754D01*
X027109Y001754D01*
X027099Y001816D01*
X027074Y001893D01*
X027037Y001965D01*
X026989Y002030D01*
X026932Y002088D01*
X027042Y001954D02*
X037282Y001954D01*
X037244Y001836D02*
X027092Y001836D01*
X026655Y001836D02*
X026539Y001836D01*
X026539Y001954D02*
X026655Y001954D01*
X026655Y002073D02*
X026539Y002073D01*
X026539Y002191D02*
X026655Y002191D01*
X026736Y002191D02*
X031514Y002191D01*
X031395Y002310D02*
X030772Y002310D01*
X030782Y002327D02*
X030792Y002367D01*
X030792Y002558D01*
X030469Y002558D01*
X030469Y002228D01*
X030654Y002228D01*
X030694Y002239D01*
X030731Y002260D01*
X030760Y002290D01*
X030782Y002327D01*
X030792Y002428D02*
X031345Y002428D01*
X031326Y002547D02*
X030792Y002547D01*
X030792Y002665D02*
X031326Y002665D01*
X031326Y002784D02*
X030792Y002784D01*
X030766Y002902D02*
X031326Y002902D01*
X031326Y003021D02*
X029967Y003021D01*
X030053Y002902D02*
X030085Y002902D01*
X030382Y002902D02*
X030469Y002902D01*
X030469Y002784D02*
X030382Y002784D01*
X030382Y002665D02*
X030469Y002665D01*
X030469Y002547D02*
X030382Y002547D01*
X030382Y002428D02*
X030469Y002428D01*
X030469Y002310D02*
X030382Y002310D01*
X030080Y002310D02*
X030063Y002310D01*
X029737Y002601D02*
X029579Y002443D01*
X029018Y002443D01*
X028780Y002428D02*
X028518Y002428D01*
X028399Y002310D02*
X028780Y002310D01*
X028780Y002547D02*
X028636Y002547D01*
X028706Y002665D02*
X028845Y002665D01*
X028706Y002784D02*
X029390Y002784D01*
X029390Y002665D02*
X029192Y002665D01*
X029136Y003014D02*
X029018Y003132D01*
X029018Y003191D01*
X028808Y003376D02*
X028408Y003376D01*
X028036Y003495D02*
X029398Y003495D01*
X029075Y003613D02*
X028036Y003613D01*
X028898Y004206D02*
X028939Y004195D01*
X029282Y004195D01*
X029282Y004441D01*
X029282Y004441D01*
X029282Y004195D01*
X029497Y004195D01*
X029373Y004070D01*
X026538Y004070D01*
X026374Y004235D01*
X026374Y004373D01*
X026419Y004418D01*
X026419Y004297D01*
X026501Y004215D01*
X027260Y004215D01*
X027297Y004251D01*
X028378Y004251D01*
X028605Y004478D01*
X028800Y004478D01*
X028800Y004442D01*
X029282Y004442D01*
X029282Y004441D01*
X028800Y004441D01*
X028800Y004334D01*
X028811Y004293D01*
X028832Y004257D01*
X028862Y004227D01*
X028898Y004206D01*
X028899Y004206D02*
X026403Y004206D01*
X026419Y004324D02*
X026374Y004324D01*
X026521Y004087D02*
X029389Y004087D01*
X029282Y004206D02*
X029282Y004206D01*
X029282Y004324D02*
X029282Y004324D01*
X028803Y004324D02*
X028451Y004324D01*
X028570Y004443D02*
X028800Y004443D01*
X028820Y004858D02*
X028447Y004858D01*
X028336Y004747D01*
X028221Y004631D01*
X027342Y004631D01*
X027342Y004763D01*
X028064Y004763D01*
X028605Y005305D01*
X028800Y005305D01*
X028800Y005209D01*
X028800Y005102D01*
X028811Y005061D01*
X028820Y005045D01*
X028820Y004858D01*
X028820Y004917D02*
X028217Y004917D01*
X028335Y005035D02*
X028820Y005035D01*
X028800Y005154D02*
X028454Y005154D01*
X028572Y005272D02*
X028800Y005272D01*
X028800Y005209D02*
X029282Y005209D01*
X028800Y005209D01*
X029282Y005209D02*
X029282Y005209D01*
X029884Y005613D02*
X029884Y005810D01*
X031583Y005509D02*
X031944Y005509D01*
X032062Y005391D02*
X031583Y005391D01*
X031583Y005272D02*
X032109Y005272D01*
X032173Y005154D02*
X031583Y005154D01*
X031680Y005035D02*
X032739Y005035D01*
X032857Y005154D02*
X032595Y005154D01*
X032659Y005272D02*
X032976Y005272D01*
X033075Y005391D02*
X032663Y005391D01*
X032607Y005509D02*
X033075Y005509D01*
X033067Y005628D02*
X032363Y005628D01*
X032349Y005746D02*
X032244Y005746D01*
X032696Y005746D02*
X033055Y005746D01*
X033055Y005770D02*
X033491Y005770D01*
X033491Y005770D01*
X033926Y005770D01*
X033926Y005765D01*
X034395Y005765D01*
X034475Y005685D01*
X034555Y005765D01*
X035064Y005765D01*
X035141Y005688D01*
X035160Y005731D01*
X035238Y005810D01*
X035301Y005836D01*
X033926Y005836D01*
X033926Y005770D01*
X033491Y005770D01*
X033491Y005770D01*
X033055Y005770D01*
X033055Y005865D02*
X032782Y005865D01*
X032801Y005983D02*
X033075Y005983D01*
X033075Y006102D02*
X032769Y006102D01*
X032641Y006220D02*
X033055Y006220D01*
X033055Y006282D02*
X033491Y006282D01*
X033491Y006282D01*
X033055Y006282D01*
X033055Y006339D02*
X032698Y006339D01*
X032742Y006457D02*
X033075Y006457D01*
X033075Y006576D02*
X032733Y006576D01*
X032662Y006694D02*
X033075Y006694D01*
X033034Y006813D02*
X031648Y006813D01*
X031583Y006694D02*
X032264Y006694D01*
X032193Y006576D02*
X031583Y006576D01*
X031767Y006931D02*
X032915Y006931D01*
X032797Y007050D02*
X031885Y007050D01*
X032146Y007168D02*
X032336Y007168D01*
X032331Y007287D02*
X032190Y007287D01*
X032190Y007405D02*
X032331Y007405D01*
X032331Y007524D02*
X032190Y007524D01*
X032190Y007642D02*
X032331Y007642D01*
X032370Y007761D02*
X032190Y007761D01*
X032053Y007879D02*
X032468Y007879D01*
X032468Y007998D02*
X032053Y007998D01*
X032053Y008116D02*
X032468Y008116D01*
X032468Y008235D02*
X032184Y008235D01*
X032244Y008353D02*
X032415Y008353D01*
X032389Y008472D02*
X032269Y008472D01*
X032269Y008590D02*
X032389Y008590D01*
X032389Y008709D02*
X032269Y008709D01*
X032269Y008827D02*
X032389Y008827D01*
X032389Y008946D02*
X032269Y008946D01*
X032269Y009064D02*
X032389Y009064D01*
X032389Y009183D02*
X032269Y009183D01*
X032223Y009301D02*
X032436Y009301D01*
X032525Y009420D02*
X032134Y009420D01*
X032926Y009538D02*
X033684Y009538D01*
X033653Y009528D02*
X033588Y009495D01*
X033530Y009453D01*
X033478Y009401D01*
X033436Y009343D01*
X033403Y009278D01*
X033381Y009209D01*
X033369Y009138D01*
X033369Y008842D01*
X033789Y008842D01*
X033789Y008762D01*
X033369Y008762D01*
X033369Y008466D01*
X033381Y008394D01*
X033403Y008325D01*
X033436Y008261D01*
X033478Y008202D01*
X033530Y008151D01*
X033588Y008108D01*
X033653Y008075D01*
X033722Y008053D01*
X033789Y008042D01*
X033789Y008762D01*
X033869Y008762D01*
X033869Y008042D01*
X033937Y008053D01*
X034006Y008075D01*
X034070Y008108D01*
X034129Y008151D01*
X034180Y008202D01*
X034223Y008261D01*
X034256Y008325D01*
X034278Y008394D01*
X034289Y008466D01*
X034289Y008762D01*
X033869Y008762D01*
X033869Y008842D01*
X033789Y008842D01*
X033789Y009561D01*
X033722Y009550D01*
X033653Y009528D01*
X033789Y009538D02*
X033869Y009538D01*
X033869Y009561D02*
X033869Y008842D01*
X034289Y008842D01*
X034289Y009138D01*
X034278Y009209D01*
X034256Y009278D01*
X034223Y009343D01*
X034180Y009401D01*
X034129Y009453D01*
X034070Y009495D01*
X034006Y009528D01*
X033937Y009550D01*
X033869Y009561D01*
X033975Y009538D02*
X037305Y009538D01*
X037305Y009420D02*
X034162Y009420D01*
X034244Y009301D02*
X037305Y009301D01*
X037305Y009183D02*
X034282Y009183D01*
X034289Y009064D02*
X037305Y009064D01*
X037305Y008946D02*
X034289Y008946D01*
X034289Y008709D02*
X037305Y008709D01*
X037305Y008827D02*
X033869Y008827D01*
X033789Y008827D02*
X033269Y008827D01*
X033269Y008709D02*
X033369Y008709D01*
X033369Y008590D02*
X033269Y008590D01*
X033269Y008472D02*
X033369Y008472D01*
X033394Y008353D02*
X033244Y008353D01*
X033184Y008235D02*
X033455Y008235D01*
X033577Y008116D02*
X033048Y008116D01*
X032868Y007998D02*
X037305Y007998D01*
X037305Y008116D02*
X034081Y008116D01*
X034204Y008235D02*
X037305Y008235D01*
X037305Y008353D02*
X034265Y008353D01*
X034289Y008472D02*
X037305Y008472D01*
X037305Y008590D02*
X034289Y008590D01*
X033869Y008590D02*
X033789Y008590D01*
X033789Y008472D02*
X033869Y008472D01*
X033869Y008353D02*
X033789Y008353D01*
X033789Y008235D02*
X033869Y008235D01*
X033869Y008116D02*
X033789Y008116D01*
X034179Y007761D02*
X034228Y007761D01*
X034848Y007761D02*
X035471Y007761D01*
X035417Y007642D02*
X034875Y007642D01*
X034875Y007524D02*
X035417Y007524D01*
X035747Y007524D02*
X035833Y007524D01*
X035833Y007477D02*
X035833Y007800D01*
X036024Y007800D01*
X036064Y007789D01*
X036101Y007768D01*
X036131Y007739D01*
X036152Y007702D01*
X036163Y007661D01*
X036163Y007477D01*
X035833Y007477D01*
X035833Y007405D02*
X037305Y007405D01*
X037305Y007287D02*
X036163Y007287D01*
X036152Y007168D02*
X036325Y007168D01*
X036116Y007050D02*
X036102Y007050D01*
X035478Y007050D02*
X034730Y007050D01*
X034858Y007168D02*
X035427Y007168D01*
X035417Y007287D02*
X034875Y007287D01*
X034875Y007405D02*
X035747Y007405D01*
X035747Y007642D02*
X035833Y007642D01*
X035833Y007761D02*
X035747Y007761D01*
X036109Y007761D02*
X037305Y007761D01*
X037305Y007879D02*
X032868Y007879D01*
X032966Y007761D02*
X033039Y007761D01*
X032668Y007447D02*
X032668Y008640D01*
X032829Y008802D01*
X033269Y008946D02*
X033369Y008946D01*
X033369Y009064D02*
X033269Y009064D01*
X033269Y009183D02*
X033376Y009183D01*
X033415Y009301D02*
X033223Y009301D01*
X033134Y009420D02*
X033497Y009420D01*
X033789Y009420D02*
X033869Y009420D01*
X033869Y009301D02*
X033789Y009301D01*
X033789Y009183D02*
X033869Y009183D01*
X033869Y009064D02*
X033789Y009064D01*
X033789Y008946D02*
X033869Y008946D01*
X033869Y008709D02*
X033789Y008709D01*
X031853Y008778D02*
X031829Y008802D01*
X031853Y008778D02*
X031853Y007487D01*
X031653Y007879D02*
X031044Y007879D01*
X035091Y006931D02*
X035437Y006931D01*
X035431Y006813D02*
X035437Y006813D01*
X035204Y006813D02*
X035139Y006813D01*
X035790Y006745D02*
X035869Y006666D01*
X035869Y006558D01*
X035804Y006731D02*
X035790Y006745D01*
X035804Y006731D02*
X036719Y006731D01*
X036332Y006291D02*
X037107Y006291D01*
X037268Y006358D01*
X037305Y006394D01*
X037305Y006092D01*
X037260Y006124D01*
X037196Y006157D01*
X037127Y006180D01*
X037055Y006191D01*
X036759Y006191D01*
X036759Y005771D01*
X036679Y005771D01*
X036679Y006191D01*
X036383Y006191D01*
X036311Y006180D01*
X036242Y006157D01*
X036178Y006124D01*
X036119Y006082D01*
X036068Y006031D01*
X036026Y005972D01*
X035993Y005907D01*
X035970Y005839D01*
X035960Y005771D01*
X036679Y005771D01*
X036679Y005691D01*
X035960Y005691D01*
X035970Y005623D01*
X035993Y005554D01*
X036026Y005490D01*
X036068Y005431D01*
X036119Y005380D01*
X036178Y005337D01*
X036242Y005305D01*
X036311Y005282D01*
X036383Y005271D01*
X036679Y005271D01*
X036679Y005691D01*
X036759Y005691D01*
X036759Y005271D01*
X037055Y005271D01*
X037127Y005282D01*
X037196Y005305D01*
X037260Y005337D01*
X037305Y005370D01*
X037305Y005067D01*
X037268Y005104D01*
X037107Y005171D01*
X036332Y005171D01*
X036170Y005104D01*
X036159Y005093D01*
X036088Y005164D01*
X035971Y005281D01*
X035867Y005281D01*
X035867Y005395D01*
X035785Y005477D01*
X035658Y005477D01*
X035675Y005518D01*
X035675Y005629D01*
X035633Y005731D01*
X035554Y005810D01*
X035452Y005852D01*
X035432Y005852D01*
X035937Y006358D01*
X035952Y006358D01*
X035992Y006398D01*
X036061Y006398D01*
X036095Y006433D01*
X036170Y006358D01*
X036332Y006291D01*
X036216Y006339D02*
X035918Y006339D01*
X035800Y006220D02*
X037305Y006220D01*
X037291Y006102D02*
X037305Y006102D01*
X037305Y006339D02*
X037222Y006339D01*
X036759Y006102D02*
X036679Y006102D01*
X036679Y005983D02*
X036759Y005983D01*
X036759Y005865D02*
X036679Y005865D01*
X036679Y005746D02*
X035618Y005746D01*
X035675Y005628D02*
X035970Y005628D01*
X036016Y005509D02*
X035672Y005509D01*
X035867Y005391D02*
X036109Y005391D01*
X035980Y005272D02*
X036375Y005272D01*
X036290Y005154D02*
X036099Y005154D01*
X035888Y005081D02*
X035564Y005081D01*
X035514Y005130D01*
X035396Y005249D01*
X035396Y005573D01*
X035174Y005746D02*
X035083Y005746D01*
X035444Y005865D02*
X035979Y005865D01*
X036034Y005983D02*
X035563Y005983D01*
X035681Y006102D02*
X036147Y006102D01*
X036679Y005628D02*
X036759Y005628D01*
X036759Y005509D02*
X036679Y005509D01*
X036679Y005391D02*
X036759Y005391D01*
X036759Y005272D02*
X036679Y005272D01*
X037063Y005272D02*
X037305Y005272D01*
X037305Y005154D02*
X037148Y005154D01*
X036719Y004731D02*
X036239Y004731D01*
X035888Y005081D01*
X035889Y004798D02*
X035799Y004798D01*
X035884Y004680D02*
X035979Y004680D01*
X036013Y004561D02*
X035887Y004561D01*
X035887Y004398D02*
X035558Y004398D01*
X035558Y004075D01*
X035748Y004075D01*
X035789Y004086D01*
X035825Y004107D01*
X035855Y004137D01*
X035876Y004173D01*
X035887Y004214D01*
X035887Y004398D01*
X035887Y004324D02*
X036251Y004324D01*
X036085Y004443D02*
X035558Y004443D01*
X035471Y004443D02*
X034863Y004443D01*
X034863Y004561D02*
X035142Y004561D01*
X035142Y004398D02*
X035142Y004214D01*
X035153Y004173D01*
X035174Y004137D01*
X035203Y004107D01*
X035240Y004086D01*
X035281Y004075D01*
X035471Y004075D01*
X035471Y004398D01*
X035142Y004398D01*
X035142Y004324D02*
X034863Y004324D01*
X035144Y004206D02*
X032956Y004206D01*
X032956Y004087D02*
X035238Y004087D01*
X035471Y004087D02*
X035558Y004087D01*
X035558Y004206D02*
X035471Y004206D01*
X035471Y004324D02*
X035558Y004324D01*
X035791Y004087D02*
X037305Y004087D01*
X037305Y003969D02*
X032956Y003969D01*
X032956Y003850D02*
X037305Y003850D01*
X037305Y003732D02*
X032956Y003732D01*
X033726Y003495D02*
X033806Y003495D01*
X033806Y003376D02*
X033726Y003376D01*
X033726Y003258D02*
X033806Y003258D01*
X033806Y003139D02*
X033726Y003139D01*
X033726Y003021D02*
X033806Y003021D01*
X033806Y002902D02*
X033726Y002902D01*
X033726Y002784D02*
X033806Y002784D01*
X033806Y002665D02*
X033726Y002665D01*
X033726Y002547D02*
X033806Y002547D01*
X033806Y002428D02*
X033726Y002428D01*
X033726Y002310D02*
X033806Y002310D01*
X033806Y002191D02*
X033726Y002191D01*
X031326Y003139D02*
X030420Y003139D01*
X030477Y003258D02*
X031330Y003258D01*
X031379Y003376D02*
X030549Y003376D01*
X030537Y003365D02*
X030537Y003365D01*
X030779Y003495D02*
X031478Y003495D01*
X030373Y003872D02*
X030351Y003820D01*
X029866Y003820D01*
X029794Y003748D01*
X029776Y003778D01*
X029746Y003808D01*
X029710Y003829D01*
X029677Y003838D01*
X030390Y004551D01*
X030399Y004542D01*
X030369Y004524D01*
X030339Y004494D01*
X030318Y004458D01*
X030307Y004417D01*
X030307Y004238D01*
X030645Y004238D01*
X030645Y004161D01*
X030307Y004161D01*
X030307Y003981D01*
X030318Y003941D01*
X030339Y003904D01*
X030369Y003874D01*
X030373Y003872D01*
X030363Y003850D02*
X029690Y003850D01*
X029808Y003969D02*
X030311Y003969D01*
X030307Y004087D02*
X029927Y004087D01*
X030045Y004206D02*
X030645Y004206D01*
X030722Y004206D02*
X030960Y004206D01*
X030307Y004324D02*
X030164Y004324D01*
X030282Y004443D02*
X030314Y004443D01*
X031798Y004917D02*
X032408Y004917D01*
X032331Y004798D02*
X032237Y004798D01*
X032237Y004680D02*
X032331Y004680D01*
X032331Y004561D02*
X032237Y004561D01*
X032237Y004443D02*
X032331Y004443D01*
X032331Y004324D02*
X032237Y004324D01*
X032171Y004206D02*
X032576Y004206D01*
X035885Y004206D02*
X037305Y004206D01*
X037305Y004324D02*
X037187Y004324D01*
X034536Y005746D02*
X034414Y005746D01*
X037113Y007168D02*
X037305Y007168D01*
X037305Y007524D02*
X036163Y007524D01*
X036163Y007642D02*
X037305Y007642D01*
X037305Y009657D02*
X035539Y009657D01*
X035657Y009775D02*
X037305Y009775D01*
X037305Y009894D02*
X035776Y009894D01*
X035894Y010012D02*
X037305Y010012D01*
X037305Y010131D02*
X036013Y010131D01*
X036131Y010249D02*
X037305Y010249D01*
X037305Y010368D02*
X036250Y010368D01*
X036368Y010486D02*
X037305Y010486D01*
X037305Y010605D02*
X036463Y010605D01*
X036463Y010723D02*
X037305Y010723D01*
X037305Y010842D02*
X036463Y010842D01*
X036463Y010960D02*
X037305Y010960D01*
X037305Y011079D02*
X036463Y011079D01*
X036463Y011197D02*
X037305Y011197D01*
X037305Y011316D02*
X036463Y011316D01*
X036463Y011434D02*
X037305Y011434D01*
X037305Y011553D02*
X036463Y011553D01*
X036463Y011671D02*
X037305Y011671D01*
X037305Y011790D02*
X036463Y011790D01*
X036463Y011908D02*
X037305Y011908D01*
X037305Y012027D02*
X036463Y012027D01*
X036463Y012145D02*
X037305Y012145D01*
X037305Y012264D02*
X036463Y012264D01*
X036463Y012382D02*
X037305Y012382D01*
X037305Y012501D02*
X036463Y012501D01*
X036463Y012619D02*
X037305Y012619D01*
X037305Y012738D02*
X036463Y012738D01*
X036463Y012856D02*
X037305Y012856D01*
X037305Y012975D02*
X036463Y012975D01*
X036463Y013093D02*
X037305Y013093D01*
X037305Y013212D02*
X036463Y013212D01*
X036463Y013330D02*
X037305Y013330D01*
X037305Y013449D02*
X036463Y013449D01*
X036463Y013567D02*
X037305Y013567D01*
X037305Y013686D02*
X036463Y013686D01*
X036463Y013804D02*
X037305Y013804D01*
X037305Y013923D02*
X036463Y013923D01*
X036463Y014041D02*
X037305Y014041D01*
X037305Y014160D02*
X036463Y014160D01*
X036463Y014278D02*
X037305Y014278D01*
X037305Y014397D02*
X036463Y014397D01*
X036463Y014515D02*
X037305Y014515D01*
X037305Y014634D02*
X036463Y014634D01*
X036463Y014752D02*
X037305Y014752D01*
X037305Y014871D02*
X036463Y014871D01*
X036463Y014989D02*
X037305Y014989D01*
X037305Y015108D02*
X036463Y015108D01*
X036463Y015226D02*
X037305Y015226D01*
X037305Y015345D02*
X036463Y015345D01*
X036463Y015463D02*
X037305Y015463D01*
X037305Y015582D02*
X036463Y015582D01*
X036463Y015700D02*
X037305Y015700D01*
X037305Y015819D02*
X036463Y015819D01*
X036463Y015937D02*
X037301Y015937D01*
X037278Y016056D02*
X036463Y016056D01*
X036463Y016174D02*
X037240Y016174D01*
X037172Y016293D02*
X036445Y016293D01*
X036326Y016411D02*
X037080Y016411D01*
X036917Y016530D02*
X036208Y016530D01*
X035876Y016239D02*
X036023Y016092D01*
X036023Y012170D01*
X035873Y012170D01*
X035873Y012503D01*
X035828Y012613D01*
X035743Y012698D01*
X035673Y012768D01*
X035867Y012963D01*
X035913Y013073D01*
X035913Y013120D01*
X035965Y013173D01*
X035965Y013702D01*
X035886Y013782D01*
X035965Y013862D01*
X035965Y014391D01*
X035883Y014473D01*
X035690Y014473D01*
X035421Y014742D01*
X035414Y014759D01*
X035330Y014843D01*
X035291Y014882D01*
X035765Y014882D01*
X035847Y014964D01*
X035847Y015494D01*
X035775Y015566D01*
X035805Y015583D01*
X035835Y015613D01*
X035856Y015649D01*
X035867Y015690D01*
X035867Y015875D01*
X035538Y015875D01*
X035538Y015961D01*
X035867Y015961D01*
X035867Y016146D01*
X035856Y016186D01*
X035835Y016223D01*
X035819Y016239D01*
X035876Y016239D01*
X035860Y016174D02*
X035941Y016174D01*
X035867Y016056D02*
X036023Y016056D01*
X036023Y015937D02*
X035538Y015937D01*
X035451Y015937D02*
X035096Y015937D01*
X035096Y015943D02*
X035085Y015984D01*
X035064Y016020D01*
X035034Y016050D01*
X035010Y016064D01*
X035030Y016084D01*
X035056Y016084D01*
X035123Y016151D01*
X035122Y016146D01*
X035122Y015961D01*
X035451Y015961D01*
X035451Y015875D01*
X035122Y015875D01*
X035122Y015690D01*
X035133Y015649D01*
X035154Y015613D01*
X035163Y015604D01*
X035073Y015604D01*
X035085Y015624D01*
X035096Y015665D01*
X035096Y015804D01*
X035096Y015943D01*
X035122Y016056D02*
X035024Y016056D01*
X035096Y015819D02*
X035122Y015819D01*
X035096Y015804D02*
X034630Y015804D01*
X034630Y015804D01*
X034165Y015804D01*
X034165Y015943D01*
X034176Y015984D01*
X034197Y016020D01*
X034227Y016050D01*
X034249Y016062D01*
X034183Y016128D01*
X034183Y016480D01*
X034265Y016562D01*
X034912Y016562D01*
X034966Y016616D01*
X029247Y016616D01*
X029312Y016550D01*
X029312Y016550D01*
X030259Y015604D01*
X030825Y015604D01*
X030825Y016243D01*
X030870Y016354D01*
X030955Y016438D01*
X031075Y016558D01*
X031185Y016604D01*
X032562Y016604D01*
X032663Y016562D01*
X032866Y016562D01*
X032948Y016480D01*
X032948Y016128D01*
X032883Y016063D01*
X032906Y016050D01*
X032936Y016020D01*
X032957Y015984D01*
X032968Y015943D01*
X032968Y015804D01*
X032503Y015804D01*
X032503Y015804D01*
X032968Y015804D01*
X032968Y015665D01*
X032957Y015624D01*
X032936Y015587D01*
X032906Y015558D01*
X032883Y015544D01*
X032948Y015480D01*
X032948Y015128D01*
X032874Y015054D01*
X032948Y014980D01*
X032948Y014628D01*
X032866Y014546D01*
X032803Y014546D01*
X032803Y014296D01*
X033092Y014296D01*
X033174Y014214D01*
X033174Y013232D01*
X033109Y013167D01*
X033178Y013098D01*
X035154Y013098D01*
X035260Y013204D01*
X035260Y013702D01*
X035340Y013782D01*
X035260Y013862D01*
X035260Y014055D01*
X035202Y014113D01*
X035202Y013783D01*
X034748Y013783D01*
X034748Y013663D01*
X035202Y013663D01*
X035202Y013269D01*
X035191Y013228D01*
X035170Y013192D01*
X035140Y013162D01*
X035104Y013141D01*
X035063Y013130D01*
X034748Y013130D01*
X034748Y013663D01*
X034628Y013663D01*
X034628Y013130D01*
X034312Y013130D01*
X034271Y013141D01*
X034235Y013162D01*
X034205Y013192D01*
X034184Y013228D01*
X034173Y013269D01*
X034173Y013663D01*
X034628Y013663D01*
X034628Y013783D01*
X034628Y014316D01*
X034312Y014316D01*
X034271Y014305D01*
X034235Y014284D01*
X034205Y014254D01*
X034184Y014218D01*
X034173Y014177D01*
X034173Y013783D01*
X034628Y013783D01*
X034748Y013783D01*
X034748Y014316D01*
X034999Y014316D01*
X034906Y014409D01*
X034899Y014426D01*
X034821Y014504D01*
X034569Y014504D01*
X034468Y014546D01*
X034265Y014546D01*
X034183Y014628D01*
X034183Y014980D01*
X034258Y015055D01*
X034185Y015128D01*
X034185Y015480D01*
X034250Y015544D01*
X034227Y015558D01*
X034197Y015587D01*
X034176Y015624D01*
X034165Y015665D01*
X034165Y015804D01*
X034630Y015804D01*
X034630Y015804D01*
X035096Y015804D01*
X035096Y015700D02*
X035122Y015700D01*
X035803Y015582D02*
X036023Y015582D01*
X036023Y015700D02*
X035867Y015700D01*
X035867Y015819D02*
X036023Y015819D01*
X036023Y015463D02*
X035847Y015463D01*
X035847Y015345D02*
X036023Y015345D01*
X036023Y015226D02*
X035847Y015226D01*
X035847Y015108D02*
X036023Y015108D01*
X036023Y014989D02*
X035847Y014989D01*
X036023Y014871D02*
X035303Y014871D01*
X035417Y014752D02*
X036023Y014752D01*
X036023Y014634D02*
X035530Y014634D01*
X035648Y014515D02*
X036023Y014515D01*
X036023Y014397D02*
X035960Y014397D01*
X035965Y014278D02*
X036023Y014278D01*
X036023Y014160D02*
X035965Y014160D01*
X035965Y014041D02*
X036023Y014041D01*
X036023Y013923D02*
X035965Y013923D01*
X035908Y013804D02*
X036023Y013804D01*
X036023Y013686D02*
X035965Y013686D01*
X035965Y013567D02*
X036023Y013567D01*
X036023Y013449D02*
X035965Y013449D01*
X035965Y013330D02*
X036023Y013330D01*
X036023Y013212D02*
X035965Y013212D01*
X035913Y013093D02*
X036023Y013093D01*
X036023Y012975D02*
X035872Y012975D01*
X035761Y012856D02*
X036023Y012856D01*
X036023Y012738D02*
X035704Y012738D01*
X035822Y012619D02*
X036023Y012619D01*
X036023Y012501D02*
X035873Y012501D01*
X035873Y012382D02*
X036023Y012382D01*
X036023Y012264D02*
X035873Y012264D01*
X035260Y013212D02*
X035181Y013212D01*
X035202Y013330D02*
X035260Y013330D01*
X035260Y013449D02*
X035202Y013449D01*
X035202Y013567D02*
X035260Y013567D01*
X035260Y013686D02*
X034748Y013686D01*
X034748Y013804D02*
X034628Y013804D01*
X034628Y013686D02*
X033174Y013686D01*
X033174Y013804D02*
X034173Y013804D01*
X034173Y013923D02*
X033174Y013923D01*
X033174Y014041D02*
X034173Y014041D01*
X034173Y014160D02*
X033174Y014160D01*
X033110Y014278D02*
X034229Y014278D01*
X034541Y014515D02*
X032803Y014515D01*
X032803Y014397D02*
X034918Y014397D01*
X034748Y014278D02*
X034628Y014278D01*
X034628Y014160D02*
X034748Y014160D01*
X034748Y014041D02*
X034628Y014041D01*
X034628Y013923D02*
X034748Y013923D01*
X035202Y013923D02*
X035260Y013923D01*
X035260Y014041D02*
X035202Y014041D01*
X035202Y013804D02*
X035318Y013804D01*
X034748Y013567D02*
X034628Y013567D01*
X034628Y013449D02*
X034748Y013449D01*
X034748Y013330D02*
X034628Y013330D01*
X034628Y013212D02*
X034748Y013212D01*
X034194Y013212D02*
X033154Y013212D01*
X033174Y013330D02*
X034173Y013330D01*
X034173Y013449D02*
X033174Y013449D01*
X033174Y013567D02*
X034173Y013567D01*
X032203Y014278D02*
X032052Y014278D01*
X032052Y014397D02*
X032203Y014397D01*
X032203Y014515D02*
X032052Y014515D01*
X032051Y014634D02*
X032057Y014634D01*
X032057Y014752D02*
X031964Y014752D01*
X030669Y014278D02*
X029734Y014278D01*
X029852Y014160D02*
X031301Y014160D01*
X031301Y014047D02*
X030669Y014047D01*
X030669Y013584D01*
X030680Y013543D01*
X030701Y013507D01*
X030731Y013477D01*
X030768Y013456D01*
X030808Y013445D01*
X031301Y013445D01*
X031301Y014047D01*
X031301Y014041D02*
X031421Y014041D01*
X031421Y013923D02*
X031301Y013923D01*
X031301Y013804D02*
X031421Y013804D01*
X031421Y013686D02*
X031301Y013686D01*
X031301Y013567D02*
X031421Y013567D01*
X031421Y013449D02*
X031301Y013449D01*
X030794Y013449D02*
X030563Y013449D01*
X030674Y013567D02*
X030445Y013567D01*
X030326Y013686D02*
X030669Y013686D01*
X030669Y013804D02*
X030208Y013804D01*
X030089Y013923D02*
X030669Y013923D01*
X030669Y014041D02*
X029971Y014041D01*
X029420Y013330D02*
X029010Y013330D01*
X029128Y013212D02*
X029302Y013212D01*
X029275Y013093D02*
X029155Y013093D01*
X029155Y012975D02*
X029275Y012975D01*
X029275Y012856D02*
X029155Y012856D01*
X029072Y012738D02*
X029358Y012738D01*
X029476Y012619D02*
X028954Y012619D01*
X028715Y013003D02*
X028554Y013003D01*
X028231Y012680D01*
X028243Y012975D02*
X028155Y012975D01*
X028155Y013093D02*
X028275Y013093D01*
X028302Y013212D02*
X028128Y013212D01*
X028010Y013330D02*
X028420Y013330D01*
X027715Y013003D02*
X027247Y012534D01*
X027247Y011597D01*
X026617Y010967D01*
X024254Y010967D01*
X022676Y009388D01*
X022235Y009388D01*
X022235Y009703D02*
X022235Y010325D01*
X025337Y009609D02*
X025377Y009569D01*
X027008Y010249D02*
X027372Y010249D01*
X027443Y010368D02*
X027127Y010368D01*
X027047Y012382D02*
X026958Y012382D01*
X027047Y012501D02*
X026524Y012501D01*
X026472Y012382D02*
X026423Y012382D01*
X026023Y012382D02*
X025958Y012382D01*
X026954Y012619D02*
X027049Y012619D01*
X027072Y012738D02*
X027167Y012738D01*
X027155Y012856D02*
X027275Y012856D01*
X027275Y012975D02*
X027155Y012975D01*
X027155Y013093D02*
X027275Y013093D01*
X027302Y013212D02*
X027128Y013212D01*
X027010Y013330D02*
X027420Y013330D01*
X029954Y012619D02*
X030175Y012619D01*
X030175Y012738D02*
X030072Y012738D01*
X030155Y012856D02*
X030175Y012856D01*
X030175Y012975D02*
X030155Y012975D01*
X028232Y014752D02*
X028112Y014752D01*
X028112Y014871D02*
X028232Y014871D01*
X028232Y014989D02*
X028112Y014989D01*
X028112Y015345D02*
X028232Y015345D01*
X028232Y015463D02*
X028112Y015463D01*
X027421Y014871D02*
X026622Y014871D01*
X026740Y014752D02*
X027468Y014752D01*
X030162Y015700D02*
X030825Y015700D01*
X030825Y015819D02*
X030044Y015819D01*
X029925Y015937D02*
X030825Y015937D01*
X030825Y016056D02*
X029807Y016056D01*
X029688Y016174D02*
X030825Y016174D01*
X030845Y016293D02*
X029570Y016293D01*
X029451Y016411D02*
X030928Y016411D01*
X031046Y016530D02*
X029333Y016530D01*
X028958Y016056D02*
X020973Y016056D01*
X020706Y015700D02*
X017239Y015700D01*
X017242Y015582D02*
X020825Y015582D01*
X020943Y015463D02*
X017242Y015463D01*
X017242Y015345D02*
X021062Y015345D01*
X021180Y015226D02*
X017152Y015226D01*
X017034Y015108D02*
X021299Y015108D01*
X021684Y015345D02*
X022195Y015345D01*
X022201Y015463D02*
X021566Y015463D01*
X021447Y015582D02*
X022264Y015582D01*
X022382Y015700D02*
X021329Y015700D01*
X021803Y015226D02*
X022195Y015226D01*
X022075Y014515D02*
X021812Y014515D01*
X021693Y014397D02*
X022075Y014397D01*
X022075Y014278D02*
X021581Y014278D01*
X021581Y014160D02*
X022102Y014160D01*
X022169Y014041D02*
X021581Y014041D01*
X021581Y013923D02*
X022330Y013923D01*
X019905Y013804D02*
X019885Y013804D01*
X019583Y013804D02*
X019497Y013804D01*
X019497Y013923D02*
X019583Y013923D01*
X019583Y014041D02*
X019497Y014041D01*
X019497Y014140D02*
X019277Y014140D01*
X019277Y014101D01*
X018953Y014101D01*
X018953Y014430D01*
X019138Y014430D01*
X019178Y014419D01*
X019203Y014405D01*
X019205Y014408D01*
X019235Y014438D01*
X019271Y014459D01*
X019312Y014470D01*
X019497Y014470D01*
X019497Y014140D01*
X019497Y014160D02*
X019583Y014160D01*
X019583Y014278D02*
X019497Y014278D01*
X019497Y014397D02*
X019583Y014397D01*
X019881Y014397D02*
X019911Y014397D01*
X019173Y014041D02*
X018953Y014041D01*
X018910Y014058D02*
X018260Y014707D01*
X017601Y014707D01*
X016802Y015506D01*
X016782Y015506D01*
X016742Y015466D02*
X016742Y015046D01*
X016592Y015046D01*
X016322Y015316D01*
X016322Y015466D01*
X016742Y015466D01*
X016742Y015463D02*
X016822Y015463D01*
X016822Y015345D02*
X016742Y015345D01*
X016742Y015226D02*
X016822Y015226D01*
X016822Y015108D02*
X016742Y015108D01*
X016530Y015108D02*
X016005Y015108D01*
X016124Y015226D02*
X016412Y015226D01*
X016322Y015345D02*
X016222Y015345D01*
X016222Y015463D02*
X016322Y015463D01*
X016322Y015582D02*
X016222Y015582D01*
X016211Y015700D02*
X016325Y015700D01*
X015782Y015506D02*
X015782Y015896D01*
X015770Y015908D01*
X015562Y015937D02*
X014272Y015937D01*
X014289Y015819D02*
X015472Y015819D01*
X015353Y015700D02*
X014289Y015700D01*
X014289Y015582D02*
X015342Y015582D01*
X015607Y016056D02*
X014217Y016056D01*
X013481Y016056D02*
X013201Y016056D01*
X013253Y015937D02*
X013426Y015937D01*
X013409Y015819D02*
X013269Y015819D01*
X013269Y015700D02*
X013409Y015700D01*
X012521Y016080D02*
X012493Y016052D01*
X012429Y015898D01*
X012429Y015170D01*
X012493Y015016D01*
X012611Y014898D01*
X012765Y014834D01*
X012933Y014834D01*
X012993Y014859D01*
X013043Y014809D01*
X011109Y014809D01*
X010912Y015006D01*
X010922Y015016D01*
X010986Y015170D01*
X010986Y015898D01*
X010922Y016052D01*
X010893Y016080D01*
X011215Y016080D01*
X011189Y016045D01*
X011158Y015983D01*
X011136Y015917D01*
X011126Y015849D01*
X011126Y015564D01*
X011536Y015564D01*
X011536Y015504D01*
X011596Y015504D01*
X011596Y015564D01*
X012006Y015564D01*
X012006Y015849D01*
X011995Y015917D01*
X011973Y015983D01*
X011942Y016045D01*
X011916Y016080D01*
X012521Y016080D01*
X012497Y016056D02*
X011934Y016056D01*
X011988Y015937D02*
X012445Y015937D01*
X012429Y015819D02*
X012006Y015819D01*
X012006Y015700D02*
X012429Y015700D01*
X012429Y015582D02*
X012006Y015582D01*
X012006Y015504D02*
X011596Y015504D01*
X011596Y014814D01*
X011600Y014814D01*
X011669Y014825D01*
X011734Y014846D01*
X011796Y014878D01*
X011852Y014918D01*
X011901Y014967D01*
X011942Y015023D01*
X011973Y015085D01*
X011995Y015151D01*
X012006Y015219D01*
X012006Y015504D01*
X012006Y015463D02*
X012429Y015463D01*
X012429Y015345D02*
X012006Y015345D01*
X012006Y015226D02*
X012429Y015226D01*
X012455Y015108D02*
X011981Y015108D01*
X011917Y014989D02*
X012520Y014989D01*
X012677Y014871D02*
X011782Y014871D01*
X011596Y014871D02*
X011536Y014871D01*
X011536Y014814D02*
X011536Y015504D01*
X011126Y015504D01*
X011126Y015219D01*
X011136Y015151D01*
X011158Y015085D01*
X011189Y015023D01*
X011230Y014967D01*
X011279Y014918D01*
X011335Y014878D01*
X011397Y014846D01*
X011462Y014825D01*
X011531Y014814D01*
X011536Y014814D01*
X011536Y014989D02*
X011596Y014989D01*
X011596Y015108D02*
X011536Y015108D01*
X011536Y015226D02*
X011596Y015226D01*
X011596Y015345D02*
X011536Y015345D01*
X011536Y015463D02*
X011596Y015463D01*
X011126Y015463D02*
X010986Y015463D01*
X010986Y015345D02*
X011126Y015345D01*
X011126Y015226D02*
X010986Y015226D01*
X010959Y015108D02*
X011150Y015108D01*
X011214Y014989D02*
X010929Y014989D01*
X011047Y014871D02*
X011349Y014871D01*
X011026Y014609D02*
X010566Y015069D01*
X010566Y015534D01*
X010986Y015582D02*
X011126Y015582D01*
X011126Y015700D02*
X010986Y015700D01*
X010986Y015819D02*
X011126Y015819D01*
X011143Y015937D02*
X010969Y015937D01*
X010918Y016056D02*
X011197Y016056D01*
X014066Y014871D02*
X015524Y014871D01*
X015405Y014752D02*
X014453Y014752D01*
X014572Y014634D02*
X015342Y014634D01*
X015342Y014515D02*
X014690Y014515D01*
X014809Y014397D02*
X015342Y014397D01*
X015388Y014278D02*
X014927Y014278D01*
X015046Y014160D02*
X015507Y014160D01*
X015576Y013923D02*
X015203Y013923D01*
X015203Y013804D02*
X015457Y013804D01*
X015342Y013686D02*
X015203Y013686D01*
X015203Y013567D02*
X015342Y013567D01*
X015342Y013449D02*
X015203Y013449D01*
X015203Y013330D02*
X015342Y013330D01*
X015370Y013212D02*
X015203Y013212D01*
X015203Y013093D02*
X015251Y013093D01*
X015239Y012798D02*
X015239Y009688D01*
X015534Y009392D01*
X016089Y009392D01*
X016093Y009388D01*
X016093Y009703D02*
X016282Y009892D01*
X016282Y014215D01*
X015991Y014506D01*
X015782Y014506D01*
X016159Y014752D02*
X016405Y014752D01*
X016342Y014634D02*
X016222Y014634D01*
X016265Y014515D02*
X016342Y014515D01*
X016782Y014506D02*
X017365Y013924D01*
X017365Y013467D01*
X017857Y012975D01*
X017857Y010947D01*
X017747Y010837D01*
X017747Y010412D01*
X018062Y010412D02*
X018062Y011546D01*
X018270Y011754D01*
X018566Y011459D02*
X018408Y011302D01*
X018408Y010810D01*
X018377Y010778D01*
X018377Y010412D01*
X018691Y010412D02*
X018691Y011073D01*
X018861Y011243D01*
X018861Y011991D01*
X018782Y012069D01*
X019328Y012501D02*
X019446Y012501D01*
X019446Y012619D02*
X019210Y012619D01*
X019091Y012738D02*
X019446Y012738D01*
X019457Y012856D02*
X018973Y012856D01*
X018961Y012975D02*
X019469Y012975D01*
X019469Y013093D02*
X018961Y013093D01*
X018961Y013212D02*
X019469Y013212D01*
X019469Y013330D02*
X018961Y013330D01*
X018961Y013449D02*
X019469Y013449D01*
X019469Y013567D02*
X018961Y013567D01*
X018953Y013686D02*
X018880Y013686D01*
X018867Y013804D02*
X018953Y013804D01*
X018953Y013923D02*
X018867Y013923D01*
X018867Y014160D02*
X018953Y014160D01*
X018953Y014278D02*
X018867Y014278D01*
X018867Y014397D02*
X018953Y014397D01*
X018603Y014397D02*
X018499Y014397D01*
X017943Y014397D02*
X017222Y014397D01*
X017293Y014278D02*
X017874Y014278D01*
X017874Y014160D02*
X017412Y014160D01*
X017530Y014041D02*
X017874Y014041D01*
X017874Y013923D02*
X017565Y013923D01*
X017565Y013804D02*
X017874Y013804D01*
X018031Y013686D02*
X017565Y013686D01*
X017565Y013567D02*
X018012Y013567D01*
X018012Y013449D02*
X017666Y013449D01*
X017785Y013330D02*
X018012Y013330D01*
X018012Y013212D02*
X017903Y013212D01*
X019140Y013686D02*
X019551Y013686D01*
X017621Y012668D02*
X016782Y013506D01*
X015782Y013506D02*
X015782Y013341D01*
X015239Y012798D01*
X014566Y012382D02*
X013764Y012382D01*
X013884Y012264D02*
X014113Y012264D01*
X014036Y012145D02*
X013961Y012145D01*
X013961Y012027D02*
X014036Y012027D01*
X014314Y012069D02*
X014314Y011814D01*
X014514Y012264D02*
X014566Y012264D01*
X016782Y012506D02*
X017365Y011924D01*
X017365Y011262D01*
X017117Y011014D01*
X017117Y010412D01*
X017432Y010412D02*
X017432Y011034D01*
X017621Y011223D01*
X017621Y012668D01*
X019826Y012382D02*
X019935Y012382D01*
X019925Y012264D02*
X019826Y012264D01*
X020661Y012382D02*
X021030Y012382D01*
X020912Y012264D02*
X020670Y012264D01*
X019018Y010967D02*
X019006Y010955D01*
X019006Y010412D01*
X016802Y010412D02*
X016802Y011487D01*
X016782Y011506D01*
X014766Y010652D02*
X014648Y010534D01*
X014648Y008743D01*
X014766Y010652D02*
X014766Y013821D01*
X014215Y014373D01*
X013428Y014373D01*
X013191Y014609D01*
X011026Y014609D01*
X010103Y014397D02*
X013121Y014397D01*
X013239Y014278D02*
X010103Y014278D01*
X007877Y014510D02*
X007168Y014510D01*
X007050Y014629D01*
X007350Y014752D02*
X007481Y014752D01*
X007837Y014550D02*
X007877Y014510D01*
X007233Y013923D02*
X006483Y013923D01*
X006602Y013804D02*
X007351Y013804D01*
X007470Y013686D02*
X006720Y013686D01*
X006839Y013567D02*
X007588Y013567D01*
X008270Y013310D02*
X008438Y013142D01*
X009392Y013142D01*
X008890Y013142D01*
X006253Y013212D02*
X005628Y013212D01*
X005837Y013093D02*
X006220Y013093D01*
X006220Y012975D02*
X005927Y012975D01*
X005231Y013093D02*
X004354Y013093D01*
X004354Y012975D02*
X005141Y012975D01*
X005094Y012856D02*
X004354Y012856D01*
X004354Y012738D02*
X005094Y012738D01*
X005100Y011671D02*
X004354Y011671D01*
X004354Y011553D02*
X005150Y011553D01*
X011597Y011095D02*
X011597Y010839D01*
X013606Y013449D02*
X014566Y013449D01*
X014566Y013567D02*
X013716Y013567D01*
X013765Y013686D02*
X014566Y013686D01*
X014501Y013804D02*
X013773Y013804D01*
X013753Y013923D02*
X014382Y013923D01*
X014264Y014041D02*
X013696Y014041D01*
X013558Y014160D02*
X014145Y014160D01*
X015164Y014041D02*
X016082Y014041D01*
X016082Y013923D02*
X015988Y013923D01*
X016040Y014871D02*
X016524Y014871D01*
X007050Y016530D02*
X004742Y016530D01*
X004354Y006220D02*
X005360Y006220D01*
X005529Y006102D02*
X004354Y006102D01*
X004354Y003376D02*
X005271Y003376D01*
X005322Y003258D02*
X004354Y003258D01*
X021716Y003732D02*
X021815Y003732D01*
X021815Y003850D02*
X021716Y003850D01*
X021765Y003969D02*
X021815Y003969D01*
X021815Y003953D02*
X022144Y003953D01*
X022144Y004277D01*
X021954Y004277D01*
X021913Y004266D01*
X021877Y004245D01*
X021847Y004215D01*
X021826Y004178D01*
X021815Y004138D01*
X021815Y003953D01*
X021815Y004087D02*
X021765Y004087D01*
X021765Y004206D02*
X021842Y004206D01*
X021767Y004324D02*
X022453Y004324D01*
X022599Y004443D02*
X021767Y004443D01*
X021767Y004561D02*
X022611Y004561D01*
X023007Y004680D02*
X023257Y004680D01*
X023940Y004412D02*
X023959Y004392D01*
X022231Y004206D02*
X022144Y004206D01*
X022144Y004087D02*
X022231Y004087D01*
X022231Y003969D02*
X022144Y003969D01*
X025810Y002665D02*
X025810Y002665D01*
X025810Y002547D02*
X025810Y002547D01*
X025810Y002428D02*
X025810Y002428D01*
X026498Y002428D02*
X026618Y002428D01*
X026618Y002310D02*
X026498Y002310D01*
X027014Y002310D02*
X027874Y002310D01*
X026655Y001717D02*
X037181Y001717D01*
X037095Y001599D02*
X027102Y001599D01*
X027065Y001480D02*
X036934Y001480D01*
X028388Y004798D02*
X028098Y004798D01*
X028269Y004680D02*
X027342Y004680D01*
X027362Y005154D02*
X027916Y005154D01*
X028035Y005272D02*
X027362Y005272D01*
X026539Y001717D02*
X025830Y001717D01*
X032948Y014634D02*
X034183Y014634D01*
X034183Y014752D02*
X032948Y014752D01*
X032948Y014871D02*
X034183Y014871D01*
X034193Y014989D02*
X032938Y014989D01*
X032928Y015108D02*
X034205Y015108D01*
X034185Y015226D02*
X032948Y015226D01*
X032948Y015345D02*
X034185Y015345D01*
X034185Y015463D02*
X032948Y015463D01*
X032930Y015582D02*
X034203Y015582D01*
X034165Y015700D02*
X032968Y015700D01*
X032968Y015819D02*
X034165Y015819D01*
X034165Y015937D02*
X032968Y015937D01*
X032896Y016056D02*
X034237Y016056D01*
X034183Y016174D02*
X032948Y016174D01*
X032948Y016293D02*
X034183Y016293D01*
X034183Y016411D02*
X032948Y016411D01*
X032898Y016530D02*
X034233Y016530D01*
X032503Y015804D02*
X032037Y015804D01*
X032037Y015943D01*
X032048Y015984D01*
X032060Y016004D01*
X031425Y016004D01*
X031425Y015604D01*
X032060Y015604D01*
X032048Y015624D01*
X032037Y015665D01*
X032037Y015804D01*
X032503Y015804D01*
X032503Y015804D01*
X032037Y015819D02*
X031425Y015819D01*
X031425Y015937D02*
X032037Y015937D01*
X032037Y015700D02*
X031425Y015700D01*
D47*
X031518Y015691D03*
X031794Y015691D03*
X031932Y015908D03*
X031656Y015908D03*
X033073Y016026D03*
X033329Y016026D03*
X033585Y016026D03*
X033841Y016026D03*
X034097Y016026D03*
X034097Y015751D03*
X033841Y015751D03*
X033585Y015751D03*
X033329Y015751D03*
X033073Y015751D03*
X033054Y015475D03*
X033310Y015475D03*
X033566Y015475D03*
X033821Y015475D03*
X034077Y015475D03*
X034058Y015199D03*
X033802Y015199D03*
X033546Y015199D03*
X033290Y015199D03*
X033034Y015199D03*
X033054Y014924D03*
X033310Y014924D03*
X033566Y014924D03*
X033821Y014924D03*
X034077Y014924D03*
X034097Y014648D03*
X033841Y014648D03*
X033585Y014648D03*
X033329Y014648D03*
X033073Y014648D03*
X031617Y013211D03*
X031361Y013211D03*
X031105Y013211D03*
X031105Y012936D03*
X031361Y012936D03*
X031617Y012936D03*
X031617Y012660D03*
X031361Y012660D03*
X031105Y012660D03*
X025731Y014333D03*
X025731Y014589D03*
X025436Y014589D03*
X025416Y014865D03*
X026735Y015180D03*
X026991Y015180D03*
X027247Y015180D03*
X027247Y015455D03*
X026991Y015455D03*
X026735Y015455D03*
X026735Y015731D03*
X026991Y015731D03*
X027247Y015731D03*
X025337Y013743D03*
X018782Y012069D03*
X018270Y011754D03*
X018566Y011459D03*
X019018Y010967D03*
X016676Y009707D03*
X015357Y008959D03*
X014333Y010810D03*
X014333Y011144D03*
X013959Y011144D03*
X013940Y010810D03*
X012227Y010908D03*
X013231Y011971D03*
X013999Y012503D03*
X014451Y012503D03*
X012148Y013251D03*
X020790Y009609D03*
X023861Y009825D03*
X024865Y009589D03*
X025377Y009569D03*
X026538Y009688D03*
X024432Y008644D03*
X024038Y009077D03*
X026400Y008073D03*
X025377Y007837D03*
X024156Y007699D03*
X022936Y007562D03*
X021656Y007443D03*
X020810Y007404D03*
X019806Y007562D03*
X019806Y006459D03*
X020475Y005810D03*
X021499Y006577D03*
X023310Y005298D03*
X025396Y007089D03*
X027660Y005869D03*
X027443Y005554D03*
X028684Y005790D03*
X029884Y005613D03*
X028487Y004983D03*
X028703Y004274D03*
X030160Y004097D03*
X030613Y003723D03*
X028546Y003566D03*
X027306Y002857D03*
X032384Y005337D03*
X032522Y005967D03*
X032463Y006499D03*
X035199Y007168D03*
X035199Y007542D03*
X035770Y007955D03*
X035317Y006558D03*
X035396Y005573D03*
X034983Y004865D03*
X035140Y003940D03*
X035593Y003959D03*
X036026Y003959D03*
X028467Y006617D03*
X028684Y007483D03*
X028034Y008546D03*
X015396Y006597D03*
X012542Y005514D03*
X015022Y004077D03*
X012562Y004018D03*
X033073Y016302D03*
X033329Y016302D03*
X033585Y016302D03*
X033841Y016302D03*
X034097Y016302D03*
D48*
X008113Y006814D03*
X006420Y005613D03*
X006420Y004294D03*
X008566Y003703D03*
X016380Y003605D03*
X018506Y003625D03*
X018447Y004904D03*
X017404Y004845D03*
X017306Y005337D03*
X022640Y002542D03*
X024353Y003664D03*
X006125Y011321D03*
X006184Y013270D03*
D49*
X005278Y015691D03*
X007247Y002306D03*
X036380Y002306D03*
D50*
X034526Y005022D02*
X034140Y005408D01*
X034034Y005514D01*
X033491Y005514D01*
X033491Y006538D02*
X034132Y006538D01*
X034132Y006609D01*
X034132Y006731D01*
X034510Y007109D01*
X034510Y007432D01*
X034538Y007459D01*
X035377Y009806D02*
X033349Y009806D01*
X032522Y010632D01*
X032522Y011380D01*
X032542Y011400D01*
X030549Y012419D02*
X030471Y012341D01*
X030377Y012341D01*
X029715Y013003D02*
X029715Y013278D01*
X030012Y013575D01*
X024786Y014195D02*
X024530Y014195D01*
X024530Y014825D02*
X024786Y014825D01*
X021873Y014845D02*
X020691Y016026D01*
X015888Y016026D01*
X015790Y015928D01*
X015782Y015920D01*
X015782Y015896D01*
X015790Y015908D02*
X015790Y015928D01*
X009333Y010967D02*
X008880Y010967D01*
X023861Y004392D02*
X023880Y004412D01*
X023940Y004412D01*
X035377Y009806D02*
X036243Y010672D01*
X036243Y016184D01*
X035967Y016459D01*
X035121Y016459D01*
X034965Y016304D01*
X034629Y016304D01*
D51*
X008999Y009825D03*
X008959Y002463D03*
D52*
X008684Y006006D02*
X008526Y006164D01*
X008487Y006164D01*
X008113Y006538D01*
X008113Y006814D01*
X020298Y011430D02*
X020445Y011430D01*
X021321Y012306D01*
X021321Y014392D01*
X021774Y014845D01*
X021833Y014845D01*
D53*
X021873Y014845D01*
X022239Y014845D01*
X022495Y014589D01*
X022495Y015388D01*
X022719Y015613D01*
X025455Y015613D01*
X026873Y014195D01*
X029392Y014195D01*
X030012Y013575D01*
X030475Y013113D01*
X030475Y012493D01*
X030549Y012419D01*
X031361Y011607D01*
X031567Y011400D01*
X032542Y011400D01*
X035573Y011440D02*
X035573Y012443D01*
X035249Y012768D01*
X035613Y013132D01*
X035613Y013438D01*
X035219Y012798D02*
X035249Y012768D01*
X035219Y012798D02*
X033054Y012798D01*
X032680Y013172D01*
X032680Y013723D01*
X032503Y013900D01*
X032503Y014804D01*
X032503Y015304D02*
X031144Y015304D01*
X031125Y015323D01*
X031125Y016184D01*
X031245Y016304D01*
X032503Y016304D01*
X031144Y015304D02*
X030225Y015304D01*
X030062Y015140D01*
X030062Y015377D01*
X029058Y016380D01*
X007325Y016380D01*
X007050Y016105D01*
X007050Y014629D01*
X007050Y014530D01*
X008270Y013310D01*
X008329Y011105D02*
X008329Y010967D01*
X007680Y010317D01*
X007680Y010337D01*
X007680Y010317D02*
X007680Y009550D01*
X008566Y008664D01*
X008113Y008211D01*
X008113Y007621D01*
X008093Y007640D01*
X005711Y007640D01*
X005349Y008003D01*
X005349Y008310D01*
X005168Y008310D01*
X005160Y008302D01*
X008113Y007621D02*
X008113Y006814D01*
X024530Y014195D02*
X024530Y014825D01*
X024294Y014589D01*
X023495Y014589D01*
X034629Y014804D02*
X034945Y014804D01*
X035160Y014589D01*
X035160Y014579D01*
X035613Y014127D01*
X035495Y015229D02*
X035420Y015304D01*
X034630Y015304D01*
X035573Y011440D02*
X035613Y011400D01*
D54*
X008329Y011105D03*
X008270Y013310D03*
M02*
