G75*
G70*
%OFA0B0*%
%FSLAX24Y24*%
%IPPOS*%
%LPD*%
%AMOC8*
5,1,8,0,0,1.08239X$1,22.5*
%
%ADD10C,0.0600*%
%ADD11C,0.0709*%
%ADD12OC8,0.0600*%
%ADD13C,0.0318*%
%ADD14C,0.0600*%
%ADD15C,0.0560*%
%ADD16C,0.0120*%
%ADD17C,0.0278*%
%ADD18C,0.0100*%
%ADD19C,0.0357*%
%ADD20C,0.1660*%
%ADD21C,0.0436*%
%ADD22C,0.0320*%
%ADD23C,0.0396*%
D10*
X031766Y002561D02*
X031766Y003161D01*
X032766Y003161D02*
X032766Y002561D01*
X033766Y002561D02*
X033766Y003161D01*
X036419Y004731D02*
X037019Y004731D01*
X037019Y005731D02*
X036419Y005731D01*
X036419Y006731D02*
X037019Y006731D01*
X033829Y008502D02*
X033829Y009102D01*
X032829Y009102D02*
X032829Y008502D01*
X031829Y008502D02*
X031829Y009102D01*
D11*
X026597Y001695D03*
X023999Y001695D03*
D12*
X020286Y001707D03*
X019286Y001707D03*
X018286Y001707D03*
X017286Y001707D03*
X016286Y001707D03*
X015286Y001707D03*
X014286Y001707D03*
X014286Y002707D03*
X015286Y002707D03*
X016286Y002707D03*
X017286Y002707D03*
X018286Y002707D03*
X019286Y002707D03*
X020286Y002707D03*
X029550Y009621D03*
X030550Y009621D03*
X030550Y010621D03*
X029550Y010621D03*
X028550Y010621D03*
X028715Y012003D03*
X027715Y012003D03*
X026715Y012003D03*
X025715Y012003D03*
X024715Y012003D03*
X023715Y012003D03*
X023715Y013003D03*
X024715Y013003D03*
X025715Y013003D03*
X026715Y013003D03*
X027715Y013003D03*
X028715Y013003D03*
X029715Y013003D03*
X029715Y012003D03*
X016782Y011506D03*
X015782Y011506D03*
X015782Y012506D03*
X016782Y012506D03*
X016782Y013506D03*
X015782Y013506D03*
X015782Y014506D03*
X016782Y014506D03*
X016782Y015506D03*
X015782Y015506D03*
D13*
X011006Y013782D03*
X010495Y013782D03*
X009983Y013782D03*
X009983Y013270D03*
X010495Y013270D03*
X011006Y013270D03*
X011006Y012758D03*
X010495Y012758D03*
X009983Y012758D03*
X009983Y012247D03*
X010495Y012247D03*
X011006Y012247D03*
X011006Y011735D03*
X010495Y011735D03*
X009983Y011735D03*
X009983Y011223D03*
X010495Y011223D03*
X011006Y011223D03*
X011006Y010711D03*
X010495Y010711D03*
X009983Y010711D03*
X010199Y006479D03*
X010711Y006479D03*
X011223Y006479D03*
X011223Y005967D03*
X010711Y005967D03*
X010199Y005967D03*
X010199Y005455D03*
X010711Y005455D03*
X011223Y005455D03*
X011223Y004943D03*
X010711Y004943D03*
X010199Y004943D03*
X010199Y004432D03*
X010711Y004432D03*
X011223Y004432D03*
X011223Y003920D03*
X010711Y003920D03*
X010199Y003920D03*
X010199Y003408D03*
X010711Y003408D03*
X011223Y003408D03*
D14*
X005691Y003510D03*
X005691Y004510D03*
X005691Y005510D03*
X005691Y006510D03*
X005534Y010774D03*
X005534Y011774D03*
X005534Y012774D03*
X005534Y013774D03*
X028550Y009621D03*
D15*
X023495Y014309D02*
X023495Y014869D01*
X022495Y014869D02*
X022495Y014309D01*
X013849Y015254D02*
X013849Y015814D01*
X012849Y015814D02*
X012849Y015254D01*
X011566Y015254D02*
X011566Y015814D01*
X010566Y015814D02*
X010566Y015254D01*
X012793Y013790D02*
X013353Y013790D01*
X013353Y012790D02*
X012793Y012790D01*
X005440Y009302D02*
X004880Y009302D01*
X004880Y008302D02*
X005440Y008302D01*
X013479Y006070D02*
X013479Y005510D01*
X014479Y005510D02*
X014479Y006070D01*
D16*
X004363Y001995D02*
X004433Y001779D01*
X004567Y001594D01*
X004751Y001461D01*
X004967Y001390D01*
X005081Y001381D01*
X013961Y001381D01*
X013826Y001517D01*
X013826Y001667D01*
X014246Y001667D01*
X014246Y001747D01*
X013826Y001747D01*
X013826Y001898D01*
X014095Y002167D01*
X014246Y002167D01*
X014246Y001747D01*
X014326Y001747D01*
X014746Y001747D01*
X014746Y001898D01*
X014477Y002167D01*
X014326Y002167D01*
X014326Y001747D01*
X014326Y001667D01*
X014746Y001667D01*
X014746Y001517D01*
X014611Y001381D01*
X014990Y001381D01*
X014846Y001525D01*
X014846Y001889D01*
X015104Y002147D01*
X015457Y002147D01*
X015620Y002310D01*
X015511Y002310D01*
X015468Y002267D02*
X015620Y002419D01*
X015620Y002310D01*
X015468Y002267D02*
X015104Y002267D01*
X014846Y002525D01*
X014846Y002747D01*
X014726Y002627D01*
X014726Y002525D01*
X014468Y002267D01*
X014104Y002267D01*
X013846Y002525D01*
X013846Y002889D01*
X014104Y003147D01*
X014468Y003147D01*
X014589Y003027D01*
X014911Y003349D01*
X015022Y003460D01*
X015160Y003460D01*
X016987Y005287D01*
X016987Y005401D01*
X017036Y005518D01*
X017125Y005607D01*
X017242Y005656D01*
X017369Y005656D01*
X017486Y005607D01*
X017576Y005518D01*
X017624Y005401D01*
X017624Y005274D01*
X017576Y005157D01*
X017549Y005130D01*
X017584Y005115D01*
X017674Y005025D01*
X017723Y004908D01*
X017723Y004782D01*
X017674Y004665D01*
X017594Y004585D01*
X017594Y003571D01*
X018257Y004235D01*
X018257Y004644D01*
X018177Y004724D01*
X018129Y004841D01*
X018129Y004967D01*
X018177Y005084D01*
X018267Y005174D01*
X018384Y005223D01*
X018511Y005223D01*
X018628Y005174D01*
X018717Y005084D01*
X018766Y004967D01*
X018766Y004841D01*
X018717Y004724D01*
X018637Y004644D01*
X018637Y004077D01*
X018503Y003943D01*
X018570Y003943D01*
X018687Y003895D01*
X018776Y003805D01*
X018825Y003688D01*
X018825Y003561D01*
X018776Y003444D01*
X018687Y003355D01*
X018570Y003306D01*
X018443Y003306D01*
X018397Y003325D01*
X018219Y003147D01*
X018468Y003147D01*
X018726Y002889D01*
X018726Y002525D01*
X018468Y002267D01*
X018104Y002267D01*
X017988Y002383D01*
X017988Y002140D01*
X017726Y001879D01*
X017726Y001525D01*
X017582Y001381D01*
X017990Y001381D01*
X017846Y001525D01*
X017846Y001889D01*
X018104Y002147D01*
X018468Y002147D01*
X018726Y001889D01*
X018726Y001525D01*
X018582Y001381D01*
X018990Y001381D01*
X018846Y001525D01*
X018846Y001889D01*
X019104Y002147D01*
X019468Y002147D01*
X019726Y001889D01*
X019726Y001525D01*
X019582Y001381D01*
X019990Y001381D01*
X019846Y001525D01*
X019846Y001889D01*
X020104Y002147D01*
X020468Y002147D01*
X020726Y001889D01*
X020726Y001525D01*
X020582Y001381D01*
X023591Y001381D01*
X023559Y001426D01*
X023522Y001498D01*
X023497Y001575D01*
X023487Y001637D01*
X023940Y001637D01*
X023940Y001754D01*
X023487Y001754D01*
X023497Y001816D01*
X023522Y001893D01*
X023559Y001965D01*
X023606Y002030D01*
X023664Y002088D01*
X023729Y002135D01*
X023801Y002172D01*
X023878Y002197D01*
X023940Y002207D01*
X023940Y001754D01*
X024057Y001754D01*
X024057Y002207D01*
X024119Y002197D01*
X024196Y002172D01*
X024268Y002135D01*
X024334Y002088D01*
X024391Y002030D01*
X024438Y001965D01*
X024475Y001893D01*
X024500Y001816D01*
X024510Y001754D01*
X024057Y001754D01*
X024057Y001637D01*
X024510Y001637D01*
X024500Y001575D01*
X024475Y001498D01*
X024438Y001426D01*
X024406Y001381D01*
X026189Y001381D01*
X026157Y001426D01*
X026120Y001498D01*
X026095Y001575D01*
X026085Y001637D01*
X026539Y001637D01*
X026539Y001754D01*
X026539Y002207D01*
X026477Y002197D01*
X026400Y002172D01*
X026327Y002135D01*
X026262Y002088D01*
X026205Y002030D01*
X026157Y001965D01*
X026120Y001893D01*
X026095Y001816D01*
X026085Y001754D01*
X026539Y001754D01*
X026655Y001754D01*
X026655Y002207D01*
X026717Y002197D01*
X026794Y002172D01*
X026867Y002135D01*
X026932Y002088D01*
X026989Y002030D01*
X027037Y001965D01*
X027074Y001893D01*
X027099Y001816D01*
X027109Y001754D01*
X026655Y001754D01*
X026655Y001637D01*
X027109Y001637D01*
X027099Y001575D01*
X027074Y001498D01*
X027037Y001426D01*
X027005Y001381D01*
X036577Y001381D01*
X036691Y001390D01*
X036908Y001461D01*
X037092Y001594D01*
X037225Y001779D01*
X037296Y001995D01*
X037305Y002109D01*
X037305Y004394D01*
X037268Y004358D01*
X037107Y004291D01*
X036332Y004291D01*
X036170Y004358D01*
X036046Y004482D01*
X035979Y004643D01*
X035979Y004818D01*
X036046Y004980D01*
X036170Y005104D01*
X036332Y005171D01*
X037107Y005171D01*
X037268Y005104D01*
X037305Y005067D01*
X037305Y005370D01*
X037260Y005337D01*
X037196Y005305D01*
X037127Y005282D01*
X037055Y005271D01*
X036759Y005271D01*
X036759Y005691D01*
X036679Y005691D01*
X035960Y005691D01*
X035970Y005623D01*
X035993Y005554D01*
X036026Y005490D01*
X036068Y005431D01*
X036119Y005380D01*
X036178Y005337D01*
X036242Y005305D01*
X036311Y005282D01*
X036383Y005271D01*
X036679Y005271D01*
X036679Y005691D01*
X036679Y005771D01*
X036679Y006191D01*
X036383Y006191D01*
X036311Y006180D01*
X036242Y006157D01*
X036178Y006124D01*
X036119Y006082D01*
X036068Y006031D01*
X036026Y005972D01*
X035993Y005907D01*
X035970Y005839D01*
X035960Y005771D01*
X036679Y005771D01*
X036759Y005771D01*
X036759Y006191D01*
X037055Y006191D01*
X037127Y006180D01*
X037196Y006157D01*
X037260Y006124D01*
X037305Y006092D01*
X037305Y006394D01*
X037268Y006358D01*
X037107Y006291D01*
X036332Y006291D01*
X036170Y006358D01*
X036046Y006482D01*
X035979Y006643D01*
X035979Y006818D01*
X036046Y006980D01*
X036170Y007104D01*
X036332Y007171D01*
X037107Y007171D01*
X037268Y007104D01*
X037305Y007067D01*
X037305Y015888D01*
X037296Y016002D01*
X037225Y016219D01*
X037092Y016403D01*
X036908Y016536D01*
X036691Y016607D01*
X036577Y016616D01*
X005081Y016616D01*
X004967Y016607D01*
X004751Y016536D01*
X004567Y016403D01*
X004433Y016219D01*
X004363Y016002D01*
X004354Y015888D01*
X004354Y002109D01*
X004363Y001995D01*
X004376Y001954D02*
X013882Y001954D01*
X013826Y001836D02*
X004415Y001836D01*
X004478Y001717D02*
X014246Y001717D01*
X014326Y001717D02*
X014846Y001717D01*
X014846Y001599D02*
X014746Y001599D01*
X014709Y001480D02*
X014891Y001480D01*
X014846Y001836D02*
X014746Y001836D01*
X014690Y001954D02*
X014911Y001954D01*
X015029Y002073D02*
X014571Y002073D01*
X014511Y002310D02*
X015061Y002310D01*
X014943Y002428D02*
X014629Y002428D01*
X014726Y002547D02*
X014846Y002547D01*
X014846Y002665D02*
X014764Y002665D01*
X014061Y002310D02*
X009283Y002310D01*
X009263Y002260D02*
X009317Y002392D01*
X009317Y002534D01*
X009263Y002666D01*
X009162Y002766D01*
X009030Y002821D01*
X008888Y002821D01*
X008757Y002766D01*
X008656Y002666D01*
X008601Y002534D01*
X008601Y002392D01*
X008656Y002260D01*
X008757Y002160D01*
X008888Y002105D01*
X009030Y002105D01*
X009162Y002160D01*
X009263Y002260D01*
X009193Y002191D02*
X015501Y002191D01*
X014326Y002073D02*
X014246Y002073D01*
X014246Y001954D02*
X014326Y001954D01*
X014326Y001836D02*
X014246Y001836D01*
X014001Y002073D02*
X004357Y002073D01*
X004354Y002191D02*
X008725Y002191D01*
X008636Y002310D02*
X004354Y002310D01*
X004354Y002428D02*
X008601Y002428D01*
X008606Y002547D02*
X004354Y002547D01*
X004354Y002665D02*
X008656Y002665D01*
X008798Y002784D02*
X004354Y002784D01*
X004354Y002902D02*
X013859Y002902D01*
X013846Y002784D02*
X009121Y002784D01*
X009263Y002665D02*
X013846Y002665D01*
X013846Y002547D02*
X009312Y002547D01*
X009317Y002428D02*
X013943Y002428D01*
X013977Y003021D02*
X004354Y003021D01*
X004354Y003139D02*
X005441Y003139D01*
X005442Y003137D02*
X005604Y003070D01*
X005779Y003070D01*
X005941Y003137D01*
X006065Y003261D01*
X006131Y003423D01*
X006131Y003598D01*
X006065Y003760D01*
X005941Y003883D01*
X005779Y003950D01*
X005604Y003950D01*
X005442Y003883D01*
X005318Y003760D01*
X005251Y003598D01*
X005251Y003423D01*
X005318Y003261D01*
X005442Y003137D01*
X005322Y003258D02*
X004354Y003258D01*
X004354Y003376D02*
X005271Y003376D01*
X005251Y003495D02*
X004354Y003495D01*
X004354Y003613D02*
X005258Y003613D01*
X005307Y003732D02*
X004354Y003732D01*
X004354Y003850D02*
X005409Y003850D01*
X005564Y004087D02*
X004354Y004087D01*
X004354Y003969D02*
X008366Y003969D01*
X008366Y003954D02*
X008296Y003884D01*
X008247Y003767D01*
X008247Y003640D01*
X008296Y003523D01*
X008385Y003433D01*
X008502Y003385D01*
X008629Y003385D01*
X008746Y003433D01*
X008835Y003523D01*
X008884Y003640D01*
X008884Y003767D01*
X008835Y003884D01*
X008766Y003954D01*
X008766Y006278D01*
X008766Y006444D01*
X008431Y006778D01*
X008431Y006877D01*
X008383Y006994D01*
X008293Y007083D01*
X008176Y007132D01*
X008049Y007132D01*
X007932Y007083D01*
X007843Y006994D01*
X007794Y006877D01*
X007794Y006750D01*
X007843Y006633D01*
X007932Y006544D01*
X008049Y006495D01*
X008148Y006495D01*
X008366Y006278D01*
X008366Y003954D01*
X008366Y004087D02*
X005819Y004087D01*
X005779Y004070D02*
X005941Y004137D01*
X006065Y004261D01*
X006131Y004423D01*
X006131Y004598D01*
X006065Y004760D01*
X005941Y004883D01*
X005779Y004950D01*
X005604Y004950D01*
X005442Y004883D01*
X005318Y004760D01*
X005251Y004598D01*
X005251Y004423D01*
X005318Y004261D01*
X005442Y004137D01*
X005604Y004070D01*
X005779Y004070D01*
X006009Y004206D02*
X008366Y004206D01*
X008366Y004324D02*
X006091Y004324D01*
X006131Y004443D02*
X008366Y004443D01*
X008366Y004561D02*
X006131Y004561D01*
X006098Y004680D02*
X008366Y004680D01*
X008366Y004798D02*
X006026Y004798D01*
X005861Y004917D02*
X008366Y004917D01*
X008366Y005035D02*
X004354Y005035D01*
X004354Y004917D02*
X005522Y004917D01*
X005604Y005070D02*
X005779Y005070D01*
X005941Y005137D01*
X006065Y005261D01*
X006131Y005423D01*
X006131Y005598D01*
X006065Y005760D01*
X005941Y005883D01*
X005779Y005950D01*
X005604Y005950D01*
X005442Y005883D01*
X005318Y005760D01*
X005251Y005598D01*
X005251Y005423D01*
X005318Y005261D01*
X005442Y005137D01*
X005604Y005070D01*
X005426Y005154D02*
X004354Y005154D01*
X004354Y005272D02*
X005314Y005272D01*
X005265Y005391D02*
X004354Y005391D01*
X004354Y005509D02*
X005251Y005509D01*
X005264Y005628D02*
X004354Y005628D01*
X004354Y005746D02*
X005313Y005746D01*
X005423Y005865D02*
X004354Y005865D01*
X004354Y005983D02*
X008366Y005983D01*
X008366Y005865D02*
X005960Y005865D01*
X006070Y005746D02*
X008366Y005746D01*
X008366Y005628D02*
X006119Y005628D01*
X006131Y005509D02*
X008366Y005509D01*
X008366Y005391D02*
X006118Y005391D01*
X006069Y005272D02*
X008366Y005272D01*
X008366Y005154D02*
X005957Y005154D01*
X006420Y005613D02*
X006420Y004294D01*
X007109Y004294D01*
X008329Y003073D01*
X009865Y003073D01*
X010199Y003408D01*
X008873Y003613D02*
X015313Y003613D01*
X015431Y003732D02*
X008884Y003732D01*
X008849Y003850D02*
X012335Y003850D01*
X012325Y003860D02*
X012404Y003782D01*
X012506Y003739D01*
X012617Y003739D01*
X012720Y003782D01*
X012798Y003860D01*
X012841Y003963D01*
X012841Y004074D01*
X012798Y004176D01*
X012732Y004243D01*
X012732Y005310D01*
X012778Y005356D01*
X012821Y005459D01*
X012821Y005570D01*
X012778Y005672D01*
X012700Y005751D01*
X012597Y005793D01*
X012486Y005793D01*
X012384Y005751D01*
X012305Y005672D01*
X012263Y005570D01*
X012263Y005459D01*
X012305Y005356D01*
X012352Y005310D01*
X012352Y004203D01*
X012325Y004176D01*
X012283Y004074D01*
X012283Y003963D01*
X012325Y003860D01*
X012283Y003969D02*
X008766Y003969D01*
X008766Y004087D02*
X012288Y004087D01*
X012352Y004206D02*
X008766Y004206D01*
X008766Y004324D02*
X012352Y004324D01*
X012352Y004443D02*
X008766Y004443D01*
X008766Y004561D02*
X012352Y004561D01*
X012352Y004680D02*
X008766Y004680D01*
X008766Y004798D02*
X012352Y004798D01*
X012352Y004917D02*
X008766Y004917D01*
X008766Y005035D02*
X012352Y005035D01*
X012352Y005154D02*
X008766Y005154D01*
X008766Y005272D02*
X012352Y005272D01*
X012291Y005391D02*
X008766Y005391D01*
X008766Y005509D02*
X012263Y005509D01*
X012287Y005628D02*
X008766Y005628D01*
X008766Y005746D02*
X012379Y005746D01*
X012705Y005746D02*
X013039Y005746D01*
X013039Y005760D02*
X013039Y005475D01*
X013050Y005407D01*
X013071Y005341D01*
X013103Y005279D01*
X013143Y005223D01*
X013192Y005174D01*
X013248Y005134D01*
X013310Y005102D01*
X013376Y005081D01*
X013444Y005070D01*
X013449Y005070D01*
X013449Y005760D01*
X013509Y005760D01*
X013509Y005820D01*
X013919Y005820D01*
X013919Y006105D01*
X013908Y006173D01*
X013887Y006239D01*
X013855Y006301D01*
X013815Y006357D01*
X013766Y006406D01*
X013710Y006446D01*
X013648Y006478D01*
X013582Y006499D01*
X013514Y006510D01*
X013509Y006510D01*
X013509Y005820D01*
X013449Y005820D01*
X013449Y006510D01*
X013444Y006510D01*
X013376Y006499D01*
X013310Y006478D01*
X013248Y006446D01*
X013192Y006406D01*
X013143Y006357D01*
X013103Y006301D01*
X013071Y006239D01*
X013050Y006173D01*
X013039Y006105D01*
X013039Y005820D01*
X013449Y005820D01*
X013449Y005760D01*
X013039Y005760D01*
X013039Y005865D02*
X008766Y005865D01*
X008766Y005983D02*
X013039Y005983D01*
X013039Y006102D02*
X008766Y006102D01*
X008766Y006220D02*
X013065Y006220D01*
X013130Y006339D02*
X008766Y006339D01*
X008752Y006457D02*
X013270Y006457D01*
X013449Y006457D02*
X013509Y006457D01*
X013509Y006339D02*
X013449Y006339D01*
X013449Y006220D02*
X013509Y006220D01*
X013509Y006102D02*
X013449Y006102D01*
X013449Y005983D02*
X013509Y005983D01*
X013509Y005865D02*
X013449Y005865D01*
X013449Y005746D02*
X013509Y005746D01*
X013509Y005760D02*
X013509Y005070D01*
X013514Y005070D01*
X013582Y005081D01*
X013648Y005102D01*
X013710Y005134D01*
X013766Y005174D01*
X013815Y005223D01*
X013855Y005279D01*
X013887Y005341D01*
X013908Y005407D01*
X013919Y005475D01*
X013919Y005760D01*
X013509Y005760D01*
X013509Y005628D02*
X013449Y005628D01*
X013449Y005509D02*
X013509Y005509D01*
X013509Y005391D02*
X013449Y005391D01*
X013449Y005272D02*
X013509Y005272D01*
X013509Y005154D02*
X013449Y005154D01*
X013221Y005154D02*
X012732Y005154D01*
X012732Y005272D02*
X013108Y005272D01*
X013055Y005391D02*
X012793Y005391D01*
X012821Y005509D02*
X013039Y005509D01*
X013039Y005628D02*
X012797Y005628D01*
X012732Y005035D02*
X014279Y005035D01*
X014279Y005138D02*
X014279Y004538D01*
X014743Y004074D01*
X014743Y004022D01*
X014786Y003919D01*
X014864Y003841D01*
X014967Y003798D01*
X015078Y003798D01*
X015180Y003841D01*
X015259Y003919D01*
X015301Y004022D01*
X015301Y004133D01*
X015259Y004235D01*
X015180Y004314D01*
X015078Y004356D01*
X015026Y004356D01*
X014679Y004703D01*
X014679Y005138D01*
X014717Y005154D01*
X014835Y005272D01*
X014899Y005426D01*
X014899Y005927D01*
X015305Y006333D01*
X015341Y006318D01*
X015452Y006318D01*
X015554Y006360D01*
X015633Y006439D01*
X015675Y006541D01*
X015675Y006653D01*
X015633Y006755D01*
X015554Y006834D01*
X015452Y006876D01*
X015341Y006876D01*
X015238Y006834D01*
X015160Y006755D01*
X015159Y006752D01*
X014774Y006368D01*
X014717Y006426D01*
X014562Y006490D01*
X014395Y006490D01*
X014241Y006426D01*
X014123Y006308D01*
X014059Y006153D01*
X014059Y005426D01*
X014123Y005272D01*
X014241Y005154D01*
X014279Y005138D01*
X014242Y005154D02*
X013737Y005154D01*
X013850Y005272D02*
X014123Y005272D01*
X014074Y005391D02*
X013903Y005391D01*
X013919Y005509D02*
X014059Y005509D01*
X014059Y005628D02*
X013919Y005628D01*
X013919Y005746D02*
X014059Y005746D01*
X014059Y005865D02*
X013919Y005865D01*
X013919Y005983D02*
X014059Y005983D01*
X014059Y006102D02*
X013919Y006102D01*
X013893Y006220D02*
X014086Y006220D01*
X014154Y006339D02*
X013828Y006339D01*
X013688Y006457D02*
X014316Y006457D01*
X014642Y006457D02*
X014863Y006457D01*
X014982Y006576D02*
X008634Y006576D01*
X008515Y006694D02*
X015100Y006694D01*
X015217Y006813D02*
X008431Y006813D01*
X008409Y006931D02*
X021624Y006931D01*
X021624Y006813D02*
X015575Y006813D01*
X015658Y006694D02*
X021624Y006694D01*
X021624Y006576D02*
X015675Y006576D01*
X015640Y006457D02*
X021545Y006457D01*
X021545Y006459D02*
X021545Y005711D01*
X021656Y005600D01*
X022148Y005108D01*
X023105Y005108D01*
X023152Y005061D01*
X023254Y005019D01*
X023365Y005019D01*
X023468Y005061D01*
X023546Y005140D01*
X023589Y005242D01*
X023589Y005353D01*
X023546Y005456D01*
X023468Y005534D01*
X023365Y005577D01*
X023254Y005577D01*
X023152Y005534D01*
X023105Y005488D01*
X022306Y005488D01*
X021925Y005869D01*
X021925Y006302D01*
X022004Y006381D01*
X022004Y007365D01*
X021935Y007433D01*
X021935Y007499D01*
X021893Y007602D01*
X021814Y007680D01*
X021712Y007723D01*
X021601Y007723D01*
X021498Y007680D01*
X021419Y007602D01*
X021377Y007499D01*
X021377Y007388D01*
X021419Y007285D01*
X021498Y007207D01*
X021601Y007164D01*
X021624Y007164D01*
X021624Y006538D01*
X021545Y006459D01*
X021545Y006339D02*
X015502Y006339D01*
X015192Y006220D02*
X021545Y006220D01*
X021545Y006102D02*
X015073Y006102D01*
X014955Y005983D02*
X021545Y005983D01*
X021545Y005865D02*
X014899Y005865D01*
X014899Y005746D02*
X021545Y005746D01*
X021628Y005628D02*
X017437Y005628D01*
X017579Y005509D02*
X021747Y005509D01*
X021865Y005391D02*
X017624Y005391D01*
X017623Y005272D02*
X021984Y005272D01*
X022102Y005154D02*
X018648Y005154D01*
X018738Y005035D02*
X023215Y005035D01*
X023405Y005035D02*
X027243Y005035D01*
X027243Y004917D02*
X018766Y004917D01*
X018748Y004798D02*
X027243Y004798D01*
X027243Y004680D02*
X018673Y004680D01*
X018637Y004561D02*
X027243Y004561D01*
X027243Y004443D02*
X018637Y004443D01*
X018637Y004324D02*
X027243Y004324D01*
X027243Y004206D02*
X018637Y004206D01*
X018637Y004087D02*
X027243Y004087D01*
X027243Y003969D02*
X024450Y003969D01*
X024416Y003982D02*
X024290Y003982D01*
X024173Y003934D01*
X024083Y003844D01*
X024034Y003727D01*
X024034Y003614D01*
X023152Y002732D01*
X022901Y002732D01*
X022821Y002812D01*
X022704Y002860D01*
X022577Y002860D01*
X022460Y002812D01*
X022370Y002722D01*
X022322Y002605D01*
X022322Y002479D01*
X022370Y002362D01*
X022460Y002272D01*
X022577Y002223D01*
X022704Y002223D01*
X022821Y002272D01*
X022901Y002352D01*
X023152Y002352D01*
X023310Y002352D01*
X024303Y003346D01*
X024416Y003346D01*
X024533Y003394D01*
X024623Y003484D01*
X024671Y003601D01*
X024671Y003727D01*
X024623Y003844D01*
X024533Y003934D01*
X024416Y003982D01*
X024256Y003969D02*
X018529Y003969D01*
X018731Y003850D02*
X024089Y003850D01*
X024036Y003732D02*
X018807Y003732D01*
X018825Y003613D02*
X024033Y003613D01*
X023915Y003495D02*
X018797Y003495D01*
X018708Y003376D02*
X023796Y003376D01*
X023678Y003258D02*
X018329Y003258D01*
X018476Y003139D02*
X019096Y003139D01*
X019104Y003147D02*
X018846Y002889D01*
X018846Y002525D01*
X019104Y002267D01*
X019468Y002267D01*
X019726Y002525D01*
X019726Y002889D01*
X019468Y003147D01*
X019104Y003147D01*
X018977Y003021D02*
X018595Y003021D01*
X018713Y002902D02*
X018859Y002902D01*
X018846Y002784D02*
X018726Y002784D01*
X018726Y002665D02*
X018846Y002665D01*
X018846Y002547D02*
X018726Y002547D01*
X018629Y002428D02*
X018943Y002428D01*
X019061Y002310D02*
X018511Y002310D01*
X018543Y002073D02*
X019029Y002073D01*
X018911Y001954D02*
X018661Y001954D01*
X018726Y001836D02*
X018846Y001836D01*
X018846Y001717D02*
X018726Y001717D01*
X018726Y001599D02*
X018846Y001599D01*
X018891Y001480D02*
X018681Y001480D01*
X017891Y001480D02*
X017681Y001480D01*
X017726Y001599D02*
X017846Y001599D01*
X017846Y001717D02*
X017726Y001717D01*
X017726Y001836D02*
X017846Y001836D01*
X017802Y001954D02*
X017911Y001954D01*
X017920Y002073D02*
X018029Y002073D01*
X017988Y002191D02*
X023860Y002191D01*
X023940Y002191D02*
X024057Y002191D01*
X024138Y002191D02*
X026458Y002191D01*
X026539Y002191D02*
X026655Y002191D01*
X026736Y002191D02*
X031514Y002191D01*
X031517Y002188D02*
X031679Y002121D01*
X031854Y002121D01*
X032016Y002188D01*
X032139Y002312D01*
X032206Y002473D01*
X032206Y003248D01*
X032139Y003410D01*
X032016Y003534D01*
X031854Y003601D01*
X031679Y003601D01*
X031517Y003534D01*
X031393Y003410D01*
X031326Y003248D01*
X031326Y002473D01*
X031393Y002312D01*
X031517Y002188D01*
X031395Y002310D02*
X022858Y002310D01*
X022422Y002310D02*
X020511Y002310D01*
X020468Y002267D02*
X020726Y002525D01*
X020726Y002889D01*
X020468Y003147D01*
X020104Y003147D01*
X019846Y002889D01*
X019846Y002525D01*
X020104Y002267D01*
X020468Y002267D01*
X020543Y002073D02*
X023648Y002073D01*
X023553Y001954D02*
X020661Y001954D01*
X020726Y001836D02*
X023503Y001836D01*
X023940Y001836D02*
X024057Y001836D01*
X024057Y001954D02*
X023940Y001954D01*
X023940Y002073D02*
X024057Y002073D01*
X024349Y002073D02*
X026247Y002073D01*
X026152Y001954D02*
X024444Y001954D01*
X024494Y001836D02*
X026102Y001836D01*
X026539Y001836D02*
X026655Y001836D01*
X026655Y001954D02*
X026539Y001954D01*
X026539Y002073D02*
X026655Y002073D01*
X026947Y002073D02*
X037302Y002073D01*
X037305Y002191D02*
X034040Y002191D01*
X034066Y002210D02*
X034007Y002167D01*
X033943Y002134D01*
X033874Y002112D01*
X033806Y002101D01*
X033806Y002821D01*
X033726Y002821D01*
X033306Y002821D01*
X033306Y002525D01*
X033318Y002453D01*
X033340Y002384D01*
X033373Y002320D01*
X033415Y002261D01*
X033467Y002210D01*
X033525Y002167D01*
X033590Y002134D01*
X033659Y002112D01*
X033726Y002101D01*
X033726Y002821D01*
X033726Y002901D01*
X033306Y002901D01*
X033306Y003197D01*
X033318Y003269D01*
X033340Y003337D01*
X033373Y003402D01*
X033415Y003460D01*
X033467Y003512D01*
X033525Y003554D01*
X033590Y003587D01*
X033659Y003609D01*
X033726Y003620D01*
X033726Y002901D01*
X033806Y002901D01*
X033806Y003620D01*
X033874Y003609D01*
X033943Y003587D01*
X034007Y003554D01*
X034066Y003512D01*
X034117Y003460D01*
X034160Y003402D01*
X034193Y003337D01*
X034215Y003269D01*
X034226Y003197D01*
X034226Y002901D01*
X033806Y002901D01*
X033806Y002821D01*
X034226Y002821D01*
X034226Y002525D01*
X034215Y002453D01*
X034193Y002384D01*
X034160Y002320D01*
X034117Y002261D01*
X034066Y002210D01*
X034152Y002310D02*
X037305Y002310D01*
X037305Y002428D02*
X034207Y002428D01*
X034226Y002547D02*
X037305Y002547D01*
X037305Y002665D02*
X034226Y002665D01*
X034226Y002784D02*
X037305Y002784D01*
X037305Y002902D02*
X034226Y002902D01*
X034226Y003021D02*
X037305Y003021D01*
X037305Y003139D02*
X034226Y003139D01*
X034217Y003258D02*
X037305Y003258D01*
X037305Y003376D02*
X034173Y003376D01*
X034083Y003495D02*
X037305Y003495D01*
X037305Y003613D02*
X033851Y003613D01*
X033806Y003613D02*
X033726Y003613D01*
X033681Y003613D02*
X030869Y003613D01*
X030849Y003565D02*
X030892Y003667D01*
X030892Y003778D01*
X030849Y003881D01*
X030813Y003918D01*
X030813Y004802D01*
X030813Y004967D01*
X030163Y005617D01*
X030163Y005668D01*
X030121Y005771D01*
X030042Y005849D01*
X029940Y005892D01*
X029829Y005892D01*
X029726Y005849D01*
X029648Y005771D01*
X029605Y005668D01*
X029605Y005557D01*
X029648Y005455D01*
X029726Y005376D01*
X029829Y005334D01*
X029881Y005334D01*
X030413Y004802D01*
X030413Y003918D01*
X030376Y003881D01*
X030334Y003778D01*
X030334Y003667D01*
X030376Y003565D01*
X030455Y003486D01*
X030557Y003444D01*
X030668Y003444D01*
X030771Y003486D01*
X030849Y003565D01*
X030779Y003495D02*
X031478Y003495D01*
X031379Y003376D02*
X027643Y003376D01*
X027643Y003258D02*
X031330Y003258D01*
X031326Y003139D02*
X027643Y003139D01*
X027643Y003021D02*
X031326Y003021D01*
X031326Y002902D02*
X027634Y002902D01*
X027643Y002912D02*
X027643Y005359D01*
X027680Y005396D01*
X027723Y005498D01*
X027723Y005593D01*
X027818Y005632D01*
X027897Y005711D01*
X027939Y005813D01*
X027939Y005924D01*
X027897Y006027D01*
X027818Y006105D01*
X027716Y006148D01*
X027664Y006148D01*
X027290Y006521D01*
X024244Y006521D01*
X023215Y007551D01*
X023215Y007604D01*
X023920Y006899D01*
X025192Y006899D01*
X025238Y006853D01*
X025341Y006810D01*
X025452Y006810D01*
X025554Y006853D01*
X025633Y006931D01*
X036026Y006931D01*
X035979Y006813D02*
X035431Y006813D01*
X035476Y006794D02*
X035373Y006837D01*
X035262Y006837D01*
X035159Y006794D01*
X035081Y006716D01*
X035070Y006689D01*
X032668Y006689D01*
X032621Y006735D01*
X032519Y006778D01*
X032408Y006778D01*
X032305Y006735D01*
X032227Y006657D01*
X032184Y006554D01*
X032184Y006443D01*
X032227Y006341D01*
X032305Y006262D01*
X032405Y006221D01*
X032364Y006204D01*
X032286Y006125D01*
X032243Y006023D01*
X032243Y005912D01*
X032286Y005809D01*
X032364Y005731D01*
X032467Y005688D01*
X032578Y005688D01*
X032680Y005731D01*
X032727Y005777D01*
X034924Y005777D01*
X035117Y005584D01*
X035117Y005518D01*
X035160Y005415D01*
X035238Y005337D01*
X035341Y005294D01*
X035452Y005294D01*
X035554Y005337D01*
X035633Y005415D01*
X035675Y005518D01*
X035675Y005629D01*
X035633Y005731D01*
X035554Y005810D01*
X035452Y005852D01*
X035386Y005852D01*
X035193Y006046D01*
X035081Y006157D01*
X032727Y006157D01*
X032680Y006204D01*
X032580Y006245D01*
X032621Y006262D01*
X032668Y006309D01*
X035190Y006309D01*
X035262Y006279D01*
X035373Y006279D01*
X035476Y006321D01*
X035554Y006400D01*
X035597Y006502D01*
X035597Y006613D01*
X035554Y006716D01*
X035476Y006794D01*
X035563Y006694D02*
X035979Y006694D01*
X036007Y006576D02*
X035597Y006576D01*
X035578Y006457D02*
X036071Y006457D01*
X036216Y006339D02*
X035493Y006339D01*
X035137Y006102D02*
X036147Y006102D01*
X036034Y005983D02*
X035255Y005983D01*
X035374Y005865D02*
X035979Y005865D01*
X035618Y005746D02*
X036679Y005746D01*
X036679Y005628D02*
X036759Y005628D01*
X036759Y005509D02*
X036679Y005509D01*
X036679Y005391D02*
X036759Y005391D01*
X036759Y005272D02*
X036679Y005272D01*
X036375Y005272D02*
X032718Y005272D01*
X032663Y005327D02*
X032663Y005393D01*
X032621Y005495D01*
X032542Y005574D01*
X032440Y005616D01*
X032329Y005616D01*
X032226Y005574D01*
X032148Y005495D01*
X032105Y005393D01*
X032105Y005282D01*
X032148Y005179D01*
X032226Y005101D01*
X032329Y005058D01*
X032395Y005058D01*
X032778Y004675D01*
X034778Y004675D01*
X034825Y004628D01*
X034927Y004586D01*
X035038Y004586D01*
X035141Y004628D01*
X035219Y004707D01*
X035262Y004809D01*
X035262Y004920D01*
X035219Y005023D01*
X035141Y005101D01*
X035038Y005144D01*
X034927Y005144D01*
X034825Y005101D01*
X034778Y005055D01*
X032936Y005055D01*
X032663Y005327D01*
X032663Y005391D02*
X035184Y005391D01*
X035121Y005509D02*
X032607Y005509D01*
X032696Y005746D02*
X034955Y005746D01*
X035073Y005628D02*
X030163Y005628D01*
X030131Y005746D02*
X032349Y005746D01*
X032263Y005865D02*
X030006Y005865D01*
X029763Y005865D02*
X027939Y005865D01*
X027915Y005983D02*
X032243Y005983D01*
X032276Y006102D02*
X027822Y006102D01*
X027591Y006220D02*
X032404Y006220D01*
X032229Y006339D02*
X027473Y006339D01*
X027354Y006457D02*
X032184Y006457D01*
X032193Y006576D02*
X024190Y006576D01*
X024072Y006694D02*
X032264Y006694D01*
X032662Y006694D02*
X035072Y006694D01*
X035204Y006813D02*
X025458Y006813D01*
X025335Y006813D02*
X023953Y006813D01*
X023888Y006931D02*
X023835Y006931D01*
X023769Y007050D02*
X023716Y007050D01*
X023651Y007168D02*
X023598Y007168D01*
X023532Y007287D02*
X023479Y007287D01*
X023414Y007405D02*
X023361Y007405D01*
X023295Y007524D02*
X023242Y007524D01*
X023596Y007761D02*
X023879Y007761D01*
X023877Y007755D02*
X023877Y007644D01*
X023919Y007541D01*
X023998Y007463D01*
X024101Y007420D01*
X024212Y007420D01*
X024314Y007463D01*
X024393Y007541D01*
X024435Y007644D01*
X024435Y007696D01*
X025065Y008325D01*
X025065Y009394D01*
X025101Y009431D01*
X025117Y009468D01*
X025140Y009411D01*
X025177Y009375D01*
X025177Y008032D01*
X025140Y007995D01*
X025097Y007893D01*
X025097Y007782D01*
X025140Y007679D01*
X025218Y007601D01*
X025321Y007558D01*
X025432Y007558D01*
X025535Y007601D01*
X025613Y007679D01*
X025656Y007782D01*
X025656Y007893D01*
X025613Y007995D01*
X025577Y008032D01*
X025577Y009375D01*
X025613Y009411D01*
X025656Y009514D01*
X025656Y009625D01*
X025613Y009728D01*
X025535Y009806D01*
X025432Y009849D01*
X025321Y009849D01*
X025218Y009806D01*
X025140Y009728D01*
X025125Y009691D01*
X025101Y009747D01*
X025023Y009826D01*
X024920Y009868D01*
X024809Y009868D01*
X024754Y009845D01*
X026030Y011121D01*
X027152Y011121D01*
X027269Y011239D01*
X027593Y011563D01*
X027897Y011563D01*
X028155Y011820D01*
X028155Y012160D01*
X028411Y012416D01*
X028411Y012684D01*
X028533Y012563D01*
X028872Y012563D01*
X029054Y012380D01*
X029054Y012285D01*
X028897Y012443D01*
X028533Y012443D01*
X028275Y012185D01*
X028275Y011820D01*
X028533Y011563D01*
X028543Y011563D01*
X028543Y011258D01*
X028818Y010983D01*
X028818Y010974D01*
X028732Y011061D01*
X028368Y011061D01*
X028110Y010803D01*
X028110Y010438D01*
X028368Y010181D01*
X028732Y010181D01*
X028818Y010267D01*
X028818Y010117D01*
X028935Y009999D01*
X029121Y009814D01*
X029110Y009803D01*
X029110Y009438D01*
X029368Y009181D01*
X029732Y009181D01*
X029990Y009438D01*
X029990Y009803D01*
X029732Y010061D01*
X029440Y010061D01*
X029218Y010282D01*
X029218Y010330D01*
X029368Y010181D01*
X029732Y010181D01*
X029990Y010438D01*
X029990Y010803D01*
X029750Y011043D01*
X029750Y011306D01*
X029454Y011601D01*
X029454Y011613D01*
X029525Y011543D01*
X029675Y011543D01*
X029675Y011963D01*
X029755Y011963D01*
X029755Y012043D01*
X029675Y012043D01*
X029675Y012463D01*
X029525Y012463D01*
X029454Y012392D01*
X029454Y012546D01*
X029155Y012845D01*
X029155Y013185D01*
X028935Y013405D01*
X029495Y013405D01*
X029275Y013185D01*
X029275Y012820D01*
X029533Y012563D01*
X029897Y012563D01*
X030155Y012820D01*
X030155Y013185D01*
X029935Y013405D01*
X030038Y013405D01*
X030350Y013093D01*
X030350Y011043D01*
X030110Y010803D01*
X030110Y010438D01*
X030368Y010181D01*
X030732Y010181D01*
X030990Y010438D01*
X030990Y010803D01*
X030750Y011043D01*
X030750Y013259D01*
X030321Y013688D01*
X030203Y013805D01*
X028502Y013805D01*
X028128Y013431D01*
X028019Y013321D01*
X027897Y013443D01*
X027533Y013443D01*
X027275Y013185D01*
X027275Y012820D01*
X027533Y012563D01*
X027897Y012563D01*
X028011Y012676D01*
X028011Y012581D01*
X027872Y012443D01*
X027533Y012443D01*
X027275Y012185D01*
X027275Y011820D01*
X027280Y011815D01*
X026987Y011521D01*
X025865Y011521D01*
X025419Y011076D01*
X025419Y011676D01*
X025533Y011563D01*
X025897Y011563D01*
X026155Y011820D01*
X026155Y012185D01*
X025897Y012443D01*
X025533Y012443D01*
X025419Y012329D01*
X025419Y012676D01*
X025533Y012563D01*
X025897Y012563D01*
X026155Y012820D01*
X026155Y013185D01*
X025897Y013443D01*
X025533Y013443D01*
X025419Y013329D01*
X025419Y013475D01*
X025495Y013506D01*
X025574Y013585D01*
X025616Y013687D01*
X025616Y013798D01*
X025574Y013901D01*
X025495Y013979D01*
X025393Y014022D01*
X025282Y014022D01*
X025179Y013979D01*
X025101Y013901D01*
X025058Y013798D01*
X025058Y013746D01*
X025019Y013707D01*
X025019Y013321D01*
X024897Y013443D01*
X024558Y013443D01*
X024137Y013864D01*
X022124Y013864D01*
X022007Y013747D01*
X020530Y012269D01*
X018977Y012269D01*
X018940Y012306D01*
X018838Y012349D01*
X018727Y012349D01*
X018624Y012306D01*
X018545Y012228D01*
X018503Y012125D01*
X018503Y012014D01*
X018528Y011954D01*
X018465Y011954D01*
X018428Y011991D01*
X018326Y012034D01*
X018215Y012034D01*
X018112Y011991D01*
X018034Y011913D01*
X017991Y011810D01*
X017991Y011699D01*
X018034Y011596D01*
X018112Y011518D01*
X018215Y011475D01*
X018286Y011475D01*
X018286Y011404D01*
X018329Y011301D01*
X018407Y011223D01*
X018510Y011180D01*
X018621Y011180D01*
X018724Y011223D01*
X018760Y011259D01*
X018929Y011259D01*
X018883Y011213D01*
X018860Y011204D01*
X018782Y011125D01*
X018739Y011023D01*
X018739Y010912D01*
X018782Y010809D01*
X018860Y010731D01*
X018963Y010688D01*
X019074Y010688D01*
X019176Y010731D01*
X019255Y010809D01*
X019297Y010912D01*
X019297Y010984D01*
X021326Y010984D01*
X022231Y011889D01*
X022794Y011889D01*
X023228Y011455D01*
X023345Y011338D01*
X024333Y011338D01*
X024558Y011563D01*
X024897Y011563D01*
X025019Y011684D01*
X025019Y011188D01*
X024035Y010203D01*
X024035Y010046D01*
X024019Y010062D01*
X023916Y010104D01*
X023805Y010104D01*
X023703Y010062D01*
X023666Y010025D01*
X020924Y010025D01*
X020786Y009888D01*
X020734Y009888D01*
X020632Y009845D01*
X020553Y009767D01*
X020511Y009664D01*
X020511Y009553D01*
X020553Y009451D01*
X020632Y009372D01*
X020734Y009330D01*
X020845Y009330D01*
X020948Y009372D01*
X021026Y009451D01*
X021069Y009553D01*
X021069Y009605D01*
X021089Y009625D01*
X023666Y009625D01*
X023703Y009589D01*
X023805Y009546D01*
X023916Y009546D01*
X024005Y009583D01*
X023838Y009416D01*
X023838Y009272D01*
X023801Y009235D01*
X023759Y009133D01*
X023759Y009022D01*
X023801Y008919D01*
X023880Y008841D01*
X023982Y008798D01*
X024093Y008798D01*
X024196Y008841D01*
X024275Y008919D01*
X024310Y009006D01*
X024310Y008896D01*
X024274Y008881D01*
X024195Y008802D01*
X024153Y008700D01*
X024153Y008589D01*
X024195Y008486D01*
X024274Y008408D01*
X024376Y008365D01*
X024487Y008365D01*
X024576Y008402D01*
X024152Y007978D01*
X024101Y007978D01*
X023998Y007936D01*
X023919Y007857D01*
X023877Y007755D01*
X023878Y007642D02*
X023714Y007642D01*
X023833Y007524D02*
X023937Y007524D01*
X023951Y007405D02*
X037305Y007405D01*
X037305Y007287D02*
X025593Y007287D01*
X025554Y007326D02*
X025452Y007368D01*
X025341Y007368D01*
X025238Y007326D01*
X025192Y007279D01*
X024077Y007279D01*
X023303Y008054D01*
X023191Y008165D01*
X021302Y008165D01*
X020820Y007683D01*
X020754Y007683D01*
X020652Y007641D01*
X020573Y007562D01*
X020531Y007460D01*
X020531Y007349D01*
X020573Y007246D01*
X020652Y007168D01*
X020754Y007125D01*
X020865Y007125D01*
X020968Y007168D01*
X021592Y007168D01*
X021624Y007050D02*
X008327Y007050D01*
X008113Y006814D02*
X008566Y006361D01*
X008566Y003703D01*
X008807Y003495D02*
X015194Y003495D01*
X014938Y003376D02*
X006112Y003376D01*
X006131Y003495D02*
X008324Y003495D01*
X008258Y003613D02*
X006125Y003613D01*
X006076Y003732D02*
X008247Y003732D01*
X008282Y003850D02*
X005974Y003850D01*
X005374Y004206D02*
X004354Y004206D01*
X004354Y004324D02*
X005292Y004324D01*
X005251Y004443D02*
X004354Y004443D01*
X004354Y004561D02*
X005251Y004561D01*
X005285Y004680D02*
X004354Y004680D01*
X004354Y004798D02*
X005357Y004798D01*
X005604Y006070D02*
X005442Y006137D01*
X005318Y006261D01*
X005251Y006423D01*
X005251Y006598D01*
X005318Y006760D01*
X005442Y006883D01*
X005604Y006950D01*
X005779Y006950D01*
X005941Y006883D01*
X006065Y006760D01*
X006131Y006598D01*
X006131Y006423D01*
X006065Y006261D01*
X005941Y006137D01*
X005779Y006070D01*
X005604Y006070D01*
X005529Y006102D02*
X004354Y006102D01*
X004354Y006220D02*
X005360Y006220D01*
X005286Y006339D02*
X004354Y006339D01*
X004354Y006457D02*
X005251Y006457D01*
X005251Y006576D02*
X004354Y006576D01*
X004354Y006694D02*
X005291Y006694D01*
X005371Y006813D02*
X004354Y006813D01*
X004354Y006931D02*
X005557Y006931D01*
X005826Y006931D02*
X007817Y006931D01*
X007794Y006813D02*
X006012Y006813D01*
X006092Y006694D02*
X007818Y006694D01*
X007900Y006576D02*
X006131Y006576D01*
X006131Y006457D02*
X008186Y006457D01*
X008305Y006339D02*
X006097Y006339D01*
X006023Y006220D02*
X008366Y006220D01*
X008366Y006102D02*
X005854Y006102D01*
X004354Y007050D02*
X007898Y007050D01*
X005796Y008064D02*
X005678Y007946D01*
X005524Y007882D01*
X004796Y007882D01*
X004642Y007946D01*
X004524Y008064D01*
X004460Y008218D01*
X004460Y008385D01*
X004524Y008540D01*
X004642Y008658D01*
X004796Y008722D01*
X005524Y008722D01*
X005678Y008658D01*
X005796Y008540D01*
X005860Y008385D01*
X005860Y008218D01*
X005796Y008064D01*
X005818Y008116D02*
X021253Y008116D01*
X021134Y007998D02*
X005730Y007998D01*
X005860Y008235D02*
X024408Y008235D01*
X024290Y008116D02*
X023240Y008116D01*
X023359Y007998D02*
X024171Y007998D01*
X023941Y007879D02*
X023477Y007879D01*
X024156Y007699D02*
X024865Y008408D01*
X024865Y009589D01*
X025073Y009775D02*
X025188Y009775D01*
X025377Y009569D02*
X025377Y007837D01*
X025576Y007642D02*
X037305Y007642D01*
X037305Y007524D02*
X024375Y007524D01*
X024434Y007642D02*
X025177Y007642D01*
X025106Y007761D02*
X024500Y007761D01*
X024619Y007879D02*
X025097Y007879D01*
X025142Y007998D02*
X024737Y007998D01*
X024856Y008116D02*
X025177Y008116D01*
X025177Y008235D02*
X024974Y008235D01*
X025065Y008353D02*
X025177Y008353D01*
X025177Y008472D02*
X025065Y008472D01*
X025065Y008590D02*
X025177Y008590D01*
X025177Y008709D02*
X025065Y008709D01*
X025065Y008827D02*
X025177Y008827D01*
X025177Y008946D02*
X025065Y008946D01*
X025065Y009064D02*
X025177Y009064D01*
X025177Y009183D02*
X025065Y009183D01*
X025065Y009301D02*
X025177Y009301D01*
X025137Y009420D02*
X025090Y009420D01*
X025577Y009301D02*
X026200Y009301D01*
X026200Y009183D02*
X025577Y009183D01*
X025577Y009064D02*
X026200Y009064D01*
X026200Y008946D02*
X025577Y008946D01*
X025577Y008827D02*
X026200Y008827D01*
X026200Y008709D02*
X025577Y008709D01*
X025577Y008590D02*
X026200Y008590D01*
X026200Y008472D02*
X025577Y008472D01*
X025577Y008353D02*
X026200Y008353D01*
X026200Y008268D02*
X026164Y008231D01*
X026121Y008129D01*
X026121Y008018D01*
X026164Y007915D01*
X026242Y007837D01*
X026345Y007794D01*
X026456Y007794D01*
X026558Y007837D01*
X026637Y007915D01*
X026679Y008018D01*
X026679Y008129D01*
X026637Y008231D01*
X026600Y008268D01*
X026600Y009411D01*
X026696Y009451D01*
X026775Y009529D01*
X026817Y009632D01*
X026817Y009743D01*
X026775Y009846D01*
X026696Y009924D01*
X026593Y009967D01*
X026482Y009967D01*
X026380Y009924D01*
X026301Y009846D01*
X026259Y009743D01*
X026259Y009691D01*
X026200Y009633D01*
X026200Y008268D01*
X026167Y008235D02*
X025577Y008235D01*
X025577Y008116D02*
X026121Y008116D01*
X026130Y007998D02*
X025611Y007998D01*
X025656Y007879D02*
X026200Y007879D01*
X026400Y008073D02*
X026400Y009550D01*
X026538Y009688D01*
X026727Y009894D02*
X028179Y009894D01*
X028199Y009920D02*
X028156Y009862D01*
X028123Y009797D01*
X028101Y009728D01*
X028090Y009661D01*
X028510Y009661D01*
X028510Y010080D01*
X028442Y010069D01*
X028373Y010047D01*
X028309Y010014D01*
X028250Y009971D01*
X028199Y009920D01*
X028306Y010012D02*
X024921Y010012D01*
X025039Y010131D02*
X028818Y010131D01*
X028818Y010249D02*
X028800Y010249D01*
X028726Y010047D02*
X028657Y010069D01*
X028590Y010080D01*
X028590Y009661D01*
X028510Y009661D01*
X028510Y009581D01*
X028090Y009581D01*
X028101Y009513D01*
X028123Y009444D01*
X028156Y009380D01*
X028199Y009321D01*
X028250Y009270D01*
X028309Y009227D01*
X028373Y009194D01*
X028442Y009172D01*
X028510Y009161D01*
X028510Y009581D01*
X028590Y009581D01*
X028590Y009661D01*
X029009Y009661D01*
X028998Y009728D01*
X028976Y009797D01*
X028943Y009862D01*
X028901Y009920D01*
X028849Y009971D01*
X028791Y010014D01*
X028726Y010047D01*
X028794Y010012D02*
X028923Y010012D01*
X028920Y009894D02*
X029041Y009894D01*
X028983Y009775D02*
X029110Y009775D01*
X029110Y009657D02*
X028590Y009657D01*
X028550Y009621D02*
X028550Y008542D01*
X028566Y008526D01*
X028546Y008526D01*
X028569Y008526D02*
X028569Y007577D01*
X028684Y007463D01*
X028684Y007503D01*
X026671Y007998D02*
X037305Y007998D01*
X037305Y008116D02*
X034081Y008116D01*
X034070Y008108D02*
X034129Y008151D01*
X034180Y008202D01*
X034223Y008261D01*
X034256Y008325D01*
X034278Y008394D01*
X034289Y008466D01*
X034289Y008762D01*
X033869Y008762D01*
X033869Y008042D01*
X033937Y008053D01*
X034006Y008075D01*
X034070Y008108D01*
X034204Y008235D02*
X037305Y008235D01*
X037305Y008353D02*
X034265Y008353D01*
X034289Y008472D02*
X037305Y008472D01*
X037305Y008590D02*
X034289Y008590D01*
X034289Y008709D02*
X037305Y008709D01*
X037305Y008827D02*
X033869Y008827D01*
X033869Y008842D02*
X034289Y008842D01*
X034289Y009138D01*
X034278Y009209D01*
X034256Y009278D01*
X034223Y009343D01*
X034180Y009401D01*
X034129Y009453D01*
X034070Y009495D01*
X034006Y009528D01*
X033937Y009550D01*
X033869Y009561D01*
X033869Y008842D01*
X033789Y008842D01*
X033789Y008762D01*
X033369Y008762D01*
X033369Y008466D01*
X033381Y008394D01*
X033403Y008325D01*
X033436Y008261D01*
X033478Y008202D01*
X033530Y008151D01*
X033588Y008108D01*
X033653Y008075D01*
X033722Y008053D01*
X033789Y008042D01*
X033789Y008762D01*
X033869Y008762D01*
X033869Y008842D01*
X033789Y008842D02*
X033789Y009561D01*
X033722Y009550D01*
X033653Y009528D01*
X033588Y009495D01*
X033530Y009453D01*
X033478Y009401D01*
X033436Y009343D01*
X033403Y009278D01*
X033381Y009209D01*
X033369Y009138D01*
X033369Y008842D01*
X033789Y008842D01*
X033789Y008827D02*
X033269Y008827D01*
X033269Y008709D02*
X033369Y008709D01*
X033369Y008590D02*
X033269Y008590D01*
X033269Y008472D02*
X033369Y008472D01*
X033269Y008414D02*
X033269Y009189D01*
X033202Y009351D01*
X033079Y009475D01*
X032917Y009542D01*
X032742Y009542D01*
X032580Y009475D01*
X032456Y009351D01*
X032389Y009189D01*
X032389Y008414D01*
X032456Y008252D01*
X032580Y008129D01*
X032742Y008062D01*
X032917Y008062D01*
X033079Y008129D01*
X033202Y008252D01*
X033269Y008414D01*
X033244Y008353D02*
X033394Y008353D01*
X033455Y008235D02*
X033184Y008235D01*
X033048Y008116D02*
X033577Y008116D01*
X033789Y008116D02*
X033869Y008116D01*
X033869Y008235D02*
X033789Y008235D01*
X033789Y008353D02*
X033869Y008353D01*
X033869Y008472D02*
X033789Y008472D01*
X033789Y008590D02*
X033869Y008590D01*
X033869Y008709D02*
X033789Y008709D01*
X033789Y008946D02*
X033869Y008946D01*
X033869Y009064D02*
X033789Y009064D01*
X033789Y009183D02*
X033869Y009183D01*
X033869Y009301D02*
X033789Y009301D01*
X033789Y009420D02*
X033869Y009420D01*
X033869Y009538D02*
X033789Y009538D01*
X033684Y009538D02*
X032926Y009538D01*
X032733Y009538D02*
X031926Y009538D01*
X031917Y009542D02*
X031742Y009542D01*
X031580Y009475D01*
X031456Y009351D01*
X031389Y009189D01*
X031389Y008414D01*
X031456Y008252D01*
X031580Y008129D01*
X031742Y008062D01*
X031917Y008062D01*
X032079Y008129D01*
X032202Y008252D01*
X032269Y008414D01*
X032269Y009189D01*
X032202Y009351D01*
X032079Y009475D01*
X031917Y009542D01*
X031733Y009538D02*
X030990Y009538D01*
X030990Y009438D02*
X030732Y009181D01*
X030368Y009181D01*
X030110Y009438D01*
X030110Y009803D01*
X030368Y010061D01*
X030732Y010061D01*
X030990Y009803D01*
X030990Y009438D01*
X030971Y009420D02*
X031525Y009420D01*
X031436Y009301D02*
X030852Y009301D01*
X030734Y009183D02*
X031389Y009183D01*
X031389Y009064D02*
X026600Y009064D01*
X026600Y008946D02*
X031389Y008946D01*
X031389Y008827D02*
X026600Y008827D01*
X026600Y008709D02*
X031389Y008709D01*
X031389Y008590D02*
X026600Y008590D01*
X026600Y008472D02*
X031389Y008472D01*
X031415Y008353D02*
X026600Y008353D01*
X026634Y008235D02*
X031474Y008235D01*
X031611Y008116D02*
X026679Y008116D01*
X026600Y007879D02*
X037305Y007879D01*
X037305Y007761D02*
X025647Y007761D01*
X025554Y007326D02*
X025633Y007247D01*
X025675Y007145D01*
X025675Y007034D01*
X025633Y006931D01*
X025675Y007050D02*
X036116Y007050D01*
X036325Y007168D02*
X025666Y007168D01*
X025199Y007287D02*
X024070Y007287D01*
X023416Y006813D02*
X022004Y006813D01*
X022004Y006931D02*
X023297Y006931D01*
X023179Y007050D02*
X022004Y007050D01*
X022004Y007168D02*
X023060Y007168D01*
X022946Y007283D02*
X023976Y006253D01*
X023976Y006239D01*
X024093Y006121D01*
X027124Y006121D01*
X027381Y005865D01*
X027381Y005830D01*
X027285Y005790D01*
X027207Y005712D01*
X027164Y005609D01*
X027164Y005498D01*
X027207Y005396D01*
X027243Y005359D01*
X027243Y003133D01*
X027148Y003093D01*
X027069Y003015D01*
X027027Y002912D01*
X027027Y002801D01*
X027069Y002699D01*
X027148Y002620D01*
X027250Y002578D01*
X027361Y002578D01*
X027464Y002620D01*
X027542Y002699D01*
X027585Y002801D01*
X027585Y002853D01*
X027643Y002912D01*
X027577Y002784D02*
X031326Y002784D01*
X031326Y002665D02*
X027509Y002665D01*
X027306Y002857D02*
X027443Y002995D01*
X027443Y005554D01*
X027241Y005746D02*
X022047Y005746D01*
X021929Y005865D02*
X027381Y005865D01*
X027263Y005983D02*
X021925Y005983D01*
X021925Y006102D02*
X027144Y006102D01*
X027207Y006321D02*
X027660Y005869D01*
X027911Y005746D02*
X029638Y005746D01*
X029605Y005628D02*
X027807Y005628D01*
X027723Y005509D02*
X029625Y005509D01*
X029712Y005391D02*
X027675Y005391D01*
X027643Y005272D02*
X029942Y005272D01*
X030061Y005154D02*
X027643Y005154D01*
X027643Y005035D02*
X030179Y005035D01*
X030298Y004917D02*
X027643Y004917D01*
X027643Y004798D02*
X030413Y004798D01*
X030413Y004680D02*
X027643Y004680D01*
X027643Y004561D02*
X030413Y004561D01*
X030413Y004443D02*
X027643Y004443D01*
X027643Y004324D02*
X030413Y004324D01*
X030413Y004206D02*
X027643Y004206D01*
X027643Y004087D02*
X030413Y004087D01*
X030413Y003969D02*
X027643Y003969D01*
X027643Y003850D02*
X030363Y003850D01*
X030334Y003732D02*
X027643Y003732D01*
X027643Y003613D02*
X030356Y003613D01*
X030447Y003495D02*
X027643Y003495D01*
X027243Y003495D02*
X024627Y003495D01*
X024671Y003613D02*
X027243Y003613D01*
X027243Y003732D02*
X024670Y003732D01*
X024617Y003850D02*
X027243Y003850D01*
X028270Y003841D02*
X028703Y004274D01*
X029884Y005613D02*
X030613Y004884D01*
X030613Y003723D01*
X030892Y003732D02*
X037305Y003732D01*
X037305Y003850D02*
X030862Y003850D01*
X030813Y003969D02*
X037305Y003969D01*
X037305Y004087D02*
X030813Y004087D01*
X030813Y004206D02*
X037305Y004206D01*
X037305Y004324D02*
X037187Y004324D01*
X036251Y004324D02*
X030813Y004324D01*
X030813Y004443D02*
X036085Y004443D01*
X036013Y004561D02*
X030813Y004561D01*
X030813Y004680D02*
X032773Y004680D01*
X032655Y004798D02*
X030813Y004798D01*
X030813Y004917D02*
X032536Y004917D01*
X032418Y005035D02*
X030745Y005035D01*
X030626Y005154D02*
X032173Y005154D01*
X032109Y005272D02*
X030508Y005272D01*
X030389Y005391D02*
X032105Y005391D01*
X032162Y005509D02*
X030271Y005509D01*
X032641Y006220D02*
X037305Y006220D01*
X037291Y006102D02*
X037305Y006102D01*
X037305Y006339D02*
X037222Y006339D01*
X036759Y006102D02*
X036679Y006102D01*
X036679Y005983D02*
X036759Y005983D01*
X036759Y005865D02*
X036679Y005865D01*
X035970Y005628D02*
X035675Y005628D01*
X035672Y005509D02*
X036016Y005509D01*
X036109Y005391D02*
X035608Y005391D01*
X035207Y005035D02*
X036101Y005035D01*
X036020Y004917D02*
X035262Y004917D01*
X035257Y004798D02*
X035979Y004798D01*
X035979Y004680D02*
X035192Y004680D01*
X036290Y005154D02*
X032837Y005154D01*
X032854Y003601D02*
X032679Y003601D01*
X032517Y003534D01*
X032393Y003410D01*
X032326Y003248D01*
X032326Y002473D01*
X032393Y002312D01*
X032517Y002188D01*
X032679Y002121D01*
X032854Y002121D01*
X033016Y002188D01*
X033139Y002312D01*
X033206Y002473D01*
X033206Y003248D01*
X033139Y003410D01*
X033016Y003534D01*
X032854Y003601D01*
X033055Y003495D02*
X033450Y003495D01*
X033360Y003376D02*
X033153Y003376D01*
X033202Y003258D02*
X033316Y003258D01*
X033306Y003139D02*
X033206Y003139D01*
X033206Y003021D02*
X033306Y003021D01*
X033306Y002902D02*
X033206Y002902D01*
X033206Y002784D02*
X033306Y002784D01*
X033306Y002665D02*
X033206Y002665D01*
X033206Y002547D02*
X033306Y002547D01*
X033326Y002428D02*
X033188Y002428D01*
X033137Y002310D02*
X033380Y002310D01*
X033493Y002191D02*
X033019Y002191D01*
X032514Y002191D02*
X032019Y002191D01*
X032137Y002310D02*
X032395Y002310D01*
X032345Y002428D02*
X032188Y002428D01*
X032206Y002547D02*
X032326Y002547D01*
X032326Y002665D02*
X032206Y002665D01*
X032206Y002784D02*
X032326Y002784D01*
X032326Y002902D02*
X032206Y002902D01*
X032206Y003021D02*
X032326Y003021D01*
X032326Y003139D02*
X032206Y003139D01*
X032202Y003258D02*
X032330Y003258D01*
X032379Y003376D02*
X032153Y003376D01*
X032055Y003495D02*
X032478Y003495D01*
X033726Y003495D02*
X033806Y003495D01*
X033806Y003376D02*
X033726Y003376D01*
X033726Y003258D02*
X033806Y003258D01*
X033806Y003139D02*
X033726Y003139D01*
X033726Y003021D02*
X033806Y003021D01*
X033806Y002902D02*
X033726Y002902D01*
X033726Y002784D02*
X033806Y002784D01*
X033806Y002665D02*
X033726Y002665D01*
X033726Y002547D02*
X033806Y002547D01*
X033806Y002428D02*
X033726Y002428D01*
X033726Y002310D02*
X033806Y002310D01*
X033806Y002191D02*
X033726Y002191D01*
X031345Y002428D02*
X023386Y002428D01*
X023504Y002547D02*
X031326Y002547D01*
X027243Y003139D02*
X024097Y003139D01*
X024215Y003258D02*
X027243Y003258D01*
X027243Y003376D02*
X024490Y003376D01*
X023978Y003021D02*
X027075Y003021D01*
X027027Y002902D02*
X023860Y002902D01*
X023741Y002784D02*
X027034Y002784D01*
X027103Y002665D02*
X023623Y002665D01*
X023322Y002902D02*
X020713Y002902D01*
X020726Y002784D02*
X022432Y002784D01*
X022347Y002665D02*
X020726Y002665D01*
X020726Y002547D02*
X022322Y002547D01*
X022343Y002428D02*
X020629Y002428D01*
X020061Y002310D02*
X019511Y002310D01*
X019629Y002428D02*
X019943Y002428D01*
X019846Y002547D02*
X019726Y002547D01*
X019726Y002665D02*
X019846Y002665D01*
X019846Y002784D02*
X019726Y002784D01*
X019713Y002902D02*
X019859Y002902D01*
X019977Y003021D02*
X019595Y003021D01*
X019476Y003139D02*
X020096Y003139D01*
X020476Y003139D02*
X023559Y003139D01*
X023441Y003021D02*
X020595Y003021D01*
X022849Y002784D02*
X023204Y002784D01*
X023940Y001717D02*
X020726Y001717D01*
X020726Y001599D02*
X023493Y001599D01*
X023531Y001480D02*
X020681Y001480D01*
X019891Y001480D02*
X019681Y001480D01*
X019726Y001599D02*
X019846Y001599D01*
X019846Y001717D02*
X019726Y001717D01*
X019726Y001836D02*
X019846Y001836D01*
X019911Y001954D02*
X019661Y001954D01*
X019543Y002073D02*
X020029Y002073D01*
X018061Y002310D02*
X017988Y002310D01*
X017636Y003613D02*
X017594Y003613D01*
X017594Y003732D02*
X017754Y003732D01*
X017873Y003850D02*
X017594Y003850D01*
X017594Y003969D02*
X017991Y003969D01*
X018110Y004087D02*
X017594Y004087D01*
X017594Y004206D02*
X018228Y004206D01*
X018257Y004324D02*
X017594Y004324D01*
X017594Y004443D02*
X018257Y004443D01*
X018257Y004561D02*
X017594Y004561D01*
X017680Y004680D02*
X018222Y004680D01*
X018147Y004798D02*
X017723Y004798D01*
X017719Y004917D02*
X018129Y004917D01*
X018157Y005035D02*
X017664Y005035D01*
X017572Y005154D02*
X018247Y005154D01*
X017175Y005628D02*
X014899Y005628D01*
X014899Y005509D02*
X017032Y005509D01*
X016987Y005391D02*
X014884Y005391D01*
X014835Y005272D02*
X016972Y005272D01*
X016853Y005154D02*
X014716Y005154D01*
X014679Y005035D02*
X016735Y005035D01*
X016616Y004917D02*
X014679Y004917D01*
X014679Y004798D02*
X016498Y004798D01*
X016379Y004680D02*
X014703Y004680D01*
X014821Y004561D02*
X016261Y004561D01*
X016142Y004443D02*
X014940Y004443D01*
X015156Y004324D02*
X016024Y004324D01*
X015905Y004206D02*
X015271Y004206D01*
X015301Y004087D02*
X015787Y004087D01*
X015668Y003969D02*
X015279Y003969D01*
X015190Y003850D02*
X015550Y003850D01*
X015022Y004077D02*
X014479Y004621D01*
X014479Y005790D01*
X015286Y006597D01*
X015396Y006597D01*
X014279Y004917D02*
X012732Y004917D01*
X012732Y004798D02*
X014279Y004798D01*
X014279Y004680D02*
X012732Y004680D01*
X012732Y004561D02*
X014279Y004561D01*
X014374Y004443D02*
X012732Y004443D01*
X012732Y004324D02*
X014493Y004324D01*
X014611Y004206D02*
X012769Y004206D01*
X012835Y004087D02*
X014730Y004087D01*
X014765Y003969D02*
X012841Y003969D01*
X012788Y003850D02*
X014855Y003850D01*
X014820Y003258D02*
X006061Y003258D01*
X005942Y003139D02*
X014096Y003139D01*
X014476Y003139D02*
X014701Y003139D01*
X013826Y001599D02*
X004564Y001599D01*
X004724Y001480D02*
X013863Y001480D01*
X023552Y005154D02*
X027243Y005154D01*
X027243Y005272D02*
X023589Y005272D01*
X023573Y005391D02*
X027212Y005391D01*
X027164Y005509D02*
X023493Y005509D01*
X023126Y005509D02*
X022284Y005509D01*
X022166Y005628D02*
X027172Y005628D01*
X027207Y006321D02*
X024176Y006321D01*
X023994Y006220D02*
X021925Y006220D01*
X021962Y006339D02*
X023890Y006339D01*
X023771Y006457D02*
X022004Y006457D01*
X022004Y006576D02*
X023653Y006576D01*
X023534Y006694D02*
X022004Y006694D01*
X022004Y007287D02*
X022870Y007287D01*
X022880Y007283D02*
X022946Y007283D01*
X022880Y007283D02*
X022778Y007325D01*
X022699Y007404D01*
X022657Y007506D01*
X022657Y007617D01*
X022699Y007720D01*
X022764Y007785D01*
X021459Y007785D01*
X021089Y007414D01*
X021089Y007349D01*
X021046Y007246D01*
X020968Y007168D01*
X021063Y007287D02*
X021419Y007287D01*
X021377Y007405D02*
X021089Y007405D01*
X021198Y007524D02*
X021387Y007524D01*
X021316Y007642D02*
X021460Y007642D01*
X021435Y007761D02*
X022740Y007761D01*
X022667Y007642D02*
X021852Y007642D01*
X021925Y007524D02*
X022657Y007524D01*
X022698Y007405D02*
X021963Y007405D01*
X021016Y007879D02*
X004354Y007879D01*
X004354Y007761D02*
X020897Y007761D01*
X020655Y007642D02*
X004354Y007642D01*
X004354Y007524D02*
X020557Y007524D01*
X020531Y007405D02*
X004354Y007405D01*
X004354Y007287D02*
X020556Y007287D01*
X020651Y007168D02*
X004354Y007168D01*
X004354Y007998D02*
X004590Y007998D01*
X004502Y008116D02*
X004354Y008116D01*
X004354Y008235D02*
X004460Y008235D01*
X004460Y008353D02*
X004354Y008353D01*
X004354Y008472D02*
X004496Y008472D01*
X004574Y008590D02*
X004354Y008590D01*
X004354Y008709D02*
X004765Y008709D01*
X004777Y008873D02*
X004845Y008862D01*
X005130Y008862D01*
X005130Y009272D01*
X004440Y009272D01*
X004440Y009267D01*
X004451Y009199D01*
X004472Y009133D01*
X004504Y009071D01*
X004544Y009015D01*
X004593Y008966D01*
X004649Y008925D01*
X004711Y008894D01*
X004777Y008873D01*
X004622Y008946D02*
X004354Y008946D01*
X004354Y009064D02*
X004509Y009064D01*
X004456Y009183D02*
X004354Y009183D01*
X004354Y009301D02*
X005130Y009301D01*
X005130Y009272D02*
X005130Y009332D01*
X005130Y009742D01*
X004845Y009742D01*
X004777Y009731D01*
X004711Y009709D01*
X004649Y009678D01*
X004593Y009637D01*
X004544Y009588D01*
X004504Y009532D01*
X004472Y009471D01*
X004451Y009405D01*
X004440Y009336D01*
X004440Y009332D01*
X005130Y009332D01*
X005190Y009332D01*
X005190Y009742D01*
X005475Y009742D01*
X005543Y009731D01*
X005609Y009709D01*
X005671Y009678D01*
X005727Y009637D01*
X005776Y009588D01*
X005816Y009532D01*
X005848Y009471D01*
X005869Y009405D01*
X005880Y009336D01*
X005880Y009332D01*
X005190Y009332D01*
X005190Y009272D01*
X005880Y009272D01*
X005880Y009267D01*
X005869Y009199D01*
X005848Y009133D01*
X005816Y009071D01*
X005776Y009015D01*
X005727Y008966D01*
X005671Y008925D01*
X005609Y008894D01*
X005543Y008873D01*
X005475Y008862D01*
X005190Y008862D01*
X005190Y009272D01*
X005130Y009272D01*
X005190Y009301D02*
X015416Y009301D01*
X015353Y009238D02*
X015301Y009238D01*
X015199Y009196D01*
X015120Y009117D01*
X015078Y009015D01*
X015078Y008904D01*
X015120Y008801D01*
X015199Y008723D01*
X015301Y008680D01*
X015412Y008680D01*
X015515Y008723D01*
X015593Y008801D01*
X015636Y008904D01*
X015636Y008955D01*
X015982Y009302D01*
X015982Y011084D01*
X016082Y011184D01*
X016082Y010215D01*
X016199Y010098D01*
X016437Y009860D01*
X016397Y009763D01*
X016397Y009652D01*
X016439Y009549D01*
X016518Y009471D01*
X016620Y009428D01*
X016731Y009428D01*
X016834Y009471D01*
X016912Y009549D01*
X016955Y009652D01*
X016955Y009763D01*
X016912Y009865D01*
X016876Y009902D01*
X016876Y009987D01*
X016482Y010381D01*
X016482Y011184D01*
X016600Y011066D01*
X016964Y011066D01*
X017222Y011324D01*
X017222Y011689D01*
X016964Y011946D01*
X016600Y011946D01*
X016482Y011829D01*
X016482Y012089D01*
X016222Y012349D01*
X016222Y012689D01*
X015964Y012946D01*
X015600Y012946D01*
X015342Y012689D01*
X015342Y012324D01*
X015600Y012066D01*
X015939Y012066D01*
X016082Y011924D01*
X016082Y011829D01*
X015964Y011946D01*
X015600Y011946D01*
X015342Y011689D01*
X015342Y011324D01*
X015582Y011084D01*
X015582Y009467D01*
X015353Y009238D01*
X015186Y009183D02*
X005864Y009183D01*
X005811Y009064D02*
X015098Y009064D01*
X015078Y008946D02*
X005698Y008946D01*
X005555Y008709D02*
X015233Y008709D01*
X015110Y008827D02*
X004354Y008827D01*
X005130Y008946D02*
X005190Y008946D01*
X005190Y009064D02*
X005130Y009064D01*
X005130Y009183D02*
X005190Y009183D01*
X005190Y009420D02*
X005130Y009420D01*
X005130Y009538D02*
X005190Y009538D01*
X005190Y009657D02*
X005130Y009657D01*
X004620Y009657D02*
X004354Y009657D01*
X004354Y009775D02*
X008641Y009775D01*
X008641Y009754D02*
X008695Y009623D01*
X008796Y009522D01*
X008927Y009468D01*
X009070Y009468D01*
X009201Y009522D01*
X009302Y009623D01*
X009356Y009754D01*
X009356Y009897D01*
X009302Y010028D01*
X009201Y010129D01*
X009070Y010183D01*
X008927Y010183D01*
X008796Y010129D01*
X008695Y010028D01*
X008641Y009897D01*
X008641Y009754D01*
X008681Y009657D02*
X005700Y009657D01*
X005812Y009538D02*
X008780Y009538D01*
X009217Y009538D02*
X015582Y009538D01*
X015582Y009657D02*
X009316Y009657D01*
X009356Y009775D02*
X015582Y009775D01*
X015582Y009894D02*
X009356Y009894D01*
X009309Y010012D02*
X015582Y010012D01*
X015582Y010131D02*
X009197Y010131D01*
X008801Y010131D02*
X004354Y010131D01*
X004354Y010249D02*
X015582Y010249D01*
X015582Y010368D02*
X005702Y010368D01*
X005622Y010334D02*
X005783Y010401D01*
X005907Y010525D01*
X005974Y010687D01*
X005974Y010862D01*
X005907Y011023D01*
X005783Y011147D01*
X005622Y011214D01*
X005446Y011214D01*
X005285Y011147D01*
X005161Y011023D01*
X005094Y010862D01*
X005094Y010687D01*
X005161Y010525D01*
X005285Y010401D01*
X005446Y010334D01*
X005622Y010334D01*
X005366Y010368D02*
X004354Y010368D01*
X004354Y010486D02*
X005200Y010486D01*
X005128Y010605D02*
X004354Y010605D01*
X004354Y010723D02*
X005094Y010723D01*
X005094Y010842D02*
X004354Y010842D01*
X004354Y010960D02*
X005135Y010960D01*
X005216Y011079D02*
X004354Y011079D01*
X004354Y011197D02*
X005405Y011197D01*
X005446Y011334D02*
X005622Y011334D01*
X005783Y011401D01*
X005907Y011525D01*
X005974Y011687D01*
X005974Y011862D01*
X005907Y012023D01*
X005783Y012147D01*
X005622Y012214D01*
X005446Y012214D01*
X005285Y012147D01*
X005161Y012023D01*
X005094Y011862D01*
X005094Y011687D01*
X005161Y011525D01*
X005285Y011401D01*
X005446Y011334D01*
X005252Y011434D02*
X004354Y011434D01*
X004354Y011316D02*
X008062Y011316D01*
X008043Y011296D02*
X007991Y011172D01*
X007991Y011038D01*
X008043Y010913D01*
X008138Y010818D01*
X008262Y010767D01*
X008397Y010767D01*
X008521Y010818D01*
X008616Y010913D01*
X008654Y011005D01*
X008780Y011132D01*
X008826Y011242D01*
X008826Y013113D01*
X008780Y013224D01*
X008696Y013308D01*
X008595Y013409D01*
X008557Y013501D01*
X008462Y013596D01*
X008337Y013648D01*
X008203Y013648D01*
X008079Y013596D01*
X007984Y013501D01*
X007932Y013377D01*
X007932Y013242D01*
X007984Y013118D01*
X008079Y013023D01*
X008171Y012985D01*
X008226Y012929D01*
X008226Y011428D01*
X008138Y011392D01*
X008043Y011296D01*
X008002Y011197D02*
X005663Y011197D01*
X005852Y011079D02*
X007991Y011079D01*
X008023Y010960D02*
X005933Y010960D01*
X005974Y010842D02*
X008114Y010842D01*
X008544Y010842D02*
X011952Y010842D01*
X011948Y010853D02*
X011990Y010750D01*
X012069Y010671D01*
X012171Y010629D01*
X012282Y010629D01*
X012385Y010671D01*
X012463Y010750D01*
X012506Y010853D01*
X012506Y010964D01*
X012463Y011066D01*
X012385Y011145D01*
X012348Y011160D01*
X012348Y013056D01*
X012385Y013092D01*
X012427Y013195D01*
X012427Y013306D01*
X012385Y013409D01*
X012306Y013487D01*
X012204Y013530D01*
X012093Y013530D01*
X011990Y013487D01*
X011912Y013409D01*
X011869Y013306D01*
X011869Y013195D01*
X011912Y013092D01*
X011948Y013056D01*
X011948Y011070D01*
X011948Y010964D01*
X011948Y010964D01*
X011948Y010853D01*
X011948Y010960D02*
X008635Y010960D01*
X008727Y011079D02*
X011948Y011079D01*
X011948Y011197D02*
X008808Y011197D01*
X008826Y011316D02*
X011948Y011316D01*
X011948Y011434D02*
X008826Y011434D01*
X008826Y011553D02*
X011948Y011553D01*
X011948Y011671D02*
X008826Y011671D01*
X008826Y011790D02*
X011948Y011790D01*
X011948Y011908D02*
X008826Y011908D01*
X008826Y012027D02*
X011948Y012027D01*
X011948Y012145D02*
X008826Y012145D01*
X008826Y012264D02*
X011948Y012264D01*
X011948Y012382D02*
X008826Y012382D01*
X008826Y012501D02*
X011948Y012501D01*
X011948Y012619D02*
X008826Y012619D01*
X008826Y012738D02*
X011948Y012738D01*
X011948Y012856D02*
X008826Y012856D01*
X008826Y012975D02*
X011948Y012975D01*
X011911Y013093D02*
X008826Y013093D01*
X008785Y013212D02*
X011869Y013212D01*
X011879Y013330D02*
X008674Y013330D01*
X008579Y013449D02*
X011952Y013449D01*
X012148Y013251D02*
X012148Y010987D01*
X012227Y010908D01*
X012437Y010723D02*
X015582Y010723D01*
X015582Y010605D02*
X005940Y010605D01*
X005974Y010723D02*
X012017Y010723D01*
X012501Y010842D02*
X015582Y010842D01*
X015582Y010960D02*
X012506Y010960D01*
X012451Y011079D02*
X015582Y011079D01*
X015469Y011197D02*
X012348Y011197D01*
X012348Y011316D02*
X015351Y011316D01*
X015342Y011434D02*
X012348Y011434D01*
X012348Y011553D02*
X015342Y011553D01*
X015342Y011671D02*
X012348Y011671D01*
X012348Y011790D02*
X015443Y011790D01*
X015561Y011908D02*
X012348Y011908D01*
X012348Y012027D02*
X015979Y012027D01*
X016003Y011908D02*
X016082Y011908D01*
X016282Y012006D02*
X015782Y012506D01*
X015342Y012501D02*
X013658Y012501D01*
X013709Y012552D02*
X013773Y012706D01*
X013773Y012873D01*
X013709Y013028D01*
X013591Y013146D01*
X013437Y013210D01*
X012710Y013210D01*
X012555Y013146D01*
X012437Y013028D01*
X012373Y012873D01*
X012373Y012706D01*
X012437Y012552D01*
X012555Y012434D01*
X012710Y012370D01*
X013437Y012370D01*
X013591Y012434D01*
X013709Y012552D01*
X013737Y012619D02*
X015342Y012619D01*
X015391Y012738D02*
X013773Y012738D01*
X013773Y012856D02*
X015509Y012856D01*
X015600Y013066D02*
X015964Y013066D01*
X016222Y013324D01*
X016222Y013689D01*
X015964Y013946D01*
X015600Y013946D01*
X015342Y013689D01*
X015342Y013324D01*
X015600Y013066D01*
X015573Y013093D02*
X013644Y013093D01*
X013731Y012975D02*
X021235Y012975D01*
X021354Y013093D02*
X016991Y013093D01*
X016964Y013066D02*
X017222Y013324D01*
X017222Y013689D01*
X016964Y013946D01*
X016600Y013946D01*
X016342Y013689D01*
X016342Y013324D01*
X016600Y013066D01*
X016964Y013066D01*
X016964Y012946D02*
X016600Y012946D01*
X016342Y012689D01*
X016342Y012324D01*
X016600Y012066D01*
X016964Y012066D01*
X017222Y012324D01*
X017222Y012689D01*
X016964Y012946D01*
X017055Y012856D02*
X021117Y012856D01*
X020998Y012738D02*
X017173Y012738D01*
X017222Y012619D02*
X020880Y012619D01*
X020761Y012501D02*
X017222Y012501D01*
X017222Y012382D02*
X020643Y012382D01*
X020613Y012069D02*
X022207Y013664D01*
X024054Y013664D01*
X024715Y013003D01*
X025010Y013330D02*
X025019Y013330D01*
X025019Y013449D02*
X024552Y013449D01*
X024433Y013567D02*
X025019Y013567D01*
X025019Y013686D02*
X024315Y013686D01*
X024196Y013804D02*
X025061Y013804D01*
X025122Y013923D02*
X023659Y013923D01*
X023733Y013953D02*
X023851Y014071D01*
X023915Y014226D01*
X023915Y014953D01*
X023851Y015107D01*
X023733Y015225D01*
X023578Y015289D01*
X023411Y015289D01*
X023257Y015225D01*
X023139Y015107D01*
X023075Y014953D01*
X023075Y014226D01*
X023139Y014071D01*
X023257Y013953D01*
X023411Y013889D01*
X023578Y013889D01*
X023733Y013953D01*
X023821Y014041D02*
X037305Y014041D01*
X037305Y013923D02*
X025552Y013923D01*
X025614Y013804D02*
X028502Y013804D01*
X028383Y013686D02*
X025616Y013686D01*
X025556Y013567D02*
X028265Y013567D01*
X028146Y013449D02*
X025419Y013449D01*
X025419Y013330D02*
X025420Y013330D01*
X026010Y013330D02*
X026420Y013330D01*
X026533Y013443D02*
X026275Y013185D01*
X026275Y012820D01*
X026533Y012563D01*
X026897Y012563D01*
X027155Y012820D01*
X027155Y013185D01*
X026897Y013443D01*
X026533Y013443D01*
X026302Y013212D02*
X026128Y013212D01*
X026155Y013093D02*
X026275Y013093D01*
X026275Y012975D02*
X026155Y012975D01*
X026155Y012856D02*
X026275Y012856D01*
X026358Y012738D02*
X026072Y012738D01*
X025954Y012619D02*
X026476Y012619D01*
X026533Y012443D02*
X026275Y012185D01*
X026275Y011820D01*
X026533Y011563D01*
X026897Y011563D01*
X027155Y011820D01*
X027155Y012185D01*
X026897Y012443D01*
X026533Y012443D01*
X026472Y012382D02*
X025958Y012382D01*
X026076Y012264D02*
X026354Y012264D01*
X026275Y012145D02*
X026155Y012145D01*
X026155Y012027D02*
X026275Y012027D01*
X026275Y011908D02*
X026155Y011908D01*
X026124Y011790D02*
X026306Y011790D01*
X026424Y011671D02*
X026006Y011671D01*
X025777Y011434D02*
X025419Y011434D01*
X025419Y011316D02*
X025659Y011316D01*
X025540Y011197D02*
X025419Y011197D01*
X025419Y011079D02*
X025422Y011079D01*
X025219Y011105D02*
X025219Y013625D01*
X025337Y013743D01*
X023887Y014160D02*
X037305Y014160D01*
X037305Y014278D02*
X023915Y014278D01*
X023915Y014397D02*
X037305Y014397D01*
X037305Y014515D02*
X023915Y014515D01*
X023915Y014634D02*
X037305Y014634D01*
X037305Y014752D02*
X023915Y014752D01*
X023915Y014871D02*
X037305Y014871D01*
X037305Y014989D02*
X023900Y014989D01*
X023850Y015108D02*
X037305Y015108D01*
X037305Y015226D02*
X023730Y015226D01*
X023259Y015226D02*
X022730Y015226D01*
X022733Y015225D02*
X022578Y015289D01*
X022411Y015289D01*
X022257Y015225D01*
X022139Y015107D01*
X022075Y014953D01*
X022075Y014226D01*
X022139Y014071D01*
X022257Y013953D01*
X022411Y013889D01*
X022578Y013889D01*
X022733Y013953D01*
X022851Y014071D01*
X022915Y014226D01*
X022915Y014953D01*
X022851Y015107D01*
X022733Y015225D01*
X022850Y015108D02*
X023139Y015108D01*
X023090Y014989D02*
X022900Y014989D01*
X022915Y014871D02*
X023075Y014871D01*
X023075Y014752D02*
X022915Y014752D01*
X022915Y014634D02*
X023075Y014634D01*
X023075Y014515D02*
X022915Y014515D01*
X022915Y014397D02*
X023075Y014397D01*
X023075Y014278D02*
X022915Y014278D01*
X022887Y014160D02*
X023102Y014160D01*
X023169Y014041D02*
X022821Y014041D01*
X022659Y013923D02*
X023330Y013923D01*
X022330Y013923D02*
X016988Y013923D01*
X016964Y014066D02*
X017222Y014324D01*
X017222Y014689D01*
X016964Y014946D01*
X016600Y014946D01*
X016342Y014689D01*
X016342Y014324D01*
X016600Y014066D01*
X016964Y014066D01*
X017057Y014160D02*
X022102Y014160D01*
X022075Y014278D02*
X017176Y014278D01*
X017222Y014397D02*
X022075Y014397D01*
X022075Y014515D02*
X017222Y014515D01*
X017222Y014634D02*
X022075Y014634D01*
X022075Y014752D02*
X017159Y014752D01*
X017040Y014871D02*
X022075Y014871D01*
X022090Y014989D02*
X015548Y014989D01*
X015600Y014946D02*
X015342Y014689D01*
X015342Y014324D01*
X015600Y014066D01*
X015964Y014066D01*
X016222Y014324D01*
X016222Y014689D01*
X015964Y014946D01*
X015600Y014946D01*
X015524Y014871D02*
X015429Y014871D01*
X015405Y014752D02*
X015311Y014752D01*
X015342Y014634D02*
X015192Y014634D01*
X015074Y014515D02*
X015342Y014515D01*
X015342Y014397D02*
X014955Y014397D01*
X014837Y014278D02*
X015388Y014278D01*
X015507Y014160D02*
X014718Y014160D01*
X014600Y014041D02*
X022169Y014041D01*
X022065Y013804D02*
X017107Y013804D01*
X017222Y013686D02*
X021946Y013686D01*
X021828Y013567D02*
X017222Y013567D01*
X017222Y013449D02*
X021709Y013449D01*
X021591Y013330D02*
X017222Y013330D01*
X017109Y013212D02*
X021472Y013212D01*
X021932Y012877D02*
X023589Y012877D01*
X023715Y013003D01*
X023235Y012483D02*
X022050Y012483D01*
X021026Y011459D01*
X018566Y011459D01*
X018662Y011197D02*
X018854Y011197D01*
X018762Y011079D02*
X016976Y011079D01*
X017095Y011197D02*
X018469Y011197D01*
X018323Y011316D02*
X017213Y011316D01*
X017222Y011434D02*
X018286Y011434D01*
X018077Y011553D02*
X017222Y011553D01*
X017222Y011671D02*
X018003Y011671D01*
X017991Y011790D02*
X017121Y011790D01*
X017003Y011908D02*
X018032Y011908D01*
X018198Y012027D02*
X016482Y012027D01*
X016482Y011908D02*
X016561Y011908D01*
X016521Y012145D02*
X016426Y012145D01*
X016403Y012264D02*
X016308Y012264D01*
X016342Y012382D02*
X016222Y012382D01*
X016222Y012501D02*
X016342Y012501D01*
X016342Y012619D02*
X016222Y012619D01*
X016173Y012738D02*
X016391Y012738D01*
X016509Y012856D02*
X016055Y012856D01*
X015991Y013093D02*
X016573Y013093D01*
X016455Y013212D02*
X016109Y013212D01*
X016222Y013330D02*
X016342Y013330D01*
X016342Y013449D02*
X016222Y013449D01*
X016222Y013567D02*
X016342Y013567D01*
X016342Y013686D02*
X016222Y013686D01*
X016107Y013804D02*
X016457Y013804D01*
X016576Y013923D02*
X015988Y013923D01*
X016057Y014160D02*
X016507Y014160D01*
X016388Y014278D02*
X016176Y014278D01*
X016222Y014397D02*
X016342Y014397D01*
X016342Y014515D02*
X016222Y014515D01*
X016222Y014634D02*
X016342Y014634D01*
X016405Y014752D02*
X016159Y014752D01*
X016040Y014871D02*
X016524Y014871D01*
X016592Y015046D02*
X016322Y015316D01*
X016322Y015466D01*
X016742Y015466D01*
X016822Y015466D01*
X016822Y015046D01*
X016973Y015046D01*
X017242Y015316D01*
X017242Y015466D01*
X016822Y015466D01*
X016822Y015546D01*
X017242Y015546D01*
X017242Y015697D01*
X016973Y015966D01*
X016822Y015966D01*
X016822Y015546D01*
X016742Y015546D01*
X016742Y015466D01*
X016742Y015046D01*
X016592Y015046D01*
X016530Y015108D02*
X016005Y015108D01*
X015964Y015066D02*
X016222Y015324D01*
X016222Y015689D01*
X015964Y015946D01*
X015600Y015946D01*
X015342Y015689D01*
X015342Y015349D01*
X013983Y013990D01*
X013725Y013990D01*
X013709Y014028D01*
X013591Y014146D01*
X013437Y014210D01*
X012710Y014210D01*
X012555Y014146D01*
X012437Y014028D01*
X012373Y013873D01*
X012373Y013706D01*
X012437Y013552D01*
X012555Y013434D01*
X012710Y013370D01*
X013437Y013370D01*
X013591Y013434D01*
X013709Y013552D01*
X013725Y013590D01*
X014148Y013590D01*
X015625Y015066D01*
X015964Y015066D01*
X016124Y015226D02*
X016412Y015226D01*
X016322Y015345D02*
X016222Y015345D01*
X016222Y015463D02*
X016322Y015463D01*
X016322Y015546D02*
X016742Y015546D01*
X016742Y015966D01*
X016592Y015966D01*
X016322Y015697D01*
X016322Y015546D01*
X016322Y015582D02*
X016222Y015582D01*
X016211Y015700D02*
X016325Y015700D01*
X016444Y015819D02*
X016092Y015819D01*
X015974Y015937D02*
X016562Y015937D01*
X016742Y015937D02*
X016822Y015937D01*
X016822Y015819D02*
X016742Y015819D01*
X016742Y015700D02*
X016822Y015700D01*
X016822Y015582D02*
X016742Y015582D01*
X016742Y015463D02*
X016822Y015463D01*
X016822Y015345D02*
X016742Y015345D01*
X016742Y015226D02*
X016822Y015226D01*
X016822Y015108D02*
X016742Y015108D01*
X017034Y015108D02*
X022139Y015108D01*
X022259Y015226D02*
X017152Y015226D01*
X017242Y015345D02*
X037305Y015345D01*
X037305Y015463D02*
X017242Y015463D01*
X017242Y015582D02*
X037305Y015582D01*
X037305Y015700D02*
X017239Y015700D01*
X017120Y015819D02*
X037305Y015819D01*
X037301Y015937D02*
X017002Y015937D01*
X015782Y015506D02*
X014066Y013790D01*
X013073Y013790D01*
X012451Y014041D02*
X005889Y014041D01*
X005907Y014023D02*
X005783Y014147D01*
X005622Y014214D01*
X005446Y014214D01*
X005285Y014147D01*
X005161Y014023D01*
X005094Y013862D01*
X005094Y013687D01*
X005161Y013525D01*
X005285Y013401D01*
X005446Y013334D01*
X005622Y013334D01*
X005783Y013401D01*
X005907Y013525D01*
X005974Y013687D01*
X005974Y013862D01*
X005907Y014023D01*
X005949Y013923D02*
X012394Y013923D01*
X012373Y013804D02*
X005974Y013804D01*
X005974Y013686D02*
X012382Y013686D01*
X012431Y013567D02*
X008491Y013567D01*
X008050Y013567D02*
X005924Y013567D01*
X005831Y013449D02*
X007962Y013449D01*
X007932Y013330D02*
X004354Y013330D01*
X004354Y013212D02*
X005440Y013212D01*
X005446Y013214D02*
X005285Y013147D01*
X005161Y013023D01*
X005094Y012862D01*
X005094Y012687D01*
X005161Y012525D01*
X005285Y012401D01*
X005446Y012334D01*
X005622Y012334D01*
X005783Y012401D01*
X005907Y012525D01*
X005974Y012687D01*
X005974Y012862D01*
X005907Y013023D01*
X005783Y013147D01*
X005622Y013214D01*
X005446Y013214D01*
X005628Y013212D02*
X007945Y013212D01*
X008009Y013093D02*
X005837Y013093D01*
X005927Y012975D02*
X008181Y012975D01*
X008226Y012856D02*
X005974Y012856D01*
X005974Y012738D02*
X008226Y012738D01*
X008226Y012619D02*
X005946Y012619D01*
X005883Y012501D02*
X008226Y012501D01*
X008226Y012382D02*
X005737Y012382D01*
X005785Y012145D02*
X008226Y012145D01*
X008226Y012027D02*
X005904Y012027D01*
X005955Y011908D02*
X008226Y011908D01*
X008226Y011790D02*
X005974Y011790D01*
X005968Y011671D02*
X008226Y011671D01*
X008226Y011553D02*
X005918Y011553D01*
X005816Y011434D02*
X008226Y011434D01*
X008226Y012264D02*
X004354Y012264D01*
X004354Y012382D02*
X005331Y012382D01*
X005185Y012501D02*
X004354Y012501D01*
X004354Y012619D02*
X005122Y012619D01*
X005094Y012738D02*
X004354Y012738D01*
X004354Y012856D02*
X005094Y012856D01*
X005141Y012975D02*
X004354Y012975D01*
X004354Y013093D02*
X005231Y013093D01*
X005237Y013449D02*
X004354Y013449D01*
X004354Y013567D02*
X005144Y013567D01*
X005094Y013686D02*
X004354Y013686D01*
X004354Y013804D02*
X005094Y013804D01*
X005119Y013923D02*
X004354Y013923D01*
X004354Y014041D02*
X005179Y014041D01*
X005315Y014160D02*
X004354Y014160D01*
X004354Y014278D02*
X014271Y014278D01*
X014389Y014397D02*
X004354Y014397D01*
X004354Y014515D02*
X014508Y014515D01*
X014626Y014634D02*
X004354Y014634D01*
X004354Y014752D02*
X014745Y014752D01*
X014863Y014871D02*
X014066Y014871D01*
X014080Y014878D02*
X014136Y014918D01*
X014185Y014967D01*
X014225Y015023D01*
X014257Y015085D01*
X014278Y015151D01*
X014289Y015219D01*
X014289Y015504D01*
X013879Y015504D01*
X013879Y015564D01*
X014289Y015564D01*
X014289Y015849D01*
X014278Y015917D01*
X014257Y015983D01*
X014225Y016045D01*
X014185Y016101D01*
X014136Y016150D01*
X014080Y016190D01*
X014018Y016222D01*
X013952Y016243D01*
X013884Y016254D01*
X013879Y016254D01*
X013879Y015564D01*
X013819Y015564D01*
X013819Y016254D01*
X013814Y016254D01*
X013746Y016243D01*
X013680Y016222D01*
X013618Y016190D01*
X013562Y016150D01*
X013513Y016101D01*
X013473Y016045D01*
X013441Y015983D01*
X013420Y015917D01*
X013409Y015849D01*
X013409Y015564D01*
X013819Y015564D01*
X013819Y015504D01*
X013879Y015504D01*
X013879Y014814D01*
X013884Y014814D01*
X013952Y014825D01*
X014018Y014846D01*
X014080Y014878D01*
X014200Y014989D02*
X014982Y014989D01*
X015100Y015108D02*
X014264Y015108D01*
X014289Y015226D02*
X015219Y015226D01*
X015337Y015345D02*
X014289Y015345D01*
X014289Y015463D02*
X015342Y015463D01*
X015342Y015582D02*
X014289Y015582D01*
X014289Y015700D02*
X015353Y015700D01*
X015472Y015819D02*
X014289Y015819D01*
X014272Y015937D02*
X015590Y015937D01*
X014217Y016056D02*
X037278Y016056D01*
X037240Y016174D02*
X014102Y016174D01*
X013879Y016174D02*
X013819Y016174D01*
X013819Y016056D02*
X013879Y016056D01*
X013879Y015937D02*
X013819Y015937D01*
X013819Y015819D02*
X013879Y015819D01*
X013879Y015700D02*
X013819Y015700D01*
X013819Y015582D02*
X013879Y015582D01*
X013819Y015504D02*
X013409Y015504D01*
X013409Y015219D01*
X013420Y015151D01*
X013441Y015085D01*
X013473Y015023D01*
X013513Y014967D01*
X013562Y014918D01*
X013618Y014878D01*
X013680Y014846D01*
X013746Y014825D01*
X013814Y014814D01*
X013819Y014814D01*
X013819Y015504D01*
X013819Y015463D02*
X013879Y015463D01*
X013879Y015345D02*
X013819Y015345D01*
X013819Y015226D02*
X013879Y015226D01*
X013879Y015108D02*
X013819Y015108D01*
X013819Y014989D02*
X013879Y014989D01*
X013879Y014871D02*
X013819Y014871D01*
X013632Y014871D02*
X013021Y014871D01*
X013087Y014898D02*
X013205Y015016D01*
X013269Y015170D01*
X013269Y015898D01*
X013205Y016052D01*
X013087Y016170D01*
X012933Y016234D01*
X012765Y016234D01*
X012611Y016170D01*
X012493Y016052D01*
X012429Y015898D01*
X012429Y015170D01*
X012493Y015016D01*
X012611Y014898D01*
X012765Y014834D01*
X012933Y014834D01*
X013087Y014898D01*
X013178Y014989D02*
X013498Y014989D01*
X013434Y015108D02*
X013243Y015108D01*
X013269Y015226D02*
X013409Y015226D01*
X013409Y015345D02*
X013269Y015345D01*
X013269Y015463D02*
X013409Y015463D01*
X013409Y015582D02*
X013269Y015582D01*
X013269Y015700D02*
X013409Y015700D01*
X013409Y015819D02*
X013269Y015819D01*
X013253Y015937D02*
X013426Y015937D01*
X013481Y016056D02*
X013201Y016056D01*
X013077Y016174D02*
X013596Y016174D01*
X012621Y016174D02*
X011818Y016174D01*
X011796Y016190D02*
X011734Y016222D01*
X011669Y016243D01*
X011600Y016254D01*
X011596Y016254D01*
X011596Y015564D01*
X012006Y015564D01*
X012006Y015849D01*
X011995Y015917D01*
X011973Y015983D01*
X011942Y016045D01*
X011901Y016101D01*
X011852Y016150D01*
X011796Y016190D01*
X011934Y016056D02*
X012497Y016056D01*
X012445Y015937D02*
X011988Y015937D01*
X012006Y015819D02*
X012429Y015819D01*
X012429Y015700D02*
X012006Y015700D01*
X012006Y015582D02*
X012429Y015582D01*
X012429Y015463D02*
X012006Y015463D01*
X012006Y015504D02*
X011596Y015504D01*
X011596Y015564D01*
X011536Y015564D01*
X011536Y016254D01*
X011531Y016254D01*
X011462Y016243D01*
X011397Y016222D01*
X011335Y016190D01*
X011279Y016150D01*
X011230Y016101D01*
X011189Y016045D01*
X011158Y015983D01*
X011136Y015917D01*
X011126Y015849D01*
X011126Y015564D01*
X011536Y015564D01*
X011536Y015504D01*
X011596Y015504D01*
X011596Y014814D01*
X011600Y014814D01*
X011669Y014825D01*
X011734Y014846D01*
X011796Y014878D01*
X011852Y014918D01*
X011901Y014967D01*
X011942Y015023D01*
X011973Y015085D01*
X011995Y015151D01*
X012006Y015219D01*
X012006Y015504D01*
X012006Y015345D02*
X012429Y015345D01*
X012429Y015226D02*
X012006Y015226D01*
X011981Y015108D02*
X012455Y015108D01*
X012520Y014989D02*
X011917Y014989D01*
X011782Y014871D02*
X012677Y014871D01*
X011596Y014871D02*
X011536Y014871D01*
X011536Y014814D02*
X011536Y015504D01*
X011126Y015504D01*
X011126Y015219D01*
X011136Y015151D01*
X011158Y015085D01*
X011189Y015023D01*
X011230Y014967D01*
X011279Y014918D01*
X011335Y014878D01*
X011397Y014846D01*
X011462Y014825D01*
X011531Y014814D01*
X011536Y014814D01*
X011536Y014989D02*
X011596Y014989D01*
X011596Y015108D02*
X011536Y015108D01*
X011536Y015226D02*
X011596Y015226D01*
X011596Y015345D02*
X011536Y015345D01*
X011536Y015463D02*
X011596Y015463D01*
X011596Y015582D02*
X011536Y015582D01*
X011536Y015700D02*
X011596Y015700D01*
X011596Y015819D02*
X011536Y015819D01*
X011536Y015937D02*
X011596Y015937D01*
X011596Y016056D02*
X011536Y016056D01*
X011536Y016174D02*
X011596Y016174D01*
X011313Y016174D02*
X010794Y016174D01*
X010803Y016170D02*
X010649Y016234D01*
X010482Y016234D01*
X010328Y016170D01*
X010209Y016052D01*
X010146Y015898D01*
X010146Y015170D01*
X010209Y015016D01*
X010328Y014898D01*
X010482Y014834D01*
X010649Y014834D01*
X010803Y014898D01*
X010922Y015016D01*
X010986Y015170D01*
X010986Y015898D01*
X010922Y016052D01*
X010803Y016170D01*
X010918Y016056D02*
X011197Y016056D01*
X011143Y015937D02*
X010969Y015937D01*
X010986Y015819D02*
X011126Y015819D01*
X011126Y015700D02*
X010986Y015700D01*
X010986Y015582D02*
X011126Y015582D01*
X011126Y015463D02*
X010986Y015463D01*
X010986Y015345D02*
X011126Y015345D01*
X011126Y015226D02*
X010986Y015226D01*
X010959Y015108D02*
X011150Y015108D01*
X011214Y014989D02*
X010895Y014989D01*
X010737Y014871D02*
X011349Y014871D01*
X010394Y014871D02*
X004354Y014871D01*
X004354Y014989D02*
X010236Y014989D01*
X010172Y015108D02*
X004354Y015108D01*
X004354Y015226D02*
X010146Y015226D01*
X010146Y015345D02*
X004354Y015345D01*
X004354Y015463D02*
X010146Y015463D01*
X010146Y015582D02*
X004354Y015582D01*
X004354Y015700D02*
X010146Y015700D01*
X010146Y015819D02*
X004354Y015819D01*
X004358Y015937D02*
X010162Y015937D01*
X010213Y016056D02*
X004380Y016056D01*
X004419Y016174D02*
X010337Y016174D01*
X012588Y014160D02*
X005753Y014160D01*
X005283Y012145D02*
X004354Y012145D01*
X004354Y012027D02*
X005164Y012027D01*
X005113Y011908D02*
X004354Y011908D01*
X004354Y011790D02*
X005094Y011790D01*
X005100Y011671D02*
X004354Y011671D01*
X004354Y011553D02*
X005150Y011553D01*
X005868Y010486D02*
X015582Y010486D01*
X015982Y010486D02*
X016082Y010486D01*
X016082Y010368D02*
X015982Y010368D01*
X015982Y010249D02*
X016082Y010249D01*
X016166Y010131D02*
X015982Y010131D01*
X015982Y010012D02*
X016285Y010012D01*
X016403Y009894D02*
X015982Y009894D01*
X015982Y009775D02*
X016402Y009775D01*
X016397Y009657D02*
X015982Y009657D01*
X015982Y009538D02*
X016450Y009538D01*
X016676Y009707D02*
X016676Y009904D01*
X016282Y010298D01*
X016282Y012006D01*
X015521Y012145D02*
X012348Y012145D01*
X012348Y012264D02*
X015403Y012264D01*
X015342Y012382D02*
X013466Y012382D01*
X012680Y012382D02*
X012348Y012382D01*
X012348Y012501D02*
X012489Y012501D01*
X012410Y012619D02*
X012348Y012619D01*
X012348Y012738D02*
X012373Y012738D01*
X012373Y012856D02*
X012348Y012856D01*
X012348Y012975D02*
X012415Y012975D01*
X012385Y013093D02*
X012503Y013093D01*
X012427Y013212D02*
X015455Y013212D01*
X015342Y013330D02*
X012417Y013330D01*
X012345Y013449D02*
X012541Y013449D01*
X013606Y013449D02*
X015342Y013449D01*
X015342Y013567D02*
X013716Y013567D01*
X014244Y013686D02*
X015342Y013686D01*
X015457Y013804D02*
X014363Y013804D01*
X014481Y013923D02*
X015576Y013923D01*
X014152Y014160D02*
X013558Y014160D01*
X013696Y014041D02*
X014034Y014041D01*
X017161Y012264D02*
X018582Y012264D01*
X018511Y012145D02*
X017043Y012145D01*
X018270Y011754D02*
X020810Y011754D01*
X021932Y012877D01*
X023235Y012483D02*
X023715Y012003D01*
X023428Y011538D02*
X022877Y012089D01*
X022148Y012089D01*
X021243Y011184D01*
X019136Y011184D01*
X019058Y011105D01*
X019058Y011006D01*
X019018Y010967D01*
X018739Y010960D02*
X016482Y010960D01*
X016482Y010842D02*
X018768Y010842D01*
X018878Y010723D02*
X016482Y010723D01*
X016482Y010605D02*
X024436Y010605D01*
X024554Y010723D02*
X019158Y010723D01*
X019268Y010842D02*
X024673Y010842D01*
X024791Y010960D02*
X019297Y010960D01*
X021420Y011079D02*
X024910Y011079D01*
X025019Y011197D02*
X021539Y011197D01*
X021657Y011316D02*
X025019Y011316D01*
X025019Y011434D02*
X024430Y011434D01*
X024548Y011553D02*
X025019Y011553D01*
X025006Y011671D02*
X025019Y011671D01*
X025419Y011671D02*
X025424Y011671D01*
X025419Y011553D02*
X027018Y011553D01*
X027006Y011671D02*
X027136Y011671D01*
X027124Y011790D02*
X027255Y011790D01*
X027275Y011908D02*
X027155Y011908D01*
X027155Y012027D02*
X027275Y012027D01*
X027275Y012145D02*
X027155Y012145D01*
X027076Y012264D02*
X027354Y012264D01*
X027472Y012382D02*
X026958Y012382D01*
X026954Y012619D02*
X027476Y012619D01*
X027358Y012738D02*
X027072Y012738D01*
X027155Y012856D02*
X027275Y012856D01*
X027275Y012975D02*
X027155Y012975D01*
X027155Y013093D02*
X027275Y013093D01*
X027302Y013212D02*
X027128Y013212D01*
X027010Y013330D02*
X027420Y013330D01*
X028010Y013330D02*
X028028Y013330D01*
X028211Y013231D02*
X028211Y012499D01*
X027715Y012003D01*
X027715Y011967D01*
X027069Y011321D01*
X025947Y011321D01*
X024510Y009884D01*
X024510Y008723D01*
X024432Y008644D01*
X024220Y008827D02*
X024163Y008827D01*
X024156Y008709D02*
X015481Y008709D01*
X015604Y008827D02*
X023913Y008827D01*
X023790Y008946D02*
X015636Y008946D01*
X015745Y009064D02*
X023759Y009064D01*
X023780Y009183D02*
X015863Y009183D01*
X015982Y009301D02*
X023838Y009301D01*
X023841Y009420D02*
X020995Y009420D01*
X021063Y009538D02*
X023960Y009538D01*
X024038Y009333D02*
X024235Y009530D01*
X024235Y010121D01*
X025219Y011105D01*
X025750Y010842D02*
X028148Y010842D01*
X028110Y010723D02*
X025632Y010723D01*
X025513Y010605D02*
X028110Y010605D01*
X028110Y010486D02*
X025395Y010486D01*
X025276Y010368D02*
X028181Y010368D01*
X028299Y010249D02*
X025158Y010249D01*
X024802Y009894D02*
X026349Y009894D01*
X026272Y009775D02*
X025566Y009775D01*
X025642Y009657D02*
X026224Y009657D01*
X026200Y009538D02*
X025656Y009538D01*
X025617Y009420D02*
X026200Y009420D01*
X026600Y009301D02*
X028219Y009301D01*
X028136Y009420D02*
X026620Y009420D01*
X026778Y009538D02*
X028097Y009538D01*
X028116Y009775D02*
X026804Y009775D01*
X026817Y009657D02*
X028510Y009657D01*
X028590Y009581D02*
X029009Y009581D01*
X028998Y009513D01*
X028976Y009444D01*
X028943Y009380D01*
X028901Y009321D01*
X028849Y009270D01*
X028791Y009227D01*
X028726Y009194D01*
X028657Y009172D01*
X028590Y009161D01*
X028590Y009581D01*
X028590Y009538D02*
X028510Y009538D01*
X028510Y009420D02*
X028590Y009420D01*
X028590Y009301D02*
X028510Y009301D01*
X028510Y009183D02*
X028590Y009183D01*
X028690Y009183D02*
X029366Y009183D01*
X029247Y009301D02*
X028881Y009301D01*
X028964Y009420D02*
X029129Y009420D01*
X029110Y009538D02*
X029002Y009538D01*
X028590Y009775D02*
X028510Y009775D01*
X028510Y009894D02*
X028590Y009894D01*
X028590Y010012D02*
X028510Y010012D01*
X029018Y010199D02*
X029018Y011066D01*
X028743Y011341D01*
X028743Y011975D01*
X028715Y012003D01*
X028275Y012027D02*
X028155Y012027D01*
X028155Y012145D02*
X028275Y012145D01*
X028259Y012264D02*
X028354Y012264D01*
X028378Y012382D02*
X028472Y012382D01*
X028411Y012501D02*
X028934Y012501D01*
X028958Y012382D02*
X029053Y012382D01*
X029254Y012463D02*
X028715Y013003D01*
X029010Y013330D02*
X029420Y013330D01*
X029302Y013212D02*
X029128Y013212D01*
X029155Y013093D02*
X029275Y013093D01*
X029275Y012975D02*
X029155Y012975D01*
X029155Y012856D02*
X029275Y012856D01*
X029263Y012738D02*
X029358Y012738D01*
X029381Y012619D02*
X029476Y012619D01*
X029454Y012501D02*
X030350Y012501D01*
X030350Y012619D02*
X029954Y012619D01*
X029906Y012463D02*
X029755Y012463D01*
X029755Y012043D01*
X030175Y012043D01*
X030175Y012193D01*
X029906Y012463D01*
X029986Y012382D02*
X030350Y012382D01*
X030350Y012264D02*
X030105Y012264D01*
X030175Y012145D02*
X030350Y012145D01*
X030350Y012027D02*
X029755Y012027D01*
X029755Y011963D02*
X030175Y011963D01*
X030175Y011812D01*
X029906Y011543D01*
X029755Y011543D01*
X029755Y011963D01*
X029755Y011908D02*
X029675Y011908D01*
X029675Y011790D02*
X029755Y011790D01*
X029755Y011671D02*
X029675Y011671D01*
X029675Y011553D02*
X029755Y011553D01*
X029916Y011553D02*
X030350Y011553D01*
X030350Y011671D02*
X030034Y011671D01*
X030153Y011790D02*
X030350Y011790D01*
X030350Y011908D02*
X030175Y011908D01*
X029755Y012145D02*
X029675Y012145D01*
X029675Y012264D02*
X029755Y012264D01*
X029755Y012382D02*
X029675Y012382D01*
X029254Y012463D02*
X029254Y011518D01*
X029550Y011223D01*
X029550Y010621D01*
X029990Y010605D02*
X030110Y010605D01*
X030110Y010723D02*
X029990Y010723D01*
X029951Y010842D02*
X030148Y010842D01*
X030267Y010960D02*
X029833Y010960D01*
X029750Y011079D02*
X030350Y011079D01*
X030350Y011197D02*
X029750Y011197D01*
X029740Y011316D02*
X030350Y011316D01*
X030350Y011434D02*
X029622Y011434D01*
X029515Y011553D02*
X029503Y011553D01*
X028543Y011553D02*
X027583Y011553D01*
X027465Y011434D02*
X028543Y011434D01*
X028543Y011316D02*
X027346Y011316D01*
X027228Y011197D02*
X028604Y011197D01*
X028722Y011079D02*
X025987Y011079D01*
X025869Y010960D02*
X028267Y010960D01*
X029251Y010249D02*
X029299Y010249D01*
X029370Y010131D02*
X037305Y010131D01*
X037305Y010249D02*
X030800Y010249D01*
X030919Y010368D02*
X037305Y010368D01*
X037305Y010486D02*
X030990Y010486D01*
X030990Y010605D02*
X037305Y010605D01*
X037305Y010723D02*
X030990Y010723D01*
X030951Y010842D02*
X037305Y010842D01*
X037305Y010960D02*
X030833Y010960D01*
X030750Y011079D02*
X037305Y011079D01*
X037305Y011197D02*
X030750Y011197D01*
X030750Y011316D02*
X037305Y011316D01*
X037305Y011434D02*
X030750Y011434D01*
X030750Y011553D02*
X037305Y011553D01*
X037305Y011671D02*
X030750Y011671D01*
X030750Y011790D02*
X037305Y011790D01*
X037305Y011908D02*
X030750Y011908D01*
X030750Y012027D02*
X037305Y012027D01*
X037305Y012145D02*
X030750Y012145D01*
X030750Y012264D02*
X037305Y012264D01*
X037305Y012382D02*
X030750Y012382D01*
X030750Y012501D02*
X037305Y012501D01*
X037305Y012619D02*
X030750Y012619D01*
X030750Y012738D02*
X037305Y012738D01*
X037305Y012856D02*
X030750Y012856D01*
X030750Y012975D02*
X037305Y012975D01*
X037305Y013093D02*
X030750Y013093D01*
X030750Y013212D02*
X037305Y013212D01*
X037305Y013330D02*
X030678Y013330D01*
X030560Y013449D02*
X037305Y013449D01*
X037305Y013567D02*
X030441Y013567D01*
X030323Y013686D02*
X037305Y013686D01*
X037305Y013804D02*
X030204Y013804D01*
X030121Y013605D02*
X028585Y013605D01*
X028211Y013231D01*
X028011Y012619D02*
X027954Y012619D01*
X027930Y012501D02*
X025419Y012501D01*
X025419Y012619D02*
X025476Y012619D01*
X025472Y012382D02*
X025419Y012382D01*
X024715Y012003D02*
X024251Y011538D01*
X023428Y011538D01*
X023249Y011434D02*
X021776Y011434D01*
X021894Y011553D02*
X023130Y011553D01*
X023012Y011671D02*
X022013Y011671D01*
X022131Y011790D02*
X022893Y011790D01*
X020613Y012069D02*
X018782Y012069D01*
X018503Y012027D02*
X018343Y012027D01*
X016588Y011079D02*
X016482Y011079D01*
X016082Y011079D02*
X015982Y011079D01*
X015982Y010960D02*
X016082Y010960D01*
X016082Y010842D02*
X015982Y010842D01*
X015982Y010723D02*
X016082Y010723D01*
X016082Y010605D02*
X015982Y010605D01*
X016482Y010486D02*
X024317Y010486D01*
X024199Y010368D02*
X016495Y010368D01*
X016614Y010249D02*
X024080Y010249D01*
X024035Y010131D02*
X016732Y010131D01*
X016851Y010012D02*
X020910Y010012D01*
X020792Y009894D02*
X016884Y009894D01*
X016950Y009775D02*
X020562Y009775D01*
X020511Y009657D02*
X016955Y009657D01*
X016901Y009538D02*
X020517Y009538D01*
X020585Y009420D02*
X015982Y009420D01*
X015782Y009384D02*
X015357Y008959D01*
X015534Y009420D02*
X005864Y009420D01*
X004508Y009538D02*
X004354Y009538D01*
X004354Y009420D02*
X004456Y009420D01*
X004354Y009894D02*
X008641Y009894D01*
X008689Y010012D02*
X004354Y010012D01*
X005746Y008590D02*
X024153Y008590D01*
X024210Y008472D02*
X005824Y008472D01*
X005860Y008353D02*
X024527Y008353D01*
X024310Y008946D02*
X024285Y008946D01*
X024038Y009077D02*
X024038Y009333D01*
X023861Y009825D02*
X021006Y009825D01*
X020790Y009609D01*
X015782Y009384D02*
X015782Y011506D01*
X026600Y009183D02*
X028409Y009183D01*
X029018Y010199D02*
X029550Y009668D01*
X029550Y009621D01*
X029990Y009657D02*
X030110Y009657D01*
X030110Y009775D02*
X029990Y009775D01*
X029899Y009894D02*
X030200Y009894D01*
X030319Y010012D02*
X029781Y010012D01*
X029800Y010249D02*
X030299Y010249D01*
X030181Y010368D02*
X029919Y010368D01*
X029990Y010486D02*
X030110Y010486D01*
X030550Y010621D02*
X030550Y013176D01*
X030121Y013605D01*
X030113Y013330D02*
X030010Y013330D01*
X030128Y013212D02*
X030231Y013212D01*
X030155Y013093D02*
X030350Y013093D01*
X030350Y012975D02*
X030155Y012975D01*
X030155Y012856D02*
X030350Y012856D01*
X030350Y012738D02*
X030072Y012738D01*
X028476Y012619D02*
X028411Y012619D01*
X028275Y011908D02*
X028155Y011908D01*
X028124Y011790D02*
X028306Y011790D01*
X028424Y011671D02*
X028006Y011671D01*
X030781Y010012D02*
X037305Y010012D01*
X037305Y009894D02*
X030899Y009894D01*
X030990Y009775D02*
X037305Y009775D01*
X037305Y009657D02*
X030990Y009657D01*
X030366Y009183D02*
X029734Y009183D01*
X029852Y009301D02*
X030247Y009301D01*
X030129Y009420D02*
X029971Y009420D01*
X029990Y009538D02*
X030110Y009538D01*
X032134Y009420D02*
X032525Y009420D01*
X032436Y009301D02*
X032223Y009301D01*
X032269Y009183D02*
X032389Y009183D01*
X032389Y009064D02*
X032269Y009064D01*
X032269Y008946D02*
X032389Y008946D01*
X032389Y008827D02*
X032269Y008827D01*
X032269Y008709D02*
X032389Y008709D01*
X032389Y008590D02*
X032269Y008590D01*
X032269Y008472D02*
X032389Y008472D01*
X032415Y008353D02*
X032244Y008353D01*
X032184Y008235D02*
X032474Y008235D01*
X032611Y008116D02*
X032048Y008116D01*
X033269Y008946D02*
X033369Y008946D01*
X033369Y009064D02*
X033269Y009064D01*
X033269Y009183D02*
X033376Y009183D01*
X033415Y009301D02*
X033223Y009301D01*
X033134Y009420D02*
X033497Y009420D01*
X033975Y009538D02*
X037305Y009538D01*
X037305Y009420D02*
X034162Y009420D01*
X034244Y009301D02*
X037305Y009301D01*
X037305Y009183D02*
X034282Y009183D01*
X034289Y009064D02*
X037305Y009064D01*
X037305Y008946D02*
X034289Y008946D01*
X037113Y007168D02*
X037305Y007168D01*
X037305Y005272D02*
X037063Y005272D01*
X037148Y005154D02*
X037305Y005154D01*
X037282Y001954D02*
X027042Y001954D01*
X027092Y001836D02*
X037244Y001836D01*
X037181Y001717D02*
X026655Y001717D01*
X026539Y001717D02*
X024057Y001717D01*
X024504Y001599D02*
X026092Y001599D01*
X026129Y001480D02*
X024466Y001480D01*
X027065Y001480D02*
X036934Y001480D01*
X037095Y001599D02*
X027102Y001599D01*
X028034Y008546D02*
X028530Y008546D01*
X037172Y016293D02*
X004487Y016293D01*
X004578Y016411D02*
X037080Y016411D01*
X036917Y016530D02*
X004742Y016530D01*
D17*
X012148Y013251D03*
X013999Y012503D03*
X014451Y012503D03*
X013231Y011971D03*
X013959Y011144D03*
X013940Y010810D03*
X014333Y010810D03*
X014333Y011144D03*
X012227Y010908D03*
X015357Y008959D03*
X016676Y009707D03*
X019018Y010967D03*
X018566Y011459D03*
X018270Y011754D03*
X018782Y012069D03*
X023861Y009825D03*
X024865Y009589D03*
X025377Y009569D03*
X026538Y009688D03*
X024432Y008644D03*
X024038Y009077D03*
X026400Y008073D03*
X025377Y007837D03*
X024156Y007699D03*
X022936Y007562D03*
X021656Y007443D03*
X020810Y007404D03*
X019806Y007562D03*
X019806Y006459D03*
X020475Y005810D03*
X021499Y006577D03*
X023310Y005298D03*
X025396Y007089D03*
X027660Y005869D03*
X027443Y005554D03*
X028684Y005790D03*
X029884Y005613D03*
X028487Y004983D03*
X028703Y004274D03*
X030160Y004097D03*
X030613Y003723D03*
X028546Y003566D03*
X027306Y002857D03*
X032384Y005337D03*
X032522Y005967D03*
X032463Y006499D03*
X035199Y007168D03*
X035199Y007542D03*
X035770Y007955D03*
X035317Y006558D03*
X035396Y005573D03*
X034983Y004865D03*
X035140Y003940D03*
X035593Y003959D03*
X036026Y003959D03*
X028467Y006617D03*
X028684Y007483D03*
X028034Y008546D03*
X020790Y009609D03*
X015396Y006597D03*
X012542Y005514D03*
X015022Y004077D03*
X012562Y004018D03*
X031105Y012660D03*
X031361Y012660D03*
X031617Y012660D03*
X031617Y012936D03*
X031361Y012936D03*
X031105Y012936D03*
X031105Y013211D03*
X031361Y013211D03*
X031617Y013211D03*
X033073Y014648D03*
X033329Y014648D03*
X033585Y014648D03*
X033841Y014648D03*
X034097Y014648D03*
X034077Y014924D03*
X033821Y014924D03*
X033566Y014924D03*
X033310Y014924D03*
X033054Y014924D03*
X033034Y015199D03*
X033290Y015199D03*
X033546Y015199D03*
X033802Y015199D03*
X034058Y015199D03*
X034077Y015475D03*
X033821Y015475D03*
X033566Y015475D03*
X033310Y015475D03*
X033054Y015475D03*
X033073Y015751D03*
X033329Y015751D03*
X033585Y015751D03*
X033841Y015751D03*
X034097Y015751D03*
X034097Y016026D03*
X033841Y016026D03*
X033585Y016026D03*
X033329Y016026D03*
X033073Y016026D03*
X033073Y016302D03*
X033329Y016302D03*
X033585Y016302D03*
X033841Y016302D03*
X034097Y016302D03*
X031932Y015908D03*
X031656Y015908D03*
X031518Y015691D03*
X031794Y015691D03*
X027247Y015731D03*
X026991Y015731D03*
X026735Y015731D03*
X026735Y015455D03*
X026991Y015455D03*
X027247Y015455D03*
X027247Y015180D03*
X026991Y015180D03*
X026735Y015180D03*
X025416Y014865D03*
X025436Y014589D03*
X025731Y014589D03*
X025731Y014333D03*
X025337Y013743D03*
D18*
X023113Y007975D02*
X021380Y007975D01*
X020810Y007404D01*
X021656Y007443D02*
X021814Y007286D01*
X021814Y006459D01*
X021735Y006380D01*
X021735Y005790D01*
X022227Y005298D01*
X023310Y005298D01*
X024176Y006321D02*
X022936Y007562D01*
X023113Y007975D02*
X023999Y007089D01*
X025396Y007089D01*
X028467Y006617D02*
X028625Y006617D01*
X028684Y006558D01*
X028684Y007463D01*
X028684Y007483D01*
X028684Y006558D02*
X028684Y005790D01*
X028684Y005770D01*
X028684Y005790D02*
X028684Y004983D01*
X028487Y004983D01*
X028684Y004983D02*
X028684Y004294D01*
X028703Y004274D01*
X028880Y004097D01*
X030160Y004097D01*
X032384Y005337D02*
X032857Y004865D01*
X034983Y004865D01*
X035396Y005573D02*
X035003Y005967D01*
X032522Y005967D01*
X032463Y006499D02*
X035258Y006499D01*
X035317Y006558D01*
X024353Y003664D02*
X023231Y002542D01*
X022640Y002542D01*
X018506Y003625D02*
X018428Y003625D01*
X017798Y002995D01*
X017798Y002219D01*
X017286Y001707D01*
X016774Y002195D02*
X016286Y001707D01*
X015810Y002231D02*
X015286Y001707D01*
X015810Y002231D02*
X015810Y003014D01*
X016380Y003585D01*
X016380Y003605D01*
X015239Y003270D02*
X017306Y005337D01*
X017404Y004845D02*
X017404Y003644D01*
X016774Y003014D01*
X016774Y002195D01*
X017286Y002707D02*
X017503Y002924D01*
X017503Y003211D01*
X018447Y004156D01*
X018447Y004904D01*
X020475Y005810D02*
X021243Y006577D01*
X021499Y006577D01*
X019806Y006459D02*
X019806Y006400D01*
X019806Y006459D02*
X019806Y007562D01*
X012542Y005514D02*
X012542Y004038D01*
X012562Y004018D01*
X014538Y002707D02*
X015101Y003270D01*
X015239Y003270D01*
X014538Y002707D02*
X014286Y002707D01*
D19*
X016380Y003605D03*
X018506Y003625D03*
X018447Y004904D03*
X017404Y004845D03*
X017306Y005337D03*
X022640Y002542D03*
X024353Y003664D03*
X008566Y003703D03*
X006420Y004294D03*
X006420Y005613D03*
X008113Y006814D03*
X006125Y011321D03*
X006184Y013270D03*
D20*
X005278Y015691D03*
X007247Y002306D03*
X036380Y002306D03*
D21*
X008959Y002463D03*
X008999Y009825D03*
D22*
X008329Y011105D02*
X008526Y011302D01*
X008526Y013054D01*
X008270Y013310D01*
D23*
X008270Y013310D03*
X008329Y011105D03*
M02*
