G75*
G70*
%OFA0B0*%
%FSLAX24Y24*%
%IPPOS*%
%LPD*%
%AMOC8*
5,1,8,0,0,1.08239X$1,22.5*
%
%ADD10C,0.0160*%
%ADD11C,0.0000*%
%ADD12R,3.1496X0.0394*%
%ADD13R,0.0394X3.1496*%
D10*
X000180Y000180D02*
X000180Y035613D01*
X035613Y035613D01*
X035613Y000180D01*
X000180Y000180D01*
D11*
X000731Y001164D02*
X000733Y001205D01*
X000739Y001246D01*
X000749Y001286D01*
X000762Y001325D01*
X000779Y001362D01*
X000800Y001398D01*
X000824Y001432D01*
X000851Y001463D01*
X000880Y001491D01*
X000913Y001517D01*
X000947Y001539D01*
X000984Y001558D01*
X001022Y001573D01*
X001062Y001585D01*
X001102Y001593D01*
X001143Y001597D01*
X001185Y001597D01*
X001226Y001593D01*
X001266Y001585D01*
X001306Y001573D01*
X001344Y001558D01*
X001380Y001539D01*
X001415Y001517D01*
X001448Y001491D01*
X001477Y001463D01*
X001504Y001432D01*
X001528Y001398D01*
X001549Y001362D01*
X001566Y001325D01*
X001579Y001286D01*
X001589Y001246D01*
X001595Y001205D01*
X001597Y001164D01*
X001595Y001123D01*
X001589Y001082D01*
X001579Y001042D01*
X001566Y001003D01*
X001549Y000966D01*
X001528Y000930D01*
X001504Y000896D01*
X001477Y000865D01*
X001448Y000837D01*
X001415Y000811D01*
X001381Y000789D01*
X001344Y000770D01*
X001306Y000755D01*
X001266Y000743D01*
X001226Y000735D01*
X001185Y000731D01*
X001143Y000731D01*
X001102Y000735D01*
X001062Y000743D01*
X001022Y000755D01*
X000984Y000770D01*
X000948Y000789D01*
X000913Y000811D01*
X000880Y000837D01*
X000851Y000865D01*
X000824Y000896D01*
X000800Y000930D01*
X000779Y000966D01*
X000762Y001003D01*
X000749Y001042D01*
X000739Y001082D01*
X000733Y001123D01*
X000731Y001164D01*
X000849Y003133D02*
X000851Y003168D01*
X000857Y003203D01*
X000867Y003237D01*
X000880Y003270D01*
X000897Y003301D01*
X000918Y003329D01*
X000941Y003356D01*
X000968Y003379D01*
X000996Y003400D01*
X001027Y003417D01*
X001060Y003430D01*
X001094Y003440D01*
X001129Y003446D01*
X001164Y003448D01*
X001199Y003446D01*
X001234Y003440D01*
X001268Y003430D01*
X001301Y003417D01*
X001332Y003400D01*
X001360Y003379D01*
X001387Y003356D01*
X001410Y003329D01*
X001431Y003301D01*
X001448Y003270D01*
X001461Y003237D01*
X001471Y003203D01*
X001477Y003168D01*
X001479Y003133D01*
X001477Y003098D01*
X001471Y003063D01*
X001461Y003029D01*
X001448Y002996D01*
X001431Y002965D01*
X001410Y002937D01*
X001387Y002910D01*
X001360Y002887D01*
X001332Y002866D01*
X001301Y002849D01*
X001268Y002836D01*
X001234Y002826D01*
X001199Y002820D01*
X001164Y002818D01*
X001129Y002820D01*
X001094Y002826D01*
X001060Y002836D01*
X001027Y002849D01*
X000996Y002866D01*
X000968Y002887D01*
X000941Y002910D01*
X000918Y002937D01*
X000897Y002965D01*
X000880Y002996D01*
X000867Y003029D01*
X000857Y003063D01*
X000851Y003098D01*
X000849Y003133D01*
X000849Y005101D02*
X000851Y005136D01*
X000857Y005171D01*
X000867Y005205D01*
X000880Y005238D01*
X000897Y005269D01*
X000918Y005297D01*
X000941Y005324D01*
X000968Y005347D01*
X000996Y005368D01*
X001027Y005385D01*
X001060Y005398D01*
X001094Y005408D01*
X001129Y005414D01*
X001164Y005416D01*
X001199Y005414D01*
X001234Y005408D01*
X001268Y005398D01*
X001301Y005385D01*
X001332Y005368D01*
X001360Y005347D01*
X001387Y005324D01*
X001410Y005297D01*
X001431Y005269D01*
X001448Y005238D01*
X001461Y005205D01*
X001471Y005171D01*
X001477Y005136D01*
X001479Y005101D01*
X001477Y005066D01*
X001471Y005031D01*
X001461Y004997D01*
X001448Y004964D01*
X001431Y004933D01*
X001410Y004905D01*
X001387Y004878D01*
X001360Y004855D01*
X001332Y004834D01*
X001301Y004817D01*
X001268Y004804D01*
X001234Y004794D01*
X001199Y004788D01*
X001164Y004786D01*
X001129Y004788D01*
X001094Y004794D01*
X001060Y004804D01*
X001027Y004817D01*
X000996Y004834D01*
X000968Y004855D01*
X000941Y004878D01*
X000918Y004905D01*
X000897Y004933D01*
X000880Y004964D01*
X000867Y004997D01*
X000857Y005031D01*
X000851Y005066D01*
X000849Y005101D01*
X000849Y007070D02*
X000851Y007105D01*
X000857Y007140D01*
X000867Y007174D01*
X000880Y007207D01*
X000897Y007238D01*
X000918Y007266D01*
X000941Y007293D01*
X000968Y007316D01*
X000996Y007337D01*
X001027Y007354D01*
X001060Y007367D01*
X001094Y007377D01*
X001129Y007383D01*
X001164Y007385D01*
X001199Y007383D01*
X001234Y007377D01*
X001268Y007367D01*
X001301Y007354D01*
X001332Y007337D01*
X001360Y007316D01*
X001387Y007293D01*
X001410Y007266D01*
X001431Y007238D01*
X001448Y007207D01*
X001461Y007174D01*
X001471Y007140D01*
X001477Y007105D01*
X001479Y007070D01*
X001477Y007035D01*
X001471Y007000D01*
X001461Y006966D01*
X001448Y006933D01*
X001431Y006902D01*
X001410Y006874D01*
X001387Y006847D01*
X001360Y006824D01*
X001332Y006803D01*
X001301Y006786D01*
X001268Y006773D01*
X001234Y006763D01*
X001199Y006757D01*
X001164Y006755D01*
X001129Y006757D01*
X001094Y006763D01*
X001060Y006773D01*
X001027Y006786D01*
X000996Y006803D01*
X000968Y006824D01*
X000941Y006847D01*
X000918Y006874D01*
X000897Y006902D01*
X000880Y006933D01*
X000867Y006966D01*
X000857Y007000D01*
X000851Y007035D01*
X000849Y007070D01*
X000731Y009038D02*
X000733Y009079D01*
X000739Y009120D01*
X000749Y009160D01*
X000762Y009199D01*
X000779Y009236D01*
X000800Y009272D01*
X000824Y009306D01*
X000851Y009337D01*
X000880Y009365D01*
X000913Y009391D01*
X000947Y009413D01*
X000984Y009432D01*
X001022Y009447D01*
X001062Y009459D01*
X001102Y009467D01*
X001143Y009471D01*
X001185Y009471D01*
X001226Y009467D01*
X001266Y009459D01*
X001306Y009447D01*
X001344Y009432D01*
X001380Y009413D01*
X001415Y009391D01*
X001448Y009365D01*
X001477Y009337D01*
X001504Y009306D01*
X001528Y009272D01*
X001549Y009236D01*
X001566Y009199D01*
X001579Y009160D01*
X001589Y009120D01*
X001595Y009079D01*
X001597Y009038D01*
X001595Y008997D01*
X001589Y008956D01*
X001579Y008916D01*
X001566Y008877D01*
X001549Y008840D01*
X001528Y008804D01*
X001504Y008770D01*
X001477Y008739D01*
X001448Y008711D01*
X001415Y008685D01*
X001381Y008663D01*
X001344Y008644D01*
X001306Y008629D01*
X001266Y008617D01*
X001226Y008609D01*
X001185Y008605D01*
X001143Y008605D01*
X001102Y008609D01*
X001062Y008617D01*
X001022Y008629D01*
X000984Y008644D01*
X000948Y008663D01*
X000913Y008685D01*
X000880Y008711D01*
X000851Y008739D01*
X000824Y008770D01*
X000800Y008804D01*
X000779Y008840D01*
X000762Y008877D01*
X000749Y008916D01*
X000739Y008956D01*
X000733Y008997D01*
X000731Y009038D01*
X000849Y011991D02*
X000851Y012026D01*
X000857Y012061D01*
X000867Y012095D01*
X000880Y012128D01*
X000897Y012159D01*
X000918Y012187D01*
X000941Y012214D01*
X000968Y012237D01*
X000996Y012258D01*
X001027Y012275D01*
X001060Y012288D01*
X001094Y012298D01*
X001129Y012304D01*
X001164Y012306D01*
X001199Y012304D01*
X001234Y012298D01*
X001268Y012288D01*
X001301Y012275D01*
X001332Y012258D01*
X001360Y012237D01*
X001387Y012214D01*
X001410Y012187D01*
X001431Y012159D01*
X001448Y012128D01*
X001461Y012095D01*
X001471Y012061D01*
X001477Y012026D01*
X001479Y011991D01*
X001477Y011956D01*
X001471Y011921D01*
X001461Y011887D01*
X001448Y011854D01*
X001431Y011823D01*
X001410Y011795D01*
X001387Y011768D01*
X001360Y011745D01*
X001332Y011724D01*
X001301Y011707D01*
X001268Y011694D01*
X001234Y011684D01*
X001199Y011678D01*
X001164Y011676D01*
X001129Y011678D01*
X001094Y011684D01*
X001060Y011694D01*
X001027Y011707D01*
X000996Y011724D01*
X000968Y011745D01*
X000941Y011768D01*
X000918Y011795D01*
X000897Y011823D01*
X000880Y011854D01*
X000867Y011887D01*
X000857Y011921D01*
X000851Y011956D01*
X000849Y011991D01*
X000849Y013960D02*
X000851Y013995D01*
X000857Y014030D01*
X000867Y014064D01*
X000880Y014097D01*
X000897Y014128D01*
X000918Y014156D01*
X000941Y014183D01*
X000968Y014206D01*
X000996Y014227D01*
X001027Y014244D01*
X001060Y014257D01*
X001094Y014267D01*
X001129Y014273D01*
X001164Y014275D01*
X001199Y014273D01*
X001234Y014267D01*
X001268Y014257D01*
X001301Y014244D01*
X001332Y014227D01*
X001360Y014206D01*
X001387Y014183D01*
X001410Y014156D01*
X001431Y014128D01*
X001448Y014097D01*
X001461Y014064D01*
X001471Y014030D01*
X001477Y013995D01*
X001479Y013960D01*
X001477Y013925D01*
X001471Y013890D01*
X001461Y013856D01*
X001448Y013823D01*
X001431Y013792D01*
X001410Y013764D01*
X001387Y013737D01*
X001360Y013714D01*
X001332Y013693D01*
X001301Y013676D01*
X001268Y013663D01*
X001234Y013653D01*
X001199Y013647D01*
X001164Y013645D01*
X001129Y013647D01*
X001094Y013653D01*
X001060Y013663D01*
X001027Y013676D01*
X000996Y013693D01*
X000968Y013714D01*
X000941Y013737D01*
X000918Y013764D01*
X000897Y013792D01*
X000880Y013823D01*
X000867Y013856D01*
X000857Y013890D01*
X000851Y013925D01*
X000849Y013960D01*
X000849Y015928D02*
X000851Y015963D01*
X000857Y015998D01*
X000867Y016032D01*
X000880Y016065D01*
X000897Y016096D01*
X000918Y016124D01*
X000941Y016151D01*
X000968Y016174D01*
X000996Y016195D01*
X001027Y016212D01*
X001060Y016225D01*
X001094Y016235D01*
X001129Y016241D01*
X001164Y016243D01*
X001199Y016241D01*
X001234Y016235D01*
X001268Y016225D01*
X001301Y016212D01*
X001332Y016195D01*
X001360Y016174D01*
X001387Y016151D01*
X001410Y016124D01*
X001431Y016096D01*
X001448Y016065D01*
X001461Y016032D01*
X001471Y015998D01*
X001477Y015963D01*
X001479Y015928D01*
X001477Y015893D01*
X001471Y015858D01*
X001461Y015824D01*
X001448Y015791D01*
X001431Y015760D01*
X001410Y015732D01*
X001387Y015705D01*
X001360Y015682D01*
X001332Y015661D01*
X001301Y015644D01*
X001268Y015631D01*
X001234Y015621D01*
X001199Y015615D01*
X001164Y015613D01*
X001129Y015615D01*
X001094Y015621D01*
X001060Y015631D01*
X001027Y015644D01*
X000996Y015661D01*
X000968Y015682D01*
X000941Y015705D01*
X000918Y015732D01*
X000897Y015760D01*
X000880Y015791D01*
X000867Y015824D01*
X000857Y015858D01*
X000851Y015893D01*
X000849Y015928D01*
X000731Y017897D02*
X000733Y017938D01*
X000739Y017979D01*
X000749Y018019D01*
X000762Y018058D01*
X000779Y018095D01*
X000800Y018131D01*
X000824Y018165D01*
X000851Y018196D01*
X000880Y018224D01*
X000913Y018250D01*
X000947Y018272D01*
X000984Y018291D01*
X001022Y018306D01*
X001062Y018318D01*
X001102Y018326D01*
X001143Y018330D01*
X001185Y018330D01*
X001226Y018326D01*
X001266Y018318D01*
X001306Y018306D01*
X001344Y018291D01*
X001380Y018272D01*
X001415Y018250D01*
X001448Y018224D01*
X001477Y018196D01*
X001504Y018165D01*
X001528Y018131D01*
X001549Y018095D01*
X001566Y018058D01*
X001579Y018019D01*
X001589Y017979D01*
X001595Y017938D01*
X001597Y017897D01*
X001595Y017856D01*
X001589Y017815D01*
X001579Y017775D01*
X001566Y017736D01*
X001549Y017699D01*
X001528Y017663D01*
X001504Y017629D01*
X001477Y017598D01*
X001448Y017570D01*
X001415Y017544D01*
X001381Y017522D01*
X001344Y017503D01*
X001306Y017488D01*
X001266Y017476D01*
X001226Y017468D01*
X001185Y017464D01*
X001143Y017464D01*
X001102Y017468D01*
X001062Y017476D01*
X001022Y017488D01*
X000984Y017503D01*
X000948Y017522D01*
X000913Y017544D01*
X000880Y017570D01*
X000851Y017598D01*
X000824Y017629D01*
X000800Y017663D01*
X000779Y017699D01*
X000762Y017736D01*
X000749Y017775D01*
X000739Y017815D01*
X000733Y017856D01*
X000731Y017897D01*
X000849Y019865D02*
X000851Y019900D01*
X000857Y019935D01*
X000867Y019969D01*
X000880Y020002D01*
X000897Y020033D01*
X000918Y020061D01*
X000941Y020088D01*
X000968Y020111D01*
X000996Y020132D01*
X001027Y020149D01*
X001060Y020162D01*
X001094Y020172D01*
X001129Y020178D01*
X001164Y020180D01*
X001199Y020178D01*
X001234Y020172D01*
X001268Y020162D01*
X001301Y020149D01*
X001332Y020132D01*
X001360Y020111D01*
X001387Y020088D01*
X001410Y020061D01*
X001431Y020033D01*
X001448Y020002D01*
X001461Y019969D01*
X001471Y019935D01*
X001477Y019900D01*
X001479Y019865D01*
X001477Y019830D01*
X001471Y019795D01*
X001461Y019761D01*
X001448Y019728D01*
X001431Y019697D01*
X001410Y019669D01*
X001387Y019642D01*
X001360Y019619D01*
X001332Y019598D01*
X001301Y019581D01*
X001268Y019568D01*
X001234Y019558D01*
X001199Y019552D01*
X001164Y019550D01*
X001129Y019552D01*
X001094Y019558D01*
X001060Y019568D01*
X001027Y019581D01*
X000996Y019598D01*
X000968Y019619D01*
X000941Y019642D01*
X000918Y019669D01*
X000897Y019697D01*
X000880Y019728D01*
X000867Y019761D01*
X000857Y019795D01*
X000851Y019830D01*
X000849Y019865D01*
X000849Y021834D02*
X000851Y021869D01*
X000857Y021904D01*
X000867Y021938D01*
X000880Y021971D01*
X000897Y022002D01*
X000918Y022030D01*
X000941Y022057D01*
X000968Y022080D01*
X000996Y022101D01*
X001027Y022118D01*
X001060Y022131D01*
X001094Y022141D01*
X001129Y022147D01*
X001164Y022149D01*
X001199Y022147D01*
X001234Y022141D01*
X001268Y022131D01*
X001301Y022118D01*
X001332Y022101D01*
X001360Y022080D01*
X001387Y022057D01*
X001410Y022030D01*
X001431Y022002D01*
X001448Y021971D01*
X001461Y021938D01*
X001471Y021904D01*
X001477Y021869D01*
X001479Y021834D01*
X001477Y021799D01*
X001471Y021764D01*
X001461Y021730D01*
X001448Y021697D01*
X001431Y021666D01*
X001410Y021638D01*
X001387Y021611D01*
X001360Y021588D01*
X001332Y021567D01*
X001301Y021550D01*
X001268Y021537D01*
X001234Y021527D01*
X001199Y021521D01*
X001164Y021519D01*
X001129Y021521D01*
X001094Y021527D01*
X001060Y021537D01*
X001027Y021550D01*
X000996Y021567D01*
X000968Y021588D01*
X000941Y021611D01*
X000918Y021638D01*
X000897Y021666D01*
X000880Y021697D01*
X000867Y021730D01*
X000857Y021764D01*
X000851Y021799D01*
X000849Y021834D01*
X000849Y023802D02*
X000851Y023837D01*
X000857Y023872D01*
X000867Y023906D01*
X000880Y023939D01*
X000897Y023970D01*
X000918Y023998D01*
X000941Y024025D01*
X000968Y024048D01*
X000996Y024069D01*
X001027Y024086D01*
X001060Y024099D01*
X001094Y024109D01*
X001129Y024115D01*
X001164Y024117D01*
X001199Y024115D01*
X001234Y024109D01*
X001268Y024099D01*
X001301Y024086D01*
X001332Y024069D01*
X001360Y024048D01*
X001387Y024025D01*
X001410Y023998D01*
X001431Y023970D01*
X001448Y023939D01*
X001461Y023906D01*
X001471Y023872D01*
X001477Y023837D01*
X001479Y023802D01*
X001477Y023767D01*
X001471Y023732D01*
X001461Y023698D01*
X001448Y023665D01*
X001431Y023634D01*
X001410Y023606D01*
X001387Y023579D01*
X001360Y023556D01*
X001332Y023535D01*
X001301Y023518D01*
X001268Y023505D01*
X001234Y023495D01*
X001199Y023489D01*
X001164Y023487D01*
X001129Y023489D01*
X001094Y023495D01*
X001060Y023505D01*
X001027Y023518D01*
X000996Y023535D01*
X000968Y023556D01*
X000941Y023579D01*
X000918Y023606D01*
X000897Y023634D01*
X000880Y023665D01*
X000867Y023698D01*
X000857Y023732D01*
X000851Y023767D01*
X000849Y023802D01*
X000731Y026755D02*
X000733Y026796D01*
X000739Y026837D01*
X000749Y026877D01*
X000762Y026916D01*
X000779Y026953D01*
X000800Y026989D01*
X000824Y027023D01*
X000851Y027054D01*
X000880Y027082D01*
X000913Y027108D01*
X000947Y027130D01*
X000984Y027149D01*
X001022Y027164D01*
X001062Y027176D01*
X001102Y027184D01*
X001143Y027188D01*
X001185Y027188D01*
X001226Y027184D01*
X001266Y027176D01*
X001306Y027164D01*
X001344Y027149D01*
X001380Y027130D01*
X001415Y027108D01*
X001448Y027082D01*
X001477Y027054D01*
X001504Y027023D01*
X001528Y026989D01*
X001549Y026953D01*
X001566Y026916D01*
X001579Y026877D01*
X001589Y026837D01*
X001595Y026796D01*
X001597Y026755D01*
X001595Y026714D01*
X001589Y026673D01*
X001579Y026633D01*
X001566Y026594D01*
X001549Y026557D01*
X001528Y026521D01*
X001504Y026487D01*
X001477Y026456D01*
X001448Y026428D01*
X001415Y026402D01*
X001381Y026380D01*
X001344Y026361D01*
X001306Y026346D01*
X001266Y026334D01*
X001226Y026326D01*
X001185Y026322D01*
X001143Y026322D01*
X001102Y026326D01*
X001062Y026334D01*
X001022Y026346D01*
X000984Y026361D01*
X000948Y026380D01*
X000913Y026402D01*
X000880Y026428D01*
X000851Y026456D01*
X000824Y026487D01*
X000800Y026521D01*
X000779Y026557D01*
X000762Y026594D01*
X000749Y026633D01*
X000739Y026673D01*
X000733Y026714D01*
X000731Y026755D01*
X000849Y028723D02*
X000851Y028758D01*
X000857Y028793D01*
X000867Y028827D01*
X000880Y028860D01*
X000897Y028891D01*
X000918Y028919D01*
X000941Y028946D01*
X000968Y028969D01*
X000996Y028990D01*
X001027Y029007D01*
X001060Y029020D01*
X001094Y029030D01*
X001129Y029036D01*
X001164Y029038D01*
X001199Y029036D01*
X001234Y029030D01*
X001268Y029020D01*
X001301Y029007D01*
X001332Y028990D01*
X001360Y028969D01*
X001387Y028946D01*
X001410Y028919D01*
X001431Y028891D01*
X001448Y028860D01*
X001461Y028827D01*
X001471Y028793D01*
X001477Y028758D01*
X001479Y028723D01*
X001477Y028688D01*
X001471Y028653D01*
X001461Y028619D01*
X001448Y028586D01*
X001431Y028555D01*
X001410Y028527D01*
X001387Y028500D01*
X001360Y028477D01*
X001332Y028456D01*
X001301Y028439D01*
X001268Y028426D01*
X001234Y028416D01*
X001199Y028410D01*
X001164Y028408D01*
X001129Y028410D01*
X001094Y028416D01*
X001060Y028426D01*
X001027Y028439D01*
X000996Y028456D01*
X000968Y028477D01*
X000941Y028500D01*
X000918Y028527D01*
X000897Y028555D01*
X000880Y028586D01*
X000867Y028619D01*
X000857Y028653D01*
X000851Y028688D01*
X000849Y028723D01*
X000849Y030692D02*
X000851Y030727D01*
X000857Y030762D01*
X000867Y030796D01*
X000880Y030829D01*
X000897Y030860D01*
X000918Y030888D01*
X000941Y030915D01*
X000968Y030938D01*
X000996Y030959D01*
X001027Y030976D01*
X001060Y030989D01*
X001094Y030999D01*
X001129Y031005D01*
X001164Y031007D01*
X001199Y031005D01*
X001234Y030999D01*
X001268Y030989D01*
X001301Y030976D01*
X001332Y030959D01*
X001360Y030938D01*
X001387Y030915D01*
X001410Y030888D01*
X001431Y030860D01*
X001448Y030829D01*
X001461Y030796D01*
X001471Y030762D01*
X001477Y030727D01*
X001479Y030692D01*
X001477Y030657D01*
X001471Y030622D01*
X001461Y030588D01*
X001448Y030555D01*
X001431Y030524D01*
X001410Y030496D01*
X001387Y030469D01*
X001360Y030446D01*
X001332Y030425D01*
X001301Y030408D01*
X001268Y030395D01*
X001234Y030385D01*
X001199Y030379D01*
X001164Y030377D01*
X001129Y030379D01*
X001094Y030385D01*
X001060Y030395D01*
X001027Y030408D01*
X000996Y030425D01*
X000968Y030446D01*
X000941Y030469D01*
X000918Y030496D01*
X000897Y030524D01*
X000880Y030555D01*
X000867Y030588D01*
X000857Y030622D01*
X000851Y030657D01*
X000849Y030692D01*
X000849Y032660D02*
X000851Y032695D01*
X000857Y032730D01*
X000867Y032764D01*
X000880Y032797D01*
X000897Y032828D01*
X000918Y032856D01*
X000941Y032883D01*
X000968Y032906D01*
X000996Y032927D01*
X001027Y032944D01*
X001060Y032957D01*
X001094Y032967D01*
X001129Y032973D01*
X001164Y032975D01*
X001199Y032973D01*
X001234Y032967D01*
X001268Y032957D01*
X001301Y032944D01*
X001332Y032927D01*
X001360Y032906D01*
X001387Y032883D01*
X001410Y032856D01*
X001431Y032828D01*
X001448Y032797D01*
X001461Y032764D01*
X001471Y032730D01*
X001477Y032695D01*
X001479Y032660D01*
X001477Y032625D01*
X001471Y032590D01*
X001461Y032556D01*
X001448Y032523D01*
X001431Y032492D01*
X001410Y032464D01*
X001387Y032437D01*
X001360Y032414D01*
X001332Y032393D01*
X001301Y032376D01*
X001268Y032363D01*
X001234Y032353D01*
X001199Y032347D01*
X001164Y032345D01*
X001129Y032347D01*
X001094Y032353D01*
X001060Y032363D01*
X001027Y032376D01*
X000996Y032393D01*
X000968Y032414D01*
X000941Y032437D01*
X000918Y032464D01*
X000897Y032492D01*
X000880Y032523D01*
X000867Y032556D01*
X000857Y032590D01*
X000851Y032625D01*
X000849Y032660D01*
X000731Y034629D02*
X000733Y034670D01*
X000739Y034711D01*
X000749Y034751D01*
X000762Y034790D01*
X000779Y034827D01*
X000800Y034863D01*
X000824Y034897D01*
X000851Y034928D01*
X000880Y034956D01*
X000913Y034982D01*
X000947Y035004D01*
X000984Y035023D01*
X001022Y035038D01*
X001062Y035050D01*
X001102Y035058D01*
X001143Y035062D01*
X001185Y035062D01*
X001226Y035058D01*
X001266Y035050D01*
X001306Y035038D01*
X001344Y035023D01*
X001380Y035004D01*
X001415Y034982D01*
X001448Y034956D01*
X001477Y034928D01*
X001504Y034897D01*
X001528Y034863D01*
X001549Y034827D01*
X001566Y034790D01*
X001579Y034751D01*
X001589Y034711D01*
X001595Y034670D01*
X001597Y034629D01*
X001595Y034588D01*
X001589Y034547D01*
X001579Y034507D01*
X001566Y034468D01*
X001549Y034431D01*
X001528Y034395D01*
X001504Y034361D01*
X001477Y034330D01*
X001448Y034302D01*
X001415Y034276D01*
X001381Y034254D01*
X001344Y034235D01*
X001306Y034220D01*
X001266Y034208D01*
X001226Y034200D01*
X001185Y034196D01*
X001143Y034196D01*
X001102Y034200D01*
X001062Y034208D01*
X001022Y034220D01*
X000984Y034235D01*
X000948Y034254D01*
X000913Y034276D01*
X000880Y034302D01*
X000851Y034330D01*
X000824Y034361D01*
X000800Y034395D01*
X000779Y034431D01*
X000762Y034468D01*
X000749Y034507D01*
X000739Y034547D01*
X000733Y034588D01*
X000731Y034629D01*
X002818Y034629D02*
X002820Y034664D01*
X002826Y034699D01*
X002836Y034733D01*
X002849Y034766D01*
X002866Y034797D01*
X002887Y034825D01*
X002910Y034852D01*
X002937Y034875D01*
X002965Y034896D01*
X002996Y034913D01*
X003029Y034926D01*
X003063Y034936D01*
X003098Y034942D01*
X003133Y034944D01*
X003168Y034942D01*
X003203Y034936D01*
X003237Y034926D01*
X003270Y034913D01*
X003301Y034896D01*
X003329Y034875D01*
X003356Y034852D01*
X003379Y034825D01*
X003400Y034797D01*
X003417Y034766D01*
X003430Y034733D01*
X003440Y034699D01*
X003446Y034664D01*
X003448Y034629D01*
X003446Y034594D01*
X003440Y034559D01*
X003430Y034525D01*
X003417Y034492D01*
X003400Y034461D01*
X003379Y034433D01*
X003356Y034406D01*
X003329Y034383D01*
X003301Y034362D01*
X003270Y034345D01*
X003237Y034332D01*
X003203Y034322D01*
X003168Y034316D01*
X003133Y034314D01*
X003098Y034316D01*
X003063Y034322D01*
X003029Y034332D01*
X002996Y034345D01*
X002965Y034362D01*
X002937Y034383D01*
X002910Y034406D01*
X002887Y034433D01*
X002866Y034461D01*
X002849Y034492D01*
X002836Y034525D01*
X002826Y034559D01*
X002820Y034594D01*
X002818Y034629D01*
X004786Y034629D02*
X004788Y034664D01*
X004794Y034699D01*
X004804Y034733D01*
X004817Y034766D01*
X004834Y034797D01*
X004855Y034825D01*
X004878Y034852D01*
X004905Y034875D01*
X004933Y034896D01*
X004964Y034913D01*
X004997Y034926D01*
X005031Y034936D01*
X005066Y034942D01*
X005101Y034944D01*
X005136Y034942D01*
X005171Y034936D01*
X005205Y034926D01*
X005238Y034913D01*
X005269Y034896D01*
X005297Y034875D01*
X005324Y034852D01*
X005347Y034825D01*
X005368Y034797D01*
X005385Y034766D01*
X005398Y034733D01*
X005408Y034699D01*
X005414Y034664D01*
X005416Y034629D01*
X005414Y034594D01*
X005408Y034559D01*
X005398Y034525D01*
X005385Y034492D01*
X005368Y034461D01*
X005347Y034433D01*
X005324Y034406D01*
X005297Y034383D01*
X005269Y034362D01*
X005238Y034345D01*
X005205Y034332D01*
X005171Y034322D01*
X005136Y034316D01*
X005101Y034314D01*
X005066Y034316D01*
X005031Y034322D01*
X004997Y034332D01*
X004964Y034345D01*
X004933Y034362D01*
X004905Y034383D01*
X004878Y034406D01*
X004855Y034433D01*
X004834Y034461D01*
X004817Y034492D01*
X004804Y034525D01*
X004794Y034559D01*
X004788Y034594D01*
X004786Y034629D01*
X006755Y034629D02*
X006757Y034664D01*
X006763Y034699D01*
X006773Y034733D01*
X006786Y034766D01*
X006803Y034797D01*
X006824Y034825D01*
X006847Y034852D01*
X006874Y034875D01*
X006902Y034896D01*
X006933Y034913D01*
X006966Y034926D01*
X007000Y034936D01*
X007035Y034942D01*
X007070Y034944D01*
X007105Y034942D01*
X007140Y034936D01*
X007174Y034926D01*
X007207Y034913D01*
X007238Y034896D01*
X007266Y034875D01*
X007293Y034852D01*
X007316Y034825D01*
X007337Y034797D01*
X007354Y034766D01*
X007367Y034733D01*
X007377Y034699D01*
X007383Y034664D01*
X007385Y034629D01*
X007383Y034594D01*
X007377Y034559D01*
X007367Y034525D01*
X007354Y034492D01*
X007337Y034461D01*
X007316Y034433D01*
X007293Y034406D01*
X007266Y034383D01*
X007238Y034362D01*
X007207Y034345D01*
X007174Y034332D01*
X007140Y034322D01*
X007105Y034316D01*
X007070Y034314D01*
X007035Y034316D01*
X007000Y034322D01*
X006966Y034332D01*
X006933Y034345D01*
X006902Y034362D01*
X006874Y034383D01*
X006847Y034406D01*
X006824Y034433D01*
X006803Y034461D01*
X006786Y034492D01*
X006773Y034525D01*
X006763Y034559D01*
X006757Y034594D01*
X006755Y034629D01*
X008605Y034629D02*
X008607Y034670D01*
X008613Y034711D01*
X008623Y034751D01*
X008636Y034790D01*
X008653Y034827D01*
X008674Y034863D01*
X008698Y034897D01*
X008725Y034928D01*
X008754Y034956D01*
X008787Y034982D01*
X008821Y035004D01*
X008858Y035023D01*
X008896Y035038D01*
X008936Y035050D01*
X008976Y035058D01*
X009017Y035062D01*
X009059Y035062D01*
X009100Y035058D01*
X009140Y035050D01*
X009180Y035038D01*
X009218Y035023D01*
X009254Y035004D01*
X009289Y034982D01*
X009322Y034956D01*
X009351Y034928D01*
X009378Y034897D01*
X009402Y034863D01*
X009423Y034827D01*
X009440Y034790D01*
X009453Y034751D01*
X009463Y034711D01*
X009469Y034670D01*
X009471Y034629D01*
X009469Y034588D01*
X009463Y034547D01*
X009453Y034507D01*
X009440Y034468D01*
X009423Y034431D01*
X009402Y034395D01*
X009378Y034361D01*
X009351Y034330D01*
X009322Y034302D01*
X009289Y034276D01*
X009255Y034254D01*
X009218Y034235D01*
X009180Y034220D01*
X009140Y034208D01*
X009100Y034200D01*
X009059Y034196D01*
X009017Y034196D01*
X008976Y034200D01*
X008936Y034208D01*
X008896Y034220D01*
X008858Y034235D01*
X008822Y034254D01*
X008787Y034276D01*
X008754Y034302D01*
X008725Y034330D01*
X008698Y034361D01*
X008674Y034395D01*
X008653Y034431D01*
X008636Y034468D01*
X008623Y034507D01*
X008613Y034547D01*
X008607Y034588D01*
X008605Y034629D01*
X011676Y034629D02*
X011678Y034664D01*
X011684Y034699D01*
X011694Y034733D01*
X011707Y034766D01*
X011724Y034797D01*
X011745Y034825D01*
X011768Y034852D01*
X011795Y034875D01*
X011823Y034896D01*
X011854Y034913D01*
X011887Y034926D01*
X011921Y034936D01*
X011956Y034942D01*
X011991Y034944D01*
X012026Y034942D01*
X012061Y034936D01*
X012095Y034926D01*
X012128Y034913D01*
X012159Y034896D01*
X012187Y034875D01*
X012214Y034852D01*
X012237Y034825D01*
X012258Y034797D01*
X012275Y034766D01*
X012288Y034733D01*
X012298Y034699D01*
X012304Y034664D01*
X012306Y034629D01*
X012304Y034594D01*
X012298Y034559D01*
X012288Y034525D01*
X012275Y034492D01*
X012258Y034461D01*
X012237Y034433D01*
X012214Y034406D01*
X012187Y034383D01*
X012159Y034362D01*
X012128Y034345D01*
X012095Y034332D01*
X012061Y034322D01*
X012026Y034316D01*
X011991Y034314D01*
X011956Y034316D01*
X011921Y034322D01*
X011887Y034332D01*
X011854Y034345D01*
X011823Y034362D01*
X011795Y034383D01*
X011768Y034406D01*
X011745Y034433D01*
X011724Y034461D01*
X011707Y034492D01*
X011694Y034525D01*
X011684Y034559D01*
X011678Y034594D01*
X011676Y034629D01*
X013645Y034629D02*
X013647Y034664D01*
X013653Y034699D01*
X013663Y034733D01*
X013676Y034766D01*
X013693Y034797D01*
X013714Y034825D01*
X013737Y034852D01*
X013764Y034875D01*
X013792Y034896D01*
X013823Y034913D01*
X013856Y034926D01*
X013890Y034936D01*
X013925Y034942D01*
X013960Y034944D01*
X013995Y034942D01*
X014030Y034936D01*
X014064Y034926D01*
X014097Y034913D01*
X014128Y034896D01*
X014156Y034875D01*
X014183Y034852D01*
X014206Y034825D01*
X014227Y034797D01*
X014244Y034766D01*
X014257Y034733D01*
X014267Y034699D01*
X014273Y034664D01*
X014275Y034629D01*
X014273Y034594D01*
X014267Y034559D01*
X014257Y034525D01*
X014244Y034492D01*
X014227Y034461D01*
X014206Y034433D01*
X014183Y034406D01*
X014156Y034383D01*
X014128Y034362D01*
X014097Y034345D01*
X014064Y034332D01*
X014030Y034322D01*
X013995Y034316D01*
X013960Y034314D01*
X013925Y034316D01*
X013890Y034322D01*
X013856Y034332D01*
X013823Y034345D01*
X013792Y034362D01*
X013764Y034383D01*
X013737Y034406D01*
X013714Y034433D01*
X013693Y034461D01*
X013676Y034492D01*
X013663Y034525D01*
X013653Y034559D01*
X013647Y034594D01*
X013645Y034629D01*
X015613Y034629D02*
X015615Y034664D01*
X015621Y034699D01*
X015631Y034733D01*
X015644Y034766D01*
X015661Y034797D01*
X015682Y034825D01*
X015705Y034852D01*
X015732Y034875D01*
X015760Y034896D01*
X015791Y034913D01*
X015824Y034926D01*
X015858Y034936D01*
X015893Y034942D01*
X015928Y034944D01*
X015963Y034942D01*
X015998Y034936D01*
X016032Y034926D01*
X016065Y034913D01*
X016096Y034896D01*
X016124Y034875D01*
X016151Y034852D01*
X016174Y034825D01*
X016195Y034797D01*
X016212Y034766D01*
X016225Y034733D01*
X016235Y034699D01*
X016241Y034664D01*
X016243Y034629D01*
X016241Y034594D01*
X016235Y034559D01*
X016225Y034525D01*
X016212Y034492D01*
X016195Y034461D01*
X016174Y034433D01*
X016151Y034406D01*
X016124Y034383D01*
X016096Y034362D01*
X016065Y034345D01*
X016032Y034332D01*
X015998Y034322D01*
X015963Y034316D01*
X015928Y034314D01*
X015893Y034316D01*
X015858Y034322D01*
X015824Y034332D01*
X015791Y034345D01*
X015760Y034362D01*
X015732Y034383D01*
X015705Y034406D01*
X015682Y034433D01*
X015661Y034461D01*
X015644Y034492D01*
X015631Y034525D01*
X015621Y034559D01*
X015615Y034594D01*
X015613Y034629D01*
X017464Y034629D02*
X017466Y034670D01*
X017472Y034711D01*
X017482Y034751D01*
X017495Y034790D01*
X017512Y034827D01*
X017533Y034863D01*
X017557Y034897D01*
X017584Y034928D01*
X017613Y034956D01*
X017646Y034982D01*
X017680Y035004D01*
X017717Y035023D01*
X017755Y035038D01*
X017795Y035050D01*
X017835Y035058D01*
X017876Y035062D01*
X017918Y035062D01*
X017959Y035058D01*
X017999Y035050D01*
X018039Y035038D01*
X018077Y035023D01*
X018113Y035004D01*
X018148Y034982D01*
X018181Y034956D01*
X018210Y034928D01*
X018237Y034897D01*
X018261Y034863D01*
X018282Y034827D01*
X018299Y034790D01*
X018312Y034751D01*
X018322Y034711D01*
X018328Y034670D01*
X018330Y034629D01*
X018328Y034588D01*
X018322Y034547D01*
X018312Y034507D01*
X018299Y034468D01*
X018282Y034431D01*
X018261Y034395D01*
X018237Y034361D01*
X018210Y034330D01*
X018181Y034302D01*
X018148Y034276D01*
X018114Y034254D01*
X018077Y034235D01*
X018039Y034220D01*
X017999Y034208D01*
X017959Y034200D01*
X017918Y034196D01*
X017876Y034196D01*
X017835Y034200D01*
X017795Y034208D01*
X017755Y034220D01*
X017717Y034235D01*
X017681Y034254D01*
X017646Y034276D01*
X017613Y034302D01*
X017584Y034330D01*
X017557Y034361D01*
X017533Y034395D01*
X017512Y034431D01*
X017495Y034468D01*
X017482Y034507D01*
X017472Y034547D01*
X017466Y034588D01*
X017464Y034629D01*
X019550Y034629D02*
X019552Y034664D01*
X019558Y034699D01*
X019568Y034733D01*
X019581Y034766D01*
X019598Y034797D01*
X019619Y034825D01*
X019642Y034852D01*
X019669Y034875D01*
X019697Y034896D01*
X019728Y034913D01*
X019761Y034926D01*
X019795Y034936D01*
X019830Y034942D01*
X019865Y034944D01*
X019900Y034942D01*
X019935Y034936D01*
X019969Y034926D01*
X020002Y034913D01*
X020033Y034896D01*
X020061Y034875D01*
X020088Y034852D01*
X020111Y034825D01*
X020132Y034797D01*
X020149Y034766D01*
X020162Y034733D01*
X020172Y034699D01*
X020178Y034664D01*
X020180Y034629D01*
X020178Y034594D01*
X020172Y034559D01*
X020162Y034525D01*
X020149Y034492D01*
X020132Y034461D01*
X020111Y034433D01*
X020088Y034406D01*
X020061Y034383D01*
X020033Y034362D01*
X020002Y034345D01*
X019969Y034332D01*
X019935Y034322D01*
X019900Y034316D01*
X019865Y034314D01*
X019830Y034316D01*
X019795Y034322D01*
X019761Y034332D01*
X019728Y034345D01*
X019697Y034362D01*
X019669Y034383D01*
X019642Y034406D01*
X019619Y034433D01*
X019598Y034461D01*
X019581Y034492D01*
X019568Y034525D01*
X019558Y034559D01*
X019552Y034594D01*
X019550Y034629D01*
X021519Y034629D02*
X021521Y034664D01*
X021527Y034699D01*
X021537Y034733D01*
X021550Y034766D01*
X021567Y034797D01*
X021588Y034825D01*
X021611Y034852D01*
X021638Y034875D01*
X021666Y034896D01*
X021697Y034913D01*
X021730Y034926D01*
X021764Y034936D01*
X021799Y034942D01*
X021834Y034944D01*
X021869Y034942D01*
X021904Y034936D01*
X021938Y034926D01*
X021971Y034913D01*
X022002Y034896D01*
X022030Y034875D01*
X022057Y034852D01*
X022080Y034825D01*
X022101Y034797D01*
X022118Y034766D01*
X022131Y034733D01*
X022141Y034699D01*
X022147Y034664D01*
X022149Y034629D01*
X022147Y034594D01*
X022141Y034559D01*
X022131Y034525D01*
X022118Y034492D01*
X022101Y034461D01*
X022080Y034433D01*
X022057Y034406D01*
X022030Y034383D01*
X022002Y034362D01*
X021971Y034345D01*
X021938Y034332D01*
X021904Y034322D01*
X021869Y034316D01*
X021834Y034314D01*
X021799Y034316D01*
X021764Y034322D01*
X021730Y034332D01*
X021697Y034345D01*
X021666Y034362D01*
X021638Y034383D01*
X021611Y034406D01*
X021588Y034433D01*
X021567Y034461D01*
X021550Y034492D01*
X021537Y034525D01*
X021527Y034559D01*
X021521Y034594D01*
X021519Y034629D01*
X023487Y034629D02*
X023489Y034664D01*
X023495Y034699D01*
X023505Y034733D01*
X023518Y034766D01*
X023535Y034797D01*
X023556Y034825D01*
X023579Y034852D01*
X023606Y034875D01*
X023634Y034896D01*
X023665Y034913D01*
X023698Y034926D01*
X023732Y034936D01*
X023767Y034942D01*
X023802Y034944D01*
X023837Y034942D01*
X023872Y034936D01*
X023906Y034926D01*
X023939Y034913D01*
X023970Y034896D01*
X023998Y034875D01*
X024025Y034852D01*
X024048Y034825D01*
X024069Y034797D01*
X024086Y034766D01*
X024099Y034733D01*
X024109Y034699D01*
X024115Y034664D01*
X024117Y034629D01*
X024115Y034594D01*
X024109Y034559D01*
X024099Y034525D01*
X024086Y034492D01*
X024069Y034461D01*
X024048Y034433D01*
X024025Y034406D01*
X023998Y034383D01*
X023970Y034362D01*
X023939Y034345D01*
X023906Y034332D01*
X023872Y034322D01*
X023837Y034316D01*
X023802Y034314D01*
X023767Y034316D01*
X023732Y034322D01*
X023698Y034332D01*
X023665Y034345D01*
X023634Y034362D01*
X023606Y034383D01*
X023579Y034406D01*
X023556Y034433D01*
X023535Y034461D01*
X023518Y034492D01*
X023505Y034525D01*
X023495Y034559D01*
X023489Y034594D01*
X023487Y034629D01*
X026322Y034629D02*
X026324Y034670D01*
X026330Y034711D01*
X026340Y034751D01*
X026353Y034790D01*
X026370Y034827D01*
X026391Y034863D01*
X026415Y034897D01*
X026442Y034928D01*
X026471Y034956D01*
X026504Y034982D01*
X026538Y035004D01*
X026575Y035023D01*
X026613Y035038D01*
X026653Y035050D01*
X026693Y035058D01*
X026734Y035062D01*
X026776Y035062D01*
X026817Y035058D01*
X026857Y035050D01*
X026897Y035038D01*
X026935Y035023D01*
X026971Y035004D01*
X027006Y034982D01*
X027039Y034956D01*
X027068Y034928D01*
X027095Y034897D01*
X027119Y034863D01*
X027140Y034827D01*
X027157Y034790D01*
X027170Y034751D01*
X027180Y034711D01*
X027186Y034670D01*
X027188Y034629D01*
X027186Y034588D01*
X027180Y034547D01*
X027170Y034507D01*
X027157Y034468D01*
X027140Y034431D01*
X027119Y034395D01*
X027095Y034361D01*
X027068Y034330D01*
X027039Y034302D01*
X027006Y034276D01*
X026972Y034254D01*
X026935Y034235D01*
X026897Y034220D01*
X026857Y034208D01*
X026817Y034200D01*
X026776Y034196D01*
X026734Y034196D01*
X026693Y034200D01*
X026653Y034208D01*
X026613Y034220D01*
X026575Y034235D01*
X026539Y034254D01*
X026504Y034276D01*
X026471Y034302D01*
X026442Y034330D01*
X026415Y034361D01*
X026391Y034395D01*
X026370Y034431D01*
X026353Y034468D01*
X026340Y034507D01*
X026330Y034547D01*
X026324Y034588D01*
X026322Y034629D01*
X028408Y034629D02*
X028410Y034664D01*
X028416Y034699D01*
X028426Y034733D01*
X028439Y034766D01*
X028456Y034797D01*
X028477Y034825D01*
X028500Y034852D01*
X028527Y034875D01*
X028555Y034896D01*
X028586Y034913D01*
X028619Y034926D01*
X028653Y034936D01*
X028688Y034942D01*
X028723Y034944D01*
X028758Y034942D01*
X028793Y034936D01*
X028827Y034926D01*
X028860Y034913D01*
X028891Y034896D01*
X028919Y034875D01*
X028946Y034852D01*
X028969Y034825D01*
X028990Y034797D01*
X029007Y034766D01*
X029020Y034733D01*
X029030Y034699D01*
X029036Y034664D01*
X029038Y034629D01*
X029036Y034594D01*
X029030Y034559D01*
X029020Y034525D01*
X029007Y034492D01*
X028990Y034461D01*
X028969Y034433D01*
X028946Y034406D01*
X028919Y034383D01*
X028891Y034362D01*
X028860Y034345D01*
X028827Y034332D01*
X028793Y034322D01*
X028758Y034316D01*
X028723Y034314D01*
X028688Y034316D01*
X028653Y034322D01*
X028619Y034332D01*
X028586Y034345D01*
X028555Y034362D01*
X028527Y034383D01*
X028500Y034406D01*
X028477Y034433D01*
X028456Y034461D01*
X028439Y034492D01*
X028426Y034525D01*
X028416Y034559D01*
X028410Y034594D01*
X028408Y034629D01*
X030377Y034629D02*
X030379Y034664D01*
X030385Y034699D01*
X030395Y034733D01*
X030408Y034766D01*
X030425Y034797D01*
X030446Y034825D01*
X030469Y034852D01*
X030496Y034875D01*
X030524Y034896D01*
X030555Y034913D01*
X030588Y034926D01*
X030622Y034936D01*
X030657Y034942D01*
X030692Y034944D01*
X030727Y034942D01*
X030762Y034936D01*
X030796Y034926D01*
X030829Y034913D01*
X030860Y034896D01*
X030888Y034875D01*
X030915Y034852D01*
X030938Y034825D01*
X030959Y034797D01*
X030976Y034766D01*
X030989Y034733D01*
X030999Y034699D01*
X031005Y034664D01*
X031007Y034629D01*
X031005Y034594D01*
X030999Y034559D01*
X030989Y034525D01*
X030976Y034492D01*
X030959Y034461D01*
X030938Y034433D01*
X030915Y034406D01*
X030888Y034383D01*
X030860Y034362D01*
X030829Y034345D01*
X030796Y034332D01*
X030762Y034322D01*
X030727Y034316D01*
X030692Y034314D01*
X030657Y034316D01*
X030622Y034322D01*
X030588Y034332D01*
X030555Y034345D01*
X030524Y034362D01*
X030496Y034383D01*
X030469Y034406D01*
X030446Y034433D01*
X030425Y034461D01*
X030408Y034492D01*
X030395Y034525D01*
X030385Y034559D01*
X030379Y034594D01*
X030377Y034629D01*
X032345Y034629D02*
X032347Y034664D01*
X032353Y034699D01*
X032363Y034733D01*
X032376Y034766D01*
X032393Y034797D01*
X032414Y034825D01*
X032437Y034852D01*
X032464Y034875D01*
X032492Y034896D01*
X032523Y034913D01*
X032556Y034926D01*
X032590Y034936D01*
X032625Y034942D01*
X032660Y034944D01*
X032695Y034942D01*
X032730Y034936D01*
X032764Y034926D01*
X032797Y034913D01*
X032828Y034896D01*
X032856Y034875D01*
X032883Y034852D01*
X032906Y034825D01*
X032927Y034797D01*
X032944Y034766D01*
X032957Y034733D01*
X032967Y034699D01*
X032973Y034664D01*
X032975Y034629D01*
X032973Y034594D01*
X032967Y034559D01*
X032957Y034525D01*
X032944Y034492D01*
X032927Y034461D01*
X032906Y034433D01*
X032883Y034406D01*
X032856Y034383D01*
X032828Y034362D01*
X032797Y034345D01*
X032764Y034332D01*
X032730Y034322D01*
X032695Y034316D01*
X032660Y034314D01*
X032625Y034316D01*
X032590Y034322D01*
X032556Y034332D01*
X032523Y034345D01*
X032492Y034362D01*
X032464Y034383D01*
X032437Y034406D01*
X032414Y034433D01*
X032393Y034461D01*
X032376Y034492D01*
X032363Y034525D01*
X032353Y034559D01*
X032347Y034594D01*
X032345Y034629D01*
X034196Y034629D02*
X034198Y034670D01*
X034204Y034711D01*
X034214Y034751D01*
X034227Y034790D01*
X034244Y034827D01*
X034265Y034863D01*
X034289Y034897D01*
X034316Y034928D01*
X034345Y034956D01*
X034378Y034982D01*
X034412Y035004D01*
X034449Y035023D01*
X034487Y035038D01*
X034527Y035050D01*
X034567Y035058D01*
X034608Y035062D01*
X034650Y035062D01*
X034691Y035058D01*
X034731Y035050D01*
X034771Y035038D01*
X034809Y035023D01*
X034845Y035004D01*
X034880Y034982D01*
X034913Y034956D01*
X034942Y034928D01*
X034969Y034897D01*
X034993Y034863D01*
X035014Y034827D01*
X035031Y034790D01*
X035044Y034751D01*
X035054Y034711D01*
X035060Y034670D01*
X035062Y034629D01*
X035060Y034588D01*
X035054Y034547D01*
X035044Y034507D01*
X035031Y034468D01*
X035014Y034431D01*
X034993Y034395D01*
X034969Y034361D01*
X034942Y034330D01*
X034913Y034302D01*
X034880Y034276D01*
X034846Y034254D01*
X034809Y034235D01*
X034771Y034220D01*
X034731Y034208D01*
X034691Y034200D01*
X034650Y034196D01*
X034608Y034196D01*
X034567Y034200D01*
X034527Y034208D01*
X034487Y034220D01*
X034449Y034235D01*
X034413Y034254D01*
X034378Y034276D01*
X034345Y034302D01*
X034316Y034330D01*
X034289Y034361D01*
X034265Y034395D01*
X034244Y034431D01*
X034227Y034468D01*
X034214Y034507D01*
X034204Y034547D01*
X034198Y034588D01*
X034196Y034629D01*
X034314Y032660D02*
X034316Y032695D01*
X034322Y032730D01*
X034332Y032764D01*
X034345Y032797D01*
X034362Y032828D01*
X034383Y032856D01*
X034406Y032883D01*
X034433Y032906D01*
X034461Y032927D01*
X034492Y032944D01*
X034525Y032957D01*
X034559Y032967D01*
X034594Y032973D01*
X034629Y032975D01*
X034664Y032973D01*
X034699Y032967D01*
X034733Y032957D01*
X034766Y032944D01*
X034797Y032927D01*
X034825Y032906D01*
X034852Y032883D01*
X034875Y032856D01*
X034896Y032828D01*
X034913Y032797D01*
X034926Y032764D01*
X034936Y032730D01*
X034942Y032695D01*
X034944Y032660D01*
X034942Y032625D01*
X034936Y032590D01*
X034926Y032556D01*
X034913Y032523D01*
X034896Y032492D01*
X034875Y032464D01*
X034852Y032437D01*
X034825Y032414D01*
X034797Y032393D01*
X034766Y032376D01*
X034733Y032363D01*
X034699Y032353D01*
X034664Y032347D01*
X034629Y032345D01*
X034594Y032347D01*
X034559Y032353D01*
X034525Y032363D01*
X034492Y032376D01*
X034461Y032393D01*
X034433Y032414D01*
X034406Y032437D01*
X034383Y032464D01*
X034362Y032492D01*
X034345Y032523D01*
X034332Y032556D01*
X034322Y032590D01*
X034316Y032625D01*
X034314Y032660D01*
X034314Y030692D02*
X034316Y030727D01*
X034322Y030762D01*
X034332Y030796D01*
X034345Y030829D01*
X034362Y030860D01*
X034383Y030888D01*
X034406Y030915D01*
X034433Y030938D01*
X034461Y030959D01*
X034492Y030976D01*
X034525Y030989D01*
X034559Y030999D01*
X034594Y031005D01*
X034629Y031007D01*
X034664Y031005D01*
X034699Y030999D01*
X034733Y030989D01*
X034766Y030976D01*
X034797Y030959D01*
X034825Y030938D01*
X034852Y030915D01*
X034875Y030888D01*
X034896Y030860D01*
X034913Y030829D01*
X034926Y030796D01*
X034936Y030762D01*
X034942Y030727D01*
X034944Y030692D01*
X034942Y030657D01*
X034936Y030622D01*
X034926Y030588D01*
X034913Y030555D01*
X034896Y030524D01*
X034875Y030496D01*
X034852Y030469D01*
X034825Y030446D01*
X034797Y030425D01*
X034766Y030408D01*
X034733Y030395D01*
X034699Y030385D01*
X034664Y030379D01*
X034629Y030377D01*
X034594Y030379D01*
X034559Y030385D01*
X034525Y030395D01*
X034492Y030408D01*
X034461Y030425D01*
X034433Y030446D01*
X034406Y030469D01*
X034383Y030496D01*
X034362Y030524D01*
X034345Y030555D01*
X034332Y030588D01*
X034322Y030622D01*
X034316Y030657D01*
X034314Y030692D01*
X034314Y028723D02*
X034316Y028758D01*
X034322Y028793D01*
X034332Y028827D01*
X034345Y028860D01*
X034362Y028891D01*
X034383Y028919D01*
X034406Y028946D01*
X034433Y028969D01*
X034461Y028990D01*
X034492Y029007D01*
X034525Y029020D01*
X034559Y029030D01*
X034594Y029036D01*
X034629Y029038D01*
X034664Y029036D01*
X034699Y029030D01*
X034733Y029020D01*
X034766Y029007D01*
X034797Y028990D01*
X034825Y028969D01*
X034852Y028946D01*
X034875Y028919D01*
X034896Y028891D01*
X034913Y028860D01*
X034926Y028827D01*
X034936Y028793D01*
X034942Y028758D01*
X034944Y028723D01*
X034942Y028688D01*
X034936Y028653D01*
X034926Y028619D01*
X034913Y028586D01*
X034896Y028555D01*
X034875Y028527D01*
X034852Y028500D01*
X034825Y028477D01*
X034797Y028456D01*
X034766Y028439D01*
X034733Y028426D01*
X034699Y028416D01*
X034664Y028410D01*
X034629Y028408D01*
X034594Y028410D01*
X034559Y028416D01*
X034525Y028426D01*
X034492Y028439D01*
X034461Y028456D01*
X034433Y028477D01*
X034406Y028500D01*
X034383Y028527D01*
X034362Y028555D01*
X034345Y028586D01*
X034332Y028619D01*
X034322Y028653D01*
X034316Y028688D01*
X034314Y028723D01*
X034196Y026755D02*
X034198Y026796D01*
X034204Y026837D01*
X034214Y026877D01*
X034227Y026916D01*
X034244Y026953D01*
X034265Y026989D01*
X034289Y027023D01*
X034316Y027054D01*
X034345Y027082D01*
X034378Y027108D01*
X034412Y027130D01*
X034449Y027149D01*
X034487Y027164D01*
X034527Y027176D01*
X034567Y027184D01*
X034608Y027188D01*
X034650Y027188D01*
X034691Y027184D01*
X034731Y027176D01*
X034771Y027164D01*
X034809Y027149D01*
X034845Y027130D01*
X034880Y027108D01*
X034913Y027082D01*
X034942Y027054D01*
X034969Y027023D01*
X034993Y026989D01*
X035014Y026953D01*
X035031Y026916D01*
X035044Y026877D01*
X035054Y026837D01*
X035060Y026796D01*
X035062Y026755D01*
X035060Y026714D01*
X035054Y026673D01*
X035044Y026633D01*
X035031Y026594D01*
X035014Y026557D01*
X034993Y026521D01*
X034969Y026487D01*
X034942Y026456D01*
X034913Y026428D01*
X034880Y026402D01*
X034846Y026380D01*
X034809Y026361D01*
X034771Y026346D01*
X034731Y026334D01*
X034691Y026326D01*
X034650Y026322D01*
X034608Y026322D01*
X034567Y026326D01*
X034527Y026334D01*
X034487Y026346D01*
X034449Y026361D01*
X034413Y026380D01*
X034378Y026402D01*
X034345Y026428D01*
X034316Y026456D01*
X034289Y026487D01*
X034265Y026521D01*
X034244Y026557D01*
X034227Y026594D01*
X034214Y026633D01*
X034204Y026673D01*
X034198Y026714D01*
X034196Y026755D01*
X034314Y023802D02*
X034316Y023837D01*
X034322Y023872D01*
X034332Y023906D01*
X034345Y023939D01*
X034362Y023970D01*
X034383Y023998D01*
X034406Y024025D01*
X034433Y024048D01*
X034461Y024069D01*
X034492Y024086D01*
X034525Y024099D01*
X034559Y024109D01*
X034594Y024115D01*
X034629Y024117D01*
X034664Y024115D01*
X034699Y024109D01*
X034733Y024099D01*
X034766Y024086D01*
X034797Y024069D01*
X034825Y024048D01*
X034852Y024025D01*
X034875Y023998D01*
X034896Y023970D01*
X034913Y023939D01*
X034926Y023906D01*
X034936Y023872D01*
X034942Y023837D01*
X034944Y023802D01*
X034942Y023767D01*
X034936Y023732D01*
X034926Y023698D01*
X034913Y023665D01*
X034896Y023634D01*
X034875Y023606D01*
X034852Y023579D01*
X034825Y023556D01*
X034797Y023535D01*
X034766Y023518D01*
X034733Y023505D01*
X034699Y023495D01*
X034664Y023489D01*
X034629Y023487D01*
X034594Y023489D01*
X034559Y023495D01*
X034525Y023505D01*
X034492Y023518D01*
X034461Y023535D01*
X034433Y023556D01*
X034406Y023579D01*
X034383Y023606D01*
X034362Y023634D01*
X034345Y023665D01*
X034332Y023698D01*
X034322Y023732D01*
X034316Y023767D01*
X034314Y023802D01*
X034314Y021834D02*
X034316Y021869D01*
X034322Y021904D01*
X034332Y021938D01*
X034345Y021971D01*
X034362Y022002D01*
X034383Y022030D01*
X034406Y022057D01*
X034433Y022080D01*
X034461Y022101D01*
X034492Y022118D01*
X034525Y022131D01*
X034559Y022141D01*
X034594Y022147D01*
X034629Y022149D01*
X034664Y022147D01*
X034699Y022141D01*
X034733Y022131D01*
X034766Y022118D01*
X034797Y022101D01*
X034825Y022080D01*
X034852Y022057D01*
X034875Y022030D01*
X034896Y022002D01*
X034913Y021971D01*
X034926Y021938D01*
X034936Y021904D01*
X034942Y021869D01*
X034944Y021834D01*
X034942Y021799D01*
X034936Y021764D01*
X034926Y021730D01*
X034913Y021697D01*
X034896Y021666D01*
X034875Y021638D01*
X034852Y021611D01*
X034825Y021588D01*
X034797Y021567D01*
X034766Y021550D01*
X034733Y021537D01*
X034699Y021527D01*
X034664Y021521D01*
X034629Y021519D01*
X034594Y021521D01*
X034559Y021527D01*
X034525Y021537D01*
X034492Y021550D01*
X034461Y021567D01*
X034433Y021588D01*
X034406Y021611D01*
X034383Y021638D01*
X034362Y021666D01*
X034345Y021697D01*
X034332Y021730D01*
X034322Y021764D01*
X034316Y021799D01*
X034314Y021834D01*
X034314Y019865D02*
X034316Y019900D01*
X034322Y019935D01*
X034332Y019969D01*
X034345Y020002D01*
X034362Y020033D01*
X034383Y020061D01*
X034406Y020088D01*
X034433Y020111D01*
X034461Y020132D01*
X034492Y020149D01*
X034525Y020162D01*
X034559Y020172D01*
X034594Y020178D01*
X034629Y020180D01*
X034664Y020178D01*
X034699Y020172D01*
X034733Y020162D01*
X034766Y020149D01*
X034797Y020132D01*
X034825Y020111D01*
X034852Y020088D01*
X034875Y020061D01*
X034896Y020033D01*
X034913Y020002D01*
X034926Y019969D01*
X034936Y019935D01*
X034942Y019900D01*
X034944Y019865D01*
X034942Y019830D01*
X034936Y019795D01*
X034926Y019761D01*
X034913Y019728D01*
X034896Y019697D01*
X034875Y019669D01*
X034852Y019642D01*
X034825Y019619D01*
X034797Y019598D01*
X034766Y019581D01*
X034733Y019568D01*
X034699Y019558D01*
X034664Y019552D01*
X034629Y019550D01*
X034594Y019552D01*
X034559Y019558D01*
X034525Y019568D01*
X034492Y019581D01*
X034461Y019598D01*
X034433Y019619D01*
X034406Y019642D01*
X034383Y019669D01*
X034362Y019697D01*
X034345Y019728D01*
X034332Y019761D01*
X034322Y019795D01*
X034316Y019830D01*
X034314Y019865D01*
X034196Y017897D02*
X034198Y017938D01*
X034204Y017979D01*
X034214Y018019D01*
X034227Y018058D01*
X034244Y018095D01*
X034265Y018131D01*
X034289Y018165D01*
X034316Y018196D01*
X034345Y018224D01*
X034378Y018250D01*
X034412Y018272D01*
X034449Y018291D01*
X034487Y018306D01*
X034527Y018318D01*
X034567Y018326D01*
X034608Y018330D01*
X034650Y018330D01*
X034691Y018326D01*
X034731Y018318D01*
X034771Y018306D01*
X034809Y018291D01*
X034845Y018272D01*
X034880Y018250D01*
X034913Y018224D01*
X034942Y018196D01*
X034969Y018165D01*
X034993Y018131D01*
X035014Y018095D01*
X035031Y018058D01*
X035044Y018019D01*
X035054Y017979D01*
X035060Y017938D01*
X035062Y017897D01*
X035060Y017856D01*
X035054Y017815D01*
X035044Y017775D01*
X035031Y017736D01*
X035014Y017699D01*
X034993Y017663D01*
X034969Y017629D01*
X034942Y017598D01*
X034913Y017570D01*
X034880Y017544D01*
X034846Y017522D01*
X034809Y017503D01*
X034771Y017488D01*
X034731Y017476D01*
X034691Y017468D01*
X034650Y017464D01*
X034608Y017464D01*
X034567Y017468D01*
X034527Y017476D01*
X034487Y017488D01*
X034449Y017503D01*
X034413Y017522D01*
X034378Y017544D01*
X034345Y017570D01*
X034316Y017598D01*
X034289Y017629D01*
X034265Y017663D01*
X034244Y017699D01*
X034227Y017736D01*
X034214Y017775D01*
X034204Y017815D01*
X034198Y017856D01*
X034196Y017897D01*
X034314Y015928D02*
X034316Y015963D01*
X034322Y015998D01*
X034332Y016032D01*
X034345Y016065D01*
X034362Y016096D01*
X034383Y016124D01*
X034406Y016151D01*
X034433Y016174D01*
X034461Y016195D01*
X034492Y016212D01*
X034525Y016225D01*
X034559Y016235D01*
X034594Y016241D01*
X034629Y016243D01*
X034664Y016241D01*
X034699Y016235D01*
X034733Y016225D01*
X034766Y016212D01*
X034797Y016195D01*
X034825Y016174D01*
X034852Y016151D01*
X034875Y016124D01*
X034896Y016096D01*
X034913Y016065D01*
X034926Y016032D01*
X034936Y015998D01*
X034942Y015963D01*
X034944Y015928D01*
X034942Y015893D01*
X034936Y015858D01*
X034926Y015824D01*
X034913Y015791D01*
X034896Y015760D01*
X034875Y015732D01*
X034852Y015705D01*
X034825Y015682D01*
X034797Y015661D01*
X034766Y015644D01*
X034733Y015631D01*
X034699Y015621D01*
X034664Y015615D01*
X034629Y015613D01*
X034594Y015615D01*
X034559Y015621D01*
X034525Y015631D01*
X034492Y015644D01*
X034461Y015661D01*
X034433Y015682D01*
X034406Y015705D01*
X034383Y015732D01*
X034362Y015760D01*
X034345Y015791D01*
X034332Y015824D01*
X034322Y015858D01*
X034316Y015893D01*
X034314Y015928D01*
X034314Y013960D02*
X034316Y013995D01*
X034322Y014030D01*
X034332Y014064D01*
X034345Y014097D01*
X034362Y014128D01*
X034383Y014156D01*
X034406Y014183D01*
X034433Y014206D01*
X034461Y014227D01*
X034492Y014244D01*
X034525Y014257D01*
X034559Y014267D01*
X034594Y014273D01*
X034629Y014275D01*
X034664Y014273D01*
X034699Y014267D01*
X034733Y014257D01*
X034766Y014244D01*
X034797Y014227D01*
X034825Y014206D01*
X034852Y014183D01*
X034875Y014156D01*
X034896Y014128D01*
X034913Y014097D01*
X034926Y014064D01*
X034936Y014030D01*
X034942Y013995D01*
X034944Y013960D01*
X034942Y013925D01*
X034936Y013890D01*
X034926Y013856D01*
X034913Y013823D01*
X034896Y013792D01*
X034875Y013764D01*
X034852Y013737D01*
X034825Y013714D01*
X034797Y013693D01*
X034766Y013676D01*
X034733Y013663D01*
X034699Y013653D01*
X034664Y013647D01*
X034629Y013645D01*
X034594Y013647D01*
X034559Y013653D01*
X034525Y013663D01*
X034492Y013676D01*
X034461Y013693D01*
X034433Y013714D01*
X034406Y013737D01*
X034383Y013764D01*
X034362Y013792D01*
X034345Y013823D01*
X034332Y013856D01*
X034322Y013890D01*
X034316Y013925D01*
X034314Y013960D01*
X034314Y011991D02*
X034316Y012026D01*
X034322Y012061D01*
X034332Y012095D01*
X034345Y012128D01*
X034362Y012159D01*
X034383Y012187D01*
X034406Y012214D01*
X034433Y012237D01*
X034461Y012258D01*
X034492Y012275D01*
X034525Y012288D01*
X034559Y012298D01*
X034594Y012304D01*
X034629Y012306D01*
X034664Y012304D01*
X034699Y012298D01*
X034733Y012288D01*
X034766Y012275D01*
X034797Y012258D01*
X034825Y012237D01*
X034852Y012214D01*
X034875Y012187D01*
X034896Y012159D01*
X034913Y012128D01*
X034926Y012095D01*
X034936Y012061D01*
X034942Y012026D01*
X034944Y011991D01*
X034942Y011956D01*
X034936Y011921D01*
X034926Y011887D01*
X034913Y011854D01*
X034896Y011823D01*
X034875Y011795D01*
X034852Y011768D01*
X034825Y011745D01*
X034797Y011724D01*
X034766Y011707D01*
X034733Y011694D01*
X034699Y011684D01*
X034664Y011678D01*
X034629Y011676D01*
X034594Y011678D01*
X034559Y011684D01*
X034525Y011694D01*
X034492Y011707D01*
X034461Y011724D01*
X034433Y011745D01*
X034406Y011768D01*
X034383Y011795D01*
X034362Y011823D01*
X034345Y011854D01*
X034332Y011887D01*
X034322Y011921D01*
X034316Y011956D01*
X034314Y011991D01*
X034196Y009038D02*
X034198Y009079D01*
X034204Y009120D01*
X034214Y009160D01*
X034227Y009199D01*
X034244Y009236D01*
X034265Y009272D01*
X034289Y009306D01*
X034316Y009337D01*
X034345Y009365D01*
X034378Y009391D01*
X034412Y009413D01*
X034449Y009432D01*
X034487Y009447D01*
X034527Y009459D01*
X034567Y009467D01*
X034608Y009471D01*
X034650Y009471D01*
X034691Y009467D01*
X034731Y009459D01*
X034771Y009447D01*
X034809Y009432D01*
X034845Y009413D01*
X034880Y009391D01*
X034913Y009365D01*
X034942Y009337D01*
X034969Y009306D01*
X034993Y009272D01*
X035014Y009236D01*
X035031Y009199D01*
X035044Y009160D01*
X035054Y009120D01*
X035060Y009079D01*
X035062Y009038D01*
X035060Y008997D01*
X035054Y008956D01*
X035044Y008916D01*
X035031Y008877D01*
X035014Y008840D01*
X034993Y008804D01*
X034969Y008770D01*
X034942Y008739D01*
X034913Y008711D01*
X034880Y008685D01*
X034846Y008663D01*
X034809Y008644D01*
X034771Y008629D01*
X034731Y008617D01*
X034691Y008609D01*
X034650Y008605D01*
X034608Y008605D01*
X034567Y008609D01*
X034527Y008617D01*
X034487Y008629D01*
X034449Y008644D01*
X034413Y008663D01*
X034378Y008685D01*
X034345Y008711D01*
X034316Y008739D01*
X034289Y008770D01*
X034265Y008804D01*
X034244Y008840D01*
X034227Y008877D01*
X034214Y008916D01*
X034204Y008956D01*
X034198Y008997D01*
X034196Y009038D01*
X034314Y007070D02*
X034316Y007105D01*
X034322Y007140D01*
X034332Y007174D01*
X034345Y007207D01*
X034362Y007238D01*
X034383Y007266D01*
X034406Y007293D01*
X034433Y007316D01*
X034461Y007337D01*
X034492Y007354D01*
X034525Y007367D01*
X034559Y007377D01*
X034594Y007383D01*
X034629Y007385D01*
X034664Y007383D01*
X034699Y007377D01*
X034733Y007367D01*
X034766Y007354D01*
X034797Y007337D01*
X034825Y007316D01*
X034852Y007293D01*
X034875Y007266D01*
X034896Y007238D01*
X034913Y007207D01*
X034926Y007174D01*
X034936Y007140D01*
X034942Y007105D01*
X034944Y007070D01*
X034942Y007035D01*
X034936Y007000D01*
X034926Y006966D01*
X034913Y006933D01*
X034896Y006902D01*
X034875Y006874D01*
X034852Y006847D01*
X034825Y006824D01*
X034797Y006803D01*
X034766Y006786D01*
X034733Y006773D01*
X034699Y006763D01*
X034664Y006757D01*
X034629Y006755D01*
X034594Y006757D01*
X034559Y006763D01*
X034525Y006773D01*
X034492Y006786D01*
X034461Y006803D01*
X034433Y006824D01*
X034406Y006847D01*
X034383Y006874D01*
X034362Y006902D01*
X034345Y006933D01*
X034332Y006966D01*
X034322Y007000D01*
X034316Y007035D01*
X034314Y007070D01*
X034314Y005101D02*
X034316Y005136D01*
X034322Y005171D01*
X034332Y005205D01*
X034345Y005238D01*
X034362Y005269D01*
X034383Y005297D01*
X034406Y005324D01*
X034433Y005347D01*
X034461Y005368D01*
X034492Y005385D01*
X034525Y005398D01*
X034559Y005408D01*
X034594Y005414D01*
X034629Y005416D01*
X034664Y005414D01*
X034699Y005408D01*
X034733Y005398D01*
X034766Y005385D01*
X034797Y005368D01*
X034825Y005347D01*
X034852Y005324D01*
X034875Y005297D01*
X034896Y005269D01*
X034913Y005238D01*
X034926Y005205D01*
X034936Y005171D01*
X034942Y005136D01*
X034944Y005101D01*
X034942Y005066D01*
X034936Y005031D01*
X034926Y004997D01*
X034913Y004964D01*
X034896Y004933D01*
X034875Y004905D01*
X034852Y004878D01*
X034825Y004855D01*
X034797Y004834D01*
X034766Y004817D01*
X034733Y004804D01*
X034699Y004794D01*
X034664Y004788D01*
X034629Y004786D01*
X034594Y004788D01*
X034559Y004794D01*
X034525Y004804D01*
X034492Y004817D01*
X034461Y004834D01*
X034433Y004855D01*
X034406Y004878D01*
X034383Y004905D01*
X034362Y004933D01*
X034345Y004964D01*
X034332Y004997D01*
X034322Y005031D01*
X034316Y005066D01*
X034314Y005101D01*
X034314Y003133D02*
X034316Y003168D01*
X034322Y003203D01*
X034332Y003237D01*
X034345Y003270D01*
X034362Y003301D01*
X034383Y003329D01*
X034406Y003356D01*
X034433Y003379D01*
X034461Y003400D01*
X034492Y003417D01*
X034525Y003430D01*
X034559Y003440D01*
X034594Y003446D01*
X034629Y003448D01*
X034664Y003446D01*
X034699Y003440D01*
X034733Y003430D01*
X034766Y003417D01*
X034797Y003400D01*
X034825Y003379D01*
X034852Y003356D01*
X034875Y003329D01*
X034896Y003301D01*
X034913Y003270D01*
X034926Y003237D01*
X034936Y003203D01*
X034942Y003168D01*
X034944Y003133D01*
X034942Y003098D01*
X034936Y003063D01*
X034926Y003029D01*
X034913Y002996D01*
X034896Y002965D01*
X034875Y002937D01*
X034852Y002910D01*
X034825Y002887D01*
X034797Y002866D01*
X034766Y002849D01*
X034733Y002836D01*
X034699Y002826D01*
X034664Y002820D01*
X034629Y002818D01*
X034594Y002820D01*
X034559Y002826D01*
X034525Y002836D01*
X034492Y002849D01*
X034461Y002866D01*
X034433Y002887D01*
X034406Y002910D01*
X034383Y002937D01*
X034362Y002965D01*
X034345Y002996D01*
X034332Y003029D01*
X034322Y003063D01*
X034316Y003098D01*
X034314Y003133D01*
X034196Y001164D02*
X034198Y001205D01*
X034204Y001246D01*
X034214Y001286D01*
X034227Y001325D01*
X034244Y001362D01*
X034265Y001398D01*
X034289Y001432D01*
X034316Y001463D01*
X034345Y001491D01*
X034378Y001517D01*
X034412Y001539D01*
X034449Y001558D01*
X034487Y001573D01*
X034527Y001585D01*
X034567Y001593D01*
X034608Y001597D01*
X034650Y001597D01*
X034691Y001593D01*
X034731Y001585D01*
X034771Y001573D01*
X034809Y001558D01*
X034845Y001539D01*
X034880Y001517D01*
X034913Y001491D01*
X034942Y001463D01*
X034969Y001432D01*
X034993Y001398D01*
X035014Y001362D01*
X035031Y001325D01*
X035044Y001286D01*
X035054Y001246D01*
X035060Y001205D01*
X035062Y001164D01*
X035060Y001123D01*
X035054Y001082D01*
X035044Y001042D01*
X035031Y001003D01*
X035014Y000966D01*
X034993Y000930D01*
X034969Y000896D01*
X034942Y000865D01*
X034913Y000837D01*
X034880Y000811D01*
X034846Y000789D01*
X034809Y000770D01*
X034771Y000755D01*
X034731Y000743D01*
X034691Y000735D01*
X034650Y000731D01*
X034608Y000731D01*
X034567Y000735D01*
X034527Y000743D01*
X034487Y000755D01*
X034449Y000770D01*
X034413Y000789D01*
X034378Y000811D01*
X034345Y000837D01*
X034316Y000865D01*
X034289Y000896D01*
X034265Y000930D01*
X034244Y000966D01*
X034227Y001003D01*
X034214Y001042D01*
X034204Y001082D01*
X034198Y001123D01*
X034196Y001164D01*
X032345Y001164D02*
X032347Y001199D01*
X032353Y001234D01*
X032363Y001268D01*
X032376Y001301D01*
X032393Y001332D01*
X032414Y001360D01*
X032437Y001387D01*
X032464Y001410D01*
X032492Y001431D01*
X032523Y001448D01*
X032556Y001461D01*
X032590Y001471D01*
X032625Y001477D01*
X032660Y001479D01*
X032695Y001477D01*
X032730Y001471D01*
X032764Y001461D01*
X032797Y001448D01*
X032828Y001431D01*
X032856Y001410D01*
X032883Y001387D01*
X032906Y001360D01*
X032927Y001332D01*
X032944Y001301D01*
X032957Y001268D01*
X032967Y001234D01*
X032973Y001199D01*
X032975Y001164D01*
X032973Y001129D01*
X032967Y001094D01*
X032957Y001060D01*
X032944Y001027D01*
X032927Y000996D01*
X032906Y000968D01*
X032883Y000941D01*
X032856Y000918D01*
X032828Y000897D01*
X032797Y000880D01*
X032764Y000867D01*
X032730Y000857D01*
X032695Y000851D01*
X032660Y000849D01*
X032625Y000851D01*
X032590Y000857D01*
X032556Y000867D01*
X032523Y000880D01*
X032492Y000897D01*
X032464Y000918D01*
X032437Y000941D01*
X032414Y000968D01*
X032393Y000996D01*
X032376Y001027D01*
X032363Y001060D01*
X032353Y001094D01*
X032347Y001129D01*
X032345Y001164D01*
X030377Y001164D02*
X030379Y001199D01*
X030385Y001234D01*
X030395Y001268D01*
X030408Y001301D01*
X030425Y001332D01*
X030446Y001360D01*
X030469Y001387D01*
X030496Y001410D01*
X030524Y001431D01*
X030555Y001448D01*
X030588Y001461D01*
X030622Y001471D01*
X030657Y001477D01*
X030692Y001479D01*
X030727Y001477D01*
X030762Y001471D01*
X030796Y001461D01*
X030829Y001448D01*
X030860Y001431D01*
X030888Y001410D01*
X030915Y001387D01*
X030938Y001360D01*
X030959Y001332D01*
X030976Y001301D01*
X030989Y001268D01*
X030999Y001234D01*
X031005Y001199D01*
X031007Y001164D01*
X031005Y001129D01*
X030999Y001094D01*
X030989Y001060D01*
X030976Y001027D01*
X030959Y000996D01*
X030938Y000968D01*
X030915Y000941D01*
X030888Y000918D01*
X030860Y000897D01*
X030829Y000880D01*
X030796Y000867D01*
X030762Y000857D01*
X030727Y000851D01*
X030692Y000849D01*
X030657Y000851D01*
X030622Y000857D01*
X030588Y000867D01*
X030555Y000880D01*
X030524Y000897D01*
X030496Y000918D01*
X030469Y000941D01*
X030446Y000968D01*
X030425Y000996D01*
X030408Y001027D01*
X030395Y001060D01*
X030385Y001094D01*
X030379Y001129D01*
X030377Y001164D01*
X028408Y001164D02*
X028410Y001199D01*
X028416Y001234D01*
X028426Y001268D01*
X028439Y001301D01*
X028456Y001332D01*
X028477Y001360D01*
X028500Y001387D01*
X028527Y001410D01*
X028555Y001431D01*
X028586Y001448D01*
X028619Y001461D01*
X028653Y001471D01*
X028688Y001477D01*
X028723Y001479D01*
X028758Y001477D01*
X028793Y001471D01*
X028827Y001461D01*
X028860Y001448D01*
X028891Y001431D01*
X028919Y001410D01*
X028946Y001387D01*
X028969Y001360D01*
X028990Y001332D01*
X029007Y001301D01*
X029020Y001268D01*
X029030Y001234D01*
X029036Y001199D01*
X029038Y001164D01*
X029036Y001129D01*
X029030Y001094D01*
X029020Y001060D01*
X029007Y001027D01*
X028990Y000996D01*
X028969Y000968D01*
X028946Y000941D01*
X028919Y000918D01*
X028891Y000897D01*
X028860Y000880D01*
X028827Y000867D01*
X028793Y000857D01*
X028758Y000851D01*
X028723Y000849D01*
X028688Y000851D01*
X028653Y000857D01*
X028619Y000867D01*
X028586Y000880D01*
X028555Y000897D01*
X028527Y000918D01*
X028500Y000941D01*
X028477Y000968D01*
X028456Y000996D01*
X028439Y001027D01*
X028426Y001060D01*
X028416Y001094D01*
X028410Y001129D01*
X028408Y001164D01*
X026322Y001164D02*
X026324Y001205D01*
X026330Y001246D01*
X026340Y001286D01*
X026353Y001325D01*
X026370Y001362D01*
X026391Y001398D01*
X026415Y001432D01*
X026442Y001463D01*
X026471Y001491D01*
X026504Y001517D01*
X026538Y001539D01*
X026575Y001558D01*
X026613Y001573D01*
X026653Y001585D01*
X026693Y001593D01*
X026734Y001597D01*
X026776Y001597D01*
X026817Y001593D01*
X026857Y001585D01*
X026897Y001573D01*
X026935Y001558D01*
X026971Y001539D01*
X027006Y001517D01*
X027039Y001491D01*
X027068Y001463D01*
X027095Y001432D01*
X027119Y001398D01*
X027140Y001362D01*
X027157Y001325D01*
X027170Y001286D01*
X027180Y001246D01*
X027186Y001205D01*
X027188Y001164D01*
X027186Y001123D01*
X027180Y001082D01*
X027170Y001042D01*
X027157Y001003D01*
X027140Y000966D01*
X027119Y000930D01*
X027095Y000896D01*
X027068Y000865D01*
X027039Y000837D01*
X027006Y000811D01*
X026972Y000789D01*
X026935Y000770D01*
X026897Y000755D01*
X026857Y000743D01*
X026817Y000735D01*
X026776Y000731D01*
X026734Y000731D01*
X026693Y000735D01*
X026653Y000743D01*
X026613Y000755D01*
X026575Y000770D01*
X026539Y000789D01*
X026504Y000811D01*
X026471Y000837D01*
X026442Y000865D01*
X026415Y000896D01*
X026391Y000930D01*
X026370Y000966D01*
X026353Y001003D01*
X026340Y001042D01*
X026330Y001082D01*
X026324Y001123D01*
X026322Y001164D01*
X023487Y001164D02*
X023489Y001199D01*
X023495Y001234D01*
X023505Y001268D01*
X023518Y001301D01*
X023535Y001332D01*
X023556Y001360D01*
X023579Y001387D01*
X023606Y001410D01*
X023634Y001431D01*
X023665Y001448D01*
X023698Y001461D01*
X023732Y001471D01*
X023767Y001477D01*
X023802Y001479D01*
X023837Y001477D01*
X023872Y001471D01*
X023906Y001461D01*
X023939Y001448D01*
X023970Y001431D01*
X023998Y001410D01*
X024025Y001387D01*
X024048Y001360D01*
X024069Y001332D01*
X024086Y001301D01*
X024099Y001268D01*
X024109Y001234D01*
X024115Y001199D01*
X024117Y001164D01*
X024115Y001129D01*
X024109Y001094D01*
X024099Y001060D01*
X024086Y001027D01*
X024069Y000996D01*
X024048Y000968D01*
X024025Y000941D01*
X023998Y000918D01*
X023970Y000897D01*
X023939Y000880D01*
X023906Y000867D01*
X023872Y000857D01*
X023837Y000851D01*
X023802Y000849D01*
X023767Y000851D01*
X023732Y000857D01*
X023698Y000867D01*
X023665Y000880D01*
X023634Y000897D01*
X023606Y000918D01*
X023579Y000941D01*
X023556Y000968D01*
X023535Y000996D01*
X023518Y001027D01*
X023505Y001060D01*
X023495Y001094D01*
X023489Y001129D01*
X023487Y001164D01*
X021519Y001164D02*
X021521Y001199D01*
X021527Y001234D01*
X021537Y001268D01*
X021550Y001301D01*
X021567Y001332D01*
X021588Y001360D01*
X021611Y001387D01*
X021638Y001410D01*
X021666Y001431D01*
X021697Y001448D01*
X021730Y001461D01*
X021764Y001471D01*
X021799Y001477D01*
X021834Y001479D01*
X021869Y001477D01*
X021904Y001471D01*
X021938Y001461D01*
X021971Y001448D01*
X022002Y001431D01*
X022030Y001410D01*
X022057Y001387D01*
X022080Y001360D01*
X022101Y001332D01*
X022118Y001301D01*
X022131Y001268D01*
X022141Y001234D01*
X022147Y001199D01*
X022149Y001164D01*
X022147Y001129D01*
X022141Y001094D01*
X022131Y001060D01*
X022118Y001027D01*
X022101Y000996D01*
X022080Y000968D01*
X022057Y000941D01*
X022030Y000918D01*
X022002Y000897D01*
X021971Y000880D01*
X021938Y000867D01*
X021904Y000857D01*
X021869Y000851D01*
X021834Y000849D01*
X021799Y000851D01*
X021764Y000857D01*
X021730Y000867D01*
X021697Y000880D01*
X021666Y000897D01*
X021638Y000918D01*
X021611Y000941D01*
X021588Y000968D01*
X021567Y000996D01*
X021550Y001027D01*
X021537Y001060D01*
X021527Y001094D01*
X021521Y001129D01*
X021519Y001164D01*
X019550Y001164D02*
X019552Y001199D01*
X019558Y001234D01*
X019568Y001268D01*
X019581Y001301D01*
X019598Y001332D01*
X019619Y001360D01*
X019642Y001387D01*
X019669Y001410D01*
X019697Y001431D01*
X019728Y001448D01*
X019761Y001461D01*
X019795Y001471D01*
X019830Y001477D01*
X019865Y001479D01*
X019900Y001477D01*
X019935Y001471D01*
X019969Y001461D01*
X020002Y001448D01*
X020033Y001431D01*
X020061Y001410D01*
X020088Y001387D01*
X020111Y001360D01*
X020132Y001332D01*
X020149Y001301D01*
X020162Y001268D01*
X020172Y001234D01*
X020178Y001199D01*
X020180Y001164D01*
X020178Y001129D01*
X020172Y001094D01*
X020162Y001060D01*
X020149Y001027D01*
X020132Y000996D01*
X020111Y000968D01*
X020088Y000941D01*
X020061Y000918D01*
X020033Y000897D01*
X020002Y000880D01*
X019969Y000867D01*
X019935Y000857D01*
X019900Y000851D01*
X019865Y000849D01*
X019830Y000851D01*
X019795Y000857D01*
X019761Y000867D01*
X019728Y000880D01*
X019697Y000897D01*
X019669Y000918D01*
X019642Y000941D01*
X019619Y000968D01*
X019598Y000996D01*
X019581Y001027D01*
X019568Y001060D01*
X019558Y001094D01*
X019552Y001129D01*
X019550Y001164D01*
X017464Y001164D02*
X017466Y001205D01*
X017472Y001246D01*
X017482Y001286D01*
X017495Y001325D01*
X017512Y001362D01*
X017533Y001398D01*
X017557Y001432D01*
X017584Y001463D01*
X017613Y001491D01*
X017646Y001517D01*
X017680Y001539D01*
X017717Y001558D01*
X017755Y001573D01*
X017795Y001585D01*
X017835Y001593D01*
X017876Y001597D01*
X017918Y001597D01*
X017959Y001593D01*
X017999Y001585D01*
X018039Y001573D01*
X018077Y001558D01*
X018113Y001539D01*
X018148Y001517D01*
X018181Y001491D01*
X018210Y001463D01*
X018237Y001432D01*
X018261Y001398D01*
X018282Y001362D01*
X018299Y001325D01*
X018312Y001286D01*
X018322Y001246D01*
X018328Y001205D01*
X018330Y001164D01*
X018328Y001123D01*
X018322Y001082D01*
X018312Y001042D01*
X018299Y001003D01*
X018282Y000966D01*
X018261Y000930D01*
X018237Y000896D01*
X018210Y000865D01*
X018181Y000837D01*
X018148Y000811D01*
X018114Y000789D01*
X018077Y000770D01*
X018039Y000755D01*
X017999Y000743D01*
X017959Y000735D01*
X017918Y000731D01*
X017876Y000731D01*
X017835Y000735D01*
X017795Y000743D01*
X017755Y000755D01*
X017717Y000770D01*
X017681Y000789D01*
X017646Y000811D01*
X017613Y000837D01*
X017584Y000865D01*
X017557Y000896D01*
X017533Y000930D01*
X017512Y000966D01*
X017495Y001003D01*
X017482Y001042D01*
X017472Y001082D01*
X017466Y001123D01*
X017464Y001164D01*
X015613Y001164D02*
X015615Y001199D01*
X015621Y001234D01*
X015631Y001268D01*
X015644Y001301D01*
X015661Y001332D01*
X015682Y001360D01*
X015705Y001387D01*
X015732Y001410D01*
X015760Y001431D01*
X015791Y001448D01*
X015824Y001461D01*
X015858Y001471D01*
X015893Y001477D01*
X015928Y001479D01*
X015963Y001477D01*
X015998Y001471D01*
X016032Y001461D01*
X016065Y001448D01*
X016096Y001431D01*
X016124Y001410D01*
X016151Y001387D01*
X016174Y001360D01*
X016195Y001332D01*
X016212Y001301D01*
X016225Y001268D01*
X016235Y001234D01*
X016241Y001199D01*
X016243Y001164D01*
X016241Y001129D01*
X016235Y001094D01*
X016225Y001060D01*
X016212Y001027D01*
X016195Y000996D01*
X016174Y000968D01*
X016151Y000941D01*
X016124Y000918D01*
X016096Y000897D01*
X016065Y000880D01*
X016032Y000867D01*
X015998Y000857D01*
X015963Y000851D01*
X015928Y000849D01*
X015893Y000851D01*
X015858Y000857D01*
X015824Y000867D01*
X015791Y000880D01*
X015760Y000897D01*
X015732Y000918D01*
X015705Y000941D01*
X015682Y000968D01*
X015661Y000996D01*
X015644Y001027D01*
X015631Y001060D01*
X015621Y001094D01*
X015615Y001129D01*
X015613Y001164D01*
X013645Y001164D02*
X013647Y001199D01*
X013653Y001234D01*
X013663Y001268D01*
X013676Y001301D01*
X013693Y001332D01*
X013714Y001360D01*
X013737Y001387D01*
X013764Y001410D01*
X013792Y001431D01*
X013823Y001448D01*
X013856Y001461D01*
X013890Y001471D01*
X013925Y001477D01*
X013960Y001479D01*
X013995Y001477D01*
X014030Y001471D01*
X014064Y001461D01*
X014097Y001448D01*
X014128Y001431D01*
X014156Y001410D01*
X014183Y001387D01*
X014206Y001360D01*
X014227Y001332D01*
X014244Y001301D01*
X014257Y001268D01*
X014267Y001234D01*
X014273Y001199D01*
X014275Y001164D01*
X014273Y001129D01*
X014267Y001094D01*
X014257Y001060D01*
X014244Y001027D01*
X014227Y000996D01*
X014206Y000968D01*
X014183Y000941D01*
X014156Y000918D01*
X014128Y000897D01*
X014097Y000880D01*
X014064Y000867D01*
X014030Y000857D01*
X013995Y000851D01*
X013960Y000849D01*
X013925Y000851D01*
X013890Y000857D01*
X013856Y000867D01*
X013823Y000880D01*
X013792Y000897D01*
X013764Y000918D01*
X013737Y000941D01*
X013714Y000968D01*
X013693Y000996D01*
X013676Y001027D01*
X013663Y001060D01*
X013653Y001094D01*
X013647Y001129D01*
X013645Y001164D01*
X011676Y001164D02*
X011678Y001199D01*
X011684Y001234D01*
X011694Y001268D01*
X011707Y001301D01*
X011724Y001332D01*
X011745Y001360D01*
X011768Y001387D01*
X011795Y001410D01*
X011823Y001431D01*
X011854Y001448D01*
X011887Y001461D01*
X011921Y001471D01*
X011956Y001477D01*
X011991Y001479D01*
X012026Y001477D01*
X012061Y001471D01*
X012095Y001461D01*
X012128Y001448D01*
X012159Y001431D01*
X012187Y001410D01*
X012214Y001387D01*
X012237Y001360D01*
X012258Y001332D01*
X012275Y001301D01*
X012288Y001268D01*
X012298Y001234D01*
X012304Y001199D01*
X012306Y001164D01*
X012304Y001129D01*
X012298Y001094D01*
X012288Y001060D01*
X012275Y001027D01*
X012258Y000996D01*
X012237Y000968D01*
X012214Y000941D01*
X012187Y000918D01*
X012159Y000897D01*
X012128Y000880D01*
X012095Y000867D01*
X012061Y000857D01*
X012026Y000851D01*
X011991Y000849D01*
X011956Y000851D01*
X011921Y000857D01*
X011887Y000867D01*
X011854Y000880D01*
X011823Y000897D01*
X011795Y000918D01*
X011768Y000941D01*
X011745Y000968D01*
X011724Y000996D01*
X011707Y001027D01*
X011694Y001060D01*
X011684Y001094D01*
X011678Y001129D01*
X011676Y001164D01*
X008605Y001164D02*
X008607Y001205D01*
X008613Y001246D01*
X008623Y001286D01*
X008636Y001325D01*
X008653Y001362D01*
X008674Y001398D01*
X008698Y001432D01*
X008725Y001463D01*
X008754Y001491D01*
X008787Y001517D01*
X008821Y001539D01*
X008858Y001558D01*
X008896Y001573D01*
X008936Y001585D01*
X008976Y001593D01*
X009017Y001597D01*
X009059Y001597D01*
X009100Y001593D01*
X009140Y001585D01*
X009180Y001573D01*
X009218Y001558D01*
X009254Y001539D01*
X009289Y001517D01*
X009322Y001491D01*
X009351Y001463D01*
X009378Y001432D01*
X009402Y001398D01*
X009423Y001362D01*
X009440Y001325D01*
X009453Y001286D01*
X009463Y001246D01*
X009469Y001205D01*
X009471Y001164D01*
X009469Y001123D01*
X009463Y001082D01*
X009453Y001042D01*
X009440Y001003D01*
X009423Y000966D01*
X009402Y000930D01*
X009378Y000896D01*
X009351Y000865D01*
X009322Y000837D01*
X009289Y000811D01*
X009255Y000789D01*
X009218Y000770D01*
X009180Y000755D01*
X009140Y000743D01*
X009100Y000735D01*
X009059Y000731D01*
X009017Y000731D01*
X008976Y000735D01*
X008936Y000743D01*
X008896Y000755D01*
X008858Y000770D01*
X008822Y000789D01*
X008787Y000811D01*
X008754Y000837D01*
X008725Y000865D01*
X008698Y000896D01*
X008674Y000930D01*
X008653Y000966D01*
X008636Y001003D01*
X008623Y001042D01*
X008613Y001082D01*
X008607Y001123D01*
X008605Y001164D01*
X006755Y001164D02*
X006757Y001199D01*
X006763Y001234D01*
X006773Y001268D01*
X006786Y001301D01*
X006803Y001332D01*
X006824Y001360D01*
X006847Y001387D01*
X006874Y001410D01*
X006902Y001431D01*
X006933Y001448D01*
X006966Y001461D01*
X007000Y001471D01*
X007035Y001477D01*
X007070Y001479D01*
X007105Y001477D01*
X007140Y001471D01*
X007174Y001461D01*
X007207Y001448D01*
X007238Y001431D01*
X007266Y001410D01*
X007293Y001387D01*
X007316Y001360D01*
X007337Y001332D01*
X007354Y001301D01*
X007367Y001268D01*
X007377Y001234D01*
X007383Y001199D01*
X007385Y001164D01*
X007383Y001129D01*
X007377Y001094D01*
X007367Y001060D01*
X007354Y001027D01*
X007337Y000996D01*
X007316Y000968D01*
X007293Y000941D01*
X007266Y000918D01*
X007238Y000897D01*
X007207Y000880D01*
X007174Y000867D01*
X007140Y000857D01*
X007105Y000851D01*
X007070Y000849D01*
X007035Y000851D01*
X007000Y000857D01*
X006966Y000867D01*
X006933Y000880D01*
X006902Y000897D01*
X006874Y000918D01*
X006847Y000941D01*
X006824Y000968D01*
X006803Y000996D01*
X006786Y001027D01*
X006773Y001060D01*
X006763Y001094D01*
X006757Y001129D01*
X006755Y001164D01*
X004786Y001164D02*
X004788Y001199D01*
X004794Y001234D01*
X004804Y001268D01*
X004817Y001301D01*
X004834Y001332D01*
X004855Y001360D01*
X004878Y001387D01*
X004905Y001410D01*
X004933Y001431D01*
X004964Y001448D01*
X004997Y001461D01*
X005031Y001471D01*
X005066Y001477D01*
X005101Y001479D01*
X005136Y001477D01*
X005171Y001471D01*
X005205Y001461D01*
X005238Y001448D01*
X005269Y001431D01*
X005297Y001410D01*
X005324Y001387D01*
X005347Y001360D01*
X005368Y001332D01*
X005385Y001301D01*
X005398Y001268D01*
X005408Y001234D01*
X005414Y001199D01*
X005416Y001164D01*
X005414Y001129D01*
X005408Y001094D01*
X005398Y001060D01*
X005385Y001027D01*
X005368Y000996D01*
X005347Y000968D01*
X005324Y000941D01*
X005297Y000918D01*
X005269Y000897D01*
X005238Y000880D01*
X005205Y000867D01*
X005171Y000857D01*
X005136Y000851D01*
X005101Y000849D01*
X005066Y000851D01*
X005031Y000857D01*
X004997Y000867D01*
X004964Y000880D01*
X004933Y000897D01*
X004905Y000918D01*
X004878Y000941D01*
X004855Y000968D01*
X004834Y000996D01*
X004817Y001027D01*
X004804Y001060D01*
X004794Y001094D01*
X004788Y001129D01*
X004786Y001164D01*
X002818Y001164D02*
X002820Y001199D01*
X002826Y001234D01*
X002836Y001268D01*
X002849Y001301D01*
X002866Y001332D01*
X002887Y001360D01*
X002910Y001387D01*
X002937Y001410D01*
X002965Y001431D01*
X002996Y001448D01*
X003029Y001461D01*
X003063Y001471D01*
X003098Y001477D01*
X003133Y001479D01*
X003168Y001477D01*
X003203Y001471D01*
X003237Y001461D01*
X003270Y001448D01*
X003301Y001431D01*
X003329Y001410D01*
X003356Y001387D01*
X003379Y001360D01*
X003400Y001332D01*
X003417Y001301D01*
X003430Y001268D01*
X003440Y001234D01*
X003446Y001199D01*
X003448Y001164D01*
X003446Y001129D01*
X003440Y001094D01*
X003430Y001060D01*
X003417Y001027D01*
X003400Y000996D01*
X003379Y000968D01*
X003356Y000941D01*
X003329Y000918D01*
X003301Y000897D01*
X003270Y000880D01*
X003237Y000867D01*
X003203Y000857D01*
X003168Y000851D01*
X003133Y000849D01*
X003098Y000851D01*
X003063Y000857D01*
X003029Y000867D01*
X002996Y000880D01*
X002965Y000897D01*
X002937Y000918D01*
X002910Y000941D01*
X002887Y000968D01*
X002866Y000996D01*
X002849Y001027D01*
X002836Y001060D01*
X002826Y001094D01*
X002820Y001129D01*
X002818Y001164D01*
D12*
X017897Y002542D03*
X017897Y003330D03*
X017897Y004117D03*
X017897Y004904D03*
X017897Y005692D03*
X017897Y006479D03*
X017897Y007267D03*
X017897Y008054D03*
X017897Y008841D03*
X017897Y009629D03*
X017897Y010416D03*
X017897Y011204D03*
X017897Y011991D03*
X017897Y012778D03*
X017897Y013566D03*
X017897Y014353D03*
X017897Y015141D03*
X017897Y015928D03*
X017897Y016715D03*
X017897Y017503D03*
X017897Y018290D03*
X017897Y019078D03*
X017897Y019865D03*
X017897Y020652D03*
X017897Y021440D03*
X017897Y022227D03*
X017897Y023015D03*
X017897Y023802D03*
X017897Y024589D03*
X017897Y025377D03*
X017897Y026164D03*
X017897Y026952D03*
X017897Y027739D03*
X017897Y028526D03*
X017897Y029314D03*
X017897Y030101D03*
X017897Y030889D03*
X017897Y031676D03*
X017897Y032463D03*
X017897Y033251D03*
D13*
X018290Y017897D03*
X019078Y017897D03*
X019865Y017897D03*
X020652Y017897D03*
X021440Y017897D03*
X022227Y017897D03*
X023015Y017897D03*
X023802Y017897D03*
X024589Y017897D03*
X025377Y017897D03*
X026164Y017897D03*
X026952Y017897D03*
X027739Y017897D03*
X028526Y017897D03*
X029314Y017897D03*
X030101Y017897D03*
X030889Y017897D03*
X031676Y017897D03*
X032463Y017897D03*
X033251Y017897D03*
X017503Y017897D03*
X016715Y017897D03*
X015928Y017897D03*
X015141Y017897D03*
X014353Y017897D03*
X013566Y017897D03*
X012778Y017897D03*
X011991Y017897D03*
X011204Y017897D03*
X010416Y017897D03*
X009629Y017897D03*
X008841Y017897D03*
X008054Y017897D03*
X007267Y017897D03*
X006479Y017897D03*
X005692Y017897D03*
X004904Y017897D03*
X004117Y017897D03*
X003330Y017897D03*
X002542Y017897D03*
M02*
