<?xml version="1.0" standalone="no"?>
<!DOCTYPE svg PUBLIC "-//W3C//DTD SVG 1.1//EN" "http://www.w3.org/Graphics/SVG/1.1/DTD/svg11.dtd">
<svg width="370.0mm" height="230.0mm"
 viewBox="0 0 370.0 230.0"
 xmlns="http://www.w3.org/2000/svg" version="1.1"
 xmlns:xlink="http://www.w3.org/1999/xlink">
<desc>Output from Flights of Ideas SVG Sketchup Plugin</desc>

<g id="text_annotations" font-size="10" stroke="rgb(255,0,0)" stroke-width="1">
</g>
  <path id="face0-cut"
 style="fill:none;stroke:rgb(0,0,255);stroke-width:1;stroke-miterlimit:4;stroke-dasharray:none;stroke-linejoin:round;stroke-linecap:round"
        d="M 360.0,220.0 L 360.0,10.0 L 10.0,10.0 L 10.0000000000001,220.0 L 360.0,220.0 M 79.9999673163205,49.9999995674401 L 79.9999673163205,77.0000215440024 L 64.9528064210771,77.0000215440023 L 59.9999840080248,70.9704177741865 L 59.9999840080248,56.0120777606736 L 64.9528064210771,49.9999995674401 L 79.9999673163205,49.9999995674401 M 29.3768993212903,207.80650411405 L 28.7862573563921,207.561852201681 L 28.2790616027479,207.172667211723 L 27.8898766127887,206.66547145808 L 27.6452247004209,206.074829493181 L 27.5617784891666,205.440992590854 L 27.6452247004208,204.807155688528 L 27.8898766127887,204.216513723629 L 28.2790616027479,203.709317969985 L 28.786257356392,203.320132980025 L 29.3768993212903,203.075481067658 L 30.0107362236173,202.992034856403 L 30.6445731259442,203.075481067658 L 31.2352150908425,203.320132980025 L 31.7424108444866,203.709317969985 L 32.1315958344458,204.216513723629 L 32.3762477468136,204.807155688527 L 32.4596939580679,205.440992590853 L 32.3762477468136,206.074829493181 L 32.1315958344458,206.665471458081 L 31.7424108444866,207.172667211724 L 31.2352150908425,207.561852201683 L 30.6445731259442,207.806504114051 L 30.0107362236172,207.889950325307 L 29.3768993212903,207.80650411405 M 350.072104633844,207.868770917887 L 349.44374936552,207.78604637744 L 348.858215470327,207.543510296822 L 348.35540611558,207.157691109116 L 347.969586927875,206.65488175437 L 347.727050847257,206.069347859177 L 347.64432630681,205.440992590853 L 347.727050847257,204.81263732253 L 347.969586927875,204.227103427336 L 348.35540611558,203.72429407259 L 348.858215470327,203.338474884885 L 349.44374936552,203.095938804266 L 350.072104633844,203.013214263819 L 350.700459902167,203.095938804266 L 351.28599379736,203.338474884885 L 351.788803152107,203.72429407259 L 352.174622339812,204.227103427336 L 352.41715842043,204.81263732253 L 352.499882960877,205.440992590853 L 352.41715842043,206.069347859177 L 352.174622339812,206.65488175437 L 351.788803152107,207.157691109116 L 351.28599379736,207.543510296822 L 350.700459902167,207.78604637744 L 350.072104633844,207.868770917887 M 352.459568932871,25.5172906209814 L 352.378218059617,26.135211851072 L 352.13970936743,26.711022770495 L 351.760296829527,27.2054828166643 L 351.265836783357,27.5848953545674 L 350.690025863934,27.8234040467549 L 350.072104633844,27.9047549200086 L 349.454183403753,27.8234040467549 L 348.87837248433,27.5848953545674 L 348.383912438161,27.2054828166644 L 348.004499900258,26.711022770495 L 347.76599120807,26.135211851072 L 347.684640334816,25.5172906209814 L 347.76599120807,24.8993693908908 L 348.004499900258,24.3235584714678 L 348.383912438161,23.8290984252985 L 348.87837248433,23.4496858873954 L 349.454183403753,23.2111771952079 L 350.072104633844,23.1298263219542 L 350.690025863934,23.2111771952079 L 351.265836783357,23.4496858873954 L 351.760296829527,23.8290984252985 L 352.13970936743,24.3235584714678 L 352.378218059617,24.8993693908908 L 352.459568932871,25.5172906209814 M 32.4596939580679,25.5172906209815 L 32.3762477468136,26.1511275233085 L 32.1315958344459,26.7417694882068 L 31.7424108444866,27.248965241851 L 31.2352150908425,27.6381502318101 L 30.6445731259443,27.8828021441777 L 30.0107362236173,27.9662483554322 L 29.3768993212904,27.8828021441777 L 28.786257356392,27.6381502318101 L 28.2790616027478,27.2489652418507 L 27.8898766127887,26.7417694882068 L 27.6452247004208,26.1511275233087 L 27.5617784891667,25.5172906209814 L 27.645224700421,24.8834537186546 L 27.8898766127887,24.2928117537561 L 28.2790616027479,23.7856160001122 L 28.786257356392,23.3964310101528 L 29.3768993212903,23.1517790977852 L 30.0107362236173,23.0683328865309 L 30.6445731259442,23.1517790977853 L 31.2352150908425,23.3964310101528 L 31.7424108444866,23.7856160001123 L 32.1315958344458,24.2928117537561 L 32.3762477468136,24.8834537186546 L 32.4596939580679,25.5172906209815 M 72.9326275098779,43.5055102772829 L 72.7351507634951,43.9822613166534 L 72.421010625311,44.3916567153628 L 72.0116152266016,44.705796853547 L 71.5348641872311,44.9032735999296 L 71.0232473026641,44.9706292405907 L 70.5116304180972,44.9032735999297 L 70.0348793787267,44.7057968535469 L 69.6254839800173,44.3916567153627 L 69.311343841833,43.9822613166533 L 69.1138670954504,43.5055102772828 L 69.0465114547893,42.9938933927158 L 69.1138670954504,42.482276508149 L 69.3113438418331,42.0055254687783 L 69.6254839800173,41.596130070069 L 70.0348793787267,41.2819899318849 L 70.5116304180972,41.0845131855022 L 71.023247302664,41.0171575448411 L 71.5348641872311,41.084513185502 L 72.0116152266016,41.2819899318849 L 72.421010625311,41.596130070069 L 72.7351507634951,42.0055254687784 L 72.932627509878,42.4822765081488 L 72.9999831505391,42.9938933927159 L 72.9326275098779,43.5055102772829 M 71.023247302664,85.983300356231 L 70.5199789111755,85.9170438155346 L 70.0510074288765,85.7227894672001 L 69.6482924872736,85.4137754240461 L 69.3392784441196,85.011060482443 L 69.1450240957851,84.5420890001441 L 69.0787675550887,84.0388206086556 L 69.1450240957851,83.5355522171669 L 69.3392784441195,83.0665807348677 L 69.6482924872737,82.6638657932651 L 70.0510074288764,82.3548517501109 L 70.5199789111755,82.1605974017763 L 71.023247302664,82.0943408610802 L 71.5265156941528,82.1605974017763 L 71.9954871764519,82.3548517501108 L 72.3982021180546,82.663865793265 L 72.7072161612087,83.0665807348678 L 72.9014705095433,83.5355522171668 L 72.9677270502395,84.0388206086556 L 72.9014705095432,84.5420890001442 L 72.7072161612087,85.0110604824432 L 72.3982021180546,85.413775424046 L 71.9954871764519,85.7227894672002 L 71.5265156941527,85.9170438155346 L 71.023247302664,85.983300356231 "
  />
</svg>
