<?xml version="1.0" encoding="UTF-8" standalone="no"?>
<svg
   xmlns:dc="http://purl.org/dc/elements/1.1/"
   xmlns:cc="http://creativecommons.org/ns#"
   xmlns:rdf="http://www.w3.org/1999/02/22-rdf-syntax-ns#"
   xmlns:svg="http://www.w3.org/2000/svg"
   xmlns="http://www.w3.org/2000/svg"
   xmlns:sodipodi="http://sodipodi.sourceforge.net/DTD/sodipodi-0.dtd"
   xmlns:inkscape="http://www.inkscape.org/namespaces/inkscape"
   width="245.181117272042mm"
   height="229.999965156704mm"
   viewBox="0 0 245.181117272042 229.999965156704"
   version="1.1"
   id="svg2"
   inkscape:version="0.48.2 r9819"
   sodipodi:docname="front_door.svg">
  <metadata
     id="metadata12">
    <rdf:RDF>
      <cc:Work
         rdf:about="">
        <dc:format>image/svg+xml</dc:format>
        <dc:type
           rdf:resource="http://purl.org/dc/dcmitype/StillImage" />
      </cc:Work>
    </rdf:RDF>
  </metadata>
  <defs
     id="defs10" />
  <sodipodi:namedview
     pagecolor="#ffffff"
     bordercolor="#666666"
     borderopacity="1"
     objecttolerance="10"
     gridtolerance="10"
     guidetolerance="10"
     inkscape:pageopacity="0"
     inkscape:pageshadow="2"
     inkscape:window-width="1280"
     inkscape:window-height="845"
     id="namedview8"
     showgrid="false"
     inkscape:zoom="0.81906889"
     inkscape:cx="672.94463"
     inkscape:cy="448.01993"
     inkscape:window-x="40"
     inkscape:window-y="1"
     inkscape:window-maximized="0"
     inkscape:current-layer="svg2" />
  <desc
     id="desc4">Output from Flights of Ideas SVG Sketchup Plugin</desc>
  <g
     id="text_annotations"
     font-size="10"
     stroke="rgb(255,0,0)"
     stroke-width="1" />
  <path
     id="face0-cut"
     style="fill:none;stroke:rgb(0,0,255);stroke-width:1;stroke-miterlimit:4;stroke-dasharray:none;stroke-linejoin:round;stroke-linecap:round"
     d="M 10.0,219.999965156704 L 235.181117272042,219.999965156704 L 235.181117272042,10.0000128686419 L 20.9284168783101,10.0 L 20.9284168783101,135.467982171249 L 10.0,155.467971210957 L 10.0,219.999965156704 M 85.560632245856,182.901775659643 L 85.6407489345877,183.510322327575 L 85.560632245856,184.118868995506 L 85.325741999599,184.685944213689 L 84.9520855779246,185.17290274314 L 84.4651270484733,185.546559164815 L 83.8980518302905,185.781449411072 L 83.289505162359,185.861566099804 L 82.6809584944274,185.781449411072 L 82.1138832762446,185.546559164815 L 81.6269247467933,185.17290274314 L 81.2532683251188,184.685944213689 L 81.0183780788618,184.118868995506 L 80.9382613901302,183.510322327575 L 81.0183780788618,182.901775659643 L 81.2532683251188,182.33470044146 L 81.6269247467933,181.847741912009 L 82.1138832762446,181.474085490334 L 82.6809584944274,181.239195244077 L 83.289505162359,181.159078555346 L 83.8980518302905,181.239195244077 L 84.4651270484733,181.474085490334 L 84.9520855779246,181.847741912009 L 85.325741999599,182.33470044146 L 85.560632245856,182.901775659643 M 149.558111458629,182.88181631019 L 149.640855845566,183.510322327575 L 149.558111458629,184.138828344959 L 149.315517191045,184.724502715914 L 148.929605441244,185.227432699932 L 148.426675457226,185.613344449733 L 147.841001086271,185.855938717317 L 147.212495068887,185.938683104254 L 146.583989051502,185.855938717317 L 145.998314680547,185.613344449733 L 145.495384696529,185.227432699932 L 145.109472946728,184.724502715914 L 144.866878679145,184.138828344959 L 144.784134292207,183.510322327575 L 144.866878679145,182.88181631019 L 145.109472946728,182.296141939235 L 145.495384696529,181.793211955217 L 145.998314680547,181.407300205416 L 146.583989051502,181.164705937833 L 147.212495068887,181.081961550895 L 147.841001086271,181.164705937833 L 148.426675457226,181.407300205417 L 148.929605441244,181.793211955217 L 149.315517191045,182.296141939235 L 149.558111458629,182.88181631019 M 36.1812367099593,180.467993845581 L 36.1812367099593,50.4679803058368 L 36.2817352814973,48.7179734672644 L 36.5819096084298,46.9909762838903 L 37.0778129017444,45.3096958725338 L 37.7629248647546,43.6962382511282 L 38.6282374240668,42.1718176816566 L 39.6623731706391,40.7564777381827 L 40.8517349536306,39.4688277674644 L 42.1806846601323,38.3257982072516 L 43.6317488301279,37.3424179794218 L 45.1858484031894,36.5316168848607 L 46.822549576127,35.9040555982633 L 48.5203324732343,35.4679854981397 L 60.681142969091,35.4679854981397 L 165.15307748098,35.4679854981397 L 195.181208545253,35.4679854981397 L 197.139099370462,35.5963143445471 L 199.063489924769,35.9791011922226 L 200.921453394502,36.6097964604786 L 202.681199550362,37.4776087922617 L 204.312618686368,38.5676896970263 L 205.787796804608,39.8613876121993 L 207.081493230874,41.3365670361765 L 208.171572489037,42.9679872724071 L 209.039383044697,44.7277343041546 L 209.670076437699,46.5856984104503 L 210.052861343075,48.5100893511054 L 210.181188213371,50.4679803058367 L 210.181188213371,180.467993845581 L 210.080665645262,182.201836109486 L 209.780444961414,183.912444575439 L 209.284549172947,185.576896782558 L 208.599623372552,187.172888772122 L 207.734845689053,188.679033964633 L 206.701804298831,190.075149743817 L 205.514342142178,191.342527907318 L 204.188371425411,192.464185359964 L 202.741660394443,193.4250916903 L 201.193595237102,194.212370580799 L 199.564920304721,194.815472352837 L 197.877460134108,195.226315334274 L 170.181016347347,195.226315334274 L 145.181066382701,170.467987214064 L 85.1811234869021,170.467987214064 L 60.5376803213737,195.467985625362 L 48.5203324732343,195.467985625362 L 46.750518431813,195.171117816432 L 45.0342396118727,194.646942989284 L 43.4005598610744,193.904337637147 L 41.8771442760516,192.955877204393 L 40.4897907155047,191.817623131161 L 39.2619929335177,190.508850865357 L 38.2145427310961,189.051723447923 L 37.3651778631792,187.470916198971 L 36.7282816635485,185.793198860416 L 36.3146394742516,184.046982271208 L 36.131256004218,182.261837251858 L 36.1812367099593,180.467993845581 " />
  <text
     xml:space="preserve"
     style="font-size:11.28888893px;font-style:normal;font-weight:normal;line-height:125%;letter-spacing:0px;word-spacing:0px;fill:#000000;fill-opacity:1;stroke:none;font-family:Sans"
     x="72.667389"
     y="-226.90463"
     id="text2989"
     sodipodi:linespacing="125%"
     transform="matrix(-0.02665944,0.99964457,-0.99964457,-0.02665944,0,0)"
     inkscape:transform-center-x="-44.891893"><tspan
       sodipodi:role="line"
       id="tspan2991"
       x="72.667389"
       y="-226.90463">210mm</tspan></text>
</svg>
