<?xml version="1.0" encoding="UTF-8" standalone="no"?>
<svg
   xmlns:dc="http://purl.org/dc/elements/1.1/"
   xmlns:cc="http://creativecommons.org/ns#"
   xmlns:rdf="http://www.w3.org/1999/02/22-rdf-syntax-ns#"
   xmlns:svg="http://www.w3.org/2000/svg"
   xmlns="http://www.w3.org/2000/svg"
   xmlns:sodipodi="http://sodipodi.sourceforge.net/DTD/sodipodi-0.dtd"
   xmlns:inkscape="http://www.inkscape.org/namespaces/inkscape"
   width="87.500211298106mm"
   height="125.000003016783mm"
   viewBox="0 0 87.500211298106 125.000003016783"
   version="1.1"
   id="svg2"
   inkscape:version="0.48.2 r9819"
   sodipodi:docname="front_LCD.svg">
  <metadata
     id="metadata12">
    <rdf:RDF>
      <cc:Work
         rdf:about="">
        <dc:format>image/svg+xml</dc:format>
        <dc:type
           rdf:resource="http://purl.org/dc/dcmitype/StillImage" />
      </cc:Work>
    </rdf:RDF>
  </metadata>
  <defs
     id="defs10" />
  <sodipodi:namedview
     pagecolor="#ffffff"
     bordercolor="#666666"
     borderopacity="1"
     objecttolerance="10"
     gridtolerance="10"
     guidetolerance="10"
     inkscape:pageopacity="0"
     inkscape:pageshadow="2"
     inkscape:window-width="640"
     inkscape:window-height="742"
     id="namedview8"
     showgrid="false"
     inkscape:zoom="0.53283555"
     inkscape:cx="155.02007"
     inkscape:cy="296.52676"
     inkscape:window-x="0"
     inkscape:window-y="0"
     inkscape:window-maximized="0"
     inkscape:current-layer="svg2" />
  <desc
     id="desc4">Output from Flights of Ideas SVG Sketchup Plugin</desc>
  <g
     id="text_annotations"
     font-size="10"
     stroke="rgb(255,0,0)"
     stroke-width="1" />
  <path
     id="face0-cut"
     style="fill:none;stroke:rgb(0,0,255);stroke-width:1;stroke-miterlimit:4;stroke-dasharray:none;stroke-linejoin:round;stroke-linecap:round"
     d="M 10.0000000000002,115.000003016783 L 77.4997510549134,115.000003016783 L 77.500211298106,90.5000224989737 L 77.5002112981052,30.500079603172 L 77.4997510549146,10.0 L 64.9999093008822,10.0000000000007 L 59.7152031798429,16.5001114987032 L 29.9859031756896,16.5001114987032 L 24.9999675564558,10.5280685048948 L 10.0,10.5280685048957 L 10.0000000000002,115.000003016783 M 16.9171560743406,19.8889480046412 L 16.9999840522349,20.5180889583801 L 16.9171560743401,21.1472299121194 L 16.6743167304712,21.7334959495646 L 16.2880151206008,22.2369340091178 L 15.7845770610496,22.6232356189863 L 15.1983110236036,22.8660749628557 L 14.5691700698642,22.9489029407496 L 13.9400291161256,22.866074962856 L 13.3537630786788,22.6232356189869 L 12.8503250191269,22.236934009118 L 12.4640234092569,21.7334959495653 L 12.2211840653871,21.1472299121192 L 12.1383560874946,20.5180889583801 L 12.2211840653887,19.8889480046412 L 12.4640234092575,19.3026819671954 L 12.850325019127,18.7992439076436 L 13.3537630786797,18.4129422977726 L 13.9400291161256,18.1701029539041 L 14.569170069865,18.0872749760097 L 15.1983110236028,18.1701029539043 L 15.7845770610495,18.412942297774 L 16.2880151206004,18.7992439076416 L 16.6743167304712,19.3026819671951 L 16.9171560743406,19.8889480046412 M 12.7917008580723,101.927243658798 L 13.3060008139403,101.532607422744 L 13.9049157975518,101.284528713822 L 14.5476307425263,101.199913686081 L 15.190345687501,101.284528713824 L 15.7892606711123,101.532607422745 L 16.3035606269802,101.927243658799 L 16.6981968630359,102.441543614667 L 16.9462755719557,103.040458598278 L 17.030890599698,103.683173543252 L 16.9462755719552,104.325888488228 L 16.6981968630356,104.924803471839 L 16.303560626981,105.439103427708 L 15.7892606711121,105.833739663762 L 15.1903456875019,106.081818372682 L 14.5476307425264,106.166433400425 L 13.904915797552,106.081818372681 L 13.3060008139404,105.833739663762 L 12.7917008580727,105.439103427707 L 12.3970646220185,104.924803471839 L 12.1489859130978,104.325888488228 L 12.0643708853557,103.683173543253 L 12.1489859130968,103.040458598277 L 12.3970646220174,102.441543614667 L 12.7917008580723,101.927243658798 M 71.8766346726814,18.0783384254126 L 72.5000202515712,17.9999713925571 L 73.1224473625684,18.0856187118524 L 73.7014986266673,18.3294436600245 L 74.197712657148,18.7148299697965 L 74.577273287865,19.2155142010403 L 74.814314089089,19.7973755508141 L 74.892681121945,20.4207611297042 L 74.8070338026514,21.0431882407024 L 74.5632088544783,21.6222395048008 L 74.1778225447056,22.1184535352827 L 73.6771383134619,22.4980141659979 L 73.0952769636868,22.7350549672219 L 72.4718913847979,22.8134220000782 L 71.8494642738006,22.7277746807844 L 71.2704130097019,22.4839497326121 L 70.7741989792212,22.0985634228394 L 70.3946383485041,21.5978791915954 L 70.1575975472809,21.0160178418206 L 70.0792305144248,20.3926322629314 L 70.1648778337178,19.7702051519338 L 70.4087027818912,19.1911538878349 L 70.7940890916639,18.6949398573548 L 71.2947733229077,18.3153792266384 L 71.8766346726814,18.0783384254126 M 71.2877770883796,101.668158913699 L 71.8489420962009,101.435716756729 L 72.4511463271729,101.356435065664 L 73.0533505581463,101.435716756729 L 73.6145155659678,101.668158913697 L 74.0963988827248,102.037920987703 L 74.4661609567279,102.519804304459 L 74.6986031136972,103.08096931228 L 74.7778848047622,103.683173543253 L 74.6986031136967,104.285377774226 L 74.4661609567276,104.846542782047 L 74.0963988827241,105.328426098804 L 73.6145155659679,105.698188172808 L 73.0533505581465,105.930630329777 L 72.4511463271735,106.00991202084 L 71.8489420962008,105.930630329776 L 71.2877770883793,105.698188172808 L 70.8058937716228,105.328426098804 L 70.4361316976193,104.846542782047 L 70.2036895406505,104.285377774226 L 70.1244078495849,103.683173543253 L 70.2036895406504,103.08096931228 L 70.4361316976191,102.519804304459 L 70.8058937716229,102.037920987703 L 71.2877770883796,101.668158913699 M 16.6515920672968,99.5989698531945 L 16.6515920672975,24.1950385480438 L 70.1837616044858,24.1950385480447 L 70.1837616044858,99.5989698531941 L 16.6515920672968,99.5989698531945 " />
  <text
     xml:space="preserve"
     style="font-size:40px;font-style:normal;font-weight:normal;line-height:125%;letter-spacing:0px;word-spacing:0px;fill:#000000;fill-opacity:1;stroke:none;font-family:Sans"
     x="121.98886"
     y="395.9946"
     id="text2989"
     sodipodi:linespacing="125%"
     transform="matrix(0.28222223,0,0,0.28222223,-2.2047824e-6,0)"><tspan
       sodipodi:role="line"
       id="tspan2991"
       x="121.98886"
       y="395.9946">67.5 mm</tspan></text>
  <text
     xml:space="preserve"
     style="font-size:11.28888893px;font-style:normal;font-weight:normal;line-height:125%;letter-spacing:0px;word-spacing:0px;fill:#000000;fill-opacity:1;stroke:none;font-family:Sans"
     x="37.814919"
     y="-81.342751"
     id="text2993"
     sodipodi:linespacing="125%"
     transform="matrix(-0.01900242,0.99981944,-0.99981944,-0.01900242,0,0)"><tspan
       sodipodi:role="line"
       id="tspan2995"
       x="37.814919"
       y="-81.342751">105mm</tspan></text>
</svg>
