<?xml version="1.0" encoding="UTF-8" standalone="no"?>
<svg
   xmlns:dc="http://purl.org/dc/elements/1.1/"
   xmlns:cc="http://creativecommons.org/ns#"
   xmlns:rdf="http://www.w3.org/1999/02/22-rdf-syntax-ns#"
   xmlns:svg="http://www.w3.org/2000/svg"
   xmlns="http://www.w3.org/2000/svg"
   xmlns:sodipodi="http://sodipodi.sourceforge.net/DTD/sodipodi-0.dtd"
   xmlns:inkscape="http://www.inkscape.org/namespaces/inkscape"
   width="370.000011552666mm"
   height="219.999979782833mm"
   viewBox="0 0 370.000011552666 219.999979782833"
   version="1.1"
   id="svg2"
   inkscape:version="0.48.2 r9819"
   sodipodi:docname="left_side.svg">
  <metadata
     id="metadata12">
    <rdf:RDF>
      <cc:Work
         rdf:about="">
        <dc:format>image/svg+xml</dc:format>
        <dc:type
           rdf:resource="http://purl.org/dc/dcmitype/StillImage" />
        <dc:title></dc:title>
      </cc:Work>
    </rdf:RDF>
  </metadata>
  <defs
     id="defs10" />
  <sodipodi:namedview
     pagecolor="#ffffff"
     bordercolor="#666666"
     borderopacity="1"
     objecttolerance="10"
     gridtolerance="10"
     guidetolerance="10"
     inkscape:pageopacity="0"
     inkscape:pageshadow="2"
     inkscape:window-width="640"
     inkscape:window-height="480"
     id="namedview8"
     showgrid="false"
     inkscape:zoom="0.22272672"
     inkscape:cx="655.51184"
     inkscape:cy="389.76376"
     inkscape:window-x="0"
     inkscape:window-y="0"
     inkscape:window-maximized="0"
     inkscape:current-layer="svg2" />
  <desc
     id="desc4">Output from Flights of Ideas SVG Sketchup Plugin</desc>
  <g
     id="text_annotations"
     font-size="10"
     stroke="rgb(255,0,0)"
     stroke-width="1" />
  <path
     id="face0-cut"
     style="fill:none;stroke:rgb(0,0,255);stroke-width:1;stroke-miterlimit:4;stroke-dasharray:none;stroke-linejoin:round;stroke-linecap:round"
     d="M 10.0,209.999979782833 L 360.000011552666,209.999979782833 L 360.000011552666,10.0000000000001 L 10.0,10.0 L 10.0,209.999979782833 M 30.3480876452257,18.0758280336111 L 30.990592655605,18.2658029584118 L 31.5620357100201,18.615597177884 L 32.0234739086671,19.101372794033 L 32.3434610008707,19.6900250014005 L 32.500190395101,20.3414381248481 L 32.4829812421487,21.0112194365239 L 32.293006317348,21.6537244469032 L 31.9432120978759,22.2251675013184 L 31.4574364817268,22.6866056999653 L 30.8687842743593,23.0065927921689 L 30.2173711509117,23.1633221863993 L 29.5475898392359,23.1461130334469 L 28.9050848288566,22.9561381086463 L 28.3336417744414,22.6063438891741 L 27.8722035757945,22.1205682730251 L 27.5522164835908,21.5319160656576 L 27.3954870893606,20.88050294221 L 27.4126962423129,20.2107216305342 L 27.6026711671135,19.5682166201549 L 27.9524653865857,18.9967735657397 L 28.4382410027347,18.5353353670928 L 29.0268932101022,18.2153482748892 L 29.6783063335498,18.0586188806589 L 30.3480876452257,18.0758280336111 M 27.6364846803732,199.265017825178 L 27.9938783135343,198.703478519501 L 28.4844311208387,198.253573480531 L 29.0747127391455,197.945962993172 L 29.7244964516538,197.801610203786 L 30.3895005721742,197.830352516415 L 31.0244061688647,198.030231189954 L 31.5859454745418,198.387624823115 L 32.0358505135114,198.87817763042 L 32.3434610008707,199.468459248726 L 32.4878137902567,200.118242961235 L 32.459071477627,200.783247081755 L 32.2591928040884,201.418152678446 L 31.9017991709274,201.979691984123 L 31.4112463636229,202.429597023092 L 30.820964745316,202.737207510452 L 30.1711810328078,202.881560299838 L 29.5061769122874,202.852817987208 L 28.8712713155969,202.652939313669 L 28.3097320099198,202.295545680508 L 27.8598269709503,201.804992873204 L 27.5522164835909,201.214711254897 L 27.4078636942048,200.564927542389 L 27.4366060068345,199.899923421868 L 27.6364846803732,199.265017825178 M 352.038385819165,198.898395252075 L 352.343334153371,199.468462687832 L 352.490347315698,200.098031983422 L 352.469406602084,200.74419903176 L 352.281939087556,201.362928616343 L 351.940720373424,201.912055338487 L 351.469003951165,202.354157119546 L 350.898936515409,202.659105453753 L 350.26936721982,202.806118616079 L 349.623200171482,202.785177902467 L 349.004470586896,202.597710387937 L 348.455343864754,202.256491673806 L 348.013242083694,201.784775251547 L 347.708293749488,201.214707815792 L 347.561280587161,200.585138520203 L 347.582221300775,199.938971471862 L 347.769688815303,199.320241887279 L 348.110907529436,198.771115165137 L 348.582623951694,198.329013384074 L 349.152691387451,198.02406504987 L 349.782260683039,197.877051887542 L 350.428427731377,197.897992601157 L 351.047157315963,198.085460115684 L 351.596284038106,198.426678829818 L 352.038385819165,198.898395252075 M 347.708293749488,19.788243278357 L 348.000198817991,19.2164586640941 L 348.43014621035,18.7397077291933 L 348.968835722299,18.3904802620001 L 349.579556553824,18.1925755372778 L 350.22068908952,18.1594804349633 L 350.848541206602,18.2934503315872 L 351.420325820865,18.5853554000902 L 351.897076755765,19.0153027924497 L 352.246304222959,19.5539923043982 L 352.444208947681,20.164713135923 L 352.477304049995,20.8058456716192 L 352.343334153371,21.433697788701 L 352.051429084868,22.0054824029639 L 351.621481692509,22.4822333378648 L 351.08279218056,22.8314608050578 L 350.472071349036,23.0293655297802 L 349.830938813339,23.0624606320946 L 349.203086696258,22.9284907354707 L 348.631302081995,22.6365856669679 L 348.154551147094,22.2066382746083 L 347.805323679901,21.6679487626598 L 347.607418955179,21.0572279311353 L 347.574323852864,20.416095395439 L 347.708293749488,19.788243278357 M 294.999867938626,53.4089008822951 L 266.590994608032,53.4089008822951 L 285.974139215369,35.0000822544913 L 313.408771348064,35.0000822544914 L 294.999867938626,53.4089008822951 M 266.590994608032,56.5911675346193 L 294.999867938626,56.5911675346192 L 313.408771348064,75.0000709440622 L 285.974139215369,75.0000709440622 L 266.590994608032,56.5911675346193 M 298.774055760736,54.9131935883196 L 316.2741484627,37.0181637955059 L 333.77424116467,54.9131935883195 L 316.274148462701,72.80828393946 L 298.774055760736,54.9131935883196 M 173.953468868578,190.000058108031 L 172.043919890738,189.869124574073 L 170.17011415155,189.47877480672 L 168.367125842094,188.836315434424 L 166.668703581641,187.953772112946 L 165.106638705681,186.847664427241 L 163.710170190695,185.538696675256 L 162.505437354385,184.051370321626 L 161.51499057581,182.413525375394 L 160.757369193836,180.655819276337 L 160.246754484867,178.811153044178 L 159.992704215483,176.91405543211 L 159.999973738656,175.000036612161 L 159.999973738656,45.0001127339631 L 160.117086760292,43.1269154900659 L 160.466601869568,41.282892018749 L 161.043075606463,39.4967617309337 L 161.837529784747,37.7963423905983 L 162.837591321128,36.2081168720301 L 164.027684937603,34.7568207070778 L 165.389275735816,33.4650568460714 L 166.90115786549,32.3529436322506 L 168.539784791114,31.4378014722567 L 170.279636013219,30.7338830825831 L 172.093614532787,30.2521515132147 L 173.953468868578,30.0001094055814 L 227.045520277162,30.0001094055815 L 280.0285934737,82.4345727374457 L 335.000038303133,82.4345969607713 L 335.000038303133,175.000036612161 L 334.926326501015,176.888089216137 L 334.610090305103,178.750928643877 L 334.056595965218,180.557533216235 L 333.275060767384,182.277817727499 L 332.278499539283,183.883134451326 L 331.083507915625,185.346750208462 L 329.709985972704,186.64429155172 L 328.180806834409,187.754150654557 L 326.521435768374,188.657845144058 L 324.759506115417,189.340325886043 L 322.924359114273,189.790227596803 L 321.046555284874,190.000058108031 L 173.953468868578,190.000058108031 M 62.0,54.0 L 62.0,41.5 L 73.0,41.5 L 73.0,54.0 L 62.0,54.0 " />
</svg>
