<?xml version="1.0" standalone="no"?>
<!DOCTYPE svg PUBLIC "-//W3C//DTD SVG 1.1//EN" "http://www.w3.org/Graphics/SVG/1.1/DTD/svg11.dtd">
<svg width="370.000011559524mm" height="219.999979794833mm"
 viewBox="0 0 370.000011559524 219.999979794833"
 xmlns="http://www.w3.org/2000/svg" version="1.1"
 xmlns:xlink="http://www.w3.org/1999/xlink">
<desc>Output from Flights of Ideas SVG Sketchup Plugin</desc>

<g id="text_annotations" font-size="10" stroke="rgb(255,0,0)" stroke-width="1">
</g>
  <path id="face0-cut"
 style="fill:none;stroke:rgb(0,0,255);stroke-width:1;stroke-miterlimit:4;stroke-dasharray:none;stroke-linejoin:round;stroke-linecap:round"
        d="M 360.000011552666,10.0 L 10.0,10.0 L 10.0000000068573,209.999979794833 L 360.000011559524,209.999979782833 L 360.000011552666,10.0 M 30.9905926621789,201.734176835702 L 30.3480876518061,201.924151760525 L 29.6783063401309,201.9413609135 L 29.0268932166779,201.784631519292 L 28.4382410092994,201.464644427108 L 27.9524653931346,201.003206228478 L 27.6026711736428,200.431763174075 L 27.4126962488201,199.789258163702 L 27.3954870958448,199.119476852027 L 27.5522164900528,198.468063728574 L 27.8722035822362,197.879411521195 L 28.3336417808665,197.393635905031 L 28.9050848352696,197.043841685539 L 29.5475898456426,196.853866760716 L 30.2173711573178,196.836657607741 L 30.8687842807708,196.993387001949 L 31.4574364881491,197.313374094132 L 31.943212104314,197.774812292762 L 32.2930063238059,198.346255347166 L 32.4829812486284,198.988760357538 L 32.5001904016037,199.658541669214 L 32.3434610073958,200.309954792667 L 32.0234739152123,200.898607000045 L 31.5620357165821,201.38438261621 L 30.9905926621789,201.734176835702 M 27.9938783139216,21.2965012747158 L 27.6364846807412,20.7349619690497 L 27.4366060071808,20.1000563723661 L 27.4078636945283,19.435052251847 L 27.552216483892,18.7852685393345 L 27.8598269712312,18.1949869210164 L 28.3097320101839,17.7044341136977 L 28.8712713158487,17.3470404805156 L 29.5061769125324,17.147161806956 L 30.1711810330518,17.1184194943045 L 30.820964745565,17.2627722836671 L 31.4112463638824,17.5703827710049 L 31.9017991712023,18.0202878099598 L 32.2591928043825,18.5818271156238 L 32.459071477943,19.216732712309 L 32.4878137905955,19.881736832829 L 32.3434610012317,20.5315205453401 L 32.0358505138927,21.121802163657 L 31.58594547494,21.6123549709797 L 31.0244061692751,21.9697486041572 L 30.3895005725914,22.1696272777197 L 29.724496452072,22.1983695903729 L 29.0747127395588,22.0540168010082 L 28.4844311212414,21.7464063136692 L 27.9938783139216,21.2965012747158 M 352.343334153732,20.5315170952628 L 352.038385819546,21.1015845310297 L 351.596284038502,21.5733009533035 L 351.047157316372,21.9145196674546 L 350.428427731792,22.1019871820042 L 349.782260683455,22.1229278956404 L 349.152691387861,21.975914733335 L 348.582623952094,21.6709663991485 L 348.110907529821,21.2288646181047 L 347.76968881567,20.679737895974 L 347.58222130112,20.0610083113948 L 347.561280587484,19.4148412630571 L 347.708293749789,18.7852719674638 L 348.013242083976,18.2152045316969 L 348.455343865019,17.743488109423 L 349.00447058715,17.4022693952719 L 349.623200171729,17.2148018807224 L 350.269367220067,17.1938611670862 L 350.89893651566,17.3408743293915 L 351.469003951427,17.645822663578 L 351.940720373701,18.0879244446218 L 352.281939087852,18.6370511667526 L 352.469406602402,19.2557807513318 L 352.490347316038,19.9019477996694 L 352.343334153732,20.5315170952628 M 348.000198824532,200.78352111915 L 347.70829375601,200.211736504897 L 347.574323859364,199.58388438782 L 347.607418961657,198.942751852123 L 347.805323686358,198.332031020591 L 348.154551153533,197.793341508631 L 348.631302088419,197.363394116255 L 349.203086702672,197.071489047732 L 349.830938819749,196.937519151087 L 350.472071355446,196.970614253379 L 351.082792186978,197.168518978081 L 351.621481698938,197.517746445256 L 352.051429091314,197.994497380142 L 352.343334159837,198.566281994395 L 352.477304056482,199.194134111472 L 352.44420895419,199.835266647169 L 352.246304229488,200.445987478701 L 351.897076762314,200.984676990661 L 351.420325827428,201.414624383037 L 350.848541213175,201.70652945156 L 350.220689096097,201.840499348205 L 349.5795565604,201.807404245912 L 348.968835728869,201.609499521211 L 348.430146216908,201.260272054036 L 348.000198824532,200.78352111915 M 266.590994613401,166.591078903741 L 294.999867943995,166.591078902767 L 313.408771354064,184.999897529939 L 285.974139221369,184.99989753088 L 266.590994613401,166.591078903741 M 294.999867943886,163.408812250442 L 266.590994613292,163.408812251416 L 285.974139219998,144.999908841309 L 313.408771352693,144.999908840368 L 294.999867943886,163.408812250442 M 316.274148468631,182.981815988826 L 298.774055766053,165.086786196613 L 316.274148467404,147.191695844872 L 333.774241169988,165.086786195413 L 316.274148468631,182.981815988826 M 172.043919891428,30.1308552152041 L 173.953468869264,29.9999216811811 L 321.04655528556,29.9999216761378 L 322.924359114966,30.2097521873018 L 324.759506116125,30.6596538979983 L 326.521435769105,31.3421346399228 L 328.180806835172,32.2458291293664 L 329.709985973505,33.3556882321517 L 331.08350791647,34.653229575363 L 332.278499540178,36.1168453324584 L 333.275060768334,37.7221620562499 L 334.056595966227,39.4424465674875 L 334.610090306174,41.2490511398264 L 334.926326502151,43.111890567556 L 335.000038304333,44.9999431715288 L 335.000038307507,137.565382822919 L 280.028593478074,137.565407048129 L 227.045520283333,189.99987038181 L 173.95346887475,189.99987038363 L 172.09361453895,189.747828276061 L 170.279636019366,189.266096706755 L 168.539784797236,188.562178317141 L 166.90115787158,187.647036157203 L 165.389275741869,186.534922943434 L 164.027684943612,185.243159082474 L 162.837591327087,183.791862917563 L 161.837529790651,182.203637399029 L 161.043075612309,180.503218058721 L 160.466601875353,178.717087770925 L 160.117086766013,176.87306429962 L 159.999973744313,174.999867055727 L 159.999973739856,44.9999431775288 L 159.992704216617,43.0859243575803 L 160.246754485936,41.1888267455042 L 160.757369194842,39.3441605133273 L 161.514990576756,37.5864544142447 L 162.505437355275,35.9486094679788 L 163.710170191533,34.4612831143073 L 165.106638706475,33.1523153622746 L 166.668703582397,32.0462076765152 L 168.36712584282,31.1636643549797 L 170.170114152253,30.5212049826217 L 172.043919891428,30.1308552152041 "
  />
</svg>
