%
M48
M72
T01C0.0630
T02C0.0866
%
T01
X1164Y3133
X3133Y1164
X5101Y1164
X7070Y1164
X11991Y1164
X13960Y1164
X15928Y1164
X19865Y1164
X21834Y1164
X23802Y1164
X28723Y1164
X30692Y1164
X32660Y1164
X34629Y3133
X34629Y5101
X34629Y7070
X34629Y11991
X34629Y13960
X34629Y15928
X34629Y19865
X34629Y21834
X34629Y23802
X34629Y28723
X34629Y30692
X34629Y32660
X32660Y34629
X30692Y34629
X28723Y34629
X23802Y34629
X21834Y34629
X19865Y34629
X15928Y34629
X13960Y34629
X11991Y34629
X7070Y34629
X5101Y34629
X3133Y34629
X1164Y32660
X1164Y30692
X1164Y28723
X1164Y23802
X1164Y21834
X1164Y19865
X1164Y15928
X1164Y13960
X1164Y11991
X1164Y7070
X1164Y5101
T02
X1164Y1164
X1164Y9038
X9038Y1164
X17897Y1164
X26755Y1164
X34629Y1164
X34629Y9038
X34629Y17897
X34629Y26755
X34629Y34629
X26755Y34629
X17897Y34629
X9038Y34629
X1164Y34629
X1164Y26755
X1164Y17897
M30
