999
Inkscape export via Big Blue Saws DXF Export" (http://www.bigbluesaw.com/saw/big-blue-saw-blog/general-updates/big-blue-saws-dxf-export-for-inkscape.html)
  0
SECTION
  2
HEADER
  9
$ACADVER
  1
AC1014
  9
$HANDSEED
  5
FFFF
  0
$INSUNITS
 70
 1
 9
ENDSEC
  0
SECTION
  2
TABLES
  0
TABLE
  2
VPORT
  5
8
330
0
100
AcDbSymbolTable
 70
     4
  0
VPORT
  5
2E
330
8
100
AcDbSymbolTableRecord
100
AcDbViewportTableRecord
  2
*ACTIVE
 70
     0
 10
0.0
 20
0.0
 11
1.0
 21
1.0
 12
4.25
 22
5.5
 13
0.0
 23
0.0
 14
10.0
 24
10.0
 15
10.0
 25
10.0
 16
0.0
 26
0.0
 36
1.0
 17
0.0
 27
0.0
 37
0.0
 40
11
 41
1.24
 42
50.0
 43
0.0
 44
0.0
 50
0.0
 51
0.0
 71
     0
 72
   100
 73
     1
 74
     3
 75
     0
 76
     0
 77
     0
 78
     0
  0
ENDTAB
  0
TABLE
  2
LTYPE
  5
5
330
0
100
AcDbSymbolTable
 70
     1
  0
LTYPE
  5
14
330
5
100
AcDbSymbolTableRecord
100
AcDbLinetypeTableRecord
  2
BYBLOCK
 70
     0
  3

 72
    65
 73
     0
 40
0.0
  0
LTYPE
  5
15
330
5
100
AcDbSymbolTableRecord
100
AcDbLinetypeTableRecord
  2
BYLAYER
 70
     0
  3

 72
    65
 73
     0
 40
0.0
  0
LTYPE
  5
16
330
5
100
AcDbSymbolTableRecord
100
AcDbLinetypeTableRecord
  2
CONTINUOUS
 70
     0
  3
Solid line
 72
    65
 73
     0
 40
0.0
  0
ENDTAB
  0
TABLE
  2
STYLE
  5
3
330
0
100
AcDbSymbolTable
 70
     1
  0
STYLE
  5
11
330
3
100
AcDbSymbolTableRecord
100
AcDbTextStyleTableRecord
  2
STANDARD
 70
     0
 40
0.0
 41
1.0
 50
0.0
 71
     0
 42
2.5
  3
txt
  4

  0
ENDTAB
  0
TABLE
  2
VIEW
  5
6
330
0
100
AcDbSymbolTable
 70
     0
  0
ENDTAB
  0
TABLE
  2
UCS
  5
7
330
0
100
AcDbSymbolTable
 70
     0
  0
ENDTAB
  0
TABLE
  2
APPID
  5
9
330
0
100
AcDbSymbolTable
 70
     2
  0
APPID
  5
12
330
9
100
AcDbSymbolTableRecord
100
AcDbRegAppTableRecord
  2
ACAD
 70
     0
  0
ENDTAB
  0
TABLE
  2
DIMSTYLE
  5
A
330
0
100
AcDbSymbolTable
 70
     1
  0
DIMSTYLE
105
27
330
A
100
AcDbSymbolTableRecord
100
AcDbDimStyleTableRecord
  2
ISO-25
 70
     0
  3

  4

  5

  6

  7

 40
1.0
 41
2.5
 42
0.625
 43
3.75
 44
1.25
 45
0.0
 46
0.0
 47
0.0
 48
0.0
140
2.5
141
2.5
142
0.0
143
0.03937007874016
144
1.0
145
0.0
146
1.0
147
0.625
 71
     0
 72
     0
 73
     0
 74
     0
 75
     0
 76
     0
 77
     1
 78
     8
170
     0
171
     3
172
     1
173
     0
174
     0
175
     0
176
     0
177
     0
178
     0
270
     2
271
     2
272
     2
273
     2
274
     3
340
11
275
     0
280
     0
281
     0
282
     0
283
     0
284
     8
285
     0
286
     0
287
     3
288
     0
  0
ENDTAB
  0
TABLE
  2
BLOCK_RECORD
  5
1
330
0
100
AcDbSymbolTable
 70
     1
  0
BLOCK_RECORD
  5
1F
330
1
100
AcDbSymbolTableRecord
100
AcDbBlockTableRecord
  2
*MODEL_SPACE
  0
BLOCK_RECORD
  5
1B
330
1
100
AcDbSymbolTableRecord
100
AcDbBlockTableRecord
  2
*PAPER_SPACE
  0
ENDTAB
0
TABLE
2
LAYER
5
2
330
0
100
AcDbSymbolTable
70
1
0
LAYER
5
10
330
2
100
AcDbSymbolTableRecord
100
AcDbLayerTableRecord
2
Default
70
0
62
7
6
CONTINUOUS
0
ENDTAB
0
ENDSEC
  0
SECTION
  2
BLOCKS
  0
BLOCK
  5
20
330
1F
100
AcDbEntity
  8
0
100
AcDbBlockBegin
  2
*MODEL_SPACE
 70
     0
 10
0.0
 20
0.0
 30
0.0
  3
*MODEL_SPACE
  1

  0
ENDBLK
  5
21
330
1F
100
AcDbEntity
  8
0
100
AcDbBlockEnd
  0
BLOCK
  5
1C
330
1B
100
AcDbEntity
 67
     1
  8
0
100
AcDbBlockBegin
  2
*PAPER_SPACE
  1

  0
ENDBLK
  5
1D
330
1B
100
AcDbEntity
 67
     1
  8
0
100
AcDbBlockEnd
  0
ENDSEC
  0
SECTION
  2
ENTITIES
0
LINE
8
Default
62
5
5
100
100
AcDbEntity
100
AcDbLine
10
1.610065
20
8.944006
30
0.0
11
0.111111
21
8.944006
31
0.0
0
LINE
8
Default
62
5
5
101
100
AcDbEntity
100
AcDbLine
10
0.111111
20
8.944006
30
0.0
11
0.111111
21
6.610673
31
0.0
0
LINE
8
Default
62
5
5
102
100
AcDbEntity
100
AcDbLine
10
0.111111
20
6.610673
30
0.0
11
1.484115
21
6.610673
31
0.0
0
LINE
8
Default
62
5
5
103
100
AcDbEntity
100
AcDbLine
10
1.484115
20
6.610673
30
0.0
11
1.484115
21
7.327695
31
0.0
0
LINE
8
Default
62
5
5
104
100
AcDbEntity
100
AcDbLine
10
1.484115
20
7.327695
30
0.0
11
1.610065
21
7.549917
31
0.0
0
LINE
8
Default
62
5
5
105
100
AcDbEntity
100
AcDbLine
10
1.610065
20
7.549917
30
0.0
11
1.610065
21
8.944006
31
0.0
0
LINE
8
Default
62
5
5
106
100
AcDbEntity
100
AcDbLine
10
0.834763
20
7.155473
30
0.0
11
1.156986
21
7.155473
31
0.0
0
LINE
8
Default
62
5
5
107
100
AcDbEntity
100
AcDbLine
10
1.156986
20
7.155473
30
0.0
11
1.156986
21
6.911029
31
0.0
0
LINE
8
Default
62
5
5
108
100
AcDbEntity
100
AcDbLine
10
1.156986
20
6.911029
30
0.0
11
0.834763
21
6.911029
31
0.0
0
LINE
8
Default
62
5
5
109
100
AcDbEntity
100
AcDbLine
10
0.834763
20
6.911029
30
0.0
11
0.834763
21
7.155473
31
0.0
0
LINE
8
Default
62
5
5
10a
100
AcDbEntity
100
AcDbLine
10
0.658698
20
7.508806
30
0.0
11
1.342031
21
7.508806
31
0.0
0
LINE
8
Default
62
5
5
10b
100
AcDbEntity
100
AcDbLine
10
1.342031
20
7.508806
30
0.0
11
1.342031
21
7.438806
31
0.0
0
LINE
8
Default
62
5
5
10c
100
AcDbEntity
100
AcDbLine
10
1.342031
20
7.438806
30
0.0
11
0.658698
21
7.438806
31
0.0
0
LINE
8
Default
62
5
5
10d
100
AcDbEntity
100
AcDbLine
10
0.658698
20
7.438806
30
0.0
11
0.658698
21
7.508806
31
0.0
0
LINE
8
Default
62
5
5
10e
100
AcDbEntity
100
AcDbLine
10
0.850040
20
6.752681
30
0.0
11
0.843043
21
6.751884
31
0.0
0
LINE
8
Default
62
5
5
10f
100
AcDbEntity
100
AcDbLine
10
0.843043
20
6.751884
30
0.0
11
0.836079
21
6.752925
31
0.0
0
LINE
8
Default
62
5
5
110
100
AcDbEntity
100
AcDbLine
10
0.836079
20
6.752925
30
0.0
11
0.829622
21
6.755734
31
0.0
0
LINE
8
Default
62
5
5
111
100
AcDbEntity
100
AcDbLine
10
0.829622
20
6.755734
30
0.0
11
0.824111
21
6.760118
31
0.0
0
LINE
8
Default
62
5
5
112
100
AcDbEntity
100
AcDbLine
10
0.824111
20
6.760118
30
0.0
11
0.819923
21
6.765779
31
0.0
0
LINE
8
Default
62
5
5
113
100
AcDbEntity
100
AcDbLine
10
0.819923
20
6.765779
30
0.0
11
0.817343
21
6.772330
31
0.0
0
LINE
8
Default
62
5
5
114
100
AcDbEntity
100
AcDbLine
10
0.817343
20
6.772330
30
0.0
11
0.816546
21
6.779327
31
0.0
0
LINE
8
Default
62
5
5
115
100
AcDbEntity
100
AcDbLine
10
0.816546
20
6.779327
30
0.0
11
0.817587
21
6.786291
31
0.0
0
LINE
8
Default
62
5
5
116
100
AcDbEntity
100
AcDbLine
10
0.817587
20
6.786291
30
0.0
11
0.820396
21
6.792749
31
0.0
0
LINE
8
Default
62
5
5
117
100
AcDbEntity
100
AcDbLine
10
0.820396
20
6.792749
30
0.0
11
0.824780
21
6.798259
31
0.0
0
LINE
8
Default
62
5
5
118
100
AcDbEntity
100
AcDbLine
10
0.824780
20
6.798259
30
0.0
11
0.830441
21
6.802447
31
0.0
0
LINE
8
Default
62
5
5
119
100
AcDbEntity
100
AcDbLine
10
0.830441
20
6.802447
30
0.0
11
0.836992
21
6.805027
31
0.0
0
LINE
8
Default
62
5
5
11a
100
AcDbEntity
100
AcDbLine
10
0.836992
20
6.805027
30
0.0
11
0.843989
21
6.805824
31
0.0
0
LINE
8
Default
62
5
5
11b
100
AcDbEntity
100
AcDbLine
10
0.843989
20
6.805824
30
0.0
11
0.850953
21
6.804783
31
0.0
0
LINE
8
Default
62
5
5
11c
100
AcDbEntity
100
AcDbLine
10
0.850953
20
6.804783
30
0.0
11
0.857411
21
6.801974
31
0.0
0
LINE
8
Default
62
5
5
11d
100
AcDbEntity
100
AcDbLine
10
0.857411
20
6.801974
30
0.0
11
0.862921
21
6.797590
31
0.0
0
LINE
8
Default
62
5
5
11e
100
AcDbEntity
100
AcDbLine
10
0.862921
20
6.797590
30
0.0
11
0.867109
21
6.791930
31
0.0
0
LINE
8
Default
62
5
5
11f
100
AcDbEntity
100
AcDbLine
10
0.867109
20
6.791930
30
0.0
11
0.869690
21
6.785378
31
0.0
0
LINE
8
Default
62
5
5
120
100
AcDbEntity
100
AcDbLine
10
0.869690
20
6.785378
30
0.0
11
0.870486
21
6.778381
31
0.0
0
LINE
8
Default
62
5
5
121
100
AcDbEntity
100
AcDbLine
10
0.870486
20
6.778381
30
0.0
11
0.869445
21
6.771417
31
0.0
0
LINE
8
Default
62
5
5
122
100
AcDbEntity
100
AcDbLine
10
0.869445
20
6.771417
30
0.0
11
0.866636
21
6.764960
31
0.0
0
LINE
8
Default
62
5
5
123
100
AcDbEntity
100
AcDbLine
10
0.866636
20
6.764960
30
0.0
11
0.862252
21
6.759449
31
0.0
0
LINE
8
Default
62
5
5
124
100
AcDbEntity
100
AcDbLine
10
0.862252
20
6.759449
30
0.0
11
0.856592
21
6.755261
31
0.0
0
LINE
8
Default
62
5
5
125
100
AcDbEntity
100
AcDbLine
10
0.856592
20
6.755261
30
0.0
11
0.850040
21
6.752681
31
0.0
0
LINE
8
Default
62
5
5
126
100
AcDbEntity
100
AcDbLine
10
0.360663
20
6.773392
30
0.0
11
0.358337
21
6.766647
31
0.0
0
LINE
8
Default
62
5
5
127
100
AcDbEntity
100
AcDbLine
10
0.358337
20
6.766647
30
0.0
11
0.354344
21
6.760735
31
0.0
0
LINE
8
Default
62
5
5
128
100
AcDbEntity
100
AcDbLine
10
0.354344
20
6.760735
30
0.0
11
0.348958
21
6.756057
31
0.0
0
LINE
8
Default
62
5
5
129
100
AcDbEntity
100
AcDbLine
10
0.348958
20
6.756057
30
0.0
11
0.342544
21
6.752933
31
0.0
0
LINE
8
Default
62
5
5
12a
100
AcDbEntity
100
AcDbLine
10
0.342544
20
6.752933
30
0.0
11
0.335540
21
6.751575
31
0.0
0
LINE
8
Default
62
5
5
12b
100
AcDbEntity
100
AcDbLine
10
0.335540
20
6.751575
30
0.0
11
0.328423
21
6.752076
31
0.0
0
LINE
8
Default
62
5
5
12c
100
AcDbEntity
100
AcDbLine
10
0.328423
20
6.752076
30
0.0
11
0.321678
21
6.754403
31
0.0
0
LINE
8
Default
62
5
5
12d
100
AcDbEntity
100
AcDbLine
10
0.321678
20
6.754403
30
0.0
11
0.315766
21
6.758395
31
0.0
0
LINE
8
Default
62
5
5
12e
100
AcDbEntity
100
AcDbLine
10
0.315766
20
6.758395
30
0.0
11
0.311088
21
6.763782
31
0.0
0
LINE
8
Default
62
5
5
12f
100
AcDbEntity
100
AcDbLine
10
0.311088
20
6.763782
30
0.0
11
0.307964
21
6.770196
31
0.0
0
LINE
8
Default
62
5
5
130
100
AcDbEntity
100
AcDbLine
10
0.307964
20
6.770196
30
0.0
11
0.306606
21
6.777200
31
0.0
0
LINE
8
Default
62
5
5
131
100
AcDbEntity
100
AcDbLine
10
0.306606
20
6.777200
30
0.0
11
0.307107
21
6.784316
31
0.0
0
LINE
8
Default
62
5
5
132
100
AcDbEntity
100
AcDbLine
10
0.307107
20
6.784316
30
0.0
11
0.309434
21
6.791061
31
0.0
0
LINE
8
Default
62
5
5
133
100
AcDbEntity
100
AcDbLine
10
0.309434
20
6.791061
30
0.0
11
0.313426
21
6.796973
31
0.0
0
LINE
8
Default
62
5
5
134
100
AcDbEntity
100
AcDbLine
10
0.313426
20
6.796973
30
0.0
11
0.318813
21
6.801651
31
0.0
0
LINE
8
Default
62
5
5
135
100
AcDbEntity
100
AcDbLine
10
0.318813
20
6.801651
30
0.0
11
0.325227
21
6.804775
31
0.0
0
LINE
8
Default
62
5
5
136
100
AcDbEntity
100
AcDbLine
10
0.325227
20
6.804775
30
0.0
11
0.332231
21
6.806133
31
0.0
0
LINE
8
Default
62
5
5
137
100
AcDbEntity
100
AcDbLine
10
0.332231
20
6.806133
30
0.0
11
0.339347
21
6.805632
31
0.0
0
LINE
8
Default
62
5
5
138
100
AcDbEntity
100
AcDbLine
10
0.339347
20
6.805632
30
0.0
11
0.346092
21
6.803306
31
0.0
0
LINE
8
Default
62
5
5
139
100
AcDbEntity
100
AcDbLine
10
0.346092
20
6.803306
30
0.0
11
0.352005
21
6.799313
31
0.0
0
LINE
8
Default
62
5
5
13a
100
AcDbEntity
100
AcDbLine
10
0.352005
20
6.799313
30
0.0
11
0.356682
21
6.793926
31
0.0
0
LINE
8
Default
62
5
5
13b
100
AcDbEntity
100
AcDbLine
10
0.356682
20
6.793926
30
0.0
11
0.359807
21
6.787512
31
0.0
0
LINE
8
Default
62
5
5
13c
100
AcDbEntity
100
AcDbLine
10
0.359807
20
6.787512
30
0.0
11
0.361164
21
6.780509
31
0.0
0
LINE
8
Default
62
5
5
13d
100
AcDbEntity
100
AcDbLine
10
0.361164
20
6.780509
30
0.0
11
0.360663
21
6.773392
31
0.0
0
LINE
8
Default
62
5
5
13e
100
AcDbEntity
100
AcDbLine
10
1.347139
20
7.547632
30
0.0
11
1.346230
21
7.540726
31
0.0
0
LINE
8
Default
62
5
5
13f
100
AcDbEntity
100
AcDbLine
10
1.346230
20
7.540726
30
0.0
11
1.343564
21
7.534291
31
0.0
0
LINE
8
Default
62
5
5
140
100
AcDbEntity
100
AcDbLine
10
1.343564
20
7.534291
30
0.0
11
1.339324
21
7.528765
31
0.0
0
LINE
8
Default
62
5
5
141
100
AcDbEntity
100
AcDbLine
10
1.339324
20
7.528765
30
0.0
11
1.333798
21
7.524525
31
0.0
0
LINE
8
Default
62
5
5
142
100
AcDbEntity
100
AcDbLine
10
1.333798
20
7.524525
30
0.0
11
1.327363
21
7.521859
31
0.0
0
LINE
8
Default
62
5
5
143
100
AcDbEntity
100
AcDbLine
10
1.327363
20
7.521859
30
0.0
11
1.320457
21
7.520950
31
0.0
0
LINE
8
Default
62
5
5
144
100
AcDbEntity
100
AcDbLine
10
1.320457
20
7.520950
30
0.0
11
1.313551
21
7.521859
31
0.0
0
LINE
8
Default
62
5
5
145
100
AcDbEntity
100
AcDbLine
10
1.313551
20
7.521859
30
0.0
11
1.307116
21
7.524525
31
0.0
0
LINE
8
Default
62
5
5
146
100
AcDbEntity
100
AcDbLine
10
1.307116
20
7.524525
30
0.0
11
1.301590
21
7.528765
31
0.0
0
LINE
8
Default
62
5
5
147
100
AcDbEntity
100
AcDbLine
10
1.301590
20
7.528765
30
0.0
11
1.297350
21
7.534291
31
0.0
0
LINE
8
Default
62
5
5
148
100
AcDbEntity
100
AcDbLine
10
1.297350
20
7.534291
30
0.0
11
1.294684
21
7.540726
31
0.0
0
LINE
8
Default
62
5
5
149
100
AcDbEntity
100
AcDbLine
10
1.294684
20
7.540726
30
0.0
11
1.293775
21
7.547632
31
0.0
0
LINE
8
Default
62
5
5
14a
100
AcDbEntity
100
AcDbLine
10
1.293775
20
7.547632
30
0.0
11
1.294684
21
7.554538
31
0.0
0
LINE
8
Default
62
5
5
14b
100
AcDbEntity
100
AcDbLine
10
1.294684
20
7.554538
30
0.0
11
1.297350
21
7.560973
31
0.0
0
LINE
8
Default
62
5
5
14c
100
AcDbEntity
100
AcDbLine
10
1.297350
20
7.560973
30
0.0
11
1.301590
21
7.566499
31
0.0
0
LINE
8
Default
62
5
5
14d
100
AcDbEntity
100
AcDbLine
10
1.301590
20
7.566499
30
0.0
11
1.307116
21
7.570739
31
0.0
0
LINE
8
Default
62
5
5
14e
100
AcDbEntity
100
AcDbLine
10
1.307116
20
7.570739
30
0.0
11
1.313551
21
7.573405
31
0.0
0
LINE
8
Default
62
5
5
14f
100
AcDbEntity
100
AcDbLine
10
1.313551
20
7.573405
30
0.0
11
1.320457
21
7.574314
31
0.0
0
LINE
8
Default
62
5
5
150
100
AcDbEntity
100
AcDbLine
10
1.320457
20
7.574314
30
0.0
11
1.327363
21
7.573405
31
0.0
0
LINE
8
Default
62
5
5
151
100
AcDbEntity
100
AcDbLine
10
1.327363
20
7.573405
30
0.0
11
1.333798
21
7.570739
31
0.0
0
LINE
8
Default
62
5
5
152
100
AcDbEntity
100
AcDbLine
10
1.333798
20
7.570739
30
0.0
11
1.339324
21
7.566499
31
0.0
0
LINE
8
Default
62
5
5
153
100
AcDbEntity
100
AcDbLine
10
1.339324
20
7.566499
30
0.0
11
1.343564
21
7.560973
31
0.0
0
LINE
8
Default
62
5
5
154
100
AcDbEntity
100
AcDbLine
10
1.343564
20
7.560973
30
0.0
11
1.346230
21
7.554538
31
0.0
0
LINE
8
Default
62
5
5
155
100
AcDbEntity
100
AcDbLine
10
1.346230
20
7.554538
30
0.0
11
1.347139
21
7.547632
31
0.0
0
LINE
8
Default
62
5
5
156
100
AcDbEntity
100
AcDbLine
10
0.701403
20
7.547632
30
0.0
11
0.700535
21
7.541036
31
0.0
0
LINE
8
Default
62
5
5
157
100
AcDbEntity
100
AcDbLine
10
0.700535
20
7.541036
30
0.0
11
0.697989
21
7.534889
31
0.0
0
LINE
8
Default
62
5
5
158
100
AcDbEntity
100
AcDbLine
10
0.697989
20
7.534889
30
0.0
11
0.693938
21
7.529610
31
0.0
0
LINE
8
Default
62
5
5
159
100
AcDbEntity
100
AcDbLine
10
0.693938
20
7.529610
30
0.0
11
0.688660
21
7.525560
31
0.0
0
LINE
8
Default
62
5
5
15a
100
AcDbEntity
100
AcDbLine
10
0.688660
20
7.525560
30
0.0
11
0.682513
21
7.523014
31
0.0
0
LINE
8
Default
62
5
5
15b
100
AcDbEntity
100
AcDbLine
10
0.682513
20
7.523014
30
0.0
11
0.675917
21
7.522146
31
0.0
0
LINE
8
Default
62
5
5
15c
100
AcDbEntity
100
AcDbLine
10
0.675917
20
7.522146
30
0.0
11
0.669320
21
7.523014
31
0.0
0
LINE
8
Default
62
5
5
15d
100
AcDbEntity
100
AcDbLine
10
0.669320
20
7.523014
30
0.0
11
0.663173
21
7.525560
31
0.0
0
LINE
8
Default
62
5
5
15e
100
AcDbEntity
100
AcDbLine
10
0.663173
20
7.525560
30
0.0
11
0.657895
21
7.529610
31
0.0
0
LINE
8
Default
62
5
5
15f
100
AcDbEntity
100
AcDbLine
10
0.657895
20
7.529610
30
0.0
11
0.653845
21
7.534889
31
0.0
0
LINE
8
Default
62
5
5
160
100
AcDbEntity
100
AcDbLine
10
0.653845
20
7.534889
30
0.0
11
0.651299
21
7.541036
31
0.0
0
LINE
8
Default
62
5
5
161
100
AcDbEntity
100
AcDbLine
10
0.651299
20
7.541036
30
0.0
11
0.650430
21
7.547632
31
0.0
0
LINE
8
Default
62
5
5
162
100
AcDbEntity
100
AcDbLine
10
0.650430
20
7.547632
30
0.0
11
0.651299
21
7.554229
31
0.0
0
LINE
8
Default
62
5
5
163
100
AcDbEntity
100
AcDbLine
10
0.651299
20
7.554229
30
0.0
11
0.653845
21
7.560375
31
0.0
0
LINE
8
Default
62
5
5
164
100
AcDbEntity
100
AcDbLine
10
0.653845
20
7.560375
30
0.0
11
0.657895
21
7.565654
31
0.0
0
LINE
8
Default
62
5
5
165
100
AcDbEntity
100
AcDbLine
10
0.657895
20
7.565654
30
0.0
11
0.663173
21
7.569704
31
0.0
0
LINE
8
Default
62
5
5
166
100
AcDbEntity
100
AcDbLine
10
0.663173
20
7.569704
30
0.0
11
0.669320
21
7.572250
31
0.0
0
LINE
8
Default
62
5
5
167
100
AcDbEntity
100
AcDbLine
10
0.669320
20
7.572250
30
0.0
11
0.675917
21
7.573119
31
0.0
0
LINE
8
Default
62
5
5
168
100
AcDbEntity
100
AcDbLine
10
0.675917
20
7.573119
30
0.0
11
0.682513
21
7.572250
31
0.0
0
LINE
8
Default
62
5
5
169
100
AcDbEntity
100
AcDbLine
10
0.682513
20
7.572250
30
0.0
11
0.688660
21
7.569704
31
0.0
0
LINE
8
Default
62
5
5
16a
100
AcDbEntity
100
AcDbLine
10
0.688660
20
7.569704
30
0.0
11
0.693938
21
7.565654
31
0.0
0
LINE
8
Default
62
5
5
16b
100
AcDbEntity
100
AcDbLine
10
0.693938
20
7.565654
30
0.0
11
0.697989
21
7.560375
31
0.0
0
LINE
8
Default
62
5
5
16c
100
AcDbEntity
100
AcDbLine
10
0.697989
20
7.560375
30
0.0
11
0.700535
21
7.554229
31
0.0
0
LINE
8
Default
62
5
5
16d
100
AcDbEntity
100
AcDbLine
10
0.700535
20
7.554229
30
0.0
11
0.701403
21
7.547632
31
0.0
0
LINE
8
Default
62
5
5
16e
100
AcDbEntity
100
AcDbLine
10
0.702695
20
8.472474
30
0.0
11
0.701782
21
8.465543
31
0.0
0
LINE
8
Default
62
5
5
16f
100
AcDbEntity
100
AcDbLine
10
0.701782
20
8.465543
30
0.0
11
0.699107
21
8.459085
31
0.0
0
LINE
8
Default
62
5
5
170
100
AcDbEntity
100
AcDbLine
10
0.699107
20
8.459085
30
0.0
11
0.694852
21
8.453539
31
0.0
0
LINE
8
Default
62
5
5
171
100
AcDbEntity
100
AcDbLine
10
0.694852
20
8.453539
30
0.0
11
0.689306
21
8.449283
31
0.0
0
LINE
8
Default
62
5
5
172
100
AcDbEntity
100
AcDbLine
10
0.689306
20
8.449283
30
0.0
11
0.682847
21
8.446608
31
0.0
0
LINE
8
Default
62
5
5
173
100
AcDbEntity
100
AcDbLine
10
0.682847
20
8.446608
30
0.0
11
0.675917
21
8.445696
31
0.0
0
LINE
8
Default
62
5
5
174
100
AcDbEntity
100
AcDbLine
10
0.675917
20
8.445696
30
0.0
11
0.668986
21
8.446608
31
0.0
0
LINE
8
Default
62
5
5
175
100
AcDbEntity
100
AcDbLine
10
0.668986
20
8.446608
30
0.0
11
0.662528
21
8.449283
31
0.0
0
LINE
8
Default
62
5
5
176
100
AcDbEntity
100
AcDbLine
10
0.662528
20
8.449283
30
0.0
11
0.656982
21
8.453539
31
0.0
0
LINE
8
Default
62
5
5
177
100
AcDbEntity
100
AcDbLine
10
0.656982
20
8.453539
30
0.0
11
0.652726
21
8.459085
31
0.0
0
LINE
8
Default
62
5
5
178
100
AcDbEntity
100
AcDbLine
10
0.652726
20
8.459085
30
0.0
11
0.650051
21
8.465543
31
0.0
0
LINE
8
Default
62
5
5
179
100
AcDbEntity
100
AcDbLine
10
0.650051
20
8.465543
30
0.0
11
0.649139
21
8.472474
31
0.0
0
LINE
8
Default
62
5
5
17a
100
AcDbEntity
100
AcDbLine
10
0.649139
20
8.472474
30
0.0
11
0.650051
21
8.479405
31
0.0
0
LINE
8
Default
62
5
5
17b
100
AcDbEntity
100
AcDbLine
10
0.650051
20
8.479405
30
0.0
11
0.652726
21
8.485863
31
0.0
0
LINE
8
Default
62
5
5
17c
100
AcDbEntity
100
AcDbLine
10
0.652726
20
8.485863
30
0.0
11
0.656982
21
8.491409
31
0.0
0
LINE
8
Default
62
5
5
17d
100
AcDbEntity
100
AcDbLine
10
0.656982
20
8.491409
30
0.0
11
0.662528
21
8.495664
31
0.0
0
LINE
8
Default
62
5
5
17e
100
AcDbEntity
100
AcDbLine
10
0.662528
20
8.495664
30
0.0
11
0.668986
21
8.498340
31
0.0
0
LINE
8
Default
62
5
5
17f
100
AcDbEntity
100
AcDbLine
10
0.668986
20
8.498340
30
0.0
11
0.675917
21
8.499252
31
0.0
0
LINE
8
Default
62
5
5
180
100
AcDbEntity
100
AcDbLine
10
0.675917
20
8.499252
30
0.0
11
0.682847
21
8.498340
31
0.0
0
LINE
8
Default
62
5
5
181
100
AcDbEntity
100
AcDbLine
10
0.682847
20
8.498340
30
0.0
11
0.689306
21
8.495664
31
0.0
0
LINE
8
Default
62
5
5
182
100
AcDbEntity
100
AcDbLine
10
0.689306
20
8.495664
30
0.0
11
0.694852
21
8.491409
31
0.0
0
LINE
8
Default
62
5
5
183
100
AcDbEntity
100
AcDbLine
10
0.694852
20
8.491409
30
0.0
11
0.699107
21
8.485863
31
0.0
0
LINE
8
Default
62
5
5
184
100
AcDbEntity
100
AcDbLine
10
0.699107
20
8.485863
30
0.0
11
0.701782
21
8.479405
31
0.0
0
LINE
8
Default
62
5
5
185
100
AcDbEntity
100
AcDbLine
10
0.701782
20
8.479405
30
0.0
11
0.702695
21
8.472474
31
0.0
0
LINE
8
Default
62
5
5
186
100
AcDbEntity
100
AcDbLine
10
1.327479
20
8.498679
30
0.0
11
1.334022
21
8.495969
31
0.0
0
LINE
8
Default
62
5
5
187
100
AcDbEntity
100
AcDbLine
10
1.334022
20
8.495969
30
0.0
11
1.339641
21
8.491658
31
0.0
0
LINE
8
Default
62
5
5
188
100
AcDbEntity
100
AcDbLine
10
1.339641
20
8.491658
30
0.0
11
1.343952
21
8.486039
31
0.0
0
LINE
8
Default
62
5
5
189
100
AcDbEntity
100
AcDbLine
10
1.343952
20
8.486039
30
0.0
11
1.346662
21
8.479496
31
0.0
0
LINE
8
Default
62
5
5
18a
100
AcDbEntity
100
AcDbLine
10
1.346662
20
8.479496
30
0.0
11
1.347587
21
8.472474
31
0.0
0
LINE
8
Default
62
5
5
18b
100
AcDbEntity
100
AcDbLine
10
1.347587
20
8.472474
30
0.0
11
1.346662
21
8.465452
31
0.0
0
LINE
8
Default
62
5
5
18c
100
AcDbEntity
100
AcDbLine
10
1.346662
20
8.465452
30
0.0
11
1.343952
21
8.458909
31
0.0
0
LINE
8
Default
62
5
5
18d
100
AcDbEntity
100
AcDbLine
10
1.343952
20
8.458909
30
0.0
11
1.339641
21
8.453290
31
0.0
0
LINE
8
Default
62
5
5
18e
100
AcDbEntity
100
AcDbLine
10
1.339641
20
8.453290
30
0.0
11
1.334022
21
8.448979
31
0.0
0
LINE
8
Default
62
5
5
18f
100
AcDbEntity
100
AcDbLine
10
1.334022
20
8.448979
30
0.0
11
1.327479
21
8.446269
31
0.0
0
LINE
8
Default
62
5
5
190
100
AcDbEntity
100
AcDbLine
10
1.327479
20
8.446269
30
0.0
11
1.320457
21
8.445344
31
0.0
0
LINE
8
Default
62
5
5
191
100
AcDbEntity
100
AcDbLine
10
1.320457
20
8.445344
30
0.0
11
1.313435
21
8.446269
31
0.0
0
LINE
8
Default
62
5
5
192
100
AcDbEntity
100
AcDbLine
10
1.313435
20
8.446269
30
0.0
11
1.306892
21
8.448979
31
0.0
0
LINE
8
Default
62
5
5
193
100
AcDbEntity
100
AcDbLine
10
1.306892
20
8.448979
30
0.0
11
1.301273
21
8.453290
31
0.0
0
LINE
8
Default
62
5
5
194
100
AcDbEntity
100
AcDbLine
10
1.301273
20
8.453290
30
0.0
11
1.296962
21
8.458909
31
0.0
0
LINE
8
Default
62
5
5
195
100
AcDbEntity
100
AcDbLine
10
1.296962
20
8.458909
30
0.0
11
1.294252
21
8.465452
31
0.0
0
LINE
8
Default
62
5
5
196
100
AcDbEntity
100
AcDbLine
10
1.294252
20
8.465452
30
0.0
11
1.293327
21
8.472474
31
0.0
0
LINE
8
Default
62
5
5
197
100
AcDbEntity
100
AcDbLine
10
1.293327
20
8.472474
30
0.0
11
1.294252
21
8.479496
31
0.0
0
LINE
8
Default
62
5
5
198
100
AcDbEntity
100
AcDbLine
10
1.294252
20
8.479496
30
0.0
11
1.296962
21
8.486039
31
0.0
0
LINE
8
Default
62
5
5
199
100
AcDbEntity
100
AcDbLine
10
1.296962
20
8.486039
30
0.0
11
1.301273
21
8.491658
31
0.0
0
LINE
8
Default
62
5
5
19a
100
AcDbEntity
100
AcDbLine
10
1.301273
20
8.491658
30
0.0
11
1.306892
21
8.495969
31
0.0
0
LINE
8
Default
62
5
5
19b
100
AcDbEntity
100
AcDbLine
10
1.306892
20
8.495969
30
0.0
11
1.313435
21
8.498679
31
0.0
0
LINE
8
Default
62
5
5
19c
100
AcDbEntity
100
AcDbLine
10
1.313435
20
8.498679
30
0.0
11
1.320457
21
8.499604
31
0.0
0
LINE
8
Default
62
5
5
19d
100
AcDbEntity
100
AcDbLine
10
1.320457
20
8.499604
30
0.0
11
1.327479
21
8.498679
31
0.0
0
LINE
8
Default
62
5
5
19e
100
AcDbEntity
100
AcDbLine
10
1.551387
20
8.783066
30
0.0
11
1.552287
21
8.776233
31
0.0
0
LINE
8
Default
62
5
5
19f
100
AcDbEntity
100
AcDbLine
10
1.552287
20
8.776233
30
0.0
11
1.551387
21
8.769401
31
0.0
0
LINE
8
Default
62
5
5
1a0
100
AcDbEntity
100
AcDbLine
10
1.551387
20
8.769401
30
0.0
11
1.548750
21
8.763033
31
0.0
0
LINE
8
Default
62
5
5
1a1
100
AcDbEntity
100
AcDbLine
10
1.548750
20
8.763033
30
0.0
11
1.544554
21
8.757565
31
0.0
0
LINE
8
Default
62
5
5
1a2
100
AcDbEntity
100
AcDbLine
10
1.544554
20
8.757565
30
0.0
11
1.539087
21
8.753370
31
0.0
0
LINE
8
Default
62
5
5
1a3
100
AcDbEntity
100
AcDbLine
10
1.539087
20
8.753370
30
0.0
11
1.532719
21
8.750732
31
0.0
0
LINE
8
Default
62
5
5
1a4
100
AcDbEntity
100
AcDbLine
10
1.532719
20
8.750732
30
0.0
11
1.525886
21
8.749833
31
0.0
0
LINE
8
Default
62
5
5
1a5
100
AcDbEntity
100
AcDbLine
10
1.525886
20
8.749833
30
0.0
11
1.519053
21
8.750732
31
0.0
0
LINE
8
Default
62
5
5
1a6
100
AcDbEntity
100
AcDbLine
10
1.519053
20
8.750732
30
0.0
11
1.512686
21
8.753370
31
0.0
0
LINE
8
Default
62
5
5
1a7
100
AcDbEntity
100
AcDbLine
10
1.512686
20
8.753370
30
0.0
11
1.507218
21
8.757565
31
0.0
0
LINE
8
Default
62
5
5
1a8
100
AcDbEntity
100
AcDbLine
10
1.507218
20
8.757565
30
0.0
11
1.503023
21
8.763033
31
0.0
0
LINE
8
Default
62
5
5
1a9
100
AcDbEntity
100
AcDbLine
10
1.503023
20
8.763033
30
0.0
11
1.500385
21
8.769401
31
0.0
0
LINE
8
Default
62
5
5
1aa
100
AcDbEntity
100
AcDbLine
10
1.500385
20
8.769401
30
0.0
11
1.499486
21
8.776233
31
0.0
0
LINE
8
Default
62
5
5
1ab
100
AcDbEntity
100
AcDbLine
10
1.499486
20
8.776233
30
0.0
11
1.500385
21
8.783066
31
0.0
0
LINE
8
Default
62
5
5
1ac
100
AcDbEntity
100
AcDbLine
10
1.500385
20
8.783066
30
0.0
11
1.503023
21
8.789434
31
0.0
0
LINE
8
Default
62
5
5
1ad
100
AcDbEntity
100
AcDbLine
10
1.503023
20
8.789434
30
0.0
11
1.507218
21
8.794902
31
0.0
0
LINE
8
Default
62
5
5
1ae
100
AcDbEntity
100
AcDbLine
10
1.507218
20
8.794902
30
0.0
11
1.512686
21
8.799097
31
0.0
0
LINE
8
Default
62
5
5
1af
100
AcDbEntity
100
AcDbLine
10
1.512686
20
8.799097
30
0.0
11
1.519053
21
8.801735
31
0.0
0
LINE
8
Default
62
5
5
1b0
100
AcDbEntity
100
AcDbLine
10
1.519053
20
8.801735
30
0.0
11
1.525886
21
8.802634
31
0.0
0
LINE
8
Default
62
5
5
1b1
100
AcDbEntity
100
AcDbLine
10
1.525886
20
8.802634
30
0.0
11
1.532719
21
8.801735
31
0.0
0
LINE
8
Default
62
5
5
1b2
100
AcDbEntity
100
AcDbLine
10
1.532719
20
8.801735
30
0.0
11
1.539087
21
8.799097
31
0.0
0
LINE
8
Default
62
5
5
1b3
100
AcDbEntity
100
AcDbLine
10
1.539087
20
8.799097
30
0.0
11
1.544554
21
8.794902
31
0.0
0
LINE
8
Default
62
5
5
1b4
100
AcDbEntity
100
AcDbLine
10
1.544554
20
8.794902
30
0.0
11
1.548750
21
8.789434
31
0.0
0
LINE
8
Default
62
5
5
1b5
100
AcDbEntity
100
AcDbLine
10
1.548750
20
8.789434
30
0.0
11
1.551387
21
8.783066
31
0.0
0
LINE
8
Default
62
5
5
1b6
100
AcDbEntity
100
AcDbLine
10
0.326839
20
8.802531
30
0.0
11
0.333885
21
8.803459
31
0.0
0
LINE
8
Default
62
5
5
1b7
100
AcDbEntity
100
AcDbLine
10
0.333885
20
8.803459
30
0.0
11
0.340932
21
8.802531
31
0.0
0
LINE
8
Default
62
5
5
1b8
100
AcDbEntity
100
AcDbLine
10
0.340932
20
8.802531
30
0.0
11
0.347498
21
8.799811
31
0.0
0
LINE
8
Default
62
5
5
1b9
100
AcDbEntity
100
AcDbLine
10
0.347498
20
8.799811
30
0.0
11
0.353137
21
8.795485
31
0.0
0
LINE
8
Default
62
5
5
1ba
100
AcDbEntity
100
AcDbLine
10
0.353137
20
8.795485
30
0.0
11
0.357463
21
8.789846
31
0.0
0
LINE
8
Default
62
5
5
1bb
100
AcDbEntity
100
AcDbLine
10
0.357463
20
8.789846
30
0.0
11
0.360183
21
8.783280
31
0.0
0
LINE
8
Default
62
5
5
1bc
100
AcDbEntity
100
AcDbLine
10
0.360183
20
8.783280
30
0.0
11
0.361111
21
8.776233
31
0.0
0
LINE
8
Default
62
5
5
1bd
100
AcDbEntity
100
AcDbLine
10
0.361111
20
8.776233
30
0.0
11
0.360183
21
8.769187
31
0.0
0
LINE
8
Default
62
5
5
1be
100
AcDbEntity
100
AcDbLine
10
0.360183
20
8.769187
30
0.0
11
0.357463
21
8.762620
31
0.0
0
LINE
8
Default
62
5
5
1bf
100
AcDbEntity
100
AcDbLine
10
0.357463
20
8.762620
30
0.0
11
0.353137
21
8.756982
31
0.0
0
LINE
8
Default
62
5
5
1c0
100
AcDbEntity
100
AcDbLine
10
0.353137
20
8.756982
30
0.0
11
0.347498
21
8.752655
31
0.0
0
LINE
8
Default
62
5
5
1c1
100
AcDbEntity
100
AcDbLine
10
0.347498
20
8.752655
30
0.0
11
0.340932
21
8.749935
31
0.0
0
LINE
8
Default
62
5
5
1c2
100
AcDbEntity
100
AcDbLine
10
0.340932
20
8.749935
30
0.0
11
0.333885
21
8.749008
31
0.0
0
LINE
8
Default
62
5
5
1c3
100
AcDbEntity
100
AcDbLine
10
0.333885
20
8.749008
30
0.0
11
0.326839
21
8.749935
31
0.0
0
LINE
8
Default
62
5
5
1c4
100
AcDbEntity
100
AcDbLine
10
0.326839
20
8.749935
30
0.0
11
0.320272
21
8.752655
31
0.0
0
LINE
8
Default
62
5
5
1c5
100
AcDbEntity
100
AcDbLine
10
0.320272
20
8.752655
30
0.0
11
0.314634
21
8.756982
31
0.0
0
LINE
8
Default
62
5
5
1c6
100
AcDbEntity
100
AcDbLine
10
0.314634
20
8.756982
30
0.0
11
0.310307
21
8.762620
31
0.0
0
LINE
8
Default
62
5
5
1c7
100
AcDbEntity
100
AcDbLine
10
0.310307
20
8.762620
30
0.0
11
0.307587
21
8.769187
31
0.0
0
LINE
8
Default
62
5
5
1c8
100
AcDbEntity
100
AcDbLine
10
0.307587
20
8.769187
30
0.0
11
0.306660
21
8.776233
31
0.0
0
LINE
8
Default
62
5
5
1c9
100
AcDbEntity
100
AcDbLine
10
0.306660
20
8.776233
30
0.0
11
0.307587
21
8.783280
31
0.0
0
LINE
8
Default
62
5
5
1ca
100
AcDbEntity
100
AcDbLine
10
0.307587
20
8.783280
30
0.0
11
0.310307
21
8.789846
31
0.0
0
LINE
8
Default
62
5
5
1cb
100
AcDbEntity
100
AcDbLine
10
0.310307
20
8.789846
30
0.0
11
0.314634
21
8.795485
31
0.0
0
LINE
8
Default
62
5
5
1cc
100
AcDbEntity
100
AcDbLine
10
0.314634
20
8.795485
30
0.0
11
0.320272
21
8.799811
31
0.0
0
LINE
8
Default
62
5
5
1cd
100
AcDbEntity
100
AcDbLine
10
0.320272
20
8.799811
30
0.0
11
0.326839
21
8.802531
31
0.0
  0
ENDSEC
  0
SECTION
  2
OBJECTS
  0
DICTIONARY
  5
C
330
0
100
AcDbDictionary
  3
ACAD_GROUP
350
D
  3
ACAD_MLINESTYLE
350
17
  0
DICTIONARY
  5
D
330
C
100
AcDbDictionary
  0
DICTIONARY
  5
1A
330
C
100
AcDbDictionary
  0
DICTIONARY
  5
17
330
C
100
AcDbDictionary
  3
STANDARD
350
18
  0
DICTIONARY
  5
19
330
C
100
AcDbDictionary
  0
ENDSEC
  0
EOF
