  0
SECTION
  2
HEADER
  9
$ACADVER
  1
AC1014
  9
$ACADMAINTVER
 70
     0
  9
$DWGCODEPAGE
  3
ANSI_1252
  9
$INSBASE
 10
0.0
 20
0.0
 30
0.0
  9
$EXTMIN
 10
0.0
 20
0.0
 30
0.0
  9
$EXTMAX
 10
145.2
 20
87.525
 30
0.0
  9
$LIMMIN
 10
-10.0
 20
-10.0
  9
$LIMMAX
 10
155.2
 20
97.525
  9
$ORTHOMODE
 70
     0
  9
$REGENMODE
 70
     1
  9
$FILLMODE
 70
     1
  9
$QTEXTMODE
 70
     0
  9
$MIRRTEXT
 70
     1
  9
$DRAGMODE
 70
     2
  9
$LTSCALE
 40
1.0
  9
$OSMODE
 70
     0
  9
$ATTMODE
 70
     1
  9
$TEXTSIZE
 40
0.2
  9
$TRACEWID
 40
0.05
  9
$TEXTSTYLE
  7
STANDARD
  9
$CLAYER
  8
0
  9
$CELTYPE
  6
CONTINUOUS
  9
$CECOLOR
 62
   256
  9
$CELTSCALE
 40
1.0
  9
$DELOBJ
 70
     1
  9
$DISPSILH
 70
     0
  9
$DIMSCALE
 40
1.0
  9
$DIMASZ
 40
0.18
  9
$DIMEXO
 40
0.0625
  9
$DIMDLI
 40
0.38
  9
$DIMRND
 40
0.0
  9
$DIMDLE
 40
0.0
  9
$DIMEXE
 40
0.18
  9
$DIMTP
 40
0.0
  9
$DIMTM
 40
0.0
  9
$DIMTXT
 40
0.18
  9
$DIMCEN
 40
0.09
  9
$DIMTSZ
 40
0.0
  9
$DIMTOL
 70
     0
  9
$DIMLIM
 70
     0
  9
$DIMTIH
 70
     1
  9
$DIMTOH
 70
     1
  9
$DIMSE1
 70
     0
  9
$DIMSE2
 70
     0
  9
$DIMTAD
 70
     0
  9
$DIMZIN
 70
     0
  9
$DIMBLK
  1

  9
$DIMASO
 70
     1
  9
$DIMSHO
 70
     1
  9
$DIMPOST
  1

  9
$DIMAPOST
  1

  9
$DIMALT
 70
     0
  9
$DIMALTD
 70
     2
  9
$DIMALTF
 40
25.4
  9
$DIMLFAC
 40
1.0
  9
$DIMTOFL
 70
     0
  9
$DIMTVP
 40
0.0
  9
$DIMTIX
 70
     0
  9
$DIMSOXD
 70
     0
  9
$DIMSAH
 70
     0
  9
$DIMBLK1
  1

  9
$DIMBLK2
  1

  9
$DIMSTYLE
  2
STANDARD
  9
$DIMCLRD
 70
     0
  9
$DIMCLRE
 70
     0
  9
$DIMCLRT
 70
     0
  9
$DIMTFAC
 40
1.0
  9
$DIMGAP
 40
0.09
  9
$DIMJUST
 70
     0
  9
$DIMSD1
 70
     0
  9
$DIMSD2
 70
     0
  9
$DIMTOLJ
 70
     1
  9
$DIMTZIN
 70
     0
  9
$DIMALTZ
 70
     0
  9
$DIMALTTZ
 70
     0
  9
$DIMFIT
 70
     3
  9
$DIMUPT
 70
     0
  9
$DIMUNIT
 70
     2
  9
$DIMDEC
 70
     4
  9
$DIMTDEC
 70
     4
  9
$DIMALTU
 70
     2
  9
$DIMALTTD
 70
     2
  9
$DIMTXSTY
  7
STANDARD
  9
$DIMAUNIT
 70
     0
  9
$LUNITS
 70
     2
  9
$LUPREC
 70
     4
  9
$SKETCHINC
 40
0.1
  9
$FILLETRAD
 40
0.0
  9
$AUNITS
 70
     0
  9
$AUPREC
 70
     0
  9
$MENU
  1
acad
  9
$ELEVATION
 40
0.0
  9
$PELEVATION
 40
0.0
  9
$THICKNESS
 40
0.0
  9
$LIMCHECK
 70
     0
  9
$BLIPMODE
 70
     1
  9
$CHAMFERA
 40
0.0
  9
$CHAMFERB
 40
0.0
  9
$CHAMFERC
 40
0.0
  9
$CHAMFERD
 40
0.0
  9
$SKPOLY
 70
     0
  9
$TDCREATE
 40
2456448.906284722
  9
$TDUPDATE
 40
2456448.906284722
  9
$TDINDWG
 40
0.0000000000
  9
$TDUSRTIMER
 40
0.0000000000
  9
$USRTIMER
 70
     1
  9
$ANGBASE
 50
0.0
  9
$ANGDIR
 70
     0
  9
$PDMODE
 70
     0
  9
$PDSIZE
 40
0.0
  9
$PLINEWID
 40
0.0
  9
$COORDS
 70
     1
  9
$SPLFRAME
 70
     0
  9
$SPLINETYPE
 70
     6
  9
$SPLINESEGS
 70
     8
  9
$ATTDIA
 70
     0
  9
$ATTREQ
 70
     1
  9
$HANDLING
 70
     1
  9
$HANDSEED
  5
46
  9
$SURFTAB1
 70
     6
  9
$SURFTAB2
 70
     6
  9
$SURFTYPE
 70
     6
  9
$SURFU
 70
     6
  9
$SURFV
 70
     6
  9
$UCSNAME
  2

  9
$UCSORG
 10
0.0
 20
0.0
 30
0.0
  9
$UCSXDIR
 10
1.0
 20
0.0
 30
0.0
  9
$UCSYDIR
 10
0.0
 20
1.0
 30
0.0
  9
$PUCSNAME
  2

  9
$PUCSORG
 10
0.0
 20
0.0
 30
0.0
  9
$PUCSXDIR
 10
1.0
 20
0.0
 30
0.0
  9
$PUCSYDIR
 10
0.0
 20
1.0
 30
0.0
  9
$USERI1
 70
     0
  9
$USERI2
 70
     0
  9
$USERI3
 70
     0
  9
$USERI4
 70
     0
  9
$USERI5
 70
     0
  9
$USERR1
 40
0.0
  9
$USERR2
 40
0.0
  9
$USERR3
 40
0.0
  9
$USERR4
 40
0.0
  9
$USERR5
 40
0.0
  9
$WORLDVIEW
 70
     1
  9
$SHADEDGE
 70
     3
  9
$SHADEDIF
 70
    70
  9
$TILEMODE
 70
     1
  9
$MAXACTVP
 70
    16
  9
$PINSBASE
 10
0.0
 20
0.0
 30
0.0
  9
$PLIMCHECK
 70
     0
  9
$PEXTMIN
 10
1.000000E+20
 20
1.000000E+20
 30
1.000000E+20
  9
$PEXTMAX
 10
-1.000000E+20
 20
-1.000000E+20
 30
-1.000000E+20
  9
$PLIMMIN
 10
0.0
 20
0.0
  9
$PLIMMAX
 10
12.0
 20
9.0
  9
$UNITMODE
 70
     0
  9
$VISRETAIN
 70
     0
  9
$PLINEGEN
 70
     0
  9
$PSLTSCALE
 70
     0
  9
$TREEDEPTH
 70
  3020
  9
$PICKSTYLE
 70
     1
  9
$CMLSTYLE
  2
STANDARD
  9
$CMLJUST
 70
     0
  9
$CMLSCALE
 40
1.0
  9
$PROXYGRAPHICS
 70
     0
  9
$MEASUREMENT
 70
     0
  0
ENDSEC
  0
SECTION
  2
CLASSES
  0
CLASS
  1
LWPOLYLINE
  2
AcDbPolyline
  3
"AutoCAD"
 90
        0
280
     0
281
     1
  0
CLASS
  1
IMAGE
  2
AcDbRasterImage
  3
ISM
 90
      127
280
     0
281
     1
  0
CLASS
  1
OLE2FRAME
  2
AcDbOle2Frame
  3
""
 90
        0
280
     0
281
     1
  0
CLASS
  1
HATCH
  2
AcDbHatch
  3
"ACAD_SEDONA"
 90
        0
280
     0
281
     1
  0
CLASS
  1
DICTIONARYVAR
  2
AcDbDictionaryVar
  3
"AutoCAD"
 90
        0
280
     0
281
     0
  0
CLASS
  1
RASTERVARIABLES
  2
AcDbRasterVariables
  3
ISM
 90
        0
280
     0
281
     0
  0
CLASS
  1
IMAGEDEF
  2
AcDbRasterImageDef
  3
ISM
 90
        0
280
     0
281
     0
  0
CLASS
  1
IMAGEDEF_REACTOR
  2
AcDbRasterImageDefReactor
  3
ISM
 90
        1
280
     0
281
     0
  0
CLASS
  1
IDBUFFER
  2
AcDbIdBuffer
  3
"Acad"
 90
        0
280
     0
281
     0
  0
CLASS
  1
SPATIAL_FILTER
  2
AcDbSpatialFilter
  3
"Acad"
 90
        0
280
     0
281
     0
  0
CLASS
  1
XRECORD
  2
AcDbXrecord
  3
"<Built In>"
 90
        0
280
     0
281
     0
  0
CLASS
  1
SORTENTSTABLE
  2
AcDbSortentsTable
  3
"AutoCAD"
 90
        0
280
     0
281
     0
  0
CLASS
  1
LAYER_INDEX
  2
AcDbLayerIndex
  3
"Acad"
 90
        0
280
     0
281
     0
  0
CLASS
  1
SPATIAL_INDEX
  2
AcDbSpatialIndex
  3
"Acad"
 90
        0
280
     0
281
     0
  0
CLASS
  1
OBJECT_PTR
  2
CAseDLPNTableRecord
  3
"ASE-LPNTableRecord"
 90
        1
280
     0
281
     0
  0
CLASS
  1
LAYOUT
  2
AcDbLayout
  3
"AutoCAD 2000"
 90
        1
280
     0
281
     0
  0
CLASS
  1
PLOTSETTINGS
  2
AcDbPlotSettings
  3
"AutoCAD 2000"
 90
        1
280
     0
281
     0
  0
CLASS
  1
ACDBDICTIONARYWDFLT
  2
AcDbDictionaryWithDefault
  3
"AutoCAD 2000"
 90
        1
280
     0
281
     0
  0
CLASS
  1
ACDBPLACEHOLDER
  2
AcDbPlaceHolder
  3
"AutoCAD 2000"
 90
        1
280
     0
281
     0
  0
ENDSEC
  0
SECTION
  2
TABLES
  0
TABLE
  2
VPORT
  5
7
100
AcDbSymbolTable
 70
     1
  0
VPORT
  5
15
100
AcDbSymbolTableRecord
100
AcDbViewportTableRecord
  2
*ACTIVE
 70
     0
 10
0.0
 20
0.0
 11
1.0
 21
1.0
 12
72.6
 22
43.7625
 13
0.0
 23
0.0
 14
1.0
 24
1.0
 15
0.0
 25
0.0
 16
0.0
 26
0.0
 36
1.0
 17
0.0
 27
0.0
 37
0.0
 40
87.525
 41
1.658955
 42
50.0
 43
0.0
 44
0.0
 50
0.0
 51
0.0
 71
     0
 72
   100
 73
     1
 74
     1
 75
     0
 76
     0
 77
     0
 78
     0
  0
ENDTAB
  0
TABLE
  2
LTYPE
  5
4
100
AcDbSymbolTable
 70
     3
  0
LTYPE
  5
11
100
AcDbSymbolTableRecord
100
AcDbLinetypeTableRecord
  2
BYBLOCK
 70
    64
  3

 72
    65
 73
     0
 40
0.0
  0
LTYPE
  5
12
100
AcDbSymbolTableRecord
100
AcDbLinetypeTableRecord
  2
BYLAYER
 70
    64
  3

 72
    65
 73
     0
 40
0.0
  0
LTYPE
  5
13
100
AcDbSymbolTableRecord
100
AcDbLinetypeTableRecord
  2
CONTINUOUS
 70
    64
  3
Solid line
 72
    65
 73
     0
 40
0.0
  0
ENDTAB
  0
TABLE
  2
LAYER
  5
2
100
AcDbSymbolTable
 70
     3
  0
LAYER
  5
14
100
AcDbSymbolTableRecord
100
AcDbLayerTableRecord
  2
0
 70
     0
 62
     7
  6
CONTINUOUS
  0
LAYER
  5
44
100
AcDbSymbolTableRecord
100
AcDbLayerTableRecord
  2
LAY252
 70
     0
 62
   254
  6
CONTINUOUS
  0
LAYER
  5
1D
100
AcDbSymbolTableRecord
100
AcDbLayerTableRecord
  2
LAY001
 70
     0
 62
     7
  6
CONTINUOUS
  0
ENDTAB
  0
TABLE
  2
STYLE
  5
3
100
AcDbSymbolTable
 70
     1
  0
STYLE
  5
17
100
AcDbSymbolTableRecord
100
AcDbTextStyleTableRecord
  2
STANDARD
 70
     0
 40
0.0
 41
1.0
 50
0.0
 71
     0
 42
0.0
  3
txt
  4

  0
ENDTAB
  0
TABLE
  2
VIEW
  5
5
100
AcDbSymbolTable
 70
     0
  0
ENDTAB
  0
TABLE
  2
UCS
  5
6
100
AcDbSymbolTable
 70
     0
  0
ENDTAB
  0
TABLE
  2
APPID
  5
8
100
AcDbSymbolTable
 70
     2
  0
APPID
  5
16
100
AcDbSymbolTableRecord
100
AcDbRegAppTableRecord
  2
ACAD
 70
     0
  0
APPID
  5
45
100
AcDbSymbolTableRecord
100
AcDbRegAppTableRecord
  2
HPGL2CAD
 70
     0
  0
ENDTAB
  0
TABLE
  2
DIMSTYLE
  5
9
100
AcDbSymbolTable
 70
     1
  0
DIMSTYLE
105
18
100
AcDbSymbolTableRecord
100
AcDbDimStyleTableRecord
  2
STANDARD
 70
     0
  3

  4

  5

  6

  7

 40
1.0
 41
0.18
 42
0.0625
 43
0.38
 44
0.18
 45
0.0
 46
0.0
 47
0.0
 48
0.0
 71
     0
 72
     0
 73
     1
 74
     1
 75
     0
 76
     0
 77
     0
 78
     0
140
0.18
141
0.09
142
0.0
143
25.4
144
1.0
145
0.0
146
1.0
147
0.09
170
     0
171
     2
172
     0
173
     0
174
     0
175
     0
176
     0
177
     0
178
     0
270
     2
271
     4
272
     4
273
     2
274
     2
275
     0
280
     0
281
     0
282
     0
283
     1
284
     0
285
     0
286
     0
287
     0
288
     0
340
17
  0
ENDTAB
  0
TABLE
  2
BLOCK_RECORD
  5
1
100
AcDbSymbolTable
 70
     0
  0
BLOCK_RECORD
  5
A
100
AcDbSymbolTableRecord
100
AcDbBlockTableRecord
  2
*MODEL_SPACE
  0
BLOCK_RECORD
  5
B
100
AcDbSymbolTableRecord
100
AcDbBlockTableRecord
  2
*PAPER_SPACE
  0
ENDTAB
  0
ENDSEC
  0
SECTION
  2
BLOCKS
  0
BLOCK
  5
D
100
AcDbEntity
  8
0
100
AcDbBlockBegin
  2
*MODEL_SPACE
 70
     0
 10
0.0
 20
0.0
 30
0.0
  3
*MODEL_SPACE
  1

  0
ENDBLK
  5
E
100
AcDbEntity
  8
0
100
AcDbBlockEnd
  0
BLOCK
  5
F
100
AcDbEntity
 67
     1
  8
0
100
AcDbBlockBegin
  2
*PAPER_SPACE
 70
     0
 10
0.0
 20
0.0
 30
0.0
  3
*PAPER_SPACE
  1

  0
ENDBLK
  5
10
100
AcDbEntity
 67
     1
  8
0
100
AcDbBlockEnd
  0
ENDSEC
  0
SECTION
  2
ENTITIES
  0
LWPOLYLINE
  5
1E
100
AcDbEntity
  8
LAY001
 62
     7
100
AcDbPolyline
 90
       32
 70
     1
 10
46.225
 20
87.525
 10
46.225
 20
82.525
 10
51.225
 20
82.525
 10
51.225
 20
65.525
 10
46.225
 20
65.525
 10
46.225
 20
60.525
 10
90.675
 20
60.525
 10
90.675
 20
65.525
 10
85.675
 20
65.525
 10
85.675
 20
82.525
 10
90.675
 20
82.525
 10
90.675
 20
87.525
 10
77.375
 20
87.525
 10
77.375
 20
83.575
 10
78.5
 20
81.075
 10
78.95
 20
78.375
 10
78.675
 20
75.65
 10
77.7
 20
73.075
 10
76.1
 20
70.85
 10
73.975
 20
69.125
 10
71.475
 20
68.0
 10
68.775
 20
67.55
 10
66.05
 20
67.825
 10
63.475
 20
68.8
 10
61.25
 20
70.4
 10
59.525
 20
72.525
 10
58.4
 20
75.025
 10
57.95
 20
77.725
 10
58.225
 20
80.45
 10
59.2
 20
83.0
 10
59.6
 20
83.575
 10
59.6
 20
87.525
  0
LWPOLYLINE
  5
1F
100
AcDbEntity
  8
LAY001
 62
     7
100
AcDbPolyline
 90
       55
 70
     1
 10
44.425
 20
87.45
 10
27.525
 20
87.45
 10
28.8
 20
86.325
 10
30.1
 20
84.425
 10
30.875
 20
82.25
 10
31.05
 20
79.95
 10
30.6
 20
77.675
 10
29.6
 20
75.6
 10
28.1
 20
73.85
 10
26.2
 20
72.55
 10
24.0
 20
71.8
 10
21.7
 20
71.625
 10
19.45
 20
72.05
 10
17.375
 20
73.05
 10
15.625
 20
74.55
 10
14.325
 20
76.475
 10
13.55
 20
78.65
 10
13.375
 20
80.95
 10
13.825
 20
83.225
 10
14.825
 20
85.3
 10
16.325
 20
87.05
 10
16.9
 20
87.45
 10
0.0
 20
87.45
 10
0.0
 20
82.45
 10
5.0
 20
82.45
 10
5.0
 20
79.275
 10
8.875
 20
79.275
 10
8.875
 20
80.425
 10
11.225
 20
80.425
 10
11.225
 20
75.05
 10
8.875
 20
75.05
 10
8.875
 20
76.175
 10
5.0
 20
76.175
 10
5.0
 20
71.625
 10
0.0
 20
71.625
 10
0.0
 20
66.625
 10
5.0
 20
66.625
 10
5.0
 20
61.625
 10
13.0
 20
61.625
 10
31.425
 20
61.625
 10
39.425
 20
61.625
 10
39.425
 20
66.625
 10
44.425
 20
66.625
 10
44.425
 20
71.625
 10
39.425
 20
71.625
 10
39.425
 20
76.175
 10
35.55
 20
76.175
 10
35.55
 20
75.05
 10
33.2
 20
75.05
 10
33.2
 20
80.5
 10
35.55
 20
80.5
 10
35.55
 20
79.275
 10
39.425
 20
79.275
 10
39.425
 20
82.45
 10
44.425
 20
82.45
  0
LWPOLYLINE
  5
20
100
AcDbEntity
  8
LAY001
 62
     7
100
AcDbPolyline
 90
       55
 70
     1
 10
44.425
 20
59.825
 10
27.525
 20
59.825
 10
28.8
 20
58.7
 10
30.1
 20
56.8
 10
30.875
 20
54.625
 10
31.05
 20
52.325
 10
30.6
 20
50.05
 10
29.6
 20
47.975
 10
28.1
 20
46.225
 10
26.2
 20
44.925
 10
24.0
 20
44.15
 10
21.7
 20
44.0
 10
19.45
 20
44.425
 10
17.375
 20
45.425
 10
15.625
 20
46.925
 10
14.325
 20
48.825
 10
13.55
 20
51.025
 10
13.375
 20
53.325
 10
13.825
 20
55.575
 10
14.825
 20
57.675
 10
16.325
 20
59.425
 10
16.9
 20
59.825
 10
0.0
 20
59.825
 10
0.0
 20
54.825
 10
5.0
 20
54.825
 10
5.0
 20
51.65
 10
8.875
 20
51.65
 10
8.875
 20
52.8
 10
11.225
 20
52.8
 10
11.225
 20
47.4
 10
8.875
 20
47.4
 10
8.875
 20
48.55
 10
5.0
 20
48.55
 10
5.0
 20
43.975
 10
0.0
 20
43.975
 10
0.0
 20
38.975
 10
5.0
 20
38.975
 10
5.0
 20
33.975
 10
13.0
 20
33.975
 10
31.425
 20
33.975
 10
39.425
 20
33.975
 10
39.425
 20
38.975
 10
44.425
 20
38.975
 10
44.425
 20
43.975
 10
39.425
 20
43.975
 10
39.425
 20
48.55
 10
35.55
 20
48.55
 10
35.55
 20
47.4
 10
33.2
 20
47.4
 10
33.2
 20
52.875
 10
35.55
 20
52.875
 10
35.55
 20
51.65
 10
39.425
 20
51.65
 10
39.425
 20
54.825
 10
44.425
 20
54.825
  0
LWPOLYLINE
  5
21
100
AcDbEntity
  8
LAY001
 62
     7
100
AcDbPolyline
 90
        4
 70
     1
 10
53.825
 20
58.175
 10
58.825
 20
58.175
 10
58.825
 20
53.175
 10
53.825
 20
53.175
  0
LWPOLYLINE
  5
22
100
AcDbEntity
  8
LAY001
 62
     7
100
AcDbPolyline
 90
        4
 70
     1
 10
51.35
 20
52.475
 10
56.35
 20
52.475
 10
56.35
 20
47.475
 10
51.35
 20
47.475
  0
LWPOLYLINE
  5
23
100
AcDbEntity
  8
LAY001
 62
     7
100
AcDbPolyline
 90
        4
 70
     1
 10
53.825
 20
46.775
 10
58.825
 20
46.775
 10
58.825
 20
41.775
 10
53.825
 20
41.775
  0
LWPOLYLINE
  5
24
100
AcDbEntity
  8
LAY001
 62
     7
100
AcDbPolyline
 90
       24
 70
     1
 10
62.025
 20
44.925
 10
62.175
 20
45.275
 10
62.425
 20
45.6
 10
62.725
 20
45.825
 10
63.1
 20
45.975
 10
63.475
 20
46.025
 10
63.875
 20
45.975
 10
64.225
 20
45.825
 10
64.55
 20
45.6
 10
64.775
 20
45.275
 10
64.925
 20
44.925
 10
64.975
 20
44.525
 10
64.925
 20
44.15
 10
64.775
 20
43.775
 10
64.55
 20
43.475
 10
64.225
 20
43.225
 10
63.875
 20
43.075
 10
63.475
 20
43.025
 10
63.1
 20
43.075
 10
62.725
 20
43.225
 10
62.425
 20
43.475
 10
62.175
 20
43.775
 10
62.025
 20
44.15
 10
61.975
 20
44.525
  0
LWPOLYLINE
  5
25
100
AcDbEntity
  8
LAY001
 62
     7
100
AcDbPolyline
 90
        4
 70
     1
 10
69.65
 20
46.775
 10
74.65
 20
46.775
 10
74.65
 20
41.775
 10
69.65
 20
41.775
  0
LWPOLYLINE
  5
26
100
AcDbEntity
  8
LAY001
 62
     7
100
AcDbPolyline
 90
        4
 70
     1
 10
73.35
 20
47.475
 10
73.35
 20
52.475
 10
78.35
 20
52.475
 10
78.35
 20
47.475
  0
LWPOLYLINE
  5
27
100
AcDbEntity
  8
LAY001
 62
     7
100
AcDbPolyline
 90
        4
 70
     1
 10
74.65
 20
53.175
 10
69.65
 20
53.175
 10
69.65
 20
58.175
 10
74.65
 20
58.175
  0
LWPOLYLINE
  5
28
100
AcDbEntity
  8
LAY001
 62
     7
100
AcDbPolyline
 90
       24
 70
     1
 10
64.975
 20
55.35
 10
64.825
 20
54.975
 10
64.575
 20
54.675
 10
64.275
 20
54.425
 10
63.9
 20
54.275
 10
63.525
 20
54.225
 10
63.125
 20
54.275
 10
62.775
 20
54.425
 10
62.45
 20
54.675
 10
62.225
 20
54.975
 10
62.075
 20
55.35
 10
62.025
 20
55.725
 10
62.075
 20
56.125
 10
62.225
 20
56.475
 10
62.45
 20
56.775
 10
62.775
 20
57.025
 10
63.125
 20
57.175
 10
63.525
 20
57.225
 10
63.9
 20
57.175
 10
64.275
 20
57.025
 10
64.575
 20
56.775
 10
64.825
 20
56.475
 10
64.975
 20
56.125
 10
65.025
 20
55.725
  0
LWPOLYLINE
  5
29
100
AcDbEntity
  8
LAY001
 62
     7
100
AcDbPolyline
 90
       24
 70
     1
 10
63.6
 20
34.275
 10
64.0
 20
34.225
 10
64.375
 20
34.075
 10
64.7
 20
33.825
 10
64.95
 20
33.5
 10
65.1
 20
33.125
 10
65.15
 20
32.725
 10
65.1
 20
32.325
 10
64.95
 20
31.95
 10
64.7
 20
31.625
 10
64.375
 20
31.375
 10
64.0
 20
31.225
 10
63.6
 20
31.175
 10
63.2
 20
31.225
 10
62.825
 20
31.375
 10
62.5
 20
31.625
 10
62.25
 20
31.95
 10
62.1
 20
32.325
 10
62.05
 20
32.725
 10
62.1
 20
33.125
 10
62.25
 20
33.5
 10
62.5
 20
33.825
 10
62.825
 20
34.075
 10
63.2
 20
34.225
  0
LWPOLYLINE
  5
2A
100
AcDbEntity
  8
LAY001
 62
     7
100
AcDbPolyline
 90
       24
 70
     1
 10
63.475
 20
22.775
 10
63.875
 20
22.725
 10
64.225
 20
22.575
 10
64.55
 20
22.325
 10
64.775
 20
22.025
 10
64.925
 20
21.65
 10
64.975
 20
21.275
 10
64.925
 20
20.875
 10
64.775
 20
20.525
 10
64.55
 20
20.2
 10
64.225
 20
19.975
 10
63.875
 20
19.825
 10
63.475
 20
19.775
 10
63.1
 20
19.825
 10
62.725
 20
19.975
 10
62.425
 20
20.2
 10
62.175
 20
20.525
 10
62.025
 20
20.875
 10
61.975
 20
21.275
 10
62.025
 20
21.65
 10
62.175
 20
22.025
 10
62.425
 20
22.325
 10
62.725
 20
22.575
 10
63.1
 20
22.725
  0
LWPOLYLINE
  5
2B
100
AcDbEntity
  8
LAY001
 62
     7
100
AcDbPolyline
 90
        4
 70
     1
 10
58.825
 20
23.5
 10
58.825
 20
18.5
 10
53.825
 20
18.5
 10
53.825
 20
23.5
  0
LWPOLYLINE
  5
2C
100
AcDbEntity
  8
LAY001
 62
     7
100
AcDbPolyline
 90
        4
 70
     1
 10
69.65
 20
23.5
 10
74.65
 20
23.5
 10
74.65
 20
18.5
 10
69.65
 20
18.5
  0
LWPOLYLINE
  5
2D
100
AcDbEntity
  8
LAY001
 62
     7
100
AcDbPolyline
 90
        4
 70
     1
 10
69.65
 20
9.1
 10
74.65
 20
9.1
 10
74.65
 20
4.1
 10
69.65
 20
4.1
  0
LWPOLYLINE
  5
2E
100
AcDbEntity
  8
LAY001
 62
     7
100
AcDbPolyline
 90
       24
 70
     1
 10
64.925
 20
7.025
 10
64.975
 20
6.65
 10
64.925
 20
6.25
 10
64.775
 20
5.9
 10
64.55
 20
5.575
 10
64.225
 20
5.35
 10
63.875
 20
5.2
 10
63.475
 20
5.15
 10
63.1
 20
5.2
 10
62.725
 20
5.35
 10
62.425
 20
5.575
 10
62.175
 20
5.9
 10
62.025
 20
6.25
 10
61.975
 20
6.65
 10
62.025
 20
7.025
 10
62.175
 20
7.4
 10
62.425
 20
7.7
 10
62.725
 20
7.95
 10
63.1
 20
8.1
 10
63.475
 20
8.15
 10
63.875
 20
8.1
 10
64.225
 20
7.95
 10
64.55
 20
7.7
 10
64.775
 20
7.4
  0
LWPOLYLINE
  5
2F
100
AcDbEntity
  8
LAY001
 62
     7
100
AcDbPolyline
 90
        4
 70
     1
 10
58.825
 20
9.1
 10
58.825
 20
4.1
 10
53.825
 20
4.1
 10
53.825
 20
9.1
  0
LWPOLYLINE
  5
30
100
AcDbEntity
  8
LAY001
 62
     7
100
AcDbPolyline
 90
       53
 70
     1
 10
51.35
 20
0.0
 10
94.675
 20
0.0
 10
94.675
 20
5.0
 10
89.675
 20
5.0
 10
89.675
 20
6.0
 10
85.225
 20
6.0
 10
85.225
 20
4.8
 10
82.825
 20
4.8
 10
82.825
 20
6.0
 10
80.225
 20
6.0
 10
80.225
 20
9.0
 10
82.825
 20
9.0
 10
82.825
 20
10.3
 10
85.225
 20
10.3
 10
85.225
 20
9.0
 10
89.675
 20
9.0
 10
89.675
 20
10.0
 10
94.675
 20
10.0
 10
94.675
 20
15.0
 10
89.675
 20
15.0
 10
87.4
 20
16.575
 10
85.45
 20
18.55
 10
83.875
 20
20.825
 10
82.7
 20
23.325
 10
82.0
 20
26.0
 10
81.75
 20
28.75
 10
82.0
 20
31.525
 10
82.7
 20
34.2
 10
83.875
 20
36.7
 10
85.45
 20
38.975
 10
87.4
 20
40.925
 10
89.675
 20
42.525
 10
94.675
 20
42.525
 10
94.675
 20
48.325
 10
89.675
 20
48.325
 10
89.675
 20
49.75
 10
85.225
 20
49.75
 10
85.225
 20
48.45
 10
82.825
 20
48.45
 10
82.825
 20
49.75
 10
80.225
 20
49.75
 10
80.225
 20
52.75
 10
82.825
 20
52.75
 10
82.825
 20
53.95
 10
85.225
 20
53.95
 10
85.225
 20
52.75
 10
89.675
 20
52.75
 10
89.675
 20
54.175
 10
94.675
 20
54.175
 10
94.675
 20
59.175
 10
45.65
 20
59.175
 10
45.65
 20
41.525
 10
51.35
 20
34.525
  0
LWPOLYLINE
  5
31
100
AcDbEntity
  8
LAY001
 62
     7
100
AcDbPolyline
 90
       55
 70
     1
 10
40.8
 20
6.575
 10
40.8
 20
11.575
 10
45.8
 20
11.575
 10
45.8
 20
16.575
 10
40.8
 20
16.575
 10
40.8
 20
21.125
 10
36.925
 20
21.125
 10
36.925
 20
20.0
 10
34.575
 20
20.0
 10
34.575
 20
25.45
 10
36.925
 20
25.45
 10
36.925
 20
24.225
 10
40.8
 20
24.225
 10
40.8
 20
27.4
 10
45.8
 20
27.4
 10
45.8
 20
32.4
 10
28.9
 20
32.4
 10
30.175
 20
31.275
 10
31.475
 20
29.375
 10
32.225
 20
27.2
 10
32.4
 20
24.9
 10
31.975
 20
22.625
 10
30.975
 20
20.55
 10
29.475
 20
18.8
 10
27.55
 20
17.5
 10
25.375
 20
16.75
 10
23.075
 20
16.575
 10
20.8
 20
17.0
 10
18.725
 20
18.0
 10
16.975
 20
19.5
 10
15.675
 20
21.425
 10
14.925
 20
23.6
 10
14.75
 20
25.9
 10
15.175
 20
28.175
 10
16.175
 20
30.25
 10
17.7
 20
32.0
 10
18.275
 20
32.4
 10
1.35
 20
32.4
 10
1.35
 20
27.4
 10
6.35
 20
27.4
 10
6.35
 20
24.225
 10
10.25
 20
24.225
 10
10.25
 20
25.375
 10
12.575
 20
25.375
 10
12.575
 20
20.0
 10
10.25
 20
20.0
 10
10.25
 20
21.125
 10
6.35
 20
21.125
 10
6.35
 20
16.575
 10
1.35
 20
16.575
 10
1.35
 20
11.575
 10
6.35
 20
11.575
 10
6.35
 20
6.575
 10
14.35
 20
6.575
 10
32.8
 20
6.575
  0
LWPOLYLINE
  5
32
100
AcDbEntity
  8
LAY001
 62
     7
100
AcDbPolyline
 90
       55
 70
     1
 10
95.35
 20
5.5
 10
100.35
 20
5.5
 10
100.35
 20
0.5
 10
108.35
 20
0.5
 10
126.8
 20
0.5
 10
134.8
 20
0.5
 10
134.8
 20
5.5
 10
139.8
 20
5.5
 10
139.8
 20
10.5
 10
134.8
 20
10.5
 10
134.8
 20
15.075
 10
130.925
 20
15.075
 10
130.925
 20
13.925
 10
128.575
 20
13.925
 10
128.575
 20
19.4
 10
130.925
 20
19.4
 10
130.925
 20
18.175
 10
134.8
 20
18.175
 10
134.8
 20
21.35
 10
139.8
 20
21.35
 10
139.8
 20
26.35
 10
122.9
 20
26.35
 10
124.175
 20
25.225
 10
125.475
 20
23.325
 10
126.225
 20
21.15
 10
126.4
 20
18.85
 10
125.975
 20
16.575
 10
124.975
 20
14.5
 10
123.475
 20
12.75
 10
121.55
 20
11.45
 10
119.375
 20
10.675
 10
117.075
 20
10.525
 10
114.8
 20
10.95
 10
112.725
 20
11.95
 10
110.975
 20
13.45
 10
109.675
 20
15.375
 10
108.925
 20
17.55
 10
108.75
 20
19.85
 10
109.175
 20
22.125
 10
110.175
 20
24.2
 10
111.7
 20
25.95
 10
112.275
 20
26.35
 10
95.35
 20
26.35
 10
95.35
 20
21.35
 10
100.35
 20
21.35
 10
100.35
 20
18.175
 10
104.25
 20
18.175
 10
104.25
 20
19.325
 10
106.575
 20
19.325
 10
106.575
 20
13.925
 10
104.25
 20
13.925
 10
104.25
 20
15.075
 10
100.35
 20
15.075
 10
100.35
 20
10.5
 10
95.35
 20
10.5
  0
LWPOLYLINE
  5
33
100
AcDbEntity
  8
LAY001
 62
     7
100
AcDbPolyline
 90
       55
 70
     1
 10
95.35
 20
5.5
 10
100.35
 20
5.5
 10
100.35
 20
0.5
 10
108.35
 20
0.5
 10
126.8
 20
0.5
 10
134.8
 20
0.5
 10
134.8
 20
5.5
 10
139.8
 20
5.5
 10
139.8
 20
10.5
 10
134.8
 20
10.5
 10
134.8
 20
15.075
 10
130.925
 20
15.075
 10
130.925
 20
13.925
 10
128.575
 20
13.925
 10
128.575
 20
19.4
 10
130.925
 20
19.4
 10
130.925
 20
18.175
 10
134.8
 20
18.175
 10
134.8
 20
21.35
 10
139.8
 20
21.35
 10
139.8
 20
26.35
 10
122.9
 20
26.35
 10
124.175
 20
25.225
 10
125.475
 20
23.325
 10
126.225
 20
21.15
 10
126.4
 20
18.85
 10
125.975
 20
16.575
 10
124.975
 20
14.5
 10
123.475
 20
12.75
 10
121.55
 20
11.45
 10
119.375
 20
10.675
 10
117.075
 20
10.525
 10
114.8
 20
10.95
 10
112.725
 20
11.95
 10
110.975
 20
13.45
 10
109.675
 20
15.375
 10
108.925
 20
17.55
 10
108.75
 20
19.85
 10
109.175
 20
22.125
 10
110.175
 20
24.2
 10
111.7
 20
25.95
 10
112.275
 20
26.35
 10
95.35
 20
26.35
 10
95.35
 20
21.35
 10
100.35
 20
21.35
 10
100.35
 20
18.175
 10
104.25
 20
18.175
 10
104.25
 20
19.325
 10
106.575
 20
19.325
 10
106.575
 20
13.925
 10
104.25
 20
13.925
 10
104.25
 20
15.075
 10
100.35
 20
15.075
 10
100.35
 20
10.5
 10
95.35
 20
10.5
  0
LWPOLYLINE
  5
34
100
AcDbEntity
  8
LAY001
 62
     7
100
AcDbPolyline
 90
        4
 70
     1
 10
116.2
 20
31.875
 10
121.2
 20
31.875
 10
121.2
 20
36.875
 10
116.2
 20
36.875
  0
LWPOLYLINE
  5
35
100
AcDbEntity
  8
LAY001
 62
     7
100
AcDbPolyline
 90
       24
 70
     1
 10
125.925
 20
34.05
 10
126.075
 20
33.675
 10
126.3
 20
33.375
 10
126.6
 20
33.125
 10
126.975
 20
32.975
 10
127.35
 20
32.925
 10
127.75
 20
32.975
 10
128.1
 20
33.125
 10
128.425
 20
33.375
 10
128.65
 20
33.675
 10
128.8
 20
34.05
 10
128.85
 20
34.425
 10
128.8
 20
34.825
 10
128.65
 20
35.175
 10
128.425
 20
35.5
 10
128.1
 20
35.725
 10
127.75
 20
35.875
 10
127.35
 20
35.925
 10
126.975
 20
35.875
 10
126.6
 20
35.725
 10
126.3
 20
35.5
 10
126.075
 20
35.175
 10
125.925
 20
34.825
 10
125.85
 20
34.425
  0
LWPOLYLINE
  5
36
100
AcDbEntity
  8
LAY001
 62
     7
100
AcDbPolyline
 90
        4
 70
     1
 10
132.025
 20
31.875
 10
137.025
 20
31.875
 10
137.025
 20
36.875
 10
132.025
 20
36.875
  0
LWPOLYLINE
  5
37
100
AcDbEntity
  8
LAY001
 62
     7
100
AcDbPolyline
 90
        4
 70
     1
 10
132.025
 20
46.3
 10
137.025
 20
46.3
 10
137.025
 20
51.3
 10
132.025
 20
51.3
  0
LWPOLYLINE
  5
38
100
AcDbEntity
  8
LAY001
 62
     7
100
AcDbPolyline
 90
       24
 70
     1
 10
128.65
 20
48.3
 10
128.8
 20
48.675
 10
128.85
 20
49.05
 10
128.8
 20
49.45
 10
128.65
 20
49.8
 10
128.425
 20
50.125
 10
128.1
 20
50.35
 10
127.75
 20
50.5
 10
127.35
 20
50.55
 10
126.975
 20
50.5
 10
126.6
 20
50.35
 10
126.3
 20
50.125
 10
126.075
 20
49.8
 10
125.925
 20
49.45
 10
125.85
 20
49.05
 10
125.925
 20
48.675
 10
126.075
 20
48.3
 10
126.3
 20
48.0
 10
126.6
 20
47.75
 10
126.975
 20
47.6
 10
127.35
 20
47.55
 10
127.75
 20
47.6
 10
128.1
 20
47.75
 10
128.425
 20
48.0
  0
LWPOLYLINE
  5
39
100
AcDbEntity
  8
LAY001
 62
     7
100
AcDbPolyline
 90
        4
 70
     1
 10
121.2
 20
46.3
 10
121.2
 20
51.3
 10
116.2
 20
51.3
 10
116.2
 20
46.3
  0
LWPOLYLINE
  5
3A
100
AcDbEntity
  8
LAY001
 62
     7
100
AcDbPolyline
 90
       24
 70
     1
 10
126.45
 20
59.175
 10
126.825
 20
59.0
 10
127.25
 20
58.95
 10
127.65
 20
59.0
 10
128.025
 20
59.175
 10
128.35
 20
59.425
 10
128.6
 20
59.75
 10
128.75
 20
60.125
 10
128.8
 20
60.525
 10
128.75
 20
60.925
 10
128.6
 20
61.3
 10
128.35
 20
61.625
 10
128.025
 20
61.875
 10
127.65
 20
62.025
 10
127.25
 20
62.075
 10
126.825
 20
62.025
 10
126.45
 20
61.875
 10
126.15
 20
61.625
 10
125.9
 20
61.3
 10
125.725
 20
60.925
 10
125.675
 20
60.525
 10
125.725
 20
60.125
 10
125.9
 20
59.75
 10
126.15
 20
59.425
  0
LWPOLYLINE
  5
3B
100
AcDbEntity
  8
LAY001
 62
     7
100
AcDbPolyline
 90
        4
 70
     1
 10
121.2
 20
69.55
 10
121.2
 20
74.55
 10
116.2
 20
74.55
 10
116.2
 20
69.55
  0
LWPOLYLINE
  5
3C
100
AcDbEntity
  8
LAY001
 62
     7
100
AcDbPolyline
 90
       24
 70
     1
 10
126.075
 20
71.575
 10
126.3
 20
71.25
 10
126.6
 20
71.025
 10
126.975
 20
70.875
 10
127.35
 20
70.825
 10
127.75
 20
70.875
 10
128.1
 20
71.025
 10
128.425
 20
71.25
 10
128.65
 20
71.575
 10
128.8
 20
71.925
 10
128.85
 20
72.325
 10
128.8
 20
72.7
 10
128.65
 20
73.075
 10
128.425
 20
73.375
 10
128.1
 20
73.625
 10
127.75
 20
73.775
 10
127.35
 20
73.825
 10
126.975
 20
73.775
 10
126.6
 20
73.625
 10
126.3
 20
73.375
 10
126.075
 20
73.075
 10
125.925
 20
72.7
 10
125.85
 20
72.325
 10
125.925
 20
71.925
  0
LWPOLYLINE
  5
3D
100
AcDbEntity
  8
LAY001
 62
     7
100
AcDbPolyline
 90
        4
 70
     1
 10
132.025
 20
69.55
 10
137.025
 20
69.55
 10
137.025
 20
74.55
 10
132.025
 20
74.55
  0
LWPOLYLINE
  5
3E
100
AcDbEntity
  8
LAY001
 62
     7
100
AcDbPolyline
 90
        4
 70
     1
 10
134.5
 20
75.275
 10
139.5
 20
75.275
 10
139.5
 20
80.275
 10
134.5
 20
80.275
  0
LWPOLYLINE
  5
3F
100
AcDbEntity
  8
LAY001
 62
     7
100
AcDbPolyline
 90
        4
 70
     1
 10
132.025
 20
80.975
 10
137.025
 20
80.975
 10
137.025
 20
85.975
 10
132.025
 20
85.975
  0
LWPOLYLINE
  5
40
100
AcDbEntity
  8
LAY001
 62
     7
100
AcDbPolyline
 90
       24
 70
     1
 10
128.625
 20
82.775
 10
128.775
 20
83.125
 10
128.825
 20
83.525
 10
128.775
 20
83.9
 10
128.625
 20
84.275
 10
128.4
 20
84.575
 10
128.075
 20
84.825
 10
127.725
 20
84.975
 10
127.325
 20
85.025
 10
126.95
 20
84.975
 10
126.575
 20
84.825
 10
126.275
 20
84.575
 10
126.025
 20
84.275
 10
125.875
 20
83.9
 10
125.825
 20
83.525
 10
125.875
 20
83.125
 10
126.025
 20
82.775
 10
126.275
 20
82.45
 10
126.575
 20
82.225
 10
126.95
 20
82.075
 10
127.325
 20
82.025
 10
127.725
 20
82.075
 10
128.075
 20
82.225
 10
128.4
 20
82.45
  0
LWPOLYLINE
  5
41
100
AcDbEntity
  8
LAY001
 62
     7
100
AcDbPolyline
 90
        4
 70
     1
 10
121.2
 20
80.975
 10
121.2
 20
85.975
 10
116.2
 20
85.975
 10
116.2
 20
80.975
  0
LWPOLYLINE
  5
42
100
AcDbEntity
  8
LAY001
 62
     7
100
AcDbPolyline
 90
        4
 70
     1
 10
117.5
 20
80.275
 10
112.5
 20
80.275
 10
112.5
 20
75.275
 10
117.5
 20
75.275
  0
LWPOLYLINE
  5
43
100
AcDbEntity
  8
LAY001
 62
     7
100
AcDbPolyline
 90
       53
 70
     1
 10
110.625
 20
80.525
 10
108.025
 20
80.525
 10
108.025
 20
81.725
 10
105.625
 20
81.725
 10
105.625
 20
80.525
 10
101.175
 20
80.525
 10
101.175
 20
81.975
 10
96.175
 20
81.975
 10
96.175
 20
86.975
 10
145.2
 20
86.975
 10
145.2
 20
69.325
 10
139.5
 20
62.325
 10
139.5
 20
27.775
 10
96.175
 20
27.775
 10
96.175
 20
32.775
 10
101.175
 20
32.775
 10
101.175
 20
33.775
 10
105.625
 20
33.775
 10
105.625
 20
32.6
 10
108.025
 20
32.6
 10
108.025
 20
33.775
 10
110.625
 20
33.775
 10
110.625
 20
36.775
 10
108.025
 20
36.775
 10
108.025
 20
38.1
 10
105.625
 20
38.1
 10
105.625
 20
36.775
 10
101.175
 20
36.775
 10
101.175
 20
37.775
 10
96.175
 20
37.775
 10
96.175
 20
42.775
 10
101.175
 20
42.775
 10
103.425
 20
44.375
 10
105.4
 20
46.325
 10
106.975
 20
48.6
 10
108.15
 20
51.125
 10
108.85
 20
53.8
 10
109.1
 20
56.55
 10
108.85
 20
59.3
 10
108.15
 20
61.975
 10
106.975
 20
64.5
 10
105.4
 20
66.75
 10
103.425
 20
68.725
 10
101.175
 20
70.325
 10
96.175
 20
70.325
 10
96.175
 20
76.1
 10
101.175
 20
76.1
 10
101.175
 20
77.525
 10
105.625
 20
77.525
 10
105.625
 20
76.225
 10
108.025
 20
76.225
 10
108.025
 20
77.525
 10
110.625
 20
77.525
  0
ENDSEC
  0
SECTION
  2
OBJECTS
  0
DICTIONARY
  5
19
100
AcDbDictionary
  3
ACAD_GROUP
350
1A
  3
ACAD_MLINESTYLE
350
1B
  0
DICTIONARY
  5
1A
102
{ACAD_REACTORS
330
19
102
}
100
AcDbDictionary
  0
DICTIONARY
  5
1B
102
{ACAD_REACTORS
330
19
102
}
100
AcDbDictionary
  3
STANDARD
350
1C
  0
MLINESTYLE
  5
1C
102
{ACAD_REACTORS
330
1B
102
}
100
AcDbMlineStyle
  2
STANDARD
 70
     0
  3

 62
     0
 51
90.0
 52
90.0
 71
     2
 49
0.5
 62
   256
  6
BYLAYER
 49
-0.5
 62
   256
  6
BYLAYER
  0
ENDSEC
  0
EOF
