<?xml version="1.0" standalone="no"?>
<!DOCTYPE svg PUBLIC "-//W3C//DTD SVG 20010904//EN" "http://www.w3.org/TR/2001/REC-SVG-20010904/DTD/svg10.dtd">
<svg viewBox="0 0 3000.000000 2069.544922" xmlns="http://www.w3.org/2000/svg">
	<title>/var/www/dwgconverter.org/temp/2a1ff2bottom_platform.dxf</title>
	<desc>AutoCAD drawing</desc>
	<rect x="0" y="0" width="3000.000000" height="2069.544922" fill="black" />
	<g fill="none" stroke-width="0.50mm" >
		<path stroke="#FFFFFF" d="M517 564L519 565L520 565L523 566L526 567L528 569L530 571L532 574L533 577L533 578L533 580L533 581L533 583L532 586L530 589L528 591L526 593L523 594L520 595L519 595L517 595L516 595L514 595L511 594L509 593L506 591L504 589L503 586L502 583L502 581L502 580L502 578L502 577L503 574L504 571L506 569L509 567L511 566L514 565L516 565L517 564M519 1172L520 1173L522 1173L525 1174L528 1175L530 1177L532 1179L533 1182L534 1185L534 1186L534 1188L534 1189L534 1191L533 1194L532 1197L530 1199L528 1201L525 1202L522 1203L520 1203L519 1203L517 1203L516 1203L513 1202L510 1201L508 1199L506 1197L505 1194L504 1191L504 1189L503 1188L504 1186L504 1185L505 1182L506 1179L508 1177L510 1175L513 1174L516 1173L517 1173L519 1172M376 323L372 323L368 322L364 321L360 319L357 318L353 316L350 313L347 311L344 308L342 304L340 301L339 298L337 294L336 290L335 286L335 281L335 277L336 273L337 269L339 265L340 262L342 258L344 255L347 252L350 249L353 247L357 245L360 243L364 242L368 241L372 240L376 240L381 240L385 241L389 242L393 243L396 245L400 247L403 249L406 252L408 255L411 258L413 262L415 265L416 269L417 273L418 277L418 281L418 286L417 290L416 294L415 298L413 301L411 304L408 308L406 311L403 313L400 316L396 318L393 319L389 321L385 322L381 323L376 323M207 208L0 208L0 1L207 1L207 208M540 95L540 93L540 91L541 89L541 87L542 85L543 83L546 80L549 78L551 77L553 76L554 75L556 74L558 74L561 74L563 74L565 74L567 75L569 76L570 77L572 78L575 80L578 83L579 85L580 87L580 89L581 91L581 93L581 95L581 97L581 99L580 101L580 103L579 105L578 106L575 109L572 112L570 113L569 114L567 115L565 115L563 115L561 116L558 115L556 115L554 115L553 114L551 113L549 112L546 109L543 106L542 105L541 103L541 101L540 99L540 97L540 95M741 229L890 229L890 318L741 318L741 229M1441 341L1439 341L1437 340L1435 340L1433 339L1432 338L1430 337L1427 335L1424 332L1423 330L1422 328L1422 326L1421 324L1421 322L1421 320L1421 318L1421 316L1422 314L1422 312L1423 310L1424 309L1427 305L1430 303L1432 302L1433 301L1435 300L1437 300L1439 300L1441 299L1444 300L1446 300L1448 300L1450 301L1451 302L1453 303L1456 305L1459 309L1460 310L1461 312L1461 314L1462 316L1462 318L1462 320L1462 322L1462 324L1461 326L1461 328L1460 330L1459 332L1456 335L1453 337L1451 338L1450 339L1448 340L1446 340L1444 341L1441 341M1216 321L1216 323L1216 325L1215 327L1215 329L1214 331L1213 332L1210 335L1207 338L1206 339L1204 340L1202 341L1200 341L1198 341L1196 342L1194 341L1191 341L1190 341L1188 340L1186 339L1184 338L1181 335L1179 332L1177 331L1177 329L1176 327L1175 325L1175 323L1175 321L1175 319L1175 317L1176 315L1177 313L1177 311L1179 309L1181 306L1184 304L1186 303L1188 302L1190 301L1191 301L1194 300L1196 300L1198 300L1200 301L1202 301L1204 302L1206 303L1207 304L1210 306L1213 309L1214 311L1215 313L1215 315L1216 317L1216 319L1216 321M1196 423L1198 423L1200 424L1201 424L1204 425L1205 426L1207 427L1210 429L1213 432L1214 434L1214 436L1215 438L1216 440L1216 442L1216 444L1216 446L1216 448L1215 450L1214 452L1214 454L1213 455L1210 458L1207 461L1205 462L1204 463L1201 463L1200 464L1198 464L1196 464L1193 464L1191 464L1189 463L1188 463L1186 462L1184 461L1181 458L1178 455L1177 454L1176 452L1176 450L1175 448L1175 446L1175 444L1175 442L1175 440L1176 438L1176 436L1177 434L1178 432L1181 429L1184 427L1186 426L1188 425L1189 424L1191 424L1193 423L1196 423M1326 1340L1330 1341L1334 1341L1338 1342L1342 1344L1345 1345L1349 1347L1352 1350L1355 1352L1358 1355L1360 1358L1362 1362L1364 1366L1365 1369L1366 1373L1367 1378L1367 1382L1367 1386L1366 1390L1365 1394L1364 1398L1362 1401L1360 1405L1358 1408L1355 1411L1352 1414L1349 1416L1345 1418L1342 1420L1338 1421L1334 1422L1330 1423L1326 1423L1322 1423L1318 1422L1314 1421L1310 1420L1306 1418L1303 1416L1299 1414L1297 1411L1294 1408L1291 1405L1289 1401L1288 1398L1286 1394L1285 1390L1285 1386L1284 1382L1285 1378L1285 1373L1286 1369L1288 1366L1289 1362L1291 1358L1294 1355L1297 1352L1299 1350L1303 1347L1306 1345L1310 1344L1314 1342L1318 1341L1322 1341L1326 1340M1697 1382L1697 1378L1698 1374L1699 1370L1700 1366L1702 1362L1704 1359L1706 1356L1709 1353L1712 1350L1715 1348L1718 1346L1722 1344L1726 1343L1730 1342L1734 1341L1738 1341L1742 1341L1747 1342L1750 1343L1754 1344L1758 1346L1761 1348L1764 1350L1768 1353L1770 1356L1772 1359L1774 1362L1776 1366L1778 1370L1779 1374L1779 1378L1779 1382L1779 1386L1779 1391L1778 1394L1776 1398L1774 1402L1772 1405L1770 1408L1768 1411L1764 1414L1761 1416L1758 1418L1754 1420L1750 1421L1747 1423L1742 1423L1738 1423L1734 1423L1730 1423L1726 1421L1722 1420L1718 1418L1715 1416L1712 1414L1709 1411L1706 1408L1704 1405L1702 1402L1700 1398L1699 1394L1698 1391L1697 1386L1697 1382M2007 689L2007 637L2060 637L2060 689L2007 689M2074 663L2074 661L2075 660L2075 657L2077 654L2079 652L2081 650L2084 649L2086 648L2088 647L2090 647L2091 647L2093 648L2096 649L2098 650L2101 652L2103 654L2104 657L2105 660L2105 661L2105 663L2105 664L2105 666L2104 669L2103 671L2101 674L2098 676L2096 677L2093 678L2091 678L2090 678L2088 678L2086 678L2084 677L2081 676L2079 674L2077 671L2075 669L2075 666L2074 664L2074 663M2121 637L2180 637L2180 689L2121 689L2121 637M2465 637L2518 637L2518 689L2465 689L2465 637M2529 662L2529 661L2529 659L2530 656L2532 654L2533 652L2536 650L2538 648L2541 647L2543 647L2544 647L2546 647L2547 647L2550 648L2553 650L2555 652L2557 654L2559 656L2559 659L2560 661L2560 662L2560 664L2559 666L2559 668L2557 671L2555 673L2553 675L2550 677L2547 678L2546 678L2544 678L2543 678L2541 678L2538 677L2536 675L2533 673L2532 671L2530 668L2529 666L2529 664L2529 662M2569 637L2619 637L2619 689L2569 689L2569 637M2619 281L2569 281L2569 230L2619 230L2619 281M2560 255L2559 257L2559 258L2558 261L2557 264L2555 266L2553 268L2550 269L2547 270L2546 270L2544 271L2543 270L2541 270L2538 269L2535 268L2533 266L2531 264L2530 261L2529 258L2529 257L2529 255L2529 254L2529 252L2530 249L2531 246L2533 244L2535 242L2538 241L2541 240L2543 240L2544 240L2546 240L2547 240L2550 241L2553 242L2555 244L2557 246L2558 249L2559 252L2559 254L2560 255M2517 230L2517 281L2464 281L2464 230L2517 230M2180 230L2180 281L2121 281L2121 230L2180 230M2105 255L2105 257L2105 258L2104 261L2103 264L2101 266L2099 268L2096 269L2093 270L2091 270L2090 271L2088 270L2087 270L2084 269L2081 268L2079 266L2077 264L2076 261L2075 258L2074 257L2074 255L2074 254L2075 252L2076 249L2077 246L2079 244L2081 242L2084 241L2087 240L2088 240L2090 240L2091 240L2093 240L2096 241L2099 242L2101 244L2103 246L2104 249L2105 252L2105 254L2105 255M2060 230L2060 281L2007 281L2007 230L2060 230M2889 775L2889 774L2889 772L2890 769L2892 767L2893 764L2896 762L2898 761L2901 760L2903 760L2904 760L2906 760L2908 760L2910 761L2913 762L2915 764L2917 767L2919 769L2919 772L2920 774L2920 775L2920 777L2919 778L2919 781L2917 784L2915 786L2913 788L2910 789L2908 790L2906 791L2904 791L2903 791L2901 790L2898 789L2896 788L2893 786L2892 784L2890 781L2889 778L2889 777L2889 775M2904 1525L2906 1525L2907 1525L2910 1526L2913 1527L2915 1529L2917 1532L2918 1534L2919 1537L2920 1539L2920 1540L2920 1542L2919 1543L2918 1546L2917 1549L2915 1551L2913 1553L2910 1554L2907 1555L2906 1556L2904 1556L2903 1556L2901 1555L2898 1554L2895 1553L2893 1551L2891 1549L2890 1546L2889 1543L2889 1542L2889 1540L2889 1539L2889 1537L2890 1534L2891 1532L2893 1529L2895 1527L2898 1526L2901 1525L2903 1525L2904 1525M2569 1591L2569 1593L2569 1595L2568 1598L2566 1600L2564 1602L2562 1604L2559 1606L2557 1607L2555 1607L2554 1607L2552 1607L2550 1607L2548 1606L2545 1604L2542 1602L2541 1600L2539 1598L2538 1595L2538 1593L2538 1591L2538 1590L2538 1588L2539 1585L2541 1583L2542 1580L2545 1579L2548 1577L2550 1576L2552 1576L2554 1576L2555 1576L2557 1576L2559 1577L2562 1579L2564 1580L2566 1583L2568 1585L2569 1588L2569 1590L2569 1591M2654 713L2654 654L2759 654L2759 713L2654 713M2792 208L2792 1L2999 1L2999 208L2792 208M2465 100L2465 98L2464 96L2464 94L2463 92L2462 90L2461 88L2459 85L2456 82L2454 81L2452 81L2450 80L2448 79L2446 79L2444 79L2442 79L2440 79L2438 80L2436 81L2434 81L2433 82L2429 85L2427 88L2426 90L2425 92L2424 94L2424 96L2424 98L2424 100L2424 102L2424 104L2424 106L2425 108L2426 110L2427 111L2429 114L2433 117L2434 118L2436 119L2438 119L2440 120L2442 120L2444 120L2446 120L2448 120L2450 119L2452 119L2454 118L2456 117L2459 114L2461 111L2462 110L2463 108L2464 106L2464 104L2465 102L2465 100M2650 1665L2767 1665L2767 1733L2650 1733L2650 1665M2347 1953L2345 1953L2343 1953L2341 1954L2339 1954L2337 1955L2335 1956L2332 1959L2330 1962L2329 1964L2328 1965L2327 1967L2327 1969L2326 1971L2326 1973L2326 1975L2327 1978L2327 1980L2328 1981L2329 1983L2330 1985L2332 1988L2335 1990L2337 1991L2339 1992L2341 1993L2343 1993L2345 1994L2347 1994L2349 1994L2351 1993L2353 1993L2355 1992L2357 1991L2358 1990L2361 1988L2364 1985L2365 1983L2366 1981L2367 1980L2367 1978L2367 1975L2368 1973L2367 1971L2367 1969L2367 1967L2366 1965L2365 1964L2364 1962L2361 1959L2358 1956L2357 1955L2355 1954L2353 1954L2351 1953L2349 1953L2347 1953M1624 1842L1624 1844L1624 1846L1623 1848L1623 1850L1621 1852L1620 1854L1618 1857L1615 1859L1613 1860L1611 1861L1610 1862L1608 1862L1605 1863L1603 1863L1601 1863L1599 1862L1597 1862L1595 1861L1594 1860L1592 1859L1589 1857L1586 1854L1585 1852L1584 1850L1584 1848L1583 1846L1583 1844L1583 1842L1583 1840L1583 1838L1584 1836L1584 1834L1585 1832L1586 1831L1589 1828L1592 1825L1594 1824L1595 1823L1597 1822L1599 1822L1601 1822L1603 1822L1605 1822L1608 1822L1610 1822L1611 1823L1613 1824L1615 1825L1618 1828L1620 1831L1621 1832L1623 1834L1623 1836L1624 1838L1624 1840L1624 1842M1253 1842L1253 1844L1253 1846L1252 1848L1251 1850L1251 1852L1250 1853L1247 1856L1244 1859L1242 1860L1241 1861L1239 1861L1237 1862L1235 1862L1233 1862L1230 1862L1228 1862L1226 1861L1225 1861L1223 1860L1221 1859L1218 1856L1215 1853L1214 1852L1213 1850L1213 1848L1212 1846L1212 1844L1212 1842L1212 1840L1212 1838L1213 1836L1213 1834L1214 1832L1215 1830L1218 1827L1221 1825L1223 1824L1225 1823L1226 1822L1228 1822L1230 1821L1233 1821L1235 1821L1237 1822L1239 1822L1241 1823L1242 1824L1244 1825L1247 1827L1250 1830L1251 1832L1251 1834L1252 1836L1253 1838L1253 1840L1253 1842M1011 1822L1013 1822L1015 1822L1017 1823L1018 1823L1020 1824L1022 1825L1025 1828L1028 1831L1029 1833L1030 1835L1030 1836L1031 1838L1031 1840L1031 1843L1031 1845L1031 1847L1030 1849L1030 1851L1029 1852L1028 1854L1025 1857L1022 1860L1020 1861L1018 1862L1017 1862L1015 1863L1013 1863L1011 1863L1008 1863L1006 1863L1005 1862L1002 1862L1001 1861L999 1860L996 1857L993 1854L992 1852L992 1851L991 1849L990 1847L990 1845L990 1843L990 1840L990 1838L991 1836L992 1835L992 1833L993 1831L996 1828L999 1825L1001 1824L1002 1823L1005 1823L1006 1822L1008 1822L1011 1822M660 1842L660 1844L660 1846L659 1848L659 1850L658 1852L657 1854L654 1857L651 1859L649 1860L648 1861L646 1862L644 1862L642 1863L640 1863L638 1863L636 1862L633 1862L632 1861L630 1860L628 1859L625 1857L623 1854L622 1852L621 1850L620 1848L619 1846L619 1844L619 1842L619 1840L619 1838L620 1836L621 1834L622 1832L623 1831L625 1828L628 1825L630 1824L632 1823L633 1822L636 1822L638 1822L640 1821L642 1822L644 1822L646 1822L648 1823L649 1824L651 1825L654 1828L657 1831L658 1832L659 1834L659 1836L660 1838L660 1840L660 1842M463 1948L465 1948L468 1948L470 1949L471 1949L473 1950L475 1951L478 1954L480 1957L481 1959L483 1960L483 1962L484 1964L484 1966L484 1968L484 1970L484 1973L483 1975L483 1976L481 1978L480 1980L478 1983L475 1985L473 1987L471 1988L470 1988L468 1989L465 1989L463 1989L461 1989L459 1989L457 1988L455 1988L454 1987L452 1985L449 1983L446 1980L445 1978L444 1976L444 1975L443 1973L443 1970L443 1968L443 1966L443 1964L444 1962L444 1960L445 1959L446 1957L449 1954L452 1951L454 1950L455 1949L457 1949L459 1948L461 1948L463 1948M207 1862L207 2069L0 2069L0 1862L207 1862M0 2069L0 0L2999 0L2999 2069L0 2069M2792 2069L2792 1863L2999 1863L2999 2069L2792 2069" />
		<path stroke="#FF0000" d="M1011 1265L1043 1265L1043 1269L1011 1269L1011 1265M1020 1261L1020 1257L1038 1250L1020 1244L1020 1239L1043 1249L1045 1249L1046 1250L1047 1250L1048 1251L1050 1252L1052 1253L1053 1255L1053 1257L1053 1258L1053 1259L1049 1259L1049 1257L1049 1256L1048 1255L1047 1255L1047 1254L1046 1253L1045 1253L1043 1252L1020 1261M1025 1280L1024 1281L1023 1282L1023 1283L1023 1285L1023 1286L1024 1288L1025 1289L1027 1291L1038 1291L1039 1289L1040 1288L1041 1286L1041 1285L1041 1283L1040 1282L1039 1281L1038 1280L1037 1280L1036 1279L1034 1279L1031 1279L1030 1279L1028 1279L1026 1279L1025 1280M1020 1284L1020 1282L1020 1280L1021 1278L1023 1277L1024 1276L1027 1275L1029 1274L1031 1274L1034 1274L1037 1275L1039 1276L1041 1277L1042 1279L1043 1280L1044 1282L1044 1284L1044 1286L1043 1288L1043 1289L1042 1291L1052 1291L1052 1295L1020 1295L1020 1291L1023 1291L1021 1289L1020 1288L1020 1286L1020 1284M1025 1306L1024 1307L1023 1308L1023 1309L1023 1310L1023 1312L1024 1313L1025 1315L1027 1317L1038 1317L1039 1315L1040 1314L1041 1312L1041 1310L1041 1309L1040 1308L1039 1307L1038 1306L1037 1305L1036 1305L1034 1304L1031 1304L1030 1304L1028 1305L1026 1305L1025 1306M1020 1310L1020 1308L1020 1306L1021 1304L1023 1303L1024 1301L1027 1301L1029 1300L1031 1300L1034 1300L1037 1301L1039 1302L1041 1303L1042 1304L1043 1306L1044 1308L1044 1310L1044 1312L1043 1314L1043 1315L1042 1317L1052 1317L1052 1321L1020 1321L1020 1317L1023 1317L1021 1315L1020 1313L1020 1312L1020 1310M1020 1327L1043 1327L1043 1332L1041 1332L1042 1333L1043 1335L1044 1337L1044 1339L1044 1341L1043 1342L1043 1344L1042 1345L1041 1346L1039 1346L1037 1347L1035 1347L1020 1347L1020 1342L1035 1342L1036 1342L1038 1342L1039 1341L1040 1341L1040 1340L1041 1339L1041 1338L1040 1336L1039 1335L1038 1333L1037 1332L1020 1332L1020 1327M1020 1353L1020 1357L1019 1358L1018 1358L1017 1359L1016 1360L1015 1361L1015 1362L1015 1364L1014 1366L1015 1367L1015 1369L1015 1370L1016 1371L1016 1372L1017 1373L1018 1373L1019 1373L1020 1373L1021 1373L1022 1372L1023 1371L1023 1369L1024 1368L1024 1366L1025 1364L1025 1362L1026 1360L1026 1359L1027 1356L1029 1354L1030 1353L1031 1353L1033 1352L1034 1352L1036 1352L1038 1353L1040 1354L1041 1356L1042 1357L1043 1360L1044 1362L1044 1365L1044 1368L1043 1371L1042 1373L1041 1375L1039 1377L1037 1378L1035 1378L1033 1379L1033 1375L1035 1374L1036 1373L1037 1373L1038 1371L1039 1370L1040 1368L1040 1367L1040 1365L1040 1363L1040 1361L1039 1360L1039 1359L1038 1358L1037 1357L1036 1357L1035 1357L1033 1357L1032 1357L1031 1358L1031 1359L1030 1360L1030 1362L1029 1364L1028 1367L1028 1370L1027 1372L1026 1374L1025 1375L1024 1376L1023 1377L1021 1377L1020 1378L1018 1377L1016 1377L1014 1376L1013 1374L1012 1373L1011 1371L1011 1368L1011 1366L1011 1363L1011 1361L1012 1358L1013 1357L1015 1355L1016 1354L1018 1353L1020 1353M1020 1393L1024 1393L1024 1394L1024 1395L1024 1397L1024 1399L1026 1400L1027 1401L1043 1401L1043 1406L1020 1406L1020 1401L1023 1401L1022 1400L1021 1398L1020 1396L1020 1395L1020 1393M1029 1415L1028 1415L1027 1416L1026 1416L1024 1417L1024 1418L1023 1419L1023 1420L1023 1421L1023 1423L1023 1424L1024 1425L1024 1426L1025 1427L1027 1427L1028 1428L1029 1428L1029 1415M1023 1413L1024 1412L1027 1411L1029 1410L1032 1410L1033 1410L1033 1428L1035 1428L1036 1427L1038 1427L1039 1426L1039 1425L1040 1424L1041 1422L1041 1421L1041 1419L1039 1417L1039 1416L1038 1416L1037 1415L1036 1415L1036 1411L1038 1411L1040 1412L1041 1413L1042 1414L1043 1416L1043 1417L1044 1419L1044 1421L1044 1424L1043 1426L1042 1428L1041 1430L1039 1431L1037 1432L1035 1432L1032 1433L1029 1432L1027 1432L1024 1431L1023 1430L1021 1428L1020 1426L1020 1424L1020 1421L1020 1419L1020 1417L1021 1415L1023 1413M1020 1434L1043 1442L1043 1446L1026 1451L1043 1456L1043 1460L1020 1468L1020 1463L1038 1459L1020 1453L1020 1449L1038 1444L1020 1439L1020 1434M1032 1474L1030 1474L1028 1474L1026 1475L1025 1476L1024 1477L1023 1478L1023 1479L1023 1481L1023 1482L1023 1483L1024 1485L1025 1486L1026 1486L1028 1487L1030 1487L1032 1487L1034 1487L1036 1487L1037 1486L1038 1486L1039 1485L1040 1483L1041 1482L1041 1481L1041 1479L1040 1478L1039 1477L1038 1476L1037 1475L1036 1474L1034 1474L1032 1474M1023 1472L1024 1471L1027 1470L1029 1470L1032 1469L1035 1470L1037 1470L1039 1471L1041 1472L1042 1474L1043 1476L1044 1478L1044 1481L1044 1483L1043 1485L1042 1487L1041 1489L1039 1490L1037 1491L1035 1492L1032 1492L1029 1492L1027 1491L1024 1490L1023 1489L1021 1487L1020 1485L1020 1483L1020 1481L1020 1478L1020 1476L1021 1474L1023 1472M1021 1500L1019 1500L1017 1501L1016 1502L1015 1504L1015 1505L1015 1507L1015 1508L1015 1516L1027 1516L1027 1508L1027 1506L1026 1504L1026 1503L1025 1502L1024 1501L1023 1501L1022 1500L1021 1500M1012 1502L1012 1500L1013 1499L1014 1498L1015 1497L1016 1496L1018 1496L1019 1496L1021 1496L1023 1496L1025 1496L1027 1497L1028 1499L1029 1501L1030 1503L1030 1505L1030 1508L1030 1516L1043 1516L1043 1521L1011 1521L1011 1508L1011 1506L1011 1504L1012 1503L1012 1502M1067 1546L240 1546L240 408L1067 408L1067 1546M1371 540L1374 538L1377 536L1380 535L1384 535L1387 535L1390 536L1393 537L1395 538L1397 540L1398 541L1399 544L1400 546L1395 546L1395 545L1394 543L1393 542L1392 541L1390 540L1388 539L1386 539L1384 539L1381 539L1379 540L1377 541L1375 542L1374 545L1372 547L1372 550L1372 553L1372 556L1372 559L1374 562L1375 564L1377 565L1379 567L1381 567L1384 567L1386 567L1388 567L1389 567L1391 566L1393 566L1394 565L1395 563L1396 562L1396 557L1386 557L1386 553L1401 553L1401 571L1397 571L1396 567L1394 569L1391 570L1388 571L1384 571L1382 571L1380 571L1379 571L1377 570L1374 569L1372 566L1369 564L1368 561L1367 557L1367 553L1367 549L1368 546L1369 542L1371 540M1411 564L1411 565L1411 566L1412 567L1414 568L1416 568L1418 568L1420 567L1422 566L1424 564L1424 558L1421 558L1418 559L1416 559L1414 559L1413 560L1412 561L1411 561L1411 562L1411 564M1415 571L1413 571L1411 571L1410 570L1408 569L1407 568L1407 567L1406 566L1406 564L1406 562L1407 560L1408 559L1410 557L1412 556L1415 556L1418 555L1422 555L1424 555L1424 554L1424 553L1424 552L1423 551L1423 550L1422 549L1421 549L1420 548L1419 548L1418 548L1416 548L1415 548L1414 549L1413 549L1412 550L1412 551L1411 552L1411 553L1407 553L1407 551L1408 549L1408 548L1410 547L1411 546L1413 545L1415 545L1418 545L1420 545L1422 545L1424 546L1426 547L1427 548L1428 550L1428 552L1429 554L1429 571L1424 571L1424 568L1422 570L1420 571L1417 571L1415 571M1435 571L1435 536L1440 536L1440 571L1435 571M1454 571L1444 545L1449 545L1456 565L1463 545L1468 545L1458 571L1454 571M1478 565L1479 567L1480 567L1482 568L1483 568L1485 568L1486 567L1488 567L1489 565L1490 564L1490 562L1491 560L1491 558L1491 556L1490 554L1490 552L1489 551L1488 550L1486 549L1485 548L1483 548L1482 548L1480 549L1479 550L1478 551L1477 552L1476 554L1476 556L1476 558L1476 560L1476 562L1477 564L1478 565M1483 571L1481 571L1478 570L1476 569L1474 568L1473 566L1472 564L1471 561L1471 558L1471 555L1472 552L1473 550L1474 548L1476 547L1478 546L1481 545L1483 545L1486 545L1488 546L1491 547L1492 548L1494 550L1495 552L1495 555L1496 558L1495 561L1495 564L1494 566L1492 568L1491 569L1488 570L1486 571L1483 571M1143 580L1143 167L1505 167L1505 580L1143 580M1446 1421L1456 1421L1470 1464L1485 1421L1495 1421L1495 1473L1488 1473L1488 1429L1473 1473L1467 1473L1452 1429L1452 1473L1446 1473L1446 1421M1506 1421L1513 1421L1513 1429L1506 1429L1506 1421M1506 1436L1513 1436L1513 1473L1506 1473L1506 1436M1523 1436L1530 1436L1530 1441L1531 1439L1532 1438L1533 1437L1534 1436L1535 1436L1537 1435L1538 1435L1539 1435L1541 1435L1542 1435L1542 1442L1542 1441L1541 1441L1540 1441L1538 1441L1537 1441L1536 1442L1535 1442L1534 1443L1532 1443L1531 1444L1531 1445L1530 1447L1530 1473L1523 1473L1523 1436M1547 1436L1554 1436L1554 1441L1555 1439L1556 1438L1557 1437L1559 1436L1560 1436L1561 1435L1563 1435L1564 1435L1565 1435L1567 1435L1567 1442L1566 1441L1565 1441L1564 1441L1563 1441L1562 1441L1560 1442L1559 1442L1558 1443L1557 1443L1556 1444L1555 1445L1554 1447L1554 1473L1547 1473L1547 1436M1579 1444L1578 1446L1577 1448L1577 1451L1576 1454L1577 1457L1577 1460L1578 1463L1579 1465L1581 1466L1583 1468L1585 1468L1587 1469L1589 1468L1591 1468L1593 1466L1595 1465L1596 1463L1597 1460L1598 1457L1598 1454L1598 1451L1597 1448L1596 1446L1595 1444L1593 1442L1591 1441L1589 1440L1587 1440L1585 1440L1583 1441L1581 1442L1579 1444M1574 1440L1576 1439L1577 1438L1578 1437L1580 1436L1581 1435L1583 1435L1585 1435L1587 1435L1589 1435L1591 1435L1593 1435L1594 1436L1596 1437L1597 1438L1599 1439L1600 1440L1602 1443L1604 1446L1605 1450L1605 1454L1605 1459L1604 1462L1602 1466L1600 1469L1599 1470L1597 1471L1596 1472L1594 1472L1593 1473L1591 1473L1589 1474L1587 1474L1585 1474L1583 1473L1581 1473L1580 1472L1578 1472L1577 1471L1576 1470L1574 1469L1572 1466L1571 1462L1570 1459L1569 1454L1570 1450L1571 1446L1572 1443L1574 1440M1613 1436L1619 1436L1619 1441L1620 1439L1622 1438L1623 1437L1624 1436L1625 1436L1627 1435L1628 1435L1629 1435L1631 1435L1632 1435L1632 1442L1632 1441L1631 1441L1630 1441L1628 1441L1627 1441L1626 1442L1625 1442L1624 1443L1623 1443L1621 1444L1620 1445L1619 1447L1619 1473L1613 1473L1613 1436M1880 1487L1156 1487L1156 660L1880 660L1880 1487M2585 499L2585 494L2616 494L2616 476L2620 476L2620 499L2585 499M2613 468L2614 468L2615 468L2616 467L2617 465L2617 462L2617 460L2616 458L2615 456L2614 455L2608 455L2608 458L2608 460L2608 462L2609 464L2609 466L2610 467L2611 467L2612 468L2613 468M2621 464L2621 466L2620 467L2620 469L2619 470L2618 471L2617 472L2615 473L2614 473L2611 472L2610 472L2608 471L2607 469L2606 467L2605 464L2605 461L2605 457L2605 455L2603 455L2602 455L2601 455L2599 456L2599 457L2598 457L2598 458L2598 460L2598 461L2598 462L2598 464L2598 465L2599 466L2600 467L2601 467L2602 467L2602 472L2600 472L2599 471L2597 470L2596 469L2595 467L2595 466L2594 463L2594 461L2594 458L2595 456L2595 454L2596 453L2597 452L2599 451L2601 450L2604 450L2620 450L2620 455L2618 455L2619 457L2620 459L2621 461L2621 464M2613 445L2613 440L2614 440L2615 440L2616 439L2617 438L2617 437L2617 436L2617 434L2617 432L2617 431L2617 430L2616 430L2616 429L2615 428L2614 428L2613 428L2612 428L2611 429L2611 430L2610 432L2610 433L2609 436L2609 438L2608 440L2607 441L2607 442L2606 443L2605 444L2603 444L2602 445L2600 444L2599 444L2597 443L2596 442L2595 440L2595 439L2594 437L2594 435L2594 432L2595 430L2595 428L2596 427L2597 426L2598 425L2600 424L2601 424L2601 429L2600 429L2599 430L2598 431L2598 432L2598 433L2598 434L2598 437L2599 438L2599 439L2600 439L2601 440L2603 439L2604 438L2604 437L2605 435L2605 433L2606 430L2607 428L2607 427L2608 426L2609 425L2610 424L2611 423L2613 423L2614 423L2616 424L2617 425L2619 426L2620 428L2620 430L2621 432L2621 434L2621 436L2620 439L2620 440L2619 442L2618 443L2616 444L2615 445L2613 445M2605 415L2605 400L2603 400L2602 401L2601 402L2600 402L2599 403L2598 405L2598 406L2598 407L2598 409L2598 410L2599 411L2600 412L2601 413L2602 414L2603 414L2605 415M2608 419L2605 419L2602 419L2600 418L2598 416L2596 414L2595 412L2595 410L2594 407L2595 404L2595 402L2596 400L2598 398L2600 397L2602 396L2605 395L2608 395L2609 395L2609 415L2611 414L2612 414L2614 413L2615 412L2616 411L2617 410L2617 408L2617 407L2617 404L2617 403L2616 402L2616 401L2615 401L2614 400L2613 400L2613 395L2614 396L2616 397L2618 398L2619 399L2620 401L2620 403L2621 404L2621 407L2621 409L2620 412L2619 414L2617 416L2616 418L2613 419L2611 419L2608 419M2620 390L2595 390L2595 385L2598 385L2597 384L2595 382L2595 380L2594 378L2595 376L2599 376L2599 377L2599 379L2599 381L2600 382L2601 384L2602 385L2620 385L2620 390M2620 372L2616 372L2616 367L2620 367L2620 372M2612 368L2612 371L2593 372L2585 372L2585 367L2593 367L2612 368M1990 211L2640 211L2640 714L1990 714L1990 211M2895 1016L2894 1016L2893 1017L2892 1017L2891 1018L2891 1019L2890 1020L2890 1022L2890 1024L2890 1031L2900 1031L2900 1024L2899 1022L2899 1020L2899 1019L2898 1018L2898 1017L2897 1017L2896 1016L2895 1016M2905 1017L2904 1018L2904 1019L2903 1021L2903 1023L2903 1031L2914 1031L2914 1023L2914 1021L2914 1019L2914 1018L2913 1017L2912 1016L2911 1015L2910 1015L2909 1015L2907 1015L2906 1015L2905 1016L2905 1017M2909 1011L2911 1011L2913 1011L2914 1012L2916 1014L2917 1015L2917 1018L2918 1020L2918 1023L2918 1035L2886 1035L2886 1023L2886 1021L2887 1019L2887 1017L2888 1015L2890 1014L2891 1013L2892 1012L2894 1012L2896 1012L2898 1013L2900 1015L2901 1017L2902 1015L2902 1014L2903 1013L2904 1012L2905 1011L2906 1011L2907 1011L2909 1011M2908 1041L2910 1042L2913 1042L2914 1044L2916 1045L2917 1047L2918 1049L2918 1052L2918 1055L2918 1058L2917 1061L2916 1063L2914 1066L2912 1067L2909 1069L2906 1070L2902 1070L2899 1070L2895 1069L2892 1067L2890 1066L2888 1063L2887 1061L2886 1058L2886 1055L2886 1052L2886 1049L2887 1047L2889 1045L2890 1044L2892 1042L2894 1042L2896 1041L2896 1045L2894 1046L2893 1046L2892 1047L2891 1048L2890 1050L2890 1051L2889 1053L2889 1054L2890 1057L2890 1059L2891 1061L2893 1062L2894 1064L2896 1065L2899 1065L2902 1065L2905 1065L2908 1065L2910 1064L2912 1062L2913 1061L2914 1059L2915 1057L2915 1055L2915 1053L2915 1051L2914 1050L2913 1048L2912 1047L2911 1046L2909 1046L2908 1045L2908 1041M2895 1078L2894 1079L2892 1079L2891 1080L2890 1082L2890 1083L2890 1084L2890 1085L2890 1086L2890 1094L2901 1094L2901 1086L2901 1084L2901 1082L2901 1081L2900 1080L2899 1079L2898 1079L2897 1079L2895 1078M2887 1080L2887 1079L2888 1077L2889 1076L2890 1075L2891 1075L2893 1074L2894 1074L2895 1074L2898 1074L2900 1075L2901 1076L2903 1077L2904 1079L2905 1081L2905 1083L2905 1086L2905 1094L2918 1094L2918 1099L2886 1099L2886 1087L2886 1084L2886 1083L2887 1081L2887 1080M2914 1116L2918 1116L2918 1136L2886 1136L2886 1132L2914 1132L2914 1116M2909 1143L2911 1143L2913 1143L2914 1144L2916 1146L2917 1148L2918 1150L2918 1152L2918 1155L2918 1158L2918 1161L2917 1163L2916 1165L2914 1167L2912 1168L2910 1168L2908 1169L2908 1165L2909 1164L2911 1164L2912 1163L2913 1162L2914 1160L2914 1158L2915 1157L2915 1155L2915 1153L2914 1152L2914 1150L2913 1149L2913 1148L2911 1147L2910 1147L2909 1147L2908 1147L2907 1147L2906 1148L2906 1149L2905 1150L2904 1152L2904 1155L2903 1157L2902 1160L2902 1162L2901 1164L2900 1165L2899 1166L2898 1167L2896 1167L2894 1167L2893 1167L2891 1167L2890 1166L2888 1164L2887 1163L2886 1161L2886 1158L2886 1156L2886 1153L2886 1151L2887 1149L2888 1147L2890 1145L2891 1144L2893 1144L2895 1143L2895 1148L2894 1148L2893 1148L2892 1149L2891 1150L2890 1151L2890 1153L2890 1154L2889 1156L2890 1157L2890 1159L2890 1160L2891 1161L2891 1162L2892 1163L2893 1163L2894 1163L2895 1163L2896 1163L2897 1163L2897 1162L2898 1161L2898 1159L2899 1158L2899 1156L2900 1154L2900 1152L2901 1150L2901 1149L2902 1147L2904 1144L2905 1144L2906 1143L2908 1143L2909 1143M2903 1174L2918 1174L2918 1178L2903 1178L2902 1178L2901 1178L2900 1179L2899 1179L2899 1180L2898 1180L2898 1181L2898 1182L2898 1184L2899 1186L2900 1187L2901 1189L2918 1189L2918 1193L2895 1193L2895 1189L2898 1189L2896 1187L2895 1186L2895 1184L2894 1182L2895 1180L2895 1178L2896 1177L2896 1176L2898 1175L2899 1174L2901 1174L2903 1174M2904 1202L2903 1203L2901 1203L2900 1204L2899 1205L2899 1206L2898 1207L2898 1208L2898 1209L2898 1210L2898 1211L2899 1212L2899 1213L2900 1214L2901 1215L2903 1215L2904 1216L2904 1202M2898 1201L2899 1199L2901 1199L2904 1198L2907 1198L2908 1198L2908 1216L2909 1216L2911 1215L2912 1214L2914 1213L2914 1212L2915 1211L2915 1210L2915 1209L2915 1207L2914 1205L2914 1204L2913 1203L2912 1203L2911 1203L2911 1198L2913 1199L2914 1199L2916 1201L2917 1202L2917 1203L2918 1205L2918 1207L2918 1209L2918 1211L2918 1213L2917 1215L2915 1217L2914 1218L2911 1219L2909 1220L2907 1220L2904 1220L2901 1219L2899 1218L2898 1217L2896 1216L2895 1213L2895 1211L2894 1209L2895 1207L2895 1204L2896 1203L2898 1201M2906 1228L2904 1228L2902 1228L2901 1229L2900 1229L2899 1230L2898 1231L2898 1232L2898 1234L2898 1235L2899 1237L2900 1239L2902 1240L2913 1240L2914 1239L2915 1237L2915 1235L2915 1234L2915 1233L2915 1231L2914 1230L2913 1229L2912 1229L2910 1228L2908 1228L2906 1228M2898 1226L2899 1225L2901 1224L2904 1224L2906 1224L2909 1224L2911 1224L2914 1225L2915 1226L2917 1228L2918 1229L2918 1231L2918 1234L2918 1235L2918 1237L2917 1239L2916 1240L2927 1240L2927 1244L2895 1244L2895 1240L2898 1240L2896 1239L2895 1237L2895 1235L2894 1233L2895 1231L2895 1229L2896 1227L2898 1226M2902 1254L2899 1254L2897 1255L2894 1256L2893 1257L2891 1259L2890 1261L2890 1263L2889 1265L2890 1267L2890 1270L2891 1272L2893 1273L2894 1275L2897 1276L2899 1276L2902 1276L2905 1276L2908 1276L2910 1275L2911 1273L2913 1272L2914 1270L2915 1267L2915 1265L2915 1263L2914 1261L2913 1259L2911 1257L2910 1256L2908 1255L2905 1254L2902 1254M2902 1249L2906 1250L2909 1251L2911 1252L2914 1254L2916 1256L2917 1259L2918 1262L2918 1265L2918 1268L2917 1271L2916 1274L2914 1277L2911 1278L2909 1280L2906 1281L2902 1281L2899 1281L2895 1280L2893 1278L2890 1277L2888 1274L2887 1271L2886 1268L2886 1265L2886 1262L2887 1259L2888 1256L2890 1254L2893 1252L2895 1251L2899 1250L2902 1249M2521 1622L2521 744L2935 744L2935 1622L2521 1622M2082 1983L2082 1988L2076 1988L2076 2009L2076 2010L2077 2012L2077 2013L2078 2014L2080 2014L2083 2014L2083 2019L2081 2019L2078 2019L2077 2019L2075 2019L2074 2019L2073 2018L2072 2017L2071 2016L2070 2015L2070 2014L2070 2013L2070 2012L2070 2010L2070 2008L2070 1988L2065 1988L2065 1983L2070 1983L2070 1974L2076 1974L2076 1983L2082 1983M2059 1995L2059 2019L2053 2019L2053 1996L2053 1994L2052 1992L2052 1990L2051 1989L2050 1989L2049 1988L2048 1988L2046 1988L2045 1988L2043 1988L2042 1988L2041 1989L2040 1990L2038 1991L2037 1992L2036 1993L2036 2019L2029 2019L2029 1983L2036 1983L2036 1988L2037 1986L2038 1985L2040 1984L2041 1984L2043 1983L2044 1983L2045 1982L2047 1982L2050 1982L2052 1983L2054 1984L2056 1985L2058 1987L2059 1990L2059 1992L2059 1995M2015 2001L2015 1998L2015 1995L2014 1992L2012 1991L2011 1989L2009 1988L2007 1987L2005 1987L2002 1987L2001 1988L1999 1989L1997 1991L1996 1992L1995 1995L1994 1998L1994 2001L1994 2004L1995 2007L1996 2009L1997 2011L1999 2013L2001 2014L2002 2014L2005 2015L2007 2014L2009 2014L2011 2013L2012 2011L2014 2009L2015 2007L2015 2004L2015 2001M2022 2001L2022 2005L2021 2009L2020 2012L2017 2015L2015 2017L2012 2018L2009 2019L2005 2020L2001 2019L1998 2018L1995 2017L1992 2015L1990 2012L1989 2009L1988 2005L1987 2001L1988 1997L1989 1993L1990 1990L1992 1987L1995 1985L1998 1983L2001 1983L2005 1982L2009 1983L2012 1983L2015 1985L2017 1987L2020 1990L2021 1993L2022 1997L2022 2001M1985 1989L1984 1989L1981 1988L1980 1989L1979 1989L1978 1989L1977 1990L1976 1990L1975 1991L1974 1992L1973 1993L1973 2019L1966 2019L1966 1983L1973 1983L1973 1988L1974 1987L1975 1985L1976 1984L1977 1984L1978 1983L1980 1983L1981 1982L1982 1982L1985 1982L1985 1989M1958 1975L1930 1975L1930 1991L1954 1991L1954 1996L1930 1996L1930 2019L1924 2019L1924 1969L1958 1969L1958 1975M1203 1613L1197 1613L1197 1596L1181 1573L1187 1573L1200 1591L1212 1573L1219 1573L1203 1596L1203 1613M1162 1554L1684 1554L1684 1883L1162 1883L1162 1554M620 1613L613 1613L602 1598L591 1613L584 1613L599 1594L586 1576L592 1576L602 1590L612 1576L618 1576L605 1594L620 1613M569 1555L1091 1555L1091 1883L569 1883L569 1555" />
	</g>
</svg>
