<?xml version="1.0" standalone="no"?>
<!DOCTYPE svg PUBLIC "-//W3C//DTD SVG 20010904//EN" "http://www.w3.org/TR/2001/REC-SVG-20010904/DTD/svg10.dtd">
<svg viewBox="0 0 3000.000000 1808.367676" xmlns="http://www.w3.org/2000/svg">
	<title>/var/www/dwgconverter.org/temp/2a1ff2laser_mount.dxf</title>
	<desc>AutoCAD drawing</desc>
	<rect x="0" y="0" width="3000.000000" height="1808.367676" fill="black" />
	<g fill="none" stroke-width="0.50mm" >
		<path stroke="#FFFFFF" d="M955 0L955 104L1058 104L1058 455L955 455L955 558L1873 558L1873 455L1770 455L1770 104L1873 104L1873 0L1598 0L1598 82L1621 134L1631 190L1625 246L1605 299L1572 345L1528 381L1476 404L1420 413L1364 407L1311 387L1265 354L1229 310L1206 259L1197 203L1203 147L1223 94L1231 82L1231 0L955 0M918 2L568 2L595 25L622 65L638 109L641 157L632 204L611 247L580 283L541 310L496 325L448 329L402 320L359 299L323 269L296 229L280 184L276 136L285 89L306 46L337 10L349 2L0 2L0 105L103 105L103 171L183 171L183 147L232 147L232 258L183 258L183 235L103 235L103 329L0 329L0 432L103 432L103 536L268 536L649 536L814 536L814 432L918 432L918 329L814 329L814 235L734 235L734 258L686 258L686 146L734 146L734 171L814 171L814 105L918 105L918 2M918 573L568 573L595 596L622 635L638 680L641 728L632 775L611 817L580 854L541 880L496 896L448 900L402 891L359 870L323 839L296 800L280 754L276 707L285 661L306 617L337 581L349 573L0 573L0 676L103 676L103 742L183 742L183 718L232 718L232 829L183 829L183 806L103 806L103 900L0 900L0 1003L103 1003L103 1107L268 1107L649 1107L814 1107L814 1003L918 1003L918 900L814 900L814 806L734 806L734 829L686 829L686 716L734 716L734 742L814 742L814 676L918 676L918 573M1112 607L1215 607L1215 710L1112 710L1112 607M1061 725L1164 725L1164 828L1061 828L1061 725M1112 842L1215 842L1215 946L1112 946L1112 842M1281 880L1284 873L1289 867L1296 862L1303 859L1311 858L1319 859L1327 862L1333 867L1338 873L1341 880L1342 889L1341 896L1338 904L1333 910L1327 916L1319 919L1311 920L1303 919L1296 916L1289 910L1284 904L1281 896L1280 889L1281 880M1439 842L1542 842L1542 946L1439 946L1439 842M1515 828L1515 725L1618 725L1618 828L1515 828M1542 710L1439 710L1439 607L1542 607L1542 710M1342 665L1339 673L1334 679L1328 684L1320 687L1312 688L1304 687L1297 684L1290 679L1285 673L1282 665L1281 657L1282 649L1285 642L1290 636L1297 631L1304 627L1312 626L1320 627L1328 631L1334 636L1339 642L1342 649L1343 657L1342 665M1314 1100L1322 1102L1330 1105L1336 1110L1341 1117L1345 1124L1346 1132L1345 1141L1341 1148L1336 1155L1330 1160L1322 1163L1314 1165L1305 1163L1298 1160L1291 1155L1286 1148L1283 1141L1282 1132L1283 1124L1286 1117L1291 1110L1298 1105L1305 1102L1314 1100M1311 1338L1319 1339L1327 1342L1333 1347L1338 1354L1341 1361L1342 1369L1341 1377L1338 1385L1333 1391L1327 1396L1319 1399L1311 1400L1303 1399L1296 1396L1289 1391L1284 1385L1281 1377L1280 1369L1281 1361L1284 1354L1289 1347L1296 1342L1303 1339L1311 1338M1215 1323L1215 1426L1112 1426L1112 1323L1215 1323M1439 1323L1542 1323L1542 1426L1439 1426L1439 1323M1439 1621L1542 1621L1542 1724L1439 1724L1439 1621M1341 1663L1342 1671L1341 1679L1338 1687L1333 1693L1327 1698L1319 1701L1311 1702L1303 1701L1296 1698L1289 1693L1284 1687L1281 1679L1280 1671L1281 1663L1284 1656L1289 1649L1296 1644L1303 1641L1311 1640L1319 1641L1327 1644L1333 1649L1338 1656L1341 1663M1215 1621L1215 1724L1112 1724L1112 1621L1215 1621M1061 1808L1956 1808L1956 1705L1852 1705L1852 1685L1760 1685L1760 1709L1711 1709L1711 1685L1657 1685L1657 1623L1711 1623L1711 1596L1760 1596L1760 1623L1852 1623L1852 1602L1956 1602L1956 1499L1852 1499L1805 1466L1765 1425L1732 1378L1708 1327L1694 1271L1689 1215L1694 1157L1708 1102L1732 1050L1765 1003L1805 963L1852 930L1956 930L1956 810L1852 810L1852 781L1760 781L1760 808L1711 808L1711 781L1657 781L1657 719L1711 719L1711 694L1760 694L1760 719L1852 719L1852 689L1956 689L1956 586L943 586L943 951L1061 1095L1061 1808M843 1673L843 1569L946 1569L946 1466L843 1466L843 1372L763 1372L763 1395L714 1395L714 1283L763 1283L763 1308L843 1308L843 1243L946 1243L946 1139L597 1139L623 1162L650 1202L666 1247L669 1294L660 1341L640 1384L609 1420L569 1447L524 1462L477 1466L430 1457L387 1437L351 1406L324 1366L308 1321L305 1273L313 1226L334 1184L365 1147L377 1139L28 1139L28 1243L131 1243L131 1308L212 1308L212 1284L260 1284L260 1395L212 1395L212 1372L131 1372L131 1466L28 1466L28 1569L131 1569L131 1673L296 1673L677 1673L843 1673M1969 1695L2073 1695L2073 1798L2238 1798L2619 1798L2784 1798L2784 1695L2888 1695L2888 1592L2784 1592L2784 1497L2704 1497L2704 1521L2656 1521L2656 1408L2704 1408L2704 1433L2784 1433L2784 1367L2888 1367L2888 1264L2539 1264L2565 1287L2592 1327L2607 1372L2611 1419L2602 1466L2581 1509L2550 1545L2511 1572L2466 1588L2418 1591L2371 1582L2328 1562L2292 1531L2265 1491L2250 1446L2246 1398L2255 1351L2276 1309L2307 1272L2319 1264L1969 1264L1969 1367L2073 1367L2073 1433L2153 1433L2153 1409L2201 1409L2201 1521L2153 1521L2153 1497L2073 1497L2073 1592L1969 1592L1969 1695L2073 1695L2073 1798L2238 1798L2619 1798L2784 1798L2784 1695L2888 1695L2888 1592L2784 1592L2784 1497L2704 1497L2704 1521L2656 1521L2656 1408L2704 1408L2704 1433L2784 1433L2784 1367L2888 1367L2888 1264L2539 1264L2565 1287L2592 1327L2607 1372L2611 1419L2602 1466L2581 1509L2550 1545L2511 1572L2466 1588L2418 1591L2371 1582L2328 1562L2292 1531L2265 1491L2250 1446L2246 1398L2255 1351L2276 1309L2307 1272L2319 1264L1969 1264L1969 1367L2073 1367L2073 1433L2153 1433L2153 1409L2201 1409L2201 1521L2153 1521L2153 1497L2073 1497L2073 1592L1969 1592L1969 1695M2400 1150L2503 1150L2503 1047L2400 1047L2400 1150M2601 1105L2604 1113L2609 1119L2615 1124L2623 1127L2630 1128L2639 1127L2646 1124L2653 1119L2657 1113L2660 1105L2661 1097L2660 1089L2657 1082L2653 1075L2646 1070L2639 1067L2630 1066L2623 1067L2615 1070L2609 1075L2604 1082L2601 1089L2599 1097L2601 1105M2727 1150L2830 1150L2830 1047L2727 1047L2727 1150M2727 852L2830 852L2830 749L2727 749L2727 852M2657 811L2660 803L2661 795L2660 787L2657 780L2653 773L2646 768L2639 765L2630 764L2623 765L2615 768L2609 773L2604 780L2601 787L2599 795L2601 803L2604 811L2609 817L2615 822L2623 825L2630 826L2639 825L2646 822L2653 817L2657 811M2503 852L2503 749L2400 749L2400 852L2503 852M2612 586L2620 590L2628 591L2637 590L2644 586L2651 581L2656 574L2659 566L2660 558L2659 550L2656 542L2651 536L2644 530L2637 527L2628 526L2620 527L2612 530L2606 536L2601 542L2597 550L2596 558L2597 566L2601 574L2606 581L2612 586M2503 372L2503 269L2400 269L2400 372L2503 372M2604 330L2609 337L2615 341L2623 344L2630 346L2639 344L2646 341L2653 337L2657 330L2660 323L2661 314L2660 307L2657 299L2653 293L2646 288L2639 285L2630 284L2623 285L2615 288L2609 293L2604 299L2601 307L2599 314L2601 323L2604 330M2727 372L2830 372L2830 269L2727 269L2727 372M2778 254L2881 254L2881 150L2778 150L2778 254M2727 136L2830 136L2830 33L2727 33L2727 136M2657 99L2660 91L2661 83L2660 75L2657 68L2652 61L2645 56L2638 53L2630 52L2622 53L2614 56L2608 61L2603 68L2600 75L2599 83L2600 91L2603 99L2608 105L2614 110L2622 113L2630 114L2638 113L2645 110L2652 105L2657 99M2503 136L2503 33L2400 33L2400 136L2503 136M2427 150L2324 150L2324 254L2427 254L2427 150M2285 145L2231 145L2231 120L2182 120L2182 145L2090 145L2090 115L1986 115L1986 12L2999 12L2999 376L2881 521L2881 1235L1986 1235L1986 1131L2090 1131L2090 1111L2182 1111L2182 1135L2231 1135L2231 1111L2285 1111L2285 1049L2231 1049L2231 1021L2182 1021L2182 1049L2090 1049L2090 1028L1986 1028L1986 925L2090 925L2136 892L2177 852L2210 805L2234 752L2248 697L2253 640L2248 584L2234 528L2210 476L2177 430L2136 389L2090 356L1986 356L1986 236L2090 236L2090 207L2182 207L2182 234L2231 234L2231 207L2285 207L2285 145" />
	</g>
</svg>
