<?xml version="1.0" standalone="no"?>
<!DOCTYPE svg PUBLIC "-//W3C//DTD SVG 20010904//EN" "http://www.w3.org/TR/2001/REC-SVG-20010904/DTD/svg10.dtd">
<svg viewBox="0 0 3000.000000 2068.172119" xmlns="http://www.w3.org/2000/svg">
	<title>/var/www/dwgconverter.org/temp/2a1ff2top_platform.dxf</title>
	<desc>AutoCAD drawing</desc>
	<rect x="0" y="0" width="3000.000000" height="2068.172119" fill="black" />
	<g fill="none" stroke-width="0.50mm" >
		<path stroke="#FFFFFF" d="M107 429L109 429L111 429L113 430L115 430L117 431L118 432L121 435L124 438L125 439L126 441L127 443L127 445L127 447L127 449L127 451L127 453L127 455L126 457L125 459L124 461L121 464L118 467L117 468L115 468L113 469L111 470L109 470L107 470L105 470L103 470L100 469L99 468L97 468L95 467L92 464L90 461L89 459L88 457L87 455L87 453L86 451L86 449L86 447L87 445L87 443L88 441L89 439L90 438L92 435L95 432L97 431L99 430L100 430L103 429L105 429L107 429M281 568L281 566L281 565L282 562L284 559L286 557L288 555L291 553L294 552L295 552L297 552L299 552L300 552L303 553L306 555L308 557L310 559L312 562L313 565L313 566L313 568L313 570L313 571L312 574L310 577L308 580L306 581L303 583L300 584L299 584L297 584L295 584L294 584L291 583L288 581L286 580L284 577L282 574L281 571L281 570L281 568M337 727L337 721L337 715L338 709L339 703L340 697L342 692L344 686L346 681L348 676L351 671L354 666L357 661L360 656L364 652L368 647L372 643L376 639L380 635L385 632L389 629L394 626L399 623L404 620L409 618L415 616L420 614L426 612L432 611L438 610L444 609L450 609L456 608L462 609L468 609L474 610L480 611L485 612L491 614L497 616L502 618L507 620L512 623L517 626L522 629L527 632L531 635L536 639L540 643L544 647L547 652L551 656L554 661L557 666L560 671L563 676L565 681L567 686L569 692L571 697L572 703L573 709L574 715L574 721L575 727L574 733L574 739L573 745L572 751L571 757L569 763L567 768L565 773L563 779L560 784L557 789L554 794L551 799L547 803L544 807L540 812L536 815L531 819L527 823L522 826L517 829L512 832L507 835L502 837L497 839L491 841L485 842L480 844L474 845L468 846L462 846L456 846L450 846L444 846L438 845L432 844L426 842L420 841L415 839L409 837L404 835L399 832L394 829L389 826L385 823L380 819L376 815L372 812L368 807L364 803L360 799L357 794L354 789L351 784L348 779L346 773L344 768L342 763L340 757L339 751L338 745L337 739L337 733L337 727M597 568L597 566L597 565L598 562L599 559L601 557L604 555L606 553L609 552L611 552L613 552L614 552L616 552L619 553L622 555L624 557L626 559L627 562L628 565L629 566L629 568L629 570L628 571L627 574L626 577L624 580L622 581L619 583L616 584L614 584L613 584L611 584L609 584L606 583L604 581L601 580L599 577L598 574L597 571L597 570L597 568M617 872L618 872L620 872L623 873L626 875L628 877L630 879L631 882L632 885L633 886L633 888L633 890L632 891L631 894L630 897L628 899L626 901L623 903L620 904L618 904L617 904L615 904L613 904L611 903L608 901L605 899L603 897L602 894L601 891L601 890L601 888L601 886L601 885L602 882L603 879L605 877L608 875L611 873L613 872L615 872L617 872M311 887L311 889L310 891L310 894L308 896L306 899L304 901L301 902L298 903L297 903L295 903L293 903L292 903L288 902L286 901L284 899L282 896L280 894L279 891L279 889L279 887L279 886L279 884L280 881L282 878L284 876L286 874L288 872L292 872L293 871L295 871L297 871L298 872L301 872L304 874L306 876L308 878L310 881L310 884L311 886L311 887M105 1600L107 1600L109 1600L111 1601L113 1602L115 1602L117 1603L120 1606L122 1609L123 1611L124 1613L125 1615L125 1617L126 1618L126 1621L126 1623L125 1625L125 1627L124 1629L123 1631L122 1632L120 1635L117 1638L115 1639L113 1640L111 1640L109 1641L107 1641L105 1641L103 1641L101 1641L99 1640L97 1640L95 1639L93 1638L90 1635L88 1632L87 1631L86 1629L85 1627L85 1625L84 1623L84 1621L84 1618L85 1617L85 1615L86 1613L87 1611L88 1609L90 1606L93 1603L95 1602L97 1602L99 1601L101 1600L103 1600L105 1600M983 1546L983 512L2017 512L2017 1546L983 1546M2896 1646L2899 1646L2901 1646L2902 1645L2904 1645L2906 1644L2908 1643L2911 1640L2914 1637L2915 1635L2915 1634L2916 1632L2917 1630L2917 1628L2917 1626L2917 1623L2917 1621L2916 1619L2915 1617L2915 1616L2914 1614L2911 1611L2908 1608L2906 1607L2904 1606L2902 1606L2901 1605L2899 1605L2896 1605L2894 1605L2892 1605L2890 1606L2888 1606L2887 1607L2885 1608L2882 1611L2879 1614L2878 1616L2877 1617L2877 1619L2876 1621L2876 1623L2876 1626L2876 1628L2876 1630L2877 1632L2877 1634L2878 1635L2879 1637L2882 1640L2885 1643L2887 1644L2888 1645L2890 1645L2892 1646L2894 1646L2896 1646M2706 908L2708 908L2710 908L2713 907L2715 906L2718 904L2720 901L2721 899L2722 896L2722 894L2722 892L2722 891L2722 889L2721 886L2720 883L2718 881L2715 879L2713 877L2710 877L2708 876L2706 876L2705 876L2703 877L2700 877L2698 879L2695 881L2693 883L2692 886L2691 889L2691 891L2690 892L2691 894L2691 896L2692 899L2693 901L2695 904L2698 906L2700 907L2703 908L2705 908L2706 908M2546 851L2552 851L2558 851L2564 850L2570 849L2575 847L2581 846L2586 844L2592 842L2597 839L2602 837L2607 834L2612 831L2617 828L2621 824L2626 820L2630 816L2634 812L2637 808L2641 803L2644 799L2647 794L2650 789L2653 784L2655 778L2657 773L2659 768L2661 762L2662 756L2663 750L2664 744L2664 738L2665 732L2664 726L2664 720L2663 714L2662 708L2661 702L2659 697L2657 691L2655 686L2653 681L2650 676L2647 671L2644 666L2641 661L2637 657L2634 652L2630 648L2626 644L2621 640L2617 637L2612 634L2607 631L2602 628L2597 625L2592 623L2586 620L2581 619L2575 617L2570 616L2564 615L2558 614L2552 613L2546 613L2539 613L2533 614L2528 615L2522 616L2516 617L2510 619L2505 620L2499 623L2494 625L2489 628L2484 631L2479 634L2475 637L2470 640L2466 644L2462 648L2457 652L2454 657L2450 661L2447 666L2444 671L2441 676L2438 681L2436 686L2434 691L2432 697L2430 702L2429 708L2428 714L2427 720L2427 726L2427 732L2427 738L2427 744L2428 750L2429 756L2430 762L2432 768L2434 773L2436 778L2438 784L2441 789L2444 794L2447 799L2450 803L2454 808L2457 812L2462 816L2466 820L2470 824L2475 828L2479 831L2484 834L2489 837L2494 839L2499 842L2505 844L2510 846L2516 847L2522 849L2528 850L2533 851L2539 851L2546 851M2704 589L2706 589L2707 589L2711 588L2713 586L2716 584L2718 582L2719 579L2720 576L2720 575L2720 573L2720 571L2720 570L2719 567L2718 564L2716 562L2713 560L2711 558L2707 557L2706 557L2704 557L2703 557L2701 557L2698 558L2695 560L2693 562L2691 564L2690 567L2689 570L2688 571L2688 573L2688 575L2689 576L2690 579L2691 582L2693 584L2695 586L2698 588L2701 589L2703 589L2704 589M2874 454L2874 456L2874 458L2875 460L2875 462L2876 464L2877 466L2880 469L2883 471L2885 472L2886 473L2888 474L2890 475L2892 475L2895 475L2897 475L2899 475L2901 474L2903 473L2904 472L2906 471L2909 469L2912 466L2913 464L2914 462L2914 460L2915 458L2915 456L2915 454L2915 452L2915 450L2914 448L2914 446L2913 444L2912 443L2909 440L2906 437L2904 436L2903 435L2901 435L2899 434L2897 434L2895 434L2892 434L2890 434L2888 435L2886 435L2885 436L2883 437L2880 440L2877 443L2876 444L2875 446L2875 448L2874 450L2874 452L2874 454M2405 573L2405 571L2404 570L2403 567L2402 564L2400 562L2398 560L2395 558L2392 557L2390 557L2389 557L2387 557L2385 557L2383 558L2380 560L2377 562L2376 564L2374 567L2373 570L2373 571L2373 573L2373 575L2373 576L2374 579L2376 582L2377 584L2380 586L2383 588L2385 589L2387 589L2389 589L2390 589L2392 589L2395 588L2398 586L2400 584L2402 582L2403 579L2404 576L2405 575L2405 573M2385 877L2383 877L2382 877L2378 878L2376 880L2373 882L2371 884L2370 886L2369 890L2369 891L2369 893L2369 895L2369 896L2370 899L2371 902L2373 904L2376 906L2378 908L2382 908L2383 909L2385 909L2386 909L2388 908L2391 908L2394 906L2396 904L2398 902L2399 899L2400 896L2401 895L2401 893L2401 891L2400 890L2399 886L2398 884L2396 882L2394 880L2391 878L2388 877L2386 877L2385 877M2443 119L2445 119L2447 118L2449 118L2451 117L2453 116L2454 115L2457 113L2460 110L2461 108L2462 106L2462 104L2463 102L2463 100L2463 98L2463 96L2463 94L2462 92L2462 90L2461 88L2460 87L2457 83L2454 81L2453 80L2451 79L2449 78L2447 78L2445 78L2443 78L2441 78L2439 78L2437 78L2435 79L2433 80L2431 81L2428 83L2426 87L2425 88L2424 90L2423 92L2422 94L2422 96L2422 98L2422 100L2422 102L2423 104L2424 106L2425 108L2426 110L2428 113L2431 115L2433 116L2435 117L2437 118L2439 118L2441 119L2443 119M579 93L579 95L579 97L578 100L578 101L577 103L576 105L573 108L570 110L568 111L567 112L565 113L563 113L561 114L559 114L557 114L555 113L552 113L551 112L549 111L547 110L544 108L542 105L541 103L540 101L539 100L538 97L538 95L538 93L538 91L538 89L539 87L540 85L541 83L542 82L544 79L547 76L549 75L551 74L552 73L555 73L557 73L559 73L561 73L563 73L565 73L567 74L568 75L570 76L573 79L576 82L577 83L578 85L578 87L579 89L579 91L579 93M0 0L2999 0L2999 730L2791 730L2791 1353L2999 1353L2999 2068L0 2068L0 1347L212 1347L212 722L0 722L0 0M2391 1277L2598 1277L2598 1339L2391 1339L2391 1277M677 1122L680 1119L684 1117L688 1117L693 1117L697 1119L700 1122L703 1125L704 1129L705 1133L704 1138L703 1141L700 1145L697 1148L693 1149L688 1150L684 1149L680 1148L677 1145L674 1141L673 1138L672 1133L673 1129L674 1125L677 1122M688 1511L693 1511L697 1513L700 1516L703 1519L704 1523L705 1527L704 1531L703 1535L700 1539L697 1542L693 1543L688 1544L684 1543L680 1542L677 1539L674 1535L673 1531L672 1527L673 1523L674 1519L677 1516L680 1513L684 1511L688 1511M2284 1122L2288 1119L2292 1117L2296 1117L2300 1117L2304 1119L2307 1122L2310 1125L2312 1129L2312 1133L2312 1138L2310 1141L2307 1145L2304 1147L2300 1149L2296 1150L2292 1149L2288 1147L2284 1145L2281 1141L2280 1138L2279 1133L2280 1129L2281 1125L2284 1122M2296 1511L2300 1511L2304 1513L2307 1516L2310 1519L2312 1523L2312 1527L2312 1531L2310 1535L2307 1539L2304 1541L2300 1543L2296 1544L2292 1543L2288 1541L2284 1539L2281 1535L2280 1531L2279 1527L2280 1523L2281 1519L2284 1516L2288 1513L2292 1511L2296 1511M1722 217L1725 221L1726 224L1727 229L1726 233L1725 237L1722 240L1719 243L1714 245L1710 245L1706 245L1702 243L1699 240L1696 237L1695 233L1694 229L1695 224L1696 221L1699 217L1702 214L1706 213L1710 212L1714 213L1719 214L1722 217M1333 229L1332 233L1331 237L1328 240L1325 243L1320 245L1316 245L1312 245L1308 243L1305 240L1302 237L1301 233L1300 229L1301 224L1302 221L1305 217L1308 214L1312 213L1316 212L1320 213L1325 214L1328 217L1331 221L1332 224L1333 229" />
		<path stroke="#FF0000" d="M2233 1806L2233 1833L2236 1836L2239 1838L2241 1839L2243 1839L2245 1839L2247 1840L2250 1839L2252 1839L2254 1838L2255 1837L2256 1837L2258 1835L2259 1834L2260 1832L2261 1831L2262 1829L2262 1827L2263 1824L2263 1822L2263 1818L2263 1814L2262 1810L2261 1807L2259 1804L2257 1801L2254 1800L2252 1799L2251 1799L2249 1798L2247 1798L2244 1799L2242 1799L2240 1800L2238 1801L2236 1802L2235 1803L2234 1804L2233 1806M2232 1798L2233 1798L2233 1797L2234 1796L2236 1795L2238 1794L2240 1793L2242 1792L2245 1791L2249 1791L2251 1791L2253 1791L2255 1792L2258 1792L2260 1793L2262 1794L2263 1796L2265 1797L2267 1799L2268 1801L2269 1803L2271 1806L2271 1808L2272 1812L2272 1815L2272 1818L2272 1821L2272 1824L2272 1826L2271 1828L2270 1832L2268 1836L2266 1839L2264 1841L2262 1843L2259 1845L2256 1846L2254 1846L2251 1847L2248 1847L2246 1847L2243 1847L2241 1846L2240 1845L2238 1845L2236 1844L2234 1842L2233 1841L2233 1872L2224 1872L2224 1792L2230 1792L2232 1798M2287 1792L2294 1792L2295 1801L2297 1799L2299 1797L2301 1795L2303 1794L2306 1793L2309 1792L2311 1791L2314 1791L2316 1791L2317 1791L2317 1799L2316 1799L2313 1799L2310 1800L2307 1801L2304 1802L2302 1803L2299 1804L2297 1806L2296 1808L2296 1846L2287 1846L2287 1792M2319 1792L2328 1792L2346 1834L2363 1792L2373 1792L2339 1872L2329 1872L2341 1845L2319 1792M2383 1792L2390 1792L2392 1800L2395 1796L2397 1795L2399 1793L2402 1792L2404 1792L2407 1791L2410 1791L2414 1791L2417 1792L2420 1793L2423 1795L2424 1796L2425 1798L2426 1799L2427 1801L2427 1803L2428 1805L2428 1807L2428 1810L2428 1846L2419 1846L2419 1811L2419 1808L2419 1805L2418 1803L2417 1801L2415 1800L2413 1799L2411 1799L2409 1798L2406 1799L2404 1799L2402 1800L2400 1801L2398 1802L2395 1804L2394 1806L2392 1808L2392 1846L2383 1846L2383 1792M2438 1792L2448 1792L2448 1778L2457 1778L2457 1792L2474 1792L2474 1800L2457 1800L2457 1831L2457 1833L2458 1834L2458 1836L2460 1837L2461 1838L2463 1839L2465 1839L2467 1839L2469 1839L2471 1839L2475 1838L2475 1846L2473 1846L2471 1847L2469 1847L2466 1847L2461 1847L2458 1846L2455 1845L2453 1843L2451 1841L2449 1838L2449 1836L2448 1832L2448 1800L2438 1800L2438 1792M2495 1807L2494 1810L2493 1813L2521 1813L2521 1810L2520 1807L2519 1805L2518 1803L2516 1801L2514 1799L2511 1799L2508 1798L2505 1799L2502 1800L2500 1801L2498 1803L2496 1805L2495 1807M2486 1807L2487 1804L2488 1802L2490 1800L2491 1798L2493 1796L2495 1795L2497 1794L2499 1793L2501 1792L2504 1791L2506 1791L2509 1791L2511 1791L2513 1791L2515 1792L2517 1792L2519 1793L2521 1794L2523 1795L2524 1797L2526 1799L2527 1801L2528 1803L2529 1805L2530 1808L2530 1811L2531 1814L2531 1817L2531 1818L2531 1819L2531 1820L2531 1821L2493 1821L2493 1823L2493 1825L2494 1828L2494 1829L2495 1831L2496 1833L2498 1834L2499 1835L2500 1836L2502 1837L2505 1838L2509 1839L2513 1839L2517 1839L2521 1839L2525 1838L2529 1837L2529 1844L2527 1845L2526 1845L2523 1846L2521 1846L2517 1847L2512 1847L2509 1847L2506 1847L2503 1846L2501 1846L2498 1845L2496 1844L2494 1842L2492 1841L2490 1839L2488 1837L2487 1835L2486 1832L2485 1830L2484 1827L2484 1823L2484 1820L2484 1816L2484 1813L2485 1810L2486 1807M2531 1796L2538 1802L2536 1809L2535 1817L2531 1819L2533 1828L2536 1826L2539 1834L2542 1838L2536 1846L2544 1851L2549 1844L2555 1847L2560 1849L2561 1858L2570 1858L2571 1848L2576 1847L2582 1845L2589 1851L2595 1845L2589 1838L2592 1833L2594 1828L2576 1821L2572 1828L2565 1830L2556 1826L2554 1818L2556 1810L2563 1804L2572 1806L2576 1811L2588 1795L2587 1795L2594 1784L2586 1779L2578 1788L2571 1786L2566 1785L2563 1775L2554 1776L2555 1788L2549 1790L2545 1794L2537 1788L2531 1796M2520 1884L2518 1884L2517 1884L2516 1885L2515 1886L2515 1899L2516 1900L2517 1900L2518 1901L2520 1901L2522 1901L2523 1900L2525 1900L2526 1899L2527 1897L2528 1896L2528 1894L2528 1892L2528 1890L2528 1889L2527 1887L2526 1886L2525 1885L2523 1884L2522 1884L2520 1884M2517 1882L2519 1882L2521 1882L2523 1882L2525 1882L2527 1883L2528 1884L2529 1886L2530 1888L2531 1890L2531 1892L2531 1894L2530 1897L2529 1898L2528 1900L2527 1901L2525 1902L2523 1903L2521 1903L2519 1903L2517 1903L2516 1902L2515 1901L2515 1913L2512 1913L2512 1882L2515 1882L2515 1883L2516 1883L2517 1882M2507 1887L2507 1889L2507 1892L2506 1894L2505 1896L2503 1898L2502 1899L2500 1900L2499 1901L2497 1902L2495 1903L2493 1903L2491 1903L2487 1903L2484 1902L2481 1900L2479 1898L2476 1896L2475 1893L2474 1892L2474 1890L2474 1889L2474 1887L2474 1885L2474 1884L2474 1882L2475 1881L2477 1878L2479 1876L2481 1874L2484 1872L2487 1871L2491 1871L2494 1871L2497 1872L2500 1874L2502 1876L2505 1878L2506 1881L2507 1884L2507 1885L2507 1887M2505 1887L2504 1884L2503 1882L2502 1879L2500 1877L2498 1875L2496 1874L2493 1873L2491 1873L2488 1873L2485 1874L2483 1875L2481 1877L2479 1879L2478 1882L2477 1884L2476 1887L2477 1890L2478 1892L2479 1895L2481 1897L2483 1899L2485 1900L2488 1901L2491 1901L2493 1901L2496 1900L2498 1899L2500 1897L2502 1895L2503 1892L2504 1890L2505 1887M2537 1890L2550 1890L2550 1888L2550 1887L2549 1886L2548 1885L2547 1884L2546 1884L2545 1884L2544 1884L2543 1884L2541 1884L2540 1884L2539 1885L2538 1886L2538 1887L2537 1888L2537 1890M2544 1882L2546 1882L2548 1882L2549 1883L2551 1884L2552 1886L2552 1888L2553 1889L2553 1891L2537 1891L2537 1892L2537 1894L2537 1895L2538 1897L2539 1898L2540 1899L2541 1900L2543 1901L2544 1901L2546 1901L2548 1900L2551 1899L2553 1898L2553 1900L2551 1902L2548 1902L2547 1903L2545 1903L2542 1903L2540 1902L2538 1901L2537 1900L2536 1898L2535 1897L2534 1894L2534 1892L2534 1890L2535 1888L2536 1886L2537 1884L2538 1883L2540 1882L2542 1882L2544 1882M2557 1882L2560 1882L2560 1885L2562 1884L2563 1883L2565 1882L2567 1882L2569 1882L2570 1882L2572 1883L2573 1884L2574 1885L2574 1887L2575 1888L2575 1890L2575 1903L2572 1903L2572 1891L2572 1889L2572 1888L2572 1887L2571 1885L2570 1885L2569 1884L2568 1884L2567 1884L2565 1884L2563 1885L2561 1886L2560 1888L2560 1903L2557 1903L2557 1882M2580 1879L2580 1877L2581 1876L2581 1875L2582 1873L2584 1872L2585 1872L2587 1871L2589 1871L2591 1871L2593 1872L2595 1872L2597 1873L2597 1876L2595 1875L2593 1874L2591 1873L2589 1873L2588 1873L2586 1874L2585 1874L2584 1875L2584 1876L2583 1877L2583 1878L2582 1879L2583 1881L2584 1882L2584 1883L2585 1884L2587 1885L2589 1885L2590 1886L2592 1887L2593 1887L2595 1888L2596 1889L2596 1890L2597 1891L2597 1893L2598 1894L2597 1896L2597 1898L2596 1899L2595 1901L2593 1902L2592 1903L2590 1903L2588 1903L2586 1903L2584 1902L2582 1902L2580 1900L2580 1897L2582 1899L2584 1900L2586 1900L2588 1901L2590 1900L2591 1900L2592 1900L2593 1899L2594 1898L2595 1897L2595 1896L2595 1894L2595 1892L2594 1891L2593 1890L2592 1889L2590 1889L2588 1888L2586 1887L2584 1886L2583 1885L2582 1884L2581 1883L2580 1882L2580 1881L2580 1879M2603 1871L2606 1871L2606 1900L2621 1900L2621 1903L2603 1903L2603 1871M2607 1846L2598 1846L2598 1764L2607 1764L2607 1800L2609 1798L2611 1796L2613 1795L2615 1793L2617 1792L2620 1792L2622 1791L2625 1791L2629 1791L2632 1792L2633 1792L2635 1793L2637 1794L2639 1796L2640 1797L2641 1799L2642 1800L2643 1802L2643 1804L2643 1807L2643 1810L2643 1846L2635 1846L2635 1811L2634 1808L2634 1806L2633 1803L2632 1802L2630 1800L2629 1799L2626 1799L2624 1798L2621 1799L2619 1799L2617 1800L2615 1801L2613 1802L2611 1804L2609 1806L2607 1808L2607 1846M2644 1871L2646 1871L2646 1903L2644 1903L2644 1871M2673 1875L2675 1873L2676 1872L2679 1871L2681 1871L2683 1871L2685 1872L2686 1873L2688 1875L2689 1878L2690 1880L2691 1883L2691 1887L2691 1891L2690 1894L2689 1896L2688 1899L2686 1901L2685 1902L2683 1903L2681 1903L2679 1903L2676 1902L2675 1901L2673 1899L2672 1896L2671 1894L2671 1891L2671 1887L2671 1883L2671 1880L2672 1878L2673 1875M2681 1873L2679 1873L2677 1874L2676 1875L2675 1877L2674 1879L2673 1881L2673 1884L2673 1887L2673 1890L2673 1893L2674 1895L2675 1897L2676 1899L2677 1900L2679 1901L2681 1901L2682 1901L2684 1900L2685 1899L2686 1897L2687 1895L2688 1893L2688 1890L2688 1887L2688 1884L2688 1881L2687 1879L2686 1877L2685 1875L2684 1874L2682 1873L2681 1873M2665 1898L2665 1903L2661 1903L2661 1898L2665 1898" />
	</g>
</svg>
