<?xml version="1.0" standalone="no"?>
<!DOCTYPE svg PUBLIC "-//W3C//DTD SVG 20010904//EN" "http://www.w3.org/TR/2001/REC-SVG-20010904/DTD/svg10.dtd">
<svg viewBox="0 0 3000.000000 1829.397339" xmlns="http://www.w3.org/2000/svg">
	<title>/var/www/dwgconverter.org/temp/2a1ff2z_mount_right.dxf</title>
	<desc>AutoCAD drawing</desc>
	<rect x="0" y="0" width="3000.000000" height="1829.397339" fill="black" />
	<g fill="none" stroke-width="0.50mm" >
		<path stroke="#FFFFFF" d="M227 1067L234 1067L240 1068L252 1073L262 1078L272 1086L279 1096L285 1106L288 1118L290 1124L291 1131L290 1137L288 1143L285 1155L279 1167L272 1175L262 1184L252 1189L240 1193L234 1194L227 1194L220 1194L213 1193L202 1189L191 1184L182 1175L174 1167L168 1155L165 1143L164 1137L164 1131L164 1124L165 1118L168 1106L174 1096L182 1086L191 1078L202 1073L213 1068L220 1067L227 1067M808 1395L808 1384L810 1374L812 1364L816 1354L820 1345L826 1336L832 1328L838 1321L846 1314L854 1307L863 1302L872 1298L882 1295L892 1291L903 1290L913 1289L924 1290L934 1291L944 1295L955 1298L963 1302L972 1307L980 1314L987 1321L995 1328L1001 1336L1006 1345L1011 1354L1014 1364L1017 1374L1018 1384L1019 1395L1018 1407L1017 1417L1014 1427L1011 1436L1006 1446L1001 1454L995 1463L987 1470L980 1477L972 1483L963 1488L955 1493L944 1496L934 1499L924 1501L913 1501L903 1501L892 1499L882 1496L872 1493L863 1488L854 1483L846 1477L838 1470L832 1463L826 1454L820 1446L816 1436L812 1427L810 1417L808 1407L808 1395M920 590L908 590L897 588L888 586L878 582L869 578L860 572L852 566L845 560L837 552L832 544L827 535L821 526L818 516L816 506L814 495L814 485L814 474L816 464L818 453L821 443L827 434L832 425L837 417L845 410L852 403L860 397L869 392L878 387L888 384L897 381L908 380L920 379L930 380L941 381L950 384L960 387L969 392L978 397L986 403L994 410L1001 417L1006 425L1012 434L1017 443L1020 453L1022 464L1024 474L1024 485L1024 495L1022 506L1020 516L1017 526L1012 535L1006 544L1001 552L994 560L986 566L978 572L969 578L960 582L950 586L941 588L930 590L920 590M1734 489L1734 477L1736 467L1738 457L1742 448L1746 438L1752 430L1757 421L1764 414L1772 406L1780 401L1789 396L1798 391L1808 387L1818 385L1828 383L1839 383L1850 383L1861 385L1870 387L1881 391L1889 396L1899 401L1906 406L1913 414L1921 421L1927 430L1932 438L1937 448L1940 457L1943 467L1944 477L1945 489L1944 500L1943 510L1940 520L1937 529L1932 539L1927 547L1921 556L1913 563L1906 570L1899 576L1889 581L1881 586L1870 589L1861 593L1850 594L1839 595L1828 594L1818 593L1808 589L1798 586L1789 581L1780 576L1772 570L1764 563L1757 556L1752 547L1746 539L1742 529L1738 520L1736 510L1734 500L1734 489M2347 248L2348 242L2349 235L2352 224L2358 212L2366 203L2375 195L2386 190L2398 185L2404 184L2410 184L2417 184L2423 185L2436 190L2446 195L2456 203L2463 212L2470 224L2473 235L2474 242L2474 248L2474 254L2473 261L2470 272L2463 284L2456 292L2446 301L2436 306L2423 310L2417 311L2410 311L2404 311L2398 310L2386 306L2375 301L2366 292L2358 284L2352 272L2349 261L2348 254L2347 248M2606 402L2622 402L2635 404L2650 409L2664 414L2677 419L2689 427L2700 435L2711 446L2720 455L2728 467L2736 479L2742 492L2748 506L2751 520L2754 534L2754 550L2754 565L2751 580L2748 594L2742 607L2736 620L2728 633L2720 644L2711 655L2700 664L2689 673L2677 680L2664 687L2650 691L2635 695L2622 697L2606 698L2591 697L2576 695L2563 691L2549 687L2536 680L2523 673L2512 664L2501 655L2492 644L2483 633L2476 620L2470 607L2465 594L2461 580L2459 565L2458 550L2459 534L2461 520L2465 506L2470 492L2476 479L2483 467L2492 455L2501 446L2512 435L2523 427L2536 419L2549 414L2563 409L2576 404L2591 402L2606 402M2730 248L2730 242L2731 235L2735 223L2740 212L2748 202L2757 195L2769 190L2780 185L2787 184L2793 184L2799 184L2806 185L2817 190L2828 195L2837 202L2846 212L2851 223L2855 235L2856 242L2856 248L2856 254L2855 261L2851 272L2846 283L2837 292L2828 301L2817 306L2806 310L2799 310L2793 311L2787 310L2780 310L2769 306L2757 301L2748 292L2740 283L2735 272L2731 261L2730 254L2730 248M2793 809L2799 809L2806 810L2817 815L2828 820L2837 828L2846 838L2851 848L2855 860L2856 866L2856 873L2856 879L2855 885L2851 898L2846 909L2837 918L2828 926L2817 931L2806 935L2799 936L2793 936L2787 936L2780 935L2769 931L2757 926L2748 918L2740 909L2735 898L2731 885L2730 879L2730 873L2730 866L2731 860L2735 848L2740 838L2748 828L2757 820L2769 815L2780 810L2787 809L2793 809M2480 866L2480 874L2479 880L2475 892L2470 902L2461 912L2452 919L2441 926L2429 929L2423 930L2417 930L2410 930L2404 929L2392 926L2381 919L2372 912L2364 902L2358 892L2354 880L2353 874L2353 866L2353 860L2354 854L2358 842L2364 832L2372 822L2381 815L2392 808L2404 805L2410 804L2417 803L2423 804L2429 805L2441 808L2452 815L2461 822L2470 832L2475 842L2479 854L2480 860L2480 866M1935 1400L1935 1412L1932 1422L1930 1432L1927 1441L1922 1451L1917 1459L1911 1468L1904 1475L1896 1483L1888 1488L1880 1493L1870 1499L1861 1502L1851 1504L1840 1506L1829 1506L1818 1506L1808 1504L1798 1502L1789 1499L1779 1493L1771 1488L1762 1483L1755 1475L1747 1468L1742 1459L1737 1451L1732 1441L1728 1432L1725 1422L1724 1412L1723 1400L1724 1390L1725 1379L1728 1370L1732 1360L1737 1351L1742 1342L1747 1334L1755 1326L1762 1319L1771 1314L1779 1308L1789 1303L1798 1300L1808 1297L1818 1296L1829 1295L1840 1296L1851 1297L1861 1300L1870 1303L1880 1308L1888 1314L1896 1319L1904 1326L1911 1334L1917 1342L1922 1351L1927 1360L1930 1370L1932 1379L1935 1390L1935 1400M2199 1520L2193 1829L502 1829L502 1480L144 1481L0 1309L0 952L146 788L504 788L504 83L2282 87L2375 0L2884 2L2994 94L2999 967L2870 1098L2620 1098L2199 1520" />
	</g>
</svg>
