<?xml version="1.0" standalone="no"?>
<!DOCTYPE svg PUBLIC "-//W3C//DTD SVG 1.1//EN" "http://www.w3.org/Graphics/SVG/1.1/DTD/svg11.dtd">
<svg width="151.706859mm" height="51.3500000000001mm"
 viewBox="0 0 151.706859 51.3500000000001"
 xmlns="http://www.w3.org/2000/svg" version="1.1"
 xmlns:xlink="http://www.w3.org/1999/xlink">
<desc>Output from Flights of Ideas SVG Sketchup Plugin</desc>

<g id="text_annotations" font-size="10" stroke="rgb(255,0,0)" stroke-width="1">
</g>
  <path id="face0-cut"
 style="fill:none;stroke:rgb(0,0,255);stroke-width:1;stroke-miterlimit:4;stroke-dasharray:none;stroke-linejoin:round;stroke-linecap:round"
        d="M 10.0,10.0 L 10.0,15.7508112959243 L 16.3499999999999,15.7508112959243 L 16.3499999999999,22.1008112959243 L 10.0,22.1008112959243 L 10.0,26.0094089970125 L 12.2125237382108,26.2607850226208 L 14.3896507576508,26.7282988081092 L 16.510319355003,27.4074275872089 L 18.5540140103038,28.2916014130442 L 20.5009638557462,29.3722667163314 L 22.3323339406586,30.6389690533015 L 24.030407442344,32.079454242837 L 25.5787570600601,33.6797869144137 L 26.9624039340583,35.4244853200048 L 28.1679625522875,37.2966711057672 L 29.1837702429232,39.2782325946044 L 29.9999999999999,41.35 L 30.8234194269621,41.35 L 30.8234194269621,31.35 L 37.1734194269621,31.35 L 37.1734194269621,41.35 L 129.65,41.3499999999999 L 129.65,30.492395 L 135.99,30.4923949999999 L 135.99,41.3500000000001 L 141.706859,41.35 L 141.706859,10.0 L 136.0,10.0 L 136.0,16.3499999999999 L 29.9999999999999,16.35 L 29.9999999999999,10.0 L 10.0,10.0 "
  />
</svg>
