<?xml version="1.0" encoding="UTF-8" standalone="no"?>
<svg
   xmlns:dc="http://purl.org/dc/elements/1.1/"
   xmlns:cc="http://creativecommons.org/ns#"
   xmlns:rdf="http://www.w3.org/1999/02/22-rdf-syntax-ns#"
   xmlns:svg="http://www.w3.org/2000/svg"
   xmlns="http://www.w3.org/2000/svg"
   xmlns:sodipodi="http://sodipodi.sourceforge.net/DTD/sodipodi-0.dtd"
   xmlns:inkscape="http://www.inkscape.org/namespaces/inkscape"
   width="245.181117272042mm"
   height="229.999965156704mm"
   viewBox="0 0 245.181117272042 229.999965156704"
   version="1.1"
   id="svg2"
   inkscape:version="0.48.2 r9819"
   sodipodi:docname="front_door.svg">
  <metadata
     id="metadata12">
    <rdf:RDF>
      <cc:Work
         rdf:about="">
        <dc:format>image/svg+xml</dc:format>
        <dc:type
           rdf:resource="http://purl.org/dc/dcmitype/StillImage" />
        <dc:title></dc:title>
      </cc:Work>
    </rdf:RDF>
  </metadata>
  <defs
     id="defs10" />
  <sodipodi:namedview
     pagecolor="#ffffff"
     bordercolor="#666666"
     borderopacity="1"
     objecttolerance="10"
     gridtolerance="10"
     guidetolerance="10"
     inkscape:pageopacity="0"
     inkscape:pageshadow="2"
     inkscape:window-width="1280"
     inkscape:window-height="845"
     id="namedview8"
     showgrid="false"
     inkscape:zoom="0.81906889"
     inkscape:cx="581.37724"
     inkscape:cy="515.16935"
     inkscape:window-x="40"
     inkscape:window-y="1"
     inkscape:window-maximized="0"
     inkscape:current-layer="svg2" />
  <desc
     id="desc4">Output from Flights of Ideas SVG Sketchup Plugin</desc>
  <path
     id="face0-cut"
     style="fill:none;stroke:#0000ff;stroke-width:1;stroke-linecap:round;stroke-linejoin:round;stroke-miterlimit:4;stroke-dasharray:none"
     d="m 10,219.99997 225.18112,0 0,-209.999957 L 20.928417,10 l 0,125.46798 L 10,155.46797 l 0,64.532 m 75.560632,-37.09819 0.08012,0.60854 -0.08012,0.60855 -0.23489,0.56707 -0.373656,0.48696 -0.486959,0.37366 -0.567075,0.23489 -0.608547,0.0801 -0.608547,-0.0801 -0.567075,-0.23489 -0.486958,-0.37366 -0.373657,-0.48696 -0.23489,-0.56707 -0.08012,-0.60855 0.08012,-0.60854 0.23489,-0.56708 0.373657,-0.48696 0.486958,-0.37365 0.567075,-0.23489 0.608547,-0.0801 0.608547,0.0801 0.567075,0.23489 0.486959,0.37365 0.373656,0.48696 0.23489,0.56708 m 63.997478,-0.02 0.0828,0.6285 -0.0828,0.62851 -0.24259,0.58567 -0.38591,0.50293 -0.50293,0.38591 -0.58568,0.2426 -0.6285,0.0827 -0.62851,-0.0827 -0.58568,-0.2426 -0.50293,-0.38591 -0.38591,-0.50293 -0.24259,-0.58567 -0.0828,-0.62851 0.0828,-0.6285 0.24259,-0.58568 0.38591,-0.50293 0.50293,-0.38591 0.58568,-0.24259 0.62851,-0.0828 0.6285,0.0828 0.58568,0.24259 0.50293,0.38591 0.38591,0.50293 0.24259,0.58568"
     inkscape:connector-curvature="0"
     sodipodi:nodetypes="ccccccccccccccccccccccccccccccccccccccccccccccccccccccccc" />
  <g
     id="text_annotations"
     font-size="10"
     stroke="rgb(255,0,0)"
     stroke-width="1" />
</svg>
