<?xml version="1.0" encoding="UTF-8" standalone="no"?>
<svg
   xmlns:dc="http://purl.org/dc/elements/1.1/"
   xmlns:cc="http://creativecommons.org/ns#"
   xmlns:rdf="http://www.w3.org/1999/02/22-rdf-syntax-ns#"
   xmlns:svg="http://www.w3.org/2000/svg"
   xmlns="http://www.w3.org/2000/svg"
   xmlns:sodipodi="http://sodipodi.sourceforge.net/DTD/sodipodi-0.dtd"
   xmlns:inkscape="http://www.inkscape.org/namespaces/inkscape"
   width="154.905870606268mm"
   height="229.999965156704mm"
   viewBox="0 0 154.905870606268 229.999965156704"
   version="1.1"
   id="svg2"
   inkscape:version="0.48.2 r9819"
   sodipodi:docname="front_base.svg">
  <metadata
     id="metadata12">
    <rdf:RDF>
      <cc:Work
         rdf:about="">
        <dc:format>image/svg+xml</dc:format>
        <dc:type
           rdf:resource="http://purl.org/dc/dcmitype/StillImage" />
        <dc:title></dc:title>
      </cc:Work>
    </rdf:RDF>
  </metadata>
  <defs
     id="defs10" />
  <sodipodi:namedview
     pagecolor="#ffffff"
     bordercolor="#666666"
     borderopacity="1"
     objecttolerance="10"
     gridtolerance="10"
     guidetolerance="10"
     inkscape:pageopacity="0"
     inkscape:pageshadow="2"
     inkscape:window-width="640"
     inkscape:window-height="480"
     id="namedview8"
     showgrid="false"
     inkscape:zoom="0.28958458"
     inkscape:cx="274.43954"
     inkscape:cy="407.48026"
     inkscape:window-x="630"
     inkscape:window-y="174"
     inkscape:window-maximized="0"
     inkscape:current-layer="svg2" />
  <desc
     id="desc4">Output from Flights of Ideas SVG Sketchup Plugin</desc>
  <g
     id="text_annotations"
     font-size="10"
     stroke="rgb(255,0,0)"
     stroke-width="1" />
  <path
     id="face0-cut"
     style="fill:none;stroke:rgb(0,0,255);stroke-width:1;stroke-miterlimit:4;stroke-dasharray:none;stroke-linejoin:round;stroke-linecap:round"
     d="M 144.905870606268,10.0 L 10.0,10.0 L 10.0000000000007,219.999965156704 L 133.570324306299,219.999952288062 L 133.570324306299,155.467958342315 L 144.905870606268,135.467969302607 L 144.905870606268,10.0 M 75.1287100038905,170.967908214248 L 104.128700167299,170.967908214248 L 104.128700167299,192.96790826959 L 75.1287100038905,192.96790826959 L 75.1287100038905,170.967908214248 M 59.2828186187096,139.167998311089 L 120.782821250801,139.167998311089 L 120.782821250801,145.467976691103 L 59.2828186187097,145.467976691103 L 59.2828186187096,139.167998311089 M 76.5035811202365,207.21924536083 L 75.8738995942182,207.290940068869 L 75.2471179900263,207.19721826769 L 74.6659504381809,206.94446694316 L 74.1700025469155,206.549910680354 L 73.7930723454272,206.040437836548 L 73.5608470040409,205.450768144104 L 73.4891522960015,204.821086618085 L 73.5828740971806,204.194305013894 L 73.8356254217107,203.613137462048 L 74.2301816845163,203.117189570783 L 74.7396545283221,202.740259369295 L 75.3293242207666,202.508034027908 L 75.959005746785,202.436339319869 L 76.5857873509769,202.530061121048 L 77.1669549028222,202.782812445578 L 77.6629027940876,203.177368708384 L 78.0398329955759,203.686841552189 L 78.2720583369622,204.276511244634 L 78.3437530450017,204.906192770652 L 78.2500312438225,205.532974374844 L 77.9972799192924,206.11414192669 L 77.6027236564869,206.610089817955 L 77.093250812681,206.987020019443 L 76.5035811202365,207.21924536083 M 32.4596634921563,205.355243590206 L 32.2503084599771,205.962245145226 L 31.8909834646855,206.494378554302 L 31.4061759108981,206.915379804997 L 30.8289246322227,207.196558357814 L 30.1985683493487,207.318752359047 L 29.5580648012406,207.273634489448 L 28.95106324622,207.064279457269 L 28.4189298371439,206.704954461977 L 27.997928586449,206.220146908189 L 27.7167500336325,205.642895629514 L 27.5945560323994,205.01253934664 L 27.6396739019987,204.372035798532 L 27.8490289341779,203.765034243511 L 28.2083539294694,203.232900834435 L 28.693161483257,202.81189958374 L 29.2704127619322,202.530721030924 L 29.9007690448063,202.408527029691 L 30.5412725929144,202.45364489929 L 31.1482741479351,202.662999931469 L 31.6804075570111,203.022324926761 L 32.1014088077061,203.507132480548 L 32.3825873605225,204.084383759224 L 32.5047813617556,204.714740042098 L 32.4596634921563,205.355243590206 M 121.242501990139,135.673613314498 L 121.160677530075,136.295131793551 L 120.920780351615,136.874294815365 L 120.539159051022,137.371633377114 L 120.041820489272,137.753254677707 L 119.462657467459,137.993151856167 L 118.841138988405,138.074976316231 L 118.219620509352,137.993151856167 L 117.640457487539,137.753254677707 L 117.143118925789,137.371633377114 L 116.761497625196,136.874294815365 L 116.521600446736,136.295131793551 L 116.439775986672,135.673613314498 L 116.521600446736,135.052094835444 L 116.761497625196,134.472931813631 L 117.143118925789,133.975593251881 L 117.640457487539,133.593971951288 L 118.219620509352,133.354074772828 L 118.841138988405,133.272250312764 L 119.462657467459,133.354074772828 L 120.041820489272,133.593971951288 L 120.539159051022,133.975593251881 L 120.920780351615,134.472931813631 L 121.160677530075,135.052094835444 L 121.242501990139,135.673613314498 M 63.1262860546984,135.673613314498 L 63.0481270776705,136.267289685703 L 62.8189765517076,136.820507993308 L 62.4544507064647,137.295567323885 L 61.979391375888,137.660093169128 L 61.4261730682832,137.889243695091 L 60.8324966970775,137.967402672119 L 60.2388203258717,137.889243695091 L 59.6856020182671,137.660093169128 L 59.2105426876902,137.295567323885 L 58.8460168424475,136.820507993308 L 58.6168663164845,136.267289685703 L 58.5387073394566,135.673613314498 L 58.6168663164846,135.079936943292 L 58.8460168424474,134.526718635687 L 59.2105426876902,134.05165930511 L 59.6856020182671,133.687133459868 L 60.2388203258717,133.457982933905 L 60.8324966970775,133.379823956877 L 61.4261730682832,133.457982933905 L 61.979391375888,133.687133459868 L 62.4544507064647,134.05165930511 L 62.8189765517076,134.526718635687 L 63.0481270776705,135.079936943292 L 63.1262860546984,135.673613314498 M 63.2425178088561,52.4378522925981 L 63.1603983308464,53.0616116554256 L 62.9196362035346,53.6428628484875 L 62.5366389680189,54.1419945635395 L 62.0375072529668,54.5249917990552 L 61.456256059905,54.765753926367 L 60.8324966970775,54.8478734043767 L 60.2087373342501,54.765753926367 L 59.6274861411882,54.5249917990552 L 59.1283544261361,54.1419945635395 L 58.7453571906204,53.6428628484875 L 58.5045950633087,53.0616116554256 L 58.4224755852989,52.4378522925981 L 58.5045950633086,51.8140929297706 L 58.7453571906204,51.2328417367088 L 59.1283544261361,50.7337100216567 L 59.6274861411882,50.350712786141 L 60.2087373342501,50.1099506588292 L 60.8324966970775,50.0278311808195 L 61.456256059905,50.1099506588293 L 62.0375072529668,50.350712786141 L 62.5366389680189,50.7337100216567 L 62.9196362035346,51.2328417367088 L 63.1603983308464,51.8140929297707 L 63.2425178088561,52.4378522925981 M 119.473092789084,50.0793686004287 L 120.0619799826,50.3232936626906 L 120.567668879896,50.7113224011075 L 120.955697618313,51.2170112984038 L 121.199622680575,51.8058984919193 L 121.282820976794,52.4378522925981 L 121.199622680575,53.0698060932769 L 120.955697618313,53.6586932867925 L 120.567668879896,54.1643821840888 L 120.0619799826,54.5524109225056 L 119.473092789084,54.7963359847676 L 118.841138988405,54.8795342809868 L 118.209185187727,54.7963359847676 L 117.620297994211,54.5524109225056 L 117.114609096915,54.1643821840888 L 116.726580358498,53.6586932867925 L 116.482655296236,53.0698060932769 L 116.399457000017,52.4378522925981 L 116.482655296236,51.8058984919193 L 116.726580358498,51.2170112984038 L 117.114609096915,50.7113224011075 L 117.620297994211,50.3232936626906 L 118.209185187727,50.0793686004287 L 118.841138988405,49.9961703042095 L 119.473092789084,50.0793686004287 M 139.624862848662,24.4845253621441 L 139.705824926222,25.0994933957486 L 139.624862848662,25.7144614293531 L 139.38749404777,26.2875204077503 L 139.009894815057,26.779617308587 L 138.51779791422,27.1572165412998 L 137.944738935823,27.3945853421915 L 137.329770902219,27.475547419752 L 136.714802868614,27.3945853421915 L 136.141743890217,27.1572165412998 L 135.64964698938,26.779617308587 L 135.272047756667,26.2875204077503 L 135.034678955776,25.7144614293531 L 134.953716878215,25.0994933957486 L 135.034678955776,24.4845253621441 L 135.272047756667,23.9114663837469 L 135.64964698938,23.4193694829103 L 136.141743890217,23.0417702501976 L 136.714802868614,22.8044014493058 L 137.329770902219,22.7234393717453 L 137.944738935823,22.8044014493058 L 138.51779791422,23.0417702501975 L 139.009894815057,23.4193694829103 L 139.38749404777,23.9114663837469 L 139.624862848662,24.4845253621441 M 29.4154808518379,22.7326850044136 L 30.0496686970776,22.649192590648 L 30.6838565423171,22.7326850044137 L 31.2748255339487,22.9774723756893 L 31.7823021118148,23.3668728496532 L 32.1717025857788,23.8743494275194 L 32.4164899570545,24.4653184191509 L 32.4999823708199,25.0995062643906 L 32.4164899570545,25.7336941096303 L 32.1717025857788,26.3246631012618 L 31.7823021118148,26.8321396791279 L 31.2748255339487,27.2215401530917 L 30.6838565423171,27.4663275243676 L 30.0496686970776,27.5498199381328 L 29.4154808518379,27.4663275243675 L 28.8245118602064,27.2215401530917 L 28.3170352823402,26.8321396791279 L 27.9276348083763,26.3246631012616 L 27.6828474371006,25.7336941096302 L 27.5993550233352,25.0995062643903 L 27.6828474371006,24.4653184191508 L 27.9276348083763,23.8743494275193 L 28.3170352823402,23.3668728496531 L 28.8245118602064,22.9774723756893 L 29.4154808518379,22.7326850044136 " />
</svg>
