<?xml version="1.0" encoding="UTF-8" standalone="no"?>
<svg
   xmlns:dc="http://purl.org/dc/elements/1.1/"
   xmlns:cc="http://creativecommons.org/ns#"
   xmlns:rdf="http://www.w3.org/1999/02/22-rdf-syntax-ns#"
   xmlns:svg="http://www.w3.org/2000/svg"
   xmlns="http://www.w3.org/2000/svg"
   xmlns:sodipodi="http://sodipodi.sourceforge.net/DTD/sodipodi-0.dtd"
   xmlns:inkscape="http://www.inkscape.org/namespaces/inkscape"
   width="230.0mm"
   height="230.0mm"
   viewBox="0 0 230.0 230.0"
   version="1.1"
   id="svg2"
   inkscape:version="0.48.2 r9819"
   sodipodi:docname="top.svg">
  <metadata
     id="metadata12">
    <rdf:RDF>
      <cc:Work
         rdf:about="">
        <dc:format>image/svg+xml</dc:format>
        <dc:type
           rdf:resource="http://purl.org/dc/dcmitype/StillImage" />
      </cc:Work>
    </rdf:RDF>
  </metadata>
  <defs
     id="defs10" />
  <sodipodi:namedview
     pagecolor="#ffffff"
     bordercolor="#666666"
     borderopacity="1"
     objecttolerance="10"
     gridtolerance="10"
     guidetolerance="10"
     inkscape:pageopacity="0"
     inkscape:pageshadow="2"
     inkscape:window-width="640"
     inkscape:window-height="870"
     id="namedview8"
     showgrid="false"
     inkscape:zoom="0.28958454"
     inkscape:cx="272.80462"
     inkscape:cy="-153.66842"
     inkscape:window-x="0"
     inkscape:window-y="0"
     inkscape:window-maximized="0"
     inkscape:current-layer="svg2" />
  <desc
     id="desc4">Output from Flights of Ideas SVG Sketchup Plugin</desc>
  <g
     id="text_annotations"
     font-size="10"
     stroke="rgb(255,0,0)"
     stroke-width="1" />
  <path
     id="face0-cut"
     style="fill:none;stroke:rgb(0,0,255);stroke-width:1;stroke-miterlimit:4;stroke-dasharray:none;stroke-linejoin:round;stroke-linecap:round"
     d="M 220.0,220.0 L 220.0,10.0 L 10.0,10.0000000000002 L 10.0000000000002,220.0 L 220.0,220.0 M 52.5000246198419,25.0350175018642 L 52.4132926253573,25.693812405676 L 52.1590072839961,26.3077115255031 L 51.7544977215455,26.8348786508455 L 51.2273305962031,27.239388213296 L 50.6134314763761,27.4936735546573 L 49.9546365725643,27.580405549142 L 49.2958416687525,27.4936735546573 L 48.6819425489254,27.239388213296 L 48.154775423583,26.8348786508455 L 47.7502658611326,26.307711525503 L 47.4959805197711,25.6938124056761 L 47.4092485252866,25.0350175018642 L 47.4959805197711,24.3762225980525 L 47.7502658611325,23.7623234782253 L 48.154775423583,23.235156352883 L 48.6819425489254,22.8306467904324 L 49.2958416687525,22.5763614490712 L 49.9546365725643,22.4896294545865 L 50.6134314763761,22.5763614490711 L 51.2273305962032,22.8306467904325 L 51.7544977215456,23.2351563528829 L 52.1590072839961,23.7623234782254 L 52.4132926253573,24.3762225980525 L 52.5000246198419,25.0350175018642 M 177.487775595075,25.0244917012866 L 177.57379481337,24.3711108701467 L 177.825990400682,23.762256862886 L 178.22717564451,23.2394220739206 L 178.750010433475,22.8382368300932 L 179.358864440736,22.5860412427807 L 180.012245271876,22.5000220244853 L 180.665626103016,22.5860412427807 L 181.274480110277,22.8382368300932 L 181.797314899242,23.2394220739206 L 182.198500143069,23.762256862886 L 182.450695730382,24.3711108701467 L 182.536714948677,25.0244917012866 L 182.450695730382,25.6778725324266 L 182.198500143069,26.2867265396873 L 181.797314899242,26.8095613286527 L 181.274480110277,27.2107465724802 L 180.665626103016,27.4629421597927 L 180.012245271876,27.548961378088 L 179.358864440736,27.4629421597927 L 178.750010433475,27.2107465724802 L 178.22717564451,26.8095613286527 L 177.825990400682,26.2867265396873 L 177.57379481337,25.6778725324266 L 177.487775595075,25.0244917012866 M 202.626778782886,49.2744388140342 L 202.880186706243,48.6626579686539 L 203.283300498213,48.1373098468167 L 203.80864862005,47.734196054847 L 204.42042946543,47.4807881314904 L 205.076951180757,47.3943554079473 L 205.733472896083,47.4807881314904 L 206.345253741463,47.734196054847 L 206.8706018633,48.1373098468167 L 207.27371565527,48.6626579686539 L 207.527123578627,49.2744388140342 L 207.61355630217,49.9309605293606 L 207.527123578627,50.5874822446869 L 207.27371565527,51.1992630900672 L 206.8706018633,51.7246112119043 L 206.345253741463,52.1277250038741 L 205.733472896083,52.3811329272307 L 205.076951180757,52.4675656507737 L 204.42042946543,52.3811329272307 L 203.80864862005,52.1277250038741 L 203.283300498213,51.7246112119043 L 202.880186706243,51.1992630900671 L 202.626778782886,50.5874822446869 L 202.540346059343,49.9309605293606 L 202.626778782886,49.2744388140342 M 202.762058291807,178.956377125097 L 203.088434167599,178.389822463343 L 203.550324191659,177.927044976066 L 204.116251322156,177.599582184251 L 204.747648560384,177.429750136 L 205.401487227992,177.429122604742 L 206.033209300303,177.597742355694 L 206.599763962058,177.924118231487 L 207.062541449334,178.386008255546 L 207.39000424115,178.951935386043 L 207.559836289401,179.583332624271 L 207.560463820659,180.23717129188 L 207.391844069707,180.86889336419 L 207.065468193914,181.435448025945 L 206.603578169854,181.898225513221 L 206.037651039358,182.225688305037 L 205.406253801129,182.395520353288 L 204.752415133521,182.396147884546 L 204.12069306121,182.227528133594 L 203.554138399455,181.901152257801 L 203.091360912179,181.439262233741 L 202.763898120364,180.873335103245 L 202.594066072113,180.241937865017 L 202.593438540854,179.588099197408 L 202.762058291807,178.956377125097 M 182.325278767311,206.193260767778 L 181.945130686988,206.73007119943 L 181.438999075068,207.150200696037 L 180.841375964481,207.425018126702 L 180.192988382597,207.535795137683 L 179.538022871607,207.474982458749 L 178.921114248706,207.246724373471 L 178.384303817055,206.866576293147 L 177.964174320448,206.360444681227 L 177.689356889782,205.76282157064 L 177.578579878802,205.114433988756 L 177.639392557736,204.459468477767 L 177.867650643014,203.842559854866 L 178.247798723338,203.305749423214 L 178.753930335258,202.885619926607 L 179.351553445844,202.610802495942 L 179.999941027729,202.500025484961 L 180.654906538718,202.560838163895 L 181.271815161619,202.789096249173 L 181.808625593271,203.169244329497 L 182.228755089878,203.675375941417 L 182.503572520543,204.272999052003 L 182.614349531524,204.921386633888 L 182.553536852589,205.576352144877 L 182.325278767311,206.193260767778 M 52.4517773212638,205.669593127218 L 52.2002371433715,206.276864836167 L 51.800094505368,206.798340874769 L 51.2786184667662,207.198483512772 L 50.671346757817,207.450023690665 L 50.0196639419212,207.535819361012 L 49.3679811260255,207.450023690664 L 48.7607094170762,207.198483512772 L 48.2392333784744,206.798340874769 L 47.8390907404709,206.276864836167 L 47.5875505625787,205.669593127217 L 47.5017548922311,205.017910311322 L 47.5875505625787,204.366227495426 L 47.8390907404709,203.758955786477 L 48.2392333784744,203.237479747875 L 48.7607094170762,202.837337109872 L 49.3679811260254,202.585796931979 L 50.0196639419212,202.500001261632 L 50.671346757817,202.585796931979 L 51.2786184667662,202.837337109872 L 51.800094505368,203.237479747875 L 52.2002371433715,203.758955786477 L 52.4517773212638,204.366227495426 L 52.5375729916112,205.017910311322 L 52.4517773212638,205.669593127218 " />
  <text
     xml:space="preserve"
     style="font-size:11.28888893px;font-style:normal;font-weight:normal;line-height:125%;letter-spacing:0px;word-spacing:0px;fill:#000000;fill-opacity:1;stroke:none;font-family:Sans"
     x="93.559326"
     y="214.40675"
     id="text2989"
     sodipodi:linespacing="125%"><tspan
       sodipodi:role="line"
       id="tspan2991"
       x="93.559326"
       y="214.40675">210mm</tspan></text>
  <text
     xml:space="preserve"
     style="font-size:11.28888893px;font-style:normal;font-weight:normal;line-height:125%;letter-spacing:0px;word-spacing:0px;fill:#000000;fill-opacity:1;stroke:none;font-family:Sans"
     x="75.51017"
     y="-211.33789"
     id="text2993"
     sodipodi:linespacing="125%"
     transform="matrix(-0.03790376,0.99928139,-0.99928139,-0.03790376,0,0)"
     inkscape:transform-center-x="303.88363"
     inkscape:transform-center-y="1198.2684"><tspan
       sodipodi:role="line"
       id="tspan2995"
       x="75.51017"
       y="-211.33789">210mm</tspan></text>
</svg>
