<?xml version="1.0" standalone="no"?>
<!DOCTYPE svg PUBLIC "-//W3C//DTD SVG 1.1//EN" "http://www.w3.org/Graphics/SVG/1.1/DTD/svg11.dtd">
<svg width="220.000673556461mm" height="220.0mm"
 viewBox="0 0 220.000673556461 220.0"
 xmlns="http://www.w3.org/2000/svg" version="1.1"
 xmlns:xlink="http://www.w3.org/1999/xlink">
<desc>Output from Flights of Ideas SVG Sketchup Plugin</desc>

<g id="text_annotations" font-size="10" stroke="rgb(255,0,0)" stroke-width="1">
</g>
  <path id="face0-cut"
 style="fill:none;stroke:rgb(0,0,255);stroke-width:1;stroke-miterlimit:4;stroke-dasharray:none;stroke-linejoin:round;stroke-linecap:round"
        d="M 140.533069001818,138.578903819986 L 140.533069001818,82.7429257802146 L 161.411890588943,82.7429257802146 L 161.411890588943,72.5838455467456 L 173.793541207168,60.000237911247 L 184.24559222823,60.000237911247 L 184.24559222823,50.0117326595967 L 193.717681358459,50.0117326595967 L 193.717681358459,60.0001981540772 L 210.000673556461,60.0001981540772 L 210.0,30.0000000000002 L 190.0,30.0000000000001 L 190.0,10.0 L 30.0,10.0 L 30.0,30.0000000000001 L 10.0,30.0000000000001 L 10.0,190.0 L 30.0,190.0 L 30.0,210.0 L 190.0,210.0 L 190.0,190.0 L 210.0,190.0 L 210.000000000063,161.000226522884 L 193.541717967512,161.000226523876 L 193.541717968461,171.000226488425 L 184.245156433882,171.000226487885 L 184.245156436107,161.000226489433 L 173.793681937783,161.000226489433 L 161.411890588943,148.453723016856 L 161.411890588956,138.578903819986 L 140.533069001818,138.578903819986 M 140.043079689848,176.557377757643 L 134.88552914372,176.557377757635 L 134.88552914372,172.557378428082 L 140.043079689848,172.557378428089 L 140.043079689848,176.557377757643 M 145.081702977832,179.040103563417 L 144.684406421337,178.522336679744 L 144.434655365076,177.919384375493 L 144.349469930799,177.272336854677 L 144.434655365076,176.625289336989 L 144.684406421337,176.022337041292 L 145.081702977832,175.504570169325 L 145.599469930799,175.10727367654 L 146.202422318042,174.857522661043 L 146.849469930799,174.772337240799 L 147.496517543555,174.857522661046 L 148.099469930799,175.107273676544 L 148.617236883765,175.504570169331 L 149.01453344026,176.022337041299 L 149.264284496521,176.625289336997 L 149.349469930799,177.272336854686 L 149.264284496521,177.919384375501 L 149.01453344026,178.522336679751 L 148.617236883765,179.040103563422 L 148.099469930799,179.437400067936 L 147.496517543555,179.687151092034 L 146.849469930799,179.77233651543 L 146.202422318042,179.687151092032 L 145.599469930799,179.437400067932 L 145.081702977832,179.040103563417 M 125.950023985658,70.6172346311509 L 125.950023985658,150.617234631151 L 45.9500239856586,150.617234631151 L 45.9500239856586,70.6172346311509 L 125.950023985658,70.6172346311509 M 38.0396773809105,44.7250650882586 L 43.1972279270381,44.7250650882587 L 43.1972279270381,48.7250650882587 L 38.0396773809104,48.7250650882587 L 38.0396773809105,44.7250650882586 M 47.1779351437203,172.538751431678 L 52.3354856898479,172.538751431698 L 52.335485689848,176.538750760543 L 47.1779351437203,176.538750760535 L 47.1779351437203,172.538751431678 M 125.74727138091,44.7320110882587 L 130.904821927038,44.7320110882587 L 130.904821927038,48.7320110882587 L 125.74727138091,48.7320110882587 L 125.74727138091,44.7320110882587 M 33.3939725233537,45.2676585385801 L 32.9948703775608,45.7840349987428 L 32.4757192452793,46.1795211214291 L 31.8718984182363,46.4271651809498 L 31.2245572879339,46.5100906438996 L 30.5778110826203,46.4226462770192 L 29.975734487389,46.1707912694032 L 29.4593580272263,45.7716891236102 L 29.06387190454,45.2525379913287 L 28.813934658075,44.6775166555595 L 28.8162278450194,44.6487171642858 L 28.7287492237977,44.0304690428032 L 28.7333023820696,44.0013760339834 L 28.813934658075,43.3834214300469 L 28.8207467489498,43.3546298286698 L 29.0636857143366,42.7804690428032 L 29.0726017565659,42.7525532334385 L 29.4609822708313,42.2627020898368 L 29.4717039023589,42.2361767732758 L 29.9908550346404,41.8406906505895 L 30.5946758616833,41.5930465910689 L 31.2420169919858,41.510121128119 L 31.8887631972993,41.5975654949993 L 32.4908397925307,41.8494205026154 L 33.0072162526934,42.2485226484083 L 33.4027023753796,42.7676737806899 L 33.6503464349003,43.3714946077328 L 33.7332718978501,44.0188357380352 L 33.6458275309698,44.6655819433488 L 33.3939725233537,45.2676585385801 M 116.837807327303,179.193362342838 L 116.189020690616,179.263907217219 L 115.544082563073,179.164130017502 L 114.946944412258,178.900830395276 L 114.43830021633,178.491951785465 L 114.052813236668,177.965358590718 L 113.816753773888,177.356937268167 L 113.746208890273,176.708150726387 L 113.845986103059,176.063212696447 L 114.109285760085,175.466074639044 L 114.518164424848,174.957430525103 L 115.044757692047,174.571943609121 L 115.653179100761,174.335884186015 L 116.301965737449,174.265339314358 L 116.946903864992,174.365116510246 L 117.544042015807,174.628416123128 L 118.052686211735,175.037294720602 L 118.438173191397,175.563887903333 L 118.674232654176,176.172309217398 L 118.744777537792,176.821095756476 L 118.645000325006,177.466033790214 L 118.38170066798,178.06317185691 L 117.972822003217,178.571815983166 L 117.446228736017,178.957302911194 L 116.837807327303,179.193362342838 M 30.799763776221,177.810875756093 L 30.4470814720057,178.360004411415 L 29.9642915519824,178.799141078492 L 29.3842953513525,179.098359318035 L 28.7466186527001,179.237267900618 L 28.0947180692276,179.206400435457 L 27.4730195483821,179.007860489391 L 26.9238908169539,178.655178232258 L 26.4847540905115,178.172388378045 L 26.1855358112543,177.592392258631 L 26.0466272104322,176.954715652104 L 26.0774946796337,176.302815166033 L 26.2760346518438,175.681116741264 L 26.6287169560591,175.131988097417 L 27.1115068760824,174.692851442929 L 27.6915030767123,174.393633213712 L 28.3291797753647,174.254724636406 L 28.9810803588371,174.285592100367 L 29.6027788796826,174.484132039082 L 30.1519076111109,174.836814284701 L 30.5910443375533,175.319604126335 L 30.8902626168104,175.899600235473 L 31.0291712176326,176.537276836762 L 30.9983037484311,177.189177324023 L 30.799763776221,177.810875756093 M 56.6418759307986,177.253709857449 L 56.7270613650759,176.606662339854 L 56.9768124213375,176.003710044248 L 57.3741089778322,175.485943172364 L 57.8918759307986,175.088646679645 L 58.4948283180423,174.83889566419 L 59.1418759307986,174.753710243961 L 59.7889235435549,174.838895664192 L 60.3918759307986,175.088646679649 L 60.9096428837649,175.48594317237 L 61.3069394402597,176.003710044256 L 61.5566904965212,176.606662339862 L 61.6418759307986,177.253709857457 L 61.5566904965213,177.900757378183 L 61.3069394402597,178.503709682354 L 60.909642883765,179.02147656596 L 60.3918759307986,179.418773070425 L 59.7889235435549,179.668524094494 L 59.1418759307986,179.753709517879 L 58.4948283180423,179.668524094492 L 57.8918759307986,179.418773070421 L 57.3741089778322,179.021476565954 L 56.9768124213375,178.503709682347 L 56.7270613650759,177.900757378176 L 56.6418759307986,177.253709857449 M 118.293833527203,41.6022373202866 L 118.94088113996,41.5170518860093 L 119.587928752716,41.6022373202866 L 120.19088113996,41.8519883765482 L 120.708648092926,42.2492849330429 L 121.105944649421,42.7670518860093 L 121.355695705682,43.370004273253 L 121.44088113996,44.0170518860093 L 121.355695705682,44.6640994987656 L 121.105944649421,45.2670518860093 L 120.708648092926,45.7848188389757 L 120.19088113996,46.1821153954704 L 119.587928752716,46.431866451732 L 118.94088113996,46.5170518860093 L 118.293833527203,46.431866451732 L 117.69088113996,46.1821153954704 L 117.173114186993,45.7848188389757 L 116.775817630499,45.2670518860093 L 116.526066574237,44.6640994987656 L 116.44088113996,44.0170518860093 L 116.526066574237,43.370004273253 L 116.775817630499,42.7670518860093 L 117.173114186993,42.2492849330429 L 117.69088113996,41.8519883765482 L 118.293833527203,41.6022373202866 M 147.044857856726,44.5247655736204 L 147.130043291003,43.877717960864 L 147.379794347265,43.2747655736204 L 147.77709090376,42.756998620654 L 148.294857856726,42.3597020641593 L 148.89781024397,42.1099510078977 L 149.544857856726,42.0247655736204 L 150.191905469482,42.1099510078977 L 150.794857856726,42.3597020641593 L 151.312624809692,42.756998620654 L 151.709921366187,43.2747655736204 L 151.959672422449,43.877717960864 L 152.044857856726,44.5247655736204 L 151.959672422449,45.1718131863766 L 151.709921366187,45.7747655736203 L 151.312624809692,46.2925325265867 L 150.794857856726,46.6898290830814 L 150.191905469482,46.939580139343 L 149.544857856726,47.0247655736204 L 148.89781024397,46.939580139343 L 148.294857856726,46.6898290830814 L 147.77709090376,46.2925325265867 L 147.379794347265,45.7747655736204 L 147.130043291003,45.1718131863766 L 147.044857856726,44.5247655736204 M 62.4797735533202,46.9529972961369 L 61.8327259405639,47.0381827304143 L 61.1856783278076,46.952997296137 L 60.5827259405639,46.7032462398754 L 60.0649589875975,46.3059496833807 L 59.6676624311028,45.7881827304143 L 59.4179113748412,45.1852303431706 L 59.3327259405639,44.5381827304143 L 59.4179113748412,43.891135117658 L 59.6676624311028,43.2881827304143 L 60.0649589875975,42.7704157774479 L 60.5827259405639,42.3731192209532 L 61.1856783278076,42.1233681646916 L 61.8327259405639,42.0381827304143 L 62.4797735533202,42.1233681646916 L 63.0827259405639,42.3731192209532 L 63.6004928935303,42.7704157774479 L 63.997789450025,43.2881827304143 L 64.2475405062866,43.891135117658 L 64.3327259405639,44.5381827304142 L 64.2475405062866,45.1852303431706 L 63.997789450025,45.7881827304143 L 63.6004928935303,46.3059496833806 L 63.0827259405639,46.7032462398754 L 62.4797735533202,46.9529972961369 "
  />
</svg>
