  0
SECTION
  2
HEADER
  9
$ACADVER
  1
AC1014
  9
$HANDSEED
  5
FFFF
  9
$MEASUREMENT
 70
     1
  0
ENDSEC
  0
SECTION
  2
TABLES
  0
TABLE
  2
VPORT
  5
8
330
0
100
AcDbSymbolTable
 70
     4
  0
VPORT
  5
2E
330
8
100
AcDbSymbolTableRecord
100
AcDbViewportTableRecord
  2
*ACTIVE
 70
     0
 10
0.0
 20
0.0
 11
1.0
 21
1.0
 12
210.0
 22
148.5
 13
0.0
 23
0.0
 14
10.0
 24
10.0
 15
10.0
 25
10.0
 16
0.0
 26
0.0
 36
1.0
 17
0.0
 27
0.0
 37
0.0
 40
341.0
 41
1.24
 42
50.0
 43
0.0
 44
0.0
 50
0.0
 51
0.0
 71
     0
 72
   100
 73
     1
 74
     3
 75
     0
 76
     0
 77
     0
 78
     0
  0
ENDTAB
  0
TABLE
  2
LTYPE
  5
5
330
0
100
AcDbSymbolTable
 70
     1
  0
LTYPE
  5
14
330
5
100
AcDbSymbolTableRecord
100
AcDbLinetypeTableRecord
  2
BYBLOCK
 70
     0
  3

 72
    65
 73
     0
 40
0.0
  0
LTYPE
  5
15
330
5
100
AcDbSymbolTableRecord
100
AcDbLinetypeTableRecord
  2
BYLAYER
 70
     0
  3

 72
    65
 73
     0
 40
0.0
  0
LTYPE
  5
16
330
5
100
AcDbSymbolTableRecord
100
AcDbLinetypeTableRecord
  2
CONTINUOUS
 70
     0
  3
Solid line
 72
    65
 73
     0
 40
0.0
  0
ENDTAB
  0
TABLE
  2
LAYER
  5
2
100
AcDbSymbolTable
 70
2
  0
LAYER
  5
50
100
AcDbSymbolTableRecord
100
AcDbLayerTableRecord
  2
0
 70
0
  6
CONTINUOUS
  0
LAYER
  5
51
100
AcDbSymbolTableRecord
100
AcDbLayerTableRecord
  2
Layer_1
 70
0
  6
CONTINUOUS
  0
ENDTAB
  0
TABLE
  2
STYLE
  5
3
330
0
100
AcDbSymbolTable
 70
     1
  0
STYLE
  5
11
330
3
100
AcDbSymbolTableRecord
100
AcDbTextStyleTableRecord
  2
STANDARD
 70
     0
 40
0.0
 41
1.0
 50
0.0
 71
     0
 42
2.5
  3
txt
  4

  0
ENDTAB
  0
TABLE
  2
VIEW
  5
6
330
0
100
AcDbSymbolTable
 70
     0
  0
ENDTAB
  0
TABLE
  2
UCS
  5
7
330
0
100
AcDbSymbolTable
 70
     0
  0
ENDTAB
  0
TABLE
  2
APPID
  5
9
330
0
100
AcDbSymbolTable
 70
     2
  0
APPID
  5
12
330
9
100
AcDbSymbolTableRecord
100
AcDbRegAppTableRecord
  2
ACAD
 70
     0
  0
ENDTAB
  0
TABLE
  2
DIMSTYLE
  5
A
330
0
100
AcDbSymbolTable
 70
     1
  0
DIMSTYLE
105
27
330
A
100
AcDbSymbolTableRecord
100
AcDbDimStyleTableRecord
  2
ISO-25
 70
     0
  3

  4

  5

  6

  7

 40
1.0
 41
2.5
 42
0.625
 43
3.75
 44
1.25
 45
0.0
 46
0.0
 47
0.0
 48
0.0
140
2.5
141
2.5
142
0.0
143
0.03937007874016
144
1.0
145
0.0
146
1.0
147
0.625
 71
     0
 72
     0
 73
     0
 74
     0
 75
     0
 76
     0
 77
     1
 78
     8
170
     0
171
     3
172
     1
173
     0
174
     0
175
     0
176
     0
177
     0
178
     0
270
     2
271
     2
272
     2
273
     2
274
     3
340
11
275
     0
280
     0
281
     0
282
     0
283
     0
284
     8
285
     0
286
     0
287
     3
288
     0
  0
ENDTAB
  0
TABLE
  2
BLOCK_RECORD
  5
1
330
0
100
AcDbSymbolTable
 70
     1
  0
BLOCK_RECORD
  5
1F
330
1
100
AcDbSymbolTableRecord
100
AcDbBlockTableRecord
  2
*MODEL_SPACE
  0
BLOCK_RECORD
  5
1B
330
1
100
AcDbSymbolTableRecord
100
AcDbBlockTableRecord
  2
*PAPER_SPACE
  0
ENDTAB
  0
ENDSEC
  0
SECTION
  2
BLOCKS
  0
BLOCK
  5
20
330
1F
100
AcDbEntity
  8
0
100
AcDbBlockBegin
  2
*MODEL_SPACE
 70
     0
 10
0.0
 20
0.0
 30
0.0
  3
*MODEL_SPACE
  1

  0
ENDBLK
  5
21
330
1F
100
AcDbEntity
  8
0
100
AcDbBlockEnd
  0
BLOCK
  5
1C
330
1B
100
AcDbEntity
 67
     1
  8
0
100
AcDbBlockBegin
  2
*PAPER_SPACE
  1

  0
ENDBLK
  5
1D
330
1B
100
AcDbEntity
 67
     1
  8
0
100
AcDbBlockEnd
  0
ENDSEC
  0
SECTION
  2
ENTITIES
  0
LWPOLYLINE
  5
100
100
AcDbEntity
  8
Layer_1
 62
5
100
AcDbPolyline
 90
5
 70
0
 10
32.900753
 20
7.426344
 30
0.0
 10
32.900753
 20
15.694060
 30
0.0
 10
24.633036
 20
15.694060
 30
0.0
 10
24.633036
 20
7.426344
 30
0.0
 10
32.900753
 20
7.426344
 30
0.0
  0
LWPOLYLINE
  5
101
100
AcDbEntity
  8
Layer_1
 62
5
100
AcDbPolyline
 90
25
 70
0
 10
26.306266
 20
15.102130
 30
0.0
 10
26.302851
 20
15.076194
 30
0.0
 10
26.292840
 20
15.052024
 30
0.0
 10
26.276914
 20
15.031270
 30
0.0
 10
26.256160
 20
15.015344
 30
0.0
 10
26.231990
 20
15.005333
 30
0.0
 10
26.206054
 20
15.001918
 30
0.0
 10
26.180117
 20
15.005333
 30
0.0
 10
26.155948
 20
15.015344
 30
0.0
 10
26.135193
 20
15.031270
 30
0.0
 10
26.119267
 20
15.052024
 30
0.0
 10
26.109256
 20
15.076194
 30
0.0
 10
26.105842
 20
15.102130
 30
0.0
 10
26.109256
 20
15.128067
 30
0.0
 10
26.119267
 20
15.152236
 30
0.0
 10
26.135193
 20
15.172991
 30
0.0
 10
26.155948
 20
15.188917
 30
0.0
 10
26.180117
 20
15.198928
 30
0.0
 10
26.206054
 20
15.202342
 30
0.0
 10
26.231990
 20
15.198928
 30
0.0
 10
26.256160
 20
15.188917
 30
0.0
 10
26.276914
 20
15.172991
 30
0.0
 10
26.292840
 20
15.152236
 30
0.0
 10
26.302851
 20
15.128067
 30
0.0
 10
26.306266
 20
15.102130
 30
0.0
  0
LWPOLYLINE
  5
102
100
AcDbEntity
  8
Layer_1
 62
5
100
AcDbPolyline
 90
25
 70
0
 10
31.227043
 20
15.102545
 30
0.0
 10
31.230429
 20
15.128269
 30
0.0
 10
31.240358
 20
15.152239
 30
0.0
 10
31.256153
 20
15.172823
 30
0.0
 10
31.276737
 20
15.188618
 30
0.0
 10
31.300708
 20
15.198547
 30
0.0
 10
31.326432
 20
15.201934
 30
0.0
 10
31.352155
 20
15.198547
 30
0.0
 10
31.376126
 20
15.188618
 30
0.0
 10
31.396710
 20
15.172823
 30
0.0
 10
31.412504
 20
15.152239
 30
0.0
 10
31.422434
 20
15.128269
 30
0.0
 10
31.425819
 20
15.102545
 30
0.0
 10
31.422434
 20
15.076821
 30
0.0
 10
31.412504
 20
15.052851
 30
0.0
 10
31.396710
 20
15.032267
 30
0.0
 10
31.376126
 20
15.016472
 30
0.0
 10
31.352155
 20
15.006543
 30
0.0
 10
31.326432
 20
15.003156
 30
0.0
 10
31.300708
 20
15.006543
 30
0.0
 10
31.276737
 20
15.016472
 30
0.0
 10
31.256153
 20
15.032267
 30
0.0
 10
31.240358
 20
15.052851
 30
0.0
 10
31.230429
 20
15.076821
 30
0.0
 10
31.227043
 20
15.102545
 30
0.0
  0
LWPOLYLINE
  5
103
100
AcDbEntity
  8
Layer_1
 62
5
100
AcDbPolyline
 90
25
 70
0
 10
32.216768
 20
14.147823
 30
0.0
 10
32.226745
 20
14.171908
 30
0.0
 10
32.242615
 20
14.192591
 30
0.0
 10
32.263298
 20
14.208462
 30
0.0
 10
32.287384
 20
14.218439
 30
0.0
 10
32.313231
 20
14.221842
 30
0.0
 10
32.339078
 20
14.218439
 30
0.0
 10
32.363164
 20
14.208462
 30
0.0
 10
32.383847
 20
14.192591
 30
0.0
 10
32.399718
 20
14.171908
 30
0.0
 10
32.409695
 20
14.147823
 30
0.0
 10
32.413096
 20
14.121975
 30
0.0
 10
32.409695
 20
14.096128
 30
0.0
 10
32.399718
 20
14.072042
 30
0.0
 10
32.383847
 20
14.051359
 30
0.0
 10
32.363164
 20
14.035489
 30
0.0
 10
32.339078
 20
14.025512
 30
0.0
 10
32.313231
 20
14.022109
 30
0.0
 10
32.287384
 20
14.025512
 30
0.0
 10
32.263298
 20
14.035489
 30
0.0
 10
32.242615
 20
14.051359
 30
0.0
 10
32.226745
 20
14.072042
 30
0.0
 10
32.216768
 20
14.096128
 30
0.0
 10
32.213366
 20
14.121975
 30
0.0
 10
32.216768
 20
14.147823
 30
0.0
  0
LWPOLYLINE
  5
104
100
AcDbEntity
  8
Layer_1
 62
5
100
AcDbPolyline
 90
25
 70
0
 10
32.222094
 20
9.042234
 30
0.0
 10
32.234943
 20
9.064540
 30
0.0
 10
32.253128
 20
9.082759
 30
0.0
 10
32.275408
 20
9.095652
 30
0.0
 10
32.300267
 20
9.102338
 30
0.0
 10
32.326008
 20
9.102363
 30
0.0
 10
32.350879
 20
9.095724
 30
0.0
 10
32.373184
 20
9.082874
 30
0.0
 10
32.391404
 20
9.064690
 30
0.0
 10
32.404296
 20
9.042409
 30
0.0
 10
32.410983
 20
9.017551
 30
0.0
 10
32.411007
 20
8.991809
 30
0.0
 10
32.404369
 20
8.966939
 30
0.0
 10
32.391519
 20
8.944633
 30
0.0
 10
32.373335
 20
8.926413
 30
0.0
 10
32.351054
 20
8.913521
 30
0.0
 10
32.326196
 20
8.906835
 30
0.0
 10
32.300454
 20
8.906810
 30
0.0
 10
32.275583
 20
8.913449
 30
0.0
 10
32.253278
 20
8.926298
 30
0.0
 10
32.235058
 20
8.944483
 30
0.0
 10
32.222166
 20
8.966763
 30
0.0
 10
32.215480
 20
8.991622
 30
0.0
 10
32.215455
 20
9.017363
 30
0.0
 10
32.222094
 20
9.042234
 30
0.0
  0
LWPOLYLINE
  5
105
100
AcDbEntity
  8
Layer_1
 62
5
100
AcDbPolyline
 90
25
 70
0
 10
31.417496
 20
7.969916
 30
0.0
 10
31.402530
 20
7.948782
 30
0.0
 10
31.382603
 20
7.932241
 30
0.0
 10
31.359075
 20
7.921422
 30
0.0
 10
31.333548
 20
7.917060
 30
0.0
 10
31.307762
 20
7.919454
 30
0.0
 10
31.283474
 20
7.928440
 30
0.0
 10
31.262340
 20
7.943407
 30
0.0
 10
31.245799
 20
7.963333
 30
0.0
 10
31.234980
 20
7.986862
 30
0.0
 10
31.230618
 20
8.012389
 30
0.0
 10
31.233012
 20
8.038175
 30
0.0
 10
31.241999
 20
8.062463
 30
0.0
 10
31.256965
 20
8.083597
 30
0.0
 10
31.276891
 20
8.100137
 30
0.0
 10
31.300420
 20
8.110957
 30
0.0
 10
31.325947
 20
8.115318
 30
0.0
 10
31.351733
 20
8.112924
 30
0.0
 10
31.376021
 20
8.103938
 30
0.0
 10
31.397155
 20
8.088972
 30
0.0
 10
31.413696
 20
8.069045
 30
0.0
 10
31.424515
 20
8.045516
 30
0.0
 10
31.428877
 20
8.019989
 30
0.0
 10
31.426483
 20
7.994203
 30
0.0
 10
31.417496
 20
7.969916
 30
0.0
  0
LWPOLYLINE
  5
106
100
AcDbEntity
  8
Layer_1
 62
5
100
AcDbPolyline
 90
25
 70
0
 10
26.304366
 20
7.990533
 30
0.0
 10
26.294463
 20
7.966624
 30
0.0
 10
26.278709
 20
7.946094
 30
0.0
 10
26.258179
 20
7.930340
 30
0.0
 10
26.234270
 20
7.920437
 30
0.0
 10
26.208614
 20
7.917059
 30
0.0
 10
26.182957
 20
7.920437
 30
0.0
 10
26.159049
 20
7.930340
 30
0.0
 10
26.138518
 20
7.946094
 30
0.0
 10
26.122764
 20
7.966624
 30
0.0
 10
26.112861
 20
7.990533
 30
0.0
 10
26.109483
 20
8.016189
 30
0.0
 10
26.112861
 20
8.041846
 30
0.0
 10
26.122764
 20
8.065754
 30
0.0
 10
26.138518
 20
8.086285
 30
0.0
 10
26.159049
 20
8.102039
 30
0.0
 10
26.182957
 20
8.111942
 30
0.0
 10
26.208614
 20
8.115320
 30
0.0
 10
26.234270
 20
8.111942
 30
0.0
 10
26.258179
 20
8.102039
 30
0.0
 10
26.278709
 20
8.086285
 30
0.0
 10
26.294463
 20
8.065754
 30
0.0
 10
26.304366
 20
8.041846
 30
0.0
 10
26.307744
 20
8.016189
 30
0.0
 10
26.304366
 20
7.990533
 30
0.0
  0
LWPOLYLINE
  5
107
100
AcDbEntity
  8
Layer_1
 62
5
100
AcDbPolyline
 90
31
 70
0
 10
21.895729
 20
5.113574
 30
0.0
 10
21.895729
 20
7.311841
 30
0.0
 10
22.717730
 20
7.311841
 30
0.0
 10
22.717730
 20
7.711804
 30
0.0
 10
23.205197
 20
8.207222
 30
0.0
 10
23.616695
 20
8.207222
 30
0.0
 10
23.616695
 20
8.600470
 30
0.0
 10
23.989612
 20
8.600470
 30
0.0
 10
23.989612
 20
8.207224
 30
0.0
 10
24.630674
 20
8.207224
 30
0.0
 10
24.630648
 20
9.388334
 30
0.0
 10
23.843246
 20
9.388334
 30
0.0
 10
23.843246
 20
10.175735
 30
0.0
 10
17.544034
 20
10.175735
 30
0.0
 10
17.544034
 20
9.388334
 30
0.0
 10
16.756632
 20
9.388334
 30
0.0
 10
16.756632
 20
3.089121
 30
0.0
 10
17.544034
 20
3.089121
 30
0.0
 10
17.544034
 20
2.301719
 30
0.0
 10
23.843246
 20
2.301719
 30
0.0
 10
23.843246
 20
3.089121
 30
0.0
 10
24.630648
 20
3.089121
 30
0.0
 10
24.630648
 20
4.230844
 30
0.0
 10
23.982684
 20
4.230844
 30
0.0
 10
23.982684
 20
3.837143
 30
0.0
 10
23.616678
 20
3.837143
 30
0.0
 10
23.616678
 20
4.230844
 30
0.0
 10
23.205202
 20
4.230844
 30
0.0
 10
22.717730
 20
4.724801
 30
0.0
 10
22.717730
 20
5.113574
 30
0.0
 10
21.895729
 20
5.113574
 30
0.0
  0
LWPOLYLINE
  5
108
100
AcDbEntity
  8
Layer_1
 62
5
100
AcDbPolyline
 90
5
 70
0
 10
21.876438
 20
3.618358
 30
0.0
 10
21.673385
 20
3.618358
 30
0.0
 10
21.673385
 20
3.775838
 30
0.0
 10
21.876438
 20
3.775838
 30
0.0
 10
21.876438
 20
3.618358
 30
0.0
  0
LWPOLYLINE
  5
109
100
AcDbEntity
  8
Layer_1
 62
5
100
AcDbPolyline
 90
25
 70
0
 10
22.074809
 20
3.520613
 30
0.0
 10
22.059168
 20
3.540997
 30
0.0
 10
22.049335
 20
3.564736
 30
0.0
 10
22.045981
 20
3.590210
 30
0.0
 10
22.049335
 20
3.615684
 30
0.0
 10
22.059168
 20
3.639423
 30
0.0
 10
22.074809
 20
3.659807
 30
0.0
 10
22.095194
 20
3.675449
 30
0.0
 10
22.118932
 20
3.685282
 30
0.0
 10
22.144406
 20
3.688636
 30
0.0
 10
22.169881
 20
3.685282
 30
0.0
 10
22.193619
 20
3.675449
 30
0.0
 10
22.214004
 20
3.659807
 30
0.0
 10
22.229645
 20
3.639423
 30
0.0
 10
22.239478
 20
3.615684
 30
0.0
 10
22.242832
 20
3.590210
 30
0.0
 10
22.239478
 20
3.564736
 30
0.0
 10
22.229645
 20
3.540997
 30
0.0
 10
22.214004
 20
3.520613
 30
0.0
 10
22.193619
 20
3.504971
 30
0.0
 10
22.169881
 20
3.495139
 30
0.0
 10
22.144406
 20
3.491784
 30
0.0
 10
22.118932
 20
3.495139
 30
0.0
 10
22.095194
 20
3.504971
 30
0.0
 10
22.074809
 20
3.520613
 30
0.0
  0
LWPOLYLINE
  5
10a
100
AcDbEntity
  8
Layer_1
 62
5
100
AcDbPolyline
 90
5
 70
0
 10
21.321593
 20
7.789230
 30
0.0
 10
21.321593
 20
4.639624
 30
0.0
 10
18.171987
 20
4.639624
 30
0.0
 10
18.171987
 20
7.789230
 30
0.0
 10
21.321593
 20
7.789230
 30
0.0
  0
LWPOLYLINE
  5
10b
100
AcDbEntity
  8
Layer_1
 62
5
100
AcDbPolyline
 90
5
 70
0
 10
17.860556
 20
8.808607
 30
0.0
 10
18.063609
 20
8.808607
 30
0.0
 10
18.063609
 20
8.651127
 30
0.0
 10
17.860556
 20
8.651127
 30
0.0
 10
17.860556
 20
8.808607
 30
0.0
  0
LWPOLYLINE
  5
10c
100
AcDbEntity
  8
Layer_1
 62
5
100
AcDbPolyline
 90
5
 70
0
 10
18.220330
 20
3.776572
 30
0.0
 10
18.423383
 20
3.776572
 30
0.0
 10
18.423383
 20
3.619092
 30
0.0
 10
18.220330
 20
3.619092
 30
0.0
 10
18.220330
 20
3.776572
 30
0.0
  0
LWPOLYLINE
  5
10d
100
AcDbEntity
  8
Layer_1
 62
5
100
AcDbPolyline
 90
5
 70
0
 10
21.313611
 20
8.808333
 30
0.0
 10
21.516664
 20
8.808333
 30
0.0
 10
21.516664
 20
8.650853
 30
0.0
 10
21.313611
 20
8.650853
 30
0.0
 10
21.313611
 20
8.808333
 30
0.0
  0
LWPOLYLINE
  5
10e
100
AcDbEntity
  8
Layer_1
 62
5
100
AcDbPolyline
 90
30
 70
0
 10
17.677654
 20
8.787245
 30
0.0
 10
17.661942
 20
8.766915
 30
0.0
 10
17.641503
 20
8.751345
 30
0.0
 10
17.617730
 20
8.741595
 30
0.0
 10
17.592244
 20
8.738330
 30
0.0
 10
17.566782
 20
8.741773
 30
0.0
 10
17.543078
 20
8.751689
 30
0.0
 10
17.522748
 20
8.767401
 30
0.0
 10
17.507178
 20
8.787840
 30
0.0
 10
17.497338
 20
8.810479
 30
0.0
 10
17.497429
 20
8.811613
 30
0.0
 10
17.493984
 20
8.835953
 30
0.0
 10
17.494166
 20
8.837098
 30
0.0
 10
17.497340
 20
8.861427
 30
0.0
 10
17.497608
 20
8.862561
 30
0.0
 10
17.507172
 20
8.885166
 30
0.0
 10
17.507523
 20
8.886265
 30
0.0
 10
17.522813
 20
8.905550
 30
0.0
 10
17.523235
 20
8.906594
 30
0.0
 10
17.543674
 20
8.922165
 30
0.0
 10
17.567447
 20
8.931914
 30
0.0
 10
17.592933
 20
8.935179
 30
0.0
 10
17.618395
 20
8.931737
 30
0.0
 10
17.642099
 20
8.921821
 30
0.0
 10
17.662429
 20
8.906109
 30
0.0
 10
17.677999
 20
8.885670
 30
0.0
 10
17.687749
 20
8.861897
 30
0.0
 10
17.691014
 20
8.836411
 30
0.0
 10
17.687571
 20
8.810949
 30
0.0
 10
17.677656
 20
8.787245
 30
0.0
  0
LWPOLYLINE
  5
10f
100
AcDbEntity
  8
Layer_1
 62
5
100
AcDbPolyline
 90
25
 70
0
 10
20.962846
 20
3.514579
 30
0.0
 10
20.937303
 20
3.511804
 30
0.0
 10
20.911912
 20
3.515733
 30
0.0
 10
20.888403
 20
3.526099
 30
0.0
 10
20.868377
 20
3.542197
 30
0.0
 10
20.853201
 20
3.562929
 30
0.0
 10
20.843907
 20
3.586882
 30
0.0
 10
20.841131
 20
3.612425
 30
0.0
 10
20.845060
 20
3.637816
 30
0.0
 10
20.855427
 20
3.661326
 30
0.0
 10
20.871524
 20
3.681351
 30
0.0
 10
20.892256
 20
3.696528
 30
0.0
 10
20.916210
 20
3.705821
 30
0.0
 10
20.941753
 20
3.708597
 30
0.0
 10
20.967143
 20
3.704668
 30
0.0
 10
20.990653
 20
3.694302
 30
0.0
 10
21.010679
 20
3.678205
 30
0.0
 10
21.025855
 20
3.657472
 30
0.0
 10
21.035149
 20
3.633519
 30
0.0
 10
21.037928
 20
3.607976
 30
0.0
 10
21.033999
 20
3.582585
 30
0.0
 10
21.023633
 20
3.559075
 30
0.0
 10
21.007535
 20
3.539050
 30
0.0
 10
20.986803
 20
3.523873
 30
0.0
 10
20.962850
 20
3.514580
 30
0.0
  0
LWPOLYLINE
  5
110
100
AcDbEntity
  8
Layer_1
 62
5
100
AcDbPolyline
 90
25
 70
0
 10
17.575525
 20
3.569008
 30
0.0
 10
17.561640
 20
3.547389
 30
0.0
 10
17.542632
 20
3.530100
 30
0.0
 10
17.519798
 20
3.518320
 30
0.0
 10
17.494692
 20
3.512851
 30
0.0
 10
17.469027
 20
3.514067
 30
0.0
 10
17.444551
 20
3.521884
 30
0.0
 10
17.422931
 20
3.535769
 30
0.0
 10
17.405643
 20
3.554777
 30
0.0
 10
17.393862
 20
3.577611
 30
0.0
 10
17.388394
 20
3.602716
 30
0.0
 10
17.389609
 20
3.628382
 30
0.0
 10
17.397425
 20
3.652858
 30
0.0
 10
17.411311
 20
3.674477
 30
0.0
 10
17.430318
 20
3.691766
 30
0.0
 10
17.453153
 20
3.703547
 30
0.0
 10
17.478258
 20
3.709016
 30
0.0
 10
17.503923
 20
3.707799
 30
0.0
 10
17.528400
 20
3.699982
 30
0.0
 10
17.550019
 20
3.686097
 30
0.0
 10
17.567308
 20
3.667090
 30
0.0
 10
17.579088
 20
3.644255
 30
0.0
 10
17.584557
 20
3.619150
 30
0.0
 10
17.583341
 20
3.593484
 30
0.0
 10
17.575525
 20
3.569008
 30
0.0
  0
LWPOLYLINE
  5
111
100
AcDbEntity
  8
Layer_1
 62
5
100
AcDbPolyline
 90
25
 70
0
 10
18.592931
 20
3.590944
 30
0.0
 10
18.596284
 20
3.616418
 30
0.0
 10
18.606117
 20
3.640156
 30
0.0
 10
18.621759
 20
3.660541
 30
0.0
 10
18.642143
 20
3.676182
 30
0.0
 10
18.665882
 20
3.686015
 30
0.0
 10
18.691356
 20
3.689369
 30
0.0
 10
18.716830
 20
3.686015
 30
0.0
 10
18.740569
 20
3.676182
 30
0.0
 10
18.760953
 20
3.660541
 30
0.0
 10
18.776595
 20
3.640156
 30
0.0
 10
18.786427
 20
3.616418
 30
0.0
 10
18.789781
 20
3.590944
 30
0.0
 10
18.786427
 20
3.565469
 30
0.0
 10
18.776595
 20
3.541731
 30
0.0
 10
18.760953
 20
3.521347
 30
0.0
 10
18.740569
 20
3.505705
 30
0.0
 10
18.716830
 20
3.495873
 30
0.0
 10
18.691356
 20
3.492518
 30
0.0
 10
18.665882
 20
3.495873
 30
0.0
 10
18.642143
 20
3.505705
 30
0.0
 10
18.621759
 20
3.521347
 30
0.0
 10
18.606117
 20
3.541731
 30
0.0
 10
18.596284
 20
3.565469
 30
0.0
 10
18.592931
 20
3.590944
 30
0.0
  0
LWPOLYLINE
  5
112
100
AcDbEntity
  8
Layer_1
 62
5
100
AcDbPolyline
 90
25
 70
0
 10
21.020173
 20
8.931553
 30
0.0
 10
21.045648
 20
8.934907
 30
0.0
 10
21.071122
 20
8.931553
 30
0.0
 10
21.094860
 20
8.921721
 30
0.0
 10
21.115245
 20
8.906079
 30
0.0
 10
21.130886
 20
8.885695
 30
0.0
 10
21.140719
 20
8.861956
 30
0.0
 10
21.144074
 20
8.836482
 30
0.0
 10
21.140719
 20
8.811008
 30
0.0
 10
21.130886
 20
8.787269
 30
0.0
 10
21.115245
 20
8.766885
 30
0.0
 10
21.094860
 20
8.751243
 30
0.0
 10
21.071122
 20
8.741410
 30
0.0
 10
21.045648
 20
8.738057
 30
0.0
 10
21.020173
 20
8.741410
 30
0.0
 10
20.996435
 20
8.751243
 30
0.0
 10
20.976051
 20
8.766885
 30
0.0
 10
20.960409
 20
8.787269
 30
0.0
 10
20.950577
 20
8.811008
 30
0.0
 10
20.947222
 20
8.836482
 30
0.0
 10
20.950577
 20
8.861956
 30
0.0
 10
20.960409
 20
8.885695
 30
0.0
 10
20.976051
 20
8.906079
 30
0.0
 10
20.996435
 20
8.921721
 30
0.0
 10
21.020173
 20
8.931553
 30
0.0
  0
LWPOLYLINE
  5
113
100
AcDbEntity
  8
Layer_1
 62
5
100
AcDbPolyline
 90
25
 70
0
 10
22.152104
 20
8.816493
 30
0.0
 10
22.155458
 20
8.841968
 30
0.0
 10
22.165291
 20
8.865706
 30
0.0
 10
22.180932
 20
8.886090
 30
0.0
 10
22.201317
 20
8.901732
 30
0.0
 10
22.225055
 20
8.911565
 30
0.0
 10
22.250530
 20
8.914919
 30
0.0
 10
22.276004
 20
8.911565
 30
0.0
 10
22.299742
 20
8.901732
 30
0.0
 10
22.320127
 20
8.886090
 30
0.0
 10
22.335768
 20
8.865706
 30
0.0
 10
22.345601
 20
8.841968
 30
0.0
 10
22.348955
 20
8.816493
 30
0.0
 10
22.345601
 20
8.791019
 30
0.0
 10
22.335768
 20
8.767281
 30
0.0
 10
22.320127
 20
8.746896
 30
0.0
 10
22.299742
 20
8.731254
 30
0.0
 10
22.276004
 20
8.721422
 30
0.0
 10
22.250530
 20
8.718068
 30
0.0
 10
22.225055
 20
8.721422
 30
0.0
 10
22.201317
 20
8.731254
 30
0.0
 10
22.180932
 20
8.746896
 30
0.0
 10
22.165291
 20
8.767281
 30
0.0
 10
22.155458
 20
8.791019
 30
0.0
 10
22.152104
 20
8.816493
 30
0.0
  0
LWPOLYLINE
  5
114
100
AcDbEntity
  8
Layer_1
 62
5
100
AcDbPolyline
 90
25
 70
0
 10
18.822769
 20
8.720894
 30
0.0
 10
18.797295
 20
8.717540
 30
0.0
 10
18.771821
 20
8.720894
 30
0.0
 10
18.748082
 20
8.730726
 30
0.0
 10
18.727698
 20
8.746368
 30
0.0
 10
18.712056
 20
8.766752
 30
0.0
 10
18.702224
 20
8.790491
 30
0.0
 10
18.698870
 20
8.815965
 30
0.0
 10
18.702224
 20
8.841439
 30
0.0
 10
18.712056
 20
8.865178
 30
0.0
 10
18.727698
 20
8.885562
 30
0.0
 10
18.748082
 20
8.901204
 30
0.0
 10
18.771821
 20
8.911036
 30
0.0
 10
18.797295
 20
8.914390
 30
0.0
 10
18.822769
 20
8.911036
 30
0.0
 10
18.846508
 20
8.901204
 30
0.0
 10
18.866892
 20
8.885562
 30
0.0
 10
18.882534
 20
8.865178
 30
0.0
 10
18.892367
 20
8.841439
 30
0.0
 10
18.895720
 20
8.815965
 30
0.0
 10
18.892367
 20
8.790491
 30
0.0
 10
18.882534
 20
8.766752
 30
0.0
 10
18.866892
 20
8.746368
 30
0.0
 10
18.846508
 20
8.730726
 30
0.0
 10
18.822769
 20
8.720894
 30
0.0
  0
LWPOLYLINE
  5
115
100
AcDbEntity
  8
Layer_1
 62
5
100
AcDbPolyline
 90
31
 70
0
 10
34.524207
 20
18.907302
 30
0.0
 10
34.524207
 20
21.105569
 30
0.0
 10
35.346208
 20
21.105569
 30
0.0
 10
35.346208
 20
21.505533
 30
0.0
 10
35.833674
 20
22.000950
 30
0.0
 10
36.245172
 20
22.000950
 30
0.0
 10
36.245172
 20
22.394198
 30
0.0
 10
36.618089
 20
22.394198
 30
0.0
 10
36.618089
 20
22.000952
 30
0.0
 10
37.259152
 20
22.000952
 30
0.0
 10
37.259130
 20
23.182062
 30
0.0
 10
36.471728
 20
23.182062
 30
0.0
 10
36.471728
 20
23.969464
 30
0.0
 10
30.172515
 20
23.969464
 30
0.0
 10
30.172515
 20
23.182062
 30
0.0
 10
29.385114
 20
23.182062
 30
0.0
 10
29.385114
 20
16.882849
 30
0.0
 10
30.172515
 20
16.882849
 30
0.0
 10
30.172515
 20
16.095448
 30
0.0
 10
36.471728
 20
16.095448
 30
0.0
 10
36.471728
 20
16.882849
 30
0.0
 10
37.259130
 20
16.882849
 30
0.0
 10
37.259130
 20
18.024573
 30
0.0
 10
36.611166
 20
18.024573
 30
0.0
 10
36.611166
 20
17.630872
 30
0.0
 10
36.245160
 20
17.630872
 30
0.0
 10
36.245160
 20
18.024573
 30
0.0
 10
35.833684
 20
18.024573
 30
0.0
 10
35.346212
 20
18.518530
 30
0.0
 10
35.346212
 20
18.907302
 30
0.0
 10
34.524211
 20
18.907302
 30
0.0
  0
LWPOLYLINE
  5
116
100
AcDbEntity
  8
Layer_1
 62
5
100
AcDbPolyline
 90
5
 70
0
 10
34.504920
 20
17.412086
 30
0.0
 10
34.301867
 20
17.412086
 30
0.0
 10
34.301867
 20
17.569567
 30
0.0
 10
34.504920
 20
17.569567
 30
0.0
 10
34.504920
 20
17.412086
 30
0.0
  0
LWPOLYLINE
  5
117
100
AcDbEntity
  8
Layer_1
 62
5
100
AcDbPolyline
 90
25
 70
0
 10
34.703291
 20
17.314342
 30
0.0
 10
34.687650
 20
17.334726
 30
0.0
 10
34.677817
 20
17.358464
 30
0.0
 10
34.674463
 20
17.383938
 30
0.0
 10
34.677817
 20
17.409413
 30
0.0
 10
34.687650
 20
17.433151
 30
0.0
 10
34.703291
 20
17.453536
 30
0.0
 10
34.723676
 20
17.469177
 30
0.0
 10
34.747414
 20
17.479010
 30
0.0
 10
34.772888
 20
17.482364
 30
0.0
 10
34.798363
 20
17.479010
 30
0.0
 10
34.822101
 20
17.469177
 30
0.0
 10
34.842486
 20
17.453536
 30
0.0
 10
34.858127
 20
17.433151
 30
0.0
 10
34.867960
 20
17.409413
 30
0.0
 10
34.871314
 20
17.383938
 30
0.0
 10
34.867960
 20
17.358464
 30
0.0
 10
34.858127
 20
17.334726
 30
0.0
 10
34.842486
 20
17.314342
 30
0.0
 10
34.822101
 20
17.298700
 30
0.0
 10
34.798363
 20
17.288867
 30
0.0
 10
34.772888
 20
17.285513
 30
0.0
 10
34.747414
 20
17.288867
 30
0.0
 10
34.723676
 20
17.298700
 30
0.0
 10
34.703291
 20
17.314342
 30
0.0
  0
LWPOLYLINE
  5
118
100
AcDbEntity
  8
Layer_1
 62
5
100
AcDbPolyline
 90
5
 70
0
 10
33.950075
 20
21.582958
 30
0.0
 10
33.950075
 20
18.433352
 30
0.0
 10
30.800469
 20
18.433352
 30
0.0
 10
30.800469
 20
21.582958
 30
0.0
 10
33.950075
 20
21.582958
 30
0.0
  0
LWPOLYLINE
  5
119
100
AcDbEntity
  8
Layer_1
 62
5
100
AcDbPolyline
 90
5
 70
0
 10
30.489038
 20
22.602335
 30
0.0
 10
30.692091
 20
22.602335
 30
0.0
 10
30.692091
 20
22.444855
 30
0.0
 10
30.489038
 20
22.444855
 30
0.0
 10
30.489038
 20
22.602335
 30
0.0
  0
LWPOLYLINE
  5
11a
100
AcDbEntity
  8
Layer_1
 62
5
100
AcDbPolyline
 90
5
 70
0
 10
30.848812
 20
17.570300
 30
0.0
 10
31.051865
 20
17.570300
 30
0.0
 10
31.051865
 20
17.412820
 30
0.0
 10
30.848812
 20
17.412820
 30
0.0
 10
30.848812
 20
17.570300
 30
0.0
  0
LWPOLYLINE
  5
11b
100
AcDbEntity
  8
Layer_1
 62
5
100
AcDbPolyline
 90
5
 70
0
 10
33.942093
 20
22.602062
 30
0.0
 10
34.145146
 20
22.602062
 30
0.0
 10
34.145146
 20
22.444581
 30
0.0
 10
33.942093
 20
22.444581
 30
0.0
 10
33.942093
 20
22.602062
 30
0.0
  0
LWPOLYLINE
  5
11c
100
AcDbEntity
  8
Layer_1
 62
5
100
AcDbPolyline
 90
30
 70
0
 10
30.306136
 20
22.580973
 30
0.0
 10
30.290424
 20
22.560643
 30
0.0
 10
30.269985
 20
22.545073
 30
0.0
 10
30.246212
 20
22.535323
 30
0.0
 10
30.220726
 20
22.532059
 30
0.0
 10
30.195264
 20
22.535504
 30
0.0
 10
30.171560
 20
22.545420
 30
0.0
 10
30.151230
 20
22.561132
 30
0.0
 10
30.135660
 20
22.581571
 30
0.0
 10
30.125820
 20
22.604210
 30
0.0
 10
30.125899
 20
22.605344
 30
0.0
 10
30.122454
 20
22.629684
 30
0.0
 10
30.122651
 20
22.630830
 30
0.0
 10
30.125824
 20
22.655159
 30
0.0
 10
30.126100
 20
22.656293
 30
0.0
 10
30.135664
 20
22.678898
 30
0.0
 10
30.136019
 20
22.679996
 30
0.0
 10
30.151309
 20
22.699281
 30
0.0
 10
30.151730
 20
22.700325
 30
0.0
 10
30.172169
 20
22.715895
 30
0.0
 10
30.195942
 20
22.725645
 30
0.0
 10
30.221428
 20
22.728909
 30
0.0
 10
30.246890
 20
22.725468
 30
0.0
 10
30.270594
 20
22.715552
 30
0.0
 10
30.290924
 20
22.699839
 30
0.0
 10
30.306494
 20
22.679400
 30
0.0
 10
30.316244
 20
22.655628
 30
0.0
 10
30.319508
 20
22.630142
 30
0.0
 10
30.316067
 20
22.604680
 30
0.0
 10
30.306151
 20
22.580976
 30
0.0
  0
LWPOLYLINE
  5
11d
100
AcDbEntity
  8
Layer_1
 62
5
100
AcDbPolyline
 90
25
 70
0
 10
33.591342
 20
17.308310
 30
0.0
 10
33.565799
 20
17.305534
 30
0.0
 10
33.540408
 20
17.309464
 30
0.0
 10
33.516898
 20
17.319830
 30
0.0
 10
33.496873
 20
17.335927
 30
0.0
 10
33.481696
 20
17.356659
 30
0.0
 10
33.472403
 20
17.380613
 30
0.0
 10
33.469627
 20
17.406156
 30
0.0
 10
33.473556
 20
17.431547
 30
0.0
 10
33.483922
 20
17.455057
 30
0.0
 10
33.500019
 20
17.475082
 30
0.0
 10
33.520752
 20
17.490258
 30
0.0
 10
33.544705
 20
17.499552
 30
0.0
 10
33.570248
 20
17.502328
 30
0.0
 10
33.595639
 20
17.498399
 30
0.0
 10
33.619149
 20
17.488033
 30
0.0
 10
33.639174
 20
17.471935
 30
0.0
 10
33.654351
 20
17.451203
 30
0.0
 10
33.663644
 20
17.427249
 30
0.0
 10
33.666424
 20
17.401707
 30
0.0
 10
33.662495
 20
17.376316
 30
0.0
 10
33.652129
 20
17.352806
 30
0.0
 10
33.636031
 20
17.332781
 30
0.0
 10
33.615299
 20
17.317604
 30
0.0
 10
33.591345
 20
17.308310
 30
0.0
  0
LWPOLYLINE
  5
11e
100
AcDbEntity
  8
Layer_1
 62
5
100
AcDbPolyline
 90
25
 70
0
 10
30.204021
 20
17.362739
 30
0.0
 10
30.190135
 20
17.341120
 30
0.0
 10
30.171128
 20
17.323831
 30
0.0
 10
30.148293
 20
17.312051
 30
0.0
 10
30.123188
 20
17.306582
 30
0.0
 10
30.097522
 20
17.307798
 30
0.0
 10
30.073046
 20
17.315615
 30
0.0
 10
30.051427
 20
17.329500
 30
0.0
 10
30.034138
 20
17.348507
 30
0.0
 10
30.022358
 20
17.371342
 30
0.0
 10
30.016889
 20
17.396447
 30
0.0
 10
30.018106
 20
17.422112
 30
0.0
 10
30.025922
 20
17.446589
 30
0.0
 10
30.039807
 20
17.468208
 30
0.0
 10
30.058815
 20
17.485497
 30
0.0
 10
30.081649
 20
17.497277
 30
0.0
 10
30.106755
 20
17.502746
 30
0.0
 10
30.132420
 20
17.501530
 30
0.0
 10
30.156897
 20
17.493713
 30
0.0
 10
30.178515
 20
17.479828
 30
0.0
 10
30.195804
 20
17.460821
 30
0.0
 10
30.207585
 20
17.437986
 30
0.0
 10
30.213054
 20
17.412881
 30
0.0
 10
30.211837
 20
17.387215
 30
0.0
 10
30.204021
 20
17.362739
 30
0.0
  0
LWPOLYLINE
  5
11f
100
AcDbEntity
  8
Layer_1
 62
5
100
AcDbPolyline
 90
25
 70
0
 10
31.221426
 20
17.384675
 30
0.0
 10
31.224781
 20
17.410149
 30
0.0
 10
31.234613
 20
17.433887
 30
0.0
 10
31.250255
 20
17.454272
 30
0.0
 10
31.270640
 20
17.469913
 30
0.0
 10
31.294378
 20
17.479746
 30
0.0
 10
31.319852
 20
17.483100
 30
0.0
 10
31.345326
 20
17.479746
 30
0.0
 10
31.369065
 20
17.469913
 30
0.0
 10
31.389449
 20
17.454272
 30
0.0
 10
31.405091
 20
17.433887
 30
0.0
 10
31.414924
 20
17.410149
 30
0.0
 10
31.418278
 20
17.384675
 30
0.0
 10
31.414924
 20
17.359200
 30
0.0
 10
31.405091
 20
17.335462
 30
0.0
 10
31.389449
 20
17.315077
 30
0.0
 10
31.369065
 20
17.299436
 30
0.0
 10
31.345326
 20
17.289603
 30
0.0
 10
31.319852
 20
17.286249
 30
0.0
 10
31.294378
 20
17.289603
 30
0.0
 10
31.270640
 20
17.299436
 30
0.0
 10
31.250255
 20
17.315077
 30
0.0
 10
31.234613
 20
17.335462
 30
0.0
 10
31.224781
 20
17.359200
 30
0.0
 10
31.221426
 20
17.384675
 30
0.0
  0
LWPOLYLINE
  5
120
100
AcDbEntity
  8
Layer_1
 62
5
100
AcDbPolyline
 90
25
 70
0
 10
33.648669
 20
22.725284
 30
0.0
 10
33.674143
 20
22.728639
 30
0.0
 10
33.699618
 20
22.725284
 30
0.0
 10
33.723356
 20
22.715452
 30
0.0
 10
33.743741
 20
22.699810
 30
0.0
 10
33.759382
 20
22.679425
 30
0.0
 10
33.769215
 20
22.655687
 30
0.0
 10
33.772569
 20
22.630213
 30
0.0
 10
33.769215
 20
22.604739
 30
0.0
 10
33.759382
 20
22.581000
 30
0.0
 10
33.743741
 20
22.560616
 30
0.0
 10
33.723356
 20
22.544974
 30
0.0
 10
33.699618
 20
22.535141
 30
0.0
 10
33.674143
 20
22.531787
 30
0.0
 10
33.648669
 20
22.535141
 30
0.0
 10
33.624931
 20
22.544974
 30
0.0
 10
33.604546
 20
22.560616
 30
0.0
 10
33.588905
 20
22.581000
 30
0.0
 10
33.579072
 20
22.604739
 30
0.0
 10
33.575718
 20
22.630213
 30
0.0
 10
33.579072
 20
22.655687
 30
0.0
 10
33.588905
 20
22.679425
 30
0.0
 10
33.604546
 20
22.699810
 30
0.0
 10
33.624931
 20
22.715452
 30
0.0
 10
33.648669
 20
22.725284
 30
0.0
  0
LWPOLYLINE
  5
121
100
AcDbEntity
  8
Layer_1
 62
5
100
AcDbPolyline
 90
25
 70
0
 10
34.780599
 20
22.610224
 30
0.0
 10
34.783954
 20
22.635698
 30
0.0
 10
34.793786
 20
22.659437
 30
0.0
 10
34.809428
 20
22.679821
 30
0.0
 10
34.829813
 20
22.695463
 30
0.0
 10
34.853551
 20
22.705296
 30
0.0
 10
34.879025
 20
22.708650
 30
0.0
 10
34.904500
 20
22.705296
 30
0.0
 10
34.928238
 20
22.695463
 30
0.0
 10
34.948622
 20
22.679821
 30
0.0
 10
34.964264
 20
22.659437
 30
0.0
 10
34.974097
 20
22.635698
 30
0.0
 10
34.977451
 20
22.610224
 30
0.0
 10
34.974097
 20
22.584750
 30
0.0
 10
34.964264
 20
22.561011
 30
0.0
 10
34.948622
 20
22.540627
 30
0.0
 10
34.928238
 20
22.524985
 30
0.0
 10
34.904500
 20
22.515153
 30
0.0
 10
34.879025
 20
22.511798
 30
0.0
 10
34.853551
 20
22.515153
 30
0.0
 10
34.829813
 20
22.524985
 30
0.0
 10
34.809428
 20
22.540627
 30
0.0
 10
34.793786
 20
22.561011
 30
0.0
 10
34.783954
 20
22.584750
 30
0.0
 10
34.780599
 20
22.610224
 30
0.0
  0
LWPOLYLINE
  5
122
100
AcDbEntity
  8
Layer_1
 62
5
100
AcDbPolyline
 90
25
 70
0
 10
31.451265
 20
22.514624
 30
0.0
 10
31.425791
 20
22.511270
 30
0.0
 10
31.400316
 20
22.514624
 30
0.0
 10
31.376578
 20
22.524457
 30
0.0
 10
31.356193
 20
22.540099
 30
0.0
 10
31.340552
 20
22.560483
 30
0.0
 10
31.330719
 20
22.584222
 30
0.0
 10
31.327365
 20
22.609696
 30
0.0
 10
31.330719
 20
22.635170
 30
0.0
 10
31.340552
 20
22.658908
 30
0.0
 10
31.356193
 20
22.679293
 30
0.0
 10
31.376578
 20
22.694935
 30
0.0
 10
31.400316
 20
22.704767
 30
0.0
 10
31.425791
 20
22.708122
 30
0.0
 10
31.451265
 20
22.704767
 30
0.0
 10
31.475003
 20
22.694935
 30
0.0
 10
31.495388
 20
22.679293
 30
0.0
 10
31.511029
 20
22.658908
 30
0.0
 10
31.520862
 20
22.635170
 30
0.0
 10
31.524217
 20
22.609696
 30
0.0
 10
31.520862
 20
22.584222
 30
0.0
 10
31.511029
 20
22.560483
 30
0.0
 10
31.495388
 20
22.540099
 30
0.0
 10
31.475003
 20
22.524457
 30
0.0
 10
31.451265
 20
22.514624
 30
0.0
  0
LWPOLYLINE
  5
123
100
AcDbEntity
  8
Layer_1
 62
5
100
AcDbPolyline
 90
5
 70
0
 10
36.112952
 20
22.978165
 30
0.0
 10
36.393550
 20
22.978165
 30
0.0
 10
36.393550
 20
22.557268
 30
0.0
 10
36.112952
 20
22.557268
 30
0.0
 10
36.112952
 20
22.978165
 30
0.0
  0
LWPOLYLINE
  5
124
100
AcDbEntity
  8
Layer_1
 62
5
100
AcDbPolyline
 90
5
 70
0
 10
23.244733
 20
9.071731
 30
0.0
 10
23.525331
 20
9.071731
 30
0.0
 10
23.525331
 20
8.650834
 30
0.0
 10
23.244733
 20
8.650834
 30
0.0
 10
23.244733
 20
9.071731
 30
0.0
  0
LWPOLYLINE
  5
125
100
AcDbEntity
  8
Layer_1
 62
5
100
AcDbPolyline
 90
5
 70
0
 10
15.056885
 20
5.485689
 30
0.0
 10
15.337483
 20
5.485689
 30
0.0
 10
15.337483
 20
5.064792
 30
0.0
 10
15.056885
 20
5.064792
 30
0.0
 10
15.056885
 20
5.485689
 30
0.0
  0
LWPOLYLINE
  5
126
100
AcDbEntity
  8
Layer_1
 62
5
100
AcDbPolyline
 90
5
 70
0
 10
33.953475
 20
14.097240
 30
0.0
 10
37.118620
 20
14.097240
 30
0.0
 10
37.118620
 20
10.954543
 30
0.0
 10
33.953475
 20
10.954543
 30
0.0
 10
33.953475
 20
14.097240
 30
0.0
  0
LWPOLYLINE
  5
127
100
AcDbEntity
  8
Layer_1
 62
5
100
AcDbPolyline
 90
5
 70
0
 10
37.597418
 20
14.097240
 30
0.0
 10
40.762563
 20
14.097240
 30
0.0
 10
40.762563
 20
10.954543
 30
0.0
 10
37.597418
 20
10.954543
 30
0.0
 10
37.597418
 20
14.097240
 30
0.0
  0
LWPOLYLINE
  5
128
100
AcDbEntity
  8
Layer_1
 62
5
100
AcDbPolyline
 90
5
 70
0
 10
1.040640
 20
7.856742
 30
0.0
 10
4.205784
 20
7.856742
 30
0.0
 10
4.205784
 20
4.714045
 30
0.0
 10
1.040640
 20
4.714045
 30
0.0
 10
1.040640
 20
7.856742
 30
0.0
  0
LWPOLYLINE
  5
129
100
AcDbEntity
  8
Layer_1
 62
5
100
AcDbPolyline
 90
5
 70
0
 10
4.719015
 20
7.857063
 30
0.0
 10
7.884160
 20
7.857063
 30
0.0
 10
7.884160
 20
4.714366
 30
0.0
 10
4.719015
 20
4.714366
 30
0.0
 10
4.719015
 20
7.857063
 30
0.0
  0
LWPOLYLINE
  5
12a
100
AcDbEntity
  8
Layer_1
 62
5
100
AcDbPolyline
 90
5
 70
0
 10
24.046216
 20
23.977787
 30
0.0
 10
15.778500
 20
23.977787
 30
0.0
 10
15.778500
 20
10.198259
 30
0.0
 10
24.046216
 20
10.198259
 30
0.0
 10
24.046216
 20
23.977787
 30
0.0
  0
LWPOLYLINE
  5
12b
100
AcDbEntity
  8
Layer_1
 62
5
100
AcDbPolyline
 90
7
 70
0
 10
17.353303
 20
12.954164
 30
0.0
 10
18.416296
 20
12.954164
 30
0.0
 10
18.416296
 20
12.361756
 30
0.0
 10
18.178910
 20
12.166763
 30
0.0
 10
17.589999
 20
12.166763
 30
0.0
 10
17.353303
 20
12.361756
 30
0.0
 10
17.353303
 20
12.954164
 30
0.0
  0
LWPOLYLINE
  5
12c
100
AcDbEntity
  8
Layer_1
 62
5
100
AcDbPolyline
 90
25
 70
0
 10
23.566157
 20
10.961129
 30
0.0
 10
23.556525
 20
10.937876
 30
0.0
 10
23.541203
 20
10.917907
 30
0.0
 10
23.521235
 20
10.902585
 30
0.0
 10
23.497981
 20
10.892953
 30
0.0
 10
23.473027
 20
10.889668
 30
0.0
 10
23.448073
 20
10.892953
 30
0.0
 10
23.424819
 20
10.902585
 30
0.0
 10
23.404851
 20
10.917907
 30
0.0
 10
23.389528
 20
10.937876
 30
0.0
 10
23.379897
 20
10.961129
 30
0.0
 10
23.376613
 20
10.986084
 30
0.0
 10
23.379897
 20
11.011038
 30
0.0
 10
23.389528
 20
11.034291
 30
0.0
 10
23.404851
 20
11.054260
 30
0.0
 10
23.424819
 20
11.069582
 30
0.0
 10
23.448073
 20
11.079214
 30
0.0
 10
23.473027
 20
11.082499
 30
0.0
 10
23.497981
 20
11.079214
 30
0.0
 10
23.521235
 20
11.069582
 30
0.0
 10
23.541203
 20
11.054260
 30
0.0
 10
23.556525
 20
11.034291
 30
0.0
 10
23.566157
 20
11.011038
 30
0.0
 10
23.569441
 20
10.986084
 30
0.0
 10
23.566157
 20
10.961129
 30
0.0
  0
LWPOLYLINE
  5
12d
100
AcDbEntity
  8
Layer_1
 62
5
100
AcDbPolyline
 90
25
 70
0
 10
23.568610
 20
23.586925
 30
0.0
 10
23.565354
 20
23.562187
 30
0.0
 10
23.555805
 20
23.539134
 30
0.0
 10
23.540615
 20
23.519339
 30
0.0
 10
23.520820
 20
23.504149
 30
0.0
 10
23.497767
 20
23.494600
 30
0.0
 10
23.473029
 20
23.491344
 30
0.0
 10
23.448291
 20
23.494600
 30
0.0
 10
23.425238
 20
23.504149
 30
0.0
 10
23.405442
 20
23.519339
 30
0.0
 10
23.390252
 20
23.539134
 30
0.0
 10
23.380704
 20
23.562187
 30
0.0
 10
23.377448
 20
23.586925
 30
0.0
 10
23.380704
 20
23.611663
 30
0.0
 10
23.390252
 20
23.634716
 30
0.0
 10
23.405442
 20
23.654511
 30
0.0
 10
23.425238
 20
23.669701
 30
0.0
 10
23.448291
 20
23.679250
 30
0.0
 10
23.473029
 20
23.682506
 30
0.0
 10
23.497767
 20
23.679250
 30
0.0
 10
23.520820
 20
23.669701
 30
0.0
 10
23.540615
 20
23.654511
 30
0.0
 10
23.555805
 20
23.634716
 30
0.0
 10
23.565354
 20
23.611663
 30
0.0
 10
23.568610
 20
23.586925
 30
0.0
  0
LWPOLYLINE
  5
12e
100
AcDbEntity
  8
Layer_1
 62
5
100
AcDbPolyline
 90
25
 70
0
 10
16.389418
 20
23.680920
 30
0.0
 10
16.413745
 20
23.677719
 30
0.0
 10
16.436415
 20
23.668329
 30
0.0
 10
16.455882
 20
23.653391
 30
0.0
 10
16.470820
 20
23.633924
 30
0.0
 10
16.480210
 20
23.611255
 30
0.0
 10
16.483412
 20
23.586927
 30
0.0
 10
16.480210
 20
23.562599
 30
0.0
 10
16.470820
 20
23.539929
 30
0.0
 10
16.455882
 20
23.520463
 30
0.0
 10
16.436415
 20
23.505525
 30
0.0
 10
16.413745
 20
23.496135
 30
0.0
 10
16.389418
 20
23.492934
 30
0.0
 10
16.365090
 20
23.496135
 30
0.0
 10
16.342420
 20
23.505525
 30
0.0
 10
16.322954
 20
23.520463
 30
0.0
 10
16.308016
 20
23.539929
 30
0.0
 10
16.298626
 20
23.562599
 30
0.0
 10
16.295423
 20
23.586927
 30
0.0
 10
16.298626
 20
23.611255
 30
0.0
 10
16.308016
 20
23.633924
 30
0.0
 10
16.322954
 20
23.653391
 30
0.0
 10
16.342420
 20
23.668329
 30
0.0
 10
16.365090
 20
23.677719
 30
0.0
 10
16.389418
 20
23.680920
 30
0.0
  0
LWPOLYLINE
  5
12f
100
AcDbEntity
  8
Layer_1
 62
5
100
AcDbPolyline
 90
25
 70
0
 10
16.389418
 20
11.082499
 30
0.0
 10
16.414372
 20
11.079214
 30
0.0
 10
16.437626
 20
11.069582
 30
0.0
 10
16.457594
 20
11.054260
 30
0.0
 10
16.472916
 20
11.034291
 30
0.0
 10
16.482548
 20
11.011038
 30
0.0
 10
16.485834
 20
10.986083
 30
0.0
 10
16.482548
 20
10.961129
 30
0.0
 10
16.472916
 20
10.937876
 30
0.0
 10
16.457594
 20
10.917907
 30
0.0
 10
16.437626
 20
10.902585
 30
0.0
 10
16.414372
 20
10.892953
 30
0.0
 10
16.389418
 20
10.889668
 30
0.0
 10
16.364464
 20
10.892953
 30
0.0
 10
16.341210
 20
10.902585
 30
0.0
 10
16.321242
 20
10.917907
 30
0.0
 10
16.305919
 20
10.937876
 30
0.0
 10
16.296287
 20
10.961129
 30
0.0
 10
16.293002
 20
10.986083
 30
0.0
 10
16.296287
 20
11.011038
 30
0.0
 10
16.305919
 20
11.034291
 30
0.0
 10
16.321242
 20
11.054260
 30
0.0
 10
16.341210
 20
11.069582
 30
0.0
 10
16.364464
 20
11.079214
 30
0.0
 10
16.389418
 20
11.082499
 30
0.0
  0
LWPOLYLINE
  5
130
100
AcDbEntity
  8
Layer_1
 62
5
100
AcDbPolyline
 90
25
 70
0
 10
17.097615
 20
12.675922
 30
0.0
 10
17.116385
 20
12.668147
 30
0.0
 10
17.132503
 20
12.655779
 30
0.0
 10
17.144871
 20
12.639662
 30
0.0
 10
17.152646
 20
12.620892
 30
0.0
 10
17.155297
 20
12.600749
 30
0.0
 10
17.152646
 20
12.580607
 30
0.0
 10
17.144871
 20
12.561837
 30
0.0
 10
17.132503
 20
12.545719
 30
0.0
 10
17.116385
 20
12.533352
 30
0.0
 10
17.097615
 20
12.525577
 30
0.0
 10
17.077473
 20
12.522925
 30
0.0
 10
17.057331
 20
12.525577
 30
0.0
 10
17.038561
 20
12.533352
 30
0.0
 10
17.022443
 20
12.545719
 30
0.0
 10
17.010075
 20
12.561837
 30
0.0
 10
17.002301
 20
12.580607
 30
0.0
 10
16.999649
 20
12.600749
 30
0.0
 10
17.002301
 20
12.620892
 30
0.0
 10
17.010075
 20
12.639662
 30
0.0
 10
17.022443
 20
12.655779
 30
0.0
 10
17.038561
 20
12.668147
 30
0.0
 10
17.057331
 20
12.675922
 30
0.0
 10
17.077473
 20
12.678574
 30
0.0
 10
17.097615
 20
12.675922
 30
0.0
  0
LWPOLYLINE
  5
131
100
AcDbEntity
  8
Layer_1
 62
5
100
AcDbPolyline
 90
25
 70
0
 10
18.769969
 20
12.600749
 30
0.0
 10
18.767361
 20
12.580936
 30
0.0
 10
18.759713
 20
12.562472
 30
0.0
 10
18.747547
 20
12.546617
 30
0.0
 10
18.731692
 20
12.534451
 30
0.0
 10
18.713229
 20
12.526804
 30
0.0
 10
18.693415
 20
12.524195
 30
0.0
 10
18.673601
 20
12.526804
 30
0.0
 10
18.655138
 20
12.534451
 30
0.0
 10
18.639283
 20
12.546617
 30
0.0
 10
18.627117
 20
12.562472
 30
0.0
 10
18.619469
 20
12.580936
 30
0.0
 10
18.616860
 20
12.600749
 30
0.0
 10
18.619469
 20
12.620563
 30
0.0
 10
18.627117
 20
12.639027
 30
0.0
 10
18.639283
 20
12.654881
 30
0.0
 10
18.655138
 20
12.667047
 30
0.0
 10
18.673601
 20
12.674695
 30
0.0
 10
18.693415
 20
12.677304
 30
0.0
 10
18.713229
 20
12.674695
 30
0.0
 10
18.731692
 20
12.667047
 30
0.0
 10
18.747547
 20
12.654881
 30
0.0
 10
18.759713
 20
12.639027
 30
0.0
 10
18.767361
 20
12.620563
 30
0.0
 10
18.769969
 20
12.600749
 30
0.0
  0
LWPOLYLINE
  5
132
100
AcDbEntity
  8
Layer_1
 62
5
100
AcDbPolyline
 90
14
 70
0
 10
16.756752
 20
3.088635
 30
0.0
 10
16.756752
 20
9.387848
 30
0.0
 10
15.969351
 20
9.387848
 30
0.0
 10
15.969351
 20
10.175250
 30
0.0
 10
9.670138
 20
10.175250
 30
0.0
 10
9.670138
 20
9.387848
 30
0.0
 10
8.882736
 20
9.387848
 30
0.0
 10
8.882736
 20
3.088635
 30
0.0
 10
9.670138
 20
3.088635
 30
0.0
 10
9.670138
 20
2.301234
 30
0.0
 10
9.706320
 20
2.301234
 30
0.0
 10
15.969351
 20
2.301234
 30
0.0
 10
15.969351
 20
3.088635
 30
0.0
 10
16.756752
 20
3.088635
 30
0.0
  0
LWPOLYLINE
  5
133
100
AcDbEntity
  8
Layer_1
 62
5
100
AcDbPolyline
 90
7
 70
0
 10
29.369001
 20
23.975938
 30
0.0
 10
24.057746
 20
23.975938
 30
0.0
 10
24.057746
 20
15.708223
 30
0.0
 10
28.922720
 20
15.708224
 30
0.0
 10
28.922720
 20
18.248853
 30
0.0
 10
29.369001
 20
19.036254
 30
0.0
 10
29.369001
 20
23.975938
 30
0.0
  0
LWPOLYLINE
  5
134
100
AcDbEntity
  8
Layer_1
 62
5
100
AcDbPolyline
 90
5
 70
0
 10
26.621869
 20
17.638619
 30
0.0
 10
27.763601
 20
17.638619
 30
0.0
 10
27.763601
 20
16.772477
 30
0.0
 10
26.621869
 20
16.772477
 30
0.0
 10
26.621869
 20
17.638619
 30
0.0
  0
LWPOLYLINE
  5
135
100
AcDbEntity
  8
Layer_1
 62
5
100
AcDbPolyline
 90
5
 70
0
 10
25.998015
 20
18.890584
 30
0.0
 10
28.419275
 20
18.890584
 30
0.0
 10
28.419275
 20
18.642553
 30
0.0
 10
25.998015
 20
18.642553
 30
0.0
 10
25.998015
 20
18.890584
 30
0.0
  0
LWPOLYLINE
  5
136
100
AcDbEntity
  8
Layer_1
 62
5
100
AcDbPolyline
 90
25
 70
0
 10
26.675998
 20
16.211401
 30
0.0
 10
26.651207
 20
16.208578
 30
0.0
 10
26.626531
 20
16.212267
 30
0.0
 10
26.603650
 20
16.222218
 30
0.0
 10
26.584124
 20
16.237751
 30
0.0
 10
26.569285
 20
16.257809
 30
0.0
 10
26.560142
 20
16.281025
 30
0.0
 10
26.557319
 20
16.305815
 30
0.0
 10
26.561009
 20
16.330492
 30
0.0
 10
26.570960
 20
16.353372
 30
0.0
 10
26.586494
 20
16.372898
 30
0.0
 10
26.606552
 20
16.387738
 30
0.0
 10
26.629767
 20
16.396881
 30
0.0
 10
26.654558
 20
16.399703
 30
0.0
 10
26.679234
 20
16.396014
 30
0.0
 10
26.702115
 20
16.386064
 30
0.0
 10
26.721640
 20
16.370530
 30
0.0
 10
26.736480
 20
16.350472
 30
0.0
 10
26.745623
 20
16.327257
 30
0.0
 10
26.748446
 20
16.302466
 30
0.0
 10
26.744756
 20
16.277790
 30
0.0
 10
26.734805
 20
16.254909
 30
0.0
 10
26.719271
 20
16.235383
 30
0.0
 10
26.699213
 20
16.220544
 30
0.0
 10
26.675998
 20
16.211401
 30
0.0
  0
LWPOLYLINE
  5
137
100
AcDbEntity
  8
Layer_1
 62
5
100
AcDbPolyline
 90
25
 70
0
 10
24.941985
 20
16.284787
 30
0.0
 10
24.933743
 20
16.260889
 30
0.0
 10
24.919596
 20
16.239939
 30
0.0
 10
24.900510
 20
16.223364
 30
0.0
 10
24.877783
 20
16.212294
 30
0.0
 10
24.852966
 20
16.207483
 30
0.0
 10
24.827749
 20
16.209259
 30
0.0
 10
24.803852
 20
16.217501
 30
0.0
 10
24.782901
 20
16.231648
 30
0.0
 10
24.766327
 20
16.250735
 30
0.0
 10
24.755257
 20
16.273461
 30
0.0
 10
24.750446
 20
16.298278
 30
0.0
 10
24.752222
 20
16.323495
 30
0.0
 10
24.760464
 20
16.347393
 30
0.0
 10
24.774611
 20
16.368343
 30
0.0
 10
24.793698
 20
16.384918
 30
0.0
 10
24.816424
 20
16.395988
 30
0.0
 10
24.841242
 20
16.400798
 30
0.0
 10
24.866458
 20
16.399023
 30
0.0
 10
24.890356
 20
16.390780
 30
0.0
 10
24.911306
 20
16.376634
 30
0.0
 10
24.927881
 20
16.357547
 30
0.0
 10
24.938951
 20
16.334820
 30
0.0
 10
24.943762
 20
16.310003
 30
0.0
 10
24.941985
 20
16.284786
 30
0.0
  0
LWPOLYLINE
  5
138
100
AcDbEntity
  8
Layer_1
 62
5
100
AcDbPolyline
 90
25
 70
0
 10
28.437373
 20
19.028158
 30
0.0
 10
28.434152
 20
19.003688
 30
0.0
 10
28.424707
 20
18.980887
 30
0.0
 10
28.409683
 20
18.961307
 30
0.0
 10
28.390103
 20
18.946282
 30
0.0
 10
28.367301
 20
18.936837
 30
0.0
 10
28.342832
 20
18.933617
 30
0.0
 10
28.318363
 20
18.936837
 30
0.0
 10
28.295561
 20
18.946282
 30
0.0
 10
28.275981
 20
18.961307
 30
0.0
 10
28.260956
 20
18.980887
 30
0.0
 10
28.251511
 20
19.003688
 30
0.0
 10
28.248291
 20
19.028158
 30
0.0
 10
28.251511
 20
19.052627
 30
0.0
 10
28.260956
 20
19.075429
 30
0.0
 10
28.275981
 20
19.095009
 30
0.0
 10
28.295561
 20
19.110033
 30
0.0
 10
28.318363
 20
19.119478
 30
0.0
 10
28.342832
 20
19.122699
 30
0.0
 10
28.367301
 20
19.119478
 30
0.0
 10
28.390103
 20
19.110033
 30
0.0
 10
28.409683
 20
19.095009
 30
0.0
 10
28.424707
 20
19.075429
 30
0.0
 10
28.434152
 20
19.052627
 30
0.0
 10
28.437373
 20
19.028158
 30
0.0
  0
LWPOLYLINE
  5
139
100
AcDbEntity
  8
Layer_1
 62
5
100
AcDbPolyline
 90
25
 70
0
 10
26.149333
 20
19.028158
 30
0.0
 10
26.146256
 20
19.004785
 30
0.0
 10
26.137234
 20
18.983004
 30
0.0
 10
26.122883
 20
18.964301
 30
0.0
 10
26.104179
 20
18.949950
 30
0.0
 10
26.082399
 20
18.940928
 30
0.0
 10
26.059026
 20
18.937849
 30
0.0
 10
26.035653
 20
18.940928
 30
0.0
 10
26.013873
 20
18.949950
 30
0.0
 10
25.995170
 20
18.964301
 30
0.0
 10
25.980818
 20
18.983004
 30
0.0
 10
25.971797
 20
19.004785
 30
0.0
 10
25.968719
 20
19.028158
 30
0.0
 10
25.971797
 20
19.051531
 30
0.0
 10
25.980818
 20
19.073311
 30
0.0
 10
25.995170
 20
19.092014
 30
0.0
 10
26.013873
 20
19.106366
 30
0.0
 10
26.035653
 20
19.115387
 30
0.0
 10
26.059026
 20
19.118466
 30
0.0
 10
26.082399
 20
19.115387
 30
0.0
 10
26.104179
 20
19.106366
 30
0.0
 10
26.122883
 20
19.092014
 30
0.0
 10
26.137234
 20
19.073311
 30
0.0
 10
26.146256
 20
19.051531
 30
0.0
 10
26.149333
 20
19.028158
 30
0.0
  0
LWPOLYLINE
  5
13a
100
AcDbEntity
  8
Layer_1
 62
5
100
AcDbPolyline
 90
25
 70
0
 10
26.153909
 20
22.305156
 30
0.0
 10
26.150676
 20
22.280599
 30
0.0
 10
26.141197
 20
22.257715
 30
0.0
 10
26.126118
 20
22.238064
 30
0.0
 10
26.106467
 20
22.222985
 30
0.0
 10
26.083584
 20
22.213506
 30
0.0
 10
26.059026
 20
22.210273
 30
0.0
 10
26.034469
 20
22.213506
 30
0.0
 10
26.011585
 20
22.222985
 30
0.0
 10
25.991934
 20
22.238064
 30
0.0
 10
25.976855
 20
22.257715
 30
0.0
 10
25.967376
 20
22.280599
 30
0.0
 10
25.964143
 20
22.305156
 30
0.0
 10
25.967376
 20
22.329714
 30
0.0
 10
25.976855
 20
22.352597
 30
0.0
 10
25.991934
 20
22.372248
 30
0.0
 10
26.011585
 20
22.387327
 30
0.0
 10
26.034469
 20
22.396806
 30
0.0
 10
26.059026
 20
22.400039
 30
0.0
 10
26.083584
 20
22.396806
 30
0.0
 10
26.106467
 20
22.387327
 30
0.0
 10
26.126118
 20
22.372248
 30
0.0
 10
26.141197
 20
22.352597
 30
0.0
 10
26.150676
 20
22.329714
 30
0.0
 10
26.153909
 20
22.305156
 30
0.0
  0
LWPOLYLINE
  5
13b
100
AcDbEntity
  8
Layer_1
 62
5
100
AcDbPolyline
 90
25
 70
0
 10
28.367711
 20
22.398010
 30
0.0
 10
28.390896
 20
22.388406
 30
0.0
 10
28.410805
 20
22.373130
 30
0.0
 10
28.426081
 20
22.353221
 30
0.0
 10
28.435685
 20
22.330036
 30
0.0
 10
28.438960
 20
22.305156
 30
0.0
 10
28.435685
 20
22.280276
 30
0.0
 10
28.426081
 20
22.257092
 30
0.0
 10
28.410805
 20
22.237183
 30
0.0
 10
28.390896
 20
22.221906
 30
0.0
 10
28.367711
 20
22.212302
 30
0.0
 10
28.342831
 20
22.209027
 30
0.0
 10
28.317951
 20
22.212302
 30
0.0
 10
28.294766
 20
22.221906
 30
0.0
 10
28.274857
 20
22.237183
 30
0.0
 10
28.259581
 20
22.257092
 30
0.0
 10
28.249977
 20
22.280276
 30
0.0
 10
28.246702
 20
22.305156
 30
0.0
 10
28.249977
 20
22.330036
 30
0.0
 10
28.259581
 20
22.353221
 30
0.0
 10
28.274857
 20
22.373130
 30
0.0
 10
28.294766
 20
22.388406
 30
0.0
 10
28.317951
 20
22.398010
 30
0.0
 10
28.342831
 20
22.401285
 30
0.0
 10
28.367711
 20
22.398010
 30
0.0
  0
LWPOLYLINE
  5
13c
100
AcDbEntity
  8
Layer_1
 62
5
100
AcDbPolyline
 90
25
 70
0
 10
29.161088
 20
23.405681
 30
0.0
 10
29.164277
 20
23.381469
 30
0.0
 10
29.161088
 20
23.357258
 30
0.0
 10
29.151742
 20
23.334697
 30
0.0
 10
29.136876
 20
23.315323
 30
0.0
 10
29.117503
 20
23.300457
 30
0.0
 10
29.094941
 20
23.291112
 30
0.0
 10
29.070730
 20
23.287924
 30
0.0
 10
29.046518
 20
23.291112
 30
0.0
 10
29.023957
 20
23.300457
 30
0.0
 10
29.004583
 20
23.315323
 30
0.0
 10
28.989717
 20
23.334697
 30
0.0
 10
28.980372
 20
23.357258
 30
0.0
 10
28.977183
 20
23.381469
 30
0.0
 10
28.980372
 20
23.405681
 30
0.0
 10
28.989717
 20
23.428242
 30
0.0
 10
29.004583
 20
23.447616
 30
0.0
 10
29.023957
 20
23.462482
 30
0.0
 10
29.046518
 20
23.471827
 30
0.0
 10
29.070730
 20
23.475015
 30
0.0
 10
29.094941
 20
23.471827
 30
0.0
 10
29.117503
 20
23.462482
 30
0.0
 10
29.136876
 20
23.447616
 30
0.0
 10
29.151742
 20
23.428242
 30
0.0
 10
29.161088
 20
23.405681
 30
0.0
  0
LWPOLYLINE
  5
13d
100
AcDbEntity
  8
Layer_1
 62
5
100
AcDbPolyline
 90
25
 70
0
 10
24.822136
 20
23.474651
 30
0.0
 10
24.847104
 20
23.477938
 30
0.0
 10
24.872072
 20
23.474651
 30
0.0
 10
24.895338
 20
23.465014
 30
0.0
 10
24.915318
 20
23.449683
 30
0.0
 10
24.930648
 20
23.429703
 30
0.0
 10
24.940286
 20
23.406437
 30
0.0
 10
24.943573
 20
23.381469
 30
0.0
 10
24.940286
 20
23.356501
 30
0.0
 10
24.930648
 20
23.333234
 30
0.0
 10
24.915318
 20
23.313255
 30
0.0
 10
24.895338
 20
23.297924
 30
0.0
 10
24.872072
 20
23.288287
 30
0.0
 10
24.847104
 20
23.285000
 30
0.0
 10
24.822136
 20
23.288287
 30
0.0
 10
24.798869
 20
23.297924
 30
0.0
 10
24.778890
 20
23.313255
 30
0.0
 10
24.763559
 20
23.333234
 30
0.0
 10
24.753922
 20
23.356501
 30
0.0
 10
24.750635
 20
23.381469
 30
0.0
 10
24.753922
 20
23.406437
 30
0.0
 10
24.763559
 20
23.429703
 30
0.0
 10
24.778890
 20
23.449683
 30
0.0
 10
24.798869
 20
23.465014
 30
0.0
 10
24.822136
 20
23.474651
 30
0.0
  0
LWPOLYLINE
  5
13e
100
AcDbEntity
  8
Layer_1
 62
5
100
AcDbPolyline
 90
7
 70
0
 10
0.013326
 20
1.925704
 30
0.0
 10
8.878725
 20
1.925704
 30
0.0
 10
8.878725
 20
10.193419
 30
0.0
 10
0.443579
 20
10.193419
 30
0.0
 10
0.443579
 20
5.253735
 30
0.0
 10
0.013326
 20
4.466334
 30
0.0
 10
0.013326
 20
1.925704
 30
0.0
  0
LWPOLYLINE
  5
13f
100
AcDbEntity
  8
Layer_1
 62
5
100
AcDbPolyline
 90
25
 70
0
 10
2.988154
 20
3.386263
 30
0.0
 10
2.991308
 20
3.362304
 30
0.0
 10
2.988154
 20
3.338346
 30
0.0
 10
2.978907
 20
3.316020
 30
0.0
 10
2.964196
 20
3.296848
 30
0.0
 10
2.945024
 20
3.282137
 30
0.0
 10
2.922698
 20
3.272890
 30
0.0
 10
2.898740
 20
3.269736
 30
0.0
 10
2.874781
 20
3.272890
 30
0.0
 10
2.852455
 20
3.282137
 30
0.0
 10
2.833284
 20
3.296848
 30
0.0
 10
2.818573
 20
3.316020
 30
0.0
 10
2.809325
 20
3.338346
 30
0.0
 10
2.806171
 20
3.362304
 30
0.0
 10
2.809325
 20
3.386263
 30
0.0
 10
2.818573
 20
3.408589
 30
0.0
 10
2.833284
 20
3.427760
 30
0.0
 10
2.852455
 20
3.442471
 30
0.0
 10
2.874781
 20
3.451719
 30
0.0
 10
2.898740
 20
3.454872
 30
0.0
 10
2.922698
 20
3.451719
 30
0.0
 10
2.945024
 20
3.442471
 30
0.0
 10
2.964196
 20
3.427760
 30
0.0
 10
2.978907
 20
3.408589
 30
0.0
 10
2.988154
 20
3.386263
 30
0.0
  0
LWPOLYLINE
  5
140
100
AcDbEntity
  8
Layer_1
 62
5
100
AcDbPolyline
 90
25
 70
0
 10
5.507740
 20
3.387050
 30
0.0
 10
5.511000
 20
3.362306
 30
0.0
 10
5.507740
 20
3.337561
 30
0.0
 10
5.498189
 20
3.314504
 30
0.0
 10
5.482996
 20
3.294703
 30
0.0
 10
5.463195
 20
3.279510
 30
0.0
 10
5.440137
 20
3.269959
 30
0.0
 10
5.415393
 20
3.266703
 30
0.0
 10
5.390649
 20
3.269959
 30
0.0
 10
5.367590
 20
3.279510
 30
0.0
 10
5.347790
 20
3.294703
 30
0.0
 10
5.332597
 20
3.314504
 30
0.0
 10
5.323046
 20
3.337561
 30
0.0
 10
5.319786
 20
3.362306
 30
0.0
 10
5.323046
 20
3.387050
 30
0.0
 10
5.332597
 20
3.410108
 30
0.0
 10
5.347790
 20
3.429909
 30
0.0
 10
5.367590
 20
3.445102
 30
0.0
 10
5.390649
 20
3.454653
 30
0.0
 10
5.415393
 20
3.457913
 30
0.0
 10
5.440137
 20
3.454653
 30
0.0
 10
5.463195
 20
3.445102
 30
0.0
 10
5.482996
 20
3.429909
 30
0.0
 10
5.498189
 20
3.410108
 30
0.0
 10
5.507740
 20
3.387050
 30
0.0
  0
LWPOLYLINE
  5
141
100
AcDbEntity
  8
Layer_1
 62
5
100
AcDbPolyline
 90
59
 70
0
 10
1.044083
 20
3.482083
 30
0.0
 10
1.044083
 20
8.600193
 30
0.0
 10
1.048040
 20
8.669091
 30
0.0
 10
1.059858
 20
8.737083
 30
0.0
 10
1.079382
 20
8.803275
 30
0.0
 10
1.106355
 20
8.866797
 30
0.0
 10
1.140422
 20
8.926814
 30
0.0
 10
1.181136
 20
8.982536
 30
0.0
 10
1.227961
 20
9.033231
 30
0.0
 10
1.280282
 20
9.078232
 30
0.0
 10
1.337411
 20
9.116948
 30
0.0
 10
1.398596
 20
9.148869
 30
0.0
 10
1.463033
 20
9.173576
 30
0.0
 10
1.529875
 20
9.190744
 30
0.0
 10
2.008647
 20
9.190744
 30
0.0
 10
6.121715
 20
9.190744
 30
0.0
 10
7.303925
 20
9.190744
 30
0.0
 10
7.381007
 20
9.185692
 30
0.0
 10
7.456771
 20
9.170622
 30
0.0
 10
7.529919
 20
9.145791
 30
0.0
 10
7.599200
 20
9.111625
 30
0.0
 10
7.663429
 20
9.068709
 30
0.0
 10
7.721507
 20
9.017776
 30
0.0
 10
7.772440
 20
8.959698
 30
0.0
 10
7.815356
 20
8.895469
 30
0.0
 10
7.849522
 20
8.826187
 30
0.0
 10
7.874353
 20
8.753039
 30
0.0
 10
7.889423
 20
8.677276
 30
0.0
 10
7.894475
 20
8.600193
 30
0.0
 10
7.894475
 20
3.482083
 30
0.0
 10
7.890518
 20
3.413821
 30
0.0
 10
7.878698
 20
3.346474
 30
0.0
 10
7.859175
 20
3.280944
 30
0.0
 10
7.832209
 20
3.218110
 30
0.0
 10
7.798163
 20
3.158813
 30
0.0
 10
7.757492
 20
3.103848
 30
0.0
 10
7.710741
 20
3.053951
 30
0.0
 10
7.658538
 20
3.009791
 30
0.0
 10
7.601580
 20
2.971961
 30
0.0
 10
7.540633
 20
2.940965
 30
0.0
 10
7.476512
 20
2.917221
 30
0.0
 10
7.410077
 20
2.901046
 30
0.0
 10
6.319666
 20
2.901046
 30
0.0
 10
5.335416
 20
3.875783
 30
0.0
 10
2.973213
 20
3.875783
 30
0.0
 10
2.002999
 20
2.891531
 30
0.0
 10
1.529875
 20
2.891531
 30
0.0
 10
1.460197
 20
2.903219
 30
0.0
 10
1.392627
 20
2.923856
 30
0.0
 10
1.328309
 20
2.953093
 30
0.0
 10
1.268332
 20
2.990433
 30
0.0
 10
1.213712
 20
3.035247
 30
0.0
 10
1.165373
 20
3.086773
 30
0.0
 10
1.124135
 20
3.144141
 30
0.0
 10
1.090695
 20
3.206377
 30
0.0
 10
1.065621
 20
3.272429
 30
0.0
 10
1.049336
 20
3.341178
 30
0.0
 10
1.042116
 20
3.411459
 30
0.0
 10
1.044083
 20
3.482083
 30
0.0
  0
LWPOLYLINE
  5
142
100
AcDbEntity
  8
Layer_1
 62
5
100
AcDbPolyline
 90
11
 70
0
 10
0.811509
 20
17.597374
 30
0.0
 10
3.468979
 20
17.597374
 30
0.0
 10
3.468997
 20
18.561940
 30
0.0
 10
3.468997
 20
20.924142
 30
0.0
 10
3.468979
 20
21.731232
 30
0.0
 10
2.976860
 20
21.731232
 30
0.0
 10
2.768800
 20
21.475322
 30
0.0
 10
1.598355
 20
21.475322
 30
0.0
 10
1.402059
 20
21.710442
 30
0.0
 10
0.811509
 20
21.710442
 30
0.0
 10
0.811509
 20
17.597374
 30
0.0
  0
LWPOLYLINE
  5
143
100
AcDbEntity
  8
Layer_1
 62
5
100
AcDbPolyline
 90
25
 70
0
 10
1.083838
 20
21.341903
 30
0.0
 10
1.087099
 20
21.317134
 30
0.0
 10
1.083838
 20
21.292365
 30
0.0
 10
1.074277
 20
21.269283
 30
0.0
 10
1.059069
 20
21.249463
 30
0.0
 10
1.039248
 20
21.234254
 30
0.0
 10
1.016167
 20
21.224694
 30
0.0
 10
0.991397
 20
21.221433
 30
0.0
 10
0.966628
 20
21.224694
 30
0.0
 10
0.943547
 20
21.234254
 30
0.0
 10
0.923726
 20
21.249463
 30
0.0
 10
0.908518
 20
21.269283
 30
0.0
 10
0.898957
 20
21.292365
 30
0.0
 10
0.895696
 20
21.317134
 30
0.0
 10
0.898957
 20
21.341903
 30
0.0
 10
0.908518
 20
21.364985
 30
0.0
 10
0.923726
 20
21.384805
 30
0.0
 10
0.943547
 20
21.400014
 30
0.0
 10
0.966628
 20
21.409574
 30
0.0
 10
0.991397
 20
21.412835
 30
0.0
 10
1.016167
 20
21.409574
 30
0.0
 10
1.039248
 20
21.400014
 30
0.0
 10
1.059069
 20
21.384805
 30
0.0
 10
1.074277
 20
21.364985
 30
0.0
 10
1.083838
 20
21.341903
 30
0.0
  0
LWPOLYLINE
  5
144
100
AcDbEntity
  8
Layer_1
 62
5
100
AcDbPolyline
 90
25
 70
0
 10
0.921418
 20
18.112049
 30
0.0
 10
0.941666
 20
18.127586
 30
0.0
 10
0.965246
 20
18.137353
 30
0.0
 10
0.990549
 20
18.140684
 30
0.0
 10
1.015853
 20
18.137353
 30
0.0
 10
1.039433
 20
18.127586
 30
0.0
 10
1.059681
 20
18.112049
 30
0.0
 10
1.075217
 20
18.091801
 30
0.0
 10
1.084984
 20
18.068222
 30
0.0
 10
1.088315
 20
18.042918
 30
0.0
 10
1.084984
 20
18.017614
 30
0.0
 10
1.075217
 20
17.994035
 30
0.0
 10
1.059681
 20
17.973787
 30
0.0
 10
1.039433
 20
17.958250
 30
0.0
 10
1.015853
 20
17.948483
 30
0.0
 10
0.990549
 20
17.945153
 30
0.0
 10
0.965246
 20
17.948483
 30
0.0
 10
0.941666
 20
17.958250
 30
0.0
 10
0.921418
 20
17.973787
 30
0.0
 10
0.905882
 20
17.994035
 30
0.0
 10
0.896115
 20
18.017614
 30
0.0
 10
0.892783
 20
18.042918
 30
0.0
 10
0.896115
 20
18.068222
 30
0.0
 10
0.905882
 20
18.091801
 30
0.0
 10
0.921418
 20
18.112049
 30
0.0
  0
LWPOLYLINE
  5
145
100
AcDbEntity
  8
Layer_1
 62
5
100
AcDbPolyline
 90
25
 70
0
 10
3.247597
 20
21.413187
 30
0.0
 10
3.272140
 20
21.416273
 30
0.0
 10
3.296645
 20
21.412901
 30
0.0
 10
3.319442
 20
21.403301
 30
0.0
 10
3.338978
 20
21.388129
 30
0.0
 10
3.353921
 20
21.368417
 30
0.0
 10
3.363253
 20
21.345509
 30
0.0
 10
3.366339
 20
21.320966
 30
0.0
 10
3.362967
 20
21.296461
 30
0.0
 10
3.353367
 20
21.273664
 30
0.0
 10
3.338195
 20
21.254128
 30
0.0
 10
3.318483
 20
21.239184
 30
0.0
 10
3.295575
 20
21.229852
 30
0.0
 10
3.271032
 20
21.226767
 30
0.0
 10
3.246527
 20
21.230139
 30
0.0
 10
3.223730
 20
21.239738
 30
0.0
 10
3.204194
 20
21.254911
 30
0.0
 10
3.189250
 20
21.274623
 30
0.0
 10
3.179918
 20
21.297531
 30
0.0
 10
3.176833
 20
21.322073
 30
0.0
 10
3.180205
 20
21.346578
 30
0.0
 10
3.189804
 20
21.369376
 30
0.0
 10
3.204977
 20
21.388912
 30
0.0
 10
3.224689
 20
21.403855
 30
0.0
 10
3.247597
 20
21.413187
 30
0.0
  0
LWPOLYLINE
  5
146
100
AcDbEntity
  8
Layer_1
 62
5
100
AcDbPolyline
 90
25
 70
0
 10
3.224413
 20
18.122249
 30
0.0
 10
3.246507
 20
18.131401
 30
0.0
 10
3.270215
 20
18.134523
 30
0.0
 10
3.293924
 20
18.131401
 30
0.0
 10
3.316017
 20
18.122249
 30
0.0
 10
3.334989
 20
18.107692
 30
0.0
 10
3.349547
 20
18.088720
 30
0.0
 10
3.358698
 20
18.066627
 30
0.0
 10
3.361819
 20
18.042918
 30
0.0
 10
3.358698
 20
18.019209
 30
0.0
 10
3.349547
 20
17.997116
 30
0.0
 10
3.334989
 20
17.978144
 30
0.0
 10
3.316017
 20
17.963587
 30
0.0
 10
3.293924
 20
17.954436
 30
0.0
 10
3.270215
 20
17.951314
 30
0.0
 10
3.246507
 20
17.954436
 30
0.0
 10
3.224413
 20
17.963587
 30
0.0
 10
3.205442
 20
17.978144
 30
0.0
 10
3.190884
 20
17.997116
 30
0.0
 10
3.181733
 20
18.019209
 30
0.0
 10
3.178612
 20
18.042918
 30
0.0
 10
3.181733
 20
18.066627
 30
0.0
 10
3.190884
 20
18.088720
 30
0.0
 10
3.205442
 20
18.107692
 30
0.0
 10
3.224413
 20
18.122249
 30
0.0
  0
LWPOLYLINE
  5
147
100
AcDbEntity
  8
Layer_1
 62
5
100
AcDbPolyline
 90
5
 70
0
 10
1.073383
 20
18.203714
 30
0.0
 10
1.073383
 20
21.172372
 30
0.0
 10
3.180948
 20
21.172372
 30
0.0
 10
3.180948
 20
18.203714
 30
0.0
 10
1.073383
 20
18.203714
 30
0.0
  0
LWPOLYLINE
  5
148
100
AcDbEntity
  8
Layer_1
 62
5
100
AcDbPolyline
 90
5
 70
0
 10
15.769046
 20
10.191007
 30
0.0
 10
15.769046
 20
23.970535
 30
0.0
 10
7.895031
 20
23.970535
 30
0.0
 10
7.895031
 20
10.191007
 30
0.0
 10
15.769046
 20
10.191007
 30
0.0
  0
LWPOLYLINE
  5
149
100
AcDbEntity
  8
Layer_1
 62
5
100
AcDbPolyline
 90
25
 70
0
 10
8.212977
 20
10.992113
 30
0.0
 10
8.220457
 20
11.017409
 30
0.0
 10
8.234228
 20
11.039907
 30
0.0
 10
8.253353
 20
11.058073
 30
0.0
 10
8.276529
 20
11.070671
 30
0.0
 10
8.302175
 20
11.076842
 30
0.0
 10
8.328544
 20
11.076164
 30
0.0
 10
8.353839
 20
11.068685
 30
0.0
 10
8.376337
 20
11.054913
 30
0.0
 10
8.394504
 20
11.035788
 30
0.0
 10
8.407102
 20
11.012613
 30
0.0
 10
8.413272
 20
10.986967
 30
0.0
 10
8.412595
 20
10.960598
 30
0.0
 10
8.405116
 20
10.935302
 30
0.0
 10
8.391344
 20
10.912804
 30
0.0
 10
8.372219
 20
10.894637
 30
0.0
 10
8.349044
 20
10.882040
 30
0.0
 10
8.323398
 20
10.875869
 30
0.0
 10
8.297028
 20
10.876547
 30
0.0
 10
8.271733
 20
10.884026
 30
0.0
 10
8.249235
 20
10.897797
 30
0.0
 10
8.231068
 20
10.916922
 30
0.0
 10
8.218470
 20
10.940098
 30
0.0
 10
8.212300
 20
10.965744
 30
0.0
 10
8.212977
 20
10.992113
 30
0.0
  0
LWPOLYLINE
  5
14a
100
AcDbEntity
  8
Layer_1
 62
5
100
AcDbPolyline
 90
25
 70
0
 10
15.346410
 20
10.885357
 30
0.0
 10
15.324302
 20
10.899428
 30
0.0
 10
15.306589
 20
10.918741
 30
0.0
 10
15.294479
 20
10.941980
 30
0.0
 10
15.288796
 20
10.967562
 30
0.0
 10
15.289926
 20
10.993744
 30
0.0
 10
15.297795
 20
11.018740
 30
0.0
 10
15.311865
 20
11.040848
 30
0.0
 10
15.331179
 20
11.058561
 30
0.0
 10
15.354418
 20
11.070671
 30
0.0
 10
15.380000
 20
11.076354
 30
0.0
 10
15.406181
 20
11.075223
 30
0.0
 10
15.431178
 20
11.067354
 30
0.0
 10
15.453285
 20
11.053283
 30
0.0
 10
15.470998
 20
11.033970
 30
0.0
 10
15.483109
 20
11.010731
 30
0.0
 10
15.488792
 20
10.985149
 30
0.0
 10
15.487662
 20
10.958967
 30
0.0
 10
15.479793
 20
10.933971
 30
0.0
 10
15.465722
 20
10.911863
 30
0.0
 10
15.446409
 20
10.894150
 30
0.0
 10
15.423170
 20
10.882040
 30
0.0
 10
15.397588
 20
10.876357
 30
0.0
 10
15.371406
 20
10.877488
 30
0.0
 10
15.346410
 20
10.885357
 30
0.0
  0
LWPOLYLINE
  5
14b
100
AcDbEntity
  8
Layer_1
 62
5
100
AcDbPolyline
 90
25
 70
0
 10
15.331976
 20
23.657086
 30
0.0
 10
15.354420
 20
23.669091
 30
0.0
 10
15.379206
 20
23.674880
 30
0.0
 10
15.404646
 20
23.674057
 30
0.0
 10
15.429005
 20
23.666676
 30
0.0
 10
15.450624
 20
23.653242
 30
0.0
 10
15.468030
 20
23.634670
 30
0.0
 10
15.480036
 20
23.612227
 30
0.0
 10
15.485824
 20
23.587441
 30
0.0
 10
15.485001
 20
23.562001
 30
0.0
 10
15.477620
 20
23.537642
 30
0.0
 10
15.464186
 20
23.516022
 30
0.0
 10
15.445615
 20
23.498617
 30
0.0
 10
15.423171
 20
23.486611
 30
0.0
 10
15.398385
 20
23.480823
 30
0.0
 10
15.372945
 20
23.481646
 30
0.0
 10
15.348586
 20
23.489027
 30
0.0
 10
15.326967
 20
23.502461
 30
0.0
 10
15.309561
 20
23.521032
 30
0.0
 10
15.297555
 20
23.543476
 30
0.0
 10
15.291767
 20
23.568262
 30
0.0
 10
15.292590
 20
23.593702
 30
0.0
 10
15.299971
 20
23.618061
 30
0.0
 10
15.313405
 20
23.639680
 30
0.0
 10
15.331976
 20
23.657086
 30
0.0
  0
LWPOLYLINE
  5
14c
100
AcDbEntity
  8
Layer_1
 62
5
100
AcDbPolyline
 90
25
 70
0
 10
8.280395
 20
23.486609
 30
0.0
 10
8.257884
 20
23.498102
 30
0.0
 10
8.239114
 20
23.515029
 30
0.0
 10
8.225365
 20
23.536237
 30
0.0
 10
8.217574
 20
23.560282
 30
0.0
 10
8.216271
 20
23.585523
 30
0.0
 10
8.221545
 20
23.610241
 30
0.0
 10
8.233037
 20
23.632753
 30
0.0
 10
8.249964
 20
23.651522
 30
0.0
 10
8.271173
 20
23.665271
 30
0.0
 10
8.295217
 20
23.673063
 30
0.0
 10
8.320458
 20
23.674366
 30
0.0
 10
8.345177
 20
23.669092
 30
0.0
 10
8.367688
 20
23.657600
 30
0.0
 10
8.386458
 20
23.640672
 30
0.0
 10
8.400207
 20
23.619464
 30
0.0
 10
8.407998
 20
23.595420
 30
0.0
 10
8.409301
 20
23.570179
 30
0.0
 10
8.404027
 20
23.545460
 30
0.0
 10
8.392534
 20
23.522949
 30
0.0
 10
8.375607
 20
23.504179
 30
0.0
 10
8.354399
 20
23.490430
 30
0.0
 10
8.330355
 20
23.482639
 30
0.0
 10
8.305114
 20
23.481335
 30
0.0
 10
8.280395
 20
23.486610
 30
0.0
  0
LWPOLYLINE
  5
14d
100
AcDbEntity
  8
Layer_1
 62
5
100
AcDbPolyline
 90
5
 70
0
 10
9.604043
 20
21.411475
 30
0.0
 10
9.604043
 20
20.293015
 30
0.0
 10
8.879286
 20
21.056132
 30
0.0
 10
8.879286
 20
22.136235
 30
0.0
 10
9.604043
 20
21.411475
 30
0.0
  0
LWPOLYLINE
  5
14e
100
AcDbEntity
  8
Layer_1
 62
5
100
AcDbPolyline
 90
5
 70
0
 10
9.729329
 20
20.293015
 30
0.0
 10
9.729329
 20
21.411475
 30
0.0
 10
10.454089
 20
22.136235
 30
0.0
 10
10.454089
 20
21.056132
 30
0.0
 10
9.729329
 20
20.293015
 30
0.0
  0
LWPOLYLINE
  5
14f
100
AcDbEntity
  8
Layer_1
 62
5
100
AcDbPolyline
 90
5
 70
0
 10
9.663267
 20
21.560065
 30
0.0
 10
8.958738
 20
22.249045
 30
0.0
 10
9.663267
 20
22.938025
 30
0.0
 10
10.367798
 20
22.249045
 30
0.0
 10
9.663267
 20
21.560065
 30
0.0
  0
LWPOLYLINE
  5
150
100
AcDbEntity
  8
Layer_1
 62
5
100
AcDbPolyline
 90
43
 70
0
 10
14.981648
 20
16.645869
 30
0.0
 10
14.976493
 20
16.570690
 30
0.0
 10
14.961124
 20
16.496918
 30
0.0
 10
14.935831
 20
16.425934
 30
0.0
 10
14.901085
 20
16.359067
 30
0.0
 10
14.857537
 20
16.297569
 30
0.0
 10
14.806004
 20
16.242589
 30
0.0
 10
14.747447
 20
16.195159
 30
0.0
 10
14.682965
 20
16.156165
 30
0.0
 10
14.613764
 20
16.126337
 30
0.0
 10
14.541139
 20
16.106234
 30
0.0
 10
14.466451
 20
16.096232
 30
0.0
 10
14.391096
 20
16.096508
 30
0.0
 10
9.272988
 20
16.096508
 30
0.0
 10
9.199240
 20
16.101119
 30
0.0
 10
9.126641
 20
16.114879
 30
0.0
 10
9.056321
 20
16.137575
 30
0.0
 10
8.989375
 20
16.168853
 30
0.0
 10
8.926847
 20
16.208225
 30
0.0
 10
8.869709
 20
16.255079
 30
0.0
 10
8.818852
 20
16.308685
 30
0.0
 10
8.775068
 20
16.368208
 30
0.0
 10
8.739039
 20
16.432721
 30
0.0
 10
8.711326
 20
16.501219
 30
0.0
 10
8.692360
 20
16.572635
 30
0.0
 10
8.682437
 20
16.645858
 30
0.0
 10
8.682437
 20
18.736096
 30
0.0
 10
10.746786
 20
20.822044
 30
0.0
 10
10.746787
 20
22.986274
 30
0.0
 10
14.391096
 20
22.986274
 30
0.0
 10
14.465428
 20
22.983373
 30
0.0
 10
14.538768
 20
22.970922
 30
0.0
 10
14.609894
 20
22.949132
 30
0.0
 10
14.677622
 20
22.918362
 30
0.0
 10
14.740824
 20
22.879128
 30
0.0
 10
14.798446
 20
22.832081
 30
0.0
 10
14.849531
 20
22.778005
 30
0.0
 10
14.893226
 20
22.717801
 30
0.0
 10
14.928805
 20
22.652472
 30
0.0
 10
14.955674
 20
22.583104
 30
0.0
 10
14.973387
 20
22.510854
 30
0.0
 10
14.981648
 20
22.436925
 30
0.0
 10
14.981648
 20
16.645859
 30
0.0
  0
LWPOLYLINE
  5
151
100
AcDbEntity
  8
Layer_1
 62
5
100
AcDbPolyline
 90
5
 70
0
 10
9.627315
 20
12.238252
 30
0.0
 10
9.135189
 20
12.238252
 30
0.0
 10
9.135189
 20
12.671322
 30
0.0
 10
9.627315
 20
12.671322
 30
0.0
 10
9.627315
 20
12.238252
 30
0.0
  0
LWPOLYLINE
  5
152
100
AcDbEntity
  8
Layer_1
 62
5
100
AcDbPolyline
 90
5
 70
0
 10
0.014714
 20
23.971438
 30
0.0
 10
0.014714
 20
10.191910
 30
0.0
 10
7.888729
 20
10.191910
 30
0.0
 10
7.888729
 20
23.971438
 30
0.0
 10
0.014714
 20
23.971438
 30
0.0
  0
LWPOLYLINE
  5
153
100
AcDbEntity
  8
Layer_1
 62
5
100
AcDbPolyline
 90
25
 70
0
 10
7.563303
 20
11.018311
 30
0.0
 10
7.570783
 20
10.993016
 30
0.0
 10
7.571460
 20
10.966646
 30
0.0
 10
7.565289
 20
10.941000
 30
0.0
 10
7.552691
 20
10.917825
 30
0.0
 10
7.534525
 20
10.898700
 30
0.0
 10
7.512027
 20
10.884928
 30
0.0
 10
7.486731
 20
10.877449
 30
0.0
 10
7.460362
 20
10.876772
 30
0.0
 10
7.434716
 20
10.882942
 30
0.0
 10
7.411540
 20
10.895540
 30
0.0
 10
7.392416
 20
10.913707
 30
0.0
 10
7.378644
 20
10.936205
 30
0.0
 10
7.371165
 20
10.961500
 30
0.0
 10
7.370488
 20
10.987869
 30
0.0
 10
7.376658
 20
11.013516
 30
0.0
 10
7.389256
 20
11.036691
 30
0.0
 10
7.407423
 20
11.055816
 30
0.0
 10
7.429921
 20
11.069587
 30
0.0
 10
7.455216
 20
11.077067
 30
0.0
 10
7.481585
 20
11.077744
 30
0.0
 10
7.507231
 20
11.071574
 30
0.0
 10
7.530407
 20
11.058976
 30
0.0
 10
7.549532
 20
11.040809
 30
0.0
 10
7.563303
 20
11.018311
 30
0.0
  0
LWPOLYLINE
  5
154
100
AcDbEntity
  8
Layer_1
 62
5
100
AcDbPolyline
 90
25
 70
0
 10
0.459458
 20
10.900330
 30
0.0
 10
0.437350
 20
10.886260
 30
0.0
 10
0.412354
 20
10.878390
 30
0.0
 10
0.386172
 20
10.877259
 30
0.0
 10
0.360590
 20
10.882942
 30
0.0
 10
0.337351
 20
10.895053
 30
0.0
 10
0.318038
 20
10.912766
 30
0.0
 10
0.303967
 20
10.934873
 30
0.0
 10
0.296098
 20
10.959870
 30
0.0
 10
0.294966
 20
10.986051
 30
0.0
 10
0.300650
 20
11.011633
 30
0.0
 10
0.312760
 20
11.034872
 30
0.0
 10
0.330473
 20
11.054186
 30
0.0
 10
0.352581
 20
11.068256
 30
0.0
 10
0.377577
 20
11.076125
 30
0.0
 10
0.403758
 20
11.077257
 30
0.0
 10
0.429341
 20
11.071574
 30
0.0
 10
0.452580
 20
11.059463
 30
0.0
 10
0.471893
 20
11.041750
 30
0.0
 10
0.485964
 20
11.019642
 30
0.0
 10
0.493833
 20
10.994646
 30
0.0
 10
0.494964
 20
10.968465
 30
0.0
 10
0.489281
 20
10.942883
 30
0.0
 10
0.477171
 20
10.919643
 30
0.0
 10
0.459458
 20
10.900330
 30
0.0
  0
LWPOLYLINE
  5
155
100
AcDbEntity
  8
Layer_1
 62
5
100
AcDbPolyline
 90
25
 70
0
 10
0.429340
 20
23.669994
 30
0.0
 10
0.451784
 20
23.657988
 30
0.0
 10
0.470355
 20
23.640582
 30
0.0
 10
0.483789
 20
23.618963
 30
0.0
 10
0.491170
 20
23.594604
 30
0.0
 10
0.491994
 20
23.569164
 30
0.0
 10
0.486206
 20
23.544378
 30
0.0
 10
0.474200
 20
23.521934
 30
0.0
 10
0.456795
 20
23.503363
 30
0.0
 10
0.435176
 20
23.489929
 30
0.0
 10
0.410816
 20
23.482549
 30
0.0
 10
0.385377
 20
23.481726
 30
0.0
 10
0.360590
 20
23.487513
 30
0.0
 10
0.338147
 20
23.499519
 30
0.0
 10
0.319575
 20
23.516925
 30
0.0
 10
0.306141
 20
23.538544
 30
0.0
 10
0.298761
 20
23.562904
 30
0.0
 10
0.297936
 20
23.588343
 30
0.0
 10
0.303724
 20
23.613130
 30
0.0
 10
0.315730
 20
23.635573
 30
0.0
 10
0.333136
 20
23.654145
 30
0.0
 10
0.354755
 20
23.667578
 30
0.0
 10
0.379114
 20
23.674959
 30
0.0
 10
0.404554
 20
23.675782
 30
0.0
 10
0.429340
 20
23.669994
 30
0.0
  0
LWPOLYLINE
  5
156
100
AcDbEntity
  8
Layer_1
 62
5
100
AcDbPolyline
 90
25
 70
0
 10
7.525876
 20
23.499004
 30
0.0
 10
7.503365
 20
23.487512
 30
0.0
 10
7.478646
 20
23.482238
 30
0.0
 10
7.453405
 20
23.483541
 30
0.0
 10
7.429360
 20
23.491332
 30
0.0
 10
7.408152
 20
23.505081
 30
0.0
 10
7.391225
 20
23.523851
 30
0.0
 10
7.379733
 20
23.546362
 30
0.0
 10
7.374458
 20
23.571081
 30
0.0
 10
7.375762
 20
23.596322
 30
0.0
 10
7.383553
 20
23.620366
 30
0.0
 10
7.397303
 20
23.641575
 30
0.0
 10
7.416072
 20
23.658502
 30
0.0
 10
7.438583
 20
23.669994
 30
0.0
 10
7.463302
 20
23.675268
 30
0.0
 10
7.488544
 20
23.673965
 30
0.0
 10
7.512588
 20
23.666173
 30
0.0
 10
7.533796
 20
23.652425
 30
0.0
 10
7.550723
 20
23.633655
 30
0.0
 10
7.562215
 20
23.611143
 30
0.0
 10
7.567490
 20
23.586425
 30
0.0
 10
7.566186
 20
23.561184
 30
0.0
 10
7.558395
 20
23.537139
 30
0.0
 10
7.544646
 20
23.515931
 30
0.0
 10
7.525876
 20
23.499004
 30
0.0
  0
LWPOLYLINE
  5
157
100
AcDbEntity
  8
Layer_1
 62
5
100
AcDbPolyline
 90
5
 70
0
 10
6.179717
 20
20.293917
 30
0.0
 10
6.179717
 20
21.412377
 30
0.0
 10
6.904474
 20
22.137137
 30
0.0
 10
6.904474
 20
21.057033
 30
0.0
 10
6.179717
 20
20.293917
 30
0.0
  0
LWPOLYLINE
  5
158
100
AcDbEntity
  8
Layer_1
 62
5
100
AcDbPolyline
 90
5
 70
0
 10
6.054431
 20
21.412377
 30
0.0
 10
6.054431
 20
20.293917
 30
0.0
 10
5.329671
 20
21.057033
 30
0.0
 10
5.329671
 20
22.137137
 30
0.0
 10
6.054431
 20
21.412377
 30
0.0
  0
LWPOLYLINE
  5
159
100
AcDbEntity
  8
Layer_1
 62
5
100
AcDbPolyline
 90
5
 70
0
 10
6.825022
 20
22.249947
 30
0.0
 10
6.120493
 20
21.560967
 30
0.0
 10
5.415962
 20
22.249947
 30
0.0
 10
6.120493
 20
22.938927
 30
0.0
 10
6.825022
 20
22.249947
 30
0.0
  0
LWPOLYLINE
  5
15a
100
AcDbEntity
  8
Layer_1
 62
5
100
AcDbPolyline
 90
43
 70
0
 10
0.807267
 20
16.571592
 30
0.0
 10
0.802112
 20
16.646771
 30
0.0
 10
0.802112
 20
22.437838
 30
0.0
 10
0.810373
 20
22.511767
 30
0.0
 10
0.828086
 20
22.584017
 30
0.0
 10
0.854955
 20
22.653384
 30
0.0
 10
0.890534
 20
22.718713
 30
0.0
 10
0.934229
 20
22.778917
 30
0.0
 10
0.985313
 20
22.832993
 30
0.0
 10
1.042936
 20
22.880040
 30
0.0
 10
1.106137
 20
22.919275
 30
0.0
 10
1.173865
 20
22.950044
 30
0.0
 10
1.244991
 20
22.971835
 30
0.0
 10
1.318331
 20
22.984285
 30
0.0
 10
1.392664
 20
22.987187
 30
0.0
 10
5.036973
 20
22.987187
 30
0.0
 10
5.036974
 20
20.822956
 30
0.0
 10
7.101323
 20
18.737009
 30
0.0
 10
7.101323
 20
16.646771
 30
0.0
 10
7.091400
 20
16.573548
 30
0.0
 10
7.072434
 20
16.502132
 30
0.0
 10
7.044721
 20
16.433633
 30
0.0
 10
7.008692
 20
16.369121
 30
0.0
 10
6.964907
 20
16.309598
 30
0.0
 10
6.914051
 20
16.255991
 30
0.0
 10
6.856913
 20
16.209137
 30
0.0
 10
6.794384
 20
16.169765
 30
0.0
 10
6.727439
 20
16.138487
 30
0.0
 10
6.657119
 20
16.115791
 30
0.0
 10
6.584519
 20
16.102031
 30
0.0
 10
6.510771
 20
16.097420
 30
0.0
 10
1.392664
 20
16.097420
 30
0.0
 10
1.317309
 20
16.097145
 30
0.0
 10
1.242620
 20
16.107147
 30
0.0
 10
1.169996
 20
16.127250
 30
0.0
 10
1.100794
 20
16.157077
 30
0.0
 10
1.036312
 20
16.196071
 30
0.0
 10
0.977756
 20
16.243502
 30
0.0
 10
0.926222
 20
16.298481
 30
0.0
 10
0.882675
 20
16.359979
 30
0.0
 10
0.847929
 20
16.426847
 30
0.0
 10
0.822635
 20
16.497830
 30
0.0
 10
0.807267
 20
16.571602
 30
0.0
  0
LWPOLYLINE
  5
15b
100
AcDbEntity
  8
Layer_1
 62
5
100
AcDbPolyline
 90
11
 70
0
 10
12.288292
 20
17.417791
 30
0.0
 10
14.945762
 20
17.417791
 30
0.0
 10
14.945780
 20
18.382357
 30
0.0
 10
14.945780
 20
20.744559
 30
0.0
 10
14.945762
 20
21.551649
 30
0.0
 10
14.453643
 20
21.551649
 30
0.0
 10
14.245583
 20
21.295739
 30
0.0
 10
13.075138
 20
21.295739
 30
0.0
 10
12.878842
 20
21.530859
 30
0.0
 10
12.288292
 20
21.530859
 30
0.0
 10
12.288292
 20
17.417791
 30
0.0
  0
LWPOLYLINE
  5
15c
100
AcDbEntity
  8
Layer_1
 62
5
100
AcDbPolyline
 90
25
 70
0
 10
12.560621
 20
21.162321
 30
0.0
 10
12.563882
 20
21.137551
 30
0.0
 10
12.560621
 20
21.112782
 30
0.0
 10
12.551060
 20
21.089701
 30
0.0
 10
12.535852
 20
21.069880
 30
0.0
 10
12.516031
 20
21.054671
 30
0.0
 10
12.492950
 20
21.045111
 30
0.0
 10
12.468180
 20
21.041850
 30
0.0
 10
12.443411
 20
21.045111
 30
0.0
 10
12.420330
 20
21.054671
 30
0.0
 10
12.400509
 20
21.069880
 30
0.0
 10
12.385301
 20
21.089701
 30
0.0
 10
12.375740
 20
21.112782
 30
0.0
 10
12.372479
 20
21.137551
 30
0.0
 10
12.375740
 20
21.162321
 30
0.0
 10
12.385301
 20
21.185402
 30
0.0
 10
12.400509
 20
21.205222
 30
0.0
 10
12.420330
 20
21.220431
 30
0.0
 10
12.443411
 20
21.229992
 30
0.0
 10
12.468180
 20
21.233253
 30
0.0
 10
12.492950
 20
21.229992
 30
0.0
 10
12.516031
 20
21.220431
 30
0.0
 10
12.535852
 20
21.205222
 30
0.0
 10
12.551060
 20
21.185402
 30
0.0
 10
12.560621
 20
21.162321
 30
0.0
  0
LWPOLYLINE
  5
15d
100
AcDbEntity
  8
Layer_1
 62
5
100
AcDbPolyline
 90
25
 70
0
 10
12.398201
 20
17.932467
 30
0.0
 10
12.418449
 20
17.948003
 30
0.0
 10
12.442029
 20
17.957770
 30
0.0
 10
12.467332
 20
17.961101
 30
0.0
 10
12.492636
 20
17.957770
 30
0.0
 10
12.516216
 20
17.948003
 30
0.0
 10
12.536464
 20
17.932467
 30
0.0
 10
12.552000
 20
17.912219
 30
0.0
 10
12.561767
 20
17.888639
 30
0.0
 10
12.565098
 20
17.863336
 30
0.0
 10
12.561767
 20
17.838032
 30
0.0
 10
12.552000
 20
17.814452
 30
0.0
 10
12.536464
 20
17.794204
 30
0.0
 10
12.516216
 20
17.778667
 30
0.0
 10
12.492636
 20
17.768900
 30
0.0
 10
12.467332
 20
17.765570
 30
0.0
 10
12.442029
 20
17.768900
 30
0.0
 10
12.418449
 20
17.778667
 30
0.0
 10
12.398201
 20
17.794204
 30
0.0
 10
12.382665
 20
17.814452
 30
0.0
 10
12.372898
 20
17.838032
 30
0.0
 10
12.369566
 20
17.863336
 30
0.0
 10
12.372898
 20
17.888639
 30
0.0
 10
12.382665
 20
17.912219
 30
0.0
 10
12.398201
 20
17.932467
 30
0.0
  0
LWPOLYLINE
  5
15e
100
AcDbEntity
  8
Layer_1
 62
5
100
AcDbPolyline
 90
25
 70
0
 10
14.724380
 20
21.233604
 30
0.0
 10
14.748923
 20
21.236690
 30
0.0
 10
14.773428
 20
21.233318
 30
0.0
 10
14.796225
 20
21.223718
 30
0.0
 10
14.815761
 20
21.208546
 30
0.0
 10
14.830704
 20
21.188834
 30
0.0
 10
14.840036
 20
21.165926
 30
0.0
 10
14.843122
 20
21.141383
 30
0.0
 10
14.839750
 20
21.116878
 30
0.0
 10
14.830150
 20
21.094081
 30
0.0
 10
14.814978
 20
21.074545
 30
0.0
 10
14.795266
 20
21.059601
 30
0.0
 10
14.772358
 20
21.050269
 30
0.0
 10
14.747815
 20
21.047184
 30
0.0
 10
14.723310
 20
21.050556
 30
0.0
 10
14.700513
 20
21.060155
 30
0.0
 10
14.680977
 20
21.075328
 30
0.0
 10
14.666033
 20
21.095040
 30
0.0
 10
14.656701
 20
21.117948
 30
0.0
 10
14.653616
 20
21.142491
 30
0.0
 10
14.656988
 20
21.166996
 30
0.0
 10
14.666587
 20
21.189793
 30
0.0
 10
14.681760
 20
21.209329
 30
0.0
 10
14.701472
 20
21.224272
 30
0.0
 10
14.724380
 20
21.233604
 30
0.0
  0
LWPOLYLINE
  5
15f
100
AcDbEntity
  8
Layer_1
 62
5
100
AcDbPolyline
 90
25
 70
0
 10
14.701196
 20
17.942667
 30
0.0
 10
14.723290
 20
17.951818
 30
0.0
 10
14.746998
 20
17.954940
 30
0.0
 10
14.770707
 20
17.951818
 30
0.0
 10
14.792800
 20
17.942667
 30
0.0
 10
14.811772
 20
17.928109
 30
0.0
 10
14.826330
 20
17.909138
 30
0.0
 10
14.835481
 20
17.887044
 30
0.0
 10
14.838602
 20
17.863336
 30
0.0
 10
14.835481
 20
17.839626
 30
0.0
 10
14.826330
 20
17.817534
 30
0.0
 10
14.811772
 20
17.798562
 30
0.0
 10
14.792800
 20
17.784004
 30
0.0
 10
14.770707
 20
17.774853
 30
0.0
 10
14.746998
 20
17.771731
 30
0.0
 10
14.723290
 20
17.774853
 30
0.0
 10
14.701196
 20
17.784004
 30
0.0
 10
14.682225
 20
17.798562
 30
0.0
 10
14.667667
 20
17.817534
 30
0.0
 10
14.658516
 20
17.839626
 30
0.0
 10
14.655395
 20
17.863336
 30
0.0
 10
14.658516
 20
17.887044
 30
0.0
 10
14.667667
 20
17.909138
 30
0.0
 10
14.682225
 20
17.928109
 30
0.0
 10
14.701196
 20
17.942667
 30
0.0
  0
LWPOLYLINE
  5
160
100
AcDbEntity
  8
Layer_1
 62
5
100
AcDbPolyline
 90
5
 70
0
 10
12.550166
 20
18.024131
 30
0.0
 10
12.550166
 20
20.992789
 30
0.0
 10
14.657731
 20
20.992789
 30
0.0
 10
14.657731
 20
18.024131
 30
0.0
 10
12.550166
 20
18.024131
 30
0.0
  0
LWPOLYLINE
  5
161
100
AcDbEntity
  8
Layer_1
 62
5
100
AcDbPolyline
 90
5
 70
0
 10
43.444284
 20
19.274925
 30
0.0
 10
43.724882
 20
19.274925
 30
0.0
 10
43.724882
 20
18.854028
 30
0.0
 10
43.444284
 20
18.854028
 30
0.0
 10
43.444284
 20
19.274925
 30
0.0
  0
LWPOLYLINE
  5
162
100
AcDbEntity
  8
Layer_1
 62
5
100
AcDbPolyline
 90
14
 70
0
 10
45.144154
 20
16.877871
 30
0.0
 10
45.144154
 20
23.177083
 30
0.0
 10
44.356753
 20
23.177083
 30
0.0
 10
44.356753
 20
23.964484
 30
0.0
 10
38.057541
 20
23.964484
 30
0.0
 10
38.057541
 20
23.177083
 30
0.0
 10
37.270139
 20
23.177083
 30
0.0
 10
37.270139
 20
16.877871
 30
0.0
 10
38.057541
 20
16.877871
 30
0.0
 10
38.057541
 20
16.090470
 30
0.0
 10
38.093723
 20
16.090470
 30
0.0
 10
44.356753
 20
16.090470
 30
0.0
 10
44.356753
 20
16.877871
 30
0.0
 10
45.144154
 20
16.877871
 30
0.0
  0
LWPOLYLINE
  5
163
100
AcDbEntity
  8
Layer_1
 62
5
100
AcDbPolyline
 90
7
 70
0
 10
32.899177
 20
7.825198
 30
0.0
 10
41.764576
 20
7.825198
 30
0.0
 10
41.764576
 20
16.092913
 30
0.0
 10
33.329430
 20
16.092913
 30
0.0
 10
33.329430
 20
11.153229
 30
0.0
 10
32.899177
 20
10.365828
 30
0.0
 10
32.899177
 20
7.825198
 30
0.0
  0
LWPOLYLINE
  5
164
100
AcDbEntity
  8
Layer_1
 62
5
100
AcDbPolyline
 90
59
 70
0
 10
33.929935
 20
9.381576
 30
0.0
 10
33.929935
 20
14.499687
 30
0.0
 10
33.933891
 20
14.568585
 30
0.0
 10
33.945709
 20
14.636577
 30
0.0
 10
33.965233
 20
14.702769
 30
0.0
 10
33.992206
 20
14.766291
 30
0.0
 10
34.026273
 20
14.826308
 30
0.0
 10
34.066987
 20
14.882030
 30
0.0
 10
34.113813
 20
14.932725
 30
0.0
 10
34.166134
 20
14.977726
 30
0.0
 10
34.223262
 20
15.016442
 30
0.0
 10
34.284447
 20
15.048363
 30
0.0
 10
34.348884
 20
15.073070
 30
0.0
 10
34.415726
 20
15.090238
 30
0.0
 10
34.894498
 20
15.090238
 30
0.0
 10
39.007566
 20
15.090238
 30
0.0
 10
40.189776
 20
15.090238
 30
0.0
 10
40.266859
 20
15.085186
 30
0.0
 10
40.342622
 20
15.070115
 30
0.0
 10
40.415770
 20
15.045285
 30
0.0
 10
40.485051
 20
15.011119
 30
0.0
 10
40.549281
 20
14.968202
 30
0.0
 10
40.607359
 20
14.917269
 30
0.0
 10
40.658291
 20
14.859192
 30
0.0
 10
40.701208
 20
14.794962
 30
0.0
 10
40.735374
 20
14.725681
 30
0.0
 10
40.760204
 20
14.652533
 30
0.0
 10
40.775274
 20
14.576769
 30
0.0
 10
40.780327
 20
14.499687
 30
0.0
 10
40.780327
 20
9.381576
 30
0.0
 10
40.776369
 20
9.313315
 30
0.0
 10
40.764549
 20
9.245968
 30
0.0
 10
40.745026
 20
9.180438
 30
0.0
 10
40.718060
 20
9.117604
 30
0.0
 10
40.684014
 20
9.058307
 30
0.0
 10
40.643343
 20
9.003342
 30
0.0
 10
40.596592
 20
8.953445
 30
0.0
 10
40.544389
 20
8.909285
 30
0.0
 10
40.487432
 20
8.871454
 30
0.0
 10
40.426485
 20
8.840459
 30
0.0
 10
40.362363
 20
8.816715
 30
0.0
 10
40.295928
 20
8.800540
 30
0.0
 10
39.205517
 20
8.800540
 30
0.0
 10
38.221267
 20
9.775277
 30
0.0
 10
35.859064
 20
9.775277
 30
0.0
 10
34.888850
 20
8.791025
 30
0.0
 10
34.415726
 20
8.791025
 30
0.0
 10
34.346048
 20
8.802713
 30
0.0
 10
34.278478
 20
8.823350
 30
0.0
 10
34.214160
 20
8.852586
 30
0.0
 10
34.154183
 20
8.889927
 30
0.0
 10
34.099563
 20
8.934741
 30
0.0
 10
34.051224
 20
8.986267
 30
0.0
 10
34.009986
 20
9.043634
 30
0.0
 10
33.976547
 20
9.105871
 30
0.0
 10
33.951472
 20
9.171923
 30
0.0
 10
33.935187
 20
9.240671
 30
0.0
 10
33.927967
 20
9.310952
 30
0.0
 10
33.929935
 20
9.381576
 30
0.0
  0
LWPOLYLINE
  5
165
100
AcDbEntity
  8
Layer_1
 62
5
100
AcDbPolyline
 90
7
 70
0
 10
47.103241
 20
16.072496
 30
0.0
 10
41.791986
 20
16.072496
 30
0.0
 10
41.791986
 20
7.804780
 30
0.0
 10
46.656960
 20
7.804781
 30
0.0
 10
46.656960
 20
10.345411
 30
0.0
 10
47.103241
 20
11.132812
 30
0.0
 10
47.103241
 20
16.072496
 30
0.0
  0
LWPOLYLINE
  5
166
100
AcDbEntity
  8
Layer_1
 62
5
100
AcDbPolyline
 90
5
 70
0
 10
44.356109
 20
9.735176
 30
0.0
 10
45.497841
 20
9.735176
 30
0.0
 10
45.497841
 20
8.869035
 30
0.0
 10
44.356109
 20
8.869035
 30
0.0
 10
44.356109
 20
9.735176
 30
0.0
  0
LWPOLYLINE
  5
167
100
AcDbEntity
  8
Layer_1
 62
5
100
AcDbPolyline
 90
5
 70
0
 10
43.732255
 20
10.987141
 30
0.0
 10
46.153515
 20
10.987141
 30
0.0
 10
46.153515
 20
10.739111
 30
0.0
 10
43.732255
 20
10.739111
 30
0.0
 10
43.732255
 20
10.987141
 30
0.0
  0
LWPOLYLINE
  5
168
100
AcDbEntity
  8
Layer_1
 62
5
100
AcDbPolyline
 90
25
 70
0
 10
44.410238
 20
8.307958
 30
0.0
 10
44.385447
 20
8.305136
 30
0.0
 10
44.360771
 20
8.308824
 30
0.0
 10
44.337890
 20
8.318775
 30
0.0
 10
44.318364
 20
8.334309
 30
0.0
 10
44.303525
 20
8.354367
 30
0.0
 10
44.294382
 20
8.377582
 30
0.0
 10
44.291559
 20
8.402373
 30
0.0
 10
44.295249
 20
8.427049
 30
0.0
 10
44.305200
 20
8.449930
 30
0.0
 10
44.320734
 20
8.469456
 30
0.0
 10
44.340792
 20
8.484295
 30
0.0
 10
44.364007
 20
8.493438
 30
0.0
 10
44.388798
 20
8.496261
 30
0.0
 10
44.413474
 20
8.492572
 30
0.0
 10
44.436355
 20
8.482621
 30
0.0
 10
44.455880
 20
8.467087
 30
0.0
 10
44.470720
 20
8.447030
 30
0.0
 10
44.479863
 20
8.423814
 30
0.0
 10
44.482686
 20
8.399024
 30
0.0
 10
44.478996
 20
8.374347
 30
0.0
 10
44.469045
 20
8.351467
 30
0.0
 10
44.453511
 20
8.331941
 30
0.0
 10
44.433453
 20
8.317101
 30
0.0
 10
44.410238
 20
8.307958
 30
0.0
  0
LWPOLYLINE
  5
169
100
AcDbEntity
  8
Layer_1
 62
5
100
AcDbPolyline
 90
25
 70
0
 10
42.676225
 20
8.381345
 30
0.0
 10
42.667983
 20
8.357447
 30
0.0
 10
42.653836
 20
8.336497
 30
0.0
 10
42.634750
 20
8.319922
 30
0.0
 10
42.612023
 20
8.308852
 30
0.0
 10
42.587206
 20
8.304041
 30
0.0
 10
42.561989
 20
8.305817
 30
0.0
 10
42.538092
 20
8.314059
 30
0.0
 10
42.517141
 20
8.328206
 30
0.0
 10
42.500567
 20
8.347292
 30
0.0
 10
42.489497
 20
8.370019
 30
0.0
 10
42.484686
 20
8.394836
 30
0.0
 10
42.486462
 20
8.420052
 30
0.0
 10
42.494704
 20
8.443950
 30
0.0
 10
42.508851
 20
8.464900
 30
0.0
 10
42.527938
 20
8.481475
 30
0.0
 10
42.550664
 20
8.492545
 30
0.0
 10
42.575482
 20
8.497356
 30
0.0
 10
42.600698
 20
8.495580
 30
0.0
 10
42.624596
 20
8.487338
 30
0.0
 10
42.645546
 20
8.473191
 30
0.0
 10
42.662121
 20
8.454104
 30
0.0
 10
42.673191
 20
8.431378
 30
0.0
 10
42.678002
 20
8.406561
 30
0.0
 10
42.676225
 20
8.381344
 30
0.0
  0
LWPOLYLINE
  5
16a
100
AcDbEntity
  8
Layer_1
 62
5
100
AcDbPolyline
 90
25
 70
0
 10
46.171613
 20
11.124715
 30
0.0
 10
46.168392
 20
11.100246
 30
0.0
 10
46.158947
 20
11.077445
 30
0.0
 10
46.143923
 20
11.057864
 30
0.0
 10
46.124343
 20
11.042840
 30
0.0
 10
46.101541
 20
11.033395
 30
0.0
 10
46.077072
 20
11.030174
 30
0.0
 10
46.052603
 20
11.033395
 30
0.0
 10
46.029801
 20
11.042840
 30
0.0
 10
46.010221
 20
11.057864
 30
0.0
 10
45.995196
 20
11.077445
 30
0.0
 10
45.985751
 20
11.100246
 30
0.0
 10
45.982531
 20
11.124715
 30
0.0
 10
45.985751
 20
11.149185
 30
0.0
 10
45.995196
 20
11.171986
 30
0.0
 10
46.010221
 20
11.191567
 30
0.0
 10
46.029801
 20
11.206591
 30
0.0
 10
46.052603
 20
11.216036
 30
0.0
 10
46.077072
 20
11.219256
 30
0.0
 10
46.101541
 20
11.216036
 30
0.0
 10
46.124343
 20
11.206591
 30
0.0
 10
46.143923
 20
11.191567
 30
0.0
 10
46.158947
 20
11.171986
 30
0.0
 10
46.168392
 20
11.149185
 30
0.0
 10
46.171613
 20
11.124715
 30
0.0
  0
LWPOLYLINE
  5
16b
100
AcDbEntity
  8
Layer_1
 62
5
100
AcDbPolyline
 90
25
 70
0
 10
43.883573
 20
11.124715
 30
0.0
 10
43.880496
 20
11.101342
 30
0.0
 10
43.871474
 20
11.079562
 30
0.0
 10
43.857123
 20
11.060859
 30
0.0
 10
43.838419
 20
11.046508
 30
0.0
 10
43.816639
 20
11.037486
 30
0.0
 10
43.793266
 20
11.034407
 30
0.0
 10
43.769893
 20
11.037486
 30
0.0
 10
43.748113
 20
11.046508
 30
0.0
 10
43.729410
 20
11.060859
 30
0.0
 10
43.715058
 20
11.079562
 30
0.0
 10
43.706037
 20
11.101342
 30
0.0
 10
43.702959
 20
11.124715
 30
0.0
 10
43.706037
 20
11.148088
 30
0.0
 10
43.715058
 20
11.169869
 30
0.0
 10
43.729410
 20
11.188572
 30
0.0
 10
43.748113
 20
11.202923
 30
0.0
 10
43.769893
 20
11.211945
 30
0.0
 10
43.793266
 20
11.215024
 30
0.0
 10
43.816639
 20
11.211945
 30
0.0
 10
43.838419
 20
11.202923
 30
0.0
 10
43.857123
 20
11.188572
 30
0.0
 10
43.871474
 20
11.169869
 30
0.0
 10
43.880496
 20
11.148088
 30
0.0
 10
43.883573
 20
11.124715
 30
0.0
  0
LWPOLYLINE
  5
16c
100
AcDbEntity
  8
Layer_1
 62
5
100
AcDbPolyline
 90
25
 70
0
 10
43.888149
 20
14.401714
 30
0.0
 10
43.884916
 20
14.377156
 30
0.0
 10
43.875437
 20
14.354272
 30
0.0
 10
43.860358
 20
14.334622
 30
0.0
 10
43.840707
 20
14.319543
 30
0.0
 10
43.817824
 20
14.310064
 30
0.0
 10
43.793266
 20
14.306831
 30
0.0
 10
43.768709
 20
14.310064
 30
0.0
 10
43.745825
 20
14.319543
 30
0.0
 10
43.726174
 20
14.334622
 30
0.0
 10
43.711095
 20
14.354272
 30
0.0
 10
43.701616
 20
14.377156
 30
0.0
 10
43.698383
 20
14.401714
 30
0.0
 10
43.701616
 20
14.426271
 30
0.0
 10
43.711095
 20
14.449155
 30
0.0
 10
43.726174
 20
14.468806
 30
0.0
 10
43.745825
 20
14.483885
 30
0.0
 10
43.768709
 20
14.493363
 30
0.0
 10
43.793266
 20
14.496597
 30
0.0
 10
43.817824
 20
14.493363
 30
0.0
 10
43.840707
 20
14.483885
 30
0.0
 10
43.860358
 20
14.468806
 30
0.0
 10
43.875437
 20
14.449155
 30
0.0
 10
43.884916
 20
14.426271
 30
0.0
 10
43.888149
 20
14.401714
 30
0.0
  0
LWPOLYLINE
  5
16d
100
AcDbEntity
  8
Layer_1
 62
5
100
AcDbPolyline
 90
25
 70
0
 10
46.101951
 20
14.494567
 30
0.0
 10
46.125136
 20
14.484964
 30
0.0
 10
46.145045
 20
14.469687
 30
0.0
 10
46.160321
 20
14.449778
 30
0.0
 10
46.169925
 20
14.426594
 30
0.0
 10
46.173200
 20
14.401714
 30
0.0
 10
46.169925
 20
14.376834
 30
0.0
 10
46.160321
 20
14.353649
 30
0.0
 10
46.145045
 20
14.333740
 30
0.0
 10
46.125136
 20
14.318463
 30
0.0
 10
46.101951
 20
14.308860
 30
0.0
 10
46.077071
 20
14.305585
 30
0.0
 10
46.052191
 20
14.308860
 30
0.0
 10
46.029006
 20
14.318463
 30
0.0
 10
46.009097
 20
14.333740
 30
0.0
 10
45.993821
 20
14.353649
 30
0.0
 10
45.984217
 20
14.376834
 30
0.0
 10
45.980942
 20
14.401714
 30
0.0
 10
45.984217
 20
14.426594
 30
0.0
 10
45.993821
 20
14.449778
 30
0.0
 10
46.009097
 20
14.469687
 30
0.0
 10
46.029006
 20
14.484964
 30
0.0
 10
46.052191
 20
14.494567
 30
0.0
 10
46.077071
 20
14.497843
 30
0.0
 10
46.101951
 20
14.494567
 30
0.0
  0
LWPOLYLINE
  5
16e
100
AcDbEntity
  8
Layer_1
 62
5
100
AcDbPolyline
 90
25
 70
0
 10
46.895328
 20
15.502238
 30
0.0
 10
46.898517
 20
15.478027
 30
0.0
 10
46.895328
 20
15.453816
 30
0.0
 10
46.885982
 20
15.431254
 30
0.0
 10
46.871116
 20
15.411881
 30
0.0
 10
46.851743
 20
15.397014
 30
0.0
 10
46.829181
 20
15.387669
 30
0.0
 10
46.804970
 20
15.384482
 30
0.0
 10
46.780758
 20
15.387669
 30
0.0
 10
46.758197
 20
15.397014
 30
0.0
 10
46.738823
 20
15.411881
 30
0.0
 10
46.723957
 20
15.431254
 30
0.0
 10
46.714612
 20
15.453816
 30
0.0
 10
46.711423
 20
15.478027
 30
0.0
 10
46.714612
 20
15.502238
 30
0.0
 10
46.723957
 20
15.524800
 30
0.0
 10
46.738823
 20
15.544174
 30
0.0
 10
46.758197
 20
15.559040
 30
0.0
 10
46.780758
 20
15.568385
 30
0.0
 10
46.804970
 20
15.571572
 30
0.0
 10
46.829181
 20
15.568385
 30
0.0
 10
46.851743
 20
15.559040
 30
0.0
 10
46.871116
 20
15.544174
 30
0.0
 10
46.885982
 20
15.524800
 30
0.0
 10
46.895328
 20
15.502238
 30
0.0
  0
LWPOLYLINE
  5
16f
100
AcDbEntity
  8
Layer_1
 62
5
100
AcDbPolyline
 90
25
 70
0
 10
42.556376
 20
15.571209
 30
0.0
 10
42.581344
 20
15.574496
 30
0.0
 10
42.606312
 20
15.571209
 30
0.0
 10
42.629578
 20
15.561571
 30
0.0
 10
42.649558
 20
15.546241
 30
0.0
 10
42.664888
 20
15.526261
 30
0.0
 10
42.674526
 20
15.502995
 30
0.0
 10
42.677813
 20
15.478027
 30
0.0
 10
42.674526
 20
15.453059
 30
0.0
 10
42.664888
 20
15.429792
 30
0.0
 10
42.649558
 20
15.409813
 30
0.0
 10
42.629578
 20
15.394482
 30
0.0
 10
42.606312
 20
15.384845
 30
0.0
 10
42.581344
 20
15.381558
 30
0.0
 10
42.556376
 20
15.384845
 30
0.0
 10
42.533109
 20
15.394482
 30
0.0
 10
42.513130
 20
15.409813
 30
0.0
 10
42.497799
 20
15.429792
 30
0.0
 10
42.488162
 20
15.453059
 30
0.0
 10
42.484875
 20
15.478027
 30
0.0
 10
42.488162
 20
15.502995
 30
0.0
 10
42.497799
 20
15.526261
 30
0.0
 10
42.513130
 20
15.546241
 30
0.0
 10
42.533109
 20
15.561571
 30
0.0
 10
42.556376
 20
15.571209
 30
0.0
  0
LWPOLYLINE
  5
170
100
AcDbEntity
  8
Layer_1
 62
5
100
AcDbPolyline
 90
13
 70
0
 10
3.626694
 20
8.500333
 30
0.0
 10
5.319608
 20
8.500333
 30
0.0
 10
5.910159
 20
8.192945
 30
0.0
 10
6.553466
 20
8.192945
 30
0.0
 10
6.553466
 20
8.620409
 30
0.0
 10
6.303859
 20
8.620409
 30
0.0
 10
6.303859
 20
9.177197
 30
0.0
 10
2.642442
 20
9.177197
 30
0.0
 10
2.642442
 20
8.620409
 30
0.0
 10
2.392135
 20
8.620409
 30
0.0
 10
2.392135
 20
8.192945
 30
0.0
 10
3.036143
 20
8.192945
 30
0.0
 10
3.626694
 20
8.500333
 30
0.0
  0
LWPOLYLINE
  5
171
100
AcDbEntity
  8
Layer_1
 62
5
100
AcDbPolyline
 90
13
 70
0
 10
37.873116
 20
10.464974
 30
0.0
 10
36.180202
 20
10.464974
 30
0.0
 10
35.589651
 20
10.772363
 30
0.0
 10
34.946344
 20
10.772363
 30
0.0
 10
34.946344
 20
10.344898
 30
0.0
 10
35.195950
 20
10.344898
 30
0.0
 10
35.195950
 20
9.788111
 30
0.0
 10
38.857368
 20
9.788111
 30
0.0
 10
38.857368
 20
10.344898
 30
0.0
 10
39.107675
 20
10.344898
 30
0.0
 10
39.107675
 20
10.772363
 30
0.0
 10
38.463667
 20
10.772363
 30
0.0
 10
37.873116
 20
10.464974
 30
0.0
  0
LWPOLYLINE
  5
172
100
AcDbEntity
  8
Layer_1
 62
5
100
AcDbPolyline
 90
9
 70
0
 10
24.647556
 20
7.183090
 30
0.0
 10
24.647556
 20
3.521672
 30
0.0
 10
25.238108
 20
3.521672
 30
0.0
 10
25.238108
 20
3.272066
 30
0.0
 10
25.631808
 20
3.272066
 30
0.0
 10
25.631808
 20
7.432696
 30
0.0
 10
25.238108
 20
7.432696
 30
0.0
 10
25.238108
 20
7.183090
 30
0.0
 10
24.647556
 20
7.183090
 30
0.0
  0
LWPOLYLINE
  5
173
100
AcDbEntity
  8
Layer_1
 62
7
100
AcDbPolyline
 90
2
 70
0
 10
24.703568
 20
6.012580
 30
0.0
 10
24.703568
 20
4.934378
 30
0.0
  0
LWPOLYLINE
  5
174
100
AcDbEntity
  8
Layer_1
 62
7
100
AcDbPolyline
 90
2
 70
0
 10
24.742928
 20
6.012563
 30
0.0
 10
24.742928
 20
4.934361
 30
0.0
  0
LWPOLYLINE
  5
175
100
AcDbEntity
  8
Layer_1
 62
7
100
AcDbPolyline
 90
2
 70
0
 10
24.782298
 20
6.012563
 30
0.0
 10
24.782298
 20
4.934361
 30
0.0
  0
LWPOLYLINE
  5
176
100
AcDbEntity
  8
Layer_1
 62
7
100
AcDbPolyline
 90
2
 70
0
 10
24.821668
 20
6.012563
 30
0.0
 10
24.821668
 20
4.934361
 30
0.0
  0
LWPOLYLINE
  5
177
100
AcDbEntity
  8
Layer_1
 62
7
100
AcDbPolyline
 90
2
 70
0
 10
24.861038
 20
6.103098
 30
0.0
 10
24.861038
 20
4.832442
 30
0.0
  0
LWPOLYLINE
  5
178
100
AcDbEntity
  8
Layer_1
 62
7
100
AcDbPolyline
 90
2
 70
0
 10
24.900408
 20
6.012563
 30
0.0
 10
24.900408
 20
4.934361
 30
0.0
  0
LWPOLYLINE
  5
179
100
AcDbEntity
  8
Layer_1
 62
7
100
AcDbPolyline
 90
2
 70
0
 10
24.939778
 20
6.012563
 30
0.0
 10
24.939778
 20
4.934361
 30
0.0
  0
LWPOLYLINE
  5
17a
100
AcDbEntity
  8
Layer_1
 62
7
100
AcDbPolyline
 90
2
 70
0
 10
24.979148
 20
6.012563
 30
0.0
 10
24.979148
 20
4.934361
 30
0.0
  0
LWPOLYLINE
  5
17b
100
AcDbEntity
  8
Layer_1
 62
7
100
AcDbPolyline
 90
2
 70
0
 10
25.018518
 20
6.012563
 30
0.0
 10
25.018518
 20
4.934361
 30
0.0
  0
LWPOLYLINE
  5
17c
100
AcDbEntity
  8
Layer_1
 62
7
100
AcDbPolyline
 90
2
 70
0
 10
25.057888
 20
6.105325
 30
0.0
 10
25.057888
 20
4.831135
 30
0.0
  0
LWPOLYLINE
  5
17d
100
AcDbEntity
  8
Layer_1
 62
7
100
AcDbPolyline
 90
2
 70
0
 10
25.136628
 20
6.012563
 30
0.0
 10
25.136628
 20
4.934361
 30
0.0
  0
LWPOLYLINE
  5
17e
100
AcDbEntity
  8
Layer_1
 62
7
100
AcDbPolyline
 90
2
 70
0
 10
25.097258
 20
6.012563
 30
0.0
 10
25.097258
 20
4.934361
 30
0.0
  0
LWPOLYLINE
  5
17f
100
AcDbEntity
  8
Layer_1
 62
7
100
AcDbPolyline
 90
2
 70
0
 10
25.175998
 20
6.012563
 30
0.0
 10
25.175998
 20
4.934361
 30
0.0
  0
LWPOLYLINE
  5
180
100
AcDbEntity
  8
Layer_1
 62
7
100
AcDbPolyline
 90
2
 70
0
 10
25.215368
 20
6.012563
 30
0.0
 10
25.215368
 20
4.934361
 30
0.0
  0
LWPOLYLINE
  5
181
100
AcDbEntity
  8
Layer_1
 62
7
100
AcDbPolyline
 90
2
 70
0
 10
25.254739
 20
6.104946
 30
0.0
 10
25.254739
 20
4.830879
 30
0.0
  0
LWPOLYLINE
  5
182
100
AcDbEntity
  8
Layer_1
 62
5
100
AcDbPolyline
 90
33
 70
0
 10
15.607345
 20
2.299666
 30
0.0
 10
15.607345
 20
2.073256
 30
0.0
 10
15.857345
 20
2.073256
 30
0.0
 10
15.857345
 20
1.823256
 30
0.0
 10
15.607345
 20
1.823256
 30
0.0
 10
15.607345
 20
1.669374
 30
0.0
 10
15.694452
 20
1.659477
 30
0.0
 10
15.780166
 20
1.641071
 30
0.0
 10
15.863657
 20
1.614334
 30
0.0
 10
15.944117
 20
1.579524
 30
0.0
 10
16.020769
 20
1.536978
 30
0.0
 10
16.092870
 20
1.487108
 30
0.0
 10
16.159723
 20
1.430396
 30
0.0
 10
16.220682
 20
1.367391
 30
0.0
 10
16.275156
 20
1.298702
 30
0.0
 10
16.322619
 20
1.224994
 30
0.0
 10
16.362612
 20
1.146979
 30
0.0
 10
16.394747
 20
1.065414
 30
0.0
 10
16.427165
 20
1.065414
 30
0.0
 10
16.427165
 20
1.459114
 30
0.0
 10
16.677165
 20
1.459114
 30
0.0
 10
16.677165
 20
1.065414
 30
0.0
 10
20.317975
 20
1.065414
 30
0.0
 10
20.317975
 20
1.492878
 30
0.0
 10
20.567581
 20
1.492878
 30
0.0
 10
20.567581
 20
1.065414
 30
0.0
 10
20.792654
 20
1.065414
 30
0.0
 10
20.792654
 20
2.299666
 30
0.0
 10
20.567975
 20
2.299666
 30
0.0
 10
20.567975
 20
2.049666
 30
0.0
 10
16.394747
 20
2.049666
 30
0.0
 10
16.394747
 20
2.299666
 30
0.0
 10
15.607345
 20
2.299666
 30
0.0
  0
LWPOLYLINE
  5
183
100
AcDbEntity
  8
Layer_1
 62
5
100
AcDbPolyline
 90
33
 70
0
 10
10.405295
 20
2.296942
 30
0.0
 10
10.405295
 20
2.070532
 30
0.0
 10
10.655295
 20
2.070532
 30
0.0
 10
10.655295
 20
1.820532
 30
0.0
 10
10.405295
 20
1.820532
 30
0.0
 10
10.405295
 20
1.666651
 30
0.0
 10
10.492403
 20
1.656754
 30
0.0
 10
10.578116
 20
1.638348
 30
0.0
 10
10.661607
 20
1.611610
 30
0.0
 10
10.742068
 20
1.576800
 30
0.0
 10
10.818719
 20
1.534255
 30
0.0
 10
10.890820
 20
1.484384
 30
0.0
 10
10.957674
 20
1.427672
 30
0.0
 10
11.018632
 20
1.364667
 30
0.0
 10
11.073107
 20
1.295978
 30
0.0
 10
11.120570
 20
1.222270
 30
0.0
 10
11.160562
 20
1.144256
 30
0.0
 10
11.192697
 20
1.062690
 30
0.0
 10
11.225115
 20
1.062690
 30
0.0
 10
11.225115
 20
1.456391
 30
0.0
 10
11.475115
 20
1.456391
 30
0.0
 10
11.475115
 20
1.062690
 30
0.0
 10
15.115925
 20
1.062690
 30
0.0
 10
15.115925
 20
1.490155
 30
0.0
 10
15.365531
 20
1.490155
 30
0.0
 10
15.365531
 20
1.062690
 30
0.0
 10
15.590605
 20
1.062690
 30
0.0
 10
15.590605
 20
2.296942
 30
0.0
 10
15.365925
 20
2.296942
 30
0.0
 10
15.365925
 20
2.046942
 30
0.0
 10
11.192697
 20
2.046942
 30
0.0
 10
11.192697
 20
2.296942
 30
0.0
 10
10.405295
 20
2.296942
 30
0.0
  0
LWPOLYLINE
  5
184
100
AcDbEntity
  8
Layer_1
 62
5
100
AcDbPolyline
 90
33
 70
0
 10
5.223811
 20
1.924144
 30
0.0
 10
5.223811
 20
1.697734
 30
0.0
 10
5.473811
 20
1.697734
 30
0.0
 10
5.473811
 20
1.447734
 30
0.0
 10
5.223811
 20
1.447734
 30
0.0
 10
5.223811
 20
1.293852
 30
0.0
 10
5.310919
 20
1.283956
 30
0.0
 10
5.396632
 20
1.265550
 30
0.0
 10
5.480123
 20
1.238812
 30
0.0
 10
5.560584
 20
1.204002
 30
0.0
 10
5.637235
 20
1.161456
 30
0.0
 10
5.709336
 20
1.111586
 30
0.0
 10
5.776190
 20
1.054874
 30
0.0
 10
5.837148
 20
0.991869
 30
0.0
 10
5.891623
 20
0.923180
 30
0.0
 10
5.939086
 20
0.849472
 30
0.0
 10
5.979078
 20
0.771458
 30
0.0
 10
6.011213
 20
0.689892
 30
0.0
 10
6.043631
 20
0.689892
 30
0.0
 10
6.043631
 20
1.083593
 30
0.0
 10
6.293631
 20
1.083593
 30
0.0
 10
6.293631
 20
0.689892
 30
0.0
 10
9.934441
 20
0.689892
 30
0.0
 10
9.934441
 20
1.117357
 30
0.0
 10
10.184047
 20
1.117357
 30
0.0
 10
10.184047
 20
0.689892
 30
0.0
 10
10.409121
 20
0.689892
 30
0.0
 10
10.409121
 20
1.924144
 30
0.0
 10
10.184441
 20
1.924144
 30
0.0
 10
10.184441
 20
1.674144
 30
0.0
 10
6.011213
 20
1.674144
 30
0.0
 10
6.011213
 20
1.924144
 30
0.0
 10
5.223811
 20
1.924144
 30
0.0
  0
LWPOLYLINE
  5
185
100
AcDbEntity
  8
Layer_1
 62
5
100
AcDbPolyline
 90
33
 70
0
 10
0.019654
 20
1.924144
 30
0.0
 10
0.019654
 20
1.697734
 30
0.0
 10
0.269654
 20
1.697734
 30
0.0
 10
0.269654
 20
1.447734
 30
0.0
 10
0.019654
 20
1.447734
 30
0.0
 10
0.019654
 20
1.293852
 30
0.0
 10
0.106762
 20
1.283956
 30
0.0
 10
0.192475
 20
1.265550
 30
0.0
 10
0.275966
 20
1.238812
 30
0.0
 10
0.356427
 20
1.204002
 30
0.0
 10
0.433078
 20
1.161456
 30
0.0
 10
0.505179
 20
1.111586
 30
0.0
 10
0.572033
 20
1.054874
 30
0.0
 10
0.632991
 20
0.991869
 30
0.0
 10
0.687466
 20
0.923180
 30
0.0
 10
0.734929
 20
0.849472
 30
0.0
 10
0.774921
 20
0.771458
 30
0.0
 10
0.807056
 20
0.689892
 30
0.0
 10
0.839474
 20
0.689892
 30
0.0
 10
0.839474
 20
1.083593
 30
0.0
 10
1.089474
 20
1.083593
 30
0.0
 10
1.089474
 20
0.689892
 30
0.0
 10
4.730284
 20
0.689892
 30
0.0
 10
4.730284
 20
1.117357
 30
0.0
 10
4.979890
 20
1.117357
 30
0.0
 10
4.979890
 20
0.689892
 30
0.0
 10
5.204964
 20
0.689892
 30
0.0
 10
5.204964
 20
1.924144
 30
0.0
 10
4.980284
 20
1.924144
 30
0.0
 10
4.980284
 20
1.674144
 30
0.0
 10
0.807056
 20
1.674144
 30
0.0
 10
0.807056
 20
1.924144
 30
0.0
 10
0.019654
 20
1.924144
 30
0.0
  0
LWPOLYLINE
  5
186
100
AcDbEntity
  8
Layer_1
 62
5
100
AcDbPolyline
 90
9
 70
0
 10
25.632393
 20
7.144181
 30
0.0
 10
25.632393
 20
3.482763
 30
0.0
 10
26.222944
 20
3.482763
 30
0.0
 10
26.222944
 20
3.233157
 30
0.0
 10
26.616645
 20
3.233157
 30
0.0
 10
26.616645
 20
7.393787
 30
0.0
 10
26.222944
 20
7.393787
 30
0.0
 10
26.222944
 20
7.144181
 30
0.0
 10
25.632393
 20
7.144181
 30
0.0
  0
LWPOLYLINE
  5
187
100
AcDbEntity
  8
Layer_1
 62
7
100
AcDbPolyline
 90
2
 70
0
 10
25.688405
 20
5.973671
 30
0.0
 10
25.688405
 20
4.895470
 30
0.0
  0
LWPOLYLINE
  5
188
100
AcDbEntity
  8
Layer_1
 62
7
100
AcDbPolyline
 90
2
 70
0
 10
25.727764
 20
5.973654
 30
0.0
 10
25.727764
 20
4.895452
 30
0.0
  0
LWPOLYLINE
  5
189
100
AcDbEntity
  8
Layer_1
 62
7
100
AcDbPolyline
 90
2
 70
0
 10
25.767134
 20
5.973654
 30
0.0
 10
25.767134
 20
4.895452
 30
0.0
  0
LWPOLYLINE
  5
18a
100
AcDbEntity
  8
Layer_1
 62
7
100
AcDbPolyline
 90
2
 70
0
 10
25.806504
 20
5.973654
 30
0.0
 10
25.806504
 20
4.895452
 30
0.0
  0
LWPOLYLINE
  5
18b
100
AcDbEntity
  8
Layer_1
 62
7
100
AcDbPolyline
 90
2
 70
0
 10
25.845874
 20
6.064190
 30
0.0
 10
25.845874
 20
4.793533
 30
0.0
  0
LWPOLYLINE
  5
18c
100
AcDbEntity
  8
Layer_1
 62
7
100
AcDbPolyline
 90
2
 70
0
 10
25.885245
 20
5.973654
 30
0.0
 10
25.885245
 20
4.895452
 30
0.0
  0
LWPOLYLINE
  5
18d
100
AcDbEntity
  8
Layer_1
 62
7
100
AcDbPolyline
 90
2
 70
0
 10
25.924615
 20
5.973654
 30
0.0
 10
25.924615
 20
4.895452
 30
0.0
  0
LWPOLYLINE
  5
18e
100
AcDbEntity
  8
Layer_1
 62
7
100
AcDbPolyline
 90
2
 70
0
 10
25.963985
 20
5.973654
 30
0.0
 10
25.963985
 20
4.895452
 30
0.0
  0
LWPOLYLINE
  5
18f
100
AcDbEntity
  8
Layer_1
 62
7
100
AcDbPolyline
 90
2
 70
0
 10
26.003355
 20
5.973654
 30
0.0
 10
26.003355
 20
4.895452
 30
0.0
  0
LWPOLYLINE
  5
190
100
AcDbEntity
  8
Layer_1
 62
7
100
AcDbPolyline
 90
2
 70
0
 10
26.042725
 20
6.066416
 30
0.0
 10
26.042725
 20
4.792226
 30
0.0
  0
LWPOLYLINE
  5
191
100
AcDbEntity
  8
Layer_1
 62
7
100
AcDbPolyline
 90
2
 70
0
 10
26.121465
 20
5.973654
 30
0.0
 10
26.121465
 20
4.895452
 30
0.0
  0
LWPOLYLINE
  5
192
100
AcDbEntity
  8
Layer_1
 62
7
100
AcDbPolyline
 90
2
 70
0
 10
26.082095
 20
5.973654
 30
0.0
 10
26.082095
 20
4.895452
 30
0.0
  0
LWPOLYLINE
  5
193
100
AcDbEntity
  8
Layer_1
 62
7
100
AcDbPolyline
 90
2
 70
0
 10
26.160835
 20
5.973654
 30
0.0
 10
26.160835
 20
4.895452
 30
0.0
  0
LWPOLYLINE
  5
194
100
AcDbEntity
  8
Layer_1
 62
7
100
AcDbPolyline
 90
2
 70
0
 10
26.200205
 20
5.973654
 30
0.0
 10
26.200205
 20
4.895452
 30
0.0
  0
LWPOLYLINE
  5
195
100
AcDbEntity
  8
Layer_1
 62
7
100
AcDbPolyline
 90
2
 70
0
 10
26.239575
 20
6.066037
 30
0.0
 10
26.239575
 20
4.791971
 30
0.0
  0
LWPOLYLINE
  5
196
100
AcDbEntity
  8
Layer_1
 62
5
100
AcDbPolyline
 90
21
 70
0
 10
31.453335
 20
3.693778
 30
0.0
 10
31.453335
 20
6.607164
 30
0.0
 10
31.584976
 20
6.607164
 30
0.0
 10
31.584976
 20
6.999678
 30
0.0
 10
31.360296
 20
6.999678
 30
0.0
 10
31.360296
 20
7.249285
 30
0.0
 10
31.584976
 20
7.249285
 30
0.0
 10
31.584976
 20
7.394566
 30
0.0
 10
27.187068
 20
7.394566
 30
0.0
 10
27.187068
 20
6.999678
 30
0.0
 10
26.649666
 20
6.999678
 30
0.0
 10
26.649666
 20
3.338261
 30
0.0
 10
27.187068
 20
3.338261
 30
0.0
 10
27.187068
 20
2.906377
 30
0.0
 10
31.584976
 20
2.906377
 30
0.0
 10
31.584976
 20
3.088655
 30
0.0
 10
31.360296
 20
3.088655
 30
0.0
 10
31.360296
 20
3.338261
 30
0.0
 10
31.584976
 20
3.338261
 30
0.0
 10
31.584976
 20
3.693778
 30
0.0
 10
31.453335
 20
3.693778
 30
0.0
  0
LWPOLYLINE
  5
197
100
AcDbEntity
  8
Layer_1
 62
5
100
AcDbPolyline
 90
21
 70
0
 10
37.197368
 20
4.094302
 30
0.0
 10
37.197368
 20
7.007688
 30
0.0
 10
37.329009
 20
7.007688
 30
0.0
 10
37.329009
 20
7.400202
 30
0.0
 10
37.104330
 20
7.400202
 30
0.0
 10
37.104330
 20
7.649809
 30
0.0
 10
37.329009
 20
7.649809
 30
0.0
 10
37.329009
 20
7.795090
 30
0.0
 10
32.931101
 20
7.795090
 30
0.0
 10
32.931101
 20
7.400202
 30
0.0
 10
32.393700
 20
7.400202
 30
0.0
 10
32.393700
 20
3.738785
 30
0.0
 10
32.931101
 20
3.738785
 30
0.0
 10
32.931101
 20
3.306901
 30
0.0
 10
37.329009
 20
3.306901
 30
0.0
 10
37.329009
 20
3.489179
 30
0.0
 10
37.104330
 20
3.489179
 30
0.0
 10
37.104330
 20
3.738785
 30
0.0
 10
37.329009
 20
3.738785
 30
0.0
 10
37.329009
 20
4.094302
 30
0.0
 10
37.197368
 20
4.094302
 30
0.0
  0
LWPOLYLINE
  5
198
100
AcDbEntity
  8
Layer_1
 62
5
100
AcDbPolyline
 90
33
 70
0
 10
36.421580
 20
2.932697
 30
0.0
 10
36.421580
 20
2.706288
 30
0.0
 10
36.671580
 20
2.706288
 30
0.0
 10
36.671580
 20
2.456288
 30
0.0
 10
36.421580
 20
2.456288
 30
0.0
 10
36.421580
 20
2.302406
 30
0.0
 10
36.508688
 20
2.292509
 30
0.0
 10
36.594401
 20
2.274103
 30
0.0
 10
36.677892
 20
2.247366
 30
0.0
 10
36.758352
 20
2.212556
 30
0.0
 10
36.835004
 20
2.170010
 30
0.0
 10
36.907106
 20
2.120139
 30
0.0
 10
36.973959
 20
2.063428
 30
0.0
 10
37.034917
 20
2.000423
 30
0.0
 10
37.089391
 20
1.931734
 30
0.0
 10
37.136854
 20
1.858026
 30
0.0
 10
37.176847
 20
1.780011
 30
0.0
 10
37.208982
 20
1.698446
 30
0.0
 10
37.241400
 20
1.698446
 30
0.0
 10
37.241400
 20
2.092146
 30
0.0
 10
37.491400
 20
2.092146
 30
0.0
 10
37.491400
 20
1.698446
 30
0.0
 10
41.132210
 20
1.698446
 30
0.0
 10
41.132210
 20
2.125910
 30
0.0
 10
41.381817
 20
2.125910
 30
0.0
 10
41.381817
 20
1.698446
 30
0.0
 10
41.606889
 20
1.698446
 30
0.0
 10
41.606889
 20
2.932697
 30
0.0
 10
41.382210
 20
2.932697
 30
0.0
 10
41.382210
 20
2.682697
 30
0.0
 10
37.208982
 20
2.682697
 30
0.0
 10
37.208982
 20
2.932697
 30
0.0
 10
36.421580
 20
2.932697
 30
0.0
  0
LWPOLYLINE
  5
199
100
AcDbEntity
  8
Layer_1
 62
5
100
AcDbPolyline
 90
33
 70
0
 10
31.235464
 20
2.877210
 30
0.0
 10
31.235464
 20
2.650801
 30
0.0
 10
31.485464
 20
2.650801
 30
0.0
 10
31.485464
 20
2.400801
 30
0.0
 10
31.235464
 20
2.400801
 30
0.0
 10
31.235464
 20
2.246919
 30
0.0
 10
31.322571
 20
2.237022
 30
0.0
 10
31.408284
 20
2.218615
 30
0.0
 10
31.491776
 20
2.191879
 30
0.0
 10
31.572237
 20
2.157069
 30
0.0
 10
31.648888
 20
2.114523
 30
0.0
 10
31.720989
 20
2.064652
 30
0.0
 10
31.787842
 20
2.007941
 30
0.0
 10
31.848801
 20
1.944935
 30
0.0
 10
31.903276
 20
1.876247
 30
0.0
 10
31.950738
 20
1.802539
 30
0.0
 10
31.990730
 20
1.724524
 30
0.0
 10
32.022866
 20
1.642959
 30
0.0
 10
32.055283
 20
1.642959
 30
0.0
 10
32.055283
 20
2.036659
 30
0.0
 10
32.305283
 20
2.036659
 30
0.0
 10
32.305283
 20
1.642959
 30
0.0
 10
35.946093
 20
1.642959
 30
0.0
 10
35.946093
 20
2.070423
 30
0.0
 10
36.195700
 20
2.070423
 30
0.0
 10
36.195700
 20
1.642959
 30
0.0
 10
36.420773
 20
1.642959
 30
0.0
 10
36.420773
 20
2.877210
 30
0.0
 10
36.196093
 20
2.877210
 30
0.0
 10
36.196093
 20
2.627210
 30
0.0
 10
32.022866
 20
2.627210
 30
0.0
 10
32.022866
 20
2.877210
 30
0.0
 10
31.235464
 20
2.877210
 30
0.0
  0
LWPOLYLINE
  5
19a
100
AcDbEntity
  8
Layer_1
 62
5
100
AcDbPolyline
 90
33
 70
0
 10
26.009536
 20
2.282189
 30
0.0
 10
26.009536
 20
2.055780
 30
0.0
 10
26.259536
 20
2.055780
 30
0.0
 10
26.259536
 20
1.805780
 30
0.0
 10
26.009536
 20
1.805780
 30
0.0
 10
26.009536
 20
1.651898
 30
0.0
 10
26.096642
 20
1.642001
 30
0.0
 10
26.182357
 20
1.623594
 30
0.0
 10
26.265848
 20
1.596858
 30
0.0
 10
26.346308
 20
1.562048
 30
0.0
 10
26.422959
 20
1.519502
 30
0.0
 10
26.495060
 20
1.469632
 30
0.0
 10
26.561913
 20
1.412919
 30
0.0
 10
26.622872
 20
1.349914
 30
0.0
 10
26.677347
 20
1.281225
 30
0.0
 10
26.724810
 20
1.207517
 30
0.0
 10
26.764802
 20
1.129503
 30
0.0
 10
26.796937
 20
1.047937
 30
0.0
 10
26.829356
 20
1.047937
 30
0.0
 10
26.829356
 20
1.441638
 30
0.0
 10
27.079356
 20
1.441638
 30
0.0
 10
27.079356
 20
1.047937
 30
0.0
 10
30.720166
 20
1.047937
 30
0.0
 10
30.720166
 20
1.475402
 30
0.0
 10
30.969771
 20
1.475402
 30
0.0
 10
30.969771
 20
1.047937
 30
0.0
 10
31.194844
 20
1.047937
 30
0.0
 10
31.194844
 20
2.282189
 30
0.0
 10
30.970166
 20
2.282189
 30
0.0
 10
30.970166
 20
2.032189
 30
0.0
 10
26.796937
 20
2.032189
 30
0.0
 10
26.796937
 20
2.282189
 30
0.0
 10
26.009536
 20
2.282189
 30
0.0
  0
LWPOLYLINE
  5
19b
100
AcDbEntity
  8
Layer_1
 62
5
100
AcDbPolyline
 90
33
 70
0
 10
20.805379
 20
2.282189
 30
0.0
 10
20.805379
 20
2.055780
 30
0.0
 10
21.055379
 20
2.055780
 30
0.0
 10
21.055379
 20
1.805780
 30
0.0
 10
20.805379
 20
1.805780
 30
0.0
 10
20.805379
 20
1.651898
 30
0.0
 10
20.892486
 20
1.642001
 30
0.0
 10
20.978199
 20
1.623594
 30
0.0
 10
21.061690
 20
1.596858
 30
0.0
 10
21.142151
 20
1.562048
 30
0.0
 10
21.218802
 20
1.519502
 30
0.0
 10
21.290903
 20
1.469632
 30
0.0
 10
21.357757
 20
1.412919
 30
0.0
 10
21.418716
 20
1.349914
 30
0.0
 10
21.473190
 20
1.281225
 30
0.0
 10
21.520652
 20
1.207517
 30
0.0
 10
21.560646
 20
1.129503
 30
0.0
 10
21.592780
 20
1.047937
 30
0.0
 10
21.625198
 20
1.047937
 30
0.0
 10
21.625198
 20
1.441638
 30
0.0
 10
21.875198
 20
1.441638
 30
0.0
 10
21.875198
 20
1.047937
 30
0.0
 10
25.516008
 20
1.047937
 30
0.0
 10
25.516008
 20
1.475402
 30
0.0
 10
25.765614
 20
1.475402
 30
0.0
 10
25.765614
 20
1.047937
 30
0.0
 10
25.990688
 20
1.047937
 30
0.0
 10
25.990688
 20
2.282189
 30
0.0
 10
25.766008
 20
2.282189
 30
0.0
 10
25.766008
 20
2.032189
 30
0.0
 10
21.592780
 20
2.032189
 30
0.0
 10
21.592780
 20
2.282189
 30
0.0
 10
20.805379
 20
2.282189
 30
0.0
  0
LWPOLYLINE
  5
19c
100
AcDbEntity
  8
Layer_1
 62
5
100
AcDbPolyline
 90
13
 70
0
 10
30.742208
 20
0.405652
 30
0.0
 10
30.742208
 20
0.559533
 30
0.0
 10
30.991815
 20
0.559533
 30
0.0
 10
30.991815
 20
0.809533
 30
0.0
 10
30.742208
 20
0.809533
 30
0.0
 10
30.742208
 20
1.035943
 30
0.0
 10
27.080791
 20
1.035943
 30
0.0
 10
27.080791
 20
0.809533
 30
0.0
 10
26.831185
 20
0.809533
 30
0.0
 10
26.831185
 20
0.559533
 30
0.0
 10
27.080791
 20
0.559533
 30
0.0
 10
27.080791
 20
0.405652
 30
0.0
 10
30.742208
 20
0.405652
 30
0.0
  0
LWPOLYLINE
  5
19d
100
AcDbEntity
  8
Layer_1
 62
5
100
AcDbPolyline
 90
13
 70
0
 10
11.610978
 20
20.291797
 30
0.0
 10
11.610978
 20
18.598883
 30
0.0
 10
11.303590
 20
18.008332
 30
0.0
 10
11.303590
 20
17.365025
 30
0.0
 10
11.731054
 20
17.365025
 30
0.0
 10
11.731054
 20
17.614631
 30
0.0
 10
12.287841
 20
17.614631
 30
0.0
 10
12.287841
 20
21.276048
 30
0.0
 10
11.731054
 20
21.276048
 30
0.0
 10
11.731054
 20
21.526356
 30
0.0
 10
11.303590
 20
21.526356
 30
0.0
 10
11.303590
 20
20.882348
 30
0.0
 10
11.610978
 20
20.291797
 30
0.0
  0
LWPOLYLINE
  5
19e
100
AcDbEntity
  8
Layer_1
 62
5
100
AcDbPolyline
 90
13
 70
0
 10
4.144553
 20
18.781760
 30
0.0
 10
4.144553
 20
20.474673
 30
0.0
 10
4.451941
 20
21.065224
 30
0.0
 10
4.451941
 20
21.708531
 30
0.0
 10
4.024476
 20
21.708531
 30
0.0
 10
4.024476
 20
21.458925
 30
0.0
 10
3.467689
 20
21.458925
 30
0.0
 10
3.467689
 20
17.797508
 30
0.0
 10
4.024476
 20
17.797508
 30
0.0
 10
4.024476
 20
17.547200
 30
0.0
 10
4.451941
 20
17.547200
 30
0.0
 10
4.451941
 20
18.191209
 30
0.0
 10
4.144553
 20
18.781760
 30
0.0
  0
LWPOLYLINE
  5
19f
100
AcDbEntity
  8
Layer_1
 62
5
100
AcDbPolyline
 90
21
 70
0
 10
42.158246
 20
4.065925
 30
0.0
 10
42.158246
 20
6.979311
 30
0.0
 10
42.289887
 20
6.979311
 30
0.0
 10
42.289887
 20
7.371826
 30
0.0
 10
42.065208
 20
7.371826
 30
0.0
 10
42.065208
 20
7.621432
 30
0.0
 10
42.289887
 20
7.621432
 30
0.0
 10
42.289887
 20
7.766713
 30
0.0
 10
37.891979
 20
7.766713
 30
0.0
 10
37.891979
 20
7.371826
 30
0.0
 10
37.354577
 20
7.371826
 30
0.0
 10
37.354577
 20
3.710408
 30
0.0
 10
37.891979
 20
3.710408
 30
0.0
 10
37.891979
 20
3.278524
 30
0.0
 10
42.289887
 20
3.278524
 30
0.0
 10
42.289887
 20
3.460802
 30
0.0
 10
42.065208
 20
3.460802
 30
0.0
 10
42.065208
 20
3.710408
 30
0.0
 10
42.289887
 20
3.710408
 30
0.0
 10
42.289887
 20
4.065925
 30
0.0
 10
42.158246
 20
4.065925
 30
0.0
  0
LWPOLYLINE
  5
1a0
100
AcDbEntity
  8
Layer_1
 62
5
100
AcDbPolyline
 90
13
 70
0
 10
20.362661
 20
0.412692
 30
0.0
 10
20.362661
 20
0.566574
 30
0.0
 10
20.612267
 20
0.566574
 30
0.0
 10
20.612267
 20
0.816574
 30
0.0
 10
20.362661
 20
0.816574
 30
0.0
 10
20.362661
 20
1.042984
 30
0.0
 10
16.701243
 20
1.042984
 30
0.0
 10
16.701243
 20
0.816574
 30
0.0
 10
16.451637
 20
0.816574
 30
0.0
 10
16.451637
 20
0.566574
 30
0.0
 10
16.701243
 20
0.566574
 30
0.0
 10
16.701243
 20
0.412692
 30
0.0
 10
20.362661
 20
0.412692
 30
0.0
  0
LWPOLYLINE
  5
1a1
100
AcDbEntity
  8
Layer_1
 62
5
100
AcDbPolyline
 90
13
 70
0
 10
25.535847
 20
0.402959
 30
0.0
 10
25.535847
 20
0.556841
 30
0.0
 10
25.785454
 20
0.556841
 30
0.0
 10
25.785454
 20
0.806841
 30
0.0
 10
25.535847
 20
0.806841
 30
0.0
 10
25.535847
 20
1.033251
 30
0.0
 10
21.874430
 20
1.033251
 30
0.0
 10
21.874430
 20
0.806841
 30
0.0
 10
21.624824
 20
0.806841
 30
0.0
 10
21.624824
 20
0.556841
 30
0.0
 10
21.874430
 20
0.556841
 30
0.0
 10
21.874430
 20
0.402959
 30
0.0
 10
25.535847
 20
0.402959
 30
0.0
  0
LWPOLYLINE
  5
1a2
100
AcDbEntity
  8
Layer_1
 62
5
100
AcDbPolyline
 90
13
 70
0
 10
15.148168
 20
0.430886
 30
0.0
 10
15.148168
 20
0.584768
 30
0.0
 10
15.397775
 20
0.584768
 30
0.0
 10
15.397775
 20
0.834768
 30
0.0
 10
15.148168
 20
0.834768
 30
0.0
 10
15.148168
 20
1.061178
 30
0.0
 10
11.486751
 20
1.061178
 30
0.0
 10
11.486751
 20
0.834768
 30
0.0
 10
11.237145
 20
0.834768
 30
0.0
 10
11.237145
 20
0.584768
 30
0.0
 10
11.486751
 20
0.584768
 30
0.0
 10
11.486751
 20
0.430886
 30
0.0
 10
15.148168
 20
0.430886
 30
0.0
  0
LWPOLYLINE
  5
1a3
100
AcDbEntity
  8
Layer_1
 62
5
100
AcDbPolyline
 90
9
 70
0
 10
35.964042
 20
1.631809
 30
0.0
 10
32.302624
 20
1.631809
 30
0.0
 10
32.302624
 20
1.041257
 30
0.0
 10
32.053018
 20
1.041257
 30
0.0
 10
32.053018
 20
0.647557
 30
0.0
 10
36.213648
 20
0.647557
 30
0.0
 10
36.213648
 20
1.041257
 30
0.0
 10
35.964042
 20
1.041257
 30
0.0
 10
35.964042
 20
1.631809
 30
0.0
  0
LWPOLYLINE
  5
1a4
100
AcDbEntity
  8
Layer_1
 62
7
100
AcDbPolyline
 90
2
 70
0
 10
34.793532
 20
1.575796
 30
0.0
 10
33.715331
 20
1.575796
 30
0.0
  0
LWPOLYLINE
  5
1a5
100
AcDbEntity
  8
Layer_1
 62
7
100
AcDbPolyline
 90
2
 70
0
 10
34.793515
 20
1.536437
 30
0.0
 10
33.715313
 20
1.536437
 30
0.0
  0
LWPOLYLINE
  5
1a6
100
AcDbEntity
  8
Layer_1
 62
7
100
AcDbPolyline
 90
2
 70
0
 10
34.793515
 20
1.497067
 30
0.0
 10
33.715313
 20
1.497067
 30
0.0
  0
LWPOLYLINE
  5
1a7
100
AcDbEntity
  8
Layer_1
 62
7
100
AcDbPolyline
 90
2
 70
0
 10
34.793515
 20
1.457697
 30
0.0
 10
33.715313
 20
1.457697
 30
0.0
  0
LWPOLYLINE
  5
1a8
100
AcDbEntity
  8
Layer_1
 62
7
100
AcDbPolyline
 90
2
 70
0
 10
34.884051
 20
1.418327
 30
0.0
 10
33.613394
 20
1.418327
 30
0.0
  0
LWPOLYLINE
  5
1a9
100
AcDbEntity
  8
Layer_1
 62
7
100
AcDbPolyline
 90
2
 70
0
 10
34.793515
 20
1.378957
 30
0.0
 10
33.715313
 20
1.378957
 30
0.0
  0
LWPOLYLINE
  5
1aa
100
AcDbEntity
  8
Layer_1
 62
7
100
AcDbPolyline
 90
2
 70
0
 10
34.793515
 20
1.339587
 30
0.0
 10
33.715313
 20
1.339587
 30
0.0
  0
LWPOLYLINE
  5
1ab
100
AcDbEntity
  8
Layer_1
 62
7
100
AcDbPolyline
 90
2
 70
0
 10
34.793515
 20
1.300217
 30
0.0
 10
33.715313
 20
1.300217
 30
0.0
  0
LWPOLYLINE
  5
1ac
100
AcDbEntity
  8
Layer_1
 62
7
100
AcDbPolyline
 90
2
 70
0
 10
34.793515
 20
1.260847
 30
0.0
 10
33.715313
 20
1.260847
 30
0.0
  0
LWPOLYLINE
  5
1ad
100
AcDbEntity
  8
Layer_1
 62
7
100
AcDbPolyline
 90
2
 70
0
 10
34.886277
 20
1.221477
 30
0.0
 10
33.612087
 20
1.221477
 30
0.0
  0
LWPOLYLINE
  5
1ae
100
AcDbEntity
  8
Layer_1
 62
7
100
AcDbPolyline
 90
2
 70
0
 10
34.793515
 20
1.142737
 30
0.0
 10
33.715313
 20
1.142737
 30
0.0
  0
LWPOLYLINE
  5
1af
100
AcDbEntity
  8
Layer_1
 62
7
100
AcDbPolyline
 90
2
 70
0
 10
34.793515
 20
1.182107
 30
0.0
 10
33.715313
 20
1.182107
 30
0.0
  0
LWPOLYLINE
  5
1b0
100
AcDbEntity
  8
Layer_1
 62
7
100
AcDbPolyline
 90
2
 70
0
 10
34.793515
 20
1.103366
 30
0.0
 10
33.715313
 20
1.103366
 30
0.0
  0
LWPOLYLINE
  5
1b1
100
AcDbEntity
  8
Layer_1
 62
7
100
AcDbPolyline
 90
2
 70
0
 10
34.793515
 20
1.063996
 30
0.0
 10
33.715313
 20
1.063996
 30
0.0
  0
LWPOLYLINE
  5
1b2
100
AcDbEntity
  8
Layer_1
 62
7
100
AcDbPolyline
 90
2
 70
0
 10
34.885898
 20
1.024626
 30
0.0
 10
33.611832
 20
1.024626
 30
0.0
  0
LWPOLYLINE
  5
1b3
100
AcDbEntity
  8
Layer_1
 62
5
100
AcDbPolyline
 90
9
 70
0
 10
40.278585
 20
1.653370
 30
0.0
 10
36.617168
 20
1.653370
 30
0.0
 10
36.617168
 20
1.062819
 30
0.0
 10
36.367561
 20
1.062819
 30
0.0
 10
36.367561
 20
0.669118
 30
0.0
 10
40.528191
 20
0.669118
 30
0.0
 10
40.528191
 20
1.062819
 30
0.0
 10
40.278585
 20
1.062819
 30
0.0
 10
40.278585
 20
1.653370
 30
0.0
  0
LWPOLYLINE
  5
1b4
100
AcDbEntity
  8
Layer_1
 62
7
100
AcDbPolyline
 90
2
 70
0
 10
39.108075
 20
1.597358
 30
0.0
 10
38.029874
 20
1.597358
 30
0.0
  0
LWPOLYLINE
  5
1b5
100
AcDbEntity
  8
Layer_1
 62
7
100
AcDbPolyline
 90
2
 70
0
 10
39.108058
 20
1.557999
 30
0.0
 10
38.029857
 20
1.557999
 30
0.0
  0
LWPOLYLINE
  5
1b6
100
AcDbEntity
  8
Layer_1
 62
7
100
AcDbPolyline
 90
2
 70
0
 10
39.108058
 20
1.518629
 30
0.0
 10
38.029857
 20
1.518629
 30
0.0
  0
LWPOLYLINE
  5
1b7
100
AcDbEntity
  8
Layer_1
 62
7
100
AcDbPolyline
 90
2
 70
0
 10
39.108058
 20
1.479259
 30
0.0
 10
38.029857
 20
1.479259
 30
0.0
  0
LWPOLYLINE
  5
1b8
100
AcDbEntity
  8
Layer_1
 62
7
100
AcDbPolyline
 90
2
 70
0
 10
39.198594
 20
1.439889
 30
0.0
 10
37.927938
 20
1.439889
 30
0.0
  0
LWPOLYLINE
  5
1b9
100
AcDbEntity
  8
Layer_1
 62
7
100
AcDbPolyline
 90
2
 70
0
 10
39.108058
 20
1.400518
 30
0.0
 10
38.029857
 20
1.400518
 30
0.0
  0
LWPOLYLINE
  5
1ba
100
AcDbEntity
  8
Layer_1
 62
7
100
AcDbPolyline
 90
2
 70
0
 10
39.108058
 20
1.361148
 30
0.0
 10
38.029857
 20
1.361148
 30
0.0
  0
LWPOLYLINE
  5
1bb
100
AcDbEntity
  8
Layer_1
 62
7
100
AcDbPolyline
 90
2
 70
0
 10
39.108058
 20
1.321778
 30
0.0
 10
38.029857
 20
1.321778
 30
0.0
  0
LWPOLYLINE
  5
1bc
100
AcDbEntity
  8
Layer_1
 62
7
100
AcDbPolyline
 90
2
 70
0
 10
39.108058
 20
1.282408
 30
0.0
 10
38.029857
 20
1.282408
 30
0.0
  0
LWPOLYLINE
  5
1bd
100
AcDbEntity
  8
Layer_1
 62
7
100
AcDbPolyline
 90
2
 70
0
 10
39.200821
 20
1.243038
 30
0.0
 10
37.926630
 20
1.243038
 30
0.0
  0
LWPOLYLINE
  5
1be
100
AcDbEntity
  8
Layer_1
 62
7
100
AcDbPolyline
 90
2
 70
0
 10
39.108058
 20
1.164298
 30
0.0
 10
38.029857
 20
1.164298
 30
0.0
  0
LWPOLYLINE
  5
1bf
100
AcDbEntity
  8
Layer_1
 62
7
100
AcDbPolyline
 90
2
 70
0
 10
39.108058
 20
1.203668
 30
0.0
 10
38.029857
 20
1.203668
 30
0.0
  0
LWPOLYLINE
  5
1c0
100
AcDbEntity
  8
Layer_1
 62
7
100
AcDbPolyline
 90
2
 70
0
 10
39.108058
 20
1.124928
 30
0.0
 10
38.029857
 20
1.124928
 30
0.0
  0
LWPOLYLINE
  5
1c1
100
AcDbEntity
  8
Layer_1
 62
7
100
AcDbPolyline
 90
2
 70
0
 10
39.108058
 20
1.085558
 30
0.0
 10
38.029857
 20
1.085558
 30
0.0
  0
LWPOLYLINE
  5
1c2
100
AcDbEntity
  8
Layer_1
 62
7
100
AcDbPolyline
 90
2
 70
0
 10
39.200442
 20
1.046188
 30
0.0
 10
37.926375
 20
1.046188
 30
0.0
  0
LWPOLYLINE
  5
1c3
100
AcDbEntity
  8
Layer_1
 62
5
100
AcDbPolyline
 90
21
 70
0
 10
47.110617
 20
4.092513
 30
0.0
 10
47.110617
 20
7.005899
 30
0.0
 10
47.242258
 20
7.005899
 30
0.0
 10
47.242258
 20
7.398413
 30
0.0
 10
47.017579
 20
7.398413
 30
0.0
 10
47.017579
 20
7.648020
 30
0.0
 10
47.242258
 20
7.648020
 30
0.0
 10
47.242258
 20
7.793301
 30
0.0
 10
42.844350
 20
7.793301
 30
0.0
 10
42.844350
 20
7.398413
 30
0.0
 10
42.306949
 20
7.398413
 30
0.0
 10
42.306949
 20
3.736996
 30
0.0
 10
42.844350
 20
3.736996
 30
0.0
 10
42.844350
 20
3.305112
 30
0.0
 10
47.242258
 20
3.305112
 30
0.0
 10
47.242258
 20
3.487390
 30
0.0
 10
47.017579
 20
3.487390
 30
0.0
 10
47.017579
 20
3.736996
 30
0.0
 10
47.242258
 20
3.736996
 30
0.0
 10
47.242258
 20
4.092513
 30
0.0
 10
47.110617
 20
4.092513
 30
0.0
  0
ENDSEC
  0
SECTION
  2
OBJECTS
  0
DICTIONARY
  5
C
330
0
100
AcDbDictionary
  3
ACAD_GROUP
350
D
  3
ACAD_MLINESTYLE
350
17
  0
DICTIONARY
  5
D
330
C
100
AcDbDictionary
  0
DICTIONARY
  5
1A
330
C
100
AcDbDictionary
  0
DICTIONARY
  5
17
330
C
100
AcDbDictionary
  3
STANDARD
350
18
  0
DICTIONARY
  5
19
330
C
100
AcDbDictionary
  0
ENDSEC
  0
EOF
