G75*
G70*
%OFA0B0*%
%FSLAX24Y24*%
%IPPOS*%
%LPD*%
%AMOC8*
5,1,8,0,0,1.08239X$1,22.5*
%
%ADD10C,0.0946*%
%ADD11C,0.0710*%
%ADD12R,3.1576X0.0474*%
%ADD13R,0.0474X3.1576*%
D10*
X001164Y001164D03*
X001164Y009038D03*
X009038Y001164D03*
X017897Y001164D03*
X026755Y001164D03*
X034629Y001164D03*
X034629Y009038D03*
X034629Y017897D03*
X034629Y026755D03*
X034629Y034629D03*
X026755Y034629D03*
X017897Y034629D03*
X009038Y034629D03*
X001164Y034629D03*
X001164Y026755D03*
X001164Y017897D03*
D11*
X001164Y019865D03*
X001164Y021834D03*
X001164Y023802D03*
X001164Y028723D03*
X001164Y030692D03*
X001164Y032660D03*
X003133Y034629D03*
X005101Y034629D03*
X007070Y034629D03*
X011991Y034629D03*
X013960Y034629D03*
X015928Y034629D03*
X019865Y034629D03*
X021834Y034629D03*
X023802Y034629D03*
X028723Y034629D03*
X030692Y034629D03*
X032660Y034629D03*
X034629Y032660D03*
X034629Y030692D03*
X034629Y028723D03*
X034629Y023802D03*
X034629Y021834D03*
X034629Y019865D03*
X034629Y015928D03*
X034629Y013960D03*
X034629Y011991D03*
X034629Y007070D03*
X034629Y005101D03*
X034629Y003133D03*
X032660Y001164D03*
X030692Y001164D03*
X028723Y001164D03*
X023802Y001164D03*
X021834Y001164D03*
X019865Y001164D03*
X015928Y001164D03*
X013960Y001164D03*
X011991Y001164D03*
X007070Y001164D03*
X005101Y001164D03*
X003133Y001164D03*
X001164Y003133D03*
X001164Y005101D03*
X001164Y007070D03*
X001164Y011991D03*
X001164Y013960D03*
X001164Y015928D03*
D12*
X017897Y015928D03*
X017897Y015141D03*
X017897Y014353D03*
X017897Y013566D03*
X017897Y012778D03*
X017897Y011991D03*
X017897Y011204D03*
X017897Y010416D03*
X017897Y009629D03*
X017897Y008841D03*
X017897Y008054D03*
X017897Y007267D03*
X017897Y006479D03*
X017897Y005692D03*
X017897Y004904D03*
X017897Y004117D03*
X017897Y003330D03*
X017897Y002542D03*
X017897Y016715D03*
X017897Y017503D03*
X017897Y018290D03*
X017897Y019078D03*
X017897Y019865D03*
X017897Y020652D03*
X017897Y021440D03*
X017897Y022227D03*
X017897Y023015D03*
X017897Y023802D03*
X017897Y024589D03*
X017897Y025377D03*
X017897Y026164D03*
X017897Y026952D03*
X017897Y027739D03*
X017897Y028526D03*
X017897Y029314D03*
X017897Y030101D03*
X017897Y030889D03*
X017897Y031676D03*
X017897Y032463D03*
X017897Y033251D03*
D13*
X018290Y017897D03*
X019078Y017897D03*
X019865Y017897D03*
X020652Y017897D03*
X021440Y017897D03*
X022227Y017897D03*
X023015Y017897D03*
X023802Y017897D03*
X024589Y017897D03*
X025377Y017897D03*
X026164Y017897D03*
X026952Y017897D03*
X027739Y017897D03*
X028526Y017897D03*
X029314Y017897D03*
X030101Y017897D03*
X030889Y017897D03*
X031676Y017897D03*
X032463Y017897D03*
X033251Y017897D03*
X017503Y017897D03*
X016715Y017897D03*
X015928Y017897D03*
X015141Y017897D03*
X014353Y017897D03*
X013566Y017897D03*
X012778Y017897D03*
X011991Y017897D03*
X011204Y017897D03*
X010416Y017897D03*
X009629Y017897D03*
X008841Y017897D03*
X008054Y017897D03*
X007267Y017897D03*
X006479Y017897D03*
X005692Y017897D03*
X004904Y017897D03*
X004117Y017897D03*
X003330Y017897D03*
X002542Y017897D03*
M02*
