G75*
G70*
%OFA0B0*%
%FSLAX24Y24*%
%IPPOS*%
%LPD*%
%AMOC8*
5,1,8,0,0,1.08239X$1,22.5*
%
%ADD10C,0.0160*%
%ADD11C,0.0060*%
%ADD12R,0.2000X0.2000*%
%ADD13R,0.2500X0.2500*%
%ADD14R,0.1000X0.1000*%
%ADD15C,0.0050*%
%ADD16C,0.0200*%
%ADD17R,0.0300X0.4200*%
%ADD18R,0.0200X0.0750*%
%ADD19R,0.0200X0.0300*%
%ADD20R,0.4200X0.0300*%
%ADD21R,0.0750X0.0200*%
%ADD22R,0.0300X0.0200*%
%ADD23C,0.0040*%
%ADD24R,0.0551X0.0256*%
%ADD25R,0.0256X0.0551*%
%ADD26R,0.0200X0.1000*%
%ADD27R,0.0750X0.0300*%
%ADD28R,0.0118X0.0059*%
%ADD29R,0.0118X0.0118*%
%ADD30C,0.0080*%
%ADD31C,0.0010*%
%ADD32C,0.0020*%
%ADD33C,0.0070*%
%ADD34C,0.0120*%
%ADD35C,0.0100*%
D10*
X007433Y007150D02*
X010433Y007150D01*
X007433Y007150D02*
X007433Y011150D01*
X007433Y015150D01*
X010433Y015150D01*
X010433Y011150D02*
X007433Y011150D01*
D11*
X005983Y007800D02*
X005983Y006750D01*
X007183Y006750D01*
X010733Y006750D01*
X010733Y007900D01*
X010733Y008400D02*
X010733Y009900D01*
X010733Y010400D02*
X010733Y011900D01*
X010733Y012400D02*
X010733Y013900D01*
X010733Y014400D02*
X010733Y015550D01*
X007183Y015550D01*
X005983Y015550D01*
X005983Y014500D01*
X005983Y013800D01*
X005983Y012500D01*
X005983Y011800D01*
X005983Y010500D01*
X006483Y010350D01*
X006483Y009950D01*
X005983Y009800D01*
X005983Y008500D01*
X006483Y008350D01*
X006483Y007950D01*
X005983Y007800D01*
X005983Y008500D01*
X005983Y009800D02*
X005983Y010500D01*
X005983Y011800D02*
X006483Y011950D01*
X006483Y012350D01*
X005983Y012500D01*
X005983Y013800D02*
X006483Y013950D01*
X006483Y014350D01*
X005983Y014500D01*
X007183Y015550D02*
X007183Y006750D01*
X008070Y007680D02*
X008284Y007680D01*
X008390Y007787D01*
X008390Y008000D01*
X008177Y008000D01*
X007963Y007787D02*
X008070Y007680D01*
X007963Y007787D02*
X007963Y008214D01*
X008070Y008321D01*
X008284Y008321D01*
X008390Y008214D01*
X008177Y010287D02*
X008177Y010714D01*
X008390Y010500D02*
X007963Y010500D01*
X008070Y012180D02*
X008284Y012180D01*
X008390Y012287D01*
X008390Y012500D01*
X008177Y012500D01*
X007963Y012287D02*
X008070Y012180D01*
X007963Y012287D02*
X007963Y012714D01*
X008070Y012821D01*
X008284Y012821D01*
X008390Y012714D01*
X008177Y014287D02*
X008177Y014714D01*
X008390Y014500D02*
X007963Y014500D01*
X007883Y016150D02*
X008383Y016150D01*
X008633Y016400D01*
X008633Y016900D01*
X008383Y017150D01*
X008633Y017400D01*
X008633Y017900D01*
X008383Y018150D01*
X008633Y018400D01*
X008633Y018900D01*
X008383Y019150D01*
X007883Y019150D01*
X007633Y018900D01*
X007633Y018400D01*
X007883Y018150D01*
X007633Y017900D01*
X007633Y017400D01*
X007883Y017150D01*
X007633Y016900D01*
X007633Y016400D01*
X007883Y016150D01*
X007883Y019850D02*
X008383Y019850D01*
X008633Y020100D01*
X008633Y020600D01*
X008383Y020850D01*
X008633Y021100D01*
X008633Y021600D01*
X008383Y021850D01*
X008633Y022100D01*
X008633Y022600D01*
X008383Y022850D01*
X007883Y022850D01*
X007633Y022600D01*
X007633Y022100D01*
X007883Y021850D01*
X007633Y021600D01*
X007633Y021100D01*
X007883Y020850D01*
X007633Y020600D01*
X007633Y020100D01*
X007883Y019850D01*
X007183Y023850D02*
X005983Y023850D01*
X005983Y024900D01*
X006483Y025050D01*
X006483Y025450D01*
X005983Y025600D01*
X005983Y024900D01*
X005983Y025600D02*
X005983Y026900D01*
X005983Y027600D01*
X006483Y027450D01*
X006483Y027050D01*
X005983Y026900D01*
X005983Y027600D02*
X005983Y028900D01*
X005983Y029600D01*
X006483Y029450D01*
X006483Y029050D01*
X005983Y028900D01*
X005983Y029600D02*
X005983Y030650D01*
X007183Y030650D01*
X007183Y023850D01*
X010733Y023850D01*
X010733Y025000D01*
X010733Y025500D02*
X010733Y027000D01*
X010733Y027500D02*
X010733Y029000D01*
X010733Y029500D02*
X010733Y030650D01*
X007183Y030650D01*
X008177Y029214D02*
X008177Y028787D01*
X007963Y029000D02*
X008390Y029000D01*
X008390Y027000D02*
X007963Y027000D01*
X007784Y024821D02*
X007570Y024821D01*
X007463Y024714D01*
X007463Y024287D01*
X007570Y024180D01*
X007784Y024180D01*
X007890Y024287D01*
X007890Y024500D01*
X007677Y024500D01*
X007890Y024714D02*
X007784Y024821D01*
X013233Y025750D02*
X013233Y026550D01*
X013235Y026567D01*
X013239Y026584D01*
X013246Y026600D01*
X013256Y026614D01*
X013269Y026627D01*
X013283Y026637D01*
X013299Y026644D01*
X013316Y026648D01*
X013333Y026650D01*
X015033Y026650D01*
X015050Y026648D01*
X015067Y026644D01*
X015083Y026637D01*
X015097Y026627D01*
X015110Y026614D01*
X015120Y026600D01*
X015127Y026584D01*
X015131Y026567D01*
X015133Y026550D01*
X015133Y025750D01*
X015131Y025733D01*
X015127Y025716D01*
X015120Y025700D01*
X015110Y025686D01*
X015097Y025673D01*
X015083Y025663D01*
X015067Y025656D01*
X015050Y025652D01*
X015033Y025650D01*
X013333Y025650D01*
X013316Y025652D01*
X013299Y025656D01*
X013283Y025663D01*
X013269Y025673D01*
X013256Y025686D01*
X013246Y025700D01*
X013239Y025716D01*
X013235Y025733D01*
X013233Y025750D01*
X014033Y026150D02*
X014083Y026150D01*
X014283Y026150D02*
X014333Y026150D01*
X016233Y026650D02*
X016233Y024950D01*
X016235Y024933D01*
X016239Y024916D01*
X016246Y024900D01*
X016256Y024886D01*
X016269Y024873D01*
X016283Y024863D01*
X016299Y024856D01*
X016316Y024852D01*
X016333Y024850D01*
X017133Y024850D01*
X017150Y024852D01*
X017167Y024856D01*
X017183Y024863D01*
X017197Y024873D01*
X017210Y024886D01*
X017220Y024900D01*
X017227Y024916D01*
X017231Y024933D01*
X017233Y024950D01*
X017233Y026650D01*
X017231Y026667D01*
X017227Y026684D01*
X017220Y026700D01*
X017210Y026714D01*
X017197Y026727D01*
X017183Y026737D01*
X017167Y026744D01*
X017150Y026748D01*
X017133Y026750D01*
X016333Y026750D01*
X016316Y026748D01*
X016299Y026744D01*
X016283Y026737D01*
X016269Y026727D01*
X016256Y026714D01*
X016246Y026700D01*
X016239Y026684D01*
X016235Y026667D01*
X016233Y026650D01*
X016733Y025950D02*
X016733Y025900D01*
X016733Y025700D02*
X016733Y025650D01*
X019083Y024250D02*
X019083Y023450D01*
X019085Y023433D01*
X019089Y023416D01*
X019096Y023400D01*
X019106Y023386D01*
X019119Y023373D01*
X019133Y023363D01*
X019149Y023356D01*
X019166Y023352D01*
X019183Y023350D01*
X020883Y023350D01*
X020900Y023352D01*
X020917Y023356D01*
X020933Y023363D01*
X020947Y023373D01*
X020960Y023386D01*
X020970Y023400D01*
X020977Y023416D01*
X020981Y023433D01*
X020983Y023450D01*
X020983Y024250D01*
X020981Y024267D01*
X020977Y024284D01*
X020970Y024300D01*
X020960Y024314D01*
X020947Y024327D01*
X020933Y024337D01*
X020917Y024344D01*
X020900Y024348D01*
X020883Y024350D01*
X019183Y024350D01*
X019166Y024348D01*
X019149Y024344D01*
X019133Y024337D01*
X019119Y024327D01*
X019106Y024314D01*
X019096Y024300D01*
X019089Y024284D01*
X019085Y024267D01*
X019083Y024250D01*
X019883Y023850D02*
X019933Y023850D01*
X020133Y023850D02*
X020183Y023850D01*
X020283Y025850D02*
X020033Y026100D01*
X020033Y026600D01*
X020283Y026850D01*
X020783Y026850D01*
X021033Y026600D01*
X021283Y026850D01*
X021783Y026850D01*
X022033Y026600D01*
X022283Y026850D01*
X022783Y026850D01*
X023033Y026600D01*
X023033Y026100D01*
X022783Y025850D01*
X022283Y025850D01*
X022033Y026100D01*
X021783Y025850D01*
X021283Y025850D01*
X021033Y026100D01*
X020783Y025850D01*
X020283Y025850D01*
X019683Y027150D02*
X019933Y027400D01*
X019933Y027900D01*
X019683Y028150D01*
X019183Y028150D01*
X018933Y027900D01*
X018933Y027400D01*
X019183Y027150D01*
X019683Y027150D01*
X021283Y028050D02*
X021533Y027800D01*
X022033Y027800D01*
X022283Y028050D01*
X022283Y028550D01*
X022033Y028800D01*
X021533Y028800D01*
X021283Y028550D01*
X021283Y028050D01*
X026733Y027150D02*
X026733Y026650D01*
X026983Y026400D01*
X027483Y026400D01*
X027733Y026650D01*
X027733Y027150D01*
X027483Y027400D01*
X026983Y027400D01*
X026733Y027150D01*
X032933Y027650D02*
X032933Y023650D01*
X033933Y023650D01*
X033933Y027650D01*
X034533Y027650D01*
X034535Y027611D01*
X034541Y027572D01*
X034550Y027534D01*
X034563Y027497D01*
X034580Y027461D01*
X034600Y027428D01*
X034624Y027396D01*
X034650Y027367D01*
X034679Y027341D01*
X034711Y027317D01*
X034744Y027297D01*
X034780Y027280D01*
X034817Y027267D01*
X034855Y027258D01*
X034894Y027252D01*
X034933Y027250D01*
X034972Y027252D01*
X035011Y027258D01*
X035049Y027267D01*
X035086Y027280D01*
X035122Y027297D01*
X035155Y027317D01*
X035187Y027341D01*
X035216Y027367D01*
X035242Y027396D01*
X035266Y027428D01*
X035286Y027461D01*
X035303Y027497D01*
X035316Y027534D01*
X035325Y027572D01*
X035331Y027611D01*
X035333Y027650D01*
X035933Y027650D01*
X035933Y023650D01*
X033933Y023650D01*
X034933Y022900D02*
X034933Y022400D01*
X035183Y022150D01*
X035683Y022150D01*
X035933Y022400D01*
X036183Y022150D01*
X036683Y022150D01*
X036933Y022400D01*
X037183Y022150D01*
X037683Y022150D01*
X037933Y022400D01*
X037933Y022900D01*
X037683Y023150D01*
X037183Y023150D01*
X036933Y022900D01*
X036683Y023150D01*
X036183Y023150D01*
X035933Y022900D01*
X035683Y023150D01*
X035183Y023150D01*
X034933Y022900D01*
X035933Y023650D02*
X036933Y023650D01*
X036933Y027650D01*
X035933Y027650D01*
X033933Y027650D02*
X032933Y027650D01*
X038083Y027650D02*
X038083Y026900D01*
X038233Y027050D02*
X038233Y027650D01*
X038083Y027650D01*
X038083Y027900D01*
X038183Y028000D01*
X038833Y028000D01*
X039333Y028000D02*
X040683Y028000D01*
X040783Y027900D01*
X040783Y025400D01*
X040683Y025300D01*
X039333Y025300D01*
X038833Y025300D02*
X038183Y025300D01*
X038083Y025400D01*
X038083Y025650D01*
X038083Y026400D01*
X038233Y026250D02*
X038233Y025650D01*
X038083Y025650D01*
X038833Y026500D02*
X039133Y026500D01*
X039283Y026500D01*
X039433Y026350D01*
X039433Y026050D01*
X039733Y026050D01*
X039733Y026350D01*
X039883Y026500D01*
X040033Y026500D01*
X040333Y026500D01*
X040333Y026800D01*
X040033Y026800D01*
X039883Y026800D01*
X039733Y026950D01*
X039733Y027250D01*
X039433Y027250D01*
X039433Y026950D01*
X039283Y026800D01*
X039133Y026800D01*
X038833Y026800D01*
X038833Y026500D01*
X039133Y026500D02*
X039133Y026800D01*
X040033Y026800D02*
X040033Y026500D01*
X040683Y024150D02*
X039183Y024150D01*
X038933Y023900D01*
X038933Y023400D01*
X039183Y023150D01*
X038933Y022900D01*
X038933Y022400D01*
X039183Y022150D01*
X038933Y021900D01*
X038933Y021400D01*
X039183Y021150D01*
X038933Y020900D01*
X038933Y020400D01*
X039183Y020150D01*
X040683Y020150D01*
X040933Y020400D01*
X040933Y020900D01*
X040683Y021150D01*
X040933Y021400D01*
X040933Y021900D01*
X040683Y022150D01*
X040933Y022400D01*
X040933Y022900D01*
X040683Y023150D01*
X040933Y023400D01*
X040933Y023900D01*
X040683Y024150D01*
X037683Y021150D02*
X037183Y021150D01*
X036933Y020900D01*
X036683Y021150D01*
X036183Y021150D01*
X035933Y020900D01*
X035683Y021150D01*
X035183Y021150D01*
X034933Y020900D01*
X034933Y020400D01*
X035183Y020150D01*
X035683Y020150D01*
X035933Y020400D01*
X036183Y020150D01*
X036683Y020150D01*
X036933Y020400D01*
X037183Y020150D01*
X037683Y020150D01*
X037933Y020400D01*
X037933Y020900D01*
X037683Y021150D01*
X039883Y019500D02*
X031983Y019500D01*
X031983Y013800D01*
X039883Y013800D01*
X039883Y016150D01*
X039839Y016152D01*
X039796Y016158D01*
X039754Y016167D01*
X039712Y016180D01*
X039672Y016197D01*
X039633Y016217D01*
X039596Y016240D01*
X039562Y016267D01*
X039529Y016296D01*
X039500Y016329D01*
X039473Y016363D01*
X039450Y016400D01*
X039430Y016439D01*
X039413Y016479D01*
X039400Y016521D01*
X039391Y016563D01*
X039385Y016606D01*
X039383Y016650D01*
X039385Y016694D01*
X039391Y016737D01*
X039400Y016779D01*
X039413Y016821D01*
X039430Y016861D01*
X039450Y016900D01*
X039473Y016937D01*
X039500Y016971D01*
X039529Y017004D01*
X039562Y017033D01*
X039596Y017060D01*
X039633Y017083D01*
X039672Y017103D01*
X039712Y017120D01*
X039754Y017133D01*
X039796Y017142D01*
X039839Y017148D01*
X039883Y017150D01*
X039883Y019500D01*
X038683Y018150D02*
X038183Y018150D01*
X037933Y017900D01*
X037933Y016400D01*
X037683Y016150D01*
X037183Y016150D01*
X036933Y016400D01*
X036683Y016150D01*
X036183Y016150D01*
X035933Y016400D01*
X035933Y017900D01*
X036183Y018150D01*
X036683Y018150D01*
X036933Y017900D01*
X036933Y016400D01*
X037933Y016400D02*
X038183Y016150D01*
X038683Y016150D01*
X038933Y016400D01*
X038933Y017900D01*
X038683Y018150D01*
X037933Y017900D02*
X037683Y018150D01*
X037183Y018150D01*
X036933Y017900D01*
X040433Y016900D02*
X040433Y016400D01*
X040683Y016150D01*
X040433Y015900D01*
X040433Y015400D01*
X040683Y015150D01*
X040433Y014900D01*
X040433Y014400D01*
X040683Y014150D01*
X040433Y013900D01*
X040433Y013400D01*
X040683Y013150D01*
X042183Y013150D01*
X042433Y013400D01*
X042433Y013900D01*
X042183Y014150D01*
X042433Y014400D01*
X042433Y014900D01*
X042183Y015150D01*
X042433Y015400D01*
X042433Y015900D01*
X042183Y016150D01*
X042433Y016400D01*
X042433Y016900D01*
X042183Y017150D01*
X040683Y017150D01*
X040433Y016900D01*
X045533Y017900D02*
X045533Y018400D01*
X045783Y018650D01*
X046283Y018650D01*
X046533Y018400D01*
X046533Y017900D01*
X046283Y017650D01*
X045783Y017650D01*
X045533Y017900D01*
X045283Y009750D02*
X044783Y009750D01*
X044533Y009500D01*
X044533Y008000D01*
X044283Y007750D01*
X043783Y007750D01*
X043533Y008000D01*
X043533Y009500D01*
X043283Y009750D01*
X042783Y009750D01*
X042533Y009500D01*
X042283Y009750D01*
X041783Y009750D01*
X041533Y009500D01*
X041533Y008000D01*
X041783Y007750D01*
X042283Y007750D01*
X042533Y008000D01*
X042533Y009500D01*
X043533Y009500D02*
X043783Y009750D01*
X044283Y009750D01*
X044533Y009500D01*
X045283Y009750D02*
X045533Y009500D01*
X045533Y008000D01*
X045283Y007750D01*
X044783Y007750D01*
X044533Y008000D01*
X043533Y008000D02*
X043283Y007750D01*
X042783Y007750D01*
X042533Y008000D01*
X041283Y008050D02*
X041283Y009400D01*
X041183Y009500D01*
X038683Y009500D01*
X038583Y009400D01*
X038583Y008050D01*
X038583Y007550D02*
X038583Y006900D01*
X038683Y006800D01*
X038933Y006800D01*
X039683Y006800D01*
X039533Y006950D02*
X038933Y006950D01*
X038933Y006800D01*
X039783Y007550D02*
X039783Y007850D01*
X040083Y007850D01*
X040083Y008000D01*
X040233Y008150D01*
X040533Y008150D01*
X040533Y008450D01*
X040233Y008450D01*
X040083Y008600D01*
X040083Y008750D01*
X040083Y009050D01*
X039783Y009050D01*
X039783Y008750D01*
X039783Y008600D01*
X039633Y008450D01*
X039333Y008450D01*
X039333Y008150D01*
X039633Y008150D01*
X039783Y008000D01*
X039783Y007850D01*
X039783Y007550D02*
X040083Y007550D01*
X040083Y007850D01*
X040083Y008750D02*
X039783Y008750D01*
X041283Y007550D02*
X041283Y006900D01*
X041183Y006800D01*
X040933Y006800D01*
X040183Y006800D01*
X040333Y006950D02*
X040933Y006950D01*
X040933Y006800D01*
X045533Y008000D02*
X045783Y007750D01*
X046283Y007750D01*
X046533Y008000D01*
X046533Y009500D01*
X046283Y009750D01*
X045783Y009750D01*
X045533Y009500D01*
X031433Y016000D02*
X031433Y018300D01*
X027433Y018300D01*
X027433Y017550D01*
X027472Y017548D01*
X027511Y017542D01*
X027549Y017533D01*
X027586Y017520D01*
X027622Y017503D01*
X027655Y017483D01*
X027687Y017459D01*
X027716Y017433D01*
X027742Y017404D01*
X027766Y017372D01*
X027786Y017339D01*
X027803Y017303D01*
X027816Y017266D01*
X027825Y017228D01*
X027831Y017189D01*
X027833Y017150D01*
X027831Y017111D01*
X027825Y017072D01*
X027816Y017034D01*
X027803Y016997D01*
X027786Y016961D01*
X027766Y016928D01*
X027742Y016896D01*
X027716Y016867D01*
X027687Y016841D01*
X027655Y016817D01*
X027622Y016797D01*
X027586Y016780D01*
X027549Y016767D01*
X027511Y016758D01*
X027472Y016752D01*
X027433Y016750D01*
X027433Y016000D01*
X031433Y016000D01*
X031433Y020000D02*
X027433Y020000D01*
X027433Y020750D01*
X027472Y020752D01*
X027511Y020758D01*
X027549Y020767D01*
X027586Y020780D01*
X027622Y020797D01*
X027655Y020817D01*
X027687Y020841D01*
X027716Y020867D01*
X027742Y020896D01*
X027766Y020928D01*
X027786Y020961D01*
X027803Y020997D01*
X027816Y021034D01*
X027825Y021072D01*
X027831Y021111D01*
X027833Y021150D01*
X027831Y021189D01*
X027825Y021228D01*
X027816Y021266D01*
X027803Y021303D01*
X027786Y021339D01*
X027766Y021372D01*
X027742Y021404D01*
X027716Y021433D01*
X027687Y021459D01*
X027655Y021483D01*
X027622Y021503D01*
X027586Y021520D01*
X027549Y021533D01*
X027511Y021542D01*
X027472Y021548D01*
X027433Y021550D01*
X027433Y022300D01*
X031433Y022300D01*
X031433Y020000D01*
X025683Y019950D02*
X024533Y019900D01*
X024433Y019800D01*
X024433Y016100D01*
X024533Y016000D01*
X025683Y015950D01*
X023733Y015650D02*
X023733Y014650D01*
X022133Y014650D01*
X022133Y015650D01*
X023733Y015650D01*
X023333Y015400D02*
X022933Y015150D01*
X022933Y014900D01*
X022933Y015150D02*
X022933Y015400D01*
X022933Y015150D02*
X022683Y015150D01*
X022933Y015150D02*
X023533Y015150D01*
X023333Y014900D02*
X022933Y015150D01*
X023333Y015400D02*
X023333Y014900D01*
X020033Y015050D02*
X020083Y016200D01*
X020033Y015050D02*
X019933Y014950D01*
X016233Y014950D01*
X016133Y015050D01*
X016083Y016200D01*
X017283Y014150D02*
X017283Y013150D01*
X018883Y013150D01*
X018883Y014150D01*
X017283Y014150D01*
X018083Y013900D02*
X018083Y013650D01*
X018083Y013400D01*
X018083Y013650D02*
X018483Y013900D01*
X018483Y013400D01*
X018083Y013650D01*
X018683Y013650D01*
X018083Y013650D02*
X017833Y013650D01*
X015583Y012600D02*
X015333Y012000D01*
X014933Y012000D01*
X014683Y012600D01*
X014683Y018700D01*
X014933Y019300D01*
X015333Y019300D01*
X015583Y018700D01*
X015583Y012600D01*
X015183Y010450D02*
X016683Y010450D01*
X017183Y010450D02*
X018333Y010450D01*
X018333Y006900D01*
X018333Y005700D01*
X017283Y005700D01*
X016583Y005700D01*
X016733Y006200D01*
X017133Y006200D01*
X017283Y005700D01*
X016583Y005700D02*
X015283Y005700D01*
X014583Y005700D01*
X014733Y006200D01*
X015133Y006200D01*
X015283Y005700D01*
X014583Y005700D02*
X013533Y005700D01*
X013533Y006900D01*
X018333Y006900D01*
X019483Y006750D02*
X021933Y006750D01*
X021933Y006650D01*
X021433Y006650D01*
X021433Y006500D01*
X020433Y006500D01*
X020433Y006650D01*
X021433Y006650D01*
X021183Y006850D02*
X022283Y006850D01*
X022283Y007350D01*
X022383Y006750D02*
X021933Y006750D01*
X022383Y006750D02*
X022383Y008150D01*
X022283Y008150D02*
X022283Y007950D01*
X022283Y008150D02*
X021983Y008150D01*
X021983Y008250D01*
X021633Y008250D01*
X021633Y008150D01*
X021233Y008150D01*
X021233Y008050D01*
X020633Y008050D01*
X020633Y008150D01*
X020183Y008150D01*
X020183Y008250D01*
X019883Y008250D01*
X019883Y008150D01*
X019583Y008150D01*
X019583Y007950D01*
X019483Y008150D02*
X019483Y006750D01*
X019583Y006850D02*
X019583Y007350D01*
X019583Y006850D02*
X020683Y006850D01*
X021183Y006850D01*
X021183Y007250D01*
X020683Y007250D01*
X020683Y006850D01*
X020433Y006650D02*
X019933Y006650D01*
X019933Y006750D01*
X017390Y007787D02*
X017390Y008000D01*
X017177Y008000D01*
X017390Y007787D02*
X017284Y007680D01*
X017070Y007680D01*
X016963Y007787D01*
X016963Y008214D01*
X017070Y008321D01*
X017284Y008321D01*
X017390Y008214D01*
X014890Y008500D02*
X014463Y008500D01*
X014677Y008287D02*
X014677Y008714D01*
X014683Y010450D02*
X013533Y010450D01*
X013533Y006900D01*
X024083Y006900D02*
X024083Y007550D01*
X024083Y008050D02*
X024083Y009400D01*
X024183Y009500D01*
X026683Y009500D01*
X026783Y009400D01*
X026783Y008050D01*
X026783Y007550D02*
X026783Y006900D01*
X026683Y006800D01*
X026433Y006800D01*
X025683Y006800D01*
X025833Y006950D02*
X026433Y006950D01*
X026433Y006800D01*
X025583Y007550D02*
X025283Y007550D01*
X025283Y007850D01*
X025583Y007850D01*
X025583Y008000D01*
X025733Y008150D01*
X026033Y008150D01*
X026033Y008450D01*
X025733Y008450D01*
X025583Y008600D01*
X025583Y008750D01*
X025583Y009050D01*
X025283Y009050D01*
X025283Y008750D01*
X025283Y008600D01*
X025133Y008450D01*
X024833Y008450D01*
X024833Y008150D01*
X025133Y008150D01*
X025283Y008000D01*
X025283Y007850D01*
X025583Y007850D02*
X025583Y007550D01*
X025033Y006950D02*
X024433Y006950D01*
X024433Y006800D01*
X025183Y006800D01*
X024433Y006800D02*
X024183Y006800D01*
X024083Y006900D01*
X025283Y008750D02*
X025583Y008750D01*
X027583Y009400D02*
X027583Y008050D01*
X027583Y007550D02*
X027583Y006900D01*
X027683Y006800D01*
X027933Y006800D01*
X028683Y006800D01*
X028533Y006950D02*
X027933Y006950D01*
X027933Y006800D01*
X028783Y007550D02*
X028783Y007850D01*
X029083Y007850D01*
X029083Y008000D01*
X029233Y008150D01*
X029533Y008150D01*
X029533Y008450D01*
X029233Y008450D01*
X029083Y008600D01*
X029083Y008750D01*
X029083Y009050D01*
X028783Y009050D01*
X028783Y008750D01*
X028783Y008600D01*
X028633Y008450D01*
X028333Y008450D01*
X028333Y008150D01*
X028633Y008150D01*
X028783Y008000D01*
X028783Y007850D01*
X028783Y007550D02*
X029083Y007550D01*
X029083Y007850D01*
X029083Y008750D02*
X028783Y008750D01*
X027683Y009500D02*
X027583Y009400D01*
X027683Y009500D02*
X030183Y009500D01*
X030283Y009400D01*
X030283Y008050D01*
X030283Y007550D02*
X030283Y006900D01*
X030183Y006800D01*
X029933Y006800D01*
X029183Y006800D01*
X029333Y006950D02*
X029933Y006950D01*
X029933Y006800D01*
X021383Y019450D02*
X019683Y019450D01*
X019666Y019452D01*
X019649Y019456D01*
X019633Y019463D01*
X019619Y019473D01*
X019606Y019486D01*
X019596Y019500D01*
X019589Y019516D01*
X019585Y019533D01*
X019583Y019550D01*
X019583Y020350D01*
X019585Y020367D01*
X019589Y020384D01*
X019596Y020400D01*
X019606Y020414D01*
X019619Y020427D01*
X019633Y020437D01*
X019649Y020444D01*
X019666Y020448D01*
X019683Y020450D01*
X021383Y020450D01*
X021400Y020448D01*
X021417Y020444D01*
X021433Y020437D01*
X021447Y020427D01*
X021460Y020414D01*
X021470Y020400D01*
X021477Y020384D01*
X021481Y020367D01*
X021483Y020350D01*
X021483Y019550D01*
X021481Y019533D01*
X021477Y019516D01*
X021470Y019500D01*
X021460Y019486D01*
X021447Y019473D01*
X021433Y019463D01*
X021417Y019456D01*
X021400Y019452D01*
X021383Y019450D01*
X020683Y019950D02*
X020633Y019950D01*
X020433Y019950D02*
X020383Y019950D01*
X014733Y021200D02*
X014733Y022900D01*
X014731Y022917D01*
X014727Y022934D01*
X014720Y022950D01*
X014710Y022964D01*
X014697Y022977D01*
X014683Y022987D01*
X014667Y022994D01*
X014650Y022998D01*
X014633Y023000D01*
X013833Y023000D01*
X013816Y022998D01*
X013799Y022994D01*
X013783Y022987D01*
X013769Y022977D01*
X013756Y022964D01*
X013746Y022950D01*
X013739Y022934D01*
X013735Y022917D01*
X013733Y022900D01*
X013733Y021200D01*
X013735Y021183D01*
X013739Y021166D01*
X013746Y021150D01*
X013756Y021136D01*
X013769Y021123D01*
X013783Y021113D01*
X013799Y021106D01*
X013816Y021102D01*
X013833Y021100D01*
X014633Y021100D01*
X014650Y021102D01*
X014667Y021106D01*
X014683Y021113D01*
X014697Y021123D01*
X014710Y021136D01*
X014720Y021150D01*
X014727Y021166D01*
X014731Y021183D01*
X014733Y021200D01*
X014233Y021900D02*
X014233Y021950D01*
X014233Y022150D02*
X014233Y022200D01*
D12*
X009933Y012150D03*
X009933Y008150D03*
X017433Y009650D03*
D13*
X009683Y025300D03*
D14*
X008133Y020350D03*
X008133Y016650D03*
D15*
X008808Y016638D02*
X008808Y016488D01*
X008883Y016413D01*
X009183Y016413D01*
X009258Y016488D01*
X009258Y016638D01*
X009183Y016713D01*
X009033Y016713D01*
X009033Y016563D01*
X008883Y016713D02*
X008808Y016638D01*
X008958Y016873D02*
X008808Y017023D01*
X008958Y017173D01*
X009258Y017173D01*
X009258Y017333D02*
X009258Y017634D01*
X009108Y017794D02*
X009258Y017944D01*
X009108Y018094D01*
X008808Y018094D01*
X008883Y018254D02*
X008808Y018329D01*
X008808Y018479D01*
X008883Y018554D01*
X009183Y018554D01*
X009258Y018479D01*
X009258Y018329D01*
X009183Y018254D01*
X008883Y018254D01*
X008883Y018715D02*
X008808Y018715D01*
X008883Y018715D02*
X009033Y018865D01*
X009258Y018865D01*
X009033Y018865D02*
X008883Y019015D01*
X008808Y019015D01*
X008358Y019215D02*
X008358Y019515D01*
X008358Y019365D02*
X007908Y019365D01*
X008058Y019215D01*
X008883Y020113D02*
X008808Y020188D01*
X008808Y020338D01*
X008883Y020413D01*
X009033Y020413D02*
X009033Y020263D01*
X009033Y020413D02*
X009183Y020413D01*
X009258Y020338D01*
X009258Y020188D01*
X009183Y020113D01*
X008883Y020113D01*
X008958Y020573D02*
X008808Y020723D01*
X008958Y020873D01*
X009258Y020873D01*
X009258Y021033D02*
X009258Y021334D01*
X009108Y021494D02*
X009258Y021644D01*
X009108Y021794D01*
X008808Y021794D01*
X008883Y021954D02*
X008808Y022029D01*
X008808Y022179D01*
X008883Y022254D01*
X009183Y022254D01*
X009258Y022179D01*
X009258Y022029D01*
X009183Y021954D01*
X008883Y021954D01*
X008808Y022415D02*
X009258Y022715D01*
X009258Y022415D02*
X008808Y022715D01*
X008358Y022915D02*
X008358Y023215D01*
X008358Y023065D02*
X007908Y023065D01*
X008058Y022915D01*
X008808Y021494D02*
X009108Y021494D01*
X009258Y021033D02*
X008808Y021033D01*
X009033Y020873D02*
X009033Y020573D01*
X008958Y020573D02*
X009258Y020573D01*
X009108Y017794D02*
X008808Y017794D01*
X008808Y017333D02*
X009258Y017333D01*
X009033Y017173D02*
X009033Y016873D01*
X008958Y016873D02*
X009258Y016873D01*
X010158Y014815D02*
X010158Y014515D01*
X010158Y014665D02*
X009708Y014665D01*
X009858Y014515D01*
X009858Y012915D02*
X009783Y012915D01*
X009708Y012840D01*
X009708Y012690D01*
X009783Y012615D01*
X009858Y012915D02*
X010158Y012615D01*
X010158Y012915D01*
X010083Y010915D02*
X010158Y010840D01*
X010158Y010690D01*
X010083Y010615D01*
X009933Y010765D02*
X009933Y010840D01*
X010008Y010915D01*
X010083Y010915D01*
X009933Y010840D02*
X009858Y010915D01*
X009783Y010915D01*
X009708Y010840D01*
X009708Y010690D01*
X009783Y010615D01*
X009933Y008915D02*
X009933Y008615D01*
X009708Y008840D01*
X010158Y008840D01*
X011683Y010650D02*
X011685Y010704D01*
X011691Y010758D01*
X011701Y010811D01*
X011714Y010864D01*
X011731Y010915D01*
X011752Y010965D01*
X011777Y011013D01*
X011805Y011060D01*
X011836Y011104D01*
X011870Y011146D01*
X011907Y011185D01*
X011947Y011222D01*
X011990Y011255D01*
X012035Y011286D01*
X012082Y011313D01*
X012130Y011336D01*
X012181Y011356D01*
X012232Y011373D01*
X012285Y011385D01*
X012338Y011394D01*
X012392Y011399D01*
X012447Y011400D01*
X012501Y011397D01*
X012554Y011390D01*
X012607Y011379D01*
X012660Y011365D01*
X012711Y011347D01*
X012760Y011325D01*
X012808Y011300D01*
X012854Y011271D01*
X012898Y011239D01*
X012939Y011204D01*
X012977Y011166D01*
X013013Y011125D01*
X013046Y011082D01*
X013076Y011037D01*
X013102Y010989D01*
X013125Y010940D01*
X013144Y010889D01*
X013159Y010838D01*
X013171Y010785D01*
X013179Y010731D01*
X013183Y010677D01*
X013183Y010623D01*
X013179Y010569D01*
X013171Y010515D01*
X013159Y010462D01*
X013144Y010411D01*
X013125Y010360D01*
X013102Y010311D01*
X013076Y010263D01*
X013046Y010218D01*
X013013Y010175D01*
X012977Y010134D01*
X012939Y010096D01*
X012898Y010061D01*
X012854Y010029D01*
X012808Y010000D01*
X012760Y009975D01*
X012711Y009953D01*
X012660Y009935D01*
X012607Y009921D01*
X012554Y009910D01*
X012501Y009903D01*
X012447Y009900D01*
X012392Y009901D01*
X012338Y009906D01*
X012285Y009915D01*
X012232Y009927D01*
X012181Y009944D01*
X012130Y009964D01*
X012082Y009987D01*
X012035Y010014D01*
X011990Y010045D01*
X011947Y010078D01*
X011907Y010115D01*
X011870Y010154D01*
X011836Y010196D01*
X011805Y010240D01*
X011777Y010287D01*
X011752Y010335D01*
X011731Y010385D01*
X011714Y010436D01*
X011701Y010489D01*
X011691Y010542D01*
X011685Y010596D01*
X011683Y010650D01*
X014158Y009725D02*
X014308Y009875D01*
X014308Y009425D01*
X014158Y009425D02*
X014459Y009425D01*
X016058Y009425D02*
X016359Y009725D01*
X016359Y009800D01*
X016284Y009875D01*
X016133Y009875D01*
X016058Y009800D01*
X016058Y009425D02*
X016359Y009425D01*
X019433Y010150D02*
X025433Y010150D01*
X025433Y011150D01*
X019433Y011150D01*
X019433Y010150D01*
X019958Y009550D02*
X019958Y009475D01*
X020033Y009400D01*
X020184Y009400D01*
X020259Y009325D01*
X020259Y009250D01*
X020184Y009175D01*
X020033Y009175D01*
X019958Y009250D01*
X019958Y009550D02*
X020033Y009625D01*
X020184Y009625D01*
X020259Y009550D01*
X020419Y009475D02*
X020569Y009625D01*
X020569Y009175D01*
X020419Y009175D02*
X020719Y009175D01*
X024208Y009675D02*
X024208Y010125D01*
X024434Y010125D01*
X024509Y010050D01*
X024509Y009900D01*
X024434Y009825D01*
X024208Y009825D01*
X024358Y009825D02*
X024509Y009675D01*
X024669Y009900D02*
X024969Y009900D01*
X024894Y009675D02*
X024894Y010125D01*
X024669Y009900D01*
X026433Y010150D02*
X034433Y010150D01*
X034433Y011150D01*
X026433Y011150D01*
X026433Y010150D01*
X027708Y010125D02*
X027708Y009675D01*
X027708Y009825D02*
X027934Y009825D01*
X028009Y009900D01*
X028009Y010050D01*
X027934Y010125D01*
X027708Y010125D01*
X027858Y009825D02*
X028009Y009675D01*
X028169Y009750D02*
X028244Y009675D01*
X028394Y009675D01*
X028469Y009750D01*
X028469Y009825D01*
X028394Y009900D01*
X028319Y009900D01*
X028394Y009900D02*
X028469Y009975D01*
X028469Y010050D01*
X028394Y010125D01*
X028244Y010125D01*
X028169Y010050D01*
X030928Y009270D02*
X031003Y009345D01*
X031154Y009345D01*
X031229Y009270D01*
X031229Y009195D01*
X030928Y008895D01*
X031229Y008895D01*
X031389Y008895D02*
X031464Y008895D01*
X031464Y008970D01*
X031389Y008970D01*
X031389Y008895D01*
X031619Y008970D02*
X031694Y008895D01*
X031844Y008895D01*
X031919Y008970D01*
X031919Y009120D01*
X031844Y009195D01*
X031769Y009195D01*
X031619Y009120D01*
X031619Y009345D01*
X031919Y009345D01*
X032079Y009345D02*
X032079Y009045D01*
X032229Y008895D01*
X032380Y009045D01*
X032380Y009345D01*
X032540Y009345D02*
X032540Y009270D01*
X032690Y009120D01*
X032690Y008895D01*
X032690Y009120D02*
X032840Y009270D01*
X032840Y009345D01*
X033428Y009270D02*
X033503Y009345D01*
X033654Y009345D01*
X033729Y009270D01*
X033729Y009195D01*
X033428Y008895D01*
X033729Y008895D01*
X033889Y008895D02*
X033964Y008895D01*
X033964Y008970D01*
X033889Y008970D01*
X033889Y008895D01*
X034119Y008970D02*
X034194Y008895D01*
X034344Y008895D01*
X034419Y008970D01*
X034419Y009120D01*
X034344Y009195D01*
X034269Y009195D01*
X034119Y009120D01*
X034119Y009345D01*
X034419Y009345D01*
X034579Y009345D02*
X034579Y009045D01*
X034729Y008895D01*
X034880Y009045D01*
X034880Y009345D01*
X035433Y010150D02*
X043433Y010150D01*
X043433Y011150D01*
X035433Y011150D01*
X035433Y010150D01*
X036003Y009345D02*
X035928Y009270D01*
X036003Y009345D02*
X036154Y009345D01*
X036229Y009270D01*
X036229Y009195D01*
X035928Y008895D01*
X036229Y008895D01*
X036389Y008895D02*
X036389Y008970D01*
X036464Y008970D01*
X036464Y008895D01*
X036389Y008895D01*
X036619Y008970D02*
X036694Y008895D01*
X036844Y008895D01*
X036919Y008970D01*
X036919Y009270D01*
X036619Y008970D01*
X036619Y009270D01*
X036694Y009345D01*
X036844Y009345D01*
X036919Y009270D01*
X037079Y009120D02*
X037380Y009120D01*
X037540Y009045D02*
X037615Y009120D01*
X037765Y009120D01*
X037840Y009045D01*
X037840Y008970D01*
X037765Y008895D01*
X037615Y008895D01*
X037540Y008970D01*
X037540Y009045D01*
X037615Y009120D02*
X037540Y009195D01*
X037540Y009270D01*
X037615Y009345D01*
X037765Y009345D01*
X037840Y009270D01*
X037840Y009195D01*
X037765Y009120D01*
X038000Y009045D02*
X038150Y008895D01*
X038300Y009045D01*
X038300Y009345D01*
X038000Y009345D02*
X038000Y009045D01*
X037305Y008895D02*
X037305Y009345D01*
X037079Y009120D01*
X038708Y009675D02*
X038708Y010125D01*
X038934Y010125D01*
X039009Y010050D01*
X039009Y009900D01*
X038934Y009825D01*
X038708Y009825D01*
X038858Y009825D02*
X039009Y009675D01*
X039169Y009675D02*
X039469Y009975D01*
X039469Y010050D01*
X039394Y010125D01*
X039244Y010125D01*
X039169Y010050D01*
X039169Y009675D02*
X039469Y009675D01*
X039629Y009750D02*
X039704Y009675D01*
X039854Y009675D01*
X039929Y009750D01*
X039929Y010050D01*
X039854Y010125D01*
X039704Y010125D01*
X039629Y010050D01*
X039629Y009975D01*
X039704Y009900D01*
X039929Y009900D01*
X039828Y011455D02*
X039528Y011455D01*
X039678Y011455D02*
X039678Y011905D01*
X039528Y011755D01*
X039368Y011905D02*
X039068Y011905D01*
X039218Y011905D02*
X039218Y011455D01*
X038907Y011530D02*
X038907Y011830D01*
X038832Y011905D01*
X038682Y011905D01*
X038607Y011830D01*
X038607Y011530D01*
X038682Y011455D01*
X038832Y011455D01*
X038907Y011530D01*
X038447Y011455D02*
X038447Y011905D01*
X038297Y011755D01*
X038147Y011905D01*
X038147Y011455D01*
X037987Y011680D02*
X037686Y011680D01*
X037526Y011830D02*
X037226Y011530D01*
X037226Y011455D01*
X037526Y011455D01*
X037526Y011830D02*
X037526Y011905D01*
X037226Y011905D01*
X037652Y015425D02*
X037727Y015425D01*
X037802Y015500D01*
X037802Y015875D01*
X037727Y015875D02*
X037877Y015875D01*
X038038Y015875D02*
X038263Y015875D01*
X038338Y015800D01*
X038338Y015650D01*
X038263Y015575D01*
X038038Y015575D01*
X038038Y015425D02*
X038038Y015875D01*
X038498Y015650D02*
X038498Y015500D01*
X038573Y015425D01*
X038723Y015425D01*
X038798Y015500D01*
X038798Y015575D01*
X038723Y015650D01*
X038498Y015650D01*
X038648Y015800D01*
X038798Y015875D01*
X037652Y015425D02*
X037577Y015500D01*
X042633Y016404D02*
X043233Y016404D01*
X043158Y016329D02*
X043158Y016479D01*
X043083Y016554D01*
X043008Y016554D01*
X042933Y016479D01*
X042933Y016329D01*
X042858Y016254D01*
X042783Y016254D01*
X042708Y016329D01*
X042708Y016479D01*
X042783Y016554D01*
X042783Y016715D02*
X042708Y016790D01*
X042708Y016940D01*
X042783Y017015D01*
X042858Y017015D01*
X042933Y016940D01*
X043008Y017015D01*
X043083Y017015D01*
X043158Y016940D01*
X043158Y016790D01*
X043083Y016715D01*
X042933Y016865D02*
X042933Y016940D01*
X043158Y016329D02*
X043083Y016254D01*
X043083Y016094D02*
X042708Y016094D01*
X042708Y015794D02*
X043083Y015794D01*
X043158Y015869D01*
X043158Y016019D01*
X043083Y016094D01*
X045357Y016955D02*
X045357Y017405D01*
X045207Y017405D02*
X045507Y017405D01*
X045668Y017405D02*
X045968Y017405D01*
X045818Y017405D02*
X045818Y016955D01*
X046128Y016955D02*
X046428Y016955D01*
X046128Y016955D02*
X046128Y017405D01*
X045288Y019645D02*
X044838Y019645D01*
X045288Y019645D02*
X045288Y019945D01*
X045288Y020105D02*
X044838Y020105D01*
X044838Y020406D01*
X044838Y020566D02*
X044838Y020791D01*
X044913Y020866D01*
X045213Y020866D01*
X045288Y020791D01*
X045288Y020566D01*
X044838Y020566D01*
X045063Y020256D02*
X045063Y020105D01*
X045288Y020105D02*
X045288Y020406D01*
X045288Y021026D02*
X044838Y021026D01*
X044838Y021251D01*
X044913Y021326D01*
X044988Y021326D01*
X045063Y021251D01*
X045063Y021026D01*
X045288Y021026D02*
X045288Y021251D01*
X045213Y021326D01*
X045138Y021326D01*
X045063Y021251D01*
X038658Y021246D02*
X038208Y021246D01*
X038208Y021096D02*
X038208Y021396D01*
X038208Y021556D02*
X038208Y021856D01*
X038208Y021706D02*
X038658Y021706D01*
X038583Y022017D02*
X038283Y022017D01*
X038208Y022092D01*
X038208Y022242D01*
X038283Y022317D01*
X038583Y022317D01*
X038658Y022242D01*
X038658Y022092D01*
X038583Y022017D01*
X038658Y022477D02*
X038208Y022477D01*
X038658Y022777D01*
X038208Y022777D01*
X038148Y022875D02*
X038148Y022425D01*
X037998Y022425D02*
X038298Y022425D01*
X037998Y022725D02*
X038148Y022875D01*
X038283Y022937D02*
X038358Y022937D01*
X038433Y023012D01*
X038433Y023163D01*
X038508Y023238D01*
X038583Y023238D01*
X038658Y023163D01*
X038658Y023012D01*
X038583Y022937D01*
X038283Y022937D02*
X038208Y023012D01*
X038208Y023163D01*
X038283Y023238D01*
X037648Y021900D02*
X037648Y021600D01*
X037498Y021750D02*
X037798Y021750D01*
X037338Y021900D02*
X037038Y021600D01*
X037038Y021525D01*
X037338Y021525D01*
X037338Y021900D02*
X037338Y021975D01*
X037038Y021975D01*
X038148Y020875D02*
X038148Y020425D01*
X038208Y020400D02*
X038283Y020475D01*
X038358Y020475D01*
X038433Y020400D01*
X038433Y020175D01*
X038658Y020175D02*
X038208Y020175D01*
X038208Y020400D01*
X038298Y020425D02*
X037998Y020425D01*
X038208Y020635D02*
X038583Y020635D01*
X038658Y020710D01*
X038658Y020861D01*
X038583Y020936D01*
X038208Y020936D01*
X038148Y020875D02*
X037998Y020725D01*
X038433Y020400D02*
X038508Y020475D01*
X038583Y020475D01*
X038658Y020400D01*
X038658Y020175D01*
X037798Y019750D02*
X037498Y019750D01*
X037338Y019900D02*
X037038Y019600D01*
X037038Y019525D01*
X037338Y019525D01*
X037338Y019900D02*
X037338Y019975D01*
X037038Y019975D01*
X038415Y025366D02*
X038358Y025423D01*
X038358Y025536D01*
X038415Y025593D01*
X038471Y025593D01*
X038528Y025536D01*
X038585Y025593D01*
X038642Y025593D01*
X038698Y025536D01*
X038698Y025423D01*
X038642Y025366D01*
X038528Y025479D02*
X038528Y025536D01*
X040958Y027004D02*
X040958Y027229D01*
X041033Y027304D01*
X041183Y027304D01*
X041258Y027229D01*
X041258Y027004D01*
X041408Y027004D02*
X040958Y027004D01*
X041258Y027154D02*
X041408Y027304D01*
X041408Y027465D02*
X041408Y027765D01*
X041408Y027615D02*
X040958Y027615D01*
X041108Y027465D01*
X041433Y029150D02*
X041433Y030150D01*
X033433Y030150D01*
X033433Y029150D01*
X041433Y029150D01*
X043433Y030150D02*
X043433Y012150D01*
X045433Y012150D01*
X045433Y030150D01*
X043433Y030150D01*
X045878Y030195D02*
X046028Y030345D01*
X046328Y030345D01*
X046103Y030345D02*
X046103Y030045D01*
X046028Y030045D02*
X045878Y030195D01*
X046028Y030045D02*
X046328Y030045D01*
X046253Y029884D02*
X045953Y029884D01*
X045878Y029809D01*
X045878Y029584D01*
X046328Y029584D01*
X046328Y029809D01*
X046253Y029884D01*
X046328Y029424D02*
X046328Y029124D01*
X045878Y029124D01*
X045878Y029424D01*
X046103Y029274D02*
X046103Y029124D01*
X046328Y028964D02*
X046328Y028663D01*
X045878Y028663D01*
X038698Y027693D02*
X038698Y027466D01*
X038698Y027579D02*
X038358Y027579D01*
X038471Y027466D01*
X034976Y028050D02*
X034676Y028050D01*
X034901Y028275D01*
X034901Y027825D01*
X034516Y027900D02*
X034440Y027825D01*
X034290Y027825D01*
X034215Y027900D01*
X034215Y028200D01*
X034290Y028275D01*
X034440Y028275D01*
X034516Y028200D01*
X034058Y028275D02*
X033908Y028275D01*
X033983Y028275D02*
X033983Y027825D01*
X033908Y027825D02*
X034058Y027825D01*
X032433Y029150D02*
X024433Y029150D01*
X024433Y030150D01*
X032433Y030150D01*
X032433Y029150D01*
X030570Y028845D02*
X030270Y028845D01*
X030420Y028845D02*
X030420Y028395D01*
X030110Y028470D02*
X030110Y028845D01*
X029810Y028845D02*
X029810Y028470D01*
X029885Y028395D01*
X030035Y028395D01*
X030110Y028470D01*
X029649Y028470D02*
X029649Y028770D01*
X029574Y028845D01*
X029424Y028845D01*
X029349Y028770D01*
X029349Y028470D01*
X029424Y028395D01*
X029574Y028395D01*
X029649Y028470D01*
X029189Y028620D02*
X028889Y028620D01*
X028729Y028620D02*
X028428Y028620D01*
X028428Y028695D02*
X028578Y028845D01*
X028729Y028695D01*
X028729Y028395D01*
X028428Y028395D02*
X028428Y028695D01*
X028453Y027845D02*
X028453Y027395D01*
X028378Y027395D02*
X028528Y027395D01*
X028685Y027395D02*
X028986Y027695D01*
X028986Y027770D01*
X028910Y027845D01*
X028760Y027845D01*
X028685Y027770D01*
X028528Y027845D02*
X028378Y027845D01*
X028685Y027395D02*
X028986Y027395D01*
X029146Y027470D02*
X029221Y027395D01*
X029371Y027395D01*
X029446Y027470D01*
X029446Y027770D02*
X029371Y027845D01*
X029221Y027845D01*
X029146Y027770D01*
X029146Y027470D01*
X029089Y026895D02*
X028789Y026895D01*
X028789Y026445D01*
X029089Y026445D01*
X029249Y026445D02*
X029249Y026895D01*
X029474Y026895D01*
X029549Y026820D01*
X029549Y026670D01*
X029474Y026595D01*
X029249Y026595D01*
X029399Y026595D02*
X029549Y026445D01*
X029710Y026445D02*
X029860Y026445D01*
X029785Y026445D02*
X029785Y026895D01*
X029710Y026895D02*
X029860Y026895D01*
X030016Y026745D02*
X030167Y026895D01*
X030317Y026745D01*
X030317Y026445D01*
X030477Y026445D02*
X030777Y026445D01*
X030477Y026445D02*
X030477Y026895D01*
X030317Y026670D02*
X030016Y026670D01*
X030016Y026745D02*
X030016Y026445D01*
X028939Y026670D02*
X028789Y026670D01*
X028629Y026595D02*
X028629Y026520D01*
X028554Y026445D01*
X028403Y026445D01*
X028328Y026520D01*
X028353Y026534D02*
X028428Y026609D01*
X028428Y026759D01*
X028353Y026834D01*
X028328Y026820D02*
X028328Y026745D01*
X028403Y026670D01*
X028554Y026670D01*
X028629Y026595D01*
X028629Y026820D02*
X028554Y026895D01*
X028403Y026895D01*
X028328Y026820D01*
X028353Y026995D02*
X028428Y027070D01*
X028428Y027220D01*
X028353Y027295D01*
X028053Y027295D02*
X027978Y027220D01*
X027978Y027070D01*
X028053Y026995D01*
X028353Y026995D01*
X028053Y026834D02*
X027978Y026759D01*
X027978Y026609D01*
X028053Y026534D01*
X028353Y026534D01*
X028278Y026374D02*
X027978Y026374D01*
X027978Y026074D02*
X028278Y026074D01*
X028428Y026224D01*
X028278Y026374D01*
X026633Y027150D02*
X026533Y027050D01*
X022833Y027050D01*
X022733Y027150D01*
X022683Y028300D01*
X022178Y027555D02*
X022178Y027255D01*
X022028Y027105D01*
X021878Y027255D01*
X021878Y027555D01*
X021718Y027555D02*
X021418Y027555D01*
X021418Y027330D01*
X021568Y027405D01*
X021643Y027405D01*
X021718Y027330D01*
X021718Y027180D01*
X021643Y027105D01*
X021493Y027105D01*
X021418Y027180D01*
X022708Y026845D02*
X022858Y026845D01*
X022783Y026845D02*
X022783Y026395D01*
X022708Y026395D02*
X022858Y026395D01*
X023015Y026470D02*
X023090Y026395D01*
X023240Y026395D01*
X023316Y026470D01*
X023248Y026575D02*
X023248Y026125D01*
X023098Y026125D02*
X023398Y026125D01*
X023476Y026395D02*
X023476Y026470D01*
X023776Y026770D01*
X023776Y026845D01*
X023476Y026845D01*
X023316Y026770D02*
X023240Y026845D01*
X023090Y026845D01*
X023015Y026770D01*
X023015Y026470D01*
X023098Y026425D02*
X023248Y026575D01*
X022813Y027290D02*
X022815Y027310D01*
X022821Y027328D01*
X022830Y027346D01*
X022842Y027361D01*
X022857Y027373D01*
X022875Y027382D01*
X022893Y027388D01*
X022913Y027390D01*
X022933Y027388D01*
X022951Y027382D01*
X022969Y027373D01*
X022984Y027361D01*
X022996Y027346D01*
X023005Y027328D01*
X023011Y027310D01*
X023013Y027290D01*
X023011Y027270D01*
X023005Y027252D01*
X022996Y027234D01*
X022984Y027219D01*
X022969Y027207D01*
X022951Y027198D01*
X022933Y027192D01*
X022913Y027190D01*
X022893Y027192D01*
X022875Y027198D01*
X022857Y027207D01*
X022842Y027219D01*
X022830Y027234D01*
X022821Y027252D01*
X022815Y027270D01*
X022813Y027290D01*
X022748Y025675D02*
X022748Y025225D01*
X022598Y025225D02*
X022898Y025225D01*
X022598Y025525D02*
X022748Y025675D01*
X022438Y025600D02*
X022438Y025450D01*
X022363Y025375D01*
X022138Y025375D01*
X022288Y025375D02*
X022438Y025225D01*
X022138Y025225D02*
X022138Y025675D01*
X022363Y025675D01*
X022438Y025600D01*
X021977Y025675D02*
X021677Y025675D01*
X021677Y025225D01*
X021977Y025225D01*
X021827Y025450D02*
X021677Y025450D01*
X021517Y025375D02*
X021517Y025300D01*
X021442Y025225D01*
X021292Y025225D01*
X021217Y025300D01*
X021292Y025450D02*
X021217Y025525D01*
X021217Y025600D01*
X021292Y025675D01*
X021442Y025675D01*
X021517Y025600D01*
X021442Y025450D02*
X021517Y025375D01*
X021442Y025450D02*
X021292Y025450D01*
X020169Y024850D02*
X020169Y024775D01*
X020094Y024700D01*
X020169Y024625D01*
X020169Y024550D01*
X020094Y024475D01*
X019944Y024475D01*
X019869Y024550D01*
X019709Y024550D02*
X019634Y024475D01*
X019483Y024475D01*
X019408Y024550D01*
X019408Y024850D01*
X019483Y024925D01*
X019634Y024925D01*
X019709Y024850D01*
X019869Y024850D02*
X019944Y024925D01*
X020094Y024925D01*
X020169Y024850D01*
X020094Y024700D02*
X020019Y024700D01*
X017933Y024250D02*
X016783Y024200D01*
X016683Y024100D01*
X016683Y020400D01*
X016783Y020300D01*
X017933Y020250D01*
X020288Y019250D02*
X020288Y018950D01*
X020363Y018875D01*
X020513Y018875D01*
X020588Y018950D01*
X020748Y018875D02*
X021048Y018875D01*
X020898Y018875D02*
X020898Y019325D01*
X020748Y019175D01*
X020588Y019250D02*
X020513Y019325D01*
X020363Y019325D01*
X020288Y019250D01*
X021578Y017995D02*
X022028Y017695D01*
X021953Y017534D02*
X021578Y017534D01*
X021578Y017695D02*
X022028Y017995D01*
X021953Y017534D02*
X022028Y017459D01*
X022028Y017309D01*
X021953Y017234D01*
X021578Y017234D01*
X021728Y017074D02*
X022028Y017074D01*
X021803Y017074D02*
X021803Y016774D01*
X021728Y016774D02*
X022028Y016774D01*
X021803Y016614D02*
X021803Y016313D01*
X021878Y016153D02*
X021578Y016153D01*
X021578Y015853D02*
X021878Y015853D01*
X022028Y016003D01*
X021878Y016153D01*
X022158Y016275D02*
X022384Y016275D01*
X022459Y016200D01*
X022459Y015900D01*
X022384Y015825D01*
X022158Y015825D01*
X022158Y016275D01*
X022619Y016200D02*
X022694Y016275D01*
X022844Y016275D01*
X022919Y016200D01*
X022919Y016125D01*
X022619Y015825D01*
X022919Y015825D01*
X022028Y015693D02*
X022028Y015393D01*
X021728Y015693D01*
X021653Y015693D01*
X021578Y015618D01*
X021578Y015468D01*
X021653Y015393D01*
X021578Y015082D02*
X022028Y015082D01*
X022028Y014932D02*
X022028Y015233D01*
X021728Y014932D02*
X021578Y015082D01*
X021728Y016774D02*
X021578Y016924D01*
X021728Y017074D01*
X023778Y019129D02*
X023778Y019279D01*
X023853Y019354D01*
X024153Y019354D01*
X024228Y019279D01*
X024228Y019129D01*
X024153Y019054D01*
X023853Y019054D01*
X023778Y019129D01*
X024078Y019204D02*
X024228Y019354D01*
X024228Y019515D02*
X024228Y019815D01*
X024228Y019665D02*
X023778Y019665D01*
X023928Y019515D01*
X026858Y020025D02*
X026858Y020175D01*
X026858Y020100D02*
X027308Y020100D01*
X027308Y020025D02*
X027308Y020175D01*
X027233Y020332D02*
X027308Y020407D01*
X027308Y020557D01*
X027233Y020632D01*
X027233Y020792D02*
X027308Y020867D01*
X027308Y021018D01*
X027233Y021093D01*
X027083Y021093D01*
X027008Y021018D01*
X027008Y020942D01*
X027083Y020792D01*
X026858Y020792D01*
X026858Y021093D01*
X026933Y020632D02*
X026858Y020557D01*
X026858Y020407D01*
X026933Y020332D01*
X027233Y020332D01*
X027233Y017093D02*
X027158Y017093D01*
X027083Y017018D01*
X027083Y016792D01*
X027233Y016792D01*
X027308Y016867D01*
X027308Y017018D01*
X027233Y017093D01*
X026933Y016942D02*
X027083Y016792D01*
X026933Y016942D02*
X026858Y017093D01*
X026933Y016632D02*
X026858Y016557D01*
X026858Y016407D01*
X026933Y016332D01*
X027233Y016332D01*
X027308Y016407D01*
X027308Y016557D01*
X027233Y016632D01*
X027308Y016175D02*
X027308Y016025D01*
X027308Y016100D02*
X026858Y016100D01*
X026858Y016025D02*
X026858Y016175D01*
X018069Y014325D02*
X017769Y014325D01*
X017919Y014325D02*
X017919Y014775D01*
X017769Y014625D01*
X017609Y014700D02*
X017609Y014400D01*
X017534Y014325D01*
X017308Y014325D01*
X017308Y014775D01*
X017534Y014775D01*
X017609Y014700D01*
X016869Y014670D02*
X016794Y014745D01*
X016644Y014745D01*
X016569Y014670D01*
X016409Y014670D02*
X016409Y014370D01*
X016334Y014295D01*
X016183Y014295D01*
X016108Y014370D01*
X016108Y014670D01*
X016183Y014745D01*
X016334Y014745D01*
X016409Y014670D01*
X016258Y014445D02*
X016409Y014295D01*
X016569Y014295D02*
X016869Y014595D01*
X016869Y014670D01*
X016869Y014295D02*
X016569Y014295D01*
X014458Y015254D02*
X014008Y015254D01*
X014008Y015554D01*
X014158Y015715D02*
X014008Y015865D01*
X014458Y015865D01*
X014458Y015715D02*
X014458Y016015D01*
X014233Y015404D02*
X014233Y015254D01*
X014933Y021804D02*
X015233Y021804D01*
X015308Y021879D01*
X015308Y022029D01*
X015233Y022104D01*
X015233Y022265D02*
X014933Y022565D01*
X014858Y022565D01*
X014858Y022265D01*
X014933Y022104D02*
X014858Y022029D01*
X014858Y021879D01*
X014933Y021804D01*
X015233Y022265D02*
X015308Y022265D01*
X016028Y023047D02*
X016028Y023197D01*
X016028Y023122D02*
X016478Y023122D01*
X016478Y023047D02*
X016478Y023197D01*
X016403Y023354D02*
X016478Y023429D01*
X016478Y023579D01*
X016403Y023654D01*
X016478Y023815D02*
X016178Y024115D01*
X016103Y024115D01*
X016028Y024040D01*
X016028Y023890D01*
X016103Y023815D01*
X016103Y023654D02*
X016028Y023579D01*
X016028Y023429D01*
X016103Y023354D01*
X016403Y023354D01*
X016478Y023815D02*
X016478Y024115D01*
X016823Y024020D02*
X016825Y024040D01*
X016831Y024058D01*
X016840Y024076D01*
X016852Y024091D01*
X016867Y024103D01*
X016885Y024112D01*
X016903Y024118D01*
X016923Y024120D01*
X016943Y024118D01*
X016961Y024112D01*
X016979Y024103D01*
X016994Y024091D01*
X017006Y024076D01*
X017015Y024058D01*
X017021Y024040D01*
X017023Y024020D01*
X017021Y024000D01*
X017015Y023982D01*
X017006Y023964D01*
X016994Y023949D01*
X016979Y023937D01*
X016961Y023928D01*
X016943Y023922D01*
X016923Y023920D01*
X016903Y023922D01*
X016885Y023928D01*
X016867Y023937D01*
X016852Y023949D01*
X016840Y023964D01*
X016831Y023982D01*
X016825Y024000D01*
X016823Y024020D01*
X017433Y025554D02*
X017733Y025554D01*
X017808Y025629D01*
X017808Y025779D01*
X017733Y025854D01*
X017733Y026015D02*
X017808Y026090D01*
X017808Y026240D01*
X017733Y026315D01*
X017583Y026315D01*
X017508Y026240D01*
X017508Y026165D01*
X017583Y026015D01*
X017358Y026015D01*
X017358Y026315D01*
X017686Y026455D02*
X017686Y026905D01*
X017912Y026905D01*
X017987Y026830D01*
X017987Y026680D01*
X017912Y026605D01*
X017686Y026605D01*
X018147Y026530D02*
X018222Y026455D01*
X018372Y026455D01*
X018447Y026530D01*
X018447Y026605D01*
X018372Y026680D01*
X018222Y026680D01*
X018147Y026755D01*
X018147Y026830D01*
X018222Y026905D01*
X018372Y026905D01*
X018447Y026830D01*
X018607Y026680D02*
X018907Y026680D01*
X019068Y026530D02*
X019143Y026455D01*
X019293Y026455D01*
X019368Y026530D01*
X019368Y026830D01*
X019293Y026905D01*
X019143Y026905D01*
X019068Y026830D01*
X019068Y026530D01*
X019528Y026455D02*
X019528Y026905D01*
X019828Y026455D01*
X019828Y026905D01*
X017433Y025854D02*
X017358Y025779D01*
X017358Y025629D01*
X017433Y025554D01*
X015383Y027050D02*
X015283Y026950D01*
X011583Y026950D01*
X011483Y027050D01*
X011433Y028200D01*
X011563Y027190D02*
X011565Y027210D01*
X011571Y027228D01*
X011580Y027246D01*
X011592Y027261D01*
X011607Y027273D01*
X011625Y027282D01*
X011643Y027288D01*
X011663Y027290D01*
X011683Y027288D01*
X011701Y027282D01*
X011719Y027273D01*
X011734Y027261D01*
X011746Y027246D01*
X011755Y027228D01*
X011761Y027210D01*
X011763Y027190D01*
X011761Y027170D01*
X011755Y027152D01*
X011746Y027134D01*
X011734Y027119D01*
X011719Y027107D01*
X011701Y027098D01*
X011683Y027092D01*
X011663Y027090D01*
X011643Y027092D01*
X011625Y027098D01*
X011607Y027107D01*
X011592Y027119D01*
X011580Y027134D01*
X011571Y027152D01*
X011565Y027170D01*
X011563Y027190D01*
X010158Y027715D02*
X009858Y028015D01*
X009783Y028015D01*
X009708Y027940D01*
X009708Y027790D01*
X009783Y027715D01*
X010158Y027715D02*
X010158Y028015D01*
X010158Y029615D02*
X010158Y029915D01*
X010158Y029765D02*
X009708Y029765D01*
X009858Y029615D01*
X012183Y029650D02*
X012185Y029704D01*
X012191Y029758D01*
X012201Y029811D01*
X012214Y029864D01*
X012231Y029915D01*
X012252Y029965D01*
X012277Y030013D01*
X012305Y030060D01*
X012336Y030104D01*
X012370Y030146D01*
X012407Y030185D01*
X012447Y030222D01*
X012490Y030255D01*
X012535Y030286D01*
X012582Y030313D01*
X012630Y030336D01*
X012681Y030356D01*
X012732Y030373D01*
X012785Y030385D01*
X012838Y030394D01*
X012892Y030399D01*
X012947Y030400D01*
X013001Y030397D01*
X013054Y030390D01*
X013107Y030379D01*
X013160Y030365D01*
X013211Y030347D01*
X013260Y030325D01*
X013308Y030300D01*
X013354Y030271D01*
X013398Y030239D01*
X013439Y030204D01*
X013477Y030166D01*
X013513Y030125D01*
X013546Y030082D01*
X013576Y030037D01*
X013602Y029989D01*
X013625Y029940D01*
X013644Y029889D01*
X013659Y029838D01*
X013671Y029785D01*
X013679Y029731D01*
X013683Y029677D01*
X013683Y029623D01*
X013679Y029569D01*
X013671Y029515D01*
X013659Y029462D01*
X013644Y029411D01*
X013625Y029360D01*
X013602Y029311D01*
X013576Y029263D01*
X013546Y029218D01*
X013513Y029175D01*
X013477Y029134D01*
X013439Y029096D01*
X013398Y029061D01*
X013354Y029029D01*
X013308Y029000D01*
X013260Y028975D01*
X013211Y028953D01*
X013160Y028935D01*
X013107Y028921D01*
X013054Y028910D01*
X013001Y028903D01*
X012947Y028900D01*
X012892Y028901D01*
X012838Y028906D01*
X012785Y028915D01*
X012732Y028927D01*
X012681Y028944D01*
X012630Y028964D01*
X012582Y028987D01*
X012535Y029014D01*
X012490Y029045D01*
X012447Y029078D01*
X012407Y029115D01*
X012370Y029154D01*
X012336Y029196D01*
X012305Y029240D01*
X012277Y029287D01*
X012252Y029335D01*
X012231Y029385D01*
X012214Y029436D01*
X012201Y029489D01*
X012191Y029542D01*
X012185Y029596D01*
X012183Y029650D01*
X013633Y027225D02*
X013558Y027150D01*
X013558Y026850D01*
X013633Y026775D01*
X013784Y026775D01*
X013859Y026850D01*
X014019Y027000D02*
X014244Y027225D01*
X014244Y026775D01*
X014319Y027000D02*
X014019Y027000D01*
X013859Y027150D02*
X013784Y027225D01*
X013633Y027225D01*
X015383Y027050D02*
X015433Y028200D01*
X015683Y029150D02*
X015683Y030150D01*
X023933Y030150D01*
X023933Y029150D01*
X015683Y029150D01*
X010158Y025940D02*
X010158Y025790D01*
X010083Y025715D01*
X009933Y025865D02*
X009933Y025940D01*
X010008Y026015D01*
X010083Y026015D01*
X010158Y025940D01*
X009933Y025940D02*
X009858Y026015D01*
X009783Y026015D01*
X009708Y025940D01*
X009708Y025790D01*
X009783Y025715D01*
X026633Y027150D02*
X026683Y028300D01*
X044183Y010650D02*
X044185Y010704D01*
X044191Y010758D01*
X044201Y010811D01*
X044214Y010864D01*
X044231Y010915D01*
X044252Y010965D01*
X044277Y011013D01*
X044305Y011060D01*
X044336Y011104D01*
X044370Y011146D01*
X044407Y011185D01*
X044447Y011222D01*
X044490Y011255D01*
X044535Y011286D01*
X044582Y011313D01*
X044630Y011336D01*
X044681Y011356D01*
X044732Y011373D01*
X044785Y011385D01*
X044838Y011394D01*
X044892Y011399D01*
X044947Y011400D01*
X045001Y011397D01*
X045054Y011390D01*
X045107Y011379D01*
X045160Y011365D01*
X045211Y011347D01*
X045260Y011325D01*
X045308Y011300D01*
X045354Y011271D01*
X045398Y011239D01*
X045439Y011204D01*
X045477Y011166D01*
X045513Y011125D01*
X045546Y011082D01*
X045576Y011037D01*
X045602Y010989D01*
X045625Y010940D01*
X045644Y010889D01*
X045659Y010838D01*
X045671Y010785D01*
X045679Y010731D01*
X045683Y010677D01*
X045683Y010623D01*
X045679Y010569D01*
X045671Y010515D01*
X045659Y010462D01*
X045644Y010411D01*
X045625Y010360D01*
X045602Y010311D01*
X045576Y010263D01*
X045546Y010218D01*
X045513Y010175D01*
X045477Y010134D01*
X045439Y010096D01*
X045398Y010061D01*
X045354Y010029D01*
X045308Y010000D01*
X045260Y009975D01*
X045211Y009953D01*
X045160Y009935D01*
X045107Y009921D01*
X045054Y009910D01*
X045001Y009903D01*
X044947Y009900D01*
X044892Y009901D01*
X044838Y009906D01*
X044785Y009915D01*
X044732Y009927D01*
X044681Y009944D01*
X044630Y009964D01*
X044582Y009987D01*
X044535Y010014D01*
X044490Y010045D01*
X044447Y010078D01*
X044407Y010115D01*
X044370Y010154D01*
X044336Y010196D01*
X044305Y010240D01*
X044277Y010287D01*
X044252Y010335D01*
X044231Y010385D01*
X044214Y010436D01*
X044201Y010489D01*
X044191Y010542D01*
X044185Y010596D01*
X044183Y010650D01*
X045177Y007475D02*
X045177Y007025D01*
X045477Y007025D01*
X045638Y007100D02*
X045713Y007025D01*
X045863Y007025D01*
X045938Y007100D01*
X046098Y007025D02*
X046323Y007025D01*
X046398Y007100D01*
X046398Y007400D01*
X046323Y007475D01*
X046098Y007475D01*
X046098Y007025D01*
X045938Y007400D02*
X045863Y007475D01*
X045713Y007475D01*
X045638Y007400D01*
X045638Y007100D01*
X041135Y007132D02*
X041078Y007075D01*
X040965Y007075D01*
X040908Y007132D01*
X041022Y007245D02*
X041078Y007245D01*
X041135Y007188D01*
X041135Y007132D01*
X041078Y007245D02*
X041135Y007302D01*
X041135Y007359D01*
X041078Y007415D01*
X040965Y007415D01*
X040908Y007359D01*
X039035Y007075D02*
X038808Y007075D01*
X038922Y007075D02*
X038922Y007415D01*
X038808Y007302D01*
X030135Y007302D02*
X030078Y007245D01*
X030135Y007188D01*
X030135Y007132D01*
X030078Y007075D01*
X029965Y007075D01*
X029908Y007132D01*
X030022Y007245D02*
X030078Y007245D01*
X030135Y007302D02*
X030135Y007359D01*
X030078Y007415D01*
X029965Y007415D01*
X029908Y007359D01*
X028035Y007075D02*
X027808Y007075D01*
X027922Y007075D02*
X027922Y007415D01*
X027808Y007302D01*
X026635Y007302D02*
X026578Y007245D01*
X026635Y007188D01*
X026635Y007132D01*
X026578Y007075D01*
X026465Y007075D01*
X026408Y007132D01*
X026522Y007245D02*
X026578Y007245D01*
X026635Y007302D02*
X026635Y007359D01*
X026578Y007415D01*
X026465Y007415D01*
X026408Y007359D01*
X024535Y007075D02*
X024308Y007075D01*
X024422Y007075D02*
X024422Y007415D01*
X024308Y007302D01*
D16*
X016313Y015190D03*
X024673Y019720D03*
D17*
X025983Y017950D03*
X018233Y022250D03*
D18*
X017983Y023975D03*
X017983Y020525D03*
X025733Y019675D03*
X025733Y016225D03*
D19*
X025733Y017450D03*
X025733Y018450D03*
X017983Y021750D03*
X017983Y022750D03*
D20*
X013433Y028500D03*
X024683Y028600D03*
X018083Y016500D03*
D21*
X016358Y016250D03*
X019808Y016250D03*
X022958Y028350D03*
X026408Y028350D03*
X015158Y028250D03*
X011708Y028250D03*
D22*
X012933Y028250D03*
X013933Y028250D03*
X024183Y028350D03*
X025183Y028350D03*
X018583Y016250D03*
X017583Y016250D03*
D23*
X017604Y017670D02*
X017681Y017747D01*
X017681Y018054D01*
X017604Y018130D01*
X017451Y018130D01*
X017374Y018054D01*
X017374Y017977D01*
X017451Y017900D01*
X017681Y017900D01*
X017604Y017670D02*
X017451Y017670D01*
X017374Y017747D01*
X017221Y017670D02*
X016914Y017670D01*
X017067Y017670D02*
X017067Y018130D01*
X016914Y017977D01*
X016760Y018054D02*
X016760Y017900D01*
X016684Y017823D01*
X016453Y017823D01*
X016453Y017670D02*
X016453Y018130D01*
X016684Y018130D01*
X016760Y018054D01*
X016607Y017823D02*
X016760Y017670D01*
X017453Y019270D02*
X017453Y019730D01*
X017684Y019730D01*
X017760Y019654D01*
X017760Y019500D01*
X017684Y019423D01*
X017453Y019423D01*
X017607Y019423D02*
X017760Y019270D01*
X017914Y019347D02*
X017990Y019270D01*
X018144Y019270D01*
X018221Y019347D01*
X018221Y019423D01*
X018144Y019500D01*
X017914Y019500D01*
X017914Y019347D01*
X017914Y019500D02*
X018067Y019654D01*
X018221Y019730D01*
X016481Y020547D02*
X016404Y020470D01*
X016251Y020470D01*
X016174Y020547D01*
X016174Y020623D01*
X016251Y020700D01*
X016404Y020700D01*
X016481Y020623D01*
X016481Y020547D01*
X016404Y020700D02*
X016481Y020777D01*
X016481Y020854D01*
X016404Y020930D01*
X016251Y020930D01*
X016174Y020854D01*
X016174Y020777D01*
X016251Y020700D01*
X016021Y020470D02*
X015714Y020470D01*
X015867Y020470D02*
X015867Y020930D01*
X015714Y020777D01*
X015560Y020854D02*
X015560Y020700D01*
X015484Y020623D01*
X015253Y020623D01*
X015253Y020470D02*
X015253Y020930D01*
X015484Y020930D01*
X015560Y020854D01*
X015407Y020623D02*
X015560Y020470D01*
X019353Y022820D02*
X019353Y023280D01*
X019353Y022820D02*
X019660Y022820D01*
X019814Y022820D02*
X019814Y023280D01*
X020121Y023280D01*
X020274Y023280D02*
X020274Y022820D01*
X020504Y022820D01*
X020581Y022897D01*
X020581Y023204D01*
X020504Y023280D01*
X020274Y023280D01*
X019967Y023050D02*
X019814Y023050D01*
X019814Y022820D02*
X020121Y022820D01*
X020735Y022820D02*
X021041Y022820D01*
X020888Y022820D02*
X020888Y023280D01*
X020735Y023127D01*
X021383Y024470D02*
X021383Y024930D01*
X021613Y024930D01*
X021689Y024854D01*
X021689Y024700D01*
X021613Y024623D01*
X021383Y024623D01*
X021536Y024623D02*
X021689Y024470D01*
X021843Y024547D02*
X021920Y024470D01*
X022073Y024470D01*
X022150Y024547D01*
X022150Y024854D01*
X022073Y024930D01*
X021920Y024930D01*
X021843Y024854D01*
X021843Y024777D01*
X021920Y024700D01*
X022150Y024700D01*
X023653Y025070D02*
X023653Y025530D01*
X023884Y025530D01*
X023960Y025454D01*
X023960Y025300D01*
X023884Y025223D01*
X023653Y025223D01*
X023807Y025223D02*
X023960Y025070D01*
X024114Y025070D02*
X024421Y025377D01*
X024421Y025454D01*
X024344Y025530D01*
X024190Y025530D01*
X024114Y025454D01*
X024114Y025070D02*
X024421Y025070D01*
X024574Y025147D02*
X024651Y025070D01*
X024804Y025070D01*
X024881Y025147D01*
X024881Y025223D01*
X024804Y025300D01*
X024728Y025300D01*
X024804Y025300D02*
X024881Y025377D01*
X024881Y025454D01*
X024804Y025530D01*
X024651Y025530D01*
X024574Y025454D01*
X025853Y024480D02*
X026084Y024480D01*
X026160Y024404D01*
X026160Y024250D01*
X026084Y024173D01*
X025853Y024173D01*
X025853Y024020D02*
X025853Y024480D01*
X026007Y024173D02*
X026160Y024020D01*
X026314Y024020D02*
X026621Y024020D01*
X026774Y024020D02*
X027081Y024020D01*
X026928Y024020D02*
X026928Y024480D01*
X026774Y024327D01*
X026467Y024480D02*
X026467Y024020D01*
X026314Y024327D02*
X026467Y024480D01*
X028053Y024670D02*
X028053Y025130D01*
X028284Y025130D01*
X028360Y025054D01*
X028360Y024900D01*
X028284Y024823D01*
X028053Y024823D01*
X028207Y024823D02*
X028360Y024670D01*
X028514Y024670D02*
X028821Y024670D01*
X028667Y024670D02*
X028667Y025130D01*
X028514Y024977D01*
X028974Y025054D02*
X029051Y025130D01*
X029204Y025130D01*
X029281Y025054D01*
X028974Y024747D01*
X029051Y024670D01*
X029204Y024670D01*
X029281Y024747D01*
X029281Y025054D01*
X028974Y025054D02*
X028974Y024747D01*
X026221Y026647D02*
X026144Y026570D01*
X025990Y026570D01*
X025914Y026647D01*
X025914Y026723D01*
X025990Y026800D01*
X026144Y026800D01*
X026221Y026723D01*
X026221Y026647D01*
X026144Y026800D02*
X026221Y026877D01*
X026221Y026954D01*
X026144Y027030D01*
X025990Y027030D01*
X025914Y026954D01*
X025914Y026877D01*
X025990Y026800D01*
X025760Y026800D02*
X025684Y026723D01*
X025453Y026723D01*
X025453Y026570D02*
X025453Y027030D01*
X025684Y027030D01*
X025760Y026954D01*
X025760Y026800D01*
X025607Y026723D02*
X025760Y026570D01*
X025701Y022080D02*
X025854Y022080D01*
X025931Y022004D01*
X025931Y021927D01*
X025854Y021850D01*
X025931Y021773D01*
X025931Y021697D01*
X025854Y021620D01*
X025701Y021620D01*
X025624Y021697D01*
X025471Y021620D02*
X025164Y021620D01*
X025317Y021620D02*
X025317Y022080D01*
X025164Y021927D01*
X025010Y022004D02*
X025010Y021850D01*
X024934Y021773D01*
X024703Y021773D01*
X024703Y021620D02*
X024703Y022080D01*
X024934Y022080D01*
X025010Y022004D01*
X024857Y021773D02*
X025010Y021620D01*
X025624Y022004D02*
X025701Y022080D01*
X025778Y021850D02*
X025854Y021850D01*
X021963Y021511D02*
X021963Y021357D01*
X021887Y021280D01*
X021733Y021280D02*
X021656Y021434D01*
X021656Y021511D01*
X021733Y021587D01*
X021887Y021587D01*
X021963Y021511D01*
X021733Y021280D02*
X021503Y021280D01*
X021503Y021587D01*
X021580Y021127D02*
X021733Y021127D01*
X021810Y021050D01*
X021810Y020820D01*
X021963Y020820D02*
X021503Y020820D01*
X021503Y021050D01*
X021580Y021127D01*
X021810Y020973D02*
X021963Y021127D01*
X022753Y018280D02*
X022984Y018280D01*
X023060Y018204D01*
X023060Y018050D01*
X022984Y017973D01*
X022753Y017973D01*
X022753Y017820D02*
X022753Y018280D01*
X022907Y017973D02*
X023060Y017820D01*
X023214Y017820D02*
X023521Y017820D01*
X023674Y017820D02*
X023674Y017897D01*
X023981Y018204D01*
X023981Y018280D01*
X023674Y018280D01*
X023367Y018280D02*
X023367Y017820D01*
X023214Y018127D02*
X023367Y018280D01*
X023423Y012730D02*
X023193Y012500D01*
X023500Y012500D01*
X023423Y012270D02*
X023423Y012730D01*
X023039Y012654D02*
X023039Y012577D01*
X022733Y012270D01*
X023039Y012270D01*
X023039Y012654D02*
X022963Y012730D01*
X022809Y012730D01*
X022733Y012654D01*
X022579Y012654D02*
X022579Y012500D01*
X022502Y012423D01*
X022272Y012423D01*
X022272Y012270D02*
X022272Y012730D01*
X022502Y012730D01*
X022579Y012654D01*
X022426Y012423D02*
X022579Y012270D01*
X019300Y011554D02*
X019300Y011477D01*
X019223Y011400D01*
X019300Y011323D01*
X019300Y011247D01*
X019223Y011170D01*
X019070Y011170D01*
X018993Y011247D01*
X018839Y011247D02*
X018839Y011554D01*
X018763Y011630D01*
X018533Y011630D01*
X018533Y011170D01*
X018763Y011170D01*
X018839Y011247D01*
X018993Y011554D02*
X019070Y011630D01*
X019223Y011630D01*
X019300Y011554D01*
X019223Y011400D02*
X019146Y011400D01*
X018379Y011170D02*
X018072Y011170D01*
X018072Y011630D01*
X018379Y011630D01*
X018226Y011400D02*
X018072Y011400D01*
X017919Y011170D02*
X017612Y011170D01*
X017612Y011630D01*
X017281Y011800D02*
X016974Y011800D01*
X017204Y012030D01*
X017204Y011570D01*
X016821Y011570D02*
X016514Y011570D01*
X016667Y011570D02*
X016667Y012030D01*
X016514Y011877D01*
X016360Y011954D02*
X016360Y011800D01*
X016284Y011723D01*
X016053Y011723D01*
X016053Y011570D02*
X016053Y012030D01*
X016284Y012030D01*
X016360Y011954D01*
X016207Y011723D02*
X016360Y011570D01*
X014813Y011499D02*
X014353Y011499D01*
X014353Y011729D01*
X014430Y011806D01*
X014583Y011806D01*
X014660Y011729D01*
X014660Y011499D01*
X014660Y011653D02*
X014813Y011806D01*
X014813Y011960D02*
X014506Y012267D01*
X014430Y012267D01*
X014353Y012190D01*
X014353Y012036D01*
X014430Y011960D01*
X014813Y011960D02*
X014813Y012267D01*
X012763Y012329D02*
X012763Y012176D01*
X012687Y012099D01*
X012380Y012099D01*
X012303Y012176D01*
X012303Y012329D01*
X012380Y012406D01*
X012380Y012560D02*
X012303Y012636D01*
X012303Y012790D01*
X012380Y012867D01*
X012456Y012867D01*
X012763Y012560D01*
X012763Y012867D01*
X012687Y012406D02*
X012763Y012329D01*
X012733Y014070D02*
X013039Y014377D01*
X013039Y014454D01*
X012963Y014530D01*
X012809Y014530D01*
X012733Y014454D01*
X012579Y014454D02*
X012579Y014300D01*
X012502Y014223D01*
X012272Y014223D01*
X012272Y014070D02*
X012272Y014530D01*
X012502Y014530D01*
X012579Y014454D01*
X012426Y014223D02*
X012579Y014070D01*
X012733Y014070D02*
X013039Y014070D01*
X013193Y014147D02*
X013270Y014070D01*
X013423Y014070D01*
X013500Y014147D01*
X013500Y014300D01*
X013423Y014377D01*
X013346Y014377D01*
X013193Y014300D01*
X013193Y014530D01*
X013500Y014530D01*
X010760Y016770D02*
X010453Y016770D01*
X010607Y016770D02*
X010607Y017230D01*
X010453Y017077D01*
X010423Y017170D02*
X010500Y017247D01*
X010500Y017323D01*
X010423Y017400D01*
X010193Y017400D01*
X010193Y017247D01*
X010270Y017170D01*
X010423Y017170D01*
X010193Y017400D02*
X010346Y017554D01*
X010500Y017630D01*
X009886Y017630D02*
X009886Y017170D01*
X009733Y017170D02*
X010039Y017170D01*
X009695Y017303D02*
X009234Y017303D01*
X009272Y017323D02*
X009502Y017323D01*
X009579Y017400D01*
X009579Y017554D01*
X009502Y017630D01*
X009272Y017630D01*
X009272Y017170D01*
X009234Y016996D02*
X009695Y016996D01*
X009579Y017170D02*
X009426Y017323D01*
X009465Y017303D02*
X009465Y016996D01*
X009234Y016843D02*
X009234Y016536D01*
X009234Y016689D02*
X009695Y016689D01*
X009695Y017456D02*
X009388Y017456D01*
X009234Y017610D01*
X009388Y017763D01*
X009695Y017763D01*
X009465Y017763D02*
X009465Y017456D01*
X009733Y017477D02*
X009886Y017630D01*
X009695Y018070D02*
X009234Y018070D01*
X009234Y017917D02*
X009234Y018224D01*
X009388Y018377D02*
X009234Y018531D01*
X009695Y018531D01*
X009695Y018684D02*
X009695Y018377D01*
X009618Y018838D02*
X009695Y018914D01*
X009695Y019068D01*
X009618Y019145D01*
X009541Y019145D01*
X009465Y019068D01*
X009465Y018838D01*
X009618Y018838D01*
X009465Y018838D02*
X009311Y018991D01*
X009234Y019145D01*
X009465Y019298D02*
X009234Y019528D01*
X009695Y019528D01*
X009465Y019605D02*
X009465Y019298D01*
X009465Y019758D02*
X009311Y019912D01*
X009234Y020065D01*
X009465Y019989D02*
X009465Y019758D01*
X009618Y019758D01*
X009695Y019835D01*
X009695Y019989D01*
X009618Y020065D01*
X009541Y020065D01*
X009465Y019989D01*
X008784Y020636D02*
X008784Y020943D01*
X008784Y021096D02*
X009245Y021096D01*
X009015Y021096D02*
X009015Y021403D01*
X009015Y021556D02*
X009015Y021863D01*
X008938Y021863D02*
X009245Y021863D01*
X009245Y021556D02*
X008938Y021556D01*
X008784Y021710D01*
X008938Y021863D01*
X008784Y022017D02*
X008784Y022324D01*
X008784Y022170D02*
X009245Y022170D01*
X009245Y022477D02*
X009245Y022784D01*
X009245Y022631D02*
X008784Y022631D01*
X008938Y022477D01*
X009015Y022938D02*
X009015Y023168D01*
X009091Y023245D01*
X009168Y023245D01*
X009245Y023168D01*
X009245Y023014D01*
X009168Y022938D01*
X009015Y022938D01*
X008861Y023091D01*
X008784Y023245D01*
X009015Y023398D02*
X008784Y023628D01*
X009245Y023628D01*
X009015Y023705D02*
X009015Y023398D01*
X009015Y023858D02*
X009015Y024089D01*
X009091Y024165D01*
X009168Y024165D01*
X009245Y024089D01*
X009245Y023935D01*
X009168Y023858D01*
X009015Y023858D01*
X008861Y024012D01*
X008784Y024165D01*
X008784Y021403D02*
X009245Y021403D01*
X009245Y020789D02*
X008784Y020789D01*
X010003Y020870D02*
X010310Y020870D01*
X010157Y020870D02*
X010157Y021330D01*
X010003Y021177D01*
X017853Y025470D02*
X017853Y025700D01*
X017930Y025777D01*
X018083Y025777D01*
X018160Y025700D01*
X018160Y025470D01*
X018313Y025470D02*
X017853Y025470D01*
X018160Y025623D02*
X018313Y025777D01*
X018313Y025930D02*
X018313Y026237D01*
X018313Y026084D02*
X017853Y026084D01*
X018006Y025930D01*
X017930Y026391D02*
X017853Y026468D01*
X017853Y026621D01*
X017930Y026698D01*
X018006Y026698D01*
X018313Y026391D01*
X018313Y026698D01*
X032119Y018483D02*
X032119Y018176D01*
X032195Y018099D01*
X032349Y018099D01*
X032426Y018176D01*
X032579Y018099D02*
X032886Y018099D01*
X032733Y018099D02*
X032733Y018560D01*
X032579Y018406D01*
X032426Y018483D02*
X032349Y018560D01*
X032195Y018560D01*
X032119Y018483D01*
X033039Y018483D02*
X033116Y018560D01*
X033270Y018560D01*
X033346Y018483D01*
X033039Y018176D01*
X033116Y018099D01*
X033270Y018099D01*
X033346Y018176D01*
X033346Y018483D01*
X033039Y018483D02*
X033039Y018176D01*
X033253Y019539D02*
X033253Y019769D01*
X033330Y019846D01*
X033483Y019846D01*
X033560Y019769D01*
X033560Y019539D01*
X033560Y019692D02*
X033713Y019846D01*
X033713Y019999D02*
X033406Y020306D01*
X033330Y020306D01*
X033253Y020229D01*
X033253Y020076D01*
X033330Y019999D01*
X033713Y019999D02*
X033713Y020306D01*
X033637Y020460D02*
X033713Y020536D01*
X033713Y020690D01*
X033637Y020767D01*
X033560Y020767D01*
X033483Y020690D01*
X033483Y020460D01*
X033637Y020460D01*
X033483Y020460D02*
X033330Y020613D01*
X033253Y020767D01*
X033253Y019539D02*
X033713Y019539D01*
X033014Y023020D02*
X033014Y023097D01*
X033321Y023404D01*
X033321Y023480D01*
X033014Y023480D01*
X032860Y023404D02*
X032860Y023250D01*
X032784Y023173D01*
X032553Y023173D01*
X032553Y023020D02*
X032553Y023480D01*
X032784Y023480D01*
X032860Y023404D01*
X032707Y023173D02*
X032860Y023020D01*
X037272Y023720D02*
X037272Y024180D01*
X037502Y024180D01*
X037579Y024104D01*
X037579Y023950D01*
X037502Y023873D01*
X037272Y023873D01*
X037426Y023873D02*
X037579Y023720D01*
X037733Y023720D02*
X038039Y023720D01*
X037886Y023720D02*
X037886Y024180D01*
X037733Y024027D01*
X038193Y023950D02*
X038193Y024180D01*
X038500Y024180D01*
X038423Y024027D02*
X038346Y024027D01*
X038193Y023950D01*
X038193Y023797D02*
X038270Y023720D01*
X038423Y023720D01*
X038500Y023797D01*
X038500Y023950D01*
X038423Y024027D01*
X042853Y024089D02*
X042853Y024319D01*
X042930Y024396D01*
X043083Y024396D01*
X043160Y024319D01*
X043160Y024089D01*
X043160Y024242D02*
X043313Y024396D01*
X043313Y024549D02*
X043006Y024856D01*
X042930Y024856D01*
X042853Y024779D01*
X042853Y024626D01*
X042930Y024549D01*
X043313Y024549D02*
X043313Y024856D01*
X043313Y025010D02*
X043313Y025317D01*
X043313Y025163D02*
X042853Y025163D01*
X043006Y025010D01*
X042853Y024089D02*
X043313Y024089D01*
X045253Y023821D02*
X045253Y023668D01*
X045330Y023591D01*
X045406Y023591D01*
X045483Y023668D01*
X045483Y023821D01*
X045560Y023898D01*
X045637Y023898D01*
X045713Y023821D01*
X045713Y023668D01*
X045637Y023591D01*
X045560Y023591D01*
X045483Y023668D01*
X045483Y023821D02*
X045406Y023898D01*
X045330Y023898D01*
X045253Y023821D01*
X045330Y023437D02*
X045253Y023361D01*
X045253Y023207D01*
X045330Y023130D01*
X045330Y022977D02*
X045483Y022977D01*
X045560Y022900D01*
X045560Y022670D01*
X045713Y022670D02*
X045253Y022670D01*
X045253Y022900D01*
X045330Y022977D01*
X045560Y022823D02*
X045713Y022977D01*
X045713Y023130D02*
X045406Y023437D01*
X045330Y023437D01*
X045713Y023437D02*
X045713Y023130D01*
X045713Y024489D02*
X045253Y024489D01*
X045253Y024719D01*
X045330Y024796D01*
X045483Y024796D01*
X045560Y024719D01*
X045560Y024489D01*
X045560Y024642D02*
X045713Y024796D01*
X045713Y024949D02*
X045406Y025256D01*
X045330Y025256D01*
X045253Y025179D01*
X045253Y025026D01*
X045330Y024949D01*
X045713Y024949D02*
X045713Y025256D01*
X045713Y025410D02*
X045637Y025410D01*
X045330Y025717D01*
X045253Y025717D01*
X045253Y025410D01*
X043313Y028089D02*
X042853Y028089D01*
X042853Y028319D01*
X042930Y028396D01*
X043083Y028396D01*
X043160Y028319D01*
X043160Y028089D01*
X043160Y028242D02*
X043313Y028396D01*
X043313Y028549D02*
X043006Y028856D01*
X042930Y028856D01*
X042853Y028779D01*
X042853Y028626D01*
X042930Y028549D01*
X043313Y028549D02*
X043313Y028856D01*
X043313Y029010D02*
X043006Y029317D01*
X042930Y029317D01*
X042853Y029240D01*
X042853Y029086D01*
X042930Y029010D01*
X043313Y029010D02*
X043313Y029317D01*
X040937Y019598D02*
X041013Y019521D01*
X041013Y019368D01*
X040937Y019291D01*
X040630Y019598D01*
X040937Y019598D01*
X040937Y019291D02*
X040630Y019291D01*
X040553Y019368D01*
X040553Y019521D01*
X040630Y019598D01*
X040630Y019137D02*
X040553Y019061D01*
X040553Y018907D01*
X040630Y018830D01*
X040630Y018677D02*
X040783Y018677D01*
X040860Y018600D01*
X040860Y018370D01*
X041013Y018370D02*
X040553Y018370D01*
X040553Y018600D01*
X040630Y018677D01*
X040860Y018523D02*
X041013Y018677D01*
X041013Y018830D02*
X040706Y019137D01*
X040630Y019137D01*
X041013Y019137D02*
X041013Y018830D01*
X028135Y011701D02*
X027981Y011625D01*
X027828Y011471D01*
X028058Y011471D01*
X028135Y011394D01*
X028135Y011318D01*
X028058Y011241D01*
X027904Y011241D01*
X027828Y011318D01*
X027828Y011471D01*
X027674Y011318D02*
X027597Y011241D01*
X027444Y011241D01*
X027367Y011318D01*
X027367Y011625D01*
X027444Y011701D01*
X027597Y011701D01*
X027674Y011625D01*
X013591Y008950D02*
X013285Y008950D01*
X013515Y009180D01*
X013515Y008720D01*
X013131Y008797D02*
X013131Y009104D01*
X013054Y009180D01*
X012824Y009180D01*
X012824Y008720D01*
X013054Y008720D01*
X013131Y008797D01*
X012671Y008720D02*
X012364Y008720D01*
X012364Y009180D01*
X012671Y009180D01*
X012517Y008950D02*
X012364Y008950D01*
X012210Y008720D02*
X011903Y008720D01*
X011903Y009180D01*
D24*
X013934Y011812D03*
X013934Y012392D03*
X009333Y016258D03*
X009333Y016838D03*
X018733Y025458D03*
X018733Y026038D03*
X022383Y021388D03*
X022383Y020808D03*
X032834Y020892D03*
X032834Y020312D03*
X041433Y018938D03*
X041433Y018358D03*
X046133Y022858D03*
X046133Y023438D03*
X046134Y024862D03*
X046134Y025442D03*
X042434Y025442D03*
X042434Y024862D03*
X042434Y028862D03*
X042434Y029442D03*
D25*
X038625Y024599D03*
X038045Y024599D03*
X033121Y022601D03*
X032541Y022601D03*
X028621Y024251D03*
X028041Y024251D03*
X026421Y023601D03*
X025841Y023601D03*
X024221Y024651D03*
X023641Y024651D03*
X022275Y025349D03*
X021695Y025349D03*
X025441Y026151D03*
X026021Y026151D03*
X018021Y018851D03*
X017441Y018851D03*
X017021Y017251D03*
X016441Y017251D03*
X013121Y014951D03*
X012541Y014951D03*
X015241Y020051D03*
X015821Y020051D03*
X022741Y017401D03*
X023321Y017401D03*
X023045Y013149D03*
X023625Y013149D03*
D26*
X022383Y015150D03*
X017533Y013650D03*
D27*
X016908Y013650D03*
X019258Y013650D03*
X021758Y015150D03*
X024108Y015150D03*
D28*
X018874Y012386D03*
X018874Y011914D03*
X012442Y008436D03*
X012442Y007964D03*
X019892Y022064D03*
X019892Y022536D03*
D29*
X019892Y022300D03*
X018874Y012150D03*
X012442Y008200D03*
D30*
X020583Y016100D02*
X021083Y016100D01*
X021333Y016350D01*
X021333Y016850D01*
X021083Y017100D01*
X021333Y017350D01*
X021333Y017850D01*
X021083Y018100D01*
X020583Y018100D01*
X020333Y017850D01*
X020333Y017350D01*
X020583Y017100D01*
X020333Y016850D01*
X020333Y016350D01*
X020583Y016100D01*
X025634Y014095D02*
X025634Y013583D01*
X025634Y014095D02*
X025988Y014449D01*
X028233Y014449D01*
X028233Y013583D01*
X028233Y012717D02*
X028233Y011851D01*
X025988Y011851D01*
X025634Y012205D01*
X025634Y012717D01*
X030933Y008400D02*
X031183Y008650D01*
X031683Y008650D01*
X031933Y008400D01*
X032183Y008650D01*
X032683Y008650D01*
X032933Y008400D01*
X032933Y007900D01*
X032683Y007650D01*
X032183Y007650D01*
X031933Y007900D01*
X031683Y007650D01*
X031183Y007650D01*
X030933Y007900D01*
X030933Y008400D01*
X033433Y008400D02*
X033433Y007900D01*
X033683Y007650D01*
X034183Y007650D01*
X034433Y007900D01*
X034683Y007650D01*
X035183Y007650D01*
X035433Y007900D01*
X035433Y008400D01*
X035183Y008650D01*
X034683Y008650D01*
X034433Y008400D01*
X034183Y008650D01*
X033683Y008650D01*
X033433Y008400D01*
X035933Y008400D02*
X035933Y007900D01*
X036183Y007650D01*
X036683Y007650D01*
X036933Y007900D01*
X037183Y007650D01*
X037683Y007650D01*
X037933Y007900D01*
X037933Y008400D01*
X037683Y008650D01*
X037183Y008650D01*
X036933Y008400D01*
X036683Y008650D01*
X036183Y008650D01*
X035933Y008400D01*
X034378Y015351D02*
X032134Y015351D01*
X032134Y016217D01*
X032134Y017083D02*
X032134Y017949D01*
X034378Y017949D01*
X034733Y017595D01*
X034733Y017083D01*
X034733Y016217D02*
X034733Y015705D01*
X034378Y015351D01*
X045533Y019900D02*
X045783Y019650D01*
X046283Y019650D01*
X046533Y019900D01*
X046533Y020400D01*
X046283Y020650D01*
X046533Y020900D01*
X046533Y021400D01*
X046283Y021650D01*
X045783Y021650D01*
X045533Y021400D01*
X045533Y020900D01*
X045783Y020650D01*
X045533Y020400D01*
X045533Y019900D01*
X045783Y026650D02*
X046283Y026650D01*
X046533Y026900D01*
X046533Y027400D01*
X046283Y027650D01*
X046533Y027900D01*
X046533Y028400D01*
X046283Y028650D01*
X045783Y028650D01*
X045533Y028400D01*
X045533Y027900D01*
X045783Y027650D01*
X045533Y027400D01*
X045533Y026900D01*
X045783Y026650D01*
D31*
X032240Y016281D02*
X032307Y016302D01*
X032307Y016301D02*
X032329Y016237D01*
X032354Y016174D01*
X032383Y016113D01*
X032416Y016053D01*
X032452Y015996D01*
X032491Y015940D01*
X032533Y015887D01*
X032578Y015837D01*
X032626Y015789D01*
X032677Y015744D01*
X032730Y015702D01*
X032786Y015663D01*
X032844Y015627D01*
X032903Y015595D01*
X032965Y015566D01*
X033028Y015541D01*
X033092Y015519D01*
X033157Y015501D01*
X033224Y015487D01*
X033291Y015477D01*
X033358Y015471D01*
X033426Y015468D01*
X033494Y015469D01*
X033561Y015475D01*
X033629Y015484D01*
X033695Y015497D01*
X033761Y015514D01*
X033826Y015534D01*
X033889Y015558D01*
X033951Y015586D01*
X034011Y015617D01*
X034069Y015652D01*
X034126Y015690D01*
X034179Y015731D01*
X034231Y015775D01*
X034280Y015822D01*
X034326Y015872D01*
X034369Y015924D01*
X034409Y015979D01*
X034446Y016036D01*
X034480Y016095D01*
X034510Y016156D01*
X034536Y016218D01*
X034559Y016282D01*
X034625Y016261D01*
X034626Y016261D01*
X034603Y016196D01*
X034576Y016132D01*
X034546Y016071D01*
X034512Y016011D01*
X034476Y015953D01*
X034436Y015897D01*
X034393Y015843D01*
X034347Y015791D01*
X034299Y015743D01*
X034248Y015697D01*
X034194Y015654D01*
X034138Y015614D01*
X034080Y015577D01*
X034020Y015543D01*
X033959Y015512D01*
X033896Y015485D01*
X033831Y015462D01*
X033765Y015442D01*
X033698Y015426D01*
X033631Y015413D01*
X033563Y015404D01*
X033494Y015399D01*
X033425Y015398D01*
X033357Y015401D01*
X033288Y015407D01*
X033220Y015417D01*
X033153Y015430D01*
X033086Y015448D01*
X033021Y015469D01*
X032957Y015493D01*
X032894Y015521D01*
X032833Y015553D01*
X032774Y015588D01*
X032716Y015626D01*
X032661Y015667D01*
X032608Y015711D01*
X032558Y015757D01*
X032510Y015807D01*
X032465Y015859D01*
X032423Y015914D01*
X032385Y015970D01*
X032349Y016029D01*
X032316Y016090D01*
X032287Y016152D01*
X032262Y016216D01*
X032240Y016281D01*
X032248Y016283D01*
X032271Y016217D01*
X032297Y016153D01*
X032327Y016090D01*
X032360Y016028D01*
X032396Y015969D01*
X032436Y015912D01*
X032479Y015857D01*
X032525Y015804D01*
X032574Y015754D01*
X032626Y015707D01*
X032680Y015663D01*
X032736Y015623D01*
X032795Y015585D01*
X032856Y015551D01*
X032918Y015520D01*
X032983Y015493D01*
X033048Y015469D01*
X033115Y015449D01*
X033183Y015433D01*
X033252Y015421D01*
X033321Y015412D01*
X033391Y015408D01*
X033460Y015407D01*
X033530Y015411D01*
X033599Y015418D01*
X033668Y015429D01*
X033736Y015444D01*
X033804Y015463D01*
X033870Y015485D01*
X033934Y015511D01*
X033997Y015541D01*
X034059Y015574D01*
X034118Y015611D01*
X034175Y015651D01*
X034230Y015694D01*
X034283Y015740D01*
X034332Y015789D01*
X034379Y015840D01*
X034423Y015895D01*
X034464Y015951D01*
X034502Y016010D01*
X034536Y016071D01*
X034567Y016133D01*
X034594Y016198D01*
X034617Y016263D01*
X034609Y016266D01*
X034585Y016201D01*
X034558Y016137D01*
X034528Y016075D01*
X034494Y016015D01*
X034457Y015956D01*
X034416Y015900D01*
X034372Y015846D01*
X034326Y015795D01*
X034276Y015746D01*
X034224Y015701D01*
X034170Y015658D01*
X034113Y015618D01*
X034054Y015582D01*
X033993Y015549D01*
X033931Y015520D01*
X033867Y015494D01*
X033801Y015471D01*
X033734Y015453D01*
X033667Y015438D01*
X033598Y015427D01*
X033529Y015420D01*
X033460Y015416D01*
X033391Y015417D01*
X033322Y015421D01*
X033253Y015430D01*
X033185Y015442D01*
X033118Y015458D01*
X033051Y015478D01*
X032986Y015501D01*
X032922Y015528D01*
X032860Y015559D01*
X032800Y015593D01*
X032741Y015630D01*
X032685Y015671D01*
X032632Y015714D01*
X032580Y015761D01*
X032532Y015810D01*
X032486Y015862D01*
X032443Y015917D01*
X032404Y015974D01*
X032368Y016033D01*
X032335Y016094D01*
X032305Y016156D01*
X032279Y016220D01*
X032257Y016286D01*
X032266Y016289D01*
X032288Y016224D01*
X032313Y016160D01*
X032343Y016098D01*
X032375Y016037D01*
X032411Y015979D01*
X032451Y015922D01*
X032493Y015868D01*
X032538Y015816D01*
X032587Y015767D01*
X032637Y015721D01*
X032691Y015678D01*
X032747Y015637D01*
X032804Y015600D01*
X032864Y015567D01*
X032926Y015536D01*
X032989Y015509D01*
X033054Y015486D01*
X033120Y015467D01*
X033187Y015451D01*
X033254Y015439D01*
X033323Y015430D01*
X033391Y015426D01*
X033460Y015425D01*
X033529Y015429D01*
X033597Y015436D01*
X033665Y015447D01*
X033732Y015461D01*
X033798Y015480D01*
X033863Y015502D01*
X033927Y015528D01*
X033989Y015557D01*
X034050Y015590D01*
X034108Y015626D01*
X034165Y015665D01*
X034219Y015708D01*
X034270Y015753D01*
X034319Y015801D01*
X034366Y015852D01*
X034409Y015906D01*
X034449Y015961D01*
X034486Y016019D01*
X034520Y016079D01*
X034550Y016141D01*
X034577Y016204D01*
X034600Y016269D01*
X034592Y016272D01*
X034569Y016207D01*
X034542Y016145D01*
X034512Y016083D01*
X034478Y016024D01*
X034442Y015966D01*
X034402Y015911D01*
X034359Y015858D01*
X034313Y015807D01*
X034264Y015760D01*
X034213Y015715D01*
X034159Y015672D01*
X034103Y015633D01*
X034045Y015598D01*
X033985Y015565D01*
X033923Y015536D01*
X033860Y015510D01*
X033796Y015488D01*
X033730Y015470D01*
X033663Y015455D01*
X033596Y015445D01*
X033528Y015437D01*
X033460Y015434D01*
X033392Y015435D01*
X033323Y015439D01*
X033256Y015447D01*
X033189Y015459D01*
X033122Y015475D01*
X033057Y015495D01*
X032993Y015518D01*
X032930Y015544D01*
X032869Y015575D01*
X032809Y015608D01*
X032752Y015645D01*
X032696Y015685D01*
X032643Y015728D01*
X032593Y015774D01*
X032545Y015822D01*
X032500Y015874D01*
X032458Y015927D01*
X032419Y015983D01*
X032383Y016042D01*
X032351Y016102D01*
X032322Y016163D01*
X032296Y016227D01*
X032274Y016291D01*
X032283Y016294D01*
X032305Y016230D01*
X032330Y016167D01*
X032359Y016106D01*
X032391Y016046D01*
X032426Y015988D01*
X032465Y015933D01*
X032507Y015879D01*
X032552Y015829D01*
X032599Y015780D01*
X032649Y015735D01*
X032702Y015692D01*
X032757Y015652D01*
X032814Y015616D01*
X032873Y015582D01*
X032933Y015553D01*
X032996Y015526D01*
X033060Y015503D01*
X033124Y015484D01*
X033190Y015468D01*
X033257Y015456D01*
X033324Y015448D01*
X033392Y015444D01*
X033460Y015443D01*
X033527Y015446D01*
X033595Y015453D01*
X033662Y015464D01*
X033728Y015479D01*
X033793Y015497D01*
X033857Y015519D01*
X033920Y015544D01*
X033981Y015573D01*
X034041Y015605D01*
X034098Y015641D01*
X034154Y015680D01*
X034207Y015721D01*
X034258Y015766D01*
X034306Y015814D01*
X034352Y015864D01*
X034395Y015916D01*
X034434Y015971D01*
X034471Y016028D01*
X034504Y016087D01*
X034534Y016148D01*
X034560Y016211D01*
X034583Y016274D01*
X034574Y016277D01*
X034551Y016212D01*
X034524Y016149D01*
X034494Y016088D01*
X034460Y016028D01*
X034422Y015970D01*
X034382Y015915D01*
X034338Y015862D01*
X034291Y015811D01*
X034242Y015763D01*
X034190Y015719D01*
X034135Y015677D01*
X034078Y015639D01*
X034019Y015603D01*
X033958Y015572D01*
X033895Y015543D01*
X033831Y015519D01*
X033765Y015498D01*
X033699Y015481D01*
X033631Y015468D01*
X033563Y015459D01*
X033495Y015453D01*
X033426Y015452D01*
X033357Y015455D01*
X033289Y015461D01*
X033221Y015471D01*
X033153Y015486D01*
X033087Y015504D01*
X033022Y015526D01*
X032958Y015551D01*
X032896Y015581D01*
X032835Y015613D01*
X032777Y015650D01*
X032721Y015689D01*
X032667Y015732D01*
X032615Y015777D01*
X032567Y015826D01*
X032521Y015877D01*
X032478Y015931D01*
X032438Y015987D01*
X032402Y016045D01*
X032369Y016106D01*
X032339Y016168D01*
X032314Y016231D01*
X032291Y016296D01*
X032300Y016299D01*
X032322Y016235D01*
X032348Y016171D01*
X032377Y016110D01*
X032410Y016050D01*
X032446Y015992D01*
X032485Y015936D01*
X032528Y015883D01*
X032573Y015832D01*
X032622Y015784D01*
X032673Y015738D01*
X032726Y015696D01*
X032782Y015657D01*
X032840Y015621D01*
X032900Y015589D01*
X032962Y015560D01*
X033025Y015534D01*
X033090Y015513D01*
X033156Y015495D01*
X033222Y015480D01*
X033290Y015470D01*
X033358Y015464D01*
X033426Y015461D01*
X033494Y015462D01*
X033562Y015468D01*
X033630Y015477D01*
X033697Y015490D01*
X033763Y015507D01*
X033828Y015527D01*
X033892Y015552D01*
X033954Y015580D01*
X034014Y015611D01*
X034073Y015646D01*
X034130Y015684D01*
X034184Y015726D01*
X034236Y015770D01*
X034285Y015817D01*
X034331Y015868D01*
X034375Y015920D01*
X034415Y015975D01*
X034452Y016032D01*
X034486Y016092D01*
X034516Y016153D01*
X034543Y016216D01*
X034566Y016280D01*
X034626Y017019D02*
X034559Y016998D01*
X034559Y016999D02*
X034537Y017063D01*
X034512Y017126D01*
X034483Y017187D01*
X034450Y017247D01*
X034414Y017304D01*
X034375Y017360D01*
X034333Y017413D01*
X034288Y017463D01*
X034240Y017511D01*
X034189Y017556D01*
X034136Y017598D01*
X034080Y017637D01*
X034022Y017673D01*
X033963Y017705D01*
X033901Y017734D01*
X033838Y017759D01*
X033774Y017781D01*
X033709Y017799D01*
X033642Y017813D01*
X033575Y017823D01*
X033508Y017829D01*
X033440Y017832D01*
X033372Y017831D01*
X033305Y017825D01*
X033237Y017816D01*
X033171Y017803D01*
X033105Y017786D01*
X033040Y017766D01*
X032977Y017742D01*
X032915Y017714D01*
X032855Y017683D01*
X032797Y017648D01*
X032740Y017610D01*
X032687Y017569D01*
X032635Y017525D01*
X032586Y017478D01*
X032540Y017428D01*
X032497Y017376D01*
X032457Y017321D01*
X032420Y017264D01*
X032386Y017205D01*
X032356Y017144D01*
X032330Y017082D01*
X032307Y017018D01*
X032241Y017039D01*
X032240Y017039D01*
X032263Y017104D01*
X032290Y017168D01*
X032320Y017229D01*
X032354Y017289D01*
X032390Y017347D01*
X032430Y017403D01*
X032473Y017457D01*
X032519Y017509D01*
X032567Y017557D01*
X032618Y017603D01*
X032672Y017646D01*
X032728Y017686D01*
X032786Y017723D01*
X032846Y017757D01*
X032907Y017788D01*
X032970Y017815D01*
X033035Y017838D01*
X033101Y017858D01*
X033168Y017874D01*
X033235Y017887D01*
X033303Y017896D01*
X033372Y017901D01*
X033441Y017902D01*
X033509Y017899D01*
X033578Y017893D01*
X033646Y017883D01*
X033713Y017870D01*
X033780Y017852D01*
X033845Y017831D01*
X033909Y017807D01*
X033972Y017779D01*
X034033Y017747D01*
X034092Y017712D01*
X034150Y017674D01*
X034205Y017633D01*
X034258Y017589D01*
X034308Y017543D01*
X034356Y017493D01*
X034401Y017441D01*
X034443Y017386D01*
X034481Y017330D01*
X034517Y017271D01*
X034550Y017210D01*
X034579Y017148D01*
X034604Y017084D01*
X034626Y017019D01*
X034618Y017017D01*
X034595Y017083D01*
X034569Y017147D01*
X034539Y017210D01*
X034506Y017272D01*
X034470Y017331D01*
X034430Y017388D01*
X034387Y017443D01*
X034341Y017496D01*
X034292Y017546D01*
X034240Y017593D01*
X034186Y017637D01*
X034130Y017677D01*
X034071Y017715D01*
X034010Y017749D01*
X033948Y017780D01*
X033883Y017807D01*
X033818Y017831D01*
X033751Y017851D01*
X033683Y017867D01*
X033614Y017879D01*
X033545Y017888D01*
X033475Y017892D01*
X033406Y017893D01*
X033336Y017889D01*
X033267Y017882D01*
X033198Y017871D01*
X033130Y017856D01*
X033062Y017837D01*
X032996Y017815D01*
X032932Y017789D01*
X032869Y017759D01*
X032807Y017726D01*
X032748Y017689D01*
X032691Y017649D01*
X032636Y017606D01*
X032583Y017560D01*
X032534Y017511D01*
X032487Y017460D01*
X032443Y017405D01*
X032402Y017349D01*
X032364Y017290D01*
X032330Y017229D01*
X032299Y017167D01*
X032272Y017102D01*
X032249Y017037D01*
X032257Y017034D01*
X032281Y017099D01*
X032308Y017163D01*
X032338Y017225D01*
X032372Y017285D01*
X032409Y017344D01*
X032450Y017400D01*
X032494Y017454D01*
X032540Y017505D01*
X032590Y017554D01*
X032642Y017599D01*
X032696Y017642D01*
X032753Y017682D01*
X032812Y017718D01*
X032873Y017751D01*
X032935Y017780D01*
X032999Y017806D01*
X033065Y017829D01*
X033132Y017847D01*
X033199Y017862D01*
X033268Y017873D01*
X033337Y017880D01*
X033406Y017884D01*
X033475Y017883D01*
X033544Y017879D01*
X033613Y017870D01*
X033681Y017858D01*
X033748Y017842D01*
X033815Y017822D01*
X033880Y017799D01*
X033944Y017772D01*
X034006Y017741D01*
X034066Y017707D01*
X034125Y017670D01*
X034181Y017629D01*
X034234Y017586D01*
X034286Y017539D01*
X034334Y017490D01*
X034380Y017438D01*
X034423Y017383D01*
X034462Y017326D01*
X034498Y017267D01*
X034531Y017206D01*
X034561Y017144D01*
X034587Y017080D01*
X034609Y017014D01*
X034600Y017011D01*
X034578Y017076D01*
X034553Y017140D01*
X034523Y017202D01*
X034491Y017263D01*
X034455Y017321D01*
X034415Y017378D01*
X034373Y017432D01*
X034328Y017484D01*
X034279Y017533D01*
X034229Y017579D01*
X034175Y017622D01*
X034119Y017663D01*
X034062Y017700D01*
X034002Y017733D01*
X033940Y017764D01*
X033877Y017791D01*
X033812Y017814D01*
X033746Y017833D01*
X033679Y017849D01*
X033612Y017861D01*
X033543Y017870D01*
X033475Y017874D01*
X033406Y017875D01*
X033337Y017871D01*
X033269Y017864D01*
X033201Y017853D01*
X033134Y017839D01*
X033068Y017820D01*
X033003Y017798D01*
X032939Y017772D01*
X032877Y017743D01*
X032816Y017710D01*
X032758Y017674D01*
X032701Y017635D01*
X032647Y017592D01*
X032596Y017547D01*
X032547Y017499D01*
X032500Y017448D01*
X032457Y017394D01*
X032417Y017339D01*
X032380Y017281D01*
X032346Y017221D01*
X032316Y017159D01*
X032289Y017096D01*
X032266Y017031D01*
X032274Y017028D01*
X032297Y017093D01*
X032324Y017155D01*
X032354Y017217D01*
X032388Y017276D01*
X032424Y017334D01*
X032464Y017389D01*
X032507Y017442D01*
X032553Y017493D01*
X032602Y017540D01*
X032653Y017585D01*
X032707Y017628D01*
X032763Y017667D01*
X032821Y017702D01*
X032881Y017735D01*
X032943Y017764D01*
X033006Y017790D01*
X033070Y017812D01*
X033136Y017830D01*
X033203Y017845D01*
X033270Y017855D01*
X033338Y017863D01*
X033406Y017866D01*
X033474Y017865D01*
X033543Y017861D01*
X033610Y017853D01*
X033677Y017841D01*
X033744Y017825D01*
X033809Y017805D01*
X033873Y017782D01*
X033936Y017756D01*
X033997Y017725D01*
X034057Y017692D01*
X034114Y017655D01*
X034170Y017615D01*
X034223Y017572D01*
X034273Y017526D01*
X034321Y017478D01*
X034366Y017426D01*
X034408Y017373D01*
X034447Y017317D01*
X034483Y017258D01*
X034515Y017198D01*
X034544Y017137D01*
X034570Y017073D01*
X034592Y017009D01*
X034583Y017006D01*
X034561Y017070D01*
X034536Y017133D01*
X034507Y017194D01*
X034475Y017254D01*
X034440Y017312D01*
X034401Y017367D01*
X034359Y017421D01*
X034314Y017471D01*
X034267Y017520D01*
X034217Y017565D01*
X034164Y017608D01*
X034109Y017648D01*
X034052Y017684D01*
X033993Y017718D01*
X033933Y017747D01*
X033870Y017774D01*
X033806Y017797D01*
X033742Y017816D01*
X033676Y017832D01*
X033609Y017844D01*
X033542Y017852D01*
X033474Y017856D01*
X033406Y017857D01*
X033339Y017854D01*
X033271Y017847D01*
X033204Y017836D01*
X033138Y017821D01*
X033073Y017803D01*
X033009Y017781D01*
X032946Y017756D01*
X032885Y017727D01*
X032825Y017695D01*
X032768Y017659D01*
X032712Y017620D01*
X032659Y017579D01*
X032608Y017534D01*
X032560Y017486D01*
X032514Y017436D01*
X032471Y017384D01*
X032432Y017329D01*
X032395Y017272D01*
X032362Y017213D01*
X032332Y017152D01*
X032306Y017089D01*
X032283Y017026D01*
X032292Y017023D01*
X032315Y017088D01*
X032342Y017151D01*
X032372Y017212D01*
X032406Y017272D01*
X032444Y017330D01*
X032484Y017385D01*
X032528Y017438D01*
X032575Y017489D01*
X032624Y017537D01*
X032676Y017581D01*
X032731Y017623D01*
X032788Y017661D01*
X032847Y017697D01*
X032908Y017728D01*
X032971Y017757D01*
X033035Y017781D01*
X033101Y017802D01*
X033167Y017819D01*
X033235Y017832D01*
X033303Y017841D01*
X033371Y017847D01*
X033440Y017848D01*
X033509Y017845D01*
X033577Y017839D01*
X033645Y017829D01*
X033713Y017814D01*
X033779Y017796D01*
X033844Y017774D01*
X033908Y017749D01*
X033970Y017719D01*
X034031Y017687D01*
X034089Y017650D01*
X034145Y017611D01*
X034199Y017568D01*
X034251Y017523D01*
X034299Y017474D01*
X034345Y017423D01*
X034388Y017369D01*
X034428Y017313D01*
X034464Y017255D01*
X034497Y017194D01*
X034527Y017132D01*
X034552Y017069D01*
X034575Y017004D01*
X034566Y017001D01*
X034544Y017065D01*
X034518Y017129D01*
X034489Y017190D01*
X034456Y017250D01*
X034420Y017308D01*
X034381Y017364D01*
X034338Y017417D01*
X034293Y017468D01*
X034244Y017516D01*
X034193Y017562D01*
X034140Y017604D01*
X034084Y017643D01*
X034026Y017679D01*
X033966Y017711D01*
X033904Y017740D01*
X033841Y017766D01*
X033776Y017787D01*
X033710Y017805D01*
X033644Y017820D01*
X033576Y017830D01*
X033508Y017836D01*
X033440Y017839D01*
X033372Y017838D01*
X033304Y017832D01*
X033236Y017823D01*
X033169Y017810D01*
X033103Y017793D01*
X033038Y017773D01*
X032974Y017748D01*
X032912Y017720D01*
X032852Y017689D01*
X032793Y017654D01*
X032736Y017616D01*
X032682Y017574D01*
X032630Y017530D01*
X032581Y017483D01*
X032535Y017432D01*
X032491Y017380D01*
X032451Y017325D01*
X032414Y017268D01*
X032380Y017208D01*
X032350Y017147D01*
X032323Y017084D01*
X032300Y017020D01*
X025740Y012781D02*
X025807Y012802D01*
X025807Y012801D02*
X025829Y012737D01*
X025854Y012674D01*
X025883Y012613D01*
X025916Y012553D01*
X025952Y012496D01*
X025991Y012440D01*
X026033Y012387D01*
X026078Y012337D01*
X026126Y012289D01*
X026177Y012244D01*
X026230Y012202D01*
X026286Y012163D01*
X026344Y012127D01*
X026403Y012095D01*
X026465Y012066D01*
X026528Y012041D01*
X026592Y012019D01*
X026657Y012001D01*
X026724Y011987D01*
X026791Y011977D01*
X026858Y011971D01*
X026926Y011968D01*
X026994Y011969D01*
X027061Y011975D01*
X027129Y011984D01*
X027195Y011997D01*
X027261Y012014D01*
X027326Y012034D01*
X027389Y012058D01*
X027451Y012086D01*
X027511Y012117D01*
X027569Y012152D01*
X027626Y012190D01*
X027679Y012231D01*
X027731Y012275D01*
X027780Y012322D01*
X027826Y012372D01*
X027869Y012424D01*
X027909Y012479D01*
X027946Y012536D01*
X027980Y012595D01*
X028010Y012656D01*
X028036Y012718D01*
X028059Y012782D01*
X028125Y012761D01*
X028126Y012761D01*
X028103Y012696D01*
X028076Y012632D01*
X028046Y012571D01*
X028012Y012511D01*
X027976Y012453D01*
X027936Y012397D01*
X027893Y012343D01*
X027847Y012291D01*
X027799Y012243D01*
X027748Y012197D01*
X027694Y012154D01*
X027638Y012114D01*
X027580Y012077D01*
X027520Y012043D01*
X027459Y012012D01*
X027396Y011985D01*
X027331Y011962D01*
X027265Y011942D01*
X027198Y011926D01*
X027131Y011913D01*
X027063Y011904D01*
X026994Y011899D01*
X026925Y011898D01*
X026857Y011901D01*
X026788Y011907D01*
X026720Y011917D01*
X026653Y011930D01*
X026586Y011948D01*
X026521Y011969D01*
X026457Y011993D01*
X026394Y012021D01*
X026333Y012053D01*
X026274Y012088D01*
X026216Y012126D01*
X026161Y012167D01*
X026108Y012211D01*
X026058Y012257D01*
X026010Y012307D01*
X025965Y012359D01*
X025923Y012414D01*
X025885Y012470D01*
X025849Y012529D01*
X025816Y012590D01*
X025787Y012652D01*
X025762Y012716D01*
X025740Y012781D01*
X025748Y012783D01*
X025771Y012717D01*
X025797Y012653D01*
X025827Y012590D01*
X025860Y012528D01*
X025896Y012469D01*
X025936Y012412D01*
X025979Y012357D01*
X026025Y012304D01*
X026074Y012254D01*
X026126Y012207D01*
X026180Y012163D01*
X026236Y012123D01*
X026295Y012085D01*
X026356Y012051D01*
X026418Y012020D01*
X026483Y011993D01*
X026548Y011969D01*
X026615Y011949D01*
X026683Y011933D01*
X026752Y011921D01*
X026821Y011912D01*
X026891Y011908D01*
X026960Y011907D01*
X027030Y011911D01*
X027099Y011918D01*
X027168Y011929D01*
X027236Y011944D01*
X027304Y011963D01*
X027370Y011985D01*
X027434Y012011D01*
X027497Y012041D01*
X027559Y012074D01*
X027618Y012111D01*
X027675Y012151D01*
X027730Y012194D01*
X027783Y012240D01*
X027832Y012289D01*
X027879Y012340D01*
X027923Y012395D01*
X027964Y012451D01*
X028002Y012510D01*
X028036Y012571D01*
X028067Y012633D01*
X028094Y012698D01*
X028117Y012763D01*
X028109Y012766D01*
X028085Y012701D01*
X028058Y012637D01*
X028028Y012575D01*
X027994Y012515D01*
X027957Y012456D01*
X027916Y012400D01*
X027872Y012346D01*
X027826Y012295D01*
X027776Y012246D01*
X027724Y012201D01*
X027670Y012158D01*
X027613Y012118D01*
X027554Y012082D01*
X027493Y012049D01*
X027431Y012020D01*
X027367Y011994D01*
X027301Y011971D01*
X027234Y011953D01*
X027167Y011938D01*
X027098Y011927D01*
X027029Y011920D01*
X026960Y011916D01*
X026891Y011917D01*
X026822Y011921D01*
X026753Y011930D01*
X026685Y011942D01*
X026618Y011958D01*
X026551Y011978D01*
X026486Y012001D01*
X026422Y012028D01*
X026360Y012059D01*
X026300Y012093D01*
X026241Y012130D01*
X026185Y012171D01*
X026132Y012214D01*
X026080Y012261D01*
X026032Y012310D01*
X025986Y012362D01*
X025943Y012417D01*
X025904Y012474D01*
X025868Y012533D01*
X025835Y012594D01*
X025805Y012656D01*
X025779Y012720D01*
X025757Y012786D01*
X025766Y012789D01*
X025788Y012724D01*
X025813Y012660D01*
X025843Y012598D01*
X025875Y012537D01*
X025911Y012479D01*
X025951Y012422D01*
X025993Y012368D01*
X026038Y012316D01*
X026087Y012267D01*
X026137Y012221D01*
X026191Y012178D01*
X026247Y012137D01*
X026304Y012100D01*
X026364Y012067D01*
X026426Y012036D01*
X026489Y012009D01*
X026554Y011986D01*
X026620Y011967D01*
X026687Y011951D01*
X026754Y011939D01*
X026823Y011930D01*
X026891Y011926D01*
X026960Y011925D01*
X027029Y011929D01*
X027097Y011936D01*
X027165Y011947D01*
X027232Y011961D01*
X027298Y011980D01*
X027363Y012002D01*
X027427Y012028D01*
X027489Y012057D01*
X027550Y012090D01*
X027608Y012126D01*
X027665Y012165D01*
X027719Y012208D01*
X027770Y012253D01*
X027819Y012301D01*
X027866Y012352D01*
X027909Y012406D01*
X027949Y012461D01*
X027986Y012519D01*
X028020Y012579D01*
X028050Y012641D01*
X028077Y012704D01*
X028100Y012769D01*
X028092Y012772D01*
X028069Y012707D01*
X028042Y012645D01*
X028012Y012583D01*
X027978Y012524D01*
X027942Y012466D01*
X027902Y012411D01*
X027859Y012358D01*
X027813Y012307D01*
X027764Y012260D01*
X027713Y012215D01*
X027659Y012172D01*
X027603Y012133D01*
X027545Y012098D01*
X027485Y012065D01*
X027423Y012036D01*
X027360Y012010D01*
X027296Y011988D01*
X027230Y011970D01*
X027163Y011955D01*
X027096Y011945D01*
X027028Y011937D01*
X026960Y011934D01*
X026892Y011935D01*
X026823Y011939D01*
X026756Y011947D01*
X026689Y011959D01*
X026622Y011975D01*
X026557Y011995D01*
X026493Y012018D01*
X026430Y012044D01*
X026369Y012075D01*
X026309Y012108D01*
X026252Y012145D01*
X026196Y012185D01*
X026143Y012228D01*
X026093Y012274D01*
X026045Y012322D01*
X026000Y012374D01*
X025958Y012427D01*
X025919Y012483D01*
X025883Y012542D01*
X025851Y012602D01*
X025822Y012663D01*
X025796Y012727D01*
X025774Y012791D01*
X025783Y012794D01*
X025805Y012730D01*
X025830Y012667D01*
X025859Y012606D01*
X025891Y012546D01*
X025926Y012488D01*
X025965Y012433D01*
X026007Y012379D01*
X026052Y012329D01*
X026099Y012280D01*
X026149Y012235D01*
X026202Y012192D01*
X026257Y012152D01*
X026314Y012116D01*
X026373Y012082D01*
X026433Y012053D01*
X026496Y012026D01*
X026560Y012003D01*
X026624Y011984D01*
X026690Y011968D01*
X026757Y011956D01*
X026824Y011948D01*
X026892Y011944D01*
X026960Y011943D01*
X027027Y011946D01*
X027095Y011953D01*
X027162Y011964D01*
X027228Y011979D01*
X027293Y011997D01*
X027357Y012019D01*
X027420Y012044D01*
X027481Y012073D01*
X027541Y012105D01*
X027598Y012141D01*
X027654Y012180D01*
X027707Y012221D01*
X027758Y012266D01*
X027806Y012314D01*
X027852Y012364D01*
X027895Y012416D01*
X027934Y012471D01*
X027971Y012528D01*
X028004Y012587D01*
X028034Y012648D01*
X028060Y012711D01*
X028083Y012774D01*
X028074Y012777D01*
X028051Y012712D01*
X028024Y012649D01*
X027994Y012588D01*
X027960Y012528D01*
X027922Y012470D01*
X027882Y012415D01*
X027838Y012362D01*
X027791Y012311D01*
X027742Y012263D01*
X027690Y012219D01*
X027635Y012177D01*
X027578Y012139D01*
X027519Y012103D01*
X027458Y012072D01*
X027395Y012043D01*
X027331Y012019D01*
X027265Y011998D01*
X027199Y011981D01*
X027131Y011968D01*
X027063Y011959D01*
X026995Y011953D01*
X026926Y011952D01*
X026857Y011955D01*
X026789Y011961D01*
X026721Y011971D01*
X026653Y011986D01*
X026587Y012004D01*
X026522Y012026D01*
X026458Y012051D01*
X026396Y012081D01*
X026335Y012113D01*
X026277Y012150D01*
X026221Y012189D01*
X026167Y012232D01*
X026115Y012277D01*
X026067Y012326D01*
X026021Y012377D01*
X025978Y012431D01*
X025938Y012487D01*
X025902Y012545D01*
X025869Y012606D01*
X025839Y012668D01*
X025814Y012731D01*
X025791Y012796D01*
X025800Y012799D01*
X025822Y012735D01*
X025848Y012671D01*
X025877Y012610D01*
X025910Y012550D01*
X025946Y012492D01*
X025985Y012436D01*
X026028Y012383D01*
X026073Y012332D01*
X026122Y012284D01*
X026173Y012238D01*
X026226Y012196D01*
X026282Y012157D01*
X026340Y012121D01*
X026400Y012089D01*
X026462Y012060D01*
X026525Y012034D01*
X026590Y012013D01*
X026656Y011995D01*
X026722Y011980D01*
X026790Y011970D01*
X026858Y011964D01*
X026926Y011961D01*
X026994Y011962D01*
X027062Y011968D01*
X027130Y011977D01*
X027197Y011990D01*
X027263Y012007D01*
X027328Y012027D01*
X027392Y012052D01*
X027454Y012080D01*
X027514Y012111D01*
X027573Y012146D01*
X027630Y012184D01*
X027684Y012226D01*
X027736Y012270D01*
X027785Y012317D01*
X027831Y012368D01*
X027875Y012420D01*
X027915Y012475D01*
X027952Y012532D01*
X027986Y012592D01*
X028016Y012653D01*
X028043Y012716D01*
X028066Y012780D01*
X028126Y013519D02*
X028059Y013498D01*
X028059Y013499D02*
X028037Y013563D01*
X028012Y013626D01*
X027983Y013687D01*
X027950Y013747D01*
X027914Y013804D01*
X027875Y013860D01*
X027833Y013913D01*
X027788Y013963D01*
X027740Y014011D01*
X027689Y014056D01*
X027636Y014098D01*
X027580Y014137D01*
X027522Y014173D01*
X027463Y014205D01*
X027401Y014234D01*
X027338Y014259D01*
X027274Y014281D01*
X027209Y014299D01*
X027142Y014313D01*
X027075Y014323D01*
X027008Y014329D01*
X026940Y014332D01*
X026872Y014331D01*
X026805Y014325D01*
X026737Y014316D01*
X026671Y014303D01*
X026605Y014286D01*
X026540Y014266D01*
X026477Y014242D01*
X026415Y014214D01*
X026355Y014183D01*
X026297Y014148D01*
X026240Y014110D01*
X026187Y014069D01*
X026135Y014025D01*
X026086Y013978D01*
X026040Y013928D01*
X025997Y013876D01*
X025957Y013821D01*
X025920Y013764D01*
X025886Y013705D01*
X025856Y013644D01*
X025830Y013582D01*
X025807Y013518D01*
X025741Y013539D01*
X025740Y013539D01*
X025763Y013604D01*
X025790Y013668D01*
X025820Y013729D01*
X025854Y013789D01*
X025890Y013847D01*
X025930Y013903D01*
X025973Y013957D01*
X026019Y014009D01*
X026067Y014057D01*
X026118Y014103D01*
X026172Y014146D01*
X026228Y014186D01*
X026286Y014223D01*
X026346Y014257D01*
X026407Y014288D01*
X026470Y014315D01*
X026535Y014338D01*
X026601Y014358D01*
X026668Y014374D01*
X026735Y014387D01*
X026803Y014396D01*
X026872Y014401D01*
X026941Y014402D01*
X027009Y014399D01*
X027078Y014393D01*
X027146Y014383D01*
X027213Y014370D01*
X027280Y014352D01*
X027345Y014331D01*
X027409Y014307D01*
X027472Y014279D01*
X027533Y014247D01*
X027592Y014212D01*
X027650Y014174D01*
X027705Y014133D01*
X027758Y014089D01*
X027808Y014043D01*
X027856Y013993D01*
X027901Y013941D01*
X027943Y013886D01*
X027981Y013830D01*
X028017Y013771D01*
X028050Y013710D01*
X028079Y013648D01*
X028104Y013584D01*
X028126Y013519D01*
X028118Y013517D01*
X028095Y013583D01*
X028069Y013647D01*
X028039Y013710D01*
X028006Y013772D01*
X027970Y013831D01*
X027930Y013888D01*
X027887Y013943D01*
X027841Y013996D01*
X027792Y014046D01*
X027740Y014093D01*
X027686Y014137D01*
X027630Y014177D01*
X027571Y014215D01*
X027510Y014249D01*
X027448Y014280D01*
X027383Y014307D01*
X027318Y014331D01*
X027251Y014351D01*
X027183Y014367D01*
X027114Y014379D01*
X027045Y014388D01*
X026975Y014392D01*
X026906Y014393D01*
X026836Y014389D01*
X026767Y014382D01*
X026698Y014371D01*
X026630Y014356D01*
X026562Y014337D01*
X026496Y014315D01*
X026432Y014289D01*
X026369Y014259D01*
X026307Y014226D01*
X026248Y014189D01*
X026191Y014149D01*
X026136Y014106D01*
X026083Y014060D01*
X026034Y014011D01*
X025987Y013960D01*
X025943Y013905D01*
X025902Y013849D01*
X025864Y013790D01*
X025830Y013729D01*
X025799Y013667D01*
X025772Y013602D01*
X025749Y013537D01*
X025757Y013534D01*
X025781Y013599D01*
X025808Y013663D01*
X025838Y013725D01*
X025872Y013785D01*
X025909Y013844D01*
X025950Y013900D01*
X025994Y013954D01*
X026040Y014005D01*
X026090Y014054D01*
X026142Y014099D01*
X026196Y014142D01*
X026253Y014182D01*
X026312Y014218D01*
X026373Y014251D01*
X026435Y014280D01*
X026499Y014306D01*
X026565Y014329D01*
X026632Y014347D01*
X026699Y014362D01*
X026768Y014373D01*
X026837Y014380D01*
X026906Y014384D01*
X026975Y014383D01*
X027044Y014379D01*
X027113Y014370D01*
X027181Y014358D01*
X027248Y014342D01*
X027315Y014322D01*
X027380Y014299D01*
X027444Y014272D01*
X027506Y014241D01*
X027566Y014207D01*
X027625Y014170D01*
X027681Y014129D01*
X027734Y014086D01*
X027786Y014039D01*
X027834Y013990D01*
X027880Y013938D01*
X027923Y013883D01*
X027962Y013826D01*
X027998Y013767D01*
X028031Y013706D01*
X028061Y013644D01*
X028087Y013580D01*
X028109Y013514D01*
X028100Y013511D01*
X028078Y013576D01*
X028053Y013640D01*
X028023Y013702D01*
X027991Y013763D01*
X027955Y013821D01*
X027915Y013878D01*
X027873Y013932D01*
X027828Y013984D01*
X027779Y014033D01*
X027729Y014079D01*
X027675Y014122D01*
X027619Y014163D01*
X027562Y014200D01*
X027502Y014233D01*
X027440Y014264D01*
X027377Y014291D01*
X027312Y014314D01*
X027246Y014333D01*
X027179Y014349D01*
X027112Y014361D01*
X027043Y014370D01*
X026975Y014374D01*
X026906Y014375D01*
X026837Y014371D01*
X026769Y014364D01*
X026701Y014353D01*
X026634Y014339D01*
X026568Y014320D01*
X026503Y014298D01*
X026439Y014272D01*
X026377Y014243D01*
X026316Y014210D01*
X026258Y014174D01*
X026201Y014135D01*
X026147Y014092D01*
X026096Y014047D01*
X026047Y013999D01*
X026000Y013948D01*
X025957Y013894D01*
X025917Y013839D01*
X025880Y013781D01*
X025846Y013721D01*
X025816Y013659D01*
X025789Y013596D01*
X025766Y013531D01*
X025774Y013528D01*
X025797Y013593D01*
X025824Y013655D01*
X025854Y013717D01*
X025888Y013776D01*
X025924Y013834D01*
X025964Y013889D01*
X026007Y013942D01*
X026053Y013993D01*
X026102Y014040D01*
X026153Y014085D01*
X026207Y014128D01*
X026263Y014167D01*
X026321Y014202D01*
X026381Y014235D01*
X026443Y014264D01*
X026506Y014290D01*
X026570Y014312D01*
X026636Y014330D01*
X026703Y014345D01*
X026770Y014355D01*
X026838Y014363D01*
X026906Y014366D01*
X026974Y014365D01*
X027043Y014361D01*
X027110Y014353D01*
X027177Y014341D01*
X027244Y014325D01*
X027309Y014305D01*
X027373Y014282D01*
X027436Y014256D01*
X027497Y014225D01*
X027557Y014192D01*
X027614Y014155D01*
X027670Y014115D01*
X027723Y014072D01*
X027773Y014026D01*
X027821Y013978D01*
X027866Y013926D01*
X027908Y013873D01*
X027947Y013817D01*
X027983Y013758D01*
X028015Y013698D01*
X028044Y013637D01*
X028070Y013573D01*
X028092Y013509D01*
X028083Y013506D01*
X028061Y013570D01*
X028036Y013633D01*
X028007Y013694D01*
X027975Y013754D01*
X027940Y013812D01*
X027901Y013867D01*
X027859Y013921D01*
X027814Y013971D01*
X027767Y014020D01*
X027717Y014065D01*
X027664Y014108D01*
X027609Y014148D01*
X027552Y014184D01*
X027493Y014218D01*
X027433Y014247D01*
X027370Y014274D01*
X027306Y014297D01*
X027242Y014316D01*
X027176Y014332D01*
X027109Y014344D01*
X027042Y014352D01*
X026974Y014356D01*
X026906Y014357D01*
X026839Y014354D01*
X026771Y014347D01*
X026704Y014336D01*
X026638Y014321D01*
X026573Y014303D01*
X026509Y014281D01*
X026446Y014256D01*
X026385Y014227D01*
X026325Y014195D01*
X026268Y014159D01*
X026212Y014120D01*
X026159Y014079D01*
X026108Y014034D01*
X026060Y013986D01*
X026014Y013936D01*
X025971Y013884D01*
X025932Y013829D01*
X025895Y013772D01*
X025862Y013713D01*
X025832Y013652D01*
X025806Y013589D01*
X025783Y013526D01*
X025792Y013523D01*
X025815Y013588D01*
X025842Y013651D01*
X025872Y013712D01*
X025906Y013772D01*
X025944Y013830D01*
X025984Y013885D01*
X026028Y013938D01*
X026075Y013989D01*
X026124Y014037D01*
X026176Y014081D01*
X026231Y014123D01*
X026288Y014161D01*
X026347Y014197D01*
X026408Y014228D01*
X026471Y014257D01*
X026535Y014281D01*
X026601Y014302D01*
X026667Y014319D01*
X026735Y014332D01*
X026803Y014341D01*
X026871Y014347D01*
X026940Y014348D01*
X027009Y014345D01*
X027077Y014339D01*
X027145Y014329D01*
X027213Y014314D01*
X027279Y014296D01*
X027344Y014274D01*
X027408Y014249D01*
X027470Y014219D01*
X027531Y014187D01*
X027589Y014150D01*
X027645Y014111D01*
X027699Y014068D01*
X027751Y014023D01*
X027799Y013974D01*
X027845Y013923D01*
X027888Y013869D01*
X027928Y013813D01*
X027964Y013755D01*
X027997Y013694D01*
X028027Y013632D01*
X028052Y013569D01*
X028075Y013504D01*
X028066Y013501D01*
X028044Y013565D01*
X028018Y013629D01*
X027989Y013690D01*
X027956Y013750D01*
X027920Y013808D01*
X027881Y013864D01*
X027838Y013917D01*
X027793Y013968D01*
X027744Y014016D01*
X027693Y014062D01*
X027640Y014104D01*
X027584Y014143D01*
X027526Y014179D01*
X027466Y014211D01*
X027404Y014240D01*
X027341Y014266D01*
X027276Y014287D01*
X027210Y014305D01*
X027144Y014320D01*
X027076Y014330D01*
X027008Y014336D01*
X026940Y014339D01*
X026872Y014338D01*
X026804Y014332D01*
X026736Y014323D01*
X026669Y014310D01*
X026603Y014293D01*
X026538Y014273D01*
X026474Y014248D01*
X026412Y014220D01*
X026352Y014189D01*
X026293Y014154D01*
X026236Y014116D01*
X026182Y014074D01*
X026130Y014030D01*
X026081Y013983D01*
X026035Y013932D01*
X025991Y013880D01*
X025951Y013825D01*
X025914Y013768D01*
X025880Y013708D01*
X025850Y013647D01*
X025823Y013584D01*
X025800Y013520D01*
D32*
X032453Y014697D02*
X032490Y014660D01*
X032637Y014660D01*
X032673Y014697D01*
X032673Y014770D01*
X032637Y014807D01*
X032563Y014807D01*
X032563Y014733D01*
X032490Y014807D02*
X032453Y014770D01*
X032453Y014697D01*
X032453Y014881D02*
X032673Y015028D01*
X032453Y015028D01*
X032453Y015102D02*
X032453Y015212D01*
X032490Y015249D01*
X032637Y015249D01*
X032673Y015212D01*
X032673Y015102D01*
X032453Y015102D01*
X032453Y014881D02*
X032673Y014881D01*
X033453Y014881D02*
X033453Y014991D01*
X033490Y015028D01*
X033637Y015028D01*
X033673Y014991D01*
X033673Y014881D01*
X033453Y014881D01*
X033453Y014807D02*
X033600Y014807D01*
X033673Y014733D01*
X033600Y014660D01*
X033453Y014660D01*
X033453Y015102D02*
X033453Y015212D01*
X033490Y015249D01*
X033637Y015249D01*
X033673Y015212D01*
X033673Y015102D01*
X033453Y015102D01*
X034453Y014991D02*
X034490Y015028D01*
X034527Y015028D01*
X034563Y014991D01*
X034563Y014881D01*
X034453Y014881D02*
X034453Y014991D01*
X034453Y014881D02*
X034673Y014881D01*
X034673Y014991D01*
X034637Y015028D01*
X034600Y015028D01*
X034563Y014991D01*
X034673Y014807D02*
X034673Y014660D01*
X034673Y014733D02*
X034453Y014733D01*
X034527Y014660D01*
X035453Y014733D02*
X035673Y014733D01*
X035673Y014660D02*
X035673Y014807D01*
X035673Y014881D02*
X035527Y014881D01*
X035453Y014954D01*
X035527Y015028D01*
X035673Y015028D01*
X035563Y015028D02*
X035563Y014881D01*
X035453Y014733D02*
X035527Y014660D01*
X036453Y014697D02*
X036490Y014660D01*
X036453Y014697D02*
X036453Y014770D01*
X036490Y014807D01*
X036527Y014807D01*
X036673Y014660D01*
X036673Y014807D01*
X036673Y014881D02*
X036527Y014881D01*
X036453Y014954D01*
X036527Y015028D01*
X036673Y015028D01*
X036563Y015028D02*
X036563Y014881D01*
X037453Y014881D02*
X037453Y014991D01*
X037490Y015028D01*
X037527Y015028D01*
X037563Y014991D01*
X037563Y014881D01*
X037527Y014807D02*
X037490Y014807D01*
X037453Y014770D01*
X037453Y014697D01*
X037490Y014660D01*
X037527Y014807D02*
X037673Y014660D01*
X037673Y014807D01*
X037673Y014881D02*
X037673Y014991D01*
X037637Y015028D01*
X037600Y015028D01*
X037563Y014991D01*
X037673Y014881D02*
X037453Y014881D01*
X038453Y014881D02*
X038673Y015028D01*
X038453Y015028D01*
X038453Y015102D02*
X038453Y015212D01*
X038490Y015249D01*
X038637Y015249D01*
X038673Y015212D01*
X038673Y015102D01*
X038453Y015102D01*
X038453Y014881D02*
X038673Y014881D01*
X038637Y014807D02*
X038563Y014807D01*
X038563Y014733D01*
X038490Y014660D02*
X038637Y014660D01*
X038673Y014697D01*
X038673Y014770D01*
X038637Y014807D01*
X038490Y014807D02*
X038453Y014770D01*
X038453Y014697D01*
X038490Y014660D01*
X039453Y014660D02*
X039600Y014660D01*
X039673Y014733D01*
X039600Y014807D01*
X039453Y014807D01*
X039527Y014881D02*
X039527Y014918D01*
X039563Y014954D01*
X039527Y014991D01*
X039563Y015028D01*
X039673Y015028D01*
X039673Y014954D02*
X039563Y014954D01*
X039527Y014881D02*
X039673Y014881D01*
X039637Y015102D02*
X039673Y015139D01*
X039673Y015212D01*
X039637Y015249D01*
X039563Y015249D01*
X039527Y015212D01*
X039527Y015139D01*
X039563Y015102D01*
X039637Y015102D01*
X039527Y015323D02*
X039527Y015396D01*
X039490Y015360D02*
X039637Y015360D01*
X039673Y015396D01*
X038413Y017997D02*
X038193Y017997D01*
X038267Y018070D01*
X038193Y018144D01*
X038413Y018144D01*
X038377Y018218D02*
X038413Y018255D01*
X038413Y018328D01*
X038377Y018365D01*
X038340Y018365D01*
X038303Y018328D01*
X038303Y018255D01*
X038267Y018218D01*
X038230Y018218D01*
X038193Y018255D01*
X038193Y018328D01*
X038230Y018365D01*
X038267Y018439D02*
X038193Y018512D01*
X038413Y018512D01*
X038413Y018439D02*
X038413Y018586D01*
X039193Y018586D02*
X039413Y018586D01*
X039193Y018439D01*
X039413Y018439D01*
X039413Y018365D02*
X039413Y018218D01*
X039193Y018218D01*
X039193Y018365D01*
X039303Y018291D02*
X039303Y018218D01*
X037413Y018255D02*
X037377Y018218D01*
X037413Y018255D02*
X037413Y018328D01*
X037377Y018365D01*
X037340Y018365D01*
X037303Y018328D01*
X037303Y018255D01*
X037267Y018218D01*
X037230Y018218D01*
X037193Y018255D01*
X037193Y018328D01*
X037230Y018365D01*
X037230Y018439D02*
X037193Y018476D01*
X037193Y018549D01*
X037230Y018586D01*
X037267Y018586D01*
X037413Y018439D01*
X037413Y018586D01*
X037413Y018144D02*
X037193Y018144D01*
X037267Y018070D01*
X037193Y017997D01*
X037413Y017997D01*
X036413Y017997D02*
X036193Y017997D01*
X036267Y018070D01*
X036193Y018144D01*
X036413Y018144D01*
X036377Y018218D02*
X036413Y018255D01*
X036413Y018328D01*
X036377Y018365D01*
X036340Y018365D01*
X036303Y018328D01*
X036303Y018255D01*
X036267Y018218D01*
X036230Y018218D01*
X036193Y018255D01*
X036193Y018328D01*
X036230Y018365D01*
X036230Y018439D02*
X036193Y018476D01*
X036193Y018549D01*
X036230Y018586D01*
X036267Y018586D01*
X036303Y018549D01*
X036340Y018586D01*
X036377Y018586D01*
X036413Y018549D01*
X036413Y018476D01*
X036377Y018439D01*
X036303Y018512D02*
X036303Y018549D01*
X035413Y018512D02*
X035193Y018512D01*
X035193Y018439D02*
X035193Y018586D01*
X035230Y018365D02*
X035193Y018328D01*
X035193Y018255D01*
X035230Y018218D01*
X035267Y018218D01*
X035303Y018255D01*
X035303Y018328D01*
X035340Y018365D01*
X035377Y018365D01*
X035413Y018328D01*
X035413Y018255D01*
X035377Y018218D01*
X035413Y018144D02*
X035340Y018070D01*
X035340Y018107D02*
X035340Y017997D01*
X035413Y017997D02*
X035193Y017997D01*
X035193Y018107D01*
X035230Y018144D01*
X035303Y018144D01*
X035340Y018107D01*
X034413Y018107D02*
X034413Y018034D01*
X034377Y017997D01*
X034303Y018034D02*
X034303Y018107D01*
X034340Y018144D01*
X034377Y018144D01*
X034413Y018107D01*
X034413Y018218D02*
X034193Y018218D01*
X034230Y018144D02*
X034193Y018107D01*
X034193Y018034D01*
X034230Y017997D01*
X034267Y017997D01*
X034303Y018034D01*
X034413Y018218D02*
X034413Y018365D01*
X034413Y018439D02*
X034193Y018439D01*
X034193Y018549D01*
X034230Y018586D01*
X034303Y018586D01*
X034340Y018549D01*
X034340Y018439D01*
X033413Y018439D02*
X033193Y018439D01*
X033193Y018549D01*
X033230Y018586D01*
X033303Y018586D01*
X033340Y018549D01*
X033340Y018439D01*
X033413Y018365D02*
X033413Y018218D01*
X033193Y018218D01*
X033193Y018365D01*
X033303Y018291D02*
X033303Y018218D01*
X033193Y018144D02*
X033193Y017997D01*
X033193Y018070D02*
X033413Y018070D01*
X033377Y017923D02*
X033413Y017886D01*
X033413Y017813D01*
X033377Y017776D01*
X033303Y017813D02*
X033267Y017776D01*
X033230Y017776D01*
X033193Y017813D01*
X033193Y017886D01*
X033230Y017923D01*
X033303Y017886D02*
X033340Y017923D01*
X033377Y017923D01*
X033303Y017886D02*
X033303Y017813D01*
X032413Y018071D02*
X032413Y018181D01*
X032377Y018217D01*
X032230Y018217D01*
X032193Y018181D01*
X032193Y018071D01*
X032413Y018071D01*
X032413Y018292D02*
X032413Y018365D01*
X032413Y018328D02*
X032193Y018328D01*
X032193Y018292D02*
X032193Y018365D01*
X032193Y018439D02*
X032193Y018549D01*
X032230Y018586D01*
X032303Y018586D01*
X032340Y018549D01*
X032340Y018439D01*
X032413Y018439D02*
X032193Y018439D01*
X032340Y018512D02*
X032413Y018586D01*
X015533Y016700D02*
X014733Y016700D01*
X015133Y016250D02*
X015133Y015050D01*
X015033Y015350D02*
X015033Y015950D01*
X015233Y015950D01*
X015233Y015350D01*
X015033Y015350D01*
X014733Y014600D02*
X015533Y014600D01*
D33*
X015278Y011316D02*
X015278Y010895D01*
X015068Y010685D01*
X014857Y010895D01*
X014857Y011316D01*
X014633Y011210D02*
X014528Y011316D01*
X014318Y011316D01*
X014213Y011210D01*
X014633Y011210D02*
X014633Y011105D01*
X014213Y010685D01*
X014633Y010685D01*
X013989Y010685D02*
X013568Y010685D01*
X013779Y010685D02*
X013779Y011316D01*
X013568Y011105D01*
X011598Y010151D02*
X010968Y010151D01*
X010968Y010361D02*
X010968Y009940D01*
X010968Y009716D02*
X011493Y009716D01*
X011598Y009611D01*
X011598Y009401D01*
X011493Y009296D01*
X010968Y009296D01*
X011073Y009072D02*
X010968Y008967D01*
X010968Y008756D01*
X011073Y008651D01*
X011493Y008651D01*
X011598Y008756D01*
X011598Y008967D01*
X011493Y009072D01*
X011073Y009072D01*
X010968Y008427D02*
X011388Y008427D01*
X011598Y008217D01*
X011388Y008007D01*
X010968Y008007D01*
X011073Y007783D02*
X010968Y007678D01*
X010968Y007467D01*
X011073Y007362D01*
X011073Y007783D02*
X011178Y007783D01*
X011598Y007362D01*
X011598Y007783D01*
X011598Y007138D02*
X011598Y006718D01*
X011598Y006928D02*
X010968Y006928D01*
X011178Y006718D01*
X011178Y028751D02*
X010968Y028962D01*
X011598Y028962D01*
X011598Y029172D02*
X011598Y028751D01*
X011493Y029396D02*
X011598Y029501D01*
X011598Y029711D01*
X011493Y029816D01*
X011283Y029816D01*
X011178Y029711D01*
X011178Y029606D01*
X011283Y029396D01*
X010968Y029396D01*
X010968Y029816D01*
X010968Y030040D02*
X011388Y030040D01*
X011598Y030251D01*
X011388Y030461D01*
X010968Y030461D01*
D34*
X039583Y027740D02*
X039583Y027590D01*
X040233Y027400D02*
X040333Y027500D01*
X040503Y026650D02*
X040653Y026650D01*
X040233Y025950D02*
X040333Y025850D01*
X039583Y025710D02*
X039583Y025560D01*
X039933Y009370D02*
X039933Y009220D01*
X040633Y008950D02*
X040733Y009050D01*
X040873Y008300D02*
X041023Y008300D01*
X039183Y008950D02*
X039083Y009050D01*
X038993Y008300D02*
X038843Y008300D01*
X030023Y008300D02*
X029873Y008300D01*
X029633Y008950D02*
X029733Y009050D01*
X028933Y009220D02*
X028933Y009370D01*
X028183Y008950D02*
X028083Y009050D01*
X027993Y008300D02*
X027843Y008300D01*
X026523Y008300D02*
X026373Y008300D01*
X026133Y008950D02*
X026233Y009050D01*
X025433Y009220D02*
X025433Y009370D01*
X024683Y008950D02*
X024583Y009050D01*
X024493Y008300D02*
X024343Y008300D01*
D35*
X020633Y019650D02*
X020633Y019950D01*
X020633Y020250D01*
X020433Y020250D02*
X020433Y019950D01*
X020433Y019650D01*
X020133Y023550D02*
X020133Y023850D01*
X020133Y024150D01*
X019933Y024150D02*
X019933Y023850D01*
X019933Y023550D01*
X017033Y025700D02*
X016733Y025700D01*
X016433Y025700D01*
X016433Y025900D02*
X016733Y025900D01*
X017033Y025900D01*
X014283Y025850D02*
X014283Y026150D01*
X014283Y026450D01*
X014083Y026450D02*
X014083Y026150D01*
X014083Y025850D01*
X014233Y022150D02*
X013933Y022150D01*
X013933Y021950D02*
X014233Y021950D01*
X014533Y021950D01*
X014533Y022150D02*
X014233Y022150D01*
M02*
